  0
SECTION
  2
HEADER
  9
$ACADVER
  1
AC1009
  9
$DWGCODEPAGE
  3
ansi_1252
  9
$INSBASE
 10
0.0
 20
0.0
 30
0.0
  9
$EXTMIN
 10
1.000000000000000E+20
 20
1.000000000000000E+20
 30
1.000000000000000E+20
  9
$EXTMAX
 10
-1.000000000000000E+20
 20
-1.000000000000000E+20
 30
-1.000000000000000E+20
  9
$LIMMIN
 10
0.0
 20
0.0
  9
$LIMMAX
 10
420.0
 20
297.0
  9
$ORTHOMODE
 70
     0
  9
$REGENMODE
 70
     1
  9
$FILLMODE
 70
     1
  9
$QTEXTMODE
 70
     0
  9
$MIRRTEXT
 70
     0
  9
$DRAGMODE
 70
     2
  9
$LTSCALE
 40
1.0
  9
$OSMODE
 70
  1023
  9
$ATTMODE
 70
     1
  9
$TEXTSIZE
 40
2.5
  9
$TRACEWID
 40
1.0
  9
$TEXTSTYLE
  7
STANDARD
  9
$CLAYER
  8
0
  9
$CELTYPE
  6
BYLAYER
  9
$CECOLOR
 62
   256
  9
$DIMSCALE
 40
1.0
  9
$DIMASZ
 40
2.5
  9
$DIMEXO
 40
0.625
  9
$DIMDLI
 40
3.75
  9
$DIMRND
 40
0.0
  9
$DIMDLE
 40
0.0
  9
$DIMEXE
 40
1.25
  9
$DIMTP
 40
0.0
  9
$DIMTM
 40
0.0
  9
$DIMTXT
 40
2.5
  9
$DIMCEN
 40
2.5
  9
$DIMTSZ
 40
0.0
  9
$DIMTOL
 70
     0
  9
$DIMLIM
 70
     0
  9
$DIMTIH
 70
     0
  9
$DIMTOH
 70
     0
  9
$DIMSE1
 70
     0
  9
$DIMSE2
 70
     0
  9
$DIMTAD
 70
     1
  9
$DIMZIN
 70
     8
  9
$DIMBLK
  1

  9
$DIMASO
 70
     1
  9
$DIMSHO
 70
     1
  9
$DIMPOST
  1

  9
$DIMAPOST
  1

  9
$DIMALT
 70
     0
  9
$DIMALTD
 70
     3
  9
$DIMALTF
 40
0.03937007874016
  9
$DIMLFAC
 40
1.0
  9
$DIMTOFL
 70
     1
  9
$DIMTVP
 40
0.0
  9
$DIMTIX
 70
     0
  9
$DIMSOXD
 70
     0
  9
$DIMSAH
 70
     0
  9
$DIMBLK1
  1

  9
$DIMBLK2
  1

  9
$DIMSTYLE
  2
ISO-25
  9
$DIMCLRD
 70
     0
  9
$DIMCLRE
 70
     0
  9
$DIMCLRT
 70
     0
  9
$DIMTFAC
 40
1.0
  9
$DIMGAP
 40
0.625
  9
$LUNITS
 70
     2
  9
$LUPREC
 70
     3
  9
$SKETCHINC
 40
1.0
  9
$FILLETRAD
 40
10.0
  9
$AUNITS
 70
     0
  9
$AUPREC
 70
     0
  9
$MENU
  1
.
  9
$ELEVATION
 40
0.0
  9
$PELEVATION
 40
0.0
  9
$THICKNESS
 40
0.0
  9
$LIMCHECK
 70
     0
  9
$CHAMFERA
 40
10.0
  9
$CHAMFERB
 40
10.0
  9
$SKPOLY
 70
     0
  9
$TDCREATE
 40
2455022.720692847
  9
$TDUPDATE
 40
2457849.42202706
  9
$TDINDWG
 40
0.0029325347
  9
$TDUSRTIMER
 40
2457849.335761285
  9
$USRTIMER
 70
     1
  9
$ANGBASE
 50
0.0
  9
$ANGDIR
 70
     0
  9
$PDMODE
 70
     0
  9
$PDSIZE
 40
0.0
  9
$PLINEWID
 40
0.0
  9
$COORDS
 70
     1
  9
$SPLFRAME
 70
     0
  9
$SPLINETYPE
 70
     6
  9
$SPLINESEGS
 70
     8
  9
$ATTDIA
 70
     0
  9
$ATTREQ
 70
     1
  9
$HANDLING
 70
     1
  9
$HANDSEED
  5
137
  9
$SURFTAB1
 70
     6
  9
$SURFTAB2
 70
     6
  9
$SURFTYPE
 70
     6
  9
$SURFU
 70
     6
  9
$SURFV
 70
     6
  9
$UCSNAME
  2

  9
$UCSORG
 10
0.0
 20
0.0
 30
0.0
  9
$UCSXDIR
 10
1.0
 20
0.0
 30
0.0
  9
$UCSYDIR
 10
0.0
 20
1.0
 30
0.0
  9
$PUCSNAME
  2

  9
$PUCSORG
 10
0.0
 20
0.0
 30
0.0
  9
$PUCSXDIR
 10
1.0
 20
0.0
 30
0.0
  9
$PUCSYDIR
 10
0.0
 20
1.0
 30
0.0
  9
$USERI1
 70
     0
  9
$USERI2
 70
     0
  9
$USERI3
 70
     0
  9
$USERI4
 70
     0
  9
$USERI5
 70
     0
  9
$USERR1
 40
0.0
  9
$USERR2
 40
0.0
  9
$USERR3
 40
0.0
  9
$USERR4
 40
0.0
  9
$USERR5
 40
0.0
  9
$WORLDVIEW
 70
     1
  9
$SHADEDGE
 70
     3
  9
$SHADEDIF
 70
    70
  9
$TILEMODE
 70
     1
  9
$MAXACTVP
 70
    64
  9
$PLIMCHECK
 70
     0
  9
$PEXTMIN
 10
1.000000000000000E+20
 20
1.000000000000000E+20
 30
1.000000000000000E+20
  9
$PEXTMAX
 10
-1.000000000000000E+20
 20
-1.000000000000000E+20
 30
-1.000000000000000E+20
  9
$PLIMMIN
 10
0.0
 20
0.0
  9
$PLIMMAX
 10
0.0
 20
0.0
  9
$UNITMODE
 70
     0
  9
$VISRETAIN
 70
     1
  9
$PLINEGEN
 70
     0
  9
$PSLTSCALE
 70
     1
  0
ENDSEC
  0
SECTION
  2
TABLES
  0
TABLE
  2
VPORT
 70
     1
  0
VPORT
  2
*ACTIVE
 70
     0
 10
0.0
 20
0.0
 11
1.0
 21
1.0
 12
930.0047933028106
 22
299.0793157096269
 13
0.0
 23
0.0
 14
10.0
 24
10.0
 15
10.0
 25
10.0
 16
0.0
 26
0.0
 36
1.0
 17
-134.1869158878503
 27
0.0
 37
0.0
 40
1175.537109375
 41
2.372523117569353
 42
50.0
 43
0.0
 44
0.0
 50
0.0
 51
0.0
 71
    16
 72
  1000
 73
     1
 74
     3
 75
     0
 76
     0
 77
     0
 78
     0
  0
ENDTAB
  0
TABLE
  2
LTYPE
 70
     2
  0
LTYPE
  2
CONTINUOUS
 70
     0
  3
Solid line
 72
    65
 73
     0
 40
0.0
  0
LTYPE
  2
CENTERX2
 70
     0
  3
Center (2x) ________  __  ________  __  _____
 72
    65
 73
     4
 40
20.32
 49
12.7
 49
-2.54
 49
2.54
 49
-2.54
  0
ENDTAB
  0
TABLE
  2
LAYER
 70
     1
  0
LAYER
  2
0
 70
     0
 62
     7
  6
CONTINUOUS
  0
ENDTAB
  0
TABLE
  2
STYLE
 70
     1
  0
STYLE
  2
STANDARD
 70
     0
 40
0.0
 41
1.0
 50
0.0
 71
     0
 42
2.5
  3
arial.ttf
  4

  0
ENDTAB
  0
TABLE
  2
VIEW
 70
     0
  0
ENDTAB
  0
TABLE
  2
UCS
 70
     0
  0
ENDTAB
  0
TABLE
  2
APPID
 70
     1
  0
APPID
  2
ACAD
 70
     0
  0
ENDTAB
  0
TABLE
  2
DIMSTYLE
 70
     2
  0
DIMSTYLE
  2
ISO-25
 70
     0
  3

  4

  5

  6

  7

 40
1.0
 41
2.5
 42
0.625
 43
3.75
 44
1.25
 45
0.0
 46
0.0
 47
0.0
 48
0.0
140
2.5
141
2.5
142
0.0
143
0.03937007874016
144
1.0
145
0.0
146
1.0
147
0.625
 71
     0
 72
     0
 73
     0
 74
     0
 75
     0
 76
     0
 77
     1
 78
     8
170
     0
171
     3
172
     1
173
     0
174
     0
175
     0
176
     0
177
     0
178
     0
  0
DIMSTYLE
  2
STANDARD
 70
     0
  3

  4

  5

  6

  7

 40
1.0
 41
0.18
 42
0.0625
 43
0.38
 44
0.18
 45
0.0
 46
0.0
 47
0.0
 48
0.0
140
0.18
141
0.09
142
0.0
143
25.4
144
1.0
145
0.0
146
1.0
147
0.09
 71
     0
 72
     0
 73
     1
 74
     1
 75
     0
 76
     0
 77
     0
 78
     0
170
     0
171
     2
172
     0
173
     0
174
     0
175
     0
176
     0
177
     0
178
     0
  0
ENDTAB
  0
ENDSEC
  0
SECTION
  2
BLOCKS
  0
BLOCK
  8
0
  2
$MODEL_SPACE
 70
     0
 10
0.0
 20
0.0
 30
0.0
  3
$MODEL_SPACE
  1

  0
ENDBLK
  5
21
  8
0
  0
BLOCK
 67
     1
  8
0
  2
$PAPER_SPACE
 70
     0
 10
0.0
 20
0.0
 30
0.0
  3
$PAPER_SPACE
  1

  0
ENDBLK
  5
1D
 67
     1
  8
0
  0
ENDSEC
  0
SECTION
  2
ENTITIES
  0
LINE
  5
10B
  8
0
  6
CENTERX2
 62
     7
 10
1923.940465614324
 20
491.0791662707157
 30
0.0
 11
-8.674511702675886
 21
491.0791662707157
 31
0.0
  0
LINE
  5
10C
  8
0
  6
CENTERX2
 62
     7
 10
-34.32899010597532
 20
96.22832622941829
 30
0.0
 11
1949.594944017525
 21
96.22832622941829
 31
0.0
  0
CIRCLE
  5
10D
  8
0
  6
CONTINUOUS
 62
     7
 10
137.6329769558241
 20
266.1537462500161
 30
0.0
 40
10.00000000000002
  0
CIRCLE
  5
10E
  8
0
  6
CONTINUOUS
 62
     7
 10
957.6329769558241
 20
266.1537462500161
 30
0.0
 40
9.999999999999996
  0
CIRCLE
  5
10F
  8
0
  6
CONTINUOUS
 62
     7
 10
1777.632976955824
 20
266.1537462500161
 30
0.0
 40
9.999999999999806
  0
CIRCLE
  5
110
  8
0
  6
CONTINUOUS
 62
     7
 10
1624.299643622525
 20
126.1537462500161
 30
0.0
 40
10.0
  0
CIRCLE
  5
111
  8
0
  6
CONTINUOUS
 62
     7
 10
1290.966310289125
 20
126.1537462500161
 30
0.0
 40
10.00000000000006
  0
CIRCLE
  5
112
  8
0
  6
CONTINUOUS
 62
     7
 10
624.2996436225247
 20
126.1537462500161
 30
0.0
 40
10.00000000000003
  0
CIRCLE
  5
113
  8
0
  6
CONTINUOUS
 62
     7
 10
57.63297695582412
 20
126.1537462500161
 30
0.0
 40
10.00000000000023
  0
CIRCLE
  5
114
  8
0
  6
CONTINUOUS
 62
     7
 10
1290.966310289125
 20
406.1537462500161
 30
0.0
 40
10.00000000000006
  0
CIRCLE
  5
115
  8
0
  6
CONTINUOUS
 62
     7
 10
624.2996436225247
 20
406.1537462500161
 30
0.0
 40
10.00000000000003
  0
CIRCLE
  5
116
  8
0
  6
CONTINUOUS
 62
     7
 10
762.6329769558241
 20
326.1537462500161
 30
0.0
 40
16.0
  0
CIRCLE
  5
117
  8
0
  6
CONTINUOUS
 62
     7
 10
1857.632976955824
 20
406.1537462500161
 30
0.0
 40
10.00000000000028
  0
CIRCLE
  5
118
  8
0
  6
CONTINUOUS
 62
     7
 10
1624.299643622525
 20
406.1537462500161
 30
0.0
 40
10.0
  0
CIRCLE
  5
119
  8
0
  6
CONTINUOUS
 62
     7
 10
290.9663102891244
 20
406.1537462500161
 30
0.0
 40
9.999999999999972
  0
CIRCLE
  5
11A
  8
0
  6
CONTINUOUS
 62
     7
 10
57.63297695582412
 20
406.1537462500161
 30
0.0
 40
10.00000000000023
  0
CIRCLE
  5
11B
  8
0
  6
CONTINUOUS
 62
     7
 10
290.9663102891244
 20
126.1537462500161
 30
0.0
 40
9.999999999999972
  0
CIRCLE
  5
11C
  8
0
  6
CONTINUOUS
 62
     7
 10
957.6329769558241
 20
126.1537462500161
 30
0.0
 40
10.0
  0
CIRCLE
  5
11D
  8
0
  6
CONTINUOUS
 62
     7
 10
957.6329769558241
 20
406.1537462500161
 30
0.0
 40
10.0
  0
CIRCLE
  5
11E
  8
0
  6
CONTINUOUS
 62
     7
 10
1857.632976955824
 20
126.1537462500161
 30
0.0
 40
10.00000000000034
  0
CIRCLE
  5
11F
  8
0
  6
CONTINUOUS
 62
     7
 10
1417.632976955824
 20
266.1537462500161
 30
0.0
 40
9.999999999999876
  0
CIRCLE
  5
120
  8
0
  6
CONTINUOUS
 62
     7
 10
497.6329769558241
 20
266.1537462500161
 30
0.0
 40
10.00000000000008
  0
LINE
  5
121
  8
0
  6
CONTINUOUS
 62
     7
 10
1907.833469471187
 20
522.0045862913172
 30
0.0
 11
1907.833469471187
 21
494.0791662707157
 31
0.0
  0
LINE
  5
122
  8
0
  6
CONTINUOUS
 62
     7
 10
1940.471840733327
 20
65.30290620871861
 30
0.0
 11
1940.471840733327
 21
93.22832622941829
 31
0.0
  0
LINE
  5
123
  8
0
  6
CONTINUOUS
 62
     7
 10
-25.16250974874049
 20
65.30290620871861
 30
0.0
 11
1940.471840733327
 21
65.30290620871861
 31
0.0
  0
LINE
  5
124
  8
0
  6
CONTINUOUS
 62
     7
 10
1907.833469471187
 20
522.0045862913172
 30
0.0
 11
7.475861513399536
 21
522.0045862913172
 31
0.0
  0
ARC
  5
125
  8
0
  6
CONTINUOUS
 62
     7
 10
1407.632976955824
 20
476.1537462500161
 30
0.0
 40
16.0
 50
134.7913246600939
 51
45.20867533990155
  0
CIRCLE
  5
126
  8
0
  6
CONTINUOUS
 62
     7
 10
1602.632976955524
 20
266.1537462500161
 30
0.0
 40
90.0000000000007
  0
CIRCLE
  5
127
  8
0
  6
CONTINUOUS
 62
     7
 10
312.6329769561243
 20
266.1537462500161
 30
0.0
 40
89.9999999999994
  0
LINE
  5
128
  8
0
 10
1418.905405171488
 20
487.5085849596904
 30
0.0
 11
1418.905405171488
 21
495.3401653984143
 31
0.0
  0
LINE
  5
129
  8
0
 10
1396.36054874016
 20
487.5085849596904
 30
0.0
 11
1396.36054874016
 21
495.3401653984143
 31
0.0
  0
LINE
  5
12A
  8
0
 10
1418.905405171488
 20
495.3401653984143
 30
0.0
 11
1396.36054874016
 21
495.3401653984143
 31
0.0
  0
LINE
  5
12B
  8
0
 10
1940.471840733328
 20
93.22832622941829
 30
0.0
 11
1930.471840733328
 21
96.22832622941829
 31
0.0
  0
LINE
  5
12C
  8
0
 10
1930.471840733328
 20
96.22832622941829
 30
0.0
 11
1944.610918753088
 21
100.4700496353463
 31
0.0
  0
LINE
  5
12D
  8
0
 10
1911.988456123331
 20
486.832670275072
 30
0.0
 11
1897.833469471187
 21
491.0791662707157
 31
0.0
  0
LINE
  5
12E
  8
0
 10
1897.833469471187
 20
491.0791662707157
 30
0.0
 11
1907.833469471187
 21
494.0791662707157
 31
0.0
  0
ARC
  5
12F
  8
0
  6
CONTINUOUS
 62
     7
 10
1602.632976955524
 20
266.1537462500161
 30
0.0
 40
380.0
 50
334.1504381482191
 51
35.50218560855324
  0
LINE
  5
130
  8
0
  6
CONTINUOUS
 62
     7
 10
7.475861513399536
 20
522.0045862913172
 30
0.0
 11
7.475861513399536
 21
494.0791662707157
 31
0.0
  0
LINE
  5
131
  8
0
  6
CONTINUOUS
 62
     7
 10
-25.16250974874049
 20
65.30290620871861
 30
0.0
 11
-25.16250974874049
 21
93.22832622941829
 31
0.0
  0
LINE
  5
132
  8
0
 10
-25.1625097487414
 20
93.22832622941829
 30
0.0
 11
-15.1625097487414
 21
96.22832622941829
 31
0.0
  0
LINE
  5
133
  8
0
 10
-15.1625097487414
 20
96.22832622941829
 30
0.0
 11
-29.30158776850215
 21
100.4700496353463
 31
0.0
  0
LINE
  5
134
  8
0
 10
17.47586151339954
 20
491.0791662707157
 30
0.0
 11
7.475861513399536
 21
494.0791662707157
 31
0.0
  0
LINE
  5
135
  8
0
 10
3.320874861254993
 20
486.832670275072
 30
0.0
 11
17.47586151339954
 21
491.0791662707157
 31
0.0
  0
ARC
  5
136
  8
0
  6
CONTINUOUS
 62
     7
 10
312.6763540290621
 20
266.1537462500161
 30
0.0
 40
380.0
 50
144.4978143914468
 51
205.8495618517809
  0
ENDSEC
  0
EOF
