  0
SECTION
  2
HEADER
  9
$ACADVER
  1
AC1009
  9
$DWGCODEPAGE
  3
ansi_1252
  9
$INSBASE
 10
0.0
 20
0.0
 30
0.0
  9
$EXTMIN
 10
5.731130270146849
 20
3.866550196796084
 30
0.0
  9
$EXTMAX
 10
2095.731130269521
 20
1239.866550196817
 30
0.0
  9
$LIMMIN
 10
0.0
 20
0.0
  9
$LIMMAX
 10
12.0
 20
9.0
  9
$ORTHOMODE
 70
     1
  9
$REGENMODE
 70
     1
  9
$FILLMODE
 70
     1
  9
$QTEXTMODE
 70
     0
  9
$MIRRTEXT
 70
     0
  9
$DRAGMODE
 70
     2
  9
$LTSCALE
 40
1.0
  9
$OSMODE
 70
  1023
  9
$ATTMODE
 70
     1
  9
$TEXTSIZE
 40
0.2
  9
$TRACEWID
 40
0.05
  9
$TEXTSTYLE
  7
STANDARD
  9
$CLAYER
  8
0
  9
$CELTYPE
  6
BYLAYER
  9
$CECOLOR
 62
   256
  9
$DIMSCALE
 40
1.0
  9
$DIMASZ
 40
0.18
  9
$DIMEXO
 40
0.0625
  9
$DIMDLI
 40
0.38
  9
$DIMRND
 40
0.0
  9
$DIMDLE
 40
0.0
  9
$DIMEXE
 40
0.18
  9
$DIMTP
 40
0.0
  9
$DIMTM
 40
0.0
  9
$DIMTXT
 40
0.18
  9
$DIMCEN
 40
0.09
  9
$DIMTSZ
 40
0.0
  9
$DIMTOL
 70
     0
  9
$DIMLIM
 70
     0
  9
$DIMTIH
 70
     1
  9
$DIMTOH
 70
     1
  9
$DIMSE1
 70
     0
  9
$DIMSE2
 70
     0
  9
$DIMTAD
 70
     0
  9
$DIMZIN
 70
     0
  9
$DIMBLK
  1

  9
$DIMASO
 70
     1
  9
$DIMSHO
 70
     1
  9
$DIMPOST
  1

  9
$DIMAPOST
  1

  9
$DIMALT
 70
     0
  9
$DIMALTD
 70
     2
  9
$DIMALTF
 40
25.4
  9
$DIMLFAC
 40
1.0
  9
$DIMTOFL
 70
     0
  9
$DIMTVP
 40
0.0
  9
$DIMTIX
 70
     0
  9
$DIMSOXD
 70
     0
  9
$DIMSAH
 70
     0
  9
$DIMBLK1
  1

  9
$DIMBLK2
  1

  9
$DIMSTYLE
  2
STANDARD
  9
$DIMCLRD
 70
     0
  9
$DIMCLRE
 70
     0
  9
$DIMCLRT
 70
     0
  9
$DIMTFAC
 40
1.0
  9
$DIMGAP
 40
0.09
  9
$LUNITS
 70
     2
  9
$LUPREC
 70
     4
  9
$SKETCHINC
 40
0.1
  9
$FILLETRAD
 40
0.0
  9
$AUNITS
 70
     0
  9
$AUPREC
 70
     0
  9
$MENU
  1
.
  9
$ELEVATION
 40
0.0
  9
$PELEVATION
 40
0.0
  9
$THICKNESS
 40
0.0
  9
$LIMCHECK
 70
     0
  9
$CHAMFERA
 40
0.0
  9
$CHAMFERB
 40
0.0
  9
$SKPOLY
 70
     0
  9
$TDCREATE
 40
2452643.146717593
  9
$TDUPDATE
 40
2458029.588035104
  9
$TDINDWG
 40
0.0038049537
  9
$TDUSRTIMER
 40
2458029.503955787
  9
$USRTIMER
 70
     1
  9
$ANGBASE
 50
0.0
  9
$ANGDIR
 70
     0
  9
$PDMODE
 70
     0
  9
$PDSIZE
 40
0.0
  9
$PLINEWID
 40
0.0
  9
$COORDS
 70
     1
  9
$SPLFRAME
 70
     0
  9
$SPLINETYPE
 70
     6
  9
$SPLINESEGS
 70
     8
  9
$ATTDIA
 70
     0
  9
$ATTREQ
 70
     1
  9
$HANDLING
 70
     1
  9
$HANDSEED
  5
727
  9
$SURFTAB1
 70
     6
  9
$SURFTAB2
 70
     6
  9
$SURFTYPE
 70
     6
  9
$SURFU
 70
     6
  9
$SURFV
 70
     6
  9
$UCSNAME
  2

  9
$UCSORG
 10
0.0
 20
0.0
 30
0.0
  9
$UCSXDIR
 10
1.0
 20
0.0
 30
0.0
  9
$UCSYDIR
 10
0.0
 20
1.0
 30
0.0
  9
$PUCSNAME
  2

  9
$PUCSORG
 10
0.0
 20
0.0
 30
0.0
  9
$PUCSXDIR
 10
1.0
 20
0.0
 30
0.0
  9
$PUCSYDIR
 10
0.0
 20
1.0
 30
0.0
  9
$USERI1
 70
     0
  9
$USERI2
 70
     0
  9
$USERI3
 70
     0
  9
$USERI4
 70
     0
  9
$USERI5
 70
     0
  9
$USERR1
 40
0.0
  9
$USERR2
 40
0.0
  9
$USERR3
 40
0.0
  9
$USERR4
 40
0.0
  9
$USERR5
 40
0.0
  9
$WORLDVIEW
 70
     1
  9
$SHADEDGE
 70
     3
  9
$SHADEDIF
 70
    70
  9
$TILEMODE
 70
     1
  9
$MAXACTVP
 70
    64
  9
$PLIMCHECK
 70
     0
  9
$PEXTMIN
 10
0.0
 20
0.0
 30
0.0
  9
$PEXTMAX
 10
0.0
 20
0.0
 30
0.0
  9
$PLIMMIN
 10
0.0
 20
0.0
  9
$PLIMMAX
 10
0.0
 20
0.0
  9
$UNITMODE
 70
     0
  9
$VISRETAIN
 70
     1
  9
$PLINEGEN
 70
     0
  9
$PSLTSCALE
 70
     1
  0
ENDSEC
  0
SECTION
  2
TABLES
  0
TABLE
  2
VPORT
 70
     1
  0
VPORT
  2
*ACTIVE
 70
     0
 10
0.0
 20
0.0
 11
1.0
 21
1.0
 12
1259.468403412867
 22
805.8784349289111
 13
0.0
 23
0.0
 14
0.5
 24
0.5
 15
0.5
 25
0.5
 16
0.0
 26
0.0
 36
1.0
 17
-27.66959356597999
 27
-19.53870295786191
 37
0.0
 40
3087.558303712764
 41
2.122302158273381
 42
50.0
 43
0.0
 44
0.0
 50
0.0
 51
0.0
 71
    16
 72
  1000
 73
     1
 74
     3
 75
     0
 76
     0
 77
     0
 78
     0
  0
ENDTAB
  0
TABLE
  2
LTYPE
 70
     1
  0
LTYPE
  2
CONTINUOUS
 70
     0
  3
Solid line
 72
    65
 73
     0
 40
0.0
  0
ENDTAB
  0
TABLE
  2
LAYER
 70
     1
  0
LAYER
  2
0
 70
     0
 62
     7
  6
CONTINUOUS
  0
ENDTAB
  0
TABLE
  2
STYLE
 70
     1
  0
STYLE
  2
STANDARD
 70
     0
 40
0.0
 41
1.0
 50
0.0
 71
     0
 42
0.2
  3
arial.ttf
  4

  0
ENDTAB
  0
TABLE
  2
VIEW
 70
     0
  0
ENDTAB
  0
TABLE
  2
UCS
 70
     0
  0
ENDTAB
  0
TABLE
  2
APPID
 70
     4
  0
APPID
  2
ACAD
 70
     0
  0
APPID
  2
AECBASE
 70
     0
  0
APPID
  2
AEC_2DSECTION_XDATA
 70
     0
  0
APPID
  2
AEC_MASSGROUP_XDADA
 70
     0
  0
ENDTAB
  0
TABLE
  2
DIMSTYLE
 70
     1
  0
DIMSTYLE
  2
STANDARD
 70
     0
  3

  4

  5

  6

  7

 40
1.0
 41
0.18
 42
0.0625
 43
0.38
 44
0.18
 45
0.0
 46
0.0
 47
0.0
 48
0.0
140
0.18
141
0.09
142
0.0
143
25.4
144
1.0
145
0.0
146
1.0
147
0.09
 71
     0
 72
     0
 73
     1
 74
     1
 75
     0
 76
     0
 77
     0
 78
     0
170
     0
171
     2
172
     0
173
     0
174
     0
175
     0
176
     0
177
     0
178
     0
  0
ENDTAB
  0
ENDSEC
  0
SECTION
  2
BLOCKS
  0
BLOCK
  8
0
  2
$MODEL_SPACE
 70
     0
 10
0.0
 20
0.0
 30
0.0
  3
$MODEL_SPACE
  1

  0
ENDBLK
  5
21
  8
0
  0
BLOCK
 67
     1
  8
0
  2
$PAPER_SPACE
 70
     0
 10
0.0
 20
0.0
 30
0.0
  3
$PAPER_SPACE
  1

  0
ENDBLK
  5
5B
 67
     1
  8
0
  0
BLOCK
  8
0
  2
*X0
 70
     1
 10
0.0
 20
0.0
 30
0.0
  3
*X0
  1

  0
TEXT
  5
574
  8
0
  6
CONTINUOUS
 10
386.1403068852226
 20
1606.162288777796
 30
0.0
 40
100.0
  1
Correggere anche gli
  0
TEXT
  5
575
  8
0
  6
CONTINUOUS
 10
388.1403068852226
 20
1472.762288777796
 30
0.0
 40
100.0
  1
alloggiamenti dei
  0
TEXT
  5
576
  8
0
  6
CONTINUOUS
 10
384.0403068852225
 20
1339.362288777796
 30
0.0
 40
100.0
  1
rotori
  0
ENDBLK
  5
578
  8
0
  0
ENDSEC
  0
SECTION
  2
ENTITIES
  0
CIRCLE
  5
267
  8
0
 10
855.7311302698412
 20
483.8665501967879
 30
0.0
 40
16.0
  0
CIRCLE
  5
268
  8
0
 10
1500.731130269839
 20
633.8665501967879
 30
0.0
 40
16.0
  0
CIRCLE
  5
269
  8
0
 10
405.7311302701431
 20
423.8665501967879
 30
0.0
 40
45.0
  0
CIRCLE
  5
26B
  8
0
 10
470.7311302701431
 20
423.8665501967879
 30
0.0
 40
7.00000000000004
  0
CIRCLE
  5
26C
  8
0
 10
405.7311302701431
 20
358.8665501967879
 30
0.0
 40
7.000000000000036
  0
CIRCLE
  5
26D
  8
0
 10
340.7311302701431
 20
423.8665501967879
 30
0.0
 40
7.00000000000004
  0
CIRCLE
  5
26E
  8
0
 10
405.7311302701431
 20
488.8665501967879
 30
0.0
 40
7.000000000000057
  0
CIRCLE
  5
273
  8
0
 10
315.7311302698412
 20
658.8665501967879
 30
0.0
 40
16.0
  0
CIRCLE
  5
274
  8
0
 10
1785.731130269839
 20
658.8665501967879
 30
0.0
 40
16.0
  0
CIRCLE
  5
275
  8
0
 10
1760.731130269541
 20
423.8665501967879
 30
0.0
 40
7.00000000000004
  0
CIRCLE
  5
276
  8
0
 10
1695.731130269541
 20
488.8665501967879
 30
0.0
 40
7.000000000000057
  0
CIRCLE
  5
277
  8
0
 10
1630.731130269541
 20
423.8665501967879
 30
0.0
 40
7.00000000000004
  0
CIRCLE
  5
278
  8
0
 10
1695.731130269541
 20
358.8665501967879
 30
0.0
 40
7.000000000000036
  0
CIRCLE
  5
279
  8
0
 10
1695.731130269541
 20
423.8665501967879
 30
0.0
 40
45.0
  0
CIRCLE
  5
27A
  8
0
 10
197.3265122476018
 20
820.0507505112363
 30
0.0
 40
10.0
  0
CIRCLE
  5
27B
  8
0
 10
243.6463415837183
 20
845.4242711307596
 30
0.0
 40
10.0
  0
CIRCLE
  5
27C
  8
0
 10
290.2505828400984
 20
857.2367639454277
 30
0.0
 40
10.0
  0
CIRCLE
  5
27D
  8
0
 10
1904.135748292077
 20
820.0507505112363
 30
0.0
 40
10.0
  0
CIRCLE
  5
27E
  8
0
 10
1857.815918955962
 20
845.4242711307596
 30
0.0
 40
10.0
  0
CIRCLE
  5
27F
  8
0
 10
1811.211677699582
 20
857.2367639454277
 30
0.0
 40
10.0
  0
LINE
  5
280
  8
0
 10
1965.731130269839
 20
405.8665501968316
 30
0.0
 11
1962.195596363906
 21
402.3310162908964
 31
0.0
  0
CIRCLE
  5
281
  8
0
 10
1252.197772749894
 20
251.3665501968143
 30
0.0
 40
2.5
  0
CIRCLE
  5
282
  8
0
 10
913.1085773350873
 20
251.3665501968143
 30
0.0
 40
2.5
  0
CIRCLE
  5
283
  8
0
 10
567.2375980119863
 20
251.3665501968143
 30
0.0
 40
2.500000000003638
  0
CIRCLE
  5
284
  8
0
 10
405.7311302701449
 20
251.3665501968143
 30
0.0
 40
2.5
  0
CIRCLE
  5
285
  8
0
 10
294.2895435871663
 20
292.1964216270497
 30
0.0
 40
2.50000000000168
  0
CIRCLE
  5
286
  8
0
 10
233.5467511642759
 20
434.2967751186696
 30
0.0
 40
2.500000000000421
  0
CIRCLE
  5
287
  8
0
 10
305.5705541546662
 20
564.3090971411292
 30
0.0
 40
2.500000000000393
  0
CIRCLE
  5
288
  8
0
 10
1857.8780640564
 20
510.1840825043327
 30
0.0
 40
2.500000000000422
  0
CIRCLE
  5
289
  8
0
 10
1704.012950744974
 20
664.0491958157507
 30
0.0
 40
2.500000000000422
  0
CIRCLE
  5
28A
  8
0
 10
1584.209463615332
 20
783.8526829453875
 30
0.0
 40
2.524109885445856
  0
CIRCLE
  5
28B
  8
0
 10
1359.481125543157
 20
909.186589033321
 30
0.0
 40
2.500000000001291
  0
CIRCLE
  5
28C
  8
0
 10
1134.752787470986
 20
1034.520495121254
 30
0.0
 40
2.499999999999
  0
CIRCLE
  5
28D
  8
0
 10
1050.731130269841
 20
1056.366550197224
 30
0.0
 40
2.5
  0
CIRCLE
  5
28E
  8
0
 10
950.570554154357
 20
1024.309097141569
 30
0.0
 40
2.500000000002299
  0
CIRCLE
  5
28F
  8
0
 10
855.9363452512147
 20
956.8180334276038
 30
0.0
 40
2.499999999999337
  0
CIRCLE
  5
290
  8
0
 10
666.8220505793882
 20
821.9458232738579
 30
0.0
 40
2.499999999999337
  0
CIRCLE
  5
291
  8
0
 10
508.4645298034533
 20
709.0086766738021
 30
0.0
 40
2.500000000000393
  0
LINE
  5
292
  8
0
 10
1957.245848895599
 20
414.3518315710679
 30
0.0
 11
1953.710314989666
 21
410.8162976651328
 31
0.0
  0
LINE
  5
293
  8
0
 10
1962.195596363906
 20
402.3310162908964
 30
0.0
 11
1953.710314989666
 21
410.8162976651328
 31
0.0
  0
LINE
  5
294
  8
0
 10
1965.731130269839
 20
405.8665501968316
 30
0.0
 11
1957.245848895599
 21
414.3518315710679
 31
0.0
  0
CIRCLE
  5
295
  8
0
 10
1431.044485327875
 20
728.346090096159
 30
0.0
 40
3.000000000001354
  0
CIRCLE
  5
296
  8
0
 10
1437.72321001238
 20
725.0192349285397
 30
0.0
 40
2.999999999999884
  0
ARC
  5
297
  8
0
 10
1339.160765866061
 20
3.866550196806985
 30
0.0
 40
6.51302068032237
 50
359.9999999999039
 51
179.999999999968
  0
ARC
  5
298
  8
0
 10
762.3014946736179
 20
3.866550196806985
 30
0.0
 40
6.51302068032237
 50
0.0000000000320037
 51
180.000000000096
  0
LINE
  5
299
  8
0
 10
690.7311302698412
 20
850.8622482334466
 30
0.0
 11
690.7311302698412
 21
883.1440303820672
 31
0.0
  0
LINE
  5
29A
  8
0
 10
690.7311302698412
 20
883.1440303820672
 30
0.0
 11
702.7311302698412
 21
883.1440303820672
 31
0.0
  0
LINE
  5
29B
  8
0
 10
702.7311302698412
 20
883.1440303820672
 30
0.0
 11
702.7311302698412
 21
850.8622482334466
 31
0.0
  0
LINE
  5
29C
  8
0
 10
702.7311302698412
 20
850.8622482334466
 30
0.0
 11
690.7311302698412
 21
850.8622482334466
 31
0.0
  0
LINE
  5
29D
  8
0
 10
1482.731130269839
 20
850.2386326343147
 30
0.0
 11
1482.731130269839
 21
882.5204147829353
 31
0.0
  0
LINE
  5
29E
  8
0
 10
1482.731130269839
 20
882.5204147829353
 30
0.0
 11
1470.731130269839
 21
882.5204147829353
 31
0.0
  0
LINE
  5
29F
  8
0
 10
1470.731130269839
 20
882.5204147829353
 30
0.0
 11
1470.731130269839
 21
850.2386326343147
 31
0.0
  0
LINE
  5
2A0
  8
0
 10
1470.731130269839
 20
850.2386326343147
 30
0.0
 11
1482.731130269839
 21
850.2386326343147
 31
0.0
  0
LINE
  5
2A1
  8
0
 10
690.7311302698412
 20
999.9859954974926
 30
0.0
 11
690.7311302698412
 21
1031.569170978753
 31
0.0
  0
LINE
  5
2A2
  8
0
 10
690.7311302698412
 20
1031.569170978753
 30
0.0
 11
702.7311302698412
 21
1031.569170978753
 31
0.0
  0
LINE
  5
2A3
  8
0
 10
702.7311302698412
 20
1031.569170978753
 30
0.0
 11
702.7311302698412
 21
999.9859954974926
 31
0.0
  0
LINE
  5
2A4
  8
0
 10
702.7311302698412
 20
999.9859954974926
 30
0.0
 11
690.7311302698412
 21
999.9859954974926
 31
0.0
  0
LINE
  5
2A5
  8
0
 10
618.7311302698412
 20
76.28067118750401
 30
0.0
 11
618.7311302698412
 21
108.5624533361246
 31
0.0
  0
LINE
  5
2A6
  8
0
 10
618.7311302698412
 20
108.5624533361246
 30
0.0
 11
630.7311302698412
 21
108.5624533361246
 31
0.0
  0
LINE
  5
2A7
  8
0
 10
630.7311302698412
 20
108.5624533361246
 30
0.0
 11
630.7311302698412
 21
76.28067118750401
 31
0.0
  0
LINE
  5
2A8
  8
0
 10
630.7311302698412
 20
76.28067118750401
 30
0.0
 11
618.7311302698412
 21
76.28067118750401
 31
0.0
  0
LINE
  5
2A9
  8
0
 10
1410.731130269839
 20
999.9859954974926
 30
0.0
 11
1410.731130269839
 21
1031.569170978753
 31
0.0
  0
LINE
  5
2AA
  8
0
 10
1410.731130269839
 20
1031.569170978753
 30
0.0
 11
1398.731130269839
 21
1031.569170978753
 31
0.0
  0
LINE
  5
2AB
  8
0
 10
1398.731130269839
 20
1031.569170978753
 30
0.0
 11
1398.731130269839
 21
999.9859954974926
 31
0.0
  0
LINE
  5
2AC
  8
0
 10
1398.731130269839
 20
999.9859954974926
 30
0.0
 11
1410.731130269839
 21
999.9859954974926
 31
0.0
  0
LINE
  5
2AD
  8
0
 10
1482.731130269839
 20
76.28067118750401
 30
0.0
 11
1482.731130269839
 21
108.5624533361246
 31
0.0
  0
LINE
  5
2AE
  8
0
 10
1482.731130269839
 20
108.5624533361246
 30
0.0
 11
1470.731130269839
 21
108.5624533361246
 31
0.0
  0
LINE
  5
2AF
  8
0
 10
1470.731130269839
 20
108.5624533361246
 30
0.0
 11
1470.731130269839
 21
76.28067118750401
 31
0.0
  0
LINE
  5
2B0
  8
0
 10
1470.731130269839
 20
76.28067118750401
 30
0.0
 11
1482.731130269839
 21
76.28067118750401
 31
0.0
  0
LINE
  5
2B1
  8
0
 10
618.7311302698412
 20
961.2278758833453
 30
0.0
 11
618.7311302698412
 21
993.5096580319695
 31
0.0
  0
LINE
  5
2B2
  8
0
 10
618.7311302698412
 20
993.5096580319695
 30
0.0
 11
630.7311302698412
 21
993.5096580319695
 31
0.0
  0
LINE
  5
2B3
  8
0
 10
630.7311302698412
 20
993.5096580319695
 30
0.0
 11
630.7311302698412
 21
961.2278758833453
 31
0.0
  0
LINE
  5
2B4
  8
0
 10
630.7311302698412
 20
961.2278758833453
 30
0.0
 11
618.7311302698412
 21
961.2278758833453
 31
0.0
  0
LINE
  5
2B5
  8
0
 10
680.7311302698412
 20
76.28067118750401
 30
0.0
 11
680.7311302698412
 21
108.5624533361246
 31
0.0
  0
LINE
  5
2B6
  8
0
 10
680.7311302698412
 20
108.5624533361246
 30
0.0
 11
692.7311302698412
 21
108.5624533361246
 31
0.0
  0
LINE
  5
2B7
  8
0
 10
692.7311302698412
 20
108.5624533361246
 30
0.0
 11
692.7311302698412
 21
76.28067118750401
 31
0.0
  0
LINE
  5
2B8
  8
0
 10
692.7311302698412
 20
76.28067118750401
 30
0.0
 11
680.7311302698412
 21
76.28067118750401
 31
0.0
  0
LINE
  5
2B9
  8
0
 10
1525.731130269836
 20
248.8665501968143
 30
0.0
 11
1525.731130269836
 21
253.8665501968143
 31
0.0
  0
LINE
  5
2BA
  8
0
 10
1525.731130269836
 20
253.8665501968143
 30
0.0
 11
1513.670281016611
 21
253.8665501968143
 31
0.0
  0
LINE
  5
2BB
  8
0
 10
1513.670281016611
 20
253.8665501968143
 30
0.0
 11
1513.670281016611
 21
248.8665501968143
 31
0.0
  0
LINE
  5
2BC
  8
0
 10
1513.670281016611
 20
248.8665501968143
 30
0.0
 11
1525.731130269836
 21
248.8665501968143
 31
0.0
  0
LINE
  5
2BD
  8
0
 10
1420.731130269839
 20
216.5847680481419
 30
0.0
 11
1420.731130269839
 21
248.8665501967661
 31
0.0
  0
LINE
  5
2BE
  8
0
 10
1420.731130269839
 20
248.8665501967661
 30
0.0
 11
1408.731130269839
 21
248.8665501967661
 31
0.0
  0
LINE
  5
2BF
  8
0
 10
1408.731130269839
 20
248.8665501967661
 30
0.0
 11
1408.731130269839
 21
216.5847680481419
 31
0.0
  0
LINE
  5
2C0
  8
0
 10
1408.731130269839
 20
216.5847680481419
 30
0.0
 11
1420.731130269839
 21
216.5847680481419
 31
0.0
  0
LINE
  5
2C1
  8
0
 10
1410.731130269839
 20
890.1588732722665
 30
0.0
 11
1410.731130269839
 21
922.4406554208871
 31
0.0
  0
LINE
  5
2C2
  8
0
 10
1410.731130269839
 20
922.4406554208871
 30
0.0
 11
1398.731130269839
 21
922.4406554208871
 31
0.0
  0
LINE
  5
2C3
  8
0
 10
1398.731130269839
 20
922.4406554208871
 30
0.0
 11
1398.731130269839
 21
890.1588732722665
 31
0.0
  0
LINE
  5
2C4
  8
0
 10
1398.731130269839
 20
890.1588732722665
 30
0.0
 11
1410.731130269839
 21
890.1588732722665
 31
0.0
  0
LINE
  5
2C5
  8
0
 10
680.7311302698412
 20
216.5847680481419
 30
0.0
 11
680.7311302698412
 21
248.8665501967661
 31
0.0
  0
LINE
  5
2C6
  8
0
 10
680.7311302698412
 20
248.8665501967661
 30
0.0
 11
692.7311302698412
 21
248.8665501967661
 31
0.0
  0
LINE
  5
2C7
  8
0
 10
692.7311302698412
 20
248.8665501967661
 30
0.0
 11
692.7311302698412
 21
216.5847680481419
 31
0.0
  0
LINE
  5
2C8
  8
0
 10
692.7311302698412
 20
216.5847680481419
 30
0.0
 11
680.7311302698412
 21
216.5847680481419
 31
0.0
  0
LINE
  5
2C9
  8
0
 10
618.7311302698412
 20
216.5847680481419
 30
0.0
 11
618.7311302698412
 21
248.8665501967661
 31
0.0
  0
LINE
  5
2CA
  8
0
 10
618.7311302698412
 20
248.8665501967661
 30
0.0
 11
630.7311302698412
 21
248.8665501967661
 31
0.0
  0
LINE
  5
2CB
  8
0
 10
630.7311302698412
 20
248.8665501967661
 30
0.0
 11
630.7311302698412
 21
216.5847680481419
 31
0.0
  0
LINE
  5
2CC
  8
0
 10
630.7311302698412
 20
216.5847680481419
 30
0.0
 11
618.7311302698412
 21
216.5847680481419
 31
0.0
  0
LINE
  5
2CD
  8
0
 10
1420.731130269839
 20
76.28067118750401
 30
0.0
 11
1420.731130269839
 21
108.5624533361246
 31
0.0
  0
LINE
  5
2CE
  8
0
 10
1420.731130269839
 20
108.5624533361246
 30
0.0
 11
1408.731130269839
 21
108.5624533361246
 31
0.0
  0
LINE
  5
2CF
  8
0
 10
1408.731130269839
 20
108.5624533361246
 30
0.0
 11
1408.731130269839
 21
76.28067118750401
 31
0.0
  0
LINE
  5
2D0
  8
0
 10
1408.731130269839
 20
76.28067118750401
 30
0.0
 11
1420.731130269839
 21
76.28067118750401
 31
0.0
  0
LINE
  5
2D1
  8
0
 10
1482.731130269839
 20
216.5847680481419
 30
0.0
 11
1482.731130269839
 21
248.8665501967661
 31
0.0
  0
LINE
  5
2D2
  8
0
 10
1482.731130269839
 20
248.8665501967661
 30
0.0
 11
1470.731130269839
 21
248.8665501967661
 31
0.0
  0
LINE
  5
2D3
  8
0
 10
1470.731130269839
 20
248.8665501967661
 30
0.0
 11
1470.731130269839
 21
216.5847680481419
 31
0.0
  0
LINE
  5
2D4
  8
0
 10
1470.731130269839
 20
216.5847680481419
 30
0.0
 11
1482.731130269839
 21
216.5847680481419
 31
0.0
  0
LINE
  5
2D5
  8
0
 10
1482.731130269839
 20
961.2278758833453
 30
0.0
 11
1482.731130269839
 21
993.5096580319695
 31
0.0
  0
LINE
  5
2D6
  8
0
 10
1482.731130269839
 20
993.5096580319695
 30
0.0
 11
1470.731130269839
 21
993.5096580319695
 31
0.0
  0
LINE
  5
2D7
  8
0
 10
1470.731130269839
 20
993.5096580319695
 30
0.0
 11
1470.731130269839
 21
961.2278758833453
 31
0.0
  0
LINE
  5
2D8
  8
0
 10
1470.731130269839
 20
961.2278758833453
 30
0.0
 11
1482.731130269839
 21
961.2278758833453
 31
0.0
  0
LINE
  5
2D9
  8
0
 10
618.7311302698412
 20
799.3545569400484
 30
0.0
 11
618.7311302698412
 21
831.6363390886689
 31
0.0
  0
LINE
  5
2DA
  8
0
 10
618.7311302698412
 20
831.6363390886689
 30
0.0
 11
630.7311302698412
 21
831.6363390886689
 31
0.0
  0
LINE
  5
2DB
  8
0
 10
630.7311302698412
 20
831.6363390886689
 30
0.0
 11
630.7311302698412
 21
799.3545569400484
 31
0.0
  0
LINE
  5
2DC
  8
0
 10
630.7311302698412
 20
799.3545569400484
 30
0.0
 11
618.7311302698412
 21
799.3545569400484
 31
0.0
  0
LINE
  5
2DD
  8
0
 10
1773.500350355483
 20
849.4579230764151
 30
0.0
 11
1269.819751192881
 21
1174.530824032608
 31
0.0
  0
LINE
  5
2DE
  8
0
 10
431.5420345117467
 20
3.866550196809714
 30
0.0
 11
305.1055740729947
 21
36.7302725889998
 31
0.0
  0
LINE
  5
2DF
  8
0
 10
1669.920226027927
 20
3.866550196809714
 30
0.0
 11
1345.673786546383
 21
3.866550196809714
 31
0.0
  0
LINE
  5
2E0
  8
0
 10
755.7884739932955
 20
3.866550196809714
 30
0.0
 11
431.5420345117467
 21
3.866550196809714
 31
0.0
  0
LINE
  5
2E1
  8
0
 10
1332.647745185739
 20
3.866550196809714
 30
0.0
 11
768.8145153539402
 21
3.866550196809714
 31
0.0
  0
CIRCLE
  5
2E2
  8
0
 10
670.4177752118079
 20
728.346090096159
 30
0.0
 40
3.000000000001354
  0
CIRCLE
  5
2E3
  8
0
 10
663.7390505273028
 20
725.0192349285397
 30
0.0
 40
2.999999999999884
  0
CIRCLE
  5
2E4
  8
0
 10
1676.173341953484
 20
823.3881302349442
 30
0.0
 40
2.999999999999884
  0
CIRCLE
  5
2E5
  8
0
 10
1450.731130269834
 20
839.866550196817
 30
0.0
 40
2.999999999999884
  0
CIRCLE
  5
2E6
  8
0
 10
1427.413278158572
 20
974.4420288767272
 30
0.0
 40
2.999999999999884
  0
CIRCLE
  5
2E7
  8
0
 10
674.0489823810962
 20
974.4420288767272
 30
0.0
 40
2.999999999999884
  0
CIRCLE
  5
2E8
  8
0
 10
650.7311302698339
 20
839.866550196817
 30
0.0
 40
2.999999999999884
  0
ARC
  5
2E9
  8
0
 10
1695.729432816858
 20
434.8854981067909
 30
0.0
 40
467.8244944068986
 50
61.90588688125729
 51
74.5371809059229
  0
LINE
  5
2EA
  8
0
 10
1934.135748292077
 20
820.0507505112363
 30
0.0
 11
1934.135748292077
 21
754.9663136890296
 31
0.0
  0
LINE
  5
2EB
  8
0
 10
1781.211677699582
 20
857.2367639454277
 30
0.0
 11
1781.211677699582
 21
853.6589591430471
 31
0.0
  0
ARC
  5
2EC
  8
0
 10
1954.135748292077
 20
754.9663136890296
 30
0.0
 40
20.0
 50
180.0
 51
232.0299781201723
  0
ARC
  5
2ED
  8
0
 10
1776.211677699582
 20
853.6589591430471
 30
0.0
 40
5.0
 50
237.1620073078452
 51
0.0
  0
CIRCLE
  5
2EE
  8
0
 10
1374.256564232595
 20
1075.092598029976
 30
0.0
 40
2.999999999999884
  0
CIRCLE
  5
2EF
  8
0
 10
727.205696307073
 20
1075.092598029976
 30
0.0
 40
2.999999999999884
  0
ARC
  5
2F0
  8
0
 10
1811.211677699582
 20
857.2367639454277
 30
0.0
 40
30.0
 50
72.04952712123894
 51
180.0
  0
ARC
  5
2F1
  8
0
 10
1904.135748292077
 20
820.0507505112363
 30
0.0
 40
30.0
 50
0.0
 51
66.62550913957557
  0
ARC
  5
2F5
  8
0
 10
405.7328277228214
 20
434.8854981067678
 30
0.0
 40
467.8244944069245
 50
105.4628190940777
 51
118.7400077864085
  0
LINE
  5
2F6
  8
0
 10
167.326512247589
 20
820.0507505112363
 30
0.0
 11
167.326512247589
 21
754.9663136890296
 31
0.0
  0
LINE
  5
2F7
  8
0
 10
320.2505828400839
 20
857.2367639454277
 30
0.0
 11
320.2505828400839
 21
853.6589591430471
 31
0.0
  0
ARC
  5
2F8
  8
0
 10
147.326512247589
 20
754.9663136890296
 30
0.0
 40
20.0
 50
307.9700218798274
 51
0.0
  0
ARC
  5
2F9
  8
0
 10
325.2505828400839
 20
853.6589591430471
 30
0.0
 40
5.0
 50
180.0
 51
302.8379926921543
  0
ARC
  5
2FA
  8
0
 10
290.2505828400839
 20
857.2367639454277
 30
0.0
 40
30.0
 50
0.0
 51
107.9504728787574
  0
ARC
  5
2FB
  8
0
 10
197.3265122475864
 20
820.050750511237
 30
0.0
 40
29.99999999999737
 50
123.4596300447263
 51
180.0000000000013
  0
LINE
  5
2FC
  8
0
 10
327.9619101841885
 20
849.4579230764087
 30
0.0
 11
831.6425093468018
 21
1174.530824032608
 31
0.0
  0
CIRCLE
  5
2FD
  8
0
 10
261.2857381557836
 20
796.8753016985837
 30
0.0
 40
2.999999999999884
  0
CIRCLE
  5
2FE
  8
0
 10
1515.122314130661
 20
780.7705366314027
 30
0.0
 40
2.999999999999884
  0
CIRCLE
  5
2FF
  8
0
 10
1840.176522383882
 20
796.8753016985837
 30
0.0
 40
2.999999999999884
  0
CIRCLE
  5
301
  8
0
 10
425.2889185861835
 20
823.3881302349442
 30
0.0
 40
2.999999999999884
  0
CIRCLE
  5
302
  8
0
 10
586.3399464090047
 20
780.7705366314027
 30
0.0
 40
2.999999999999884
  0
ARC
  5
303
  8
0
 10
1050.731130269834
 20
839.866550196817
 30
0.0
 40
400.0
 50
56.78915807656153
 51
123.2108419236132
  0
ARC
  5
304
  8
0
 10
405.7311302701468
 20
423.8665501967879
 30
0.0
 40
400.0
 50
127.9700218798297
 51
255.4324330910941
  0
ARC
  5
305
  8
0
 10
1695.731130269521
 20
423.8665501967879
 30
0.0
 40
400.0
 50
311.4908168557155
 51
52.02997812017066
  0
CIRCLE
  5
307
  8
0
 10
1529.731130269849
 20
43.61524266750654
 30
0.0
 40
3.999999999999091
  0
CIRCLE
  5
308
  8
0
 10
1529.731130269849
 20
311.6857424277288
 30
0.0
 40
3.999999999999091
  0
LINE
  5
309
  8
0
 10
1669.920226027927
 20
3.866550196809714
 30
0.0
 11
1960.731130269854
 21
3.866550196809714
 31
0.0
  0
LINE
  5
30A
  8
0
 10
1960.731130269854
 20
3.866550196811533
 30
0.0
 11
1960.731130269854
 21
124.2417848655064
 31
0.0
  0
CIRCLE
  5
30B
  8
0
 10
1972.731130269854
 20
402.3310162908873
 30
0.0
 40
4.0
  0
CIRCLE
  5
567
  8
0
 10
1050.731130269834
 20
883.8665501971878
 30
0.0
 40
45.0
  0
CIRCLE
  5
568
  8
0
 10
1050.731130269834
 20
818.866550197188
 30
0.0
 40
7.0
  0
CIRCLE
  5
569
  8
0
 10
1050.731130269834
 20
948.8665501971844
 30
0.0
 40
7.0
  0
CIRCLE
  5
56A
  8
0
 10
1115.731130269834
 20
883.8665501971878
 30
0.0
 40
7.0
  0
CIRCLE
  5
56B
  8
0
 10
985.731130269834
 20
883.8665501971878
 30
0.0
 40
7.0
  0
CIRCLE
  5
71F
  8
0
 10
911.6240588015739
 20
784.6003091005883
 30
0.0
 40
2.5
  0
CIRCLE
  5
720
  8
0
 10
919.6952647838186
 20
823.7775427190069
 30
0.0
 40
2.5
  0
CIRCLE
  5
721
  8
0
 10
862.6525167785503
 20
794.6893165783944
 30
0.0
 40
2.5
  0
CIRCLE
  5
722
  8
0
 10
870.723722760795
 20
833.8665501968129
 30
0.0
 40
2.5
  0
CIRCLE
  5
723
  8
0
 10
1076.731130269834
 20
633.8665501968136
 30
0.0
 40
2.5
  0
CIRCLE
  5
724
  8
0
 10
1116.731130269834
 20
633.8665501968136
 30
0.0
 40
2.5
  0
CIRCLE
  5
725
  8
0
 10
1076.731130269834
 20
683.8665501968136
 30
0.0
 40
2.5
  0
CIRCLE
  5
726
  8
0
 10
1116.731130269834
 20
683.8665501968136
 30
0.0
 40
2.5
  0
ENDSEC
  0
EOF
