  0
SECTION
  2
HEADER
  9
$ACADVER
  1
AC1009
  9
$DWGCODEPAGE
  3
ansi_1252
  9
$INSBASE
 10
0.0
 20
0.0
 30
0.0
  9
$EXTMIN
 10
51.74742404227209
 20
101.9401585204755
 30
0.0
  9
$EXTMAX
 10
463.2728183539735
 20
233.9401585204774
 30
0.0
  9
$LIMMIN
 10
0.0
 20
0.0
  9
$LIMMAX
 10
420.0
 20
297.0
  9
$ORTHOMODE
 70
     0
  9
$REGENMODE
 70
     1
  9
$FILLMODE
 70
     1
  9
$QTEXTMODE
 70
     0
  9
$MIRRTEXT
 70
     0
  9
$DRAGMODE
 70
     2
  9
$LTSCALE
 40
1.0
  9
$OSMODE
 70
  7167
  9
$ATTMODE
 70
     1
  9
$TEXTSIZE
 40
2.5
  9
$TRACEWID
 40
1.0
  9
$TEXTSTYLE
  7
STANDARD
  9
$CLAYER
  8
0
  9
$CELTYPE
  6
BYLAYER
  9
$CECOLOR
 62
   256
  9
$DIMSCALE
 40
1.0
  9
$DIMASZ
 40
2.5
  9
$DIMEXO
 40
0.625
  9
$DIMDLI
 40
3.75
  9
$DIMRND
 40
0.0
  9
$DIMDLE
 40
0.0
  9
$DIMEXE
 40
1.25
  9
$DIMTP
 40
0.0
  9
$DIMTM
 40
0.0
  9
$DIMTXT
 40
2.5
  9
$DIMCEN
 40
2.5
  9
$DIMTSZ
 40
0.0
  9
$DIMTOL
 70
     0
  9
$DIMLIM
 70
     0
  9
$DIMTIH
 70
     0
  9
$DIMTOH
 70
     0
  9
$DIMSE1
 70
     0
  9
$DIMSE2
 70
     0
  9
$DIMTAD
 70
     1
  9
$DIMZIN
 70
     8
  9
$DIMBLK
  1

  9
$DIMASO
 70
     1
  9
$DIMSHO
 70
     1
  9
$DIMPOST
  1

  9
$DIMAPOST
  1

  9
$DIMALT
 70
     0
  9
$DIMALTD
 70
     3
  9
$DIMALTF
 40
0.03937007874016
  9
$DIMLFAC
 40
1.0
  9
$DIMTOFL
 70
     1
  9
$DIMTVP
 40
0.0
  9
$DIMTIX
 70
     0
  9
$DIMSOXD
 70
     0
  9
$DIMSAH
 70
     0
  9
$DIMBLK1
  1

  9
$DIMBLK2
  1

  9
$DIMSTYLE
  2
ISO-25
  9
$DIMCLRD
 70
     0
  9
$DIMCLRE
 70
     0
  9
$DIMCLRT
 70
     0
  9
$DIMTFAC
 40
1.0
  9
$DIMGAP
 40
0.625
  9
$LUNITS
 70
     2
  9
$LUPREC
 70
     3
  9
$SKETCHINC
 40
1.0
  9
$FILLETRAD
 40
2.0
  9
$AUNITS
 70
     0
  9
$AUPREC
 70
     0
  9
$MENU
  1
.
  9
$ELEVATION
 40
0.0
  9
$PELEVATION
 40
0.0
  9
$THICKNESS
 40
0.0
  9
$LIMCHECK
 70
     0
  9
$CHAMFERA
 40
10.0
  9
$CHAMFERB
 40
10.0
  9
$SKPOLY
 70
     0
  9
$TDCREATE
 40
2455022.720692836
  9
$TDUPDATE
 40
2457929.476790984
  9
$TDINDWG
 40
0.0196572222
  9
$TDUSRTIMER
 40
2457929.374223206
  9
$USRTIMER
 70
     1
  9
$ANGBASE
 50
0.0
  9
$ANGDIR
 70
     0
  9
$PDMODE
 70
     0
  9
$PDSIZE
 40
0.0
  9
$PLINEWID
 40
0.0
  9
$COORDS
 70
     2
  9
$SPLFRAME
 70
     0
  9
$SPLINETYPE
 70
     6
  9
$SPLINESEGS
 70
     8
  9
$ATTDIA
 70
     0
  9
$ATTREQ
 70
     1
  9
$HANDLING
 70
     1
  9
$HANDSEED
  5
3EF
  9
$SURFTAB1
 70
     6
  9
$SURFTAB2
 70
     6
  9
$SURFTYPE
 70
     6
  9
$SURFU
 70
     6
  9
$SURFV
 70
     6
  9
$UCSNAME
  2

  9
$UCSORG
 10
0.0
 20
0.0
 30
0.0
  9
$UCSXDIR
 10
1.0
 20
0.0
 30
0.0
  9
$UCSYDIR
 10
0.0
 20
1.0
 30
0.0
  9
$PUCSNAME
  2

  9
$PUCSORG
 10
0.0
 20
0.0
 30
0.0
  9
$PUCSXDIR
 10
1.0
 20
0.0
 30
0.0
  9
$PUCSYDIR
 10
0.0
 20
1.0
 30
0.0
  9
$USERI1
 70
     0
  9
$USERI2
 70
     0
  9
$USERI3
 70
     0
  9
$USERI4
 70
     0
  9
$USERI5
 70
     0
  9
$USERR1
 40
0.0
  9
$USERR2
 40
0.0
  9
$USERR3
 40
0.0
  9
$USERR4
 40
0.0
  9
$USERR5
 40
0.0
  9
$WORLDVIEW
 70
     1
  9
$SHADEDGE
 70
     3
  9
$SHADEDIF
 70
    70
  9
$TILEMODE
 70
     1
  9
$MAXACTVP
 70
    64
  9
$PLIMCHECK
 70
     0
  9
$PEXTMIN
 10
1.000000000000000E+20
 20
1.000000000000000E+20
 30
1.000000000000000E+20
  9
$PEXTMAX
 10
-1.000000000000000E+20
 20
-1.000000000000000E+20
 30
-1.000000000000000E+20
  9
$PLIMMIN
 10
0.0
 20
0.0
  9
$PLIMMAX
 10
0.0
 20
0.0
  9
$UNITMODE
 70
     0
  9
$VISRETAIN
 70
     1
  9
$PLINEGEN
 70
     0
  9
$PSLTSCALE
 70
     1
  0
ENDSEC
  0
SECTION
  2
TABLES
  0
TABLE
  2
VPORT
 70
     1
  0
VPORT
  2
*ACTIVE
 70
     0
 10
0.0
 20
0.0
 11
1.0
 21
1.0
 12
241.7598886306826
 22
0.6569916426663553
 13
0.0
 23
0.0
 14
10.0
 24
10.0
 15
10.0
 25
10.0
 16
0.0
 26
0.0
 36
1.0
 17
-134.1869158878504
 27
0.0
 37
0.0
 40
702.3071865553003
 41
2.033244680851064
 42
50.0
 43
0.0
 44
0.0
 50
0.0
 51
0.0
 71
    16
 72
  1000
 73
     1
 74
     3
 75
     0
 76
     0
 77
     0
 78
     0
  0
ENDTAB
  0
TABLE
  2
LTYPE
 70
     2
  0
LTYPE
  2
CONTINUOUS
 70
     0
  3
Solid line
 72
    65
 73
     0
 40
0.0
  0
LTYPE
  2
CENTERX2
 70
     0
  3
Center (2x) ________  __  ________  __  _____
 72
    65
 73
     4
 40
20.32
 49
12.7
 49
-2.54
 49
2.54
 49
-2.54
  0
ENDTAB
  0
TABLE
  2
LAYER
 70
     1
  0
LAYER
  2
0
 70
     0
 62
     7
  6
CONTINUOUS
  0
ENDTAB
  0
TABLE
  2
STYLE
 70
     1
  0
STYLE
  2
STANDARD
 70
     0
 40
0.0
 41
1.0
 50
0.0
 71
     0
 42
2.5
  3
arial.ttf
  4

  0
ENDTAB
  0
TABLE
  2
VIEW
 70
     0
  0
ENDTAB
  0
TABLE
  2
UCS
 70
     0
  0
ENDTAB
  0
TABLE
  2
APPID
 70
     1
  0
APPID
  2
ACAD
 70
     0
  0
ENDTAB
  0
TABLE
  2
DIMSTYLE
 70
     2
  0
DIMSTYLE
  2
ISO-25
 70
     0
  3

  4

  5

  6

  7

 40
1.0
 41
2.5
 42
0.625
 43
3.75
 44
1.25
 45
0.0
 46
0.0
 47
0.0
 48
0.0
140
2.5
141
2.5
142
0.0
143
0.03937007874016
144
1.0
145
0.0
146
1.0
147
0.625
 71
     0
 72
     0
 73
     0
 74
     0
 75
     0
 76
     0
 77
     1
 78
     8
170
     0
171
     3
172
     1
173
     0
174
     0
175
     0
176
     0
177
     0
178
     0
  0
DIMSTYLE
  2
STANDARD
 70
     0
  3

  4

  5

  6

  7

 40
1.0
 41
0.18
 42
0.0625
 43
0.38
 44
0.18
 45
0.0
 46
0.0
 47
0.0
 48
0.0
140
0.18
141
0.09
142
0.0
143
25.4
144
1.0
145
0.0
146
1.0
147
0.09
 71
     0
 72
     0
 73
     1
 74
     1
 75
     0
 76
     0
 77
     0
 78
     0
170
     0
171
     2
172
     0
173
     0
174
     0
175
     0
176
     0
177
     0
178
     0
  0
ENDTAB
  0
ENDSEC
  0
SECTION
  2
BLOCKS
  0
BLOCK
  8
0
  2
$MODEL_SPACE
 70
     0
 10
0.0
 20
0.0
 30
0.0
  3
$MODEL_SPACE
  1

  0
ENDBLK
  5
21
  8
0
  0
BLOCK
 67
     1
  8
0
  2
$PAPER_SPACE
 70
     0
 10
0.0
 20
0.0
 30
0.0
  3
$PAPER_SPACE
  1

  0
ENDBLK
  5
1D
 67
     1
  8
0
  0
ENDSEC
  0
SECTION
  2
ENTITIES
  0
LINE
  5
EF
  8
0
  6
CONTINUOUS
 62
     7
 10
218.2728183539735
 20
146.9401585204756
 30
0.0
 11
218.2728183539735
 21
101.9401585204756
 31
0.0
  0
LINE
  5
F1
  8
0
  6
CONTINUOUS
 62
     7
 10
218.2728183539735
 20
146.9401585204756
 30
0.0
 11
463.2728183539735
 21
146.9401585204756
 31
0.0
  0
LINE
  5
F2
  8
0
 10
85.79279555539466
 20
101.9401585204755
 30
0.0
 11
218.2728183539735
 21
101.9401585204756
 31
0.0
  0
CIRCLE
  5
F3
  8
0
 10
177.4204553733349
 20
183.7401719707155
 30
0.0
 40
5.0
  0
ARC
  5
F4
  8
0
 10
177.4204553733349
 20
183.7401719707155
 30
0.0
 40
94.60495548404997
 50
167.2769358400311
 51
216.0630155479338
  0
ARC
  5
F5
  8
0
 10
177.4204553733349
 20
183.7401719707155
 30
0.0
 40
109.60495548405
 50
167.2769358400319
 51
216.0630155479336
  0
ARC
  5
F8
  8
0
 10
77.82258835591676
 20
206.2276533766158
 30
0.0
 40
7.500000000000028
 50
347.2769358400355
 51
167.2769358400352
  0
ARC
  5
FA
  8
0
 10
94.88186821428428
 20
123.6335703017826
 30
0.0
 40
7.500000000000028
 50
216.0630155479386
 51
36.06301554792754
  0
ARC
  5
FB
  8
0
 10
76.62691105360406
 20
205.9624046103932
 30
0.0
 40
27.99311562401916
 50
91.89824257816596
 51
168.1214668414309
  0
LINE
  5
FC
  8
0
 10
463.2728183539735
 20
206.9401585204756
 30
0.0
 11
463.2728183539735
 21
146.9401585204756
 31
0.0
  0
LINE
  5
FF
  8
0
  6
CONTINUOUS
 62
     7
 10
276.8491349970628
 20
206.9401585204756
 30
0.0
 11
463.2728183539735
 21
206.9401585204756
 31
0.0
  0
ARC
  5
1DA
  8
0
 10
100.6505498960206
 20
-286.1246237209845
 30
0.0
 40
520.1074842007332
 50
73.8743050358122
 51
89.26579396317713
  0
LINE
  5
1DC
  8
0
 10
107.315187452331
 20
233.9401585204774
 30
0.0
 11
75.69965246697863
 21
233.9401585204774
 31
0.0
  0
ARC
  5
1DD
  8
0
 10
367.6348963183995
 20
620.0877718077604
 30
0.0
 40
424.6303487495252
 50
253.2288691113236
 51
255.5828221897552
  0
ARC
  5
1DF
  8
0
 10
276.8491349970628
 20
266.9401585204756
 30
0.0
 40
60.0
 50
255.5828221897552
 51
270.0
  0
ARC
  5
1E1
  8
0
 10
85.80703414923543
 20
123.5607041095285
 30
0.0
 40
21.62055027759179
 50
227.350021560691
 51
269.9622668534439
  0
ARC
  5
305
  8
0
 10
177.4204553733352
 20
183.7401719707156
 30
0.0
 40
131.1992836786615
 50
183.3145865810897
 51
183.6746717927981
  0
LINE
  5
39C
  8
0
 10
58.86229977222699
 20
205.0464916850141
 30
0.0
 11
57.78910323878917
 21
198.0392884369823
 31
0.0
  0
LINE
  5
3C0
  8
0
 10
57.17999779625553
 20
207.3274503709023
 30
0.0
 11
51.72702469738219
 21
208.1396611292219
 31
0.0
  0
LINE
  5
3C1
  8
0
 10
55.514909300996
 20
196.3642823866689
 30
0.0
 11
50.09545516065904
 21
197.1787838107105
 31
0.0
  0
LINE
  5
3C4
  8
0
 10
57.05083300797765
 20
188.3390338870724
 30
0.0
 11
56.96329495451607
 21
181.250664169866
 31
0.0
  0
LINE
  5
3C5
  8
0
 10
55.06745498571541
 20
190.3636632570789
 30
0.0
 11
49.5615930082885
 21
190.4090041478953
 31
0.0
  0
LINE
  5
3C6
  8
0
 10
54.94434910194281
 20
179.2754525407845
 30
0.0
 11
49.46428002783763
 21
179.3277850547359
 31
0.0
  0
LINE
  5
3C7
  8
0
 10
57.58222402465393
 20
171.5420644730565
 30
0.0
 11
58.48204827980616
 21
164.5104953403201
 31
0.0
  0
LINE
  5
3C8
  8
0
 10
55.33637415324521
 20
173.2709574194761
 30
0.0
 11
49.87778461372579
 21
172.5495891710032
 31
0.0
  0
LINE
  5
3C9
  8
0
 10
56.7576469969563
 20
162.2735233800606
 30
0.0
 11
51.32362630012409
 21
161.562668391065
 31
0.0
  0
LINE
  5
3CA
  8
0
 10
60.44612990056454
 20
154.982517346341
 30
0.0
 11
62.31580240873894
 21
148.1446102929519
 31
0.0
  0
LINE
  5
3CB
  8
0
 10
57.98152109313992
 20
156.3820229345581
 30
0.0
 11
52.67644922786114
 21
154.9079861592083
 31
0.0
  0
LINE
  5
3CC
  8
0
 10
60.91950920510575
 20
145.689418116203
 30
0.0
 11
55.63730391730344
 21
144.2292116080357
 31
0.0
  0
LINE
  5
3CD
  8
0
 10
65.58680796547948
 20
138.9827052555417
 30
0.0
 11
68.38993767802543
 21
132.4715523642901
 31
0.0
  0
LINE
  5
3CE
  8
0
 10
62.95141102902452
 20
140.0255837011957
 30
0.0
 11
57.90311402741429
 21
137.8275688481092
 31
0.0
  0
LINE
  5
3CF
  8
0
 10
67.34892981255764
 20
129.8459274940324
 30
0.0
 11
62.32135205129285
 21
127.6647907254146
 31
0.0
  0
LINE
  5
3D0
  8
0
 10
72.90420076829986
 20
123.8540463434894
 30
0.0
 11
76.58622795387544
 21
117.7963797990769
 31
0.0
  0
LINE
  5
3D1
  8
0
 10
70.14931070646307
 20
124.5199992038923
 30
0.0
 11
65.45604792730497
 21
121.6407881319795
 31
0.0
  0
LINE
  5
3D2
  8
0
 10
75.92076746054552
 20
115.051427036806
 30
0.0
 11
71.62588903751713
 21
112.4243798149884
 31
0.0
  0
ARC
  5
3D3
  8
0
 10
177.4204553733352
 20
183.7401719707156
 30
0.0
 40
131.1992836786615
 50
191.3145865810897
 51
191.6746717927981
  0
ARC
  5
3D4
  8
0
 10
177.4204553733352
 20
183.7401719707156
 30
0.0
 40
131.1992836786615
 50
175.3145865810898
 51
175.6746717927981
  0
ARC
  5
3D5
  8
0
 10
177.4204553733352
 20
183.7401719707156
 30
0.0
 40
131.1992836786615
 50
199.3145865810897
 51
199.6746717927981
  0
ARC
  5
3D6
  8
0
 10
177.4204553733352
 20
183.7401719707156
 30
0.0
 40
131.1992836786615
 50
207.3145865810897
 51
207.6746717927981
  0
ARC
  5
3D7
  8
0
 10
49.64958617087242
 20
194.2121020205707
 30
0.0
 40
3.0
 50
81.45286437126988
 51
175.3145865810898
  0
ARC
  5
3D8
  8
0
 10
49.58629723462279
 20
193.4089024297044
 30
0.0
 40
3.0
 50
175.6746717927981
 51
269.5281786990899
  0
ARC
  5
3D9
  8
0
 10
49.43563250870538
 20
176.3279218379129
 30
0.0
 40
3.0
 50
89.45286437126984
 51
183.3145865810897
  0
ARC
  5
3DA
  8
0
 10
49.48474327378348
 20
175.5237308127373
 30
0.0
 40
3.0
 50
183.6746717927981
 51
277.5281786990897
  0
ARC
  5
3DB
  8
0
 10
51.71275784302006
 20
158.5880126727804
 30
0.0
 40
3.0
 50
97.45286437126992
 51
191.3145865810896
  0
ARC
  5
3DC
  8
0
 10
51.87331242424629
 20
157.7984828768469
 30
0.0
 40
3.0
 50
191.6746717927981
 51
285.5281786990895
  0
ARC
  5
3DD
  8
0
 10
56.43664051937573
 20
141.3376616782251
 30
0.0
 40
3.0
 50
105.4528643712702
 51
199.3145865810898
  0
ARC
  5
3DE
  8
0
 10
56.70551390445469
 20
140.5781604109347
 30
0.0
 40
3.0
 50
199.6746717927981
 51
293.5281786990897
  0
ARC
  5
3DF
  8
0
 10
63.515335534814
 20
124.9126273143725
 30
0.0
 40
3.0
 50
113.4528643712697
 51
207.3145865810896
  0
ARC
  5
3E0
  8
0
 10
63.88729440914408
 20
124.1979374039732
 30
0.0
 40
3.0
 50
207.674671792798
 51
301.5281786990894
  0
ARC
  5
3E1
  8
0
 10
73.19127987211652
 20
109.8651706529713
 30
0.0
 40
3.0
 50
121.4528643712701
 51
227.350021560691
  0
ARC
  5
3E2
  8
0
 10
52.16899365032815
 20
211.1069264433844
 30
0.0
 40
3.0
 50
168.1214668414309
 51
261.5281786990899
  0
ARC
  5
3E3
  8
0
 10
56.88535182762489
 20
205.3492734947939
 30
0.0
 40
2.0
 50
351.2924598662947
 51
81.52817869908993
  0
ARC
  5
3E4
  8
0
 10
55.81215529418707
 20
198.3420702467621
 30
0.0
 40
2.0
 50
261.4528643712701
 51
351.2924598662947
  0
ARC
  5
3E5
  8
0
 10
55.05098550149255
 20
188.3637310692062
 30
0.0
 40
2.0
 50
359.2924598662947
 51
89.52817869909003
  0
ARC
  5
3E6
  8
0
 10
54.96344744803098
 20
181.2753613519999
 30
0.0
 40
2.000000000000001
 50
269.4528643712698
 51
359.2924598662947
  0
ARC
  5
3E7
  8
0
 10
55.59840171320675
 20
171.2881963249867
 30
0.0
 40
2.0
 50
7.292459866294735
 51
97.52817869908974
  0
ARC
  5
3E8
  8
0
 10
56.49822596835898
 20
164.2566271922504
 30
0.0
 40
1.999999999999999
 50
277.4528643712698
 51
7.292459866294735
  0
ARC
  5
3E9
  8
0
 10
58.51694562888316
 20
154.4550251227991
 30
0.0
 40
2.000000000000002
 50
15.2924598662947
 51
105.5281786990896
  0
ARC
  5
3EA
  8
0
 10
60.38661813705756
 20
147.61711806941
 30
0.0
 40
2.0
 50
285.4528643712699
 51
15.29245986629459
  0
ARC
  5
3EB
  8
0
 10
63.7498111109976
 20
138.1918559926453
 30
0.0
 40
2.000000000000001
 50
23.29245986629466
 51
113.5281786990898
  0
ARC
  5
3EC
  8
0
 10
66.55294082354355
 20
131.6807031013938
 30
0.0
 40
2.000000000000001
 50
293.4528643712696
 51
23.2924598662946
  0
ARC
  5
3ED
  8
0
 10
71.19514638523701
 20
122.8152330225632
 30
0.0
 40
1.999999999999999
 50
31.29245986629487
 51
121.5281786990896
  0
ARC
  5
3EE
  8
0
 10
74.87717357081259
 20
116.7575664781508
 30
0.0
 40
2.000000000000001
 50
301.45286437127
 51
31.29245986629482
  0
ENDSEC
  0
EOF
