  0
SECTION
  2
HEADER
  9
$ANGBASE
 50
0.0
  9
$ANGDIR
 70
1
  9
$AUNITS
 70
0
  9
$AUPREC
 70
0
  9
$ATTMODE
 70
1
  9
$DWGCODEPAGE
  3
ANSI_1252
  9
$TDCREATE
 40
2461185.765671
  9
$CECOLOR
 62
0
  9
$CELTSCALE
 40
1.0
  9
$CELWEIGHT
370
-1
  9
$CLAYER
  8
0
  9
$CELTYPE
  6
ByLayer
  9
$CMLJUST
 70
0
  9
$CMLSCALE
 40
20.0
  9
$CMLSTYLE
  2
Standard
  9
$DIMSTYLE
  2
Standard
  9
$LWDISPLAY
290
0
  9
$EXTNAMES
290
1
  9
$HANDSEED
  5
F3
  9
$INSUNITS
 70
0
  9
$LUNITS
 70
2
  9
$LUPREC
 70
4
  9
$LTSCALE
 40
1.0
  9
$MIRRTEXT
 70
0
  9
$INSBASE
 10
0.0
 20
0.0
 30
0.0
  9
$SPLINESEGS
 70
8
  9
$PSLTSCALE
 70
1
  9
$PDMODE
 70
0
  9
$PDSIZE
 40
0.0
  9
$PLINEGEN
 70
0
  9
$SURFU
 70
6
  9
$SURFV
 70
6
  9
$TEXTSIZE
 40
2.5
  9
$TEXTSTYLE
  7
Standard
  9
$TDINDWG
 40
0.0
  9
$TDUCREATE
 40
2461185.68233766
  9
$TDUUPDATE
 40
2461185.68233766
  9
$TDUPDATE
 40
2461185.765671
  9
$ACADVER
  1
AC1015
  0
ENDSEC
  0
SECTION
  2
CLASSES
  0
CLASS
  1
ACDBDICTIONARYWDFLT
  2
AcDbDictionaryWithDefault
  3
ObjectDBX Classes
 90
32768
 91
0
280
0
281
0
  0
CLASS
  1
ACDBPLACEHOLDER
  2
AcDbPlaceHolder
  3
ObjectDBX Classes
 90
0
 91
0
280
0
281
0
  0
CLASS
  1
LAYOUT
  2
AcDbLayout
  3
ObjectDBX Classes
 90
0
 91
1
280
0
281
0
  0
CLASS
  1
DICTIONARYVAR
  2
AcDbDictionaryVar
  3
ObjectDBX Classes
 90
0
 91
0
280
0
281
0
  0
CLASS
  1
TABLESTYLE
  2
AcDbTableStyle
  3
ObjectDBX Classes
 90
4095
 91
0
280
0
281
0
  0
CLASS
  1
MATERIAL
  2
AcDbMaterial
  3
ObjectDBX Classes
 90
1153
 91
0
280
0
281
0
  0
CLASS
  1
VISUALSTYLE
  2
AcDbVisualStyle
  3
ObjectDBX Classes
 90
4095
 91
0
280
0
281
0
  0
CLASS
  1
SCALE
  2
AcDbScale
  3
ObjectDBX Classes
 90
1153
 91
17
280
0
281
0
  0
CLASS
  1
MLEADERSTYLE
  2
AcDbMLeaderStyle
  3
ObjectDBX Classes
 90
4095
 91
1
280
0
281
0
  0
CLASS
  1
CELLSTYLEMAP
  2
AcDbCellStyleMap
  3
ObjectDBX Classes
 90
1152
 91
0
280
0
281
0
  0
CLASS
  1
EXACXREFPANELOBJECT
  2
ExAcXREFPanelObject
  3
ObjectDBX Classes
 90
1025
 91
0
280
0
281
0
  0
CLASS
  1
NPOCOLLECTION
  2
AcDbImpNonPersistentObjectsCollection
  3
ObjectDBX Classes
 90
1153
 91
0
280
0
281
0
  0
CLASS
  1
LAYER_INDEX
  2
AcDbLayerIndex
  3
ObjectDBX Classes
 90
0
 91
0
280
0
281
0
  0
CLASS
  1
SPATIAL_INDEX
  2
AcDbSpatialIndex
  3
ObjectDBX Classes
 90
0
 91
0
280
0
281
0
  0
CLASS
  1
IDBUFFER
  2
AcDbIdBuffer
  3
ObjectDBX Classes
 90
32768
 91
0
280
0
281
0
  0
CLASS
  1
ACDBSECTIONVIEWSTYLE
  2
AcDbSectionViewStyle
  3
ObjectDBX Classes
 90
1025
 91
0
280
0
281
0
  0
CLASS
  1
ACDBDETAILVIEWSTYLE
  2
AcDbDetailViewStyle
  3
ObjectDBX Classes
 90
1025
 91
0
280
0
281
0
  0
CLASS
  1
MESH
  2
AcDbSubDMesh
  3
ObjectDBX Classes
 90
0
 91
0
280
0
281
0
  0
CLASS
  1
SORTENTSTABLE
  2
AcDbSortentsTable
  3
ObjectDBX Classes
 90
0
 91
0
280
0
281
0
  0
CLASS
  1
ACDB_TEXTOBJECTCONTEXTDATA_CLASS
  2
AcDbTextObjectContextData
  3
ObjectDBX Classes
 90
1153
 91
0
280
0
281
0
  0
CLASS
  1
WIPEOUT
  2
AcDbWipeout
  3
WipeOut
 90
32895
 91
0
280
0
281
0
  0
CLASS
  1
WIPEOUTVARIABLES
  2
AcDbWipeoutVariables
  3
WipeOut
 90
32768
 91
0
280
0
281
0
  0
CLASS
  1
DIMASSOC
  2
AcDbDimAssoc
  3
AcDbDimAssoc
 90
0
 91
0
280
0
281
0
  0
CLASS
  1
ACAD_TABLE
  2
AcDbTable
  3
ObjectDBX Classes
 90
1025
 91
0
280
0
281
0
  0
CLASS
  1
TABLECONTENT
  2
AcDbTableContent
  3
ObjectDBX Classes
 90
1152
 91
0
280
0
281
0
  0
CLASS
  1
TABLEGEOMETRY
  2
AcDbTableGeometry
  3
ObjectDBX Classes
 90
1152
 91
0
280
0
281
0
  0
CLASS
  1
IMAGE
  2
AcDbRasterImage
  3
ISM
 90
32895
 91
0
280
0
281
0
  0
CLASS
  1
IMAGEDEF
  2
AcDbRasterImageDef
  3
ISM
 90
0
 91
0
280
0
281
0
  0
CLASS
  1
DBCOLOR
  2
AcDbColor
  3
ObjectDBX Classes
 90
0
 91
0
280
0
281
0
  0
CLASS
  1
GEODATA
  2
AcDbGeoData
  3
ObjectDBX Classes
 90
4095
 91
0
280
0
281
0
  0
CLASS
  1
MULTILEADER
  2
AcDbMLeader
  3
ObjectDBX Classes
 90
1025
 91
0
280
0
281
0
  0
CLASS
  1
PDFUNDERLAY
  2
AcDbPdfReference
  3
ObjectDBX Classes
 90
4095
 91
0
280
0
281
0
  0
CLASS
  1
PDFDEFINITION
  2
AcDbPdfDefinition
  3
ObjectDBX Classes
 90
1153
 91
0
280
0
281
0
  0
CLASS
  1
RASTERVARIABLES
  2
AcDbRasterVariables
  3
ISM
 90
0
 91
0
280
0
281
0
  0
ENDSEC
  0
SECTION
  2
TABLES
  0
TABLE
  2
VPORT
  5
8
330
0
100
AcDbSymbolTable
 70
1
  0
VPORT
  5
34
330
8
100
AcDbSymbolTableRecord
100
AcDbViewportTableRecord
  2
*Active
 70
0
 10
0.0
 20
0.0
 11
1.0
 21
1.0
 12
0.0
 22
0.0
 13
0.0
 23
0.0
 14
0.5
 24
0.5
 15
10.0
 25
10.0
 16
0.0
 26
0.0
 36
1.0
 17
0.0
 27
0.0
 37
0.0
 40
10.0
 41
1.0
 75
0
 76
1
  0
ENDTAB
  0
TABLE
  2
LTYPE
  5
5
330
0
100
AcDbSymbolTable
 70
3
  0
LTYPE
  5
13
330
5
100
AcDbSymbolTableRecord
100
AcDbLinetypeTableRecord
  2
ByLayer
 70
0
 72
65
 73
0
 40
0.0
  0
LTYPE
  5
30
330
5
100
AcDbSymbolTableRecord
100
AcDbLinetypeTableRecord
  2
ByBlock
 70
0
 72
65
 73
0
 40
0.0
  0
LTYPE
  5
31
330
5
100
AcDbSymbolTableRecord
100
AcDbLinetypeTableRecord
  2
Continuous
 70
0
 72
65
 73
0
 40
0.0
  0
ENDTAB
  0
TABLE
  2
LAYER
  5
2
330
0
100
AcDbSymbolTable
 70
1
  0
LAYER
  5
32
330
2
100
AcDbSymbolTableRecord
100
AcDbLayerTableRecord
  2
0
 70
0
 62
7
  6
Continuous
290
1
370
-3
390
0
  0
ENDTAB
  0
TABLE
  2
STYLE
  5
4
330
0
100
AcDbSymbolTable
 70
1
  0
STYLE
  5
12
330
4
100
AcDbSymbolTableRecord
100
AcDbTextStyleTableRecord
  2
Standard
 70
0
 40
0.0
 41
1.0
 42
0.0
 50
0.0
 71
0
  0
ENDTAB
  0
TABLE
  2
VIEW
  5
6
330
0
100
AcDbSymbolTable
 70
0
  0
ENDTAB
  0
TABLE
  2
UCS
  5
7
330
0
100
AcDbSymbolTable
 70
0
  0
ENDTAB
  0
TABLE
  2
APPID
  5
9
330
0
100
AcDbSymbolTable
 70
1
  0
APPID
  5
2F
330
9
100
AcDbSymbolTableRecord
100
AcDbRegAppTableRecord
  2
ACAD
 70
0
  0
ENDTAB
  0
TABLE
  2
DIMSTYLE
  5
3
330
0
100
AcDbSymbolTable
 70
1
100
AcDbDimStyleTable
  0
DIMSTYLE
105
33
330
3
100
AcDbSymbolTableRecord
100
AcDbDimStyleTableRecord
  2
Standard
 70
0
  3
<>
  4
[]
 40
1.0
 41
0.18
 42
0.625
 43
3.75
 44
1.25
 45
0.0
 46
0.0
 47
0.0
 48
0.0
 49
1.0
 50
45.0
 70
0
 90
0
140
0.18
141
0.09
142
0.0
143
25.4
144
1.0
145
0.0
146
1.0
147
0.625
148
0.0
 71
0
 72
0
 73
0
 74
0
 75
0
 76
0
 77
1
 78
8
 79
0
170
0
171
3
172
0
173
1
174
0
175
0
176
0
177
0
178
0
179
0
271
2
272
2
273
2
274
3
275
0
276
0
277
2
278
46
279
0
280
0
281
0
282
0
283
0
284
8
285
0
286
0
287
0
288
0
289
3
290
0
340
12
371
-2
372
-2
  0
ENDTAB
  0
TABLE
  2
BLOCK_RECORD
  5
1
330
0
100
AcDbSymbolTable
 70
1
  0
BLOCK_RECORD
  5
36
330
1
100
AcDbSymbolTableRecord
100
AcDbBlockTableRecord
  2
*Model_Space
 70
0
340
35
 70
0
280
0
281
1
  0
ENDTAB
  0
ENDSEC
  0
SECTION
  2
BLOCKS
  0
BLOCK
  5
37
330
36
100
AcDbEntity
  8
0
  6
ByLayer
 62
256
 48
1.0
 60
0
370
-1
100
AcDbBlockBegin
  2
*Model_Space
 70
0
 10
0.0
 20
0.0
 30
0.0
  3
*Model_Space
  0
ENDBLK
  5
38
330
36
100
AcDbEntity
  8
0
100
AcDbBlockEnd
  0
ENDSEC
  0
SECTION
  2
ENTITIES
  0
LWPOLYLINE
  5
39
330
36
100
AcDbEntity
  8
0
  6
ByLayer
 62
256
 48
1.0
 60
0
370
-1
100
AcDbPolyline
 90
9
 70
0
 38
0.0
 39
0.0
 10
5.0
 20
55.0
 40
0.0
 41
0.0
 42
0.0
 10
5.0
 20
1555.0
 40
0.0
 41
0.0
 42
0.0
 10
55.0
 20
1605.0
 40
0.0
 41
0.0
 42
0.0
 10
1555.0
 20
1605.0
 40
0.0
 41
0.0
 42
0.0
 10
1605.0
 20
1555.0
 40
0.0
 41
0.0
 42
0.0
 10
1605.0
 20
55.0
 40
0.0
 41
0.0
 42
0.0
 10
1555.0
 20
5.0
 40
0.0
 41
0.0
 42
0.0
 10
55.0
 20
5.0
 40
0.0
 41
0.0
 42
0.0
 10
5.0
 20
55.0
 40
0.0
 41
0.0
 42
0.0
210
0.0
220
0.0
230
1.0
  0
LWPOLYLINE
  5
3A
330
36
100
AcDbEntity
  8
0
  6
ByLayer
 62
256
 48
1.0
 60
0
370
-1
100
AcDbPolyline
 90
3
 70
0
 38
0.0
 39
0.0
 10
525.0
 20
605.0
 40
0.0
 41
0.0
 42
1.0
 10
685.0
 20
605.0
 40
0.0
 41
0.0
 42
1.0
 10
525.0
 20
605.0
 40
0.0
 41
0.0
 42
0.0
210
0.0
220
0.0
230
1.0
  0
LWPOLYLINE
  5
3B
330
36
100
AcDbEntity
  8
0
  6
ByLayer
 62
256
 48
1.0
 60
0
370
-1
100
AcDbPolyline
 90
3
 70
0
 38
0.0
 39
0.0
 10
125.0
 20
605.0
 40
0.0
 41
0.0
 42
1.0
 10
285.0
 20
605.0
 40
0.0
 41
0.0
 42
1.0
 10
125.0
 20
605.0
 40
0.0
 41
0.0
 42
0.0
210
0.0
220
0.0
230
1.0
  0
LWPOLYLINE
  5
3C
330
36
100
AcDbEntity
  8
0
  6
ByLayer
 62
256
 48
1.0
 60
0
370
-1
100
AcDbPolyline
 90
3
 70
0
 38
0.0
 39
0.0
 10
525.0
 20
205.0
 40
0.0
 41
0.0
 42
1.00000019073488
 10
685.0
 20
205.0
 40
0.0
 41
0.0
 42
1.00000019073488
 10
525.0
 20
205.0
 40
0.0
 41
0.0
 42
0.0
210
0.0
220
0.0
230
1.0
  0
LWPOLYLINE
  5
3D
330
36
100
AcDbEntity
  8
0
  6
ByLayer
 62
256
 48
1.0
 60
0
370
-1
100
AcDbPolyline
 90
3
 70
0
 38
0.0
 39
0.0
 10
525.0
 20
1005.0
 40
0.0
 41
0.0
 42
1.0
 10
685.0
 20
1005.0
 40
0.0
 41
0.0
 42
1.0
 10
525.0
 20
1005.0
 40
0.0
 41
0.0
 42
0.0
210
0.0
220
0.0
230
1.0
  0
LWPOLYLINE
  5
3E
330
36
100
AcDbEntity
  8
0
  6
ByLayer
 62
256
 48
1.0
 60
0
370
-1
100
AcDbPolyline
 90
3
 70
0
 38
0.0
 39
0.0
 10
125.0
 20
205.0
 40
0.0
 41
0.0
 42
1.0
 10
285.0
 20
205.0
 40
0.0
 41
0.0
 42
1.00000009536744
 10
125.0
 20
205.0
 40
0.0
 41
0.0
 42
0.0
210
0.0
220
0.0
230
1.0
  0
LWPOLYLINE
  5
3F
330
36
100
AcDbEntity
  8
0
  6
ByLayer
 62
256
 48
1.0
 60
0
370
-1
100
AcDbPolyline
 90
3
 70
0
 38
0.0
 39
0.0
 10
125.0
 20
1005.0
 40
0.0
 41
0.0
 42
1.0
 10
285.0
 20
1005.0
 40
0.0
 41
0.0
 42
1.0
 10
125.0
 20
1005.0
 40
0.0
 41
0.0
 42
0.0
210
0.0
220
0.0
230
1.0
  0
LWPOLYLINE
  5
40
330
36
100
AcDbEntity
  8
0
  6
ByLayer
 62
256
 48
1.0
 60
0
370
-1
100
AcDbPolyline
 90
3
 70
0
 38
0.0
 39
0.0
 10
525.0
 20
1405.0
 40
0.0
 41
0.0
 42
1.0
 10
685.0
 20
1405.0
 40
0.0
 41
0.0
 42
1.0
 10
525.0
 20
1405.0
 40
0.0
 41
0.0
 42
0.0
210
0.0
220
0.0
230
1.0
  0
LWPOLYLINE
  5
41
330
36
100
AcDbEntity
  8
0
  6
ByLayer
 62
256
 48
1.0
 60
0
370
-1
100
AcDbPolyline
 90
3
 70
0
 38
0.0
 39
0.0
 10
125.0
 20
1405.0
 40
0.0
 41
0.0
 42
1.0
 10
285.0
 20
1405.0
 40
0.0
 41
0.0
 42
1.0
 10
125.0
 20
1405.0
 40
0.0
 41
0.0
 42
0.0
210
0.0
220
0.0
230
1.0
  0
LWPOLYLINE
  5
42
330
36
100
AcDbEntity
  8
0
  6
ByLayer
 62
256
 48
1.0
 60
0
370
-1
100
AcDbPolyline
 90
3
 70
0
 38
0.0
 39
0.0
 10
1324.98999023438
 20
605.0
 40
0.0
 41
0.0
 42
1.0
 10
1484.98999023438
 20
605.0
 40
0.0
 41
0.0
 42
1.0
 10
1324.98999023438
 20
605.0
 40
0.0
 41
0.0
 42
0.0
210
0.0
220
0.0
230
1.0
  0
LWPOLYLINE
  5
43
330
36
100
AcDbEntity
  8
0
  6
ByLayer
 62
256
 48
1.0
 60
0
370
-1
100
AcDbPolyline
 90
3
 70
0
 38
0.0
 39
0.0
 10
1324.98999023438
 20
205.0
 40
0.0
 41
0.0
 42
1.00000019073488
 10
1484.98999023438
 20
205.0
 40
0.0
 41
0.0
 42
1.00000009536744
 10
1324.98999023438
 20
205.0
 40
0.0
 41
0.0
 42
0.0
210
0.0
220
0.0
230
1.0
  0
LWPOLYLINE
  5
44
330
36
100
AcDbEntity
  8
0
  6
ByLayer
 62
256
 48
1.0
 60
0
370
-1
100
AcDbPolyline
 90
3
 70
0
 38
0.0
 39
0.0
 10
1324.98999023438
 20
1005.0
 40
0.0
 41
0.0
 42
1.0
 10
1484.98999023438
 20
1005.0
 40
0.0
 41
0.0
 42
1.0
 10
1324.98999023438
 20
1005.0
 40
0.0
 41
0.0
 42
0.0
210
0.0
220
0.0
230
1.0
  0
LWPOLYLINE
  5
45
330
36
100
AcDbEntity
  8
0
  6
ByLayer
 62
256
 48
1.0
 60
0
370
-1
100
AcDbPolyline
 90
3
 70
0
 38
0.0
 39
0.0
 10
1324.98999023438
 20
1405.0
 40
0.0
 41
0.0
 42
1.0
 10
1484.98999023438
 20
1405.0
 40
0.0
 41
0.0
 42
1.0
 10
1324.98999023438
 20
1405.0
 40
0.0
 41
0.0
 42
0.0
210
0.0
220
0.0
230
1.0
  0
LWPOLYLINE
  5
46
330
36
100
AcDbEntity
  8
0
  6
ByLayer
 62
256
 48
1.0
 60
0
370
-1
100
AcDbPolyline
 90
3
 70
0
 38
0.0
 39
0.0
 10
925.0
 20
1405.0
 40
0.0
 41
0.0
 42
0.988883198035637
 10
1084.98999023438
 20
1405.0
 40
0.0
 41
0.0
 42
0.988883198035637
 10
925.0
 20
1405.0
 40
0.0
 41
0.0
 42
0.0
210
0.0
220
0.0
230
1.0
  0
LWPOLYLINE
  5
47
330
36
100
AcDbEntity
  8
0
  6
ByLayer
 62
256
 48
1.0
 60
0
370
-1
100
AcDbPolyline
 90
3
 70
0
 38
0.0
 39
0.0
 10
925.0
 20
1005.0
 40
0.0
 41
0.0
 42
0.988880934664059
 10
1084.98999023438
 20
1005.0
 40
0.0
 41
0.0
 42
0.988883952493994
 10
925.0
 20
1005.0
 40
0.0
 41
0.0
 42
0.0
210
0.0
220
0.0
230
1.0
  0
LWPOLYLINE
  5
48
330
36
100
AcDbEntity
  8
0
  6
ByLayer
 62
256
 48
1.0
 60
0
370
-1
100
AcDbPolyline
 90
3
 70
0
 38
0.0
 39
0.0
 10
925.0
 20
205.0
 40
0.0
 41
0.0
 42
0.988881311892292
 10
1084.98999023438
 20
205.0
 40
0.0
 41
0.0
 42
0.988882443577862
 10
925.0
 20
205.0
 40
0.0
 41
0.0
 42
0.0
210
0.0
220
0.0
230
1.0
  0
LWPOLYLINE
  5
49
330
36
100
AcDbEntity
  8
0
  6
ByLayer
 62
256
 48
1.0
 60
0
370
-1
100
AcDbPolyline
 90
3
 70
0
 38
0.0
 39
0.0
 10
925.0
 20
605.0
 40
0.0
 41
0.0
 42
0.988880934664059
 10
1084.98999023438
 20
605.0
 40
0.0
 41
0.0
 42
0.98888168912067
 10
925.0
 20
605.0
 40
0.0
 41
0.0
 42
0.0
210
0.0
220
0.0
230
1.0
  0
LWPOLYLINE
  5
4A
330
36
100
AcDbEntity
  8
0
  6
ByLayer
 62
256
 48
1.0
 60
0
370
-1
100
AcDbPolyline
 90
9
 70
0
 38
0.0
 39
0.0
 10
1612.5
 20
55.0
 40
0.0
 41
0.0
 42
0.0
 10
1612.5
 20
1555.0
 40
0.0
 41
0.0
 42
0.0
 10
1662.5
 20
1605.0
 40
0.0
 41
0.0
 42
0.0
 10
3162.5
 20
1605.0
 40
0.0
 41
0.0
 42
0.0
 10
3212.5
 20
1555.0
 40
0.0
 41
0.0
 42
0.0
 10
3212.5
 20
55.0
 40
0.0
 41
0.0
 42
0.0
 10
3162.5
 20
5.0
 40
0.0
 41
0.0
 42
0.0
 10
1662.5
 20
5.0
 40
0.0
 41
0.0
 42
0.0
 10
1612.5
 20
55.0
 40
0.0
 41
0.0
 42
0.0
210
0.0
220
0.0
230
1.0
  0
LWPOLYLINE
  5
4B
330
36
100
AcDbEntity
  8
0
  6
ByLayer
 62
256
 48
1.0
 60
0
370
-1
100
AcDbPolyline
 90
3
 70
0
 38
0.0
 39
0.0
 10
2132.5
 20
605.0
 40
0.0
 41
0.0
 42
1.00000076293974
 10
2292.5
 20
605.0
 40
0.0
 41
0.0
 42
1.0000003814698
 10
2132.5
 20
605.0
 40
0.0
 41
0.0
 42
0.0
210
0.0
220
0.0
230
1.0
  0
LWPOLYLINE
  5
4C
330
36
100
AcDbEntity
  8
0
  6
ByLayer
 62
256
 48
1.0
 60
0
370
-1
100
AcDbPolyline
 90
3
 70
0
 38
0.0
 39
0.0
 10
1732.5
 20
605.0
 40
0.0
 41
0.0
 42
0.999999618530346
 10
1892.5
 20
605.0
 40
0.0
 41
0.0
 42
0.999999237060838
 10
1732.5
 20
605.0
 40
0.0
 41
0.0
 42
0.0
210
0.0
220
0.0
230
1.0
  0
LWPOLYLINE
  5
4D
330
36
100
AcDbEntity
  8
0
  6
ByLayer
 62
256
 48
1.0
 60
0
370
-1
100
AcDbPolyline
 90
3
 70
0
 38
0.0
 39
0.0
 10
2132.5
 20
205.0
 40
0.0
 41
0.0
 42
1.0000003814698
 10
2292.5
 20
205.0
 40
0.0
 41
0.0
 42
1.00000019073488
 10
2132.5
 20
205.0
 40
0.0
 41
0.0
 42
0.0
210
0.0
220
0.0
230
1.0
  0
LWPOLYLINE
  5
4E
330
36
100
AcDbEntity
  8
0
  6
ByLayer
 62
256
 48
1.0
 60
0
370
-1
100
AcDbPolyline
 90
3
 70
0
 38
0.0
 39
0.0
 10
2132.5
 20
1005.0
 40
0.0
 41
0.0
 42
1.00000076293974
 10
2292.5
 20
1005.0
 40
0.0
 41
0.0
 42
1.0000003814698
 10
2132.5
 20
1005.0
 40
0.0
 41
0.0
 42
0.0
210
0.0
220
0.0
230
1.0
  0
LWPOLYLINE
  5
4F
330
36
100
AcDbEntity
  8
0
  6
ByLayer
 62
256
 48
1.0
 60
0
370
-1
100
AcDbPolyline
 90
3
 70
0
 38
0.0
 39
0.0
 10
1732.5
 20
205.0
 40
0.0
 41
0.0
 42
0.999999809265155
 10
1892.5
 20
205.0
 40
0.0
 41
0.0
 42
0.999999618530346
 10
1732.5
 20
205.0
 40
0.0
 41
0.0
 42
0.0
210
0.0
220
0.0
230
1.0
  0
LWPOLYLINE
  5
50
330
36
100
AcDbEntity
  8
0
  6
ByLayer
 62
256
 48
1.0
 60
0
370
-1
100
AcDbPolyline
 90
3
 70
0
 38
0.0
 39
0.0
 10
1732.5
 20
1005.0
 40
0.0
 41
0.0
 42
0.999999618530346
 10
1892.5
 20
1005.0
 40
0.0
 41
0.0
 42
0.999999237060838
 10
1732.5
 20
1005.0
 40
0.0
 41
0.0
 42
0.0
210
0.0
220
0.0
230
1.0
  0
LWPOLYLINE
  5
51
330
36
100
AcDbEntity
  8
0
  6
ByLayer
 62
256
 48
1.0
 60
0
370
-1
100
AcDbPolyline
 90
3
 70
0
 38
0.0
 39
0.0
 10
2132.5
 20
1405.0
 40
0.0
 41
0.0
 42
1.0
 10
2292.5
 20
1405.0
 40
0.0
 41
0.0
 42
1.0
 10
2132.5
 20
1405.0
 40
0.0
 41
0.0
 42
0.0
210
0.0
220
0.0
230
1.0
  0
LWPOLYLINE
  5
52
330
36
100
AcDbEntity
  8
0
  6
ByLayer
 62
256
 48
1.0
 60
0
370
-1
100
AcDbPolyline
 90
3
 70
0
 38
0.0
 39
0.0
 10
1732.5
 20
1405.0
 40
0.0
 41
0.0
 42
1.0
 10
1892.5
 20
1405.0
 40
0.0
 41
0.0
 42
1.0
 10
1732.5
 20
1405.0
 40
0.0
 41
0.0
 42
0.0
210
0.0
220
0.0
230
1.0
  0
LWPOLYLINE
  5
53
330
36
100
AcDbEntity
  8
0
  6
ByLayer
 62
256
 48
1.0
 60
0
370
-1
100
AcDbPolyline
 90
3
 70
0
 38
0.0
 39
0.0
 10
2932.48999023438
 20
605.0
 40
0.0
 41
0.0
 42
0.999998474122258
 10
3092.48999023438
 20
605.0
 40
0.0
 41
0.0
 42
0.999998474122258
 10
2932.48999023438
 20
605.0
 40
0.0
 41
0.0
 42
0.0
210
0.0
220
0.0
230
1.0
  0
LWPOLYLINE
  5
54
330
36
100
AcDbEntity
  8
0
  6
ByLayer
 62
256
 48
1.0
 60
0
370
-1
100
AcDbPolyline
 90
3
 70
0
 38
0.0
 39
0.0
 10
2932.48999023438
 20
205.0
 40
0.0
 41
0.0
 42
0.999998664856848
 10
3092.48999023438
 20
205.0
 40
0.0
 41
0.0
 42
0.999998855591475
 10
2932.48999023438
 20
205.0
 40
0.0
 41
0.0
 42
0.0
210
0.0
220
0.0
230
1.0
  0
LWPOLYLINE
  5
55
330
36
100
AcDbEntity
  8
0
  6
ByLayer
 62
256
 48
1.0
 60
0
370
-1
100
AcDbPolyline
 90
3
 70
0
 38
0.0
 39
0.0
 10
2932.48999023438
 20
1005.0
 40
0.0
 41
0.0
 42
0.999998474122258
 10
3092.48999023438
 20
1005.0
 40
0.0
 41
0.0
 42
0.999998474122258
 10
2932.48999023438
 20
1005.0
 40
0.0
 41
0.0
 42
0.0
210
0.0
220
0.0
230
1.0
  0
LWPOLYLINE
  5
56
330
36
100
AcDbEntity
  8
0
  6
ByLayer
 62
256
 48
1.0
 60
0
370
-1
100
AcDbPolyline
 90
3
 70
0
 38
0.0
 39
0.0
 10
2932.48999023438
 20
1405.0
 40
0.0
 41
0.0
 42
0.999998474122258
 10
3092.48999023438
 20
1405.0
 40
0.0
 41
0.0
 42
0.999998474122258
 10
2932.48999023438
 20
1405.0
 40
0.0
 41
0.0
 42
0.0
210
0.0
220
0.0
230
1.0
  0
LWPOLYLINE
  5
57
330
36
100
AcDbEntity
  8
0
  6
ByLayer
 62
256
 48
1.0
 60
0
370
-1
100
AcDbPolyline
 90
3
 70
0
 38
0.0
 39
0.0
 10
2532.5
 20
1405.0
 40
0.0
 41
0.0
 42
0.988883198035618
 10
2692.48999023438
 20
1405.0
 40
0.0
 41
0.0
 42
0.988883198035618
 10
2532.5
 20
1405.0
 40
0.0
 41
0.0
 42
0.0
210
0.0
220
0.0
230
1.0
  0
LWPOLYLINE
  5
58
330
36
100
AcDbEntity
  8
0
  6
ByLayer
 62
256
 48
1.0
 60
0
370
-1
100
AcDbPolyline
 90
3
 70
0
 38
0.0
 39
0.0
 10
2532.5
 20
1005.0
 40
0.0
 41
0.0
 42
0.98888168912065
 10
2692.48999023438
 20
1005.0
 40
0.0
 41
0.0
 42
0.988883952493974
 10
2532.5
 20
1005.0
 40
0.0
 41
0.0
 42
0.0
210
0.0
220
0.0
230
1.0
  0
LWPOLYLINE
  5
59
330
36
100
AcDbEntity
  8
0
  6
ByLayer
 62
256
 48
1.0
 60
0
370
-1
100
AcDbPolyline
 90
3
 70
0
 38
0.0
 39
0.0
 10
2532.5
 20
205.0
 40
0.0
 41
0.0
 42
0.98888225496349
 10
2692.48999023438
 20
205.0
 40
0.0
 41
0.0
 42
0.988882443577843
 10
2532.5
 20
205.0
 40
0.0
 41
0.0
 42
0.0
210
0.0
220
0.0
230
1.0
  0
LWPOLYLINE
  5
5A
330
36
100
AcDbEntity
  8
0
  6
ByLayer
 62
256
 48
1.0
 60
0
370
-1
100
AcDbPolyline
 90
3
 70
0
 38
0.0
 39
0.0
 10
2532.5
 20
605.0
 40
0.0
 41
0.0
 42
0.98888168912065
 10
2692.48999023438
 20
605.0
 40
0.0
 41
0.0
 42
0.98888168912065
 10
2532.5
 20
605.0
 40
0.0
 41
0.0
 42
0.0
210
0.0
220
0.0
230
1.0
  0
LWPOLYLINE
  5
5B
330
36
100
AcDbEntity
  8
0
  6
ByLayer
 62
256
 48
1.0
 60
0
370
-1
100
AcDbPolyline
 90
9
 70
0
 38
0.0
 39
0.0
 10
3220.0
 20
55.0
 40
0.0
 41
0.0
 42
0.0
 10
3220.0
 20
1555.0
 40
0.0
 41
0.0
 42
0.0
 10
3270.0
 20
1605.0
 40
0.0
 41
0.0
 42
0.0
 10
4770.0
 20
1605.0
 40
0.0
 41
0.0
 42
0.0
 10
4820.0
 20
1555.0
 40
0.0
 41
0.0
 42
0.0
 10
4820.0
 20
55.0
 40
0.0
 41
0.0
 42
0.0
 10
4770.0
 20
5.0
 40
0.0
 41
0.0
 42
0.0
 10
3270.0
 20
5.0
 40
0.0
 41
0.0
 42
0.0
 10
3220.0
 20
55.0
 40
0.0
 41
0.0
 42
0.0
210
0.0
220
0.0
230
1.0
  0
LWPOLYLINE
  5
5C
330
36
100
AcDbEntity
  8
0
  6
ByLayer
 62
256
 48
1.0
 60
0
370
-1
100
AcDbPolyline
 90
3
 70
0
 38
0.0
 39
0.0
 10
3740.0
 20
605.0
 40
0.0
 41
0.0
 42
1.00000076293974
 10
3900.0
 20
605.0
 40
0.0
 41
0.0
 42
1.0000003814698
 10
3740.0
 20
605.0
 40
0.0
 41
0.0
 42
0.0
210
0.0
220
0.0
230
1.0
  0
LWPOLYLINE
  5
5D
330
36
100
AcDbEntity
  8
0
  6
ByLayer
 62
256
 48
1.0
 60
0
370
-1
100
AcDbPolyline
 90
3
 70
0
 38
0.0
 39
0.0
 10
3340.0
 20
605.0
 40
0.0
 41
0.0
 42
1.00000076293974
 10
3500.0
 20
605.0
 40
0.0
 41
0.0
 42
1.0000003814698
 10
3340.0
 20
605.0
 40
0.0
 41
0.0
 42
0.0
210
0.0
220
0.0
230
1.0
  0
LWPOLYLINE
  5
5E
330
36
100
AcDbEntity
  8
0
  6
ByLayer
 62
256
 48
1.0
 60
0
370
-1
100
AcDbPolyline
 90
3
 70
0
 38
0.0
 39
0.0
 10
3740.0
 20
205.0
 40
0.0
 41
0.0
 42
1.0000003814698
 10
3900.0
 20
205.0
 40
0.0
 41
0.0
 42
1.00000019073488
 10
3740.0
 20
205.0
 40
0.0
 41
0.0
 42
0.0
210
0.0
220
0.0
230
1.0
  0
LWPOLYLINE
  5
5F
330
36
100
AcDbEntity
  8
0
  6
ByLayer
 62
256
 48
1.0
 60
0
370
-1
100
AcDbPolyline
 90
3
 70
0
 38
0.0
 39
0.0
 10
3740.0
 20
1005.0
 40
0.0
 41
0.0
 42
1.00000076293974
 10
3900.0
 20
1005.0
 40
0.0
 41
0.0
 42
1.0000003814698
 10
3740.0
 20
1005.0
 40
0.0
 41
0.0
 42
0.0
210
0.0
220
0.0
230
1.0
  0
LWPOLYLINE
  5
60
330
36
100
AcDbEntity
  8
0
  6
ByLayer
 62
256
 48
1.0
 60
0
370
-1
100
AcDbPolyline
 90
3
 70
0
 38
0.0
 39
0.0
 10
3340.0
 20
205.0
 40
0.0
 41
0.0
 42
1.0000003814698
 10
3500.0
 20
205.0
 40
0.0
 41
0.0
 42
1.00000019073488
 10
3340.0
 20
205.0
 40
0.0
 41
0.0
 42
0.0
210
0.0
220
0.0
230
1.0
  0
LWPOLYLINE
  5
61
330
36
100
AcDbEntity
  8
0
  6
ByLayer
 62
256
 48
1.0
 60
0
370
-1
100
AcDbPolyline
 90
3
 70
0
 38
0.0
 39
0.0
 10
3340.0
 20
1005.0
 40
0.0
 41
0.0
 42
1.00000076293974
 10
3500.0
 20
1005.0
 40
0.0
 41
0.0
 42
1.0000003814698
 10
3340.0
 20
1005.0
 40
0.0
 41
0.0
 42
0.0
210
0.0
220
0.0
230
1.0
  0
LWPOLYLINE
  5
62
330
36
100
AcDbEntity
  8
0
  6
ByLayer
 62
256
 48
1.0
 60
0
370
-1
100
AcDbPolyline
 90
3
 70
0
 38
0.0
 39
0.0
 10
3740.0
 20
1405.0
 40
0.0
 41
0.0
 42
1.0
 10
3900.0
 20
1405.0
 40
0.0
 41
0.0
 42
1.0
 10
3740.0
 20
1405.0
 40
0.0
 41
0.0
 42
0.0
210
0.0
220
0.0
230
1.0
  0
LWPOLYLINE
  5
63
330
36
100
AcDbEntity
  8
0
  6
ByLayer
 62
256
 48
1.0
 60
0
370
-1
100
AcDbPolyline
 90
3
 70
0
 38
0.0
 39
0.0
 10
3340.0
 20
1405.0
 40
0.0
 41
0.0
 42
1.0
 10
3500.0
 20
1405.0
 40
0.0
 41
0.0
 42
1.0
 10
3340.0
 20
1405.0
 40
0.0
 41
0.0
 42
0.0
210
0.0
220
0.0
230
1.0
  0
LWPOLYLINE
  5
64
330
36
100
AcDbEntity
  8
0
  6
ByLayer
 62
256
 48
1.0
 60
0
370
-1
100
AcDbPolyline
 90
3
 70
0
 38
0.0
 39
0.0
 10
4539.990234375
 20
605.0
 40
0.0
 41
0.0
 42
1.00000534059043
 10
4699.990234375
 20
605.0
 40
0.0
 41
0.0
 42
0.999995422373758
 10
4539.990234375
 20
605.0
 40
0.0
 41
0.0
 42
0.0
210
0.0
220
0.0
230
1.0
  0
LWPOLYLINE
  5
65
330
36
100
AcDbEntity
  8
0
  6
ByLayer
 62
256
 48
1.0
 60
0
370
-1
100
AcDbPolyline
 90
3
 70
0
 38
0.0
 39
0.0
 10
4539.990234375
 20
205.0
 40
0.0
 41
0.0
 42
1.00000495911874
 10
4699.990234375
 20
205.0
 40
0.0
 41
0.0
 42
0.999995803841812
 10
4539.990234375
 20
205.0
 40
0.0
 41
0.0
 42
0.0
210
0.0
220
0.0
230
1.0
  0
LWPOLYLINE
  5
66
330
36
100
AcDbEntity
  8
0
  6
ByLayer
 62
256
 48
1.0
 60
0
370
-1
100
AcDbPolyline
 90
3
 70
0
 38
0.0
 39
0.0
 10
4539.990234375
 20
1005.0
 40
0.0
 41
0.0
 42
1.00000534059043
 10
4699.990234375
 20
1005.0
 40
0.0
 41
0.0
 42
0.999995422373758
 10
4539.990234375
 20
1005.0
 40
0.0
 41
0.0
 42
0.0
210
0.0
220
0.0
230
1.0
  0
LWPOLYLINE
  5
67
330
36
100
AcDbEntity
  8
0
  6
ByLayer
 62
256
 48
1.0
 60
0
370
-1
100
AcDbPolyline
 90
3
 70
0
 38
0.0
 39
0.0
 10
4539.990234375
 20
1405.0
 40
0.0
 41
0.0
 42
1.0000045776472
 10
4699.990234375
 20
1405.0
 40
0.0
 41
0.0
 42
0.999995422373758
 10
4539.990234375
 20
1405.0
 40
0.0
 41
0.0
 42
0.0
210
0.0
220
0.0
230
1.0
  0
LWPOLYLINE
  5
68
330
36
100
AcDbEntity
  8
0
  6
ByLayer
 62
256
 48
1.0
 60
0
370
-1
100
AcDbPolyline
 90
3
 70
0
 38
0.0
 39
0.0
 10
4140.0
 20
1405.0
 40
0.0
 41
0.0
 42
0.988880197081173
 10
4299.990234375
 20
1405.0
 40
0.0
 41
0.0
 42
0.988877179267432
 10
4140.0
 20
1405.0
 40
0.0
 41
0.0
 42
0.0
210
0.0
220
0.0
230
1.0
  0
LWPOLYLINE
  5
69
330
36
100
AcDbEntity
  8
0
  6
ByLayer
 62
256
 48
1.0
 60
0
370
-1
100
AcDbPolyline
 90
3
 70
0
 38
0.0
 39
0.0
 10
4140.0
 20
1005.0
 40
0.0
 41
0.0
 42
0.988878688173138
 10
4299.990234375
 20
1005.0
 40
0.0
 41
0.0
 42
0.988877933719994
 10
4140.0
 20
1005.0
 40
0.0
 41
0.0
 42
0.0
210
0.0
220
0.0
230
1.0
  0
LWPOLYLINE
  5
6A
330
36
100
AcDbEntity
  8
0
  6
ByLayer
 62
256
 48
1.0
 60
0
370
-1
100
AcDbPolyline
 90
3
 70
0
 38
0.0
 39
0.0
 10
4140.0
 20
205.0
 40
0.0
 41
0.0
 42
0.988878876786516
 10
4299.990234375
 20
205.0
 40
0.0
 41
0.0
 42
0.988876802041369
 10
4140.0
 20
205.0
 40
0.0
 41
0.0
 42
0.0
210
0.0
220
0.0
230
1.0
  0
LWPOLYLINE
  5
6B
330
36
100
AcDbEntity
  8
0
  6
ByLayer
 62
256
 48
1.0
 60
0
370
-1
100
AcDbPolyline
 90
3
 70
0
 38
0.0
 39
0.0
 10
4140.0
 20
605.0
 40
0.0
 41
0.0
 42
0.988878688173138
 10
4299.990234375
 20
605.0
 40
0.0
 41
0.0
 42
0.988875670364054
 10
4140.0
 20
605.0
 40
0.0
 41
0.0
 42
0.0
210
0.0
220
0.0
230
1.0
  0
LWPOLYLINE
  5
6C
330
36
100
AcDbEntity
  8
0
  6
ByLayer
 62
256
 48
1.0
 60
0
370
-1
100
AcDbPolyline
 90
6
 70
0
 38
0.0
 39
0.0
 10
7.46033000946045
 20
1924.7099609375
 40
0.0
 41
0.0
 42
-0.450061128098801
 10
359.870330810547
 20
2322.5
 40
0.0
 41
0.0
 42
0.0
 10
1719.87036132813
 20
2322.5
 40
0.0
 41
0.0
 42
0.0
 10
1719.87036132813
 20
1612.5
 40
0.0
 41
0.0
 42
0.0
 10
359.870330810547
 20
1612.5
 40
0.0
 41
0.0
 42
-0.379249152809161
 10
7.46033000946045
 20
1924.7099609375
 40
0.0
 41
0.0
 42
0.0
210
0.0
220
0.0
230
1.0
  0
LWPOLYLINE
  5
6D
330
36
100
AcDbEntity
  8
0
  6
ByLayer
 62
256
 48
1.0
 60
0
370
-1
100
AcDbPolyline
 90
3
 70
0
 38
0.0
 39
0.0
 10
234.370330810547
 20
1967.5
 40
0.0
 41
0.0
 42
1.00000097267229
 10
485.370330810547
 20
1967.5
 40
0.0
 41
0.0
 42
0.99999902732866
 10
234.370330810547
 20
1967.5
 40
0.0
 41
0.0
 42
0.0
210
0.0
220
0.0
230
1.0
  0
LWPOLYLINE
  5
6E
330
36
100
AcDbEntity
  8
0
  6
ByLayer
 62
256
 48
1.0
 60
0
370
-1
100
AcDbPolyline
 90
3
 70
0
 38
0.0
 39
0.0
 10
769.870300292969
 20
1967.5
 40
0.0
 41
0.0
 42
1.0
 10
809.870300292969
 20
1967.5
 40
0.0
 41
0.0
 42
1.0
 10
769.870300292969
 20
1967.5
 40
0.0
 41
0.0
 42
0.0
210
0.0
220
0.0
230
1.0
  0
LWPOLYLINE
  5
6F
330
36
100
AcDbEntity
  8
0
  6
ByLayer
 62
256
 48
1.0
 60
0
370
-1
100
AcDbPolyline
 90
6
 70
0
 38
0.0
 39
0.0
 10
1729.83068847656
 20
1924.7099609375
 40
0.0
 41
0.0
 42
-0.45006070351361
 10
2082.24072265625
 20
2322.5
 40
0.0
 41
0.0
 42
0.0
 10
3442.24072265625
 20
2322.5
 40
0.0
 41
0.0
 42
0.0
 10
3442.24072265625
 20
1612.5
 40
0.0
 41
0.0
 42
0.0
 10
2082.24072265625
 20
1612.5
 40
0.0
 41
0.0
 42
-0.379249091192038
 10
1729.83068847656
 20
1924.7099609375
 40
0.0
 41
0.0
 42
0.0
210
0.0
220
0.0
230
1.0
  0
LWPOLYLINE
  5
70
330
36
100
AcDbEntity
  8
0
  6
ByLayer
 62
256
 48
1.0
 60
0
370
-1
100
AcDbPolyline
 90
3
 70
0
 38
0.0
 39
0.0
 10
1956.74072265625
 20
1967.5
 40
0.0
 41
0.0
 42
1.00000194534552
 10
2207.74072265625
 20
1967.5
 40
0.0
 41
0.0
 42
0.99999902732866
 10
1956.74072265625
 20
1967.5
 40
0.0
 41
0.0
 42
0.0
210
0.0
220
0.0
230
1.0
  0
LWPOLYLINE
  5
71
330
36
100
AcDbEntity
  8
0
  6
ByLayer
 62
256
 48
1.0
 60
0
370
-1
100
AcDbPolyline
 90
3
 70
0
 38
0.0
 39
0.0
 10
2492.24072265625
 20
1967.5
 40
0.0
 41
0.0
 42
1.0
 10
2532.24072265625
 20
1967.5
 40
0.0
 41
0.0
 42
1.0
 10
2492.24072265625
 20
1967.5
 40
0.0
 41
0.0
 42
0.0
210
0.0
220
0.0
230
1.0
  0
LWPOLYLINE
  5
72
330
36
100
AcDbEntity
  8
0
  6
ByLayer
 62
256
 48
1.0
 60
0
370
-1
100
AcDbPolyline
 90
9
 70
0
 38
0.0
 39
0.0
 10
3449.74072265625
 20
1642.5
 40
0.0
 41
0.0
 42
0.0
 10
3449.74072265625
 20
2242.5
 40
0.0
 41
0.0
 42
0.0
 10
3479.74072265625
 20
2272.5
 40
0.0
 41
0.0
 42
0.0
 10
4809.74072265625
 20
2272.5
 40
0.0
 41
0.0
 42
0.0
 10
4839.74072265625
 20
2242.5
 40
0.0
 41
0.0
 42
0.0
 10
4839.74072265625
 20
1642.5
 40
0.0
 41
0.0
 42
0.0
 10
4809.74072265625
 20
1612.5
 40
0.0
 41
0.0
 42
0.0
 10
3479.74072265625
 20
1612.5
 40
0.0
 41
0.0
 42
0.0
 10
3449.74072265625
 20
1642.5
 40
0.0
 41
0.0
 42
0.0
210
0.0
220
0.0
230
1.0
  0
LWPOLYLINE
  5
73
330
36
100
AcDbEntity
  8
0
  6
ByLayer
 62
256
 48
1.0
 60
0
370
-1
100
AcDbPolyline
 90
3
 70
0
 38
0.0
 39
0.0
 10
4694.74072265625
 20
1792.5
 40
0.0
 41
0.0
 42
1.00000976567268
 10
4794.74072265625
 20
1792.5
 40
0.0
 41
0.0
 42
1.00000976567268
 10
4694.74072265625
 20
1792.5
 40
0.0
 41
0.0
 42
0.0
210
0.0
220
0.0
230
1.0
  0
LWPOLYLINE
  5
74
330
36
100
AcDbEntity
  8
0
  6
ByLayer
 62
256
 48
1.0
 60
0
370
-1
100
AcDbPolyline
 90
3
 70
0
 38
0.0
 39
0.0
 10
4694.74072265625
 20
2092.5
 40
0.0
 41
0.0
 42
1.00000488282442
 10
4794.74072265625
 20
2092.5
 40
0.0
 41
0.0
 42
1.00000488282442
 10
4694.74072265625
 20
2092.5
 40
0.0
 41
0.0
 42
0.0
210
0.0
220
0.0
230
1.0
  0
LWPOLYLINE
  5
75
330
36
100
AcDbEntity
  8
0
  6
ByLayer
 62
256
 48
1.0
 60
0
370
-1
100
AcDbPolyline
 90
3
 70
0
 38
0.0
 39
0.0
 10
4394.74072265625
 20
1792.5
 40
0.0
 41
0.0
 42
0.999992675808071
 10
4494.74072265625
 20
1792.5
 40
0.0
 41
0.0
 42
0.999992675808071
 10
4394.74072265625
 20
1792.5
 40
0.0
 41
0.0
 42
0.0
210
0.0
220
0.0
230
1.0
  0
LWPOLYLINE
  5
76
330
36
100
AcDbEntity
  8
0
  6
ByLayer
 62
256
 48
1.0
 60
0
370
-1
100
AcDbPolyline
 90
3
 70
0
 38
0.0
 39
0.0
 10
3794.74072265625
 20
1792.5
 40
0.0
 41
0.0
 42
1.00000488282442
 10
3894.74072265625
 20
1792.5
 40
0.0
 41
0.0
 42
1.00000488282442
 10
3794.74072265625
 20
1792.5
 40
0.0
 41
0.0
 42
0.0
210
0.0
220
0.0
230
1.0
  0
LWPOLYLINE
  5
77
330
36
100
AcDbEntity
  8
0
  6
ByLayer
 62
256
 48
1.0
 60
0
370
-1
100
AcDbPolyline
 90
3
 70
0
 38
0.0
 39
0.0
 10
3494.74072265625
 20
1792.5
 40
0.0
 41
0.0
 42
1.00000488282442
 10
3594.74072265625
 20
1792.5
 40
0.0
 41
0.0
 42
1.00000488282442
 10
3494.74072265625
 20
1792.5
 40
0.0
 41
0.0
 42
0.0
210
0.0
220
0.0
230
1.0
  0
LWPOLYLINE
  5
78
330
36
100
AcDbEntity
  8
0
  6
ByLayer
 62
256
 48
1.0
 60
0
370
-1
100
AcDbPolyline
 90
3
 70
0
 38
0.0
 39
0.0
 10
4394.74072265625
 20
2092.5
 40
0.0
 41
0.0
 42
0.999990234422683
 10
4494.74072265625
 20
2092.5
 40
0.0
 41
0.0
 42
0.999990234422683
 10
4394.74072265625
 20
2092.5
 40
0.0
 41
0.0
 42
0.0
210
0.0
220
0.0
230
1.0
  0
LWPOLYLINE
  5
79
330
36
100
AcDbEntity
  8
0
  6
ByLayer
 62
256
 48
1.0
 60
0
370
-1
100
AcDbPolyline
 90
3
 70
0
 38
0.0
 39
0.0
 10
3794.74072265625
 20
2092.5
 40
0.0
 41
0.0
 42
1.0
 10
3894.74072265625
 20
2092.5
 40
0.0
 41
0.0
 42
1.0
 10
3794.74072265625
 20
2092.5
 40
0.0
 41
0.0
 42
0.0
210
0.0
220
0.0
230
1.0
  0
LWPOLYLINE
  5
7A
330
36
100
AcDbEntity
  8
0
  6
ByLayer
 62
256
 48
1.0
 60
0
370
-1
100
AcDbPolyline
 90
3
 70
0
 38
0.0
 39
0.0
 10
3494.74072265625
 20
2092.5
 40
0.0
 41
0.0
 42
1.0
 10
3594.74072265625
 20
2092.5
 40
0.0
 41
0.0
 42
1.0
 10
3494.74072265625
 20
2092.5
 40
0.0
 41
0.0
 42
0.0
210
0.0
220
0.0
230
1.0
  0
LWPOLYLINE
  5
7B
330
36
100
AcDbEntity
  8
0
  6
ByLayer
 62
256
 48
1.0
 60
0
370
-1
100
AcDbPolyline
 90
3
 70
0
 38
0.0
 39
0.0
 10
4094.74072265625
 20
1792.5
 40
0.0
 41
0.0
 42
0.999992675808071
 10
4194.74072265625
 20
1792.5
 40
0.0
 41
0.0
 42
0.999992675808071
 10
4094.74072265625
 20
1792.5
 40
0.0
 41
0.0
 42
0.0
210
0.0
220
0.0
230
1.0
  0
LWPOLYLINE
  5
7C
330
36
100
AcDbEntity
  8
0
  6
ByLayer
 62
256
 48
1.0
 60
0
370
-1
100
AcDbPolyline
 90
3
 70
0
 38
0.0
 39
0.0
 10
4094.74072265625
 20
2092.5
 40
0.0
 41
0.0
 42
0.999990234422683
 10
4194.74072265625
 20
2092.5
 40
0.0
 41
0.0
 42
0.999990234422683
 10
4094.74072265625
 20
2092.5
 40
0.0
 41
0.0
 42
0.0
210
0.0
220
0.0
230
1.0
  0
LWPOLYLINE
  5
7D
330
36
100
AcDbEntity
  8
0
  6
ByLayer
 62
256
 48
1.0
 60
0
370
-1
100
AcDbPolyline
 90
9
 70
0
 38
0.0
 39
0.0
 10
3449.74072265625
 20
2305.0
 40
0.0
 41
0.0
 42
0.0
 10
3449.74072265625
 20
2445.0
 40
0.0
 41
0.0
 42
0.0
 10
3474.74072265625
 20
2470.0
 40
0.0
 41
0.0
 42
0.0
 10
4759.74072265625
 20
2470.0
 40
0.0
 41
0.0
 42
0.0
 10
4784.74072265625
 20
2445.0
 40
0.0
 41
0.0
 42
0.0
 10
4784.74072265625
 20
2305.0
 40
0.0
 41
0.0
 42
0.0
 10
4759.74072265625
 20
2280.0
 40
0.0
 41
0.0
 42
0.0
 10
3474.74072265625
 20
2280.0
 40
0.0
 41
0.0
 42
0.0
 10
3449.74072265625
 20
2305.0
 40
0.0
 41
0.0
 42
0.0
210
0.0
220
0.0
230
1.0
  0
LWPOLYLINE
  5
7E
330
36
100
AcDbEntity
  8
0
  6
ByLayer
 62
256
 48
1.0
 60
0
370
-1
100
AcDbPolyline
 90
5
 70
0
 38
0.0
 39
0.0
 10
5.0
 20
2330.0
 40
0.0
 41
0.0
 42
0.0
 10
5.0
 20
2450.0
 40
0.0
 41
0.0
 42
0.0
 10
500.0
 20
2450.0
 40
0.0
 41
0.0
 42
0.0
 10
500.0
 20
2330.0
 40
0.0
 41
0.0
 42
0.0
 10
5.0
 20
2330.0
 40
0.0
 41
0.0
 42
0.0
210
0.0
220
0.0
230
1.0
  0
LWPOLYLINE
  5
7F
330
36
100
AcDbEntity
  8
0
  6
ByLayer
 62
256
 48
1.0
 60
0
370
-1
100
AcDbPolyline
 90
5
 70
0
 38
0.0
 39
0.0
 10
507.5
 20
2330.0
 40
0.0
 41
0.0
 42
0.0
 10
507.5
 20
2450.0
 40
0.0
 41
0.0
 42
0.0
 10
1002.5
 20
2450.0
 40
0.0
 41
0.0
 42
0.0
 10
1002.5
 20
2330.0
 40
0.0
 41
0.0
 42
0.0
 10
507.5
 20
2330.0
 40
0.0
 41
0.0
 42
0.0
210
0.0
220
0.0
230
1.0
  0
LWPOLYLINE
  5
80
330
36
100
AcDbEntity
  8
0
  6
ByLayer
 62
256
 48
1.0
 60
0
370
-1
100
AcDbPolyline
 90
5
 70
0
 38
0.0
 39
0.0
 10
1010.0
 20
2330.0
 40
0.0
 41
0.0
 42
0.0
 10
1010.0
 20
2450.0
 40
0.0
 41
0.0
 42
0.0
 10
1505.0
 20
2450.0
 40
0.0
 41
0.0
 42
0.0
 10
1505.0
 20
2330.0
 40
0.0
 41
0.0
 42
0.0
 10
1010.0
 20
2330.0
 40
0.0
 41
0.0
 42
0.0
210
0.0
220
0.0
230
1.0
  0
LWPOLYLINE
  5
81
330
36
100
AcDbEntity
  8
0
  6
ByLayer
 62
256
 48
1.0
 60
0
370
-1
100
AcDbPolyline
 90
5
 70
0
 38
0.0
 39
0.0
 10
1512.5
 20
2330.0
 40
0.0
 41
0.0
 42
0.0
 10
1512.5
 20
2450.0
 40
0.0
 41
0.0
 42
0.0
 10
2007.5
 20
2450.0
 40
0.0
 41
0.0
 42
0.0
 10
2007.5
 20
2330.0
 40
0.0
 41
0.0
 42
0.0
 10
1512.5
 20
2330.0
 40
0.0
 41
0.0
 42
0.0
210
0.0
220
0.0
230
1.0
  0
LWPOLYLINE
  5
82
330
36
100
AcDbEntity
  8
0
  6
ByLayer
 62
256
 48
1.0
 60
0
370
-1
100
AcDbPolyline
 90
5
 70
0
 38
0.0
 39
0.0
 10
2015.0
 20
2330.0
 40
0.0
 41
0.0
 42
0.0
 10
2015.0
 20
2450.0
 40
0.0
 41
0.0
 42
0.0
 10
2510.0
 20
2450.0
 40
0.0
 41
0.0
 42
0.0
 10
2510.0
 20
2330.0
 40
0.0
 41
0.0
 42
0.0
 10
2015.0
 20
2330.0
 40
0.0
 41
0.0
 42
0.0
210
0.0
220
0.0
230
1.0
  0
LWPOLYLINE
  5
83
330
36
100
AcDbEntity
  8
0
  6
ByLayer
 62
256
 48
1.0
 60
0
370
-1
100
AcDbPolyline
 90
7
 70
0
 38
0.0
 39
0.0
 10
2517.5
 20
2357.0
 40
0.0
 41
0.0
 42
0.0
 10
2517.5
 20
2463.0
 40
0.0
 41
0.0
 42
0.0
 10
2961.5
 20
2463.0
 40
0.0
 41
0.0
 42
0.0
 10
2961.5
 20
2357.0
 40
0.0
 41
0.0
 42
-0.414197672371409
 10
2934.5
 20
2330.0
 40
0.0
 41
0.0
 42
0.0
 10
2544.5
 20
2330.0
 40
0.0
 41
0.0
 42
-0.414197672371409
 10
2517.5
 20
2357.0
 40
0.0
 41
0.0
 42
0.0
210
0.0
220
0.0
230
1.0
  0
LWPOLYLINE
  5
84
330
36
100
AcDbEntity
  8
0
  6
ByLayer
 62
256
 48
1.0
 60
0
370
-1
100
AcDbPolyline
 90
7
 70
0
 38
0.0
 39
0.0
 10
2969.0
 20
2357.0
 40
0.0
 41
0.0
 42
0.0
 10
2969.0
 20
2463.0
 40
0.0
 41
0.0
 42
0.0
 10
3413.0
 20
2463.0
 40
0.0
 41
0.0
 42
0.0
 10
3413.0
 20
2357.0
 40
0.0
 41
0.0
 42
-0.414197672371409
 10
3386.0
 20
2330.0
 40
0.0
 41
0.0
 42
0.0
 10
2996.0
 20
2330.0
 40
0.0
 41
0.0
 42
-0.414197672371409
 10
2969.0
 20
2357.0
 40
0.0
 41
0.0
 42
0.0
210
0.0
220
0.0
230
1.0
  0
LWPOLYLINE
  5
85
330
36
100
AcDbEntity
  8
0
  6
ByLayer
 62
256
 48
1.0
 60
0
370
-1
100
AcDbPolyline
 90
5
 70
0
 38
0.0
 39
0.0
 10
4827.5
 20
5.0
 40
0.0
 41
0.0
 42
0.0
 10
4827.5
 20
225.0
 40
0.0
 41
0.0
 42
0.0
 10
4992.5
 20
225.0
 40
0.0
 41
0.0
 42
0.0
 10
4992.5
 20
5.0
 40
0.0
 41
0.0
 42
0.0
 10
4827.5
 20
5.0
 40
0.0
 41
0.0
 42
0.0
210
0.0
220
0.0
230
1.0
  0
LWPOLYLINE
  5
86
330
36
100
AcDbEntity
  8
0
  6
ByLayer
 62
256
 48
1.0
 60
0
370
-1
100
AcDbPolyline
 90
3
 70
0
 38
0.0
 39
0.0
 10
4890.9501953125
 20
115.0
 40
0.0
 41
0.0
 42
1.00001602001861
 10
4929.0498046875
 20
115.0
 40
0.0
 41
0.0
 42
1.00001521901159
 10
4890.9501953125
 20
115.0
 40
0.0
 41
0.0
 42
0.0
210
0.0
220
0.0
230
1.0
  0
LWPOLYLINE
  5
87
330
36
100
AcDbEntity
  8
0
  6
ByLayer
 62
256
 48
1.0
 60
0
370
-1
100
AcDbPolyline
 90
5
 70
0
 38
0.0
 39
0.0
 10
4827.5
 20
232.5
 40
0.0
 41
0.0
 42
0.0
 10
4827.5
 20
452.5
 40
0.0
 41
0.0
 42
0.0
 10
4992.5
 20
452.5
 40
0.0
 41
0.0
 42
0.0
 10
4992.5
 20
232.5
 40
0.0
 41
0.0
 42
0.0
 10
4827.5
 20
232.5
 40
0.0
 41
0.0
 42
0.0
210
0.0
220
0.0
230
1.0
  0
LWPOLYLINE
  5
88
330
36
100
AcDbEntity
  8
0
  6
ByLayer
 62
256
 48
1.0
 60
0
370
-1
100
AcDbPolyline
 90
3
 70
0
 38
0.0
 39
0.0
 10
4890.9501953125
 20
342.5
 40
0.0
 41
0.0
 42
1.00001602001861
 10
4929.0498046875
 20
342.5
 40
0.0
 41
0.0
 42
1.0000144180052
 10
4890.9501953125
 20
342.5
 40
0.0
 41
0.0
 42
0.0
210
0.0
220
0.0
230
1.0
  0
LWPOLYLINE
  5
89
330
36
100
AcDbEntity
  8
0
  6
ByLayer
 62
256
 48
1.0
 60
0
370
-1
100
AcDbPolyline
 90
5
 70
0
 38
0.0
 39
0.0
 10
4827.5
 20
460.0
 40
0.0
 41
0.0
 42
0.0
 10
4827.5
 20
680.0
 40
0.0
 41
0.0
 42
0.0
 10
4992.5
 20
680.0
 40
0.0
 41
0.0
 42
0.0
 10
4992.5
 20
460.0
 40
0.0
 41
0.0
 42
0.0
 10
4827.5
 20
460.0
 40
0.0
 41
0.0
 42
0.0
210
0.0
220
0.0
230
1.0
  0
LWPOLYLINE
  5
8A
330
36
100
AcDbEntity
  8
0
  6
ByLayer
 62
256
 48
1.0
 60
0
370
-1
100
AcDbPolyline
 90
3
 70
0
 38
0.0
 39
0.0
 10
4890.9501953125
 20
570.0
 40
0.0
 41
0.0
 42
1.00001281599436
 10
4929.0498046875
 20
570.0
 40
0.0
 41
0.0
 42
1.00001281599436
 10
4890.9501953125
 20
570.0
 40
0.0
 41
0.0
 42
0.0
210
0.0
220
0.0
230
1.0
  0
LWPOLYLINE
  5
8B
330
36
100
AcDbEntity
  8
0
  6
ByLayer
 62
256
 48
1.0
 60
0
370
-1
100
AcDbPolyline
 90
5
 70
0
 38
0.0
 39
0.0
 10
4827.5
 20
687.5
 40
0.0
 41
0.0
 42
0.0
 10
4827.5
 20
907.5
 40
0.0
 41
0.0
 42
0.0
 10
4992.5
 20
907.5
 40
0.0
 41
0.0
 42
0.0
 10
4992.5
 20
687.5
 40
0.0
 41
0.0
 42
0.0
 10
4827.5
 20
687.5
 40
0.0
 41
0.0
 42
0.0
210
0.0
220
0.0
230
1.0
  0
LWPOLYLINE
  5
8C
330
36
100
AcDbEntity
  8
0
  6
ByLayer
 62
256
 48
1.0
 60
0
370
-1
100
AcDbPolyline
 90
3
 70
0
 38
0.0
 39
0.0
 10
4890.9501953125
 20
797.5
 40
0.0
 41
0.0
 42
1.00001281599436
 10
4929.0498046875
 20
797.5
 40
0.0
 41
0.0
 42
1.00001281599436
 10
4890.9501953125
 20
797.5
 40
0.0
 41
0.0
 42
0.0
210
0.0
220
0.0
230
1.0
  0
LWPOLYLINE
  5
8D
330
36
100
AcDbEntity
  8
0
  6
ByLayer
 62
256
 48
1.0
 60
0
370
-1
100
AcDbPolyline
 90
5
 70
0
 38
0.0
 39
0.0
 10
4827.5
 20
915.0
 40
0.0
 41
0.0
 42
0.0
 10
4827.5
 20
1135.0
 40
0.0
 41
0.0
 42
0.0
 10
4992.5
 20
1135.0
 40
0.0
 41
0.0
 42
0.0
 10
4992.5
 20
915.0
 40
0.0
 41
0.0
 42
0.0
 10
4827.5
 20
915.0
 40
0.0
 41
0.0
 42
0.0
210
0.0
220
0.0
230
1.0
  0
LWPOLYLINE
  5
8E
330
36
100
AcDbEntity
  8
0
  6
ByLayer
 62
256
 48
1.0
 60
0
370
-1
100
AcDbPolyline
 90
3
 70
0
 38
0.0
 39
0.0
 10
4890.9501953125
 20
1025.0
 40
0.0
 41
0.0
 42
1.00001281599436
 10
4929.0498046875
 20
1025.0
 40
0.0
 41
0.0
 42
1.00001281599436
 10
4890.9501953125
 20
1025.0
 40
0.0
 41
0.0
 42
0.0
210
0.0
220
0.0
230
1.0
  0
LWPOLYLINE
  5
8F
330
36
100
AcDbEntity
  8
0
  6
ByLayer
 62
256
 48
1.0
 60
0
370
-1
100
AcDbPolyline
 90
3
 70
0
 38
0.0
 39
0.0
 10
294.199829101563
 20
1886.59680175781
 40
0.0
 41
0.0
 42
-0.999999371186444
 10
411.756896972656
 20
2048.40014648438
 40
0.0
 41
0.0
 42
-1.00000038192143
 10
294.199829101563
 20
1886.59680175781
 40
0.0
 41
0.0
 42
0.0
210
0.0
220
0.0
230
1.0
  0
LWPOLYLINE
  5
90
330
36
100
AcDbEntity
  8
0
  6
ByLayer
 62
256
 48
1.0
 60
0
370
-1
100
AcDbPolyline
 90
3
 70
0
 38
0.0
 39
0.0
 10
332.405883789063
 20
1939.18286132813
 40
0.0
 41
0.0
 42
1.00000102501574
 10
373.550842285156
 20
1995.81408691406
 40
0.0
 41
0.0
 42
1.00000173042352
 10
332.405883789063
 20
1939.18286132813
 40
0.0
 41
0.0
 42
0.0
210
0.0
220
0.0
230
1.0
  0
LWPOLYLINE
  5
91
330
36
100
AcDbEntity
  8
0
  6
ByLayer
 62
256
 48
1.0
 60
0
370
-1
100
AcDbPolyline
 90
3
 70
0
 38
0.0
 39
0.0
 10
2016.57019042969
 20
1886.59680175781
 40
0.0
 41
0.0
 42
-0.9999988774015
 10
2134.12719726563
 20
2048.40014648438
 40
0.0
 41
0.0
 42
-1.00000381525779
 10
2016.57019042969
 20
1886.59680175781
 40
0.0
 41
0.0
 42
0.0
210
0.0
220
0.0
230
1.0
  0
LWPOLYLINE
  5
92
330
36
100
AcDbEntity
  8
0
  6
ByLayer
 62
256
 48
1.0
 60
0
370
-1
100
AcDbPolyline
 90
3
 70
0
 38
0.0
 39
0.0
 10
2054.7763671875
 20
1939.18286132813
 40
0.0
 41
0.0
 42
1.00000384665711
 10
2095.92114257813
 20
1995.81408691406
 40
0.0
 41
0.0
 42
1.0000058966947
 10
2054.7763671875
 20
1939.18286132813
 40
0.0
 41
0.0
 42
0.0
210
0.0
220
0.0
230
1.0
  0
LWPOLYLINE
  5
93
330
36
100
AcDbEntity
  8
0
  6
ByLayer
 62
256
 48
1.0
 60
0
370
-1
100
AcDbPolyline
 90
3
 70
0
 38
0.0
 39
0.0
 10
4833.93798828125
 20
2287.69384765625
 40
0.0
 41
0.0
 42
-0.999997805402213
 10
4939.7392578125
 20
2433.31689453125
 40
0.0
 41
0.0
 42
-0.999993416221086
 10
4833.93798828125
 20
2287.69384765625
 40
0.0
 41
0.0
 42
0.0
210
0.0
220
0.0
230
1.0
  0
LWPOLYLINE
  5
94
330
36
100
AcDbEntity
  8
0
  6
ByLayer
 62
256
 48
1.0
 60
0
370
-1
100
AcDbPolyline
 90
3
 70
0
 38
0.0
 39
0.0
 10
4862.7392578125
 20
2327.33569335938
 40
0.0
 41
0.0
 42
0.99998818254919
 10
4910.93798828125
 20
2393.67504882813
 40
0.0
 41
0.0
 42
0.99998818254919
 10
4862.7392578125
 20
2327.33569335938
 40
0.0
 41
0.0
 42
0.0
210
0.0
220
0.0
230
1.0
  0
LWPOLYLINE
  5
95
330
36
100
AcDbEntity
  8
0
  6
ByLayer
 62
256
 48
1.0
 60
0
370
-1
100
AcDbPolyline
 90
3
 70
0
 38
0.0
 39
0.0
 10
4862.27978515625
 20
1156.64404296875
 40
0.0
 41
0.0
 42
-1.00000095668289
 10
4950.44775390625
 20
1277.99658203125
 40
0.0
 41
0.0
 42
-0.999992819630515
 10
4862.27978515625
 20
1156.64404296875
 40
0.0
 41
0.0
 42
0.0
210
0.0
220
0.0
230
1.0
  0
LWPOLYLINE
  5
96
330
36
100
AcDbEntity
  8
0
  6
ByLayer
 62
256
 48
1.0
 60
0
370
-1
100
AcDbPolyline
 90
3
 70
0
 38
0.0
 39
0.0
 10
4893.4326171875
 20
1199.52197265625
 40
0.0
 41
0.0
 42
0.999985323812666
 10
4919.294921875
 20
1235.11877441406
 40
0.0
 41
0.0
 42
1.00000489211031
 10
4893.4326171875
 20
1199.52197265625
 40
0.0
 41
0.0
 42
0.0
210
0.0
220
0.0
230
1.0
  0
LWPOLYLINE
  5
97
330
36
100
AcDbEntity
  8
0
  6
ByLayer
 62
256
 48
1.0
 60
0
370
-1
100
AcDbPolyline
 90
3
 70
0
 38
0.0
 39
0.0
 10
4862.27978515625
 20
1313.78466796875
 40
0.0
 41
0.0
 42
-1.00000095668289
 10
4950.44775390625
 20
1435.13720703125
 40
0.0
 41
0.0
 42
-0.999992819630515
 10
4862.27978515625
 20
1313.78466796875
 40
0.0
 41
0.0
 42
0.0
210
0.0
220
0.0
230
1.0
  0
LWPOLYLINE
  5
98
330
36
100
AcDbEntity
  8
0
  6
ByLayer
 62
256
 48
1.0
 60
0
370
-1
100
AcDbPolyline
 90
3
 70
0
 38
0.0
 39
0.0
 10
4893.4326171875
 20
1356.66259765625
 40
0.0
 41
0.0
 42
0.999985323812666
 10
4919.294921875
 20
1392.25939941406
 40
0.0
 41
0.0
 42
1.00000489211031
 10
4893.4326171875
 20
1356.66259765625
 40
0.0
 41
0.0
 42
0.0
210
0.0
220
0.0
230
1.0
  0
LWPOLYLINE
  5
99
330
36
100
AcDbEntity
  8
0
  6
ByLayer
 62
256
 48
1.0
 60
0
370
-1
100
AcDbPolyline
 90
3
 70
0
 38
0.0
 39
0.0
 10
4862.27978515625
 20
1470.92541503906
 40
0.0
 41
0.0
 42
-1.00000095668289
 10
4950.44775390625
 20
1592.27795410156
 40
0.0
 41
0.0
 42
-0.999999043318021
 10
4862.27978515625
 20
1470.92541503906
 40
0.0
 41
0.0
 42
0.0
210
0.0
220
0.0
230
1.0
  0
LWPOLYLINE
  5
9A
330
36
100
AcDbEntity
  8
0
  6
ByLayer
 62
256
 48
1.0
 60
0
370
-1
100
AcDbPolyline
 90
3
 70
0
 38
0.0
 39
0.0
 10
4893.4326171875
 20
1513.80334472656
 40
0.0
 41
0.0
 42
0.999970629614975
 10
4919.294921875
 20
1549.40014648438
 40
0.0
 41
0.0
 42
1.00000489211031
 10
4893.4326171875
 20
1513.80334472656
 40
0.0
 41
0.0
 42
0.0
210
0.0
220
0.0
230
1.0
  0
LWPOLYLINE
  5
9B
330
36
100
AcDbEntity
  8
0
  6
ByLayer
 62
256
 48
1.0
 60
0
370
-1
100
AcDbPolyline
 90
5
 70
0
 38
0.0
 39
0.0
 10
4847.24072265625
 20
1613.92199707031
 40
0.0
 41
0.0
 42
0.0
 10
4847.24072265625
 20
1778.92199707031
 40
0.0
 41
0.0
 42
0.0
 10
4947.24072265625
 20
1778.92199707031
 40
0.0
 41
0.0
 42
0.0
 10
4947.24072265625
 20
1613.92199707031
 40
0.0
 41
0.0
 42
0.0
 10
4847.24072265625
 20
1613.92199707031
 40
0.0
 41
0.0
 42
0.0
210
0.0
220
0.0
230
1.0
  0
LWPOLYLINE
  5
9C
330
36
100
AcDbEntity
  8
0
  6
ByLayer
 62
256
 48
1.0
 60
0
370
-1
100
AcDbPolyline
 90
5
 70
0
 38
0.0
 39
0.0
 10
4847.24072265625
 20
1786.42199707031
 40
0.0
 41
0.0
 42
0.0
 10
4847.24072265625
 20
1951.42199707031
 40
0.0
 41
0.0
 42
0.0
 10
4947.24072265625
 20
1951.42199707031
 40
0.0
 41
0.0
 42
0.0
 10
4947.24072265625
 20
1786.42199707031
 40
0.0
 41
0.0
 42
0.0
 10
4847.24072265625
 20
1786.42199707031
 40
0.0
 41
0.0
 42
0.0
210
0.0
220
0.0
230
1.0
  0
LWPOLYLINE
  5
9D
330
36
100
AcDbEntity
  8
0
  6
ByLayer
 62
256
 48
1.0
 60
0
370
-1
100
AcDbPolyline
 90
5
 70
0
 38
0.0
 39
0.0
 10
4847.24072265625
 20
1958.92199707031
 40
0.0
 41
0.0
 42
0.0
 10
4847.24072265625
 20
2123.921875
 40
0.0
 41
0.0
 42
0.0
 10
4947.24072265625
 20
2123.921875
 40
0.0
 41
0.0
 42
0.0
 10
4947.24072265625
 20
1958.92199707031
 40
0.0
 41
0.0
 42
0.0
 10
4847.24072265625
 20
1958.92199707031
 40
0.0
 41
0.0
 42
0.0
210
0.0
220
0.0
230
1.0
  0
LWPOLYLINE
  5
9E
330
36
100
AcDbEntity
  8
0
  6
ByLayer
 62
256
 48
1.0
 60
0
370
-1
100
AcDbPolyline
 90
3
 70
0
 38
0.0
 39
0.0
 10
204.570251464844
 20
272.172119140625
 40
0.0
 41
0.0
 42
-0.999999765984374
 10
204.299102783203
 20
142.172409057617
 40
0.0
 41
0.0
 42
-1.00000000024482
 10
204.570251464844
 20
272.172119140625
 40
0.0
 41
0.0
 42
0.0
210
0.0
220
0.0
230
1.0
  0
LWPOLYLINE
  5
9F
330
36
100
AcDbEntity
  8
0
  6
ByLayer
 62
256
 48
1.0
 60
0
370
-1
100
AcDbPolyline
 90
3
 70
0
 38
0.0
 39
0.0
 10
603.731872558594
 20
269.974731445313
 40
0.0
 41
0.0
 42
-0.999999531234436
 10
603.460693359375
 20
139.975021362305
 40
0.0
 41
0.0
 42
-1.0000004682761
 10
603.731872558594
 20
269.974731445313
 40
0.0
 41
0.0
 42
0.0
210
0.0
220
0.0
230
1.0
  0
LWPOLYLINE
  5
A0
330
36
100
AcDbEntity
  8
0
  6
ByLayer
 62
256
 48
1.0
 60
0
370
-1
100
AcDbPolyline
 90
3
 70
0
 38
0.0
 39
0.0
 10
1403.72192382813
 20
269.974731445313
 40
0.0
 41
0.0
 42
-0.999999061734393
 10
1403.45080566406
 20
139.975021362305
 40
0.0
 41
0.0
 42
-0.999999061734393
 10
1403.72192382813
 20
269.974731445313
 40
0.0
 41
0.0
 42
0.0
210
0.0
220
0.0
230
1.0
  0
LWPOLYLINE
  5
A1
330
36
100
AcDbEntity
  8
0
  6
ByLayer
 62
256
 48
1.0
 60
0
370
-1
100
AcDbPolyline
 90
3
 70
0
 38
0.0
 39
0.0
 10
1812.0703125
 20
272.172119140625
 40
0.0
 41
0.0
 42
-0.999999061734393
 10
1811.79919433594
 20
142.172409057617
 40
0.0
 41
0.0
 42
-0.999999061734393
 10
1812.0703125
 20
272.172119140625
 40
0.0
 41
0.0
 42
0.0
210
0.0
220
0.0
230
1.0
  0
LWPOLYLINE
  5
A2
330
36
100
AcDbEntity
  8
0
  6
ByLayer
 62
256
 48
1.0
 60
0
370
-1
100
AcDbPolyline
 90
3
 70
0
 38
0.0
 39
0.0
 10
2211.23168945313
 20
269.974731445313
 40
0.0
 41
0.0
 42
-1.00000000073404
 10
2210.96069335938
 20
139.975021362305
 40
0.0
 41
0.0
 42
-0.999996244739417
 10
2211.23168945313
 20
269.974731445313
 40
0.0
 41
0.0
 42
0.0
210
0.0
220
0.0
230
1.0
  0
LWPOLYLINE
  5
A3
330
36
100
AcDbEntity
  8
0
  6
ByLayer
 62
256
 48
1.0
 60
0
370
-1
100
AcDbPolyline
 90
3
 70
0
 38
0.0
 39
0.0
 10
164.18098449707
 20
1356.45739746094
 40
0.0
 41
0.0
 42
-1.00000099010919
 10
234.715225219727
 20
1453.53942871094
 40
0.0
 41
0.0
 42
-1.00000061723113
 10
164.18098449707
 20
1356.45739746094
 40
0.0
 41
0.0
 42
0.0
210
0.0
220
0.0
230
1.0
  0
LWPOLYLINE
  5
A4
330
36
100
AcDbEntity
  8
0
  6
ByLayer
 62
256
 48
1.0
 60
0
370
-1
100
AcDbPolyline
 90
3
 70
0
 38
0.0
 39
0.0
 10
181.814544677734
 20
1380.72790527344
 40
0.0
 41
0.0
 42
1.0
 10
217.081665039063
 20
1429.26892089844
 40
0.0
 41
0.0
 42
1.00000041148738
 10
181.814544677734
 20
1380.72790527344
 40
0.0
 41
0.0
 42
0.0
210
0.0
220
0.0
230
1.0
  0
LWPOLYLINE
  5
A5
330
36
100
AcDbEntity
  8
0
  6
ByLayer
 62
256
 48
1.0
 60
0
370
-1
100
AcDbPolyline
 90
3
 70
0
 38
0.0
 39
0.0
 10
164.180999755859
 20
956.457397460938
 40
0.0
 41
0.0
 42
-1.00000059792635
 10
234.715240478516
 20
1053.53942871094
 40
0.0
 41
0.0
 42
-1.00000102871876
 10
164.180999755859
 20
956.457397460938
 40
0.0
 41
0.0
 42
0.0
210
0.0
220
0.0
230
1.0
  0
LWPOLYLINE
  5
A6
330
36
100
AcDbEntity
  8
0
  6
ByLayer
 62
256
 48
1.0
 60
0
370
-1
100
AcDbPolyline
 90
3
 70
0
 38
0.0
 39
0.0
 10
181.814559936523
 20
980.727905273438
 40
0.0
 41
0.0
 42
0.99999756968874
 10
217.081680297852
 20
1029.26892089844
 40
0.0
 41
0.0
 42
1.00000041148738
 10
181.814559936523
 20
980.727905273438
 40
0.0
 41
0.0
 42
0.0
210
0.0
220
0.0
230
1.0
  0
LWPOLYLINE
  5
A7
330
36
100
AcDbEntity
  8
0
  6
ByLayer
 62
256
 48
1.0
 60
0
370
-1
100
AcDbPolyline
 90
3
 70
0
 38
0.0
 39
0.0
 10
164.181015014648
 20
556.457397460938
 40
0.0
 41
0.0
 42
-1.00000020574367
 10
234.715255737305
 20
653.539428710938
 40
0.0
 41
0.0
 42
-1.00000061723113
 10
164.181015014648
 20
556.457397460938
 40
0.0
 41
0.0
 42
0.0
210
0.0
220
0.0
230
1.0
  0
LWPOLYLINE
  5
A8
330
36
100
AcDbEntity
  8
0
  6
ByLayer
 62
256
 48
1.0
 60
0
370
-1
100
AcDbPolyline
 90
3
 70
0
 38
0.0
 39
0.0
 10
181.814575195313
 20
580.727905273438
 40
0.0
 41
0.0
 42
0.99999756968874
 10
217.081695556641
 20
629.268920898438
 40
0.0
 41
0.0
 42
1.00000082297492
 10
181.814575195313
 20
580.727905273438
 40
0.0
 41
0.0
 42
0.0
210
0.0
220
0.0
230
1.0
  0
LWPOLYLINE
  5
A9
330
36
100
AcDbEntity
  8
0
  6
ByLayer
 62
256
 48
1.0
 60
0
370
-1
100
AcDbPolyline
 90
3
 70
0
 38
0.0
 39
0.0
 10
564.180969238281
 20
1356.45739746094
 40
0.0
 41
0.0
 42
-1.00000160734092
 10
634.715209960938
 20
1453.53942871094
 40
0.0
 41
0.0
 42
-1.00000123446263
 10
564.180969238281
 20
1356.45739746094
 40
0.0
 41
0.0
 42
0.0
210
0.0
220
0.0
230
1.0
  0
LWPOLYLINE
  5
AA
330
36
100
AcDbEntity
  8
0
  6
ByLayer
 62
256
 48
1.0
 60
0
370
-1
100
AcDbPolyline
 90
3
 70
0
 38
0.0
 39
0.0
 10
581.814514160156
 20
1380.72790527344
 40
0.0
 41
0.0
 42
1.00000082297443
 10
617.081665039063
 20
1429.26892089844
 40
0.0
 41
0.0
 42
0.999999177026249
 10
581.814514160156
 20
1380.72790527344
 40
0.0
 41
0.0
 42
0.0
210
0.0
220
0.0
230
1.0
  0
LWPOLYLINE
  5
AB
330
36
100
AcDbEntity
  8
0
  6
ByLayer
 62
256
 48
1.0
 60
0
370
-1
100
AcDbPolyline
 90
3
 70
0
 38
0.0
 39
0.0
 10
564.181030273438
 20
956.457397460938
 40
0.0
 41
0.0
 42
-1.00000100941397
 10
634.715270996094
 20
1053.53942871094
 40
0.0
 41
0.0
 42
-1.00000205743857
 10
564.181030273438
 20
956.457397460938
 40
0.0
 41
0.0
 42
0.0
210
0.0
220
0.0
230
1.0
  0
LWPOLYLINE
  5
AC
330
36
100
AcDbEntity
  8
0
  6
ByLayer
 62
256
 48
1.0
 60
0
370
-1
100
AcDbPolyline
 90
3
 70
0
 38
0.0
 39
0.0
 10
581.814575195313
 20
980.727905273438
 40
0.0
 41
0.0
 42
0.999999177026249
 10
617.081726074219
 20
1029.26892089844
 40
0.0
 41
0.0
 42
1.00000082297443
 10
581.814575195313
 20
980.727905273438
 40
0.0
 41
0.0
 42
0.0
210
0.0
220
0.0
230
1.0
  0
LWPOLYLINE
  5
AD
330
36
100
AcDbEntity
  8
0
  6
ByLayer
 62
256
 48
1.0
 60
0
370
-1
100
AcDbPolyline
 90
3
 70
0
 38
0.0
 39
0.0
 10
562.632385253906
 20
558.884460449219
 40
0.0
 41
0.0
 42
-1.00000043314474
 10
629.639892578125
 20
651.112365722656
 40
0.0
 41
0.0
 42
-0.999998700566902
 10
562.632385253906
 20
558.884460449219
 40
0.0
 41
0.0
 42
0.0
210
0.0
220
0.0
230
1.0
  0
LWPOLYLINE
  5
AE
330
36
100
AcDbEntity
  8
0
  6
ByLayer
 62
256
 48
1.0
 60
0
370
-1
100
AcDbPolyline
 90
3
 70
0
 38
0.0
 39
0.0
 10
584.380432128906
 20
588.818054199219
 40
0.0
 41
0.0
 42
1.00000482202414
 10
607.891845703125
 20
621.178771972656
 40
0.0
 41
0.0
 42
0.999994502855372
 10
584.380432128906
 20
588.818054199219
 40
0.0
 41
0.0
 42
0.0
210
0.0
220
0.0
230
1.0
  0
LWPOLYLINE
  5
AF
330
36
100
AcDbEntity
  8
0
  6
ByLayer
 62
256
 48
1.0
 60
0
370
-1
100
AcDbPolyline
 90
3
 70
0
 38
0.0
 39
0.0
 10
963.015869140625
 20
958.884399414063
 40
0.0
 41
0.0
 42
-1.0000025988729
 10
1030.02331542969
 20
1051.1123046875
 40
0.0
 41
0.0
 42
-1.00000322827068
 10
963.015869140625
 20
958.884399414063
 40
0.0
 41
0.0
 42
0.0
210
0.0
220
0.0
230
1.0
  0
LWPOLYLINE
  5
B0
330
36
100
AcDbEntity
  8
0
  6
ByLayer
 62
256
 48
1.0
 60
0
370
-1
100
AcDbPolyline
 90
3
 70
0
 38
0.0
 39
0.0
 10
984.763916015625
 20
988.817993164063
 40
0.0
 41
0.0
 42
0.99999876553937
 10
1008.27532958984
 20
1021.1787109375
 40
0.0
 41
0.0
 42
0.999996971767632
 10
984.763916015625
 20
988.817993164063
 40
0.0
 41
0.0
 42
0.0
210
0.0
220
0.0
230
1.0
  0
LWPOLYLINE
  5
B1
330
36
100
AcDbEntity
  8
0
  6
ByLayer
 62
256
 48
1.0
 60
0
370
-1
100
AcDbPolyline
 90
3
 70
0
 38
0.0
 39
0.0
 10
963.015930175781
 20
1358.88427734375
 40
0.0
 41
0.0
 42
-1.00000106254134
 10
1030.0234375
 20
1451.11218261719
 40
0.0
 41
0.0
 42
-0.999998463674069
 10
963.015930175781
 20
1358.88427734375
 40
0.0
 41
0.0
 42
0.0
210
0.0
220
0.0
230
1.0
  0
LWPOLYLINE
  5
B2
330
36
100
AcDbEntity
  8
0
  6
ByLayer
 62
256
 48
1.0
 60
0
370
-1
100
AcDbPolyline
 90
3
 70
0
 38
0.0
 39
0.0
 10
984.763977050781
 20
1388.81787109375
 40
0.0
 41
0.0
 42
1.00000302824154
 10
1008.275390625
 20
1421.17858886719
 40
0.0
 41
0.0
 42
0.999996971767632
 10
984.763977050781
 20
1388.81787109375
 40
0.0
 41
0.0
 42
0.0
210
0.0
220
0.0
230
1.0
  0
LWPOLYLINE
  5
B3
330
36
100
AcDbEntity
  8
0
  6
ByLayer
 62
256
 48
1.0
 60
0
370
-1
100
AcDbPolyline
 90
3
 70
0
 38
0.0
 39
0.0
 10
963.015930175781
 20
158.884292602539
 40
0.0
 41
0.0
 42
-1.00000035447018
 10
1030.0234375
 20
251.112243652344
 40
0.0
 41
0.0
 42
-0.999998621892743
 10
963.015930175781
 20
158.884292602539
 40
0.0
 41
0.0
 42
0.0
210
0.0
220
0.0
230
1.0
  0
LWPOLYLINE
  5
B4
330
36
100
AcDbEntity
  8
0
  6
ByLayer
 62
256
 48
1.0
 60
0
370
-1
100
AcDbPolyline
 90
3
 70
0
 38
0.0
 39
0.0
 10
984.763977050781
 20
188.817932128906
 40
0.0
 41
0.0
 42
1.00000235557651
 10
1008.275390625
 20
221.178604125977
 40
0.0
 41
0.0
 42
0.999998989760938
 10
984.763977050781
 20
188.817932128906
 40
0.0
 41
0.0
 42
0.0
210
0.0
220
0.0
230
1.0
  0
LWPOLYLINE
  5
B5
330
36
100
AcDbEntity
  8
0
  6
ByLayer
 62
256
 48
1.0
 60
0
370
-1
100
AcDbPolyline
 90
3
 70
0
 38
0.0
 39
0.0
 10
963.015930175781
 20
558.88427734375
 40
0.0
 41
0.0
 42
-1.00000192883193
 10
1030.0234375
 20
651.112182617188
 40
0.0
 41
0.0
 42
-0.999998700566902
 10
963.015930175781
 20
558.88427734375
 40
0.0
 41
0.0
 42
0.0
210
0.0
220
0.0
230
1.0
  0
LWPOLYLINE
  5
B6
330
36
100
AcDbEntity
  8
0
  6
ByLayer
 62
256
 48
1.0
 60
0
370
-1
100
AcDbPolyline
 90
3
 70
0
 38
0.0
 39
0.0
 10
984.763977050781
 20
588.81787109375
 40
0.0
 41
0.0
 42
1.00000302824154
 10
1008.275390625
 20
621.178588867188
 40
0.0
 41
0.0
 42
0.999994502855372
 10
984.763977050781
 20
588.81787109375
 40
0.0
 41
0.0
 42
0.0
210
0.0
220
0.0
230
1.0
  0
LWPOLYLINE
  5
B7
330
36
100
AcDbEntity
  8
0
  6
ByLayer
 62
256
 48
1.0
 60
0
370
-1
100
AcDbPolyline
 90
3
 70
0
 38
0.0
 39
0.0
 10
1359.00891113281
 20
1364.54760742188
 40
0.0
 41
0.0
 42
-1.00000224520315
 10
1417.78735351563
 20
1445.44934082031
 40
0.0
 41
0.0
 42
-0.999999729940217
 10
1359.00891113281
 20
1364.54760742188
 40
0.0
 41
0.0
 42
0.0
210
0.0
220
0.0
230
1.0
  0
LWPOLYLINE
  5
B8
330
36
100
AcDbEntity
  8
0
  6
ByLayer
 62
256
 48
1.0
 60
0
370
-1
100
AcDbPolyline
 90
3
 70
0
 38
0.0
 39
0.0
 10
1382.43420410156
 20
1394.0166015625
 40
0.0
 41
0.0
 42
0.977481842197072
 10
1394.36206054688
 20
1415.98022460938
 40
0.0
 41
0.0
 42
0.977486397802488
 10
1382.43420410156
 20
1394.0166015625
 40
0.0
 41
0.0
 42
0.0
210
0.0
220
0.0
230
1.0
  0
LWPOLYLINE
  5
B9
330
36
100
AcDbEntity
  8
0
  6
ByLayer
 62
256
 48
1.0
 60
0
370
-1
100
AcDbPolyline
 90
3
 70
0
 38
0.0
 39
0.0
 10
1359.00891113281
 20
964.547607421875
 40
0.0
 41
0.0
 42
-1.00000296271561
 10
1417.78735351563
 20
1045.44934082031
 40
0.0
 41
0.0
 42
-0.999999012430081
 10
1359.00891113281
 20
964.547607421875
 40
0.0
 41
0.0
 42
0.0
210
0.0
220
0.0
230
1.0
  0
LWPOLYLINE
  5
BA
330
36
100
AcDbEntity
  8
0
  6
ByLayer
 62
256
 48
1.0
 60
0
370
-1
100
AcDbPolyline
 90
3
 70
0
 38
0.0
 39
0.0
 10
1382.43420410156
 20
994.0166015625
 40
0.0
 41
0.0
 42
0.977486397802488
 10
1394.36206054688
 20
1015.98022460938
 40
0.0
 41
0.0
 42
0.97748867561211
 10
1382.43420410156
 20
994.0166015625
 40
0.0
 41
0.0
 42
0.0
210
0.0
220
0.0
230
1.0
  0
LWPOLYLINE
  5
BB
330
36
100
AcDbEntity
  8
0
  6
ByLayer
 62
256
 48
1.0
 60
0
370
-1
100
AcDbPolyline
 90
3
 70
0
 38
0.0
 39
0.0
 10
1359.00891113281
 20
564.547607421875
 40
0.0
 41
0.0
 42
-1.00000332147308
 10
1417.78735351563
 20
645.449279785156
 40
0.0
 41
0.0
 42
-1.00000134632719
 10
1359.00891113281
 20
564.547607421875
 40
0.0
 41
0.0
 42
0.0
210
0.0
220
0.0
230
1.0
  0
LWPOLYLINE
  5
BC
330
36
100
AcDbEntity
  8
0
  6
ByLayer
 62
256
 48
1.0
 60
0
370
-1
100
AcDbPolyline
 90
3
 70
0
 38
0.0
 39
0.0
 10
1382.43420410156
 20
594.0166015625
 40
0.0
 41
0.0
 42
0.977486397802488
 10
1394.36206054688
 20
615.980224609375
 40
0.0
 41
0.0
 42
0.97748867561211
 10
1382.43420410156
 20
594.0166015625
 40
0.0
 41
0.0
 42
0.0
210
0.0
220
0.0
230
1.0
  0
LWPOLYLINE
  5
BD
330
36
100
AcDbEntity
  8
0
  6
ByLayer
 62
256
 48
1.0
 60
0
370
-1
100
AcDbPolyline
 90
3
 70
0
 38
0.0
 39
0.0
 10
1766.51892089844
 20
1364.54760742188
 40
0.0
 41
0.0
 42
-1.00000224520315
 10
1825.29736328125
 20
1445.44934082031
 40
0.0
 41
0.0
 42
-0.999999729940217
 10
1766.51892089844
 20
1364.54760742188
 40
0.0
 41
0.0
 42
0.0
210
0.0
220
0.0
230
1.0
  0
LWPOLYLINE
  5
BE
330
36
100
AcDbEntity
  8
0
  6
ByLayer
 62
256
 48
1.0
 60
0
370
-1
100
AcDbPolyline
 90
3
 70
0
 38
0.0
 39
0.0
 10
1789.94421386719
 20
1394.0166015625
 40
0.0
 41
0.0
 42
0.977481842197072
 10
1801.8720703125
 20
1415.98022460938
 40
0.0
 41
0.0
 42
0.977486397802488
 10
1789.94421386719
 20
1394.0166015625
 40
0.0
 41
0.0
 42
0.0
210
0.0
220
0.0
230
1.0
  0
LWPOLYLINE
  5
BF
330
36
100
AcDbEntity
  8
0
  6
ByLayer
 62
256
 48
1.0
 60
0
370
-1
100
AcDbPolyline
 90
3
 70
0
 38
0.0
 39
0.0
 10
1766.51892089844
 20
964.547607421875
 40
0.0
 41
0.0
 42
-1.00000296271561
 10
1825.29736328125
 20
1045.44934082031
 40
0.0
 41
0.0
 42
-0.999999012430081
 10
1766.51892089844
 20
964.547607421875
 40
0.0
 41
0.0
 42
0.0
210
0.0
220
0.0
230
1.0
  0
LWPOLYLINE
  5
C0
330
36
100
AcDbEntity
  8
0
  6
ByLayer
 62
256
 48
1.0
 60
0
370
-1
100
AcDbPolyline
 90
3
 70
0
 38
0.0
 39
0.0
 10
1789.94421386719
 20
994.0166015625
 40
0.0
 41
0.0
 42
0.977486397802488
 10
1801.8720703125
 20
1015.98022460938
 40
0.0
 41
0.0
 42
0.97748867561211
 10
1789.94421386719
 20
994.0166015625
 40
0.0
 41
0.0
 42
0.0
210
0.0
220
0.0
230
1.0
  0
LWPOLYLINE
  5
C1
330
36
100
AcDbEntity
  8
0
  6
ByLayer
 62
256
 48
1.0
 60
0
370
-1
100
AcDbPolyline
 90
7
 70
0
 38
0.0
 39
0.0
 10
1753.77087402344
 20
576.25
 40
0.0
 41
0.0
 42
0.0
 10
1753.77087402344
 20
621.75
 40
0.0
 41
0.0
 42
-0.414192706885767
 10
1765.77087402344
 20
633.75
 40
0.0
 41
0.0
 42
0.0
 10
1839.77087402344
 20
633.75
 40
0.0
 41
0.0
 42
-0.414209093184313
 10
1851.77087402344
 20
621.75
 40
0.0
 41
0.0
 42
0.0
 10
1851.77087402344
 20
576.25
 40
0.0
 41
0.0
 42
0.0
 10
1753.77087402344
 20
576.25
 40
0.0
 41
0.0
 42
0.0
210
0.0
220
0.0
230
1.0
  0
LWPOLYLINE
  5
C2
330
36
100
AcDbEntity
  8
0
  6
ByLayer
 62
256
 48
1.0
 60
0
370
-1
100
AcDbPolyline
 90
3
 70
0
 38
0.0
 39
0.0
 10
1795.27087402344
 20
607.25
 40
0.0
 41
0.0
 42
1.0
 10
1810.27087402344
 20
607.25
 40
0.0
 41
0.0
 42
1.0
 10
1795.27087402344
 20
607.25
 40
0.0
 41
0.0
 42
0.0
210
0.0
220
0.0
230
1.0
  0
LWPOLYLINE
  5
C3
330
36
100
AcDbEntity
  8
0
  6
ByLayer
 62
256
 48
1.0
 60
0
370
-1
100
AcDbPolyline
 90
7
 70
0
 38
0.0
 39
0.0
 10
2153.77099609375
 20
1376.25
 40
0.0
 41
0.0
 42
0.0
 10
2153.77099609375
 20
1421.75
 40
0.0
 41
0.0
 42
-0.414210582912338
 10
2165.77099609375
 20
1433.75
 40
0.0
 41
0.0
 42
0.0
 10
2239.77099609375
 20
1433.75
 40
0.0
 41
0.0
 42
-0.414213562373095
 10
2251.77099609375
 20
1421.75
 40
0.0
 41
0.0
 42
0.0
 10
2251.77099609375
 20
1376.25
 40
0.0
 41
0.0
 42
0.0
 10
2153.77099609375
 20
1376.25
 40
0.0
 41
0.0
 42
0.0
210
0.0
220
0.0
230
1.0
  0
LWPOLYLINE
  5
C4
330
36
100
AcDbEntity
  8
0
  6
ByLayer
 62
256
 48
1.0
 60
0
370
-1
100
AcDbPolyline
 90
3
 70
0
 38
0.0
 39
0.0
 10
2195.27099609375
 20
1407.25
 40
0.0
 41
0.0
 42
1.0
 10
2210.27099609375
 20
1407.25
 40
0.0
 41
0.0
 42
1.0
 10
2195.27099609375
 20
1407.25
 40
0.0
 41
0.0
 42
0.0
210
0.0
220
0.0
230
1.0
  0
LWPOLYLINE
  5
C5
330
36
100
AcDbEntity
  8
0
  6
ByLayer
 62
256
 48
1.0
 60
0
370
-1
100
AcDbPolyline
 90
7
 70
0
 38
0.0
 39
0.0
 10
2153.77099609375
 20
976.25
 40
0.0
 41
0.0
 42
0.0
 10
2153.77099609375
 20
1021.75
 40
0.0
 41
0.0
 42
-0.414210582912338
 10
2165.77099609375
 20
1033.75
 40
0.0
 41
0.0
 42
0.0
 10
2239.77099609375
 20
1033.75
 40
0.0
 41
0.0
 42
-0.414212072641932
 10
2251.77099609375
 20
1021.75
 40
0.0
 41
0.0
 42
0.0
 10
2251.77099609375
 20
976.25
 40
0.0
 41
0.0
 42
0.0
 10
2153.77099609375
 20
976.25
 40
0.0
 41
0.0
 42
0.0
210
0.0
220
0.0
230
1.0
  0
LWPOLYLINE
  5
C6
330
36
100
AcDbEntity
  8
0
  6
ByLayer
 62
256
 48
1.0
 60
0
370
-1
100
AcDbPolyline
 90
3
 70
0
 38
0.0
 39
0.0
 10
2195.27099609375
 20
1007.25
 40
0.0
 41
0.0
 42
1.0
 10
2210.27099609375
 20
1007.25
 40
0.0
 41
0.0
 42
1.0
 10
2195.27099609375
 20
1007.25
 40
0.0
 41
0.0
 42
0.0
210
0.0
220
0.0
230
1.0
  0
LWPOLYLINE
  5
C7
330
36
100
AcDbEntity
  8
0
  6
ByLayer
 62
256
 48
1.0
 60
0
370
-1
100
AcDbPolyline
 90
7
 70
0
 38
0.0
 39
0.0
 10
2153.77099609375
 20
576.25
 40
0.0
 41
0.0
 42
0.0
 10
2153.77099609375
 20
621.75
 40
0.0
 41
0.0
 42
-0.414210582912338
 10
2165.77099609375
 20
633.75
 40
0.0
 41
0.0
 42
0.0
 10
2239.77099609375
 20
633.75
 40
0.0
 41
0.0
 42
-0.414222500793027
 10
2251.77099609375
 20
621.75
 40
0.0
 41
0.0
 42
0.0
 10
2251.77099609375
 20
576.25
 40
0.0
 41
0.0
 42
0.0
 10
2153.77099609375
 20
576.25
 40
0.0
 41
0.0
 42
0.0
210
0.0
220
0.0
230
1.0
  0
LWPOLYLINE
  5
C8
330
36
100
AcDbEntity
  8
0
  6
ByLayer
 62
256
 48
1.0
 60
0
370
-1
100
AcDbPolyline
 90
3
 70
0
 38
0.0
 39
0.0
 10
2195.27099609375
 20
607.25
 40
0.0
 41
0.0
 42
1.0
 10
2210.27099609375
 20
607.25
 40
0.0
 41
0.0
 42
1.0
 10
2195.27099609375
 20
607.25
 40
0.0
 41
0.0
 42
0.0
210
0.0
220
0.0
230
1.0
  0
LWPOLYLINE
  5
C9
330
36
100
AcDbEntity
  8
0
  6
ByLayer
 62
256
 48
1.0
 60
0
370
-1
100
AcDbPolyline
 90
7
 70
0
 38
0.0
 39
0.0
 10
2554.10546875
 20
976.250061035156
 40
0.0
 41
0.0
 42
0.0
 10
2554.10546875
 20
1021.75006103516
 40
0.0
 41
0.0
 42
-0.414226970206034
 10
2566.10546875
 20
1033.75
 40
0.0
 41
0.0
 42
0.0
 10
2640.10546875
 20
1033.75
 40
0.0
 41
0.0
 42
-0.414235909225984
 10
2652.10546875
 20
1021.75006103516
 40
0.0
 41
0.0
 42
0.0
 10
2652.10546875
 20
976.250061035156
 40
0.0
 41
0.0
 42
0.0
 10
2554.10546875
 20
976.250061035156
 40
0.0
 41
0.0
 42
0.0
210
0.0
220
0.0
230
1.0
  0
LWPOLYLINE
  5
CA
330
36
100
AcDbEntity
  8
0
  6
ByLayer
 62
256
 48
1.0
 60
0
370
-1
100
AcDbPolyline
 90
3
 70
0
 38
0.0
 39
0.0
 10
2595.60546875
 20
1007.25006103516
 40
0.0
 41
0.0
 42
0.999983724090788
 10
2610.60546875
 20
1007.25006103516
 40
0.0
 41
0.0
 42
0.999983724090788
 10
2595.60546875
 20
1007.25006103516
 40
0.0
 41
0.0
 42
0.0
210
0.0
220
0.0
230
1.0
  0
LWPOLYLINE
  5
CB
330
36
100
AcDbEntity
  8
0
  6
ByLayer
 62
256
 48
1.0
 60
0
370
-1
100
AcDbPolyline
 90
21
 70
0
 38
0.0
 39
0.0
 10
2673.95263671875
 20
1416.8759765625
 40
0.0
 41
0.0
 42
-0.186955479158315
 10
2668.12109375
 20
1402.08618164063
 40
0.0
 41
0.0
 42
0.0
 10
2665.08862304688
 20
1399.36474609375
 40
0.0
 41
0.0
 42
0.0
 10
2661.56176757813
 20
1397.21936035156
 40
0.0
 41
0.0
 42
0.0
 10
2657.52172851563
 20
1395.72399902344
 40
0.0
 41
0.0
 42
0.0
 10
2654.5244140625
 20
1395.16455078125
 40
0.0
 41
0.0
 42
0.0
 10
2650.4658203125
 20
1395.05993652344
 40
0.0
 41
0.0
 42
0.0
 10
2608.95849609375
 20
1401.6689453125
 40
0.0
 41
0.0
 42
0.0917839145222568
 10
2572.5595703125
 20
1400.82873535156
 40
0.0
 41
0.0
 42
0.0
 10
2553.8916015625
 20
1395.05993652344
 40
0.0
 41
0.0
 42
0.0
 10
2550.13989257813
 20
1394.78430175781
 40
0.0
 41
0.0
 42
0.0
 10
2546.54858398438
 20
1395.88061523438
 40
0.0
 41
0.0
 42
0.0
 10
2544.0791015625
 20
1397.83923339844
 40
0.0
 41
0.0
 42
0.0
 10
2542.28076171875
 20
1400.37817382813
 40
0.0
 41
0.0
 42
0.0
 10
2541.30859375
 20
1404.01965332031
 40
0.0
 41
0.0
 42
0.0
 10
2541.62255859375
 20
1407.28137207031
 40
0.0
 41
0.0
 42
0.0
 10
2542.966796875
 20
1410.275390625
 40
0.0
 41
0.0
 42
0.0
 10
2576.48168945313
 20
1451.48107910156
 40
0.0
 41
0.0
 42
0.0
 10
2655.45922851563
 20
1438.73229980469
 40
0.0
 41
0.0
 42
0.0
 10
2658.09765625
 20
1438.13427734375
 40
0.0
 41
0.0
 42
-0.335203328293896
 10
2673.95263671875
 20
1416.8759765625
 40
0.0
 41
0.0
 42
0.0
210
0.0
220
0.0
230
1.0
  0
LWPOLYLINE
  5
CC
330
36
100
AcDbEntity
  8
0
  6
ByLayer
 62
256
 48
1.0
 60
0
370
-1
100
AcDbPolyline
 90
3
 70
0
 38
0.0
 39
0.0
 10
2662.81274414063
 20
1415.26049804688
 40
0.0
 41
0.0
 42
1.0000054777763
 10
2641.09399414063
 20
1418.76647949219
 40
0.0
 41
0.0
 42
1.0000054777763
 10
2662.81274414063
 20
1415.26049804688
 40
0.0
 41
0.0
 42
0.0
210
0.0
220
0.0
230
1.0
  0
LWPOLYLINE
  5
CD
330
36
100
AcDbEntity
  8
0
  6
ByLayer
 62
256
 48
1.0
 60
0
370
-1
100
AcDbPolyline
 90
21
 70
0
 38
0.0
 39
0.0
 10
2673.95263671875
 20
216.875991821289
 40
0.0
 41
0.0
 42
-0.186952842322391
 10
2668.12109375
 20
202.086273193359
 40
0.0
 41
0.0
 42
0.0
 10
2665.08862304688
 20
199.36474609375
 40
0.0
 41
0.0
 42
0.0
 10
2661.56176757813
 20
197.219390869141
 40
0.0
 41
0.0
 42
0.0
 10
2657.52172851563
 20
195.724075317383
 40
0.0
 41
0.0
 42
0.0
 10
2654.5244140625
 20
195.164596557617
 40
0.0
 41
0.0
 42
0.0
 10
2650.4658203125
 20
195.060028076172
 40
0.0
 41
0.0
 42
0.0
 10
2608.95849609375
 20
201.669052124023
 40
0.0
 41
0.0
 42
0.091790509651094
 10
2572.5595703125
 20
200.828842163086
 40
0.0
 41
0.0
 42
0.0
 10
2553.8916015625
 20
195.060012817383
 40
0.0
 41
0.0
 42
0.0
 10
2550.13989257813
 20
194.784393310547
 40
0.0
 41
0.0
 42
0.0
 10
2546.54858398438
 20
195.88069152832
 40
0.0
 41
0.0
 42
0.0
 10
2544.0791015625
 20
197.839248657227
 40
0.0
 41
0.0
 42
0.0
 10
2542.28076171875
 20
200.378280639648
 40
0.0
 41
0.0
 42
0.0
 10
2541.30859375
 20
204.019729614258
 40
0.0
 41
0.0
 42
0.0
 10
2541.62255859375
 20
207.281402587891
 40
0.0
 41
0.0
 42
0.0
 10
2542.966796875
 20
210.275436401367
 40
0.0
 41
0.0
 42
0.0
 10
2576.48168945313
 20
251.48112487793
 40
0.0
 41
0.0
 42
0.0
 10
2655.45922851563
 20
238.732376098633
 40
0.0
 41
0.0
 42
0.0
 10
2658.09765625
 20
238.134292602539
 40
0.0
 41
0.0
 42
-0.335214156575766
 10
2673.95263671875
 20
216.875991821289
 40
0.0
 41
0.0
 42
0.0
210
0.0
220
0.0
230
1.0
  0
LWPOLYLINE
  5
CE
330
36
100
AcDbEntity
  8
0
  6
ByLayer
 62
256
 48
1.0
 60
0
370
-1
100
AcDbPolyline
 90
3
 70
0
 38
0.0
 39
0.0
 10
2662.81274414063
 20
215.26057434082
 40
0.0
 41
0.0
 42
1.00000616250726
 10
2641.09399414063
 20
218.766479492188
 40
0.0
 41
0.0
 42
1.00000479305792
 10
2662.81274414063
 20
215.26057434082
 40
0.0
 41
0.0
 42
0.0
210
0.0
220
0.0
230
1.0
  0
LWPOLYLINE
  5
CF
330
36
100
AcDbEntity
  8
0
  6
ByLayer
 62
256
 48
1.0
 60
0
370
-1
100
AcDbPolyline
 90
21
 70
0
 38
0.0
 39
0.0
 10
2673.95263671875
 20
616.8759765625
 40
0.0
 41
0.0
 42
-0.18695109189561
 10
2668.12109375
 20
602.086242675781
 40
0.0
 41
0.0
 42
0.0
 10
2665.08862304688
 20
599.364685058594
 40
0.0
 41
0.0
 42
0.0
 10
2661.56176757813
 20
597.219360351563
 40
0.0
 41
0.0
 42
0.0
 10
2657.52172851563
 20
595.723999023438
 40
0.0
 41
0.0
 42
0.0
 10
2654.5244140625
 20
595.16455078125
 40
0.0
 41
0.0
 42
0.0
 10
2650.4658203125
 20
595.059997558594
 40
0.0
 41
0.0
 42
0.0
 10
2608.95849609375
 20
601.669006347656
 40
0.0
 41
0.0
 42
0.0917905306551521
 10
2572.5595703125
 20
600.828796386719
 40
0.0
 41
0.0
 42
0.0
 10
2553.8916015625
 20
595.059997558594
 40
0.0
 41
0.0
 42
0.0
 10
2550.13989257813
 20
594.784362792969
 40
0.0
 41
0.0
 42
0.0
 10
2546.54858398438
 20
595.880615234375
 40
0.0
 41
0.0
 42
0.0
 10
2544.0791015625
 20
597.839172363281
 40
0.0
 41
0.0
 42
0.0
 10
2542.28076171875
 20
600.378234863281
 40
0.0
 41
0.0
 42
0.0
 10
2541.30859375
 20
604.019653320313
 40
0.0
 41
0.0
 42
0.0
 10
2541.62255859375
 20
607.281372070313
 40
0.0
 41
0.0
 42
0.0
 10
2542.966796875
 20
610.275390625
 40
0.0
 41
0.0
 42
0.0
 10
2576.48168945313
 20
651.481079101563
 40
0.0
 41
0.0
 42
0.0
 10
2655.45922851563
 20
638.732360839844
 40
0.0
 41
0.0
 42
0.0
 10
2658.09765625
 20
638.134216308594
 40
0.0
 41
0.0
 42
-0.335218173955063
 10
2673.95263671875
 20
616.8759765625
 40
0.0
 41
0.0
 42
0.0
210
0.0
220
0.0
230
1.0
  0
LWPOLYLINE
  5
D0
330
36
100
AcDbEntity
  8
0
  6
ByLayer
 62
256
 48
1.0
 60
0
370
-1
100
AcDbPolyline
 90
3
 70
0
 38
0.0
 39
0.0
 10
2662.81274414063
 20
615.260559082031
 40
0.0
 41
0.0
 42
1.00001095560199
 10
2641.09399414063
 20
618.766418457031
 40
0.0
 41
0.0
 42
1.00000547778599
 10
2662.81274414063
 20
615.260559082031
 40
0.0
 41
0.0
 42
0.0
210
0.0
220
0.0
230
1.0
  0
LWPOLYLINE
  5
D1
330
36
100
AcDbEntity
  8
0
  6
ByLayer
 62
256
 48
1.0
 60
0
370
-1
100
AcDbPolyline
 90
21
 70
0
 38
0.0
 39
0.0
 10
3073.38427734375
 20
217.699432373047
 40
0.0
 41
0.0
 42
-0.186950912464229
 10
3067.552734375
 20
202.909713745117
 40
0.0
 41
0.0
 42
0.0
 10
3064.52026367188
 20
200.188186645508
 40
0.0
 41
0.0
 42
0.0
 10
3060.99340820313
 20
198.042831420898
 40
0.0
 41
0.0
 42
0.0
 10
3056.95336914063
 20
196.547515869141
 40
0.0
 41
0.0
 42
0.0
 10
3053.9560546875
 20
195.988037109375
 40
0.0
 41
0.0
 42
0.0
 10
3049.8974609375
 20
195.88346862793
 40
0.0
 41
0.0
 42
0.0
 10
3008.39013671875
 20
202.492492675781
 40
0.0
 41
0.0
 42
0.091790537656507
 10
2971.9912109375
 20
201.652282714844
 40
0.0
 41
0.0
 42
0.0
 10
2953.3232421875
 20
195.883453369141
 40
0.0
 41
0.0
 42
0.0
 10
2949.57153320313
 20
195.607833862305
 40
0.0
 41
0.0
 42
0.0
 10
2945.98022460938
 20
196.704132080078
 40
0.0
 41
0.0
 42
0.0
 10
2943.5107421875
 20
198.662689208984
 40
0.0
 41
0.0
 42
0.0
 10
2941.71240234375
 20
201.201721191406
 40
0.0
 41
0.0
 42
0.0
 10
2940.740234375
 20
204.843170166016
 40
0.0
 41
0.0
 42
0.0
 10
2941.05419921875
 20
208.104843139648
 40
0.0
 41
0.0
 42
0.0
 10
2942.3984375
 20
211.098876953125
 40
0.0
 41
0.0
 42
0.0
 10
2975.91333007813
 20
252.304565429688
 40
0.0
 41
0.0
 42
0.0
 10
3054.89086914063
 20
239.555816650391
 40
0.0
 41
0.0
 42
0.0
 10
3057.529296875
 20
238.957733154297
 40
0.0
 41
0.0
 42
-0.335214017579406
 10
3073.38427734375
 20
217.699432373047
 40
0.0
 41
0.0
 42
0.0
210
0.0
220
0.0
230
1.0
  0
LWPOLYLINE
  5
D2
330
36
100
AcDbEntity
  8
0
  6
ByLayer
 62
256
 48
1.0
 60
0
370
-1
100
AcDbPolyline
 90
3
 70
0
 38
0.0
 39
0.0
 10
3062.24438476563
 20
216.084014892578
 40
0.0
 41
0.0
 42
1.00000616250726
 10
3040.52563476563
 20
219.589920043945
 40
0.0
 41
0.0
 42
1.00000479305792
 10
3062.24438476563
 20
216.084014892578
 40
0.0
 41
0.0
 42
0.0
210
0.0
220
0.0
230
1.0
  0
LWPOLYLINE
  5
D3
330
36
100
AcDbEntity
  8
0
  6
ByLayer
 62
256
 48
1.0
 60
0
370
-1
100
AcDbPolyline
 90
21
 70
0
 38
0.0
 39
0.0
 10
3073.8857421875
 20
1416.94030761719
 40
0.0
 41
0.0
 42
-0.186955859622673
 10
3068.05419921875
 20
1402.15051269531
 40
0.0
 41
0.0
 42
0.0
 10
3065.02172851563
 20
1399.42907714844
 40
0.0
 41
0.0
 42
0.0
 10
3061.49487304688
 20
1397.28369140625
 40
0.0
 41
0.0
 42
0.0
 10
3057.45483398438
 20
1395.78833007813
 40
0.0
 41
0.0
 42
0.0
 10
3054.45751953125
 20
1395.22888183594
 40
0.0
 41
0.0
 42
0.0
 10
3050.39892578125
 20
1395.12426757813
 40
0.0
 41
0.0
 42
0.0
 10
3008.8916015625
 20
1401.73327636719
 40
0.0
 41
0.0
 42
0.0917838025166786
 10
2972.49267578125
 20
1400.89306640625
 40
0.0
 41
0.0
 42
0.0
 10
2953.82470703125
 20
1395.12426757813
 40
0.0
 41
0.0
 42
0.0
 10
2950.07299804688
 20
1394.8486328125
 40
0.0
 41
0.0
 42
0.0
 10
2946.48168945313
 20
1395.94494628906
 40
0.0
 41
0.0
 42
0.0
 10
2944.01220703125
 20
1397.90356445313
 40
0.0
 41
0.0
 42
0.0
 10
2942.2138671875
 20
1400.44250488281
 40
0.0
 41
0.0
 42
0.0
 10
2941.24169921875
 20
1404.083984375
 40
0.0
 41
0.0
 42
0.0
 10
2941.5556640625
 20
1407.345703125
 40
0.0
 41
0.0
 42
0.0
 10
2942.89990234375
 20
1410.33972167969
 40
0.0
 41
0.0
 42
0.0
 10
2976.41479492188
 20
1451.54541015625
 40
0.0
 41
0.0
 42
0.0
 10
3055.39233398438
 20
1438.79663085938
 40
0.0
 41
0.0
 42
0.0
 10
3058.03076171875
 20
1438.19860839844
 40
0.0
 41
0.0
 42
-0.33520853386889
 10
3073.8857421875
 20
1416.94030761719
 40
0.0
 41
0.0
 42
0.0
210
0.0
220
0.0
230
1.0
  0
LWPOLYLINE
  5
D4
330
36
100
AcDbEntity
  8
0
  6
ByLayer
 62
256
 48
1.0
 60
0
370
-1
100
AcDbPolyline
 90
3
 70
0
 38
0.0
 39
0.0
 10
3062.74584960938
 20
1415.32482910156
 40
0.0
 41
0.0
 42
1.0000054777763
 10
3041.02709960938
 20
1418.83081054688
 40
0.0
 41
0.0
 42
1.0000054777763
 10
3062.74584960938
 20
1415.32482910156
 40
0.0
 41
0.0
 42
0.0
210
0.0
220
0.0
230
1.0
  0
LWPOLYLINE
  5
D5
330
36
100
AcDbEntity
  8
0
  6
ByLayer
 62
256
 48
1.0
 60
0
370
-1
100
AcDbPolyline
 90
7
 70
0
 38
0.0
 39
0.0
 10
2953.1396484375
 20
977.75
 40
0.0
 41
0.0
 42
0.0
 10
2953.1396484375
 20
1020.25
 40
0.0
 41
0.0
 42
-0.414210582912338
 10
2965.1396484375
 20
1032.25
 40
0.0
 41
0.0
 42
0.0
 10
3039.1396484375
 20
1032.25
 40
0.0
 41
0.0
 42
-0.414212072641932
 10
3051.1396484375
 20
1020.25
 40
0.0
 41
0.0
 42
0.0
 10
3051.1396484375
 20
977.75
 40
0.0
 41
0.0
 42
0.0
 10
2953.1396484375
 20
977.75
 40
0.0
 41
0.0
 42
0.0
210
0.0
220
0.0
230
1.0
  0
LWPOLYLINE
  5
D6
330
36
100
AcDbEntity
  8
0
  6
ByLayer
 62
256
 48
1.0
 60
0
370
-1
100
AcDbPolyline
 90
7
 70
0
 38
0.0
 39
0.0
 10
2953.1396484375
 20
577.75
 40
0.0
 41
0.0
 42
0.0
 10
2953.1396484375
 20
620.25
 40
0.0
 41
0.0
 42
-0.414210582912338
 10
2965.1396484375
 20
632.25
 40
0.0
 41
0.0
 42
0.0
 10
3039.1396484375
 20
632.25
 40
0.0
 41
0.0
 42
-0.414222500793027
 10
3051.1396484375
 20
620.25
 40
0.0
 41
0.0
 42
0.0
 10
3051.1396484375
 20
577.75
 40
0.0
 41
0.0
 42
0.0
 10
2953.1396484375
 20
577.75
 40
0.0
 41
0.0
 42
0.0
210
0.0
220
0.0
230
1.0
  0
LWPOLYLINE
  5
D7
330
36
100
AcDbEntity
  8
0
  6
ByLayer
 62
256
 48
1.0
 60
0
370
-1
100
AcDbPolyline
 90
7
 70
0
 38
0.0
 39
0.0
 10
3359.03344726563
 20
181.652008056641
 40
0.0
 41
0.0
 42
0.0
 10
3359.03344726563
 20
224.152008056641
 40
0.0
 41
0.0
 42
-0.414204251715457
 10
3371.03344726563
 20
236.152008056641
 40
0.0
 41
0.0
 42
0.0
 10
3445.03344726563
 20
236.152008056641
 40
0.0
 41
0.0
 42
-0.41421952131344
 10
3457.03344726563
 20
224.152008056641
 40
0.0
 41
0.0
 42
0.0
 10
3457.03344726563
 20
181.652008056641
 40
0.0
 41
0.0
 42
0.0
 10
3359.03344726563
 20
181.652008056641
 40
0.0
 41
0.0
 42
0.0
210
0.0
220
0.0
230
1.0
  0
LWPOLYLINE
  5
D8
330
36
100
AcDbEntity
  8
0
  6
ByLayer
 62
256
 48
1.0
 60
0
370
-1
100
AcDbPolyline
 90
7
 70
0
 38
0.0
 39
0.0
 10
3360.64965820313
 20
1377.75
 40
0.0
 41
0.0
 42
0.0
 10
3360.64965820313
 20
1420.25
 40
0.0
 41
0.0
 42
-0.414201644810192
 10
3372.64965820313
 20
1432.25
 40
0.0
 41
0.0
 42
0.0
 10
3446.64965820313
 20
1432.25
 40
0.0
 41
0.0
 42
-0.414213562373095
 10
3458.64965820313
 20
1420.25
 40
0.0
 41
0.0
 42
0.0
 10
3458.64965820313
 20
1377.75
 40
0.0
 41
0.0
 42
0.0
 10
3360.64965820313
 20
1377.75
 40
0.0
 41
0.0
 42
0.0
210
0.0
220
0.0
230
1.0
  0
LWPOLYLINE
  5
D9
330
36
100
AcDbEntity
  8
0
  6
ByLayer
 62
256
 48
1.0
 60
0
370
-1
100
AcDbPolyline
 90
7
 70
0
 38
0.0
 39
0.0
 10
3360.64965820313
 20
977.75
 40
0.0
 41
0.0
 42
0.0
 10
3360.64965820313
 20
1020.25
 40
0.0
 41
0.0
 42
-0.414203134469755
 10
3372.64965820313
 20
1032.25
 40
0.0
 41
0.0
 42
0.0
 10
3446.64965820313
 20
1032.25
 40
0.0
 41
0.0
 42
-0.414212072641932
 10
3458.64965820313
 20
1020.25
 40
0.0
 41
0.0
 42
0.0
 10
3458.64965820313
 20
977.75
 40
0.0
 41
0.0
 42
0.0
 10
3360.64965820313
 20
977.75
 40
0.0
 41
0.0
 42
0.0
210
0.0
220
0.0
230
1.0
  0
LWPOLYLINE
  5
DA
330
36
100
AcDbEntity
  8
0
  6
ByLayer
 62
256
 48
1.0
 60
0
370
-1
100
AcDbPolyline
 90
7
 70
0
 38
0.0
 39
0.0
 10
3395.32421875
 20
559.0380859375
 40
0.0
 41
0.0
 42
0.0
 10
3349.3623046875
 20
605.0
 40
0.0
 41
0.0
 42
0.0
 10
3356.43334960938
 20
612.071105957031
 40
0.0
 41
0.0
 42
0.0
 10
3469.57055664063
 20
612.071105957031
 40
0.0
 41
0.0
 42
0.0
 10
3476.6416015625
 20
605.0
 40
0.0
 41
0.0
 42
0.0
 10
3430.6796875
 20
559.0380859375
 40
0.0
 41
0.0
 42
0.414214573635073
 10
3395.32421875
 20
559.0380859375
 40
0.0
 41
0.0
 42
0.0
210
0.0
220
0.0
230
1.0
  0
LWPOLYLINE
  5
DB
330
36
100
AcDbEntity
  8
0
  6
ByLayer
 62
256
 48
1.0
 60
0
370
-1
100
AcDbPolyline
 90
7
 70
0
 38
0.0
 39
0.0
 10
3795.20825195313
 20
159.038070678711
 40
0.0
 41
0.0
 42
0.0
 10
3749.24633789063
 20
205.0
 40
0.0
 41
0.0
 42
0.0
 10
3756.3173828125
 20
212.071075439453
 40
0.0
 41
0.0
 42
0.0
 10
3869.45458984375
 20
212.071075439453
 40
0.0
 41
0.0
 42
0.0
 10
3876.52563476563
 20
205.0
 40
0.0
 41
0.0
 42
0.0
 10
3830.56372070313
 20
159.038070678711
 40
0.0
 41
0.0
 42
0.414205978042602
 10
3795.20825195313
 20
159.038070678711
 40
0.0
 41
0.0
 42
0.0
210
0.0
220
0.0
230
1.0
  0
LWPOLYLINE
  5
DC
330
36
100
AcDbEntity
  8
0
  6
ByLayer
 62
256
 48
1.0
 60
0
370
-1
100
AcDbPolyline
 90
7
 70
0
 38
0.0
 39
0.0
 10
3795.32421875
 20
559.0380859375
 40
0.0
 41
0.0
 42
0.0
 10
3749.3623046875
 20
605.0
 40
0.0
 41
0.0
 42
0.0
 10
3756.43334960938
 20
612.071105957031
 40
0.0
 41
0.0
 42
0.0
 10
3869.57055664063
 20
612.071105957031
 40
0.0
 41
0.0
 42
0.0
 10
3876.6416015625
 20
605.0
 40
0.0
 41
0.0
 42
0.0
 10
3830.6796875
 20
559.0380859375
 40
0.0
 41
0.0
 42
0.414214573635073
 10
3795.32421875
 20
559.0380859375
 40
0.0
 41
0.0
 42
0.0
210
0.0
220
0.0
230
1.0
  0
LWPOLYLINE
  5
DD
330
36
100
AcDbEntity
  8
0
  6
ByLayer
 62
256
 48
1.0
 60
0
370
-1
100
AcDbPolyline
 90
7
 70
0
 38
0.0
 39
0.0
 10
3795.32421875
 20
959.0380859375
 40
0.0
 41
0.0
 42
0.0
 10
3749.3623046875
 20
1005.0
 40
0.0
 41
0.0
 42
0.0
 10
3756.43334960938
 20
1012.07110595703
 40
0.0
 41
0.0
 42
0.0
 10
3869.57055664063
 20
1012.07110595703
 40
0.0
 41
0.0
 42
0.0
 10
3876.6416015625
 20
1005.0
 40
0.0
 41
0.0
 42
0.0
 10
3830.6796875
 20
959.0380859375
 40
0.0
 41
0.0
 42
0.414214573635073
 10
3795.32421875
 20
959.0380859375
 40
0.0
 41
0.0
 42
0.0
210
0.0
220
0.0
230
1.0
  0
LWPOLYLINE
  5
DE
330
36
100
AcDbEntity
  8
0
  6
ByLayer
 62
256
 48
1.0
 60
0
370
-1
100
AcDbPolyline
 90
7
 70
0
 38
0.0
 39
0.0
 10
3795.32421875
 20
1359.03796386719
 40
0.0
 41
0.0
 42
0.0
 10
3749.3623046875
 20
1405.0
 40
0.0
 41
0.0
 42
0.0
 10
3756.43334960938
 20
1412.07104492188
 40
0.0
 41
0.0
 42
0.0
 10
3869.57055664063
 20
1412.07104492188
 40
0.0
 41
0.0
 42
0.0
 10
3876.6416015625
 20
1405.0
 40
0.0
 41
0.0
 42
0.0
 10
3830.6796875
 20
1359.03796386719
 40
0.0
 41
0.0
 42
0.414211539833851
 10
3795.32421875
 20
1359.03796386719
 40
0.0
 41
0.0
 42
0.0
210
0.0
220
0.0
230
1.0
  0
LWPOLYLINE
  5
DF
330
36
100
AcDbEntity
  8
0
  6
ByLayer
 62
256
 48
1.0
 60
0
370
-1
100
AcDbPolyline
 90
8
 70
0
 38
0.0
 39
0.0
 10
3053.64428710938
 20
176.28059387207
 40
0.0
 41
0.0
 42
0.0
 10
3052.42016601563
 20
160.969451904297
 40
0.0
 41
0.0
 42
-0.391002288392669
 10
3039.46533203125
 20
149.003829956055
 40
0.0
 41
0.0
 42
0.0
 10
2975.72265625
 20
149.003814697266
 40
0.0
 41
0.0
 42
0.0
 10
2978.46411132813
 20
183.294403076172
 40
0.0
 41
0.0
 42
0.0
 10
2990.3056640625
 20
193.382766723633
 40
0.0
 41
0.0
 42
0.0
 10
3042.638671875
 20
189.198776245117
 40
0.0
 41
0.0
 42
0.0
 10
3053.64428710938
 20
176.28059387207
 40
0.0
 41
0.0
 42
0.0
210
0.0
220
0.0
230
1.0
  0
LWPOLYLINE
  5
E0
330
36
100
AcDbEntity
  8
0
  6
ByLayer
 62
256
 48
1.0
 60
0
370
-1
100
AcDbPolyline
 90
8
 70
0
 38
0.0
 39
0.0
 10
3058.6337890625
 20
1374.93103027344
 40
0.0
 41
0.0
 42
0.0
 10
3057.40966796875
 20
1359.61987304688
 40
0.0
 41
0.0
 42
-0.390994609412236
 10
3044.45483398438
 20
1347.65417480469
 40
0.0
 41
0.0
 42
0.0
 10
2980.71215820313
 20
1347.65417480469
 40
0.0
 41
0.0
 42
0.0
 10
2983.45361328125
 20
1381.94482421875
 40
0.0
 41
0.0
 42
0.0
 10
2995.29516601563
 20
1392.033203125
 40
0.0
 41
0.0
 42
0.0
 10
3047.62817382813
 20
1387.84912109375
 40
0.0
 41
0.0
 42
0.0
 10
3058.6337890625
 20
1374.93103027344
 40
0.0
 41
0.0
 42
0.0
210
0.0
220
0.0
230
1.0
  0
LWPOLYLINE
  5
E1
330
36
100
AcDbEntity
  8
0
  6
ByLayer
 62
256
 48
1.0
 60
0
370
-1
100
AcDbPolyline
 90
8
 70
0
 38
0.0
 39
0.0
 10
3452.8916015625
 20
646.847839355469
 40
0.0
 41
0.0
 42
0.0
 10
3451.66748046875
 20
631.536743164063
 40
0.0
 41
0.0
 42
-0.390994609031032
 10
3438.71264648438
 20
619.571105957031
 40
0.0
 41
0.0
 42
0.0
 10
3374.96997070313
 20
619.571105957031
 40
0.0
 41
0.0
 42
0.0
 10
3377.71142578125
 20
653.861694335938
 40
0.0
 41
0.0
 42
0.0
 10
3389.55297851563
 20
663.950012207031
 40
0.0
 41
0.0
 42
0.0
 10
3441.88598632813
 20
659.766052246094
 40
0.0
 41
0.0
 42
0.0
 10
3452.8916015625
 20
646.847839355469
 40
0.0
 41
0.0
 42
0.0
210
0.0
220
0.0
230
1.0
  0
LWPOLYLINE
  5
E2
330
36
100
AcDbEntity
  8
0
  6
ByLayer
 62
256
 48
1.0
 60
0
370
-1
100
AcDbPolyline
 90
8
 70
0
 38
0.0
 39
0.0
 10
3847.97827148438
 20
246.847854614258
 40
0.0
 41
0.0
 42
0.0
 10
3846.75415039063
 20
231.536712646484
 40
0.0
 41
0.0
 42
-0.391002288392669
 10
3833.79931640625
 20
219.571090698242
 40
0.0
 41
0.0
 42
0.0
 10
3770.056640625
 20
219.571075439453
 40
0.0
 41
0.0
 42
0.0
 10
3772.79809570313
 20
253.861663818359
 40
0.0
 41
0.0
 42
0.0
 10
3784.6396484375
 20
263.950042724609
 40
0.0
 41
0.0
 42
0.0
 10
3836.97265625
 20
259.766021728516
 40
0.0
 41
0.0
 42
0.0
 10
3847.97827148438
 20
246.847854614258
 40
0.0
 41
0.0
 42
0.0
210
0.0
220
0.0
230
1.0
  0
LWPOLYLINE
  5
E3
330
36
100
AcDbEntity
  8
0
  6
ByLayer
 62
256
 48
1.0
 60
0
370
-1
100
AcDbPolyline
 90
8
 70
0
 38
0.0
 39
0.0
 10
3852.89135742188
 20
1046.84790039063
 40
0.0
 41
0.0
 42
0.0
 10
3851.66723632813
 20
1031.53674316406
 40
0.0
 41
0.0
 42
-0.391009968162191
 10
3838.71240234375
 20
1019.57110595703
 40
0.0
 41
0.0
 42
0.0
 10
3774.9697265625
 20
1019.57110595703
 40
0.0
 41
0.0
 42
0.0
 10
3777.71118164063
 20
1053.86169433594
 40
0.0
 41
0.0
 42
0.0
 10
3789.552734375
 20
1063.95007324219
 40
0.0
 41
0.0
 42
0.0
 10
3841.8857421875
 20
1059.76599121094
 40
0.0
 41
0.0
 42
0.0
 10
3852.89135742188
 20
1046.84790039063
 40
0.0
 41
0.0
 42
0.0
210
0.0
220
0.0
230
1.0
  0
LWPOLYLINE
  5
E4
330
36
100
AcDbEntity
  8
0
  6
ByLayer
 62
256
 48
1.0
 60
0
370
-1
100
AcDbPolyline
 90
6
 70
0
 38
0.0
 39
0.0
 10
4921.3466796875
 20
2244.880859375
 40
0.0
 41
0.0
 42
-0.481551710009716
 10
4935.966796875
 20
2263.22094726563
 40
0.0
 41
0.0
 42
0.0
 10
4975.966796875
 20
2263.22094726563
 40
0.0
 41
0.0
 42
0.0
 10
4975.966796875
 20
2233.22094726563
 40
0.0
 41
0.0
 42
0.0
 10
4935.966796875
 20
2233.22094726563
 40
0.0
 41
0.0
 42
-0.349778774597273
 10
4921.3466796875
 20
2244.880859375
 40
0.0
 41
0.0
 42
0.0
210
0.0
220
0.0
230
1.0
  0
LWPOLYLINE
  5
E5
330
36
100
AcDbEntity
  8
0
  6
ByLayer
 62
256
 48
1.0
 60
0
370
-1
100
AcDbPolyline
 90
3
 70
0
 38
0.0
 39
0.0
 10
4928.466796875
 20
2248.22094726563
 40
0.0
 41
0.0
 42
1.00003255261315
 10
4943.466796875
 20
2248.22094726563
 40
0.0
 41
0.0
 42
0.999967448446348
 10
4928.466796875
 20
2248.22094726563
 40
0.0
 41
0.0
 42
0.0
210
0.0
220
0.0
230
1.0
  0
LWPOLYLINE
  5
E6
330
36
100
AcDbEntity
  8
0
  6
ByLayer
 62
256
 48
1.0
 60
0
370
-1
100
AcDbPolyline
 90
6
 70
0
 38
0.0
 39
0.0
 10
4858.85986328125
 20
2207.380859375
 40
0.0
 41
0.0
 42
-0.481551710009716
 10
4873.47998046875
 20
2225.72094726563
 40
0.0
 41
0.0
 42
0.0
 10
4913.47998046875
 20
2225.72094726563
 40
0.0
 41
0.0
 42
0.0
 10
4913.47998046875
 20
2195.72094726563
 40
0.0
 41
0.0
 42
0.0
 10
4873.47998046875
 20
2195.72094726563
 40
0.0
 41
0.0
 42
-0.349810777001246
 10
4858.85986328125
 20
2207.380859375
 40
0.0
 41
0.0
 42
0.0
210
0.0
220
0.0
230
1.0
  0
LWPOLYLINE
  5
E7
330
36
100
AcDbEntity
  8
0
  6
ByLayer
 62
256
 48
1.0
 60
0
370
-1
100
AcDbPolyline
 90
3
 70
0
 38
0.0
 39
0.0
 10
4865.97998046875
 20
2210.72094726563
 40
0.0
 41
0.0
 42
1.00003255261329
 10
4880.97998046875
 20
2210.72094726563
 40
0.0
 41
0.0
 42
0.999934897952334
 10
4865.97998046875
 20
2210.72094726563
 40
0.0
 41
0.0
 42
0.0
210
0.0
220
0.0
230
1.0
  0
LWPOLYLINE
  5
E8
330
36
100
AcDbEntity
  8
0
  6
ByLayer
 62
256
 48
1.0
 60
0
370
-1
100
AcDbPolyline
 90
6
 70
0
 38
0.0
 39
0.0
 10
4921.3466796875
 20
2207.380859375
 40
0.0
 41
0.0
 42
-0.481551710009716
 10
4935.966796875
 20
2225.72094726563
 40
0.0
 41
0.0
 42
0.0
 10
4975.966796875
 20
2225.72094726563
 40
0.0
 41
0.0
 42
0.0
 10
4975.966796875
 20
2195.72094726563
 40
0.0
 41
0.0
 42
0.0
 10
4935.966796875
 20
2195.72094726563
 40
0.0
 41
0.0
 42
-0.349778774597273
 10
4921.3466796875
 20
2207.380859375
 40
0.0
 41
0.0
 42
0.0
210
0.0
220
0.0
230
1.0
  0
LWPOLYLINE
  5
E9
330
36
100
AcDbEntity
  8
0
  6
ByLayer
 62
256
 48
1.0
 60
0
370
-1
100
AcDbPolyline
 90
3
 70
0
 38
0.0
 39
0.0
 10
4928.466796875
 20
2210.72094726563
 40
0.0
 41
0.0
 42
1.00003255261315
 10
4943.466796875
 20
2210.72094726563
 40
0.0
 41
0.0
 42
0.999967448446348
 10
4928.466796875
 20
2210.72094726563
 40
0.0
 41
0.0
 42
0.0
210
0.0
220
0.0
230
1.0
  0
LWPOLYLINE
  5
EA
330
36
100
AcDbEntity
  8
0
  6
ByLayer
 62
256
 48
1.0
 60
0
370
-1
100
AcDbPolyline
 90
6
 70
0
 38
0.0
 39
0.0
 10
4847.60791015625
 20
2169.880859375
 40
0.0
 41
0.0
 42
-0.481551710009716
 10
4862.22802734375
 20
2188.22094726563
 40
0.0
 41
0.0
 42
0.0
 10
4902.22802734375
 20
2188.22094726563
 40
0.0
 41
0.0
 42
0.0
 10
4902.22802734375
 20
2158.22094726563
 40
0.0
 41
0.0
 42
0.0
 10
4862.22802734375
 20
2158.22094726563
 40
0.0
 41
0.0
 42
-0.349810777001246
 10
4847.60791015625
 20
2169.880859375
 40
0.0
 41
0.0
 42
0.0
210
0.0
220
0.0
230
1.0
  0
LWPOLYLINE
  5
EB
330
36
100
AcDbEntity
  8
0
  6
ByLayer
 62
256
 48
1.0
 60
0
370
-1
100
AcDbPolyline
 90
3
 70
0
 38
0.0
 39
0.0
 10
4854.72802734375
 20
2173.22094726563
 40
0.0
 41
0.0
 42
1.00003255261329
 10
4869.72802734375
 20
2173.22094726563
 40
0.0
 41
0.0
 42
0.999934897952334
 10
4854.72802734375
 20
2173.22094726563
 40
0.0
 41
0.0
 42
0.0
210
0.0
220
0.0
230
1.0
  0
LWPOLYLINE
  5
EC
330
36
100
AcDbEntity
  8
0
  6
ByLayer
 62
256
 48
1.0
 60
0
370
-1
100
AcDbPolyline
 90
6
 70
0
 38
0.0
 39
0.0
 10
4910.0947265625
 20
2169.880859375
 40
0.0
 41
0.0
 42
-0.481551710009716
 10
4924.71484375
 20
2188.22094726563
 40
0.0
 41
0.0
 42
0.0
 10
4964.71484375
 20
2188.22094726563
 40
0.0
 41
0.0
 42
0.0
 10
4964.71484375
 20
2158.22094726563
 40
0.0
 41
0.0
 42
0.0
 10
4924.71484375
 20
2158.22094726563
 40
0.0
 41
0.0
 42
-0.349778774597273
 10
4910.0947265625
 20
2169.880859375
 40
0.0
 41
0.0
 42
0.0
210
0.0
220
0.0
230
1.0
  0
LWPOLYLINE
  5
ED
330
36
100
AcDbEntity
  8
0
  6
ByLayer
 62
256
 48
1.0
 60
0
370
-1
100
AcDbPolyline
 90
3
 70
0
 38
0.0
 39
0.0
 10
4917.21484375
 20
2173.22094726563
 40
0.0
 41
0.0
 42
1.00003255261315
 10
4932.21484375
 20
2173.22094726563
 40
0.0
 41
0.0
 42
0.999967448446348
 10
4917.21484375
 20
2173.22094726563
 40
0.0
 41
0.0
 42
0.0
210
0.0
220
0.0
230
1.0
  0
LWPOLYLINE
  5
EE
330
36
100
AcDbEntity
  8
0
  6
ByLayer
 62
256
 48
1.0
 60
0
370
-1
100
AcDbPolyline
 90
3
 70
0
 38
0.0
 39
0.0
 10
4799.35107421875
 20
2429.95922851563
 40
0.0
 41
0.0
 42
-1.00002633529718
 10
4816.98486328125
 20
2454.22973632813
 40
0.0
 41
0.0
 42
-0.999964098836957
 10
4799.35107421875
 20
2429.95922851563
 40
0.0
 41
0.0
 42
0.0
210
0.0
220
0.0
230
1.0
  0
LWPOLYLINE
  5
EF
330
36
100
AcDbEntity
  8
0
  6
ByLayer
 62
256
 48
1.0
 60
0
370
-1
100
AcDbPolyline
 90
3
 70
0
 38
0.0
 39
0.0
 10
4944.14794921875
 20
2439.384765625
 40
0.0
 41
0.0
 42
-1.00002633529718
 10
4961.78173828125
 20
2463.6552734375
 40
0.0
 41
0.0
 42
-0.999973665396352
 10
4944.14794921875
 20
2439.384765625
 40
0.0
 41
0.0
 42
0.0
210
0.0
220
0.0
230
1.0
  0
LWPOLYLINE
  5
F0
330
36
100
AcDbEntity
  8
0
  6
ByLayer
 62
256
 48
1.0
 60
0
370
-1
100
AcDbPolyline
 90
3
 70
0
 38
0.0
 39
0.0
 10
4891.1533203125
 20
2338.82983398438
 40
0.0
 41
0.0
 42
-1.00002633529718
 10
4908.787109375
 20
2363.10034179688
 40
0.0
 41
0.0
 42
-0.999973665396352
 10
4891.1533203125
 20
2338.82983398438
 40
0.0
 41
0.0
 42
0.0
210
0.0
220
0.0
230
1.0
  0
LWPOLYLINE
  5
F1
330
36
100
AcDbEntity
  8
0
  6
ByLayer
 62
256
 48
1.0
 60
0
370
-1
100
AcDbPolyline
 90
3
 70
0
 38
0.0
 39
0.0
 10
4966.0087890625
 20
2273.5498046875
 40
0.0
 41
0.0
 42
-1.00002633529718
 10
4983.642578125
 20
2297.8203125
 40
0.0
 41
0.0
 42
-1.0
 10
4966.0087890625
 20
2273.5498046875
 40
0.0
 41
0.0
 42
0.0
210
0.0
220
0.0
230
1.0
  0
LWPOLYLINE
  5
F2
330
36
100
AcDbEntity
  8
0
  6
ByLayer
 62
256
 48
1.0
 60
0
370
-1
100
AcDbPolyline
 90
3
 70
0
 38
0.0
 39
0.0
 10
4888.73583984375
 20
2236.12182617188
 40
0.0
 41
0.0
 42
-1.00002633529718
 10
4906.36962890625
 20
2260.39233398438
 40
0.0
 41
0.0
 42
-0.999964098836957
 10
4888.73583984375
 20
2236.12182617188
 40
0.0
 41
0.0
 42
0.0
210
0.0
220
0.0
230
1.0
  0
ENDSEC
  0
SECTION
  2
OBJECTS
  0
DICTIONARY
  5
A
330
0
100
AcDbDictionary
280
0
281
0
  3
ACAD_COLOR
350
B
  3
ACAD_GROUP
350
C
  3
ACAD_LAYOUT
350
D
  3
ACAD_MATERIAL
350
E
  3
ACAD_SORTENTS
350
F
  3
ACAD_MLEADERSTYLE
350
10
  3
ACAD_MLINESTYLE
350
14
  3
ACAD_TABLESTYLE
350
16
  3
ACAD_PLOTSETTINGS
350
17
  3
AcDbVariableDictionary
350
18
  3
ACAD_SCALELIST
350
19
  3
ACAD_VISUALSTYLE
350
2B
  3
ACAD_FIELDLIST
350
2C
  3
ACAD_IMAGE_DICT
350
2D
  3
ACAD_PDFDEFINITIONS
350
2E
  0
DICTIONARY
  5
B
330
A
100
AcDbDictionary
280
0
281
0
  0
DICTIONARY
  5
C
330
A
100
AcDbDictionary
280
0
281
0
  0
DICTIONARY
  5
D
330
A
100
AcDbDictionary
280
0
281
0
  3
Model
350
35
  0
DICTIONARY
  5
E
330
A
100
AcDbDictionary
280
0
281
0
  0
DICTIONARY
  5
F
330
A
100
AcDbDictionary
280
0
281
0
  0
DICTIONARY
  5
10
330
A
100
AcDbDictionary
280
0
281
0
  3
Standard
350
11
  0
DICTIONARY
  5
14
330
A
100
AcDbDictionary
280
0
281
0
  3
Standard
350
15
  0
DICTIONARY
  5
16
330
A
100
AcDbDictionary
280
0
281
0
  0
DICTIONARY
  5
17
330
A
100
AcDbDictionary
280
0
281
0
  0
DICTIONARY
  5
18
330
A
100
AcDbDictionary
280
0
281
0
  0
DICTIONARY
  5
19
330
A
100
AcDbDictionary
280
0
281
0
  3
A0
350
1A
  3
A1
350
1B
  3
A2
350
1C
  3
A3
350
1D
  3
A4
350
1E
  3
A5
350
1F
  3
A6
350
20
  3
A7
350
21
  3
A8
350
22
  3
A9
350
23
  3
B0
350
24
  3
B1
350
25
  3
B2
350
26
  3
B3
350
27
  3
B4
350
28
  3
B5
350
29
  3
B6
350
2A
  0
DICTIONARY
  5
2B
330
A
100
AcDbDictionary
280
0
281
0
  0
DICTIONARY
  5
2C
330
A
100
AcDbDictionary
280
0
281
0
  0
DICTIONARY
  5
2D
330
A
100
AcDbDictionary
280
0
281
0
  0
DICTIONARY
  5
2E
330
A
100
AcDbDictionary
280
0
281
0
  0
LAYOUT
  5
35
330
D
100
AcDbPlotSettings
  1
none_device
  4
ISO_A4_(210.00_x_297.00_MM)
 40
0.0
 41
0.0
 42
0.0
 43
0.0
 44
0.0
 45
0.0
 46
0.0
 47
0.0
 48
0.0
 49
0.0
140
0.0
141
0.0
142
1.0
143
1.0
 70
688
 72
1
 73
0
 74
1
 75
0
 76
0
 77
0
 78
300
147
1.0
148
0.0
149
0.0
100
AcDbLayout
  1
Model
 71
0
 10
-20.0
 20
-7.5
 11
277.0
 21
202.5
 12
0.0
 22
0.0
 32
0.0
 13
0.0
 23
0.0
 33
0.0
 14
25.7
 24
19.5
 34
0.0
 15
231.3
 25
175.5
 35
0.0
 16
1.0
 26
0.0
 36
0.0
 17
0.0
 27
1.0
 37
0.0
146
0.0
 76
0
330
36
  0
MLEADERSTYLE
  5
11
330
10
100
AcDbMLeaderStyle
179
2
170
0
171
0
172
0
 90
0
 40
0.0
 41
0.0
173
0
 91
-1056964608
340
13
 92
0
290
0
 42
0.0
291
0
 43
0.0
 44
0.0
342
12
174
0
178
0
175
0
176
0
 93
-1056964608
 45
0.0
292
0
297
0
 46
0.0
 94
-1056964608
 47
0.0
 49
0.0
140
0.0
293
0
141
0.0
294
0
177
0
142
0.0
295
0
296
0
143
0.0
271
0
272
0
273
0
298
0
  0
MLINESTYLE
  5
15
330
14
100
AcDbMlineStyle
  2
Standard
 70
0
 62
0
 51
90.0
 52
90.0
 71
0
  0
SCALE
  5
1A
330
19
100
AcDbScale
 70
0
300
A0
140
1.0
141
1.0
290
1
  0
SCALE
  5
1B
330
19
100
AcDbScale
 70
0
300
A1
140
1.0
141
2.0
290
0
  0
SCALE
  5
1C
330
19
100
AcDbScale
 70
0
300
A2
140
1.0
141
4.0
290
0
  0
SCALE
  5
1D
330
19
100
AcDbScale
 70
0
300
A3
140
1.0
141
5.0
290
0
  0
SCALE
  5
1E
330
19
100
AcDbScale
 70
0
300
A4
140
1.0
141
8.0
290
0
  0
SCALE
  5
1F
330
19
100
AcDbScale
 70
0
300
A5
140
1.0
141
10.0
290
0
  0
SCALE
  5
20
330
19
100
AcDbScale
 70
0
300
A6
140
1.0
141
16.0
290
0
  0
SCALE
  5
21
330
19
100
AcDbScale
 70
0
300
A7
140
1.0
141
20.0
290
0
  0
SCALE
  5
22
330
19
100
AcDbScale
 70
0
300
A8
140
1.0
141
30.0
290
0
  0
SCALE
  5
23
330
19
100
AcDbScale
 70
0
300
A9
140
1.0
141
40.0
290
0
  0
SCALE
  5
24
330
19
100
AcDbScale
 70
0
300
B0
140
1.0
141
50.0
290
0
  0
SCALE
  5
25
330
19
100
AcDbScale
 70
0
300
B1
140
1.0
141
100.0
290
0
  0
SCALE
  5
26
330
19
100
AcDbScale
 70
0
300
B2
140
2.0
141
1.0
290
0
  0
SCALE
  5
27
330
19
100
AcDbScale
 70
0
300
B3
140
4.0
141
1.0
290
0
  0
SCALE
  5
28
330
19
100
AcDbScale
 70
0
300
B4
140
8.0
141
1.0
290
0
  0
SCALE
  5
29
330
19
100
AcDbScale
 70
0
300
B5
140
10.0
141
1.0
290
0
  0
SCALE
  5
2A
330
19
100
AcDbScale
 70
0
300
B6
140
100.0
141
1.0
290
0
  0
ENDSEC
  0
EOF
