  0
SECTION
  2
HEADER
  9
$ANGBASE
 50
0.0
  9
$ANGDIR
 70
1
  9
$AUNITS
 70
0
  9
$AUPREC
 70
0
  9
$ATTMODE
 70
1
  9
$DWGCODEPAGE
  3
ANSI_1252
  9
$TDCREATE
 40
2461185.76582543
  9
$CECOLOR
 62
0
  9
$CELTSCALE
 40
1.0
  9
$CELWEIGHT
370
-1
  9
$CLAYER
  8
0
  9
$CELTYPE
  6
ByLayer
  9
$CMLJUST
 70
0
  9
$CMLSCALE
 40
20.0
  9
$CMLSTYLE
  2
Standard
  9
$DIMSTYLE
  2
Standard
  9
$LWDISPLAY
290
0
  9
$EXTNAMES
290
1
  9
$HANDSEED
  5
96
  9
$INSUNITS
 70
0
  9
$LUNITS
 70
2
  9
$LUPREC
 70
4
  9
$LTSCALE
 40
1.0
  9
$MIRRTEXT
 70
0
  9
$INSBASE
 10
0.0
 20
0.0
 30
0.0
  9
$SPLINESEGS
 70
8
  9
$PSLTSCALE
 70
1
  9
$PDMODE
 70
0
  9
$PDSIZE
 40
0.0
  9
$PLINEGEN
 70
0
  9
$SURFU
 70
6
  9
$SURFV
 70
6
  9
$TEXTSIZE
 40
2.5
  9
$TEXTSTYLE
  7
Standard
  9
$TDINDWG
 40
0.0
  9
$TDUCREATE
 40
2461185.6824921
  9
$TDUUPDATE
 40
2461185.6824921
  9
$TDUPDATE
 40
2461185.76582543
  9
$ACADVER
  1
AC1015
  0
ENDSEC
  0
SECTION
  2
CLASSES
  0
CLASS
  1
ACDBDICTIONARYWDFLT
  2
AcDbDictionaryWithDefault
  3
ObjectDBX Classes
 90
32768
 91
0
280
0
281
0
  0
CLASS
  1
ACDBPLACEHOLDER
  2
AcDbPlaceHolder
  3
ObjectDBX Classes
 90
0
 91
0
280
0
281
0
  0
CLASS
  1
LAYOUT
  2
AcDbLayout
  3
ObjectDBX Classes
 90
0
 91
1
280
0
281
0
  0
CLASS
  1
DICTIONARYVAR
  2
AcDbDictionaryVar
  3
ObjectDBX Classes
 90
0
 91
0
280
0
281
0
  0
CLASS
  1
TABLESTYLE
  2
AcDbTableStyle
  3
ObjectDBX Classes
 90
4095
 91
0
280
0
281
0
  0
CLASS
  1
MATERIAL
  2
AcDbMaterial
  3
ObjectDBX Classes
 90
1153
 91
0
280
0
281
0
  0
CLASS
  1
VISUALSTYLE
  2
AcDbVisualStyle
  3
ObjectDBX Classes
 90
4095
 91
0
280
0
281
0
  0
CLASS
  1
SCALE
  2
AcDbScale
  3
ObjectDBX Classes
 90
1153
 91
17
280
0
281
0
  0
CLASS
  1
MLEADERSTYLE
  2
AcDbMLeaderStyle
  3
ObjectDBX Classes
 90
4095
 91
1
280
0
281
0
  0
CLASS
  1
CELLSTYLEMAP
  2
AcDbCellStyleMap
  3
ObjectDBX Classes
 90
1152
 91
0
280
0
281
0
  0
CLASS
  1
EXACXREFPANELOBJECT
  2
ExAcXREFPanelObject
  3
ObjectDBX Classes
 90
1025
 91
0
280
0
281
0
  0
CLASS
  1
NPOCOLLECTION
  2
AcDbImpNonPersistentObjectsCollection
  3
ObjectDBX Classes
 90
1153
 91
0
280
0
281
0
  0
CLASS
  1
LAYER_INDEX
  2
AcDbLayerIndex
  3
ObjectDBX Classes
 90
0
 91
0
280
0
281
0
  0
CLASS
  1
SPATIAL_INDEX
  2
AcDbSpatialIndex
  3
ObjectDBX Classes
 90
0
 91
0
280
0
281
0
  0
CLASS
  1
IDBUFFER
  2
AcDbIdBuffer
  3
ObjectDBX Classes
 90
32768
 91
0
280
0
281
0
  0
CLASS
  1
ACDBSECTIONVIEWSTYLE
  2
AcDbSectionViewStyle
  3
ObjectDBX Classes
 90
1025
 91
0
280
0
281
0
  0
CLASS
  1
ACDBDETAILVIEWSTYLE
  2
AcDbDetailViewStyle
  3
ObjectDBX Classes
 90
1025
 91
0
280
0
281
0
  0
CLASS
  1
MESH
  2
AcDbSubDMesh
  3
ObjectDBX Classes
 90
0
 91
0
280
0
281
0
  0
CLASS
  1
SORTENTSTABLE
  2
AcDbSortentsTable
  3
ObjectDBX Classes
 90
0
 91
0
280
0
281
0
  0
CLASS
  1
ACDB_TEXTOBJECTCONTEXTDATA_CLASS
  2
AcDbTextObjectContextData
  3
ObjectDBX Classes
 90
1153
 91
0
280
0
281
0
  0
CLASS
  1
WIPEOUT
  2
AcDbWipeout
  3
WipeOut
 90
32895
 91
0
280
0
281
0
  0
CLASS
  1
WIPEOUTVARIABLES
  2
AcDbWipeoutVariables
  3
WipeOut
 90
32768
 91
0
280
0
281
0
  0
CLASS
  1
DIMASSOC
  2
AcDbDimAssoc
  3
AcDbDimAssoc
 90
0
 91
0
280
0
281
0
  0
CLASS
  1
ACAD_TABLE
  2
AcDbTable
  3
ObjectDBX Classes
 90
1025
 91
0
280
0
281
0
  0
CLASS
  1
TABLECONTENT
  2
AcDbTableContent
  3
ObjectDBX Classes
 90
1152
 91
0
280
0
281
0
  0
CLASS
  1
TABLEGEOMETRY
  2
AcDbTableGeometry
  3
ObjectDBX Classes
 90
1152
 91
0
280
0
281
0
  0
CLASS
  1
IMAGE
  2
AcDbRasterImage
  3
ISM
 90
32895
 91
0
280
0
281
0
  0
CLASS
  1
IMAGEDEF
  2
AcDbRasterImageDef
  3
ISM
 90
0
 91
0
280
0
281
0
  0
CLASS
  1
DBCOLOR
  2
AcDbColor
  3
ObjectDBX Classes
 90
0
 91
0
280
0
281
0
  0
CLASS
  1
GEODATA
  2
AcDbGeoData
  3
ObjectDBX Classes
 90
4095
 91
0
280
0
281
0
  0
CLASS
  1
MULTILEADER
  2
AcDbMLeader
  3
ObjectDBX Classes
 90
1025
 91
0
280
0
281
0
  0
CLASS
  1
PDFUNDERLAY
  2
AcDbPdfReference
  3
ObjectDBX Classes
 90
4095
 91
0
280
0
281
0
  0
CLASS
  1
PDFDEFINITION
  2
AcDbPdfDefinition
  3
ObjectDBX Classes
 90
1153
 91
0
280
0
281
0
  0
CLASS
  1
RASTERVARIABLES
  2
AcDbRasterVariables
  3
ISM
 90
0
 91
0
280
0
281
0
  0
ENDSEC
  0
SECTION
  2
TABLES
  0
TABLE
  2
VPORT
  5
8
330
0
100
AcDbSymbolTable
 70
1
  0
VPORT
  5
34
330
8
100
AcDbSymbolTableRecord
100
AcDbViewportTableRecord
  2
*Active
 70
0
 10
0.0
 20
0.0
 11
1.0
 21
1.0
 12
0.0
 22
0.0
 13
0.0
 23
0.0
 14
0.5
 24
0.5
 15
10.0
 25
10.0
 16
0.0
 26
0.0
 36
1.0
 17
0.0
 27
0.0
 37
0.0
 40
10.0
 41
1.0
 75
0
 76
1
  0
ENDTAB
  0
TABLE
  2
LTYPE
  5
5
330
0
100
AcDbSymbolTable
 70
3
  0
LTYPE
  5
13
330
5
100
AcDbSymbolTableRecord
100
AcDbLinetypeTableRecord
  2
ByLayer
 70
0
 72
65
 73
0
 40
0.0
  0
LTYPE
  5
30
330
5
100
AcDbSymbolTableRecord
100
AcDbLinetypeTableRecord
  2
ByBlock
 70
0
 72
65
 73
0
 40
0.0
  0
LTYPE
  5
31
330
5
100
AcDbSymbolTableRecord
100
AcDbLinetypeTableRecord
  2
Continuous
 70
0
 72
65
 73
0
 40
0.0
  0
ENDTAB
  0
TABLE
  2
LAYER
  5
2
330
0
100
AcDbSymbolTable
 70
1
  0
LAYER
  5
32
330
2
100
AcDbSymbolTableRecord
100
AcDbLayerTableRecord
  2
0
 70
0
 62
7
  6
Continuous
290
1
370
-3
390
0
  0
ENDTAB
  0
TABLE
  2
STYLE
  5
4
330
0
100
AcDbSymbolTable
 70
1
  0
STYLE
  5
12
330
4
100
AcDbSymbolTableRecord
100
AcDbTextStyleTableRecord
  2
Standard
 70
0
 40
0.0
 41
1.0
 42
0.0
 50
0.0
 71
0
  0
ENDTAB
  0
TABLE
  2
VIEW
  5
6
330
0
100
AcDbSymbolTable
 70
0
  0
ENDTAB
  0
TABLE
  2
UCS
  5
7
330
0
100
AcDbSymbolTable
 70
0
  0
ENDTAB
  0
TABLE
  2
APPID
  5
9
330
0
100
AcDbSymbolTable
 70
1
  0
APPID
  5
2F
330
9
100
AcDbSymbolTableRecord
100
AcDbRegAppTableRecord
  2
ACAD
 70
0
  0
ENDTAB
  0
TABLE
  2
DIMSTYLE
  5
3
330
0
100
AcDbSymbolTable
 70
1
100
AcDbDimStyleTable
  0
DIMSTYLE
105
33
330
3
100
AcDbSymbolTableRecord
100
AcDbDimStyleTableRecord
  2
Standard
 70
0
  3
<>
  4
[]
 40
1.0
 41
0.18
 42
0.625
 43
3.75
 44
1.25
 45
0.0
 46
0.0
 47
0.0
 48
0.0
 49
1.0
 50
45.0
 70
0
 90
0
140
0.18
141
0.09
142
0.0
143
25.4
144
1.0
145
0.0
146
1.0
147
0.625
148
0.0
 71
0
 72
0
 73
0
 74
0
 75
0
 76
0
 77
1
 78
8
 79
0
170
0
171
3
172
0
173
1
174
0
175
0
176
0
177
0
178
0
179
0
271
2
272
2
273
2
274
3
275
0
276
0
277
2
278
46
279
0
280
0
281
0
282
0
283
0
284
8
285
0
286
0
287
0
288
0
289
3
290
0
340
12
371
-2
372
-2
  0
ENDTAB
  0
TABLE
  2
BLOCK_RECORD
  5
1
330
0
100
AcDbSymbolTable
 70
1
  0
BLOCK_RECORD
  5
36
330
1
100
AcDbSymbolTableRecord
100
AcDbBlockTableRecord
  2
*Model_Space
 70
0
340
35
 70
0
280
0
281
1
  0
ENDTAB
  0
ENDSEC
  0
SECTION
  2
BLOCKS
  0
BLOCK
  5
37
330
36
100
AcDbEntity
  8
0
  6
ByLayer
 62
256
 48
1.0
 60
0
370
-1
100
AcDbBlockBegin
  2
*Model_Space
 70
0
 10
0.0
 20
0.0
 30
0.0
  3
*Model_Space
  0
ENDBLK
  5
38
330
36
100
AcDbEntity
  8
0
100
AcDbBlockEnd
  0
ENDSEC
  0
SECTION
  2
ENTITIES
  0
LWPOLYLINE
  5
39
330
36
100
AcDbEntity
  8
0
  6
ByLayer
 62
256
 48
1.0
 60
0
370
-1
100
AcDbPolyline
 90
9
 70
0
 38
0.0
 39
0.0
 10
5.0
 20
55.0
 40
0.0
 41
0.0
 42
0.0
 10
5.0
 20
1555.0
 40
0.0
 41
0.0
 42
0.0
 10
55.0
 20
1605.0
 40
0.0
 41
0.0
 42
0.0
 10
1555.0
 20
1605.0
 40
0.0
 41
0.0
 42
0.0
 10
1605.0
 20
1555.0
 40
0.0
 41
0.0
 42
0.0
 10
1605.0
 20
55.0
 40
0.0
 41
0.0
 42
0.0
 10
1555.0
 20
5.0
 40
0.0
 41
0.0
 42
0.0
 10
55.0
 20
5.0
 40
0.0
 41
0.0
 42
0.0
 10
5.0
 20
55.0
 40
0.0
 41
0.0
 42
0.0
210
0.0
220
0.0
230
1.0
  0
LWPOLYLINE
  5
3A
330
36
100
AcDbEntity
  8
0
  6
ByLayer
 62
256
 48
1.0
 60
0
370
-1
100
AcDbPolyline
 90
3
 70
0
 38
0.0
 39
0.0
 10
525.0
 20
605.0
 40
0.0
 41
0.0
 42
1.0
 10
685.0
 20
605.0
 40
0.0
 41
0.0
 42
1.0
 10
525.0
 20
605.0
 40
0.0
 41
0.0
 42
0.0
210
0.0
220
0.0
230
1.0
  0
LWPOLYLINE
  5
3B
330
36
100
AcDbEntity
  8
0
  6
ByLayer
 62
256
 48
1.0
 60
0
370
-1
100
AcDbPolyline
 90
3
 70
0
 38
0.0
 39
0.0
 10
125.0
 20
605.0
 40
0.0
 41
0.0
 42
1.0
 10
285.0
 20
605.0
 40
0.0
 41
0.0
 42
1.0
 10
125.0
 20
605.0
 40
0.0
 41
0.0
 42
0.0
210
0.0
220
0.0
230
1.0
  0
LWPOLYLINE
  5
3C
330
36
100
AcDbEntity
  8
0
  6
ByLayer
 62
256
 48
1.0
 60
0
370
-1
100
AcDbPolyline
 90
3
 70
0
 38
0.0
 39
0.0
 10
525.0
 20
205.0
 40
0.0
 41
0.0
 42
1.00000019073488
 10
685.0
 20
205.0
 40
0.0
 41
0.0
 42
1.00000019073488
 10
525.0
 20
205.0
 40
0.0
 41
0.0
 42
0.0
210
0.0
220
0.0
230
1.0
  0
LWPOLYLINE
  5
3D
330
36
100
AcDbEntity
  8
0
  6
ByLayer
 62
256
 48
1.0
 60
0
370
-1
100
AcDbPolyline
 90
3
 70
0
 38
0.0
 39
0.0
 10
525.0
 20
1005.0
 40
0.0
 41
0.0
 42
1.0
 10
685.0
 20
1005.0
 40
0.0
 41
0.0
 42
1.0
 10
525.0
 20
1005.0
 40
0.0
 41
0.0
 42
0.0
210
0.0
220
0.0
230
1.0
  0
LWPOLYLINE
  5
3E
330
36
100
AcDbEntity
  8
0
  6
ByLayer
 62
256
 48
1.0
 60
0
370
-1
100
AcDbPolyline
 90
3
 70
0
 38
0.0
 39
0.0
 10
125.0
 20
205.0
 40
0.0
 41
0.0
 42
1.0
 10
285.0
 20
205.0
 40
0.0
 41
0.0
 42
1.00000009536744
 10
125.0
 20
205.0
 40
0.0
 41
0.0
 42
0.0
210
0.0
220
0.0
230
1.0
  0
LWPOLYLINE
  5
3F
330
36
100
AcDbEntity
  8
0
  6
ByLayer
 62
256
 48
1.0
 60
0
370
-1
100
AcDbPolyline
 90
3
 70
0
 38
0.0
 39
0.0
 10
125.0
 20
1005.0
 40
0.0
 41
0.0
 42
1.0
 10
285.0
 20
1005.0
 40
0.0
 41
0.0
 42
1.0
 10
125.0
 20
1005.0
 40
0.0
 41
0.0
 42
0.0
210
0.0
220
0.0
230
1.0
  0
LWPOLYLINE
  5
40
330
36
100
AcDbEntity
  8
0
  6
ByLayer
 62
256
 48
1.0
 60
0
370
-1
100
AcDbPolyline
 90
3
 70
0
 38
0.0
 39
0.0
 10
525.0
 20
1405.0
 40
0.0
 41
0.0
 42
1.0
 10
685.0
 20
1405.0
 40
0.0
 41
0.0
 42
1.0
 10
525.0
 20
1405.0
 40
0.0
 41
0.0
 42
0.0
210
0.0
220
0.0
230
1.0
  0
LWPOLYLINE
  5
41
330
36
100
AcDbEntity
  8
0
  6
ByLayer
 62
256
 48
1.0
 60
0
370
-1
100
AcDbPolyline
 90
3
 70
0
 38
0.0
 39
0.0
 10
125.0
 20
1405.0
 40
0.0
 41
0.0
 42
1.0
 10
285.0
 20
1405.0
 40
0.0
 41
0.0
 42
1.0
 10
125.0
 20
1405.0
 40
0.0
 41
0.0
 42
0.0
210
0.0
220
0.0
230
1.0
  0
LWPOLYLINE
  5
42
330
36
100
AcDbEntity
  8
0
  6
ByLayer
 62
256
 48
1.0
 60
0
370
-1
100
AcDbPolyline
 90
3
 70
0
 38
0.0
 39
0.0
 10
1324.98999023438
 20
605.0
 40
0.0
 41
0.0
 42
1.0
 10
1484.98999023438
 20
605.0
 40
0.0
 41
0.0
 42
1.0
 10
1324.98999023438
 20
605.0
 40
0.0
 41
0.0
 42
0.0
210
0.0
220
0.0
230
1.0
  0
LWPOLYLINE
  5
43
330
36
100
AcDbEntity
  8
0
  6
ByLayer
 62
256
 48
1.0
 60
0
370
-1
100
AcDbPolyline
 90
3
 70
0
 38
0.0
 39
0.0
 10
1324.98999023438
 20
205.0
 40
0.0
 41
0.0
 42
1.00000019073488
 10
1484.98999023438
 20
205.0
 40
0.0
 41
0.0
 42
1.00000009536744
 10
1324.98999023438
 20
205.0
 40
0.0
 41
0.0
 42
0.0
210
0.0
220
0.0
230
1.0
  0
LWPOLYLINE
  5
44
330
36
100
AcDbEntity
  8
0
  6
ByLayer
 62
256
 48
1.0
 60
0
370
-1
100
AcDbPolyline
 90
3
 70
0
 38
0.0
 39
0.0
 10
1324.98999023438
 20
1005.0
 40
0.0
 41
0.0
 42
1.0
 10
1484.98999023438
 20
1005.0
 40
0.0
 41
0.0
 42
1.0
 10
1324.98999023438
 20
1005.0
 40
0.0
 41
0.0
 42
0.0
210
0.0
220
0.0
230
1.0
  0
LWPOLYLINE
  5
45
330
36
100
AcDbEntity
  8
0
  6
ByLayer
 62
256
 48
1.0
 60
0
370
-1
100
AcDbPolyline
 90
3
 70
0
 38
0.0
 39
0.0
 10
1324.98999023438
 20
1405.0
 40
0.0
 41
0.0
 42
1.0
 10
1484.98999023438
 20
1405.0
 40
0.0
 41
0.0
 42
1.0
 10
1324.98999023438
 20
1405.0
 40
0.0
 41
0.0
 42
0.0
210
0.0
220
0.0
230
1.0
  0
LWPOLYLINE
  5
46
330
36
100
AcDbEntity
  8
0
  6
ByLayer
 62
256
 48
1.0
 60
0
370
-1
100
AcDbPolyline
 90
3
 70
0
 38
0.0
 39
0.0
 10
925.0
 20
1405.0
 40
0.0
 41
0.0
 42
0.988883198035637
 10
1084.98999023438
 20
1405.0
 40
0.0
 41
0.0
 42
0.988883198035637
 10
925.0
 20
1405.0
 40
0.0
 41
0.0
 42
0.0
210
0.0
220
0.0
230
1.0
  0
LWPOLYLINE
  5
47
330
36
100
AcDbEntity
  8
0
  6
ByLayer
 62
256
 48
1.0
 60
0
370
-1
100
AcDbPolyline
 90
3
 70
0
 38
0.0
 39
0.0
 10
925.0
 20
1005.0
 40
0.0
 41
0.0
 42
0.988880934664059
 10
1084.98999023438
 20
1005.0
 40
0.0
 41
0.0
 42
0.988883952493994
 10
925.0
 20
1005.0
 40
0.0
 41
0.0
 42
0.0
210
0.0
220
0.0
230
1.0
  0
LWPOLYLINE
  5
48
330
36
100
AcDbEntity
  8
0
  6
ByLayer
 62
256
 48
1.0
 60
0
370
-1
100
AcDbPolyline
 90
3
 70
0
 38
0.0
 39
0.0
 10
925.0
 20
205.0
 40
0.0
 41
0.0
 42
0.988881311892292
 10
1084.98999023438
 20
205.0
 40
0.0
 41
0.0
 42
0.988882443577862
 10
925.0
 20
205.0
 40
0.0
 41
0.0
 42
0.0
210
0.0
220
0.0
230
1.0
  0
LWPOLYLINE
  5
49
330
36
100
AcDbEntity
  8
0
  6
ByLayer
 62
256
 48
1.0
 60
0
370
-1
100
AcDbPolyline
 90
3
 70
0
 38
0.0
 39
0.0
 10
925.0
 20
605.0
 40
0.0
 41
0.0
 42
0.988880934664059
 10
1084.98999023438
 20
605.0
 40
0.0
 41
0.0
 42
0.98888168912067
 10
925.0
 20
605.0
 40
0.0
 41
0.0
 42
0.0
210
0.0
220
0.0
230
1.0
  0
LWPOLYLINE
  5
4A
330
36
100
AcDbEntity
  8
0
  6
ByLayer
 62
256
 48
1.0
 60
0
370
-1
100
AcDbPolyline
 90
9
 70
0
 38
0.0
 39
0.0
 10
1612.5
 20
55.0
 40
0.0
 41
0.0
 42
0.0
 10
1612.5
 20
1555.0
 40
0.0
 41
0.0
 42
0.0
 10
1662.5
 20
1605.0
 40
0.0
 41
0.0
 42
0.0
 10
3162.5
 20
1605.0
 40
0.0
 41
0.0
 42
0.0
 10
3212.5
 20
1555.0
 40
0.0
 41
0.0
 42
0.0
 10
3212.5
 20
55.0
 40
0.0
 41
0.0
 42
0.0
 10
3162.5
 20
5.0
 40
0.0
 41
0.0
 42
0.0
 10
1662.5
 20
5.0
 40
0.0
 41
0.0
 42
0.0
 10
1612.5
 20
55.0
 40
0.0
 41
0.0
 42
0.0
210
0.0
220
0.0
230
1.0
  0
LWPOLYLINE
  5
4B
330
36
100
AcDbEntity
  8
0
  6
ByLayer
 62
256
 48
1.0
 60
0
370
-1
100
AcDbPolyline
 90
3
 70
0
 38
0.0
 39
0.0
 10
2132.5
 20
605.0
 40
0.0
 41
0.0
 42
1.00000076293974
 10
2292.5
 20
605.0
 40
0.0
 41
0.0
 42
1.0000003814698
 10
2132.5
 20
605.0
 40
0.0
 41
0.0
 42
0.0
210
0.0
220
0.0
230
1.0
  0
LWPOLYLINE
  5
4C
330
36
100
AcDbEntity
  8
0
  6
ByLayer
 62
256
 48
1.0
 60
0
370
-1
100
AcDbPolyline
 90
3
 70
0
 38
0.0
 39
0.0
 10
1732.5
 20
605.0
 40
0.0
 41
0.0
 42
0.999999618530346
 10
1892.5
 20
605.0
 40
0.0
 41
0.0
 42
0.999999237060838
 10
1732.5
 20
605.0
 40
0.0
 41
0.0
 42
0.0
210
0.0
220
0.0
230
1.0
  0
LWPOLYLINE
  5
4D
330
36
100
AcDbEntity
  8
0
  6
ByLayer
 62
256
 48
1.0
 60
0
370
-1
100
AcDbPolyline
 90
3
 70
0
 38
0.0
 39
0.0
 10
2132.5
 20
205.0
 40
0.0
 41
0.0
 42
1.0000003814698
 10
2292.5
 20
205.0
 40
0.0
 41
0.0
 42
1.00000019073488
 10
2132.5
 20
205.0
 40
0.0
 41
0.0
 42
0.0
210
0.0
220
0.0
230
1.0
  0
LWPOLYLINE
  5
4E
330
36
100
AcDbEntity
  8
0
  6
ByLayer
 62
256
 48
1.0
 60
0
370
-1
100
AcDbPolyline
 90
3
 70
0
 38
0.0
 39
0.0
 10
2132.5
 20
1005.0
 40
0.0
 41
0.0
 42
1.00000076293974
 10
2292.5
 20
1005.0
 40
0.0
 41
0.0
 42
1.0000003814698
 10
2132.5
 20
1005.0
 40
0.0
 41
0.0
 42
0.0
210
0.0
220
0.0
230
1.0
  0
LWPOLYLINE
  5
4F
330
36
100
AcDbEntity
  8
0
  6
ByLayer
 62
256
 48
1.0
 60
0
370
-1
100
AcDbPolyline
 90
3
 70
0
 38
0.0
 39
0.0
 10
1732.5
 20
205.0
 40
0.0
 41
0.0
 42
0.999999809265155
 10
1892.5
 20
205.0
 40
0.0
 41
0.0
 42
0.999999618530346
 10
1732.5
 20
205.0
 40
0.0
 41
0.0
 42
0.0
210
0.0
220
0.0
230
1.0
  0
LWPOLYLINE
  5
50
330
36
100
AcDbEntity
  8
0
  6
ByLayer
 62
256
 48
1.0
 60
0
370
-1
100
AcDbPolyline
 90
3
 70
0
 38
0.0
 39
0.0
 10
1732.5
 20
1005.0
 40
0.0
 41
0.0
 42
0.999999618530346
 10
1892.5
 20
1005.0
 40
0.0
 41
0.0
 42
0.999999237060838
 10
1732.5
 20
1005.0
 40
0.0
 41
0.0
 42
0.0
210
0.0
220
0.0
230
1.0
  0
LWPOLYLINE
  5
51
330
36
100
AcDbEntity
  8
0
  6
ByLayer
 62
256
 48
1.0
 60
0
370
-1
100
AcDbPolyline
 90
3
 70
0
 38
0.0
 39
0.0
 10
2132.5
 20
1405.0
 40
0.0
 41
0.0
 42
1.0
 10
2292.5
 20
1405.0
 40
0.0
 41
0.0
 42
1.0
 10
2132.5
 20
1405.0
 40
0.0
 41
0.0
 42
0.0
210
0.0
220
0.0
230
1.0
  0
LWPOLYLINE
  5
52
330
36
100
AcDbEntity
  8
0
  6
ByLayer
 62
256
 48
1.0
 60
0
370
-1
100
AcDbPolyline
 90
3
 70
0
 38
0.0
 39
0.0
 10
1732.5
 20
1405.0
 40
0.0
 41
0.0
 42
1.0
 10
1892.5
 20
1405.0
 40
0.0
 41
0.0
 42
1.0
 10
1732.5
 20
1405.0
 40
0.0
 41
0.0
 42
0.0
210
0.0
220
0.0
230
1.0
  0
LWPOLYLINE
  5
53
330
36
100
AcDbEntity
  8
0
  6
ByLayer
 62
256
 48
1.0
 60
0
370
-1
100
AcDbPolyline
 90
3
 70
0
 38
0.0
 39
0.0
 10
2932.48999023438
 20
605.0
 40
0.0
 41
0.0
 42
0.999998474122258
 10
3092.48999023438
 20
605.0
 40
0.0
 41
0.0
 42
0.999998474122258
 10
2932.48999023438
 20
605.0
 40
0.0
 41
0.0
 42
0.0
210
0.0
220
0.0
230
1.0
  0
LWPOLYLINE
  5
54
330
36
100
AcDbEntity
  8
0
  6
ByLayer
 62
256
 48
1.0
 60
0
370
-1
100
AcDbPolyline
 90
3
 70
0
 38
0.0
 39
0.0
 10
2932.48999023438
 20
205.0
 40
0.0
 41
0.0
 42
0.999998664856848
 10
3092.48999023438
 20
205.0
 40
0.0
 41
0.0
 42
0.999998855591475
 10
2932.48999023438
 20
205.0
 40
0.0
 41
0.0
 42
0.0
210
0.0
220
0.0
230
1.0
  0
LWPOLYLINE
  5
55
330
36
100
AcDbEntity
  8
0
  6
ByLayer
 62
256
 48
1.0
 60
0
370
-1
100
AcDbPolyline
 90
3
 70
0
 38
0.0
 39
0.0
 10
2932.48999023438
 20
1005.0
 40
0.0
 41
0.0
 42
0.999998474122258
 10
3092.48999023438
 20
1005.0
 40
0.0
 41
0.0
 42
0.999998474122258
 10
2932.48999023438
 20
1005.0
 40
0.0
 41
0.0
 42
0.0
210
0.0
220
0.0
230
1.0
  0
LWPOLYLINE
  5
56
330
36
100
AcDbEntity
  8
0
  6
ByLayer
 62
256
 48
1.0
 60
0
370
-1
100
AcDbPolyline
 90
3
 70
0
 38
0.0
 39
0.0
 10
2932.48999023438
 20
1405.0
 40
0.0
 41
0.0
 42
0.999998474122258
 10
3092.48999023438
 20
1405.0
 40
0.0
 41
0.0
 42
0.999998474122258
 10
2932.48999023438
 20
1405.0
 40
0.0
 41
0.0
 42
0.0
210
0.0
220
0.0
230
1.0
  0
LWPOLYLINE
  5
57
330
36
100
AcDbEntity
  8
0
  6
ByLayer
 62
256
 48
1.0
 60
0
370
-1
100
AcDbPolyline
 90
3
 70
0
 38
0.0
 39
0.0
 10
2532.5
 20
1405.0
 40
0.0
 41
0.0
 42
0.988883198035618
 10
2692.48999023438
 20
1405.0
 40
0.0
 41
0.0
 42
0.988883198035618
 10
2532.5
 20
1405.0
 40
0.0
 41
0.0
 42
0.0
210
0.0
220
0.0
230
1.0
  0
LWPOLYLINE
  5
58
330
36
100
AcDbEntity
  8
0
  6
ByLayer
 62
256
 48
1.0
 60
0
370
-1
100
AcDbPolyline
 90
3
 70
0
 38
0.0
 39
0.0
 10
2532.5
 20
1005.0
 40
0.0
 41
0.0
 42
0.98888168912065
 10
2692.48999023438
 20
1005.0
 40
0.0
 41
0.0
 42
0.988883952493974
 10
2532.5
 20
1005.0
 40
0.0
 41
0.0
 42
0.0
210
0.0
220
0.0
230
1.0
  0
LWPOLYLINE
  5
59
330
36
100
AcDbEntity
  8
0
  6
ByLayer
 62
256
 48
1.0
 60
0
370
-1
100
AcDbPolyline
 90
3
 70
0
 38
0.0
 39
0.0
 10
2532.5
 20
205.0
 40
0.0
 41
0.0
 42
0.98888225496349
 10
2692.48999023438
 20
205.0
 40
0.0
 41
0.0
 42
0.988882443577843
 10
2532.5
 20
205.0
 40
0.0
 41
0.0
 42
0.0
210
0.0
220
0.0
230
1.0
  0
LWPOLYLINE
  5
5A
330
36
100
AcDbEntity
  8
0
  6
ByLayer
 62
256
 48
1.0
 60
0
370
-1
100
AcDbPolyline
 90
3
 70
0
 38
0.0
 39
0.0
 10
2532.5
 20
605.0
 40
0.0
 41
0.0
 42
0.98888168912065
 10
2692.48999023438
 20
605.0
 40
0.0
 41
0.0
 42
0.98888168912065
 10
2532.5
 20
605.0
 40
0.0
 41
0.0
 42
0.0
210
0.0
220
0.0
230
1.0
  0
LWPOLYLINE
  5
5B
330
36
100
AcDbEntity
  8
0
  6
ByLayer
 62
256
 48
1.0
 60
0
370
-1
100
AcDbPolyline
 90
9
 70
0
 38
0.0
 39
0.0
 10
3220.0
 20
55.0
 40
0.0
 41
0.0
 42
0.0
 10
3220.0
 20
1120.0
 40
0.0
 41
0.0
 42
0.0
 10
3270.0
 20
1170.0
 40
0.0
 41
0.0
 42
0.0
 10
4910.0
 20
1170.0
 40
0.0
 41
0.0
 42
0.0
 10
4960.0
 20
1120.0
 40
0.0
 41
0.0
 42
0.0
 10
4960.0
 20
55.0
 40
0.0
 41
0.0
 42
0.0
 10
4910.0
 20
5.0
 40
0.0
 41
0.0
 42
0.0
 10
3270.0
 20
5.0
 40
0.0
 41
0.0
 42
0.0
 10
3220.0
 20
55.0
 40
0.0
 41
0.0
 42
0.0
210
0.0
220
0.0
230
1.0
  0
LWPOLYLINE
  5
5C
330
36
100
AcDbEntity
  8
0
  6
ByLayer
 62
256
 48
1.0
 60
0
370
-1
100
AcDbPolyline
 90
3
 70
0
 38
0.0
 39
0.0
 10
4640.0
 20
287.5
 40
0.0
 41
0.0
 42
0.99999877929762
 10
4740.0
 20
287.5
 40
0.0
 41
0.0
 42
0.99999877929762
 10
4640.0
 20
287.5
 40
0.0
 41
0.0
 42
0.0
210
0.0
220
0.0
230
1.0
  0
LWPOLYLINE
  5
5D
330
36
100
AcDbEntity
  8
0
  6
ByLayer
 62
256
 48
1.0
 60
0
370
-1
100
AcDbPolyline
 90
3
 70
0
 38
0.0
 39
0.0
 10
4340.0
 20
287.5
 40
0.0
 41
0.0
 42
0.99999877929762
 10
4440.0
 20
287.5
 40
0.0
 41
0.0
 42
0.99999877929762
 10
4340.0
 20
287.5
 40
0.0
 41
0.0
 42
0.0
210
0.0
220
0.0
230
1.0
  0
LWPOLYLINE
  5
5E
330
36
100
AcDbEntity
  8
0
  6
ByLayer
 62
256
 48
1.0
 60
0
370
-1
100
AcDbPolyline
 90
3
 70
0
 38
0.0
 39
0.0
 10
4640.0
 20
887.5
 40
0.0
 41
0.0
 42
0.99999877929762
 10
4740.0
 20
887.5
 40
0.0
 41
0.0
 42
0.99999877929762
 10
4640.0
 20
887.5
 40
0.0
 41
0.0
 42
0.0
210
0.0
220
0.0
230
1.0
  0
LWPOLYLINE
  5
5F
330
36
100
AcDbEntity
  8
0
  6
ByLayer
 62
256
 48
1.0
 60
0
370
-1
100
AcDbPolyline
 90
3
 70
0
 38
0.0
 39
0.0
 10
4340.0
 20
887.5
 40
0.0
 41
0.0
 42
0.99999877929762
 10
4440.0
 20
887.5
 40
0.0
 41
0.0
 42
0.99999877929762
 10
4340.0
 20
887.5
 40
0.0
 41
0.0
 42
0.0
210
0.0
220
0.0
230
1.0
  0
LWPOLYLINE
  5
60
330
36
100
AcDbEntity
  8
0
  6
ByLayer
 62
256
 48
1.0
 60
0
370
-1
100
AcDbPolyline
 90
3
 70
0
 38
0.0
 39
0.0
 10
4640.0
 20
587.5
 40
0.0
 41
0.0
 42
0.99999877929762
 10
4740.0
 20
587.5
 40
0.0
 41
0.0
 42
0.99999877929762
 10
4640.0
 20
587.5
 40
0.0
 41
0.0
 42
0.0
210
0.0
220
0.0
230
1.0
  0
LWPOLYLINE
  5
61
330
36
100
AcDbEntity
  8
0
  6
ByLayer
 62
256
 48
1.0
 60
0
370
-1
100
AcDbPolyline
 90
3
 70
0
 38
0.0
 39
0.0
 10
4340.0
 20
587.5
 40
0.0
 41
0.0
 42
0.99999877929762
 10
4440.0
 20
587.5
 40
0.0
 41
0.0
 42
0.99999877929762
 10
4340.0
 20
587.5
 40
0.0
 41
0.0
 42
0.0
210
0.0
220
0.0
230
1.0
  0
LWPOLYLINE
  5
62
330
36
100
AcDbEntity
  8
0
  6
ByLayer
 62
256
 48
1.0
 60
0
370
-1
100
AcDbPolyline
 90
3
 70
0
 38
0.0
 39
0.0
 10
3440.0
 20
287.5
 40
0.0
 41
0.0
 42
1.00000366211608
 10
3540.0
 20
287.5
 40
0.0
 41
0.0
 42
1.00000366211608
 10
3440.0
 20
287.5
 40
0.0
 41
0.0
 42
0.0
210
0.0
220
0.0
230
1.0
  0
LWPOLYLINE
  5
63
330
36
100
AcDbEntity
  8
0
  6
ByLayer
 62
256
 48
1.0
 60
0
370
-1
100
AcDbPolyline
 90
3
 70
0
 38
0.0
 39
0.0
 10
3440.0
 20
887.5
 40
0.0
 41
0.0
 42
1.00000366211608
 10
3540.0
 20
887.5
 40
0.0
 41
0.0
 42
1.00000366211608
 10
3440.0
 20
887.5
 40
0.0
 41
0.0
 42
0.0
210
0.0
220
0.0
230
1.0
  0
LWPOLYLINE
  5
64
330
36
100
AcDbEntity
  8
0
  6
ByLayer
 62
256
 48
1.0
 60
0
370
-1
100
AcDbPolyline
 90
3
 70
0
 38
0.0
 39
0.0
 10
3440.0
 20
587.5
 40
0.0
 41
0.0
 42
1.00000366211608
 10
3540.0
 20
587.5
 40
0.0
 41
0.0
 42
1.00000366211608
 10
3440.0
 20
587.5
 40
0.0
 41
0.0
 42
0.0
210
0.0
220
0.0
230
1.0
  0
LWPOLYLINE
  5
65
330
36
100
AcDbEntity
  8
0
  6
ByLayer
 62
256
 48
1.0
 60
0
370
-1
100
AcDbPolyline
 90
3
 70
0
 38
0.0
 39
0.0
 10
4040.0
 20
287.5
 40
0.0
 41
0.0
 42
1.00000366211608
 10
4140.0
 20
287.5
 40
0.0
 41
0.0
 42
0.999996337897331
 10
4040.0
 20
287.5
 40
0.0
 41
0.0
 42
0.0
210
0.0
220
0.0
230
1.0
  0
LWPOLYLINE
  5
66
330
36
100
AcDbEntity
  8
0
  6
ByLayer
 62
256
 48
1.0
 60
0
370
-1
100
AcDbPolyline
 90
3
 70
0
 38
0.0
 39
0.0
 10
3740.0
 20
287.5
 40
0.0
 41
0.0
 42
1.00000366211608
 10
3840.0
 20
287.5
 40
0.0
 41
0.0
 42
1.00000366211608
 10
3740.0
 20
287.5
 40
0.0
 41
0.0
 42
0.0
210
0.0
220
0.0
230
1.0
  0
LWPOLYLINE
  5
67
330
36
100
AcDbEntity
  8
0
  6
ByLayer
 62
256
 48
1.0
 60
0
370
-1
100
AcDbPolyline
 90
3
 70
0
 38
0.0
 39
0.0
 10
4040.0
 20
887.5
 40
0.0
 41
0.0
 42
1.00000366211608
 10
4140.0
 20
887.5
 40
0.0
 41
0.0
 42
0.999996337897331
 10
4040.0
 20
887.5
 40
0.0
 41
0.0
 42
0.0
210
0.0
220
0.0
230
1.0
  0
LWPOLYLINE
  5
68
330
36
100
AcDbEntity
  8
0
  6
ByLayer
 62
256
 48
1.0
 60
0
370
-1
100
AcDbPolyline
 90
3
 70
0
 38
0.0
 39
0.0
 10
3740.0
 20
887.5
 40
0.0
 41
0.0
 42
1.00000366211608
 10
3840.0
 20
887.5
 40
0.0
 41
0.0
 42
1.00000366211608
 10
3740.0
 20
887.5
 40
0.0
 41
0.0
 42
0.0
210
0.0
220
0.0
230
1.0
  0
LWPOLYLINE
  5
69
330
36
100
AcDbEntity
  8
0
  6
ByLayer
 62
256
 48
1.0
 60
0
370
-1
100
AcDbPolyline
 90
3
 70
0
 38
0.0
 39
0.0
 10
4040.0
 20
587.5
 40
0.0
 41
0.0
 42
1.00000366211608
 10
4140.0
 20
587.5
 40
0.0
 41
0.0
 42
0.999996337897331
 10
4040.0
 20
587.5
 40
0.0
 41
0.0
 42
0.0
210
0.0
220
0.0
230
1.0
  0
LWPOLYLINE
  5
6A
330
36
100
AcDbEntity
  8
0
  6
ByLayer
 62
256
 48
1.0
 60
0
370
-1
100
AcDbPolyline
 90
3
 70
0
 38
0.0
 39
0.0
 10
3740.0
 20
587.5
 40
0.0
 41
0.0
 42
1.00000366211608
 10
3840.0
 20
587.5
 40
0.0
 41
0.0
 42
1.00000366211608
 10
3740.0
 20
587.5
 40
0.0
 41
0.0
 42
0.0
210
0.0
220
0.0
230
1.0
  0
LWPOLYLINE
  5
6B
330
36
100
AcDbEntity
  8
0
  6
ByLayer
 62
256
 48
1.0
 60
0
370
-1
100
AcDbPolyline
 90
9
 70
0
 38
0.0
 39
0.0
 10
3220.0
 20
1227.5
 40
0.0
 41
0.0
 42
0.0
 10
3220.0
 20
2292.5
 40
0.0
 41
0.0
 42
0.0
 10
3270.0
 20
2342.5
 40
0.0
 41
0.0
 42
0.0
 10
4910.0
 20
2342.5
 40
0.0
 41
0.0
 42
0.0
 10
4960.0
 20
2292.5
 40
0.0
 41
0.0
 42
0.0
 10
4960.0
 20
1227.5
 40
0.0
 41
0.0
 42
0.0
 10
4910.0
 20
1177.5
 40
0.0
 41
0.0
 42
0.0
 10
3270.0
 20
1177.5
 40
0.0
 41
0.0
 42
0.0
 10
3220.0
 20
1227.5
 40
0.0
 41
0.0
 42
0.0
210
0.0
220
0.0
230
1.0
  0
LWPOLYLINE
  5
6C
330
36
100
AcDbEntity
  8
0
  6
ByLayer
 62
256
 48
1.0
 60
0
370
-1
100
AcDbPolyline
 90
3
 70
0
 38
0.0
 39
0.0
 10
4640.0
 20
1460.0
 40
0.0
 41
0.0
 42
1.0
 10
4740.0
 20
1460.0
 40
0.0
 41
0.0
 42
1.0
 10
4640.0
 20
1460.0
 40
0.0
 41
0.0
 42
0.0
210
0.0
220
0.0
230
1.0
  0
LWPOLYLINE
  5
6D
330
36
100
AcDbEntity
  8
0
  6
ByLayer
 62
256
 48
1.0
 60
0
370
-1
100
AcDbPolyline
 90
3
 70
0
 38
0.0
 39
0.0
 10
4340.0
 20
1460.0
 40
0.0
 41
0.0
 42
1.0
 10
4440.0
 20
1460.0
 40
0.0
 41
0.0
 42
1.0
 10
4340.0
 20
1460.0
 40
0.0
 41
0.0
 42
0.0
210
0.0
220
0.0
230
1.0
  0
LWPOLYLINE
  5
6E
330
36
100
AcDbEntity
  8
0
  6
ByLayer
 62
256
 48
1.0
 60
0
370
-1
100
AcDbPolyline
 90
3
 70
0
 38
0.0
 39
0.0
 10
4640.0
 20
2060.0
 40
0.0
 41
0.0
 42
1.0
 10
4740.0
 20
2060.0
 40
0.0
 41
0.0
 42
0.999995117199421
 10
4640.0
 20
2060.0
 40
0.0
 41
0.0
 42
0.0
210
0.0
220
0.0
230
1.0
  0
LWPOLYLINE
  5
6F
330
36
100
AcDbEntity
  8
0
  6
ByLayer
 62
256
 48
1.0
 60
0
370
-1
100
AcDbPolyline
 90
3
 70
0
 38
0.0
 39
0.0
 10
4340.0
 20
2060.0
 40
0.0
 41
0.0
 42
1.0
 10
4440.0
 20
2060.0
 40
0.0
 41
0.0
 42
0.999995117199421
 10
4340.0
 20
2060.0
 40
0.0
 41
0.0
 42
0.0
210
0.0
220
0.0
230
1.0
  0
LWPOLYLINE
  5
70
330
36
100
AcDbEntity
  8
0
  6
ByLayer
 62
256
 48
1.0
 60
0
370
-1
100
AcDbPolyline
 90
3
 70
0
 38
0.0
 39
0.0
 10
4640.0
 20
1760.0
 40
0.0
 41
0.0
 42
1.0
 10
4740.0
 20
1760.0
 40
0.0
 41
0.0
 42
1.0
 10
4640.0
 20
1760.0
 40
0.0
 41
0.0
 42
0.0
210
0.0
220
0.0
230
1.0
  0
LWPOLYLINE
  5
71
330
36
100
AcDbEntity
  8
0
  6
ByLayer
 62
256
 48
1.0
 60
0
370
-1
100
AcDbPolyline
 90
3
 70
0
 38
0.0
 39
0.0
 10
4340.0
 20
1760.0
 40
0.0
 41
0.0
 42
1.0
 10
4440.0
 20
1760.0
 40
0.0
 41
0.0
 42
1.0
 10
4340.0
 20
1760.0
 40
0.0
 41
0.0
 42
0.0
210
0.0
220
0.0
230
1.0
  0
LWPOLYLINE
  5
72
330
36
100
AcDbEntity
  8
0
  6
ByLayer
 62
256
 48
1.0
 60
0
370
-1
100
AcDbPolyline
 90
3
 70
0
 38
0.0
 39
0.0
 10
3440.0
 20
1460.0
 40
0.0
 41
0.0
 42
1.00000488282442
 10
3540.0
 20
1460.0
 40
0.0
 41
0.0
 42
1.00000488282442
 10
3440.0
 20
1460.0
 40
0.0
 41
0.0
 42
0.0
210
0.0
220
0.0
230
1.0
  0
LWPOLYLINE
  5
73
330
36
100
AcDbEntity
  8
0
  6
ByLayer
 62
256
 48
1.0
 60
0
370
-1
100
AcDbPolyline
 90
3
 70
0
 38
0.0
 39
0.0
 10
3440.0
 20
2060.0
 40
0.0
 41
0.0
 42
1.00000488282442
 10
3540.0
 20
2060.0
 40
0.0
 41
0.0
 42
1.0
 10
3440.0
 20
2060.0
 40
0.0
 41
0.0
 42
0.0
210
0.0
220
0.0
230
1.0
  0
LWPOLYLINE
  5
74
330
36
100
AcDbEntity
  8
0
  6
ByLayer
 62
256
 48
1.0
 60
0
370
-1
100
AcDbPolyline
 90
3
 70
0
 38
0.0
 39
0.0
 10
3440.0
 20
1760.0
 40
0.0
 41
0.0
 42
1.00000488282442
 10
3540.0
 20
1760.0
 40
0.0
 41
0.0
 42
1.00000488282442
 10
3440.0
 20
1760.0
 40
0.0
 41
0.0
 42
0.0
210
0.0
220
0.0
230
1.0
  0
LWPOLYLINE
  5
75
330
36
100
AcDbEntity
  8
0
  6
ByLayer
 62
256
 48
1.0
 60
0
370
-1
100
AcDbPolyline
 90
3
 70
0
 38
0.0
 39
0.0
 10
4040.0
 20
1460.0
 40
0.0
 41
0.0
 42
1.00000488282442
 10
4140.0
 20
1460.0
 40
0.0
 41
0.0
 42
0.99999755859673
 10
4040.0
 20
1460.0
 40
0.0
 41
0.0
 42
0.0
210
0.0
220
0.0
230
1.0
  0
LWPOLYLINE
  5
76
330
36
100
AcDbEntity
  8
0
  6
ByLayer
 62
256
 48
1.0
 60
0
370
-1
100
AcDbPolyline
 90
3
 70
0
 38
0.0
 39
0.0
 10
3740.0
 20
1460.0
 40
0.0
 41
0.0
 42
1.00000488282442
 10
3840.0
 20
1460.0
 40
0.0
 41
0.0
 42
1.00000488282442
 10
3740.0
 20
1460.0
 40
0.0
 41
0.0
 42
0.0
210
0.0
220
0.0
230
1.0
  0
LWPOLYLINE
  5
77
330
36
100
AcDbEntity
  8
0
  6
ByLayer
 62
256
 48
1.0
 60
0
370
-1
100
AcDbPolyline
 90
3
 70
0
 38
0.0
 39
0.0
 10
4040.0
 20
2060.0
 40
0.0
 41
0.0
 42
1.00000488282442
 10
4140.0
 20
2060.0
 40
0.0
 41
0.0
 42
0.999990234422684
 10
4040.0
 20
2060.0
 40
0.0
 41
0.0
 42
0.0
210
0.0
220
0.0
230
1.0
  0
LWPOLYLINE
  5
78
330
36
100
AcDbEntity
  8
0
  6
ByLayer
 62
256
 48
1.0
 60
0
370
-1
100
AcDbPolyline
 90
3
 70
0
 38
0.0
 39
0.0
 10
3740.0
 20
2060.0
 40
0.0
 41
0.0
 42
1.00000488282442
 10
3840.0
 20
2060.0
 40
0.0
 41
0.0
 42
1.0
 10
3740.0
 20
2060.0
 40
0.0
 41
0.0
 42
0.0
210
0.0
220
0.0
230
1.0
  0
LWPOLYLINE
  5
79
330
36
100
AcDbEntity
  8
0
  6
ByLayer
 62
256
 48
1.0
 60
0
370
-1
100
AcDbPolyline
 90
3
 70
0
 38
0.0
 39
0.0
 10
4040.0
 20
1760.0
 40
0.0
 41
0.0
 42
1.00000488282442
 10
4140.0
 20
1760.0
 40
0.0
 41
0.0
 42
0.99999755859673
 10
4040.0
 20
1760.0
 40
0.0
 41
0.0
 42
0.0
210
0.0
220
0.0
230
1.0
  0
LWPOLYLINE
  5
7A
330
36
100
AcDbEntity
  8
0
  6
ByLayer
 62
256
 48
1.0
 60
0
370
-1
100
AcDbPolyline
 90
3
 70
0
 38
0.0
 39
0.0
 10
3740.0
 20
1760.0
 40
0.0
 41
0.0
 42
1.00000488282442
 10
3840.0
 20
1760.0
 40
0.0
 41
0.0
 42
1.00000488282442
 10
3740.0
 20
1760.0
 40
0.0
 41
0.0
 42
0.0
210
0.0
220
0.0
230
1.0
  0
LWPOLYLINE
  5
7B
330
36
100
AcDbEntity
  8
0
  6
ByLayer
 62
256
 48
1.0
 60
0
370
-1
100
AcDbPolyline
 90
6
 70
0
 38
0.0
 39
0.0
 10
7.46033000946045
 20
1924.7099609375
 40
0.0
 41
0.0
 42
-0.450061128098801
 10
359.870330810547
 20
2322.5
 40
0.0
 41
0.0
 42
0.0
 10
1719.87036132813
 20
2322.5
 40
0.0
 41
0.0
 42
0.0
 10
1719.87036132813
 20
1612.5
 40
0.0
 41
0.0
 42
0.0
 10
359.870330810547
 20
1612.5
 40
0.0
 41
0.0
 42
-0.379249152809161
 10
7.46033000946045
 20
1924.7099609375
 40
0.0
 41
0.0
 42
0.0
210
0.0
220
0.0
230
1.0
  0
LWPOLYLINE
  5
7C
330
36
100
AcDbEntity
  8
0
  6
ByLayer
 62
256
 48
1.0
 60
0
370
-1
100
AcDbPolyline
 90
3
 70
0
 38
0.0
 39
0.0
 10
234.370330810547
 20
1967.5
 40
0.0
 41
0.0
 42
1.00000097267229
 10
485.370330810547
 20
1967.5
 40
0.0
 41
0.0
 42
0.99999902732866
 10
234.370330810547
 20
1967.5
 40
0.0
 41
0.0
 42
0.0
210
0.0
220
0.0
230
1.0
  0
LWPOLYLINE
  5
7D
330
36
100
AcDbEntity
  8
0
  6
ByLayer
 62
256
 48
1.0
 60
0
370
-1
100
AcDbPolyline
 90
3
 70
0
 38
0.0
 39
0.0
 10
769.870300292969
 20
1967.5
 40
0.0
 41
0.0
 42
1.0
 10
809.870300292969
 20
1967.5
 40
0.0
 41
0.0
 42
1.0
 10
769.870300292969
 20
1967.5
 40
0.0
 41
0.0
 42
0.0
210
0.0
220
0.0
230
1.0
  0
LWPOLYLINE
  5
7E
330
36
100
AcDbEntity
  8
0
  6
ByLayer
 62
256
 48
1.0
 60
0
370
-1
100
AcDbPolyline
 90
9
 70
0
 38
0.0
 39
0.0
 10
1727.37036132813
 20
1642.5
 40
0.0
 41
0.0
 42
0.0
 10
1727.37036132813
 20
2242.5
 40
0.0
 41
0.0
 42
0.0
 10
1757.37036132813
 20
2272.5
 40
0.0
 41
0.0
 42
0.0
 10
3087.37036132813
 20
2272.5
 40
0.0
 41
0.0
 42
0.0
 10
3117.37036132813
 20
2242.5
 40
0.0
 41
0.0
 42
0.0
 10
3117.37036132813
 20
1642.5
 40
0.0
 41
0.0
 42
0.0
 10
3087.37036132813
 20
1612.5
 40
0.0
 41
0.0
 42
0.0
 10
1757.37036132813
 20
1612.5
 40
0.0
 41
0.0
 42
0.0
 10
1727.37036132813
 20
1642.5
 40
0.0
 41
0.0
 42
0.0
210
0.0
220
0.0
230
1.0
  0
LWPOLYLINE
  5
7F
330
36
100
AcDbEntity
  8
0
  6
ByLayer
 62
256
 48
1.0
 60
0
370
-1
100
AcDbPolyline
 90
3
 70
0
 38
0.0
 39
0.0
 10
2972.37036132813
 20
1792.5
 40
0.0
 41
0.0
 42
0.99999755859673
 10
3072.37036132813
 20
1792.5
 40
0.0
 41
0.0
 42
0.99999755859673
 10
2972.37036132813
 20
1792.5
 40
0.0
 41
0.0
 42
0.0
210
0.0
220
0.0
230
1.0
  0
LWPOLYLINE
  5
80
330
36
100
AcDbEntity
  8
0
  6
ByLayer
 62
256
 48
1.0
 60
0
370
-1
100
AcDbPolyline
 90
3
 70
0
 38
0.0
 39
0.0
 10
2972.37036132813
 20
2092.5
 40
0.0
 41
0.0
 42
0.99999511719942
 10
3072.37036132813
 20
2092.5
 40
0.0
 41
0.0
 42
0.999995117199421
 10
2972.37036132813
 20
2092.5
 40
0.0
 41
0.0
 42
0.0
210
0.0
220
0.0
230
1.0
  0
LWPOLYLINE
  5
81
330
36
100
AcDbEntity
  8
0
  6
ByLayer
 62
256
 48
1.0
 60
0
370
-1
100
AcDbPolyline
 90
3
 70
0
 38
0.0
 39
0.0
 10
2672.37036132813
 20
1792.5
 40
0.0
 41
0.0
 42
0.99999755859673
 10
2772.37036132813
 20
1792.5
 40
0.0
 41
0.0
 42
0.99999755859673
 10
2672.37036132813
 20
1792.5
 40
0.0
 41
0.0
 42
0.0
210
0.0
220
0.0
230
1.0
  0
LWPOLYLINE
  5
82
330
36
100
AcDbEntity
  8
0
  6
ByLayer
 62
256
 48
1.0
 60
0
370
-1
100
AcDbPolyline
 90
3
 70
0
 38
0.0
 39
0.0
 10
2072.37036132813
 20
1792.5
 40
0.0
 41
0.0
 42
0.99999755859673
 10
2172.37036132813
 20
1792.5
 40
0.0
 41
0.0
 42
0.99999755859673
 10
2072.37036132813
 20
1792.5
 40
0.0
 41
0.0
 42
0.0
210
0.0
220
0.0
230
1.0
  0
LWPOLYLINE
  5
83
330
36
100
AcDbEntity
  8
0
  6
ByLayer
 62
256
 48
1.0
 60
0
370
-1
100
AcDbPolyline
 90
3
 70
0
 38
0.0
 39
0.0
 10
1772.37036132813
 20
1792.5
 40
0.0
 41
0.0
 42
1.0
 10
1872.37036132813
 20
1792.5
 40
0.0
 41
0.0
 42
1.0
 10
1772.37036132813
 20
1792.5
 40
0.0
 41
0.0
 42
0.0
210
0.0
220
0.0
230
1.0
  0
LWPOLYLINE
  5
84
330
36
100
AcDbEntity
  8
0
  6
ByLayer
 62
256
 48
1.0
 60
0
370
-1
100
AcDbPolyline
 90
3
 70
0
 38
0.0
 39
0.0
 10
2672.37036132813
 20
2092.5
 40
0.0
 41
0.0
 42
0.99999511719942
 10
2772.37036132813
 20
2092.5
 40
0.0
 41
0.0
 42
0.999995117199421
 10
2672.37036132813
 20
2092.5
 40
0.0
 41
0.0
 42
0.0
210
0.0
220
0.0
230
1.0
  0
LWPOLYLINE
  5
85
330
36
100
AcDbEntity
  8
0
  6
ByLayer
 62
256
 48
1.0
 60
0
370
-1
100
AcDbPolyline
 90
3
 70
0
 38
0.0
 39
0.0
 10
2072.37036132813
 20
2092.5
 40
0.0
 41
0.0
 42
0.99999511719942
 10
2172.37036132813
 20
2092.5
 40
0.0
 41
0.0
 42
0.999995117199421
 10
2072.37036132813
 20
2092.5
 40
0.0
 41
0.0
 42
0.0
210
0.0
220
0.0
230
1.0
  0
LWPOLYLINE
  5
86
330
36
100
AcDbEntity
  8
0
  6
ByLayer
 62
256
 48
1.0
 60
0
370
-1
100
AcDbPolyline
 90
3
 70
0
 38
0.0
 39
0.0
 10
1772.37036132813
 20
2092.5
 40
0.0
 41
0.0
 42
0.999995117199421
 10
1872.37036132813
 20
2092.5
 40
0.0
 41
0.0
 42
0.999995117199421
 10
1772.37036132813
 20
2092.5
 40
0.0
 41
0.0
 42
0.0
210
0.0
220
0.0
230
1.0
  0
LWPOLYLINE
  5
87
330
36
100
AcDbEntity
  8
0
  6
ByLayer
 62
256
 48
1.0
 60
0
370
-1
100
AcDbPolyline
 90
3
 70
0
 38
0.0
 39
0.0
 10
2372.37036132813
 20
1792.5
 40
0.0
 41
0.0
 42
0.99999755859673
 10
2472.37036132813
 20
1792.5
 40
0.0
 41
0.0
 42
0.99999755859673
 10
2372.37036132813
 20
1792.5
 40
0.0
 41
0.0
 42
0.0
210
0.0
220
0.0
230
1.0
  0
LWPOLYLINE
  5
88
330
36
100
AcDbEntity
  8
0
  6
ByLayer
 62
256
 48
1.0
 60
0
370
-1
100
AcDbPolyline
 90
3
 70
0
 38
0.0
 39
0.0
 10
2372.37036132813
 20
2092.5
 40
0.0
 41
0.0
 42
0.99999511719942
 10
2472.37036132813
 20
2092.5
 40
0.0
 41
0.0
 42
0.999995117199421
 10
2372.37036132813
 20
2092.5
 40
0.0
 41
0.0
 42
0.0
210
0.0
220
0.0
230
1.0
  0
LWPOLYLINE
  5
89
330
36
100
AcDbEntity
  8
0
  6
ByLayer
 62
256
 48
1.0
 60
0
370
-1
100
AcDbPolyline
 90
9
 70
0
 38
0.0
 39
0.0
 10
1727.37036132813
 20
2305.0
 40
0.0
 41
0.0
 42
0.0
 10
1727.37036132813
 20
2445.0
 40
0.0
 41
0.0
 42
0.0
 10
1752.37036132813
 20
2470.0
 40
0.0
 41
0.0
 42
0.0
 10
3037.37036132813
 20
2470.0
 40
0.0
 41
0.0
 42
0.0
 10
3062.37036132813
 20
2445.0
 40
0.0
 41
0.0
 42
0.0
 10
3062.37036132813
 20
2305.0
 40
0.0
 41
0.0
 42
0.0
 10
3037.37036132813
 20
2280.0
 40
0.0
 41
0.0
 42
0.0
 10
1752.37036132813
 20
2280.0
 40
0.0
 41
0.0
 42
0.0
 10
1727.37036132813
 20
2305.0
 40
0.0
 41
0.0
 42
0.0
210
0.0
220
0.0
230
1.0
  0
LWPOLYLINE
  5
8A
330
36
100
AcDbEntity
  8
0
  6
ByLayer
 62
256
 48
1.0
 60
0
370
-1
100
AcDbPolyline
 90
7
 70
0
 38
0.0
 39
0.0
 10
5.0
 20
2357.0
 40
0.0
 41
0.0
 42
0.0
 10
5.0
 20
2463.0
 40
0.0
 41
0.0
 42
0.0
 10
449.0
 20
2463.0
 40
0.0
 41
0.0
 42
0.0
 10
449.0
 20
2357.0
 40
0.0
 41
0.0
 42
-0.414207272473603
 10
422.0
 20
2330.0
 40
0.0
 41
0.0
 42
0.0
 10
32.0
 20
2330.0
 40
0.0
 41
0.0
 42
-0.414201851677514
 10
5.0
 20
2357.0
 40
0.0
 41
0.0
 42
0.0
210
0.0
220
0.0
230
1.0
  0
LWPOLYLINE
  5
8B
330
36
100
AcDbEntity
  8
0
  6
ByLayer
 62
256
 48
1.0
 60
0
370
-1
100
AcDbPolyline
 90
7
 70
0
 38
0.0
 39
0.0
 10
456.5
 20
2357.0
 40
0.0
 41
0.0
 42
0.0
 10
456.5
 20
2463.0
 40
0.0
 41
0.0
 42
0.0
 10
900.5
 20
2463.0
 40
0.0
 41
0.0
 42
0.0
 10
900.5
 20
2357.0
 40
0.0
 41
0.0
 42
-0.414212900270162
 10
873.5
 20
2330.0
 40
0.0
 41
0.0
 42
0.0
 10
483.5
 20
2330.0
 40
0.0
 41
0.0
 42
-0.414202306844996
 10
456.5
 20
2357.0
 40
0.0
 41
0.0
 42
0.0
210
0.0
220
0.0
230
1.0
  0
LWPOLYLINE
  5
8C
330
36
100
AcDbEntity
  8
0
  6
ByLayer
 62
256
 48
1.0
 60
0
370
-1
100
AcDbPolyline
 90
7
 70
0
 38
0.0
 39
0.0
 10
908.0
 20
2357.0
 40
0.0
 41
0.0
 42
0.0
 10
908.0
 20
2463.0
 40
0.0
 41
0.0
 42
0.0
 10
1352.0
 20
2463.0
 40
0.0
 41
0.0
 42
0.0
 10
1352.0
 20
2357.0
 40
0.0
 41
0.0
 42
-0.414212238167539
 10
1325.0
 20
2330.0
 40
0.0
 41
0.0
 42
0.0
 10
935.0
 20
2330.0
 40
0.0
 41
0.0
 42
-0.414202306844996
 10
908.0
 20
2357.0
 40
0.0
 41
0.0
 42
0.0
210
0.0
220
0.0
230
1.0
  0
LWPOLYLINE
  5
8D
330
36
100
AcDbEntity
  8
0
  6
ByLayer
 62
256
 48
1.0
 60
0
370
-1
100
AcDbPolyline
 90
7
 70
0
 38
0.0
 39
0.0
 10
1359.5
 20
2357.0
 40
0.0
 41
0.0
 42
0.0
 10
1359.5
 20
2465.0
 40
0.0
 41
0.0
 42
0.0
 10
1711.5
 20
2465.0
 40
0.0
 41
0.0
 42
0.0
 10
1711.5
 20
2357.0
 40
0.0
 41
0.0
 42
-0.414212238167539
 10
1684.5
 20
2330.0
 40
0.0
 41
0.0
 42
0.0
 10
1386.5
 20
2330.0
 40
0.0
 41
0.0
 42
-0.414197672371409
 10
1359.5
 20
2357.0
 40
0.0
 41
0.0
 42
0.0
210
0.0
220
0.0
230
1.0
  0
LWPOLYLINE
  5
8E
330
36
100
AcDbEntity
  8
0
  6
ByLayer
 62
256
 48
1.0
 60
0
370
-1
100
AcDbPolyline
 90
7
 70
0
 38
0.0
 39
0.0
 10
3069.87036132813
 20
2377.0
 40
0.0
 41
0.0
 42
0.0
 10
3069.87036132813
 20
2485.0
 40
0.0
 41
0.0
 42
0.0
 10
3421.87036132813
 20
2485.0
 40
0.0
 41
0.0
 42
0.0
 10
3421.87036132813
 20
2377.0
 40
0.0
 41
0.0
 42
-0.414189727724873
 10
3394.87036132813
 20
2350.0
 40
0.0
 41
0.0
 42
0.0
 10
3096.87036132813
 20
2350.0
 40
0.0
 41
0.0
 42
-0.414210913963223
 10
3069.87036132813
 20
2377.0
 40
0.0
 41
0.0
 42
0.0
210
0.0
220
0.0
230
1.0
  0
LWPOLYLINE
  5
8F
330
36
100
AcDbEntity
  8
0
  6
ByLayer
 62
256
 48
1.0
 60
0
370
-1
100
AcDbPolyline
 90
7
 70
0
 38
0.0
 39
0.0
 10
3429.37036132813
 20
2377.0
 40
0.0
 41
0.0
 42
0.0
 10
3429.37036132813
 20
2485.0
 40
0.0
 41
0.0
 42
0.0
 10
3781.37036132813
 20
2485.0
 40
0.0
 41
0.0
 42
0.0
 10
3781.37036132813
 20
2377.0
 40
0.0
 41
0.0
 42
-0.414189727724873
 10
3754.37036132813
 20
2350.0
 40
0.0
 41
0.0
 42
0.0
 10
3456.37036132813
 20
2350.0
 40
0.0
 41
0.0
 42
-0.414210913963223
 10
3429.37036132813
 20
2377.0
 40
0.0
 41
0.0
 42
0.0
210
0.0
220
0.0
230
1.0
  0
LWPOLYLINE
  5
90
330
36
100
AcDbEntity
  8
0
  6
ByLayer
 62
256
 48
1.0
 60
0
370
-1
100
AcDbPolyline
 90
7
 70
0
 38
0.0
 39
0.0
 10
3788.87036132813
 20
2377.0
 40
0.0
 41
0.0
 42
0.0
 10
3788.87036132813
 20
2485.0
 40
0.0
 41
0.0
 42
0.0
 10
4140.8701171875
 20
2485.0
 40
0.0
 41
0.0
 42
0.0
 10
4140.8701171875
 20
2377.0
 40
0.0
 41
0.0
 42
-0.414221507728261
 10
4113.8701171875
 20
2350.0
 40
0.0
 41
0.0
 42
0.0
 10
3815.87036132813
 20
2350.0
 40
0.0
 41
0.0
 42
-0.414210913963223
 10
3788.87036132813
 20
2377.0
 40
0.0
 41
0.0
 42
0.0
210
0.0
220
0.0
230
1.0
  0
LWPOLYLINE
  5
91
330
36
100
AcDbEntity
  8
0
  6
ByLayer
 62
256
 48
1.0
 60
0
370
-1
100
AcDbPolyline
 90
7
 70
0
 38
0.0
 39
0.0
 10
4148.37060546875
 20
2377.0
 40
0.0
 41
0.0
 42
0.0
 10
4148.37060546875
 20
2485.0
 40
0.0
 41
0.0
 42
0.0
 10
4500.37060546875
 20
2485.0
 40
0.0
 41
0.0
 42
0.0
 10
4500.37060546875
 20
2377.0
 40
0.0
 41
0.0
 42
-0.414224156253765
 10
4473.37060546875
 20
2350.0
 40
0.0
 41
0.0
 42
0.0
 10
4175.37060546875
 20
2350.0
 40
0.0
 41
0.0
 42
-0.414197672371409
 10
4148.37060546875
 20
2377.0
 40
0.0
 41
0.0
 42
0.0
210
0.0
220
0.0
230
1.0
  0
LWPOLYLINE
  5
92
330
36
100
AcDbEntity
  8
0
  6
ByLayer
 62
256
 48
1.0
 60
0
370
-1
100
AcDbPolyline
 90
9
 70
0
 38
0.0
 39
0.0
 10
4507.87060546875
 20
2363.0
 40
0.0
 41
0.0
 42
0.0
 10
4507.87060546875
 20
2477.0
 40
0.0
 41
0.0
 42
0.0
 10
4520.87060546875
 20
2490.0
 40
0.0
 41
0.0
 42
0.0
 10
4804.87060546875
 20
2490.0
 40
0.0
 41
0.0
 42
0.0
 10
4817.87060546875
 20
2477.0
 40
0.0
 41
0.0
 42
0.0
 10
4817.87060546875
 20
2363.0
 40
0.0
 41
0.0
 42
0.0
 10
4804.87060546875
 20
2350.0
 40
0.0
 41
0.0
 42
0.0
 10
4520.87060546875
 20
2350.0
 40
0.0
 41
0.0
 42
0.0
 10
4507.87060546875
 20
2363.0
 40
0.0
 41
0.0
 42
0.0
210
0.0
220
0.0
230
1.0
  0
LWPOLYLINE
  5
93
330
36
100
AcDbEntity
  8
0
  6
ByLayer
 62
256
 48
1.0
 60
0
370
-1
100
AcDbPolyline
 90
3
 70
0
 38
0.0
 39
0.0
 10
294.199829101563
 20
1886.59680175781
 40
0.0
 41
0.0
 42
-0.999999371186444
 10
411.756896972656
 20
2048.40014648438
 40
0.0
 41
0.0
 42
-1.00000038192143
 10
294.199829101563
 20
1886.59680175781
 40
0.0
 41
0.0
 42
0.0
210
0.0
220
0.0
230
1.0
  0
LWPOLYLINE
  5
94
330
36
100
AcDbEntity
  8
0
  6
ByLayer
 62
256
 48
1.0
 60
0
370
-1
100
AcDbPolyline
 90
3
 70
0
 38
0.0
 39
0.0
 10
332.405883789063
 20
1939.18286132813
 40
0.0
 41
0.0
 42
1.00000102501574
 10
373.550842285156
 20
1995.81408691406
 40
0.0
 41
0.0
 42
1.00000173042352
 10
332.405883789063
 20
1939.18286132813
 40
0.0
 41
0.0
 42
0.0
210
0.0
220
0.0
230
1.0
  0
LWPOLYLINE
  5
95
330
36
100
AcDbEntity
  8
0
  6
ByLayer
 62
256
 48
1.0
 60
0
370
-1
100
AcDbPolyline
 90
5
 70
0
 38
0.0
 39
0.0
 10
4825.37060546875
 20
2350.0
 40
0.0
 41
0.0
 42
0.0
 10
4825.37060546875
 20
2445.0
 40
0.0
 41
0.0
 42
0.0
 10
4990.37060546875
 20
2445.0
 40
0.0
 41
0.0
 42
0.0
 10
4990.37060546875
 20
2350.0
 40
0.0
 41
0.0
 42
0.0
 10
4825.37060546875
 20
2350.0
 40
0.0
 41
0.0
 42
0.0
210
0.0
220
0.0
230
1.0
  0
ENDSEC
  0
SECTION
  2
OBJECTS
  0
DICTIONARY
  5
A
330
0
100
AcDbDictionary
280
0
281
0
  3
ACAD_COLOR
350
B
  3
ACAD_GROUP
350
C
  3
ACAD_LAYOUT
350
D
  3
ACAD_MATERIAL
350
E
  3
ACAD_SORTENTS
350
F
  3
ACAD_MLEADERSTYLE
350
10
  3
ACAD_MLINESTYLE
350
14
  3
ACAD_TABLESTYLE
350
16
  3
ACAD_PLOTSETTINGS
350
17
  3
AcDbVariableDictionary
350
18
  3
ACAD_SCALELIST
350
19
  3
ACAD_VISUALSTYLE
350
2B
  3
ACAD_FIELDLIST
350
2C
  3
ACAD_IMAGE_DICT
350
2D
  3
ACAD_PDFDEFINITIONS
350
2E
  0
DICTIONARY
  5
B
330
A
100
AcDbDictionary
280
0
281
0
  0
DICTIONARY
  5
C
330
A
100
AcDbDictionary
280
0
281
0
  0
DICTIONARY
  5
D
330
A
100
AcDbDictionary
280
0
281
0
  3
Model
350
35
  0
DICTIONARY
  5
E
330
A
100
AcDbDictionary
280
0
281
0
  0
DICTIONARY
  5
F
330
A
100
AcDbDictionary
280
0
281
0
  0
DICTIONARY
  5
10
330
A
100
AcDbDictionary
280
0
281
0
  3
Standard
350
11
  0
DICTIONARY
  5
14
330
A
100
AcDbDictionary
280
0
281
0
  3
Standard
350
15
  0
DICTIONARY
  5
16
330
A
100
AcDbDictionary
280
0
281
0
  0
DICTIONARY
  5
17
330
A
100
AcDbDictionary
280
0
281
0
  0
DICTIONARY
  5
18
330
A
100
AcDbDictionary
280
0
281
0
  0
DICTIONARY
  5
19
330
A
100
AcDbDictionary
280
0
281
0
  3
A0
350
1A
  3
A1
350
1B
  3
A2
350
1C
  3
A3
350
1D
  3
A4
350
1E
  3
A5
350
1F
  3
A6
350
20
  3
A7
350
21
  3
A8
350
22
  3
A9
350
23
  3
B0
350
24
  3
B1
350
25
  3
B2
350
26
  3
B3
350
27
  3
B4
350
28
  3
B5
350
29
  3
B6
350
2A
  0
DICTIONARY
  5
2B
330
A
100
AcDbDictionary
280
0
281
0
  0
DICTIONARY
  5
2C
330
A
100
AcDbDictionary
280
0
281
0
  0
DICTIONARY
  5
2D
330
A
100
AcDbDictionary
280
0
281
0
  0
DICTIONARY
  5
2E
330
A
100
AcDbDictionary
280
0
281
0
  0
LAYOUT
  5
35
330
D
100
AcDbPlotSettings
  1
none_device
  4
ISO_A4_(210.00_x_297.00_MM)
 40
0.0
 41
0.0
 42
0.0
 43
0.0
 44
0.0
 45
0.0
 46
0.0
 47
0.0
 48
0.0
 49
0.0
140
0.0
141
0.0
142
1.0
143
1.0
 70
688
 72
1
 73
0
 74
1
 75
0
 76
0
 77
0
 78
300
147
1.0
148
0.0
149
0.0
100
AcDbLayout
  1
Model
 71
0
 10
-20.0
 20
-7.5
 11
277.0
 21
202.5
 12
0.0
 22
0.0
 32
0.0
 13
0.0
 23
0.0
 33
0.0
 14
25.7
 24
19.5
 34
0.0
 15
231.3
 25
175.5
 35
0.0
 16
1.0
 26
0.0
 36
0.0
 17
0.0
 27
1.0
 37
0.0
146
0.0
 76
0
330
36
  0
MLEADERSTYLE
  5
11
330
10
100
AcDbMLeaderStyle
179
2
170
0
171
0
172
0
 90
0
 40
0.0
 41
0.0
173
0
 91
-1056964608
340
13
 92
0
290
0
 42
0.0
291
0
 43
0.0
 44
0.0
342
12
174
0
178
0
175
0
176
0
 93
-1056964608
 45
0.0
292
0
297
0
 46
0.0
 94
-1056964608
 47
0.0
 49
0.0
140
0.0
293
0
141
0.0
294
0
177
0
142
0.0
295
0
296
0
143
0.0
271
0
272
0
273
0
298
0
  0
MLINESTYLE
  5
15
330
14
100
AcDbMlineStyle
  2
Standard
 70
0
 62
0
 51
90.0
 52
90.0
 71
0
  0
SCALE
  5
1A
330
19
100
AcDbScale
 70
0
300
A0
140
1.0
141
1.0
290
1
  0
SCALE
  5
1B
330
19
100
AcDbScale
 70
0
300
A1
140
1.0
141
2.0
290
0
  0
SCALE
  5
1C
330
19
100
AcDbScale
 70
0
300
A2
140
1.0
141
4.0
290
0
  0
SCALE
  5
1D
330
19
100
AcDbScale
 70
0
300
A3
140
1.0
141
5.0
290
0
  0
SCALE
  5
1E
330
19
100
AcDbScale
 70
0
300
A4
140
1.0
141
8.0
290
0
  0
SCALE
  5
1F
330
19
100
AcDbScale
 70
0
300
A5
140
1.0
141
10.0
290
0
  0
SCALE
  5
20
330
19
100
AcDbScale
 70
0
300
A6
140
1.0
141
16.0
290
0
  0
SCALE
  5
21
330
19
100
AcDbScale
 70
0
300
A7
140
1.0
141
20.0
290
0
  0
SCALE
  5
22
330
19
100
AcDbScale
 70
0
300
A8
140
1.0
141
30.0
290
0
  0
SCALE
  5
23
330
19
100
AcDbScale
 70
0
300
A9
140
1.0
141
40.0
290
0
  0
SCALE
  5
24
330
19
100
AcDbScale
 70
0
300
B0
140
1.0
141
50.0
290
0
  0
SCALE
  5
25
330
19
100
AcDbScale
 70
0
300
B1
140
1.0
141
100.0
290
0
  0
SCALE
  5
26
330
19
100
AcDbScale
 70
0
300
B2
140
2.0
141
1.0
290
0
  0
SCALE
  5
27
330
19
100
AcDbScale
 70
0
300
B3
140
4.0
141
1.0
290
0
  0
SCALE
  5
28
330
19
100
AcDbScale
 70
0
300
B4
140
8.0
141
1.0
290
0
  0
SCALE
  5
29
330
19
100
AcDbScale
 70
0
300
B5
140
10.0
141
1.0
290
0
  0
SCALE
  5
2A
330
19
100
AcDbScale
 70
0
300
B6
140
100.0
141
1.0
290
0
  0
ENDSEC
  0
EOF
