  0
SECTION
  2
ENTITIES
  0
LWPOLYLINE
  5
39
330
36
100
AcDbEntity
  8
0
  6
ByLayer
 62
256
 48
1.0
 60
0
370
-1
100
AcDbPolyline
 90
5
 70
0
 38
0.0
 39
0.0
 10
5.0
 20
95.0
 40
0.0
 41
0.0
 42
0.0
 10
1491.0
 20
95.0
 40
0.0
 41
0.0
 42
0.0
 10
1491.0
 20
5.0
 40
0.0
 41
0.0
 42
0.0
 10
5.0
 20
5.0
 40
0.0
 41
0.0
 42
0.0
 10
5.0
 20
95.0
 40
0.0
 41
0.0
 42
0.0
210
0.0
220
0.0
230
1.0
  0
LWPOLYLINE
  5
3A
330
36
100
AcDbEntity
  8
0
  6
ByLayer
 62
256
 48
1.0
 60
0
370
-1
100
AcDbPolyline
 90
5
 70
0
 38
0.0
 39
0.0
 10
1498.5
 20
5.0
 40
0.0
 41
0.0
 42
0.0
 10
1498.5
 20
95.0
 40
0.0
 41
0.0
 42
0.0
 10
2728.5
 20
95.0
 40
0.0
 41
0.0
 42
0.0
 10
2728.5
 20
5.0
 40
0.0
 41
0.0
 42
0.0
 10
1498.5
 20
5.0
 40
0.0
 41
0.0
 42
0.0
210
0.0
220
0.0
230
1.0
  0
LWPOLYLINE
  5
3B
330
36
100
AcDbEntity
  8
0
  6
ByLayer
 62
256
 48
1.0
 60
0
370
-1
100
AcDbPolyline
 90
5
 70
0
 38
0.0
 39
0.0
 10
5.0
 20
102.5
 40
0.0
 41
0.0
 42
0.0
 10
5.0
 20
187.5
 40
0.0
 41
0.0
 42
0.0
 10
1235.0
 20
187.5
 40
0.0
 41
0.0
 42
0.0
 10
1235.0
 20
102.5
 40
0.0
 41
0.0
 42
0.0
 10
5.0
 20
102.5
 40
0.0
 41
0.0
 42
0.0
210
0.0
220
0.0
230
1.0
  0
LWPOLYLINE
  5
3C
330
36
100
AcDbEntity
  8
0
  6
ByLayer
 62
256
 48
1.0
 60
0
370
-1
100
AcDbPolyline
 90
30
 70
0
 38
0.0
 39
0.0
 10
1625.5810546875
 20
251.077743530273
 40
0.0
 41
0.0
 42
0.0
 10
1676.47485351563
 20
227.714920043945
 40
0.0
 41
0.0
 42
0.0
 10
1731.09997558594
 20
169.969650268555
 40
0.0
 41
0.0
 42
-0.306020507353229
 10
1732.92358398438
 20
158.925643920898
 40
0.0
 41
0.0
 42
0.0
 10
1728.47546386719
 20
149.235855102539
 40
0.0
 41
0.0
 42
0.0
 10
1655.77001953125
 20
182.611328125
 40
0.0
 41
0.0
 42
0.0
 10
1619.55603027344
 20
103.722541809082
 40
0.0
 41
0.0
 42
0.0
 10
1565.07360839844
 20
128.732757568359
 40
0.0
 41
0.0
 42
0.0
 10
1565.80895996094
 20
135.930404663086
 40
0.0
 41
0.0
 42
0.0
 10
1560.85803222656
 20
129.883544921875
 40
0.0
 41
0.0
 42
0.186949690456474
 10
1304.23999023438
 20
103.722328186035
 40
0.0
 41
0.0
 42
0.0
 10
1302.0810546875
 20
104.713424682617
 40
0.0
 41
0.0
 42
0.0
 10
1303.38012695313
 20
112.119857788086
 40
0.0
 41
0.0
 42
0.0
 10
1298.61779785156
 20
106.303245544434
 40
0.0
 41
0.0
 42
0.0
 10
1243.74182128906
 20
131.494064331055
 40
0.0
 41
0.0
 42
0.0
 10
1267.09411621094
 20
182.364837646484
 40
0.0
 41
0.0
 42
0.0
 10
1194.388671875
 20
215.740310668945
 40
0.0
 41
0.0
 42
0.0
 10
1200.21984863281
 20
228.443115234375
 40
0.0
 41
0.0
 42
-0.167146261456417
 10
1204.70703125
 20
233.149841308594
 40
0.0
 41
0.0
 42
0.0
 10
1317.15734863281
 20
291.422973632813
 40
0.0
 41
0.0
 42
0.0
 10
1368.05102539063
 20
268.060150146484
 40
0.0
 41
0.0
 42
0.0
 10
1373.49157714844
 20
268.957672119141
 40
0.0
 41
0.0
 42
0.0
 10
1372.71154785156
 20
263.151977539063
 40
0.0
 41
0.0
 42
0.0
 10
1378.39086914063
 20
269.765899658203
 40
0.0
 41
0.0
 42
0.0
 10
1383.01123046875
 20
270.528106689453
 40
0.0
 41
0.0
 42
-0.119091097357295
 10
1613.5869140625
 20
255.070846557617
 40
0.0
 41
0.0
 42
0.0
 10
1617.67504882813
 20
253.709808349609
 40
0.0
 41
0.0
 42
0.0
 10
1616.76440429688
 20
246.932144165039
 40
0.0
 41
0.0
 42
0.0
 10
1621.49291992188
 20
252.438766479492
 40
0.0
 41
0.0
 42
0.0
 10
1625.5810546875
 20
251.077743530273
 40
0.0
 41
0.0
 42
0.0
210
0.0
220
0.0
230
1.0
  0
LWPOLYLINE
  5
3D
330
36
100
AcDbEntity
  8
0
  6
ByLayer
 62
256
 48
1.0
 60
0
370
-1
100
AcDbPolyline
 90
3
 70
0
 38
0.0
 39
0.0
 10
1551.24731445313
 20
223.491333007813
 40
0.0
 41
0.0
 42
1.00000416025805
 10
1533.07104492188
 20
231.835205078125
 40
0.0
 41
0.0
 42
1.00000277350345
 10
1551.24731445313
 20
223.491333007813
 40
0.0
 41
0.0
 42
0.0
210
0.0
220
0.0
230
1.0
  0
LWPOLYLINE
  5
3E
330
36
100
AcDbEntity
  8
0
  6
ByLayer
 62
256
 48
1.0
 60
0
370
-1
100
AcDbPolyline
 90
3
 70
0
 38
0.0
 39
0.0
 10
1503.96447753906
 20
232.198928833008
 40
0.0
 41
0.0
 42
1.00000277350345
 10
1485.78820800781
 20
240.54280090332
 40
0.0
 41
0.0
 42
1.00000786626441
 10
1503.96447753906
 20
232.198928833008
 40
0.0
 41
0.0
 42
0.0
210
0.0
220
0.0
230
1.0
  0
LWPOLYLINE
  5
3F
330
36
100
AcDbEntity
  8
0
  6
ByLayer
 62
256
 48
1.0
 60
0
370
-1
100
AcDbPolyline
 90
3
 70
0
 38
0.0
 39
0.0
 10
1451.28259277344
 20
228.463348388672
 40
0.0
 41
0.0
 42
0.999984040648924
 10
1433.10620117188
 20
236.807220458984
 40
0.0
 41
0.0
 42
1.00000531984029
 10
1451.28259277344
 20
228.463348388672
 40
0.0
 41
0.0
 42
0.0
210
0.0
220
0.0
230
1.0
  0
LWPOLYLINE
  5
40
330
36
100
AcDbEntity
  8
0
  6
ByLayer
 62
256
 48
1.0
 60
0
370
-1
100
AcDbPolyline
 90
30
 70
0
 38
0.0
 39
0.0
 10
2130.87182617188
 20
251.077743530273
 40
0.0
 41
0.0
 42
0.0
 10
2181.765625
 20
227.714920043945
 40
0.0
 41
0.0
 42
0.0
 10
2236.39086914063
 20
169.969650268555
 40
0.0
 41
0.0
 42
-0.306073089061398
 10
2238.21435546875
 20
158.925643920898
 40
0.0
 41
0.0
 42
0.0
 10
2233.76635742188
 20
149.235855102539
 40
0.0
 41
0.0
 42
0.0
 10
2161.06079101563
 20
182.611328125
 40
0.0
 41
0.0
 42
0.0
 10
2124.84692382813
 20
103.722541809082
 40
0.0
 41
0.0
 42
0.0
 10
2070.36450195313
 20
128.732757568359
 40
0.0
 41
0.0
 42
0.0
 10
2071.09985351563
 20
135.930404663086
 40
0.0
 41
0.0
 42
0.0
 10
2066.14892578125
 20
129.883544921875
 40
0.0
 41
0.0
 42
0.186949420178368
 10
1809.53088378906
 20
103.722328186035
 40
0.0
 41
0.0
 42
0.0
 10
1807.37194824219
 20
104.713424682617
 40
0.0
 41
0.0
 42
0.0
 10
1808.67102050781
 20
112.119857788086
 40
0.0
 41
0.0
 42
0.0
 10
1803.90869140625
 20
106.303245544434
 40
0.0
 41
0.0
 42
0.0
 10
1749.03271484375
 20
131.494064331055
 40
0.0
 41
0.0
 42
0.0
 10
1772.38500976563
 20
182.364837646484
 40
0.0
 41
0.0
 42
0.0
 10
1699.67956542969
 20
215.740310668945
 40
0.0
 41
0.0
 42
0.0
 10
1705.5107421875
 20
228.443115234375
 40
0.0
 41
0.0
 42
-0.167146261456417
 10
1709.99792480469
 20
233.149841308594
 40
0.0
 41
0.0
 42
0.0
 10
1822.4482421875
 20
291.422973632813
 40
0.0
 41
0.0
 42
0.0
 10
1873.34191894531
 20
268.060150146484
 40
0.0
 41
0.0
 42
0.0
 10
1878.78247070313
 20
268.957672119141
 40
0.0
 41
0.0
 42
0.0
 10
1878.00244140625
 20
263.151977539063
 40
0.0
 41
0.0
 42
0.0
 10
1883.68176269531
 20
269.765899658203
 40
0.0
 41
0.0
 42
0.0
 10
1888.30212402344
 20
270.528106689453
 40
0.0
 41
0.0
 42
-0.119091037334406
 10
2118.87768554688
 20
255.070846557617
 40
0.0
 41
0.0
 42
0.0
 10
2122.96606445313
 20
253.709808349609
 40
0.0
 41
0.0
 42
0.0
 10
2122.05541992188
 20
246.932144165039
 40
0.0
 41
0.0
 42
0.0
 10
2126.78369140625
 20
252.438766479492
 40
0.0
 41
0.0
 42
0.0
 10
2130.87182617188
 20
251.077743530273
 40
0.0
 41
0.0
 42
0.0
210
0.0
220
0.0
230
1.0
  0
LWPOLYLINE
  5
41
330
36
100
AcDbEntity
  8
0
  6
ByLayer
 62
256
 48
1.0
 60
0
370
-1
100
AcDbPolyline
 90
3
 70
0
 38
0.0
 39
0.0
 10
2056.53833007813
 20
223.491333007813
 40
0.0
 41
0.0
 42
0.999995612629664
 10
2038.36193847656
 20
231.835205078125
 40
0.0
 41
0.0
 42
1.00000531984029
 10
2056.53833007813
 20
223.491333007813
 40
0.0
 41
0.0
 42
0.0
210
0.0
220
0.0
230
1.0
  0
LWPOLYLINE
  5
42
330
36
100
AcDbEntity
  8
0
  6
ByLayer
 62
256
 48
1.0
 60
0
370
-1
100
AcDbPolyline
 90
3
 70
0
 38
0.0
 39
0.0
 10
2009.25537109375
 20
232.198928833008
 40
0.0
 41
0.0
 42
1.00000277350345
 10
1991.0791015625
 20
240.54280090332
 40
0.0
 41
0.0
 42
1.00000277350345
 10
2009.25537109375
 20
232.198928833008
 40
0.0
 41
0.0
 42
0.0
210
0.0
220
0.0
230
1.0
  0
LWPOLYLINE
  5
43
330
36
100
AcDbEntity
  8
0
  6
ByLayer
 62
256
 48
1.0
 60
0
370
-1
100
AcDbPolyline
 90
3
 70
0
 38
0.0
 39
0.0
 10
1956.57348632813
 20
228.463348388672
 40
0.0
 41
0.0
 42
0.999989133257986
 10
1938.39709472656
 20
236.807220458984
 40
0.0
 41
0.0
 42
1.00000531984029
 10
1956.57348632813
 20
228.463348388672
 40
0.0
 41
0.0
 42
0.0
210
0.0
220
0.0
230
1.0
  0
LWPOLYLINE
  5
44
330
36
100
AcDbEntity
  8
0
  6
ByLayer
 62
256
 48
1.0
 60
0
370
-1
100
AcDbPolyline
 90
5
 70
0
 38
0.0
 39
0.0
 10
4.99999952316284
 20
285.0
 40
0.0
 41
0.0
 42
0.0
 10
412.619842529297
 20
285.0
 40
0.0
 41
0.0
 42
0.0
 10
412.619842529297
 20
195.0
 40
0.0
 41
0.0
 42
0.0
 10
4.99999952316284
 20
195.0
 40
0.0
 41
0.0
 42
0.0
 10
4.99999952316284
 20
285.0
 40
0.0
 41
0.0
 42
0.0
210
0.0
220
0.0
230
1.0
  0
LWPOLYLINE
  5
45
330
36
100
AcDbEntity
  8
0
  6
ByLayer
 62
256
 48
1.0
 60
0
370
-1
100
AcDbPolyline
 90
5
 70
0
 38
0.0
 39
0.0
 10
420.119873046875
 20
280.0
 40
0.0
 41
0.0
 42
0.0
 10
827.73974609375
 20
280.0
 40
0.0
 41
0.0
 42
0.0
 10
827.73974609375
 20
195.0
 40
0.0
 41
0.0
 42
0.0
 10
420.119873046875
 20
195.0
 40
0.0
 41
0.0
 42
0.0
 10
420.119873046875
 20
280.0
 40
0.0
 41
0.0
 42
0.0
210
0.0
220
0.0
230
1.0
  0
LWPOLYLINE
  5
46
330
36
100
AcDbEntity
  8
0
  6
ByLayer
 62
256
 48
1.0
 60
0
370
-1
100
AcDbPolyline
 90
5
 70
0
 38
0.0
 39
0.0
 10
2541.39990234375
 20
221.271957397461
 40
0.0
 41
0.0
 42
0.0
 10
2471.82861328125
 20
103.941780090332
 40
0.0
 41
0.0
 42
0.185256190628482
 10
2216.06079101563
 20
103.94172668457
 40
0.0
 41
0.0
 42
0.0
 10
2309.43896484375
 20
261.421539306641
 40
0.0
 41
0.0
 42
-0.12138130293832
 10
2541.39990234375
 20
221.271957397461
 40
0.0
 41
0.0
 42
0.0
210
0.0
220
0.0
230
1.0
  0
LWPOLYLINE
  5
47
330
36
100
AcDbEntity
  8
0
  6
ByLayer
 62
256
 48
1.0
 60
0
370
-1
100
AcDbPolyline
 90
3
 70
0
 38
0.0
 39
0.0
 10
2474.248046875
 20
197.197158813477
 40
0.0
 41
0.0
 42
0.999998687509316
 10
2457.044921875
 20
207.397811889648
 40
0.0
 41
0.0
 42
0.999998687509316
 10
2474.248046875
 20
197.197158813477
 40
0.0
 41
0.0
 42
0.0
210
0.0
220
0.0
230
1.0
  0
LWPOLYLINE
  5
48
330
36
100
AcDbEntity
  8
0
  6
ByLayer
 62
256
 48
1.0
 60
0
370
-1
100
AcDbPolyline
 90
3
 70
0
 38
0.0
 39
0.0
 10
2428.13623046875
 20
210.806259155273
 40
0.0
 41
0.0
 42
0.999992461425609
 10
2410.93334960938
 20
221.006912231445
 40
0.0
 41
0.0
 42
1.00003705400019
 10
2428.13623046875
 20
210.806259155273
 40
0.0
 41
0.0
 42
0.0
210
0.0
220
0.0
230
1.0
  0
LWPOLYLINE
  5
49
330
36
100
AcDbEntity
  8
0
  6
ByLayer
 62
256
 48
1.0
 60
0
370
-1
100
AcDbPolyline
 90
3
 70
0
 38
0.0
 39
0.0
 10
2375.35278320313
 20
212.605712890625
 40
0.0
 41
0.0
 42
0.999998687509316
 10
2358.14965820313
 20
222.806365966797
 40
0.0
 41
0.0
 42
0.999998687509316
 10
2375.35278320313
 20
212.605712890625
 40
0.0
 41
0.0
 42
0.0
210
0.0
220
0.0
230
1.0
  0
LWPOLYLINE
  5
4A
330
36
100
AcDbEntity
  8
0
  6
ByLayer
 62
256
 48
1.0
 60
0
370
-1
100
AcDbPolyline
 90
9
 70
0
 38
0.0
 39
0.0
 10
2526.02221679688
 20
113.447303771973
 40
0.0
 41
0.0
 42
-0.552028074746199
 10
2519.05688476563
 20
163.738784790039
 40
0.0
 41
0.0
 42
0.0
 10
2621.57739257813
 20
247.993804931641
 40
0.0
 41
0.0
 42
-0.35350475794294
 10
2653.00122070313
 20
248.254486083984
 40
0.0
 41
0.0
 42
0.0
 10
2742.158203125
 20
179.084686279297
 40
0.0
 41
0.0
 42
-0.661626973848644
 10
2722.16528320313
 20
102.5
 40
0.0
 41
0.0
 42
0.0
 10
2559.92626953125
 20
102.5
 40
0.0
 41
0.0
 42
-0.100958284821982
 10
2543.50463867188
 20
105.53833770752
 40
0.0
 41
0.0
 42
0.0
 10
2526.02221679688
 20
113.447303771973
 40
0.0
 41
0.0
 42
0.0
210
0.0
220
0.0
230
1.0
  0
LWPOLYLINE
  5
4B
330
36
100
AcDbEntity
  8
0
  6
ByLayer
 62
256
 48
1.0
 60
0
370
-1
100
AcDbPolyline
 90
3
 70
0
 38
0.0
 39
0.0
 10
2724.33227539063
 20
163.721420288086
 40
0.0
 41
0.0
 42
1.00000412395354
 10
2707.45068359375
 20
126.358238220215
 40
0.0
 41
0.0
 42
0.999993424266135
 10
2724.33227539063
 20
163.721420288086
 40
0.0
 41
0.0
 42
0.0
210
0.0
220
0.0
230
1.0
  0
LWPOLYLINE
  5
4C
330
36
100
AcDbEntity
  8
0
  6
ByLayer
 62
256
 48
1.0
 60
0
370
-1
100
AcDbPolyline
 90
3
 70
0
 38
0.0
 39
0.0
 10
2616.1259765625
 20
213.870697021484
 40
0.0
 41
0.0
 42
0.999990575555815
 10
2612.00830078125
 20
204.757736206055
 40
0.0
 41
0.0
 42
0.999990575555815
 10
2616.1259765625
 20
213.870697021484
 40
0.0
 41
0.0
 42
0.0
210
0.0
220
0.0
230
1.0
  0
LWPOLYLINE
  5
4D
330
36
100
AcDbEntity
  8
0
  6
ByLayer
 62
256
 48
1.0
 60
0
370
-1
100
AcDbPolyline
 90
3
 70
0
 38
0.0
 39
0.0
 10
2540.43359375
 20
145.342697143555
 40
0.0
 41
0.0
 42
0.999989318969967
 10
2536.31591796875
 20
136.229736328125
 40
0.0
 41
0.0
 42
0.999990575555815
 10
2540.43359375
 20
145.342697143555
 40
0.0
 41
0.0
 42
0.0
210
0.0
220
0.0
230
1.0
  0
LWPOLYLINE
  5
4E
330
36
100
AcDbEntity
  8
0
  6
ByLayer
 62
256
 48
1.0
 60
0
370
-1
100
AcDbPolyline
 90
9
 70
0
 38
0.0
 39
0.0
 10
2754.49047851563
 20
55.0712242126465
 40
0.0
 41
0.0
 42
-0.552028076927916
 10
2747.52514648438
 20
105.362701416016
 40
0.0
 41
0.0
 42
0.0
 10
2850.04565429688
 20
189.617721557617
 40
0.0
 41
0.0
 42
-0.353504973688829
 10
2881.46948242188
 20
189.878402709961
 40
0.0
 41
0.0
 42
0.0
 10
2970.62646484375
 20
120.708602905273
 40
0.0
 41
0.0
 42
-0.661630608562161
 10
2950.63354492188
 20
44.1239166259766
 40
0.0
 41
0.0
 42
0.0
 10
2788.39453125
 20
44.1239128112793
 40
0.0
 41
0.0
 42
-0.100957341650609
 10
2771.97290039063
 20
47.1622543334961
 40
0.0
 41
0.0
 42
0.0
 10
2754.49047851563
 20
55.0712242126465
 40
0.0
 41
0.0
 42
0.0
210
0.0
220
0.0
230
1.0
  0
LWPOLYLINE
  5
4F
330
36
100
AcDbEntity
  8
0
  6
ByLayer
 62
256
 48
1.0
 60
0
370
-1
100
AcDbPolyline
 90
3
 70
0
 38
0.0
 39
0.0
 10
2952.80053710938
 20
105.345336914063
 40
0.0
 41
0.0
 42
1.00000427719234
 10
2935.9189453125
 20
67.9821548461914
 40
0.0
 41
0.0
 42
0.999993424266135
 10
2952.80053710938
 20
105.345336914063
 40
0.0
 41
0.0
 42
0.0
210
0.0
220
0.0
230
1.0
  0
LWPOLYLINE
  5
50
330
36
100
AcDbEntity
  8
0
  6
ByLayer
 62
256
 48
1.0
 60
0
370
-1
100
AcDbPolyline
 90
3
 70
0
 38
0.0
 39
0.0
 10
2844.59423828125
 20
155.494613647461
 40
0.0
 41
0.0
 42
0.999989318969967
 10
2840.4765625
 20
146.381652832031
 40
0.0
 41
0.0
 42
0.999990575555815
 10
2844.59423828125
 20
155.494613647461
 40
0.0
 41
0.0
 42
0.0
210
0.0
220
0.0
230
1.0
  0
LWPOLYLINE
  5
51
330
36
100
AcDbEntity
  8
0
  6
ByLayer
 62
256
 48
1.0
 60
0
370
-1
100
AcDbPolyline
 90
3
 70
0
 38
0.0
 39
0.0
 10
2768.90185546875
 20
86.9666213989258
 40
0.0
 41
0.0
 42
0.999989633130696
 10
2764.7841796875
 20
77.8536529541016
 40
0.0
 41
0.0
 42
0.999990261422747
 10
2768.90185546875
 20
86.9666213989258
 40
0.0
 41
0.0
 42
0.0
210
0.0
220
0.0
230
1.0
  0
LWPOLYLINE
  5
52
330
36
100
AcDbEntity
  8
0
  6
ByLayer
 62
256
 48
1.0
 60
0
370
-1
100
AcDbPolyline
 90
5
 70
0
 38
0.0
 39
0.0
 10
1082.81774902344
 20
196.048873901367
 40
0.0
 41
0.0
 42
0.154177858241681
 10
838.005249023438
 20
196.048538208008
 40
0.0
 41
0.0
 42
0.0
 10
886.259155273438
 20
294.899749755859
 40
0.0
 41
0.0
 42
-0.121381510623328
 10
1120.71032714844
 20
273.674194335938
 40
0.0
 41
0.0
 42
0.0
 10
1082.81774902344
 20
196.048873901367
 40
0.0
 41
0.0
 42
0.0
210
0.0
220
0.0
230
1.0
  0
LWPOLYLINE
  5
53
330
36
100
AcDbEntity
  8
0
  6
ByLayer
 62
256
 48
1.0
 60
0
370
-1
100
AcDbPolyline
 90
3
 70
0
 38
0.0
 39
0.0
 10
990.693908691406
 20
262.840393066406
 40
0.0
 41
0.0
 42
1.00000068561525
 10
1008.66680908203
 20
254.066970825195
 40
0.0
 41
0.0
 42
1.00000205684718
 10
990.693908691406
 20
262.840393066406
 40
0.0
 41
0.0
 42
0.0
210
0.0
220
0.0
230
1.0
  0
LWPOLYLINE
  5
54
330
36
100
AcDbEntity
  8
0
  6
ByLayer
 62
256
 48
1.0
 60
0
370
-1
100
AcDbPolyline
 90
3
 70
0
 38
0.0
 39
0.0
 10
1037.75646972656
 20
253.01171875
 40
0.0
 41
0.0
 42
0.999995330728328
 10
1055.72937011719
 20
244.238296508789
 40
0.0
 41
0.0
 42
0.99999395950563
 10
1037.75646972656
 20
253.01171875
 40
0.0
 41
0.0
 42
0.0
210
0.0
220
0.0
230
1.0
  0
LWPOLYLINE
  5
55
330
36
100
AcDbEntity
  8
0
  6
ByLayer
 62
256
 48
1.0
 60
0
370
-1
100
AcDbPolyline
 90
3
 70
0
 38
0.0
 39
0.0
 10
937.938049316406
 20
260.357727050781
 40
0.0
 41
0.0
 42
1.00000065310368
 10
955.911010742188
 20
251.58430480957
 40
0.0
 41
0.0
 42
1.00000071812397
 10
937.938049316406
 20
260.357727050781
 40
0.0
 41
0.0
 42
0.0
210
0.0
220
0.0
230
1.0
  0
ENDSEC
  0
SECTION
  2
OBJECTS
  0
DICTIONARY
  5
A
330
0
100
AcDbDictionary
280
0
281
0
  3
ACAD_COLOR
350
B
  3
ACAD_GROUP
350
C
  3
ACAD_LAYOUT
350
D
  3
ACAD_MATERIAL
350
E
  3
ACAD_SORTENTS
350
F
  3
ACAD_MLEADERSTYLE
350
10
  3
ACAD_MLINESTYLE
350
14
  3
ACAD_TABLESTYLE
350
16
  3
ACAD_PLOTSETTINGS
350
17
  3
AcDbVariableDictionary
350
18
  3
ACAD_SCALELIST
350
19
  3
ACAD_VISUALSTYLE
350
2B
  3
ACAD_FIELDLIST
350
2C
  3
ACAD_IMAGE_DICT
350
2D
  3
ACAD_PDFDEFINITIONS
350
2E
  0
DICTIONARY
  5
B
330
A
100
AcDbDictionary
280
0
281
0
  0
DICTIONARY
  5
C
330
A
100
AcDbDictionary
280
0
281
0
  0
DICTIONARY
  5
D
330
A
100
AcDbDictionary
280
0
281
0
  3
Model
350
35
  0
DICTIONARY
  5
E
330
A
100
AcDbDictionary
280
0
281
0
  0
DICTIONARY
  5
F
330
A
100
AcDbDictionary
280
0
281
0
  0
DICTIONARY
  5
10
330
A
100
AcDbDictionary
280
0
281
0
  3
Standard
350
11
  0
DICTIONARY
  5
14
330
A
100
AcDbDictionary
280
0
281
0
  3
Standard
350
15
  0
DICTIONARY
  5
16
330
A
100
AcDbDictionary
280
0
281
0
  0
DICTIONARY
  5
17
330
A
100
AcDbDictionary
280
0
281
0
  0
DICTIONARY
  5
18
330
A
100
AcDbDictionary
280
0
281
0
  0
DICTIONARY
  5
19
330
A
100
AcDbDictionary
280
0
281
0
  3
A0
350
1A
  3
A1
350
1B
  3
A2
350
1C
  3
A3
350
1D
  3
A4
350
1E
  3
A5
350
1F
  3
A6
350
20
  3
A7
350
21
  3
A8
350
22
  3
A9
350
23
  3
B0
350
24
  3
B1
350
25
  3
B2
350
26
  3
B3
350
27
  3
B4
350
28
  3
B5
350
29
  3
B6
350
2A
  0
DICTIONARY
  5
2B
330
A
100
AcDbDictionary
280
0
281
0
  0
DICTIONARY
  5
2C
330
A
100
AcDbDictionary
280
0
281
0
  0
DICTIONARY
  5
2D
330
A
100
AcDbDictionary
280
0
281
0
  0
DICTIONARY
  5
2E
330
A
100
AcDbDictionary
280
0
281
0
  0
LAYOUT
  5
35
330
D
100
AcDbPlotSettings
  1
none_device
  4
ISO_A4_(210.00_x_297.00_MM)
 40
0.0
 41
0.0
 42
0.0
 43
0.0
 44
0.0
 45
0.0
 46
0.0
 47
0.0
 48
0.0
 49
0.0
140
0.0
141
0.0
142
1.0
143
1.0
 70
688
 72
1
 73
0
 74
1
 75
0
 76
0
 77
0
 78
300
147
1.0
148
0.0
149
0.0
100
AcDbLayout
  1
Model
 71
0
 10
-20.0
 20
-7.5
 11
277.0
 21
202.5
 12
0.0
 22
0.0
 32
0.0
 13
0.0
 23
0.0
 33
0.0
 14
25.7
 24
19.5
 34
0.0
 15
231.3
 25
175.5
 35
0.0
 16
1.0
 26
0.0
 36
0.0
 17
0.0
 27
1.0
 37
0.0
146
0.0
 76
0
330
36
  0
MLEADERSTYLE
  5
11
330
10
100
AcDbMLeaderStyle
179
2
170
0
171
0
172
0
 90
0
 40
0.0
 41
0.0
173
0
 91
-1056964608
340
13
 92
0
290
0
 42
0.0
291
0
 43
0.0
 44
0.0
342
12
174
0
178
0
175
0
176
0
 93
-1056964608
 45
0.0
292
0
297
0
 46
0.0
 94
-1056964608
 47
0.0
 49
0.0
140
0.0
293
0
141
0.0
294
0
177
0
142
0.0
295
0
296
0
143
0.0
271
0
272
0
273
0
298
0
  0
MLINESTYLE
  5
15
330
14
100
AcDbMlineStyle
  2
Standard
 70
0
 62
0
 51
90.0
 52
90.0
 71
0
  0
SCALE
  5
1A
330
19
100
AcDbScale
 70
0
300
A0
140
1.0
141
1.0
290
1
  0
SCALE
  5
1B
330
19
100
AcDbScale
 70
0
300
A1
140
1.0
141
2.0
290
0
  0
SCALE
  5
1C
330
19
100
AcDbScale
 70
0
300
A2
140
1.0
141
4.0
290
0
  0
SCALE
  5
1D
330
19
100
AcDbScale
 70
0
300
A3
140
1.0
141
5.0
290
0
  0
SCALE
  5
1E
330
19
100
AcDbScale
 70
0
300
A4
140
1.0
141
8.0
290
0
  0
SCALE
  5
1F
330
19
100
AcDbScale
 70
0
300
A5
140
1.0
141
10.0
290
0
  0
SCALE
  5
20
330
19
100
AcDbScale
 70
0
300
A6
140
1.0
141
16.0
290
0
  0
SCALE
  5
21
330
19
100
AcDbScale
 70
0
300
A7
140
1.0
141
20.0
290
0
  0
SCALE
  5
22
330
19
100
AcDbScale
 70
0
300
A8
140
1.0
141
30.0
290
0
  0
SCALE
  5
23
330
19
100
AcDbScale
 70
0
300
A9
140
1.0
141
40.0
290
0
  0
SCALE
  5
24
330
19
100
AcDbScale
 70
0
300
B0
140
1.0
141
50.0
290
0
  0
SCALE
  5
25
330
19
100
AcDbScale
 70
0
300
B1
140
1.0
141
100.0
290
0
  0
SCALE
  5
26
330
19
100
AcDbScale
 70
0
300
B2
140
2.0
141
1.0
290
0
  0
SCALE
  5
27
330
19
100
AcDbScale
 70
0
300
B3
140
4.0
141
1.0
290
0
  0
SCALE
  5
28
330
19
100
AcDbScale
 70
0
300
B4
140
8.0
141
1.0
290
0
  0
SCALE
  5
29
330
19
100
AcDbScale
 70
0
300
B5
140
10.0
141
1.0
290
0
  0
SCALE
  5
2A
330
19
100
AcDbScale
 70
0
300
B6
140
100.0
141
1.0
290
0
  0
ENDSEC
  0
EOF
