  0
SECTION
  2
HEADER
  9
$ACADVER
  1
AC1009
  9
$DWGCODEPAGE
  3
ansi_1252
  9
$INSBASE
 10
0.0
 20
0.0
 30
0.0
  9
$EXTMIN
 10
1.750863379458195
 20
3.621644903527576
 30
0.0
  9
$EXTMAX
 10
412.743231484968
 20
540.2602494724745
 30
0.0
  9
$LIMMIN
 10
0.0
 20
0.0
  9
$LIMMAX
 10
12.0
 20
9.0
  9
$ORTHOMODE
 70
     1
  9
$REGENMODE
 70
     1
  9
$FILLMODE
 70
     1
  9
$QTEXTMODE
 70
     0
  9
$MIRRTEXT
 70
     0
  9
$DRAGMODE
 70
     2
  9
$LTSCALE
 40
1.0
  9
$OSMODE
 70
  1023
  9
$ATTMODE
 70
     1
  9
$TEXTSIZE
 40
0.2
  9
$TRACEWID
 40
0.05
  9
$TEXTSTYLE
  7
STANDARD
  9
$CLAYER
  8
0
  9
$CELTYPE
  6
BYLAYER
  9
$CECOLOR
 62
   256
  9
$DIMSCALE
 40
1.0
  9
$DIMASZ
 40
0.18
  9
$DIMEXO
 40
0.0625
  9
$DIMDLI
 40
0.38
  9
$DIMRND
 40
0.0
  9
$DIMDLE
 40
0.0
  9
$DIMEXE
 40
0.18
  9
$DIMTP
 40
0.0
  9
$DIMTM
 40
0.0
  9
$DIMTXT
 40
0.18
  9
$DIMCEN
 40
0.09
  9
$DIMTSZ
 40
0.0
  9
$DIMTOL
 70
     0
  9
$DIMLIM
 70
     0
  9
$DIMTIH
 70
     1
  9
$DIMTOH
 70
     1
  9
$DIMSE1
 70
     0
  9
$DIMSE2
 70
     0
  9
$DIMTAD
 70
     0
  9
$DIMZIN
 70
     0
  9
$DIMBLK
  1

  9
$DIMASO
 70
     1
  9
$DIMSHO
 70
     1
  9
$DIMPOST
  1

  9
$DIMAPOST
  1

  9
$DIMALT
 70
     0
  9
$DIMALTD
 70
     2
  9
$DIMALTF
 40
25.4
  9
$DIMLFAC
 40
1.0
  9
$DIMTOFL
 70
     0
  9
$DIMTVP
 40
0.0
  9
$DIMTIX
 70
     0
  9
$DIMSOXD
 70
     0
  9
$DIMSAH
 70
     0
  9
$DIMBLK1
  1

  9
$DIMBLK2
  1

  9
$DIMSTYLE
  2
STANDARD
  9
$DIMCLRD
 70
     0
  9
$DIMCLRE
 70
     0
  9
$DIMCLRT
 70
     0
  9
$DIMTFAC
 40
1.0
  9
$DIMGAP
 40
0.09
  9
$LUNITS
 70
     2
  9
$LUPREC
 70
     4
  9
$SKETCHINC
 40
0.1
  9
$FILLETRAD
 40
0.0
  9
$AUNITS
 70
     0
  9
$AUPREC
 70
     0
  9
$MENU
  1
.
  9
$ELEVATION
 40
0.0
  9
$PELEVATION
 40
0.0
  9
$THICKNESS
 40
0.0
  9
$LIMCHECK
 70
     0
  9
$CHAMFERA
 40
0.0
  9
$CHAMFERB
 40
0.0
  9
$SKPOLY
 70
     0
  9
$TDCREATE
 40
2452643.146717593
  9
$TDUPDATE
 40
2457207.601091123
  9
$TDINDWG
 40
0.0027496875
  9
$TDUSRTIMER
 40
2457207.517661204
  9
$USRTIMER
 70
     1
  9
$ANGBASE
 50
0.0
  9
$ANGDIR
 70
     0
  9
$PDMODE
 70
     0
  9
$PDSIZE
 40
0.0
  9
$PLINEWID
 40
0.0
  9
$COORDS
 70
     1
  9
$SPLFRAME
 70
     0
  9
$SPLINETYPE
 70
     6
  9
$SPLINESEGS
 70
     8
  9
$ATTDIA
 70
     0
  9
$ATTREQ
 70
     1
  9
$HANDLING
 70
     1
  9
$HANDSEED
  5
208
  9
$SURFTAB1
 70
     6
  9
$SURFTAB2
 70
     6
  9
$SURFTYPE
 70
     6
  9
$SURFU
 70
     6
  9
$SURFV
 70
     6
  9
$UCSNAME
  2

  9
$UCSORG
 10
0.0
 20
0.0
 30
0.0
  9
$UCSXDIR
 10
1.0
 20
0.0
 30
0.0
  9
$UCSYDIR
 10
0.0
 20
1.0
 30
0.0
  9
$PUCSNAME
  2

  9
$PUCSORG
 10
0.0
 20
0.0
 30
0.0
  9
$PUCSXDIR
 10
1.0
 20
0.0
 30
0.0
  9
$PUCSYDIR
 10
0.0
 20
1.0
 30
0.0
  9
$USERI1
 70
     0
  9
$USERI2
 70
     0
  9
$USERI3
 70
     0
  9
$USERI4
 70
     0
  9
$USERI5
 70
     0
  9
$USERR1
 40
0.0
  9
$USERR2
 40
0.0
  9
$USERR3
 40
0.0
  9
$USERR4
 40
0.0
  9
$USERR5
 40
0.0
  9
$WORLDVIEW
 70
     1
  9
$SHADEDGE
 70
     3
  9
$SHADEDIF
 70
    70
  9
$TILEMODE
 70
     1
  9
$MAXACTVP
 70
    64
  9
$PLIMCHECK
 70
     0
  9
$PEXTMIN
 10
0.0
 20
0.0
 30
0.0
  9
$PEXTMAX
 10
0.0
 20
0.0
 30
0.0
  9
$PLIMMIN
 10
0.0
 20
0.0
  9
$PLIMMAX
 10
0.0
 20
0.0
  9
$UNITMODE
 70
     0
  9
$VISRETAIN
 70
     1
  9
$PLINEGEN
 70
     0
  9
$PSLTSCALE
 70
     1
  0
ENDSEC
  0
SECTION
  2
TABLES
  0
TABLE
  2
VPORT
 70
     1
  0
VPORT
  2
*ACTIVE
 70
     0
 10
0.0
 20
0.0
 11
1.0
 21
1.0
 12
-296.6392150012184
 22
-118.5529184143924
 13
0.0
 23
0.0
 14
0.5
 24
0.5
 15
0.5
 25
0.5
 16
0.0
 26
0.0
 36
1.0
 17
-27.66959356597982
 27
-19.53870295786203
 37
0.0
 40
2627.684852895364
 41
2.534788540245566
 42
50.0
 43
0.0
 44
0.0
 50
0.0
 51
0.0
 71
    16
 72
  1000
 73
     1
 74
     3
 75
     0
 76
     0
 77
     0
 78
     0
  0
ENDTAB
  0
TABLE
  2
LTYPE
 70
     1
  0
LTYPE
  2
CONTINUOUS
 70
     0
  3
Solid line
 72
    65
 73
     0
 40
0.0
  0
ENDTAB
  0
TABLE
  2
LAYER
 70
     1
  0
LAYER
  2
0
 70
     0
 62
     7
  6
CONTINUOUS
  0
ENDTAB
  0
TABLE
  2
STYLE
 70
     1
  0
STYLE
  2
STANDARD
 70
     0
 40
0.0
 41
1.0
 50
0.0
 71
     0
 42
0.2
  3
arial.ttf
  4

  0
ENDTAB
  0
TABLE
  2
VIEW
 70
     0
  0
ENDTAB
  0
TABLE
  2
UCS
 70
     0
  0
ENDTAB
  0
TABLE
  2
APPID
 70
     5
  0
APPID
  2
ACAD
 70
     0
  0
APPID
  2
ACAD_DSTYLE_DIMBREAK
 70
     0
  0
APPID
  2
ACAD_DSTYLE_DIMJAG
 70
     0
  0
APPID
  2
ACAD_DSTYLE_DIMTALN
 70
     0
  0
APPID
  2
ACAD_PSEXT
 70
     0
  0
ENDTAB
  0
TABLE
  2
DIMSTYLE
 70
     2
  0
DIMSTYLE
  2
STANDARD
 70
     0
  3

  4

  5

  6

  7

 40
1.0
 41
0.18
 42
0.0625
 43
0.38
 44
0.18
 45
0.0
 46
0.0
 47
0.0
 48
0.0
140
0.18
141
0.09
142
0.0
143
25.4
144
1.0
145
0.0
146
1.0
147
0.09
 71
     0
 72
     0
 73
     1
 74
     1
 75
     0
 76
     0
 77
     0
 78
     0
170
     0
171
     2
172
     0
173
     0
174
     0
175
     0
176
     0
177
     0
178
     0
  0
DIMSTYLE
  2
COPIA_DI_ISO-25
 70
     0
  3

  4

  5

  6

  7

 40
1.0
 41
20.0
 42
16.0
 43
3.75
 44
1.25
 45
0.0
 46
0.0
 47
0.0
 48
0.0
140
30.0
141
2.5
142
0.0
143
0.0393700787
144
1.0
145
0.0
146
1.0
147
10.0
 71
     0
 72
     0
 73
     0
 74
     0
 75
     0
 76
     0
 77
     1
 78
     8
170
     0
171
     3
172
     1
173
     0
174
     0
175
     0
176
     0
177
     0
178
     0
  0
ENDTAB
  0
ENDSEC
  0
SECTION
  2
BLOCKS
  0
BLOCK
  8
0
  2
$MODEL_SPACE
 70
     0
 10
0.0
 20
0.0
 30
0.0
  3
$MODEL_SPACE
  1

  0
ENDBLK
  5
21
  8
0
  0
BLOCK
 67
     1
  8
0
  2
$PAPER_SPACE
 70
     0
 10
0.0
 20
0.0
 30
0.0
  3
$PAPER_SPACE
  1

  0
ENDBLK
  5
5B
 67
     1
  8
0
  0
ENDSEC
  0
SECTION
  2
ENTITIES
  0
LINE
  5
16A
  8
0
 10
412.743231484968
 20
330.8611905158775
 30
0.0
 11
412.743231484968
 21
271.9409471879974
 31
0.0
  0
LINE
  5
16B
  8
0
 10
412.743231484968
 20
213.0207038601173
 30
0.0
 11
412.743231484968
 21
271.9409471879937
 31
0.0
  0
LINE
  5
16C
  8
0
 10
1.750863379458195
 20
81.2309132414032
 30
0.0
 11
19.17103344440026
 21
193.7955488785151
 31
0.0
  0
LINE
  5
16D
  8
0
 10
389.7060211894345
 20
12.09228006862783
 30
0.0
 11
408.5015169513765
 21
133.5439148215922
 31
0.0
  0
LINE
  5
16E
  8
0
 10
1.750863379458195
 20
81.2309132414032
 30
0.0
 11
377.80761928532
 21
3.826974114601636
 31
0.0
  0
CIRCLE
  5
16F
  8
0
 10
102.1143348468663
 20
75.88750305706732
 30
0.0
 40
6.0
  0
CIRCLE
  5
170
  8
0
 10
200.1809506528093
 20
55.70240535305334
 30
0.0
 40
6.0
  0
CIRCLE
  5
171
  8
0
 10
298.2475664587505
 20
35.51730764903574
 30
0.0
 40
6.0
  0
ARC
  5
172
  8
0
 10
379.823660985428
 20
13.62164490352758
 30
0.0
 40
10.0
 50
258.3692177777334
 51
351.2028613789385
  0
CIRCLE
  5
173
  8
0
 10
375.7388054306989
 20
19.91967517528634
 30
0.0
 40
6.000000000000002
  0
CIRCLE
  5
174
  8
0
 10
390.2677713622556
 20
113.8020971133667
 30
0.0
 40
6.000000000000002
  0
LINE
  5
177
  8
0
 10
22.67788800549048
 20
270.4423711206325
 30
0.0
 11
19.46578164911287
 21
196.776478976485
 31
0.0
  0
LINE
  5
179
  8
0
 10
412.6612175158965
 20
210.0207809847756
 30
0.0
 11
408.8069494238019
 21
136.4769646883734
 31
0.0
  0
LINE
  5
17A
  8
0
 10
389.7060211894345
 20
531.7896143073742
 30
0.0
 11
408.5015169513776
 21
410.3379795544031
 31
0.0
  0
LINE
  5
17B
  8
0
 10
1.750863379458195
 20
462.6509811345989
 30
0.0
 11
377.80761928532
 21
540.0549202614004
 31
0.0
  0
CIRCLE
  5
17C
  8
0
 10
200.1809506528093
 20
488.1794890229487
 30
0.0
 40
6.0
  0
CIRCLE
  5
17D
  8
0
 10
298.2475664587505
 20
508.3645867269663
 30
0.0
 40
6.0
  0
ARC
  5
17E
  8
0
 10
379.823660985428
 20
530.2602494724745
 30
0.0
 40
10.0
 50
8.797138621061244
 51
101.6307822222667
  0
CIRCLE
  5
17F
  8
0
 10
375.7388054306989
 20
523.9622192007157
 30
0.0
 40
6.000000000000002
  0
CIRCLE
  5
180
  8
0
 10
390.2677713622556
 20
430.0797972626353
 30
0.0
 40
6.000000000000002
  0
LINE
  5
182
  8
0
 10
412.6612175158969
 20
333.8611133912194
 30
0.0
 11
408.8069494238023
 21
407.4049296876213
 31
0.0
  0
LINE
  5
183
  8
0
 10
1.750863379458195
 20
462.6509811345989
 30
0.0
 11
19.17103344440026
 21
350.0863454974869
 31
0.0
  0
LINE
  5
184
  8
0
 10
22.67788800549048
 20
273.4395232553696
 30
0.0
 11
19.46578164911287
 21
347.105415399517
 31
0.0
  0
LINE
  5
188
  8
0
 10
408.5015169513778
 20
410.3379795544033
 30
0.0
 11
404.75765734534
 21
408.2407348881065
 31
0.0
  0
LINE
  5
189
  8
0
 10
404.75765734534
 20
408.2407348881065
 30
0.0
 11
408.8069494238023
 21
407.4049296876213
 31
0.0
  0
LINE
  5
18A
  8
0
 10
412.6612175158969
 20
333.8611133912194
 30
0.0
 11
408.7699671536949
 21
331.6813030013768
 31
0.0
  0
LINE
  5
18B
  8
0
 10
408.7699671536949
 20
331.6813030013768
 30
0.0
 11
412.743231484968
 21
330.8611905158775
 31
0.0
  0
LINE
  5
18C
  8
0
 10
408.5015169513778
 20
133.5439148215915
 30
0.0
 11
404.75765734534
 21
135.6411594878883
 31
0.0
  0
LINE
  5
18D
  8
0
 10
404.75765734534
 20
135.6411594878883
 30
0.0
 11
408.8069494238023
 21
136.4769646883735
 31
0.0
  0
LINE
  5
18E
  8
0
 10
412.6612175158969
 20
210.0207809847754
 30
0.0
 11
408.7699671536949
 21
212.200591374618
 31
0.0
  0
LINE
  5
18F
  8
0
 10
408.7699671536949
 20
212.200591374618
 30
0.0
 11
412.743231484968
 21
213.0207038601173
 31
0.0
  0
ARC
  5
195
  8
0
 10
22.74323148496794
 20
271.940947188001
 30
0.0
 40
1.5
 50
267.5032728500938
 51
92.4967271499062
  0
ARC
  5
196
  8
0
 10
19.40043816963541
 20
195.2779029091164
 30
0.0
 40
1.5
 50
261.2028613789316
 51
87.50327285009381
  0
ARC
  5
197
  8
0
 10
19.40043816963541
 20
348.6039914668856
 30
0.0
 40
1.5
 50
272.4967271499062
 51
98.79713862106844
  0
CIRCLE
  5
207
  8
0
 10
102.1143348468663
 20
467.9943913189275
 30
0.0
 40
6.0
  0
ENDSEC
  0
EOF
