  0
SECTION
  2
HEADER
  9
$ACADVER
  1
AC1009
  9
$DWGCODEPAGE
  3
ansi_1252
  9
$INSBASE
 10
0.0
 20
0.0
 30
0.0
  9
$EXTMIN
 10
466.4473028662796
 20
140.1482527497687
 30
0.0
  9
$EXTMAX
 10
567.1455538662811
 20
504.1678221095928
 30
31.8344
  9
$LIMMIN
 10
0.0
 20
0.0
  9
$LIMMAX
 10
420.0
 20
297.0
  9
$ORTHOMODE
 70
     1
  9
$REGENMODE
 70
     1
  9
$FILLMODE
 70
     1
  9
$QTEXTMODE
 70
     0
  9
$MIRRTEXT
 70
     1
  9
$DRAGMODE
 70
     2
  9
$LTSCALE
 40
1.0
  9
$OSMODE
 70
  1023
  9
$ATTMODE
 70
     1
  9
$TEXTSIZE
 40
2.5
  9
$TRACEWID
 40
1.0
  9
$TEXTSTYLE
  7
STANDARD
  9
$CLAYER
  8
0
  9
$CELTYPE
  6
BYLAYER
  9
$CECOLOR
 62
   256
  9
$DIMSCALE
 40
1.0
  9
$DIMASZ
 40
2.5
  9
$DIMEXO
 40
0.625
  9
$DIMDLI
 40
3.75
  9
$DIMRND
 40
0.0
  9
$DIMDLE
 40
0.0
  9
$DIMEXE
 40
1.25
  9
$DIMTP
 40
0.0
  9
$DIMTM
 40
0.0
  9
$DIMTXT
 40
2.5
  9
$DIMCEN
 40
2.5
  9
$DIMTSZ
 40
0.0
  9
$DIMTOL
 70
     0
  9
$DIMLIM
 70
     0
  9
$DIMTIH
 70
     0
  9
$DIMTOH
 70
     0
  9
$DIMSE1
 70
     0
  9
$DIMSE2
 70
     0
  9
$DIMTAD
 70
     1
  9
$DIMZIN
 70
     8
  9
$DIMBLK
  1

  9
$DIMASO
 70
     1
  9
$DIMSHO
 70
     1
  9
$DIMPOST
  1

  9
$DIMAPOST
  1

  9
$DIMALT
 70
     0
  9
$DIMALTD
 70
     4
  9
$DIMALTF
 40
0.0394
  9
$DIMLFAC
 40
1.0
  9
$DIMTOFL
 70
     1
  9
$DIMTVP
 40
0.0
  9
$DIMTIX
 70
     0
  9
$DIMSOXD
 70
     0
  9
$DIMSAH
 70
     0
  9
$DIMBLK1
  1

  9
$DIMBLK2
  1

  9
$DIMSTYLE
  2
STANDARD
  9
$DIMCLRD
 70
     0
  9
$DIMCLRE
 70
     0
  9
$DIMCLRT
 70
     0
  9
$DIMTFAC
 40
1.0
  9
$DIMGAP
 40
0.625
  9
$LUNITS
 70
     2
  9
$LUPREC
 70
     4
  9
$SKETCHINC
 40
1.0
  9
$FILLETRAD
 40
100.0
  9
$AUNITS
 70
     0
  9
$AUPREC
 70
     0
  9
$MENU
  1
acad
  9
$ELEVATION
 40
0.0
  9
$PELEVATION
 40
0.0
  9
$THICKNESS
 40
0.0
  9
$LIMCHECK
 70
     0
  9
$CHAMFERA
 40
10.0
  9
$CHAMFERB
 40
10.0
  9
$SKPOLY
 70
     0
  9
$TDCREATE
 40
2452293.720838542
  9
$TDUPDATE
 40
2456801.41453265
  9
$TDINDWG
 40
0.0030831019
  9
$TDUSRTIMER
 40
2456801.330927731
  9
$USRTIMER
 70
     1
  9
$ANGBASE
 50
0.0
  9
$ANGDIR
 70
     0
  9
$PDMODE
 70
     0
  9
$PDSIZE
 40
0.0
  9
$PLINEWID
 40
0.0
  9
$COORDS
 70
     1
  9
$SPLFRAME
 70
     0
  9
$SPLINETYPE
 70
     6
  9
$SPLINESEGS
 70
     8
  9
$ATTDIA
 70
     0
  9
$ATTREQ
 70
     1
  9
$HANDLING
 70
     1
  9
$HANDSEED
  5
2CE
  9
$SURFTAB1
 70
     6
  9
$SURFTAB2
 70
     6
  9
$SURFTYPE
 70
     6
  9
$SURFU
 70
     6
  9
$SURFV
 70
     6
  9
$UCSNAME
  2

  9
$UCSORG
 10
0.0
 20
0.0
 30
0.0
  9
$UCSXDIR
 10
1.0
 20
0.0
 30
0.0
  9
$UCSYDIR
 10
0.0
 20
1.0
 30
0.0
  9
$PUCSNAME
  2

  9
$PUCSORG
 10
0.0
 20
0.0
 30
0.0
  9
$PUCSXDIR
 10
1.0
 20
0.0
 30
0.0
  9
$PUCSYDIR
 10
0.0
 20
1.0
 30
0.0
  9
$USERI1
 70
     0
  9
$USERI2
 70
     0
  9
$USERI3
 70
     0
  9
$USERI4
 70
     0
  9
$USERI5
 70
     0
  9
$USERR1
 40
0.0
  9
$USERR2
 40
0.0
  9
$USERR3
 40
0.0
  9
$USERR4
 40
0.0
  9
$USERR5
 40
0.0
  9
$WORLDVIEW
 70
     1
  9
$SHADEDGE
 70
     3
  9
$SHADEDIF
 70
    70
  9
$TILEMODE
 70
     1
  9
$MAXACTVP
 70
    48
  9
$PLIMCHECK
 70
     0
  9
$PEXTMIN
 10
1.000000000000000E+20
 20
1.000000000000000E+20
 30
1.000000000000000E+20
  9
$PEXTMAX
 10
-1.000000000000000E+20
 20
-1.000000000000000E+20
 30
-1.000000000000000E+20
  9
$PLIMMIN
 10
0.0
 20
0.0
  9
$PLIMMAX
 10
0.0
 20
0.0
  9
$UNITMODE
 70
     0
  9
$VISRETAIN
 70
     1
  9
$PLINEGEN
 70
     0
  9
$PSLTSCALE
 70
     1
  0
ENDSEC
  0
SECTION
  2
TABLES
  0
TABLE
  2
VPORT
 70
     1
  0
VPORT
  2
*ACTIVE
 70
     0
 10
0.0
 20
0.0
 11
1.0
 21
1.0
 12
489.571571794421
 22
491.898575301097
 13
0.0
 23
0.0
 14
10.0
 24
10.0
 15
10.0
 25
10.0
 16
0.0
 26
0.0
 36
1.0
 17
0.0
 27
0.0
 37
0.0
 40
1055.382817621714
 41
1.996879875195008
 42
50.0
 43
0.0
 44
0.0
 50
0.0
 51
0.0
 71
    16
 72
   100
 73
     1
 74
     1
 75
     0
 76
     0
 77
     0
 78
     0
  0
ENDTAB
  0
TABLE
  2
LTYPE
 70
     1
  0
LTYPE
  2
CONTINUOUS
 70
     0
  3
Solid line
 72
    65
 73
     0
 40
0.0
  0
ENDTAB
  0
TABLE
  2
LAYER
 70
     2
  0
LAYER
  2
0
 70
     0
 62
     7
  6
CONTINUOUS
  0
LAYER
  2
CONTORNO
 70
     0
 62
     7
  6
CONTINUOUS
  0
ENDTAB
  0
TABLE
  2
STYLE
 70
     3
  0
STYLE
  2
STANDARD
 70
     0
 40
0.0
 41
1.0
 50
0.0
 71
     0
 42
2.5
  3
txt
  4

  0
STYLE
  2
ANNOTATIVE
 70
     0
 40
0.0
 41
1.0
 50
0.0
 71
     0
 42
0.2
  3
txt
  4

  0
STYLE
  2
STILE1
 70
     0
 40
100.0
 41
1.0
 50
0.0
 71
     0
 42
50.0
  3
txt
  4

  0
ENDTAB
  0
TABLE
  2
VIEW
 70
     0
  0
ENDTAB
  0
TABLE
  2
UCS
 70
     0
  0
ENDTAB
  0
TABLE
  2
APPID
 70
     5
  0
APPID
  2
ACAD
 70
     0
  0
APPID
  2
ACADANNOTATIVE
 70
     0
  0
APPID
  2
ACAD_MLEADERVER
 70
     0
  0
APPID
  2
ACAD_PSEXT
 70
     0
  0
APPID
  2
ACAD_EXEMPT_FROM_CAD_STAND
 70
     0
  0
ENDTAB
  0
TABLE
  2
DIMSTYLE
 70
     2
  0
DIMSTYLE
  2
STANDARD
 70
     0
  3

  4

  5

  6

  7

 40
1.0
 41
0.18
 42
0.0625
 43
0.38
 44
0.18
 45
0.0
 46
0.0
 47
0.0
 48
0.0
140
0.18
141
0.09
142
0.0
143
25.4
144
1.0
145
0.0
146
1.0
147
0.09
 71
     0
 72
     0
 73
     1
 74
     1
 75
     0
 76
     0
 77
     0
 78
     0
170
     0
171
     2
172
     0
173
     0
174
     0
175
     0
176
     0
177
     0
178
     0
  0
DIMSTYLE
  2
ANNOTATIVE
 70
     0
  3

  4

  5

  6

  7

 40
1.0
 41
0.18
 42
0.0625
 43
0.38
 44
0.18
 45
0.0
 46
0.0
 47
0.0
 48
0.0
140
0.18
141
0.09
142
0.0
143
25.4
144
1.0
145
0.0
146
1.0
147
0.09
 71
     0
 72
     0
 73
     1
 74
     1
 75
     0
 76
     0
 77
     0
 78
     0
170
     0
171
     2
172
     0
173
     0
174
     0
175
     0
176
     0
177
     0
178
     0
  0
ENDTAB
  0
ENDSEC
  0
SECTION
  2
BLOCKS
  0
BLOCK
  8
0
  2
$MODEL_SPACE
 70
     0
 10
0.0
 20
0.0
 30
0.0
  3
$MODEL_SPACE
  1

  0
ENDBLK
  5
226
  8
0
  0
BLOCK
 67
     1
  8
0
  2
$PAPER_SPACE
 70
     0
 10
0.0
 20
0.0
 30
0.0
  3
$PAPER_SPACE
  1

  0
ENDBLK
  5
222
 67
     1
  8
0
  0
BLOCK
  8
0
  2
A$C6E1D5171
 70
     0
 10
0.0
 20
0.0
 30
0.0
  3
A$C6E1D5171
  1

  0
ARC
  5
23
  8
CONTORNO
 39
31.8344
 10
142.645009
 20
286.41393
 30
0.0
 40
53.83751700000001
 50
145.1698139999998
 51
210.370867
  0
ARC
  5
24
  8
CONTORNO
 62
     6
 39
31.8344
 10
50.91096199999999
 20
237.997141
 30
0.0
 40
50.0
 50
340.3087649999999
 51
25.083337
  0
ARC
  5
25
  8
CONTORNO
 39
31.8344
 10
143.6149279999999
 20
189.919373
 30
0.0
 40
55.29220099999999
 50
145.610125
 51
208.570951
  0
ARC
  5
26
  8
CONTORNO
 62
     6
 39
31.8344
 10
49.002794
 20
144.0052879999998
 30
0.0
 40
50.0
 50
340.3087649999999
 51
22.91813499999999
  0
ARC
  5
27
  8
CONTORNO
 39
31.8344
 10
141.516532
 20
98.28955800000001
 30
0.0
 40
53.83260799999999
 50
147.5707309999999
 51
203.242542
  0
ARC
  5
28
  8
CONTORNO
 62
     6
 39
31.8344
 10
49.999493
 20
49.999351
 30
0.0
 40
50.0
 50
269.7222149999999
 51
32.74704299999999
  0
ARC
  5
29
  8
CONTORNO
 39
31.8344
 10
49.999493
 20
49.999351
 30
0.0
 40
17.5
 50
269.7222149999999
 51
89.722215
  0
ARC
  5
2A
  8
CONTORNO
 62
     6
 39
31.8344
 10
50.44546
 20
141.9837029999999
 30
0.0
 40
17.5
 50
269.7222149999999
 51
89.722215
  0
ARC
  5
2B
  8
CONTORNO
 39
31.8344
 10
50.91096199999999
 20
237.997141
 30
0.0
 40
17.5
 50
269.7222149999999
 51
89.722215
  0
ARC
  5
2C
  8
CONTORNO
 62
     6
 39
31.8344
 10
51.376463
 20
334.0105799999999
 30
0.0
 40
22.5
 50
269.7222149999999
 51
89.722215
  0
ARC
  5
2D
  8
CONTORNO
 62
     6
 39
31.8344
 10
51.376463
 20
334.0105799999999
 30
0.0
 40
50.0
 50
340.3087649999999
 51
89.722215
  0
ARC
  5
2E
  8
CONTORNO
 62
     6
 39
31.8344
 10
51.376463
 20
334.0105799999999
 30
0.0
 40
50.0
 50
89.722215
 51
199.1356659999999
  0
ARC
  5
2F
  8
CONTORNO
 62
     6
 39
31.8344
 10
51.376463
 20
334.0105799999999
 30
0.0
 40
22.5
 50
89.722215
 51
269.7222149999999
  0
ARC
  5
30
  8
CONTORNO
 39
31.8344
 10
50.91096199999999
 20
237.997141
 30
0.0
 40
17.5
 50
89.722215
 51
269.7222149999999
  0
ARC
  5
31
  8
CONTORNO
 62
     6
 39
31.8344
 10
50.44546
 20
141.9837029999999
 30
0.0
 40
17.5
 50
89.722215
 51
269.7222149999999
  0
ARC
  5
32
  8
CONTORNO
 39
31.8344
 10
49.999493
 20
49.999351
 30
0.0
 40
17.5
 50
89.722215
 51
269.7222149999999
  0
ARC
  5
33
  8
CONTORNO
 62
     6
 39
31.8344
 10
49.999493
 20
49.999351
 30
0.0
 40
50.0
 50
146.697387
 51
269.7222149999999
  0
LINE
  5
34
  8
CONTORNO
 39
31.8344
 10
51.618875
 20
384.009992
 30
0.0
 11
49.757081
 21
-0.000061
 31
0.0
  0
ARC
  5
35
  8
CONTORNO
 39
31.8344
 10
-41.04500499999999
 20
99.17467000000002
 30
0.0
 40
53.83260799999999
 50
336.2018889999999
 51
31.8737
  0
ARC
  5
36
  8
CONTORNO
 62
     6
 39
31.8344
 10
51.907661
 20
143.991204
 30
0.0
 40
50.0
 50
156.526296
 51
199.1356659999999
  0
ARC
  5
37
  8
CONTORNO
 39
31.8344
 10
-42.254826
 20
190.8205249999999
 30
0.0
 40
55.29220099999999
 50
330.873479
 51
33.834306
  0
ARC
  5
38
  8
CONTORNO
 62
     6
 39
31.8344
 10
50.91096199999999
 20
237.997141
 30
0.0
 40
50.0
 50
154.361094
 51
199.1356659999999
  0
ARC
  5
39
  8
CONTORNO
 39
31.8344
 10
-40.349307
 20
287.301141
 30
0.0
 40
53.83751700000001
 50
329.073564
 51
34.27461599999999
  0
ENDBLK
  5
3B
  8
0
  0
ENDSEC
  0
SECTION
  2
ENTITIES
  0
ARC
  5
187
  8
0
 39
31.8344
 10
517.1455538662811
 20
454.1684097497603
 30
0.0
 40
50.0
 50
340.8642010006511
 51
89.72221500002121
  0
CIRCLE
  5
188
  8
0
 10
516.4473028662796
 20
190.1482527497687
 30
0.0
 40
10.0
  0
CIRCLE
  5
189
  8
0
 10
517.1455538662811
 20
279.1684097497605
 30
0.0
 40
10.0
  0
CIRCLE
  5
18A
  8
0
 10
517.1455538662811
 20
454.1684097497603
 30
0.0
 40
10.0
  0
ARC
  5
18B
  8
0
 10
439.4404984662286
 20
235.1728920737046
 30
0.0
 40
39.30467002985864
 50
326.6094229773031
 51
30.44545448106518
  0
ARC
  5
18C
  8
0
 10
594.1537991772564
 20
233.9477173687596
 30
0.0
 40
39.31053765667154
 50
148.7880156479954
 51
212.6191556365135
  0
ARC
  5
18D
  8
0
 10
516.4473028662796
 20
190.1482527497687
 30
0.0
 40
50.0
 50
152.1037839996961
 51
270.0
  0
ARC
  5
18E
  8
0
 10
517.1455538662811
 20
279.1684097497605
 30
0.0
 40
50.0
 50
330.1986249999657
 51
22.49433399913427
  0
ARC
  5
18F
  8
0
 39
31.8344
 10
1038.76271499363
 20
346.2807847198969
 30
0.0
 40
483.1232341663355
 50
169.082980264435
 51
181.7788613468229
  0
ARC
  5
190
  8
0
 10
517.1455538662811
 20
279.1684097497605
 30
0.0
 40
50.0
 50
157.6899000004681
 51
208.7888280003749
  0
ARC
  5
191
  8
0
 10
378.3741308662793
 20
336.1112957497649
 30
0.0
 40
100.0
 50
337.6899000004681
 51
356.2897969998488
  0
ARC
  5
192
  8
0
 10
655.7331588662819
 20
336.5572207497721
 30
0.0
 40
100.0
 50
183.0229219999369
 51
202.4943339991343
  0
ARC
  5
193
  8
0
 10
516.4473028662796
 20
190.1482527497687
 30
0.0
 40
50.0
 50
270.0
 51
26.88366670881777
  0
ARC
  5
194
  8
0
 39
31.8344
 10
517.1455538662811
 20
454.1684097497603
 30
0.0
 40
50.0
 50
90.27778499977032
 51
199.1357989993488
  0
ARC
  5
195
  8
0
 39
31.8344
 10
10.53472360610249
 20
348.3212026189544
 30
0.0
 40
468.0028026913383
 50
357.7123606600928
 51
11.01967588127728
  0
LINE
  5
23B
  8
0
 10
516.9031416730276
 20
504.1678221095928
 30
0.0
 11
517.3879660597164
 21
504.1678221095919
 31
0.0
  0
ENDSEC
  0
EOF
