  0
SECTION
  2
HEADER
  9
$ACADVER
  1
AC1009
  9
$INSBASE
 10
0.0
 20
0.0
 30
0.0
  9
$EXTMIN
 10
144.6287119413318
 20
89.099881663545716
 30
0.0
  9
$EXTMAX
 10
1717.941493988299
 20
499.59988166354549
 30
31.834400056947779
  9
$LIMMIN
 10
0.0
 20
0.0
  9
$LIMMAX
 10
420.0
 20
297.0
  9
$ORTHOMODE
 70
     1
  9
$REGENMODE
 70
     1
  9
$FILLMODE
 70
     1
  9
$QTEXTMODE
 70
     0
  9
$MIRRTEXT
 70
     1
  9
$DRAGMODE
 70
     2
  9
$LTSCALE
 40
1.0
  9
$OSMODE
 70
  3071
  9
$ATTMODE
 70
     1
  9
$TEXTSIZE
 40
2.5
  9
$TRACEWID
 40
1.0
  9
$TEXTSTYLE
  7
STANDARD
  9
$CLAYER
  8
0
  9
$CELTYPE
  6
BYLAYER
  9
$CECOLOR
 62
   256
  9
$DIMSCALE
 40
1.0
  9
$DIMASZ
 40
2.5
  9
$DIMEXO
 40
0.625
  9
$DIMDLI
 40
3.75
  9
$DIMRND
 40
0.0
  9
$DIMDLE
 40
0.0
  9
$DIMEXE
 40
1.25
  9
$DIMTP
 40
0.0
  9
$DIMTM
 40
0.0
  9
$DIMTXT
 40
2.5
  9
$DIMCEN
 40
2.5
  9
$DIMTSZ
 40
0.0
  9
$DIMTOL
 70
     0
  9
$DIMLIM
 70
     0
  9
$DIMTIH
 70
     0
  9
$DIMTOH
 70
     0
  9
$DIMSE1
 70
     0
  9
$DIMSE2
 70
     0
  9
$DIMTAD
 70
     1
  9
$DIMZIN
 70
     8
  9
$DIMBLK
  1

  9
$DIMASO
 70
     1
  9
$DIMSHO
 70
     1
  9
$DIMPOST
  1

  9
$DIMAPOST
  1

  9
$DIMALT
 70
     0
  9
$DIMALTD
 70
     3
  9
$DIMALTF
 40
0.03937007874016
  9
$DIMLFAC
 40
1.0
  9
$DIMTOFL
 70
     1
  9
$DIMTVP
 40
0.0
  9
$DIMTIX
 70
     0
  9
$DIMSOXD
 70
     0
  9
$DIMSAH
 70
     0
  9
$DIMBLK1
  1

  9
$DIMBLK2
  1

  9
$DIMSTYLE
  2
ISO-25
  9
$DIMCLRD
 70
     0
  9
$DIMCLRE
 70
     0
  9
$DIMCLRT
 70
     0
  9
$DIMTFAC
 40
1.0
  9
$DIMGAP
 40
0.625
  9
$LUNITS
 70
     2
  9
$LUPREC
 70
     4
  9
$SKETCHINC
 40
1.0
  9
$FILLETRAD
 40
0.0
  9
$AUNITS
 70
     0
  9
$AUPREC
 70
     0
  9
$MENU
  1
.
  9
$ELEVATION
 40
0.0
  9
$PELEVATION
 40
0.0
  9
$THICKNESS
 40
0.0
  9
$LIMCHECK
 70
     0
  9
$BLIPMODE
 70
     0
  9
$CHAMFERA
 40
10.0
  9
$CHAMFERB
 40
10.0
  9
$SKPOLY
 70
     0
  9
$TDCREATE
 40
2453066.6774314819
  9
$TDUPDATE
 40
2456393.750651042
  9
$TDINDWG
 40
0.0030603472
  9
$TDUSRTIMER
 40
0.003060162
  9
$USRTIMER
 70
     1
  9
$ANGBASE
 50
0.0
  9
$ANGDIR
 70
     0
  9
$PDMODE
 70
     0
  9
$PDSIZE
 40
0.0
  9
$PLINEWID
 40
0.0
  9
$COORDS
 70
     0
  9
$SPLFRAME
 70
     0
  9
$SPLINETYPE
 70
     6
  9
$SPLINESEGS
 70
     8
  9
$ATTDIA
 70
     0
  9
$ATTREQ
 70
     1
  9
$HANDLING
 70
     1
  9
$HANDSEED
  5
283
  9
$SURFTAB1
 70
     6
  9
$SURFTAB2
 70
     6
  9
$SURFTYPE
 70
     6
  9
$SURFU
 70
     6
  9
$SURFV
 70
     6
  9
$UCSNAME
  2

  9
$UCSORG
 10
0.0
 20
0.0
 30
0.0
  9
$UCSXDIR
 10
1.0
 20
0.0
 30
0.0
  9
$UCSYDIR
 10
0.0
 20
1.0
 30
0.0
  9
$PUCSNAME
  2

  9
$PUCSORG
 10
0.0
 20
0.0
 30
0.0
  9
$PUCSXDIR
 10
1.0
 20
0.0
 30
0.0
  9
$PUCSYDIR
 10
0.0
 20
1.0
 30
0.0
  9
$USERI1
 70
     0
  9
$USERI2
 70
     0
  9
$USERI3
 70
     0
  9
$USERI4
 70
     0
  9
$USERI5
 70
     0
  9
$USERR1
 40
0.0
  9
$USERR2
 40
0.0
  9
$USERR3
 40
0.0
  9
$USERR4
 40
0.0
  9
$USERR5
 40
0.0
  9
$WORLDVIEW
 70
     1
  9
$SHADEDGE
 70
     3
  9
$SHADEDIF
 70
    70
  9
$TILEMODE
 70
     1
  9
$MAXACTVP
 70
    64
  9
$PLIMCHECK
 70
     0
  9
$PEXTMIN
 10
1.0000000000000000E+020
 20
1.0000000000000000E+020
 30
1.0000000000000000E+020
  9
$PEXTMAX
 10
-1.0000000000000000E+020
 20
-1.0000000000000000E+020
 30
-1.0000000000000000E+020
  9
$PLIMMIN
 10
0.0
 20
0.0
  9
$PLIMMAX
 10
420.0
 20
297.0
  9
$UNITMODE
 70
     0
  9
$VISRETAIN
 70
     1
  9
$PLINEGEN
 70
     0
  9
$PSLTSCALE
 70
     1
  0
ENDSEC
  0
SECTION
  2
TABLES
  0
TABLE
  2
VPORT
 70
     1
  0
VPORT
  2
*ACTIVE
 70
     0
 10
0.0
 20
0.0
 11
1.0
 21
1.0
 12
1569.0684322095769
 22
219.45117200989219
 13
0.0
 23
0.0
 14
10.0
 24
10.0
 15
10.0
 25
10.0
 16
0.0
 26
0.0
 36
1.0
 17
0.0
 27
0.0
 37
0.0
 40
2535.4280187387239
 41
2.2124248496993979
 42
50.0
 43
0.0
 44
0.0
 50
0.0
 51
0.0
 71
     0
 72
   100
 73
     1
 74
     3
 75
     0
 76
     0
 77
     0
 78
     0
  0
ENDTAB
  0
TABLE
  2
LTYPE
 70
     2
  0
LTYPE
  2
CONTINUOUS
 70
     0
  3
Solid line
 72
    65
 73
     0
 40
0.0
  0
ENDTAB
  0
TABLE
  2
LAYER
 70
     2
  0
LAYER
  2
0
 70
     0
 62
     7
  6
CONTINUOUS
  0
LAYER
  2
CONTORNO
 70
     0
 62
     7
  6
CONTINUOUS
  0
ENDTAB
  0
TABLE
  2
STYLE
 70
     3
  0
STYLE
  2
STANDARD
 70
     0
 40
0.0
 41
1.0
 50
0.0
 71
     0
 42
2.5
  3
txt
  4

  0
STYLE
  2
ANNOTATIVE
 70
     0
 40
0.0
 41
1.0
 50
0.0
 71
     0
 42
0.2
  3
txt
  4

  0
STYLE
  2
STILE1
 70
     0
 40
100.0
 41
1.0
 50
0.0
 71
     0
 42
100.0
  3
txt
  4

  0
ENDTAB
  0
TABLE
  2
VIEW
 70
     0
  0
ENDTAB
  0
TABLE
  2
UCS
 70
     0
  0
ENDTAB
  0
TABLE
  2
APPID
 70
     4
  0
APPID
  2
ACAD
 70
     0
  0
APPID
  2
ACADANNOTATIVE
 70
     0
  0
APPID
  2
ACAD_MLEADERVER
 70
     0
  0
APPID
  2
ACAD_EXEMPT_FROM_CAD_STANDARDS
 70
     0
  0
ENDTAB
  0
TABLE
  2
DIMSTYLE
 70
     4
  0
DIMSTYLE
  2
STANDARD
 70
     0
  3

  4

  5

  6

  7

 40
0.0
 41
100.0
 42
1.0
 43
1.0
 44
20.0
 45
0.0
 46
0.0
 47
0.0
 48
0.0
140
2.5
141
-100.0
142
0.0
143
1.0
144
-1.0
145
1.0
146
1.0
147
30.0
 71
     0
 72
     0
 73
     0
 74
     0
 75
     0
 76
     0
 77
     1
 78
     8
170
     0
171
     0
172
     1
173
     0
174
     0
175
     0
176
     5
177
     5
178
     5
  0
DIMSTYLE
  2
ANNOTATIVE
 70
     0
  3

  4

  5

  6

  7

 40
1.0
 41
0.18
 42
0.0625
 43
0.38
 44
0.18
 45
0.0
 46
0.0
 47
0.0
 48
0.0
140
0.18
141
0.09
142
0.0
143
25.399999999999999
144
1.0
145
0.0
146
1.0
147
0.09
 71
     0
 72
     0
 73
     1
 74
     1
 75
     0
 76
     0
 77
     0
 78
     0
170
     0
171
     2
172
     0
173
     0
174
     0
175
     0
176
     0
177
     0
178
     0
  0
DIMSTYLE
  2
ISO-25
 70
     0
  3

  4

  5

  6

  7

 40
1.0
 41
2.5
 42
0.625
 43
3.75
 44
1.25
 45
0.0
 46
0.0
 47
0.0
 48
0.0
140
2.5
141
2.5
142
0.0
143
0.03937007874016
144
1.0
145
0.0
146
1.0
147
0.625
 71
     0
 72
     0
 73
     0
 74
     0
 75
     0
 76
     0
 77
     1
 78
     8
170
     0
171
     3
172
     1
173
     0
174
     0
175
     0
176
     0
177
     0
178
     0
  0
ENDTAB
  0
ENDSEC
  0
SECTION
  2
BLOCKS
  0
BLOCK
  8
0
  2
$MODEL_SPACE
 70
     0
 10
0.0
 20
0.0
 30
0.0
  3
$MODEL_SPACE
  1

  0
ENDBLK
  5
22C
  8
0
  0
BLOCK
 67
     1
  8
0
  2
$PAPER_SPACE
 70
     0
 10
0.0
 20
0.0
 30
0.0
  3
$PAPER_SPACE
  1

  0
ENDBLK
  5
228
 67
     1
  8
0
  0
ENDSEC
  0
SECTION
  2
ENTITIES
  0
LINE
  5
90
  8
0
 39
31.834400056947779
 10
358.78510296481522
 20
454.09988166357482
 30
0.0
 11
358.78510296481522
 21
475.09988166354572
 31
0.0
  0
LINE
  5
91
  8
0
 39
31.834400056947779
 10
358.7851029648736
 20
444.09988166354549
 30
0.0
 11
360.3851029648792
 21
450.49988166348169
 31
0.0
  0
LINE
  5
92
  8
0
 39
31.834400056947779
 10
366.78510296481522
 20
452.09988166354549
 30
0.0
 11
360.3851029648792
 21
450.49988166353972
 31
0.0
  0
LINE
  5
93
  8
0
 39
31.834400056947779
 10
356.78510296490271
 20
452.09988166354549
 30
0.0
 11
144.6287119413318
 21
452.09988166354549
 31
0.0
  0
LINE
  5
94
  8
0
 39
31.834400056947779
 10
358.78510296481522
 20
479.09988166351638
 30
0.0
 11
358.78510296478618
 21
499.59988166354549
 31
0.0
  0
LINE
  5
95
  8
0
 39
31.834400056947779
 10
366.78510296478629
 20
477.09988166354549
 30
0.0
 11
358.78510296478618
 21
475.09988166354572
 31
0.0
  0
LINE
  5
96
  8
0
 39
31.834400056947779
 10
358.78510296478618
 20
479.09988166354572
 30
0.0
 11
366.78510296478629
 21
477.09988166354549
 31
0.0
  0
LINE
  5
97
  8
0
 39
31.834400056947779
 10
353.78510296481539
 20
89.099881663545716
 30
0.0
 11
353.78510296481539
 21
117.0998816635165
 31
0.0
  0
LINE
  5
98
  8
0
 39
31.834400056947779
 10
353.78510296481539
 20
121.0998816635457
 30
0.0
 11
353.78510296481539
 21
212.6579798740332
 31
0.0
  0
LINE
  5
99
  8
0
 39
31.834400056947779
 10
360.78510296475707
 20
217.65797987397499
 30
0.0
 11
358.7851029648445
 21
212.6579798740041
 31
0.0
  0
LINE
  5
9A
  8
0
 39
31.834400056947779
 10
1508.7851029648441
 20
121.0998816635457
 30
0.0
 11
1508.7851029648441
 21
212.6579798740332
 31
0.0
  0
LINE
  5
9B
  8
0
 39
31.834400056947779
 10
1508.7851029648141
 20
89.099881663545716
 30
0.0
 11
1508.7851029648141
 21
117.0998816635165
 31
0.0
  0
LINE
  5
9C
  8
0
 39
31.834400056947779
 10
1501.7851029648721
 20
217.6579798740041
 30
0.0
 11
1503.785102964815
 21
212.6579798740041
 31
0.0
  0
LINE
  5
9D
  8
0
 39
31.834400056947779
 10
1503.785102964815
 20
479.09988166354572
 30
0.0
 11
1503.785102964815
 21
499.59988166354549
 31
0.0
  0
LINE
  5
9E
  8
0
 39
31.834400056947779
 10
1503.785102964815
 20
454.09988166360392
 30
0.0
 11
1503.785102964815
 21
475.09988166351661
 31
0.0
  0
LINE
  5
9F
  8
0
 39
31.834400056947779
 10
1502.185102964926
 20
450.49988166353972
 30
0.0
 11
1503.7851029649021
 21
444.09988166354549
 31
0.0
  0
LINE
  5
A0
  8
0
 39
31.834400056947779
 10
1495.785102964757
 20
452.09988166354549
 30
0.0
 11
1502.185102964926
 21
450.49988166351028
 31
0.0
  0
LINE
  5
A1
  8
0
 39
31.834400056947779
 10
1505.7851029649321
 20
452.09988166354549
 30
0.0
 11
1717.941493988299
 21
452.09988166354549
 31
0.0
  0
LINE
  5
A3
  8
0
 39
31.834400056947779
 10
1503.785102964757
 20
454.09988166354572
 30
0.0
 11
1495.785102964757
 21
452.09988166354549
 31
0.0
  0
LINE
  5
A4
  8
0
 39
31.834400056947779
 10
1495.785102964757
 20
477.09988166354549
 30
0.0
 11
1503.785102964757
 21
475.09988166354572
 31
0.0
  0
LINE
  5
A5
  8
0
 39
31.834400056947779
 10
1503.785102964757
 20
479.09988166354572
 30
0.0
 11
1495.785102964757
 21
477.09988166354549
 31
0.0
  0
LINE
  5
A6
  8
0
 39
31.834400056947779
 10
1500.7851029647279
 20
119.0998816635457
 30
0.0
 11
1508.7851029647279
 21
117.0998816635457
 31
0.0
  0
LINE
  5
A7
  8
0
 39
31.834400056947779
 10
1508.7851029647279
 20
121.0998816635457
 30
0.0
 11
1500.7851029647279
 21
119.0998816635457
 31
0.0
  0
LINE
  5
A8
  8
0
 39
31.834400056947779
 10
356.78510296475707
 20
217.65797987397499
 30
0.0
 11
358.78510296475707
 21
225.65797987397491
 31
0.0
  0
LINE
  5
A9
  8
0
 39
31.834400056947779
 10
358.78510296475707
 20
225.65797987397491
 30
0.0
 11
360.78510296475707
 21
217.65797987397499
 31
0.0
  0
LINE
  5
AA
  8
0
 39
31.834400056947779
 10
1501.7851029648721
 20
217.6579798740041
 30
0.0
 11
1503.7851029648721
 21
225.6579798740041
 31
0.0
  0
LINE
  5
AB
  8
0
 39
31.834400056947779
 10
1503.7851029648721
 20
225.6579798740041
 30
0.0
 11
1505.785102964873
 21
217.6579798740041
 31
0.0
  0
LINE
  5
AC
  8
0
 39
31.834400056947779
 10
1503.7851029649021
 20
444.09988166354549
 30
0.0
 11
1505.7851029649021
 21
452.09988166354549
 31
0.0
  0
LINE
  5
AD
  8
0
 39
31.834400056947779
 10
356.7851029648736
 20
452.09988166354549
 30
0.0
 11
358.7851029648736
 21
444.09988166354549
 31
0.0
  0
LINE
  5
AE
  8
0
 39
31.834400056947779
 10
353.78510296481539
 20
121.0998816635457
 30
0.0
 11
361.78510296481539
 21
119.0998816635457
 31
0.0
  0
LINE
  5
AF
  8
0
 39
31.834400056947779
 10
361.78510296481539
 20
119.0998816635457
 30
0.0
 11
353.78510296481539
 21
117.0998816635457
 31
0.0
  0
LINE
  5
B0
  8
0
 39
31.834400056947779
 10
358.78510296481522
 20
454.09988166354572
 30
0.0
 11
366.78510296481522
 21
452.09988166354549
 31
0.0
  0
ARC
  5
B4
  8
0
 39
31.834400056947779
 10
1340.5075424212839
 20
224.87180065806581
 30
0.0
 40
6.75
 50
213.6258926812653
 51
33.625892681265299
  0
ARC
  5
B5
  8
0
 39
31.834400056947779
 10
1333.5639015142799
 20
235.31258082652309
 30
0.0
 40
6.75
 50
33.625892681265299
 51
213.6258926812653
  0
ARC
  5
BA
  8
0
 39
31.834400056947779
 10
1481.8125711758039
 20
196.30277632366591
 30
0.0
 40
8.75
 50
253.82548682773739
 51
74.817048920041145
  0
LINE
  5
BB
  8
0
 39
31.834400056947779
 10
1484.1042138239729
 20
204.7473529248397
 30
0.0
 11
1442.6927861777981
 21
216.370995722114
 31
0.0
  0
LINE
  5
BC
  8
0
 39
31.834400056947779
 10
1479.375136956281
 20
187.8991214982868
 30
0.0
 11
1437.963709337374
 21
199.52276428792351
 31
0.0
  0
ARC
  5
BD
  8
0
 39
31.834400056947779
 10
1440.255351967352
 20
207.9673408940198
 30
0.0
 40
8.75
 50
73.825486955899166
 51
254.8170490565544
  0
CIRCLE
  5
BE
  8
0
 39
31.834400056947779
 10
1058.8433391711139
 20
339.91104052440483
 30
0.0
 40
6.75
  0
CIRCLE
  5
BF
  8
0
 39
31.834400056947779
 10
1191.2686615630801
 20
294.48490279089862
 30
0.0
 40
6.75
  0
CIRCLE
  5
C0
  8
0
 39
31.834400056947779
 10
1323.6939839550171
 20
249.0587650573344
 30
0.0
 40
6.75
  0
CIRCLE
  5
C1
  8
0
 39
31.834400056947779
 10
1062.827126014947
 20
306.73805521926812
 30
0.0
 40
6.75
  0
CIRCLE
  5
C2
  8
0
 39
31.834400056947779
 10
1198.195513764628
 20
271.0253180229102
 30
0.0
 40
6.75
  0
CIRCLE
  5
C3
  8
0
 39
31.834400056947779
 10
1065.6195412910879
 20
279.88407021057191
 30
0.0
 40
6.75
  0
CIRCLE
  5
C4
  8
0
 39
31.834400056947779
 10
1202.8975053165341
 20
252.41116368381159
 30
0.0
 40
6.75
  0
CIRCLE
  5
C5
  8
0
 39
31.834400056947779
 10
1310.154536537214
 20
264.67000233708501
 30
0.0
 40
6.75
  0
CIRCLE
  5
C6
  8
0
 39
31.834400056947779
 10
1181.8630386914299
 20
320.7172286777697
 30
0.0
 40
6.75
  0
CIRCLE
  5
C7
  8
0
 39
31.834400056947779
 10
1053.571540845616
 20
376.76445501845433
 30
0.0
 40
6.75
  0
CIRCLE
  5
C8
  8
0
 39
31.834400056947779
 10
1633.7851029648721
 20
290.6579798739748
 30
0.0
 40
8.0
  0
CIRCLE
  5
C9
  8
0
 39
31.834400056947779
 10
1633.7851029648721
 20
382.65797987400413
 30
0.0
 40
8.0
  0
CIRCLE
  5
CA
  8
0
 39
31.834400056947779
 10
1541.785102964873
 20
382.65797987400413
 30
0.0
 40
8.0
  0
CIRCLE
  5
CB
  8
0
 39
31.834400056947779
 10
1541.785102964873
 20
290.6579798739748
 30
0.0
 40
8.0
  0
CIRCLE
  5
CC
  8
0
 39
31.834400056947779
 10
808.99866508418916
 20
376.76445501845433
 30
0.0
 40
6.75
  0
CIRCLE
  5
CD
  8
0
 39
31.834400056947779
 10
680.7071672383754
 20
320.7172286777697
 30
0.0
 40
6.75
  0
CIRCLE
  5
CE
  8
0
 39
31.834400056947779
 10
552.41566939259053
 20
264.67000233708501
 30
0.0
 40
6.75
  0
ARC
  5
CF
  8
0
 39
31.834400056947779
 10
422.31485396245262
 20
207.9673408940198
 30
0.0
 40
8.75
 50
285.18295095923889
 51
105.1829510421649
  0
CIRCLE
  5
D1
  8
0
 39
31.834400056947779
 10
659.67270061327145
 20
252.41116368381159
 30
0.0
 40
6.75
  0
CIRCLE
  5
D2
  8
0
 39
31.834400056947779
 10
796.95066463871615
 20
279.88407021057191
 30
0.0
 40
6.75
  0
CIRCLE
  5
D3
  8
0
 39
31.834400056947779
 10
664.37469216517627
 20
271.0253180229102
 30
0.0
 40
6.75
  0
CIRCLE
  5
D4
  8
0
 39
31.834400056947779
 10
799.74307991485659
 20
306.73805521926812
 30
0.0
 40
6.75
  0
CIRCLE
  5
D5
  8
0
 39
31.834400056947779
 10
538.87622197478765
 20
249.0587650573344
 30
0.0
 40
6.75
  0
CIRCLE
  5
D6
  8
0
 39
31.834400056947779
 10
671.30154436672444
 20
294.48490279089862
 30
0.0
 40
6.75
  0
CIRCLE
  5
D7
  8
0
 39
31.834400056947779
 10
803.72686675869045
 20
339.91104052440483
 30
0.0
 40
6.75
  0
LINE
  5
D8
  8
0
 39
31.834400056947779
 10
383.19506897352397
 20
187.8991214982868
 30
0.0
 11
424.60649659568998
 21
199.52276428879679
 31
0.0
  0
LINE
  5
D9
  8
0
 39
31.834400056947779
 10
378.46599210581309
 20
204.7473529248345
 30
0.0
 11
420.02321132164758
 21
216.41191749720571
 31
0.0
  0
ARC
  5
DA
  8
0
 39
31.834400056947779
 10
380.75763475400157
 20
196.30277632366591
 30
0.0
 40
8.75
 50
105.1829510800895
 51
286.17451315645638
  0
ARC
  5
DB
  8
0
 39
31.834400056947779
 10
931.28510296478635
 20
322.06533002571638
 30
0.0
 40
8.75
 50
180.0
 51
0.0
  0
LINE
  5
DC
  8
0
 39
31.834400056947779
 10
940.03510296478635
 20
452.09988166354549
 30
0.0
 11
940.03510296478635
 21
322.06533002568722
 31
0.0
  0
LINE
  5
DD
  8
0
 39
31.834400056947779
 10
922.53510296478635
 20
452.09988166354549
 30
0.0
 11
922.53510296475713
 21
322.06533002568722
 31
0.0
  0
CIRCLE
  5
DE
  8
0
 39
31.834400056947779
 10
320.78510296475707
 20
290.6579798739748
 30
0.0
 40
8.0
  0
CIRCLE
  5
DF
  8
0
 39
31.834400056947779
 10
320.78510296475707
 20
382.65797987400413
 30
0.0
 40
8.0
  0
CIRCLE
  5
E0
  8
0
 39
31.834400056947779
 10
228.78510296475699
 20
382.65797987400413
 30
0.0
 40
8.0
  0
CIRCLE
  5
E1
  8
0
 39
31.834400056947779
 10
228.78510296475699
 20
290.6579798739748
 30
0.0
 40
8.0
  0
LINE
  5
E3
  8
0
 39
31.834400056947779
 10
1503.785102964815
 20
499.59988166354549
 30
0.0
 11
358.78510296478618
 21
499.59988166354549
 31
0.0
  0
LINE
  5
E5
  8
0
 39
31.834400056947779
 10
1508.7851029647859
 20
89.099881663545716
 30
0.0
 11
353.78510296481539
 21
89.099881663545716
 31
0.0
  0
LINE
  5
E6
  8
0
 10
356.78510296478618
 20
217.6579798740041
 30
0.0
 11
221.3551525270158
 21
217.6579798740041
 31
0.0
  0
LINE
  5
E7
  8
0
 10
1505.785102964873
 20
217.6579798740041
 30
0.0
 11
1641.215053402615
 21
217.6579798740041
 31
0.0
  0
LINE
  5
E9
  8
0
 10
1503.785102964815
 20
212.6579798740041
 30
0.0
 11
1508.7851029648441
 21
212.6579798740041
 31
0.0
  0
LINE
  5
EA
  8
0
 10
358.78510296481522
 20
212.6579798740041
 30
0.0
 11
353.78510296481539
 21
212.6579798740041
 31
0.0
  0
LINE
  5
EB
  8
0
 10
1641.215053402615
 20
217.6579798740041
 30
0.0
 11
1717.941493988299
 21
452.09988166354549
 31
0.0
  0
LINE
  5
EC
  8
0
 10
221.3551525270158
 20
217.6579798740041
 30
0.0
 11
144.6287119413318
 21
452.09988166354549
 31
0.0
  0
LINE
  5
ED
  8
0
 10
940.03510296478635
 20
452.09988166354549
 30
0.0
 11
922.53510296478635
 21
452.09988166354549
 31
0.0
  0
LINE
  5
173
  8
0
 10
1327.9433717844479
 20
231.57464749965959
 30
0.0
 11
1334.8870126914519
 21
221.13386733120231
 31
0.0
  0
LINE
  5
174
  8
0
 10
1346.128072151115
 20
228.60973398492919
 30
0.0
 11
1339.184431244111
 21
239.0505141533865
 31
0.0
  0
ARC
  5
175
  8
0
 39
31.834400056947779
 10
529.00630441529245
 20
235.31258082652309
 30
0.0
 40
6.75
 50
326.37410731873467
 51
146.3741073187347
  0
ARC
  5
176
  8
0
 39
31.834400056947779
 10
522.06266350828855
 20
224.87180065806581
 30
0.0
 40
6.75
 50
146.3741073187347
 51
326.37410731873467
  0
LINE
  5
177
  8
0
 10
534.62683414512423
 20
231.57464749965959
 30
0.0
 11
527.68319323812045
 21
221.13386733120231
 31
0.0
  0
LINE
  5
178
  8
0
 10
516.44213377845699
 20
228.60973398492919
 30
0.0
 11
523.38577468546066
 21
239.0505141533865
 31
0.0
  0
ENDSEC
  0
EOF
