  0
SECTION
  2
HEADER
  9
$ACADVER
  1
AC1009
  9
$DWGCODEPAGE
  3
ansi_1252
  9
$INSBASE
 10
0.0
 20
0.0
 30
0.0
  9
$EXTMIN
 10
189.7779802963702
 20
110.712137558371
 30
0.0
  9
$EXTMAX
 10
770.1218991137896
 20
1087.157478915333
 30
31.83440005694778
  9
$LIMMIN
 10
0.0
 20
0.0
  9
$LIMMAX
 10
420.0
 20
297.0
  9
$ORTHOMODE
 70
     1
  9
$REGENMODE
 70
     1
  9
$FILLMODE
 70
     1
  9
$QTEXTMODE
 70
     0
  9
$MIRRTEXT
 70
     1
  9
$DRAGMODE
 70
     2
  9
$LTSCALE
 40
1.0
  9
$OSMODE
 70
  1023
  9
$ATTMODE
 70
     1
  9
$TEXTSIZE
 40
2.5
  9
$TRACEWID
 40
1.0
  9
$TEXTSTYLE
  7
STANDARD
  9
$CLAYER
  8
0
  9
$CELTYPE
  6
BYLAYER
  9
$CECOLOR
 62
   256
  9
$DIMSCALE
 40
1.0
  9
$DIMASZ
 40
2.5
  9
$DIMEXO
 40
0.625
  9
$DIMDLI
 40
3.75
  9
$DIMRND
 40
0.0
  9
$DIMDLE
 40
0.0
  9
$DIMEXE
 40
1.25
  9
$DIMTP
 40
0.0
  9
$DIMTM
 40
0.0
  9
$DIMTXT
 40
2.5
  9
$DIMCEN
 40
2.5
  9
$DIMTSZ
 40
0.0
  9
$DIMTOL
 70
     0
  9
$DIMLIM
 70
     0
  9
$DIMTIH
 70
     0
  9
$DIMTOH
 70
     0
  9
$DIMSE1
 70
     0
  9
$DIMSE2
 70
     0
  9
$DIMTAD
 70
     1
  9
$DIMZIN
 70
     8
  9
$DIMBLK
  1

  9
$DIMASO
 70
     1
  9
$DIMSHO
 70
     1
  9
$DIMPOST
  1

  9
$DIMAPOST
  1

  9
$DIMALT
 70
     0
  9
$DIMALTD
 70
     3
  9
$DIMALTF
 40
0.03937007874016
  9
$DIMLFAC
 40
1.0
  9
$DIMTOFL
 70
     1
  9
$DIMTVP
 40
0.0
  9
$DIMTIX
 70
     0
  9
$DIMSOXD
 70
     0
  9
$DIMSAH
 70
     0
  9
$DIMBLK1
  1

  9
$DIMBLK2
  1

  9
$DIMSTYLE
  2
ISO-25
  9
$DIMCLRD
 70
     0
  9
$DIMCLRE
 70
     0
  9
$DIMCLRT
 70
     0
  9
$DIMTFAC
 40
1.0
  9
$DIMGAP
 40
0.625
  9
$LUNITS
 70
     2
  9
$LUPREC
 70
     4
  9
$SKETCHINC
 40
1.0
  9
$FILLETRAD
 40
10.0
  9
$AUNITS
 70
     0
  9
$AUPREC
 70
     0
  9
$MENU
  1
.
  9
$ELEVATION
 40
0.0
  9
$PELEVATION
 40
0.0
  9
$THICKNESS
 40
0.0
  9
$LIMCHECK
 70
     0
  9
$CHAMFERA
 40
0.0
  9
$CHAMFERB
 40
0.0
  9
$SKPOLY
 70
     0
  9
$TDCREATE
 40
2453069.353100336
  9
$TDUPDATE
 40
2456897.386145636
  9
$TDINDWG
 40
0.0238843171
  9
$TDUSRTIMER
 40
2456897.294177234
  9
$USRTIMER
 70
     1
  9
$ANGBASE
 50
0.0
  9
$ANGDIR
 70
     0
  9
$PDMODE
 70
     0
  9
$PDSIZE
 40
0.0
  9
$PLINEWID
 40
0.0
  9
$COORDS
 70
     1
  9
$SPLFRAME
 70
     0
  9
$SPLINETYPE
 70
     6
  9
$SPLINESEGS
 70
     8
  9
$ATTDIA
 70
     0
  9
$ATTREQ
 70
     1
  9
$HANDLING
 70
     1
  9
$HANDSEED
  5
4B4
  9
$SURFTAB1
 70
     6
  9
$SURFTAB2
 70
     6
  9
$SURFTYPE
 70
     6
  9
$SURFU
 70
     6
  9
$SURFV
 70
     6
  9
$UCSNAME
  2

  9
$UCSORG
 10
0.0
 20
0.0
 30
0.0
  9
$UCSXDIR
 10
1.0
 20
0.0
 30
0.0
  9
$UCSYDIR
 10
0.0
 20
1.0
 30
0.0
  9
$PUCSNAME
  2

  9
$PUCSORG
 10
0.0
 20
0.0
 30
0.0
  9
$PUCSXDIR
 10
1.0
 20
0.0
 30
0.0
  9
$PUCSYDIR
 10
0.0
 20
1.0
 30
0.0
  9
$USERI1
 70
     0
  9
$USERI2
 70
     0
  9
$USERI3
 70
     0
  9
$USERI4
 70
     0
  9
$USERI5
 70
     0
  9
$USERR1
 40
0.0
  9
$USERR2
 40
0.0
  9
$USERR3
 40
0.0
  9
$USERR4
 40
0.0
  9
$USERR5
 40
0.0
  9
$WORLDVIEW
 70
     1
  9
$SHADEDGE
 70
     3
  9
$SHADEDIF
 70
    70
  9
$TILEMODE
 70
     1
  9
$MAXACTVP
 70
    64
  9
$PLIMCHECK
 70
     0
  9
$PEXTMIN
 10
1.000000000000000E+20
 20
1.000000000000000E+20
 30
1.000000000000000E+20
  9
$PEXTMAX
 10
-1.000000000000000E+20
 20
-1.000000000000000E+20
 30
-1.000000000000000E+20
  9
$PLIMMIN
 10
0.0
 20
0.0
  9
$PLIMMAX
 10
0.0
 20
0.0
  9
$UNITMODE
 70
     0
  9
$VISRETAIN
 70
     1
  9
$PLINEGEN
 70
     0
  9
$PSLTSCALE
 70
     1
  0
ENDSEC
  0
SECTION
  2
TABLES
  0
TABLE
  2
VPORT
 70
     1
  0
VPORT
  2
*ACTIVE
 70
     0
 10
0.0
 20
0.0
 11
1.0
 21
1.0
 12
-681.5763386957876
 22
-52.09447293116125
 13
0.0
 23
0.0
 14
10.0
 24
10.0
 15
10.0
 25
10.0
 16
0.0
 26
0.0
 36
1.0
 17
0.0
 27
0.0
 37
0.0
 40
1676.268385618171
 41
1.373198847262248
 42
50.0
 43
0.0
 44
0.0
 50
0.0
 51
0.0
 71
    16
 72
   100
 73
     1
 74
     3
 75
     0
 76
     0
 77
     0
 78
     0
  0
ENDTAB
  0
TABLE
  2
LTYPE
 70
     1
  0
LTYPE
  2
CONTINUOUS
 70
     0
  3
Solid line
 72
    65
 73
     0
 40
0.0
  0
ENDTAB
  0
TABLE
  2
LAYER
 70
     2
  0
LAYER
  2
0
 70
     0
 62
     7
  6
CONTINUOUS
  0
LAYER
  2
CONTORNO
 70
     0
 62
     7
  6
CONTINUOUS
  0
ENDTAB
  0
TABLE
  2
STYLE
 70
     2
  0
STYLE
  2
STANDARD
 70
     0
 40
0.0
 41
1.0
 50
0.0
 71
     0
 42
2.5
  3
txt
  4

  0
STYLE
  2
STILE1
 70
     0
 40
100.0
 41
1.0
 50
0.0
 71
     0
 42
100.0
  3
txt
  4

  0
ENDTAB
  0
TABLE
  2
VIEW
 70
     0
  0
ENDTAB
  0
TABLE
  2
UCS
 70
     0
  0
ENDTAB
  0
TABLE
  2
APPID
 70
     3
  0
APPID
  2
ACAD
 70
     0
  0
APPID
  2
ACAD_MLEADERVER
 70
     0
  0
APPID
  2
ACAD_EXEMPT_FROM_CAD_STAND
 70
     0
  0
ENDTAB
  0
TABLE
  2
DIMSTYLE
 70
     2
  0
DIMSTYLE
  2
ISO-25
 70
     0
  3

  4

  5

  6

  7

 40
1.0
 41
2.5
 42
0.625
 43
3.75
 44
1.25
 45
0.0
 46
0.0
 47
0.0
 48
0.0
140
2.5
141
2.5
142
0.0
143
0.03937007874016
144
1.0
145
0.0
146
1.0
147
0.625
 71
     0
 72
     0
 73
     0
 74
     0
 75
     0
 76
     0
 77
     1
 78
     8
170
     0
171
     3
172
     1
173
     0
174
     0
175
     0
176
     0
177
     0
178
     0
  0
DIMSTYLE
  2
STANDARD
 70
     0
  3

  4

  5

  6

  7

 40
0.0
 41
100.0
 42
1.0
 43
1.0
 44
20.0
 45
0.0
 46
0.0
 47
0.0
 48
0.0
140
2.5
141
-100.0
142
0.0
143
1.0
144
-1.0
145
1.0
146
1.0
147
30.0
 71
     0
 72
     0
 73
     0
 74
     0
 75
     0
 76
     0
 77
     1
 78
     8
170
     0
171
     0
172
     1
173
     0
174
     0
175
     0
176
     5
177
     5
178
     5
  0
ENDTAB
  0
ENDSEC
  0
SECTION
  2
BLOCKS
  0
BLOCK
  8
0
  2
$MODEL_SPACE
 70
     0
 10
0.0
 20
0.0
 30
0.0
  3
$MODEL_SPACE
  1

  0
ENDBLK
  5
21
  8
0
  0
BLOCK
 67
     1
  8
0
  2
$PAPER_SPACE
 70
     0
 10
0.0
 20
0.0
 30
0.0
  3
$PAPER_SPACE
  1

  0
ENDBLK
  5
1D
 67
     1
  8
0
  0
ENDSEC
  0
SECTION
  2
ENTITIES
  0
LINE
  5
40F
  8
0
 39
31.83440005694778
 10
-854.2211498859065
 20
706.3898188559541
 30
0.0
 11
-783.9562393278715
 21
149.7263594121178
 31
0.0
  0
LINE
  5
410
  8
0
 39
31.83440005694778
 10
-781.8902943269309
 20
146.9797034079237
 30
0.0
 11
-780.9649538590704
 21
146.6005662051758
 31
0.0
  0
LINE
  5
411
  8
0
 39
31.83440005694778
 10
-791.2085475392479
 20
150.6077102564597
 30
0.0
 11
-783.9562393278715
 21
149.7263594121761
 31
0.0
  0
LINE
  5
412
  8
0
 39
31.83440005694778
 10
-783.7409752627386
 20
145.7379778134199
 30
0.0
 11
-791.2085475392479
 21
150.6077102564597
 31
0.0
  0
LINE
  5
413
  8
0
 39
31.83440005694778
 10
-781.8902943269891
 20
146.9797034079237
 30
0.0
 11
-783.7409752627386
 21
145.7379778134199
 31
0.0
  0
LINE
  5
415
  8
0
 39
31.83440005694778
 10
-1155.139326570493
 20
263.6177385071787
 30
0.0
 11
-1118.093284574944
 21
272.0788715555538
 31
0.0
  0
LINE
  5
416
  8
0
 39
31.83440005694778
 10
-1108.453259218393
 20
268.6795660625359
 30
0.0
 11
-1115.736733000052
 21
269.3610505399848
 31
0.0
  0
LINE
  5
417
  8
0
 39
31.83440005694778
 10
-1114.206803633216
 20
273.0234284799809
 30
0.0
 11
-1108.453259218393
 21
268.6795660625359
 31
0.0
  0
LINE
  5
418
  8
0
 39
31.83440005694778
 10
-1117.702122663056
 20
279.3484652414774
 30
0.0
 11
-1114.206803633216
 21
273.0234284799809
 31
0.0
  0
LINE
  5
419
  8
0
 39
31.83440005694778
 10
-1118.093284574944
 20
272.0788715555538
 30
0.0
 11
-1117.702122663056
 21
279.3484652414774
 31
0.0
  0
LINE
  5
41A
  8
0
 39
31.83440005694778
 10
-1299.565385358577
 20
1120.614642448703
 30
0.0
 11
-1090.659928632741
 21
1045.378994538488
 31
0.0
  0
LINE
  5
41B
  8
0
 39
31.83440005694778
 10
-1338.56121903803
 20
1066.708186608316
 30
0.0
 11
-1301.515177042484
 21
1075.169319656698
 31
0.0
  0
LINE
  5
41C
  8
0
 39
31.83440005694778
 10
-1297.784094190425
 20
1067.815475712777
 30
0.0
 11
-1297.595033617686
 21
1075.271547684023
 31
0.0
  0
LINE
  5
41D
  8
0
 39
31.83440005694778
 10
-1301.515177042481
 20
1075.169319656692
 30
0.0
 11
-1297.784094190425
 21
1067.815475712777
 31
0.0
  0
LINE
  5
41E
  8
0
 39
31.83440005694778
 10
-944.911471951985
 20
895.9249863336714
 30
0.0
 11
-854.2211498859065
 21
706.3898188559541
 31
0.0
  0
LINE
  5
41F
  8
0
 39
31.83440005694778
 10
-1090.659928632741
 20
1045.378994538488
 30
0.0
 11
-944.911471951985
 21
895.9249863336714
 31
0.0
  0
LINE
  5
420
  8
0
 39
31.83440005694778
 10
-1129.000991040027
 20
233.7216029442491
 30
0.0
 11
-775.3964476883996
 21
102.042246612076
 31
0.0
  0
LINE
  5
421
  8
0
 39
31.83440005694778
 10
-751.1419877465771
 20
137.6233343236819
 30
0.0
 11
-762.3516709821707
 21
107.5042792634009
 31
0.0
  0
ARC
  5
422
  8
0
 39
31.83440005694778
 10
-771.6050756609476
 20
111.2956512908526
 30
0.0
 40
10.0
 50
247.7197507504298
 51
337.7197507504291
  0
LINE
  5
423
  8
0
 39
31.83440005694778
 10
-779.8275422508262
 20
149.3765876087856
 30
0.0
 11
-751.1419877466066
 21
137.6233343236819
 31
0.0
  0
LINE
  5
424
  8
0
 39
31.83440005694778
 10
-779.8275422508262
 20
149.3765876087856
 30
0.0
 11
-780.9649538590704
 21
146.6005662051758
 31
0.0
  0
CIRCLE
  5
425
  8
0
 10
-1163.621576281144
 20
368.1231013165527
 30
0.0
 40
6.75
  0
LINE
  5
426
  8
0
 10
-1338.56121903803
 20
1066.708186608316
 30
0.0
 11
-1155.139326570493
 21
263.6177385071498
 31
0.0
  0
LINE
  5
42C
  8
0
 10
-1299.565385358577
 20
1081.511356418718
 30
0.0
 11
-1299.565385358577
 21
1120.614642448703
 31
0.0
  0
LINE
  5
42D
  8
0
 10
-1297.595033617686
 20
1075.271547684023
 30
0.0
 11
-1299.565385358577
 21
1081.511356418718
 31
0.0
  0
LINE
  5
4B0
  8
0
 10
-1129.000991040027
 20
233.7216029442492
 30
0.0
 11
-1115.736733000023
 21
269.3610505400431
 31
0.0
  0
ENDSEC
  0
EOF
