  0
SECTION
  2
HEADER
  9
$ACADVER
  1
AC1009
  9
$INSBASE
 10
0.0
 20
0.0
 30
0.0
  9
$EXTMIN
 10
46.713673349277251
 20
14.48981229198804
 30
0.0
  9
$EXTMAX
 10
457.97915580677721
 20
1514.4898122919881
 30
0.0
  9
$LIMMIN
 10
0.0
 20
0.0
  9
$LIMMAX
 10
12.0
 20
9.0
  9
$ORTHOMODE
 70
     1
  9
$REGENMODE
 70
     1
  9
$FILLMODE
 70
     1
  9
$QTEXTMODE
 70
     0
  9
$MIRRTEXT
 70
     0
  9
$DRAGMODE
 70
     2
  9
$LTSCALE
 40
1.0
  9
$OSMODE
 70
  3007
  9
$ATTMODE
 70
     1
  9
$TEXTSIZE
 40
0.2
  9
$TRACEWID
 40
0.05
  9
$TEXTSTYLE
  7
STANDARD
  9
$CLAYER
  8
0
  9
$CELTYPE
  6
BYLAYER
  9
$CECOLOR
 62
   256
  9
$DIMSCALE
 40
1.0
  9
$DIMASZ
 40
0.18
  9
$DIMEXO
 40
0.0625
  9
$DIMDLI
 40
0.38
  9
$DIMRND
 40
0.0
  9
$DIMDLE
 40
0.0
  9
$DIMEXE
 40
0.18
  9
$DIMTP
 40
0.0
  9
$DIMTM
 40
0.0
  9
$DIMTXT
 40
0.18
  9
$DIMCEN
 40
0.09
  9
$DIMTSZ
 40
0.0
  9
$DIMTOL
 70
     0
  9
$DIMLIM
 70
     0
  9
$DIMTIH
 70
     1
  9
$DIMTOH
 70
     1
  9
$DIMSE1
 70
     0
  9
$DIMSE2
 70
     0
  9
$DIMTAD
 70
     0
  9
$DIMZIN
 70
     0
  9
$DIMBLK
  1

  9
$DIMASO
 70
     1
  9
$DIMSHO
 70
     1
  9
$DIMPOST
  1

  9
$DIMAPOST
  1

  9
$DIMALT
 70
     0
  9
$DIMALTD
 70
     2
  9
$DIMALTF
 40
25.399999999999999
  9
$DIMLFAC
 40
1.0
  9
$DIMTOFL
 70
     0
  9
$DIMTVP
 40
0.0
  9
$DIMTIX
 70
     0
  9
$DIMSOXD
 70
     0
  9
$DIMSAH
 70
     0
  9
$DIMBLK1
  1

  9
$DIMBLK2
  1

  9
$DIMSTYLE
  2
STANDARD
  9
$DIMCLRD
 70
     0
  9
$DIMCLRE
 70
     0
  9
$DIMCLRT
 70
     0
  9
$DIMTFAC
 40
1.0
  9
$DIMGAP
 40
0.09
  9
$LUNITS
 70
     2
  9
$LUPREC
 70
     4
  9
$SKETCHINC
 40
0.1
  9
$FILLETRAD
 40
0.0
  9
$AUNITS
 70
     0
  9
$AUPREC
 70
     0
  9
$MENU
  1
.
  9
$ELEVATION
 40
0.0
  9
$PELEVATION
 40
0.0
  9
$THICKNESS
 40
0.0
  9
$LIMCHECK
 70
     0
  9
$BLIPMODE
 70
     0
  9
$CHAMFERA
 40
0.0
  9
$CHAMFERB
 40
0.0
  9
$SKPOLY
 70
     0
  9
$TDCREATE
 40
2455531.5968663199
  9
$TDUPDATE
 40
2456737.6218299652
  9
$TDINDWG
 40
0.004199213
  9
$TDUSRTIMER
 40
0.0041984954
  9
$USRTIMER
 70
     1
  9
$ANGBASE
 50
0.0
  9
$ANGDIR
 70
     0
  9
$PDMODE
 70
     0
  9
$PDSIZE
 40
0.0
  9
$PLINEWID
 40
0.0
  9
$COORDS
 70
     1
  9
$SPLFRAME
 70
     0
  9
$SPLINETYPE
 70
     6
  9
$SPLINESEGS
 70
     8
  9
$ATTDIA
 70
     0
  9
$ATTREQ
 70
     1
  9
$HANDLING
 70
     1
  9
$HANDSEED
  5
7B2
  9
$SURFTAB1
 70
     6
  9
$SURFTAB2
 70
     6
  9
$SURFTYPE
 70
     6
  9
$SURFU
 70
     6
  9
$SURFV
 70
     6
  9
$UCSNAME
  2

  9
$UCSORG
 10
0.0
 20
0.0
 30
0.0
  9
$UCSXDIR
 10
1.0
 20
0.0
 30
0.0
  9
$UCSYDIR
 10
0.0
 20
1.0
 30
0.0
  9
$PUCSNAME
  2

  9
$PUCSORG
 10
0.0
 20
0.0
 30
0.0
  9
$PUCSXDIR
 10
1.0
 20
0.0
 30
0.0
  9
$PUCSYDIR
 10
0.0
 20
1.0
 30
0.0
  9
$USERI1
 70
     0
  9
$USERI2
 70
     0
  9
$USERI3
 70
     0
  9
$USERI4
 70
     0
  9
$USERI5
 70
     0
  9
$USERR1
 40
0.0
  9
$USERR2
 40
0.0
  9
$USERR3
 40
0.0
  9
$USERR4
 40
0.0
  9
$USERR5
 40
0.0
  9
$WORLDVIEW
 70
     1
  9
$SHADEDGE
 70
     3
  9
$SHADEDIF
 70
    70
  9
$TILEMODE
 70
     1
  9
$MAXACTVP
 70
    64
  9
$PLIMCHECK
 70
     0
  9
$PEXTMIN
 10
0.0
 20
0.0
 30
0.0
  9
$PEXTMAX
 10
0.0
 20
0.0
 30
0.0
  9
$PLIMMIN
 10
0.0
 20
0.0
  9
$PLIMMAX
 10
12.0
 20
9.0
  9
$UNITMODE
 70
     0
  9
$VISRETAIN
 70
     1
  9
$PLINEGEN
 70
     0
  9
$PSLTSCALE
 70
     1
  0
ENDSEC
  0
SECTION
  2
TABLES
  0
TABLE
  2
VPORT
 70
     1
  0
VPORT
  2
*ACTIVE
 70
     0
 10
0.0
 20
0.0
 11
1.0
 21
1.0
 12
575.96459133580402
 22
934.66696981564212
 13
0.0
 23
0.0
 14
0.5
 24
0.5
 15
0.5
 25
0.5
 16
0.0
 26
0.0
 36
1.0
 17
0.0
 27
0.0
 37
0.0
 40
1513.032308787549
 41
1.7236084452975049
 42
50.0
 43
0.0
 44
0.0
 50
0.0
 51
0.0
 71
     0
 72
  1000
 73
     1
 74
     3
 75
     0
 76
     0
 77
     0
 78
     0
  0
ENDTAB
  0
TABLE
  2
LTYPE
 70
     2
  0
LTYPE
  2
CONTINUOUS
 70
     0
  3
Solid line
 72
    65
 73
     0
 40
0.0
  0
LTYPE
  2
CENTERX2
 70
     0
  3
Center (2x) ________  __  ________  __  _____
 72
    65
 73
     4
 40
20.32
 49
12.699999999999999
 49
-2.54
 49
2.54
 49
-2.54
  0
ENDTAB
  0
TABLE
  2
LAYER
 70
     2
  0
LAYER
  2
0
 70
     0
 62
     7
  6
CONTINUOUS
  0
LAYER
  2
CONTORNO
 70
     0
 62
     7
  6
CONTINUOUS
  0
ENDTAB
  0
TABLE
  2
STYLE
 70
     3
  0
STYLE
  2
STANDARD
 70
     0
 40
0.0
 41
1.0
 50
0.0
 71
     0
 42
0.2
  3
txt.shx
  4

  0
STYLE
  2
ANNOTATIVE
 70
     0
 40
0.0
 41
1.0
 50
0.0
 71
     0
 42
0.2
  3
txt
  4

  0
STYLE
  2
ANNOTATIVA
 70
     0
 40
0.0
 41
1.0
 50
0.0
 71
     0
 42
0.2
  3
txt.shx
  4

  0
ENDTAB
  0
TABLE
  2
VIEW
 70
     0
  0
ENDTAB
  0
TABLE
  2
UCS
 70
     0
  0
ENDTAB
  0
TABLE
  2
APPID
 70
     7
  0
APPID
  2
ACAD
 70
     0
  0
APPID
  2
ACADANNOTATIVE
 70
     0
  0
APPID
  2
ACAD_MLEADERVER
 70
     0
  0
APPID
  2
ACADANNOPO
 70
     0
  0
APPID
  2
ACAD_DSTYLE_DIMJAG
 70
     0
  0
APPID
  2
ACAD_DSTYLE_DIMTALN
 70
     0
  0
APPID
  2
ACAD_EXEMPT_FROM_CAD_STANDARDS
 70
     0
  0
ENDTAB
  0
TABLE
  2
DIMSTYLE
 70
     4
  0
DIMSTYLE
  2
STANDARD
 70
     0
  3

  4

  5

  6

  7

 40
1.0
 41
0.18
 42
0.0625
 43
0.38
 44
0.18
 45
0.0
 46
0.0
 47
0.0
 48
0.0
140
0.18
141
0.09
142
0.0
143
25.399999999999999
144
1.0
145
0.0
146
1.0
147
0.09
 71
     0
 72
     0
 73
     1
 74
     1
 75
     0
 76
     0
 77
     0
 78
     0
170
     0
171
     2
172
     0
173
     0
174
     0
175
     0
176
     0
177
     0
178
     0
  0
DIMSTYLE
  2
ANNOTATIVE
 70
     0
  3

  4

  5

  6

  7

 40
1.0
 41
0.18
 42
0.0625
 43
0.38
 44
0.18
 45
0.0
 46
0.0
 47
0.0
 48
0.0
140
0.18
141
0.09
142
0.0
143
25.399999999999999
144
1.0
145
0.0
146
1.0
147
0.09
 71
     0
 72
     0
 73
     1
 74
     1
 75
     0
 76
     0
 77
     0
 78
     0
170
     0
171
     2
172
     0
173
     0
174
     0
175
     0
176
     0
177
     0
178
     0
  0
DIMSTYLE
  2
ANNOTATIVA
 70
     0
  3

  4

  5

  6

  7

 40
0.0
 41
0.18
 42
0.0625
 43
0.38
 44
0.18
 45
0.0
 46
0.0
 47
0.0
 48
0.0
140
0.18
141
0.09
142
0.0
143
25.399999999999999
144
1.0
145
0.0
146
1.0
147
0.09
 71
     0
 72
     0
 73
     1
 74
     1
 75
     0
 76
     0
 77
     0
 78
     0
170
     0
171
     2
172
     0
173
     0
174
     0
175
     0
176
     0
177
     0
178
     0
  0
DIMSTYLE
  2
ISO-25
 70
     0
  3

  4

  5

  6

  7

 40
1.0
 41
2.5
 42
0.625
 43
3.75
 44
1.25
 45
0.0
 46
0.0
 47
0.0
 48
0.0
140
2.5
141
2.5
142
0.0
143
0.0393700787
144
1.0
145
0.0
146
1.0
147
0.625
 71
     0
 72
     0
 73
     0
 74
     0
 75
     0
 76
     0
 77
     1
 78
     8
170
     0
171
     3
172
     1
173
     0
174
     0
175
     0
176
     0
177
     0
178
     0
  0
ENDTAB
  0
ENDSEC
  0
SECTION
  2
BLOCKS
  0
BLOCK
  8
0
  2
$MODEL_SPACE
 70
     0
 10
0.0
 20
0.0
 30
0.0
  3
$MODEL_SPACE
  1

  0
ENDBLK
  5
785
  8
0
  0
BLOCK
 67
     1
  8
0
  2
$PAPER_SPACE
 70
     0
 10
0.0
 20
0.0
 30
0.0
  3
$PAPER_SPACE
  1

  0
ENDBLK
  5
781
 67
     1
  8
0
  0
ENDSEC
  0
SECTION
  2
ENTITIES
  0
CIRCLE
  5
17D
  8
0
 10
377.4127851923771
 20
333.48981229198807
 30
0.0
 40
6.0000000000000231
  0
CIRCLE
  5
17E
  8
0
 10
377.4127851923771
 20
403.48981229198802
 30
0.0
 40
6.0000000000000231
  0
CIRCLE
  5
17F
  8
0
 10
307.41278519237721
 20
333.48981229198807
 30
0.0
 40
6.0000000000000124
  0
CIRCLE
  5
180
  8
0
 10
307.41278519237721
 20
403.48981229198802
 30
0.0
 40
6.0000000000000124
  0
CIRCLE
  5
181
  8
0
 10
392.4127851923771
 20
94.489812291988045
 30
0.0
 40
6.9999999999999831
  0
CIRCLE
  5
182
  8
0
 10
392.4127851923771
 20
194.48981229198799
 30
0.0
 40
6.9999999999999503
  0
CIRCLE
  5
183
  8
0
 10
292.41278519237721
 20
94.489812291988045
 30
0.0
 40
6.9999999999999432
  0
CIRCLE
  5
184
  8
0
 10
292.41278519237721
 20
194.48981229198799
 30
0.0
 40
6.999999999999968
  0
CIRCLE
  5
187
  8
0
 10
442.97915580677721
 20
635.48981229198785
 30
0.0
 40
9.0000000000001048
  0
CIRCLE
  5
188
  8
0
 10
442.97915580677721
 20
855.48981229198796
 30
0.0
 40
9.0000000000001048
  0
CIRCLE
  5
189
  8
0
 10
442.97915580677721
 20
1075.4898122919881
 30
0.0
 40
9.0000000000004121
  0
CIRCLE
  5
18A
  8
0
 10
442.97915580677721
 20
415.48981229198779
 30
0.0
 40
9.0000000000000533
  0
CIRCLE
  5
18B
  8
0
 10
442.97915580677721
 20
70.489812291988045
 30
0.0
 40
9.0000000000000355
  0
LINE
  5
18D
  8
0
 10
457.97915580677721
 20
14.48981229198804
 30
0.0
 11
420.69597049957662
 21
14.48981229198804
 31
0.0
  0
LINE
  5
18F
  8
0
 10
457.97915580677721
 20
1419.4898122919881
 30
0.0
 11
419.86828160924279
 21
1419.4898122919881
 31
0.0
  0
LINE
  5
190
  8
0
 10
413.11602014996561
 20
1427.5152764251391
 30
0.0
 11
248.41278519237721
 21
1514.4898122919881
 31
0.0
  0
LINE
  5
191
  8
0
 10
46.713673349277251
 20
1514.4898122919881
 30
0.0
 11
89.996858656477244
 21
1514.4898122919881
 31
0.0
  0
LINE
  5
192
  8
0
 10
46.713673349277251
 20
1514.4898122919881
 30
0.0
 11
46.713673349277251
 21
239.98981229198799
 31
0.0
  0
LINE
  5
199
  8
0
 10
414.69597049957702
 20
14.48981229198804
 30
0.0
 11
417.69597049957719
 21
24.489812291988049
 31
0.0
  0
LINE
  5
19A
  8
0
 10
417.69597049957719
 20
24.489812291988049
 30
0.0
 11
420.69597049957719
 21
14.48981229198804
 31
0.0
  0
LINE
  5
19B
  8
0
 10
194.1295998851771
 20
14.48981229198804
 30
0.0
 11
197.1295998851771
 21
24.489812291988049
 31
0.0
  0
LINE
  5
19C
  8
0
 10
197.1295998851771
 20
24.489812291988049
 30
0.0
 11
200.12959988517721
 21
14.48981229198804
 31
0.0
  0
LINE
  5
19D
  8
0
 10
152.56322927087709
 20
14.48981229198804
 30
0.0
 11
155.56322927087709
 21
24.489812291988049
 31
0.0
  0
LINE
  5
19E
  8
0
 10
155.56322927087709
 20
24.489812291988049
 30
0.0
 11
158.56322927087709
 21
14.48981229198804
 31
0.0
  0
LINE
  5
19F
  8
0
 10
89.996858656477286
 20
14.48981229198804
 30
0.0
 11
92.996858656477286
 21
24.489812291988049
 31
0.0
  0
LINE
  5
1A0
  8
0
 10
92.996858656477286
 20
24.489812291988049
 30
0.0
 11
95.996858656477286
 21
14.48981229198804
 31
0.0
  0
LINE
  5
1A1
  8
0
 10
413.11602014996561
 20
1427.5152764251391
 30
0.0
 11
417.69597049957719
 21
1412.2487752597681
 31
0.0
  0
LINE
  5
1A2
  8
0
 10
417.69597049957719
 20
1412.2487752597681
 30
0.0
 11
419.86828160924279
 21
1419.4898122919881
 31
0.0
  0
LINE
  5
1A3
  8
0
 10
194.1295998851771
 20
1514.4898122919881
 30
0.0
 11
197.1295998851771
 21
1504.4898122919881
 31
0.0
  0
LINE
  5
1A4
  8
0
 10
197.1295998851771
 20
1504.4898122919881
 30
0.0
 11
200.12959988517721
 21
1514.4898122919881
 31
0.0
  0
LINE
  5
1A5
  8
0
 10
152.56322927087709
 20
1514.4898122919881
 30
0.0
 11
155.56322927087709
 21
1504.4898122919881
 31
0.0
  0
LINE
  5
1A6
  8
0
 10
155.56322927087709
 20
1504.4898122919881
 30
0.0
 11
158.56322927087709
 21
1514.4898122919881
 31
0.0
  0
LINE
  5
1A7
  8
0
 10
89.996858656477286
 20
1514.4898122919881
 30
0.0
 11
92.996858656477286
 21
1504.4898122919881
 31
0.0
  0
LINE
  5
1A8
  8
0
 10
92.996858656477286
 20
1504.4898122919881
 30
0.0
 11
95.996858656477286
 21
1514.4898122919881
 31
0.0
  0
LINE
  5
1AA
  8
0
 10
457.97915580677721
 20
14.48981229198804
 30
0.0
 11
457.97915580677721
 21
1419.4898122919881
 31
0.0
  0
LINE
  5
1AB
  8
0
 10
200.1295998851771
 20
1514.489812291986
 30
0.0
 11
248.41278519237721
 21
1514.4898122919881
 31
0.0
  0
LINE
  5
1AC
  8
0
 10
158.56322927087709
 20
1514.4898122919881
 30
0.0
 11
194.1295998851771
 21
1514.4898122919881
 31
0.0
  0
LINE
  5
1AD
  8
0
 10
95.996858656477244
 20
1514.4898122919881
 30
0.0
 11
152.56322927087709
 21
1514.4898122919881
 31
0.0
  0
LINE
  5
4EB
  8
0
 10
46.713673349277251
 20
14.48981229198804
 30
0.0
 11
89.996858656477286
 21
14.48981229198804
 31
0.0
  0
LINE
  5
4EC
  8
0
 10
95.996858656477286
 20
14.48981229198804
 30
0.0
 11
152.56322927087709
 21
14.48981229198804
 31
0.0
  0
LINE
  5
4ED
  8
0
 10
158.56322927087709
 20
14.48981229198804
 30
0.0
 11
194.1295998851771
 21
14.48981229198804
 31
0.0
  0
LINE
  5
4EE
  8
0
 10
200.12959988517721
 20
14.48981229198804
 30
0.0
 11
414.69597049957702
 21
14.48981229198804
 31
0.0
  0
CIRCLE
  5
594
  8
0
 10
342.4127851923771
 20
144.48981229198799
 30
0.0
 40
51.000000000000021
  0
CIRCLE
  5
597
  8
0
 10
342.4127851923771
 20
368.48981229198807
 30
0.0
 40
36.000000000000149
  0
CIRCLE
  5
63F
  8
0
 10
294.19597049957719
 20
221.48981229198799
 30
0.0
 40
6.0
  0
LINE
  5
6F1
  8
0
 10
46.713673349277251
 20
239.98981229198799
 30
0.0
 11
54.713673349277258
 21
237.48981229198799
 31
0.0
  0
LINE
  5
6F2
  8
0
 10
54.713673349277258
 20
237.48981229198799
 30
0.0
 11
46.713673349277251
 21
234.98981229198799
 31
0.0
  0
LINE
  5
6F3
  8
0
 10
46.713673349277251
 20
234.98981229198799
 30
0.0
 11
46.713673349277251
 21
14.48981229198804
 31
0.0
  0
ENDSEC
  0
EOF
