  0
SECTION
  2
HEADER
  9
$ACADVER
  1
AC1009
  9
$DWGCODEPAGE
  3
ansi_1252
  9
$INSBASE
 10
0.0
 20
0.0
 30
0.0
  9
$EXTMIN
 10
-1024.3754860145
 20
-209.7690800446
 30
0.0
  9
$EXTMAX
 10
-397.6245139855
 20
174.5
 30
0.0
  9
$LIMMIN
 10
0.0
 20
0.0
  9
$LIMMAX
 10
420.0
 20
297.0
  9
$ORTHOMODE
 70
     1
  9
$REGENMODE
 70
     1
  9
$FILLMODE
 70
     1
  9
$QTEXTMODE
 70
     0
  9
$MIRRTEXT
 70
     1
  9
$DRAGMODE
 70
     2
  9
$LTSCALE
 40
1.0
  9
$OSMODE
 70
  1023
  9
$ATTMODE
 70
     1
  9
$TEXTSIZE
 40
3.5
  9
$TRACEWID
 40
1.0
  9
$TEXTSTYLE
  7
STANDARD
  9
$CLAYER
  8
0
  9
$CELTYPE
  6
BYLAYER
  9
$CECOLOR
 62
   256
  9
$DIMSCALE
 40
1.0
  9
$DIMASZ
 40
3.302
  9
$DIMEXO
 40
1.0
  9
$DIMDLI
 40
3.75
  9
$DIMRND
 40
0.0
  9
$DIMDLE
 40
0.0
  9
$DIMEXE
 40
1.0
  9
$DIMTP
 40
0.0
  9
$DIMTM
 40
0.0
  9
$DIMTXT
 40
3.5
  9
$DIMCEN
 40
2.5
  9
$DIMTSZ
 40
0.0
  9
$DIMTOL
 70
     0
  9
$DIMLIM
 70
     0
  9
$DIMTIH
 70
     1
  9
$DIMTOH
 70
     1
  9
$DIMSE1
 70
     0
  9
$DIMSE2
 70
     0
  9
$DIMTAD
 70
     1
  9
$DIMZIN
 70
     0
  9
$DIMBLK
  1

  9
$DIMASO
 70
     1
  9
$DIMSHO
 70
     1
  9
$DIMPOST
  1

  9
$DIMAPOST
  1

  9
$DIMALT
 70
     0
  9
$DIMALTD
 70
     3
  9
$DIMALTF
 40
0.0393700787
  9
$DIMLFAC
 40
1.0
  9
$DIMTOFL
 70
     1
  9
$DIMTVP
 40
0.0
  9
$DIMTIX
 70
     0
  9
$DIMSOXD
 70
     0
  9
$DIMSAH
 70
     0
  9
$DIMBLK1
  1

  9
$DIMBLK2
  1

  9
$DIMSTYLE
  2
ISO-25
  9
$DIMCLRD
 70
     0
  9
$DIMCLRE
 70
     0
  9
$DIMCLRT
 70
     0
  9
$DIMTFAC
 40
1.0
  9
$DIMGAP
 40
1.524
  9
$LUNITS
 70
     2
  9
$LUPREC
 70
     2
  9
$SKETCHINC
 40
1.0
  9
$FILLETRAD
 40
10.0
  9
$AUNITS
 70
     0
  9
$AUPREC
 70
     2
  9
$MENU
  1
.
  9
$ELEVATION
 40
0.0
  9
$PELEVATION
 40
0.0
  9
$THICKNESS
 40
0.0
  9
$LIMCHECK
 70
     0
  9
$CHAMFERA
 40
0.0
  9
$CHAMFERB
 40
0.0
  9
$SKPOLY
 70
     0
  9
$TDCREATE
 40
2457831.69806235
  9
$TDUPDATE
 40
2457845.448358148
  9
$TDINDWG
 40
0.007378831
  9
$TDUSRTIMER
 40
2457845.364792026
  9
$USRTIMER
 70
     1
  9
$ANGBASE
 50
0.0
  9
$ANGDIR
 70
     0
  9
$PDMODE
 70
     0
  9
$PDSIZE
 40
-1.0
  9
$PLINEWID
 40
0.0
  9
$COORDS
 70
     1
  9
$SPLFRAME
 70
     0
  9
$SPLINETYPE
 70
     6
  9
$SPLINESEGS
 70
     8
  9
$ATTDIA
 70
     0
  9
$ATTREQ
 70
     1
  9
$HANDLING
 70
     1
  9
$HANDSEED
  5
1E6
  9
$SURFTAB1
 70
     6
  9
$SURFTAB2
 70
     6
  9
$SURFTYPE
 70
     6
  9
$SURFU
 70
     6
  9
$SURFV
 70
     6
  9
$UCSNAME
  2

  9
$UCSORG
 10
0.0
 20
0.0
 30
0.0
  9
$UCSXDIR
 10
1.0
 20
0.0
 30
0.0
  9
$UCSYDIR
 10
0.0
 20
1.0
 30
0.0
  9
$PUCSNAME
  2

  9
$PUCSORG
 10
0.0
 20
0.0
 30
0.0
  9
$PUCSXDIR
 10
1.0
 20
0.0
 30
0.0
  9
$PUCSYDIR
 10
0.0
 20
1.0
 30
0.0
  9
$USERI1
 70
     0
  9
$USERI2
 70
     0
  9
$USERI3
 70
     0
  9
$USERI4
 70
     0
  9
$USERI5
 70
     0
  9
$USERR1
 40
0.0
  9
$USERR2
 40
0.0
  9
$USERR3
 40
0.0
  9
$USERR4
 40
0.0
  9
$USERR5
 40
0.0
  9
$WORLDVIEW
 70
     1
  9
$SHADEDGE
 70
     3
  9
$SHADEDIF
 70
    70
  9
$TILEMODE
 70
     1
  9
$MAXACTVP
 70
    64
  9
$PLIMCHECK
 70
     0
  9
$PEXTMIN
 10
1.000000000000000E+20
 20
1.000000000000000E+20
 30
1.000000000000000E+20
  9
$PEXTMAX
 10
-1.000000000000000E+20
 20
-1.000000000000000E+20
 30
-1.000000000000000E+20
  9
$PLIMMIN
 10
0.0
 20
0.0
  9
$PLIMMAX
 10
0.0
 20
0.0
  9
$UNITMODE
 70
     0
  9
$VISRETAIN
 70
     1
  9
$PLINEGEN
 70
     0
  9
$PSLTSCALE
 70
     1
  0
ENDSEC
  0
SECTION
  2
TABLES
  0
TABLE
  2
VPORT
 70
     1
  0
VPORT
  2
*ACTIVE
 70
     0
 10
0.0
 20
0.0
 11
1.0
 21
1.0
 12
-597.0581056948861
 22
-16.5630158495067
 13
0.0
 23
0.0
 14
10.0
 24
10.0
 15
10.0
 25
10.0
 16
0.0
 26
0.0
 36
1.0
 17
0.0
 27
0.0
 37
0.0
 40
612.4288463209325
 41
2.017173051519154
 42
50.0
 43
0.0
 44
0.0
 50
0.0
 51
0.0
 71
    16
 72
   100
 73
     1
 74
     3
 75
     0
 76
     0
 77
     0
 78
     0
  0
ENDTAB
  0
TABLE
  2
LTYPE
 70
     6
  0
LTYPE
  2
CONTINUOUS
 70
     0
  3
Solid line
 72
    65
 73
     0
 40
0.0
  0
LTYPE
  2
HIDDEN
 70
     0
  3
Hidden __ __ __ __ __ __ __ __ __ __ __ __ __ __
 72
    65
 73
     2
 40
1.905
 49
1.27
 49
-0.635
  0
LTYPE
  2
PHANTOM
 70
     0
  3
Phantom ______  __  __  ______  __  __  ______
 72
    65
 73
     6
 40
12.7
 49
6.35
 49
-1.27
 49
1.27
 49
-1.27
 49
1.27
 49
-1.27
  0
LTYPE
  2
CENTER
 70
     0
  3
Center ____ _ ____ _ ____ _ ____ _ ____ _ ____
 72
    65
 73
     4
 40
10.16
 49
6.35
 49
-1.27
 49
1.27
 49
-1.27
  0
LTYPE
  2
CENTERX2
 70
     0
  3
Center (2x) ________  __  ________  __  _____
 72
    65
 73
     4
 40
20.32
 49
12.7
 49
-2.54
 49
2.54
 49
-2.54
  0
LTYPE
  2
DOT2
 70
     0
  3
Dot (.5x) ........................................
 72
    65
 73
     2
 40
0.635
 49
0.0
 49
-0.635
  0
ENDTAB
  0
TABLE
  2
LAYER
 70
     1
  0
LAYER
  2
0
 70
     0
 62
     7
  6
CONTINUOUS
  0
ENDTAB
  0
TABLE
  2
STYLE
 70
     1
  0
STYLE
  2
STANDARD
 70
     0
 40
0.0
 41
1.0
 50
0.0
 71
     0
 42
3.5
  3
txt
  4

  0
ENDTAB
  0
TABLE
  2
VIEW
 70
     0
  0
ENDTAB
  0
TABLE
  2
UCS
 70
     0
  0
ENDTAB
  0
TABLE
  2
APPID
 70
     1
  0
APPID
  2
ACAD
 70
     0
  0
ENDTAB
  0
TABLE
  2
DIMSTYLE
 70
     1
  0
DIMSTYLE
  2
ISO-25
 70
     0
  3

  4

  5

  6

  7

 40
1.0
 41
2.5
 42
0.625
 43
3.75
 44
1.25
 45
0.0
 46
0.0
 47
0.0
 48
0.0
140
2.5
141
2.5
142
0.0
143
0.0393700787
144
1.0
145
0.0
146
1.0
147
0.625
 71
     0
 72
     0
 73
     0
 74
     0
 75
     0
 76
     0
 77
     1
 78
     8
170
     0
171
     3
172
     1
173
     0
174
     0
175
     0
176
     0
177
     0
178
     0
  0
ENDTAB
  0
ENDSEC
  0
SECTION
  2
BLOCKS
  0
BLOCK
  8
0
  2
$MODEL_SPACE
 70
     0
 10
0.0
 20
0.0
 30
0.0
  3
$MODEL_SPACE
  1

  0
ENDBLK
  5
21
  8
0
  0
BLOCK
 67
     1
  8
0
  2
$PAPER_SPACE
 70
     0
 10
0.0
 20
0.0
 30
0.0
  3
$PAPER_SPACE
  1

  0
ENDBLK
  5
1D
 67
     1
  8
0
  0
ENDSEC
  0
SECTION
  2
ENTITIES
  0
LINE
  5
73
  8
0
  6
CENTERX2
 62
     7
 10
-469.8122569928
 20
174.5
 30
0.0
 11
-469.8122569928
 21
81.5
 31
0.0
  0
LINE
  5
74
  8
0
  6
CENTERX2
 62
     7
 10
-519.8122569928
 20
72.5
 30
0.0
 11
-519.8122569928
 21
-135.6877430073
 31
0.0
  0
LINE
  5
75
  8
0
  6
CENTERX2
 62
     7
 10
-505.130443996993
 20
-135.6877430073
 30
0.0
 11
-765.1132996056984
 21
-135.6877430073
 31
0.0
  0
LINE
  5
76
  8
0
  6
CENTERX2
 62
     7
 10
-918.1877430072
 20
17.38670039409852
 30
0.0
 11
-918.1877430072
 21
174.5
 31
0.0
  0
LINE
  5
A5
  8
0
  6
CONTINUOUS
 62
     7
 10
-816.9780977232
 20
-185.9118300878
 30
0.0
 11
-767.499546826478
 21
-136.433279191078
 31
0.0
  0
LINE
  5
A6
  8
0
  6
CONTINUOUS
 62
     7
 10
-817.1624783268
 20
-185.7274494842
 30
0.0
 11
-816.9780977232
 21
-185.9118300878
 31
0.0
  0
LINE
  5
A7
  8
0
  6
CONTINUOUS
 62
     7
 10
-841.2041088871
 20
-209.7690800446
 30
0.0
 11
-817.1624783268
 21
-185.7274494842
 31
0.0
  0
LINE
  5
A8
  8
0
  6
CONTINUOUS
 62
     7
 10
-992.4534606481
 20
-58.5197282835
 30
0.0
 11
-841.2041088871
 21
-209.7690800446
 31
0.0
  0
LINE
  5
A9
  8
0
  6
CONTINUOUS
 62
     7
 10
-918.9332791912088
 20
15.00045317339119
 30
0.0
 11
-992.4534606481
 21
-58.5197282835
 31
0.0
  0
LINE
  5
B0
  8
0
  6
CONTINUOUS
 62
     7
 10
-526.0
 20
75.5
 30
0.0
 11
-471.3122569928
 21
75.5
 31
0.0
  0
LINE
  5
B1
  8
0
  6
CONTINUOUS
 62
     7
 10
-526.0
 20
72.5
 30
0.0
 11
-526.0
 21
75.5
 31
0.0
  0
LINE
  5
B4
  8
0
  6
CONTINUOUS
 62
     7
 10
-447.6245139855
 20
-135.6877430073
 30
0.0
 11
-447.6245139855
 21
72.50000000000006
 31
0.0
  0
LINE
  5
B5
  8
0
  6
CONTINUOUS
 62
     7
 10
-517.3122569928
 20
-135.6877430073
 30
0.0
 11
-447.6245139855
 21
-135.6877430073
 31
0.0
  0
LINE
  5
B9
  8
0
  6
CONTINUOUS
 62
     7
 10
-519.8122569928
 20
-207.8754860145
 30
0.0
 11
-519.8122569928
 21
-138.1877430073
 31
0.0
  0
LINE
  5
BA
  8
0
  6
CONTINUOUS
 62
     7
 10
-763.9531417057
 20
-207.8754860145
 30
0.0
 11
-519.8122569928
 21
-207.8754860145
 31
0.0
  0
LINE
  5
BB
  8
0
  6
CONTINUOUS
 62
     7
 10
-763.9531417057
 20
-137.9022482899921
 30
0.0
 11
-763.9531417057
 21
-207.8754860145
 31
0.0
  0
LINE
  5
C0
  8
0
  6
CONTINUOUS
 62
     7
 10
-1024.3754860145
 20
174.5
 30
0.0
 11
-1024.3754860145
 21
18.5468582943
 31
0.0
  0
LINE
  5
C1
  8
0
  6
CONTINUOUS
 62
     7
 10
-1024.3754860145
 20
18.5468582943
 30
0.0
 11
-920.4022482897857
 21
18.5468582943
 31
0.0
  0
LINE
  5
C4
  8
0
  6
CONTINUOUS
 62
     7
 10
-397.6245139855
 20
174.5
 30
0.0
 11
-468.3122569928
 21
174.5
 31
0.0
  0
LINE
  5
C6
  8
0
  6
CONTINUOUS
 62
     7
 10
-397.6245139855
 20
75.5
 30
0.0
 11
-397.6245139855
 21
174.5
 31
0.0
  0
LINE
  5
C8
  8
0
  6
CONTINUOUS
 62
     7
 10
-447.6245139855
 20
72.5
 30
0.0
 11
-518.3122569928
 21
72.5
 31
0.0
  0
ARC
  5
EB
  8
0
 10
-765.1132996056984
 20
-135.6877430073
 30
0.0
 40
2.5
 50
297.6496082099526
 51
197.3503917840199
  0
LINE
  5
EC
  8
0
  6
CENTERX2
 62
     7
 10
-765.1132996056984
 20
-135.6877430073
 30
0.0
 11
-918.1877430072
 21
17.38670039409854
 31
0.0
  0
ARC
  5
EF
  8
0
 10
-519.8122569928
 20
-135.6877430073
 30
0.0
 40
2.5
 50
0.0
 51
270.0
  0
LINE
  5
F0
  8
0
  6
CENTERX2
 62
     7
 10
-519.8122569928
 20
-138.1877430073
 30
0.0
 11
-519.8122569928
 21
-153.0329318252996
 31
0.0
  0
LINE
  5
F6
  8
0
  6
CONTINUOUS
 62
     7
 10
-521.3122569928
 20
72.5
 30
0.0
 11
-526.0
 21
72.5
 31
0.0
  0
ARC
  5
F7
  8
0
 10
-918.1877430072
 20
17.38670039409852
 30
0.0
 40
2.5
 50
252.6496082104345
 51
152.3503917847949
  0
LINE
  5
F9
  8
0
 10
-469.8122569928
 20
168.5
 30
0.0
 11
-468.3122569928
 21
174.5
 31
0.0
  0
LINE
  5
FA
  8
0
 10
-471.3122569928
 20
174.5
 30
0.0
 11
-469.8122569928
 21
168.5
 31
0.0
  0
LINE
  5
FB
  8
0
 10
-469.8122569928
 20
81.5
 30
0.0
 11
-468.3122569928
 21
75.5
 31
0.0
  0
LINE
  5
FC
  8
0
 10
-471.3122569928
 20
75.5
 30
0.0
 11
-469.8122569928
 21
81.5
 31
0.0
  0
LINE
  5
FD
  8
0
  6
CONTINUOUS
 62
     7
 10
-468.3122569928
 20
75.5
 30
0.0
 11
-397.6245139855
 21
75.5
 31
0.0
  0
LINE
  5
FE
  8
0
  6
CONTINUOUS
 62
     7
 10
-471.3122569928
 20
174.5
 30
0.0
 11
-916.6877430072
 21
174.5
 31
0.0
  0
LINE
  5
FF
  8
0
 10
-918.1877430072
 20
168.5
 30
0.0
 11
-916.6877430072
 21
174.5
 31
0.0
  0
LINE
  5
100
  8
0
 10
-919.6877430072
 20
174.5
 30
0.0
 11
-918.1877430072
 21
168.5
 31
0.0
  0
LINE
  5
101
  8
0
  6
CONTINUOUS
 62
     7
 10
-919.6877430072
 20
174.5
 30
0.0
 11
-1024.3754860145
 21
174.5
 31
0.0
  0
LINE
  5
102
  8
0
 10
-519.8122569928
 20
66.5
 30
0.0
 11
-518.3122569928
 21
72.5
 31
0.0
  0
LINE
  5
103
  8
0
 10
-521.3122569928
 20
72.5
 30
0.0
 11
-519.8122569928
 21
66.5
 31
0.0
  0
ENDSEC
  0
EOF
