  0
SECTION
  2
HEADER
  9
$ACADVER
  1
AC1009
  9
$INSBASE
 10
0.0
 20
0.0
 30
0.0
  9
$EXTMIN
 10
-108.0669800016603
 20
857.01517013284945
 30
0.0
  9
$EXTMAX
 10
1225.647664730235
 20
1527.897134620071
 30
0.0
  9
$LIMMIN
 10
0.0
 20
0.0
  9
$LIMMAX
 10
12.0
 20
9.0
  9
$ORTHOMODE
 70
     1
  9
$REGENMODE
 70
     1
  9
$FILLMODE
 70
     1
  9
$QTEXTMODE
 70
     0
  9
$MIRRTEXT
 70
     0
  9
$DRAGMODE
 70
     2
  9
$LTSCALE
 40
1.0
  9
$OSMODE
 70
  3071
  9
$ATTMODE
 70
     1
  9
$TEXTSIZE
 40
0.2
  9
$TRACEWID
 40
0.05
  9
$TEXTSTYLE
  7
STANDARD
  9
$CLAYER
  8
0
  9
$CELTYPE
  6
BYLAYER
  9
$CECOLOR
 62
   256
  9
$DIMSCALE
 40
1.0
  9
$DIMASZ
 40
0.18
  9
$DIMEXO
 40
0.0625
  9
$DIMDLI
 40
0.38
  9
$DIMRND
 40
0.0
  9
$DIMDLE
 40
0.0
  9
$DIMEXE
 40
0.18
  9
$DIMTP
 40
0.0
  9
$DIMTM
 40
0.0
  9
$DIMTXT
 40
0.18
  9
$DIMCEN
 40
0.09
  9
$DIMTSZ
 40
0.0
  9
$DIMTOL
 70
     0
  9
$DIMLIM
 70
     0
  9
$DIMTIH
 70
     1
  9
$DIMTOH
 70
     1
  9
$DIMSE1
 70
     0
  9
$DIMSE2
 70
     0
  9
$DIMTAD
 70
     0
  9
$DIMZIN
 70
     0
  9
$DIMBLK
  1

  9
$DIMASO
 70
     1
  9
$DIMSHO
 70
     1
  9
$DIMPOST
  1

  9
$DIMAPOST
  1

  9
$DIMALT
 70
     0
  9
$DIMALTD
 70
     2
  9
$DIMALTF
 40
25.399999999999999
  9
$DIMLFAC
 40
1.0
  9
$DIMTOFL
 70
     0
  9
$DIMTVP
 40
0.0
  9
$DIMTIX
 70
     0
  9
$DIMSOXD
 70
     0
  9
$DIMSAH
 70
     0
  9
$DIMBLK1
  1

  9
$DIMBLK2
  1

  9
$DIMSTYLE
  2
STANDARD
  9
$DIMCLRD
 70
     0
  9
$DIMCLRE
 70
     0
  9
$DIMCLRT
 70
     0
  9
$DIMTFAC
 40
1.0
  9
$DIMGAP
 40
0.09
  9
$LUNITS
 70
     2
  9
$LUPREC
 70
     4
  9
$SKETCHINC
 40
0.1
  9
$FILLETRAD
 40
0.0
  9
$AUNITS
 70
     0
  9
$AUPREC
 70
     0
  9
$MENU
  1
.
  9
$ELEVATION
 40
0.0
  9
$PELEVATION
 40
0.0
  9
$THICKNESS
 40
0.0
  9
$LIMCHECK
 70
     0
  9
$BLIPMODE
 70
     0
  9
$CHAMFERA
 40
0.0
  9
$CHAMFERB
 40
0.0
  9
$SKPOLY
 70
     0
  9
$TDCREATE
 40
2455538.5446652551
  9
$TDUPDATE
 40
2455678.5842344798
  9
$TDINDWG
 40
0.0026737963
  9
$TDUSRTIMER
 40
0.0026727083
  9
$USRTIMER
 70
     1
  9
$ANGBASE
 50
0.0
  9
$ANGDIR
 70
     0
  9
$PDMODE
 70
     0
  9
$PDSIZE
 40
0.0
  9
$PLINEWID
 40
0.0
  9
$COORDS
 70
     2
  9
$SPLFRAME
 70
     0
  9
$SPLINETYPE
 70
     6
  9
$SPLINESEGS
 70
     8
  9
$ATTDIA
 70
     0
  9
$ATTREQ
 70
     1
  9
$HANDLING
 70
     1
  9
$HANDSEED
  5
554
  9
$SURFTAB1
 70
     6
  9
$SURFTAB2
 70
     6
  9
$SURFTYPE
 70
     6
  9
$SURFU
 70
     6
  9
$SURFV
 70
     6
  9
$UCSNAME
  2

  9
$UCSORG
 10
0.0
 20
0.0
 30
0.0
  9
$UCSXDIR
 10
1.0
 20
0.0
 30
0.0
  9
$UCSYDIR
 10
0.0
 20
1.0
 30
0.0
  9
$PUCSNAME
  2

  9
$PUCSORG
 10
0.0
 20
0.0
 30
0.0
  9
$PUCSXDIR
 10
1.0
 20
0.0
 30
0.0
  9
$PUCSYDIR
 10
0.0
 20
1.0
 30
0.0
  9
$USERI1
 70
     0
  9
$USERI2
 70
     0
  9
$USERI3
 70
     0
  9
$USERI4
 70
     0
  9
$USERI5
 70
     0
  9
$USERR1
 40
0.0
  9
$USERR2
 40
0.0
  9
$USERR3
 40
0.0
  9
$USERR4
 40
0.0
  9
$USERR5
 40
0.0
  9
$WORLDVIEW
 70
     1
  9
$SHADEDGE
 70
     3
  9
$SHADEDIF
 70
    70
  9
$TILEMODE
 70
     1
  9
$MAXACTVP
 70
    64
  9
$PLIMCHECK
 70
     0
  9
$PEXTMIN
 10
0.0
 20
0.0
 30
0.0
  9
$PEXTMAX
 10
0.0
 20
0.0
 30
0.0
  9
$PLIMMIN
 10
0.0
 20
0.0
  9
$PLIMMAX
 10
12.0
 20
9.0
  9
$UNITMODE
 70
     0
  9
$VISRETAIN
 70
     1
  9
$PLINEGEN
 70
     0
  9
$PSLTSCALE
 70
     1
  0
ENDSEC
  0
SECTION
  2
TABLES
  0
TABLE
  2
VPORT
 70
     1
  0
VPORT
  2
*ACTIVE
 70
     0
 10
0.0
 20
0.0
 11
1.0
 21
1.0
 12
671.69424207926932
 22
1147.8943821546579
 13
0.0
 23
0.0
 14
0.5
 24
0.5
 15
0.5
 25
0.5
 16
0.0
 26
0.0
 36
1.0
 17
0.0
 27
0.0
 37
0.0
 40
1099.9031280561369
 41
2.0077519379844961
 42
50.0
 43
0.0
 44
0.0
 50
0.0
 51
0.0
 71
     0
 72
  1000
 73
     1
 74
     3
 75
     0
 76
     0
 77
     0
 78
     0
  0
ENDTAB
  0
TABLE
  2
LTYPE
 70
     1
  0
LTYPE
  2
CONTINUOUS
 70
     0
  3
Solid line
 72
    65
 73
     0
 40
0.0
  0
ENDTAB
  0
TABLE
  2
LAYER
 70
     2
  0
LAYER
  2
0
 70
     0
 62
     7
  6
CONTINUOUS
  0
LAYER
  2
MANOVELLA
 70
     0
 62
     8
  6
CONTINUOUS
  0
ENDTAB
  0
TABLE
  2
STYLE
 70
     3
  0
STYLE
  2
STANDARD
 70
     0
 40
0.0
 41
1.0
 50
0.0
 71
     0
 42
0.2
  3
txt.shx
  4

  0
STYLE
  2
ANNOTATIVE
 70
     0
 40
0.0
 41
1.0
 50
0.0
 71
     0
 42
0.2
  3
txt
  4

  0
STYLE
  2
ANNOTATIVA
 70
     0
 40
0.0
 41
1.0
 50
0.0
 71
     0
 42
0.2
  3
txt.shx
  4

  0
ENDTAB
  0
TABLE
  2
VIEW
 70
     0
  0
ENDTAB
  0
TABLE
  2
UCS
 70
     0
  0
ENDTAB
  0
TABLE
  2
APPID
 70
     7
  0
APPID
  2
ACAD
 70
     0
  0
APPID
  2
ACADANNOTATIVE
 70
     0
  0
APPID
  2
ACAD_MLEADERVER
 70
     0
  0
APPID
  2
ACADANNOPO
 70
     0
  0
APPID
  2
ACAD_DSTYLE_DIMJAG
 70
     0
  0
APPID
  2
ACAD_DSTYLE_DIMTALN
 70
     0
  0
APPID
  2
ACAECLAYERSTANDARD
 70
     0
  0
ENDTAB
  0
TABLE
  2
DIMSTYLE
 70
     4
  0
DIMSTYLE
  2
STANDARD
 70
     0
  3

  4

  5

  6

  7

 40
1.0
 41
0.18
 42
0.0625
 43
0.38
 44
0.18
 45
0.0
 46
0.0
 47
0.0
 48
0.0
140
0.18
141
0.09
142
0.0
143
25.399999999999999
144
1.0
145
0.0
146
1.0
147
0.09
 71
     0
 72
     0
 73
     1
 74
     1
 75
     0
 76
     0
 77
     0
 78
     0
170
     0
171
     2
172
     0
173
     0
174
     0
175
     0
176
     0
177
     0
178
     0
  0
DIMSTYLE
  2
ANNOTATIVE
 70
     0
  3

  4

  5

  6

  7

 40
1.0
 41
0.18
 42
0.0625
 43
0.38
 44
0.18
 45
0.0
 46
0.0
 47
0.0
 48
0.0
140
0.18
141
0.09
142
0.0
143
25.399999999999999
144
1.0
145
0.0
146
1.0
147
0.09
 71
     0
 72
     0
 73
     1
 74
     1
 75
     0
 76
     0
 77
     0
 78
     0
170
     0
171
     2
172
     0
173
     0
174
     0
175
     0
176
     0
177
     0
178
     0
  0
DIMSTYLE
  2
ANNOTATIVA
 70
     0
  3

  4

  5

  6

  7

 40
0.0
 41
0.18
 42
0.0625
 43
0.38
 44
0.18
 45
0.0
 46
0.0
 47
0.0
 48
0.0
140
0.18
141
0.09
142
0.0
143
25.399999999999999
144
1.0
145
0.0
146
1.0
147
0.09
 71
     0
 72
     0
 73
     1
 74
     1
 75
     0
 76
     0
 77
     0
 78
     0
170
     0
171
     2
172
     0
173
     0
174
     0
175
     0
176
     0
177
     0
178
     0
  0
DIMSTYLE
  2
ISO-25
 70
     0
  3

  4

  5

  6

  7

 40
1.0
 41
2.5
 42
0.625
 43
3.75
 44
1.25
 45
0.0
 46
0.0
 47
0.0
 48
0.0
140
2.5
141
2.5
142
0.0
143
0.0393700787
144
1.0
145
0.0
146
1.0
147
0.625
 71
     0
 72
     0
 73
     0
 74
     0
 75
     0
 76
     0
 77
     1
 78
     8
170
     0
171
     3
172
     1
173
     0
174
     0
175
     0
176
     0
177
     0
178
     0
  0
ENDTAB
  0
ENDSEC
  0
SECTION
  2
BLOCKS
  0
BLOCK
  8
0
  2
$MODEL_SPACE
 70
     0
 10
0.0
 20
0.0
 30
0.0
  3
$MODEL_SPACE
  1

  0
ENDBLK
  5
528
  8
0
  0
BLOCK
 67
     1
  8
0
  2
$PAPER_SPACE
 70
     0
 10
0.0
 20
0.0
 30
0.0
  3
$PAPER_SPACE
  1

  0
ENDBLK
  5
524
 67
     1
  8
0
  0
ENDSEC
  0
SECTION
  2
ENTITIES
  0
LINE
  5
46C
  8
0
 10
1178.790342364287
 20
1527.897134620071
 30
0.0
 11
1178.7903423642799
 21
1504.8971346200719
 31
0.0
  0
LINE
  5
46D
  8
0
 10
1178.790342364287
 20
1500.8971346200731
 30
0.0
 11
1178.790342364287
 21
1455.794874860142
 31
0.0
  0
LINE
  5
46E
  8
0
 10
1178.790342364287
 20
938.43993581953305
 30
0.0
 11
1178.790342364287
 21
886.34831799104302
 31
0.0
  0
LINE
  5
46F
  8
0
 10
1225.647664730235
 20
913.95082328071385
 30
0.0
 11
1181.1195219767919
 21
939.12321736948149
 31
0.0
  0
LINE
  5
470
  8
0
 10
1221.647664730235
 20
1404.0927239373859
 30
0.0
 11
1225.647664730235
 21
1404.092723937388
 31
0.0
  0
LINE
  5
471
  8
0
 10
1221.647664730235
 20
1429.526463374526
 30
0.0
 11
1221.647664730235
 21
1404.09272393739
 31
0.0
  0
LINE
  5
472
  8
0
 10
1221.647664730235
 20
1429.526463374526
 30
0.0
 11
1180.891517080317
 21
1452.6050624827751
 31
0.0
  0
LINE
  5
473
  8
0
 10
1225.647664730235
 20
1404.092723937388
 30
0.0
 11
1225.647664730235
 21
913.95082328071385
 31
0.0
  0
LINE
  5
474
  8
0
 10
1178.790342364287
 20
1455.794874860142
 30
0.0
 11
1170.790342364287
 21
1453.794874860142
 31
0.0
  0
LINE
  5
475
  8
0
 10
1170.790342364287
 20
1453.794874860142
 30
0.0
 11
1176.7651393665451
 21
1452.301175609578
 31
0.0
  0
LINE
  5
476
  8
0
 10
1178.790342364287
 20
1504.8971346200731
 30
0.0
 11
1170.790342364287
 21
1502.8971346200731
 31
0.0
  0
LINE
  5
477
  8
0
 10
1170.790342364287
 20
1502.8971346200731
 30
0.0
 11
1178.790342364287
 21
1500.8971346200731
 31
0.0
  0
LINE
  5
478
  8
0
 10
1177.1903423642809
 20
942.03993581952909
 30
0.0
 11
1170.790342364294
 21
940.43993581953225
 31
0.0
  0
LINE
  5
479
  8
0
 10
1170.790342364294
 20
940.43993581953225
 30
0.0
 11
1178.790342364294
 21
938.43993581953237
 31
0.0
  0
LINE
  5
47A
  8
0
 10
1178.790342364294
 20
886.34831799104438
 30
0.0
 11
1170.790342364294
 21
884.34831799104438
 31
0.0
  0
LINE
  5
47B
  8
0
 10
1170.790342364294
 20
884.34831799104438
 30
0.0
 11
1178.790342364294
 21
882.3483179910445
 31
0.0
  0
LINE
  5
47C
  8
0
 10
1181.1195219767919
 20
939.12321736947945
 30
0.0
 11
1178.7903423642799
 21
948.43993581953225
 31
0.0
  0
LINE
  5
47D
  8
0
 10
1178.7903423642799
 20
948.43993581953225
 30
0.0
 11
1177.1903423642741
 21
942.03993581952864
 31
0.0
  0
LINE
  5
47E
  8
0
 10
1180.891517080317
 20
1452.605062482774
 30
0.0
 11
1178.7903423642799
 21
1444.20036361865
 31
0.0
  0
LINE
  5
47F
  8
0
 10
1178.7903423642799
 20
1444.20036361865
 30
0.0
 11
1176.7651393665451
 21
1452.3011756095759
 31
0.0
  0
LINE
  5
480
  8
0
 10
-61.209657635705298
 20
1527.897134620071
 30
0.0
 11
-61.209657635705298
 21
1504.8971346200719
 31
0.0
  0
LINE
  5
481
  8
0
 10
-61.209657635705298
 20
1500.8971346200731
 30
0.0
 11
-61.209657635705298
 21
1455.794874860142
 31
0.0
  0
LINE
  5
482
  8
0
 10
-61.20965763571256
 20
938.43993581953305
 30
0.0
 11
-61.20965763571256
 21
886.34831799104245
 31
0.0
  0
LINE
  5
483
  8
0
 10
-61.20965763571256
 20
882.34831799104495
 30
0.0
 11
-61.209657635705298
 21
857.01517013284945
 31
0.0
  0
LINE
  5
484
  8
0
 10
-108.0669800016603
 20
913.9508232807143
 30
0.0
 11
-63.538837248217533
 21
939.12321736947865
 31
0.0
  0
LINE
  5
485
  8
0
 10
-104.0669800016603
 20
1404.0927239373859
 30
0.0
 11
-108.0669800016603
 21
1404.092723937388
 31
0.0
  0
LINE
  5
486
  8
0
 10
-104.0669800016603
 20
1429.5264633745271
 30
0.0
 11
-104.0669800016603
 21
1404.09272393739
 31
0.0
  0
LINE
  5
487
  8
0
 10
-104.0669800016603
 20
1429.5264633745271
 30
0.0
 11
-63.310832351735371
 21
1452.6050624827751
 31
0.0
  0
LINE
  5
488
  8
0
 10
-108.0669800016603
 20
1404.092723937388
 30
0.0
 11
-108.0669800016603
 21
913.9508232807143
 31
0.0
  0
LINE
  5
489
  8
0
 10
-61.209657635705298
 20
1455.794874860142
 30
0.0
 11
-53.209657635705298
 21
1453.794874860142
 31
0.0
  0
LINE
  5
48A
  8
0
 10
-53.209657635705298
 20
1453.794874860142
 30
0.0
 11
-59.184454637963412
 21
1452.301175609578
 31
0.0
  0
LINE
  5
48B
  8
0
 10
-61.209657635705298
 20
1504.8971346200731
 30
0.0
 11
-53.209657635705298
 21
1502.8971346200731
 31
0.0
  0
LINE
  5
48C
  8
0
 10
-53.209657635705298
 20
1502.8971346200731
 30
0.0
 11
-61.209657635705298
 21
1500.8971346200731
 31
0.0
  0
LINE
  5
48D
  8
0
 10
-59.60965763569947
 20
942.03993581952909
 30
0.0
 11
-53.209657635712567
 21
940.43993581953225
 31
0.0
  0
LINE
  5
48E
  8
0
 10
-53.209657635712567
 20
940.43993581953225
 30
0.0
 11
-61.20965763571256
 21
938.43993581953237
 31
0.0
  0
LINE
  5
48F
  8
0
 10
-61.20965763571256
 20
886.34831799104438
 30
0.0
 11
-53.209657635712567
 21
884.34831799104438
 31
0.0
  0
LINE
  5
490
  8
0
 10
-53.209657635712567
 20
884.34831799104438
 30
0.0
 11
-61.20965763571256
 21
882.3483179910445
 31
0.0
  0
LINE
  5
491
  8
0
 10
-63.538837248217533
 20
939.12321736947945
 30
0.0
 11
-61.209657635705298
 21
948.43993581953225
 31
0.0
  0
LINE
  5
492
  8
0
 10
-61.209657635705298
 20
948.43993581953225
 30
0.0
 11
-59.60965763569947
 21
942.03993581952864
 31
0.0
  0
LINE
  5
493
  8
0
 10
-63.310832351735371
 20
1452.605062482774
 30
0.0
 11
-61.209657635705298
 21
1444.20036361865
 31
0.0
  0
LINE
  5
494
  8
0
 10
-61.209657635705298
 20
1444.20036361865
 30
0.0
 11
-59.184454637963412
 21
1452.3011756095759
 31
0.0
  0
LINE
  5
495
  8
0
 10
1178.790342364287
 20
882.34831799104552
 30
0.0
 11
1178.790342364287
 21
857.01517013284945
 31
0.0
  0
LINE
  5
496
  8
0
 10
-61.209657635705298
 20
1527.897134620071
 30
0.0
 11
1178.790342364287
 21
1527.897134619679
 31
0.0
  0
LINE
  5
497
  8
0
 10
-61.209657635705298
 20
857.01517013284945
 30
0.0
 11
1178.790342364287
 21
857.01517013284945
 31
0.0
  0
ENDSEC
  0
EOF
