  0
SECTION
  2
HEADER
  9
$ACADVER
  1
AC1009
  9
$DWGCODEPAGE
  3
ansi_1252
  9
$INSBASE
 10
0.0
 20
0.0
 30
0.0
  9
$EXTMIN
 10
-1702.8974041763
 20
-6509.5461010924
 30
0.0
  9
$EXTMAX
 10
-1178.8795475935
 20
-2222.6397853917
 30
0.0
  9
$LIMMIN
 10
0.0
 20
0.0
  9
$LIMMAX
 10
420.0
 20
297.0
  9
$ORTHOMODE
 70
     1
  9
$REGENMODE
 70
     1
  9
$FILLMODE
 70
     1
  9
$QTEXTMODE
 70
     0
  9
$MIRRTEXT
 70
     1
  9
$DRAGMODE
 70
     2
  9
$LTSCALE
 40
1.0
  9
$OSMODE
 70
  1023
  9
$ATTMODE
 70
     1
  9
$TEXTSIZE
 40
3.5
  9
$TRACEWID
 40
1.0
  9
$TEXTSTYLE
  7
STANDARD
  9
$CLAYER
  8
0
  9
$CELTYPE
  6
BYLAYER
  9
$CECOLOR
 62
   256
  9
$DIMSCALE
 40
1.0
  9
$DIMASZ
 40
6.0
  9
$DIMEXO
 40
1.0
  9
$DIMDLI
 40
3.75
  9
$DIMRND
 40
0.0
  9
$DIMDLE
 40
0.0
  9
$DIMEXE
 40
1.0
  9
$DIMTP
 40
0.0
  9
$DIMTM
 40
0.0
  9
$DIMTXT
 40
3.5
  9
$DIMCEN
 40
2.5
  9
$DIMTSZ
 40
0.0
  9
$DIMTOL
 70
     0
  9
$DIMLIM
 70
     0
  9
$DIMTIH
 70
     1
  9
$DIMTOH
 70
     1
  9
$DIMSE1
 70
     0
  9
$DIMSE2
 70
     0
  9
$DIMTAD
 70
     1
  9
$DIMZIN
 70
     0
  9
$DIMBLK
  1

  9
$DIMASO
 70
     1
  9
$DIMSHO
 70
     1
  9
$DIMPOST
  1

  9
$DIMAPOST
  1

  9
$DIMALT
 70
     0
  9
$DIMALTD
 70
     3
  9
$DIMALTF
 40
0.0393700787
  9
$DIMLFAC
 40
1.0
  9
$DIMTOFL
 70
     1
  9
$DIMTVP
 40
0.0
  9
$DIMTIX
 70
     0
  9
$DIMSOXD
 70
     0
  9
$DIMSAH
 70
     0
  9
$DIMBLK1
  1

  9
$DIMBLK2
  1

  9
$DIMSTYLE
  2
ISO-25
  9
$DIMCLRD
 70
     0
  9
$DIMCLRE
 70
     0
  9
$DIMCLRT
 70
     0
  9
$DIMTFAC
 40
1.0
  9
$DIMGAP
 40
1.524
  9
$LUNITS
 70
     2
  9
$LUPREC
 70
     2
  9
$SKETCHINC
 40
1.0
  9
$FILLETRAD
 40
5.0
  9
$AUNITS
 70
     0
  9
$AUPREC
 70
     2
  9
$MENU
  1
.
  9
$ELEVATION
 40
0.0
  9
$PELEVATION
 40
0.0
  9
$THICKNESS
 40
0.0
  9
$LIMCHECK
 70
     0
  9
$CHAMFERA
 40
0.0
  9
$CHAMFERB
 40
0.0
  9
$SKPOLY
 70
     0
  9
$TDCREATE
 40
2456827.49411816
  9
$TDUPDATE
 40
2456827.665681609
  9
$TDINDWG
 40
0.0332121412
  9
$TDUSRTIMER
 40
2456827.582133854
  9
$USRTIMER
 70
     1
  9
$ANGBASE
 50
0.0
  9
$ANGDIR
 70
     0
  9
$PDMODE
 70
     0
  9
$PDSIZE
 40
-1.0
  9
$PLINEWID
 40
0.0
  9
$COORDS
 70
     1
  9
$SPLFRAME
 70
     0
  9
$SPLINETYPE
 70
     6
  9
$SPLINESEGS
 70
     8
  9
$ATTDIA
 70
     0
  9
$ATTREQ
 70
     1
  9
$HANDLING
 70
     1
  9
$HANDSEED
  5
10C
  9
$SURFTAB1
 70
     6
  9
$SURFTAB2
 70
     6
  9
$SURFTYPE
 70
     6
  9
$SURFU
 70
     6
  9
$SURFV
 70
     6
  9
$UCSNAME
  2

  9
$UCSORG
 10
0.0
 20
0.0
 30
0.0
  9
$UCSXDIR
 10
1.0
 20
0.0
 30
0.0
  9
$UCSYDIR
 10
0.0
 20
1.0
 30
0.0
  9
$PUCSNAME
  2

  9
$PUCSORG
 10
0.0
 20
0.0
 30
0.0
  9
$PUCSXDIR
 10
1.0
 20
0.0
 30
0.0
  9
$PUCSYDIR
 10
0.0
 20
1.0
 30
0.0
  9
$USERI1
 70
     0
  9
$USERI2
 70
     0
  9
$USERI3
 70
     0
  9
$USERI4
 70
     0
  9
$USERI5
 70
     0
  9
$USERR1
 40
0.0
  9
$USERR2
 40
0.0
  9
$USERR3
 40
0.0
  9
$USERR4
 40
0.0
  9
$USERR5
 40
0.0
  9
$WORLDVIEW
 70
     1
  9
$SHADEDGE
 70
     3
  9
$SHADEDIF
 70
    70
  9
$TILEMODE
 70
     1
  9
$MAXACTVP
 70
    64
  9
$PLIMCHECK
 70
     0
  9
$PEXTMIN
 10
1.000000000000000E+20
 20
1.000000000000000E+20
 30
1.000000000000000E+20
  9
$PEXTMAX
 10
-1.000000000000000E+20
 20
-1.000000000000000E+20
 30
-1.000000000000000E+20
  9
$PLIMMIN
 10
0.0
 20
0.0
  9
$PLIMMAX
 10
0.0
 20
0.0
  9
$UNITMODE
 70
     0
  9
$VISRETAIN
 70
     1
  9
$PLINEGEN
 70
     0
  9
$PSLTSCALE
 70
     1
  0
ENDSEC
  0
SECTION
  2
TABLES
  0
TABLE
  2
VPORT
 70
     1
  0
VPORT
  2
*ACTIVE
 70
     0
 10
0.0
 20
0.0
 11
1.0
 21
1.0
 12
-3049.033331131427
 22
-3577.977185652408
 13
0.0
 23
0.0
 14
10.0
 24
10.0
 15
10.0
 25
10.0
 16
0.0
 26
0.0
 36
1.0
 17
0.0
 27
0.0
 37
0.0
 40
13344.25183720302
 41
2.22037422037422
 42
50.0
 43
0.0
 44
0.0
 50
0.0
 51
0.0
 71
    16
 72
   100
 73
     1
 74
     3
 75
     0
 76
     0
 77
     0
 78
     0
  0
ENDTAB
  0
TABLE
  2
LTYPE
 70
     6
  0
LTYPE
  2
CONTINUOUS
 70
     0
  3
Solid line
 72
    65
 73
     0
 40
0.0
  0
LTYPE
  2
HIDDEN
 70
     0
  3
Hidden __ __ __ __ __ __ __ __ __ __ __ __ __ __
 72
    65
 73
     2
 40
1.905
 49
1.27
 49
-0.635
  0
LTYPE
  2
PHANTOM
 70
     0
  3
Phantom ______  __  __  ______  __  __  ______
 72
    65
 73
     6
 40
12.7
 49
6.35
 49
-1.27
 49
1.27
 49
-1.27
 49
1.27
 49
-1.27
  0
LTYPE
  2
CENTER
 70
     0
  3
Center ____ _ ____ _ ____ _ ____ _ ____ _ ____
 72
    65
 73
     4
 40
10.16
 49
6.35
 49
-1.27
 49
1.27
 49
-1.27
  0
LTYPE
  2
CENTERX2
 70
     0
  3
Center (2x) ________  __  ________  __  _____
 72
    65
 73
     4
 40
20.32
 49
12.7
 49
-2.54
 49
2.54
 49
-2.54
  0
LTYPE
  2
DOT2
 70
     0
  3
Dot (.5x) ........................................
 72
    65
 73
     2
 40
0.635
 49
0.0
 49
-0.635
  0
ENDTAB
  0
TABLE
  2
LAYER
 70
     1
  0
LAYER
  2
0
 70
     0
 62
     7
  6
CONTINUOUS
  0
ENDTAB
  0
TABLE
  2
STYLE
 70
     1
  0
STYLE
  2
STANDARD
 70
     0
 40
0.0
 41
1.0
 50
0.0
 71
     0
 42
3.5
  3
txt
  4

  0
ENDTAB
  0
TABLE
  2
VIEW
 70
     0
  0
ENDTAB
  0
TABLE
  2
UCS
 70
     0
  0
ENDTAB
  0
TABLE
  2
APPID
 70
     1
  0
APPID
  2
ACAD
 70
     0
  0
ENDTAB
  0
TABLE
  2
DIMSTYLE
 70
     1
  0
DIMSTYLE
  2
ISO-25
 70
     0
  3

  4

  5

  6

  7

 40
1.0
 41
2.5
 42
0.625
 43
3.75
 44
1.25
 45
0.0
 46
0.0
 47
0.0
 48
0.0
140
2.5
141
2.5
142
0.0
143
0.0393700787
144
1.0
145
0.0
146
1.0
147
0.625
 71
     0
 72
     0
 73
     0
 74
     0
 75
     0
 76
     0
 77
     1
 78
     8
170
     0
171
     3
172
     1
173
     0
174
     0
175
     0
176
     0
177
     0
178
     0
  0
ENDTAB
  0
ENDSEC
  0
SECTION
  2
BLOCKS
  0
BLOCK
  8
0
  2
$MODEL_SPACE
 70
     0
 10
0.0
 20
0.0
 30
0.0
  3
$MODEL_SPACE
  1

  0
ENDBLK
  5
21
  8
0
  0
BLOCK
 67
     1
  8
0
  2
$PAPER_SPACE
 70
     0
 10
0.0
 20
0.0
 30
0.0
  3
$PAPER_SPACE
  1

  0
ENDBLK
  5
1D
 67
     1
  8
0
  0
ENDSEC
  0
SECTION
  2
ENTITIES
  0
LINE
  5
6F
  8
0
  6
CENTERX2
 62
     7
 10
-1257.7349714797
 20
-3653.3739799695
 30
0.0
 11
-1350.154508041331
 21
-6127.821212856212
 31
0.0
  0
LINE
  5
70
  8
0
  6
CENTERX2
 62
     7
 10
-1357.135131156
 20
-3659.4030110067
 30
0.0
 11
-1357.135131156
 21
-6128.307687810955
 31
0.0
  0
LINE
  5
71
  8
0
  6
CENTERX2
 62
     7
 10
-1203.8291756208
 20
-2222.7625566811
 30
0.0
 11
-1247.8370346423
 21
-3389.2226994926
 31
0.0
  0
LINE
  5
72
  8
0
  6
CENTERX2
 62
     7
 10
-1357.135131156
 20
-2230.998683651
 30
0.0
 11
-1357.135131156
 21
-3395.0435840278
 31
0.0
  0
LINE
  5
73
  8
0
  6
CENTERX2
 62
     7
 10
-1672.6599269131
 20
-6490.6304687263
 30
0.0
 11
-1672.6599269131
 21
-2290.0679992691
 31
0.0
  0
LINE
  5
74
  8
0
  6
CENTERX2
 62
     7
 10
-1577.3108460304
 20
-6452.7922875466
 30
0.0
 11
-1577.3108460304
 21
-2262.7164550235
 31
0.0
  0
LINE
  5
98
  8
0
  6
CONTINUOUS
 62
     7
 10
-1355.135131156
 20
-2230.88365831221
 30
0.0
 11
-1205.827296739775
 21
-2222.689335172333
 31
0.0
  0
LINE
  5
9A
  8
0
  6
CONTINUOUS
 62
     7
 10
-1201.84312647162
 20
-2223.170048360384
 30
0.0
 11
-1178.8795475935
 21
-2230.5099976861
 31
0.0
  0
LINE
  5
9B
  8
0
  6
CONTINUOUS
 62
     7
 10
-1178.8795475935
 20
-2230.5099976861
 30
0.0
 11
-1222.691725906702
 21
-3391.783481750222
 31
0.0
  0
LINE
  5
A7
  8
0
  6
CONTINUOUS
 62
     7
 10
-1233.02110625653
 20
-3667.430308877803
 30
0.0
 11
-1325.278149080436
 21
-6137.524022741566
 31
0.0
  0
LINE
  5
AE
  8
0
  6
CONTINUOUS
 62
     7
 10
-1472.79685220843
 20
-6431.945410671347
 30
0.0
 11
-1575.3108460304
 21
-6452.364847507813
 31
0.0
  0
LINE
  5
B0
  8
0
  6
CONTINUOUS
 62
     7
 10
-1579.275310223832
 20
-6453.493285418976
 30
0.0
 11
-1670.868136610489
 21
-6489.870076723068
 31
0.0
  0
LINE
  5
B2
  8
0
  6
CONTINUOUS
 62
     7
 10
-1674.590344414206
 20
-6491.562892997415
 30
0.0
 11
-1700.8974041763
 21
-6508.275519954965
 31
0.0
  0
LINE
  5
B3
  8
0
  6
CENTERX2
 62
     7
 10
-1702.8974041763
 20
-6509.5461010924
 30
0.0
 11
-1702.8974041763
 21
-2303.7412715952
 31
0.0
  0
LINE
  5
B4
  8
0
  6
CONTINUOUS
 62
     7
 10
-1700.673536012172
 20
-2302.720019302307
 30
0.0
 11
-1674.558925680462
 21
-2290.727579233485
 31
0.0
  0
LINE
  5
B6
  8
0
  6
CONTINUOUS
 62
     7
 10
-1670.528470057364
 20
-2289.420831513215
 30
0.0
 11
-1579.251281835269
 21
-2263.216277064378
 31
0.0
  0
LINE
  5
B8
  8
0
  6
CONTINUOUS
 62
     7
 10
-1575.26414963173
 20
-2262.412400863668
 30
0.0
 11
-1359.135131156
 21
-2231.268859638439
 31
0.0
  0
LINE
  5
DB
  8
0
  6
CONTINUOUS
 62
     7
 10
-1722.8974041763
 20
-6509.5461010924
 30
0.0
 11
-1722.8974041763
 21
-2303.7412715952
 31
0.0
  0
LINE
  5
DC
  8
0
 10
-1704.967480778944
 20
-2303.7412715952
 30
0.0
 11
-1722.8974041763
 21
-2303.7412715952
 31
0.0
  0
LINE
  5
DD
  8
0
 10
-1704.8974041763
 20
-6509.5461010924
 30
0.0
 11
-1722.8974041763
 21
-6509.5461010924
 31
0.0
  0
LINE
  5
DE
  8
0
  6
CONTINUOUS
 62
     7
 10
-1472.79685220843
 20
-6431.945410671347
 30
0.0
 11
-1465.059350515105
 21
-6147.967992682624
 31
0.0
  0
LINE
  5
DF
  8
0
  6
CONTINUOUS
 62
     7
 10
-1359.208189922282
 20
-6128.599922876085
 30
0.0
 11
-1465.059350515105
 21
-6147.967992682624
 31
0.0
  0
LINE
  5
E1
  8
0
  6
CONTINUOUS
 62
     7
 10
-1325.278149080436
 20
-6137.524022741567
 30
0.0
 11
-1348.08868356179
 21
-6128.307336698749
 31
0.0
  0
LINE
  5
E2
  8
0
  6
CONTINUOUS
 62
     7
 10
-1386.090351769706
 20
-3394.146283041372
 30
0.0
 11
-1357.772642350049
 21
-3390.06578632259
 31
0.0
  0
LINE
  5
E3
  8
0
  6
CONTINUOUS
 62
     7
 10
-1397.626537899619
 20
-3665.086981595192
 30
0.0
 11
-1390.375377412219
 21
-3398.958983923691
 31
0.0
  0
LINE
  5
E4
  8
0
  6
CONTINUOUS
 62
     7
 10
-1391.81651770349
 20
-3670.156811091375
 30
0.0
 11
-1356.714379134087
 21
-3664.380442807148
 31
0.0
  0
LINE
  5
E5
  8
0
  6
CONTINUOUS
 62
     7
 10
-1356.714379134087
 20
-3664.380442807148
 30
0.0
 11
-1258.339377827927
 21
-3658.214753630898
 31
0.0
  0
LINE
  5
E6
  8
0
  6
CONTINUOUS
 62
     7
 10
-1258.339377827927
 20
-3658.214753630898
 30
0.0
 11
-1233.02110625653
 21
-3667.430308877803
 31
0.0
  0
LINE
  5
E7
  8
0
  6
CONTINUOUS
 62
     7
 10
-1357.772642350049
 20
-3390.06578632259
 30
0.0
 11
-1247.07307363752
 21
-3383.990364754638
 31
0.0
  0
LINE
  5
E8
  8
0
  6
CONTINUOUS
 62
     7
 10
-1247.07307363752
 20
-3383.990364754638
 30
0.0
 11
-1222.691725906702
 21
-3391.783481750222
 31
0.0
  0
ARC
  5
E9
  8
0
  6
CONTINUOUS
 62
     7
 10
-1392.6283928495
 20
-3665.2231655075
 30
0.0
 40
5.0
 50
178.4392543056527
 51
279.3447783811379
  0
ARC
  5
EA
  8
0
  6
CONTINUOUS
 62
     7
 10
-1385.3772323621
 20
-3399.095167836
 30
0.0
 40
5.000000000000001
 50
98.19970754123945
 51
178.4392543056526
  0
LINE
  5
EE
  8
0
 10
-1205.827753759115
 20
-2222.687154923486
 30
0.0
 11
-1204.13160844523
 21
-2230.778757501124
 31
0.0
  0
LINE
  5
EF
  8
0
 10
-1204.13160844523
 20
-2230.778757501124
 30
0.0
 11
-1201.84312647162
 21
-2223.170048360384
 31
0.0
  0
LINE
  5
F3
  8
0
 10
-1359.135131156
 20
-2231.268859638439
 30
0.0
 11
-1357.135131156
 21
-2238.979735372848
 31
0.0
  0
LINE
  5
F4
  8
0
 10
-1357.135131156
 20
-2238.979735372848
 30
0.0
 11
-1355.135131156
 21
-2230.88365831221
 31
0.0
  0
LINE
  5
F5
  8
0
 10
-1579.251281835269
 20
-2263.216277064378
 30
0.0
 11
-1577.3108460304
 21
-2270.697506745348
 31
0.0
  0
LINE
  5
F6
  8
0
 10
-1577.3108460304
 20
-2270.697506745348
 30
0.0
 11
-1575.26414963173
 21
-2262.412400863668
 31
0.0
  0
LINE
  5
F7
  8
0
 10
-1674.558925680462
 20
-2290.727579233485
 30
0.0
 11
-1672.6599269131
 21
-2298.049050990948
 31
0.0
  0
LINE
  5
F8
  8
0
 10
-1672.6599269131
 20
-2298.049050990948
 30
0.0
 11
-1670.528470057364
 21
-2289.420831513215
 31
0.0
  0
LINE
  5
F9
  8
0
 10
-1704.967480778944
 20
-2303.7412715952
 30
0.0
 11
-1702.8974041763
 21
-2311.722323317048
 31
0.0
  0
LINE
  5
FA
  8
0
 10
-1702.8974041763
 20
-2311.722323317048
 30
0.0
 11
-1700.673536012172
 21
-2302.720019302307
 31
0.0
  0
LINE
  5
FE
  8
0
 10
-1704.8974041763
 20
-6509.5461010924
 30
0.0
 11
-1702.8974041763
 21
-6501.5461010924
 31
0.0
  0
LINE
  5
FF
  8
0
 10
-1702.8974041763
 20
-6501.5461010924
 30
0.0
 11
-1700.8974041763
 21
-6508.275519954965
 31
0.0
  0
LINE
  5
102
  8
0
 10
-1674.590344414206
 20
-6491.562892997415
 30
0.0
 11
-1672.6599269131
 21
-6483.841222992991
 31
0.0
  0
LINE
  5
103
  8
0
 10
-1672.6599269131
 20
-6483.841222992991
 30
0.0
 11
-1670.868136610489
 21
-6489.870076723068
 31
0.0
  0
LINE
  5
104
  8
0
 10
-1579.275310223832
 20
-6453.493285418976
 30
0.0
 11
-1577.3108460304
 21
-6445.635428645248
 31
0.0
  0
LINE
  5
105
  8
0
 10
-1577.3108460304
 20
-6445.635428645248
 30
0.0
 11
-1575.3108460304
 21
-6452.364847507813
 31
0.0
  0
LINE
  5
106
  8
0
 10
-1359.208189922282
 20
-6128.599922876085
 30
0.0
 11
-1357.135131156
 21
-6120.307687810955
 31
0.0
  0
LINE
  5
107
  8
0
 10
-1357.135131156
 20
-6120.307687810955
 30
0.0
 11
-1355.259862397615
 21
-6128.177001585759
 31
0.0
  0
LINE
  5
108
  8
0
 10
-1351.76978265621
 20
-6127.933780263485
 30
0.0
 11
-1349.856127730518
 21
-6119.832357232086
 31
0.0
  0
LINE
  5
109
  8
0
 10
-1349.856127730518
 20
-6119.832357232086
 30
0.0
 11
-1348.08868356179
 21
-6128.307336698749
 31
0.0
  0
LINE
  5
10B
  8
0
  6
CONTINUOUS
 62
     7
 10
-1351.76978265621
 20
-6127.933780263485
 30
0.0
 11
-1355.259862397615
 21
-6128.17700158576
 31
0.0
  0
ENDSEC
  0
EOF
