  0
SECTION
  2
HEADER
  9
$ACADVER
  1
AC1009
  9
$DWGCODEPAGE
  3
ansi_1252
  9
$INSBASE
 10
0.0
 20
0.0
 30
0.0
  9
$EXTMIN
 10
-980.8735374691
 20
6104.8436155262
 30
0.0
  9
$EXTMAX
 10
980.9395816161
 20
6725.5730451338
 30
0.0
  9
$LIMMIN
 10
0.0
 20
0.0
  9
$LIMMAX
 10
420.0
 20
297.0
  9
$ORTHOMODE
 70
     0
  9
$REGENMODE
 70
     1
  9
$FILLMODE
 70
     1
  9
$QTEXTMODE
 70
     0
  9
$MIRRTEXT
 70
     1
  9
$DRAGMODE
 70
     2
  9
$LTSCALE
 40
1.0
  9
$OSMODE
 70
  1023
  9
$ATTMODE
 70
     1
  9
$TEXTSIZE
 40
3.5
  9
$TRACEWID
 40
1.0
  9
$TEXTSTYLE
  7
STANDARD
  9
$CLAYER
  8
0
  9
$CELTYPE
  6
BYLAYER
  9
$CECOLOR
 62
   256
  9
$DIMSCALE
 40
1.0
  9
$DIMASZ
 40
6.0
  9
$DIMEXO
 40
1.0
  9
$DIMDLI
 40
3.75
  9
$DIMRND
 40
0.0
  9
$DIMDLE
 40
0.0
  9
$DIMEXE
 40
1.0
  9
$DIMTP
 40
0.0
  9
$DIMTM
 40
0.0
  9
$DIMTXT
 40
3.5
  9
$DIMCEN
 40
2.5
  9
$DIMTSZ
 40
0.0
  9
$DIMTOL
 70
     0
  9
$DIMLIM
 70
     0
  9
$DIMTIH
 70
     1
  9
$DIMTOH
 70
     1
  9
$DIMSE1
 70
     0
  9
$DIMSE2
 70
     0
  9
$DIMTAD
 70
     1
  9
$DIMZIN
 70
     0
  9
$DIMBLK
  1

  9
$DIMASO
 70
     1
  9
$DIMSHO
 70
     1
  9
$DIMPOST
  1

  9
$DIMAPOST
  1

  9
$DIMALT
 70
     0
  9
$DIMALTD
 70
     3
  9
$DIMALTF
 40
0.0393700787
  9
$DIMLFAC
 40
1.0
  9
$DIMTOFL
 70
     1
  9
$DIMTVP
 40
0.0
  9
$DIMTIX
 70
     0
  9
$DIMSOXD
 70
     0
  9
$DIMSAH
 70
     0
  9
$DIMBLK1
  1

  9
$DIMBLK2
  1

  9
$DIMSTYLE
  2
ISO-25
  9
$DIMCLRD
 70
     0
  9
$DIMCLRE
 70
     0
  9
$DIMCLRT
 70
     0
  9
$DIMTFAC
 40
1.0
  9
$DIMGAP
 40
1.524
  9
$LUNITS
 70
     2
  9
$LUPREC
 70
     2
  9
$SKETCHINC
 40
1.0
  9
$FILLETRAD
 40
10.0
  9
$AUNITS
 70
     0
  9
$AUPREC
 70
     2
  9
$MENU
  1
.
  9
$ELEVATION
 40
0.0
  9
$PELEVATION
 40
0.0
  9
$THICKNESS
 40
0.0
  9
$LIMCHECK
 70
     0
  9
$CHAMFERA
 40
0.0
  9
$CHAMFERB
 40
0.0
  9
$SKPOLY
 70
     0
  9
$TDCREATE
 40
2456811.633120301
  9
$TDUPDATE
 40
2456812.459511354
  9
$TDINDWG
 40
0.0062219444
  9
$TDUSRTIMER
 40
2456812.369956238
  9
$USRTIMER
 70
     1
  9
$ANGBASE
 50
0.0
  9
$ANGDIR
 70
     0
  9
$PDMODE
 70
     0
  9
$PDSIZE
 40
-1.0
  9
$PLINEWID
 40
0.0
  9
$COORDS
 70
     1
  9
$SPLFRAME
 70
     0
  9
$SPLINETYPE
 70
     6
  9
$SPLINESEGS
 70
     8
  9
$ATTDIA
 70
     0
  9
$ATTREQ
 70
     1
  9
$HANDLING
 70
     1
  9
$HANDSEED
  5
F8
  9
$SURFTAB1
 70
     6
  9
$SURFTAB2
 70
     6
  9
$SURFTYPE
 70
     6
  9
$SURFU
 70
     6
  9
$SURFV
 70
     6
  9
$UCSNAME
  2

  9
$UCSORG
 10
0.0
 20
0.0
 30
0.0
  9
$UCSXDIR
 10
1.0
 20
0.0
 30
0.0
  9
$UCSYDIR
 10
0.0
 20
1.0
 30
0.0
  9
$PUCSNAME
  2

  9
$PUCSORG
 10
0.0
 20
0.0
 30
0.0
  9
$PUCSXDIR
 10
1.0
 20
0.0
 30
0.0
  9
$PUCSYDIR
 10
0.0
 20
1.0
 30
0.0
  9
$USERI1
 70
     0
  9
$USERI2
 70
     0
  9
$USERI3
 70
     0
  9
$USERI4
 70
     0
  9
$USERI5
 70
     0
  9
$USERR1
 40
0.0
  9
$USERR2
 40
0.0
  9
$USERR3
 40
0.0
  9
$USERR4
 40
0.0
  9
$USERR5
 40
0.0
  9
$WORLDVIEW
 70
     1
  9
$SHADEDGE
 70
     3
  9
$SHADEDIF
 70
    70
  9
$TILEMODE
 70
     1
  9
$MAXACTVP
 70
    64
  9
$PLIMCHECK
 70
     0
  9
$PEXTMIN
 10
1.000000000000000E+20
 20
1.000000000000000E+20
 30
1.000000000000000E+20
  9
$PEXTMAX
 10
-1.000000000000000E+20
 20
-1.000000000000000E+20
 30
-1.000000000000000E+20
  9
$PLIMMIN
 10
0.0
 20
0.0
  9
$PLIMMAX
 10
0.0
 20
0.0
  9
$UNITMODE
 70
     0
  9
$VISRETAIN
 70
     1
  9
$PLINEGEN
 70
     0
  9
$PSLTSCALE
 70
     1
  0
ENDSEC
  0
SECTION
  2
TABLES
  0
TABLE
  2
VPORT
 70
     1
  0
VPORT
  2
*ACTIVE
 70
     0
 10
0.0
 20
0.0
 11
1.0
 21
1.0
 12
81.53695576364805
 22
5744.339173169896
 13
0.0
 23
0.0
 14
10.0
 24
10.0
 15
10.0
 25
10.0
 16
0.0
 26
0.0
 36
1.0
 17
0.0
 27
0.0
 37
0.0
 40
3822.662393804841
 41
1.996879875195008
 42
50.0
 43
0.0
 44
0.0
 50
0.0
 51
0.0
 71
    16
 72
   100
 73
     1
 74
     3
 75
     0
 76
     0
 77
     0
 78
     0
  0
ENDTAB
  0
TABLE
  2
LTYPE
 70
     6
  0
LTYPE
  2
CONTINUOUS
 70
     0
  3
Solid line
 72
    65
 73
     0
 40
0.0
  0
LTYPE
  2
HIDDEN
 70
     0
  3
Hidden __ __ __ __ __ __ __ __ __ __ __ __ __ __
 72
    65
 73
     2
 40
1.905
 49
1.27
 49
-0.635
  0
LTYPE
  2
PHANTOM
 70
     0
  3
Phantom ______  __  __  ______  __  __  ______
 72
    65
 73
     6
 40
12.7
 49
6.35
 49
-1.27
 49
1.27
 49
-1.27
 49
1.27
 49
-1.27
  0
LTYPE
  2
CENTER
 70
     0
  3
Center ____ _ ____ _ ____ _ ____ _ ____ _ ____
 72
    65
 73
     4
 40
10.16
 49
6.35
 49
-1.27
 49
1.27
 49
-1.27
  0
LTYPE
  2
CENTERX2
 70
     0
  3
Center (2x) ________  __  ________  __  _____
 72
    65
 73
     4
 40
20.32
 49
12.7
 49
-2.54
 49
2.54
 49
-2.54
  0
LTYPE
  2
DOT2
 70
     0
  3
Dot (.5x) ........................................
 72
    65
 73
     2
 40
0.635
 49
0.0
 49
-0.635
  0
ENDTAB
  0
TABLE
  2
LAYER
 70
     1
  0
LAYER
  2
0
 70
     0
 62
     7
  6
CONTINUOUS
  0
ENDTAB
  0
TABLE
  2
STYLE
 70
     1
  0
STYLE
  2
STANDARD
 70
     0
 40
0.0
 41
1.0
 50
0.0
 71
     0
 42
3.5
  3
txt
  4

  0
ENDTAB
  0
TABLE
  2
VIEW
 70
     0
  0
ENDTAB
  0
TABLE
  2
UCS
 70
     0
  0
ENDTAB
  0
TABLE
  2
APPID
 70
     1
  0
APPID
  2
ACAD
 70
     0
  0
ENDTAB
  0
TABLE
  2
DIMSTYLE
 70
     1
  0
DIMSTYLE
  2
ISO-25
 70
     0
  3

  4

  5

  6

  7

 40
1.0
 41
2.5
 42
0.625
 43
3.75
 44
1.25
 45
0.0
 46
0.0
 47
0.0
 48
0.0
140
2.5
141
2.5
142
0.0
143
0.0393700787
144
1.0
145
0.0
146
1.0
147
0.625
 71
     0
 72
     0
 73
     0
 74
     0
 75
     0
 76
     0
 77
     1
 78
     8
170
     0
171
     3
172
     1
173
     0
174
     0
175
     0
176
     0
177
     0
178
     0
  0
ENDTAB
  0
ENDSEC
  0
SECTION
  2
BLOCKS
  0
BLOCK
  8
0
  2
$MODEL_SPACE
 70
     0
 10
0.0
 20
0.0
 30
0.0
  3
$MODEL_SPACE
  1

  0
ENDBLK
  5
21
  8
0
  0
BLOCK
 67
     1
  8
0
  2
$PAPER_SPACE
 70
     0
 10
0.0
 20
0.0
 30
0.0
  3
$PAPER_SPACE
  1

  0
ENDBLK
  5
1D
 67
     1
  8
0
  0
ENDSEC
  0
SECTION
  2
ENTITIES
  0
LINE
  5
99
  8
0
 10
968.2422032313
 20
6271.9975753001
 30
0.0
 11
969.1832441676385
 21
6273.4429153028
 31
0.0
  0
LINE
  5
9A
  8
0
 10
968.2422032313
 20
6271.9975753001
 30
0.0
 11
841.658794213
 21
6104.8436155262
 31
0.0
  0
LINE
  5
9B
  8
0
 10
767.8262711907
 20
6179.921673873
 30
0.0
 11
841.658794213
 21
6104.8436155262
 31
0.0
  0
LINE
  5
9C
  8
0
 10
763.2135577745
 20
6179.921673873
 30
0.0
 11
767.8262711907
 21
6179.921673873
 31
0.0
  0
LINE
  5
9D
  8
0
 10
758.7273634064
 20
6184.483549165
 30
0.0
 11
763.2135577745
 21
6179.921673873
 31
0.0
  0
LINE
  5
9E
  8
0
 10
517.5
 20
6184.483549165
 30
0.0
 11
758.7273634064
 21
6184.483549165
 31
0.0
  0
LINE
  5
9F
  8
0
 10
517.5
 20
6184.483549165
 30
0.0
 11
517.5
 21
6254.2128395391
 31
0.0
  0
LINE
  5
A0
  8
0
 10
517.5
 20
6254.2128395391
 30
0.0
 11
397.5
 21
6254.2128395391
 31
0.0
  0
LINE
  5
A1
  8
0
 10
397.5
 20
6254.2128395391
 30
0.0
 11
397.5
 21
6184.483549165
 31
0.0
  0
LINE
  5
A2
  8
0
 10
-397.5
 20
6184.483549165
 30
0.0
 11
397.5
 21
6184.483549165
 31
0.0
  0
LINE
  5
A3
  8
0
 10
-397.5
 20
6184.483549165
 30
0.0
 11
-397.5
 21
6254.2128395391
 31
0.0
  0
LINE
  5
A4
  8
0
 10
-397.5
 20
6254.2128395391
 30
0.0
 11
-517.5
 21
6254.2128395391
 31
0.0
  0
LINE
  5
A5
  8
0
 10
-517.5
 20
6254.2128395391
 30
0.0
 11
-517.5
 21
6184.483549165
 31
0.0
  0
LINE
  5
A6
  8
0
 10
-758.7273634064
 20
6184.483549165
 30
0.0
 11
-517.5
 21
6184.483549165
 31
0.0
  0
LINE
  5
A7
  8
0
 10
-758.7273634064
 20
6184.483549165
 30
0.0
 11
-763.2135577745
 21
6179.921673873
 31
0.0
  0
LINE
  5
A8
  8
0
 10
-767.8262711907
 20
6179.921673873
 30
0.0
 11
-763.2135577745
 21
6179.921673873
 31
0.0
  0
LINE
  5
A9
  8
0
 10
-841.6214824332
 20
6104.8815567461
 30
0.0
 11
-767.8262711907
 21
6179.921673873
 31
0.0
  0
LINE
  5
AA
  8
0
 10
-968.1761590843
 20
6271.9975753001
 30
0.0
 11
-841.6214824332
 21
6104.8815567461
 31
0.0
  0
LINE
  5
AB
  8
0
 10
-972.6625857743
 20
6278.8882553056
 30
0.0
 11
-971.721544837918
 21
6277.4429153028
 31
0.0
  0
LINE
  5
AC
  8
0
 10
-972.6625857743
 20
6278.8882553056
 30
0.0
 11
-980.8735374691
 21
6554.8368007682
 31
0.0
  0
LINE
  5
AD
  8
0
 10
-967.8236300192
 20
6569.092490893
 30
0.0
 11
-972.5177488514646
 21
6563.9646458306
 31
0.0
  0
LINE
  5
AE
  8
0
 10
-851.9191335461
 20
6725.5341814354
 30
0.0
 11
-967.8236300192
 21
6569.092490893
 31
0.0
  0
LINE
  5
AF
  8
0
 10
-780.3458097542
 20
6650.8618821552
 30
0.0
 11
-851.9191335461
 21
6725.5341814354
 31
0.0
  0
LINE
  5
B0
  8
0
 10
-775.733096338
 20
6650.8618821552
 30
0.0
 11
-780.3458097542
 21
6650.8618821552
 31
0.0
  0
LINE
  5
B1
  8
0
 10
-775.733096338
 20
6650.8618821552
 30
0.0
 11
-771.2557104283
 21
6646.1906347836
 31
0.0
  0
LINE
  5
B2
  8
0
 10
-517.5
 20
6646.1906347836
 30
0.0
 11
-771.2557104283
 21
6646.1906347836
 31
0.0
  0
LINE
  5
B3
  8
0
 10
-517.5
 20
6646.1906347836
 30
0.0
 11
-517.5
 21
6574.7895675615
 31
0.0
  0
LINE
  5
B4
  8
0
 10
-517.5
 20
6574.7895675615
 30
0.0
 11
-397.5
 21
6574.7895675615
 31
0.0
  0
LINE
  5
B5
  8
0
 10
397.5
 20
6646.1906347836
 30
0.0
 11
-397.5
 21
6646.1906347836
 31
0.0
  0
LINE
  5
B6
  8
0
 10
397.5
 20
6646.1906347836
 30
0.0
 11
397.5
 21
6574.7895675615
 31
0.0
  0
LINE
  5
B7
  8
0
 10
397.5
 20
6574.7895675615
 30
0.0
 11
517.5
 21
6574.7895675615
 31
0.0
  0
LINE
  5
B8
  8
0
 10
517.5
 20
6574.7895675615
 30
0.0
 11
517.5
 21
6646.1906347836
 31
0.0
  0
LINE
  5
B9
  8
0
 10
771.2557104283
 20
6646.1906347836
 30
0.0
 11
517.5
 21
6646.1906347836
 31
0.0
  0
LINE
  5
BA
  8
0
 10
780.3458097542
 20
6650.8618821552
 30
0.0
 11
775.733096338
 21
6650.8618821552
 31
0.0
  0
LINE
  5
BB
  8
0
 10
851.956384362
 20
6725.5730451338
 30
0.0
 11
780.3458097542
 21
6650.8618821552
 31
0.0
  0
LINE
  5
BC
  8
0
 10
851.956384362
 20
6725.5730451338
 30
0.0
 11
967.8896741662
 21
6569.092490893
 31
0.0
  0
LINE
  5
BD
  8
0
 10
980.9395816161
 20
6554.8368007682
 30
0.0
 11
976.2454627838362
 21
6559.9646458306
 31
0.0
  0
LINE
  5
BE
  8
0
 10
972.7286299214
 20
6278.8882553056
 30
0.0
 11
980.9395816161
 21
6554.8368007682
 31
0.0
  0
LINE
  5
BF
  8
0
 10
775.733096338
 20
6650.8618821552
 30
0.0
 11
771.2557104283
 21
6646.1906347836
 31
0.0
  0
LINE
  5
C0
  8
0
 10
-397.5
 20
6574.7895675615
 30
0.0
 11
-397.5
 21
6646.1906347836
 31
0.0
  0
LINE
  5
EC
  8
0
 10
969.1832441676385
 20
6273.4429153028
 30
0.0
 11
964.6225718018977
 21
6275.4429153028
 31
0.0
  0
LINE
  5
ED
  8
0
 10
964.6225718018977
 20
6275.4429153028
 30
0.0
 11
971.787588984997
 21
6277.4429153028
 31
0.0
  0
LINE
  5
EE
  8
0
 10
972.5837929984647
 20
6563.9646458306
 30
0.0
 11
963.2141565763336
 21
6561.9646458306
 31
0.0
  0
LINE
  5
EF
  8
0
 10
963.2141565763336
 20
6561.9646458306
 30
0.0
 11
976.2454627838364
 21
6559.9646458306
 31
0.0
  0
LINE
  5
F0
  8
0
 10
-972.5177488514646
 20
6563.9646458306
 30
0.0
 11
-963.1481124293337
 21
6561.9646458306
 31
0.0
  0
LINE
  5
F1
  8
0
 10
-963.1481124293337
 20
6561.9646458306
 30
0.0
 11
-976.1794186368362
 21
6559.9646458306
 31
0.0
  0
LINE
  5
F2
  8
0
 10
-971.721544837918
 20
6277.4429153028
 30
0.0
 11
-960.7501852342358
 21
6275.4429153028
 31
0.0
  0
LINE
  5
F3
  8
0
 10
-960.7501852342358
 20
6275.4429153028
 30
0.0
 11
-969.1172000206174
 21
6273.4429153028
 31
0.0
  0
LINE
  5
F4
  8
0
 10
972.5837929984647
 20
6563.9646458306
 30
0.0
 11
967.8896741662
 21
6569.092490893
 31
0.0
  0
LINE
  5
F5
  8
0
 10
971.787588984997
 20
6277.4429153028
 30
0.0
 11
972.7286299214
 21
6278.8882553056
 31
0.0
  0
LINE
  5
F6
  8
0
 10
-969.1172000206175
 20
6273.4429153028
 30
0.0
 11
-968.1761590843
 21
6271.9975753001
 31
0.0
  0
LINE
  5
F7
  8
0
 10
-976.1794186368362
 20
6559.9646458306
 30
0.0
 11
-980.8735374691
 21
6554.8368007682
 31
0.0
  0
ENDSEC
  0
EOF
