  0
SECTION
  2
HEADER
  9
$ACADVER
  1
AC1009
  9
$DWGCODEPAGE
  3
ansi_1252
  9
$INSBASE
 10
0.0
 20
0.0
 30
0.0
  9
$EXTMIN
 10
3.055848413881199
 20
1.441034703001917
 30
0.0
  9
$EXTMAX
 10
547.0737049966808
 20
3988.299980871916
 30
0.0
  9
$LIMMIN
 10
0.0
 20
0.0
  9
$LIMMAX
 10
12.0
 20
9.0
  9
$ORTHOMODE
 70
     0
  9
$REGENMODE
 70
     1
  9
$FILLMODE
 70
     1
  9
$QTEXTMODE
 70
     0
  9
$MIRRTEXT
 70
     0
  9
$DRAGMODE
 70
     2
  9
$LTSCALE
 40
1.0
  9
$OSMODE
 70
  1023
  9
$ATTMODE
 70
     1
  9
$TEXTSIZE
 40
0.2
  9
$TRACEWID
 40
0.05
  9
$TEXTSTYLE
  7
STANDARD
  9
$CLAYER
  8
0
  9
$CELTYPE
  6
BYLAYER
  9
$CECOLOR
 62
   256
  9
$DIMSCALE
 40
1.0
  9
$DIMASZ
 40
0.18
  9
$DIMEXO
 40
0.0625
  9
$DIMDLI
 40
0.38
  9
$DIMRND
 40
0.0
  9
$DIMDLE
 40
0.0
  9
$DIMEXE
 40
0.18
  9
$DIMTP
 40
0.0
  9
$DIMTM
 40
0.0
  9
$DIMTXT
 40
0.18
  9
$DIMCEN
 40
0.09
  9
$DIMTSZ
 40
0.0
  9
$DIMTOL
 70
     0
  9
$DIMLIM
 70
     0
  9
$DIMTIH
 70
     1
  9
$DIMTOH
 70
     1
  9
$DIMSE1
 70
     0
  9
$DIMSE2
 70
     0
  9
$DIMTAD
 70
     0
  9
$DIMZIN
 70
     0
  9
$DIMBLK
  1

  9
$DIMASO
 70
     1
  9
$DIMSHO
 70
     1
  9
$DIMPOST
  1

  9
$DIMAPOST
  1

  9
$DIMALT
 70
     0
  9
$DIMALTD
 70
     2
  9
$DIMALTF
 40
25.4
  9
$DIMLFAC
 40
1.0
  9
$DIMTOFL
 70
     0
  9
$DIMTVP
 40
0.0
  9
$DIMTIX
 70
     0
  9
$DIMSOXD
 70
     0
  9
$DIMSAH
 70
     0
  9
$DIMBLK1
  1

  9
$DIMBLK2
  1

  9
$DIMSTYLE
  2
STANDARD
  9
$DIMCLRD
 70
     0
  9
$DIMCLRE
 70
     0
  9
$DIMCLRT
 70
     0
  9
$DIMTFAC
 40
1.0
  9
$DIMGAP
 40
0.09
  9
$LUNITS
 70
     2
  9
$LUPREC
 70
     4
  9
$SKETCHINC
 40
0.1
  9
$FILLETRAD
 40
0.0
  9
$AUNITS
 70
     0
  9
$AUPREC
 70
     0
  9
$MENU
  1
.
  9
$ELEVATION
 40
0.0
  9
$PELEVATION
 40
0.0
  9
$THICKNESS
 40
0.0
  9
$LIMCHECK
 70
     0
  9
$CHAMFERA
 40
0.0
  9
$CHAMFERB
 40
0.0
  9
$SKPOLY
 70
     0
  9
$TDCREATE
 40
2452643.146717593
  9
$TDUPDATE
 40
2456828.309392639
  9
$TDINDWG
 40
0.0003570255
  9
$TDUSRTIMER
 40
2456828.225986794
  9
$USRTIMER
 70
     1
  9
$ANGBASE
 50
0.0
  9
$ANGDIR
 70
     0
  9
$PDMODE
 70
     0
  9
$PDSIZE
 40
0.0
  9
$PLINEWID
 40
0.0
  9
$COORDS
 70
     1
  9
$SPLFRAME
 70
     0
  9
$SPLINETYPE
 70
     6
  9
$SPLINESEGS
 70
     8
  9
$ATTDIA
 70
     0
  9
$ATTREQ
 70
     1
  9
$HANDLING
 70
     1
  9
$HANDSEED
  5
1FD
  9
$SURFTAB1
 70
     6
  9
$SURFTAB2
 70
     6
  9
$SURFTYPE
 70
     6
  9
$SURFU
 70
     6
  9
$SURFV
 70
     6
  9
$UCSNAME
  2

  9
$UCSORG
 10
0.0
 20
0.0
 30
0.0
  9
$UCSXDIR
 10
1.0
 20
0.0
 30
0.0
  9
$UCSYDIR
 10
0.0
 20
1.0
 30
0.0
  9
$PUCSNAME
  2

  9
$PUCSORG
 10
0.0
 20
0.0
 30
0.0
  9
$PUCSXDIR
 10
1.0
 20
0.0
 30
0.0
  9
$PUCSYDIR
 10
0.0
 20
1.0
 30
0.0
  9
$USERI1
 70
     0
  9
$USERI2
 70
     0
  9
$USERI3
 70
     0
  9
$USERI4
 70
     0
  9
$USERI5
 70
     0
  9
$USERR1
 40
0.0
  9
$USERR2
 40
0.0
  9
$USERR3
 40
0.0
  9
$USERR4
 40
0.0
  9
$USERR5
 40
0.0
  9
$WORLDVIEW
 70
     1
  9
$SHADEDGE
 70
     3
  9
$SHADEDIF
 70
    70
  9
$TILEMODE
 70
     1
  9
$MAXACTVP
 70
    64
  9
$PLIMCHECK
 70
     0
  9
$PEXTMIN
 10
0.0
 20
0.0
 30
0.0
  9
$PEXTMAX
 10
0.0
 20
0.0
 30
0.0
  9
$PLIMMIN
 10
0.0
 20
0.0
  9
$PLIMMAX
 10
0.0
 20
0.0
  9
$UNITMODE
 70
     0
  9
$VISRETAIN
 70
     1
  9
$PLINEGEN
 70
     0
  9
$PSLTSCALE
 70
     1
  0
ENDSEC
  0
SECTION
  2
TABLES
  0
TABLE
  2
VPORT
 70
     1
  0
VPORT
  2
*ACTIVE
 70
     0
 10
0.0
 20
0.0
 11
1.0
 21
1.0
 12
2394.149377898435
 22
1484.422832243449
 13
0.0
 23
0.0
 14
0.5
 24
0.5
 15
0.5
 25
0.5
 16
0.0
 26
0.0
 36
1.0
 17
-27.66959356597999
 27
-19.53870295786191
 37
0.0
 40
9931.801710179088
 41
1.86140089418778
 42
50.0
 43
0.0
 44
0.0
 50
0.0
 51
0.0
 71
    16
 72
  1000
 73
     1
 74
     3
 75
     0
 76
     0
 77
     0
 78
     0
  0
ENDTAB
  0
TABLE
  2
LTYPE
 70
     1
  0
LTYPE
  2
CONTINUOUS
 70
     0
  3
Solid line
 72
    65
 73
     0
 40
0.0
  0
ENDTAB
  0
TABLE
  2
LAYER
 70
     1
  0
LAYER
  2
0
 70
     0
 62
     7
  6
CONTINUOUS
  0
ENDTAB
  0
TABLE
  2
STYLE
 70
     1
  0
STYLE
  2
STANDARD
 70
     0
 40
0.0
 41
1.0
 50
0.0
 71
     0
 42
0.2
  3
arial.ttf
  4

  0
ENDTAB
  0
TABLE
  2
VIEW
 70
     0
  0
ENDTAB
  0
TABLE
  2
UCS
 70
     0
  0
ENDTAB
  0
TABLE
  2
APPID
 70
     1
  0
APPID
  2
ACAD
 70
     0
  0
ENDTAB
  0
TABLE
  2
DIMSTYLE
 70
     2
  0
DIMSTYLE
  2
STANDARD
 70
     0
  3

  4

  5

  6

  7

 40
1.0
 41
0.18
 42
0.0625
 43
0.38
 44
0.18
 45
0.0
 46
0.0
 47
0.0
 48
0.0
140
0.18
141
0.09
142
0.0
143
25.4
144
1.0
145
0.0
146
1.0
147
0.09
 71
     0
 72
     0
 73
     1
 74
     1
 75
     0
 76
     0
 77
     0
 78
     0
170
     0
171
     2
172
     0
173
     0
174
     0
175
     0
176
     0
177
     0
178
     0
  0
DIMSTYLE
  2
ISO-25
 70
     0
  3

  4

  5

  6

  7

 40
1.0
 41
2.5
 42
0.625
 43
3.75
 44
1.25
 45
0.0
 46
0.0
 47
0.0
 48
0.0
140
2.5
141
2.5
142
0.0
143
0.0393700787
144
1.0
145
0.0
146
1.0
147
0.625
 71
     0
 72
     0
 73
     0
 74
     0
 75
     0
 76
     0
 77
     1
 78
     8
170
     0
171
     3
172
     1
173
     0
174
     0
175
     0
176
     0
177
     0
178
     0
  0
ENDTAB
  0
ENDSEC
  0
SECTION
  2
BLOCKS
  0
BLOCK
  8
0
  2
$MODEL_SPACE
 70
     0
 10
0.0
 20
0.0
 30
0.0
  3
$MODEL_SPACE
  1

  0
ENDBLK
  5
21
  8
0
  0
BLOCK
 67
     1
  8
0
  2
$PAPER_SPACE
 70
     0
 10
0.0
 20
0.0
 30
0.0
  3
$PAPER_SPACE
  1

  0
ENDBLK
  5
5B
 67
     1
  8
0
  0
ENDSEC
  0
SECTION
  2
ENTITIES
  0
LINE
  5
16D
  8
0
 10
370.818121434181
 20
3980.103477483192
 30
0.0
 11
520.125955850406
 21
3988.297800623069
 31
0.0
  0
LINE
  5
16E
  8
0
 10
524.1101261185611
 20
3987.817087435018
 30
0.0
 11
547.0737049966808
 21
3980.477138109302
 31
0.0
  0
LINE
  5
16F
  8
0
 10
547.0737049966808
 20
3980.477138109302
 30
0.0
 11
503.2615266834789
 21
2819.20365404518
 31
0.0
  0
LINE
  5
170
  8
0
 10
492.9321463336512
 20
2543.556826917599
 30
0.0
 11
400.6751035097452
 21
73.46311305383583
 31
0.0
  0
LINE
  5
171
  8
0
 10
25.27971657800911
 20
3908.267116493095
 30
0.0
 11
51.39432690971919
 21
3920.259556561917
 31
0.0
  0
LINE
  5
172
  8
0
 10
55.42478253281727
 20
3921.566304282187
 30
0.0
 11
146.7019707549123
 21
3947.770858731024
 31
0.0
  0
LINE
  5
173
  8
0
 10
150.689102958451
 20
3948.574734931734
 30
0.0
 11
366.818121434181
 21
3979.718276156963
 31
0.0
  0
LINE
  5
174
  8
0
 10
20.98577181123685
 20
3907.245864200202
 30
0.0
 11
3.055848413881199
 21
3907.245864200202
 31
0.0
  0
LINE
  5
175
  8
0
 10
366.745062667899
 20
82.3872129193172
 30
0.0
 11
260.8939020750761
 21
63.0191431127781
 31
0.0
  0
LINE
  5
176
  8
0
 10
400.6751035097452
 20
73.46311305383492
 30
0.0
 11
377.8645690283909
 21
82.67979909665277
 31
0.0
  0
LINE
  5
177
  8
0
 10
339.862900820475
 20
2816.84085275403
 30
0.0
 11
368.1806102401322
 21
2820.921349472812
 31
0.0
  0
LINE
  5
178
  8
0
 10
328.3267146905621
 20
2545.90015420021
 30
0.0
 11
335.5778751779624
 21
2812.028151871711
 31
0.0
  0
LINE
  5
179
  8
0
 10
334.1367348866913
 20
2540.830324704027
 30
0.0
 11
369.2388734560943
 21
2546.606692988254
 31
0.0
  0
LINE
  5
17A
  8
0
 10
369.2388734560943
 20
2546.606692988254
 30
0.0
 11
467.6138747622542
 21
2552.772382164504
 31
0.0
  0
LINE
  5
17B
  8
0
 10
467.6138747622542
 20
2552.772382164504
 30
0.0
 11
492.9321463336512
 21
2543.556826917599
 31
0.0
  0
LINE
  5
17C
  8
0
 10
368.1806102401322
 20
2820.921349472812
 30
0.0
 11
478.8801789526613
 21
2826.996771040764
 31
0.0
  0
LINE
  5
17D
  8
0
 10
478.8801789526613
 20
2826.996771040764
 30
0.0
 11
503.2615266834789
 21
2819.20365404518
 31
0.0
  0
ARC
  5
17E
  8
0
 10
333.3248597406812
 20
2545.763970287902
 30
0.0
 40
5.0
 50
178.4392543056543
 51
279.3447783811346
  0
ARC
  5
17F
  8
0
 10
340.5760202280815
 20
2811.891967959402
 30
0.0
 40
5.000000000000001
 50
98.19970754124115
 51
178.4392543056543
  0
LINE
  5
180
  8
0
 10
520.1254988310664
 20
3988.299980871916
 30
0.0
 11
521.821644144951
 21
3980.208378294278
 31
0.0
  0
LINE
  5
181
  8
0
 10
521.821644144951
 20
3980.208378294278
 30
0.0
 11
524.1101261185611
 21
3987.817087435018
 31
0.0
  0
LINE
  5
182
  8
0
 10
366.818121434181
 20
3979.718276156963
 30
0.0
 11
368.818121434181
 21
3972.007400422554
 31
0.0
  0
LINE
  5
183
  8
0
 10
368.818121434181
 20
3972.007400422554
 30
0.0
 11
370.818121434181
 21
3980.103477483192
 31
0.0
  0
LINE
  5
184
  8
0
 10
146.7019707549123
 20
3947.770858731024
 30
0.0
 11
148.6424065597809
 21
3940.289629050054
 31
0.0
  0
LINE
  5
185
  8
0
 10
148.6424065597809
 20
3940.289629050054
 30
0.0
 11
150.689102958451
 21
3948.574734931734
 31
0.0
  0
LINE
  5
186
  8
0
 10
51.39432690971919
 20
3920.259556561917
 30
0.0
 11
53.29332567708091
 21
3912.938084804454
 31
0.0
  0
LINE
  5
187
  8
0
 10
53.29332567708091
 20
3912.938084804454
 30
0.0
 11
55.42478253281727
 21
3921.566304282187
 31
0.0
  0
LINE
  5
188
  8
0
 10
20.98577181123685
 20
3907.245864200202
 30
0.0
 11
23.0558484138812
 21
3899.264812478354
 31
0.0
  0
LINE
  5
189
  8
0
 10
23.0558484138812
 20
3899.264812478354
 30
0.0
 11
25.27971657800911
 21
3908.267116493095
 31
0.0
  0
LINE
  5
18A
  8
0
 10
366.745062667899
 20
82.3872129193172
 30
0.0
 11
368.818121434181
 21
90.67944798444691
 31
0.0
  0
LINE
  5
18B
  8
0
 10
368.818121434181
 20
90.67944798444691
 30
0.0
 11
370.6933901925661
 21
82.81013420964277
 31
0.0
  0
LINE
  5
18C
  8
0
 10
374.1834699339713
 20
83.05335553191739
 30
0.0
 11
376.0971248596632
 21
91.15477856331594
 31
0.0
  0
LINE
  5
18D
  8
0
 10
376.0971248596632
 20
91.15477856331594
 30
0.0
 11
377.8645690283909
 21
82.67979909665277
 31
0.0
  0
LINE
  5
18E
  8
0
 10
374.1834699339713
 20
83.05335553191739
 30
0.0
 11
370.6933901925661
 21
82.81013420964186
 31
0.0
  0
LINE
  5
18F
  8
0
 10
259.2160900804927
 20
1.441034703001917
 30
0.0
 11
3.055848413881199
 21
1.441034703001917
 31
0.0
  0
LINE
  5
190
  8
0
 10
259.2160900804922
 20
1.441034703001917
 30
0.0
 11
260.8939020750761
 21
63.0191431127781
 31
0.0
  0
LINE
  5
191
  8
0
 10
3.055848413881199
 20
1.441034703001917
 30
0.0
 11
3.055848413881199
 21
3907.245864200202
 31
0.0
  0
ENDSEC
  0
EOF
