  0
SECTION
  2
HEADER
  9
$ACADVER
  1
AC1009
  9
$DWGCODEPAGE
  3
ansi_1252
  9
$INSBASE
 10
0.0
 20
0.0
 30
0.0
  9
$EXTMIN
 10
-92.71434511434506
 20
-20.07505197505199
 30
0.0
  9
$EXTMAX
 10
878.330047696964
 20
873.3249480251477
 30
63.66880011389556
  9
$LIMMIN
 10
0.0
 20
0.0
  9
$LIMMAX
 10
420.0
 20
297.0
  9
$ORTHOMODE
 70
     1
  9
$REGENMODE
 70
     1
  9
$FILLMODE
 70
     1
  9
$QTEXTMODE
 70
     0
  9
$MIRRTEXT
 70
     0
  9
$DRAGMODE
 70
     2
  9
$LTSCALE
 40
1.0
  9
$OSMODE
 70
  1023
  9
$ATTMODE
 70
     1
  9
$TEXTSIZE
 40
2.5
  9
$TRACEWID
 40
1.0
  9
$TEXTSTYLE
  7
STANDARD
  9
$CLAYER
  8
0
  9
$CELTYPE
  6
BYLAYER
  9
$CECOLOR
 62
   256
  9
$DIMSCALE
 40
1.0
  9
$DIMASZ
 40
2.5
  9
$DIMEXO
 40
0.625
  9
$DIMDLI
 40
3.75
  9
$DIMRND
 40
0.0
  9
$DIMDLE
 40
0.0
  9
$DIMEXE
 40
1.25
  9
$DIMTP
 40
0.0
  9
$DIMTM
 40
0.0
  9
$DIMTXT
 40
2.5
  9
$DIMCEN
 40
2.5
  9
$DIMTSZ
 40
0.0
  9
$DIMTOL
 70
     0
  9
$DIMLIM
 70
     0
  9
$DIMTIH
 70
     0
  9
$DIMTOH
 70
     0
  9
$DIMSE1
 70
     0
  9
$DIMSE2
 70
     0
  9
$DIMTAD
 70
     1
  9
$DIMZIN
 70
     8
  9
$DIMBLK
  1

  9
$DIMASO
 70
     1
  9
$DIMSHO
 70
     1
  9
$DIMPOST
  1

  9
$DIMAPOST
  1

  9
$DIMALT
 70
     0
  9
$DIMALTD
 70
     3
  9
$DIMALTF
 40
0.03937007874016
  9
$DIMLFAC
 40
1.0
  9
$DIMTOFL
 70
     1
  9
$DIMTVP
 40
0.0
  9
$DIMTIX
 70
     0
  9
$DIMSOXD
 70
     0
  9
$DIMSAH
 70
     0
  9
$DIMBLK1
  1

  9
$DIMBLK2
  1

  9
$DIMSTYLE
  2
ISO-25
  9
$DIMCLRD
 70
     0
  9
$DIMCLRE
 70
     0
  9
$DIMCLRT
 70
     0
  9
$DIMTFAC
 40
1.0
  9
$DIMGAP
 40
0.625
  9
$LUNITS
 70
     2
  9
$LUPREC
 70
     3
  9
$SKETCHINC
 40
1.0
  9
$FILLETRAD
 40
10.0
  9
$AUNITS
 70
     0
  9
$AUPREC
 70
     0
  9
$MENU
  1
.
  9
$ELEVATION
 40
0.0
  9
$PELEVATION
 40
0.0
  9
$THICKNESS
 40
0.0
  9
$LIMCHECK
 70
     0
  9
$CHAMFERA
 40
10.0
  9
$CHAMFERB
 40
10.0
  9
$SKPOLY
 70
     0
  9
$TDCREATE
 40
2455022.720692836
  9
$TDUPDATE
 40
2456804.383092882
  9
$TDINDWG
 40
0.0085964352
  9
$TDUSRTIMER
 40
2456804.299361088
  9
$USRTIMER
 70
     1
  9
$ANGBASE
 50
0.0
  9
$ANGDIR
 70
     0
  9
$PDMODE
 70
     0
  9
$PDSIZE
 40
0.0
  9
$PLINEWID
 40
0.0
  9
$COORDS
 70
     1
  9
$SPLFRAME
 70
     0
  9
$SPLINETYPE
 70
     6
  9
$SPLINESEGS
 70
     8
  9
$ATTDIA
 70
     0
  9
$ATTREQ
 70
     1
  9
$HANDLING
 70
     1
  9
$HANDSEED
  5
22D
  9
$SURFTAB1
 70
     6
  9
$SURFTAB2
 70
     6
  9
$SURFTYPE
 70
     6
  9
$SURFU
 70
     6
  9
$SURFV
 70
     6
  9
$UCSNAME
  2

  9
$UCSORG
 10
0.0
 20
0.0
 30
0.0
  9
$UCSXDIR
 10
1.0
 20
0.0
 30
0.0
  9
$UCSYDIR
 10
0.0
 20
1.0
 30
0.0
  9
$PUCSNAME
  2

  9
$PUCSORG
 10
0.0
 20
0.0
 30
0.0
  9
$PUCSXDIR
 10
1.0
 20
0.0
 30
0.0
  9
$PUCSYDIR
 10
0.0
 20
1.0
 30
0.0
  9
$USERI1
 70
     0
  9
$USERI2
 70
     0
  9
$USERI3
 70
     0
  9
$USERI4
 70
     0
  9
$USERI5
 70
     0
  9
$USERR1
 40
0.0
  9
$USERR2
 40
0.0
  9
$USERR3
 40
0.0
  9
$USERR4
 40
0.0
  9
$USERR5
 40
0.0
  9
$WORLDVIEW
 70
     1
  9
$SHADEDGE
 70
     3
  9
$SHADEDIF
 70
    70
  9
$TILEMODE
 70
     1
  9
$MAXACTVP
 70
    64
  9
$PLIMCHECK
 70
     0
  9
$PEXTMIN
 10
1.000000000000000E+20
 20
1.000000000000000E+20
 30
1.000000000000000E+20
  9
$PEXTMAX
 10
-1.000000000000000E+20
 20
-1.000000000000000E+20
 30
-1.000000000000000E+20
  9
$PLIMMIN
 10
0.0
 20
0.0
  9
$PLIMMAX
 10
0.0
 20
0.0
  9
$UNITMODE
 70
     0
  9
$VISRETAIN
 70
     1
  9
$PLINEGEN
 70
     0
  9
$PSLTSCALE
 70
     1
  0
ENDSEC
  0
SECTION
  2
TABLES
  0
TABLE
  2
VPORT
 70
     1
  0
VPORT
  2
*ACTIVE
 70
     0
 10
0.0
 20
0.0
 11
1.0
 21
1.0
 12
101.6433968617522
 22
397.9340610639798
 13
0.0
 23
0.0
 14
10.0
 24
10.0
 15
10.0
 25
10.0
 16
0.0
 26
0.0
 36
1.0
 17
-134.1869158878503
 27
0.0
 37
0.0
 40
1276.753054041872
 41
1.996879875195008
 42
50.0
 43
0.0
 44
0.0
 50
0.0
 51
0.0
 71
    16
 72
  1000
 73
     1
 74
     3
 75
     0
 76
     0
 77
     0
 78
     0
  0
ENDTAB
  0
TABLE
  2
LTYPE
 70
     2
  0
LTYPE
  2
CONTINUOUS
 70
     0
  3
Solid line
 72
    65
 73
     0
 40
0.0
  0
LTYPE
  2
CENTERX2
 70
     0
  3
Center (2x) ________  __  ________  __  _____
 72
    65
 73
     4
 40
20.32
 49
12.7
 49
-2.54
 49
2.54
 49
-2.54
  0
ENDTAB
  0
TABLE
  2
LAYER
 70
     2
  0
LAYER
  2
0
 70
     0
 62
     7
  6
CONTINUOUS
  0
LAYER
  2
CONTORNO
 70
     0
 62
     7
  6
CONTINUOUS
  0
ENDTAB
  0
TABLE
  2
STYLE
 70
     2
  0
STYLE
  2
STANDARD
 70
     0
 40
0.0
 41
1.0
 50
0.0
 71
     0
 42
2.5
  3
arial.ttf
  4

  0
STYLE
  2
STILE1
 70
     0
 40
100.0
 41
1.0
 50
0.0
 71
     0
 42
2.5
  3
sanss___.ttf
  4

  0
ENDTAB
  0
TABLE
  2
VIEW
 70
     0
  0
ENDTAB
  0
TABLE
  2
UCS
 70
     0
  0
ENDTAB
  0
TABLE
  2
APPID
 70
     1
  0
APPID
  2
ACAD
 70
     0
  0
ENDTAB
  0
TABLE
  2
DIMSTYLE
 70
     1
  0
DIMSTYLE
  2
ISO-25
 70
     0
  3

  4

  5

  6

  7

 40
1.0
 41
2.5
 42
0.625
 43
3.75
 44
1.25
 45
0.0
 46
0.0
 47
0.0
 48
0.0
140
2.5
141
2.5
142
0.0
143
0.03937007874016
144
1.0
145
0.0
146
1.0
147
0.625
 71
     0
 72
     0
 73
     0
 74
     0
 75
     0
 76
     0
 77
     1
 78
     8
170
     0
171
     3
172
     1
173
     0
174
     0
175
     0
176
     0
177
     0
178
     0
  0
ENDTAB
  0
ENDSEC
  0
SECTION
  2
BLOCKS
  0
BLOCK
  8
0
  2
$MODEL_SPACE
 70
     0
 10
0.0
 20
0.0
 30
0.0
  3
$MODEL_SPACE
  1

  0
ENDBLK
  5
21
  8
0
  0
BLOCK
 67
     1
  8
0
  2
$PAPER_SPACE
 70
     0
 10
0.0
 20
0.0
 30
0.0
  3
$PAPER_SPACE
  1

  0
ENDBLK
  5
1D
 67
     1
  8
0
  0
ENDSEC
  0
SECTION
  2
ENTITIES
  0
LINE
  5
117
  8
0
  6
CENTERX2
 62
     7
 10
-60.58060644233353
 20
-19.57505197495195
 30
0.0
 11
-60.58060644233353
 21
872.8249480250477
 31
0.0
  0
LINE
  5
118
  8
0
  6
CENTERX2
 62
     7
 10
83.68687090154401
 20
-10.57505197495195
 30
0.0
 11
83.68687090154401
 21
863.8249480250477
 31
0.0
  0
LINE
  5
119
  8
0
  6
CENTERX2
 62
     7
 10
153.6332737527451
 20
-5.949027370751736
 30
0.0
 11
153.6332737527451
 21
858.6989234208474
 31
0.0
  0
LINE
  5
11A
  8
0
  6
CONTINUOUS
 62
     7
 10
-92.71434511434506
 20
872.8249480251477
 30
0.0
 11
-92.71434511434506
 21
-19.57505197505199
 31
0.0
  0
LINE
  5
11B
  8
0
  6
CONTINUOUS
 62
     7
 10
-62.58060644236264
 20
872.8249480251295
 30
0.0
 11
-92.71434511434506
 21
872.8249480251477
 31
0.0
  0
LINE
  5
11C
  8
0
  6
CONTINUOUS
 62
     7
 10
82.47349526103483
 20
866.1481327590561
 30
0.0
 11
80.55313222956158
 21
869.8249480250477
 31
0.0
  0
ARC
  5
11D
  8
0
  6
CONTINUOUS
 62
     7
 10
71.55313222956158
 20
857.8249480250477
 30
0.0
 40
15.00000000000074
 50
53.13010235429486
 51
90.0
  0
TEXT
  5
11E
  8
CONTORNO
  6
CONTINUOUS
 10
133.3942430757418
 20
504.6911556264774
 30
0.0
 40
20.0
  1
169.4
  7
STILE1
  0
TEXT
  5
11F
  8
CONTORNO
  6
CONTINUOUS
 10
52.50707907178918
 20
502.2090879190971
 30
0.0
 40
20.0
  1
90
  7
STILE1
  0
TEXT
  5
120
  8
CONTORNO
  6
CONTINUOUS
 10
-88.70203398233383
 20
504.8956115830358
 30
0.0
 40
20.0
  1
90
  7
STILE1
  0
LINE
  5
121
  8
0
 10
86.82060957355554
 20
857.8249480250477
 30
0.0
 11
86.82060957355554
 21
819.3249480250531
 31
0.0
  0
LINE
  5
122
  8
0
  6
CONTINUOUS
 62
     7
 10
151.6332737527451
 20
819.3249480250695
 30
0.0
 11
86.82060957355554
 21
819.3249480250531
 31
0.0
  0
LINE
  5
123
  8
0
 10
-62.58060644236264
 20
872.8249480251295
 30
0.0
 11
-60.58060644233353
 21
864.8249480250477
 31
0.0
  0
LINE
  5
124
  8
0
 10
-60.58060644233353
 20
864.8249480250477
 30
0.0
 11
-58.58060644233353
 21
872.8249480250477
 31
0.0
  0
LINE
  5
125
  8
0
 10
81.68687090154401
 20
863.8249480250477
 30
0.0
 11
83.68687090154401
 21
855.8249480250477
 31
0.0
  0
LINE
  5
126
  8
0
 10
83.68687090154401
 20
855.8249480250477
 30
0.0
 11
85.68687090154401
 21
863.8249480250477
 31
0.0
  0
LINE
  5
127
  8
0
 10
151.6332737527451
 20
819.3249480250695
 30
0.0
 11
153.6332737527451
 21
811.3249480250695
 31
0.0
  0
LINE
  5
128
  8
0
 10
153.6332737527451
 20
811.3249480250695
 30
0.0
 11
155.6332737527451
 21
819.3249480250695
 31
0.0
  0
LINE
  5
129
  8
0
 10
-58.58060644233353
 20
872.8249480250477
 30
0.0
 11
71.55313222956158
 21
872.8249480250477
 31
0.0
  0
LINE
  5
12A
  8
0
 10
81.68687090154401
 20
863.8249480250477
 30
0.0
 11
82.47349526103483
 21
866.1481327590561
 31
0.0
  0
LINE
  5
12B
  8
0
 10
86.82060957355554
 20
857.8249480250477
 30
0.0
 11
85.68687090154401
 21
863.8249480250477
 31
0.0
  0
LINE
  5
12C
  8
0
  6
CONTINUOUS
 62
     7
 10
-62.58060644236264
 20
-19.57505197503198
 30
0.0
 11
-92.71434511434506
 21
-19.57505197505017
 31
0.0
  0
LINE
  5
12D
  8
0
  6
CONTINUOUS
 62
     7
 10
82.47349526103483
 20
-12.89823670895859
 30
0.0
 11
80.55313222956158
 21
-16.57505197495013
 31
0.0
  0
ARC
  5
12E
  8
0
  6
CONTINUOUS
 62
     7
 10
71.55313222956158
 20
-4.575051974950128
 30
0.0
 40
15.00000000000074
 50
270.0
 51
306.869897645705
  0
LINE
  5
12F
  8
0
 10
86.82060957355554
 20
-4.575051974950128
 30
0.0
 11
86.82060957355554
 21
33.92494802504442
 31
0.0
  0
LINE
  5
130
  8
0
  6
CONTINUOUS
 62
     7
 10
151.6332737527451
 20
33.92494802502804
 30
0.0
 11
86.82060957355554
 21
33.92494802504442
 31
0.0
  0
LINE
  5
131
  8
0
 10
-62.58060644236264
 20
-19.57505197503198
 30
0.0
 11
-60.58060644233353
 21
-11.57505197495013
 31
0.0
  0
LINE
  5
132
  8
0
 10
-60.58060644233353
 20
-11.57505197495013
 30
0.0
 11
-58.58060644233353
 21
-19.57505197495013
 31
0.0
  0
LINE
  5
133
  8
0
 10
81.68687090154401
 20
-10.57505197495013
 30
0.0
 11
83.68687090154401
 21
-2.575051974950128
 31
0.0
  0
LINE
  5
134
  8
0
 10
83.68687090154401
 20
-2.575051974950128
 30
0.0
 11
85.68687090154401
 21
-10.57505197495013
 31
0.0
  0
LINE
  5
135
  8
0
 10
151.6332737527451
 20
33.92494802502804
 30
0.0
 11
153.6332737527451
 21
41.92494802502804
 31
0.0
  0
LINE
  5
136
  8
0
 10
153.6332737527451
 20
41.92494802502804
 30
0.0
 11
155.6332737527451
 21
33.92494802502804
 31
0.0
  0
LINE
  5
137
  8
0
 10
-58.58060644233353
 20
-19.57505197495013
 30
0.0
 11
71.55313222956158
 21
-19.57505197495013
 31
0.0
  0
LINE
  5
138
  8
0
 10
81.68687090154401
 20
-10.57505197495013
 30
0.0
 11
82.47349526103483
 21
-12.89823670895859
 31
0.0
  0
LINE
  5
139
  8
0
 10
86.82060957355554
 20
-4.575051974950128
 30
0.0
 11
85.68687090154401
 21
-10.57505197495013
 31
0.0
  0
CIRCLE
  5
13A
  8
0
 10
440.9935932414852
 20
376.6249480250488
 30
0.0
 40
5.0
  0
CIRCLE
  5
13B
  8
0
 10
440.9935932414852
 20
476.6249480250488
 30
0.0
 40
5.0
  0
CIRCLE
  5
13C
  8
0
 10
485.9935932414852
 20
376.6249480250488
 30
0.0
 40
5.0
  0
CIRCLE
  5
13D
  8
0
 10
485.9935932414852
 20
476.6249480250488
 30
0.0
 40
5.0
  0
CIRCLE
  5
13E
  8
0
 10
567.6528168586561
 20
426.6249480250488
 30
0.0
 40
5.0
  0
CIRCLE
  5
13F
  8
0
 10
327.697299649754
 20
426.6249480250488
 30
0.0
 40
5.0
  0
CIRCLE
  5
140
  8
0
 10
567.6528168586561
 20
211.8338020084855
 30
0.0
 40
5.0
  0
CIRCLE
  5
141
  8
0
 10
567.6528168586561
 20
641.416094041612
 30
0.0
 40
5.0
  0
ARC
  5
142
  8
0
 39
31.83440005694778
 10
878.330047696964
 20
630.0749480251477
 30
0.0
 40
35.0
 50
90.0
 51
270.0
  0
ARC
  5
143
  8
0
 39
31.83440005694778
 10
878.330047696964
 20
819.3249480251477
 30
0.0
 40
35.0
 50
180.0
 51
270.0
  0
ARC
  5
144
  8
0
 39
31.83440005694778
 10
878.330047696964
 20
223.1749480249498
 30
0.0
 40
35.0
 50
90.0
 51
270.0
  0
ARC
  5
145
  8
0
 39
31.83440005694778
 10
878.330047696964
 20
33.92494802494983
 30
0.0
 40
35.0
 50
90.0
 51
180.0
  0
ARC
  5
146
  8
0
 39
31.83440005694778
 10
878.330047696964
 20
426.6249480250488
 30
0.0
 40
35.0
 50
90.0
 51
270.0
  0
LINE
  5
147
  8
0
 10
155.6332737527451
 20
819.3249480250695
 30
0.0
 11
843.330047696964
 21
819.3249480251441
 31
0.0
  0
LINE
  5
148
  8
0
 10
155.6332737527451
 20
33.92494802502804
 30
0.0
 11
843.330047696964
 21
33.92494802495347
 31
0.0
  0
LINE
  5
149
  8
0
  6
CONTINUOUS
 62
     7
 10
878.330047696964
 20
784.3249480251477
 30
0.0
 11
878.330047696964
 21
665.0749480251477
 31
0.0
  0
LINE
  5
14A
  8
0
  6
CONTINUOUS
 62
     7
 10
878.330047696964
 20
595.0749480251477
 30
0.0
 11
878.330047696964
 21
461.6249480250488
 31
0.0
  0
LINE
  5
14B
  8
0
  6
CONTINUOUS
 62
     7
 10
878.330047696964
 20
188.1749480249498
 30
0.0
 11
878.330047696964
 21
68.92494802494983
 31
0.0
  0
LINE
  5
14C
  8
0
  6
CONTINUOUS
 62
     7
 10
878.330047696964
 20
391.6249480250488
 30
0.0
 11
878.330047696964
 21
258.1749480249498
 31
0.0
  0
CIRCLE
  5
1BB
  8
0
 10
58.18687090154401
 20
426.6249480250478
 30
0.0
 40
14.5
  0
CIRCLE
  5
1BD
  8
0
 10
109.186870901544
 20
426.6249480250478
 30
0.0
 40
14.5
  0
LINE
  5
1BE
  8
0
 10
83.68687090154401
 20
452.5232013306611
 30
0.0
 11
83.68687090154401
 21
400.7266947194345
 31
0.0
  0
ENDSEC
  0
EOF
