  0
SECTION
  2
HEADER
  9
$ACADVER
  1
AC1009
  9
$DWGCODEPAGE
  3
ansi_1252
  9
$INSBASE
 10
0.0
 20
0.0
 30
0.0
  9
$EXTMIN
 10
0.6602540673055506
 20
1.984653443280588
 30
0.0
  9
$EXTMAX
 10
313.4378886511266
 20
251.5846534432791
 30
0.0
  9
$LIMMIN
 10
0.0
 20
0.0
  9
$LIMMAX
 10
12.0
 20
9.0
  9
$ORTHOMODE
 70
     0
  9
$REGENMODE
 70
     1
  9
$FILLMODE
 70
     1
  9
$QTEXTMODE
 70
     0
  9
$MIRRTEXT
 70
     0
  9
$DRAGMODE
 70
     2
  9
$LTSCALE
 40
1.0
  9
$OSMODE
 70
  1023
  9
$ATTMODE
 70
     1
  9
$TEXTSIZE
 40
0.2
  9
$TRACEWID
 40
0.05
  9
$TEXTSTYLE
  7
STANDARD
  9
$CLAYER
  8
0
  9
$CELTYPE
  6
BYLAYER
  9
$CECOLOR
 62
   256
  9
$DIMSCALE
 40
1.0
  9
$DIMASZ
 40
0.18
  9
$DIMEXO
 40
0.0625
  9
$DIMDLI
 40
0.38
  9
$DIMRND
 40
0.0
  9
$DIMDLE
 40
0.0
  9
$DIMEXE
 40
0.18
  9
$DIMTP
 40
0.0
  9
$DIMTM
 40
0.0
  9
$DIMTXT
 40
0.18
  9
$DIMCEN
 40
0.09
  9
$DIMTSZ
 40
0.0
  9
$DIMTOL
 70
     0
  9
$DIMLIM
 70
     0
  9
$DIMTIH
 70
     1
  9
$DIMTOH
 70
     1
  9
$DIMSE1
 70
     0
  9
$DIMSE2
 70
     0
  9
$DIMTAD
 70
     0
  9
$DIMZIN
 70
     0
  9
$DIMBLK
  1

  9
$DIMASO
 70
     1
  9
$DIMSHO
 70
     1
  9
$DIMPOST
  1

  9
$DIMAPOST
  1

  9
$DIMALT
 70
     0
  9
$DIMALTD
 70
     2
  9
$DIMALTF
 40
25.4
  9
$DIMLFAC
 40
1.0
  9
$DIMTOFL
 70
     0
  9
$DIMTVP
 40
0.0
  9
$DIMTIX
 70
     0
  9
$DIMSOXD
 70
     0
  9
$DIMSAH
 70
     0
  9
$DIMBLK1
  1

  9
$DIMBLK2
  1

  9
$DIMSTYLE
  2
STANDARD
  9
$DIMCLRD
 70
     0
  9
$DIMCLRE
 70
     0
  9
$DIMCLRT
 70
     0
  9
$DIMTFAC
 40
1.0
  9
$DIMGAP
 40
0.09
  9
$LUNITS
 70
     2
  9
$LUPREC
 70
     4
  9
$SKETCHINC
 40
0.1
  9
$FILLETRAD
 40
0.0
  9
$AUNITS
 70
     0
  9
$AUPREC
 70
     0
  9
$MENU
  1
.
  9
$ELEVATION
 40
0.0
  9
$PELEVATION
 40
0.0
  9
$THICKNESS
 40
0.0
  9
$LIMCHECK
 70
     0
  9
$CHAMFERA
 40
0.0
  9
$CHAMFERB
 40
0.0
  9
$SKPOLY
 70
     0
  9
$TDCREATE
 40
2452643.146717604
  9
$TDUPDATE
 40
2456804.553445637
  9
$TDINDWG
 40
0.0003608681
  9
$TDUSRTIMER
 40
2456804.469751493
  9
$USRTIMER
 70
     1
  9
$ANGBASE
 50
0.0
  9
$ANGDIR
 70
     0
  9
$PDMODE
 70
     0
  9
$PDSIZE
 40
0.0
  9
$PLINEWID
 40
0.0
  9
$COORDS
 70
     1
  9
$SPLFRAME
 70
     0
  9
$SPLINETYPE
 70
     6
  9
$SPLINESEGS
 70
     8
  9
$ATTDIA
 70
     0
  9
$ATTREQ
 70
     1
  9
$HANDLING
 70
     1
  9
$HANDSEED
  5
1B7
  9
$SURFTAB1
 70
     6
  9
$SURFTAB2
 70
     6
  9
$SURFTYPE
 70
     6
  9
$SURFU
 70
     6
  9
$SURFV
 70
     6
  9
$UCSNAME
  2

  9
$UCSORG
 10
0.0
 20
0.0
 30
0.0
  9
$UCSXDIR
 10
1.0
 20
0.0
 30
0.0
  9
$UCSYDIR
 10
0.0
 20
1.0
 30
0.0
  9
$PUCSNAME
  2

  9
$PUCSORG
 10
0.0
 20
0.0
 30
0.0
  9
$PUCSXDIR
 10
1.0
 20
0.0
 30
0.0
  9
$PUCSYDIR
 10
0.0
 20
1.0
 30
0.0
  9
$USERI1
 70
     0
  9
$USERI2
 70
     0
  9
$USERI3
 70
     0
  9
$USERI4
 70
     0
  9
$USERI5
 70
     0
  9
$USERR1
 40
0.0
  9
$USERR2
 40
0.0
  9
$USERR3
 40
0.0
  9
$USERR4
 40
0.0
  9
$USERR5
 40
0.0
  9
$WORLDVIEW
 70
     1
  9
$SHADEDGE
 70
     3
  9
$SHADEDIF
 70
    70
  9
$TILEMODE
 70
     1
  9
$MAXACTVP
 70
    64
  9
$PLIMCHECK
 70
     0
  9
$PEXTMIN
 10
0.0
 20
0.0
 30
0.0
  9
$PEXTMAX
 10
0.0
 20
0.0
 30
0.0
  9
$PLIMMIN
 10
0.0
 20
0.0
  9
$PLIMMAX
 10
0.0
 20
0.0
  9
$UNITMODE
 70
     0
  9
$VISRETAIN
 70
     1
  9
$PLINEGEN
 70
     0
  9
$PSLTSCALE
 70
     1
  0
ENDSEC
  0
SECTION
  2
TABLES
  0
TABLE
  2
VPORT
 70
     1
  0
VPORT
  2
*ACTIVE
 70
     0
 10
0.0
 20
0.0
 11
1.0
 21
1.0
 12
218.0657583979887
 22
74.2803083671229
 13
0.0
 23
0.0
 14
0.5
 24
0.5
 15
0.5
 25
0.5
 16
0.0
 26
0.0
 36
1.0
 17
-27.66959356597982
 27
-19.53870295786203
 37
0.0
 40
783.1309402836447
 41
1.996879875195008
 42
50.0
 43
0.0
 44
0.0
 50
0.0
 51
0.0
 71
    16
 72
  1000
 73
     1
 74
     3
 75
     0
 76
     0
 77
     0
 78
     0
  0
ENDTAB
  0
TABLE
  2
LTYPE
 70
     2
  0
LTYPE
  2
CONTINUOUS
 70
     0
  3
Solid line
 72
    65
 73
     0
 40
0.0
  0
LTYPE
  2
CENTERX2
 70
     0
  3
Center (2x) ________  __  ________  __  _____
 72
    65
 73
     4
 40
20.32
 49
12.7
 49
-2.54
 49
2.54
 49
-2.54
  0
ENDTAB
  0
TABLE
  2
LAYER
 70
     2
  0
LAYER
  2
0
 70
     0
 62
     7
  6
CONTINUOUS
  0
LAYER
  2
CONTORNO
 70
     0
 62
     7
  6
CONTINUOUS
  0
ENDTAB
  0
TABLE
  2
STYLE
 70
     2
  0
STYLE
  2
STANDARD
 70
     0
 40
0.0
 41
1.0
 50
0.0
 71
     0
 42
0.2
  3
arial.ttf
  4

  0
STYLE
  2
STILE1
 70
     0
 40
100.0
 41
1.0
 50
0.0
 71
     0
 42
0.2
  3
sanss___.ttf
  4

  0
ENDTAB
  0
TABLE
  2
VIEW
 70
     0
  0
ENDTAB
  0
TABLE
  2
UCS
 70
     0
  0
ENDTAB
  0
TABLE
  2
APPID
 70
     1
  0
APPID
  2
ACAD
 70
     0
  0
ENDTAB
  0
TABLE
  2
DIMSTYLE
 70
     2
  0
DIMSTYLE
  2
STANDARD
 70
     0
  3

  4

  5

  6

  7

 40
1.0
 41
0.18
 42
0.0625
 43
0.38
 44
0.18
 45
0.0
 46
0.0
 47
0.0
 48
0.0
140
0.18
141
0.09
142
0.0
143
25.4
144
1.0
145
0.0
146
1.0
147
0.09
 71
     0
 72
     0
 73
     1
 74
     1
 75
     0
 76
     0
 77
     0
 78
     0
170
     0
171
     2
172
     0
173
     0
174
     0
175
     0
176
     0
177
     0
178
     0
  0
DIMSTYLE
  2
ISO-25
 70
     0
  3

  4

  5

  6

  7

 40
1.0
 41
2.5
 42
0.625
 43
3.75
 44
1.25
 45
0.0
 46
0.0
 47
0.0
 48
0.0
140
2.5
141
2.5
142
0.0
143
0.03937007874016
144
1.0
145
0.0
146
1.0
147
0.625
 71
     0
 72
     0
 73
     0
 74
     0
 75
     0
 76
     0
 77
     1
 78
     8
170
     0
171
     3
172
     1
173
     0
174
     0
175
     0
176
     0
177
     0
178
     0
  0
ENDTAB
  0
ENDSEC
  0
SECTION
  2
BLOCKS
  0
BLOCK
  8
0
  2
$MODEL_SPACE
 70
     0
 10
0.0
 20
0.0
 30
0.0
  3
$MODEL_SPACE
  1

  0
ENDBLK
  5
21
  8
0
  0
BLOCK
 67
     1
  8
0
  2
$PAPER_SPACE
 70
     0
 10
0.0
 20
0.0
 30
0.0
  3
$PAPER_SPACE
  1

  0
ENDBLK
  5
5B
 67
     1
  8
0
  0
ENDSEC
  0
SECTION
  2
ENTITIES
  0
LINE
  5
166
  8
0
  6
CENTERX2
 62
     7
 10
82.04907135921607
 20
1.984653443280588
 30
0.0
 11
82.04907135921607
 21
251.5846534432791
 31
0.0
  0
POLYLINE
  5
167
  8
0
  6
CONTINUOUS
 62
     7
 66
     1
 10
0.0
 20
0.0
 30
0.0
 70
   128
  0
VERTEX
  5
17F
  8
0
  6
CONTINUOUS
 62
     7
 10
0.6602540673055506
 20
236.5846534432791
 30
0.0
  0
VERTEX
  5
180
  8
0
  6
CONTINUOUS
 62
     7
 10
0.8417359634193877
 20
238.5425463265789
 30
0.0
  0
VERTEX
  5
181
  8
0
  6
CONTINUOUS
 62
     7
 10
1.383076446218957
 20
240.4669391197828
 30
0.0
  0
VERTEX
  5
182
  8
0
  6
CONTINUOUS
 62
     7
 10
2.275013029808952
 20
242.3249049287812
 30
0.0
  0
VERTEX
  5
183
  8
0
  6
CONTINUOUS
 62
     7
 10
3.502284432092757
 20
244.0846534432791
 30
0.0
  0
VERTEX
  5
184
  8
0
  6
CONTINUOUS
 62
     7
 10
5.043891698995913
 20
245.7160748783796
 30
0.0
  0
VERTEX
  5
185
  8
0
  6
CONTINUOUS
 62
     7
 10
6.873457502894644
 20
247.191255161081
 30
0.0
  0
VERTEX
  5
186
  8
0
  6
CONTINUOUS
 62
     7
 10
8.95967746561005
 20
248.484953547683
 30
0.0
  0
VERTEX
  5
187
  8
0
  6
CONTINUOUS
 62
     7
 10
11.2668557851001
 20
249.5750345000785
 30
0.0
  0
VERTEX
  5
188
  8
0
  6
CONTINUOUS
 62
     7
 10
13.75551600070398
 20
250.4428464309828
 30
0.0
  0
VERTEX
  5
189
  8
0
  6
CONTINUOUS
 62
     7
 10
16.38307644621896
 20
251.073540837581
 30
0.0
  0
VERTEX
  5
18A
  8
0
  6
CONTINUOUS
 62
     7
 10
19.10457883370768
 20
251.4563263638781
 30
0.0
  0
VERTEX
  5
18B
  8
0
  6
CONTINUOUS
 62
     7
 10
21.87345750289465
 20
251.5846534432791
 30
0.0
  0
SEQEND
  5
1B3
  8
0
  6
CONTINUOUS
 62
     7
  0
POLYLINE
  5
168
  8
0
  6
CONTINUOUS
 62
     7
 66
     1
 10
0.0
 20
0.0
 30
0.0
 70
   128
  0
VERTEX
  5
18C
  8
0
  6
CONTINUOUS
 62
     7
 10
21.87345750289465
 20
1.984653443280588
 30
0.0
  0
VERTEX
  5
18D
  8
0
  6
CONTINUOUS
 62
     7
 10
19.10457883370768
 20
2.112980522681648
 30
0.0
  0
VERTEX
  5
18E
  8
0
  6
CONTINUOUS
 62
     7
 10
16.38307644621896
 20
2.495766048982371
 30
0.0
  0
VERTEX
  5
18F
  8
0
  6
CONTINUOUS
 62
     7
 10
13.75551600070398
 20
3.126460455580566
 30
0.0
  0
VERTEX
  5
190
  8
0
  6
CONTINUOUS
 62
     7
 10
11.2668557851001
 20
3.994272386481209
 30
0.0
  0
VERTEX
  5
191
  8
0
  6
CONTINUOUS
 62
     7
 10
8.95967746561005
 20
5.084353338880358
 30
0.0
  0
VERTEX
  5
192
  8
0
  6
CONTINUOUS
 62
     7
 10
6.873457502894644
 20
6.378051725478765
 30
0.0
  0
VERTEX
  5
193
  8
0
  6
CONTINUOUS
 62
     7
 10
5.043891698995913
 20
7.853232008180096
 30
0.0
  0
VERTEX
  5
194
  8
0
  6
CONTINUOUS
 62
     7
 10
3.502284432092757
 20
9.484653443280589
 30
0.0
  0
VERTEX
  5
195
  8
0
  6
CONTINUOUS
 62
     7
 10
2.275013029808952
 20
11.24440195778214
 30
0.0
  0
VERTEX
  5
196
  8
0
  6
CONTINUOUS
 62
     7
 10
1.383076446218957
 20
13.10236776678056
 30
0.0
  0
VERTEX
  5
197
  8
0
  6
CONTINUOUS
 62
     7
 10
0.8417359634193877
 20
15.0267605599808
 30
0.0
  0
VERTEX
  5
198
  8
0
  6
CONTINUOUS
 62
     7
 10
0.6602540673055506
 20
16.98465344328059
 30
0.0
  0
SEQEND
  5
1B4
  8
0
  6
CONTINUOUS
 62
     7
  0
LINE
  5
169
  8
0
  6
CONTINUOUS
 62
     7
 10
0.6602540673055506
 20
236.5846534432791
 30
0.0
 11
0.6602540673055506
 21
16.98465344328059
 31
0.0
  0
LINE
  5
16A
  8
0
  6
CONTINUOUS
 62
     7
 10
21.87345750289465
 20
251.5846534432791
 30
0.0
 11
80.04907135921607
 21
251.5846534432791
 31
0.0
  0
LINE
  5
16B
  8
0
  6
CONTINUOUS
 62
     7
 10
21.87345750289465
 20
1.984653443280588
 30
0.0
 11
80.04907135921607
 21
1.984653443280588
 31
0.0
  0
TEXT
  5
16C
  8
CONTORNO
  6
CONTINUOUS
 10
24.63982749905049
 20
83.9290918374906
 30
0.0
 40
20.0
  1
135
  7
STILE1
  0
LINE
  5
16D
  8
0
 10
80.04907135921607
 20
251.5846534432791
 30
0.0
 11
82.04907135921607
 21
243.5846534432791
 31
0.0
  0
LINE
  5
16E
  8
0
 10
82.04907135921607
 20
243.5846534432791
 30
0.0
 11
84.04907135921607
 21
251.5846534432791
 31
0.0
  0
LINE
  5
16F
  8
0
 10
80.04907135921607
 20
1.984653443280588
 30
0.0
 11
82.04907135921607
 21
9.984653443280589
 31
0.0
  0
LINE
  5
170
  8
0
 10
82.04907135921607
 20
9.984653443280589
 30
0.0
 11
84.04907135921607
 21
1.984653443280588
 31
0.0
  0
LINE
  5
171
  8
0
  6
CENTERX2
 62
     7
 10
232.0490713592161
 20
1.984653443280588
 30
0.0
 11
232.0490713592161
 21
251.5846534432791
 31
0.0
  0
LINE
  5
172
  8
0
  6
CENTERX2
 62
     7
 10
232.0490713592161
 20
1.984653443280588
 30
0.0
 11
232.0490713592161
 21
251.5846534432791
 31
0.0
  0
POLYLINE
  5
173
  8
0
  6
CONTINUOUS
 62
     7
 66
     1
 10
0.0
 20
0.0
 30
0.0
 70
   128
  0
VERTEX
  5
199
  8
0
  6
CONTINUOUS
 62
     7
 10
313.4378886511266
 20
236.5846534432791
 30
0.0
  0
VERTEX
  5
19A
  8
0
  6
CONTINUOUS
 62
     7
 10
313.2564067550128
 20
238.5425463265789
 30
0.0
  0
VERTEX
  5
19B
  8
0
  6
CONTINUOUS
 62
     7
 10
312.7150662722132
 20
240.4669391197828
 30
0.0
  0
VERTEX
  5
19C
  8
0
  6
CONTINUOUS
 62
     7
 10
311.8231296886232
 20
242.3249049287812
 30
0.0
  0
VERTEX
  5
19D
  8
0
  6
CONTINUOUS
 62
     7
 10
310.5958582863394
 20
244.0846534432791
 30
0.0
  0
VERTEX
  5
19E
  8
0
  6
CONTINUOUS
 62
     7
 10
309.0542510194363
 20
245.7160748783796
 30
0.0
  0
VERTEX
  5
19F
  8
0
  6
CONTINUOUS
 62
     7
 10
307.2246852155375
 20
247.191255161081
 30
0.0
  0
VERTEX
  5
1A0
  8
0
  6
CONTINUOUS
 62
     7
 10
305.1384652528221
 20
248.484953547683
 30
0.0
  0
VERTEX
  5
1A1
  8
0
  6
CONTINUOUS
 62
     7
 10
302.8312869333321
 20
249.5750345000785
 30
0.0
  0
VERTEX
  5
1A2
  8
0
  6
CONTINUOUS
 62
     7
 10
300.3426267177282
 20
250.4428464309828
 30
0.0
  0
VERTEX
  5
1A3
  8
0
  6
CONTINUOUS
 62
     7
 10
297.7150662722132
 20
251.073540837581
 30
0.0
  0
VERTEX
  5
1A4
  8
0
  6
CONTINUOUS
 62
     7
 10
294.9935638847245
 20
251.4563263638781
 30
0.0
  0
VERTEX
  5
1A5
  8
0
  6
CONTINUOUS
 62
     7
 10
292.2246852155375
 20
251.5846534432791
 30
0.0
  0
SEQEND
  5
1B5
  8
0
  6
CONTINUOUS
 62
     7
  0
POLYLINE
  5
174
  8
0
  6
CONTINUOUS
 62
     7
 66
     1
 10
0.0
 20
0.0
 30
0.0
 70
   128
  0
VERTEX
  5
1A6
  8
0
  6
CONTINUOUS
 62
     7
 10
292.2246852155375
 20
1.984653443280588
 30
0.0
  0
VERTEX
  5
1A7
  8
0
  6
CONTINUOUS
 62
     7
 10
294.9935638847245
 20
2.112980522681648
 30
0.0
  0
VERTEX
  5
1A8
  8
0
  6
CONTINUOUS
 62
     7
 10
297.7150662722132
 20
2.495766048982371
 30
0.0
  0
VERTEX
  5
1A9
  8
0
  6
CONTINUOUS
 62
     7
 10
300.3426267177282
 20
3.126460455580566
 30
0.0
  0
VERTEX
  5
1AA
  8
0
  6
CONTINUOUS
 62
     7
 10
302.8312869333321
 20
3.994272386481209
 30
0.0
  0
VERTEX
  5
1AB
  8
0
  6
CONTINUOUS
 62
     7
 10
305.1384652528221
 20
5.084353338880358
 30
0.0
  0
VERTEX
  5
1AC
  8
0
  6
CONTINUOUS
 62
     7
 10
307.2246852155375
 20
6.378051725478765
 30
0.0
  0
VERTEX
  5
1AD
  8
0
  6
CONTINUOUS
 62
     7
 10
309.0542510194363
 20
7.853232008180096
 30
0.0
  0
VERTEX
  5
1AE
  8
0
  6
CONTINUOUS
 62
     7
 10
310.5958582863394
 20
9.484653443280589
 30
0.0
  0
VERTEX
  5
1AF
  8
0
  6
CONTINUOUS
 62
     7
 10
311.8231296886232
 20
11.24440195778214
 30
0.0
  0
VERTEX
  5
1B0
  8
0
  6
CONTINUOUS
 62
     7
 10
312.7150662722132
 20
13.10236776678056
 30
0.0
  0
VERTEX
  5
1B1
  8
0
  6
CONTINUOUS
 62
     7
 10
313.2564067550128
 20
15.0267605599808
 30
0.0
  0
VERTEX
  5
1B2
  8
0
  6
CONTINUOUS
 62
     7
 10
313.4378886511266
 20
16.98465344328059
 30
0.0
  0
SEQEND
  5
1B6
  8
0
  6
CONTINUOUS
 62
     7
  0
LINE
  5
175
  8
0
  6
CONTINUOUS
 62
     7
 10
313.4378886511266
 20
236.5846534432791
 30
0.0
 11
313.4378886511266
 21
16.98465344328059
 31
0.0
  0
LINE
  5
176
  8
0
  6
CONTINUOUS
 62
     7
 10
292.2246852155375
 20
251.5846534432791
 30
0.0
 11
234.0490713592161
 21
251.5846534432791
 31
0.0
  0
LINE
  5
177
  8
0
  6
CONTINUOUS
 62
     7
 10
292.2246852155375
 20
1.984653443280588
 30
0.0
 11
234.0490713592161
 21
1.984653443280588
 31
0.0
  0
LINE
  5
178
  8
0
 10
234.0490713592161
 20
251.5846534432791
 30
0.0
 11
232.0490713592161
 21
243.5846534432791
 31
0.0
  0
LINE
  5
179
  8
0
 10
232.0490713592161
 20
243.5846534432791
 30
0.0
 11
230.0490713592161
 21
251.5846534432791
 31
0.0
  0
LINE
  5
17A
  8
0
 10
234.0490713592161
 20
1.984653443280588
 30
0.0
 11
232.0490713592161
 21
9.984653443280589
 31
0.0
  0
LINE
  5
17B
  8
0
 10
232.0490713592161
 20
9.984653443280589
 30
0.0
 11
230.0490713592161
 21
1.984653443280588
 31
0.0
  0
LINE
  5
17C
  8
0
 10
84.04907135921607
 20
251.5846534432791
 30
0.0
 11
230.0490713592161
 21
251.5846534432791
 31
0.0
  0
LINE
  5
17D
  8
0
 10
84.04907135921607
 20
1.984653443280588
 30
0.0
 11
230.0490713592161
 21
1.984653443280588
 31
0.0
  0
TEXT
  5
17E
  8
CONTORNO
  6
CONTINUOUS
 10
207.8083255264363
 20
83.9290918374906
 30
0.0
 40
20.0
  1
135
  7
STILE1
  0
ENDSEC
  0
EOF
