  0
SECTION
  2
HEADER
  9
$ACADVER
  1
AC1009
  9
$DWGCODEPAGE
  3
ansi_1252
  9
$INSBASE
 10
0.0
 20
0.0
 30
0.0
  9
$EXTMIN
 10
-68.7037009301
 20
-66.0
 30
0.0
  9
$EXTMAX
 10
78.5731112119
 20
457.4159265359
 30
0.0
  9
$LIMMIN
 10
0.0
 20
0.0
  9
$LIMMAX
 10
420.0
 20
297.0
  9
$ORTHOMODE
 70
     1
  9
$REGENMODE
 70
     1
  9
$FILLMODE
 70
     1
  9
$QTEXTMODE
 70
     0
  9
$MIRRTEXT
 70
     1
  9
$DRAGMODE
 70
     2
  9
$LTSCALE
 40
1.0
  9
$OSMODE
 70
  1023
  9
$ATTMODE
 70
     1
  9
$TEXTSIZE
 40
3.5
  9
$TRACEWID
 40
1.0
  9
$TEXTSTYLE
  7
STANDARD
  9
$CLAYER
  8
0
  9
$CELTYPE
  6
BYLAYER
  9
$CECOLOR
 62
   256
  9
$DIMSCALE
 40
1.0
  9
$DIMASZ
 40
3.302
  9
$DIMEXO
 40
1.0
  9
$DIMDLI
 40
3.75
  9
$DIMRND
 40
0.0
  9
$DIMDLE
 40
0.0
  9
$DIMEXE
 40
1.0
  9
$DIMTP
 40
0.0
  9
$DIMTM
 40
0.0
  9
$DIMTXT
 40
3.5
  9
$DIMCEN
 40
2.5
  9
$DIMTSZ
 40
0.0
  9
$DIMTOL
 70
     0
  9
$DIMLIM
 70
     0
  9
$DIMTIH
 70
     1
  9
$DIMTOH
 70
     1
  9
$DIMSE1
 70
     0
  9
$DIMSE2
 70
     0
  9
$DIMTAD
 70
     1
  9
$DIMZIN
 70
     0
  9
$DIMBLK
  1

  9
$DIMASO
 70
     1
  9
$DIMSHO
 70
     1
  9
$DIMPOST
  1

  9
$DIMAPOST
  1

  9
$DIMALT
 70
     0
  9
$DIMALTD
 70
     3
  9
$DIMALTF
 40
0.0393700787
  9
$DIMLFAC
 40
1.0
  9
$DIMTOFL
 70
     1
  9
$DIMTVP
 40
0.0
  9
$DIMTIX
 70
     0
  9
$DIMSOXD
 70
     0
  9
$DIMSAH
 70
     0
  9
$DIMBLK1
  1

  9
$DIMBLK2
  1

  9
$DIMSTYLE
  2
ISO-25
  9
$DIMCLRD
 70
     0
  9
$DIMCLRE
 70
     0
  9
$DIMCLRT
 70
     0
  9
$DIMTFAC
 40
1.0
  9
$DIMGAP
 40
1.524
  9
$LUNITS
 70
     2
  9
$LUPREC
 70
     2
  9
$SKETCHINC
 40
1.0
  9
$FILLETRAD
 40
10.0
  9
$AUNITS
 70
     0
  9
$AUPREC
 70
     2
  9
$MENU
  1
.
  9
$ELEVATION
 40
0.0
  9
$PELEVATION
 40
0.0
  9
$THICKNESS
 40
0.0
  9
$LIMCHECK
 70
     0
  9
$CHAMFERA
 40
0.0
  9
$CHAMFERB
 40
0.0
  9
$SKPOLY
 70
     0
  9
$TDCREATE
 40
2457831.760243241
  9
$TDUPDATE
 40
2457843.307379051
  9
$TDINDWG
 40
0.0015853472
  9
$TDUSRTIMER
 40
2457843.223698044
  9
$USRTIMER
 70
     1
  9
$ANGBASE
 50
0.0
  9
$ANGDIR
 70
     0
  9
$PDMODE
 70
     0
  9
$PDSIZE
 40
-1.0
  9
$PLINEWID
 40
0.0
  9
$COORDS
 70
     1
  9
$SPLFRAME
 70
     0
  9
$SPLINETYPE
 70
     6
  9
$SPLINESEGS
 70
     8
  9
$ATTDIA
 70
     0
  9
$ATTREQ
 70
     1
  9
$HANDLING
 70
     1
  9
$HANDSEED
  5
146
  9
$SURFTAB1
 70
     6
  9
$SURFTAB2
 70
     6
  9
$SURFTYPE
 70
     6
  9
$SURFU
 70
     6
  9
$SURFV
 70
     6
  9
$UCSNAME
  2

  9
$UCSORG
 10
0.0
 20
0.0
 30
0.0
  9
$UCSXDIR
 10
1.0
 20
0.0
 30
0.0
  9
$UCSYDIR
 10
0.0
 20
1.0
 30
0.0
  9
$PUCSNAME
  2

  9
$PUCSORG
 10
0.0
 20
0.0
 30
0.0
  9
$PUCSXDIR
 10
1.0
 20
0.0
 30
0.0
  9
$PUCSYDIR
 10
0.0
 20
1.0
 30
0.0
  9
$USERI1
 70
     0
  9
$USERI2
 70
     0
  9
$USERI3
 70
     0
  9
$USERI4
 70
     0
  9
$USERI5
 70
     0
  9
$USERR1
 40
0.0
  9
$USERR2
 40
0.0
  9
$USERR3
 40
0.0
  9
$USERR4
 40
0.0
  9
$USERR5
 40
0.0
  9
$WORLDVIEW
 70
     1
  9
$SHADEDGE
 70
     3
  9
$SHADEDIF
 70
    70
  9
$TILEMODE
 70
     1
  9
$MAXACTVP
 70
    64
  9
$PLIMCHECK
 70
     0
  9
$PEXTMIN
 10
1.000000000000000E+20
 20
1.000000000000000E+20
 30
1.000000000000000E+20
  9
$PEXTMAX
 10
-1.000000000000000E+20
 20
-1.000000000000000E+20
 30
-1.000000000000000E+20
  9
$PLIMMIN
 10
0.0
 20
0.0
  9
$PLIMMAX
 10
0.0
 20
0.0
  9
$UNITMODE
 70
     0
  9
$VISRETAIN
 70
     1
  9
$PLINEGEN
 70
     0
  9
$PSLTSCALE
 70
     1
  0
ENDSEC
  0
SECTION
  2
TABLES
  0
TABLE
  2
VPORT
 70
     1
  0
VPORT
  2
*ACTIVE
 70
     0
 10
0.0
 20
0.0
 11
1.0
 21
1.0
 12
51.07790946401886
 22
-7.163463078559772
 13
0.0
 23
0.0
 14
10.0
 24
10.0
 15
10.0
 25
10.0
 16
0.0
 26
0.0
 36
1.0
 17
0.0
 27
0.0
 37
0.0
 40
321.5025051208136
 41
2.017173051519154
 42
50.0
 43
0.0
 44
0.0
 50
0.0
 51
0.0
 71
    16
 72
   100
 73
     1
 74
     3
 75
     0
 76
     0
 77
     0
 78
     0
  0
ENDTAB
  0
TABLE
  2
LTYPE
 70
     6
  0
LTYPE
  2
CONTINUOUS
 70
     0
  3
Solid line
 72
    65
 73
     0
 40
0.0
  0
LTYPE
  2
HIDDEN
 70
     0
  3
Hidden __ __ __ __ __ __ __ __ __ __ __ __ __ __
 72
    65
 73
     2
 40
1.905
 49
1.27
 49
-0.635
  0
LTYPE
  2
PHANTOM
 70
     0
  3
Phantom ______  __  __  ______  __  __  ______
 72
    65
 73
     6
 40
12.7
 49
6.35
 49
-1.27
 49
1.27
 49
-1.27
 49
1.27
 49
-1.27
  0
LTYPE
  2
CENTER
 70
     0
  3
Center ____ _ ____ _ ____ _ ____ _ ____ _ ____
 72
    65
 73
     4
 40
10.16
 49
6.35
 49
-1.27
 49
1.27
 49
-1.27
  0
LTYPE
  2
CENTERX2
 70
     0
  3
Center (2x) ________  __  ________  __  _____
 72
    65
 73
     4
 40
20.32
 49
12.7
 49
-2.54
 49
2.54
 49
-2.54
  0
LTYPE
  2
DOT2
 70
     0
  3
Dot (.5x) ........................................
 72
    65
 73
     2
 40
0.635
 49
0.0
 49
-0.635
  0
ENDTAB
  0
TABLE
  2
LAYER
 70
     1
  0
LAYER
  2
0
 70
     0
 62
     7
  6
CONTINUOUS
  0
ENDTAB
  0
TABLE
  2
STYLE
 70
     1
  0
STYLE
  2
STANDARD
 70
     0
 40
0.0
 41
1.0
 50
0.0
 71
     0
 42
3.5
  3
txt
  4

  0
ENDTAB
  0
TABLE
  2
VIEW
 70
     0
  0
ENDTAB
  0
TABLE
  2
UCS
 70
     0
  0
ENDTAB
  0
TABLE
  2
APPID
 70
     1
  0
APPID
  2
ACAD
 70
     0
  0
ENDTAB
  0
TABLE
  2
DIMSTYLE
 70
     1
  0
DIMSTYLE
  2
ISO-25
 70
     0
  3

  4

  5

  6

  7

 40
1.0
 41
2.5
 42
0.625
 43
3.75
 44
1.25
 45
0.0
 46
0.0
 47
0.0
 48
0.0
140
2.5
141
2.5
142
0.0
143
0.0393700787
144
1.0
145
0.0
146
1.0
147
0.625
 71
     0
 72
     0
 73
     0
 74
     0
 75
     0
 76
     0
 77
     1
 78
     8
170
     0
171
     3
172
     1
173
     0
174
     0
175
     0
176
     0
177
     0
178
     0
  0
ENDTAB
  0
ENDSEC
  0
SECTION
  2
BLOCKS
  0
BLOCK
  8
0
  2
$MODEL_SPACE
 70
     0
 10
0.0
 20
0.0
 30
0.0
  3
$MODEL_SPACE
  1

  0
ENDBLK
  5
21
  8
0
  0
BLOCK
 67
     1
  8
0
  2
$PAPER_SPACE
 70
     0
 10
0.0
 20
0.0
 30
0.0
  3
$PAPER_SPACE
  1

  0
ENDBLK
  5
1D
 67
     1
  8
0
  0
ENDSEC
  0
SECTION
  2
ENTITIES
  0
CIRCLE
  5
75
  8
0
 10
-31.8155948031
 20
-36.2869780703
 30
0.0
 40
5.0
  0
CIRCLE
  5
76
  8
0
 10
-10.8155948031
 20
-33.2869780703
 30
0.0
 40
5.0
  0
CIRCLE
  5
77
  8
0
 10
-5.4077974016
 20
-16.6434890352
 30
0.0
 40
5.0
  0
CIRCLE
  5
78
  8
0
 10
0.0
 20
0.0
 30
0.0
 40
5.0
  0
CIRCLE
  5
79
  8
0
 10
-32.0
 20
3.0
 30
0.0
 40
5.0
  0
CIRCLE
  5
7A
  8
0
 10
-31.8155948031
 20
427.7029046062
 30
0.0
 40
5.0
  0
CIRCLE
  5
7B
  8
0
 10
-5.4077974016
 20
408.0594155711
 30
0.0
 40
5.0
  0
CIRCLE
  5
7C
  8
0
 10
-32.0
 20
388.4159265359
 30
0.0
 40
5.0
  0
CIRCLE
  5
7D
  8
0
 10
0.0
 20
391.4159265359
 30
0.0
 40
5.0
  0
CIRCLE
  5
7E
  8
0
 10
-10.8155948031
 20
424.7029046062
 30
0.0
 40
5.0
  0
CIRCLE
  5
8D
  8
0
 10
26.0
 20
195.7079632679
 30
0.0
 40
15.50000000000006
  0
LINE
  5
90
  8
0
 10
-31.7718263516
 20
297.4159265359
 30
0.0
 11
-29.83438975151579
 21
291.5619449019
 31
0.0
  0
LINE
  5
91
  8
0
 10
-31.7718263516
 20
297.4159265359
 30
0.0
 11
-66.7459615819
 21
405.0552467609
 31
0.0
  0
LINE
  5
92
  8
0
 10
-28.7037009301
 20
457.4159265359
 30
0.0
 11
-7.6744564453
 21
457.4159265359
 31
0.0
  0
LINE
  5
93
  8
0
 10
30.3678042065
 20
429.7766063109
 30
0.0
 11
73.3743960722
 21
297.4159265359
 31
0.0
  0
LINE
  5
94
  8
0
 10
78.5731112119
 20
281.7079632679
 30
0.0
 11
76.63567461181579
 21
287.5619449019
 31
0.0
  0
LINE
  5
95
  8
0
 10
73.3743960722
 20
94.0
 30
0.0
 11
75.31183267226507
 21
99.85398163390492
 31
0.0
  0
LINE
  5
96
  8
0
 10
30.3678042065
 20
-38.360679775
 30
0.0
 11
73.3743960722
 21
94.0
 31
0.0
  0
LINE
  5
97
  8
0
 10
-28.7037009301
 20
-66.0
 30
0.0
 11
-7.6744564453
 21
-66.0
 31
0.0
  0
LINE
  5
98
  8
0
 10
-31.7718263516
 20
94.0
 30
0.0
 11
-66.7459615819
 21
-13.639320225
 31
0.0
  0
LINE
  5
99
  8
0
 10
-26.5731112119
 20
109.7079632679
 30
0.0
 11
-28.51054781199558
 21
103.8539816339029
 31
0.0
  0
LINE
  5
9A
  8
0
 10
78.5731112119
 20
109.7079632679
 30
0.0
 11
78.5731112119
 21
281.7079632679
 31
0.0
  0
LINE
  5
9B
  8
0
 10
-26.5731112119
 20
109.7079632679
 30
0.0
 11
-26.5731112119
 21
281.7079632679
 31
0.0
  0
ARC
  5
9C
  8
0
 10
-28.7037009301
 20
417.4159265359
 30
0.0
 40
40.00000000000024
 50
90.0
 51
198.0
  0
ARC
  5
9D
  8
0
 10
-7.6744564453
 20
417.4159265359
 30
0.0
 40
40.00000000000047
 50
18.0
 51
90.0
  0
ARC
  5
9E
  8
0
 10
-7.6744564453
 20
-26.0
 30
0.0
 40
40.00000000000019
 50
270.0
 51
342.0
  0
ARC
  5
9F
  8
0
 10
-28.7037009301
 20
-26.0
 30
0.0
 40
40.0000000000001
 50
162.0
 51
270.0
  0
LINE
  5
C9
  8
0
 10
-29.83438975151579
 20
291.5619449019
 30
0.0
 11
-20.74571199616214
 21
289.5619449019
 31
0.0
  0
LINE
  5
CA
  8
0
 10
-20.74571199616214
 20
289.5619449019
 30
0.0
 11
-28.51054781198421
 21
287.5619449019
 31
0.0
  0
LINE
  5
CB
  8
0
 10
75.3118326722842
 20
291.5619449019
 30
0.0
 11
67.54699685646213
 21
289.5619449019
 31
0.0
  0
LINE
  5
CC
  8
0
 10
67.54699685646213
 20
289.5619449019
 30
0.0
 11
76.63567461181577
 21
287.5619449019
 31
0.0
  0
LINE
  5
CD
  8
0
 10
-28.5105478119842
 20
287.5619449019
 30
0.0
 11
-26.5731112119
 21
281.7079632679
 31
0.0
  0
LINE
  5
CE
  8
0
 10
75.31183267228421
 20
291.5619449019
 30
0.0
 11
73.3743960722
 21
297.4159265359
 31
0.0
  0
LINE
  5
CF
  8
0
 10
-29.83438975151579
 20
99.85398163389999
 30
0.0
 11
-20.74571199616214
 21
101.8539816339
 31
0.0
  0
LINE
  5
D0
  8
0
 10
-20.74571199616214
 20
101.8539816339
 30
0.0
 11
-28.51054781198421
 21
103.8539816339
 31
0.0
  0
LINE
  5
D1
  8
0
 10
75.3118326722842
 20
99.85398163389999
 30
0.0
 11
67.54699685646213
 21
101.8539816339
 31
0.0
  0
LINE
  5
D2
  8
0
 10
67.54699685646213
 20
101.8539816339
 30
0.0
 11
76.63567461181577
 21
103.8539816339
 31
0.0
  0
LINE
  5
D3
  8
0
 10
76.63567461180249
 20
103.8539816338971
 30
0.0
 11
78.5731112119
 21
109.7079632679
 31
0.0
  0
LINE
  5
D4
  8
0
 10
-29.83438975153819
 20
99.85398163389506
 30
0.0
 11
-31.7718263516
 21
94.0
 31
0.0
  0
ENDSEC
  0
EOF
