  0
SECTION
  2
HEADER
  9
$ACADVER
  1
AC1014
  9
$ACADMAINTVER
 70
     9
  9
$DWGCODEPAGE
  3
ANSI_1252
  9
$INSBASE
 10
0.0
 20
0.0
 30
0.0
  9
$EXTMIN
 10
-1202.31079875274
 20
45.36077793089856
 30
0.0
  9
$EXTMAX
 10
-267.6467793020256
 20
586.0772364205335
 30
0.0
  9
$LIMMIN
 10
0.0
 20
0.0
  9
$LIMMAX
 10
12.0
 20
9.0
  9
$ORTHOMODE
 70
     0
  9
$REGENMODE
 70
     1
  9
$FILLMODE
 70
     1
  9
$QTEXTMODE
 70
     0
  9
$MIRRTEXT
 70
     0
  9
$DRAGMODE
 70
     2
  9
$LTSCALE
 40
1.0
  9
$OSMODE
 70
  1023
  9
$ATTMODE
 70
     1
  9
$TEXTSIZE
 40
0.2
  9
$TRACEWID
 40
0.05
  9
$TEXTSTYLE
  7
STANDARD
  9
$CLAYER
  8
0
  9
$CELTYPE
  6
BYLAYER
  9
$CECOLOR
 62
   256
  9
$CELTSCALE
 40
1.0
  9
$DELOBJ
 70
     1
  9
$DISPSILH
 70
     0
  9
$DIMSCALE
 40
1.0
  9
$DIMASZ
 40
0.18
  9
$DIMEXO
 40
0.0625
  9
$DIMDLI
 40
0.38
  9
$DIMRND
 40
0.0
  9
$DIMDLE
 40
0.0
  9
$DIMEXE
 40
0.18
  9
$DIMTP
 40
0.0
  9
$DIMTM
 40
0.0
  9
$DIMTXT
 40
0.18
  9
$DIMCEN
 40
0.09
  9
$DIMTSZ
 40
0.0
  9
$DIMTOL
 70
     0
  9
$DIMLIM
 70
     0
  9
$DIMTIH
 70
     1
  9
$DIMTOH
 70
     1
  9
$DIMSE1
 70
     0
  9
$DIMSE2
 70
     0
  9
$DIMTAD
 70
     0
  9
$DIMZIN
 70
     0
  9
$DIMBLK
  1

  9
$DIMASO
 70
     1
  9
$DIMSHO
 70
     1
  9
$DIMPOST
  1

  9
$DIMAPOST
  1

  9
$DIMALT
 70
     0
  9
$DIMALTD
 70
     2
  9
$DIMALTF
 40
25.4
  9
$DIMLFAC
 40
1.0
  9
$DIMTOFL
 70
     0
  9
$DIMTVP
 40
0.0
  9
$DIMTIX
 70
     0
  9
$DIMSOXD
 70
     0
  9
$DIMSAH
 70
     0
  9
$DIMBLK1
  1

  9
$DIMBLK2
  1

  9
$DIMSTYLE
  2
STANDARD
  9
$DIMCLRD
 70
     0
  9
$DIMCLRE
 70
     0
  9
$DIMCLRT
 70
     0
  9
$DIMTFAC
 40
1.0
  9
$DIMGAP
 40
0.09
  9
$DIMJUST
 70
     0
  9
$DIMSD1
 70
     0
  9
$DIMSD2
 70
     0
  9
$DIMTOLJ
 70
     1
  9
$DIMTZIN
 70
     0
  9
$DIMALTZ
 70
     0
  9
$DIMALTTZ
 70
     0
  9
$DIMFIT
 70
     5
  9
$DIMUPT
 70
     0
  9
$DIMUNIT
 70
     2
  9
$DIMDEC
 70
     4
  9
$DIMTDEC
 70
     4
  9
$DIMALTU
 70
     2
  9
$DIMALTTD
 70
     2
  9
$DIMTXSTY
  7
STANDARD
  9
$DIMAUNIT
 70
     0
  9
$LUNITS
 70
     2
  9
$LUPREC
 70
     4
  9
$SKETCHINC
 40
0.1
  9
$FILLETRAD
 40
0.0
  9
$AUNITS
 70
     0
  9
$AUPREC
 70
     0
  9
$MENU
  1
.
  9
$ELEVATION
 40
0.0
  9
$PELEVATION
 40
0.0
  9
$THICKNESS
 40
0.0
  9
$LIMCHECK
 70
     0
  9
$CHAMFERA
 40
0.0
  9
$CHAMFERB
 40
0.0
  9
$CHAMFERC
 40
0.0
  9
$CHAMFERD
 40
0.0
  9
$SKPOLY
 70
     0
  9
$TDCREATE
 40
2456001.577677766
  9
$TDUPDATE
 40
2459114.7187514
  9
$TDINDWG
 40
0.0033598148
  9
$TDUSRTIMER
 40
0.0006301505
  9
$USRTIMER
 70
     1
  9
$ANGBASE
 50
0.0
  9
$ANGDIR
 70
     0
  9
$PDMODE
 70
     0
  9
$PDSIZE
 40
0.0
  9
$PLINEWID
 40
0.0
  9
$COORDS
 70
     1
  9
$SPLFRAME
 70
     0
  9
$SPLINETYPE
 70
     6
  9
$SPLINESEGS
 70
     8
  9
$ATTDIA
 70
     0
  9
$ATTREQ
 70
     1
  9
$HANDLING
 70
     1
  9
$HANDSEED
  5
450
  9
$SURFTAB1
 70
     6
  9
$SURFTAB2
 70
     6
  9
$SURFTYPE
 70
     6
  9
$SURFU
 70
     6
  9
$SURFV
 70
     6
  9
$UCSNAME
  2

  9
$UCSORG
 10
0.0
 20
0.0
 30
0.0
  9
$UCSXDIR
 10
1.0
 20
0.0
 30
0.0
  9
$UCSYDIR
 10
0.0
 20
1.0
 30
0.0
  9
$PUCSNAME
  2

  9
$PUCSORG
 10
0.0
 20
0.0
 30
0.0
  9
$PUCSXDIR
 10
1.0
 20
0.0
 30
0.0
  9
$PUCSYDIR
 10
0.0
 20
1.0
 30
0.0
  9
$USERI1
 70
     0
  9
$USERI2
 70
     0
  9
$USERI3
 70
     0
  9
$USERI4
 70
     0
  9
$USERI5
 70
     0
  9
$USERR1
 40
0.0
  9
$USERR2
 40
0.0
  9
$USERR3
 40
0.0
  9
$USERR4
 40
0.0
  9
$USERR5
 40
0.0
  9
$WORLDVIEW
 70
     1
  9
$SHADEDGE
 70
     3
  9
$SHADEDIF
 70
    70
  9
$TILEMODE
 70
     1
  9
$MAXACTVP
 70
    64
  9
$PINSBASE
 10
0.0
 20
0.0
 30
0.0
  9
$PLIMCHECK
 70
     0
  9
$PEXTMIN
 10
0.0
 20
0.0
 30
0.0
  9
$PEXTMAX
 10
0.0
 20
0.0
 30
0.0
  9
$PLIMMIN
 10
0.0
 20
0.0
  9
$PLIMMAX
 10
0.0
 20
0.0
  9
$UNITMODE
 70
     0
  9
$VISRETAIN
 70
     1
  9
$PLINEGEN
 70
     0
  9
$PSLTSCALE
 70
     1
  9
$TREEDEPTH
 70
  3020
  9
$PICKSTYLE
 70
     0
  9
$CMLSTYLE
  2
STANDARD
  9
$CMLJUST
 70
     0
  9
$CMLSCALE
 40
1.0
  9
$PROXYGRAPHICS
 70
     1
  9
$MEASUREMENT
 70
     0
  0
ENDSEC
  0
SECTION
  2
CLASSES
  0
CLASS
  1
ACDBDICTIONARYWDFLT
  2
AcDbDictionaryWithDefault
  3
ObjectDBX Classes
 90
        0
280
     0
281
     0
  0
CLASS
  1
MATERIAL
  2
AcDbMaterial
  3
ObjectDBX Classes
 90
     1153
280
     0
281
     0
  0
CLASS
  1
SCALE
  2
AcDbScale
  3
ObjectDBX Classes
 90
     1153
280
     0
281
     0
  0
CLASS
  1
VISUALSTYLE
  2
AcDbVisualStyle
  3
ObjectDBX Classes
 90
     4095
280
     0
281
     0
  0
CLASS
  1
TABLESTYLE
  2
AcDbTableStyle
  3
ObjectDBX Classes
 90
     4095
280
     0
281
     0
  0
CLASS
  1
MLEADERSTYLE
  2
AcDbMLeaderStyle
  3
ACDB_MLEADERSTYLE_CLASS
 90
     4095
280
     0
281
     0
  0
CLASS
  1
XRECORD
  2
AcDbXrecord
  3
ObjectDBX Classes
 90
        0
280
     0
281
     0
  0
CLASS
  1
LWPOLYLINE
  2
AcDbPolyline
  3
ObjectDBX Classes
 90
        0
280
     0
281
     1
  0
CLASS
  1
HATCH
  2
AcDbHatch
  3
ObjectDBX Classes
 90
        0
280
     0
281
     1
  0
ENDSEC
  0
SECTION
  2
TABLES
  0
TABLE
  2
VPORT
  5
3E0
330
0
100
AcDbSymbolTable
 70
     1
  0
VPORT
  5
3F7
330
3E0
100
AcDbSymbolTableRecord
100
AcDbViewportTableRecord
  2
*ACTIVE
 70
     0
 10
0.0
 20
0.0
 11
1.0
 21
1.0
 12
-267.9448040156729
 22
336.7967484305344
 13
0.0
 23
0.0
 14
0.5
 24
0.5
 15
0.5
 25
0.5
 16
0.0
 26
0.0
 36
1.0
 17
0.0
 27
0.0
 37
0.0
 40
1007.704327833434
 41
2.091520861372813
 42
50.0
 43
0.0
 44
0.0
 50
0.0
 51
0.0
 71
    16
 72
  1000
 73
     1
 74
     3
 75
     0
 76
     0
 77
     0
 78
     0
  0
ENDTAB
  0
TABLE
  2
LTYPE
  5
3DD
330
0
100
AcDbSymbolTable
 70
     2
  0
LTYPE
  5
3EB
330
3DD
100
AcDbSymbolTableRecord
100
AcDbLinetypeTableRecord
  2
BYBLOCK
 70
     0
  3

 72
    65
 73
     0
 40
0.0
  0
LTYPE
  5
3EC
330
3DD
100
AcDbSymbolTableRecord
100
AcDbLinetypeTableRecord
  2
BYLAYER
 70
     0
  3

 72
    65
 73
     0
 40
0.0
  0
LTYPE
  5
3ED
330
3DD
100
AcDbSymbolTableRecord
100
AcDbLinetypeTableRecord
  2
CONTINUOUS
 70
     0
  3
Solid line
 72
    65
 73
     0
 40
0.0
  0
LTYPE
  5
3F9
330
3DD
100
AcDbSymbolTableRecord
100
AcDbLinetypeTableRecord
  2
CENTERX2
 70
     0
  3
Center (2x) ________  __  ________  __  _____
 72
    65
 73
     4
 40
20.32
 49
12.7
 74
     0
 49
-2.54
 74
     0
 49
2.54
 74
     0
 49
-2.54
 74
     0
  0
ENDTAB
  0
TABLE
  2
LAYER
  5
3DB
330
0
100
AcDbSymbolTable
 70
     1
  0
LAYER
  5
3E8
330
3DB
100
AcDbSymbolTableRecord
100
AcDbLayerTableRecord
  2
0
 70
     0
 62
     7
  6
CONTINUOUS
  0
ENDTAB
  0
TABLE
  2
STYLE
  5
3DC
330
0
100
AcDbSymbolTable
 70
     3
  0
STYLE
  5
3E9
330
3DC
100
AcDbSymbolTableRecord
100
AcDbTextStyleTableRecord
  2
STANDARD
 70
     0
 40
0.0
 41
1.0
 50
0.0
 71
     0
 42
0.2
  3
txt.shx
  4

  0
STYLE
  5
400
330
3DC
100
AcDbSymbolTableRecord
100
AcDbTextStyleTableRecord
  2
ANNOTATIVE
 70
     0
 40
0.0
 41
1.0
 50
0.0
 71
     0
 42
0.2
  3
txt
  4

  0
STYLE
  5
401
330
3DC
100
AcDbSymbolTableRecord
100
AcDbTextStyleTableRecord
  2
ANNOTATIVA
 70
     0
 40
0.0
 41
1.0
 50
0.0
 71
     0
 42
0.2
  3
txt.shx
  4

  0
ENDTAB
  0
TABLE
  2
VIEW
  5
3DE
330
0
100
AcDbSymbolTable
 70
     0
  0
ENDTAB
  0
TABLE
  2
UCS
  5
3DF
330
0
100
AcDbSymbolTable
 70
     0
  0
ENDTAB
  0
TABLE
  2
APPID
  5
3E1
330
0
100
AcDbSymbolTable
 70
     7
  0
APPID
  5
3EA
330
3E1
100
AcDbSymbolTableRecord
100
AcDbRegAppTableRecord
  2
ACAD
 70
     0
  0
APPID
  5
403
330
3E1
100
AcDbSymbolTableRecord
100
AcDbRegAppTableRecord
  2
ACADANNOTATIVE
 70
     0
  0
APPID
  5
404
330
3E1
100
AcDbSymbolTableRecord
100
AcDbRegAppTableRecord
  2
ACAD_MLEADERVER
 70
     0
  0
APPID
  5
405
330
3E1
100
AcDbSymbolTableRecord
100
AcDbRegAppTableRecord
  2
ACADANNOPO
 70
     0
  0
APPID
  5
406
330
3E1
100
AcDbSymbolTableRecord
100
AcDbRegAppTableRecord
  2
ACAD_DSTYLE_DIMJAG
 70
     0
  0
APPID
  5
407
330
3E1
100
AcDbSymbolTableRecord
100
AcDbRegAppTableRecord
  2
ACAD_DSTYLE_DIMTALN
 70
     0
  0
APPID
  5
408
330
3E1
100
AcDbSymbolTableRecord
100
AcDbRegAppTableRecord
  2
ACAD_EXEMPT_FROM_CAD_STAND
 70
     0
  0
ENDTAB
  0
TABLE
  2
DIMSTYLE
  5
3E2
330
0
100
AcDbSymbolTable
 70
     4
  0
DIMSTYLE
105
409
330
3E2
100
AcDbSymbolTableRecord
100
AcDbDimStyleTableRecord
  2
STANDARD
 70
     0
  3

  4

  5

  6

  7

 40
1.0
 41
0.18
 42
0.0625
 43
0.38
 44
0.18
 45
0.0
 46
0.0
 47
0.0
 48
0.0
140
0.18
141
0.09
142
0.0
143
25.4
144
1.0
145
0.0
146
1.0
147
0.09
 71
     0
 72
     0
 73
     1
 74
     1
 75
     0
 76
     0
 77
     0
 78
     0
170
     0
171
     2
172
     0
173
     0
174
     0
175
     0
176
     0
177
     0
178
     0
270
     2
271
     4
272
     4
273
     2
274
     2
340
3E9
275
     0
280
     0
281
     0
282
     0
283
     1
284
     0
285
     0
286
     0
287
     3
288
     0
  0
DIMSTYLE
105
40A
330
3E2
100
AcDbSymbolTableRecord
100
AcDbDimStyleTableRecord
  2
ANNOTATIVE
 70
     0
  3

  4

  5

  6

  7

 40
1.0
 41
0.18
 42
0.0625
 43
0.38
 44
0.18
 45
0.0
 46
0.0
 47
0.0
 48
0.0
140
0.18
141
0.09
142
0.0
143
25.4
144
1.0
145
0.0
146
1.0
147
0.09
 71
     0
 72
     0
 73
     1
 74
     1
 75
     0
 76
     0
 77
     0
 78
     0
170
     0
171
     2
172
     0
173
     0
174
     0
175
     0
176
     0
177
     0
178
     0
270
     2
271
     4
272
     4
273
     2
274
     2
340
3E9
275
     0
280
     0
281
     0
282
     0
283
     1
284
     0
285
     0
286
     0
287
     3
288
     0
  0
DIMSTYLE
105
40B
330
3E2
100
AcDbSymbolTableRecord
100
AcDbDimStyleTableRecord
  2
ANNOTATIVA
 70
     0
  3

  4

  5

  6

  7

 40
0.0
 41
0.18
 42
0.0625
 43
0.38
 44
0.18
 45
0.0
 46
0.0
 47
0.0
 48
0.0
140
0.18
141
0.09
142
0.0
143
25.4
144
1.0
145
0.0
146
1.0
147
0.09
 71
     0
 72
     0
 73
     1
 74
     1
 75
     0
 76
     0
 77
     0
 78
     0
170
     0
171
     2
172
     0
173
     0
174
     0
175
     0
176
     0
177
     0
178
     0
270
     2
271
     4
272
     4
273
     2
274
     2
340
3E9
275
     0
280
     0
281
     0
282
     0
283
     1
284
     0
285
     0
286
     0
287
     3
288
     0
  0
DIMSTYLE
105
40C
330
3E2
100
AcDbSymbolTableRecord
100
AcDbDimStyleTableRecord
  2
ISO-25
 70
     0
  3

  4

  5

  6

  7

 40
1.0
 41
2.5
 42
0.625
 43
3.75
 44
1.25
 45
0.0
 46
0.0
 47
0.0
 48
0.0
140
2.5
141
2.5
142
0.0
143
0.03937007874016
144
1.0
145
0.0
146
1.0
147
0.625
 71
     0
 72
     0
 73
     0
 74
     0
 75
     0
 76
     0
 77
     1
 78
     8
170
     0
171
     3
172
     1
173
     0
174
     0
175
     0
176
     0
177
     0
178
     0
270
     2
271
     4
272
     4
273
     2
274
     2
340
3E9
275
     0
280
     0
281
     0
282
     0
283
     1
284
     0
285
     0
286
     0
287
     3
288
     0
  0
ENDTAB
  0
TABLE
  2
BLOCK_RECORD
  5
3DA
330
0
100
AcDbSymbolTable
 70
     0
  0
BLOCK_RECORD
  5
3F4
330
3DA
100
AcDbSymbolTableRecord
100
AcDbBlockTableRecord
  2
*MODEL_SPACE
  0
BLOCK_RECORD
  5
3F2
330
3DA
100
AcDbSymbolTableRecord
100
AcDbBlockTableRecord
  2
*PAPER_SPACE
  0
ENDTAB
  0
ENDSEC
  0
SECTION
  2
BLOCKS
  0
BLOCK
  5
40D
330
3F4
100
AcDbEntity
  8
0
100
AcDbBlockBegin
  2
*MODEL_SPACE
 70
     0
 10
0.0
 20
0.0
 30
0.0
  3
*MODEL_SPACE
  1

  0
ENDBLK
  5
350
330
3F4
100
AcDbEntity
  8
0
100
AcDbBlockEnd
  0
BLOCK
  5
40E
330
3F2
100
AcDbEntity
 67
     1
  8
0
100
AcDbBlockBegin
  2
*PAPER_SPACE
 70
     0
 10
0.0
 20
0.0
 30
0.0
  3
*PAPER_SPACE
  1

  0
ENDBLK
  5
34C
330
3F2
100
AcDbEntity
 67
     1
  8
0
100
AcDbBlockEnd
  0
ENDSEC
  0
SECTION
  2
ENTITIES
  0
LINE
  5
393
330
3F4
100
AcDbEntity
  8
0
100
AcDbLine
 10
-812.4110406582026
 20
101.3944161786165
 30
0.0
 11
-734.9787890273828
 21
101.3944161786161
 31
0.0
  0
LINE
  5
394
330
3F4
100
AcDbEntity
  8
0
100
AcDbLine
 10
-982.4787890273823
 20
586.0772364205336
 30
0.0
 11
-734.9787890273823
 21
586.0772364205332
 31
0.0
  0
LINE
  5
395
330
3F4
100
AcDbEntity
  8
0
100
AcDbLine
 10
-982.4787890273823
 20
586.0772364205336
 30
0.0
 11
-982.4787890273833
 21
563.0772364205336
 31
0.0
  0
LINE
  5
396
330
3F4
100
AcDbEntity
  8
0
100
AcDbLine
 10
-1049.130253081931
 20
461.949111216253
 30
0.0
 11
-1197.103258739809
 21
366.6587833315007
 31
0.0
  0
LINE
  5
397
330
3F4
100
AcDbEntity
  8
0
100
AcDbLine
 10
-1199.095812625461
 20
363.1654734094916
 30
0.0
 11
-1202.31079875274
 21
338.2510190589726
 31
0.0
  0
LINE
  5
398
330
3F4
100
AcDbEntity
  8
0
100
AcDbLine
 10
-1192.724952581784
 20
360.3530421397963
 30
0.0
 11
-1199.095812625463
 21
363.1654734094922
 31
0.0
  0
LINE
  5
399
330
3F4
100
AcDbEntity
  8
0
100
AcDbLine
 10
-1197.103258739809
 20
366.6587833315007
 30
0.0
 11
-1192.724952581784
 21
360.3530421397963
 31
0.0
  0
LINE
  5
39A
330
3F4
100
AcDbEntity
  8
0
100
AcDbLine
 10
-859.2182038955757
 20
70.70214852807376
 30
0.0
 11
-862.488279722641
 21
45.36077793089856
 31
0.0
  0
LINE
  5
39B
330
3F4
100
AcDbEntity
  8
0
100
AcDbLine
 10
-816.092218148923
 20
100.3110684760349
 30
0.0
 11
-857.2810666716423
 21
73.76904976282177
 31
0.0
  0
LINE
  5
39C
330
3F4
100
AcDbEntity
  8
0
100
AcDbLine
 10
-865.0220547730482
 20
77.90860310876297
 30
0.0
 11
-857.2810666716423
 21
73.76904976282177
 31
0.0
  0
LINE
  5
39D
330
3F4
100
AcDbEntity
  8
0
100
AcDbLine
 10
-859.2182038955757
 20
70.70214852807376
 30
0.0
 11
-865.0220547730482
 21
77.90860310876297
 31
0.0
  0
LINE
  5
39E
330
3F4
100
AcDbEntity
  8
0
100
AcDbLine
 10
-818.7444314685212
 20
108.1191261415088
 30
0.0
 11
-812.4110406582002
 21
101.3944161786161
 31
0.0
  0
LINE
  5
39F
330
3F4
100
AcDbEntity
  8
0
100
AcDbLine
 10
-816.0922181489249
 20
100.3110684760357
 30
0.0
 11
-818.7444314685212
 21
108.1191261415088
 31
0.0
  0
LINE
  5
3A0
330
3F4
100
AcDbEntity
  8
0
100
AcDbLine
 10
-1045.478789027382
 20
463.0772364205336
 30
0.0
 11
-982.4787890273823
 21
463.0772364205336
 31
0.0
  0
LINE
  5
3A1
330
3F4
100
AcDbEntity
  8
0
100
AcDbLine
 10
-1042.966288210262
 20
456.4713802023375
 30
0.0
 11
-1045.478789027382
 21
463.0772364205336
 31
0.0
  0
LINE
  5
3A2
330
3F4
100
AcDbEntity
  8
0
100
AcDbLine
 10
-1049.130253081931
 20
461.949111216253
 30
0.0
 11
-1042.966288210262
 21
456.4713802023375
 31
0.0
  0
LINE
  5
3A3
330
3F4
100
AcDbEntity
  8
0
100
AcDbLine
 10
-982.4787890273823
 20
521.0772364205336
 30
0.0
 11
-974.4787890273833
 21
519.0772364205336
 31
0.0
  0
LINE
  5
3A4
330
3F4
100
AcDbEntity
  8
0
100
AcDbLine
 10
-974.4787890273833
 20
519.0772364205336
 30
0.0
 11
-982.4787890273823
 21
517.0772364205336
 31
0.0
  0
LINE
  5
3A5
330
3F4
100
AcDbEntity
  8
0
100
AcDbLine
 10
-974.4787890273833
 20
561.0772364205336
 30
0.0
 11
-982.4787890273823
 21
559.0772364205336
 31
0.0
  0
LINE
  5
3A6
330
3F4
100
AcDbEntity
  8
0
100
AcDbLine
 10
-982.4787890273823
 20
563.0772364205336
 30
0.0
 11
-974.4787890273833
 21
561.0772364205336
 31
0.0
  0
LINE
  5
3A7
330
3F4
100
AcDbEntity
  8
0
100
AcDbLine
 10
-982.4787890273823
 20
463.0772364205336
 30
0.0
 11
-982.4787890273823
 21
517.0772364205336
 31
0.0
  0
LINE
  5
3A8
330
3F4
100
AcDbEntity
  8
0
100
AcDbLine
 10
-982.4787890273823
 20
559.0772364205338
 30
0.0
 11
-982.4787890273833
 21
521.0772364205336
 31
0.0
  0
LINE
  5
3A9
330
3F4
100
AcDbEntity
  8
0
100
AcDbLine
 10
-487.4787890273823
 20
586.0772364205336
 30
0.0
 11
-487.478789027381
 21
563.0772364205336
 31
0.0
  0
LINE
  5
3AA
330
3F4
100
AcDbEntity
  8
0
100
AcDbLine
 10
-420.8273249728335
 20
461.949111216253
 30
0.0
 11
-272.8543193149562
 21
366.6587833315007
 31
0.0
  0
LINE
  5
3AB
330
3F4
100
AcDbEntity
  8
0
100
AcDbLine
 10
-657.5465373965634
 20
101.3944161786165
 30
0.0
 11
-734.9787890273823
 21
101.3944161786161
 31
0.0
  0
LINE
  5
3AC
330
3F4
100
AcDbEntity
  8
0
100
AcDbLine
 10
-653.865359905841
 20
100.3110684760357
 30
0.0
 11
-651.2131465862434
 21
108.1191261415088
 31
0.0
  0
LINE
  5
3AD
330
3F4
100
AcDbEntity
  8
0
100
AcDbLine
 10
-651.2131465862434
 20
108.1191261415088
 30
0.0
 11
-657.5465373965644
 21
101.3944161786161
 31
0.0
  0
LINE
  5
3AE
330
3F4
100
AcDbEntity
  8
0
100
AcDbLine
 10
-610.7393741591904
 20
70.70214852807376
 30
0.0
 11
-604.9355232817165
 21
77.90860310876297
 31
0.0
  0
LINE
  5
3AF
330
3F4
100
AcDbEntity
  8
0
100
AcDbLine
 10
-604.9355232817165
 20
77.90860310876297
 30
0.0
 11
-612.6765113831234
 21
73.76904976282177
 31
0.0
  0
LINE
  5
3B0
330
3F4
100
AcDbEntity
  8
0
100
AcDbLine
 10
-653.8653599058425
 20
100.3110684760349
 30
0.0
 11
-612.6765113831234
 21
73.76904976282177
 31
0.0
  0
LINE
  5
3B1
330
3F4
100
AcDbEntity
  8
0
100
AcDbLine
 10
-610.7393741591891
 20
70.70214852807376
 30
0.0
 11
-607.4692983321256
 21
45.36077793089904
 31
0.0
  0
LINE
  5
3B2
330
3F4
100
AcDbEntity
  8
0
100
AcDbLine
 10
-487.4787890273823
 20
563.0772364205336
 30
0.0
 11
-495.4787890273824
 21
561.0772364205336
 31
0.0
  0
LINE
  5
3B3
330
3F4
100
AcDbEntity
  8
0
100
AcDbLine
 10
-495.4787890273824
 20
561.0772364205336
 30
0.0
 11
-487.4787890273823
 21
559.0772364205336
 31
0.0
  0
LINE
  5
3B4
330
3F4
100
AcDbEntity
  8
0
100
AcDbLine
 10
-495.4787890273824
 20
519.0772364205336
 30
0.0
 11
-487.4787890273823
 21
517.0772364205336
 31
0.0
  0
LINE
  5
3B5
330
3F4
100
AcDbEntity
  8
0
100
AcDbLine
 10
-487.4787890273823
 20
521.0772364205336
 30
0.0
 11
-495.4787890273824
 21
519.0772364205336
 31
0.0
  0
LINE
  5
3B6
330
3F4
100
AcDbEntity
  8
0
100
AcDbLine
 10
-487.4787890273823
 20
559.0772364205338
 30
0.0
 11
-487.478789027381
 21
521.0772364205336
 31
0.0
  0
LINE
  5
3B7
330
3F4
100
AcDbEntity
  8
0
100
AcDbLine
 10
-487.4787890273823
 20
463.0772364205336
 30
0.0
 11
-487.4787890273823
 21
517.0772364205336
 31
0.0
  0
LINE
  5
3B8
330
3F4
100
AcDbEntity
  8
0
100
AcDbLine
 10
-420.8273249728335
 20
461.949111216253
 30
0.0
 11
-426.9912898445036
 21
456.4713802023375
 31
0.0
  0
LINE
  5
3B9
330
3F4
100
AcDbEntity
  8
0
100
AcDbLine
 10
-426.9912898445036
 20
456.4713802023375
 30
0.0
 11
-424.4787890273824
 21
463.0772364205336
 31
0.0
  0
LINE
  5
3BA
330
3F4
100
AcDbEntity
  8
0
100
AcDbLine
 10
-424.4787890273824
 20
463.0772364205336
 30
0.0
 11
-487.4787890273823
 21
463.0772364205336
 31
0.0
  0
LINE
  5
3BB
330
3F4
100
AcDbEntity
  8
0
100
AcDbLine
 10
-272.8543193149562
 20
366.6587833315007
 30
0.0
 11
-277.2326254729805
 21
360.3530421397963
 31
0.0
  0
LINE
  5
3BC
330
3F4
100
AcDbEntity
  8
0
100
AcDbLine
 10
-277.2326254729805
 20
360.3530421397963
 30
0.0
 11
-270.8617654293025
 21
363.1654734094922
 31
0.0
  0
LINE
  5
3BD
330
3F4
100
AcDbEntity
  8
0
100
AcDbLine
 10
-270.8617654293034
 20
363.1654734094916
 30
0.0
 11
-267.6467793020256
 21
338.2510190589721
 31
0.0
  0
LINE
  5
3BE
330
3F4
100
AcDbEntity
  8
0
100
AcDbLine
 10
-487.4787890273823
 20
586.0772364205336
 30
0.0
 11
-734.9787890273823
 21
586.0772364205332
 31
0.0
  0
LINE
  5
3BF
330
3F4
100
AcDbEntity
  8
0
100
AcDbLine
 10
-862.488279722641
 20
45.36077793089856
 30
0.0
 11
-1202.31079875274
 21
338.2510190589726
 31
0.0
  0
LINE
  5
3C0
330
3F4
100
AcDbEntity
  8
0
100
AcDbLine
 10
-607.4692983321256
 20
45.36077793089904
 30
0.0
 11
-267.6467793020256
 21
338.2510190589721
 31
0.0
  0
ENDSEC
  0
SECTION
  2
OBJECTS
  0
DICTIONARY
  5
3E4
330
0
100
AcDbDictionary
  3
ACAD_GROUP
350
3E5
  3
ACAD_MLINESTYLE
350
3EE
  3
ACAD_SCALELIST
350
40F
  3
APPDATA
350
44E
  3
DWGPROPS
350
44F
  0
DICTIONARY
  5
3E5
102
{ACAD_REACTORS
330
3E4
102
}
330
3E4
100
AcDbDictionary
  0
DICTIONARY
  5
3EE
102
{ACAD_REACTORS
330
3E4
102
}
330
3E4
100
AcDbDictionary
  3
STANDARD
350
3EF
  0
DICTIONARY
  5
40F
102
{ACAD_REACTORS
330
3E4
102
}
330
3E4
100
AcDbDictionary
  0
DICTIONARY
  5
44E
102
{ACAD_REACTORS
330
3E4
102
}
330
3E4
100
AcDbDictionary
  0
XRECORD
  5
44F
102
{ACAD_REACTORS
330
3E4
102
}
330
3E4
100
AcDbXrecord
  1
DWGPROPS COOKIE
  2

  3

  4

  6

  7

  8
Principale
  9

300
=
301
=
302
=
303
=
304
=
305
=
306
=
307
=
308
=
309
=
 40
0.0
 41
2456001.494344433
 42
2459114.635418067
  1

 90
        0
  0
MLINESTYLE
  5
3EF
102
{ACAD_REACTORS
330
3EE
102
}
330
3EE
100
AcDbMlineStyle
  2
Standard
 70
     0
  3

 62
   256
 51
90.0
 52
90.0
 71
     2
 49
0.5
 62
   256
  6
BYLAYER
 49
-0.5
 62
   256
  6
BYLAYER
  0
ENDSEC
  0
EOF
