  0
SECTION
  2
HEADER
  9
$ACADVER
  1
AC1014
  9
$ACADMAINTVER
 70
     9
  9
$DWGCODEPAGE
  3
ANSI_1252
  9
$INSBASE
 10
0.0
 20
0.0
 30
0.0
  9
$EXTMIN
 10
250.0180475639829
 20
21.75304193025177
 30
-15.91720002847389
  9
$EXTMAX
 10
411.3208722104619
 20
211.7529979303387
 30
31.83440005694778
  9
$LIMMIN
 10
0.0
 20
0.0
  9
$LIMMAX
 10
12.0
 20
9.0
  9
$ORTHOMODE
 70
     0
  9
$REGENMODE
 70
     1
  9
$FILLMODE
 70
     1
  9
$QTEXTMODE
 70
     0
  9
$MIRRTEXT
 70
     0
  9
$DRAGMODE
 70
     2
  9
$LTSCALE
 40
1.0
  9
$OSMODE
 70
  1023
  9
$ATTMODE
 70
     1
  9
$TEXTSIZE
 40
0.2
  9
$TRACEWID
 40
0.05
  9
$TEXTSTYLE
  7
STANDARD
  9
$CLAYER
  8
0
  9
$CELTYPE
  6
BYLAYER
  9
$CECOLOR
 62
   256
  9
$CELTSCALE
 40
1.0
  9
$DELOBJ
 70
     1
  9
$DISPSILH
 70
     0
  9
$DIMSCALE
 40
1.0
  9
$DIMASZ
 40
0.18
  9
$DIMEXO
 40
0.0625
  9
$DIMDLI
 40
0.38
  9
$DIMRND
 40
0.0
  9
$DIMDLE
 40
0.0
  9
$DIMEXE
 40
0.18
  9
$DIMTP
 40
0.0
  9
$DIMTM
 40
0.0
  9
$DIMTXT
 40
0.18
  9
$DIMCEN
 40
0.09
  9
$DIMTSZ
 40
0.0
  9
$DIMTOL
 70
     0
  9
$DIMLIM
 70
     0
  9
$DIMTIH
 70
     1
  9
$DIMTOH
 70
     1
  9
$DIMSE1
 70
     0
  9
$DIMSE2
 70
     0
  9
$DIMTAD
 70
     0
  9
$DIMZIN
 70
     0
  9
$DIMBLK
  1

  9
$DIMASO
 70
     1
  9
$DIMSHO
 70
     1
  9
$DIMPOST
  1

  9
$DIMAPOST
  1

  9
$DIMALT
 70
     0
  9
$DIMALTD
 70
     2
  9
$DIMALTF
 40
25.4
  9
$DIMLFAC
 40
1.0
  9
$DIMTOFL
 70
     0
  9
$DIMTVP
 40
0.0
  9
$DIMTIX
 70
     0
  9
$DIMSOXD
 70
     0
  9
$DIMSAH
 70
     0
  9
$DIMBLK1
  1

  9
$DIMBLK2
  1

  9
$DIMSTYLE
  2
STANDARD
  9
$DIMCLRD
 70
     0
  9
$DIMCLRE
 70
     0
  9
$DIMCLRT
 70
     0
  9
$DIMTFAC
 40
1.0
  9
$DIMGAP
 40
0.09
  9
$DIMJUST
 70
     0
  9
$DIMSD1
 70
     0
  9
$DIMSD2
 70
     0
  9
$DIMTOLJ
 70
     1
  9
$DIMTZIN
 70
     0
  9
$DIMALTZ
 70
     0
  9
$DIMALTTZ
 70
     0
  9
$DIMFIT
 70
     5
  9
$DIMUPT
 70
     0
  9
$DIMUNIT
 70
     2
  9
$DIMDEC
 70
     4
  9
$DIMTDEC
 70
     4
  9
$DIMALTU
 70
     2
  9
$DIMALTTD
 70
     2
  9
$DIMTXSTY
  7
STANDARD
  9
$DIMAUNIT
 70
     0
  9
$LUNITS
 70
     2
  9
$LUPREC
 70
     4
  9
$SKETCHINC
 40
0.1
  9
$FILLETRAD
 40
50.0
  9
$AUNITS
 70
     0
  9
$AUPREC
 70
     0
  9
$MENU
  1
.
  9
$ELEVATION
 40
0.0
  9
$PELEVATION
 40
0.0
  9
$THICKNESS
 40
0.0
  9
$LIMCHECK
 70
     0
  9
$CHAMFERA
 40
0.0
  9
$CHAMFERB
 40
0.0
  9
$CHAMFERC
 40
0.0
  9
$CHAMFERD
 40
0.0
  9
$SKPOLY
 70
     0
  9
$TDCREATE
 40
2455544.482916829
  9
$TDUPDATE
 40
2459129.334152986
  9
$TDINDWG
 40
0.0059853241
  9
$TDUSRTIMER
 40
0.0003692361
  9
$USRTIMER
 70
     1
  9
$ANGBASE
 50
0.0
  9
$ANGDIR
 70
     0
  9
$PDMODE
 70
     0
  9
$PDSIZE
 40
0.0
  9
$PLINEWID
 40
0.0
  9
$COORDS
 70
     1
  9
$SPLFRAME
 70
     0
  9
$SPLINETYPE
 70
     6
  9
$SPLINESEGS
 70
     8
  9
$ATTDIA
 70
     0
  9
$ATTREQ
 70
     1
  9
$HANDLING
 70
     1
  9
$HANDSEED
  5
86A
  9
$SURFTAB1
 70
     6
  9
$SURFTAB2
 70
     6
  9
$SURFTYPE
 70
     6
  9
$SURFU
 70
     6
  9
$SURFV
 70
     6
  9
$UCSNAME
  2

  9
$UCSORG
 10
0.0
 20
0.0
 30
0.0
  9
$UCSXDIR
 10
1.0
 20
0.0
 30
0.0
  9
$UCSYDIR
 10
0.0
 20
1.0
 30
0.0
  9
$PUCSNAME
  2

  9
$PUCSORG
 10
0.0
 20
0.0
 30
0.0
  9
$PUCSXDIR
 10
1.0
 20
0.0
 30
0.0
  9
$PUCSYDIR
 10
0.0
 20
1.0
 30
0.0
  9
$USERI1
 70
     0
  9
$USERI2
 70
     0
  9
$USERI3
 70
     0
  9
$USERI4
 70
     0
  9
$USERI5
 70
     0
  9
$USERR1
 40
0.0
  9
$USERR2
 40
0.0
  9
$USERR3
 40
0.0
  9
$USERR4
 40
0.0
  9
$USERR5
 40
0.0
  9
$WORLDVIEW
 70
     1
  9
$SHADEDGE
 70
     3
  9
$SHADEDIF
 70
    70
  9
$TILEMODE
 70
     1
  9
$MAXACTVP
 70
    64
  9
$PINSBASE
 10
0.0
 20
0.0
 30
0.0
  9
$PLIMCHECK
 70
     0
  9
$PEXTMIN
 10
0.0
 20
0.0
 30
0.0
  9
$PEXTMAX
 10
0.0
 20
0.0
 30
0.0
  9
$PLIMMIN
 10
0.0
 20
0.0
  9
$PLIMMAX
 10
0.0
 20
0.0
  9
$UNITMODE
 70
     0
  9
$VISRETAIN
 70
     1
  9
$PLINEGEN
 70
     0
  9
$PSLTSCALE
 70
     1
  9
$TREEDEPTH
 70
  3020
  9
$PICKSTYLE
 70
     0
  9
$CMLSTYLE
  2
STANDARD
  9
$CMLJUST
 70
     0
  9
$CMLSCALE
 40
1.0
  9
$PROXYGRAPHICS
 70
     1
  9
$MEASUREMENT
 70
     0
  0
ENDSEC
  0
SECTION
  2
CLASSES
  0
CLASS
  1
ACDBDICTIONARYWDFLT
  2
AcDbDictionaryWithDefault
  3
ObjectDBX Classes
 90
        0
280
     0
281
     0
  0
CLASS
  1
MATERIAL
  2
AcDbMaterial
  3
ObjectDBX Classes
 90
     1153
280
     0
281
     0
  0
CLASS
  1
SCALE
  2
AcDbScale
  3
ObjectDBX Classes
 90
     1153
280
     0
281
     0
  0
CLASS
  1
VISUALSTYLE
  2
AcDbVisualStyle
  3
ObjectDBX Classes
 90
     4095
280
     0
281
     0
  0
CLASS
  1
TABLESTYLE
  2
AcDbTableStyle
  3
ObjectDBX Classes
 90
     4095
280
     0
281
     0
  0
CLASS
  1
MLEADERSTYLE
  2
AcDbMLeaderStyle
  3
ACDB_MLEADERSTYLE_CLASS
 90
     4095
280
     0
281
     0
  0
CLASS
  1
DICTIONARYVAR
  2
AcDbDictionaryVar
  3
ObjectDBX Classes
 90
        0
280
     0
281
     0
  0
CLASS
  1
XRECORD
  2
AcDbXrecord
  3
ObjectDBX Classes
 90
        0
280
     0
281
     0
  0
CLASS
  1
LWPOLYLINE
  2
AcDbPolyline
  3
ObjectDBX Classes
 90
        0
280
     0
281
     1
  0
CLASS
  1
HATCH
  2
AcDbHatch
  3
ObjectDBX Classes
 90
        0
280
     0
281
     1
  0
ENDSEC
  0
SECTION
  2
TABLES
  0
TABLE
  2
VPORT
  5
70C
330
0
100
AcDbSymbolTable
 70
     1
  0
VPORT
  5
723
330
70C
100
AcDbSymbolTableRecord
100
AcDbViewportTableRecord
  2
*ACTIVE
 70
     0
 10
0.0
 20
0.0
 11
1.0
 21
1.0
 12
369.9519963867011
 22
176.171028502953
 13
0.0
 23
0.0
 14
0.5
 24
0.5
 15
0.5
 25
0.5
 16
0.0
 26
0.0
 36
1.0
 17
0.0
 27
0.0
 37
0.0
 40
189.5411241746745
 41
2.091520861372813
 42
50.0
 43
0.0
 44
0.0
 50
0.0
 51
0.0
 71
    16
 72
  1000
 73
     1
 74
     3
 75
     0
 76
     0
 77
     0
 78
     0
  0
ENDTAB
  0
TABLE
  2
LTYPE
  5
709
330
0
100
AcDbSymbolTable
 70
     1
  0
LTYPE
  5
717
330
709
100
AcDbSymbolTableRecord
100
AcDbLinetypeTableRecord
  2
BYBLOCK
 70
     0
  3

 72
    65
 73
     0
 40
0.0
  0
LTYPE
  5
718
330
709
100
AcDbSymbolTableRecord
100
AcDbLinetypeTableRecord
  2
BYLAYER
 70
     0
  3

 72
    65
 73
     0
 40
0.0
  0
LTYPE
  5
719
330
709
100
AcDbSymbolTableRecord
100
AcDbLinetypeTableRecord
  2
CONTINUOUS
 70
     0
  3
Solid line
 72
    65
 73
     0
 40
0.0
  0
ENDTAB
  0
TABLE
  2
LAYER
  5
707
330
0
100
AcDbSymbolTable
 70
     2
  0
LAYER
  5
714
330
707
100
AcDbSymbolTableRecord
100
AcDbLayerTableRecord
  2
0
 70
     0
 62
     7
  6
CONTINUOUS
  0
LAYER
  5
72A
330
707
100
AcDbSymbolTableRecord
100
AcDbLayerTableRecord
  2
MANOVELLA
 70
     0
 62
     8
  6
CONTINUOUS
  0
ENDTAB
  0
TABLE
  2
STYLE
  5
708
330
0
100
AcDbSymbolTable
 70
     3
  0
STYLE
  5
715
330
708
100
AcDbSymbolTableRecord
100
AcDbTextStyleTableRecord
  2
STANDARD
 70
     0
 40
0.0
 41
1.0
 50
0.0
 71
     0
 42
0.2
  3
txt.shx
  4

  0
STYLE
  5
72C
330
708
100
AcDbSymbolTableRecord
100
AcDbTextStyleTableRecord
  2
ANNOTATIVE
 70
     0
 40
0.0
 41
1.0
 50
0.0
 71
     0
 42
0.2
  3
txt
  4

  0
STYLE
  5
72D
330
708
100
AcDbSymbolTableRecord
100
AcDbTextStyleTableRecord
  2
ANNOTATIVA
 70
     0
 40
0.0
 41
1.0
 50
0.0
 71
     0
 42
0.2
  3
txt.shx
  4

  0
ENDTAB
  0
TABLE
  2
VIEW
  5
70A
330
0
100
AcDbSymbolTable
 70
     0
  0
ENDTAB
  0
TABLE
  2
UCS
  5
70B
330
0
100
AcDbSymbolTable
 70
     0
  0
ENDTAB
  0
TABLE
  2
APPID
  5
70D
330
0
100
AcDbSymbolTable
 70
    10
  0
APPID
  5
716
330
70D
100
AcDbSymbolTableRecord
100
AcDbRegAppTableRecord
  2
ACAD
 70
     0
  0
APPID
  5
72F
330
70D
100
AcDbSymbolTableRecord
100
AcDbRegAppTableRecord
  2
ACADANNOTATIVE
 70
     0
  0
APPID
  5
730
330
70D
100
AcDbSymbolTableRecord
100
AcDbRegAppTableRecord
  2
ACAD_MLEADERVER
 70
     0
  0
APPID
  5
731
330
70D
100
AcDbSymbolTableRecord
100
AcDbRegAppTableRecord
  2
ACADANNOPO
 70
     0
  0
APPID
  5
732
330
70D
100
AcDbSymbolTableRecord
100
AcDbRegAppTableRecord
  2
ACAD_DSTYLE_DIMJAG
 70
     0
  0
APPID
  5
733
330
70D
100
AcDbSymbolTableRecord
100
AcDbRegAppTableRecord
  2
ACAD_DSTYLE_DIMTALN
 70
     0
  0
APPID
  5
734
330
70D
100
AcDbSymbolTableRecord
100
AcDbRegAppTableRecord
  2
ACAECLAYERSTANDARD
 70
     0
  0
APPID
  5
735
330
70D
100
AcDbSymbolTableRecord
100
AcDbRegAppTableRecord
  2
ACAD_EXEMPT_FROM_CAD_STAND
 70
     0
  0
APPID
  5
736
330
70D
100
AcDbSymbolTableRecord
100
AcDbRegAppTableRecord
  2
ACAD_DSTYLE_DIMBREAK
 70
     0
  0
APPID
  5
737
330
70D
100
AcDbSymbolTableRecord
100
AcDbRegAppTableRecord
  2
ACAD_PSEXT
 70
     0
  0
ENDTAB
  0
TABLE
  2
DIMSTYLE
  5
70E
330
0
100
AcDbSymbolTable
 70
     8
  0
DIMSTYLE
105
738
330
70E
100
AcDbSymbolTableRecord
100
AcDbDimStyleTableRecord
  2
STANDARD
 70
     0
  3

  4

  5

  6

  7

 40
1.0
 41
0.18
 42
0.0625
 43
0.38
 44
0.18
 45
0.0
 46
0.0
 47
0.0
 48
0.0
140
0.18
141
0.09
142
0.0
143
25.4
144
1.0
145
0.0
146
1.0
147
0.09
 71
     0
 72
     0
 73
     1
 74
     1
 75
     0
 76
     0
 77
     0
 78
     0
170
     0
171
     2
172
     0
173
     0
174
     0
175
     0
176
     0
177
     0
178
     0
270
     2
271
     4
272
     4
273
     2
274
     2
340
715
275
     0
280
     0
281
     0
282
     0
283
     1
284
     0
285
     0
286
     0
287
     3
288
     0
  0
DIMSTYLE
105
739
330
70E
100
AcDbSymbolTableRecord
100
AcDbDimStyleTableRecord
  2
ANNOTATIVE
 70
     0
  3

  4

  5

  6

  7

 40
1.0
 41
0.18
 42
0.0625
 43
0.38
 44
0.18
 45
0.0
 46
0.0
 47
0.0
 48
0.0
140
0.18
141
0.09
142
0.0
143
25.4
144
1.0
145
0.0
146
1.0
147
0.09
 71
     0
 72
     0
 73
     1
 74
     1
 75
     0
 76
     0
 77
     0
 78
     0
170
     0
171
     2
172
     0
173
     0
174
     0
175
     0
176
     0
177
     0
178
     0
270
     2
271
     4
272
     4
273
     2
274
     2
340
715
275
     0
280
     0
281
     0
282
     0
283
     1
284
     0
285
     0
286
     0
287
     3
288
     0
  0
DIMSTYLE
105
73A
330
70E
100
AcDbSymbolTableRecord
100
AcDbDimStyleTableRecord
  2
ANNOTATIVA
 70
     0
  3

  4

  5

  6

  7

 40
0.0
 41
0.18
 42
0.0625
 43
0.38
 44
0.18
 45
0.0
 46
0.0
 47
0.0
 48
0.0
140
0.18
141
0.09
142
0.0
143
25.4
144
1.0
145
0.0
146
1.0
147
0.09
 71
     0
 72
     0
 73
     1
 74
     1
 75
     0
 76
     0
 77
     0
 78
     0
170
     0
171
     2
172
     0
173
     0
174
     0
175
     0
176
     0
177
     0
178
     0
270
     2
271
     4
272
     4
273
     2
274
     2
340
715
275
     0
280
     0
281
     0
282
     0
283
     1
284
     0
285
     0
286
     0
287
     3
288
     0
  0
DIMSTYLE
105
73B
330
70E
100
AcDbSymbolTableRecord
100
AcDbDimStyleTableRecord
  2
ISO-25
 70
     0
  3

  4

  5

  6

  7

 40
1.0
 41
2.5
 42
0.625
 43
3.75
 44
1.25
 45
0.0
 46
0.0
 47
0.0
 48
0.0
140
2.5
141
2.5
142
0.0
143
0.0393700787
144
1.0
145
0.0
146
1.0
147
0.625
 71
     0
 72
     0
 73
     0
 74
     0
 75
     0
 76
     0
 77
     1
 78
     8
170
     0
171
     3
172
     1
173
     0
174
     0
175
     0
176
     0
177
     0
178
     0
270
     2
271
     4
272
     4
273
     2
274
     2
340
715
275
     0
280
     0
281
     0
282
     0
283
     1
284
     0
285
     0
286
     0
287
     3
288
     0
  0
DIMSTYLE
105
73C
330
70E
100
AcDbSymbolTableRecord
100
AcDbDimStyleTableRecord
  2
COPIA_DI_ISO-25
 70
     0
  3

  4

  5

  6

  7

 40
1.0
 41
20.0
 42
16.0
 43
3.75
 44
1.25
 45
0.0
 46
0.0
 47
0.0
 48
0.0
140
30.0
141
2.5
142
0.0
143
0.0393700787
144
1.0
145
0.0
146
1.0
147
10.0
 71
     0
 72
     0
 73
     0
 74
     0
 75
     0
 76
     0
 77
     1
 78
     8
170
     0
171
     3
172
     1
173
     0
174
     0
175
     0
176
     0
177
     0
178
     0
270
     2
271
     4
272
     4
273
     2
274
     2
340
715
275
     0
280
     0
281
     0
282
     0
283
     1
284
     0
285
     0
286
     0
287
     3
288
     0
  0
DIMSTYLE
105
782
330
70E
100
AcDbSymbolTableRecord
100
AcDbDimStyleTableRecord
  2
COPIA_DI_ISO-252
 70
     0
  3

  4

  5

  6

  7

 40
1.0
 41
20.0
 42
16.0
 43
3.75
 44
1.25
 45
0.0
 46
0.0
 47
0.0
 48
0.0
140
30.0
141
2.5
142
0.0
143
0.0393700787
144
1.0
145
0.0
146
1.0
147
10.0
 71
     0
 72
     0
 73
     0
 74
     0
 75
     0
 76
     0
 77
     1
 78
     8
170
     0
171
     3
172
     1
173
     0
174
     0
175
     0
176
     0
177
     0
178
     0
270
     2
271
     4
272
     4
273
     2
274
     2
340
715
275
     0
280
     0
281
     0
282
     0
283
     1
284
     0
285
     0
286
     0
287
     3
288
     0
  0
DIMSTYLE
105
783
330
70E
100
AcDbSymbolTableRecord
100
AcDbDimStyleTableRecord
  2
COPIA_DI_ISO-251
 70
     0
  3

  4

  5

  6

  7

 40
1.0
 41
20.0
 42
16.0
 43
3.75
 44
1.25
 45
0.0
 46
0.0
 47
0.0
 48
0.0
140
30.0
141
2.5
142
0.0
143
0.0393700787
144
1.0
145
0.0
146
1.0
147
10.0
 71
     0
 72
     0
 73
     0
 74
     0
 75
     0
 76
     0
 77
     1
 78
     8
170
     0
171
     3
172
     1
173
     0
174
     0
175
     0
176
     0
177
     0
178
     0
270
     2
271
     4
272
     4
273
     2
274
     2
340
715
275
     0
280
     0
281
     0
282
     0
283
     1
284
     0
285
     0
286
     0
287
     3
288
     0
  0
DIMSTYLE
105
784
330
70E
100
AcDbSymbolTableRecord
100
AcDbDimStyleTableRecord
  2
NOSTRE_QUOTE
 70
     0
  3

  4

  5

  6

  7

 40
1.0
 41
20.0
 42
5.0
 43
3.75
 44
5.0
 45
0.0
 46
0.0
 47
0.0
 48
0.0
140
40.0
141
2.5
142
0.0
143
0.03937007874016
144
1.0
145
0.0
146
1.0
147
10.0
 71
     0
 72
     0
 73
     0
 74
     0
 75
     0
 76
     0
 77
     1
 78
     8
170
     0
171
     3
172
     1
173
     0
174
     0
175
     0
176
     0
177
     0
178
     0
270
     2
271
     4
272
     4
273
     2
274
     2
340
715
275
     0
280
     0
281
     0
282
     0
283
     1
284
     0
285
     0
286
     0
287
     3
288
     0
  0
ENDTAB
  0
TABLE
  2
BLOCK_RECORD
  5
706
330
0
100
AcDbSymbolTable
 70
     0
  0
BLOCK_RECORD
  5
720
330
706
100
AcDbSymbolTableRecord
100
AcDbBlockTableRecord
  2
*MODEL_SPACE
  0
BLOCK_RECORD
  5
71E
330
706
100
AcDbSymbolTableRecord
100
AcDbBlockTableRecord
  2
*PAPER_SPACE
  0
ENDTAB
  0
ENDSEC
  0
SECTION
  2
BLOCKS
  0
BLOCK
  5
73D
330
720
100
AcDbEntity
  8
0
100
AcDbBlockBegin
  2
*MODEL_SPACE
 70
     0
 10
0.0
 20
0.0
 30
0.0
  3
*MODEL_SPACE
  1

  0
ENDBLK
  5
51A
330
720
100
AcDbEntity
  8
0
100
AcDbBlockEnd
  0
BLOCK
  5
73E
330
71E
100
AcDbEntity
 67
     1
  8
0
100
AcDbBlockBegin
  2
*PAPER_SPACE
 70
     0
 10
0.0
 20
0.0
 30
0.0
  3
*PAPER_SPACE
  1

  0
ENDBLK
  5
516
330
71E
100
AcDbEntity
 67
     1
  8
0
100
AcDbBlockEnd
  0
ENDSEC
  0
SECTION
  2
ENTITIES
  0
ARC
  5
7AE
330
720
100
AcDbEntity
  8
0
100
AcDbCircle
 39
31.83440005694778
 10
289.6271905640488
 20
22.82996500718829
 30
0.0
 40
2.423076923116671
100
AcDbArc
 50
0.0000000003440928
 51
181.2876541421489
  0
ARC
  5
7AF
330
720
100
AcDbEntity
  8
0
100
AcDbCircle
 39
31.83440005694778
 10
286.2049784369187
 20
22.75304193025177
 30
0.0
 40
1.0
100
AcDbArc
 50
270.0
 51
1.287654140552271
  0
ARC
  5
7B0
330
720
100
AcDbEntity
  8
0
100
AcDbCircle
 39
31.83440005694778
 10
289.6271905640488
 20
210.6815693589185
 30
0.0
 40
1.928571428586258
100
AcDbArc
 50
178.6024033588642
 51
0.0
  0
ARC
  5
7B1
330
720
100
AcDbEntity
  8
0
100
AcDbCircle
 39
31.83440005694778
 10
286.6994903717887
 20
210.7529979303387
 30
0.0
 40
1.0
100
AcDbArc
 50
358.602403360438
 51
90.0
  0
LINE
  5
7B2
330
720
100
AcDbEntity
  8
0
100
AcDbLine
 10
250.0180475640698
 20
31.62275593025215
 30
0.0
 11
250.0180475640698
 21
86.53168793031605
 31
0.0
  0
LINE
  5
7B3
330
720
100
AcDbEntity
  8
0
100
AcDbLine
 10
250.0180475640698
 20
146.9743509303104
 30
0.0
 11
250.0180475640698
 21
201.8832839303383
 31
0.0
  0
LINE
  5
7B4
330
720
100
AcDbEntity
  8
0
100
AcDbLine
 10
286.2049784369187
 20
21.75304193025177
 30
0.0
 11
259.8877615640408
 21
21.75304193025177
 31
0.0
  0
LINE
  5
7B5
330
720
100
AcDbEntity
  8
0
100
AcDbLine
 10
259.8877615640408
 20
211.7529979303387
 30
0.0
 11
286.6994903717887
 21
211.7529979303387
 31
0.0
  0
ARC
  5
7B6
330
720
100
AcDbEntity
  8
0
100
AcDbCircle
 10
284.2436864310177
 20
116.7530199302735
 30
0.0
 40
20.35971277005098
100
AcDbArc
 50
268.3841441970693
 51
91.61585580293071
  0
LINE
  5
7B7
330
720
100
AcDbEntity
  8
0
100
AcDbLine
 10
283.6695785640507
 20
137.1046369303101
 30
0.0
 11
259.8877615640408
 21
137.1046369303101
 31
0.0
  0
LINE
  5
7B8
330
720
100
AcDbEntity
  8
0
100
AcDbLine
 10
259.8877615640408
 20
96.40140293032404
 30
0.0
 11
283.6695785640507
 21
96.40140293032404
 31
0.0
  0
ARC
  5
7B9
330
720
100
AcDbEntity
  8
0
100
AcDbCircle
 10
259.8877615639828
 20
86.53168793031605
 30
0.0
 40
9.869714
100
AcDbArc
 50
90.0
 51
180.0
  0
ARC
  5
7BA
330
720
100
AcDbEntity
  8
0
100
AcDbCircle
 10
259.8877615639828
 20
146.9743509303104
 30
0.0
 40
9.869714
100
AcDbArc
 50
180.0
 51
270.0
  0
ARC
  5
7BB
330
720
100
AcDbEntity
  8
0
100
AcDbCircle
 10
259.8877615639828
 20
201.8832839303383
 30
0.0
 40
9.869714
100
AcDbArc
 50
90.0
 51
180.0
  0
ARC
  5
7BC
330
720
100
AcDbEntity
  8
0
100
AcDbCircle
 10
259.8877615639828
 20
31.62275593025215
 30
0.0
 40
9.869714
100
AcDbArc
 50
180.0
 51
270.0
  0
LINE
  5
7BD
330
720
100
AcDbEntity
  8
0
100
AcDbLine
 10
324.6271905640488
 20
22.82996500720283
 30
0.0
 11
292.0502674871707
 21
22.82996500720283
 31
0.0
  0
LINE
  5
7BE
330
720
100
AcDbEntity
  8
0
100
AcDbLine
 10
258.6271905640488
 20
194.7529979303387
 30
0.0
 11
258.6271905640488
 21
188.7529979303387
 31
0.0
  0
LINE
  5
7BF
330
720
100
AcDbEntity
  8
0
100
AcDbLine
 10
270.6271905640488
 20
194.7529979303387
 30
0.0
 11
270.6271905640488
 21
188.7529979303387
 31
0.0
  0
ARC
  5
7C0
330
720
100
AcDbEntity
  8
0
100
AcDbCircle
 10
264.6271905640488
 20
188.7529979303387
 30
0.0
 40
6.0
100
AcDbArc
 50
180.0
 51
0.0
  0
ARC
  5
7C1
330
720
100
AcDbEntity
  8
0
100
AcDbCircle
 10
264.6271905640488
 20
194.7529979303387
 30
0.0
 40
6.0
100
AcDbArc
 50
0.0
 51
180.0
  0
LINE
  5
7C2
330
720
100
AcDbEntity
  8
0
100
AcDbLine
 10
258.6271905640488
 20
38.75304193020806
 30
0.0
 11
258.6271905640488
 21
44.75304193020806
 31
0.0
  0
LINE
  5
7C3
330
720
100
AcDbEntity
  8
0
100
AcDbLine
 10
270.6271905640488
 20
38.75304193020806
 30
0.0
 11
270.6271905640488
 21
44.75304193020806
 31
0.0
  0
ARC
  5
7C4
330
720
100
AcDbEntity
  8
0
100
AcDbCircle
 10
264.6271905640488
 20
44.75304193020806
 30
0.0
 40
6.0
100
AcDbArc
 50
0.0
 51
180.0
  0
ARC
  5
7C5
330
720
100
AcDbEntity
  8
0
100
AcDbCircle
 10
264.6271905640488
 20
38.75304193020806
 30
0.0
 40
6.0
100
AcDbArc
 50
180.0
 51
0.0
  0
LINE
  5
7C7
330
720
100
AcDbEntity
  8
0
100
AcDbLine
 39
31.83440005694778
 10
411.3208722104619
 20
155.0065836326468
 30
-15.91720002847389
 11
371.208840459879
 21
117.8569536748696
 31
-15.91720002847389
  0
ARC
  5
7C8
330
720
100
AcDbEntity
  8
0
100
AcDbCircle
 10
363.4277885053518
 20
82.06588260788925
 30
-15.91720002847389
 40
36.62711478728158
100
AcDbArc
 50
77.73463878465107
 51
227.2547226981492
  0
LINE
  5
7C9
330
720
100
AcDbEntity
  8
0
100
AcDbLine
 39
31.83440005694778
 10
338.5674927216489
 20
55.16771852207462
 30
-15.91720002847389
 11
324.6271905640499
 21
22.82996500720328
 31
-15.91720002847389
  0
LINE
  5
7CA
330
720
100
AcDbEntity
  8
0
100
AcDbLine
 10
411.3208722104619
 20
155.0065836326468
 30
-15.91720002847389
 11
357.491571955813
 21
200.5029503117726
 31
-10.83802616704869
  0
LINE
  5
867
330
720
100
AcDbEntity
  8
0
100
AcDbLine
 10
291.5557619926351
 20
210.6815693589185
 30
0.0
 11
335.1945376695364
 21
210.6815693589204
 31
-7.543731082086666
  0
ARC
  5
868
330
720
100
AcDbEntity
  8
0
100
AcDbCircle
 10
333.464725728216
 20
177.3813066779443
 30
-7.543731082086666
 40
33.3451607279729
100
AcDbArc
 50
43.90011499018304
 51
87.02639218160768
  0
ENDSEC
  0
SECTION
  2
OBJECTS
  0
DICTIONARY
  5
710
330
0
100
AcDbDictionary
  3
ACAD_DETAILVIEWSTYLE
350
7D1
  3
ACAD_GROUP
350
711
  3
ACAD_MLINESTYLE
350
71A
  3
ACAD_SCALELIST
350
821
  3
ACAD_SECTIONVIEWSTYLE
350
7D2
  3
ACDBVARIABLEDICTIONARY
350
7CC
  3
APPDATA
350
77E
  3
DWGPROPS
350
869
  0
DICTIONARY
  5
7D1
102
{ACAD_REACTORS
330
710
102
}
330
710
100
AcDbDictionary
  0
DICTIONARY
  5
711
102
{ACAD_REACTORS
330
710
102
}
330
710
100
AcDbDictionary
  0
DICTIONARY
  5
71A
102
{ACAD_REACTORS
330
710
102
}
330
710
100
AcDbDictionary
  3
STANDARD
350
71B
  0
DICTIONARY
  5
821
102
{ACAD_REACTORS
330
710
102
}
330
710
100
AcDbDictionary
  0
DICTIONARY
  5
7D2
102
{ACAD_REACTORS
330
710
102
}
330
710
100
AcDbDictionary
  0
DICTIONARY
  5
7CC
102
{ACAD_REACTORS
330
710
102
}
330
710
100
AcDbDictionary
  0
DICTIONARY
  5
77E
102
{ACAD_REACTORS
330
710
102
}
330
710
100
AcDbDictionary
  0
XRECORD
  5
869
102
{ACAD_REACTORS
330
710
102
}
330
710
100
AcDbXrecord
  1
DWGPROPS COOKIE
  2

  3

  4

  6

  7

  8
Principale
  9

300
=
301
=
302
=
303
=
304
=
305
=
306
=
307
=
308
=
309
=
 40
0.0
 41
2455544.399583495
 42
2459129.250819653
  1

 90
        0
  0
MLINESTYLE
  5
71B
102
{ACAD_REACTORS
330
71A
102
}
330
71A
100
AcDbMlineStyle
  2
Standard
 70
     0
  3

 62
   256
 51
90.0
 52
90.0
 71
     2
 49
0.5
 62
   256
  6
BYLAYER
 49
-0.5
 62
   256
  6
BYLAYER
  0
ENDSEC
  0
EOF
