  0
SECTION
  2
HEADER
  9
$ACADVER
  1
AC1009
  9
$DWGCODEPAGE
  3
ansi_1252
  9
$INSBASE
 10
0.0
 20
0.0
 30
0.0
  9
$EXTMIN
 10
-1172.547620985105
 20
321.0793921654056
 30
0.0
  9
$EXTMAX
 10
1077.452379014252
 20
777.7810722480042
 30
0.0
  9
$LIMMIN
 10
0.0
 20
0.0
  9
$LIMMAX
 10
420.0
 20
297.0
  9
$ORTHOMODE
 70
     0
  9
$REGENMODE
 70
     1
  9
$FILLMODE
 70
     1
  9
$QTEXTMODE
 70
     0
  9
$MIRRTEXT
 70
     1
  9
$DRAGMODE
 70
     2
  9
$LTSCALE
 40
1.0
  9
$OSMODE
 70
  7167
  9
$ATTMODE
 70
     1
  9
$TEXTSIZE
 40
3.5
  9
$TRACEWID
 40
1.0
  9
$TEXTSTYLE
  7
STANDARD
  9
$CLAYER
  8
0
  9
$CELTYPE
  6
BYLAYER
  9
$CECOLOR
 62
   256
  9
$DIMSCALE
 40
1.0
  9
$DIMASZ
 40
3.302
  9
$DIMEXO
 40
1.0
  9
$DIMDLI
 40
3.75
  9
$DIMRND
 40
0.0
  9
$DIMDLE
 40
0.0
  9
$DIMEXE
 40
1.0
  9
$DIMTP
 40
0.0
  9
$DIMTM
 40
0.0
  9
$DIMTXT
 40
3.5
  9
$DIMCEN
 40
2.5
  9
$DIMTSZ
 40
0.0
  9
$DIMTOL
 70
     0
  9
$DIMLIM
 70
     0
  9
$DIMTIH
 70
     1
  9
$DIMTOH
 70
     1
  9
$DIMSE1
 70
     0
  9
$DIMSE2
 70
     0
  9
$DIMTAD
 70
     1
  9
$DIMZIN
 70
     0
  9
$DIMBLK
  1

  9
$DIMASO
 70
     1
  9
$DIMSHO
 70
     1
  9
$DIMPOST
  1

  9
$DIMAPOST
  1

  9
$DIMALT
 70
     0
  9
$DIMALTD
 70
     3
  9
$DIMALTF
 40
0.0393700787
  9
$DIMLFAC
 40
1.0
  9
$DIMTOFL
 70
     1
  9
$DIMTVP
 40
0.0
  9
$DIMTIX
 70
     0
  9
$DIMSOXD
 70
     0
  9
$DIMSAH
 70
     0
  9
$DIMBLK1
  1

  9
$DIMBLK2
  1

  9
$DIMSTYLE
  2
ISO-25
  9
$DIMCLRD
 70
     0
  9
$DIMCLRE
 70
     0
  9
$DIMCLRT
 70
     0
  9
$DIMTFAC
 40
1.0
  9
$DIMGAP
 40
1.524
  9
$LUNITS
 70
     2
  9
$LUPREC
 70
     2
  9
$SKETCHINC
 40
1.0
  9
$FILLETRAD
 40
10.0
  9
$AUNITS
 70
     0
  9
$AUPREC
 70
     2
  9
$MENU
  1
.
  9
$ELEVATION
 40
0.0
  9
$PELEVATION
 40
0.0
  9
$THICKNESS
 40
0.0
  9
$LIMCHECK
 70
     0
  9
$CHAMFERA
 40
0.0
  9
$CHAMFERB
 40
0.0
  9
$SKPOLY
 70
     0
  9
$TDCREATE
 40
2457831.706102604
  9
$TDUPDATE
 40
2457838.358938831
  9
$TDINDWG
 40
0.0007590046
  9
$TDUSRTIMER
 40
2457838.316513484
  9
$USRTIMER
 70
     1
  9
$ANGBASE
 50
0.0
  9
$ANGDIR
 70
     0
  9
$PDMODE
 70
     0
  9
$PDSIZE
 40
-1.0
  9
$PLINEWID
 40
0.0
  9
$COORDS
 70
     2
  9
$SPLFRAME
 70
     0
  9
$SPLINETYPE
 70
     6
  9
$SPLINESEGS
 70
     8
  9
$ATTDIA
 70
     0
  9
$ATTREQ
 70
     1
  9
$HANDLING
 70
     1
  9
$HANDSEED
  5
16D
  9
$SURFTAB1
 70
     6
  9
$SURFTAB2
 70
     6
  9
$SURFTYPE
 70
     6
  9
$SURFU
 70
     6
  9
$SURFV
 70
     6
  9
$UCSNAME
  2

  9
$UCSORG
 10
0.0
 20
0.0
 30
0.0
  9
$UCSXDIR
 10
1.0
 20
0.0
 30
0.0
  9
$UCSYDIR
 10
0.0
 20
1.0
 30
0.0
  9
$PUCSNAME
  2

  9
$PUCSORG
 10
0.0
 20
0.0
 30
0.0
  9
$PUCSXDIR
 10
1.0
 20
0.0
 30
0.0
  9
$PUCSYDIR
 10
0.0
 20
1.0
 30
0.0
  9
$USERI1
 70
     0
  9
$USERI2
 70
     0
  9
$USERI3
 70
     0
  9
$USERI4
 70
     0
  9
$USERI5
 70
     0
  9
$USERR1
 40
0.0
  9
$USERR2
 40
0.0
  9
$USERR3
 40
0.0
  9
$USERR4
 40
0.0
  9
$USERR5
 40
0.0
  9
$WORLDVIEW
 70
     1
  9
$SHADEDGE
 70
     3
  9
$SHADEDIF
 70
    70
  9
$TILEMODE
 70
     1
  9
$MAXACTVP
 70
    64
  9
$PLIMCHECK
 70
     0
  9
$PEXTMIN
 10
1.000000000000000E+20
 20
1.000000000000000E+20
 30
1.000000000000000E+20
  9
$PEXTMAX
 10
-1.000000000000000E+20
 20
-1.000000000000000E+20
 30
-1.000000000000000E+20
  9
$PLIMMIN
 10
0.0
 20
0.0
  9
$PLIMMAX
 10
0.0
 20
0.0
  9
$UNITMODE
 70
     0
  9
$VISRETAIN
 70
     1
  9
$PLINEGEN
 70
     0
  9
$PSLTSCALE
 70
     1
  0
ENDSEC
  0
SECTION
  2
TABLES
  0
TABLE
  2
VPORT
 70
     1
  0
VPORT
  2
*ACTIVE
 70
     0
 10
0.0
 20
0.0
 11
1.0
 21
1.0
 12
-1109.445534679958
 22
352.9036409640624
 13
0.0
 23
0.0
 14
10.0
 24
10.0
 15
10.0
 25
10.0
 16
0.0
 26
0.0
 36
1.0
 17
0.0
 27
0.0
 37
0.0
 40
26.12669511079405
 41
1.978007761966365
 42
50.0
 43
0.0
 44
0.0
 50
0.0
 51
0.0
 71
    16
 72
   100
 73
     1
 74
     3
 75
     0
 76
     0
 77
     0
 78
     0
  0
ENDTAB
  0
TABLE
  2
LTYPE
 70
     6
  0
LTYPE
  2
CONTINUOUS
 70
     0
  3
Solid line
 72
    65
 73
     0
 40
0.0
  0
LTYPE
  2
HIDDEN
 70
     0
  3
Hidden __ __ __ __ __ __ __ __ __ __ __ __ __ __
 72
    65
 73
     2
 40
1.905
 49
1.27
 49
-0.635
  0
LTYPE
  2
PHANTOM
 70
     0
  3
Phantom ______  __  __  ______  __  __  ______
 72
    65
 73
     6
 40
12.7
 49
6.35
 49
-1.27
 49
1.27
 49
-1.27
 49
1.27
 49
-1.27
  0
LTYPE
  2
CENTER
 70
     0
  3
Center ____ _ ____ _ ____ _ ____ _ ____ _ ____
 72
    65
 73
     4
 40
10.16
 49
6.35
 49
-1.27
 49
1.27
 49
-1.27
  0
LTYPE
  2
CENTERX2
 70
     0
  3
Center (2x) ________  __  ________  __  _____
 72
    65
 73
     4
 40
20.32
 49
12.7
 49
-2.54
 49
2.54
 49
-2.54
  0
LTYPE
  2
DOT2
 70
     0
  3
Dot (.5x) ........................................
 72
    65
 73
     2
 40
0.635
 49
0.0
 49
-0.635
  0
ENDTAB
  0
TABLE
  2
LAYER
 70
     1
  0
LAYER
  2
0
 70
     0
 62
     7
  6
CONTINUOUS
  0
ENDTAB
  0
TABLE
  2
STYLE
 70
     1
  0
STYLE
  2
STANDARD
 70
     0
 40
0.0
 41
1.0
 50
0.0
 71
     0
 42
3.5
  3
txt
  4

  0
ENDTAB
  0
TABLE
  2
VIEW
 70
     0
  0
ENDTAB
  0
TABLE
  2
UCS
 70
     0
  0
ENDTAB
  0
TABLE
  2
APPID
 70
     4
  0
APPID
  2
ACAD
 70
     0
  0
APPID
  2
AECBASE
 70
     0
  0
APPID
  2
AEC_2DSECTION_XDATA
 70
     0
  0
APPID
  2
AEC_MASSGROUP_XDADA
 70
     0
  0
ENDTAB
  0
TABLE
  2
DIMSTYLE
 70
     2
  0
DIMSTYLE
  2
ISO-25
 70
     0
  3

  4

  5

  6

  7

 40
1.0
 41
2.5
 42
0.625
 43
3.75
 44
1.25
 45
0.0
 46
0.0
 47
0.0
 48
0.0
140
2.5
141
2.5
142
0.0
143
0.0393700787
144
1.0
145
0.0
146
1.0
147
0.625
 71
     0
 72
     0
 73
     0
 74
     0
 75
     0
 76
     0
 77
     1
 78
     8
170
     0
171
     3
172
     1
173
     0
174
     0
175
     0
176
     0
177
     0
178
     0
  0
DIMSTYLE
  2
STANDARD
 70
     0
  3

  4

  5

  6

  7

 40
1.0
 41
0.18
 42
0.0625
 43
0.38
 44
0.18
 45
0.0
 46
0.0
 47
0.0
 48
0.0
140
0.18
141
0.09
142
0.0
143
25.4
144
1.0
145
0.0
146
1.0
147
0.09
 71
     0
 72
     0
 73
     1
 74
     1
 75
     0
 76
     0
 77
     0
 78
     0
170
     0
171
     2
172
     0
173
     0
174
     0
175
     0
176
     0
177
     0
178
     0
  0
ENDTAB
  0
ENDSEC
  0
SECTION
  2
BLOCKS
  0
BLOCK
  8
0
  2
$MODEL_SPACE
 70
     0
 10
0.0
 20
0.0
 30
0.0
  3
$MODEL_SPACE
  1

  0
ENDBLK
  5
21
  8
0
  0
BLOCK
 67
     1
  8
0
  2
$PAPER_SPACE
 70
     0
 10
0.0
 20
0.0
 30
0.0
  3
$PAPER_SPACE
  1

  0
ENDBLK
  5
1D
 67
     1
  8
0
  0
ENDSEC
  0
SECTION
  2
ENTITIES
  0
LINE
  5
135
  8
0
  6
CENTERX2
 62
     7
 10
-1113.855109643927
 20
352.004812186007
 30
0.0
 11
1018.759867673073
 21
352.004812186007
 31
0.0
  0
LINE
  5
136
  8
0
  6
CENTERX2
 62
     7
 10
1044.414346076372
 20
746.8556522273045
 30
0.0
 11
-1139.509588047128
 21
746.8556522273045
 31
0.0
  0
CIRCLE
  5
137
  8
0
  6
CONTINUOUS
 62
     7
 10
872.4523790145727
 20
576.9302322067067
 30
0.0
 40
10.00000000000002
  0
CIRCLE
  5
138
  8
0
  6
CONTINUOUS
 62
     7
 10
-47.54762098542733
 20
576.9302322067067
 30
0.0
 40
9.999999999999996
  0
CIRCLE
  5
139
  8
0
  6
CONTINUOUS
 62
     7
 10
-967.5476209854273
 20
576.9302322067067
 30
0.0
 40
9.999999999999806
  0
CIRCLE
  5
13A
  8
0
  6
CONTINUOUS
 62
     7
 10
-714.214287652128
 20
716.9302322067067
 30
0.0
 40
10.0
  0
CIRCLE
  5
13B
  8
0
  6
CONTINUOUS
 62
     7
 10
-380.8809543187276
 20
716.9302322067067
 30
0.0
 40
10.00000000000006
  0
CIRCLE
  5
13C
  8
0
  6
CONTINUOUS
 62
     7
 10
285.785712347872
 20
716.9302322067067
 30
0.0
 40
10.00000000000003
  0
CIRCLE
  5
13D
  8
0
  6
CONTINUOUS
 62
     7
 10
952.4523790145727
 20
716.9302322067067
 30
0.0
 40
10.00000000000023
  0
CIRCLE
  5
13E
  8
0
  6
CONTINUOUS
 62
     7
 10
-380.8809543187276
 20
436.9302322067067
 30
0.0
 40
10.00000000000006
  0
CIRCLE
  5
13F
  8
0
  6
CONTINUOUS
 62
     7
 10
285.785712347872
 20
436.9302322067067
 30
0.0
 40
10.00000000000003
  0
CIRCLE
  5
140
  8
0
  6
CONTINUOUS
 62
     7
 10
147.4523790145727
 20
516.9302322067067
 30
0.0
 40
16.0
  0
CIRCLE
  5
141
  8
0
  6
CONTINUOUS
 62
     7
 10
-1047.547620985427
 20
436.9302322067067
 30
0.0
 40
10.00000000000028
  0
CIRCLE
  5
142
  8
0
  6
CONTINUOUS
 62
     7
 10
-714.214287652128
 20
436.9302322067067
 30
0.0
 40
10.0
  0
CIRCLE
  5
143
  8
0
  6
CONTINUOUS
 62
     7
 10
619.1190456812724
 20
436.9302322067067
 30
0.0
 40
9.999999999999972
  0
CIRCLE
  5
144
  8
0
  6
CONTINUOUS
 62
     7
 10
952.4523790145727
 20
436.9302322067067
 30
0.0
 40
10.00000000000023
  0
CIRCLE
  5
145
  8
0
  6
CONTINUOUS
 62
     7
 10
619.1190456812724
 20
716.9302322067067
 30
0.0
 40
9.999999999999972
  0
CIRCLE
  5
146
  8
0
  6
CONTINUOUS
 62
     7
 10
-47.54762098542733
 20
716.9302322067067
 30
0.0
 40
10.0
  0
CIRCLE
  5
147
  8
0
  6
CONTINUOUS
 62
     7
 10
-47.54762098542733
 20
436.9302322067067
 30
0.0
 40
10.0
  0
CIRCLE
  5
148
  8
0
  6
CONTINUOUS
 62
     7
 10
-1047.547620985427
 20
716.9302322067067
 30
0.0
 40
10.00000000000034
  0
CIRCLE
  5
149
  8
0
  6
CONTINUOUS
 62
     7
 10
-507.5476209854273
 20
576.9302322067067
 30
0.0
 40
9.999999999999876
  0
CIRCLE
  5
14A
  8
0
  6
CONTINUOUS
 62
     7
 10
412.4523790145727
 20
576.9302322067067
 30
0.0
 40
10.00000000000008
  0
LINE
  5
14D
  8
0
  6
CONTINUOUS
 62
     7
 10
1018.759867673073
 20
321.0793921654056
 30
0.0
 11
1018.759867673073
 21
349.004812186007
 31
0.0
  0
LINE
  5
14E
  8
0
  6
CONTINUOUS
 62
     7
 10
-1113.855109643927
 20
321.0793921654056
 30
0.0
 11
-1113.855109643927
 21
349.004812186007
 31
0.0
  0
LINE
  5
153
  8
0
  6
CONTINUOUS
 62
     7
 10
-1139.509588047128
 20
777.7810722480042
 30
0.0
 11
-1139.509588047128
 21
749.8556522273045
 31
0.0
  0
LINE
  5
154
  8
0
  6
CONTINUOUS
 62
     7
 10
1044.414346076372
 20
777.7810722480042
 30
0.0
 11
-1139.509588047128
 21
777.7810722480042
 31
0.0
  0
LINE
  5
158
  8
0
  6
CONTINUOUS
 62
     7
 10
-1113.855109643927
 20
321.0793921654056
 30
0.0
 11
1018.759867673073
 21
321.0793921654056
 31
0.0
  0
ARC
  5
159
  8
0
  6
CONTINUOUS
 62
     7
 10
-497.5476209854273
 20
366.9302322067067
 30
0.0
 40
16.0
 50
314.7913246600938
 51
225.2086753399038
  0
ARC
  5
15A
  8
0
  6
CONTINUOUS
 62
     7
 10
-692.5476209851272
 20
576.9302322067067
 30
0.0
 40
479.9999999999779
 50
159.7817148925885
 51
207.3325911365803
  0
ARC
  5
15B
  8
0
  6
CONTINUOUS
 62
     7
 10
597.4523790142725
 20
576.9302322067067
 30
0.0
 40
479.9999999999795
 50
332.6674088634198
 51
20.2182851074156
  0
CIRCLE
  5
15C
  8
0
  6
CONTINUOUS
 62
     7
 10
-692.5476209851272
 20
576.9302322067067
 30
0.0
 40
90.0000000000007
  0
CIRCLE
  5
15D
  8
0
  6
CONTINUOUS
 62
     7
 10
597.4523790142725
 20
576.9302322067067
 30
0.0
 40
89.9999999999994
  0
LINE
  5
15E
  8
0
 10
-508.8200492010915
 20
355.5753934970323
 30
0.0
 11
-508.8200492010915
 21
347.7438130583084
 31
0.0
  0
LINE
  5
15F
  8
0
 10
-486.2751927697632
 20
355.5753934970323
 30
0.0
 11
-486.2751927697632
 21
347.7438130583084
 31
0.0
  0
LINE
  5
160
  8
0
 10
-508.8200492010915
 20
347.7438130583084
 30
0.0
 11
-486.2751927697632
 21
347.7438130583084
 31
0.0
  0
LINE
  5
161
  8
0
 10
1044.414346076372
 20
749.8556522273045
 30
0.0
 11
1034.414346076372
 21
746.8556522273045
 31
0.0
  0
LINE
  5
162
  8
0
 10
1034.414346076372
 20
746.8556522273045
 30
0.0
 11
1047.876112509812
 21
742.8171222972726
 31
0.0
  0
LINE
  5
163
  8
0
  6
CONTINUOUS
 62
     7
 10
1044.414346076372
 20
749.8556522273045
 30
0.0
 11
1044.414346076372
 21
777.7810722480042
 31
0.0
  0
LINE
  5
164
  8
0
 10
-1139.509588047129
 20
749.8556522273045
 30
0.0
 11
-1129.509588047129
 21
746.8556522273045
 31
0.0
  0
LINE
  5
165
  8
0
 10
-1129.509588047129
 20
746.8556522273045
 30
0.0
 11
-1142.971354480677
 21
742.8171222972402
 31
0.0
  0
LINE
  5
167
  8
0
 10
-1118.958596341106
 20
356.5358581951608
 30
0.0
 11
-1103.855109643927
 21
352.004812186007
 31
0.0
  0
LINE
  5
168
  8
0
 10
-1103.855109643927
 20
352.004812186007
 30
0.0
 11
-1113.855109643927
 21
349.004812186007
 31
0.0
  0
LINE
  5
169
  8
0
 10
1023.863354370254
 20
356.5358581951614
 30
0.0
 11
1008.759867673073
 21
352.004812186007
 31
0.0
  0
LINE
  5
16A
  8
0
 10
1008.759867673073
 20
352.004812186007
 30
0.0
 11
1018.759867673073
 21
349.004812186007
 31
0.0
  0
ENDSEC
  0
EOF
