  0
SECTION
  2
HEADER
  9
$ACADVER
  1
AC1009
  9
$DWGCODEPAGE
  3
ansi_1252
  9
$INSBASE
 10
0.0
 20
0.0
 30
0.0
  9
$EXTMIN
 10
27.38806928088581
 20
46.159084274234
 30
0.0
  9
$EXTMAX
 10
310.5228718624609
 20
300.0925682318195
 30
0.0
  9
$LIMMIN
 10
0.0
 20
0.0
  9
$LIMMAX
 10
12.0
 20
9.0
  9
$ORTHOMODE
 70
     1
  9
$REGENMODE
 70
     1
  9
$FILLMODE
 70
     1
  9
$QTEXTMODE
 70
     0
  9
$MIRRTEXT
 70
     0
  9
$DRAGMODE
 70
     2
  9
$LTSCALE
 40
1.0
  9
$OSMODE
 70
  1023
  9
$ATTMODE
 70
     1
  9
$TEXTSIZE
 40
0.2
  9
$TRACEWID
 40
0.05
  9
$TEXTSTYLE
  7
STANDARD
  9
$CLAYER
  8
0
  9
$CELTYPE
  6
BYLAYER
  9
$CECOLOR
 62
   256
  9
$DIMSCALE
 40
1.0
  9
$DIMASZ
 40
0.18
  9
$DIMEXO
 40
0.0625
  9
$DIMDLI
 40
0.38
  9
$DIMRND
 40
0.0
  9
$DIMDLE
 40
0.0
  9
$DIMEXE
 40
0.18
  9
$DIMTP
 40
0.0
  9
$DIMTM
 40
0.0
  9
$DIMTXT
 40
0.18
  9
$DIMCEN
 40
0.09
  9
$DIMTSZ
 40
0.0
  9
$DIMTOL
 70
     0
  9
$DIMLIM
 70
     0
  9
$DIMTIH
 70
     1
  9
$DIMTOH
 70
     1
  9
$DIMSE1
 70
     0
  9
$DIMSE2
 70
     0
  9
$DIMTAD
 70
     0
  9
$DIMZIN
 70
     0
  9
$DIMBLK
  1

  9
$DIMASO
 70
     1
  9
$DIMSHO
 70
     1
  9
$DIMPOST
  1

  9
$DIMAPOST
  1

  9
$DIMALT
 70
     0
  9
$DIMALTD
 70
     2
  9
$DIMALTF
 40
25.4
  9
$DIMLFAC
 40
1.0
  9
$DIMTOFL
 70
     0
  9
$DIMTVP
 40
0.0
  9
$DIMTIX
 70
     0
  9
$DIMSOXD
 70
     0
  9
$DIMSAH
 70
     0
  9
$DIMBLK1
  1

  9
$DIMBLK2
  1

  9
$DIMSTYLE
  2
STANDARD
  9
$DIMCLRD
 70
     0
  9
$DIMCLRE
 70
     0
  9
$DIMCLRT
 70
     0
  9
$DIMTFAC
 40
1.0
  9
$DIMGAP
 40
0.09
  9
$LUNITS
 70
     2
  9
$LUPREC
 70
     4
  9
$SKETCHINC
 40
0.1
  9
$FILLETRAD
 40
8.0
  9
$AUNITS
 70
     0
  9
$AUPREC
 70
     0
  9
$MENU
  1
.
  9
$ELEVATION
 40
0.0
  9
$PELEVATION
 40
0.0
  9
$THICKNESS
 40
0.0
  9
$LIMCHECK
 70
     0
  9
$CHAMFERA
 40
0.0
  9
$CHAMFERB
 40
0.0
  9
$SKPOLY
 70
     0
  9
$TDCREATE
 40
2455538.423106713
  9
$TDUPDATE
 40
2457371.680947859
  9
$TDINDWG
 40
0.0034847917
  9
$TDUSRTIMER
 40
2457371.638917546
  9
$USRTIMER
 70
     1
  9
$ANGBASE
 50
0.0
  9
$ANGDIR
 70
     0
  9
$PDMODE
 70
     0
  9
$PDSIZE
 40
0.0
  9
$PLINEWID
 40
0.0
  9
$COORDS
 70
     1
  9
$SPLFRAME
 70
     0
  9
$SPLINETYPE
 70
     6
  9
$SPLINESEGS
 70
     8
  9
$ATTDIA
 70
     0
  9
$ATTREQ
 70
     1
  9
$HANDLING
 70
     1
  9
$HANDSEED
  5
3B0
  9
$SURFTAB1
 70
     6
  9
$SURFTAB2
 70
     6
  9
$SURFTYPE
 70
     6
  9
$SURFU
 70
     6
  9
$SURFV
 70
     6
  9
$UCSNAME
  2

  9
$UCSORG
 10
0.0
 20
0.0
 30
0.0
  9
$UCSXDIR
 10
1.0
 20
0.0
 30
0.0
  9
$UCSYDIR
 10
0.0
 20
1.0
 30
0.0
  9
$PUCSNAME
  2

  9
$PUCSORG
 10
0.0
 20
0.0
 30
0.0
  9
$PUCSXDIR
 10
1.0
 20
0.0
 30
0.0
  9
$PUCSYDIR
 10
0.0
 20
1.0
 30
0.0
  9
$USERI1
 70
     0
  9
$USERI2
 70
     0
  9
$USERI3
 70
     0
  9
$USERI4
 70
     0
  9
$USERI5
 70
     0
  9
$USERR1
 40
0.0
  9
$USERR2
 40
0.0
  9
$USERR3
 40
0.0
  9
$USERR4
 40
0.0
  9
$USERR5
 40
0.0
  9
$WORLDVIEW
 70
     1
  9
$SHADEDGE
 70
     3
  9
$SHADEDIF
 70
    70
  9
$TILEMODE
 70
     1
  9
$MAXACTVP
 70
    64
  9
$PLIMCHECK
 70
     0
  9
$PEXTMIN
 10
0.0
 20
0.0
 30
0.0
  9
$PEXTMAX
 10
0.0
 20
0.0
 30
0.0
  9
$PLIMMIN
 10
0.0
 20
0.0
  9
$PLIMMAX
 10
0.0
 20
0.0
  9
$UNITMODE
 70
     0
  9
$VISRETAIN
 70
     1
  9
$PLINEGEN
 70
     0
  9
$PSLTSCALE
 70
     1
  0
ENDSEC
  0
SECTION
  2
TABLES
  0
TABLE
  2
VPORT
 70
     1
  0
VPORT
  2
*ACTIVE
 70
     0
 10
0.0
 20
0.0
 11
1.0
 21
1.0
 12
249.8901800063332
 22
56.73584680478339
 13
0.0
 23
0.0
 14
0.5
 24
0.5
 15
0.5
 25
0.5
 16
0.0
 26
0.0
 36
1.0
 17
0.0
 27
0.0
 37
0.0
 40
175.962354438232
 41
2.200980392156863
 42
50.0
 43
0.0
 44
0.0
 50
0.0
 51
0.0
 71
    16
 72
  1000
 73
     1
 74
     3
 75
     0
 76
     0
 77
     0
 78
     0
  0
ENDTAB
  0
TABLE
  2
LTYPE
 70
     1
  0
LTYPE
  2
CONTINUOUS
 70
     0
  3
Solid line
 72
    65
 73
     0
 40
0.0
  0
ENDTAB
  0
TABLE
  2
LAYER
 70
     2
  0
LAYER
  2
0
 70
     0
 62
     7
  6
CONTINUOUS
  0
LAYER
  2
MANOVELLA
 70
     0
 62
     8
  6
CONTINUOUS
  0
ENDTAB
  0
TABLE
  2
STYLE
 70
     3
  0
STYLE
  2
STANDARD
 70
     0
 40
0.0
 41
1.0
 50
0.0
 71
     0
 42
0.2
  3
txt.shx
  4

  0
STYLE
  2
ANNOTATIVE
 70
     0
 40
0.0
 41
1.0
 50
0.0
 71
     0
 42
0.2
  3
txt
  4

  0
STYLE
  2
ANNOTATIVA
 70
     0
 40
0.0
 41
1.0
 50
0.0
 71
     0
 42
0.2
  3
txt.shx
  4

  0
ENDTAB
  0
TABLE
  2
VIEW
 70
     0
  0
ENDTAB
  0
TABLE
  2
UCS
 70
     0
  0
ENDTAB
  0
TABLE
  2
APPID
 70
     7
  0
APPID
  2
ACAD
 70
     0
  0
APPID
  2
ACADANNOTATIVE
 70
     0
  0
APPID
  2
ACAD_MLEADERVER
 70
     0
  0
APPID
  2
ACADANNOPO
 70
     0
  0
APPID
  2
ACAD_DSTYLE_DIMJAG
 70
     0
  0
APPID
  2
ACAD_DSTYLE_DIMTALN
 70
     0
  0
APPID
  2
ACAECLAYERSTANDARD
 70
     0
  0
ENDTAB
  0
TABLE
  2
DIMSTYLE
 70
     4
  0
DIMSTYLE
  2
STANDARD
 70
     0
  3

  4

  5

  6

  7

 40
1.0
 41
0.18
 42
0.0625
 43
0.38
 44
0.18
 45
0.0
 46
0.0
 47
0.0
 48
0.0
140
0.18
141
0.09
142
0.0
143
25.4
144
1.0
145
0.0
146
1.0
147
0.09
 71
     0
 72
     0
 73
     1
 74
     1
 75
     0
 76
     0
 77
     0
 78
     0
170
     0
171
     2
172
     0
173
     0
174
     0
175
     0
176
     0
177
     0
178
     0
  0
DIMSTYLE
  2
ANNOTATIVE
 70
     0
  3

  4

  5

  6

  7

 40
1.0
 41
0.18
 42
0.0625
 43
0.38
 44
0.18
 45
0.0
 46
0.0
 47
0.0
 48
0.0
140
0.18
141
0.09
142
0.0
143
25.4
144
1.0
145
0.0
146
1.0
147
0.09
 71
     0
 72
     0
 73
     1
 74
     1
 75
     0
 76
     0
 77
     0
 78
     0
170
     0
171
     2
172
     0
173
     0
174
     0
175
     0
176
     0
177
     0
178
     0
  0
DIMSTYLE
  2
ANNOTATIVA
 70
     0
  3

  4

  5

  6

  7

 40
0.0
 41
0.18
 42
0.0625
 43
0.38
 44
0.18
 45
0.0
 46
0.0
 47
0.0
 48
0.0
140
0.18
141
0.09
142
0.0
143
25.4
144
1.0
145
0.0
146
1.0
147
0.09
 71
     0
 72
     0
 73
     1
 74
     1
 75
     0
 76
     0
 77
     0
 78
     0
170
     0
171
     2
172
     0
173
     0
174
     0
175
     0
176
     0
177
     0
178
     0
  0
DIMSTYLE
  2
ISO-25
 70
     0
  3

  4

  5

  6

  7

 40
1.0
 41
2.5
 42
0.625
 43
3.75
 44
1.25
 45
0.0
 46
0.0
 47
0.0
 48
0.0
140
2.5
141
2.5
142
0.0
143
0.0393700787
144
1.0
145
0.0
146
1.0
147
0.625
 71
     0
 72
     0
 73
     0
 74
     0
 75
     0
 76
     0
 77
     1
 78
     8
170
     0
171
     3
172
     1
173
     0
174
     0
175
     0
176
     0
177
     0
178
     0
  0
ENDTAB
  0
ENDSEC
  0
SECTION
  2
BLOCKS
  0
BLOCK
  8
0
  2
$MODEL_SPACE
 70
     0
 10
0.0
 20
0.0
 30
0.0
  3
$MODEL_SPACE
  1

  0
ENDBLK
  5
2F9
  8
0
  0
BLOCK
 67
     1
  8
0
  2
$PAPER_SPACE
 70
     0
 10
0.0
 20
0.0
 30
0.0
  3
$PAPER_SPACE
  1

  0
ENDBLK
  5
2F5
 67
     1
  8
0
  0
ENDSEC
  0
SECTION
  2
ENTITIES
  0
ARC
  5
18C
  8
0
 10
135.3157625363498
 20
114.9168779850683
 30
0.0
 40
102.0563296066539
 50
347.7205141999441
 51
103.5104818443649
  0
ARC
  5
18D
  8
0
 10
135.3157625363498
 20
114.9168779850683
 30
0.0
 40
162.0563296066539
 50
351.4324221905599
 51
36.33309941104968
  0
ARC
  5
18E
  8
0
 10
135.3157625363498
 20
114.9168779850683
 30
0.0
 40
162.0563296066539
 50
57.65365174899574
 51
104.0301546041147
  0
CIRCLE
  5
199
  8
0
 10
43.34967671794276
 20
227.0824397606168
 30
0.0
 40
5.0
  0
LINE
  5
19C
  8
0
 10
269.6547944478776
 20
214.7503665952595
 30
0.0
 11
269.5212568281493
 21
214.6157760391961
 31
0.0
  0
LINE
  5
19D
  8
0
 10
225.610682613628
 20
255.8395110730348
 30
0.0
 11
225.4828419152568
 21
255.6965766618561
 31
0.0
  0
LINE
  5
19E
  8
0
 10
225.610682613628
 20
255.8395110730348
 30
0.0
 11
252.5557013768701
 21
284.722308095637
 31
0.0
  0
LINE
  5
19F
  8
0
 10
296.5998132111571
 20
243.633163617909
 30
0.0
 11
269.6547944478776
 21
214.7503665952595
 31
0.0
  0
CIRCLE
  5
1A0
  8
0
 10
268.9787071414508
 20
113.7760950451597
 30
0.0
 40
6.0
  0
CIRCLE
  5
1A1
  8
0
 10
266.8845830945617
 20
138.5119961908153
 30
0.0
 40
6.0
  0
CIRCLE
  5
1A2
  8
0
 10
260.2525441764198
 20
162.4340826549946
 30
0.0
 40
5.999999999999999
  0
CIRCLE
  5
1A3
  8
0
 10
249.3113347651057
 20
184.7172623569408
 30
0.0
 40
6.0
  0
CIRCLE
  5
1A4
  8
0
 10
234.438326008935
 20
204.5929704336436
 30
0.0
 40
6.0
  0
CIRCLE
  5
1A5
  8
0
 10
216.1464999908172
 20
221.3756776626419
 30
0.0
 40
6.0
  0
CIRCLE
  5
1A6
  8
0
 10
195.0667565619193
 20
234.4865349184934
 30
0.0
 40
6.0
  0
CIRCLE
  5
1A7
  8
0
 10
171.92615309636
 20
243.473338146609
 30
0.0
 40
5.999999999999999
  0
CIRCLE
  5
1A8
  8
0
 10
147.5228276951499
 20
248.0261252462283
 30
0.0
 40
5.999999999999999
  0
CIRCLE
  5
1A9
  8
0
 10
122.6984707586422
 20
247.9878669136037
 30
0.0
 40
5.999999999999999
  0
LINE
  5
1AA
  8
0
 10
234.3739876743336
 20
88.2774403730866
 30
0.0
 11
233.072783877588
 21
56.30390649458837
 31
0.0
  0
LINE
  5
1AB
  8
0
 10
295.0705265582027
 20
85.80731720353695
 30
0.0
 11
293.769322761449
 21
53.83378332504552
 31
0.0
  0
LINE
  5
1AC
  8
0
 10
35.61446719302751
 20
209.4993076845142
 30
0.0
 11
27.89337434428002
 21
238.4886975577203
 31
0.0
  0
ARC
  5
1AD
  8
0
 10
42.38806928088581
 20
242.3492439820996
 30
0.0
 40
15.0
 50
104.9140501578895
 51
194.9140501577728
  0
LINE
  5
1AE
  8
0
 10
91.19158112602908
 20
270.8705909272252
 30
0.0
 11
52.53906129522802
 21
260.5758004622649
 31
0.0
  0
LINE
  5
1AF
  8
0
 10
53.96970855401434
 20
198.8651591722864
 30
0.0
 11
63.14968201387665
 21
201.3101719077312
 31
0.0
  0
ARC
  5
1B0
  8
0
 10
50.10916212963332
 20
213.3598541088916
 30
0.0
 40
15.0
 50
194.9140501577728
 51
284.9140501578894
  0
LINE
  5
1B1
  8
0
 10
283.6473471706455
 20
296.0607189998957
 30
0.0
 11
305.7551574687428
 21
275.4361457347079
 31
0.0
  0
ARC
  5
1B2
  8
0
 10
273.4150615643636
 20
285.0925682318195
 30
0.0
 40
15.0
 50
46.98793306016821
 51
136.987933060184
  0
LINE
  5
1B3
  8
0
 10
255.9664632456343
 20
288.3783583516628
 30
0.0
 11
262.4469107962838
 21
295.3248538381103
 31
0.0
  0
ARC
  5
1B4
  8
0
 10
295.5228718624609
 20
264.4679949666299
 30
0.0
 40
15.0
 50
316.987933060184
 51
46.98793306016821
  0
CIRCLE
  5
1B5
  8
0
 10
286.5154238346629
 20
276.973911752839
 30
0.0
 40
5.0
  0
LINE
  5
1B6
  8
0
 10
300.0105750799307
 20
247.2892138739257
 30
0.0
 11
306.4910226305407
 21
254.2357093603432
 31
0.0
  0
ARC
  5
1B7
  8
0
 10
234.4756442209551
 20
90.77537270734408
 30
0.0
 40
2.5
 50
267.6695610562175
 51
77.01873004296516
  0
ARC
  5
1B8
  8
0
 10
295.172183104824
 20
88.30524953779445
 30
0.0
 40
2.5
 50
80.99047441374006
 51
267.6695610562207
  0
ARC
  5
1BB
  8
0
 10
65.56546450331064
 20
201.9535963117944
 30
0.0
 40
2.5
 50
14.9140501577411
 51
194.914050157731
  0
ARC
  5
1BC
  8
0
 10
109.0495493131426
 20
213.5352355849336
 30
0.0
 40
2.5
 50
14.21226600105597
 51
194.9140501575368
  0
ARC
  5
1BD
  8
0
 10
93.60736361545842
 20
271.514015331306
 30
0.0
 40
2.5
 50
194.9140501581448
 51
14.47210238094096
  0
ARC
  5
1BE
  8
0
 10
50.1232788057938
 20
259.9323760582024
 30
0.0
 40
2.5
 50
194.9140501577161
 51
14.91405015770938
  0
LINE
  5
1C2
  8
0
 10
67.98124699274452
 20
202.5970207158581
 30
0.0
 11
106.6337668237064
 21
212.8918111808786
 31
0.0
  0
LINE
  5
1C3
  8
0
 10
47.70749631635964
 20
259.2889516541397
 30
0.0
 11
38.52752285651206
 21
256.8439389187031
 31
0.0
  0
ARC
  5
1C4
  8
0
 10
223.8162022315378
 20
253.8331625466758
 30
0.0
 40
2.5
 50
228.1905147743547
 51
48.19051477435475
  0
ARC
  5
1C5
  8
0
 10
254.2610823112524
 20
286.5503332236496
 30
0.0
 40
2.5
 50
226.9879330601518
 51
46.98793306016468
  0
ARC
  5
1C6
  8
0
 10
298.3051941455505
 20
245.4611887459111
 30
0.0
 40
2.5
 50
46.98793306021583
 51
226.9879330598002
  0
ARC
  5
1C7
  8
0
 10
267.7604454530489
 20
212.8410807692085
 30
0.0
 40
2.5
 50
45.2249987260661
 51
225.2249987260666
  0
LINE
  5
1C8
  8
0
 10
265.9996340779484
 20
211.0663854992207
 30
0.0
 11
265.8660964582201
 21
210.9317949431575
 31
0.0
  0
LINE
  5
1C9
  8
0
 10
222.149562547819
 20
251.9697484314955
 30
0.0
 11
222.0217218494478
 21
251.8268140203168
 31
0.0
  0
LINE
  5
30E
  8
0
 10
240.7408663980235
 20
47.98522207577804
 30
0.0
 11
285.4506383426365
 21
46.16570080461007
 31
0.0
  0
ARC
  5
30F
  8
0
 10
285.775939291825
 20
54.159084274234
 30
0.0
 40
8.0
 50
267.6695610562201
 51
357.6695610562201
  0
ARC
  5
310
  8
0
 10
241.066167347212
 20
55.97860554540197
 30
0.0
 40
8.0
 50
177.669561056235
 51
267.66956105622
  0
ARC
  5
319
  8
0
 10
264.2139743831613
 20
74.55271711702657
 30
0.0
 40
5.0
 50
355.4155331179773
 51
180.0000000000001
  0
LINE
  5
31B
  8
0
 10
259.2139743831613
 20
74.55271711702657
 30
0.0
 11
258.9742803621204
 21
60.76455768095688
 31
0.0
  0
LINE
  5
31C
  8
0
 10
269.1979773035562
 20
74.15307366406527
 30
0.0
 11
268.9659978006721
 21
60.35769776810997
 31
0.0
  0
ARC
  5
31D
  8
0
 10
263.9699986712699
 20
60.55767951480865
 30
0.0
 40
5.0
 50
177.6286739169296
 51
357.7077665589897
  0
ENDSEC
  0
EOF
