999
     *******************************************
999
     BOCAD Software GmbH   Rev.18.000   0202.22
999
     Filename:   c:\progetti21\danieli_aqs\b4\temp_65\10120.dxf
999
     Creator:    bocad
999
     Date:       20.01.2016
999
     Factor:     10.000000
999
     *******************************************
  0
SECTION
  2
HEADER
  9
$DWGCODEPAGE
  3
ANSI_1252
  9
$INSBASE
 10
0.0
 20
0.0
 30
0.0
  9
$EXTMIN
 10
-0.500000
 20
-23.497324
  9
$EXTMAX
 10
46.489305
 20
23.497324
  9
$LIMMIN
 10
-1.500000
 20
-24.497324
  9
$LIMMAX
 10
47.489305
 20
24.497324
  9
$LTSCALE
 40
10.000000
  0
ENDSEC
  0
SECTION
  2
TABLES
  0
TABLE
  2
LTYPE
 70
4
  0
LTYPE
  2
CONTINUOUS
 70
64
  3
____________________________________________
 72
65
 73
0
 40
0.0
  0
LTYPE
  2
HIDDEN
 70
64
  3
__ __ __ __ __ __ __ __ __ __ __ __ __ __ __
 72
65
 73
2
 40
0.50
 49
0.30
 49
-0.20
  0
LTYPE
  2
DASHDOT
 70
64
  3
____ _ ____ _ ____ _ ____ _ ____ _ ____ _ __
 72
65
 73
4
 40
2.0
 49
1.5
 49
-0.25
 49
0
 49
-0.25
  0
LTYPE
  2
DOT
 70
64
  3
............................................
 72
65
 73
2
 40
0.30
 49
0
 49
-0.30
  0
ENDTAB
  0
TABLE
  2
LAYER
 70
23
  0
LAYER
  2
UNTERSCHRIFT
 70
64
 62
7
  6
CONTINUOUS
  0
LAYER
  2
TEILE
 70
64
 62
7
  6
CONTINUOUS
  0
LAYER
  2
REST
 70
64
 62
7
  6
CONTINUOUS
  0
LAYER
  2
MARKERPUNKTE
 70
64
 62
7
  6
CONTINUOUS
  0
LAYER
  2
HILFSPUNKTE
 70
64
 62
7
  6
CONTINUOUS
  0
LAYER
  2
PICKPUNKTE
 70
64
 62
7
  6
CONTINUOUS
  0
LAYER
  2
SCHRAUBEN
 70
64
 62
7
  6
CONTINUOUS
  0
LAYER
  2
SCHWEISSEN
 70
64
 62
7
  6
CONTINUOUS
  0
LAYER
  2
GRAFIK
 70
64
 62
7
  6
CONTINUOUS
  0
LAYER
  2
BEM_FREI
 70
64
 62
7
  6
CONTINUOUS
  0
LAYER
  2
BEM_SYSTEM
 70
64
 62
7
  6
CONTINUOUS
  0
LAYER
  2
BEM_KONTUR
 70
64
 62
7
  6
CONTINUOUS
  0
LAYER
  2
BEM_ANBAU
 70
64
 62
7
  6
CONTINUOUS
  0
LAYER
  2
BEM_SCHRAUBEN
 70
64
 62
7
  6
CONTINUOUS
  0
LAYER
  2
BEM_SCHWEISSEN
 70
64
 62
7
  6
CONTINUOUS
  0
LAYER
  2
FREIER_TEXT
 70
64
 62
7
  6
CONTINUOUS
  0
LAYER
  2
BEZ_TEILE
 70
64
 62
7
  6
CONTINUOUS
  0
LAYER
  2
BEZ_SCHRAUBEN
 70
64
 62
7
  6
CONTINUOUS
  0
LAYER
  2
BEZ_SCHWEISSEN
 70
64
 62
7
  6
CONTINUOUS
  0
LAYER
  2
SCHRAFFUREN
 70
64
 62
7
  6
CONTINUOUS
  0
LAYER
  2
SCHNITTSYMBOL
 70
64
 62
7
  6
CONTINUOUS
  0
LAYER
  2
RASTER
 70
64
 62
7
  6
CONTINUOUS
  0
LAYER
  2
LISTEN
 70
64
 62
7
  6
CONTINUOUS
  0
LAYER
  2
RAHMEN
 70
64
 62
7
  6
CONTINUOUS
  0
ENDTAB
  0
TABLE
  2
STYLE
 70
1
  0
STYLE
  2
STANDARD
 70
64
 40
0
 41
1
 50
0.0
 71
0
 42
0.35
  3
ROMANS
  0
ENDTAB
  0
ENDSEC
  0
SECTION
  2
ENTITIES
  0
TEXT
 8
UNTERSCHRIFT
 62
2
 10
2.000000
 20
0.000002
 40
2.750000
 50
-89.999985
 41
0.800000
 51
15.000000
  1
P
  0
TEXT
 8
UNTERSCHRIFT
 62
2
 10
2.125157
 20
-2.289300
 40
2.750000
 50
-83.741486
 41
0.800000
 51
15.000000
  1
r
  0
TEXT
 8
UNTERSCHRIFT
 62
2
 10
2.499134
 20
-4.551314
 40
2.750000
 50
-77.482986
 41
0.800000
 51
15.000000
  1
o
  0
TEXT
 8
UNTERSCHRIFT
 62
2
 10
3.117474
 20
-6.759079
 40
2.750000
 50
-71.224487
 41
0.800000
 51
15.000000
  1
j
  0
TEXT
 8
UNTERSCHRIFT
 62
2
 10
3.972807
 20
-8.886277
 40
2.750000
 50
-64.965981
 41
0.800000
 51
15.000000
  1
e
  0
TEXT
 8
UNTERSCHRIFT
 62
2
 10
5.054938
 20
-10.907555
 40
2.750000
 50
-58.707478
 41
0.800000
 51
15.000000
  1
c
  0
TEXT
 8
UNTERSCHRIFT
 62
2
 10
6.350968
 20
-12.798817
 40
2.750000
 50
-52.448975
 41
0.800000
 51
15.000000
  1
t
  0
TEXT
 8
UNTERSCHRIFT
 62
2
 10
7.845448
 20
-14.537521
 40
2.750000
 50
-46.190479
 41
0.800000
 51
15.000000
  1
 
  0
TEXT
 8
UNTERSCHRIFT
 62
2
 10
9.520566
 20
-16.102945
 40
2.750000
 50
-39.931980
 41
0.800000
 51
15.000000
  1
 
  0
TEXT
 8
UNTERSCHRIFT
 62
2
 10
11.356354
 20
-17.476427
 40
2.750000
 50
-33.673473
 41
0.800000
 51
15.000000
  1
D
  0
TEXT
 8
UNTERSCHRIFT
 62
2
 10
13.330929
 20
-18.641594
 40
2.750000
 50
-27.414968
 41
0.800000
 51
15.000000
  1
P
  0
TEXT
 8
UNTERSCHRIFT
 62
2
 10
15.420757
 20
-19.584562
 40
2.750000
 50
-21.156477
 41
0.800000
 51
15.000000
  1
0
  0
TEXT
 8
UNTERSCHRIFT
 62
2
 10
17.600927
 20
-20.294086
 40
2.750000
 50
-14.897978
 41
0.800000
 51
15.000000
  1
G
  0
TEXT
 8
UNTERSCHRIFT
 62
2
 10
19.845451
 20
-20.761715
 40
2.750000
 50
-8.639478
 41
0.800000
 51
15.000000
  1
N
  0
TEXT
 8
UNTERSCHRIFT
 62
2
 10
22.127579
 20
-20.981869
 40
2.750000
 50
-2.380965
 41
0.800000
 51
15.000000
  1
9
  0
TEXT
 8
UNTERSCHRIFT
 62
2
 10
24.420105
 20
-20.951927
 40
2.750000
 50
3.877534
 41
0.800000
 51
15.000000
  1
 
  0
TEXT
 8
UNTERSCHRIFT
 62
2
 10
26.695702
 20
-20.672245
 40
2.750000
 50
10.136032
 41
0.800000
 51
15.000000
  1
 
  0
TEXT
 8
UNTERSCHRIFT
 62
2
 10
28.927248
 20
-20.146158
 40
2.750000
 50
16.394535
 41
0.800000
 51
15.000000
  1
,
  0
TEXT
 8
UNTERSCHRIFT
 62
2
 10
31.088144
 20
-19.379936
 40
2.750000
 50
22.653034
 41
0.800000
 51
15.000000
  1
Q
  0
TEXT
 8
UNTERSCHRIFT
 62
2
 10
33.152634
 20
-18.382710
 40
2.750000
 50
28.911537
 41
0.800000
 51
15.000000
  1
t
  0
TEXT
 8
UNTERSCHRIFT
 62
2
 10
35.096104
 20
-17.166368
 40
2.750000
 50
35.170033
 41
0.800000
 51
15.000000
  1
y
  0
TEXT
 8
UNTERSCHRIFT
 62
2
 10
36.895393
 20
-15.745411
 40
2.750000
 50
41.428539
 41
0.800000
 51
15.000000
  1
.
  0
TEXT
 8
UNTERSCHRIFT
 62
2
 10
38.529057
 20
-14.136773
 40
2.750000
 50
47.687035
 41
0.800000
 51
15.000000
  1
 
  0
TEXT
 8
UNTERSCHRIFT
 62
2
 10
39.977615
 20
-12.359630
 40
2.750000
 50
53.945545
 41
0.800000
 51
15.000000
  1
2
  0
TEXT
 8
UNTERSCHRIFT
 62
2
 10
41.223812
 20
-10.435163
 40
2.750000
 50
60.204033
 41
0.800000
 51
15.000000
  1
4
  0
TEXT
 8
UNTERSCHRIFT
 62
2
 10
42.252785
 20
-8.386314
 40
2.750000
 50
66.462555
 41
0.800000
 51
15.000000
  1
 
  0
TEXT
 8
UNTERSCHRIFT
 62
2
 10
43.052269
 20
-6.237502
 40
2.750000
 50
72.721039
 41
0.800000
 51
15.000000
  1
 
  0
TEXT
 8
UNTERSCHRIFT
 62
2
 10
43.612740
 20
-4.014341
 40
2.750000
 50
78.979553
 41
0.800000
 51
15.000000
  1
,
  0
TEXT
 8
UNTERSCHRIFT
 62
2
 10
43.927513
 20
-1.743331
 40
2.750000
 50
85.238060
 41
0.800000
 51
15.000000
  1
 
  0
TEXT
 8
UNTERSCHRIFT
 62
2
 10
43.992836
 20
0.548460
 40
2.750000
 50
91.496552
 41
0.800000
 51
15.000000
  1
P
  0
TEXT
 8
UNTERSCHRIFT
 62
2
 10
43.807930
 20
2.833713
 40
2.750000
 50
97.755051
 41
0.800000
 51
15.000000
  1
o
  0
TEXT
 8
UNTERSCHRIFT
 62
2
 10
43.375008
 20
5.085189
 40
2.750000
 50
104.013573
 41
0.800000
 51
15.000000
  1
s
  0
TEXT
 8
UNTERSCHRIFT
 62
2
 10
42.699211
 20
7.276051
 40
2.750000
 50
110.272064
 41
0.800000
 51
15.000000
  1
.
  0
TEXT
 8
UNTERSCHRIFT
 62
2
 10
41.788616
 20
9.380186
 40
2.750000
 50
116.530571
 41
0.800000
 51
15.000000
  1
 
  0
TEXT
 8
UNTERSCHRIFT
 62
2
 10
40.654064
 20
11.372511
 40
2.750000
 50
122.789078
 41
0.800000
 51
15.000000
  1
 
  0
TEXT
 8
UNTERSCHRIFT
 62
2
 10
39.309078
 20
13.229280
 40
2.750000
 50
129.047577
 41
0.800000
 51
15.000000
  1
1
  0
TEXT
 8
UNTERSCHRIFT
 62
2
 10
37.769699
 20
14.928361
 40
2.750000
 50
135.306076
 41
0.800000
 51
15.000000
  1
0
  0
TEXT
 8
UNTERSCHRIFT
 62
2
 10
36.054268
 20
16.449501
 40
2.750000
 50
141.564590
 41
0.800000
 51
15.000000
  1
1
  0
TEXT
 8
UNTERSCHRIFT
 62
2
 10
34.183235
 20
17.774567
 40
2.750000
 50
147.823090
 41
0.800000
 51
15.000000
  1
2
  0
TEXT
 8
UNTERSCHRIFT
 62
2
 10
32.178902
 20
18.887766
 40
2.750000
 50
154.081573
 41
0.800000
 51
15.000000
  1
0
  0
TEXT
 8
UNTERSCHRIFT
 62
2
 10
30.065157
 20
19.775831
 40
2.750000
 50
160.340088
 41
0.800000
 51
15.000000
  1
 
  0
TEXT
 8
UNTERSCHRIFT
 62
2
 10
27.867201
 20
20.428173
 40
2.750000
 50
166.598587
 41
0.800000
 51
15.000000
  1
 
  0
TEXT
 8
UNTERSCHRIFT
 62
2
 10
25.611229
 20
20.837021
 40
2.750000
 50
172.857086
 41
0.800000
 51
15.000000
  1
 
  0
TEXT
 8
UNTERSCHRIFT
 62
2
 10
23.324129
 20
20.997498
 40
2.750000
 50
179.115585
 41
0.800000
 51
15.000000
  1
,
  0
TEXT
 8
UNTERSCHRIFT
 62
2
 10
21.033171
 20
20.907690
 40
2.750000
 50
-174.625916
 41
0.800000
 51
15.000000
  1
 
  0
TEXT
 8
UNTERSCHRIFT
 62
2
 10
18.765652
 20
20.568672
 40
2.750000
 50
-168.367416
 41
0.800000
 51
15.000000
  1
P
  0
TEXT
 8
UNTERSCHRIFT
 62
2
 10
16.548607
 20
19.984482
 40
2.750000
 50
-162.108917
 41
0.800000
 51
15.000000
  1
r
  0
TEXT
 8
UNTERSCHRIFT
 62
2
 10
14.408461
 20
19.162083
 40
2.750000
 50
-155.850403
 41
0.800000
 51
15.000000
  1
o
  0
TEXT
 8
UNTERSCHRIFT
 62
2
 10
12.370720
 20
18.111279
 40
2.750000
 50
-149.591904
 41
0.800000
 51
15.000000
  1
f
  0
TEXT
 8
UNTERSCHRIFT
 62
2
 10
10.459679
 20
16.844593
 40
2.750000
 50
-143.333405
 41
0.800000
 51
15.000000
  1
i
  0
TEXT
 8
UNTERSCHRIFT
 62
2
 10
8.698113
 20
15.377127
 40
2.750000
 50
-137.074890
 41
0.800000
 51
15.000000
  1
 
  0
TEXT
 8
UNTERSCHRIFT
 62
2
 10
7.107022
 20
13.726370
 40
2.750000
 50
-130.816391
 41
0.800000
 51
15.000000
  1
l
  0
TEXT
 8
UNTERSCHRIFT
 62
2
 10
5.705370
 20
11.912001
 40
2.750000
 50
-124.557892
 41
0.800000
 51
15.000000
  1
 
  0
TEXT
 8
UNTERSCHRIFT
 62
2
 10
4.509863
 20
9.955644
 40
2.750000
 50
-118.299400
 41
0.800000
 51
15.000000
  1
P
  0
TEXT
 8
UNTERSCHRIFT
 62
2
 10
3.534753
 20
7.880619
 40
2.750000
 50
-112.040901
 41
0.800000
 51
15.000000
  1
L
  0
TEXT
 8
UNTERSCHRIFT
 62
2
 10
2.791662
 20
5.711660
 40
2.750000
 50
-105.782387
 41
0.800000
 51
15.000000
  1
4
  0
TEXT
 8
UNTERSCHRIFT
 62
2
 10
2.289447
 20
3.474620
 40
2.750000
 50
-99.523903
 41
0.800000
 51
15.000000
  1
6
  0
TEXT
 8
UNTERSCHRIFT
 62
2
 10
2.034095
 20
1.196163
 40
2.750000
 50
-93.265388
 41
0.800000
 51
15.000000
  1
*
  0
TEXT
 8
UNTERSCHRIFT
 62
2
 10
2.028649
 20
-1.096551
 40
2.750000
 50
-87.006874
 41
0.800000
 51
15.000000
  1
3
  0
LINE
  8
TEILE
 62
2
 10
0.000000
 20
0.000000
 11
0.042781
 21
1.402169
  0
LINE
  8
TEILE
 62
2
 10
0.042781
 20
1.402169
 11
0.170964
 21
2.799124
  0
LINE
  8
TEILE
 62
2
 10
0.170964
 20
2.799124
 11
0.384072
 21
4.185666
  0
LINE
  8
TEILE
 62
2
 10
0.384072
 20
4.185666
 11
0.681313
 21
5.556636
  0
LINE
  8
TEILE
 62
2
 10
0.681313
 20
5.556636
 11
1.061581
 21
6.906936
  0
LINE
  8
TEILE
 62
2
 10
1.061581
 20
6.906936
 11
1.523461
 21
8.231543
  0
LINE
  8
TEILE
 62
2
 10
1.523461
 20
8.231543
 11
2.065236
 21
9.525526
  0
LINE
  8
TEILE
 62
2
 10
2.065236
 20
9.525526
 11
2.684889
 21
10.784074
  0
LINE
  8
TEILE
 62
2
 10
2.684889
 20
10.784074
 11
3.380115
 21
12.002505
  0
LINE
  8
TEILE
 62
2
 10
3.380115
 20
12.002505
 11
4.148329
 21
13.176285
  0
LINE
  8
TEILE
 62
2
 10
4.148329
 20
13.176285
 11
4.986672
 21
14.301050
  0
LINE
  8
TEILE
 62
2
 10
4.986672
 20
14.301050
 11
5.892026
 21
15.372612
  0
LINE
  8
TEILE
 62
2
 10
5.892026
 20
15.372612
 11
6.861022
 21
16.386988
  0
LINE
  8
TEILE
 62
2
 10
6.861022
 20
16.386988
 11
7.890057
 21
17.340405
  0
LINE
  8
TEILE
 62
2
 10
7.890057
 20
17.340405
 11
8.975302
 21
18.229311
  0
LINE
  8
TEILE
 62
2
 10
8.975302
 20
18.229311
 11
10.112719
 21
19.050406
  0
LINE
  8
TEILE
 62
2
 10
10.112719
 20
19.050406
 11
11.298077
 21
19.800631
  0
LINE
  8
TEILE
 62
2
 10
11.298077
 20
19.800631
 11
12.526969
 21
20.477198
  0
LINE
  8
TEILE
 62
2
 10
12.526969
 20
20.477198
 11
13.794819
 21
21.077585
  0
LINE
  8
TEILE
 62
2
 10
13.794819
 20
21.077585
 11
15.096913
 21
21.599564
  0
LINE
  8
TEILE
 62
2
 10
15.096913
 20
21.599564
 11
16.428410
 21
22.041191
  0
LINE
  8
TEILE
 62
2
 10
16.428410
 20
22.041191
 11
17.784349
 21
22.400826
  0
LINE
  8
TEILE
 62
2
 10
17.784349
 20
22.400826
 11
19.159695
 21
22.677126
  0
LINE
  8
TEILE
 62
2
 10
19.159695
 20
22.677126
 11
20.549326
 21
22.869064
  0
LINE
  8
TEILE
 62
2
 10
20.549326
 20
22.869064
 11
21.948072
 21
22.975931
  0
LINE
  8
TEILE
 62
2
 10
21.948072
 20
22.975931
 11
23.350733
 21
22.997324
  0
LINE
  8
TEILE
 62
2
 10
23.350733
 20
22.997324
 11
24.752087
 21
22.933168
  0
LINE
  8
TEILE
 62
2
 10
24.752087
 20
22.933168
 11
26.146925
 21
22.783697
  0
LINE
  8
TEILE
 62
2
 10
26.146925
 20
22.783697
 11
27.530056
 21
22.549469
  0
LINE
  8
TEILE
 62
2
 10
27.530056
 20
22.549469
 11
28.896334
 21
22.231358
  0
LINE
  8
TEILE
 62
2
 10
28.896334
 20
22.231358
 11
30.240679
 21
21.830542
  0
LINE
  8
TEILE
 62
2
 10
30.240679
 20
21.830542
 11
31.558086
 21
21.348515
  0
LINE
  8
TEILE
 62
2
 10
31.558086
 20
21.348515
 11
32.843658
 21
20.787071
  0
LINE
  8
TEILE
 62
2
 10
32.843658
 20
20.787071
 11
34.092609
 21
20.148298
  0
LINE
  8
TEILE
 62
2
 10
34.092609
 20
20.148298
 11
35.300297
 21
19.434574
  0
LINE
  8
TEILE
 62
2
 10
35.300297
 20
19.434574
 11
36.462227
 21
18.648550
  0
LINE
  8
TEILE
 62
2
 10
36.462227
 20
18.648550
 11
37.574078
 21
17.793152
  0
LINE
  8
TEILE
 62
2
 10
37.574078
 20
17.793152
 11
38.631710
 21
16.871563
  0
LINE
  8
TEILE
 62
2
 10
38.631710
 20
16.871563
 11
39.631191
 21
15.887211
  0
LINE
  8
TEILE
 62
2
 10
39.631191
 20
15.887211
 11
40.568806
 21
14.843758
  0
LINE
  8
TEILE
 62
2
 10
40.568806
 20
14.843758
 11
41.441059
 21
13.745083
  0
LINE
  8
TEILE
 62
2
 10
41.441059
 20
13.745083
 11
42.244713
 21
12.595277
  0
LINE
  8
TEILE
 62
2
 10
42.244713
 20
12.595277
 11
42.976776
 21
11.398616
  0
LINE
  8
TEILE
 62
2
 10
42.976776
 20
11.398616
 11
43.634521
 21
10.159551
  0
LINE
  8
TEILE
 62
2
 10
43.634521
 20
10.159551
 11
44.215508
 21
8.882690
  0
LINE
  8
TEILE
 62
2
 10
44.215508
 20
8.882690
 11
44.717567
 21
7.572787
  0
LINE
  8
TEILE
 62
2
 10
44.717567
 20
7.572787
 11
45.138840
 21
6.234712
  0
LINE
  8
TEILE
 62
2
 10
45.138840
 20
6.234712
 11
45.477757
 21
4.873443
  0
LINE
  8
TEILE
 62
2
 10
45.477757
 20
4.873443
 11
45.733051
 21
3.494045
  0
LINE
  8
TEILE
 62
2
 10
45.733051
 20
3.494045
 11
45.903778
 21
2.101648
  0
LINE
  8
TEILE
 62
2
 10
45.903778
 20
2.101648
 11
45.989300
 21
0.701434
  0
LINE
  8
TEILE
 62
2
 10
45.989300
 20
0.701434
 11
45.989304
 21
-0.701390
  0
LINE
  8
TEILE
 62
2
 10
45.989304
 20
-0.701390
 11
45.903782
 21
-2.101604
  0
LINE
  8
TEILE
 62
2
 10
45.903782
 20
-2.101604
 11
45.733055
 21
-3.494001
  0
LINE
  8
TEILE
 62
2
 10
45.733055
 20
-3.494001
 11
45.477768
 21
-4.873400
  0
LINE
  8
TEILE
 62
2
 10
45.477768
 20
-4.873400
 11
45.138855
 21
-6.234669
  0
LINE
  8
TEILE
 62
2
 10
45.138855
 20
-6.234669
 11
44.717583
 21
-7.572745
  0
LINE
  8
TEILE
 62
2
 10
44.717583
 20
-7.572745
 11
44.215527
 21
-8.882650
  0
LINE
  8
TEILE
 62
2
 10
44.215527
 20
-8.882650
 11
43.634544
 21
-10.159511
  0
LINE
  8
TEILE
 62
2
 10
43.634544
 20
-10.159511
 11
42.976795
 21
-11.398578
  0
LINE
  8
TEILE
 62
2
 10
42.976795
 20
-11.398578
 11
42.244736
 21
-12.595242
  0
LINE
  8
TEILE
 62
2
 10
42.244736
 20
-12.595242
 11
41.441082
 21
-13.745049
  0
LINE
  8
TEILE
 62
2
 10
41.441082
 20
-13.745049
 11
40.568832
 21
-14.843723
  0
LINE
  8
TEILE
 62
2
 10
40.568832
 20
-14.843723
 11
39.631222
 21
-15.887179
  0
LINE
  8
TEILE
 62
2
 10
39.631222
 20
-15.887179
 11
38.631741
 21
-16.871532
  0
LINE
  8
TEILE
 62
2
 10
38.631741
 20
-16.871532
 11
37.574112
 21
-17.793125
  0
LINE
  8
TEILE
 62
2
 10
37.574112
 20
-17.793125
 11
36.462261
 21
-18.648525
  0
LINE
  8
TEILE
 62
2
 10
36.462261
 20
-18.648525
 11
35.300335
 21
-19.434549
  0
LINE
  8
TEILE
 62
2
 10
35.300335
 20
-19.434549
 11
34.092648
 21
-20.148277
  0
LINE
  8
TEILE
 62
2
 10
34.092648
 20
-20.148277
 11
32.843697
 21
-20.787052
  0
LINE
  8
TEILE
 62
2
 10
32.843697
 20
-20.787052
 11
31.558128
 21
-21.348499
  0
LINE
  8
TEILE
 62
2
 10
31.558128
 20
-21.348499
 11
30.240719
 21
-21.830528
  0
LINE
  8
TEILE
 62
2
 10
30.240719
 20
-21.830528
 11
28.896374
 21
-22.231346
  0
LINE
  8
TEILE
 62
2
 10
28.896374
 20
-22.231346
 11
27.530098
 21
-22.549459
  0
LINE
  8
TEILE
 62
2
 10
27.530098
 20
-22.549459
 11
26.146967
 21
-22.783691
  0
LINE
  8
TEILE
 62
2
 10
26.146967
 20
-22.783691
 11
24.752131
 21
-22.933163
  0
LINE
  8
TEILE
 62
2
 10
24.752131
 20
-22.933163
 11
23.350775
 21
-22.997324
  0
LINE
  8
TEILE
 62
2
 10
23.350775
 20
-22.997324
 11
21.948112
 21
-22.975933
  0
LINE
  8
TEILE
 62
2
 10
21.948112
 20
-22.975933
 11
20.549366
 21
-22.869070
  0
LINE
  8
TEILE
 62
2
 10
20.549366
 20
-22.869070
 11
19.159737
 21
-22.677134
  0
LINE
  8
TEILE
 62
2
 10
19.159737
 20
-22.677134
 11
17.784391
 21
-22.400835
  0
LINE
  8
TEILE
 62
2
 10
17.784391
 20
-22.400835
 11
16.428450
 21
-22.041204
  0
LINE
  8
TEILE
 62
2
 10
16.428450
 20
-22.041204
 11
15.096954
 21
-21.599579
  0
LINE
  8
TEILE
 62
2
 10
15.096954
 20
-21.599579
 11
13.794859
 21
-21.077604
  0
LINE
  8
TEILE
 62
2
 10
13.794859
 20
-21.077604
 11
12.527007
 21
-20.477217
  0
LINE
  8
TEILE
 62
2
 10
12.527007
 20
-20.477217
 11
11.298114
 21
-19.800653
  0
LINE
  8
TEILE
 62
2
 10
11.298114
 20
-19.800653
 11
10.112754
 21
-19.050430
  0
LINE
  8
TEILE
 62
2
 10
10.112754
 20
-19.050430
 11
8.975335
 21
-18.229338
  0
LINE
  8
TEILE
 62
2
 10
8.975335
 20
-18.229338
 11
7.890089
 21
-17.340433
  0
LINE
  8
TEILE
 62
2
 10
7.890089
 20
-17.340433
 11
6.861053
 21
-16.387020
  0
LINE
  8
TEILE
 62
2
 10
6.861053
 20
-16.387020
 11
5.892055
 21
-15.372644
  0
LINE
  8
TEILE
 62
2
 10
5.892055
 20
-15.372644
 11
4.986699
 21
-14.301083
  0
LINE
  8
TEILE
 62
2
 10
4.986699
 20
-14.301083
 11
4.148354
 21
-13.176321
  0
LINE
  8
TEILE
 62
2
 10
4.148354
 20
-13.176321
 11
3.380137
 21
-12.002541
  0
LINE
  8
TEILE
 62
2
 10
3.380137
 20
-12.002541
 11
2.684909
 21
-10.784112
  0
LINE
  8
TEILE
 62
2
 10
2.684909
 20
-10.784112
 11
2.065253
 21
-9.525565
  0
LINE
  8
TEILE
 62
2
 10
2.065253
 20
-9.525565
 11
1.523477
 21
-8.231582
  0
LINE
  8
TEILE
 62
2
 10
1.523477
 20
-8.231582
 11
1.061594
 21
-6.906977
  0
LINE
  8
TEILE
 62
2
 10
1.061594
 20
-6.906977
 11
0.681323
 21
-5.556678
  0
LINE
  8
TEILE
 62
2
 10
0.681323
 20
-5.556678
 11
0.384080
 21
-4.185708
  0
LINE
  8
TEILE
 62
2
 10
0.384080
 20
-4.185708
 11
0.170969
 21
-2.799166
  0
LINE
  8
TEILE
 62
2
 10
0.170969
 20
-2.799166
 11
0.042783
 21
-1.402212
  0
LINE
  8
TEILE
 62
2
 10
0.042783
 20
-1.402212
 11
0.000000
 21
-0.000041
  0
LINE
  8
TEILE
 62
2
 10
0.000000
 20
-0.000041
 11
0.000000
 21
0.000000
  0
ENDSEC
  0
EOF

