  0
SECTION
  2
HEADER
  9
$ACADVER
  1
AC1018
  9
$ACADMAINTVER
 70
   104
  9
$DWGCODEPAGE
  3
ANSI_1252
  9
$LASTSAVEDBY
  1
zamunere
  9
$INSBASE
 10
0.0
 20
0.0
 30
0.0
  9
$EXTMIN
 10
-0.8155621193291153
 20
-623.0019274096484
 30
-0.0015258207003583
  9
$EXTMAX
 10
14948.8288157404
 20
622.7797741297981
 30
0.0000000349246037
  9
$LIMMIN
 10
-1.5
 20
-624.000069
  9
$LIMMAX
 10
14949.513184
 20
7552.619873000001
  9
$ORTHOMODE
 70
     0
  9
$REGENMODE
 70
     1
  9
$FILLMODE
 70
     1
  9
$QTEXTMODE
 70
     0
  9
$MIRRTEXT
 70
     0
  9
$LTSCALE
 40
10.0
  9
$ATTMODE
 70
     1
  9
$TEXTSIZE
 40
0.35
  9
$TRACEWID
 40
0.05
  9
$TEXTSTYLE
  7
STANDARD
  9
$CLAYER
  8
0
  9
$CELTYPE
  6
CONTINUOUS
  9
$CECOLOR
 62
   256
  9
$CELTSCALE
 40
1.0
  9
$DISPSILH
 70
     0
  9
$DIMSCALE
 40
1.0
  9
$DIMASZ
 40
0.18
  9
$DIMEXO
 40
0.0625
  9
$DIMDLI
 40
0.38
  9
$DIMRND
 40
0.0
  9
$DIMDLE
 40
0.0
  9
$DIMEXE
 40
0.18
  9
$DIMTP
 40
0.0
  9
$DIMTM
 40
0.0
  9
$DIMTXT
 40
0.18
  9
$DIMCEN
 40
0.09
  9
$DIMTSZ
 40
0.0
  9
$DIMTOL
 70
     0
  9
$DIMLIM
 70
     0
  9
$DIMTIH
 70
     1
  9
$DIMTOH
 70
     1
  9
$DIMSE1
 70
     0
  9
$DIMSE2
 70
     0
  9
$DIMTAD
 70
     0
  9
$DIMZIN
 70
     0
  9
$DIMBLK
  1

  9
$DIMASO
 70
     1
  9
$DIMSHO
 70
     1
  9
$DIMPOST
  1

  9
$DIMAPOST
  1

  9
$DIMALT
 70
     0
  9
$DIMALTD
 70
     2
  9
$DIMALTF
 40
25.4
  9
$DIMLFAC
 40
1.0
  9
$DIMTOFL
 70
     0
  9
$DIMTVP
 40
0.0
  9
$DIMTIX
 70
     0
  9
$DIMSOXD
 70
     0
  9
$DIMSAH
 70
     0
  9
$DIMBLK1
  1

  9
$DIMBLK2
  1

  9
$DIMSTYLE
  2
Standard
  9
$DIMCLRD
 70
     0
  9
$DIMCLRE
 70
     0
  9
$DIMCLRT
 70
     0
  9
$DIMTFAC
 40
1.0
  9
$DIMGAP
 40
0.09
  9
$DIMJUST
 70
     0
  9
$DIMSD1
 70
     0
  9
$DIMSD2
 70
     0
  9
$DIMTOLJ
 70
     1
  9
$DIMTZIN
 70
     0
  9
$DIMALTZ
 70
     0
  9
$DIMALTTZ
 70
     0
  9
$DIMUPT
 70
     0
  9
$DIMDEC
 70
     4
  9
$DIMTDEC
 70
     4
  9
$DIMALTU
 70
     2
  9
$DIMALTTD
 70
     2
  9
$DIMTXSTY
  7
STANDARD
  9
$DIMAUNIT
 70
     0
  9
$DIMADEC
 70
     0
  9
$DIMALTRND
 40
0.0
  9
$DIMAZIN
 70
     0
  9
$DIMDSEP
 70
    46
  9
$DIMATFIT
 70
     3
  9
$DIMFRAC
 70
     0
  9
$DIMLDRBLK
  1

  9
$DIMLUNIT
 70
     2
  9
$DIMLWD
 70
    -2
  9
$DIMLWE
 70
    -2
  9
$DIMTMOVE
 70
     0
  9
$LUNITS
 70
     2
  9
$LUPREC
 70
     4
  9
$SKETCHINC
 40
0.1
  9
$FILLETRAD
 40
0.0
  9
$AUNITS
 70
     0
  9
$AUPREC
 70
     0
  9
$MENU
  1
.
  9
$ELEVATION
 40
0.0
  9
$PELEVATION
 40
0.0
  9
$THICKNESS
 40
0.0
  9
$LIMCHECK
 70
     0
  9
$CHAMFERA
 40
0.0
  9
$CHAMFERB
 40
0.0
  9
$CHAMFERC
 40
0.0
  9
$CHAMFERD
 40
0.0
  9
$SKPOLY
 70
     0
  9
$TDCREATE
 40
2457408.461018368
  9
$TDUCREATE
 40
2457408.419351701
  9
$TDUPDATE
 40
2457408.461776922
  9
$TDUUPDATE
 40
2457408.420110255
  9
$TDINDWG
 40
0.0007586690
  9
$TDUSRTIMER
 40
0.0007586690
  9
$USRTIMER
 70
     1
  9
$ANGBASE
 50
0.0
  9
$ANGDIR
 70
     0
  9
$PDMODE
 70
     0
  9
$PDSIZE
 40
0.0
  9
$PLINEWID
 40
0.0
  9
$SPLFRAME
 70
     0
  9
$SPLINETYPE
 70
     6
  9
$SPLINESEGS
 70
     8
  9
$HANDSEED
  5
22A8
  9
$SURFTAB1
 70
     6
  9
$SURFTAB2
 70
     6
  9
$SURFTYPE
 70
     6
  9
$SURFU
 70
     6
  9
$SURFV
 70
     6
  9
$UCSBASE
  2

  9
$UCSNAME
  2

  9
$UCSORG
 10
0.0
 20
0.0
 30
0.0
  9
$UCSXDIR
 10
1.0
 20
0.0
 30
0.0
  9
$UCSYDIR
 10
0.0
 20
1.0
 30
0.0
  9
$UCSORTHOREF
  2

  9
$UCSORTHOVIEW
 70
     0
  9
$UCSORGTOP
 10
0.0
 20
0.0
 30
0.0
  9
$UCSORGBOTTOM
 10
0.0
 20
0.0
 30
0.0
  9
$UCSORGLEFT
 10
0.0
 20
0.0
 30
0.0
  9
$UCSORGRIGHT
 10
0.0
 20
0.0
 30
0.0
  9
$UCSORGFRONT
 10
0.0
 20
0.0
 30
0.0
  9
$UCSORGBACK
 10
0.0
 20
0.0
 30
0.0
  9
$PUCSBASE
  2

  9
$PUCSNAME
  2

  9
$PUCSORG
 10
0.0
 20
0.0
 30
0.0
  9
$PUCSXDIR
 10
1.0
 20
0.0
 30
0.0
  9
$PUCSYDIR
 10
0.0
 20
1.0
 30
0.0
  9
$PUCSORTHOREF
  2

  9
$PUCSORTHOVIEW
 70
     0
  9
$PUCSORGTOP
 10
0.0
 20
0.0
 30
0.0
  9
$PUCSORGBOTTOM
 10
0.0
 20
0.0
 30
0.0
  9
$PUCSORGLEFT
 10
0.0
 20
0.0
 30
0.0
  9
$PUCSORGRIGHT
 10
0.0
 20
0.0
 30
0.0
  9
$PUCSORGFRONT
 10
0.0
 20
0.0
 30
0.0
  9
$PUCSORGBACK
 10
0.0
 20
0.0
 30
0.0
  9
$USERI1
 70
     0
  9
$USERI2
 70
     0
  9
$USERI3
 70
     0
  9
$USERI4
 70
     0
  9
$USERI5
 70
     0
  9
$USERR1
 40
0.0
  9
$USERR2
 40
0.0
  9
$USERR3
 40
0.0
  9
$USERR4
 40
0.0
  9
$USERR5
 40
0.0
  9
$WORLDVIEW
 70
     1
  9
$SHADEDGE
 70
     3
  9
$SHADEDIF
 70
    70
  9
$TILEMODE
 70
     1
  9
$MAXACTVP
 70
    64
  9
$PINSBASE
 10
0.0
 20
0.0
 30
0.0
  9
$PLIMCHECK
 70
     0
  9
$PEXTMIN
 10
1.000000000000000E+20
 20
1.000000000000000E+20
 30
1.000000000000000E+20
  9
$PEXTMAX
 10
-1.000000000000000E+20
 20
-1.000000000000000E+20
 30
-1.000000000000000E+20
  9
$PLIMMIN
 10
0.0
 20
0.0
  9
$PLIMMAX
 10
12.0
 20
9.0
  9
$UNITMODE
 70
     0
  9
$VISRETAIN
 70
     1
  9
$PLINEGEN
 70
     0
  9
$PSLTSCALE
 70
     1
  9
$TREEDEPTH
 70
  3020
  9
$CMLSTYLE
  2
Standard
  9
$CMLJUST
 70
     0
  9
$CMLSCALE
 40
1.0
  9
$PROXYGRAPHICS
 70
     1
  9
$MEASUREMENT
 70
     0
  9
$CELWEIGHT
370
    -1
  9
$ENDCAPS
280
     0
  9
$JOINSTYLE
280
     0
  9
$LWDISPLAY
290
     0
  9
$INSUNITS
 70
     0
  9
$HYPERLINKBASE
  1

  9
$STYLESHEET
  1

  9
$XEDIT
290
     1
  9
$CEPSNTYPE
380
     0
  9
$PSTYLEMODE
290
     1
  9
$FINGERPRINTGUID
  2
{095B94FB-E7E2-4B23-BA3A-D0300E33241D}
  9
$VERSIONGUID
  2
{43ED5A29-4D0E-4DCB-BCD3-480FF1692A3C}
  9
$EXTNAMES
290
     1
  9
$PSVPSCALE
 40
0.0
  9
$OLESTARTUP
290
     0
  9
$SORTENTS
280
   127
  9
$INDEXCTL
280
     0
  9
$HIDETEXT
280
     0
  9
$XCLIPFRAME
290
     0
  9
$HALOGAP
280
     0
  9
$OBSCOLOR
 70
   257
  9
$OBSLTYPE
280
     0
  9
$INTERSECTIONDISPLAY
280
     0
  9
$INTERSECTIONCOLOR
 70
   257
  9
$DIMASSOC
280
     1
  9
$PROJECTNAME
  1

  0
ENDSEC
  0
SECTION
  2
CLASSES
  0
CLASS
  1
ACDBDICTIONARYWDFLT
  2
AcDbDictionaryWithDefault
  3
ObjectDBX Classes
 90
        0
 91
        1
280
     0
281
     0
  0
CLASS
  1
MATERIAL
  2
AcDbMaterial
  3
ObjectDBX Classes
 90
     1024
 91
        3
280
     0
281
     0
  0
CLASS
  1
VISUALSTYLE
  2
AcDbVisualStyle
  3
ObjectDBX Classes
 90
     4095
 91
       16
280
     0
281
     0
  0
CLASS
  1
TABLESTYLE
  2
AcDbTableStyle
  3
ObjectDBX Classes
 90
     4095
 91
        1
280
     0
281
     0
  0
CLASS
  1
SORTENTSTABLE
  2
AcDbSortentsTable
  3
ObjectDBX Classes
 90
        0
 91
        1
280
     0
281
     0
  0
CLASS
  1
DICTIONARYVAR
  2
AcDbDictionaryVar
  3
ObjectDBX Classes
 90
        0
 91
        1
280
     0
281
     0
  0
ENDSEC
  0
SECTION
  2
TABLES
  0
TABLE
  2
VPORT
  5
8
330
0
100
AcDbSymbolTable
 70
     1
  0
VPORT
  5
56
330
8
100
AcDbSymbolTableRecord
100
AcDbViewportTableRecord
  2
*Active
 70
     0
 10
0.0
 20
0.0
 11
1.0
 21
1.0
 12
7474.006626810536
 22
-0.1110766399251588
 13
0.0
 23
0.0
 14
1.0
 24
1.0
 15
0.0
 25
0.0
 16
0.0
 26
0.0
 36
1.0
 17
0.0
 27
0.0
 37
0.0
 40
7483.315432113541
 41
2.004602991944763
 42
50.0
 43
0.0
 44
0.0
 50
0.0
 51
0.0
 71
     0
 72
   100
 73
     1
 74
     1
 75
     0
 76
     0
 77
     0
 78
     0
281
     0
 65
     1
110
0.0
120
0.0
130
0.0
111
1.0
121
0.0
131
0.0
112
0.0
122
1.0
132
0.0
 79
     0
146
0.0
  0
ENDTAB
  0
TABLE
  2
LTYPE
  5
5
330
0
100
AcDbSymbolTable
 70
     4
  0
LTYPE
  5
28
330
5
100
AcDbSymbolTableRecord
100
AcDbLinetypeTableRecord
  2
ByBlock
 70
     0
  3

 72
    65
 73
     0
 40
0.0
  0
LTYPE
  5
29
330
5
100
AcDbSymbolTableRecord
100
AcDbLinetypeTableRecord
  2
ByLayer
 70
     0
  3

 72
    65
 73
     0
 40
0.0
  0
LTYPE
  5
2A
330
5
100
AcDbSymbolTableRecord
100
AcDbLinetypeTableRecord
  2
CONTINUOUS
 70
     0
  3
____________________________________________
 72
    65
 73
     0
 40
0.0
  0
LTYPE
  5
3A
330
5
100
AcDbSymbolTableRecord
100
AcDbLinetypeTableRecord
  2
HIDDEN
 70
     0
  3
__ __ __ __ __ __ __ __ __ __ __ __ __ __ __
 72
    65
 73
     2
 40
0.5
 49
0.3
 74
     0
 49
-0.2
 74
     0
  0
LTYPE
  5
3B
330
5
100
AcDbSymbolTableRecord
100
AcDbLinetypeTableRecord
  2
DASHDOT
 70
     0
  3
____ _ ____ _ ____ _ ____ _ ____ _ ____ _ __
 72
    65
 73
     4
 40
2.0
 49
1.5
 74
     0
 49
-0.25
 74
     0
 49
0.0
 74
     0
 49
-0.25
 74
     0
  0
LTYPE
  5
3C
330
5
100
AcDbSymbolTableRecord
100
AcDbLinetypeTableRecord
  2
DOT
 70
     0
  3
............................................
 72
    65
 73
     2
 40
0.3
 49
0.0
 74
     0
 49
-0.3
 74
     0
  0
ENDTAB
  0
TABLE
  2
LAYER
  5
2
330
0
100
AcDbSymbolTable
 70
    25
  0
LAYER
  5
25
330
2
100
AcDbSymbolTableRecord
100
AcDbLayerTableRecord
  2
0
 70
     0
 62
     7
  6
CONTINUOUS
370
    -3
390
F
  0
LAYER
  5
3D
330
2
100
AcDbSymbolTableRecord
100
AcDbLayerTableRecord
  2
UNTERSCHRIFT
 70
     0
 62
     7
  6
CONTINUOUS
370
    -3
390
F
  0
LAYER
  5
3E
330
2
100
AcDbSymbolTableRecord
100
AcDbLayerTableRecord
  2
TEILE
 70
     0
 62
     7
  6
CONTINUOUS
370
    -3
390
F
  0
LAYER
  5
3F
330
2
100
AcDbSymbolTableRecord
100
AcDbLayerTableRecord
  2
REST
 70
     0
 62
     7
  6
CONTINUOUS
370
    -3
390
F
  0
LAYER
  5
40
330
2
100
AcDbSymbolTableRecord
100
AcDbLayerTableRecord
  2
MARKERPUNKTE
 70
     0
 62
     7
  6
CONTINUOUS
370
    -3
390
F
  0
LAYER
  5
41
330
2
100
AcDbSymbolTableRecord
100
AcDbLayerTableRecord
  2
HILFSPUNKTE
 70
     0
 62
     7
  6
CONTINUOUS
370
    -3
390
F
  0
LAYER
  5
42
330
2
100
AcDbSymbolTableRecord
100
AcDbLayerTableRecord
  2
PICKPUNKTE
 70
     0
 62
     7
  6
CONTINUOUS
370
    -3
390
F
  0
LAYER
  5
43
330
2
100
AcDbSymbolTableRecord
100
AcDbLayerTableRecord
  2
SCHRAUBEN
 70
     0
 62
     7
  6
CONTINUOUS
370
    -3
390
F
  0
LAYER
  5
44
330
2
100
AcDbSymbolTableRecord
100
AcDbLayerTableRecord
  2
SCHWEISSEN
 70
     0
 62
     7
  6
CONTINUOUS
370
    -3
390
F
  0
LAYER
  5
45
330
2
100
AcDbSymbolTableRecord
100
AcDbLayerTableRecord
  2
GRAFIK
 70
     0
 62
     7
  6
CONTINUOUS
370
    -3
390
F
  0
LAYER
  5
46
330
2
100
AcDbSymbolTableRecord
100
AcDbLayerTableRecord
  2
BEM_FREI
 70
     0
 62
     7
  6
CONTINUOUS
370
    -3
390
F
  0
LAYER
  5
47
330
2
100
AcDbSymbolTableRecord
100
AcDbLayerTableRecord
  2
BEM_SYSTEM
 70
     0
 62
     7
  6
CONTINUOUS
370
    -3
390
F
  0
LAYER
  5
48
330
2
100
AcDbSymbolTableRecord
100
AcDbLayerTableRecord
  2
BEM_KONTUR
 70
     0
 62
     7
  6
CONTINUOUS
370
    -3
390
F
  0
LAYER
  5
49
330
2
100
AcDbSymbolTableRecord
100
AcDbLayerTableRecord
  2
BEM_ANBAU
 70
     0
 62
     7
  6
CONTINUOUS
370
    -3
390
F
  0
LAYER
  5
4A
330
2
100
AcDbSymbolTableRecord
100
AcDbLayerTableRecord
  2
BEM_SCHRAUBEN
 70
     0
 62
     7
  6
CONTINUOUS
370
    -3
390
F
  0
LAYER
  5
4B
330
2
100
AcDbSymbolTableRecord
100
AcDbLayerTableRecord
  2
BEM_SCHWEISSEN
 70
     0
 62
     7
  6
CONTINUOUS
370
    -3
390
F
  0
LAYER
  5
4C
330
2
100
AcDbSymbolTableRecord
100
AcDbLayerTableRecord
  2
FREIER_TEXT
 70
     0
 62
     7
  6
CONTINUOUS
370
    -3
390
F
  0
LAYER
  5
4D
330
2
100
AcDbSymbolTableRecord
100
AcDbLayerTableRecord
  2
BEZ_TEILE
 70
     0
 62
     7
  6
CONTINUOUS
370
    -3
390
F
  0
LAYER
  5
4E
330
2
100
AcDbSymbolTableRecord
100
AcDbLayerTableRecord
  2
BEZ_SCHRAUBEN
 70
     0
 62
     7
  6
CONTINUOUS
370
    -3
390
F
  0
LAYER
  5
4F
330
2
100
AcDbSymbolTableRecord
100
AcDbLayerTableRecord
  2
BEZ_SCHWEISSEN
 70
     0
 62
     7
  6
CONTINUOUS
370
    -3
390
F
  0
LAYER
  5
50
330
2
100
AcDbSymbolTableRecord
100
AcDbLayerTableRecord
  2
SCHRAFFUREN
 70
     0
 62
     7
  6
CONTINUOUS
370
    -3
390
F
  0
LAYER
  5
51
330
2
100
AcDbSymbolTableRecord
100
AcDbLayerTableRecord
  2
SCHNITTSYMBOL
 70
     0
 62
     7
  6
CONTINUOUS
370
    -3
390
F
  0
LAYER
  5
52
330
2
100
AcDbSymbolTableRecord
100
AcDbLayerTableRecord
  2
RASTER
 70
     0
 62
     7
  6
CONTINUOUS
370
    -3
390
F
  0
LAYER
  5
53
330
2
100
AcDbSymbolTableRecord
100
AcDbLayerTableRecord
  2
LISTEN
 70
     0
 62
     7
  6
CONTINUOUS
370
    -3
390
F
  0
LAYER
  5
54
330
2
100
AcDbSymbolTableRecord
100
AcDbLayerTableRecord
  2
RAHMEN
 70
     0
 62
     7
  6
CONTINUOUS
370
    -3
390
F
  0
ENDTAB
  0
TABLE
  2
STYLE
  5
3
330
0
100
AcDbSymbolTable
 70
     1
  0
STYLE
  5
26
330
3
100
AcDbSymbolTableRecord
100
AcDbTextStyleTableRecord
  2
STANDARD
 70
     0
 40
0.0
 41
1.0
 50
0.0
 71
     0
 42
0.35
  3
ROMANS
  4

  0
ENDTAB
  0
TABLE
  2
VIEW
  5
6
330
0
100
AcDbSymbolTable
 70
     0
  0
ENDTAB
  0
TABLE
  2
UCS
  5
7
330
0
100
AcDbSymbolTable
 70
     0
  0
ENDTAB
  0
TABLE
  2
APPID
  5
9
330
0
100
AcDbSymbolTable
 70
     1
  0
APPID
  5
27
330
9
100
AcDbSymbolTableRecord
100
AcDbRegAppTableRecord
  2
ACAD
 70
     0
  0
ENDTAB
  0
TABLE
  2
DIMSTYLE
  5
A
330
0
100
AcDbSymbolTable
 70
     1
100
AcDbDimStyleTable
 71
     0
  0
DIMSTYLE
105
2299
330
A
100
AcDbSymbolTableRecord
100
AcDbDimStyleTableRecord
  2
Standard
 70
     0
340
26
  0
ENDTAB
  0
TABLE
  2
BLOCK_RECORD
  5
1
330
0
100
AcDbSymbolTable
 70
     0
  0
BLOCK_RECORD
  5
36
102
{ACAD_XDICTIONARY
360
229C
102
}
330
1
100
AcDbSymbolTableRecord
100
AcDbBlockTableRecord
  2
*Model_Space
340
39
  0
BLOCK_RECORD
  5
32
330
1
100
AcDbSymbolTableRecord
100
AcDbBlockTableRecord
  2
*Paper_Space
340
35
  0
ENDTAB
  0
ENDSEC
  0
SECTION
  2
BLOCKS
  0
BLOCK
  5
37
330
36
100
AcDbEntity
  8
0
100
AcDbBlockBegin
  2
*Model_Space
 70
     0
 10
0.0
 20
0.0
 30
0.0
  3
*Model_Space
  1

  0
ENDBLK
  5
38
330
36
100
AcDbEntity
  8
0
100
AcDbBlockEnd
  0
BLOCK
  5
33
330
32
100
AcDbEntity
 67
     1
  8
0
100
AcDbBlockBegin
  2
*Paper_Space
 70
     0
 10
0.0
 20
0.0
 30
0.0
  3
*Paper_Space
  1

  0
ENDBLK
  5
34
330
32
100
AcDbEntity
 67
     1
  8
0
100
AcDbBlockEnd
  0
ENDSEC
  0
SECTION
  2
ENTITIES
  0
TEXT
  5
57
330
36
100
AcDbEntity
  8
UNTERSCHRIFT
 62
     2
100
AcDbText
 10
14931.004883
 20
-534.299744
 30
0.0
 40
3.25
  1
Project  DP0GN9  ,Qty. 1  , Pos. 
 50
89.993004
 41
0.8
 51
15.0
100
AcDbText
  0
TEXT
  5
58
330
36
100
AcDbEntity
  8
UNTERSCHRIFT
 62
     2
100
AcDbText
 10
14931.011719
 20
-435.4997559999999
 30
0.0
 40
3.25
  1
  , Profi l PL1245*12
 50
89.993004
 41
0.8
 51
15.0
100
AcDbText
  0
TEXT
  5
59
330
36
100
AcDbEntity
  8
UNTERSCHRIFT
 62
     2
100
AcDbText
 10
14931.010742
 20
-448.4997559999999
 30
0.0
 40
3.25
  1
10300
 50
89.993004
 41
0.8
 51
15.0
100
AcDbText
  0
LINE
  5
5A
330
36
100
AcDbEntity
  8
TEILE
 62
     2
100
AcDbLine
 10
14903.0
 20
-622.5
 30
0.0
 11
44.999691
 21
-622.5
 31
0.0
  0
LINE
  5
5B
330
36
100
AcDbEntity
  8
TEILE
 62
     2
100
AcDbLine
 10
44.999691
 20
-622.5
 30
0.0
 11
44.95568099999999
 21
-620.8757929999999
 31
0.0
  0
LINE
  5
5C
330
36
100
AcDbEntity
  8
TEILE
 62
     2
100
AcDbLine
 10
44.95568099999999
 20
-620.8757929999999
 30
0.0
 11
44.823818
 21
-619.25647
 31
0.0
  0
LINE
  5
5D
330
36
100
AcDbEntity
  8
TEILE
 62
     2
100
AcDbLine
 10
44.823818
 20
-619.25647
 30
0.0
 11
44.604473
 21
-617.6465450000001
 31
0.0
  0
LINE
  5
5E
330
36
100
AcDbEntity
  8
TEILE
 62
     2
100
AcDbLine
 10
44.604473
 20
-617.6465450000001
 30
0.0
 11
44.298294
 21
-616.050903
 31
0.0
  0
LINE
  5
5F
330
36
100
AcDbEntity
  8
TEILE
 62
     2
100
AcDbLine
 10
44.298294
 20
-616.050903
 30
0.0
 11
43.906178
 21
-614.4741209999999
 31
0.0
  0
LINE
  5
60
330
36
100
AcDbEntity
  8
TEILE
 62
     2
100
AcDbLine
 10
43.906178
 20
-614.4741209999999
 30
0.0
 11
43.429276
 21
-612.920959
 31
0.0
  0
LINE
  5
61
330
36
100
AcDbEntity
  8
TEILE
 62
     2
100
AcDbLine
 10
43.429276
 20
-612.920959
 30
0.0
 11
42.86897999999999
 21
-611.3958740000001
 31
0.0
  0
LINE
  5
62
330
36
100
AcDbEntity
  8
TEILE
 62
     2
100
AcDbLine
 10
42.86897999999999
 20
-611.3958740000001
 30
0.0
 11
42.226944
 21
-609.90332
 31
0.0
  0
LINE
  5
63
330
36
100
AcDbEntity
  8
TEILE
 62
     2
100
AcDbLine
 10
42.226944
 20
-609.90332
 30
0.0
 11
41.505043
 21
-608.447754
 31
0.0
  0
LINE
  5
64
330
36
100
AcDbEntity
  8
TEILE
 62
     2
100
AcDbLine
 10
41.505043
 20
-608.447754
 30
0.0
 11
40.705395
 21
-607.033386
 31
0.0
  0
LINE
  5
65
330
36
100
AcDbEntity
  8
TEILE
 62
     2
100
AcDbLine
 10
40.705395
 20
-607.033386
 30
0.0
 11
39.830353
 21
-605.664429
 31
0.0
  0
LINE
  5
66
330
36
100
AcDbEntity
  8
TEILE
 62
     2
100
AcDbLine
 10
39.830353
 20
-605.664429
 30
0.0
 11
38.882473
 21
-604.344788
 31
0.0
  0
LINE
  5
67
330
36
100
AcDbEntity
  8
TEILE
 62
     2
100
AcDbLine
 10
38.882473
 20
-604.344788
 30
0.0
 11
37.86454000000001
 21
-603.07843
 31
0.0
  0
LINE
  5
68
330
36
100
AcDbEntity
  8
TEILE
 62
     2
100
AcDbLine
 10
37.86454000000001
 20
-603.07843
 30
0.0
 11
36.779549
 21
-601.869019
 31
0.0
  0
LINE
  5
69
330
36
100
AcDbEntity
  8
TEILE
 62
     2
100
AcDbLine
 10
36.779549
 20
-601.869019
 30
0.0
 11
35.630669
 21
-600.7201539999999
 31
0.0
  0
LINE
  5
6A
330
36
100
AcDbEntity
  8
TEILE
 62
     2
100
AcDbLine
 10
35.630669
 20
-600.7201539999999
 30
0.0
 11
34.421272
 21
-599.635132
 31
0.0
  0
LINE
  5
6B
330
36
100
AcDbEntity
  8
TEILE
 62
     2
100
AcDbLine
 10
34.421272
 20
-599.635132
 30
0.0
 11
33.154911
 21
-598.6171879999999
 31
0.0
  0
LINE
  5
6C
330
36
100
AcDbEntity
  8
TEILE
 62
     2
100
AcDbLine
 10
33.154911
 20
-598.6171879999999
 30
0.0
 11
31.835297
 21
-597.669312
 31
0.0
  0
LINE
  5
6D
330
36
100
AcDbEntity
  8
TEILE
 62
     2
100
AcDbLine
 10
31.835297
 20
-597.669312
 30
0.0
 11
30.466301
 21
-596.794312
 31
0.0
  0
LINE
  5
6E
330
36
100
AcDbEntity
  8
TEILE
 62
     2
100
AcDbLine
 10
30.466301
 20
-596.794312
 30
0.0
 11
29.051937
 21
-595.994629
 31
0.0
  0
LINE
  5
6F
330
36
100
AcDbEntity
  8
TEILE
 62
     2
100
AcDbLine
 10
29.051937
 20
-595.994629
 30
0.0
 11
27.596357
 21
-595.272766
 31
0.0
  0
LINE
  5
70
330
36
100
AcDbEntity
  8
TEILE
 62
     2
100
AcDbLine
 10
27.596357
 20
-595.272766
 30
0.0
 11
26.10383
 21
-594.6306759999999
 31
0.0
  0
LINE
  5
71
330
36
100
AcDbEntity
  8
TEILE
 62
     2
100
AcDbLine
 10
26.10383
 20
-594.6306759999999
 30
0.0
 11
24.578732
 21
-594.070374
 31
0.0
  0
LINE
  5
72
330
36
100
AcDbEntity
  8
TEILE
 62
     2
100
AcDbLine
 10
24.578732
 20
-594.070374
 30
0.0
 11
23.025536
 21
-593.5935059999999
 31
0.0
  0
LINE
  5
73
330
36
100
AcDbEntity
  8
TEILE
 62
     2
100
AcDbLine
 10
23.025536
 20
-593.5935059999999
 30
0.0
 11
21.448801
 21
-593.201355
 31
0.0
  0
LINE
  5
74
330
36
100
AcDbEntity
  8
TEILE
 62
     2
100
AcDbLine
 10
21.448801
 20
-593.201355
 30
0.0
 11
19.853148
 21
-592.895203
 31
0.0
  0
LINE
  5
75
330
36
100
AcDbEntity
  8
TEILE
 62
     2
100
AcDbLine
 10
19.853148
 20
-592.895203
 30
0.0
 11
18.243258
 21
-592.6758419999999
 31
0.0
  0
LINE
  5
76
330
36
100
AcDbEntity
  8
TEILE
 62
     2
100
AcDbLine
 10
18.243258
 20
-592.6758419999999
 30
0.0
 11
16.623856
 21
-592.5440059999999
 31
0.0
  0
LINE
  5
77
330
36
100
AcDbEntity
  8
TEILE
 62
     2
100
AcDbLine
 10
16.623856
 20
-592.5440059999999
 30
0.0
 11
14.999689
 21
-592.4999999999999
 31
0.0
  0
LINE
  5
78
330
36
100
AcDbEntity
  8
TEILE
 62
     2
100
AcDbLine
 10
14.999689
 20
-592.4999999999999
 30
0.0
 11
14.999687
 21
-592.4999999999999
 31
0.0
  0
LINE
  5
79
330
36
100
AcDbEntity
  8
TEILE
 62
     2
100
AcDbLine
 10
14.999687
 20
-592.4999999999999
 30
0.0
 11
14.999687
 21
-317.499878
 31
0.0
  0
LINE
  5
7A
330
36
100
AcDbEntity
  8
TEILE
 62
     2
100
AcDbLine
 10
14.999687
 20
-317.499878
 30
0.0
 11
22.763985
 21
-316.477692
 31
0.0
  0
LINE
  5
7B
330
36
100
AcDbEntity
  8
TEILE
 62
     2
100
AcDbLine
 10
22.763985
 20
-316.477692
 30
0.0
 11
29.999411
 21
-313.480682
 31
0.0
  0
LINE
  5
7C
330
36
100
AcDbEntity
  8
TEILE
 62
     2
100
AcDbLine
 10
29.999411
 20
-313.480682
 30
0.0
 11
36.212612
 21
-308.713135
 31
0.0
  0
LINE
  5
7D
330
36
100
AcDbEntity
  8
TEILE
 62
     2
100
AcDbLine
 10
36.212612
 20
-308.713135
 30
0.0
 11
40.98017099999999
 21
-302.499939
 31
0.0
  0
LINE
  5
7E
330
36
100
AcDbEntity
  8
TEILE
 62
     2
100
AcDbLine
 10
40.98017099999999
 20
-302.499939
 30
0.0
 11
43.977184
 21
-295.264496
 31
0.0
  0
LINE
  5
7F
330
36
100
AcDbEntity
  8
TEILE
 62
     2
100
AcDbLine
 10
43.977184
 20
-295.264496
 30
0.0
 11
44.999409
 21
-287.4999390000001
 31
0.0
  0
LINE
  5
80
330
36
100
AcDbEntity
  8
TEILE
 62
     2
100
AcDbLine
 10
44.999409
 20
-287.4999390000001
 30
0.0
 11
43.977184
 21
-279.735352
 31
0.0
  0
LINE
  5
81
330
36
100
AcDbEntity
  8
TEILE
 62
     2
100
AcDbLine
 10
43.977184
 20
-279.735352
 30
0.0
 11
40.98017099999999
 21
-272.499939
 31
0.0
  0
LINE
  5
82
330
36
100
AcDbEntity
  8
TEILE
 62
     2
100
AcDbLine
 10
40.98017099999999
 20
-272.499939
 30
0.0
 11
36.212612
 21
-266.2867129999999
 31
0.0
  0
LINE
  5
83
330
36
100
AcDbEntity
  8
TEILE
 62
     2
100
AcDbLine
 10
36.212612
 20
-266.2867129999999
 30
0.0
 11
29.999411
 21
-261.519165
 31
0.0
  0
LINE
  5
84
330
36
100
AcDbEntity
  8
TEILE
 62
     2
100
AcDbLine
 10
29.999411
 20
-261.519165
 30
0.0
 11
22.763985
 21
-258.522156
 31
0.0
  0
LINE
  5
85
330
36
100
AcDbEntity
  8
TEILE
 62
     2
100
AcDbLine
 10
22.763985
 20
-258.522156
 30
0.0
 11
14.999411
 21
-257.499939
 31
0.0
  0
LINE
  5
86
330
36
100
AcDbEntity
  8
TEILE
 62
     2
100
AcDbLine
 10
14.999411
 20
-257.499939
 30
0.0
 11
0.0
 21
-257.499939
 31
0.0
  0
LINE
  5
87
330
36
100
AcDbEntity
  8
TEILE
 62
     2
100
AcDbLine
 10
0.0
 20
-257.499939
 30
0.0
 11
0.0
 21
592.4999999999999
 31
0.0
  0
LINE
  5
88
330
36
100
AcDbEntity
  8
TEILE
 62
     2
100
AcDbLine
 10
0.0
 20
592.4999999999999
 30
0.0
 11
1.605725999999999
 21
592.5430299999999
 31
0.0
  0
LINE
  5
89
330
36
100
AcDbEntity
  8
TEILE
 62
     2
100
AcDbLine
 10
1.605725999999999
 20
592.5430299999999
 30
0.0
 11
3.206850999999999
 21
592.671875
 31
0.0
  0
LINE
  5
8A
330
36
100
AcDbEntity
  8
TEILE
 62
     2
100
AcDbLine
 10
3.206850999999999
 20
592.671875
 30
0.0
 11
4.798782
 21
592.886292
 31
0.0
  0
LINE
  5
8B
330
36
100
AcDbEntity
  8
TEILE
 62
     2
100
AcDbLine
 10
4.798782
 20
592.886292
 30
0.0
 11
6.376955999999999
 21
593.185608
 31
0.0
  0
LINE
  5
8C
330
36
100
AcDbEntity
  8
TEILE
 62
     2
100
AcDbLine
 10
6.376955999999999
 20
593.185608
 30
0.0
 11
7.936847
 21
593.56897
 31
0.0
  0
LINE
  5
8D
330
36
100
AcDbEntity
  8
TEILE
 62
     2
100
AcDbLine
 10
7.936847
 20
593.56897
 30
0.0
 11
9.473985
 21
594.0352169999999
 31
0.0
  0
LINE
  5
8E
330
36
100
AcDbEntity
  8
TEILE
 62
     2
100
AcDbLine
 10
9.473985
 20
594.0352169999999
 30
0.0
 11
10.983962
 21
594.58313
 31
0.0
  0
LINE
  5
8F
330
36
100
AcDbEntity
  8
TEILE
 62
     2
100
AcDbLine
 10
10.983962
 20
594.58313
 30
0.0
 11
12.462448
 21
595.21106
 31
0.0
  0
LINE
  5
90
330
36
100
AcDbEntity
  8
TEILE
 62
     2
100
AcDbLine
 10
12.462448
 20
595.21106
 30
0.0
 11
13.905206
 21
595.917236
 31
0.0
  0
LINE
  5
91
330
36
100
AcDbEntity
  8
TEILE
 62
     2
100
AcDbLine
 10
13.905206
 20
595.917236
 30
0.0
 11
15.308099
 21
596.6995849999999
 31
0.0
  0
LINE
  5
92
330
36
100
AcDbEntity
  8
TEILE
 62
     2
100
AcDbLine
 10
15.308099
 20
596.6995849999999
 30
0.0
 11
16.667105
 21
597.555908
 31
0.0
  0
LINE
  5
93
330
36
100
AcDbEntity
  8
TEILE
 62
     2
100
AcDbLine
 10
16.667105
 20
597.555908
 30
0.0
 11
17.978331
 21
598.4837650000001
 31
0.0
  0
LINE
  5
94
330
36
100
AcDbEntity
  8
TEILE
 62
     2
100
AcDbLine
 10
17.978331
 20
598.4837650000001
 30
0.0
 11
19.238012
 21
599.4804690000001
 31
0.0
  0
LINE
  5
95
330
36
100
AcDbEntity
  8
TEILE
 62
     2
100
AcDbLine
 10
19.238012
 20
599.4804690000001
 30
0.0
 11
20.442543
 21
600.543152
 31
0.0
  0
LINE
  5
96
330
36
100
AcDbEntity
  8
TEILE
 62
     2
100
AcDbLine
 10
20.442543
 20
600.543152
 30
0.0
 11
21.588463
 21
601.668823
 31
0.0
  0
LINE
  5
97
330
36
100
AcDbEntity
  8
TEILE
 62
     2
100
AcDbLine
 10
21.588463
 20
601.668823
 30
0.0
 11
22.672493
 21
602.854187
 31
0.0
  0
LINE
  5
98
330
36
100
AcDbEntity
  8
TEILE
 62
     2
100
AcDbLine
 10
22.672493
 20
602.854187
 30
0.0
 11
23.691523
 21
604.095886
 31
0.0
  0
LINE
  5
99
330
36
100
AcDbEntity
  8
TEILE
 62
     2
100
AcDbLine
 10
23.691523
 20
604.095886
 30
0.0
 11
24.642632
 21
605.3903199999999
 31
0.0
  0
LINE
  5
9A
330
36
100
AcDbEntity
  8
TEILE
 62
     2
100
AcDbLine
 10
24.642632
 20
605.3903199999999
 30
0.0
 11
25.523092
 21
606.733826
 31
0.0
  0
LINE
  5
9B
330
36
100
AcDbEntity
  8
TEILE
 62
     2
100
AcDbLine
 10
25.523092
 20
606.733826
 30
0.0
 11
26.330379
 21
608.122498
 31
0.0
  0
LINE
  5
9C
330
36
100
AcDbEntity
  8
TEILE
 62
     2
100
AcDbLine
 10
26.330379
 20
608.122498
 30
0.0
 11
27.062183
 21
609.55249
 31
0.0
  0
LINE
  5
9D
330
36
100
AcDbEntity
  8
TEILE
 62
     2
100
AcDbLine
 10
27.062183
 20
609.55249
 30
0.0
 11
27.716398
 21
611.0195309999999
 31
0.0
  0
LINE
  5
9E
330
36
100
AcDbEntity
  8
TEILE
 62
     2
100
AcDbLine
 10
27.716398
 20
611.0195309999999
 30
0.0
 11
28.291153
 21
612.51947
 31
0.0
  0
LINE
  5
9F
330
36
100
AcDbEntity
  8
TEILE
 62
     2
100
AcDbLine
 10
28.291153
 20
612.51947
 30
0.0
 11
28.7848
 21
614.0480349999998
 31
0.0
  0
LINE
  5
A0
330
36
100
AcDbEntity
  8
TEILE
 62
     2
100
AcDbLine
 10
28.7848
 20
614.0480349999998
 30
0.0
 11
28.78479
 21
614.0480349999998
 31
0.0
  0
LINE
  5
A1
330
36
100
AcDbEntity
  8
TEILE
 62
     2
100
AcDbLine
 10
28.78479
 20
614.0480349999998
 30
0.0
 11
29.694643
 21
618.2305299999999
 31
0.0
  0
LINE
  5
A2
330
36
100
AcDbEntity
  8
TEILE
 62
     2
100
AcDbLine
 10
29.694643
 20
618.2305299999999
 30
0.0
 11
29.880539
 21
620.833801
 31
0.0
  0
LINE
  5
A3
330
36
100
AcDbEntity
  8
TEILE
 62
     2
100
AcDbLine
 10
29.880539
 20
620.833801
 30
0.0
 11
30.00010220024827
 21
622.5
 31
0.0
  0
LINE
  5
2223
330
36
100
AcDbEntity
  8
TEILE
 62
     2
100
AcDbLine
 10
14920.28418
 20
611.0195309999999
 30
0.0
 11
14920.938477
 21
609.5525509999999
 31
0.0
  0
LINE
  5
2224
330
36
100
AcDbEntity
  8
TEILE
 62
     2
100
AcDbLine
 10
14920.938477
 20
609.5525509999999
 30
0.0
 11
14921.670898
 21
608.1226809999999
 31
0.0
  0
LINE
  5
2225
330
36
100
AcDbEntity
  8
TEILE
 62
     2
100
AcDbLine
 10
14921.670898
 20
608.1226809999999
 30
0.0
 11
14922.478516
 21
606.7340699999999
 31
0.0
  0
LINE
  5
2226
330
36
100
AcDbEntity
  8
TEILE
 62
     2
100
AcDbLine
 10
14922.478516
 20
606.7340699999999
 30
0.0
 11
14923.358398
 21
605.3906249999999
 31
0.0
  0
LINE
  5
2227
330
36
100
AcDbEntity
  8
TEILE
 62
     2
100
AcDbLine
 10
14923.358398
 20
605.3906249999999
 30
0.0
 11
14924.308594
 21
604.096191
 31
0.0
  0
LINE
  5
2228
330
36
100
AcDbEntity
  8
TEILE
 62
     2
100
AcDbLine
 10
14924.308594
 20
604.096191
 30
0.0
 11
14925.328125
 21
602.854553
 31
0.0
  0
LINE
  5
2229
330
36
100
AcDbEntity
  8
TEILE
 62
     2
100
AcDbLine
 10
14925.328125
 20
602.854553
 30
0.0
 11
14926.412109
 21
601.66925
 31
0.0
  0
LINE
  5
222A
330
36
100
AcDbEntity
  8
TEILE
 62
     2
100
AcDbLine
 10
14926.412109
 20
601.66925
 30
0.0
 11
14927.558594
 21
600.5437009999999
 31
0.0
  0
LINE
  5
222B
330
36
100
AcDbEntity
  8
TEILE
 62
     2
100
AcDbLine
 10
14927.558594
 20
600.5437009999999
 30
0.0
 11
14928.763672
 21
599.4810179999999
 31
0.0
  0
LINE
  5
222C
330
36
100
AcDbEntity
  8
TEILE
 62
     2
100
AcDbLine
 10
14928.763672
 20
599.4810179999999
 30
0.0
 11
14930.023438
 21
598.484375
 31
0.0
  0
LINE
  5
222D
330
36
100
AcDbEntity
  8
TEILE
 62
     2
100
AcDbLine
 10
14930.023438
 20
598.484375
 30
0.0
 11
14931.333984
 21
597.5565190000001
 31
0.0
  0
LINE
  5
222E
330
36
100
AcDbEntity
  8
TEILE
 62
     2
100
AcDbLine
 10
14931.333984
 20
597.5565190000001
 30
0.0
 11
14932.693359
 21
596.700195
 31
0.0
  0
LINE
  5
222F
330
36
100
AcDbEntity
  8
TEILE
 62
     2
100
AcDbLine
 10
14932.693359
 20
596.700195
 30
0.0
 11
14934.095703
 21
595.9178469999999
 31
0.0
  0
LINE
  5
2230
330
36
100
AcDbEntity
  8
TEILE
 62
     2
100
AcDbLine
 10
14934.095703
 20
595.9178469999999
 30
0.0
 11
14935.538086
 21
595.21167
 31
0.0
  0
LINE
  5
2231
330
36
100
AcDbEntity
  8
TEILE
 62
     2
100
AcDbLine
 10
14935.538086
 20
595.21167
 30
0.0
 11
14937.016602
 21
594.58374
 31
0.0
  0
LINE
  5
2232
330
36
100
AcDbEntity
  8
TEILE
 62
     2
100
AcDbLine
 10
14937.016602
 20
594.58374
 30
0.0
 11
14938.526367
 21
594.035828
 31
0.0
  0
LINE
  5
2233
330
36
100
AcDbEntity
  8
TEILE
 62
     2
100
AcDbLine
 10
14938.526367
 20
594.035828
 30
0.0
 11
14940.063477
 21
593.569519
 31
0.0
  0
LINE
  5
2234
330
36
100
AcDbEntity
  8
TEILE
 62
     2
100
AcDbLine
 10
14940.063477
 20
593.569519
 30
0.0
 11
14941.623047
 21
593.1861569999999
 31
0.0
  0
LINE
  5
2235
330
36
100
AcDbEntity
  8
TEILE
 62
     2
100
AcDbLine
 10
14941.623047
 20
593.1861569999999
 30
0.0
 11
14943.202148
 21
592.8868409999999
 31
0.0
  0
LINE
  5
2236
330
36
100
AcDbEntity
  8
TEILE
 62
     2
100
AcDbLine
 10
14943.202148
 20
592.8868409999999
 30
0.0
 11
14944.793945
 21
592.672363
 31
0.0
  0
LINE
  5
2237
330
36
100
AcDbEntity
  8
TEILE
 62
     2
100
AcDbLine
 10
14944.793945
 20
592.672363
 30
0.0
 11
14946.395508
 21
592.543457
 31
0.0
  0
LINE
  5
2238
330
36
100
AcDbEntity
  8
TEILE
 62
     2
100
AcDbLine
 10
14946.395508
 20
592.543457
 30
0.0
 11
14948.0
 21
592.5003659999999
 31
0.0
  0
LINE
  5
2239
330
36
100
AcDbEntity
  8
TEILE
 62
     2
100
AcDbLine
 10
14948.0
 20
592.5003659999999
 30
0.0
 11
14948.0
 21
592.4999999999999
 31
0.0
  0
LINE
  5
223A
330
36
100
AcDbEntity
  8
TEILE
 62
     2
100
AcDbLine
 10
14948.0
 20
592.4999999999999
 30
0.0
 11
14948.012695
 21
-257.499725
 31
0.0
  0
LINE
  5
223B
330
36
100
AcDbEntity
  8
TEILE
 62
     2
100
AcDbLine
 10
14948.012695
 20
-257.499725
 30
0.0
 11
14933.023438
 21
-257.499756
 31
0.0
  0
LINE
  5
223C
330
36
100
AcDbEntity
  8
TEILE
 62
     2
100
AcDbLine
 10
14933.023438
 20
-257.499756
 30
0.0
 11
14931.454102
 21
-257.541107
 31
0.0
  0
LINE
  5
223D
330
36
100
AcDbEntity
  8
TEILE
 62
     2
100
AcDbLine
 10
14931.454102
 20
-257.541107
 30
0.0
 11
14929.887695
 21
-257.664276
 31
0.0
  0
LINE
  5
223E
330
36
100
AcDbEntity
  8
TEILE
 62
     2
100
AcDbLine
 10
14929.887695
 20
-257.664276
 30
0.0
 11
14928.330078
 21
-257.869232
 31
0.0
  0
LINE
  5
223F
330
36
100
AcDbEntity
  8
TEILE
 62
     2
100
AcDbLine
 10
14928.330078
 20
-257.869232
 30
0.0
 11
14926.786133
 21
-258.155396
 31
0.0
  0
LINE
  5
2240
330
36
100
AcDbEntity
  8
TEILE
 62
     2
100
AcDbLine
 10
14926.786133
 20
-258.155396
 30
0.0
 11
14925.25878899999
 21
-258.522003
 31
0.0
  0
LINE
  5
2241
330
36
100
AcDbEntity
  8
TEILE
 62
     2
100
AcDbLine
 10
14925.25878899999
 20
-258.522003
 30
0.0
 11
14923.751953
 21
-258.968048
 31
0.0
  0
LINE
  5
2242
330
36
100
AcDbEntity
  8
TEILE
 62
     2
100
AcDbLine
 10
14923.751953
 20
-258.968048
 30
0.0
 11
14922.273438
 21
-259.49231
 31
0.0
  0
LINE
  5
2243
330
36
100
AcDbEntity
  8
TEILE
 62
     2
100
AcDbLine
 10
14922.273438
 20
-259.49231
 30
0.0
 11
14920.821289
 21
-260.093323
 31
0.0
  0
LINE
  5
2244
330
36
100
AcDbEntity
  8
TEILE
 62
     2
100
AcDbLine
 10
14920.821289
 20
-260.093323
 30
0.0
 11
14919.404297
 21
-260.76947
 31
0.0
  0
LINE
  5
2245
330
36
100
AcDbEntity
  8
TEILE
 62
     2
100
AcDbLine
 10
14919.404297
 20
-260.76947
 30
0.0
 11
14918.023438
 21
-261.51889
 31
0.0
  0
LINE
  5
2246
330
36
100
AcDbEntity
  8
TEILE
 62
     2
100
AcDbLine
 10
14918.023438
 20
-261.51889
 30
0.0
 11
14916.68457
 21
-262.339508
 31
0.0
  0
LINE
  5
2247
330
36
100
AcDbEntity
  8
TEILE
 62
     2
100
AcDbLine
 10
14916.68457
 20
-262.339508
 30
0.0
 11
14915.389648
 21
-263.229095
 31
0.0
  0
LINE
  5
2248
330
36
100
AcDbEntity
  8
TEILE
 62
     2
100
AcDbLine
 10
14915.389648
 20
-263.229095
 30
0.0
 11
14914.144531
 21
-264.185211
 31
0.0
  0
LINE
  5
2249
330
36
100
AcDbEntity
  8
TEILE
 62
     2
100
AcDbLine
 10
14914.144531
 20
-264.185211
 30
0.0
 11
14912.949219
 21
-265.205261
 31
0.0
  0
LINE
  5
224A
330
36
100
AcDbEntity
  8
TEILE
 62
     2
100
AcDbLine
 10
14912.949219
 20
-265.205261
 30
0.0
 11
14911.810547
 21
-266.286377
 31
0.0
  0
LINE
  5
224B
330
36
100
AcDbEntity
  8
TEILE
 62
     2
100
AcDbLine
 10
14911.810547
 20
-266.286377
 30
0.0
 11
14910.728516
 21
-267.425659
 31
0.0
  0
LINE
  5
224C
330
36
100
AcDbEntity
  8
TEILE
 62
     2
100
AcDbLine
 10
14910.728516
 20
-267.425659
 30
0.0
 11
14909.708984
 21
-268.619965
 31
0.0
  0
LINE
  5
224D
330
36
100
AcDbEntity
  8
TEILE
 62
     2
100
AcDbLine
 10
14909.708984
 20
-268.619965
 30
0.0
 11
14908.751953
 21
-269.866058
 31
0.0
  0
LINE
  5
224E
330
36
100
AcDbEntity
  8
TEILE
 62
     2
100
AcDbLine
 10
14908.751953
 20
-269.866058
 30
0.0
 11
14907.862305
 21
-271.160431
 31
0.0
  0
LINE
  5
224F
330
36
100
AcDbEntity
  8
TEILE
 62
     2
100
AcDbLine
 10
14907.862305
 20
-271.160431
 30
0.0
 11
14907.041992
 21
-272.499634
 31
0.0
  0
LINE
  5
2250
330
36
100
AcDbEntity
  8
TEILE
 62
     2
100
AcDbLine
 10
14907.041992
 20
-272.499634
 30
0.0
 11
14906.292969
 21
-273.879944
 31
0.0
  0
LINE
  5
2251
330
36
100
AcDbEntity
  8
TEILE
 62
     2
100
AcDbLine
 10
14906.292969
 20
-273.879944
 30
0.0
 11
14905.616211
 21
-275.297546
 31
0.0
  0
LINE
  5
2252
330
36
100
AcDbEntity
  8
TEILE
 62
     2
100
AcDbLine
 10
14905.616211
 20
-275.297546
 30
0.0
 11
14905.015625
 21
-276.748627
 31
0.0
  0
LINE
  5
2253
330
36
100
AcDbEntity
  8
TEILE
 62
     2
100
AcDbLine
 10
14905.015625
 20
-276.748627
 30
0.0
 11
14904.491211
 21
-278.229187
 31
0.0
  0
LINE
  5
2254
330
36
100
AcDbEntity
  8
TEILE
 62
     2
100
AcDbLine
 10
14904.491211
 20
-278.229187
 30
0.0
 11
14904.044922
 21
-279.735138
 31
0.0
  0
LINE
  5
2255
330
36
100
AcDbEntity
  8
TEILE
 62
     2
100
AcDbLine
 10
14904.044922
 20
-279.735138
 30
0.0
 11
14903.679688
 21
-281.26239
 31
0.0
  0
LINE
  5
2256
330
36
100
AcDbEntity
  8
TEILE
 62
     2
100
AcDbLine
 10
14903.679688
 20
-281.26239
 30
0.0
 11
14903.392578
 21
-282.806702
 31
0.0
  0
LINE
  5
2257
330
36
100
AcDbEntity
  8
TEILE
 62
     2
100
AcDbLine
 10
14903.392578
 20
-282.806702
 30
0.0
 11
14903.1875
 21
-284.363892
 31
0.0
  0
LINE
  5
2258
330
36
100
AcDbEntity
  8
TEILE
 62
     2
100
AcDbLine
 10
14903.1875
 20
-284.363892
 30
0.0
 11
14903.064453
 21
-285.929688
 31
0.0
  0
LINE
  5
2259
330
36
100
AcDbEntity
  8
TEILE
 62
     2
100
AcDbLine
 10
14903.064453
 20
-285.929688
 30
0.0
 11
14903.023438
 21
-287.499786
 31
0.0
  0
LINE
  5
225A
330
36
100
AcDbEntity
  8
TEILE
 62
     2
100
AcDbLine
 10
14903.023438
 20
-287.499786
 30
0.0
 11
14903.023438
 21
-287.499756
 31
0.0
  0
LINE
  5
225B
330
36
100
AcDbEntity
  8
TEILE
 62
     2
100
AcDbLine
 10
14903.023438
 20
-287.499756
 30
0.0
 11
14903.023438
 21
-287.499756
 31
0.0
  0
LINE
  5
225C
330
36
100
AcDbEntity
  8
TEILE
 62
     2
100
AcDbLine
 10
14903.023438
 20
-287.499756
 30
0.0
 11
14903.067383
 21
-289.12384
 31
0.0
  0
LINE
  5
225D
330
36
100
AcDbEntity
  8
TEILE
 62
     2
100
AcDbLine
 10
14903.067383
 20
-289.12384
 30
0.0
 11
14903.199219
 21
-290.743134
 31
0.0
  0
LINE
  5
225E
330
36
100
AcDbEntity
  8
TEILE
 62
     2
100
AcDbLine
 10
14903.199219
 20
-290.743134
 30
0.0
 11
14903.418945
 21
-292.352936
 31
0.0
  0
LINE
  5
225F
330
36
100
AcDbEntity
  8
TEILE
 62
     2
100
AcDbLine
 10
14903.418945
 20
-292.352936
 30
0.0
 11
14903.724609
 21
-293.948517
 31
0.0
  0
LINE
  5
2260
330
36
100
AcDbEntity
  8
TEILE
 62
     2
100
AcDbLine
 10
14903.724609
 20
-293.948517
 30
0.0
 11
14904.117188
 21
-295.525177
 31
0.0
  0
LINE
  5
2261
330
36
100
AcDbEntity
  8
TEILE
 62
     2
100
AcDbLine
 10
14904.117188
 20
-295.525177
 30
0.0
 11
14904.59375
 21
-297.078278
 31
0.0
  0
LINE
  5
2262
330
36
100
AcDbEntity
  8
TEILE
 62
     2
100
AcDbLine
 10
14904.59375
 20
-297.078278
 30
0.0
 11
14905.154297
 21
-298.603333
 31
0.0
  0
LINE
  5
2263
330
36
100
AcDbEntity
  8
TEILE
 62
     2
100
AcDbLine
 10
14905.154297
 20
-298.603333
 30
0.0
 11
14905.795898
 21
-300.095795
 31
0.0
  0
LINE
  5
2264
330
36
100
AcDbEntity
  8
TEILE
 62
     2
100
AcDbLine
 10
14905.795898
 20
-300.095795
 30
0.0
 11
14906.517578
 21
-301.5513
 31
0.0
  0
LINE
  5
2265
330
36
100
AcDbEntity
  8
TEILE
 62
     2
100
AcDbLine
 10
14906.517578
 20
-301.5513
 30
0.0
 11
14907.316406
 21
-302.965607
 31
0.0
  0
LINE
  5
2266
330
36
100
AcDbEntity
  8
TEILE
 62
     2
100
AcDbLine
 10
14907.316406
 20
-302.965607
 30
0.0
 11
14908.192383
 21
-304.334534
 31
0.0
  0
LINE
  5
2267
330
36
100
AcDbEntity
  8
TEILE
 62
     2
100
AcDbLine
 10
14908.192383
 20
-304.334534
 30
0.0
 11
14909.140625
 21
-305.654114
 31
0.0
  0
LINE
  5
2268
330
36
100
AcDbEntity
  8
TEILE
 62
     2
100
AcDbLine
 10
14909.140625
 20
-305.654114
 30
0.0
 11
14910.157227
 21
-306.9204410000001
 31
0.0
  0
LINE
  5
2269
330
36
100
AcDbEntity
  8
TEILE
 62
     2
100
AcDbLine
 10
14910.157227
 20
-306.9204410000001
 30
0.0
 11
14911.242188
 21
-308.1298220000001
 31
0.0
  0
LINE
  5
226A
330
36
100
AcDbEntity
  8
TEILE
 62
     2
100
AcDbLine
 10
14911.242188
 20
-308.1298220000001
 30
0.0
 11
14912.391602
 21
-309.278687
 31
0.0
  0
LINE
  5
226B
330
36
100
AcDbEntity
  8
TEILE
 62
     2
100
AcDbLine
 10
14912.391602
 20
-309.278687
 30
0.0
 11
14913.601563
 21
-310.363647
 31
0.0
  0
LINE
  5
226C
330
36
100
AcDbEntity
  8
TEILE
 62
     2
100
AcDbLine
 10
14913.601563
 20
-310.363647
 30
0.0
 11
14914.867188
 21
-311.381592
 31
0.0
  0
LINE
  5
226D
330
36
100
AcDbEntity
  8
TEILE
 62
     2
100
AcDbLine
 10
14914.867188
 20
-311.381592
 30
0.0
 11
14916.186523
 21
-312.329468
 31
0.0
  0
LINE
  5
226E
330
36
100
AcDbEntity
  8
TEILE
 62
     2
100
AcDbLine
 10
14916.186523
 20
-312.329468
 30
0.0
 11
14917.556641
 21
-313.204559
 31
0.0
  0
LINE
  5
226F
330
36
100
AcDbEntity
  8
TEILE
 62
     2
100
AcDbLine
 10
14917.556641
 20
-313.204559
 30
0.0
 11
14918.969727
 21
-314.004242
 31
0.0
  0
LINE
  5
2270
330
36
100
AcDbEntity
  8
TEILE
 62
     2
100
AcDbLine
 10
14918.969727
 20
-314.004242
 30
0.0
 11
14920.424805
 21
-314.726196
 31
0.0
  0
LINE
  5
2271
330
36
100
AcDbEntity
  8
TEILE
 62
     2
100
AcDbLine
 10
14920.424805
 20
-314.726196
 30
0.0
 11
14921.917969
 21
-315.368286
 31
0.0
  0
LINE
  5
2272
330
36
100
AcDbEntity
  8
TEILE
 62
     2
100
AcDbLine
 10
14921.917969
 20
-315.368286
 30
0.0
 11
14923.442383
 21
-315.9286189999999
 31
0.0
  0
LINE
  5
2273
330
36
100
AcDbEntity
  8
TEILE
 62
     2
100
AcDbLine
 10
14923.442383
 20
-315.9286189999999
 30
0.0
 11
14924.996094
 21
-316.405609
 31
0.0
  0
LINE
  5
2274
330
36
100
AcDbEntity
  8
TEILE
 62
     2
100
AcDbLine
 10
14924.996094
 20
-316.405609
 30
0.0
 11
14926.572266
 21
-316.797821
 31
0.0
  0
LINE
  5
2275
330
36
100
AcDbEntity
  8
TEILE
 62
     2
100
AcDbLine
 10
14926.572266
 20
-316.797821
 30
0.0
 11
14928.167969
 21
-317.104095
 31
0.0
  0
LINE
  5
2276
330
36
100
AcDbEntity
  8
TEILE
 62
     2
100
AcDbLine
 10
14928.167969
 20
-317.104095
 30
0.0
 11
14929.777344
 21
-317.323547
 31
0.0
  0
LINE
  5
2277
330
36
100
AcDbEntity
  8
TEILE
 62
     2
100
AcDbLine
 10
14929.777344
 20
-317.323547
 30
0.0
 11
14931.397461
 21
-317.4555049999999
 31
0.0
  0
LINE
  5
2278
330
36
100
AcDbEntity
  8
TEILE
 62
     2
100
AcDbLine
 10
14931.397461
 20
-317.4555049999999
 30
0.0
 11
14933.021484
 21
-317.499664
 31
0.0
  0
LINE
  5
2279
330
36
100
AcDbEntity
  8
TEILE
 62
     2
100
AcDbLine
 10
14933.021484
 20
-317.499664
 30
0.0
 11
14933.021484
 21
-317.499786
 31
0.0
  0
LINE
  5
227A
330
36
100
AcDbEntity
  8
TEILE
 62
     2
100
AcDbLine
 10
14933.021484
 20
-317.499786
 30
0.0
 11
14933.0
 21
-592.4999999999999
 31
0.0
  0
LINE
  5
227B
330
36
100
AcDbEntity
  8
TEILE
 62
     2
100
AcDbLine
 10
14933.0
 20
-592.4999999999999
 30
0.0
 11
14931.375977
 21
-592.544067
 31
0.0
  0
LINE
  5
227C
330
36
100
AcDbEntity
  8
TEILE
 62
     2
100
AcDbLine
 10
14931.375977
 20
-592.544067
 30
0.0
 11
14929.756836
 21
-592.675903
 31
0.0
  0
LINE
  5
227D
330
36
100
AcDbEntity
  8
TEILE
 62
     2
100
AcDbLine
 10
14929.756836
 20
-592.675903
 30
0.0
 11
14928.146484
 21
-592.895264
 31
0.0
  0
LINE
  5
227E
330
36
100
AcDbEntity
  8
TEILE
 62
     2
100
AcDbLine
 10
14928.146484
 20
-592.895264
 30
0.0
 11
14926.551758
 21
-593.201416
 31
0.0
  0
LINE
  5
227F
330
36
100
AcDbEntity
  8
TEILE
 62
     2
100
AcDbLine
 10
14926.551758
 20
-593.201416
 30
0.0
 11
14924.974609
 21
-593.593567
 31
0.0
  0
LINE
  5
2280
330
36
100
AcDbEntity
  8
TEILE
 62
     2
100
AcDbLine
 10
14924.974609
 20
-593.593567
 30
0.0
 11
14923.421875
 21
-594.070496
 31
0.0
  0
LINE
  5
2281
330
36
100
AcDbEntity
  8
TEILE
 62
     2
100
AcDbLine
 10
14923.421875
 20
-594.070496
 30
0.0
 11
14921.895508
 21
-594.630737
 31
0.0
  0
LINE
  5
2282
330
36
100
AcDbEntity
  8
TEILE
 62
     2
100
AcDbLine
 10
14921.895508
 20
-594.630737
 30
0.0
 11
14920.404297
 21
-595.272766
 31
0.0
  0
LINE
  5
2283
330
36
100
AcDbEntity
  8
TEILE
 62
     2
100
AcDbLine
 10
14920.404297
 20
-595.272766
 30
0.0
 11
14918.947266
 21
-595.99469
 31
0.0
  0
LINE
  5
2284
330
36
100
AcDbEntity
  8
TEILE
 62
     2
100
AcDbLine
 10
14918.947266
 20
-595.99469
 30
0.0
 11
14917.53418
 21
-596.794312
 31
0.0
  0
LINE
  5
2285
330
36
100
AcDbEntity
  8
TEILE
 62
     2
100
AcDbLine
 10
14917.53418
 20
-596.794312
 30
0.0
 11
14916.164063
 21
-597.669373
 31
0.0
  0
LINE
  5
2286
330
36
100
AcDbEntity
  8
TEILE
 62
     2
100
AcDbLine
 10
14916.164063
 20
-597.669373
 30
0.0
 11
14914.844727
 21
-598.617249
 31
0.0
  0
LINE
  5
2287
330
36
100
AcDbEntity
  8
TEILE
 62
     2
100
AcDbLine
 10
14914.844727
 20
-598.617249
 30
0.0
 11
14913.579102
 21
-599.6351929999999
 31
0.0
  0
LINE
  5
2288
330
36
100
AcDbEntity
  8
TEILE
 62
     2
100
AcDbLine
 10
14913.579102
 20
-599.6351929999999
 30
0.0
 11
14912.369141
 21
-600.7201539999999
 31
0.0
  0
LINE
  5
2289
330
36
100
AcDbEntity
  8
TEILE
 62
     2
100
AcDbLine
 10
14912.369141
 20
-600.7201539999999
 30
0.0
 11
14911.220703
 21
-601.869019
 31
0.0
  0
LINE
  5
228A
330
36
100
AcDbEntity
  8
TEILE
 62
     2
100
AcDbLine
 10
14911.220703
 20
-601.869019
 30
0.0
 11
14910.135742
 21
-603.078491
 31
0.0
  0
LINE
  5
228B
330
36
100
AcDbEntity
  8
TEILE
 62
     2
100
AcDbLine
 10
14910.135742
 20
-603.078491
 30
0.0
 11
14909.117188
 21
-604.3448490000001
 31
0.0
  0
LINE
  5
228C
330
36
100
AcDbEntity
  8
TEILE
 62
     2
100
AcDbLine
 10
14909.117188
 20
-604.3448490000001
 30
0.0
 11
14908.169922
 21
-605.664429
 31
0.0
  0
LINE
  5
228D
330
36
100
AcDbEntity
  8
TEILE
 62
     2
100
AcDbLine
 10
14908.169922
 20
-605.664429
 30
0.0
 11
14907.294922
 21
-607.033447
 31
0.0
  0
LINE
  5
228E
330
36
100
AcDbEntity
  8
TEILE
 62
     2
100
AcDbLine
 10
14907.294922
 20
-607.033447
 30
0.0
 11
14906.495117
 21
-608.4478149999999
 31
0.0
  0
LINE
  5
228F
330
36
100
AcDbEntity
  8
TEILE
 62
     2
100
AcDbLine
 10
14906.495117
 20
-608.4478149999999
 30
0.0
 11
14905.772461
 21
-609.9033809999999
 31
0.0
  0
LINE
  5
2290
330
36
100
AcDbEntity
  8
TEILE
 62
     2
100
AcDbLine
 10
14905.772461
 20
-609.9033809999999
 30
0.0
 11
14905.130859
 21
-611.395935
 31
0.0
  0
LINE
  5
2291
330
36
100
AcDbEntity
  8
TEILE
 62
     2
100
AcDbLine
 10
14905.130859
 20
-611.395935
 30
0.0
 11
14904.570313
 21
-612.921021
 31
0.0
  0
LINE
  5
2292
330
36
100
AcDbEntity
  8
TEILE
 62
     2
100
AcDbLine
 10
14904.570313
 20
-612.921021
 30
0.0
 11
14904.09375
 21
-614.4742429999999
 31
0.0
  0
LINE
  5
2293
330
36
100
AcDbEntity
  8
TEILE
 62
     2
100
AcDbLine
 10
14904.09375
 20
-614.4742429999999
 30
0.0
 11
14903.702148
 21
-616.050964
 31
0.0
  0
LINE
  5
2294
330
36
100
AcDbEntity
  8
TEILE
 62
     2
100
AcDbLine
 10
14903.702148
 20
-616.050964
 30
0.0
 11
14903.396484
 21
-617.6466059999999
 31
0.0
  0
LINE
  5
2295
330
36
100
AcDbEntity
  8
TEILE
 62
     2
100
AcDbLine
 10
14903.396484
 20
-617.6466059999999
 30
0.0
 11
14903.175781
 21
-619.25647
 31
0.0
  0
LINE
  5
2296
330
36
100
AcDbEntity
  8
TEILE
 62
     2
100
AcDbLine
 10
14903.175781
 20
-619.25647
 30
0.0
 11
14903.044922
 21
-620.8759159999999
 31
0.0
  0
LINE
  5
2297
330
36
100
AcDbEntity
  8
TEILE
 62
     2
100
AcDbLine
 10
14903.044922
 20
-620.8759159999999
 30
0.0
 11
14903.0
 21
-622.5000610000001
 31
0.0
  0
LINE
  5
2298
330
36
100
AcDbEntity
  8
TEILE
 62
     2
100
AcDbLine
 10
14903.0
 20
-622.5000610000001
 30
0.0
 11
14903.0
 21
-622.5
 31
0.0
  0
LINE
  5
229B
330
36
100
AcDbEntity
  8
TEILE
 62
     2
100
AcDbLine
 10
14918.00028000938
 20
622.5
 30
0.0
 11
30.00010220024827
 21
622.5
 31
0.0
  0
ENDSEC
  0
SECTION
  2
OBJECTS
  0
DICTIONARY
  5
C
330
0
100
AcDbDictionary
281
     1
  3
ACAD_COLOR
350
2F
  3
ACAD_GROUP
350
D
  3
ACAD_LAYOUT
350
2E
  3
ACAD_MATERIAL
350
10
  3
ACAD_MLINESTYLE
350
2B
  3
ACAD_PLOTSETTINGS
350
2D
  3
ACAD_PLOTSTYLENAME
350
E
  3
ACAD_TABLESTYLE
350
30
  3
ACAD_VISUALSTYLE
350
14
  3
AcDbVariableDictionary
350
229E
  0
DICTIONARY
  5
229C
330
36
100
AcDbDictionary
280
     1
281
     1
  3
ACAD_SORTENTS
360
229D
  0
DICTIONARY
  5
2F
102
{ACAD_REACTORS
330
C
102
}
330
C
100
AcDbDictionary
281
     1
  0
DICTIONARY
  5
D
102
{ACAD_REACTORS
330
C
102
}
330
C
100
AcDbDictionary
281
     1
  0
DICTIONARY
  5
2E
102
{ACAD_REACTORS
330
C
102
}
330
C
100
AcDbDictionary
281
     1
  3
Layout1
350
35
  3
Model
350
39
  0
DICTIONARY
  5
10
102
{ACAD_REACTORS
330
C
102
}
330
C
100
AcDbDictionary
281
     1
  3
ByBlock
350
12
  3
ByLayer
350
11
  3
Global
350
13
  0
DICTIONARY
  5
2B
102
{ACAD_REACTORS
330
C
102
}
330
C
100
AcDbDictionary
281
     1
  3
Standard
350
2C
  0
DICTIONARY
  5
2D
102
{ACAD_REACTORS
330
C
102
}
330
C
100
AcDbDictionary
281
     1
  0
ACDBDICTIONARYWDFLT
  5
E
102
{ACAD_REACTORS
330
C
102
}
330
C
100
AcDbDictionary
281
     1
  3
Normal
350
F
100
AcDbDictionaryWithDefault
340
F
  0
DICTIONARY
  5
30
102
{ACAD_REACTORS
330
C
102
}
330
C
100
AcDbDictionary
281
     1
  3
Standard
350
31
  0
DICTIONARY
  5
14
102
{ACAD_REACTORS
330
C
102
}
330
C
100
AcDbDictionary
281
     1
  3
2dWireframe
350
1A
  3
3D Hidden
350
1C
  3
3dWireframe
350
1B
  3
Basic
350
19
  3
Brighten
350
20
  3
ColorChange
350
24
  3
Conceptual
350
1D
  3
Dim
350
1F
  3
Facepattern
350
23
  3
Flat
350
15
  3
FlatWithEdges
350
16
  3
Gouraud
350
17
  3
GouraudWithEdges
350
18
  3
Linepattern
350
22
  3
Realistic
350
1E
  3
Thicken
350
21
  0
DICTIONARY
  5
229E
102
{ACAD_REACTORS
330
C
102
}
330
C
100
AcDbDictionary
281
     1
  3
CTABLESTYLE
350
229F
  0
SORTENTSTABLE
  5
229D
102
{ACAD_REACTORS
330
229C
102
}
330
229C
100
AcDbSortentsTable
330
36
331
223B
  5
223C
331
225D
  5
225E
331
7C
  5
7D
331
65
  5
66
331
227F
  5
2280
331
9E
  5
9F
331
222E
  5
222F
331
224C
  5
224D
331
226E
  5
226F
331
8D
  5
8E
331
76
  5
77
331
2290
  5
2291
331
2239
  5
223A
331
225B
  5
225C
331
7A
  5
7B
331
63
  5
64
331
227D
  5
227E
331
9C
  5
9D
331
222C
  5
222D
331
224A
  5
224B
331
226C
  5
226D
331
8B
  5
8C
331
74
  5
75
331
228E
  5
228F
331
2259
  5
225A
331
78
  5
79
331
61
  5
62
331
227B
  5
227C
331
9A
  5
9B
331
222A
  5
222B
331
2248
  5
2249
331
226A
  5
226B
331
89
  5
8A
331
72
  5
73
331
228C
  5
228D
331
2279
  5
227A
331
98
  5
99
331
2228
  5
2229
331
2246
  5
2247
331
2268
  5
2269
331
87
  5
88
331
229B
  5
5B
331
70
  5
71
331
228A
  5
228B
331
2257
  5
2258
331
5F
  5
60
331
2226
  5
2227
331
2244
  5
2245
331
2266
  5
2267
331
85
  5
86
331
6E
  5
6F
331
2288
  5
2289
331
2237
  5
2238
331
2255
  5
2256
331
5D
  5
5E
331
2277
  5
2278
331
96
  5
97
331
2224
  5
2225
331
2242
  5
2243
331
2264
  5
2265
331
83
  5
84
331
6C
  5
6D
331
2286
  5
2287
331
2235
  5
2236
331
2253
  5
2254
331
5B
  5
5C
331
2275
  5
2276
331
94
  5
95
331
2297
  5
2298
331
2240
  5
2241
331
2262
  5
2263
331
81
  5
82
331
6A
  5
6B
331
2284
  5
2285
331
A3
  5
A4
331
2233
  5
2234
331
2251
  5
2252
331
2273
  5
2274
331
92
  5
93
331
2295
  5
2296
331
59
  5
59
331
223E
  5
223F
331
2260
  5
2261
331
7F
  5
80
331
68
  5
69
331
2282
  5
2283
331
A1
  5
A2
331
2231
  5
2232
331
224F
  5
2250
331
2271
  5
2272
331
90
  5
91
331
2293
  5
2294
331
57
  5
57
331
223C
  5
223D
331
225E
  5
225F
331
7D
  5
7E
331
66
  5
67
331
2280
  5
2281
331
9F
  5
A0
331
222F
  5
2230
331
224D
  5
224E
331
226F
  5
2270
331
8E
  5
8F
331
77
  5
78
331
2291
  5
2292
331
223A
  5
223B
331
225C
  5
225D
331
7B
  5
7C
331
64
  5
65
331
227E
  5
227F
331
9D
  5
9E
331
222D
  5
222E
331
224B
  5
224C
331
226D
  5
226E
331
8C
  5
8D
331
75
  5
76
331
228F
  5
2290
331
2238
  5
2239
331
225A
  5
225B
331
79
  5
7A
331
62
  5
63
331
227C
  5
227D
331
9B
  5
9C
331
222B
  5
222C
331
2249
  5
224A
331
226B
  5
226C
331
8A
  5
8B
331
73
  5
74
331
228D
  5
228E
331
2258
  5
2259
331
60
  5
61
331
227A
  5
227B
331
99
  5
9A
331
2229
  5
222A
331
2247
  5
2248
331
2269
  5
226A
331
88
  5
89
331
71
  5
72
331
228B
  5
228C
331
2278
  5
2279
331
2227
  5
2228
331
2245
  5
2246
331
2267
  5
2268
331
86
  5
87
331
6F
  5
70
331
2289
  5
228A
331
2256
  5
2257
331
5E
  5
5F
331
97
  5
98
331
2298
  5
229B
331
2225
  5
2226
331
2243
  5
2244
331
2265
  5
2266
331
84
  5
85
331
6D
  5
6E
331
2287
  5
2288
331
2236
  5
2237
331
2254
  5
2255
331
5C
  5
5D
331
2276
  5
2277
331
95
  5
96
331
2223
  5
2224
331
2241
  5
2242
331
2263
  5
2264
331
82
  5
83
331
6B
  5
6C
331
2285
  5
2286
331
2234
  5
2235
331
2252
  5
2253
331
2274
  5
2275
331
93
  5
94
331
2296
  5
2297
331
5A
  5
5A
331
223F
  5
2240
331
2261
  5
2262
331
80
  5
81
331
69
  5
6A
331
2283
  5
2284
331
A2
  5
A3
331
2232
  5
2233
331
2250
  5
2251
331
2272
  5
2273
331
91
  5
92
331
2294
  5
2295
331
58
  5
58
331
223D
  5
223E
331
225F
  5
2260
331
7E
  5
7F
331
67
  5
68
331
2281
  5
2282
331
A0
  5
A1
331
2230
  5
2231
331
224E
  5
224F
331
2270
  5
2271
331
8F
  5
90
331
2292
  5
2293
  0
LAYOUT
  5
35
102
{ACAD_REACTORS
330
2E
102
}
330
2E
100
AcDbPlotSettings
  1

  2
PDFill PDF&Image Writer
  4

  6

 40
0.0
 41
0.0
 42
0.0
 43
0.0
 44
0.0
 45
0.0
 46
0.0
 47
0.0
 48
0.0
 49
0.0
140
0.0
141
0.0
142
1.0
143
1.0
 70
   688
 72
     0
 73
     0
 74
     5
  7

 75
    16
147
1.0
 76
     0
 77
     2
 78
   300
148
0.0
149
0.0
100
AcDbLayout
  1
Layout1
 70
     1
 71
     1
 10
0.0
 20
0.0
 11
12.0
 21
9.0
 12
0.0
 22
0.0
 32
0.0
 14
1.000000000000000E+20
 24
1.000000000000000E+20
 34
1.000000000000000E+20
 15
-1.000000000000000E+20
 25
-1.000000000000000E+20
 35
-1.000000000000000E+20
146
0.0
 13
0.0
 23
0.0
 33
0.0
 16
1.0
 26
0.0
 36
0.0
 17
0.0
 27
1.0
 37
0.0
 76
     0
330
32
  0
LAYOUT
  5
39
102
{ACAD_REACTORS
330
2E
102
}
330
2E
100
AcDbPlotSettings
  1

  2
PDFill PDF&Image Writer
  4

  6

 40
0.0
 41
0.0
 42
0.0
 43
0.0
 44
0.0
 45
0.0
 46
0.0
 47
0.0
 48
0.0
 49
0.0
140
0.0
141
0.0
142
1.0
143
1.0
 70
  1712
 72
     0
 73
     0
 74
     0
  7

 75
     0
147
1.0
 76
     0
 77
     2
 78
   300
148
0.0
149
0.0
100
AcDbLayout
  1
Model
 70
     1
 71
     0
 10
0.0
 20
0.0
 11
12.0
 21
9.0
 12
0.0
 22
0.0
 32
0.0
 14
0.0
 24
0.0
 34
0.0
 15
0.0
 25
0.0
 35
0.0
146
0.0
 13
0.0
 23
0.0
 33
0.0
 16
1.0
 26
0.0
 36
0.0
 17
0.0
 27
1.0
 37
0.0
 76
     0
330
36
331
56
  0
MATERIAL
  5
12
102
{ACAD_XDICTIONARY
360
22A2
102
}
102
{ACAD_REACTORS
330
10
102
}
330
10
100
AcDbMaterial
  1
ByBlock
  0
MATERIAL
  5
11
102
{ACAD_XDICTIONARY
360
22A0
102
}
102
{ACAD_REACTORS
330
10
102
}
330
10
100
AcDbMaterial
  1
ByLayer
  0
MATERIAL
  5
13
102
{ACAD_XDICTIONARY
360
22A4
102
}
102
{ACAD_REACTORS
330
10
102
}
330
10
100
AcDbMaterial
  1
Global
  0
MLINESTYLE
  5
2C
102
{ACAD_REACTORS
330
2B
102
}
330
2B
100
AcDbMlineStyle
  2
STANDARD
 70
     0
  3

 62
   256
 51
90.0
 52
90.0
 71
     2
 49
0.5
 62
   256
  6
BYLAYER
 49
-0.5
 62
   256
  6
BYLAYER
  0
ACDBPLACEHOLDER
  5
F
102
{ACAD_REACTORS
330
E
102
}
330
E
  0
TABLESTYLE
  5
31
102
{ACAD_XDICTIONARY
360
22A6
102
}
102
{ACAD_REACTORS
330
30
102
}
330
30
100
AcDbTableStyle
  3
Standard
 70
     0
 71
     0
 40
0.06
 41
0.06
280
     0
281
     0
  7
STANDARD
140
0.18
170
     2
 62
     0
 63
     7
283
     0
274
    -2
284
     1
 64
     0
275
    -2
285
     1
 65
     0
276
    -2
286
     1
 66
     0
277
    -2
287
     1
 67
     0
278
    -2
288
     1
 68
     0
279
    -2
289
     1
 69
     0
  7
STANDARD
140
0.25
170
     5
 62
     0
 63
     7
283
     0
274
    -2
284
     1
 64
     0
275
    -2
285
     1
 65
     0
276
    -2
286
     1
 66
     0
277
    -2
287
     1
 67
     0
278
    -2
288
     1
 68
     0
279
    -2
289
     1
 69
     0
  7
STANDARD
140
0.18
170
     5
 62
     0
 63
     7
283
     0
274
    -2
284
     1
 64
     0
275
    -2
285
     1
 65
     0
276
    -2
286
     1
 66
     0
277
    -2
287
     1
 67
     0
278
    -2
288
     1
 68
     0
279
    -2
289
     1
 69
     0
  0
VISUALSTYLE
  5
1A
102
{ACAD_REACTORS
330
14
102
}
330
14
100
AcDbVisualStyle
  2
2dWireframe
 70
     4
 71
     0
 72
     2
 73
     0
 90
        0
 40
-0.6
 41
-30.0
 62
     5
 63
     7
421
 16777215
 74
     1
 91
        4
 64
     7
 65
   257
 75
     1
175
     1
 42
1.0
 92
        0
 66
   257
 43
1.0
 76
     1
 77
     6
 78
     2
 67
     7
 79
     5
170
     0
171
     0
290
     0
174
     0
 93
        1
 44
0.0
173
     0
291
     0
 45
0.0
1001
ACAD
1000
AcDbSavedByObjectVersion
1070
     0
  0
VISUALSTYLE
  5
1C
102
{ACAD_REACTORS
330
14
102
}
330
14
100
AcDbVisualStyle
  2
3D Hidden
 70
     6
 71
     1
 72
     2
 73
     2
 90
        0
 40
-0.6
 41
-30.0
 62
     5
 63
     7
421
 16777215
 74
     2
 91
        2
 64
     7
 65
   257
 75
     2
175
     1
 42
40.0
 92
        0
 66
   257
 43
1.0
 76
     1
 77
     6
 78
     2
 67
     7
 79
     3
170
     0
171
     0
290
     0
174
     0
 93
        1
 44
0.0
173
     0
291
     0
 45
0.0
1001
ACAD
1000
AcDbSavedByObjectVersion
1070
     0
  0
VISUALSTYLE
  5
1B
102
{ACAD_REACTORS
330
14
102
}
330
14
100
AcDbVisualStyle
  2
3dWireframe
 70
     5
 71
     0
 72
     2
 73
     0
 90
        0
 40
-0.6
 41
-30.0
 62
     5
 63
     7
421
 16777215
 74
     1
 91
        4
 64
     7
 65
   257
 75
     1
175
     1
 42
1.0
 92
        0
 66
   257
 43
1.0
 76
     1
 77
     6
 78
     2
 67
     7
 79
     5
170
     0
171
     0
290
     0
174
     0
 93
        1
 44
0.0
173
     0
291
     0
 45
0.0
1001
ACAD
1000
AcDbSavedByObjectVersion
1070
     0
  0
VISUALSTYLE
  5
19
102
{ACAD_REACTORS
330
14
102
}
330
14
100
AcDbVisualStyle
  2
Basic
 70
     7
 71
     1
 72
     0
 73
     1
 90
        0
 40
-0.6
 41
-30.0
 62
     5
 63
     7
421
 16777215
 74
     0
 91
        4
 64
     7
 65
   257
 75
     1
175
     1
 42
1.0
 92
        8
 66
     7
 43
1.0
 76
     1
 77
     6
 78
     2
 67
     7
 79
     5
170
     0
171
     0
290
     0
174
     0
 93
        1
 44
0.0
173
     0
291
     1
 45
0.0
1001
ACAD
1000
AcDbSavedByObjectVersion
1070
     0
  0
VISUALSTYLE
  5
20
102
{ACAD_REACTORS
330
14
102
}
330
14
100
AcDbVisualStyle
  2
Brighten
 70
    12
 71
     2
 72
     2
 73
     0
 90
        0
 40
-0.6
 41
-30.0
 62
     5
 63
     7
421
 16777215
 74
     1
 91
        4
 64
     7
 65
   257
 75
     1
175
     1
 42
1.0
 92
        8
 66
     7
 43
1.0
 76
     1
 77
     6
 78
     2
 67
     7
 79
     5
170
     0
171
     0
290
     0
174
     0
 93
        1
 44
50.0
173
     0
291
     1
 45
0.0
1001
ACAD
1000
AcDbSavedByObjectVersion
1070
     0
  0
VISUALSTYLE
  5
24
102
{ACAD_REACTORS
330
14
102
}
330
14
100
AcDbVisualStyle
  2
ColorChange
 70
    16
 71
     2
 72
     2
 73
     3
 90
        0
 40
-0.6
 41
-30.0
 62
     5
 63
     8
421
  8421504
 74
     1
 91
        4
 64
     7
 65
   257
 75
     1
175
     1
 42
1.0
 92
        8
 66
     8
424
  8421504
 43
1.0
 76
     1
 77
     6
 78
     2
 67
     7
 79
     5
170
     0
171
     0
290
     0
174
     0
 93
        1
 44
0.0
173
     0
291
     1
 45
0.0
1001
ACAD
1000
AcDbSavedByObjectVersion
1070
     0
  0
VISUALSTYLE
  5
1D
102
{ACAD_REACTORS
330
14
102
}
330
14
100
AcDbVisualStyle
  2
Conceptual
 70
     9
 71
     3
 72
     2
 73
     0
 90
        0
 40
-0.6
 41
-30.0
 62
     5
 63
     7
421
 16777215
 74
     2
 91
        2
 64
     7
 65
   257
 75
     1
175
     1
 42
40.0
 92
        8
 66
     7
 43
1.0
 76
     1
 77
     6
 78
     2
 67
     7
 79
     3
170
     0
171
     0
290
     0
174
     0
 93
        1
 44
0.0
173
     0
291
     0
 45
0.0
1001
ACAD
1000
AcDbSavedByObjectVersion
1070
     0
  0
VISUALSTYLE
  5
1F
102
{ACAD_REACTORS
330
14
102
}
330
14
100
AcDbVisualStyle
  2
Dim
 70
    11
 71
     2
 72
     2
 73
     0
 90
        0
 40
-0.6
 41
-30.0
 62
     5
 63
     7
421
 16777215
 74
     1
 91
        4
 64
     7
 65
   257
 75
     1
175
     1
 42
1.0
 92
        8
 66
     7
 43
1.0
 76
     1
 77
     6
 78
     2
 67
     7
 79
     5
170
     0
171
     0
290
     0
174
     0
 93
        1
 44
-50.0
173
     0
291
     1
 45
0.0
1001
ACAD
1000
AcDbSavedByObjectVersion
1070
     0
  0
VISUALSTYLE
  5
23
102
{ACAD_REACTORS
330
14
102
}
330
14
100
AcDbVisualStyle
  2
Facepattern
 70
    15
 71
     2
 72
     2
 73
     0
 90
        0
 40
-0.6
 41
-30.0
 62
     5
 63
     7
421
 16777215
 74
     1
 91
        4
 64
     7
 65
   257
 75
     1
175
     1
 42
1.0
 92
        8
 66
     7
 43
1.0
 76
     1
 77
     6
 78
     2
 67
     7
 79
     5
170
     0
171
     0
290
     0
174
     0
 93
        1
 44
0.0
173
     0
291
     1
 45
0.0
1001
ACAD
1000
AcDbSavedByObjectVersion
1070
     0
  0
VISUALSTYLE
  5
15
102
{ACAD_REACTORS
330
14
102
}
330
14
100
AcDbVisualStyle
  2
Flat
 70
     0
 71
     2
 72
     1
 73
     1
 90
        2
 40
-0.6
 41
30.0
 62
     5
 63
     7
421
 16777215
 74
     0
 91
        4
 64
     7
 65
   257
 75
     1
175
     1
 42
1.0
 92
        8
 66
     7
 43
1.0
 76
     1
 77
     6
 78
     2
 67
     7
 79
     5
170
     0
171
     0
290
     0
174
     0
 93
       13
 44
0.0
173
     0
291
     1
 45
0.0
1001
ACAD
1000
AcDbSavedByObjectVersion
1070
     0
  0
VISUALSTYLE
  5
16
102
{ACAD_REACTORS
330
14
102
}
330
14
100
AcDbVisualStyle
  2
FlatWithEdges
 70
     1
 71
     2
 72
     1
 73
     1
 90
        2
 40
-0.6
 41
30.0
 62
     5
 63
     7
421
 16777215
 74
     1
 91
        4
 64
     7
 65
   257
 75
     1
175
     1
 42
1.0
 92
        0
 66
   257
 43
1.0
 76
     1
 77
     6
 78
     2
 67
     7
 79
     5
170
     0
171
     0
290
     0
174
     0
 93
       13
 44
0.0
173
     0
291
     1
 45
0.0
1001
ACAD
1000
AcDbSavedByObjectVersion
1070
     0
  0
VISUALSTYLE
  5
17
102
{ACAD_REACTORS
330
14
102
}
330
14
100
AcDbVisualStyle
  2
Gouraud
 70
     2
 71
     2
 72
     2
 73
     1
 90
        2
 40
-0.6
 41
30.0
 62
     5
 63
     7
421
 16777215
 74
     0
 91
        4
 64
     7
 65
   257
 75
     1
175
     1
 42
1.0
 92
        0
 66
     7
 43
1.0
 76
     1
 77
     6
 78
     2
 67
     7
 79
     5
170
     0
171
     0
290
     0
174
     0
 93
       13
 44
0.0
173
     0
291
     1
 45
0.0
1001
ACAD
1000
AcDbSavedByObjectVersion
1070
     0
  0
VISUALSTYLE
  5
18
102
{ACAD_REACTORS
330
14
102
}
330
14
100
AcDbVisualStyle
  2
GouraudWithEdges
 70
     3
 71
     2
 72
     2
 73
     1
 90
        2
 40
-0.6
 41
30.0
 62
     5
 63
     7
421
 16777215
 74
     1
 91
        4
 64
     7
 65
   257
 75
     1
175
     1
 42
1.0
 92
        0
 66
   257
 43
1.0
 76
     1
 77
     6
 78
     2
 67
     7
 79
     5
170
     0
171
     0
290
     0
174
     0
 93
       13
 44
0.0
173
     0
291
     1
 45
0.0
1001
ACAD
1000
AcDbSavedByObjectVersion
1070
     0
  0
VISUALSTYLE
  5
22
102
{ACAD_REACTORS
330
14
102
}
330
14
100
AcDbVisualStyle
  2
Linepattern
 70
    14
 71
     2
 72
     2
 73
     0
 90
        0
 40
-0.6
 41
-30.0
 62
     5
 63
     7
421
 16777215
 74
     1
 91
        4
 64
     7
 65
   257
 75
     7
175
     7
 42
1.0
 92
        8
 66
     7
 43
1.0
 76
     1
 77
     6
 78
     2
 67
     7
 79
     5
170
     0
171
     0
290
     0
174
     0
 93
        1
 44
0.0
173
     0
291
     1
 45
0.0
1001
ACAD
1000
AcDbSavedByObjectVersion
1070
     0
  0
VISUALSTYLE
  5
1E
102
{ACAD_REACTORS
330
14
102
}
330
14
100
AcDbVisualStyle
  2
Realistic
 70
     8
 71
     2
 72
     2
 73
     0
 90
        0
 40
-0.6
 41
-30.0
 62
     5
 63
     7
421
 16777215
 74
     1
 91
        0
 64
     7
 65
   257
 75
     1
175
     1
 42
1.0
 92
        8
 66
     8
424
  7895160
 43
1.0
 76
     1
 77
     6
 78
     2
 67
     7
 79
     5
170
     0
171
     0
290
     0
174
     0
 93
       13
 44
0.0
173
     0
291
     0
 45
0.0
1001
ACAD
1000
AcDbSavedByObjectVersion
1070
     0
  0
VISUALSTYLE
  5
21
102
{ACAD_REACTORS
330
14
102
}
330
14
100
AcDbVisualStyle
  2
Thicken
 70
    13
 71
     2
 72
     2
 73
     0
 90
        0
 40
-0.6
 41
-30.0
 62
     5
 63
     7
421
 16777215
 74
     1
 91
        4
 64
     7
 65
   257
 75
     1
175
     1
 42
1.0
 92
       12
 66
     7
 43
1.0
 76
     1
 77
     6
 78
     2
 67
     7
 79
     5
170
     0
171
     0
290
     0
174
     0
 93
        1
 44
0.0
173
     0
291
     1
 45
0.0
1001
ACAD
1000
AcDbSavedByObjectVersion
1070
     0
  0
DICTIONARYVAR
  5
229F
102
{ACAD_REACTORS
330
229E
102
}
330
229E
100
DictionaryVariables
280
     0
  1
STANDARD
  0
DICTIONARY
  5
22A2
330
12
100
AcDbDictionary
280
     1
281
     1
  3
ACAD_XREC_ROUNDTRIP
360
22A3
  0
DICTIONARY
  5
22A0
330
11
100
AcDbDictionary
280
     1
281
     1
  3
ACAD_XREC_ROUNDTRIP
360
22A1
  0
DICTIONARY
  5
22A4
330
13
100
AcDbDictionary
280
     1
281
     1
  3
ACAD_XREC_ROUNDTRIP
360
22A5
  0
DICTIONARY
  5
22A6
330
31
100
AcDbDictionary
280
     1
281
     1
  3
ACAD_XREC_ROUNDTRIP
360
22A7
  0
XRECORD
  5
22A3
102
{ACAD_REACTORS
330
22A2
102
}
330
22A2
100
AcDbXrecord
280
     1
102
MATERIAL
148
0.0
149
0.0
149
0.0
 93
        0
 94
       63
282
     0
 72
     1
 77
     1
171
     1
175
     1
179
     1
273
     0
  0
XRECORD
  5
22A1
102
{ACAD_REACTORS
330
22A0
102
}
330
22A0
100
AcDbXrecord
280
     1
102
MATERIAL
148
0.0
149
0.0
149
0.0
 93
        0
 94
       63
282
     0
 72
     1
 77
     1
171
     1
175
     1
179
     1
273
     0
  0
XRECORD
  5
22A5
102
{ACAD_REACTORS
330
22A4
102
}
330
22A4
100
AcDbXrecord
280
     1
102
MATERIAL
148
0.0
149
0.0
149
0.0
 93
        0
 94
       63
282
     0
 72
     1
 77
     1
171
     1
175
     1
179
     1
273
     0
  0
XRECORD
  5
22A7
102
{ACAD_REACTORS
330
22A6
102
}
330
22A6
100
AcDbXrecord
280
     1
102
ACAD_ROUNDTRIP_PRE2007_TABLESTYLE
 90
      512
 91
        0
  1

 92
      512
 93
        0
  2

 94
      512
 95
        0
  3

  0
ENDSEC
  0
EOF
