  0
SECTION
  2
HEADER
  9
$ACADVER
  1
AC1018
  9
$ACADMAINTVER
 70
   104
  9
$DWGCODEPAGE
  3
ANSI_1252
  9
$LASTSAVEDBY
  1
zamunere
  9
$INSBASE
 10
0.0
 20
0.0
 30
0.0
  9
$EXTMIN
 10
-0.0411097487594816
 20
-432.7305095155407
 30
-0.0015258207003583
  9
$EXTMAX
 10
11948.04214239994
 20
432.5129450835574
 30
0.0000000349246037
  9
$LIMMIN
 10
-1.5
 20
-434.000069
  9
$LIMMAX
 10
11949.500977
 20
5966.067138999999
  9
$ORTHOMODE
 70
     0
  9
$REGENMODE
 70
     1
  9
$FILLMODE
 70
     1
  9
$QTEXTMODE
 70
     0
  9
$MIRRTEXT
 70
     0
  9
$LTSCALE
 40
10.0
  9
$ATTMODE
 70
     1
  9
$TEXTSIZE
 40
0.35
  9
$TRACEWID
 40
0.05
  9
$TEXTSTYLE
  7
STANDARD
  9
$CLAYER
  8
0
  9
$CELTYPE
  6
CONTINUOUS
  9
$CECOLOR
 62
   256
  9
$CELTSCALE
 40
1.0
  9
$DISPSILH
 70
     0
  9
$DIMSCALE
 40
1.0
  9
$DIMASZ
 40
0.18
  9
$DIMEXO
 40
0.0625
  9
$DIMDLI
 40
0.38
  9
$DIMRND
 40
0.0
  9
$DIMDLE
 40
0.0
  9
$DIMEXE
 40
0.18
  9
$DIMTP
 40
0.0
  9
$DIMTM
 40
0.0
  9
$DIMTXT
 40
0.18
  9
$DIMCEN
 40
0.09
  9
$DIMTSZ
 40
0.0
  9
$DIMTOL
 70
     0
  9
$DIMLIM
 70
     0
  9
$DIMTIH
 70
     1
  9
$DIMTOH
 70
     1
  9
$DIMSE1
 70
     0
  9
$DIMSE2
 70
     0
  9
$DIMTAD
 70
     0
  9
$DIMZIN
 70
     0
  9
$DIMBLK
  1

  9
$DIMASO
 70
     1
  9
$DIMSHO
 70
     1
  9
$DIMPOST
  1

  9
$DIMAPOST
  1

  9
$DIMALT
 70
     0
  9
$DIMALTD
 70
     2
  9
$DIMALTF
 40
25.4
  9
$DIMLFAC
 40
1.0
  9
$DIMTOFL
 70
     0
  9
$DIMTVP
 40
0.0
  9
$DIMTIX
 70
     0
  9
$DIMSOXD
 70
     0
  9
$DIMSAH
 70
     0
  9
$DIMBLK1
  1

  9
$DIMBLK2
  1

  9
$DIMSTYLE
  2
Standard
  9
$DIMCLRD
 70
     0
  9
$DIMCLRE
 70
     0
  9
$DIMCLRT
 70
     0
  9
$DIMTFAC
 40
1.0
  9
$DIMGAP
 40
0.09
  9
$DIMJUST
 70
     0
  9
$DIMSD1
 70
     0
  9
$DIMSD2
 70
     0
  9
$DIMTOLJ
 70
     1
  9
$DIMTZIN
 70
     0
  9
$DIMALTZ
 70
     0
  9
$DIMALTTZ
 70
     0
  9
$DIMUPT
 70
     0
  9
$DIMDEC
 70
     4
  9
$DIMTDEC
 70
     4
  9
$DIMALTU
 70
     2
  9
$DIMALTTD
 70
     2
  9
$DIMTXSTY
  7
STANDARD
  9
$DIMAUNIT
 70
     0
  9
$DIMADEC
 70
     0
  9
$DIMALTRND
 40
0.0
  9
$DIMAZIN
 70
     0
  9
$DIMDSEP
 70
    46
  9
$DIMATFIT
 70
     3
  9
$DIMFRAC
 70
     0
  9
$DIMLDRBLK
  1

  9
$DIMLUNIT
 70
     2
  9
$DIMLWD
 70
    -2
  9
$DIMLWE
 70
    -2
  9
$DIMTMOVE
 70
     0
  9
$LUNITS
 70
     2
  9
$LUPREC
 70
     4
  9
$SKETCHINC
 40
0.1
  9
$FILLETRAD
 40
0.0
  9
$AUNITS
 70
     0
  9
$AUPREC
 70
     0
  9
$MENU
  1
.
  9
$ELEVATION
 40
0.0
  9
$PELEVATION
 40
0.0
  9
$THICKNESS
 40
0.0
  9
$LIMCHECK
 70
     0
  9
$CHAMFERA
 40
0.0
  9
$CHAMFERB
 40
0.0
  9
$CHAMFERC
 40
0.0
  9
$CHAMFERD
 40
0.0
  9
$SKPOLY
 70
     0
  9
$TDCREATE
 40
2457408.459635683
  9
$TDUCREATE
 40
2457408.417969016
  9
$TDUPDATE
 40
2457408.460449618
  9
$TDUUPDATE
 40
2457408.418782951
  9
$TDINDWG
 40
0.0008142361
  9
$TDUSRTIMER
 40
0.0008142361
  9
$USRTIMER
 70
     1
  9
$ANGBASE
 50
0.0
  9
$ANGDIR
 70
     0
  9
$PDMODE
 70
     0
  9
$PDSIZE
 40
0.0
  9
$PLINEWID
 40
0.0
  9
$SPLFRAME
 70
     0
  9
$SPLINETYPE
 70
     6
  9
$SPLINESEGS
 70
     8
  9
$HANDSEED
  5
1BBB
  9
$SURFTAB1
 70
     6
  9
$SURFTAB2
 70
     6
  9
$SURFTYPE
 70
     6
  9
$SURFU
 70
     6
  9
$SURFV
 70
     6
  9
$UCSBASE
  2

  9
$UCSNAME
  2

  9
$UCSORG
 10
0.0
 20
0.0
 30
0.0
  9
$UCSXDIR
 10
1.0
 20
0.0
 30
0.0
  9
$UCSYDIR
 10
0.0
 20
1.0
 30
0.0
  9
$UCSORTHOREF
  2

  9
$UCSORTHOVIEW
 70
     0
  9
$UCSORGTOP
 10
0.0
 20
0.0
 30
0.0
  9
$UCSORGBOTTOM
 10
0.0
 20
0.0
 30
0.0
  9
$UCSORGLEFT
 10
0.0
 20
0.0
 30
0.0
  9
$UCSORGRIGHT
 10
0.0
 20
0.0
 30
0.0
  9
$UCSORGFRONT
 10
0.0
 20
0.0
 30
0.0
  9
$UCSORGBACK
 10
0.0
 20
0.0
 30
0.0
  9
$PUCSBASE
  2

  9
$PUCSNAME
  2

  9
$PUCSORG
 10
0.0
 20
0.0
 30
0.0
  9
$PUCSXDIR
 10
1.0
 20
0.0
 30
0.0
  9
$PUCSYDIR
 10
0.0
 20
1.0
 30
0.0
  9
$PUCSORTHOREF
  2

  9
$PUCSORTHOVIEW
 70
     0
  9
$PUCSORGTOP
 10
0.0
 20
0.0
 30
0.0
  9
$PUCSORGBOTTOM
 10
0.0
 20
0.0
 30
0.0
  9
$PUCSORGLEFT
 10
0.0
 20
0.0
 30
0.0
  9
$PUCSORGRIGHT
 10
0.0
 20
0.0
 30
0.0
  9
$PUCSORGFRONT
 10
0.0
 20
0.0
 30
0.0
  9
$PUCSORGBACK
 10
0.0
 20
0.0
 30
0.0
  9
$USERI1
 70
     0
  9
$USERI2
 70
     0
  9
$USERI3
 70
     0
  9
$USERI4
 70
     0
  9
$USERI5
 70
     0
  9
$USERR1
 40
0.0
  9
$USERR2
 40
0.0
  9
$USERR3
 40
0.0
  9
$USERR4
 40
0.0
  9
$USERR5
 40
0.0
  9
$WORLDVIEW
 70
     1
  9
$SHADEDGE
 70
     3
  9
$SHADEDIF
 70
    70
  9
$TILEMODE
 70
     1
  9
$MAXACTVP
 70
    64
  9
$PINSBASE
 10
0.0
 20
0.0
 30
0.0
  9
$PLIMCHECK
 70
     0
  9
$PEXTMIN
 10
1.000000000000000E+20
 20
1.000000000000000E+20
 30
1.000000000000000E+20
  9
$PEXTMAX
 10
-1.000000000000000E+20
 20
-1.000000000000000E+20
 30
-1.000000000000000E+20
  9
$PLIMMIN
 10
0.0
 20
0.0
  9
$PLIMMAX
 10
12.0
 20
9.0
  9
$UNITMODE
 70
     0
  9
$VISRETAIN
 70
     1
  9
$PLINEGEN
 70
     0
  9
$PSLTSCALE
 70
     1
  9
$TREEDEPTH
 70
  3020
  9
$CMLSTYLE
  2
Standard
  9
$CMLJUST
 70
     0
  9
$CMLSCALE
 40
1.0
  9
$PROXYGRAPHICS
 70
     1
  9
$MEASUREMENT
 70
     0
  9
$CELWEIGHT
370
    -1
  9
$ENDCAPS
280
     0
  9
$JOINSTYLE
280
     0
  9
$LWDISPLAY
290
     0
  9
$INSUNITS
 70
     0
  9
$HYPERLINKBASE
  1

  9
$STYLESHEET
  1

  9
$XEDIT
290
     1
  9
$CEPSNTYPE
380
     0
  9
$PSTYLEMODE
290
     1
  9
$FINGERPRINTGUID
  2
{E328A7FB-550B-45A1-9854-D1579CF5A550}
  9
$VERSIONGUID
  2
{71004AB0-66A8-4BA6-9733-5A6D657CD1FB}
  9
$EXTNAMES
290
     1
  9
$PSVPSCALE
 40
0.0
  9
$OLESTARTUP
290
     0
  9
$SORTENTS
280
   127
  9
$INDEXCTL
280
     0
  9
$HIDETEXT
280
     0
  9
$XCLIPFRAME
290
     0
  9
$HALOGAP
280
     0
  9
$OBSCOLOR
 70
   257
  9
$OBSLTYPE
280
     0
  9
$INTERSECTIONDISPLAY
280
     0
  9
$INTERSECTIONCOLOR
 70
   257
  9
$DIMASSOC
280
     1
  9
$PROJECTNAME
  1

  0
ENDSEC
  0
SECTION
  2
CLASSES
  0
CLASS
  1
ACDBDICTIONARYWDFLT
  2
AcDbDictionaryWithDefault
  3
ObjectDBX Classes
 90
        0
 91
        1
280
     0
281
     0
  0
CLASS
  1
MATERIAL
  2
AcDbMaterial
  3
ObjectDBX Classes
 90
     1024
 91
        3
280
     0
281
     0
  0
CLASS
  1
VISUALSTYLE
  2
AcDbVisualStyle
  3
ObjectDBX Classes
 90
     4095
 91
       16
280
     0
281
     0
  0
CLASS
  1
TABLESTYLE
  2
AcDbTableStyle
  3
ObjectDBX Classes
 90
     4095
 91
        1
280
     0
281
     0
  0
CLASS
  1
SORTENTSTABLE
  2
AcDbSortentsTable
  3
ObjectDBX Classes
 90
        0
 91
        1
280
     0
281
     0
  0
CLASS
  1
DICTIONARYVAR
  2
AcDbDictionaryVar
  3
ObjectDBX Classes
 90
        0
 91
        1
280
     0
281
     0
  0
ENDSEC
  0
SECTION
  2
TABLES
  0
TABLE
  2
VPORT
  5
8
330
0
100
AcDbSymbolTable
 70
     1
  0
VPORT
  5
56
330
8
100
AcDbSymbolTableRecord
100
AcDbViewportTableRecord
  2
*Active
 70
     0
 10
0.0
 20
0.0
 11
1.0
 21
1.0
 12
5974.000516325593
 22
-0.1087822159915959
 13
0.0
 23
0.0
 14
1.0
 24
1.0
 15
0.0
 25
0.0
 16
0.0
 26
0.0
 36
1.0
 17
0.0
 27
0.0
 37
0.0
 40
5980.82961206749
 41
2.004602991944763
 42
50.0
 43
0.0
 44
0.0
 50
0.0
 51
0.0
 71
     0
 72
   100
 73
     1
 74
     1
 75
     0
 76
     0
 77
     0
 78
     0
281
     0
 65
     1
110
0.0
120
0.0
130
0.0
111
1.0
121
0.0
131
0.0
112
0.0
122
1.0
132
0.0
 79
     0
146
0.0
  0
ENDTAB
  0
TABLE
  2
LTYPE
  5
5
330
0
100
AcDbSymbolTable
 70
     4
  0
LTYPE
  5
28
330
5
100
AcDbSymbolTableRecord
100
AcDbLinetypeTableRecord
  2
ByBlock
 70
     0
  3

 72
    65
 73
     0
 40
0.0
  0
LTYPE
  5
29
330
5
100
AcDbSymbolTableRecord
100
AcDbLinetypeTableRecord
  2
ByLayer
 70
     0
  3

 72
    65
 73
     0
 40
0.0
  0
LTYPE
  5
2A
330
5
100
AcDbSymbolTableRecord
100
AcDbLinetypeTableRecord
  2
CONTINUOUS
 70
     0
  3
____________________________________________
 72
    65
 73
     0
 40
0.0
  0
LTYPE
  5
3A
330
5
100
AcDbSymbolTableRecord
100
AcDbLinetypeTableRecord
  2
HIDDEN
 70
     0
  3
__ __ __ __ __ __ __ __ __ __ __ __ __ __ __
 72
    65
 73
     2
 40
0.5
 49
0.3
 74
     0
 49
-0.2
 74
     0
  0
LTYPE
  5
3B
330
5
100
AcDbSymbolTableRecord
100
AcDbLinetypeTableRecord
  2
DASHDOT
 70
     0
  3
____ _ ____ _ ____ _ ____ _ ____ _ ____ _ __
 72
    65
 73
     4
 40
2.0
 49
1.5
 74
     0
 49
-0.25
 74
     0
 49
0.0
 74
     0
 49
-0.25
 74
     0
  0
LTYPE
  5
3C
330
5
100
AcDbSymbolTableRecord
100
AcDbLinetypeTableRecord
  2
DOT
 70
     0
  3
............................................
 72
    65
 73
     2
 40
0.3
 49
0.0
 74
     0
 49
-0.3
 74
     0
  0
ENDTAB
  0
TABLE
  2
LAYER
  5
2
330
0
100
AcDbSymbolTable
 70
    25
  0
LAYER
  5
25
330
2
100
AcDbSymbolTableRecord
100
AcDbLayerTableRecord
  2
0
 70
     0
 62
     7
  6
CONTINUOUS
370
    -3
390
F
  0
LAYER
  5
3D
330
2
100
AcDbSymbolTableRecord
100
AcDbLayerTableRecord
  2
UNTERSCHRIFT
 70
     0
 62
     7
  6
CONTINUOUS
370
    -3
390
F
  0
LAYER
  5
3E
330
2
100
AcDbSymbolTableRecord
100
AcDbLayerTableRecord
  2
TEILE
 70
     0
 62
     7
  6
CONTINUOUS
370
    -3
390
F
  0
LAYER
  5
3F
330
2
100
AcDbSymbolTableRecord
100
AcDbLayerTableRecord
  2
REST
 70
     0
 62
     7
  6
CONTINUOUS
370
    -3
390
F
  0
LAYER
  5
40
330
2
100
AcDbSymbolTableRecord
100
AcDbLayerTableRecord
  2
MARKERPUNKTE
 70
     0
 62
     7
  6
CONTINUOUS
370
    -3
390
F
  0
LAYER
  5
41
330
2
100
AcDbSymbolTableRecord
100
AcDbLayerTableRecord
  2
HILFSPUNKTE
 70
     0
 62
     7
  6
CONTINUOUS
370
    -3
390
F
  0
LAYER
  5
42
330
2
100
AcDbSymbolTableRecord
100
AcDbLayerTableRecord
  2
PICKPUNKTE
 70
     0
 62
     7
  6
CONTINUOUS
370
    -3
390
F
  0
LAYER
  5
43
330
2
100
AcDbSymbolTableRecord
100
AcDbLayerTableRecord
  2
SCHRAUBEN
 70
     0
 62
     7
  6
CONTINUOUS
370
    -3
390
F
  0
LAYER
  5
44
330
2
100
AcDbSymbolTableRecord
100
AcDbLayerTableRecord
  2
SCHWEISSEN
 70
     0
 62
     7
  6
CONTINUOUS
370
    -3
390
F
  0
LAYER
  5
45
330
2
100
AcDbSymbolTableRecord
100
AcDbLayerTableRecord
  2
GRAFIK
 70
     0
 62
     7
  6
CONTINUOUS
370
    -3
390
F
  0
LAYER
  5
46
330
2
100
AcDbSymbolTableRecord
100
AcDbLayerTableRecord
  2
BEM_FREI
 70
     0
 62
     7
  6
CONTINUOUS
370
    -3
390
F
  0
LAYER
  5
47
330
2
100
AcDbSymbolTableRecord
100
AcDbLayerTableRecord
  2
BEM_SYSTEM
 70
     0
 62
     7
  6
CONTINUOUS
370
    -3
390
F
  0
LAYER
  5
48
330
2
100
AcDbSymbolTableRecord
100
AcDbLayerTableRecord
  2
BEM_KONTUR
 70
     0
 62
     7
  6
CONTINUOUS
370
    -3
390
F
  0
LAYER
  5
49
330
2
100
AcDbSymbolTableRecord
100
AcDbLayerTableRecord
  2
BEM_ANBAU
 70
     0
 62
     7
  6
CONTINUOUS
370
    -3
390
F
  0
LAYER
  5
4A
330
2
100
AcDbSymbolTableRecord
100
AcDbLayerTableRecord
  2
BEM_SCHRAUBEN
 70
     0
 62
     7
  6
CONTINUOUS
370
    -3
390
F
  0
LAYER
  5
4B
330
2
100
AcDbSymbolTableRecord
100
AcDbLayerTableRecord
  2
BEM_SCHWEISSEN
 70
     0
 62
     7
  6
CONTINUOUS
370
    -3
390
F
  0
LAYER
  5
4C
330
2
100
AcDbSymbolTableRecord
100
AcDbLayerTableRecord
  2
FREIER_TEXT
 70
     0
 62
     7
  6
CONTINUOUS
370
    -3
390
F
  0
LAYER
  5
4D
330
2
100
AcDbSymbolTableRecord
100
AcDbLayerTableRecord
  2
BEZ_TEILE
 70
     0
 62
     7
  6
CONTINUOUS
370
    -3
390
F
  0
LAYER
  5
4E
330
2
100
AcDbSymbolTableRecord
100
AcDbLayerTableRecord
  2
BEZ_SCHRAUBEN
 70
     0
 62
     7
  6
CONTINUOUS
370
    -3
390
F
  0
LAYER
  5
4F
330
2
100
AcDbSymbolTableRecord
100
AcDbLayerTableRecord
  2
BEZ_SCHWEISSEN
 70
     0
 62
     7
  6
CONTINUOUS
370
    -3
390
F
  0
LAYER
  5
50
330
2
100
AcDbSymbolTableRecord
100
AcDbLayerTableRecord
  2
SCHRAFFUREN
 70
     0
 62
     7
  6
CONTINUOUS
370
    -3
390
F
  0
LAYER
  5
51
330
2
100
AcDbSymbolTableRecord
100
AcDbLayerTableRecord
  2
SCHNITTSYMBOL
 70
     0
 62
     7
  6
CONTINUOUS
370
    -3
390
F
  0
LAYER
  5
52
330
2
100
AcDbSymbolTableRecord
100
AcDbLayerTableRecord
  2
RASTER
 70
     0
 62
     7
  6
CONTINUOUS
370
    -3
390
F
  0
LAYER
  5
53
330
2
100
AcDbSymbolTableRecord
100
AcDbLayerTableRecord
  2
LISTEN
 70
     0
 62
     7
  6
CONTINUOUS
370
    -3
390
F
  0
LAYER
  5
54
330
2
100
AcDbSymbolTableRecord
100
AcDbLayerTableRecord
  2
RAHMEN
 70
     0
 62
     7
  6
CONTINUOUS
370
    -3
390
F
  0
ENDTAB
  0
TABLE
  2
STYLE
  5
3
330
0
100
AcDbSymbolTable
 70
     1
  0
STYLE
  5
26
330
3
100
AcDbSymbolTableRecord
100
AcDbTextStyleTableRecord
  2
STANDARD
 70
     0
 40
0.0
 41
1.0
 50
0.0
 71
     0
 42
0.35
  3
ROMANS
  4

  0
ENDTAB
  0
TABLE
  2
VIEW
  5
6
330
0
100
AcDbSymbolTable
 70
     0
  0
ENDTAB
  0
TABLE
  2
UCS
  5
7
330
0
100
AcDbSymbolTable
 70
     0
  0
ENDTAB
  0
TABLE
  2
APPID
  5
9
330
0
100
AcDbSymbolTable
 70
     1
  0
APPID
  5
27
330
9
100
AcDbSymbolTableRecord
100
AcDbRegAppTableRecord
  2
ACAD
 70
     0
  0
ENDTAB
  0
TABLE
  2
DIMSTYLE
  5
A
330
0
100
AcDbSymbolTable
 70
     1
100
AcDbDimStyleTable
 71
     0
  0
DIMSTYLE
105
1BAC
330
A
100
AcDbSymbolTableRecord
100
AcDbDimStyleTableRecord
  2
Standard
 70
     0
340
26
  0
ENDTAB
  0
TABLE
  2
BLOCK_RECORD
  5
1
330
0
100
AcDbSymbolTable
 70
     0
  0
BLOCK_RECORD
  5
36
102
{ACAD_XDICTIONARY
360
1BAF
102
}
330
1
100
AcDbSymbolTableRecord
100
AcDbBlockTableRecord
  2
*Model_Space
340
39
  0
BLOCK_RECORD
  5
32
330
1
100
AcDbSymbolTableRecord
100
AcDbBlockTableRecord
  2
*Paper_Space
340
35
  0
ENDTAB
  0
ENDSEC
  0
SECTION
  2
BLOCKS
  0
BLOCK
  5
37
330
36
100
AcDbEntity
  8
0
100
AcDbBlockBegin
  2
*Model_Space
 70
     0
 10
0.0
 20
0.0
 30
0.0
  3
*Model_Space
  1

  0
ENDBLK
  5
38
330
36
100
AcDbEntity
  8
0
100
AcDbBlockEnd
  0
BLOCK
  5
33
330
32
100
AcDbEntity
 67
     1
  8
0
100
AcDbBlockBegin
  2
*Paper_Space
 70
     0
 10
0.0
 20
0.0
 30
0.0
  3
*Paper_Space
  1

  0
ENDBLK
  5
34
330
32
100
AcDbEntity
 67
     1
  8
0
100
AcDbBlockEnd
  0
ENDSEC
  0
SECTION
  2
ENTITIES
  0
TEXT
  5
57
330
36
100
AcDbEntity
  8
UNTERSCHRIFT
 62
     2
100
AcDbText
 10
11931.000977
 20
-342.999908
 30
0.0
 40
3.25
  1
Project  DP0GN9  ,Qty. 1  , Pos. 
 50
90.0
 41
0.8
 51
15.0
100
AcDbText
  0
TEXT
  5
58
330
36
100
AcDbEntity
  8
UNTERSCHRIFT
 62
     2
100
AcDbText
 10
11931.000977
 20
-244.199921
 30
0.0
 40
3.25
  1
  , Profi l PL865*10
 50
90.0
 41
0.8
 51
15.0
100
AcDbText
  0
TEXT
  5
59
330
36
100
AcDbEntity
  8
UNTERSCHRIFT
 62
     2
100
AcDbText
 10
11931.000977
 20
-257.199921
 30
0.0
 40
3.25
  1
10309
 50
90.0
 41
0.8
 51
15.0
100
AcDbText
  0
LINE
  5
5A
330
36
100
AcDbEntity
  8
TEILE
 62
     2
100
AcDbLine
 10
11903.0
 20
-432.5
 30
0.0
 11
44.999691
 21
-432.5
 31
0.0
  0
LINE
  5
5B
330
36
100
AcDbEntity
  8
TEILE
 62
     2
100
AcDbLine
 10
44.999691
 20
-432.5
 30
0.0
 11
44.955704
 21
-430.875824
 31
0.0
  0
LINE
  5
5C
330
36
100
AcDbEntity
  8
TEILE
 62
     2
100
AcDbLine
 10
44.955704
 20
-430.875824
 30
0.0
 11
44.82383699999999
 21
-429.2564389999999
 31
0.0
  0
LINE
  5
5D
330
36
100
AcDbEntity
  8
TEILE
 62
     2
100
AcDbLine
 10
44.82383699999999
 20
-429.2564389999999
 30
0.0
 11
44.604492
 21
-427.6465149999999
 31
0.0
  0
LINE
  5
5E
330
36
100
AcDbEntity
  8
TEILE
 62
     2
100
AcDbLine
 10
44.604492
 20
-427.6465149999999
 30
0.0
 11
44.298309
 21
-426.050873
 31
0.0
  0
LINE
  5
5F
330
36
100
AcDbEntity
  8
TEILE
 62
     2
100
AcDbLine
 10
44.298309
 20
-426.050873
 30
0.0
 11
43.906193
 21
-424.4741519999999
 31
0.0
  0
LINE
  5
60
330
36
100
AcDbEntity
  8
TEILE
 62
     2
100
AcDbLine
 10
43.906193
 20
-424.4741519999999
 30
0.0
 11
43.429291
 21
-422.9209589999999
 31
0.0
  0
LINE
  5
61
330
36
100
AcDbEntity
  8
TEILE
 62
     2
100
AcDbLine
 10
43.429291
 20
-422.9209589999999
 30
0.0
 11
42.86899199999999
 21
-421.395874
 31
0.0
  0
LINE
  5
62
330
36
100
AcDbEntity
  8
TEILE
 62
     2
100
AcDbLine
 10
42.86899199999999
 20
-421.395874
 30
0.0
 11
42.226952
 21
-419.90332
 31
0.0
  0
LINE
  5
63
330
36
100
AcDbEntity
  8
TEILE
 62
     2
100
AcDbLine
 10
42.226952
 20
-419.90332
 30
0.0
 11
41.505051
 21
-418.447754
 31
0.0
  0
LINE
  5
64
330
36
100
AcDbEntity
  8
TEILE
 62
     2
100
AcDbLine
 10
41.505051
 20
-418.447754
 30
0.0
 11
40.705406
 21
-417.033386
 31
0.0
  0
LINE
  5
65
330
36
100
AcDbEntity
  8
TEILE
 62
     2
100
AcDbLine
 10
40.705406
 20
-417.033386
 30
0.0
 11
39.830357
 21
-415.664398
 31
0.0
  0
LINE
  5
66
330
36
100
AcDbEntity
  8
TEILE
 62
     2
100
AcDbLine
 10
39.830357
 20
-415.664398
 30
0.0
 11
38.882477
 21
-414.344788
 31
0.0
  0
LINE
  5
67
330
36
100
AcDbEntity
  8
TEILE
 62
     2
100
AcDbLine
 10
38.882477
 20
-414.344788
 30
0.0
 11
37.864548
 21
-413.07843
 31
0.0
  0
LINE
  5
68
330
36
100
AcDbEntity
  8
TEILE
 62
     2
100
AcDbLine
 10
37.864548
 20
-413.07843
 30
0.0
 11
36.779549
 21
-411.8690189999999
 31
0.0
  0
LINE
  5
69
330
36
100
AcDbEntity
  8
TEILE
 62
     2
100
AcDbLine
 10
36.779549
 20
-411.8690189999999
 30
0.0
 11
35.630669
 21
-410.720154
 31
0.0
  0
LINE
  5
6A
330
36
100
AcDbEntity
  8
TEILE
 62
     2
100
AcDbLine
 10
35.630669
 20
-410.720154
 30
0.0
 11
34.421268
 21
-409.635162
 31
0.0
  0
LINE
  5
6B
330
36
100
AcDbEntity
  8
TEILE
 62
     2
100
AcDbLine
 10
34.421268
 20
-409.635162
 30
0.0
 11
33.154907
 21
-408.617218
 31
0.0
  0
LINE
  5
6C
330
36
100
AcDbEntity
  8
TEILE
 62
     2
100
AcDbLine
 10
33.154907
 20
-408.617218
 30
0.0
 11
31.835291
 21
-407.6693419999999
 31
0.0
  0
LINE
  5
6D
330
36
100
AcDbEntity
  8
TEILE
 62
     2
100
AcDbLine
 10
31.835291
 20
-407.6693419999999
 30
0.0
 11
30.466293
 21
-406.7942809999999
 31
0.0
  0
LINE
  5
6E
330
36
100
AcDbEntity
  8
TEILE
 62
     2
100
AcDbLine
 10
30.466293
 20
-406.7942809999999
 30
0.0
 11
29.051931
 21
-405.994629
 31
0.0
  0
LINE
  5
6F
330
36
100
AcDbEntity
  8
TEILE
 62
     2
100
AcDbLine
 10
29.051931
 20
-405.994629
 30
0.0
 11
27.59635
 21
-405.272766
 31
0.0
  0
LINE
  5
70
330
36
100
AcDbEntity
  8
TEILE
 62
     2
100
AcDbLine
 10
27.59635
 20
-405.272766
 30
0.0
 11
26.103821
 21
-404.630707
 31
0.0
  0
LINE
  5
71
330
36
100
AcDbEntity
  8
TEILE
 62
     2
100
AcDbLine
 10
26.103821
 20
-404.630707
 30
0.0
 11
24.578722
 21
-404.0704039999999
 31
0.0
  0
LINE
  5
72
330
36
100
AcDbEntity
  8
TEILE
 62
     2
100
AcDbLine
 10
24.578722
 20
-404.0704039999999
 30
0.0
 11
23.025524
 21
-403.5935059999999
 31
0.0
  0
LINE
  5
73
330
36
100
AcDbEntity
  8
TEILE
 62
     2
100
AcDbLine
 10
23.025524
 20
-403.5935059999999
 30
0.0
 11
21.448786
 21
-403.201416
 31
0.0
  0
LINE
  5
74
330
36
100
AcDbEntity
  8
TEILE
 62
     2
100
AcDbLine
 10
21.448786
 20
-403.201416
 30
0.0
 11
19.853132
 21
-402.895203
 31
0.0
  0
LINE
  5
75
330
36
100
AcDbEntity
  8
TEILE
 62
     2
100
AcDbLine
 10
19.853132
 20
-402.895203
 30
0.0
 11
18.243242
 21
-402.675842
 31
0.0
  0
LINE
  5
76
330
36
100
AcDbEntity
  8
TEILE
 62
     2
100
AcDbLine
 10
18.243242
 20
-402.675842
 30
0.0
 11
16.623838
 21
-402.544006
 31
0.0
  0
LINE
  5
77
330
36
100
AcDbEntity
  8
TEILE
 62
     2
100
AcDbLine
 10
16.623838
 20
-402.544006
 30
0.0
 11
14.999671
 21
-402.5
 31
0.0
  0
LINE
  5
78
330
36
100
AcDbEntity
  8
TEILE
 62
     2
100
AcDbLine
 10
14.999671
 20
-402.5
 30
0.0
 11
14.999687
 21
-402.5
 31
0.0
  0
LINE
  5
79
330
36
100
AcDbEntity
  8
TEILE
 62
     2
100
AcDbLine
 10
14.999687
 20
-402.5
 30
0.0
 11
14.999687
 21
-127.499893
 31
0.0
  0
LINE
  5
7A
330
36
100
AcDbEntity
  8
TEILE
 62
     2
100
AcDbLine
 10
14.999687
 20
-127.499893
 30
0.0
 11
22.763985
 21
-126.477699
 31
0.0
  0
LINE
  5
7B
330
36
100
AcDbEntity
  8
TEILE
 62
     2
100
AcDbLine
 10
22.763985
 20
-126.477699
 30
0.0
 11
29.999411
 21
-123.48069
 31
0.0
  0
LINE
  5
7C
330
36
100
AcDbEntity
  8
TEILE
 62
     2
100
AcDbLine
 10
29.999411
 20
-123.48069
 30
0.0
 11
36.212612
 21
-118.713135
 31
0.0
  0
LINE
  5
7D
330
36
100
AcDbEntity
  8
TEILE
 62
     2
100
AcDbLine
 10
36.212612
 20
-118.713135
 30
0.0
 11
40.98017099999999
 21
-112.499924
 31
0.0
  0
LINE
  5
7E
330
36
100
AcDbEntity
  8
TEILE
 62
     2
100
AcDbLine
 10
40.98017099999999
 20
-112.499924
 30
0.0
 11
43.977184
 21
-105.264503
 31
0.0
  0
LINE
  5
7F
330
36
100
AcDbEntity
  8
TEILE
 62
     2
100
AcDbLine
 10
43.977184
 20
-105.264503
 30
0.0
 11
44.999409
 21
-97.499924
 31
0.0
  0
LINE
  5
80
330
36
100
AcDbEntity
  8
TEILE
 62
     2
100
AcDbLine
 10
44.999409
 20
-97.499924
 30
0.0
 11
43.977184
 21
-89.735352
 31
0.0
  0
LINE
  5
81
330
36
100
AcDbEntity
  8
TEILE
 62
     2
100
AcDbLine
 10
43.977184
 20
-89.735352
 30
0.0
 11
40.98017099999999
 21
-82.499924
 31
0.0
  0
LINE
  5
82
330
36
100
AcDbEntity
  8
TEILE
 62
     2
100
AcDbLine
 10
40.98017099999999
 20
-82.499924
 30
0.0
 11
36.212612
 21
-76.28671999999999
 31
0.0
  0
LINE
  5
83
330
36
100
AcDbEntity
  8
TEILE
 62
     2
100
AcDbLine
 10
36.212612
 20
-76.28671999999999
 30
0.0
 11
29.999411
 21
-71.519165
 31
0.0
  0
LINE
  5
84
330
36
100
AcDbEntity
  8
TEILE
 62
     2
100
AcDbLine
 10
29.999411
 20
-71.519165
 30
0.0
 11
22.763985
 21
-68.522148
 31
0.0
  0
LINE
  5
85
330
36
100
AcDbEntity
  8
TEILE
 62
     2
100
AcDbLine
 10
22.763985
 20
-68.522148
 30
0.0
 11
14.999411
 21
-67.499924
 31
0.0
  0
LINE
  5
86
330
36
100
AcDbEntity
  8
TEILE
 62
     2
100
AcDbLine
 10
14.999411
 20
-67.499924
 30
0.0
 11
0.0
 21
-67.499924
 31
0.0
  0
LINE
  5
87
330
36
100
AcDbEntity
  8
TEILE
 62
     2
100
AcDbLine
 10
0.0
 20
-67.499924
 30
0.0
 11
0.0
 21
402.5
 31
0.0
  0
LINE
  5
88
330
36
100
AcDbEntity
  8
TEILE
 62
     2
100
AcDbLine
 10
0.0
 20
402.5
 30
0.0
 11
1.605725999999999
 21
402.54303
 31
0.0
  0
LINE
  5
89
330
36
100
AcDbEntity
  8
TEILE
 62
     2
100
AcDbLine
 10
1.605725999999999
 20
402.54303
 30
0.0
 11
3.206850999999999
 21
402.6718749999999
 31
0.0
  0
LINE
  5
8A
330
36
100
AcDbEntity
  8
TEILE
 62
     2
100
AcDbLine
 10
3.206850999999999
 20
402.6718749999999
 30
0.0
 11
4.798782
 21
402.8863219999999
 31
0.0
  0
LINE
  5
8B
330
36
100
AcDbEntity
  8
TEILE
 62
     2
100
AcDbLine
 10
4.798782
 20
402.8863219999999
 30
0.0
 11
6.376955999999999
 21
403.1856079999999
 31
0.0
  0
LINE
  5
8C
330
36
100
AcDbEntity
  8
TEILE
 62
     2
100
AcDbLine
 10
6.376955999999999
 20
403.1856079999999
 30
0.0
 11
7.936847
 21
403.56897
 31
0.0
  0
LINE
  5
8D
330
36
100
AcDbEntity
  8
TEILE
 62
     2
100
AcDbLine
 10
7.936847
 20
403.56897
 30
0.0
 11
9.473985
 21
404.035217
 31
0.0
  0
LINE
  5
8E
330
36
100
AcDbEntity
  8
TEILE
 62
     2
100
AcDbLine
 10
9.473985
 20
404.035217
 30
0.0
 11
10.983962
 21
404.5831299999999
 31
0.0
  0
LINE
  5
8F
330
36
100
AcDbEntity
  8
TEILE
 62
     2
100
AcDbLine
 10
10.983962
 20
404.5831299999999
 30
0.0
 11
12.462448
 21
405.2110289999999
 31
0.0
  0
LINE
  5
90
330
36
100
AcDbEntity
  8
TEILE
 62
     2
100
AcDbLine
 10
12.462448
 20
405.2110289999999
 30
0.0
 11
13.905206
 21
405.9172059999999
 31
0.0
  0
LINE
  5
91
330
36
100
AcDbEntity
  8
TEILE
 62
     2
100
AcDbLine
 10
13.905206
 20
405.9172059999999
 30
0.0
 11
15.308099
 21
406.6995539999999
 31
0.0
  0
LINE
  5
92
330
36
100
AcDbEntity
  8
TEILE
 62
     2
100
AcDbLine
 10
15.308099
 20
406.6995539999999
 30
0.0
 11
16.667105
 21
407.5559079999999
 31
0.0
  0
LINE
  5
93
330
36
100
AcDbEntity
  8
TEILE
 62
     2
100
AcDbLine
 10
16.667105
 20
407.5559079999999
 30
0.0
 11
17.978331
 21
408.4837649999999
 31
0.0
  0
LINE
  5
94
330
36
100
AcDbEntity
  8
TEILE
 62
     2
100
AcDbLine
 10
17.978331
 20
408.4837649999999
 30
0.0
 11
19.238012
 21
409.480469
 31
0.0
  0
LINE
  5
95
330
36
100
AcDbEntity
  8
TEILE
 62
     2
100
AcDbLine
 10
19.238012
 20
409.480469
 30
0.0
 11
20.442543
 21
410.5431819999999
 31
0.0
  0
LINE
  5
96
330
36
100
AcDbEntity
  8
TEILE
 62
     2
100
AcDbLine
 10
20.442543
 20
410.5431819999999
 30
0.0
 11
21.588463
 21
411.6688229999999
 31
0.0
  0
LINE
  5
97
330
36
100
AcDbEntity
  8
TEILE
 62
     2
100
AcDbLine
 10
21.588463
 20
411.6688229999999
 30
0.0
 11
22.672493
 21
412.854187
 31
0.0
  0
LINE
  5
98
330
36
100
AcDbEntity
  8
TEILE
 62
     2
100
AcDbLine
 10
22.672493
 20
412.854187
 30
0.0
 11
23.691523
 21
414.095886
 31
0.0
  0
LINE
  5
99
330
36
100
AcDbEntity
  8
TEILE
 62
     2
100
AcDbLine
 10
23.691523
 20
414.095886
 30
0.0
 11
24.642632
 21
415.39032
 31
0.0
  0
LINE
  5
9A
330
36
100
AcDbEntity
  8
TEILE
 62
     2
100
AcDbLine
 10
24.642632
 20
415.39032
 30
0.0
 11
25.523092
 21
416.7338259999999
 31
0.0
  0
LINE
  5
9B
330
36
100
AcDbEntity
  8
TEILE
 62
     2
100
AcDbLine
 10
25.523092
 20
416.7338259999999
 30
0.0
 11
26.330379
 21
418.1225279999999
 31
0.0
  0
LINE
  5
9C
330
36
100
AcDbEntity
  8
TEILE
 62
     2
100
AcDbLine
 10
26.330379
 20
418.1225279999999
 30
0.0
 11
27.062183
 21
419.5524599999999
 31
0.0
  0
LINE
  5
9D
330
36
100
AcDbEntity
  8
TEILE
 62
     2
100
AcDbLine
 10
27.062183
 20
419.5524599999999
 30
0.0
 11
27.716398
 21
421.0195309999999
 31
0.0
  0
LINE
  5
9E
330
36
100
AcDbEntity
  8
TEILE
 62
     2
100
AcDbLine
 10
27.716398
 20
421.0195309999999
 30
0.0
 11
28.291153
 21
422.51947
 31
0.0
  0
LINE
  5
9F
330
36
100
AcDbEntity
  8
TEILE
 62
     2
100
AcDbLine
 10
28.291153
 20
422.51947
 30
0.0
 11
28.7848
 21
424.0480349999999
 31
0.0
  0
LINE
  5
A0
330
36
100
AcDbEntity
  8
TEILE
 62
     2
100
AcDbLine
 10
28.7848
 20
424.0480349999999
 30
0.0
 11
28.78479
 21
424.0480349999999
 31
0.0
  0
LINE
  5
A1
330
36
100
AcDbEntity
  8
TEILE
 62
     2
100
AcDbLine
 10
28.78479
 20
424.0480349999999
 30
0.0
 11
29.694643
 21
428.2305599999999
 31
0.0
  0
LINE
  5
A2
330
36
100
AcDbEntity
  8
TEILE
 62
     2
100
AcDbLine
 10
29.694643
 20
428.2305599999999
 30
0.0
 11
29.880329
 21
430.833069
 31
0.0
  0
LINE
  5
A3
330
36
100
AcDbEntity
  8
TEILE
 62
     2
100
AcDbLine
 10
29.880329
 20
430.833069
 30
0.0
 11
30.00004842991981
 21
432.5
 31
0.0
  0
LINE
  5
1B62
330
36
100
AcDbEntity
  8
TEILE
 62
     2
100
AcDbLine
 10
11917.99991772723
 20
432.4999999999999
 30
0.0
 11
11918.171875
 21
430.112946
 31
0.0
  0
LINE
  5
1B63
330
36
100
AcDbEntity
  8
TEILE
 62
     2
100
AcDbLine
 10
11918.171875
 20
430.112946
 30
0.0
 11
11918.357422
 21
427.51004
 31
0.0
  0
LINE
  5
1B64
330
36
100
AcDbEntity
  8
TEILE
 62
     2
100
AcDbLine
 10
11918.357422
 20
427.51004
 30
0.0
 11
11918.305664
 21
428.2305599999999
 31
0.0
  0
LINE
  5
1B65
330
36
100
AcDbEntity
  8
TEILE
 62
     2
100
AcDbLine
 10
11918.305664
 20
428.2305599999999
 30
0.0
 11
11919.216797
 21
424.0480349999999
 31
0.0
  0
LINE
  5
1B66
330
36
100
AcDbEntity
  8
TEILE
 62
     2
100
AcDbLine
 10
11919.216797
 20
424.0480349999999
 30
0.0
 11
11919.708984
 21
422.519409
 31
0.0
  0
LINE
  5
1B67
330
36
100
AcDbEntity
  8
TEILE
 62
     2
100
AcDbLine
 10
11919.708984
 20
422.519409
 30
0.0
 11
11920.28418
 21
421.0195309999999
 31
0.0
  0
LINE
  5
1B68
330
36
100
AcDbEntity
  8
TEILE
 62
     2
100
AcDbLine
 10
11920.28418
 20
421.0195309999999
 30
0.0
 11
11920.938477
 21
419.552551
 31
0.0
  0
LINE
  5
1B69
330
36
100
AcDbEntity
  8
TEILE
 62
     2
100
AcDbLine
 10
11920.938477
 20
419.552551
 30
0.0
 11
11921.670898
 21
418.122711
 31
0.0
  0
LINE
  5
1B6A
330
36
100
AcDbEntity
  8
TEILE
 62
     2
100
AcDbLine
 10
11921.670898
 20
418.122711
 30
0.0
 11
11922.478516
 21
416.7340389999999
 31
0.0
  0
LINE
  5
1B6B
330
36
100
AcDbEntity
  8
TEILE
 62
     2
100
AcDbLine
 10
11922.478516
 20
416.7340389999999
 30
0.0
 11
11923.358398
 21
415.390594
 31
0.0
  0
LINE
  5
1B6C
330
36
100
AcDbEntity
  8
TEILE
 62
     2
100
AcDbLine
 10
11923.358398
 20
415.390594
 30
0.0
 11
11924.308594
 21
414.096222
 31
0.0
  0
LINE
  5
1B6D
330
36
100
AcDbEntity
  8
TEILE
 62
     2
100
AcDbLine
 10
11924.308594
 20
414.096222
 30
0.0
 11
11925.328125
 21
412.854584
 31
0.0
  0
LINE
  5
1B6E
330
36
100
AcDbEntity
  8
TEILE
 62
     2
100
AcDbLine
 10
11925.328125
 20
412.854584
 30
0.0
 11
11926.412109
 21
411.6692809999999
 31
0.0
  0
LINE
  5
1B6F
330
36
100
AcDbEntity
  8
TEILE
 62
     2
100
AcDbLine
 10
11926.412109
 20
411.6692809999999
 30
0.0
 11
11927.558594
 21
410.543671
 31
0.0
  0
LINE
  5
1B70
330
36
100
AcDbEntity
  8
TEILE
 62
     2
100
AcDbLine
 10
11927.558594
 20
410.543671
 30
0.0
 11
11928.763672
 21
409.481018
 31
0.0
  0
LINE
  5
1B71
330
36
100
AcDbEntity
  8
TEILE
 62
     2
100
AcDbLine
 10
11928.763672
 20
409.481018
 30
0.0
 11
11930.023438
 21
408.484344
 31
0.0
  0
LINE
  5
1B72
330
36
100
AcDbEntity
  8
TEILE
 62
     2
100
AcDbLine
 10
11930.023438
 20
408.484344
 30
0.0
 11
11931.333984
 21
407.5564879999999
 31
0.0
  0
LINE
  5
1B73
330
36
100
AcDbEntity
  8
TEILE
 62
     2
100
AcDbLine
 10
11931.333984
 20
407.5564879999999
 30
0.0
 11
11932.693359
 21
406.7001649999999
 31
0.0
  0
LINE
  5
1B74
330
36
100
AcDbEntity
  8
TEILE
 62
     2
100
AcDbLine
 10
11932.693359
 20
406.7001649999999
 30
0.0
 11
11934.095703
 21
405.917816
 31
0.0
  0
LINE
  5
1B75
330
36
100
AcDbEntity
  8
TEILE
 62
     2
100
AcDbLine
 10
11934.095703
 20
405.917816
 30
0.0
 11
11935.538086
 21
405.21167
 31
0.0
  0
LINE
  5
1B76
330
36
100
AcDbEntity
  8
TEILE
 62
     2
100
AcDbLine
 10
11935.538086
 20
405.21167
 30
0.0
 11
11937.016602
 21
404.5837399999999
 31
0.0
  0
LINE
  5
1B77
330
36
100
AcDbEntity
  8
TEILE
 62
     2
100
AcDbLine
 10
11937.016602
 20
404.5837399999999
 30
0.0
 11
11938.526367
 21
404.0358279999999
 31
0.0
  0
LINE
  5
1B78
330
36
100
AcDbEntity
  8
TEILE
 62
     2
100
AcDbLine
 10
11938.526367
 20
404.0358279999999
 30
0.0
 11
11940.063477
 21
403.569519
 31
0.0
  0
LINE
  5
1B79
330
36
100
AcDbEntity
  8
TEILE
 62
     2
100
AcDbLine
 10
11940.063477
 20
403.569519
 30
0.0
 11
11941.623047
 21
403.186188
 31
0.0
  0
LINE
  5
1B7A
330
36
100
AcDbEntity
  8
TEILE
 62
     2
100
AcDbLine
 10
11941.623047
 20
403.186188
 30
0.0
 11
11943.202148
 21
402.886841
 31
0.0
  0
LINE
  5
1B7B
330
36
100
AcDbEntity
  8
TEILE
 62
     2
100
AcDbLine
 10
11943.202148
 20
402.886841
 30
0.0
 11
11944.793945
 21
402.672394
 31
0.0
  0
LINE
  5
1B7C
330
36
100
AcDbEntity
  8
TEILE
 62
     2
100
AcDbLine
 10
11944.793945
 20
402.672394
 30
0.0
 11
11946.395508
 21
402.5434569999999
 31
0.0
  0
LINE
  5
1B7D
330
36
100
AcDbEntity
  8
TEILE
 62
     2
100
AcDbLine
 10
11946.395508
 20
402.5434569999999
 30
0.0
 11
11948.0
 21
402.500366
 31
0.0
  0
LINE
  5
1B7E
330
36
100
AcDbEntity
  8
TEILE
 62
     2
100
AcDbLine
 10
11948.0
 20
402.500366
 30
0.0
 11
11948.0
 21
402.5
 31
0.0
  0
LINE
  5
1B7F
330
36
100
AcDbEntity
  8
TEILE
 62
     2
100
AcDbLine
 10
11948.0
 20
402.5
 30
0.0
 11
11948.0
 21
-67.499924
 31
0.0
  0
LINE
  5
1B80
330
36
100
AcDbEntity
  8
TEILE
 62
     2
100
AcDbLine
 10
11948.0
 20
-67.499924
 30
0.0
 11
11933.001953
 21
-67.499924
 31
0.0
  0
LINE
  5
1B81
330
36
100
AcDbEntity
  8
TEILE
 62
     2
100
AcDbLine
 10
11933.001953
 20
-67.499924
 30
0.0
 11
11925.236328
 21
-68.522148
 31
0.0
  0
LINE
  5
1B82
330
36
100
AcDbEntity
  8
TEILE
 62
     2
100
AcDbLine
 10
11925.236328
 20
-68.522148
 30
0.0
 11
11918.001953
 21
-71.519165
 31
0.0
  0
LINE
  5
1B83
330
36
100
AcDbEntity
  8
TEILE
 62
     2
100
AcDbLine
 10
11918.001953
 20
-71.519165
 30
0.0
 11
11911.788086
 21
-76.28671999999999
 31
0.0
  0
LINE
  5
1B84
330
36
100
AcDbEntity
  8
TEILE
 62
     2
100
AcDbLine
 10
11911.788086
 20
-76.28671999999999
 30
0.0
 11
11907.020508
 21
-82.499924
 31
0.0
  0
LINE
  5
1B85
330
36
100
AcDbEntity
  8
TEILE
 62
     2
100
AcDbLine
 10
11907.020508
 20
-82.499924
 30
0.0
 11
11904.023438
 21
-89.735352
 31
0.0
  0
LINE
  5
1B86
330
36
100
AcDbEntity
  8
TEILE
 62
     2
100
AcDbLine
 10
11904.023438
 20
-89.735352
 30
0.0
 11
11903.001953
 21
-97.499924
 31
0.0
  0
LINE
  5
1B87
330
36
100
AcDbEntity
  8
TEILE
 62
     2
100
AcDbLine
 10
11903.001953
 20
-97.499924
 30
0.0
 11
11904.023438
 21
-105.264503
 31
0.0
  0
LINE
  5
1B88
330
36
100
AcDbEntity
  8
TEILE
 62
     2
100
AcDbLine
 10
11904.023438
 20
-105.264503
 30
0.0
 11
11907.020508
 21
-112.499924
 31
0.0
  0
LINE
  5
1B89
330
36
100
AcDbEntity
  8
TEILE
 62
     2
100
AcDbLine
 10
11907.020508
 20
-112.499924
 30
0.0
 11
11911.788086
 21
-118.713135
 31
0.0
  0
LINE
  5
1B8A
330
36
100
AcDbEntity
  8
TEILE
 62
     2
100
AcDbLine
 10
11911.788086
 20
-118.713135
 30
0.0
 11
11918.001953
 21
-123.48069
 31
0.0
  0
LINE
  5
1B8B
330
36
100
AcDbEntity
  8
TEILE
 62
     2
100
AcDbLine
 10
11918.001953
 20
-123.48069
 30
0.0
 11
11925.236328
 21
-126.477699
 31
0.0
  0
LINE
  5
1B8C
330
36
100
AcDbEntity
  8
TEILE
 62
     2
100
AcDbLine
 10
11925.236328
 20
-126.477699
 30
0.0
 11
11933.0
 21
-127.499802
 31
0.0
  0
LINE
  5
1B8D
330
36
100
AcDbEntity
  8
TEILE
 62
     2
100
AcDbLine
 10
11933.0
 20
-127.499802
 30
0.0
 11
11933.0
 21
-402.5
 31
0.0
  0
LINE
  5
1B8E
330
36
100
AcDbEntity
  8
TEILE
 62
     2
100
AcDbLine
 10
11933.0
 20
-402.5
 30
0.0
 11
11931.375977
 21
-402.544067
 31
0.0
  0
LINE
  5
1B8F
330
36
100
AcDbEntity
  8
TEILE
 62
     2
100
AcDbLine
 10
11931.375977
 20
-402.544067
 30
0.0
 11
11929.756836
 21
-402.6759339999999
 31
0.0
  0
LINE
  5
1B90
330
36
100
AcDbEntity
  8
TEILE
 62
     2
100
AcDbLine
 10
11929.756836
 20
-402.6759339999999
 30
0.0
 11
11928.146484
 21
-402.8952639999999
 31
0.0
  0
LINE
  5
1B91
330
36
100
AcDbEntity
  8
TEILE
 62
     2
100
AcDbLine
 10
11928.146484
 20
-402.8952639999999
 30
0.0
 11
11926.551758
 21
-403.201447
 31
0.0
  0
LINE
  5
1B92
330
36
100
AcDbEntity
  8
TEILE
 62
     2
100
AcDbLine
 10
11926.551758
 20
-403.201447
 30
0.0
 11
11924.974609
 21
-403.5935669999999
 31
0.0
  0
LINE
  5
1B93
330
36
100
AcDbEntity
  8
TEILE
 62
     2
100
AcDbLine
 10
11924.974609
 20
-403.5935669999999
 30
0.0
 11
11923.421875
 21
-404.070465
 31
0.0
  0
LINE
  5
1B94
330
36
100
AcDbEntity
  8
TEILE
 62
     2
100
AcDbLine
 10
11923.421875
 20
-404.070465
 30
0.0
 11
11921.895508
 21
-404.630737
 31
0.0
  0
LINE
  5
1B95
330
36
100
AcDbEntity
  8
TEILE
 62
     2
100
AcDbLine
 10
11921.895508
 20
-404.630737
 30
0.0
 11
11920.404297
 21
-405.272797
 31
0.0
  0
LINE
  5
1B96
330
36
100
AcDbEntity
  8
TEILE
 62
     2
100
AcDbLine
 10
11920.404297
 20
-405.272797
 30
0.0
 11
11918.947266
 21
-405.9946899999999
 31
0.0
  0
LINE
  5
1B97
330
36
100
AcDbEntity
  8
TEILE
 62
     2
100
AcDbLine
 10
11918.947266
 20
-405.9946899999999
 30
0.0
 11
11917.53418
 21
-406.7943119999999
 31
0.0
  0
LINE
  5
1B98
330
36
100
AcDbEntity
  8
TEILE
 62
     2
100
AcDbLine
 10
11917.53418
 20
-406.7943119999999
 30
0.0
 11
11916.164063
 21
-407.669373
 31
0.0
  0
LINE
  5
1B99
330
36
100
AcDbEntity
  8
TEILE
 62
     2
100
AcDbLine
 10
11916.164063
 20
-407.669373
 30
0.0
 11
11914.844727
 21
-408.617249
 31
0.0
  0
LINE
  5
1B9A
330
36
100
AcDbEntity
  8
TEILE
 62
     2
100
AcDbLine
 10
11914.844727
 20
-408.617249
 30
0.0
 11
11913.579102
 21
-409.6351929999999
 31
0.0
  0
LINE
  5
1B9B
330
36
100
AcDbEntity
  8
TEILE
 62
     2
100
AcDbLine
 10
11913.579102
 20
-409.6351929999999
 30
0.0
 11
11912.369141
 21
-410.720184
 31
0.0
  0
LINE
  5
1B9C
330
36
100
AcDbEntity
  8
TEILE
 62
     2
100
AcDbLine
 10
11912.369141
 20
-410.720184
 30
0.0
 11
11911.220703
 21
-411.869049
 31
0.0
  0
LINE
  5
1B9D
330
36
100
AcDbEntity
  8
TEILE
 62
     2
100
AcDbLine
 10
11911.220703
 20
-411.869049
 30
0.0
 11
11910.135742
 21
-413.078461
 31
0.0
  0
LINE
  5
1B9E
330
36
100
AcDbEntity
  8
TEILE
 62
     2
100
AcDbLine
 10
11910.135742
 20
-413.078461
 30
0.0
 11
11909.117188
 21
-414.344818
 31
0.0
  0
LINE
  5
1B9F
330
36
100
AcDbEntity
  8
TEILE
 62
     2
100
AcDbLine
 10
11909.117188
 20
-414.344818
 30
0.0
 11
11908.169922
 21
-415.664429
 31
0.0
  0
LINE
  5
1BA0
330
36
100
AcDbEntity
  8
TEILE
 62
     2
100
AcDbLine
 10
11908.169922
 20
-415.664429
 30
0.0
 11
11907.294922
 21
-417.033417
 31
0.0
  0
LINE
  5
1BA1
330
36
100
AcDbEntity
  8
TEILE
 62
     2
100
AcDbLine
 10
11907.294922
 20
-417.033417
 30
0.0
 11
11906.495117
 21
-418.447815
 31
0.0
  0
LINE
  5
1BA2
330
36
100
AcDbEntity
  8
TEILE
 62
     2
100
AcDbLine
 10
11906.495117
 20
-418.447815
 30
0.0
 11
11905.772461
 21
-419.9033809999999
 31
0.0
  0
LINE
  5
1BA3
330
36
100
AcDbEntity
  8
TEILE
 62
     2
100
AcDbLine
 10
11905.772461
 20
-419.9033809999999
 30
0.0
 11
11905.130859
 21
-421.3959049999999
 31
0.0
  0
LINE
  5
1BA4
330
36
100
AcDbEntity
  8
TEILE
 62
     2
100
AcDbLine
 10
11905.130859
 20
-421.3959049999999
 30
0.0
 11
11904.570313
 21
-422.9209899999999
 31
0.0
  0
LINE
  5
1BA5
330
36
100
AcDbEntity
  8
TEILE
 62
     2
100
AcDbLine
 10
11904.570313
 20
-422.9209899999999
 30
0.0
 11
11904.09375
 21
-424.4742129999999
 31
0.0
  0
LINE
  5
1BA6
330
36
100
AcDbEntity
  8
TEILE
 62
     2
100
AcDbLine
 10
11904.09375
 20
-424.4742129999999
 30
0.0
 11
11903.702148
 21
-426.0509639999999
 31
0.0
  0
LINE
  5
1BA7
330
36
100
AcDbEntity
  8
TEILE
 62
     2
100
AcDbLine
 10
11903.702148
 20
-426.0509639999999
 30
0.0
 11
11903.396484
 21
-427.6466059999999
 31
0.0
  0
LINE
  5
1BA8
330
36
100
AcDbEntity
  8
TEILE
 62
     2
100
AcDbLine
 10
11903.396484
 20
-427.6466059999999
 30
0.0
 11
11903.175781
 21
-429.25647
 31
0.0
  0
LINE
  5
1BA9
330
36
100
AcDbEntity
  8
TEILE
 62
     2
100
AcDbLine
 10
11903.175781
 20
-429.25647
 30
0.0
 11
11903.044922
 21
-430.875885
 31
0.0
  0
LINE
  5
1BAA
330
36
100
AcDbEntity
  8
TEILE
 62
     2
100
AcDbLine
 10
11903.044922
 20
-430.875885
 30
0.0
 11
11903.0
 21
-432.500061
 31
0.0
  0
LINE
  5
1BAB
330
36
100
AcDbEntity
  8
TEILE
 62
     2
100
AcDbLine
 10
11903.0
 20
-432.500061
 30
0.0
 11
11903.0
 21
-432.5
 31
0.0
  0
LINE
  5
1BAE
330
36
100
AcDbEntity
  8
TEILE
 62
     2
100
AcDbLine
 10
11917.99991772723
 20
432.4999999999999
 30
0.0
 11
30.00004842991981
 21
432.5
 31
0.0
  0
ENDSEC
  0
SECTION
  2
OBJECTS
  0
DICTIONARY
  5
C
330
0
100
AcDbDictionary
281
     1
  3
ACAD_COLOR
350
2F
  3
ACAD_GROUP
350
D
  3
ACAD_LAYOUT
350
2E
  3
ACAD_MATERIAL
350
10
  3
ACAD_MLINESTYLE
350
2B
  3
ACAD_PLOTSETTINGS
350
2D
  3
ACAD_PLOTSTYLENAME
350
E
  3
ACAD_TABLESTYLE
350
30
  3
ACAD_VISUALSTYLE
350
14
  3
AcDbVariableDictionary
350
1BB1
  0
DICTIONARY
  5
1BAF
330
36
100
AcDbDictionary
280
     1
281
     1
  3
ACAD_SORTENTS
360
1BB0
  0
DICTIONARY
  5
2F
102
{ACAD_REACTORS
330
C
102
}
330
C
100
AcDbDictionary
281
     1
  0
DICTIONARY
  5
D
102
{ACAD_REACTORS
330
C
102
}
330
C
100
AcDbDictionary
281
     1
  0
DICTIONARY
  5
2E
102
{ACAD_REACTORS
330
C
102
}
330
C
100
AcDbDictionary
281
     1
  3
Layout1
350
35
  3
Model
350
39
  0
DICTIONARY
  5
10
102
{ACAD_REACTORS
330
C
102
}
330
C
100
AcDbDictionary
281
     1
  3
ByBlock
350
12
  3
ByLayer
350
11
  3
Global
350
13
  0
DICTIONARY
  5
2B
102
{ACAD_REACTORS
330
C
102
}
330
C
100
AcDbDictionary
281
     1
  3
Standard
350
2C
  0
DICTIONARY
  5
2D
102
{ACAD_REACTORS
330
C
102
}
330
C
100
AcDbDictionary
281
     1
  0
ACDBDICTIONARYWDFLT
  5
E
102
{ACAD_REACTORS
330
C
102
}
330
C
100
AcDbDictionary
281
     1
  3
Normal
350
F
100
AcDbDictionaryWithDefault
340
F
  0
DICTIONARY
  5
30
102
{ACAD_REACTORS
330
C
102
}
330
C
100
AcDbDictionary
281
     1
  3
Standard
350
31
  0
DICTIONARY
  5
14
102
{ACAD_REACTORS
330
C
102
}
330
C
100
AcDbDictionary
281
     1
  3
2dWireframe
350
1A
  3
3D Hidden
350
1C
  3
3dWireframe
350
1B
  3
Basic
350
19
  3
Brighten
350
20
  3
ColorChange
350
24
  3
Conceptual
350
1D
  3
Dim
350
1F
  3
Facepattern
350
23
  3
Flat
350
15
  3
FlatWithEdges
350
16
  3
Gouraud
350
17
  3
GouraudWithEdges
350
18
  3
Linepattern
350
22
  3
Realistic
350
1E
  3
Thicken
350
21
  0
DICTIONARY
  5
1BB1
102
{ACAD_REACTORS
330
C
102
}
330
C
100
AcDbDictionary
281
     1
  3
CTABLESTYLE
350
1BB2
  0
SORTENTSTABLE
  5
1BB0
102
{ACAD_REACTORS
330
1BAF
102
}
330
1BAF
100
AcDbSortentsTable
330
36
331
1B73
  5
1B74
331
1B95
  5
1B96
331
7C
  5
7D
331
65
  5
66
331
9E
  5
9F
331
1B62
  5
1B63
331
1B84
  5
1B85
331
1BA6
  5
1BA7
331
8D
  5
8E
331
76
  5
77
331
1B71
  5
1B72
331
1B93
  5
1B94
331
7A
  5
7B
331
63
  5
64
331
9C
  5
9D
331
1B82
  5
1B83
331
1BA4
  5
1BA5
331
8B
  5
8C
331
74
  5
75
331
1B91
  5
1B92
331
78
  5
79
331
61
  5
62
331
1BAB
  5
1BAE
331
9A
  5
9B
331
1B80
  5
1B81
331
1BA2
  5
1BA3
331
89
  5
8A
331
72
  5
73
331
1B6F
  5
1B70
331
1BA9
  5
1BAA
331
98
  5
99
331
1B7E
  5
1B7F
331
1BA0
  5
1BA1
331
87
  5
88
331
70
  5
71
331
1B6D
  5
1B6E
331
1B8F
  5
1B90
331
5F
  5
60
331
1B7C
  5
1B7D
331
1B9E
  5
1B9F
331
85
  5
86
331
6E
  5
6F
331
1B6B
  5
1B6C
331
1B8D
  5
1B8E
331
5D
  5
5E
331
96
  5
97
331
1B7A
  5
1B7B
331
1B9C
  5
1B9D
331
83
  5
84
331
6C
  5
6D
331
1B69
  5
1B6A
331
1B8B
  5
1B8C
331
5B
  5
5C
331
94
  5
95
331
1B78
  5
1B79
331
1B9A
  5
1B9B
331
81
  5
82
331
6A
  5
6B
331
A3
  5
A4
331
1B67
  5
1B68
331
1B89
  5
1B8A
331
92
  5
93
331
59
  5
59
331
1B76
  5
1B77
331
1B98
  5
1B99
331
7F
  5
80
331
68
  5
69
331
A1
  5
A2
331
1B65
  5
1B66
331
1B87
  5
1B88
331
90
  5
91
331
57
  5
57
331
1B74
  5
1B75
331
1B96
  5
1B97
331
7D
  5
7E
331
66
  5
67
331
9F
  5
A0
331
1B63
  5
1B64
331
1B85
  5
1B86
331
1BA7
  5
1BA8
331
8E
  5
8F
331
77
  5
78
331
1B72
  5
1B73
331
1B94
  5
1B95
331
7B
  5
7C
331
64
  5
65
331
9D
  5
9E
331
1B83
  5
1B84
331
1BA5
  5
1BA6
331
8C
  5
8D
331
1BAE
  5
5B
331
75
  5
76
331
1B70
  5
1B71
331
1B92
  5
1B93
331
79
  5
7A
331
62
  5
63
331
9B
  5
9C
331
1B81
  5
1B82
331
1BA3
  5
1BA4
331
8A
  5
8B
331
73
  5
74
331
1B90
  5
1B91
331
60
  5
61
331
1BAA
  5
1BAB
331
99
  5
9A
331
1B7F
  5
1B80
331
1BA1
  5
1BA2
331
88
  5
89
331
71
  5
72
331
1B6E
  5
1B6F
331
1BA8
  5
1BA9
331
1B7D
  5
1B7E
331
1B9F
  5
1BA0
331
86
  5
87
331
6F
  5
70
331
1B6C
  5
1B6D
331
1B8E
  5
1B8F
331
5E
  5
5F
331
97
  5
98
331
1B7B
  5
1B7C
331
1B9D
  5
1B9E
331
84
  5
85
331
6D
  5
6E
331
1B6A
  5
1B6B
331
1B8C
  5
1B8D
331
5C
  5
5D
331
95
  5
96
331
1B79
  5
1B7A
331
1B9B
  5
1B9C
331
82
  5
83
331
6B
  5
6C
331
1B68
  5
1B69
331
1B8A
  5
1B8B
331
93
  5
94
331
5A
  5
5A
331
1B77
  5
1B78
331
1B99
  5
1B9A
331
80
  5
81
331
69
  5
6A
331
A2
  5
A3
331
1B66
  5
1B67
331
1B88
  5
1B89
331
91
  5
92
331
58
  5
58
331
1B75
  5
1B76
331
1B97
  5
1B98
331
7E
  5
7F
331
67
  5
68
331
A0
  5
A1
331
1B64
  5
1B65
331
1B86
  5
1B87
331
8F
  5
90
  0
LAYOUT
  5
35
102
{ACAD_REACTORS
330
2E
102
}
330
2E
100
AcDbPlotSettings
  1

  2
PDFill PDF&Image Writer
  4

  6

 40
0.0
 41
0.0
 42
0.0
 43
0.0
 44
0.0
 45
0.0
 46
0.0
 47
0.0
 48
0.0
 49
0.0
140
0.0
141
0.0
142
1.0
143
1.0
 70
   688
 72
     0
 73
     0
 74
     5
  7

 75
    16
147
1.0
 76
     0
 77
     2
 78
   300
148
0.0
149
0.0
100
AcDbLayout
  1
Layout1
 70
     1
 71
     1
 10
0.0
 20
0.0
 11
12.0
 21
9.0
 12
0.0
 22
0.0
 32
0.0
 14
1.000000000000000E+20
 24
1.000000000000000E+20
 34
1.000000000000000E+20
 15
-1.000000000000000E+20
 25
-1.000000000000000E+20
 35
-1.000000000000000E+20
146
0.0
 13
0.0
 23
0.0
 33
0.0
 16
1.0
 26
0.0
 36
0.0
 17
0.0
 27
1.0
 37
0.0
 76
     0
330
32
  0
LAYOUT
  5
39
102
{ACAD_REACTORS
330
2E
102
}
330
2E
100
AcDbPlotSettings
  1

  2
PDFill PDF&Image Writer
  4

  6

 40
0.0
 41
0.0
 42
0.0
 43
0.0
 44
0.0
 45
0.0
 46
0.0
 47
0.0
 48
0.0
 49
0.0
140
0.0
141
0.0
142
1.0
143
1.0
 70
  1712
 72
     0
 73
     0
 74
     0
  7

 75
     0
147
1.0
 76
     0
 77
     2
 78
   300
148
0.0
149
0.0
100
AcDbLayout
  1
Model
 70
     1
 71
     0
 10
0.0
 20
0.0
 11
12.0
 21
9.0
 12
0.0
 22
0.0
 32
0.0
 14
0.0
 24
0.0
 34
0.0
 15
0.0
 25
0.0
 35
0.0
146
0.0
 13
0.0
 23
0.0
 33
0.0
 16
1.0
 26
0.0
 36
0.0
 17
0.0
 27
1.0
 37
0.0
 76
     0
330
36
331
56
  0
MATERIAL
  5
12
102
{ACAD_XDICTIONARY
360
1BB5
102
}
102
{ACAD_REACTORS
330
10
102
}
330
10
100
AcDbMaterial
  1
ByBlock
  0
MATERIAL
  5
11
102
{ACAD_XDICTIONARY
360
1BB3
102
}
102
{ACAD_REACTORS
330
10
102
}
330
10
100
AcDbMaterial
  1
ByLayer
  0
MATERIAL
  5
13
102
{ACAD_XDICTIONARY
360
1BB7
102
}
102
{ACAD_REACTORS
330
10
102
}
330
10
100
AcDbMaterial
  1
Global
  0
MLINESTYLE
  5
2C
102
{ACAD_REACTORS
330
2B
102
}
330
2B
100
AcDbMlineStyle
  2
STANDARD
 70
     0
  3

 62
   256
 51
90.0
 52
90.0
 71
     2
 49
0.5
 62
   256
  6
BYLAYER
 49
-0.5
 62
   256
  6
BYLAYER
  0
ACDBPLACEHOLDER
  5
F
102
{ACAD_REACTORS
330
E
102
}
330
E
  0
TABLESTYLE
  5
31
102
{ACAD_XDICTIONARY
360
1BB9
102
}
102
{ACAD_REACTORS
330
30
102
}
330
30
100
AcDbTableStyle
  3
Standard
 70
     0
 71
     0
 40
0.06
 41
0.06
280
     0
281
     0
  7
STANDARD
140
0.18
170
     2
 62
     0
 63
     7
283
     0
274
    -2
284
     1
 64
     0
275
    -2
285
     1
 65
     0
276
    -2
286
     1
 66
     0
277
    -2
287
     1
 67
     0
278
    -2
288
     1
 68
     0
279
    -2
289
     1
 69
     0
  7
STANDARD
140
0.25
170
     5
 62
     0
 63
     7
283
     0
274
    -2
284
     1
 64
     0
275
    -2
285
     1
 65
     0
276
    -2
286
     1
 66
     0
277
    -2
287
     1
 67
     0
278
    -2
288
     1
 68
     0
279
    -2
289
     1
 69
     0
  7
STANDARD
140
0.18
170
     5
 62
     0
 63
     7
283
     0
274
    -2
284
     1
 64
     0
275
    -2
285
     1
 65
     0
276
    -2
286
     1
 66
     0
277
    -2
287
     1
 67
     0
278
    -2
288
     1
 68
     0
279
    -2
289
     1
 69
     0
  0
VISUALSTYLE
  5
1A
102
{ACAD_REACTORS
330
14
102
}
330
14
100
AcDbVisualStyle
  2
2dWireframe
 70
     4
 71
     0
 72
     2
 73
     0
 90
        0
 40
-0.6
 41
-30.0
 62
     5
 63
     7
421
 16777215
 74
     1
 91
        4
 64
     7
 65
   257
 75
     1
175
     1
 42
1.0
 92
        0
 66
   257
 43
1.0
 76
     1
 77
     6
 78
     2
 67
     7
 79
     5
170
     0
171
     0
290
     0
174
     0
 93
        1
 44
0.0
173
     0
291
     0
 45
0.0
1001
ACAD
1000
AcDbSavedByObjectVersion
1070
     0
  0
VISUALSTYLE
  5
1C
102
{ACAD_REACTORS
330
14
102
}
330
14
100
AcDbVisualStyle
  2
3D Hidden
 70
     6
 71
     1
 72
     2
 73
     2
 90
        0
 40
-0.6
 41
-30.0
 62
     5
 63
     7
421
 16777215
 74
     2
 91
        2
 64
     7
 65
   257
 75
     2
175
     1
 42
40.0
 92
        0
 66
   257
 43
1.0
 76
     1
 77
     6
 78
     2
 67
     7
 79
     3
170
     0
171
     0
290
     0
174
     0
 93
        1
 44
0.0
173
     0
291
     0
 45
0.0
1001
ACAD
1000
AcDbSavedByObjectVersion
1070
     0
  0
VISUALSTYLE
  5
1B
102
{ACAD_REACTORS
330
14
102
}
330
14
100
AcDbVisualStyle
  2
3dWireframe
 70
     5
 71
     0
 72
     2
 73
     0
 90
        0
 40
-0.6
 41
-30.0
 62
     5
 63
     7
421
 16777215
 74
     1
 91
        4
 64
     7
 65
   257
 75
     1
175
     1
 42
1.0
 92
        0
 66
   257
 43
1.0
 76
     1
 77
     6
 78
     2
 67
     7
 79
     5
170
     0
171
     0
290
     0
174
     0
 93
        1
 44
0.0
173
     0
291
     0
 45
0.0
1001
ACAD
1000
AcDbSavedByObjectVersion
1070
     0
  0
VISUALSTYLE
  5
19
102
{ACAD_REACTORS
330
14
102
}
330
14
100
AcDbVisualStyle
  2
Basic
 70
     7
 71
     1
 72
     0
 73
     1
 90
        0
 40
-0.6
 41
-30.0
 62
     5
 63
     7
421
 16777215
 74
     0
 91
        4
 64
     7
 65
   257
 75
     1
175
     1
 42
1.0
 92
        8
 66
     7
 43
1.0
 76
     1
 77
     6
 78
     2
 67
     7
 79
     5
170
     0
171
     0
290
     0
174
     0
 93
        1
 44
0.0
173
     0
291
     1
 45
0.0
1001
ACAD
1000
AcDbSavedByObjectVersion
1070
     0
  0
VISUALSTYLE
  5
20
102
{ACAD_REACTORS
330
14
102
}
330
14
100
AcDbVisualStyle
  2
Brighten
 70
    12
 71
     2
 72
     2
 73
     0
 90
        0
 40
-0.6
 41
-30.0
 62
     5
 63
     7
421
 16777215
 74
     1
 91
        4
 64
     7
 65
   257
 75
     1
175
     1
 42
1.0
 92
        8
 66
     7
 43
1.0
 76
     1
 77
     6
 78
     2
 67
     7
 79
     5
170
     0
171
     0
290
     0
174
     0
 93
        1
 44
50.0
173
     0
291
     1
 45
0.0
1001
ACAD
1000
AcDbSavedByObjectVersion
1070
     0
  0
VISUALSTYLE
  5
24
102
{ACAD_REACTORS
330
14
102
}
330
14
100
AcDbVisualStyle
  2
ColorChange
 70
    16
 71
     2
 72
     2
 73
     3
 90
        0
 40
-0.6
 41
-30.0
 62
     5
 63
     8
421
  8421504
 74
     1
 91
        4
 64
     7
 65
   257
 75
     1
175
     1
 42
1.0
 92
        8
 66
     8
424
  8421504
 43
1.0
 76
     1
 77
     6
 78
     2
 67
     7
 79
     5
170
     0
171
     0
290
     0
174
     0
 93
        1
 44
0.0
173
     0
291
     1
 45
0.0
1001
ACAD
1000
AcDbSavedByObjectVersion
1070
     0
  0
VISUALSTYLE
  5
1D
102
{ACAD_REACTORS
330
14
102
}
330
14
100
AcDbVisualStyle
  2
Conceptual
 70
     9
 71
     3
 72
     2
 73
     0
 90
        0
 40
-0.6
 41
-30.0
 62
     5
 63
     7
421
 16777215
 74
     2
 91
        2
 64
     7
 65
   257
 75
     1
175
     1
 42
40.0
 92
        8
 66
     7
 43
1.0
 76
     1
 77
     6
 78
     2
 67
     7
 79
     3
170
     0
171
     0
290
     0
174
     0
 93
        1
 44
0.0
173
     0
291
     0
 45
0.0
1001
ACAD
1000
AcDbSavedByObjectVersion
1070
     0
  0
VISUALSTYLE
  5
1F
102
{ACAD_REACTORS
330
14
102
}
330
14
100
AcDbVisualStyle
  2
Dim
 70
    11
 71
     2
 72
     2
 73
     0
 90
        0
 40
-0.6
 41
-30.0
 62
     5
 63
     7
421
 16777215
 74
     1
 91
        4
 64
     7
 65
   257
 75
     1
175
     1
 42
1.0
 92
        8
 66
     7
 43
1.0
 76
     1
 77
     6
 78
     2
 67
     7
 79
     5
170
     0
171
     0
290
     0
174
     0
 93
        1
 44
-50.0
173
     0
291
     1
 45
0.0
1001
ACAD
1000
AcDbSavedByObjectVersion
1070
     0
  0
VISUALSTYLE
  5
23
102
{ACAD_REACTORS
330
14
102
}
330
14
100
AcDbVisualStyle
  2
Facepattern
 70
    15
 71
     2
 72
     2
 73
     0
 90
        0
 40
-0.6
 41
-30.0
 62
     5
 63
     7
421
 16777215
 74
     1
 91
        4
 64
     7
 65
   257
 75
     1
175
     1
 42
1.0
 92
        8
 66
     7
 43
1.0
 76
     1
 77
     6
 78
     2
 67
     7
 79
     5
170
     0
171
     0
290
     0
174
     0
 93
        1
 44
0.0
173
     0
291
     1
 45
0.0
1001
ACAD
1000
AcDbSavedByObjectVersion
1070
     0
  0
VISUALSTYLE
  5
15
102
{ACAD_REACTORS
330
14
102
}
330
14
100
AcDbVisualStyle
  2
Flat
 70
     0
 71
     2
 72
     1
 73
     1
 90
        2
 40
-0.6
 41
30.0
 62
     5
 63
     7
421
 16777215
 74
     0
 91
        4
 64
     7
 65
   257
 75
     1
175
     1
 42
1.0
 92
        8
 66
     7
 43
1.0
 76
     1
 77
     6
 78
     2
 67
     7
 79
     5
170
     0
171
     0
290
     0
174
     0
 93
       13
 44
0.0
173
     0
291
     1
 45
0.0
1001
ACAD
1000
AcDbSavedByObjectVersion
1070
     0
  0
VISUALSTYLE
  5
16
102
{ACAD_REACTORS
330
14
102
}
330
14
100
AcDbVisualStyle
  2
FlatWithEdges
 70
     1
 71
     2
 72
     1
 73
     1
 90
        2
 40
-0.6
 41
30.0
 62
     5
 63
     7
421
 16777215
 74
     1
 91
        4
 64
     7
 65
   257
 75
     1
175
     1
 42
1.0
 92
        0
 66
   257
 43
1.0
 76
     1
 77
     6
 78
     2
 67
     7
 79
     5
170
     0
171
     0
290
     0
174
     0
 93
       13
 44
0.0
173
     0
291
     1
 45
0.0
1001
ACAD
1000
AcDbSavedByObjectVersion
1070
     0
  0
VISUALSTYLE
  5
17
102
{ACAD_REACTORS
330
14
102
}
330
14
100
AcDbVisualStyle
  2
Gouraud
 70
     2
 71
     2
 72
     2
 73
     1
 90
        2
 40
-0.6
 41
30.0
 62
     5
 63
     7
421
 16777215
 74
     0
 91
        4
 64
     7
 65
   257
 75
     1
175
     1
 42
1.0
 92
        0
 66
     7
 43
1.0
 76
     1
 77
     6
 78
     2
 67
     7
 79
     5
170
     0
171
     0
290
     0
174
     0
 93
       13
 44
0.0
173
     0
291
     1
 45
0.0
1001
ACAD
1000
AcDbSavedByObjectVersion
1070
     0
  0
VISUALSTYLE
  5
18
102
{ACAD_REACTORS
330
14
102
}
330
14
100
AcDbVisualStyle
  2
GouraudWithEdges
 70
     3
 71
     2
 72
     2
 73
     1
 90
        2
 40
-0.6
 41
30.0
 62
     5
 63
     7
421
 16777215
 74
     1
 91
        4
 64
     7
 65
   257
 75
     1
175
     1
 42
1.0
 92
        0
 66
   257
 43
1.0
 76
     1
 77
     6
 78
     2
 67
     7
 79
     5
170
     0
171
     0
290
     0
174
     0
 93
       13
 44
0.0
173
     0
291
     1
 45
0.0
1001
ACAD
1000
AcDbSavedByObjectVersion
1070
     0
  0
VISUALSTYLE
  5
22
102
{ACAD_REACTORS
330
14
102
}
330
14
100
AcDbVisualStyle
  2
Linepattern
 70
    14
 71
     2
 72
     2
 73
     0
 90
        0
 40
-0.6
 41
-30.0
 62
     5
 63
     7
421
 16777215
 74
     1
 91
        4
 64
     7
 65
   257
 75
     7
175
     7
 42
1.0
 92
        8
 66
     7
 43
1.0
 76
     1
 77
     6
 78
     2
 67
     7
 79
     5
170
     0
171
     0
290
     0
174
     0
 93
        1
 44
0.0
173
     0
291
     1
 45
0.0
1001
ACAD
1000
AcDbSavedByObjectVersion
1070
     0
  0
VISUALSTYLE
  5
1E
102
{ACAD_REACTORS
330
14
102
}
330
14
100
AcDbVisualStyle
  2
Realistic
 70
     8
 71
     2
 72
     2
 73
     0
 90
        0
 40
-0.6
 41
-30.0
 62
     5
 63
     7
421
 16777215
 74
     1
 91
        0
 64
     7
 65
   257
 75
     1
175
     1
 42
1.0
 92
        8
 66
     8
424
  7895160
 43
1.0
 76
     1
 77
     6
 78
     2
 67
     7
 79
     5
170
     0
171
     0
290
     0
174
     0
 93
       13
 44
0.0
173
     0
291
     0
 45
0.0
1001
ACAD
1000
AcDbSavedByObjectVersion
1070
     0
  0
VISUALSTYLE
  5
21
102
{ACAD_REACTORS
330
14
102
}
330
14
100
AcDbVisualStyle
  2
Thicken
 70
    13
 71
     2
 72
     2
 73
     0
 90
        0
 40
-0.6
 41
-30.0
 62
     5
 63
     7
421
 16777215
 74
     1
 91
        4
 64
     7
 65
   257
 75
     1
175
     1
 42
1.0
 92
       12
 66
     7
 43
1.0
 76
     1
 77
     6
 78
     2
 67
     7
 79
     5
170
     0
171
     0
290
     0
174
     0
 93
        1
 44
0.0
173
     0
291
     1
 45
0.0
1001
ACAD
1000
AcDbSavedByObjectVersion
1070
     0
  0
DICTIONARYVAR
  5
1BB2
102
{ACAD_REACTORS
330
1BB1
102
}
330
1BB1
100
DictionaryVariables
280
     0
  1
STANDARD
  0
DICTIONARY
  5
1BB5
330
12
100
AcDbDictionary
280
     1
281
     1
  3
ACAD_XREC_ROUNDTRIP
360
1BB6
  0
DICTIONARY
  5
1BB3
330
11
100
AcDbDictionary
280
     1
281
     1
  3
ACAD_XREC_ROUNDTRIP
360
1BB4
  0
DICTIONARY
  5
1BB7
330
13
100
AcDbDictionary
280
     1
281
     1
  3
ACAD_XREC_ROUNDTRIP
360
1BB8
  0
DICTIONARY
  5
1BB9
330
31
100
AcDbDictionary
280
     1
281
     1
  3
ACAD_XREC_ROUNDTRIP
360
1BBA
  0
XRECORD
  5
1BB6
102
{ACAD_REACTORS
330
1BB5
102
}
330
1BB5
100
AcDbXrecord
280
     1
102
MATERIAL
148
0.0
149
0.0
149
0.0
 93
        0
 94
       63
282
     0
 72
     1
 77
     1
171
     1
175
     1
179
     1
273
     0
  0
XRECORD
  5
1BB4
102
{ACAD_REACTORS
330
1BB3
102
}
330
1BB3
100
AcDbXrecord
280
     1
102
MATERIAL
148
0.0
149
0.0
149
0.0
 93
        0
 94
       63
282
     0
 72
     1
 77
     1
171
     1
175
     1
179
     1
273
     0
  0
XRECORD
  5
1BB8
102
{ACAD_REACTORS
330
1BB7
102
}
330
1BB7
100
AcDbXrecord
280
     1
102
MATERIAL
148
0.0
149
0.0
149
0.0
 93
        0
 94
       63
282
     0
 72
     1
 77
     1
171
     1
175
     1
179
     1
273
     0
  0
XRECORD
  5
1BBA
102
{ACAD_REACTORS
330
1BB9
102
}
330
1BB9
100
AcDbXrecord
280
     1
102
ACAD_ROUNDTRIP_PRE2007_TABLESTYLE
 90
      512
 91
        0
  1

 92
      512
 93
        0
  2

 94
      512
 95
        0
  3

  0
ENDSEC
  0
EOF
