999
     *******************************************
999
     BOCAD Software GmbH   Rev.18.000   0202.22
999
     Filename:   c:\progetti21\danieli_aqs\b4\temp_60\10305.dxf
999
     Creator:    bocad
999
     Date:       20.01.2016
999
     Factor:     10.000000
999
     *******************************************
  0
SECTION
  2
HEADER
  9
$DWGCODEPAGE
  3
ANSI_1252
  9
$INSBASE
 10
0.0
 20
0.0
 30
0.0
  9
$EXTMIN
 10
-0.500034
 20
-620.500488
  9
$EXTMAX
 10
14948.505859
 20
620.499649
  9
$LIMMIN
 10
-1.500034
 20
-621.500488
  9
$LIMMAX
 10
14949.505859
 20
621.499649
  9
$LTSCALE
 40
10.000000
  0
ENDSEC
  0
SECTION
  2
TABLES
  0
TABLE
  2
LTYPE
 70
4
  0
LTYPE
  2
CONTINUOUS
 70
64
  3
____________________________________________
 72
65
 73
0
 40
0.0
  0
LTYPE
  2
HIDDEN
 70
64
  3
__ __ __ __ __ __ __ __ __ __ __ __ __ __ __
 72
65
 73
2
 40
0.50
 49
0.30
 49
-0.20
  0
LTYPE
  2
DASHDOT
 70
64
  3
____ _ ____ _ ____ _ ____ _ ____ _ ____ _ __
 72
65
 73
4
 40
2.0
 49
1.5
 49
-0.25
 49
0
 49
-0.25
  0
LTYPE
  2
DOT
 70
64
  3
............................................
 72
65
 73
2
 40
0.30
 49
0
 49
-0.30
  0
ENDTAB
  0
TABLE
  2
LAYER
 70
23
  0
LAYER
  2
UNTERSCHRIFT
 70
64
 62
7
  6
CONTINUOUS
  0
LAYER
  2
TEILE
 70
64
 62
7
  6
CONTINUOUS
  0
LAYER
  2
REST
 70
64
 62
7
  6
CONTINUOUS
  0
LAYER
  2
MARKERPUNKTE
 70
64
 62
7
  6
CONTINUOUS
  0
LAYER
  2
HILFSPUNKTE
 70
64
 62
7
  6
CONTINUOUS
  0
LAYER
  2
PICKPUNKTE
 70
64
 62
7
  6
CONTINUOUS
  0
LAYER
  2
SCHRAUBEN
 70
64
 62
7
  6
CONTINUOUS
  0
LAYER
  2
SCHWEISSEN
 70
64
 62
7
  6
CONTINUOUS
  0
LAYER
  2
GRAFIK
 70
64
 62
7
  6
CONTINUOUS
  0
LAYER
  2
BEM_FREI
 70
64
 62
7
  6
CONTINUOUS
  0
LAYER
  2
BEM_SYSTEM
 70
64
 62
7
  6
CONTINUOUS
  0
LAYER
  2
BEM_KONTUR
 70
64
 62
7
  6
CONTINUOUS
  0
LAYER
  2
BEM_ANBAU
 70
64
 62
7
  6
CONTINUOUS
  0
LAYER
  2
BEM_SCHRAUBEN
 70
64
 62
7
  6
CONTINUOUS
  0
LAYER
  2
BEM_SCHWEISSEN
 70
64
 62
7
  6
CONTINUOUS
  0
LAYER
  2
FREIER_TEXT
 70
64
 62
7
  6
CONTINUOUS
  0
LAYER
  2
BEZ_TEILE
 70
64
 62
7
  6
CONTINUOUS
  0
LAYER
  2
BEZ_SCHRAUBEN
 70
64
 62
7
  6
CONTINUOUS
  0
LAYER
  2
BEZ_SCHWEISSEN
 70
64
 62
7
  6
CONTINUOUS
  0
LAYER
  2
SCHRAFFUREN
 70
64
 62
7
  6
CONTINUOUS
  0
LAYER
  2
SCHNITTSYMBOL
 70
64
 62
7
  6
CONTINUOUS
  0
LAYER
  2
RASTER
 70
64
 62
7
  6
CONTINUOUS
  0
LAYER
  2
LISTEN
 70
64
 62
7
  6
CONTINUOUS
  0
LAYER
  2
RAHMEN
 70
64
 62
7
  6
CONTINUOUS
  0
ENDTAB
  0
TABLE
  2
STYLE
 70
1
  0
STYLE
  2
STANDARD
 70
64
 40
0
 41
1
 50
0.0
 71
0
 42
0.35
  3
ROMANS
  0
ENDTAB
  0
ENDSEC
  0
SECTION
  2
ENTITIES
  0
TEXT
 8
UNTERSCHRIFT
 62
2
 10
7394.702148
 20
-618.000061
 40
3.250000
 41
0.800000
 51
15.000000
  1
Project  DP0GN9  ,Qty. 1  , Pos. 
  0
TEXT
 8
UNTERSCHRIFT
 62
2
 10
7493.501953
 20
-618.000061
 40
3.250000
 41
0.800000
 51
15.000000
  1
  , Profi l PL1240*12
  0
TEXT
 8
UNTERSCHRIFT
 62
2
 10
7480.502441
 20
-618.000061
 40
3.250000
 41
0.800000
 51
15.000000
  1
10305
  0
LINE
  8
TEILE
 62
2
 10
45.034477
 20
-620.000488
 11
44.869682
 21
-616.864624
  0
LINE
  8
TEILE
 62
2
 10
44.869682
 20
-616.864624
 11
44.378349
 21
-613.763123
  0
LINE
  8
TEILE
 62
2
 10
44.378349
 20
-613.763123
 11
43.565819
 21
-610.729919
  0
LINE
  8
TEILE
 62
2
 10
43.565819
 20
-610.729919
 11
42.440483
 21
-607.798340
  0
LINE
  8
TEILE
 62
2
 10
42.440483
 20
-607.798340
 11
41.014549
 21
-605.000488
  0
LINE
  8
TEILE
 62
2
 10
41.014549
 20
-605.000488
 11
39.304798
 21
-602.366882
  0
LINE
  8
TEILE
 62
2
 10
39.304798
 20
-602.366882
 11
37.328785
 21
-599.926514
  0
LINE
  8
TEILE
 62
2
 10
37.328785
 20
-599.926514
 11
35.107868
 21
-597.706116
  0
LINE
  8
TEILE
 62
2
 10
35.107868
 20
-597.706116
 11
32.667988
 21
-595.729919
  0
LINE
  8
TEILE
 62
2
 10
32.667988
 20
-595.729919
 11
30.034321
 21
-594.019714
  0
LINE
  8
TEILE
 62
2
 10
30.034321
 20
-594.019714
 11
27.236622
 21
-592.594116
  0
LINE
  8
TEILE
 62
2
 10
27.236622
 20
-592.594116
 11
24.304646
 21
-591.468750
  0
LINE
  8
TEILE
 62
2
 10
24.304646
 20
-591.468750
 11
21.271198
 21
-590.656006
  0
LINE
  8
TEILE
 62
2
 10
21.271198
 20
-590.656006
 11
18.169847
 21
-590.164795
  0
LINE
  8
TEILE
 62
2
 10
18.169847
 20
-590.164795
 11
15.034166
 21
-590.000427
  0
LINE
  8
TEILE
 62
2
 10
15.034166
 20
-590.000427
 11
15.026537
 21
-319.995697
  0
LINE
  8
TEILE
 62
2
 10
15.026537
 20
-319.995697
 11
21.263569
 21
-319.339935
  0
LINE
  8
TEILE
 62
2
 10
21.263569
 20
-319.339935
 11
27.228230
 21
-317.401703
  0
LINE
  8
TEILE
 62
2
 10
27.228230
 20
-317.401703
 11
32.659595
 21
-314.265747
  0
LINE
  8
TEILE
 62
2
 10
32.659595
 20
-314.265747
 11
37.320393
 21
-310.069000
  0
LINE
  8
TEILE
 62
2
 10
37.320393
 20
-310.069000
 11
41.006157
 21
-304.994965
  0
LINE
  8
TEILE
 62
2
 10
41.006157
 20
-304.994965
 11
43.557426
 21
-299.265381
  0
LINE
  8
TEILE
 62
2
 10
43.557426
 20
-299.265381
 11
44.861290
 21
-293.130676
  0
LINE
  8
TEILE
 62
2
 10
44.861290
 20
-293.130676
 11
44.861290
 21
-286.858948
  0
LINE
  8
TEILE
 62
2
 10
44.861290
 20
-286.858948
 11
43.556664
 21
-280.724335
  0
LINE
  8
TEILE
 62
2
 10
43.556664
 20
-280.724335
 11
41.005394
 21
-274.994965
  0
LINE
  8
TEILE
 62
2
 10
41.005394
 20
-274.994965
 11
37.318867
 21
-269.921112
  0
LINE
  8
TEILE
 62
2
 10
37.318867
 20
-269.921112
 11
32.658070
 21
-265.724670
  0
LINE
  8
TEILE
 62
2
 10
32.658070
 20
-265.724670
 11
27.226704
 21
-262.588989
  0
LINE
  8
TEILE
 62
2
 10
27.226704
 20
-262.588989
 11
21.262043
 21
-260.651031
  0
LINE
  8
TEILE
 62
2
 10
21.262043
 20
-260.651031
 11
15.024248
 21
-259.995667
  0
LINE
  8
TEILE
 62
2
 10
15.024248
 20
-259.995667
 11
0.024095
 21
-259.996033
  0
LINE
  8
TEILE
 62
2
 10
0.024095
 20
-259.996033
 11
-0.000034
 21
589.999634
  0
LINE
  8
TEILE
 62
2
 10
-0.000034
 20
589.999634
 11
3.135820
 21
590.163940
  0
LINE
  8
TEILE
 62
2
 10
3.135820
 20
590.163940
 11
6.237317
 21
590.655212
  0
LINE
  8
TEILE
 62
2
 10
6.237317
 20
590.655212
 11
9.270475
 21
591.467896
  0
LINE
  8
TEILE
 62
2
 10
9.270475
 20
591.467896
 11
12.202066
 21
592.593262
  0
LINE
  8
TEILE
 62
2
 10
12.202066
 20
592.593262
 11
14.999966
 21
594.018860
  0
LINE
  8
TEILE
 62
2
 10
14.999966
 20
594.018860
 11
17.633524
 21
595.729126
  0
LINE
  8
TEILE
 62
2
 10
17.633524
 20
595.729126
 11
20.073887
 21
597.705261
  0
LINE
  8
TEILE
 62
2
 10
20.073887
 20
597.705261
 11
22.294312
 21
599.925720
  0
LINE
  8
TEILE
 62
2
 10
22.294312
 20
599.925720
 11
24.270475
 21
602.366028
  0
LINE
  8
TEILE
 62
2
 10
24.270475
 20
602.366028
 11
25.980728
 21
604.999634
  0
LINE
  8
TEILE
 62
2
 10
25.980728
 20
604.999634
 11
27.406330
 21
607.797485
  0
LINE
  8
TEILE
 62
2
 10
27.406330
 20
607.797485
 11
28.531664
 21
610.729126
  0
LINE
  8
TEILE
 62
2
 10
28.531664
 20
610.729126
 11
29.344395
 21
613.762268
  0
LINE
  8
TEILE
 62
2
 10
29.344395
 20
613.762268
 11
29.835623
 21
616.863770
  0
LINE
  8
TEILE
 62
2
 10
29.835623
 20
616.863770
 11
29.999966
 21
619.999634
  0
LINE
  8
TEILE
 62
2
 10
29.999966
 20
619.999634
 11
14918.005859
 21
619.999634
  0
LINE
  8
TEILE
 62
2
 10
14918.005859
 20
619.999634
 11
14918.311523
 21
615.730225
  0
LINE
  8
TEILE
 62
2
 10
14918.311523
 20
615.730225
 11
14919.220703
 21
611.547607
  0
LINE
  8
TEILE
 62
2
 10
14919.220703
 20
611.547607
 11
14920.716797
 21
607.537170
  0
LINE
  8
TEILE
 62
2
 10
14920.716797
 20
607.537170
 11
14922.768555
 21
603.780273
  0
LINE
  8
TEILE
 62
2
 10
14922.768555
 20
603.780273
 11
14925.333008
 21
600.353760
  0
LINE
  8
TEILE
 62
2
 10
14925.333008
 20
600.353760
 11
14928.359375
 21
597.327148
  0
LINE
  8
TEILE
 62
2
 10
14928.359375
 20
597.327148
 11
14931.786133
 21
594.761963
  0
LINE
  8
TEILE
 62
2
 10
14931.786133
 20
594.761963
 11
14935.542969
 21
592.710632
  0
LINE
  8
TEILE
 62
2
 10
14935.542969
 20
592.710632
 11
14939.552734
 21
591.214844
  0
LINE
  8
TEILE
 62
2
 10
14939.552734
 20
591.214844
 11
14943.735352
 21
590.304871
  0
LINE
  8
TEILE
 62
2
 10
14943.735352
 20
590.304871
 11
14948.005859
 21
589.999512
  0
LINE
  8
TEILE
 62
2
 10
14948.005859
 20
589.999512
 11
14947.987305
 21
-259.999359
  0
LINE
  8
TEILE
 62
2
 10
14947.987305
 20
-259.999359
 11
14932.994141
 21
-259.999359
  0
LINE
  8
TEILE
 62
2
 10
14932.994141
 20
-259.999359
 11
14931.424805
 21
-260.040710
  0
LINE
  8
TEILE
 62
2
 10
14931.424805
 20
-260.040710
 11
14929.858398
 21
-260.163910
  0
LINE
  8
TEILE
 62
2
 10
14929.858398
 20
-260.163910
 11
14928.300781
 21
-260.368835
  0
LINE
  8
TEILE
 62
2
 10
14928.300781
 20
-260.368835
 11
14926.756836
 21
-260.655029
  0
LINE
  8
TEILE
 62
2
 10
14926.756836
 20
-260.655029
 11
14925.229492
 21
-261.021637
  0
LINE
  8
TEILE
 62
2
 10
14925.229492
 20
-261.021637
 11
14923.722656
 21
-261.467651
  0
LINE
  8
TEILE
 62
2
 10
14923.722656
 20
-261.467651
 11
14922.244141
 21
-261.991913
  0
LINE
  8
TEILE
 62
2
 10
14922.244141
 20
-261.991913
 11
14920.791992
 21
-262.592957
  0
LINE
  8
TEILE
 62
2
 10
14920.791992
 20
-262.592957
 11
14919.375000
 21
-263.269073
  0
LINE
  8
TEILE
 62
2
 10
14919.375000
 20
-263.269073
 11
14917.994141
 21
-264.018494
  0
LINE
  8
TEILE
 62
2
 10
14917.994141
 20
-264.018494
 11
14916.655273
 21
-264.839111
  0
LINE
  8
TEILE
 62
2
 10
14916.655273
 20
-264.839111
 11
14915.360352
 21
-265.728699
  0
LINE
  8
TEILE
 62
2
 10
14915.360352
 20
-265.728699
 11
14914.115234
 21
-266.684845
  0
LINE
  8
TEILE
 62
2
 10
14914.115234
 20
-266.684845
 11
14912.919922
 21
-267.704865
  0
LINE
  8
TEILE
 62
2
 10
14912.919922
 20
-267.704865
 11
14911.781250
 21
-268.785980
  0
LINE
  8
TEILE
 62
2
 10
14911.781250
 20
-268.785980
 11
14910.699219
 21
-269.925293
  0
LINE
  8
TEILE
 62
2
 10
14910.699219
 20
-269.925293
 11
14909.679688
 21
-271.119598
  0
LINE
  8
TEILE
 62
2
 10
14909.679688
 20
-271.119598
 11
14908.722656
 21
-272.365662
  0
LINE
  8
TEILE
 62
2
 10
14908.722656
 20
-272.365662
 11
14907.833008
 21
-273.660034
  0
LINE
  8
TEILE
 62
2
 10
14907.833008
 20
-273.660034
 11
14907.012695
 21
-274.999237
  0
LINE
  8
TEILE
 62
2
 10
14907.012695
 20
-274.999237
 11
14906.263672
 21
-276.379547
  0
LINE
  8
TEILE
 62
2
 10
14906.263672
 20
-276.379547
 11
14905.586914
 21
-277.797180
  0
LINE
  8
TEILE
 62
2
 10
14905.586914
 20
-277.797180
 11
14904.986328
 21
-279.248260
  0
LINE
  8
TEILE
 62
2
 10
14904.986328
 20
-279.248260
 11
14904.461914
 21
-280.728790
  0
LINE
  8
TEILE
 62
2
 10
14904.461914
 20
-280.728790
 11
14904.015625
 21
-282.234741
  0
LINE
  8
TEILE
 62
2
 10
14904.015625
 20
-282.234741
 11
14903.650391
 21
-283.761993
  0
LINE
  8
TEILE
 62
2
 10
14903.650391
 20
-283.761993
 11
14903.363281
 21
-285.306335
  0
LINE
  8
TEILE
 62
2
 10
14903.363281
 20
-285.306335
 11
14903.158203
 21
-286.863525
  0
LINE
  8
TEILE
 62
2
 10
14903.158203
 20
-286.863525
 11
14903.035156
 21
-288.429321
  0
LINE
  8
TEILE
 62
2
 10
14903.035156
 20
-288.429321
 11
14902.994141
 21
-289.999420
  0
LINE
  8
TEILE
 62
2
 10
14902.994141
 20
-289.999420
 11
14902.994141
 21
-289.999359
  0
LINE
  8
TEILE
 62
2
 10
14902.994141
 20
-289.999359
 11
14902.994141
 21
-289.999359
  0
LINE
  8
TEILE
 62
2
 10
14902.994141
 20
-289.999359
 11
14903.038086
 21
-291.623474
  0
LINE
  8
TEILE
 62
2
 10
14903.038086
 20
-291.623474
 11
14903.169922
 21
-293.242767
  0
LINE
  8
TEILE
 62
2
 10
14903.169922
 20
-293.242767
 11
14903.389648
 21
-294.852570
  0
LINE
  8
TEILE
 62
2
 10
14903.389648
 20
-294.852570
 11
14903.695313
 21
-296.448120
  0
LINE
  8
TEILE
 62
2
 10
14903.695313
 20
-296.448120
 11
14904.087891
 21
-298.024780
  0
LINE
  8
TEILE
 62
2
 10
14904.087891
 20
-298.024780
 11
14904.564453
 21
-299.577911
  0
LINE
  8
TEILE
 62
2
 10
14904.564453
 20
-299.577911
 11
14905.125000
 21
-301.102936
  0
LINE
  8
TEILE
 62
2
 10
14905.125000
 20
-301.102936
 11
14905.766602
 21
-302.595398
  0
LINE
  8
TEILE
 62
2
 10
14905.766602
 20
-302.595398
 11
14906.488281
 21
-304.050903
  0
LINE
  8
TEILE
 62
2
 10
14906.488281
 20
-304.050903
 11
14907.289063
 21
-305.465210
  0
LINE
  8
TEILE
 62
2
 10
14907.289063
 20
-305.465210
 11
14908.163086
 21
-306.834167
  0
LINE
  8
TEILE
 62
2
 10
14908.163086
 20
-306.834167
 11
14909.111328
 21
-308.153717
  0
LINE
  8
TEILE
 62
2
 10
14909.111328
 20
-308.153717
 11
14910.128906
 21
-309.420044
  0
LINE
  8
TEILE
 62
2
 10
14910.128906
 20
-309.420044
 11
14911.212891
 21
-310.629425
  0
LINE
  8
TEILE
 62
2
 10
14911.212891
 20
-310.629425
 11
14912.362305
 21
-311.778290
  0
LINE
  8
TEILE
 62
2
 10
14912.362305
 20
-311.778290
 11
14913.572266
 21
-312.863281
  0
LINE
  8
TEILE
 62
2
 10
14913.572266
 20
-312.863281
 11
14914.837891
 21
-313.881195
  0
LINE
  8
TEILE
 62
2
 10
14914.837891
 20
-313.881195
 11
14916.157227
 21
-314.829071
  0
LINE
  8
TEILE
 62
2
 10
14916.157227
 20
-314.829071
 11
14917.527344
 21
-315.704163
  0
LINE
  8
TEILE
 62
2
 10
14917.527344
 20
-315.704163
 11
14918.940430
 21
-316.503845
  0
LINE
  8
TEILE
 62
2
 10
14918.940430
 20
-316.503845
 11
14920.396484
 21
-317.225769
  0
LINE
  8
TEILE
 62
2
 10
14920.396484
 20
-317.225769
 11
14921.888672
 21
-317.867859
  0
LINE
  8
TEILE
 62
2
 10
14921.888672
 20
-317.867859
 11
14923.413086
 21
-318.428223
  0
LINE
  8
TEILE
 62
2
 10
14923.413086
 20
-318.428223
 11
14924.966797
 21
-318.905182
  0
LINE
  8
TEILE
 62
2
 10
14924.966797
 20
-318.905182
 11
14926.542969
 21
-319.297394
  0
LINE
  8
TEILE
 62
2
 10
14926.542969
 20
-319.297394
 11
14928.138672
 21
-319.603668
  0
LINE
  8
TEILE
 62
2
 10
14928.138672
 20
-319.603668
 11
14929.748047
 21
-319.823120
  0
LINE
  8
TEILE
 62
2
 10
14929.748047
 20
-319.823120
 11
14931.368164
 21
-319.955109
  0
LINE
  8
TEILE
 62
2
 10
14931.368164
 20
-319.955109
 11
14932.992188
 21
-319.999207
  0
LINE
  8
TEILE
 62
2
 10
14932.992188
 20
-319.999207
 11
14932.992188
 21
-319.999359
  0
LINE
  8
TEILE
 62
2
 10
14932.992188
 20
-319.999359
 11
14932.972656
 21
-590.000427
  0
LINE
  8
TEILE
 62
2
 10
14932.972656
 20
-590.000427
 11
14929.835938
 21
-590.164734
  0
LINE
  8
TEILE
 62
2
 10
14929.835938
 20
-590.164734
 11
14926.734375
 21
-590.655884
  0
LINE
  8
TEILE
 62
2
 10
14926.734375
 20
-590.655884
 11
14923.701172
 21
-591.468506
  0
LINE
  8
TEILE
 62
2
 10
14923.701172
 20
-591.468506
 11
14920.770508
 21
-592.593750
  0
LINE
  8
TEILE
 62
2
 10
14920.770508
 20
-592.593750
 11
14917.970703
 21
-594.019287
  0
LINE
  8
TEILE
 62
2
 10
14917.970703
 20
-594.019287
 11
14915.336914
 21
-595.729431
  0
LINE
  8
TEILE
 62
2
 10
14915.336914
 20
-595.729431
 11
14912.898438
 21
-597.705505
  0
LINE
  8
TEILE
 62
2
 10
14912.898438
 20
-597.705505
 11
14910.677734
 21
-599.925903
  0
LINE
  8
TEILE
 62
2
 10
14910.677734
 20
-599.925903
 11
14908.701172
 21
-602.366211
  0
LINE
  8
TEILE
 62
2
 10
14908.701172
 20
-602.366211
 11
14906.991211
 21
-604.999695
  0
LINE
  8
TEILE
 62
2
 10
14906.991211
 20
-604.999695
 11
14905.565430
 21
-607.797607
  0
LINE
  8
TEILE
 62
2
 10
14905.565430
 20
-607.797607
 11
14904.439453
 21
-610.729126
  0
LINE
  8
TEILE
 62
2
 10
14904.439453
 20
-610.729126
 11
14903.626953
 21
-613.762268
  0
LINE
  8
TEILE
 62
2
 10
14903.626953
 20
-613.762268
 11
14903.134766
 21
-616.863770
  0
LINE
  8
TEILE
 62
2
 10
14903.134766
 20
-616.863770
 11
14902.969727
 21
-619.999634
  0
LINE
  8
TEILE
 62
2
 10
14902.969727
 20
-619.999634
 11
45.034477
 21
-620.000488
  0
ENDSEC
  0
EOF

