999
     *******************************************
999
     BOCAD Software GmbH   Rev.18.000   0202.22
999
     Filename:   c:\progetti21\danieli_aqs\b4\temp_60\10308.dxf
999
     Creator:    bocad
999
     Date:       20.01.2016
999
     Factor:     10.000000
999
     *******************************************
  0
SECTION
  2
HEADER
  9
$DWGCODEPAGE
  3
ANSI_1252
  9
$INSBASE
 10
0.0
 20
0.0
 30
0.0
  9
$EXTMIN
 10
-0.500000
 20
-437.647285
  9
$EXTMAX
 10
400.499992
 20
437.647285
  9
$LIMMIN
 10
-1.500000
 20
-438.647285
  9
$LIMMAX
 10
401.499992
 20
438.647285
  9
$LTSCALE
 40
10.000000
  0
ENDSEC
  0
SECTION
  2
TABLES
  0
TABLE
  2
LTYPE
 70
4
  0
LTYPE
  2
CONTINUOUS
 70
64
  3
____________________________________________
 72
65
 73
0
 40
0.0
  0
LTYPE
  2
HIDDEN
 70
64
  3
__ __ __ __ __ __ __ __ __ __ __ __ __ __ __
 72
65
 73
2
 40
0.50
 49
0.30
 49
-0.20
  0
LTYPE
  2
DASHDOT
 70
64
  3
____ _ ____ _ ____ _ ____ _ ____ _ ____ _ __
 72
65
 73
4
 40
2.0
 49
1.5
 49
-0.25
 49
0
 49
-0.25
  0
LTYPE
  2
DOT
 70
64
  3
............................................
 72
65
 73
2
 40
0.30
 49
0
 49
-0.30
  0
ENDTAB
  0
TABLE
  2
LAYER
 70
23
  0
LAYER
  2
SCHRAUBEN
 70
64
 62
7
  6
CONTINUOUS
  0
LAYER
  2
REST
 70
64
 62
7
  6
CONTINUOUS
  0
LAYER
  2
BEM_FREI
 70
64
 62
7
  6
CONTINUOUS
  0
LAYER
  2
UNTERSCHRIFT
 70
64
 62
7
  6
CONTINUOUS
  0
LAYER
  2
TEILE
 70
64
 62
7
  6
CONTINUOUS
  0
LAYER
  2
BEZ_SCHRAUBEN
 70
64
 62
7
  6
CONTINUOUS
  0
LAYER
  2
MARKERPUNKTE
 70
64
 62
7
  6
CONTINUOUS
  0
LAYER
  2
HILFSPUNKTE
 70
64
 62
7
  6
CONTINUOUS
  0
LAYER
  2
PICKPUNKTE
 70
64
 62
7
  6
CONTINUOUS
  0
LAYER
  2
SCHWEISSEN
 70
64
 62
7
  6
CONTINUOUS
  0
LAYER
  2
GRAFIK
 70
64
 62
7
  6
CONTINUOUS
  0
LAYER
  2
BEM_SYSTEM
 70
64
 62
7
  6
CONTINUOUS
  0
LAYER
  2
BEM_KONTUR
 70
64
 62
7
  6
CONTINUOUS
  0
LAYER
  2
BEM_ANBAU
 70
64
 62
7
  6
CONTINUOUS
  0
LAYER
  2
BEM_SCHRAUBEN
 70
64
 62
7
  6
CONTINUOUS
  0
LAYER
  2
BEM_SCHWEISSEN
 70
64
 62
7
  6
CONTINUOUS
  0
LAYER
  2
FREIER_TEXT
 70
64
 62
7
  6
CONTINUOUS
  0
LAYER
  2
BEZ_TEILE
 70
64
 62
7
  6
CONTINUOUS
  0
LAYER
  2
BEZ_SCHWEISSEN
 70
64
 62
7
  6
CONTINUOUS
  0
LAYER
  2
SCHRAFFUREN
 70
64
 62
7
  6
CONTINUOUS
  0
LAYER
  2
SCHNITTSYMBOL
 70
64
 62
7
  6
CONTINUOUS
  0
LAYER
  2
RASTER
 70
64
 62
7
  6
CONTINUOUS
  0
LAYER
  2
LISTEN
 70
64
 62
7
  6
CONTINUOUS
  0
LAYER
  2
RAHMEN
 70
64
 62
7
  6
CONTINUOUS
  0
ENDTAB
  0
TABLE
  2
STYLE
 70
1
  0
STYLE
  2
STANDARD
 70
64
 40
0
 41
1
 50
0.0
 71
0
 42
0.35
  3
ROMANS
  0
ENDTAB
  0
ENDSEC
  0
SECTION
  2
ENTITIES
  0
LINE
  8
SCHRAUBEN
 62
6
 10
70.199997
 20
-372.947021
 11
59.799999
 21
-383.347015
  0
LINE
  8
SCHRAUBEN
 62
6
 10
59.799999
 20
-372.947021
 11
70.199997
 21
-383.347015
  0
CIRCLE
  8
SCHRAUBEN
 62
2
 10
65.000000
 20
-378.147003
 40
13.000000
  0
LINE
  8
SCHRAUBEN
 62
6
 10
340.200012
 20
-372.947021
 11
329.799988
 21
-383.347015
  0
LINE
  8
SCHRAUBEN
 62
6
 10
329.799988
 20
-372.947021
 11
340.200012
 21
-383.347015
  0
CIRCLE
  8
SCHRAUBEN
 62
2
 10
335.000000
 20
-378.147003
 40
13.000000
  0
LINE
  8
BEM_FREI
 62
2
  6
DASHDOT
 10
20.000000
 20
-82.147110
 11
380.000000
 21
-82.147110
  0
TEXT
 8
BEM_FREI
 62
2
 10
21.500000
 20
-80.147110
 40
5.000000
 41
0.800000
 51
15.000000
  1
Angle=45º
  0
TEXT
 8
UNTERSCHRIFT
 62
2
 10
122.000000
 20
-435.147278
 40
3.250000
 41
0.800000
 51
15.000000
  1
Project  DP0GN9  ,Qty. 1  , Pos. 
  0
TEXT
 8
UNTERSCHRIFT
 62
2
 10
220.799988
 20
-435.147278
 40
3.250000
 41
0.800000
 51
15.000000
  1
  , Profi l PB874*15
  0
TEXT
 8
UNTERSCHRIFT
 62
2
 10
207.799988
 20
-435.147278
 40
3.250000
 41
0.800000
 51
15.000000
  1
10308
  0
LINE
  8
TEILE
 62
2
 10
0.000000
 20
-437.147278
 11
0.000000
 21
-82.147110
  0
LINE
  8
TEILE
 62
2
 10
0.000000
 20
-82.147110
 11
0.000000
 21
437.147278
  0
LINE
  8
TEILE
 62
2
 10
0.000000
 20
437.147278
 11
400.000000
 21
437.147278
  0
LINE
  8
TEILE
 62
2
 10
400.000000
 20
437.147278
 11
400.000000
 21
-82.147110
  0
LINE
  8
TEILE
 62
2
 10
400.000000
 20
-82.147110
 11
400.000000
 21
-437.147278
  0
LINE
  8
TEILE
 62
2
 10
400.000000
 20
-437.147278
 11
0.000000
 21
-437.147278
  0
TEXT
 8
BEZ_SCHRAUBEN
 62
2
 10
57.000000
 20
-398.647003
 40
5.000000
 41
0.800000
 51
15.000000
  1
 ø26
  0
ENDSEC
  0
EOF

