999
     *******************************************
999
     BOCAD Software GmbH   Rev.18.000   0202.22
999
     Filename:   c:\progetti21\danieli_aqs\b4\temp_60\10324.dxf
999
     Creator:    bocad
999
     Date:       20.01.2016
999
     Factor:     10.000000
999
     *******************************************
  0
SECTION
  2
HEADER
  9
$DWGCODEPAGE
  3
ANSI_1252
  9
$INSBASE
 10
0.0
 20
0.0
 30
0.0
  9
$EXTMIN
 10
-0.500384
 20
-200.499992
  9
$EXTMAX
 10
11918.500977
 20
200.499992
  9
$LIMMIN
 10
-1.500384
 20
-201.499992
  9
$LIMMAX
 10
11919.500977
 20
201.499992
  9
$LTSCALE
 40
10.000000
  0
ENDSEC
  0
SECTION
  2
TABLES
  0
TABLE
  2
LTYPE
 70
4
  0
LTYPE
  2
CONTINUOUS
 70
64
  3
____________________________________________
 72
65
 73
0
 40
0.0
  0
LTYPE
  2
HIDDEN
 70
64
  3
__ __ __ __ __ __ __ __ __ __ __ __ __ __ __
 72
65
 73
2
 40
0.50
 49
0.30
 49
-0.20
  0
LTYPE
  2
DASHDOT
 70
64
  3
____ _ ____ _ ____ _ ____ _ ____ _ ____ _ __
 72
65
 73
4
 40
2.0
 49
1.5
 49
-0.25
 49
0
 49
-0.25
  0
LTYPE
  2
DOT
 70
64
  3
............................................
 72
65
 73
2
 40
0.30
 49
0
 49
-0.30
  0
ENDTAB
  0
TABLE
  2
LAYER
 70
23
  0
LAYER
  2
SCHRAUBEN
 70
64
 62
7
  6
CONTINUOUS
  0
LAYER
  2
REST
 70
64
 62
7
  6
CONTINUOUS
  0
LAYER
  2
UNTERSCHRIFT
 70
64
 62
7
  6
CONTINUOUS
  0
LAYER
  2
TEILE
 70
64
 62
7
  6
CONTINUOUS
  0
LAYER
  2
BEZ_SCHRAUBEN
 70
64
 62
7
  6
CONTINUOUS
  0
LAYER
  2
MARKERPUNKTE
 70
64
 62
7
  6
CONTINUOUS
  0
LAYER
  2
HILFSPUNKTE
 70
64
 62
7
  6
CONTINUOUS
  0
LAYER
  2
PICKPUNKTE
 70
64
 62
7
  6
CONTINUOUS
  0
LAYER
  2
SCHWEISSEN
 70
64
 62
7
  6
CONTINUOUS
  0
LAYER
  2
GRAFIK
 70
64
 62
7
  6
CONTINUOUS
  0
LAYER
  2
BEM_FREI
 70
64
 62
7
  6
CONTINUOUS
  0
LAYER
  2
BEM_SYSTEM
 70
64
 62
7
  6
CONTINUOUS
  0
LAYER
  2
BEM_KONTUR
 70
64
 62
7
  6
CONTINUOUS
  0
LAYER
  2
BEM_ANBAU
 70
64
 62
7
  6
CONTINUOUS
  0
LAYER
  2
BEM_SCHRAUBEN
 70
64
 62
7
  6
CONTINUOUS
  0
LAYER
  2
BEM_SCHWEISSEN
 70
64
 62
7
  6
CONTINUOUS
  0
LAYER
  2
FREIER_TEXT
 70
64
 62
7
  6
CONTINUOUS
  0
LAYER
  2
BEZ_TEILE
 70
64
 62
7
  6
CONTINUOUS
  0
LAYER
  2
BEZ_SCHWEISSEN
 70
64
 62
7
  6
CONTINUOUS
  0
LAYER
  2
SCHRAFFUREN
 70
64
 62
7
  6
CONTINUOUS
  0
LAYER
  2
SCHNITTSYMBOL
 70
64
 62
7
  6
CONTINUOUS
  0
LAYER
  2
RASTER
 70
64
 62
7
  6
CONTINUOUS
  0
LAYER
  2
LISTEN
 70
64
 62
7
  6
CONTINUOUS
  0
LAYER
  2
RAHMEN
 70
64
 62
7
  6
CONTINUOUS
  0
ENDTAB
  0
TABLE
  2
STYLE
 70
1
  0
STYLE
  2
STANDARD
 70
64
 40
0
 41
1
 50
0.0
 71
0
 42
0.35
  3
ROMANS
  0
ENDTAB
  0
ENDSEC
  0
SECTION
  2
ENTITIES
  0
LINE
  8
SCHRAUBEN
 62
6
 10
1463.399902
 20
-95.600067
 11
1454.599854
 21
-104.400063
  0
LINE
  8
SCHRAUBEN
 62
6
 10
1454.599854
 20
-95.600067
 11
1463.399902
 21
-104.400063
  0
CIRCLE
  8
SCHRAUBEN
 62
4
 10
1459.000000
 20
-100.000069
 40
11.000000
  0
LINE
  8
SCHRAUBEN
 62
6
 10
1463.399902
 20
104.399933
 11
1454.599854
 21
95.599937
  0
LINE
  8
SCHRAUBEN
 62
6
 10
1454.599854
 20
104.399933
 11
1463.399902
 21
95.599937
  0
CIRCLE
  8
SCHRAUBEN
 62
4
 10
1459.000000
 20
99.999931
 40
11.000000
  0
LINE
  8
SCHRAUBEN
 62
6
 10
4463.399902
 20
-95.600067
 11
4454.600098
 21
-104.400063
  0
LINE
  8
SCHRAUBEN
 62
6
 10
4454.600098
 20
-95.600067
 11
4463.399902
 21
-104.400063
  0
CIRCLE
  8
SCHRAUBEN
 62
4
 10
4459.000000
 20
-100.000069
 40
11.000000
  0
LINE
  8
SCHRAUBEN
 62
6
 10
4463.399902
 20
104.399933
 11
4454.600098
 21
95.599937
  0
LINE
  8
SCHRAUBEN
 62
6
 10
4454.600098
 20
104.399933
 11
4463.399902
 21
95.599937
  0
CIRCLE
  8
SCHRAUBEN
 62
4
 10
4459.000000
 20
99.999931
 40
11.000000
  0
LINE
  8
SCHRAUBEN
 62
6
 10
7463.400391
 20
-95.600067
 11
7454.600098
 21
-104.400063
  0
LINE
  8
SCHRAUBEN
 62
6
 10
7454.600098
 20
-95.600067
 11
7463.400391
 21
-104.400063
  0
CIRCLE
  8
SCHRAUBEN
 62
4
 10
7459.000000
 20
-100.000069
 40
11.000000
  0
LINE
  8
SCHRAUBEN
 62
6
 10
7463.400391
 20
104.399933
 11
7454.600098
 21
95.599937
  0
LINE
  8
SCHRAUBEN
 62
6
 10
7454.600098
 20
104.399933
 11
7463.400391
 21
95.599937
  0
CIRCLE
  8
SCHRAUBEN
 62
4
 10
7459.000000
 20
99.999931
 40
11.000000
  0
LINE
  8
SCHRAUBEN
 62
6
 10
10463.399414
 20
104.399933
 11
10454.600586
 21
95.599937
  0
LINE
  8
SCHRAUBEN
 62
6
 10
10454.600586
 20
104.399933
 11
10463.399414
 21
95.599937
  0
CIRCLE
  8
SCHRAUBEN
 62
4
 10
10459.000000
 20
99.999931
 40
11.000000
  0
LINE
  8
SCHRAUBEN
 62
6
 10
10463.399414
 20
-95.600067
 11
10454.600586
 21
-104.400063
  0
LINE
  8
SCHRAUBEN
 62
6
 10
10454.600586
 20
-95.600067
 11
10463.399414
 21
-104.400063
  0
CIRCLE
  8
SCHRAUBEN
 62
4
 10
10459.000000
 20
-100.000069
 40
11.000000
  0
ARC
  8
SCHRAUBEN
 62
4
 10
11854.014648
 20
135.000000
 40
13.000000
 50
450.000000
 51
270.000000
  0
LINE
  8
SCHRAUBEN
 62
4
 10
11854.014648
 20
122.000000
 11
11864.014648
 21
122.000000
  0
ARC
  8
SCHRAUBEN
 62
4
 10
11864.014648
 20
135.000000
 40
13.000000
 50
270.000000
 51
450.000000
  0
LINE
  8
SCHRAUBEN
 62
4
 10
11864.014648
 20
148.000000
 11
11854.014648
 21
148.000000
  0
LINE
  8
SCHRAUBEN
 62
6
 10
11859.214844
 20
140.200012
 11
11848.814453
 21
129.799988
  0
LINE
  8
SCHRAUBEN
 62
6
 10
11848.814453
 20
140.200012
 11
11859.214844
 21
129.799988
  0
LINE
  8
SCHRAUBEN
 62
6
 10
11869.214844
 20
140.200012
 11
11858.814453
 21
129.799988
  0
LINE
  8
SCHRAUBEN
 62
6
 10
11858.814453
 20
140.200012
 11
11869.214844
 21
129.799988
  0
ARC
  8
SCHRAUBEN
 62
4
 10
11854.014648
 20
-135.000015
 40
13.000008
 50
450.000000
 51
270.000000
  0
LINE
  8
SCHRAUBEN
 62
4
 10
11854.014648
 20
-148.000015
 11
11864.014648
 21
-148.000015
  0
ARC
  8
SCHRAUBEN
 62
4
 10
11864.014648
 20
-135.000015
 40
13.000000
 50
270.000000
 51
450.000000
  0
LINE
  8
SCHRAUBEN
 62
4
 10
11864.014648
 20
-122.000008
 11
11854.014648
 21
-122.000008
  0
LINE
  8
SCHRAUBEN
 62
6
 10
11859.214844
 20
-129.800003
 11
11848.814453
 21
-140.200012
  0
LINE
  8
SCHRAUBEN
 62
6
 10
11848.814453
 20
-129.800003
 11
11859.214844
 21
-140.200012
  0
LINE
  8
SCHRAUBEN
 62
6
 10
11869.214844
 20
-129.800003
 11
11858.814453
 21
-140.200012
  0
LINE
  8
SCHRAUBEN
 62
6
 10
11858.814453
 20
-129.800003
 11
11869.214844
 21
-140.200012
  0
TEXT
 8
UNTERSCHRIFT
 62
2
 10
5881.000000
 20
-198.000000
 40
3.250000
 41
0.800000
 51
15.000000
  1
Project  DP0GN9  ,Qty. 1  , Pos. 
  0
TEXT
 8
UNTERSCHRIFT
 62
2
 10
5979.799805
 20
-198.000000
 40
3.250000
 41
0.800000
 51
15.000000
  1
  , Profi l PL400*15
  0
TEXT
 8
UNTERSCHRIFT
 62
2
 10
5966.799805
 20
-198.000000
 40
3.250000
 41
0.800000
 51
15.000000
  1
10324
  0
LINE
  8
TEILE
 62
2
 10
-0.000384
 20
-200.000000
 11
-0.000384
 21
200.000000
  0
LINE
  8
TEILE
 62
2
 10
-0.000384
 20
200.000000
 11
11918.000000
 21
200.000000
  0
LINE
  8
TEILE
 62
2
 10
11918.000000
 20
200.000000
 11
11918.000000
 21
-200.000000
  0
LINE
  8
TEILE
 62
2
 10
11918.000000
 20
-200.000000
 11
-0.000384
 21
-200.000000
  0
TEXT
 8
BEZ_SCHRAUBEN
 62
2
 10
1450.999878
 20
-118.500069
 40
5.000000
 41
0.800000
 51
15.000000
  1
 ø22
  0
TEXT
 8
BEZ_SCHRAUBEN
 62
2
 10
1450.999878
 20
81.499931
 40
5.000000
 41
0.800000
 51
15.000000
  1
 ø22
  0
TEXT
 8
BEZ_SCHRAUBEN
 62
2
 10
4451.000000
 20
-118.500069
 40
5.000000
 41
0.800000
 51
15.000000
  1
 ø22
  0
TEXT
 8
BEZ_SCHRAUBEN
 62
2
 10
4451.000000
 20
81.499931
 40
5.000000
 41
0.800000
 51
15.000000
  1
 ø22
  0
TEXT
 8
BEZ_SCHRAUBEN
 62
2
 10
7451.000488
 20
-118.500069
 40
5.000000
 41
0.800000
 51
15.000000
  1
 ø22
  0
TEXT
 8
BEZ_SCHRAUBEN
 62
2
 10
7451.000488
 20
81.499931
 40
5.000000
 41
0.800000
 51
15.000000
  1
 ø22
  0
TEXT
 8
BEZ_SCHRAUBEN
 62
2
 10
10451.000000
 20
81.499931
 40
5.000000
 41
0.800000
 51
15.000000
  1
 ø22
  0
TEXT
 8
BEZ_SCHRAUBEN
 62
2
 10
10451.000000
 20
-118.500069
 40
5.000000
 41
0.800000
 51
15.000000
  1
 ø22
  0
TEXT
 8
BEZ_SCHRAUBEN
 62
2
 10
11846.013672
 20
114.500000
 40
5.000000
 41
0.800000
 51
15.000000
  1
 ø26
  0
TEXT
 8
BEZ_SCHRAUBEN
 62
2
 10
11846.013672
 20
-155.500000
 40
5.000000
 41
0.800000
 51
15.000000
  1
 ø26
  0
ENDSEC
  0
EOF

