999
     *******************************************
999
     BOCAD Software GmbH   Rev.18.000   0202.22
999
     Filename:   c:\progetti21\danieli_aqs\b4\temp_60\10329.dxf
999
     Creator:    bocad
999
     Date:       20.01.2016
999
     Factor:     10.000000
999
     *******************************************
  0
SECTION
  2
HEADER
  9
$DWGCODEPAGE
  3
ANSI_1252
  9
$INSBASE
 10
0.0
 20
0.0
 30
0.0
  9
$EXTMIN
 10
-0.500000
 20
-200.500736
  9
$EXTMAX
 10
1070.499649
 20
200.500736
  9
$LIMMIN
 10
-1.500000
 20
-201.500736
  9
$LIMMAX
 10
1071.499649
 20
201.500736
  9
$LTSCALE
 40
10.000000
  0
ENDSEC
  0
SECTION
  2
TABLES
  0
TABLE
  2
LTYPE
 70
4
  0
LTYPE
  2
CONTINUOUS
 70
64
  3
____________________________________________
 72
65
 73
0
 40
0.0
  0
LTYPE
  2
HIDDEN
 70
64
  3
__ __ __ __ __ __ __ __ __ __ __ __ __ __ __
 72
65
 73
2
 40
0.50
 49
0.30
 49
-0.20
  0
LTYPE
  2
DASHDOT
 70
64
  3
____ _ ____ _ ____ _ ____ _ ____ _ ____ _ __
 72
65
 73
4
 40
2.0
 49
1.5
 49
-0.25
 49
0
 49
-0.25
  0
LTYPE
  2
DOT
 70
64
  3
............................................
 72
65
 73
2
 40
0.30
 49
0
 49
-0.30
  0
ENDTAB
  0
TABLE
  2
LAYER
 70
23
  0
LAYER
  2
SCHRAUBEN
 70
64
 62
7
  6
CONTINUOUS
  0
LAYER
  2
REST
 70
64
 62
7
  6
CONTINUOUS
  0
LAYER
  2
UNTERSCHRIFT
 70
64
 62
7
  6
CONTINUOUS
  0
LAYER
  2
TEILE
 70
64
 62
7
  6
CONTINUOUS
  0
LAYER
  2
BEZ_SCHRAUBEN
 70
64
 62
7
  6
CONTINUOUS
  0
LAYER
  2
MARKERPUNKTE
 70
64
 62
7
  6
CONTINUOUS
  0
LAYER
  2
HILFSPUNKTE
 70
64
 62
7
  6
CONTINUOUS
  0
LAYER
  2
PICKPUNKTE
 70
64
 62
7
  6
CONTINUOUS
  0
LAYER
  2
SCHWEISSEN
 70
64
 62
7
  6
CONTINUOUS
  0
LAYER
  2
GRAFIK
 70
64
 62
7
  6
CONTINUOUS
  0
LAYER
  2
BEM_FREI
 70
64
 62
7
  6
CONTINUOUS
  0
LAYER
  2
BEM_SYSTEM
 70
64
 62
7
  6
CONTINUOUS
  0
LAYER
  2
BEM_KONTUR
 70
64
 62
7
  6
CONTINUOUS
  0
LAYER
  2
BEM_ANBAU
 70
64
 62
7
  6
CONTINUOUS
  0
LAYER
  2
BEM_SCHRAUBEN
 70
64
 62
7
  6
CONTINUOUS
  0
LAYER
  2
BEM_SCHWEISSEN
 70
64
 62
7
  6
CONTINUOUS
  0
LAYER
  2
FREIER_TEXT
 70
64
 62
7
  6
CONTINUOUS
  0
LAYER
  2
BEZ_TEILE
 70
64
 62
7
  6
CONTINUOUS
  0
LAYER
  2
BEZ_SCHWEISSEN
 70
64
 62
7
  6
CONTINUOUS
  0
LAYER
  2
SCHRAFFUREN
 70
64
 62
7
  6
CONTINUOUS
  0
LAYER
  2
SCHNITTSYMBOL
 70
64
 62
7
  6
CONTINUOUS
  0
LAYER
  2
RASTER
 70
64
 62
7
  6
CONTINUOUS
  0
LAYER
  2
LISTEN
 70
64
 62
7
  6
CONTINUOUS
  0
LAYER
  2
RAHMEN
 70
64
 62
7
  6
CONTINUOUS
  0
ENDTAB
  0
TABLE
  2
STYLE
 70
1
  0
STYLE
  2
STANDARD
 70
64
 40
0
 41
1
 50
0.0
 71
0
 42
0.35
  3
ROMANS
  0
ENDTAB
  0
ENDSEC
  0
SECTION
  2
ENTITIES
  0
LINE
  8
SCHRAUBEN
 62
6
 10
91.800171
 20
145.797958
 11
80.200180
 21
134.197968
  0
LINE
  8
SCHRAUBEN
 62
6
 10
80.200180
 20
145.797958
 11
91.800171
 21
134.197968
  0
CIRCLE
  8
SCHRAUBEN
 62
2
 10
86.000175
 20
139.997955
 40
14.500000
  0
LINE
  8
SCHRAUBEN
 62
6
 10
91.800171
 20
70.797958
 11
80.200180
 21
59.197960
  0
LINE
  8
SCHRAUBEN
 62
6
 10
80.200180
 20
70.797958
 11
91.800171
 21
59.197960
  0
CIRCLE
  8
SCHRAUBEN
 62
2
 10
86.000175
 20
64.997955
 40
14.500000
  0
LINE
  8
SCHRAUBEN
 62
6
 10
91.800171
 20
-59.203552
 11
80.200180
 21
-70.803551
  0
LINE
  8
SCHRAUBEN
 62
6
 10
80.200180
 20
-59.203552
 11
91.800171
 21
-70.803551
  0
CIRCLE
  8
SCHRAUBEN
 62
2
 10
86.000175
 20
-65.003555
 40
14.500000
  0
LINE
  8
SCHRAUBEN
 62
6
 10
91.800171
 20
-134.203552
 11
80.200180
 21
-145.803558
  0
LINE
  8
SCHRAUBEN
 62
6
 10
80.200180
 20
-134.203552
 11
91.800171
 21
-145.803558
  0
CIRCLE
  8
SCHRAUBEN
 62
2
 10
86.000175
 20
-140.003555
 40
14.500000
  0
LINE
  8
SCHRAUBEN
 62
6
 10
219.800171
 20
145.797958
 11
208.200165
 21
134.197968
  0
LINE
  8
SCHRAUBEN
 62
6
 10
208.200165
 20
145.797958
 11
219.800171
 21
134.197968
  0
CIRCLE
  8
SCHRAUBEN
 62
2
 10
214.000168
 20
139.997955
 40
14.500015
  0
LINE
  8
SCHRAUBEN
 62
6
 10
219.800171
 20
70.797958
 11
208.200165
 21
59.197960
  0
LINE
  8
SCHRAUBEN
 62
6
 10
208.200165
 20
70.797958
 11
219.800171
 21
59.197960
  0
CIRCLE
  8
SCHRAUBEN
 62
2
 10
214.000168
 20
64.997955
 40
14.500015
  0
LINE
  8
SCHRAUBEN
 62
6
 10
219.800171
 20
-59.203552
 11
208.200165
 21
-70.803551
  0
LINE
  8
SCHRAUBEN
 62
6
 10
208.200165
 20
-59.203552
 11
219.800171
 21
-70.803551
  0
CIRCLE
  8
SCHRAUBEN
 62
2
 10
214.000168
 20
-65.003555
 40
14.500015
  0
LINE
  8
SCHRAUBEN
 62
6
 10
219.800171
 20
-134.203552
 11
208.200165
 21
-145.803558
  0
LINE
  8
SCHRAUBEN
 62
6
 10
208.200165
 20
-134.203552
 11
219.800171
 21
-145.803558
  0
CIRCLE
  8
SCHRAUBEN
 62
2
 10
214.000168
 20
-140.003555
 40
14.500015
  0
LINE
  8
SCHRAUBEN
 62
6
 10
303.800171
 20
-134.203552
 11
292.200195
 21
-145.803558
  0
LINE
  8
SCHRAUBEN
 62
6
 10
292.200195
 20
-134.203552
 11
303.800171
 21
-145.803558
  0
CIRCLE
  8
SCHRAUBEN
 62
2
 10
298.000183
 20
-140.003555
 40
14.500000
  0
LINE
  8
SCHRAUBEN
 62
6
 10
303.800171
 20
-59.203552
 11
292.200195
 21
-70.803551
  0
LINE
  8
SCHRAUBEN
 62
6
 10
292.200195
 20
-59.203552
 11
303.800171
 21
-70.803551
  0
CIRCLE
  8
SCHRAUBEN
 62
2
 10
298.000183
 20
-65.003555
 40
14.500000
  0
LINE
  8
SCHRAUBEN
 62
6
 10
431.800201
 20
-59.203552
 11
420.200165
 21
-70.803551
  0
LINE
  8
SCHRAUBEN
 62
6
 10
420.200165
 20
-59.203552
 11
431.800201
 21
-70.803551
  0
CIRCLE
  8
SCHRAUBEN
 62
2
 10
426.000183
 20
-65.003555
 40
14.500000
  0
LINE
  8
SCHRAUBEN
 62
6
 10
431.800201
 20
-134.203552
 11
420.200165
 21
-145.803558
  0
LINE
  8
SCHRAUBEN
 62
6
 10
420.200165
 20
-134.203552
 11
431.800201
 21
-145.803558
  0
CIRCLE
  8
SCHRAUBEN
 62
2
 10
426.000183
 20
-140.003555
 40
14.500000
  0
LINE
  8
SCHRAUBEN
 62
6
 10
559.800171
 20
-134.203552
 11
548.200134
 21
-145.803558
  0
LINE
  8
SCHRAUBEN
 62
6
 10
548.200134
 20
-134.203552
 11
559.800171
 21
-145.803558
  0
CIRCLE
  8
SCHRAUBEN
 62
2
 10
554.000183
 20
-140.003555
 40
14.500000
  0
LINE
  8
SCHRAUBEN
 62
6
 10
559.800171
 20
-59.203552
 11
548.200134
 21
-70.803551
  0
LINE
  8
SCHRAUBEN
 62
6
 10
548.200134
 20
-59.203552
 11
559.800171
 21
-70.803551
  0
CIRCLE
  8
SCHRAUBEN
 62
2
 10
554.000183
 20
-65.003555
 40
14.500000
  0
LINE
  8
SCHRAUBEN
 62
6
 10
761.300171
 20
-96.703560
 11
749.700195
 21
-108.303558
  0
LINE
  8
SCHRAUBEN
 62
6
 10
749.700195
 20
-96.703560
 11
761.300171
 21
-108.303558
  0
CIRCLE
  8
SCHRAUBEN
 62
2
 10
755.500183
 20
-102.503555
 40
14.499939
  0
LINE
  8
SCHRAUBEN
 62
6
 10
960.050537
 20
-96.703560
 11
948.450439
 21
-108.303558
  0
LINE
  8
SCHRAUBEN
 62
6
 10
948.450439
 20
-96.703560
 11
960.050537
 21
-108.303558
  0
CIRCLE
  8
SCHRAUBEN
 62
2
 10
954.250488
 20
-102.503555
 40
14.500000
  0
LINE
  8
SCHRAUBEN
 62
6
 10
960.050537
 20
108.297958
 11
948.450439
 21
96.697960
  0
LINE
  8
SCHRAUBEN
 62
6
 10
948.450439
 20
108.297958
 11
960.050537
 21
96.697960
  0
CIRCLE
  8
SCHRAUBEN
 62
2
 10
954.250488
 20
102.497955
 40
14.500000
  0
LINE
  8
SCHRAUBEN
 62
6
 10
761.300171
 20
108.297958
 11
749.700195
 21
96.697960
  0
LINE
  8
SCHRAUBEN
 62
6
 10
749.700195
 20
108.297958
 11
761.300171
 21
96.697960
  0
CIRCLE
  8
SCHRAUBEN
 62
2
 10
755.500183
 20
102.497955
 40
14.499939
  0
LINE
  8
SCHRAUBEN
 62
6
 10
559.800171
 20
145.797958
 11
548.200134
 21
134.197968
  0
LINE
  8
SCHRAUBEN
 62
6
 10
548.200134
 20
145.797958
 11
559.800171
 21
134.197968
  0
CIRCLE
  8
SCHRAUBEN
 62
2
 10
554.000183
 20
139.997955
 40
14.500000
  0
LINE
  8
SCHRAUBEN
 62
6
 10
559.800171
 20
70.797958
 11
548.200134
 21
59.197960
  0
LINE
  8
SCHRAUBEN
 62
6
 10
548.200134
 20
70.797958
 11
559.800171
 21
59.197960
  0
CIRCLE
  8
SCHRAUBEN
 62
2
 10
554.000183
 20
64.997955
 40
14.500000
  0
LINE
  8
SCHRAUBEN
 62
6
 10
431.800201
 20
70.797958
 11
420.200165
 21
59.197960
  0
LINE
  8
SCHRAUBEN
 62
6
 10
420.200165
 20
70.797958
 11
431.800201
 21
59.197960
  0
CIRCLE
  8
SCHRAUBEN
 62
2
 10
426.000183
 20
64.997955
 40
14.500000
  0
LINE
  8
SCHRAUBEN
 62
6
 10
431.800201
 20
145.797958
 11
420.200165
 21
134.197968
  0
LINE
  8
SCHRAUBEN
 62
6
 10
420.200165
 20
145.797958
 11
431.800201
 21
134.197968
  0
CIRCLE
  8
SCHRAUBEN
 62
2
 10
426.000183
 20
139.997955
 40
14.500000
  0
LINE
  8
SCHRAUBEN
 62
6
 10
303.800171
 20
145.797958
 11
292.200195
 21
134.197968
  0
LINE
  8
SCHRAUBEN
 62
6
 10
292.200195
 20
145.797958
 11
303.800171
 21
134.197968
  0
CIRCLE
  8
SCHRAUBEN
 62
2
 10
298.000183
 20
139.997955
 40
14.500000
  0
LINE
  8
SCHRAUBEN
 62
6
 10
303.800171
 20
70.797958
 11
292.200195
 21
59.197960
  0
LINE
  8
SCHRAUBEN
 62
6
 10
292.200195
 20
70.797958
 11
303.800171
 21
59.197960
  0
CIRCLE
  8
SCHRAUBEN
 62
2
 10
298.000183
 20
64.997955
 40
14.500000
  0
TEXT
 8
UNTERSCHRIFT
 62
2
 10
456.999817
 20
-198.000732
 40
3.250000
 41
0.800000
 51
15.000000
  1
Project  DP0GN9  ,Qty. 3  , Pos. 
  0
TEXT
 8
UNTERSCHRIFT
 62
2
 10
555.799805
 20
-198.000732
 40
3.250000
 41
0.800000
 51
15.000000
  1
  , Profi l PL400*20
  0
TEXT
 8
UNTERSCHRIFT
 62
2
 10
542.799805
 20
-198.000732
 40
3.250000
 41
0.800000
 51
15.000000
  1
10329
  0
LINE
  8
TEILE
 62
2
 10
0.000000
 20
-200.000748
 11
0.000000
 21
200.000748
  0
LINE
  8
TEILE
 62
2
 10
0.000000
 20
200.000748
 11
1069.999634
 21
200.000748
  0
LINE
  8
TEILE
 62
2
 10
1069.999634
 20
200.000748
 11
1069.999634
 21
-200.000748
  0
LINE
  8
TEILE
 62
2
 10
1069.999634
 20
-200.000748
 11
0.000000
 21
-200.000748
  0
TEXT
 8
BEZ_SCHRAUBEN
 62
2
 10
78.000168
 20
117.997963
 40
5.000000
 41
0.800000
 51
15.000000
  1
 ø29
  0
ENDSEC
  0
EOF

