999
     *******************************************
999
     BOCAD Software GmbH   Rev.18.000   0202.22
999
     Filename:   c:\progetti21\danieli_aqs\b4\temp_60\10335.dxf
999
     Creator:    bocad
999
     Date:       20.01.2016
999
     Factor:     10.000000
999
     *******************************************
  0
SECTION
  2
HEADER
  9
$DWGCODEPAGE
  3
ANSI_1252
  9
$INSBASE
 10
0.0
 20
0.0
 30
0.0
  9
$EXTMIN
 10
-0.500000
 20
-200.499992
  9
$EXTMAX
 10
400.501556
 20
200.496311
  9
$LIMMIN
 10
-1.500000
 20
-201.499992
  9
$LIMMAX
 10
401.501556
 20
201.496311
  9
$LTSCALE
 40
10.000000
  0
ENDSEC
  0
SECTION
  2
TABLES
  0
TABLE
  2
LTYPE
 70
4
  0
LTYPE
  2
CONTINUOUS
 70
64
  3
____________________________________________
 72
65
 73
0
 40
0.0
  0
LTYPE
  2
HIDDEN
 70
64
  3
__ __ __ __ __ __ __ __ __ __ __ __ __ __ __
 72
65
 73
2
 40
0.50
 49
0.30
 49
-0.20
  0
LTYPE
  2
DASHDOT
 70
64
  3
____ _ ____ _ ____ _ ____ _ ____ _ ____ _ __
 72
65
 73
4
 40
2.0
 49
1.5
 49
-0.25
 49
0
 49
-0.25
  0
LTYPE
  2
DOT
 70
64
  3
............................................
 72
65
 73
2
 40
0.30
 49
0
 49
-0.30
  0
ENDTAB
  0
TABLE
  2
LAYER
 70
23
  0
LAYER
  2
SCHRAUBEN
 70
64
 62
7
  6
CONTINUOUS
  0
LAYER
  2
REST
 70
64
 62
7
  6
CONTINUOUS
  0
LAYER
  2
UNTERSCHRIFT
 70
64
 62
7
  6
CONTINUOUS
  0
LAYER
  2
TEILE
 70
64
 62
7
  6
CONTINUOUS
  0
LAYER
  2
BEZ_SCHRAUBEN
 70
64
 62
7
  6
CONTINUOUS
  0
LAYER
  2
MARKERPUNKTE
 70
64
 62
7
  6
CONTINUOUS
  0
LAYER
  2
HILFSPUNKTE
 70
64
 62
7
  6
CONTINUOUS
  0
LAYER
  2
PICKPUNKTE
 70
64
 62
7
  6
CONTINUOUS
  0
LAYER
  2
SCHWEISSEN
 70
64
 62
7
  6
CONTINUOUS
  0
LAYER
  2
GRAFIK
 70
64
 62
7
  6
CONTINUOUS
  0
LAYER
  2
BEM_FREI
 70
64
 62
7
  6
CONTINUOUS
  0
LAYER
  2
BEM_SYSTEM
 70
64
 62
7
  6
CONTINUOUS
  0
LAYER
  2
BEM_KONTUR
 70
64
 62
7
  6
CONTINUOUS
  0
LAYER
  2
BEM_ANBAU
 70
64
 62
7
  6
CONTINUOUS
  0
LAYER
  2
BEM_SCHRAUBEN
 70
64
 62
7
  6
CONTINUOUS
  0
LAYER
  2
BEM_SCHWEISSEN
 70
64
 62
7
  6
CONTINUOUS
  0
LAYER
  2
FREIER_TEXT
 70
64
 62
7
  6
CONTINUOUS
  0
LAYER
  2
BEZ_TEILE
 70
64
 62
7
  6
CONTINUOUS
  0
LAYER
  2
BEZ_SCHWEISSEN
 70
64
 62
7
  6
CONTINUOUS
  0
LAYER
  2
SCHRAFFUREN
 70
64
 62
7
  6
CONTINUOUS
  0
LAYER
  2
SCHNITTSYMBOL
 70
64
 62
7
  6
CONTINUOUS
  0
LAYER
  2
RASTER
 70
64
 62
7
  6
CONTINUOUS
  0
LAYER
  2
LISTEN
 70
64
 62
7
  6
CONTINUOUS
  0
LAYER
  2
RAHMEN
 70
64
 62
7
  6
CONTINUOUS
  0
ENDTAB
  0
TABLE
  2
STYLE
 70
1
  0
STYLE
  2
STANDARD
 70
64
 40
0
 41
1
 50
0.0
 71
0
 42
0.35
  3
ROMANS
  0
ENDTAB
  0
ENDSEC
  0
SECTION
  2
ENTITIES
  0
LINE
  8
SCHRAUBEN
 62
6
 10
355.800140
 20
122.804657
 11
344.200104
 21
111.204666
  0
LINE
  8
SCHRAUBEN
 62
6
 10
344.200104
 20
122.804657
 11
355.800140
 21
111.204666
  0
CIRCLE
  8
SCHRAUBEN
 62
2
 10
350.000122
 20
117.004662
 40
14.500000
  0
LINE
  8
SCHRAUBEN
 62
6
 10
265.800110
 20
122.804657
 11
254.200104
 21
111.204666
  0
LINE
  8
SCHRAUBEN
 62
6
 10
254.200104
 20
122.804657
 11
265.800110
 21
111.204666
  0
CIRCLE
  8
SCHRAUBEN
 62
2
 10
260.000092
 20
117.004662
 40
14.500000
  0
LINE
  8
SCHRAUBEN
 62
6
 10
145.800110
 20
122.804657
 11
134.200104
 21
111.204666
  0
LINE
  8
SCHRAUBEN
 62
6
 10
134.200104
 20
122.804657
 11
145.800110
 21
111.204666
  0
CIRCLE
  8
SCHRAUBEN
 62
2
 10
140.000107
 20
117.004662
 40
14.500000
  0
LINE
  8
SCHRAUBEN
 62
6
 10
55.800098
 20
122.804657
 11
44.200100
 21
111.204666
  0
LINE
  8
SCHRAUBEN
 62
6
 10
44.200100
 20
122.804657
 11
55.800098
 21
111.204666
  0
CIRCLE
  8
SCHRAUBEN
 62
2
 10
50.000099
 20
117.004662
 40
14.500008
  0
LINE
  8
SCHRAUBEN
 62
6
 10
55.800098
 20
-1.195340
 11
44.200100
 21
-12.795341
  0
LINE
  8
SCHRAUBEN
 62
6
 10
44.200100
 20
-1.195340
 11
55.800098
 21
-12.795341
  0
CIRCLE
  8
SCHRAUBEN
 62
2
 10
50.000099
 20
-6.995340
 40
14.500008
  0
LINE
  8
SCHRAUBEN
 62
6
 10
145.800110
 20
-1.195340
 11
134.200104
 21
-12.795341
  0
LINE
  8
SCHRAUBEN
 62
6
 10
134.200104
 20
-1.195340
 11
145.800110
 21
-12.795341
  0
CIRCLE
  8
SCHRAUBEN
 62
2
 10
140.000107
 20
-6.995340
 40
14.500000
  0
LINE
  8
SCHRAUBEN
 62
6
 10
265.800110
 20
-1.195340
 11
254.200104
 21
-12.795341
  0
LINE
  8
SCHRAUBEN
 62
6
 10
254.200104
 20
-1.195340
 11
265.800110
 21
-12.795341
  0
CIRCLE
  8
SCHRAUBEN
 62
2
 10
260.000092
 20
-6.995340
 40
14.500000
  0
LINE
  8
SCHRAUBEN
 62
6
 10
355.800140
 20
-1.195340
 11
344.200104
 21
-12.795341
  0
LINE
  8
SCHRAUBEN
 62
6
 10
344.200104
 20
-1.195340
 11
355.800140
 21
-12.795341
  0
CIRCLE
  8
SCHRAUBEN
 62
2
 10
350.000122
 20
-6.995340
 40
14.500000
  0
TEXT
 8
UNTERSCHRIFT
 62
2
 10
5.250000
 20
-81.901825
 40
3.250000
 50
89.999931
 41
0.800000
 51
15.000000
  1
Project  DP0GN9  ,Qty. 4  , Pos. 
  0
TEXT
 8
UNTERSCHRIFT
 62
2
 10
5.250000
 20
16.898170
 40
3.250000
 50
89.999931
 41
0.800000
 51
15.000000
  1
  , Profi l PL400*35.01
  0
TEXT
 8
UNTERSCHRIFT
 62
2
 10
5.250000
 20
3.898171
 40
3.250000
 50
89.999931
 41
0.800000
 51
15.000000
  1
10335
  0
LINE
  8
TEILE
 62
2
 10
0.000000
 20
199.996323
 11
400.001556
 21
199.996323
  0
LINE
  8
TEILE
 62
2
 10
400.001556
 20
199.996323
 11
400.001495
 21
-200.000000
  0
LINE
  8
TEILE
 62
2
 10
400.001495
 20
-200.000000
 11
0.000000
 21
-200.000000
  0
LINE
  8
TEILE
 62
2
 10
0.000000
 20
-200.000000
 11
0.000000
 21
199.996323
  0
TEXT
 8
BEZ_SCHRAUBEN
 62
2
 10
342.000122
 20
95.004662
 40
5.000000
 41
0.800000
 51
15.000000
  1
 ø29
  0
ENDSEC
  0
EOF

