999
     *******************************************
999
     BOCAD Software GmbH   Rev.18.000   0202.22
999
     Filename:   c:\progetti21\danieli_aqs\b4\temp_60\10338.dxf
999
     Creator:    bocad
999
     Date:       20.01.2016
999
     Factor:     10.000000
999
     *******************************************
  0
SECTION
  2
HEADER
  9
$DWGCODEPAGE
  3
ANSI_1252
  9
$INSBASE
 10
0.0
 20
0.0
 30
0.0
  9
$EXTMIN
 10
-0.500000
 20
-182.999992
  9
$EXTMAX
 10
725.676117
 20
182.999992
  9
$LIMMIN
 10
-1.500000
 20
-183.999992
  9
$LIMMAX
 10
726.676117
 20
183.999992
  9
$LTSCALE
 40
10.000000
  0
ENDSEC
  0
SECTION
  2
TABLES
  0
TABLE
  2
LTYPE
 70
4
  0
LTYPE
  2
CONTINUOUS
 70
64
  3
____________________________________________
 72
65
 73
0
 40
0.0
  0
LTYPE
  2
HIDDEN
 70
64
  3
__ __ __ __ __ __ __ __ __ __ __ __ __ __ __
 72
65
 73
2
 40
0.50
 49
0.30
 49
-0.20
  0
LTYPE
  2
DASHDOT
 70
64
  3
____ _ ____ _ ____ _ ____ _ ____ _ ____ _ __
 72
65
 73
4
 40
2.0
 49
1.5
 49
-0.25
 49
0
 49
-0.25
  0
LTYPE
  2
DOT
 70
64
  3
............................................
 72
65
 73
2
 40
0.30
 49
0
 49
-0.30
  0
ENDTAB
  0
TABLE
  2
LAYER
 70
23
  0
LAYER
  2
UNTERSCHRIFT
 70
64
 62
7
  6
CONTINUOUS
  0
LAYER
  2
TEILE
 70
64
 62
7
  6
CONTINUOUS
  0
LAYER
  2
REST
 70
64
 62
7
  6
CONTINUOUS
  0
LAYER
  2
MARKERPUNKTE
 70
64
 62
7
  6
CONTINUOUS
  0
LAYER
  2
HILFSPUNKTE
 70
64
 62
7
  6
CONTINUOUS
  0
LAYER
  2
PICKPUNKTE
 70
64
 62
7
  6
CONTINUOUS
  0
LAYER
  2
SCHRAUBEN
 70
64
 62
7
  6
CONTINUOUS
  0
LAYER
  2
SCHWEISSEN
 70
64
 62
7
  6
CONTINUOUS
  0
LAYER
  2
GRAFIK
 70
64
 62
7
  6
CONTINUOUS
  0
LAYER
  2
BEM_FREI
 70
64
 62
7
  6
CONTINUOUS
  0
LAYER
  2
BEM_SYSTEM
 70
64
 62
7
  6
CONTINUOUS
  0
LAYER
  2
BEM_KONTUR
 70
64
 62
7
  6
CONTINUOUS
  0
LAYER
  2
BEM_ANBAU
 70
64
 62
7
  6
CONTINUOUS
  0
LAYER
  2
BEM_SCHRAUBEN
 70
64
 62
7
  6
CONTINUOUS
  0
LAYER
  2
BEM_SCHWEISSEN
 70
64
 62
7
  6
CONTINUOUS
  0
LAYER
  2
FREIER_TEXT
 70
64
 62
7
  6
CONTINUOUS
  0
LAYER
  2
BEZ_TEILE
 70
64
 62
7
  6
CONTINUOUS
  0
LAYER
  2
BEZ_SCHRAUBEN
 70
64
 62
7
  6
CONTINUOUS
  0
LAYER
  2
BEZ_SCHWEISSEN
 70
64
 62
7
  6
CONTINUOUS
  0
LAYER
  2
SCHRAFFUREN
 70
64
 62
7
  6
CONTINUOUS
  0
LAYER
  2
SCHNITTSYMBOL
 70
64
 62
7
  6
CONTINUOUS
  0
LAYER
  2
RASTER
 70
64
 62
7
  6
CONTINUOUS
  0
LAYER
  2
LISTEN
 70
64
 62
7
  6
CONTINUOUS
  0
LAYER
  2
RAHMEN
 70
64
 62
7
  6
CONTINUOUS
  0
ENDTAB
  0
TABLE
  2
STYLE
 70
1
  0
STYLE
  2
STANDARD
 70
64
 40
0
 41
1
 50
0.0
 71
0
 42
0.35
  3
ROMANS
  0
ENDTAB
  0
ENDSEC
  0
SECTION
  2
ENTITIES
  0
TEXT
 8
UNTERSCHRIFT
 62
2
 10
288.729980
 20
-180.500000
 40
3.250000
 41
0.800000
 51
15.000000
  1
Project  DP0GN9  ,Qty. 1  , Pos. 
  0
TEXT
 8
UNTERSCHRIFT
 62
2
 10
387.529938
 20
-180.500000
 40
3.250000
 41
0.800000
 51
15.000000
  1
  , Profi l PL365*12
  0
TEXT
 8
UNTERSCHRIFT
 62
2
 10
374.529968
 20
-180.500000
 40
3.250000
 41
0.800000
 51
15.000000
  1
10338
  0
LINE
  8
TEILE
 62
2
 10
15.000000
 20
-182.500000
 11
0.000000
 21
-167.500000
  0
LINE
  8
TEILE
 62
2
 10
0.000000
 20
-167.500000
 11
0.000000
 21
167.500000
  0
LINE
  8
TEILE
 62
2
 10
0.000000
 20
167.500000
 11
15.000000
 21
182.500000
  0
LINE
  8
TEILE
 62
2
 10
15.000000
 20
182.500000
 11
337.046875
 21
182.500000
  0
LINE
  8
TEILE
 62
2
 10
337.046875
 20
182.500000
 11
337.091522
 21
181.344162
  0
LINE
  8
TEILE
 62
2
 10
337.091522
 20
181.344162
 11
337.225037
 21
180.195190
  0
LINE
  8
TEILE
 62
2
 10
337.225037
 20
180.195190
 11
337.446716
 21
179.059937
  0
LINE
  8
TEILE
 62
2
 10
337.446716
 20
179.059937
 11
337.755157
 21
177.945129
  0
LINE
  8
TEILE
 62
2
 10
337.755157
 20
177.945129
 11
338.148651
 21
176.857437
  0
LINE
  8
TEILE
 62
2
 10
338.148651
 20
176.857437
 11
338.624756
 21
175.803253
  0
LINE
  8
TEILE
 62
2
 10
338.624756
 20
175.803253
 11
339.180664
 21
174.788910
  0
LINE
  8
TEILE
 62
2
 10
339.180664
 20
174.788910
 11
339.813110
 21
173.820435
  0
LINE
  8
TEILE
 62
2
 10
339.813110
 20
173.820435
 11
340.518311
 21
172.903564
  0
LINE
  8
TEILE
 62
2
 10
340.518311
 20
172.903564
 11
341.292053
 21
172.043747
  0
LINE
  8
TEILE
 62
2
 10
341.292053
 20
172.043747
 11
342.129761
 21
171.246109
  0
LINE
  8
TEILE
 62
2
 10
342.129761
 20
171.246109
 11
343.026398
 21
170.515411
  0
LINE
  8
TEILE
 62
2
 10
343.026398
 20
170.515411
 11
343.976715
 21
169.855957
  0
LINE
  8
TEILE
 62
2
 10
343.976715
 20
169.855957
 11
344.974976
 21
169.271683
  0
LINE
  8
TEILE
 62
2
 10
344.974976
 20
169.271683
 11
346.015320
 21
168.766083
  0
LINE
  8
TEILE
 62
2
 10
346.015320
 20
168.766083
 11
347.091522
 21
168.342148
  0
LINE
  8
TEILE
 62
2
 10
347.091522
 20
168.342148
 11
348.197205
 21
168.002411
  0
LINE
  8
TEILE
 62
2
 10
348.197205
 20
168.002411
 11
349.325806
 21
167.748871
  0
LINE
  8
TEILE
 62
2
 10
349.325806
 20
167.748871
 11
350.470551
 21
167.583069
  0
LINE
  8
TEILE
 62
2
 10
350.470551
 20
167.583069
 11
351.624634
 21
167.505951
  0
LINE
  8
TEILE
 62
2
 10
351.624634
 20
167.505951
 11
352.781311
 21
167.517990
  0
LINE
  8
TEILE
 62
2
 10
352.781311
 20
167.517990
 11
353.933563
 21
167.619110
  0
LINE
  8
TEILE
 62
2
 10
353.933563
 20
167.619110
 11
355.074615
 21
167.808746
  0
LINE
  8
TEILE
 62
2
 10
355.074615
 20
167.808746
 11
356.197632
 21
168.085724
  0
LINE
  8
TEILE
 62
2
 10
356.197632
 20
168.085724
 11
357.295990
 21
168.448425
  0
LINE
  8
TEILE
 62
2
 10
357.295990
 20
168.448425
 11
358.363159
 21
168.894669
  0
LINE
  8
TEILE
 62
2
 10
358.363159
 20
168.894669
 11
359.392731
 21
169.421829
  0
LINE
  8
TEILE
 62
2
 10
359.392731
 20
169.421829
 11
360.378662
 21
170.026764
  0
LINE
  8
TEILE
 62
2
 10
360.378662
 20
170.026764
 11
361.315002
 21
170.705856
  0
LINE
  8
TEILE
 62
2
 10
361.315002
 20
170.705856
 11
362.196228
 21
171.455078
  0
LINE
  8
TEILE
 62
2
 10
362.196228
 20
171.455078
 11
363.017151
 21
172.269974
  0
LINE
  8
TEILE
 62
2
 10
363.017151
 20
172.269974
 11
363.017151
 21
172.270020
  0
LINE
  8
TEILE
 62
2
 10
363.017151
 20
172.270020
 11
725.176086
 21
-165.450012
  0
LINE
  8
TEILE
 62
2
 10
725.176086
 20
-165.450012
 11
718.459961
 21
-182.500000
  0
LINE
  8
TEILE
 62
2
 10
718.459961
 20
-182.500000
 11
15.000000
 21
-182.500000
  0
ENDSEC
  0
EOF

