999
     *******************************************
999
     BOCAD Software GmbH   Rev.18.000   0202.22
999
     Filename:   c:\progetti21\danieli_aqs\b4\temp_60\10339.dxf
999
     Creator:    bocad
999
     Date:       20.01.2016
999
     Factor:     10.000000
999
     *******************************************
  0
SECTION
  2
HEADER
  9
$DWGCODEPAGE
  3
ANSI_1252
  9
$INSBASE
 10
0.0
 20
0.0
 30
0.0
  9
$EXTMIN
 10
-0.500000
 20
-182.999954
  9
$EXTMAX
 10
703.251801
 20
182.999954
  9
$LIMMIN
 10
-1.500000
 20
-183.999954
  9
$LIMMAX
 10
704.251801
 20
183.999954
  9
$LTSCALE
 40
10.000000
  0
ENDSEC
  0
SECTION
  2
TABLES
  0
TABLE
  2
LTYPE
 70
4
  0
LTYPE
  2
CONTINUOUS
 70
64
  3
____________________________________________
 72
65
 73
0
 40
0.0
  0
LTYPE
  2
HIDDEN
 70
64
  3
__ __ __ __ __ __ __ __ __ __ __ __ __ __ __
 72
65
 73
2
 40
0.50
 49
0.30
 49
-0.20
  0
LTYPE
  2
DASHDOT
 70
64
  3
____ _ ____ _ ____ _ ____ _ ____ _ ____ _ __
 72
65
 73
4
 40
2.0
 49
1.5
 49
-0.25
 49
0
 49
-0.25
  0
LTYPE
  2
DOT
 70
64
  3
............................................
 72
65
 73
2
 40
0.30
 49
0
 49
-0.30
  0
ENDTAB
  0
TABLE
  2
LAYER
 70
23
  0
LAYER
  2
UNTERSCHRIFT
 70
64
 62
7
  6
CONTINUOUS
  0
LAYER
  2
TEILE
 70
64
 62
7
  6
CONTINUOUS
  0
LAYER
  2
REST
 70
64
 62
7
  6
CONTINUOUS
  0
LAYER
  2
MARKERPUNKTE
 70
64
 62
7
  6
CONTINUOUS
  0
LAYER
  2
HILFSPUNKTE
 70
64
 62
7
  6
CONTINUOUS
  0
LAYER
  2
PICKPUNKTE
 70
64
 62
7
  6
CONTINUOUS
  0
LAYER
  2
SCHRAUBEN
 70
64
 62
7
  6
CONTINUOUS
  0
LAYER
  2
SCHWEISSEN
 70
64
 62
7
  6
CONTINUOUS
  0
LAYER
  2
GRAFIK
 70
64
 62
7
  6
CONTINUOUS
  0
LAYER
  2
BEM_FREI
 70
64
 62
7
  6
CONTINUOUS
  0
LAYER
  2
BEM_SYSTEM
 70
64
 62
7
  6
CONTINUOUS
  0
LAYER
  2
BEM_KONTUR
 70
64
 62
7
  6
CONTINUOUS
  0
LAYER
  2
BEM_ANBAU
 70
64
 62
7
  6
CONTINUOUS
  0
LAYER
  2
BEM_SCHRAUBEN
 70
64
 62
7
  6
CONTINUOUS
  0
LAYER
  2
BEM_SCHWEISSEN
 70
64
 62
7
  6
CONTINUOUS
  0
LAYER
  2
FREIER_TEXT
 70
64
 62
7
  6
CONTINUOUS
  0
LAYER
  2
BEZ_TEILE
 70
64
 62
7
  6
CONTINUOUS
  0
LAYER
  2
BEZ_SCHRAUBEN
 70
64
 62
7
  6
CONTINUOUS
  0
LAYER
  2
BEZ_SCHWEISSEN
 70
64
 62
7
  6
CONTINUOUS
  0
LAYER
  2
SCHRAFFUREN
 70
64
 62
7
  6
CONTINUOUS
  0
LAYER
  2
SCHNITTSYMBOL
 70
64
 62
7
  6
CONTINUOUS
  0
LAYER
  2
RASTER
 70
64
 62
7
  6
CONTINUOUS
  0
LAYER
  2
LISTEN
 70
64
 62
7
  6
CONTINUOUS
  0
LAYER
  2
RAHMEN
 70
64
 62
7
  6
CONTINUOUS
  0
ENDTAB
  0
TABLE
  2
STYLE
 70
1
  0
STYLE
  2
STANDARD
 70
64
 40
0
 41
1
 50
0.0
 71
0
 42
0.35
  3
ROMANS
  0
ENDTAB
  0
ENDSEC
  0
SECTION
  2
ENTITIES
  0
TEXT
 8
UNTERSCHRIFT
 62
2
 10
268.804810
 20
177.249969
 40
3.250000
 41
0.800000
 51
15.000000
  1
Project  DP0GN9  ,Qty. 1  , Pos. 
  0
TEXT
 8
UNTERSCHRIFT
 62
2
 10
367.604797
 20
177.249969
 40
3.250000
 41
0.800000
 51
15.000000
  1
  , Profi l PL365*12
  0
TEXT
 8
UNTERSCHRIFT
 62
2
 10
354.604797
 20
177.249969
 40
3.250000
 41
0.800000
 51
15.000000
  1
10339
  0
LINE
  8
TEILE
 62
2
 10
687.751770
 20
182.499939
 11
702.751770
 21
167.499924
  0
LINE
  8
TEILE
 62
2
 10
702.751770
 20
167.499924
 11
702.751770
 21
-167.499969
  0
LINE
  8
TEILE
 62
2
 10
702.751770
 20
-167.499969
 11
687.751770
 21
-182.499969
  0
LINE
  8
TEILE
 62
2
 10
687.751770
 20
-182.499969
 11
365.857727
 21
-182.499924
  0
LINE
  8
TEILE
 62
2
 10
365.857727
 20
-182.499924
 11
365.814453
 21
-181.360931
  0
LINE
  8
TEILE
 62
2
 10
365.814453
 20
-181.360931
 11
365.684784
 21
-180.228500
  0
LINE
  8
TEILE
 62
2
 10
365.684784
 20
-180.228500
 11
365.469482
 21
-179.109192
  0
LINE
  8
TEILE
 62
2
 10
365.469482
 20
-179.109192
 11
365.169830
 21
-178.009476
  0
LINE
  8
TEILE
 62
2
 10
365.169830
 20
-178.009476
 11
364.787537
 21
-176.935669
  0
LINE
  8
TEILE
 62
2
 10
364.787537
 20
-176.935669
 11
364.324799
 21
-175.894012
  0
LINE
  8
TEILE
 62
2
 10
364.324799
 20
-175.894012
 11
363.784332
 21
-174.890472
  0
LINE
  8
TEILE
 62
2
 10
363.784332
 20
-174.890472
 11
363.169220
 21
-173.930893
  0
LINE
  8
TEILE
 62
2
 10
363.169220
 20
-173.930893
 11
362.482971
 21
-173.020782
  0
LINE
  8
TEILE
 62
2
 10
362.482971
 20
-173.020782
 11
361.729614
 21
-172.165405
  0
LINE
  8
TEILE
 62
2
 10
361.729614
 20
-172.165405
 11
360.913513
 21
-171.369705
  0
LINE
  8
TEILE
 62
2
 10
360.913513
 20
-171.369705
 11
360.039337
 21
-170.638275
  0
LINE
  8
TEILE
 62
2
 10
360.039337
 20
-170.638275
 11
359.112122
 21
-169.975342
  0
LINE
  8
TEILE
 62
2
 10
359.112122
 20
-169.975342
 11
358.137268
 21
-169.384705
  0
LINE
  8
TEILE
 62
2
 10
358.137268
 20
-169.384705
 11
357.120361
 21
-168.869812
  0
LINE
  8
TEILE
 62
2
 10
357.120361
 20
-168.869812
 11
356.067322
 21
-168.433624
  0
LINE
  8
TEILE
 62
2
 10
356.067322
 20
-168.433624
 11
354.984161
 21
-168.078674
  0
LINE
  8
TEILE
 62
2
 10
354.984161
 20
-168.078674
 11
353.877228
 21
-167.806976
  0
LINE
  8
TEILE
 62
2
 10
353.877228
 20
-167.806976
 11
352.752808
 21
-167.620102
  0
LINE
  8
TEILE
 62
2
 10
352.752808
 20
-167.620102
 11
351.617462
 21
-167.519165
  0
LINE
  8
TEILE
 62
2
 10
351.617462
 20
-167.519165
 11
350.477753
 21
-167.504730
  0
LINE
  8
TEILE
 62
2
 10
350.477753
 20
-167.504730
 11
349.340210
 21
-167.576889
  0
LINE
  8
TEILE
 62
2
 10
349.340210
 20
-167.576889
 11
348.211426
 21
-167.735199
  0
LINE
  8
TEILE
 62
2
 10
348.211426
 20
-167.735199
 11
347.097931
 21
-167.978760
  0
LINE
  8
TEILE
 62
2
 10
347.097931
 20
-167.978760
 11
346.006165
 21
-168.306183
  0
LINE
  8
TEILE
 62
2
 10
346.006165
 20
-168.306183
 11
344.942383
 21
-168.715546
  0
LINE
  8
TEILE
 62
2
 10
344.942383
 20
-168.715546
 11
343.912781
 21
-169.204529
  0
LINE
  8
TEILE
 62
2
 10
343.912781
 20
-169.204529
 11
342.923279
 21
-169.770264
  0
LINE
  8
TEILE
 62
2
 10
342.923279
 20
-169.770264
 11
341.979553
 21
-170.409485
  0
LINE
  8
TEILE
 62
2
 10
341.979553
 20
-170.409485
 11
341.087158
 21
-171.118546
  0
LINE
  8
TEILE
 62
2
 10
341.087158
 20
-171.118546
 11
340.251129
 21
-171.893311
  0
LINE
  8
TEILE
 62
2
 10
340.251129
 20
-171.893311
 11
340.251129
 21
-171.893311
  0
LINE
  8
TEILE
 62
2
 10
340.251129
 20
-171.893311
 11
0.000000
 21
168.357834
  0
LINE
  8
TEILE
 62
2
 10
0.000000
 20
168.357834
 11
5.857864
 21
182.499969
  0
LINE
  8
TEILE
 62
2
 10
5.857864
 20
182.499969
 11
687.751770
 21
182.499939
  0
ENDSEC
  0
EOF

