999
     *******************************************
999
     BOCAD Software GmbH   Rev.18.000   0202.22
999
     Filename:   c:\progetti21\danieli_aqs\b4\temp_60\10346.dxf
999
     Creator:    bocad
999
     Date:       20.01.2016
999
     Factor:     10.000000
999
     *******************************************
  0
SECTION
  2
HEADER
  9
$DWGCODEPAGE
  3
ANSI_1252
  9
$INSBASE
 10
0.0
 20
0.0
 30
0.0
  9
$EXTMIN
 10
-0.500000
 20
-100.500002
  9
$EXTMAX
 10
970.500031
 20
100.500002
  9
$LIMMIN
 10
-1.500000
 20
-101.500002
  9
$LIMMAX
 10
971.500031
 20
101.500002
  9
$LTSCALE
 40
10.000000
  0
ENDSEC
  0
SECTION
  2
TABLES
  0
TABLE
  2
LTYPE
 70
4
  0
LTYPE
  2
CONTINUOUS
 70
64
  3
____________________________________________
 72
65
 73
0
 40
0.0
  0
LTYPE
  2
HIDDEN
 70
64
  3
__ __ __ __ __ __ __ __ __ __ __ __ __ __ __
 72
65
 73
2
 40
0.50
 49
0.30
 49
-0.20
  0
LTYPE
  2
DASHDOT
 70
64
  3
____ _ ____ _ ____ _ ____ _ ____ _ ____ _ __
 72
65
 73
4
 40
2.0
 49
1.5
 49
-0.25
 49
0
 49
-0.25
  0
LTYPE
  2
DOT
 70
64
  3
............................................
 72
65
 73
2
 40
0.30
 49
0
 49
-0.30
  0
ENDTAB
  0
TABLE
  2
LAYER
 70
23
  0
LAYER
  2
SCHRAUBEN
 70
64
 62
7
  6
CONTINUOUS
  0
LAYER
  2
REST
 70
64
 62
7
  6
CONTINUOUS
  0
LAYER
  2
UNTERSCHRIFT
 70
64
 62
7
  6
CONTINUOUS
  0
LAYER
  2
TEILE
 70
64
 62
7
  6
CONTINUOUS
  0
LAYER
  2
BEZ_SCHRAUBEN
 70
64
 62
7
  6
CONTINUOUS
  0
LAYER
  2
MARKERPUNKTE
 70
64
 62
7
  6
CONTINUOUS
  0
LAYER
  2
HILFSPUNKTE
 70
64
 62
7
  6
CONTINUOUS
  0
LAYER
  2
PICKPUNKTE
 70
64
 62
7
  6
CONTINUOUS
  0
LAYER
  2
SCHWEISSEN
 70
64
 62
7
  6
CONTINUOUS
  0
LAYER
  2
GRAFIK
 70
64
 62
7
  6
CONTINUOUS
  0
LAYER
  2
BEM_FREI
 70
64
 62
7
  6
CONTINUOUS
  0
LAYER
  2
BEM_SYSTEM
 70
64
 62
7
  6
CONTINUOUS
  0
LAYER
  2
BEM_KONTUR
 70
64
 62
7
  6
CONTINUOUS
  0
LAYER
  2
BEM_ANBAU
 70
64
 62
7
  6
CONTINUOUS
  0
LAYER
  2
BEM_SCHRAUBEN
 70
64
 62
7
  6
CONTINUOUS
  0
LAYER
  2
BEM_SCHWEISSEN
 70
64
 62
7
  6
CONTINUOUS
  0
LAYER
  2
FREIER_TEXT
 70
64
 62
7
  6
CONTINUOUS
  0
LAYER
  2
BEZ_TEILE
 70
64
 62
7
  6
CONTINUOUS
  0
LAYER
  2
BEZ_SCHWEISSEN
 70
64
 62
7
  6
CONTINUOUS
  0
LAYER
  2
SCHRAFFUREN
 70
64
 62
7
  6
CONTINUOUS
  0
LAYER
  2
SCHNITTSYMBOL
 70
64
 62
7
  6
CONTINUOUS
  0
LAYER
  2
RASTER
 70
64
 62
7
  6
CONTINUOUS
  0
LAYER
  2
LISTEN
 70
64
 62
7
  6
CONTINUOUS
  0
LAYER
  2
RAHMEN
 70
64
 62
7
  6
CONTINUOUS
  0
ENDTAB
  0
TABLE
  2
STYLE
 70
1
  0
STYLE
  2
STANDARD
 70
64
 40
0
 41
1
 50
0.0
 71
0
 42
0.35
  3
ROMANS
  0
ENDTAB
  0
ENDSEC
  0
SECTION
  2
ENTITIES
  0
LINE
  8
SCHRAUBEN
 62
6
 10
258.600006
 20
-21.398071
 11
251.399994
 21
-28.598076
  0
LINE
  8
SCHRAUBEN
 62
6
 10
251.399994
 20
-21.398071
 11
258.600006
 21
-28.598076
  0
CIRCLE
  8
SCHRAUBEN
 62
2
 10
255.000000
 20
-24.998074
 40
9.000000
  0
LINE
  8
SCHRAUBEN
 62
6
 10
258.600006
 20
38.601929
 11
251.399994
 21
31.401930
  0
LINE
  8
SCHRAUBEN
 62
6
 10
251.399994
 20
38.601929
 11
258.600006
 21
31.401930
  0
CIRCLE
  8
SCHRAUBEN
 62
2
 10
255.000000
 20
35.001930
 40
9.000000
  0
LINE
  8
SCHRAUBEN
 62
6
 10
370.285583
 20
53.465019
 11
363.085571
 21
46.265015
  0
LINE
  8
SCHRAUBEN
 62
6
 10
363.085571
 20
53.465019
 11
370.285583
 21
46.265015
  0
CIRCLE
  8
SCHRAUBEN
 62
2
 10
366.685547
 20
49.865017
 40
9.000031
  0
LINE
  8
SCHRAUBEN
 62
6
 10
348.212463
 20
8.601015
 11
341.012451
 21
1.401014
  0
LINE
  8
SCHRAUBEN
 62
6
 10
341.012451
 20
8.601015
 11
348.212463
 21
1.401014
  0
CIRCLE
  8
SCHRAUBEN
 62
2
 10
344.612457
 20
5.001015
 40
9.000031
  0
LINE
  8
SCHRAUBEN
 62
6
 10
909.399963
 20
-20.598080
 11
900.599915
 21
-29.398081
  0
LINE
  8
SCHRAUBEN
 62
6
 10
900.599915
 20
-20.598080
 11
909.399963
 21
-29.398081
  0
CIRCLE
  8
SCHRAUBEN
 62
2
 10
904.999939
 20
-24.998081
 40
10.999939
  0
LINE
  8
SCHRAUBEN
 62
6
 10
909.399963
 20
39.401920
 11
900.599915
 21
30.601919
  0
LINE
  8
SCHRAUBEN
 62
6
 10
900.599915
 20
39.401920
 11
909.399963
 21
30.601919
  0
CIRCLE
  8
SCHRAUBEN
 62
2
 10
904.999939
 20
35.001919
 40
10.999939
  0
TEXT
 8
UNTERSCHRIFT
 62
2
 10
393.200012
 20
-98.000000
 40
3.250000
 41
0.800000
 51
15.000000
  1
Project  DP0GN9  ,Qty. 10  , Pos. 
  0
TEXT
 8
UNTERSCHRIFT
 62
2
 10
494.599976
 20
-98.000000
 40
3.250000
 41
0.800000
 51
15.000000
  1
  , Profi l PL200*12
  0
TEXT
 8
UNTERSCHRIFT
 62
2
 10
481.600006
 20
-98.000000
 40
3.250000
 41
0.800000
 51
15.000000
  1
10346
  0
LINE
  8
TEILE
 62
2
 10
-0.000000
 20
-100.000000
 11
0.000000
 21
100.000000
  0
LINE
  8
TEILE
 62
2
 10
0.000000
 20
100.000000
 11
970.000000
 21
100.000000
  0
LINE
  8
TEILE
 62
2
 10
970.000000
 20
100.000000
 11
970.000000
 21
-75.000000
  0
LINE
  8
TEILE
 62
2
 10
970.000000
 20
-75.000000
 11
945.000000
 21
-100.000000
  0
LINE
  8
TEILE
 62
2
 10
945.000000
 20
-100.000000
 11
-0.000000
 21
-100.000000
  0
TEXT
 8
BEZ_SCHRAUBEN
 62
2
 10
247.000000
 20
-41.498070
 40
5.000000
 41
0.800000
 51
15.000000
  1
 ø18
  0
TEXT
 8
BEZ_SCHRAUBEN
 62
2
 10
247.000000
 20
18.501926
 40
5.000000
 41
0.800000
 51
15.000000
  1
 ø18
  0
TEXT
 8
BEZ_SCHRAUBEN
 62
2
 10
358.685608
 20
33.365017
 40
5.000000
 41
0.800000
 51
15.000000
  1
 ø18
  0
TEXT
 8
BEZ_SCHRAUBEN
 62
2
 10
336.612518
 20
-11.498985
 40
5.000000
 41
0.800000
 51
15.000000
  1
 ø18
  0
TEXT
 8
BEZ_SCHRAUBEN
 62
2
 10
896.999878
 20
-43.498081
 40
5.000000
 41
0.800000
 51
15.000000
  1
 ø22
  0
TEXT
 8
BEZ_SCHRAUBEN
 62
2
 10
896.999878
 20
16.501919
 40
5.000000
 41
0.800000
 51
15.000000
  1
 ø22
  0
ENDSEC
  0
EOF

