999
     *******************************************
999
     BOCAD Software GmbH   Rev.18.000   0202.22
999
     Filename:   c:\progetti21\danieli_aqs\b4\temp_60\10341.dxf
999
     Creator:    bocad
999
     Date:       20.01.2016
999
     Factor:     10.000000
999
     *******************************************
  0
SECTION
  2
HEADER
  9
$DWGCODEPAGE
  3
ANSI_1252
  9
$INSBASE
 10
0.0
 20
0.0
 30
0.0
  9
$EXTMIN
 10
-0.500000
 20
-108.691120
  9
$EXTMAX
 10
407.775574
 20
108.691120
  9
$LIMMIN
 10
-1.500000
 20
-109.691120
  9
$LIMMAX
 10
408.775574
 20
109.691120
  9
$LTSCALE
 40
10.000000
  0
ENDSEC
  0
SECTION
  2
TABLES
  0
TABLE
  2
LTYPE
 70
4
  0
LTYPE
  2
CONTINUOUS
 70
64
  3
____________________________________________
 72
65
 73
0
 40
0.0
  0
LTYPE
  2
HIDDEN
 70
64
  3
__ __ __ __ __ __ __ __ __ __ __ __ __ __ __
 72
65
 73
2
 40
0.50
 49
0.30
 49
-0.20
  0
LTYPE
  2
DASHDOT
 70
64
  3
____ _ ____ _ ____ _ ____ _ ____ _ ____ _ __
 72
65
 73
4
 40
2.0
 49
1.5
 49
-0.25
 49
0
 49
-0.25
  0
LTYPE
  2
DOT
 70
64
  3
............................................
 72
65
 73
2
 40
0.30
 49
0
 49
-0.30
  0
ENDTAB
  0
TABLE
  2
LAYER
 70
23
  0
LAYER
  2
SCHRAUBEN
 70
64
 62
7
  6
CONTINUOUS
  0
LAYER
  2
REST
 70
64
 62
7
  6
CONTINUOUS
  0
LAYER
  2
UNTERSCHRIFT
 70
64
 62
7
  6
CONTINUOUS
  0
LAYER
  2
TEILE
 70
64
 62
7
  6
CONTINUOUS
  0
LAYER
  2
BEZ_SCHRAUBEN
 70
64
 62
7
  6
CONTINUOUS
  0
LAYER
  2
MARKERPUNKTE
 70
64
 62
7
  6
CONTINUOUS
  0
LAYER
  2
HILFSPUNKTE
 70
64
 62
7
  6
CONTINUOUS
  0
LAYER
  2
PICKPUNKTE
 70
64
 62
7
  6
CONTINUOUS
  0
LAYER
  2
SCHWEISSEN
 70
64
 62
7
  6
CONTINUOUS
  0
LAYER
  2
GRAFIK
 70
64
 62
7
  6
CONTINUOUS
  0
LAYER
  2
BEM_FREI
 70
64
 62
7
  6
CONTINUOUS
  0
LAYER
  2
BEM_SYSTEM
 70
64
 62
7
  6
CONTINUOUS
  0
LAYER
  2
BEM_KONTUR
 70
64
 62
7
  6
CONTINUOUS
  0
LAYER
  2
BEM_ANBAU
 70
64
 62
7
  6
CONTINUOUS
  0
LAYER
  2
BEM_SCHRAUBEN
 70
64
 62
7
  6
CONTINUOUS
  0
LAYER
  2
BEM_SCHWEISSEN
 70
64
 62
7
  6
CONTINUOUS
  0
LAYER
  2
FREIER_TEXT
 70
64
 62
7
  6
CONTINUOUS
  0
LAYER
  2
BEZ_TEILE
 70
64
 62
7
  6
CONTINUOUS
  0
LAYER
  2
BEZ_SCHWEISSEN
 70
64
 62
7
  6
CONTINUOUS
  0
LAYER
  2
SCHRAFFUREN
 70
64
 62
7
  6
CONTINUOUS
  0
LAYER
  2
SCHNITTSYMBOL
 70
64
 62
7
  6
CONTINUOUS
  0
LAYER
  2
RASTER
 70
64
 62
7
  6
CONTINUOUS
  0
LAYER
  2
LISTEN
 70
64
 62
7
  6
CONTINUOUS
  0
LAYER
  2
RAHMEN
 70
64
 62
7
  6
CONTINUOUS
  0
ENDTAB
  0
TABLE
  2
STYLE
 70
1
  0
STYLE
  2
STANDARD
 70
64
 40
0
 41
1
 50
0.0
 71
0
 42
0.35
  3
ROMANS
  0
ENDTAB
  0
ENDSEC
  0
SECTION
  2
ENTITIES
  0
LINE
  8
SCHRAUBEN
 62
6
 10
251.414474
 20
43.610992
 11
241.014465
 21
33.210991
  0
LINE
  8
SCHRAUBEN
 62
6
 10
241.014465
 20
43.610992
 11
251.414474
 21
33.210991
  0
CIRCLE
  8
SCHRAUBEN
 62
2
 10
246.214462
 20
38.410992
 40
12.999985
  0
LINE
  8
SCHRAUBEN
 62
6
 10
197.638931
 20
-1.201863
 11
187.238922
 21
-11.601864
  0
LINE
  8
SCHRAUBEN
 62
6
 10
187.238922
 20
-1.201863
 11
197.638931
 21
-11.601864
  0
CIRCLE
  8
SCHRAUBEN
 62
2
 10
192.438934
 20
-6.401864
 40
12.999985
  0
TEXT
 8
UNTERSCHRIFT
 62
2
 10
124.337799
 20
-106.191116
 40
3.250000
 41
0.800000
 51
15.000000
  1
Project  DP0GN9  ,Qty. 20  , Pos. 
  0
TEXT
 8
UNTERSCHRIFT
 62
2
 10
225.737778
 20
-106.191116
 40
3.250000
 41
0.800000
 51
15.000000
  1
  , Profi l PL216*10
  0
TEXT
 8
UNTERSCHRIFT
 62
2
 10
212.737793
 20
-106.191116
 40
3.250000
 41
0.800000
 51
15.000000
  1
10341
  0
LINE
  8
TEILE
 62
2
 10
0.000000
 20
-108.191116
 11
-0.000000
 21
-88.191116
  0
LINE
  8
TEILE
 62
2
 10
-0.000000
 20
-88.191116
 11
259.658966
 21
108.191116
  0
LINE
  8
TEILE
 62
2
 10
259.658966
 20
108.191116
 11
317.275574
 21
39.051060
  0
LINE
  8
TEILE
 62
2
 10
317.275574
 20
39.051060
 11
318.775299
 21
24.322508
  0
LINE
  8
TEILE
 62
2
 10
318.775299
 20
24.322508
 11
321.525391
 21
10.743137
  0
LINE
  8
TEILE
 62
2
 10
321.525391
 20
10.743137
 11
325.516724
 21
-2.524571
  0
LINE
  8
TEILE
 62
2
 10
325.516724
 20
-2.524571
 11
330.715210
 21
-15.367322
  0
LINE
  8
TEILE
 62
2
 10
330.715210
 20
-15.367322
 11
337.076447
 21
-27.675827
  0
LINE
  8
TEILE
 62
2
 10
337.076447
 20
-27.675827
 11
344.546326
 21
-39.344601
  0
LINE
  8
TEILE
 62
2
 10
344.546326
 20
-39.344601
 11
353.060944
 21
-50.274662
  0
LINE
  8
TEILE
 62
2
 10
353.060944
 20
-50.274662
 11
362.547729
 21
-60.372360
  0
LINE
  8
TEILE
 62
2
 10
362.547729
 20
-60.372360
 11
372.925720
 21
-69.551476
  0
LINE
  8
TEILE
 62
2
 10
372.925720
 20
-69.551476
 11
384.106415
 21
-77.734001
  0
LINE
  8
TEILE
 62
2
 10
384.106415
 20
-77.734001
 11
395.994446
 21
-84.850128
  0
LINE
  8
TEILE
 62
2
 10
395.994446
 20
-84.850128
 11
407.275543
 21
-90.257523
  0
LINE
  8
TEILE
 62
2
 10
407.275543
 20
-90.257523
 11
407.275574
 21
-108.191116
  0
LINE
  8
TEILE
 62
2
 10
407.275574
 20
-108.191116
 11
0.000000
 21
-108.191116
  0
TEXT
 8
BEZ_SCHRAUBEN
 62
2
 10
238.214478
 20
17.910988
 40
5.000000
 41
0.800000
 51
15.000000
  1
 ø26
  0
ENDSEC
  0
EOF

