999
     *******************************************
999
     BOCAD Software GmbH   Rev.18.000   0202.22
999
     Filename:   c:\progetti21\danieli_aqs\b4\temp_60\10355.dxf
999
     Creator:    bocad
999
     Date:       20.01.2016
999
     Factor:     10.000000
999
     *******************************************
  0
SECTION
  2
HEADER
  9
$DWGCODEPAGE
  3
ANSI_1252
  9
$INSBASE
 10
0.0
 20
0.0
 30
0.0
  9
$EXTMIN
 10
-0.500000
 20
-100.499926
  9
$EXTMAX
 10
194.499989
 20
100.499926
  9
$LIMMIN
 10
-1.500000
 20
-101.499926
  9
$LIMMAX
 10
195.499989
 20
101.499926
  9
$LTSCALE
 40
10.000000
  0
ENDSEC
  0
SECTION
  2
TABLES
  0
TABLE
  2
LTYPE
 70
4
  0
LTYPE
  2
CONTINUOUS
 70
64
  3
____________________________________________
 72
65
 73
0
 40
0.0
  0
LTYPE
  2
HIDDEN
 70
64
  3
__ __ __ __ __ __ __ __ __ __ __ __ __ __ __
 72
65
 73
2
 40
0.50
 49
0.30
 49
-0.20
  0
LTYPE
  2
DASHDOT
 70
64
  3
____ _ ____ _ ____ _ ____ _ ____ _ ____ _ __
 72
65
 73
4
 40
2.0
 49
1.5
 49
-0.25
 49
0
 49
-0.25
  0
LTYPE
  2
DOT
 70
64
  3
............................................
 72
65
 73
2
 40
0.30
 49
0
 49
-0.30
  0
ENDTAB
  0
TABLE
  2
LAYER
 70
23
  0
LAYER
  2
UNTERSCHRIFT
 70
64
 62
7
  6
CONTINUOUS
  0
LAYER
  2
TEILE
 70
64
 62
7
  6
CONTINUOUS
  0
LAYER
  2
REST
 70
64
 62
7
  6
CONTINUOUS
  0
LAYER
  2
MARKERPUNKTE
 70
64
 62
7
  6
CONTINUOUS
  0
LAYER
  2
HILFSPUNKTE
 70
64
 62
7
  6
CONTINUOUS
  0
LAYER
  2
PICKPUNKTE
 70
64
 62
7
  6
CONTINUOUS
  0
LAYER
  2
SCHRAUBEN
 70
64
 62
7
  6
CONTINUOUS
  0
LAYER
  2
SCHWEISSEN
 70
64
 62
7
  6
CONTINUOUS
  0
LAYER
  2
GRAFIK
 70
64
 62
7
  6
CONTINUOUS
  0
LAYER
  2
BEM_FREI
 70
64
 62
7
  6
CONTINUOUS
  0
LAYER
  2
BEM_SYSTEM
 70
64
 62
7
  6
CONTINUOUS
  0
LAYER
  2
BEM_KONTUR
 70
64
 62
7
  6
CONTINUOUS
  0
LAYER
  2
BEM_ANBAU
 70
64
 62
7
  6
CONTINUOUS
  0
LAYER
  2
BEM_SCHRAUBEN
 70
64
 62
7
  6
CONTINUOUS
  0
LAYER
  2
BEM_SCHWEISSEN
 70
64
 62
7
  6
CONTINUOUS
  0
LAYER
  2
FREIER_TEXT
 70
64
 62
7
  6
CONTINUOUS
  0
LAYER
  2
BEZ_TEILE
 70
64
 62
7
  6
CONTINUOUS
  0
LAYER
  2
BEZ_SCHRAUBEN
 70
64
 62
7
  6
CONTINUOUS
  0
LAYER
  2
BEZ_SCHWEISSEN
 70
64
 62
7
  6
CONTINUOUS
  0
LAYER
  2
SCHRAFFUREN
 70
64
 62
7
  6
CONTINUOUS
  0
LAYER
  2
SCHNITTSYMBOL
 70
64
 62
7
  6
CONTINUOUS
  0
LAYER
  2
RASTER
 70
64
 62
7
  6
CONTINUOUS
  0
LAYER
  2
LISTEN
 70
64
 62
7
  6
CONTINUOUS
  0
LAYER
  2
RAHMEN
 70
64
 62
7
  6
CONTINUOUS
  0
ENDTAB
  0
TABLE
  2
STYLE
 70
1
  0
STYLE
  2
STANDARD
 70
64
 40
0
 41
1
 50
0.0
 71
0
 42
0.35
  3
ROMANS
  0
ENDTAB
  0
ENDSEC
  0
SECTION
  2
ENTITIES
  0
TEXT
 8
UNTERSCHRIFT
 62
2
 10
64.195862
 20
77.631233
 40
3.250001
 50
-46.169888
 41
0.800000
 51
15.000000
  1
Project  DP0GN9  ,Qty. 8  , Pos. 
  0
TEXT
 8
UNTERSCHRIFT
 62
2
 10
132.617157
 20
6.357350
 40
3.250001
 50
-46.169857
 41
0.800000
 51
15.000000
  1
  , Profi l PL200*20
  0
TEXT
 8
UNTERSCHRIFT
 62
2
 10
123.614349
 20
15.735493
 40
3.250000
 50
-46.169857
 41
0.800000
 51
15.000000
  1
10355
  0
LINE
  8
TEILE
 62
2
 10
194.000000
 20
-50.003666
 11
194.000000
 21
-99.999924
  0
LINE
  8
TEILE
 62
2
 10
194.000000
 20
-99.999924
 11
30.000000
 21
-99.999924
  0
LINE
  8
TEILE
 62
2
 10
30.000000
 20
-99.999924
 11
29.987766
 21
-99.143234
  0
LINE
  8
TEILE
 62
2
 10
29.987766
 20
-99.143234
 11
29.951075
 21
-98.287262
  0
LINE
  8
TEILE
 62
2
 10
29.951075
 20
-98.287262
 11
29.889950
 21
-97.432671
  0
LINE
  8
TEILE
 62
2
 10
29.889950
 20
-97.432671
 11
29.804451
 21
-96.580185
  0
LINE
  8
TEILE
 62
2
 10
29.804451
 20
-96.580185
 11
29.694643
 21
-95.730476
  0
LINE
  8
TEILE
 62
2
 10
29.694643
 20
-95.730476
 11
29.560616
 21
-94.884262
  0
LINE
  8
TEILE
 62
2
 10
29.560616
 20
-94.884262
 11
29.402477
 21
-94.042206
  0
LINE
  8
TEILE
 62
2
 10
29.402477
 20
-94.042206
 11
29.220356
 21
-93.205025
  0
LINE
  8
TEILE
 62
2
 10
29.220356
 20
-93.205025
 11
29.014406
 21
-92.373367
  0
LINE
  8
TEILE
 62
2
 10
29.014406
 20
-92.373367
 11
28.784790
 21
-91.547943
  0
LINE
  8
TEILE
 62
2
 10
28.784790
 20
-91.547943
 11
28.784790
 21
-91.547943
  0
LINE
  8
TEILE
 62
2
 10
28.784790
 20
-91.547943
 11
27.288960
 21
-87.537468
  0
LINE
  8
TEILE
 62
2
 10
27.288960
 20
-87.537468
 11
26.570967
 21
-86.072121
  0
LINE
  8
TEILE
 62
2
 10
26.570967
 20
-86.072121
 11
25.774363
 21
-84.647980
  0
LINE
  8
TEILE
 62
2
 10
25.774363
 20
-84.647980
 11
24.901503
 21
-83.269264
  0
LINE
  8
TEILE
 62
2
 10
24.901503
 20
-83.269264
 11
23.954967
 21
-81.940041
  0
LINE
  8
TEILE
 62
2
 10
23.954967
 20
-81.940041
 11
22.937561
 21
-80.664253
  0
LINE
  8
TEILE
 62
2
 10
22.937561
 20
-80.664253
 11
21.852291
 21
-79.445663
  0
LINE
  8
TEILE
 62
2
 10
21.852291
 20
-79.445663
 11
20.702366
 21
-78.287895
  0
LINE
  8
TEILE
 62
2
 10
20.702366
 20
-78.287895
 11
19.491192
 21
-77.194366
  0
LINE
  8
TEILE
 62
2
 10
19.491192
 20
-77.194366
 11
18.222349
 21
-76.168304
  0
LINE
  8
TEILE
 62
2
 10
18.222349
 20
-76.168304
 11
16.899595
 21
-75.212753
  0
LINE
  8
TEILE
 62
2
 10
16.899595
 20
-75.212753
 11
15.526842
 21
-74.330536
  0
LINE
  8
TEILE
 62
2
 10
15.526842
 20
-74.330536
 11
14.108150
 21
-73.524269
  0
LINE
  8
TEILE
 62
2
 10
14.108150
 20
-73.524269
 11
12.647718
 21
-72.796333
  0
LINE
  8
TEILE
 62
2
 10
12.647718
 20
-72.796333
 11
11.149868
 21
-72.148880
  0
LINE
  8
TEILE
 62
2
 10
11.149868
 20
-72.148880
 11
9.619029
 21
-71.583832
  0
LINE
  8
TEILE
 62
2
 10
9.619029
 20
-71.583832
 11
8.059731
 21
-71.102844
  0
LINE
  8
TEILE
 62
2
 10
8.059731
 20
-71.102844
 11
6.476588
 21
-70.707367
  0
LINE
  8
TEILE
 62
2
 10
6.476588
 20
-70.707367
 11
4.874282
 21
-70.398544
  0
LINE
  8
TEILE
 62
2
 10
4.874282
 20
-70.398544
 11
3.257556
 21
-70.177307
  0
LINE
  8
TEILE
 62
2
 10
3.257556
 20
-70.177307
 11
1.631192
 21
-70.044304
  0
LINE
  8
TEILE
 62
2
 10
1.631192
 20
-70.044304
 11
0.000002
 21
-69.999924
  0
LINE
  8
TEILE
 62
2
 10
0.000002
 20
-69.999924
 11
-0.000000
 21
-69.999924
  0
LINE
  8
TEILE
 62
2
 10
-0.000000
 20
-69.999924
 11
-0.000000
 21
99.999924
  0
LINE
  8
TEILE
 62
2
 10
-0.000000
 20
99.999924
 11
50.000000
 21
99.999924
  0
LINE
  8
TEILE
 62
2
 10
50.000000
 20
99.999924
 11
194.000000
 21
-50.003666
  0
ENDSEC
  0
EOF

