999
     *******************************************
999
     BOCAD Software GmbH   Rev.18.000   0202.22
999
     Filename:   c:\progetti21\danieli_aqs\b4\temp_60\10354.dxf
999
     Creator:    bocad
999
     Date:       20.01.2016
999
     Factor:     10.000000
999
     *******************************************
  0
SECTION
  2
HEADER
  9
$DWGCODEPAGE
  3
ANSI_1252
  9
$INSBASE
 10
0.0
 20
0.0
 30
0.0
  9
$EXTMIN
 10
-0.500000
 20
-100.500002
  9
$EXTMAX
 10
600.499992
 20
100.500002
  9
$LIMMIN
 10
-1.500000
 20
-101.500002
  9
$LIMMAX
 10
601.499992
 20
101.500002
  9
$LTSCALE
 40
10.000000
  0
ENDSEC
  0
SECTION
  2
TABLES
  0
TABLE
  2
LTYPE
 70
4
  0
LTYPE
  2
CONTINUOUS
 70
64
  3
____________________________________________
 72
65
 73
0
 40
0.0
  0
LTYPE
  2
HIDDEN
 70
64
  3
__ __ __ __ __ __ __ __ __ __ __ __ __ __ __
 72
65
 73
2
 40
0.50
 49
0.30
 49
-0.20
  0
LTYPE
  2
DASHDOT
 70
64
  3
____ _ ____ _ ____ _ ____ _ ____ _ ____ _ __
 72
65
 73
4
 40
2.0
 49
1.5
 49
-0.25
 49
0
 49
-0.25
  0
LTYPE
  2
DOT
 70
64
  3
............................................
 72
65
 73
2
 40
0.30
 49
0
 49
-0.30
  0
ENDTAB
  0
TABLE
  2
LAYER
 70
23
  0
LAYER
  2
UNTERSCHRIFT
 70
64
 62
7
  6
CONTINUOUS
  0
LAYER
  2
TEILE
 70
64
 62
7
  6
CONTINUOUS
  0
LAYER
  2
REST
 70
64
 62
7
  6
CONTINUOUS
  0
LAYER
  2
MARKERPUNKTE
 70
64
 62
7
  6
CONTINUOUS
  0
LAYER
  2
HILFSPUNKTE
 70
64
 62
7
  6
CONTINUOUS
  0
LAYER
  2
PICKPUNKTE
 70
64
 62
7
  6
CONTINUOUS
  0
LAYER
  2
SCHRAUBEN
 70
64
 62
7
  6
CONTINUOUS
  0
LAYER
  2
SCHWEISSEN
 70
64
 62
7
  6
CONTINUOUS
  0
LAYER
  2
GRAFIK
 70
64
 62
7
  6
CONTINUOUS
  0
LAYER
  2
BEM_FREI
 70
64
 62
7
  6
CONTINUOUS
  0
LAYER
  2
BEM_SYSTEM
 70
64
 62
7
  6
CONTINUOUS
  0
LAYER
  2
BEM_KONTUR
 70
64
 62
7
  6
CONTINUOUS
  0
LAYER
  2
BEM_ANBAU
 70
64
 62
7
  6
CONTINUOUS
  0
LAYER
  2
BEM_SCHRAUBEN
 70
64
 62
7
  6
CONTINUOUS
  0
LAYER
  2
BEM_SCHWEISSEN
 70
64
 62
7
  6
CONTINUOUS
  0
LAYER
  2
FREIER_TEXT
 70
64
 62
7
  6
CONTINUOUS
  0
LAYER
  2
BEZ_TEILE
 70
64
 62
7
  6
CONTINUOUS
  0
LAYER
  2
BEZ_SCHRAUBEN
 70
64
 62
7
  6
CONTINUOUS
  0
LAYER
  2
BEZ_SCHWEISSEN
 70
64
 62
7
  6
CONTINUOUS
  0
LAYER
  2
SCHRAFFUREN
 70
64
 62
7
  6
CONTINUOUS
  0
LAYER
  2
SCHNITTSYMBOL
 70
64
 62
7
  6
CONTINUOUS
  0
LAYER
  2
RASTER
 70
64
 62
7
  6
CONTINUOUS
  0
LAYER
  2
LISTEN
 70
64
 62
7
  6
CONTINUOUS
  0
LAYER
  2
RAHMEN
 70
64
 62
7
  6
CONTINUOUS
  0
ENDTAB
  0
TABLE
  2
STYLE
 70
1
  0
STYLE
  2
STANDARD
 70
64
 40
0
 41
1
 50
0.0
 71
0
 42
0.35
  3
ROMANS
  0
ENDTAB
  0
ENDSEC
  0
SECTION
  2
ENTITIES
  0
TEXT
 8
UNTERSCHRIFT
 62
2
 10
99.199989
 20
-98.000000
 40
3.250000
 41
0.800000
 51
15.000000
  1
Project  DP0GN9  ,Qty. 18  , Pos. 
  0
TEXT
 8
UNTERSCHRIFT
 62
2
 10
200.599976
 20
-98.000000
 40
3.250000
 41
0.800000
 51
15.000000
  1
  , Profi l PL200*12
  0
TEXT
 8
UNTERSCHRIFT
 62
2
 10
187.599976
 20
-98.000000
 40
3.250000
 41
0.800000
 51
15.000000
  1
10354
  0
LINE
  8
TEILE
 62
2
 10
25.000000
 20
-100.000000
 11
-0.000000
 21
-75.000000
  0
LINE
  8
TEILE
 62
2
 10
-0.000000
 20
-75.000000
 11
0.000000
 21
100.000000
  0
LINE
  8
TEILE
 62
2
 10
0.000000
 20
100.000000
 11
450.000000
 21
100.000000
  0
LINE
  8
TEILE
 62
2
 10
450.000000
 20
100.000000
 11
600.000000
 21
-50.000000
  0
LINE
  8
TEILE
 62
2
 10
600.000000
 20
-50.000000
 11
600.000000
 21
-100.000000
  0
LINE
  8
TEILE
 62
2
 10
600.000000
 20
-100.000000
 11
386.999756
 21
-100.000000
  0
LINE
  8
TEILE
 62
2
 10
386.999756
 20
-100.000000
 11
361.999969
 21
-75.000244
  0
LINE
  8
TEILE
 62
2
 10
361.999969
 20
-75.000244
 11
361.999969
 21
13.999700
  0
LINE
  8
TEILE
 62
2
 10
361.999969
 20
13.999700
 11
361.095337
 21
19.130001
  0
LINE
  8
TEILE
 62
2
 10
361.095337
 20
19.130001
 11
358.490631
 21
23.641512
  0
LINE
  8
TEILE
 62
2
 10
358.490631
 20
23.641512
 11
354.499969
 21
26.990080
  0
LINE
  8
TEILE
 62
2
 10
354.499969
 20
26.990080
 11
349.604675
 21
28.771816
  0
LINE
  8
TEILE
 62
2
 10
349.604675
 20
28.771816
 11
344.395264
 21
28.771816
  0
LINE
  8
TEILE
 62
2
 10
344.395264
 20
28.771816
 11
339.499969
 21
26.990080
  0
LINE
  8
TEILE
 62
2
 10
339.499969
 20
26.990080
 11
335.509308
 21
23.641512
  0
LINE
  8
TEILE
 62
2
 10
335.509308
 20
23.641512
 11
332.904602
 21
19.130001
  0
LINE
  8
TEILE
 62
2
 10
332.904602
 20
19.130001
 11
331.999969
 21
13.999700
  0
LINE
  8
TEILE
 62
2
 10
331.999969
 20
13.999700
 11
331.999969
 21
-100.000000
  0
LINE
  8
TEILE
 62
2
 10
331.999969
 20
-100.000000
 11
25.000000
 21
-100.000000
  0
ENDSEC
  0
EOF

