999
     *******************************************
999
     BOCAD Software GmbH   Rev.18.000   0202.22
999
     Filename:   c:\progetti21\danieli_aqs\b4\temp_61\10387.dxf
999
     Creator:    bocad
999
     Date:       20.01.2016
999
     Factor:     10.000000
999
     *******************************************
  0
SECTION
  2
HEADER
  9
$DWGCODEPAGE
  3
ANSI_1252
  9
$INSBASE
 10
0.0
 20
0.0
 30
0.0
  9
$EXTMIN
 10
-0.500000
 20
-175.499992
  9
$EXTMAX
 10
300.499992
 20
175.499992
  9
$LIMMIN
 10
-1.500000
 20
-176.499992
  9
$LIMMAX
 10
301.499992
 20
176.499992
  9
$LTSCALE
 40
10.000000
  0
ENDSEC
  0
SECTION
  2
TABLES
  0
TABLE
  2
LTYPE
 70
4
  0
LTYPE
  2
CONTINUOUS
 70
64
  3
____________________________________________
 72
65
 73
0
 40
0.0
  0
LTYPE
  2
HIDDEN
 70
64
  3
__ __ __ __ __ __ __ __ __ __ __ __ __ __ __
 72
65
 73
2
 40
0.50
 49
0.30
 49
-0.20
  0
LTYPE
  2
DASHDOT
 70
64
  3
____ _ ____ _ ____ _ ____ _ ____ _ ____ _ __
 72
65
 73
4
 40
2.0
 49
1.5
 49
-0.25
 49
0
 49
-0.25
  0
LTYPE
  2
DOT
 70
64
  3
............................................
 72
65
 73
2
 40
0.30
 49
0
 49
-0.30
  0
ENDTAB
  0
TABLE
  2
LAYER
 70
23
  0
LAYER
  2
SCHRAUBEN
 70
64
 62
7
  6
CONTINUOUS
  0
LAYER
  2
REST
 70
64
 62
7
  6
CONTINUOUS
  0
LAYER
  2
UNTERSCHRIFT
 70
64
 62
7
  6
CONTINUOUS
  0
LAYER
  2
TEILE
 70
64
 62
7
  6
CONTINUOUS
  0
LAYER
  2
BEZ_SCHRAUBEN
 70
64
 62
7
  6
CONTINUOUS
  0
LAYER
  2
MARKERPUNKTE
 70
64
 62
7
  6
CONTINUOUS
  0
LAYER
  2
HILFSPUNKTE
 70
64
 62
7
  6
CONTINUOUS
  0
LAYER
  2
PICKPUNKTE
 70
64
 62
7
  6
CONTINUOUS
  0
LAYER
  2
SCHWEISSEN
 70
64
 62
7
  6
CONTINUOUS
  0
LAYER
  2
GRAFIK
 70
64
 62
7
  6
CONTINUOUS
  0
LAYER
  2
BEM_FREI
 70
64
 62
7
  6
CONTINUOUS
  0
LAYER
  2
BEM_SYSTEM
 70
64
 62
7
  6
CONTINUOUS
  0
LAYER
  2
BEM_KONTUR
 70
64
 62
7
  6
CONTINUOUS
  0
LAYER
  2
BEM_ANBAU
 70
64
 62
7
  6
CONTINUOUS
  0
LAYER
  2
BEM_SCHRAUBEN
 70
64
 62
7
  6
CONTINUOUS
  0
LAYER
  2
BEM_SCHWEISSEN
 70
64
 62
7
  6
CONTINUOUS
  0
LAYER
  2
FREIER_TEXT
 70
64
 62
7
  6
CONTINUOUS
  0
LAYER
  2
BEZ_TEILE
 70
64
 62
7
  6
CONTINUOUS
  0
LAYER
  2
BEZ_SCHWEISSEN
 70
64
 62
7
  6
CONTINUOUS
  0
LAYER
  2
SCHRAFFUREN
 70
64
 62
7
  6
CONTINUOUS
  0
LAYER
  2
SCHNITTSYMBOL
 70
64
 62
7
  6
CONTINUOUS
  0
LAYER
  2
RASTER
 70
64
 62
7
  6
CONTINUOUS
  0
LAYER
  2
LISTEN
 70
64
 62
7
  6
CONTINUOUS
  0
LAYER
  2
RAHMEN
 70
64
 62
7
  6
CONTINUOUS
  0
ENDTAB
  0
TABLE
  2
STYLE
 70
1
  0
STYLE
  2
STANDARD
 70
64
 40
0
 41
1
 50
0.0
 71
0
 42
0.35
  3
ROMANS
  0
ENDTAB
  0
ENDSEC
  0
SECTION
  2
ENTITIES
  0
ARC
  8
SCHRAUBEN
 62
4
 10
60.000000
 20
79.999992
 40
14.500000
 50
540.000000
 51
360.000000
  0
LINE
  8
SCHRAUBEN
 62
4
 10
74.500000
 20
79.999992
 11
74.500000
 21
120.000000
  0
ARC
  8
SCHRAUBEN
 62
4
 10
60.000000
 20
120.000000
 40
14.500000
 50
360.000000
 51
540.000000
  0
LINE
  8
SCHRAUBEN
 62
4
 10
45.500000
 20
120.000000
 11
45.500000
 21
79.999992
  0
LINE
  8
SCHRAUBEN
 62
6
 10
65.800003
 20
85.800003
 11
54.200001
 21
74.199997
  0
LINE
  8
SCHRAUBEN
 62
6
 10
54.200001
 20
85.800003
 11
65.800003
 21
74.199997
  0
LINE
  8
SCHRAUBEN
 62
6
 10
65.800003
 20
125.800003
 11
54.200001
 21
114.199997
  0
LINE
  8
SCHRAUBEN
 62
6
 10
54.200001
 20
125.800003
 11
65.800003
 21
114.199997
  0
ARC
  8
SCHRAUBEN
 62
4
 10
240.000000
 20
79.999992
 40
14.500000
 50
540.000000
 51
360.000000
  0
LINE
  8
SCHRAUBEN
 62
4
 10
254.500000
 20
79.999992
 11
254.500000
 21
120.000000
  0
ARC
  8
SCHRAUBEN
 62
4
 10
240.000000
 20
120.000000
 40
14.500000
 50
360.000000
 51
540.000000
  0
LINE
  8
SCHRAUBEN
 62
4
 10
225.500000
 20
120.000000
 11
225.500000
 21
79.999992
  0
LINE
  8
SCHRAUBEN
 62
6
 10
245.800003
 20
85.800003
 11
234.199997
 21
74.199997
  0
LINE
  8
SCHRAUBEN
 62
6
 10
234.199997
 20
85.800003
 11
245.800003
 21
74.199997
  0
LINE
  8
SCHRAUBEN
 62
6
 10
245.800003
 20
125.800003
 11
234.199997
 21
114.199997
  0
LINE
  8
SCHRAUBEN
 62
6
 10
234.199997
 20
125.800003
 11
245.800003
 21
114.199997
  0
ARC
  8
SCHRAUBEN
 62
4
 10
240.000000
 20
-120.000008
 40
14.500000
 50
540.000000
 51
360.000000
  0
LINE
  8
SCHRAUBEN
 62
4
 10
254.500000
 20
-120.000008
 11
254.500000
 21
-80.000008
  0
ARC
  8
SCHRAUBEN
 62
4
 10
240.000000
 20
-80.000008
 40
14.500000
 50
360.000000
 51
540.000000
  0
LINE
  8
SCHRAUBEN
 62
4
 10
225.500000
 20
-80.000008
 11
225.500000
 21
-120.000008
  0
LINE
  8
SCHRAUBEN
 62
6
 10
245.800003
 20
-114.200012
 11
234.199997
 21
-125.800011
  0
LINE
  8
SCHRAUBEN
 62
6
 10
234.199997
 20
-114.200012
 11
245.800003
 21
-125.800011
  0
LINE
  8
SCHRAUBEN
 62
6
 10
245.800003
 20
-74.200012
 11
234.199997
 21
-85.800011
  0
LINE
  8
SCHRAUBEN
 62
6
 10
234.199997
 20
-74.200012
 11
245.800003
 21
-85.800011
  0
ARC
  8
SCHRAUBEN
 62
4
 10
60.000000
 20
-120.000008
 40
14.500000
 50
540.000000
 51
360.000000
  0
LINE
  8
SCHRAUBEN
 62
4
 10
74.500000
 20
-120.000008
 11
74.500000
 21
-80.000008
  0
ARC
  8
SCHRAUBEN
 62
4
 10
60.000000
 20
-80.000008
 40
14.500000
 50
360.000000
 51
540.000000
  0
LINE
  8
SCHRAUBEN
 62
4
 10
45.500000
 20
-80.000008
 11
45.500000
 21
-120.000008
  0
LINE
  8
SCHRAUBEN
 62
6
 10
65.800003
 20
-114.200012
 11
54.200001
 21
-125.800011
  0
LINE
  8
SCHRAUBEN
 62
6
 10
54.200001
 20
-114.200012
 11
65.800003
 21
-125.800011
  0
LINE
  8
SCHRAUBEN
 62
6
 10
65.800003
 20
-74.200012
 11
54.200001
 21
-85.800011
  0
LINE
  8
SCHRAUBEN
 62
6
 10
54.200001
 20
-74.200012
 11
65.800003
 21
-85.800011
  0
TEXT
 8
UNTERSCHRIFT
 62
2
 10
5.250000
 20
-79.300003
 40
3.250000
 50
89.999931
 41
0.800000
 51
15.000000
  1
Project  DP0GN9  ,Qty. 15  , Pos. 
  0
TEXT
 8
UNTERSCHRIFT
 62
2
 10
5.250000
 20
22.099995
 40
3.250000
 50
89.999931
 41
0.800000
 51
15.000000
  1
  , Profi l PL350*20
  0
TEXT
 8
UNTERSCHRIFT
 62
2
 10
5.250000
 20
9.099995
 40
3.250000
 50
89.999931
 41
0.800000
 51
15.000000
  1
10387
  0
LINE
  8
TEILE
 62
2
 10
0.000000
 20
175.000000
 11
300.000000
 21
175.000000
  0
LINE
  8
TEILE
 62
2
 10
300.000000
 20
175.000000
 11
300.000000
 21
-175.000000
  0
LINE
  8
TEILE
 62
2
 10
300.000000
 20
-175.000000
 11
0.000000
 21
-175.000000
  0
LINE
  8
TEILE
 62
2
 10
0.000000
 20
-175.000000
 11
0.000000
 21
175.000000
  0
TEXT
 8
BEZ_SCHRAUBEN
 62
2
 10
52.000000
 20
57.999996
 40
5.000000
 41
0.800000
 51
15.000000
  1
 ø29
  0
ENDSEC
  0
EOF

