999
     *******************************************
999
     BOCAD Software GmbH   Rev.18.000   0202.22
999
     Filename:   c:\progetti21\danieli_aqs\b4\temp_61\10389.dxf
999
     Creator:    bocad
999
     Date:       20.01.2016
999
     Factor:     10.000000
999
     *******************************************
  0
SECTION
  2
HEADER
  9
$DWGCODEPAGE
  3
ANSI_1252
  9
$INSBASE
 10
0.0
 20
0.0
 30
0.0
  9
$EXTMIN
 10
-0.499990
 20
-174.499989
  9
$EXTMAX
 10
432.999992
 20
174.499989
  9
$LIMMIN
 10
-1.499990
 20
-175.499989
  9
$LIMMAX
 10
433.999992
 20
175.499989
  9
$LTSCALE
 40
10.000000
  0
ENDSEC
  0
SECTION
  2
TABLES
  0
TABLE
  2
LTYPE
 70
4
  0
LTYPE
  2
CONTINUOUS
 70
64
  3
____________________________________________
 72
65
 73
0
 40
0.0
  0
LTYPE
  2
HIDDEN
 70
64
  3
__ __ __ __ __ __ __ __ __ __ __ __ __ __ __
 72
65
 73
2
 40
0.50
 49
0.30
 49
-0.20
  0
LTYPE
  2
DASHDOT
 70
64
  3
____ _ ____ _ ____ _ ____ _ ____ _ ____ _ __
 72
65
 73
4
 40
2.0
 49
1.5
 49
-0.25
 49
0
 49
-0.25
  0
LTYPE
  2
DOT
 70
64
  3
............................................
 72
65
 73
2
 40
0.30
 49
0
 49
-0.30
  0
ENDTAB
  0
TABLE
  2
LAYER
 70
23
  0
LAYER
  2
SCHRAUBEN
 70
64
 62
7
  6
CONTINUOUS
  0
LAYER
  2
REST
 70
64
 62
7
  6
CONTINUOUS
  0
LAYER
  2
UNTERSCHRIFT
 70
64
 62
7
  6
CONTINUOUS
  0
LAYER
  2
TEILE
 70
64
 62
7
  6
CONTINUOUS
  0
LAYER
  2
BEZ_SCHRAUBEN
 70
64
 62
7
  6
CONTINUOUS
  0
LAYER
  2
MARKERPUNKTE
 70
64
 62
7
  6
CONTINUOUS
  0
LAYER
  2
HILFSPUNKTE
 70
64
 62
7
  6
CONTINUOUS
  0
LAYER
  2
PICKPUNKTE
 70
64
 62
7
  6
CONTINUOUS
  0
LAYER
  2
SCHWEISSEN
 70
64
 62
7
  6
CONTINUOUS
  0
LAYER
  2
GRAFIK
 70
64
 62
7
  6
CONTINUOUS
  0
LAYER
  2
BEM_FREI
 70
64
 62
7
  6
CONTINUOUS
  0
LAYER
  2
BEM_SYSTEM
 70
64
 62
7
  6
CONTINUOUS
  0
LAYER
  2
BEM_KONTUR
 70
64
 62
7
  6
CONTINUOUS
  0
LAYER
  2
BEM_ANBAU
 70
64
 62
7
  6
CONTINUOUS
  0
LAYER
  2
BEM_SCHRAUBEN
 70
64
 62
7
  6
CONTINUOUS
  0
LAYER
  2
BEM_SCHWEISSEN
 70
64
 62
7
  6
CONTINUOUS
  0
LAYER
  2
FREIER_TEXT
 70
64
 62
7
  6
CONTINUOUS
  0
LAYER
  2
BEZ_TEILE
 70
64
 62
7
  6
CONTINUOUS
  0
LAYER
  2
BEZ_SCHWEISSEN
 70
64
 62
7
  6
CONTINUOUS
  0
LAYER
  2
SCHRAFFUREN
 70
64
 62
7
  6
CONTINUOUS
  0
LAYER
  2
SCHNITTSYMBOL
 70
64
 62
7
  6
CONTINUOUS
  0
LAYER
  2
RASTER
 70
64
 62
7
  6
CONTINUOUS
  0
LAYER
  2
LISTEN
 70
64
 62
7
  6
CONTINUOUS
  0
LAYER
  2
RAHMEN
 70
64
 62
7
  6
CONTINUOUS
  0
ENDTAB
  0
TABLE
  2
STYLE
 70
1
  0
STYLE
  2
STANDARD
 70
64
 40
0
 41
1
 50
0.0
 71
0
 42
0.35
  3
ROMANS
  0
ENDTAB
  0
ENDSEC
  0
SECTION
  2
ENTITIES
  0
LINE
  8
SCHRAUBEN
 62
6
 10
60.199986
 20
-8.800066
 11
49.799988
 21
-19.200068
  0
LINE
  8
SCHRAUBEN
 62
6
 10
49.799988
 20
-8.800066
 11
60.199986
 21
-19.200068
  0
CIRCLE
  8
SCHRAUBEN
 62
2
 10
54.999985
 20
-14.000067
 40
13.000000
  0
LINE
  8
SCHRAUBEN
 62
6
 10
60.199986
 20
-108.800064
 11
49.799988
 21
-119.200073
  0
LINE
  8
SCHRAUBEN
 62
6
 10
49.799988
 20
-108.800064
 11
60.199986
 21
-119.200073
  0
CIRCLE
  8
SCHRAUBEN
 62
2
 10
54.999985
 20
-114.000076
 40
13.000000
  0
LINE
  8
SCHRAUBEN
 62
6
 10
60.199986
 20
91.199944
 11
49.799988
 21
80.799934
  0
LINE
  8
SCHRAUBEN
 62
6
 10
49.799988
 20
91.199944
 11
60.199986
 21
80.799934
  0
CIRCLE
  8
SCHRAUBEN
 62
2
 10
54.999985
 20
85.999939
 40
13.000000
  0
LINE
  8
SCHRAUBEN
 62
6
 10
216.099701
 20
16.865961
 11
208.899689
 21
9.665960
  0
LINE
  8
SCHRAUBEN
 62
6
 10
208.899689
 20
16.865961
 11
216.099701
 21
9.665960
  0
CIRCLE
  8
SCHRAUBEN
 62
2
 10
212.499695
 20
13.265961
 40
9.000000
  0
LINE
  8
SCHRAUBEN
 62
6
 10
256.076111
 20
-13.165468
 11
248.876099
 21
-20.365467
  0
LINE
  8
SCHRAUBEN
 62
6
 10
248.876099
 20
-13.165468
 11
256.076111
 21
-20.365467
  0
CIRCLE
  8
SCHRAUBEN
 62
2
 10
252.476105
 20
-16.765469
 40
9.000000
  0
LINE
  8
SCHRAUBEN
 62
6
 10
391.899994
 20
133.399963
 11
383.100006
 21
124.599976
  0
LINE
  8
SCHRAUBEN
 62
6
 10
383.100006
 20
133.399963
 11
391.899994
 21
124.599976
  0
CIRCLE
  8
SCHRAUBEN
 62
2
 10
387.500000
 20
128.999969
 40
11.000000
  0
LINE
  8
SCHRAUBEN
 62
6
 10
311.899994
 20
133.399963
 11
303.100006
 21
124.599976
  0
LINE
  8
SCHRAUBEN
 62
6
 10
303.100006
 20
133.399963
 11
311.899994
 21
124.599976
  0
CIRCLE
  8
SCHRAUBEN
 62
2
 10
307.500000
 20
128.999969
 40
11.000000
  0
LINE
  8
SCHRAUBEN
 62
6
 10
231.900009
 20
133.399963
 11
223.099991
 21
124.599976
  0
LINE
  8
SCHRAUBEN
 62
6
 10
223.099991
 20
133.399963
 11
231.900009
 21
124.599976
  0
CIRCLE
  8
SCHRAUBEN
 62
2
 10
227.500000
 20
128.999969
 40
11.000000
  0
TEXT
 8
UNTERSCHRIFT
 62
2
 10
243.394333
 20
-98.100136
 40
3.249999
 50
44.355362
 41
0.800000
 51
15.000000
  1
Project  DP0GN9  ,Qty. 5  , Pos. 
  0
TEXT
 8
UNTERSCHRIFT
 62
2
 10
314.038086
 20
-29.028423
 40
3.250000
 50
44.355293
 41
0.800001
 51
15.000000
  1
  , Profi l PL348*10
  0
TEXT
 8
UNTERSCHRIFT
 62
2
 10
304.742859
 20
-38.116806
 40
3.250000
 50
44.355370
 41
0.800000
 51
15.000000
  1
10389
  0
LINE
  8
TEILE
 62
2
 10
168.627838
 20
-174.000000
 11
0.000010
 21
-174.000000
  0
LINE
  8
TEILE
 62
2
 10
0.000010
 20
-174.000000
 11
0.000010
 21
174.000000
  0
LINE
  8
TEILE
 62
2
 10
0.000010
 20
174.000000
 11
432.500000
 21
174.000000
  0
LINE
  8
TEILE
 62
2
 10
432.500000
 20
174.000000
 11
432.500000
 21
84.000259
  0
LINE
  8
TEILE
 62
2
 10
432.500000
 20
84.000259
 11
168.627838
 21
-174.000000
  0
TEXT
 8
BEZ_SCHRAUBEN
 62
2
 10
46.999985
 20
-34.500069
 40
5.000000
 41
0.800000
 51
15.000000
  1
 ø26
  0
TEXT
 8
BEZ_SCHRAUBEN
 62
2
 10
46.999985
 20
-134.500076
 40
5.000000
 41
0.800000
 51
15.000000
  1
 ø26
  0
TEXT
 8
BEZ_SCHRAUBEN
 62
2
 10
46.999985
 20
65.499939
 40
5.000000
 41
0.800000
 51
15.000000
  1
 ø26
  0
TEXT
 8
BEZ_SCHRAUBEN
 62
2
 10
204.499695
 20
-3.234040
 40
5.000000
 41
0.800000
 51
15.000000
  1
 ø18
  0
TEXT
 8
BEZ_SCHRAUBEN
 62
2
 10
244.476105
 20
-33.265469
 40
5.000000
 41
0.800000
 51
15.000000
  1
 ø18
  0
TEXT
 8
BEZ_SCHRAUBEN
 62
2
 10
379.500000
 20
110.499962
 40
5.000000
 41
0.800000
 51
15.000000
  1
 ø22
  0
TEXT
 8
BEZ_SCHRAUBEN
 62
2
 10
299.500000
 20
110.499962
 40
5.000000
 41
0.800000
 51
15.000000
  1
 ø22
  0
TEXT
 8
BEZ_SCHRAUBEN
 62
2
 10
219.500000
 20
110.499962
 40
5.000000
 41
0.800000
 51
15.000000
  1
 ø22
  0
ENDSEC
  0
EOF

