999
     *******************************************
999
     BOCAD Software GmbH   Rev.18.000   0202.22
999
     Filename:   c:\progetti21\danieli_aqs\b4\temp_61\10390.dxf
999
     Creator:    bocad
999
     Date:       20.01.2016
999
     Factor:     10.000000
999
     *******************************************
  0
SECTION
  2
HEADER
  9
$DWGCODEPAGE
  3
ANSI_1252
  9
$INSBASE
 10
0.0
 20
0.0
 30
0.0
  9
$EXTMIN
 10
-0.500000
 20
-153.302956
  9
$EXTMAX
 10
579.587631
 20
153.302956
  9
$LIMMIN
 10
-1.500000
 20
-154.302956
  9
$LIMMAX
 10
580.587631
 20
154.302956
  9
$LTSCALE
 40
10.000000
  0
ENDSEC
  0
SECTION
  2
TABLES
  0
TABLE
  2
LTYPE
 70
4
  0
LTYPE
  2
CONTINUOUS
 70
64
  3
____________________________________________
 72
65
 73
0
 40
0.0
  0
LTYPE
  2
HIDDEN
 70
64
  3
__ __ __ __ __ __ __ __ __ __ __ __ __ __ __
 72
65
 73
2
 40
0.50
 49
0.30
 49
-0.20
  0
LTYPE
  2
DASHDOT
 70
64
  3
____ _ ____ _ ____ _ ____ _ ____ _ ____ _ __
 72
65
 73
4
 40
2.0
 49
1.5
 49
-0.25
 49
0
 49
-0.25
  0
LTYPE
  2
DOT
 70
64
  3
............................................
 72
65
 73
2
 40
0.30
 49
0
 49
-0.30
  0
ENDTAB
  0
TABLE
  2
LAYER
 70
23
  0
LAYER
  2
SCHRAUBEN
 70
64
 62
7
  6
CONTINUOUS
  0
LAYER
  2
REST
 70
64
 62
7
  6
CONTINUOUS
  0
LAYER
  2
UNTERSCHRIFT
 70
64
 62
7
  6
CONTINUOUS
  0
LAYER
  2
TEILE
 70
64
 62
7
  6
CONTINUOUS
  0
LAYER
  2
BEZ_SCHRAUBEN
 70
64
 62
7
  6
CONTINUOUS
  0
LAYER
  2
MARKERPUNKTE
 70
64
 62
7
  6
CONTINUOUS
  0
LAYER
  2
HILFSPUNKTE
 70
64
 62
7
  6
CONTINUOUS
  0
LAYER
  2
PICKPUNKTE
 70
64
 62
7
  6
CONTINUOUS
  0
LAYER
  2
SCHWEISSEN
 70
64
 62
7
  6
CONTINUOUS
  0
LAYER
  2
GRAFIK
 70
64
 62
7
  6
CONTINUOUS
  0
LAYER
  2
BEM_FREI
 70
64
 62
7
  6
CONTINUOUS
  0
LAYER
  2
BEM_SYSTEM
 70
64
 62
7
  6
CONTINUOUS
  0
LAYER
  2
BEM_KONTUR
 70
64
 62
7
  6
CONTINUOUS
  0
LAYER
  2
BEM_ANBAU
 70
64
 62
7
  6
CONTINUOUS
  0
LAYER
  2
BEM_SCHRAUBEN
 70
64
 62
7
  6
CONTINUOUS
  0
LAYER
  2
BEM_SCHWEISSEN
 70
64
 62
7
  6
CONTINUOUS
  0
LAYER
  2
FREIER_TEXT
 70
64
 62
7
  6
CONTINUOUS
  0
LAYER
  2
BEZ_TEILE
 70
64
 62
7
  6
CONTINUOUS
  0
LAYER
  2
BEZ_SCHWEISSEN
 70
64
 62
7
  6
CONTINUOUS
  0
LAYER
  2
SCHRAFFUREN
 70
64
 62
7
  6
CONTINUOUS
  0
LAYER
  2
SCHNITTSYMBOL
 70
64
 62
7
  6
CONTINUOUS
  0
LAYER
  2
RASTER
 70
64
 62
7
  6
CONTINUOUS
  0
LAYER
  2
LISTEN
 70
64
 62
7
  6
CONTINUOUS
  0
LAYER
  2
RAHMEN
 70
64
 62
7
  6
CONTINUOUS
  0
ENDTAB
  0
TABLE
  2
STYLE
 70
1
  0
STYLE
  2
STANDARD
 70
64
 40
0
 41
1
 50
0.0
 71
0
 42
0.35
  3
ROMANS
  0
ENDTAB
  0
ENDSEC
  0
SECTION
  2
ENTITIES
  0
LINE
  8
SCHRAUBEN
 62
6
 10
131.138885
 20
45.135399
 11
120.738869
 21
34.735397
  0
LINE
  8
SCHRAUBEN
 62
6
 10
120.738869
 20
45.135399
 11
131.138885
 21
34.735397
  0
CIRCLE
  8
SCHRAUBEN
 62
2
 10
125.938873
 20
39.935398
 40
13.000000
  0
LINE
  8
SCHRAUBEN
 62
6
 10
76.254158
 20
88.582695
 11
65.854156
 21
78.182693
  0
LINE
  8
SCHRAUBEN
 62
6
 10
65.854156
 20
88.582695
 11
76.254158
 21
78.182693
  0
CIRCLE
  8
SCHRAUBEN
 62
2
 10
71.054161
 20
83.382690
 40
12.999992
  0
LINE
  8
SCHRAUBEN
 62
6
 10
186.073914
 20
-108.402969
 11
177.273895
 21
-117.202957
  0
LINE
  8
SCHRAUBEN
 62
6
 10
177.273895
 20
-108.402969
 11
186.073914
 21
-117.202957
  0
CIRCLE
  8
SCHRAUBEN
 62
2
 10
181.673904
 20
-112.802963
 40
11.000015
  0
LINE
  8
SCHRAUBEN
 62
6
 10
396.073883
 20
-108.402969
 11
387.273895
 21
-117.202957
  0
LINE
  8
SCHRAUBEN
 62
6
 10
387.273895
 20
-108.402969
 11
396.073883
 21
-117.202957
  0
CIRCLE
  8
SCHRAUBEN
 62
2
 10
391.673889
 20
-112.802963
 40
11.000000
  0
LINE
  8
SCHRAUBEN
 62
6
 10
256.073914
 20
-108.402969
 11
247.273895
 21
-117.202957
  0
LINE
  8
SCHRAUBEN
 62
6
 10
247.273895
 20
-108.402969
 11
256.073914
 21
-117.202957
  0
CIRCLE
  8
SCHRAUBEN
 62
2
 10
251.673904
 20
-112.802963
 40
11.000015
  0
LINE
  8
SCHRAUBEN
 62
6
 10
326.073883
 20
-108.402969
 11
317.273895
 21
-117.202957
  0
LINE
  8
SCHRAUBEN
 62
6
 10
317.273895
 20
-108.402969
 11
326.073883
 21
-117.202957
  0
CIRCLE
  8
SCHRAUBEN
 62
2
 10
321.673889
 20
-112.802963
 40
11.000000
  0
LINE
  8
SCHRAUBEN
 62
6
 10
513.316711
 20
80.953888
 11
502.916687
 21
70.553879
  0
LINE
  8
SCHRAUBEN
 62
6
 10
502.916687
 20
80.953888
 11
513.316711
 21
70.553879
  0
CIRCLE
  8
SCHRAUBEN
 62
2
 10
508.116699
 20
75.753876
 40
13.000000
  0
LINE
  8
SCHRAUBEN
 62
6
 10
456.949097
 20
39.448540
 11
446.549072
 21
29.048540
  0
LINE
  8
SCHRAUBEN
 62
6
 10
446.549072
 20
39.448540
 11
456.949097
 21
29.048540
  0
CIRCLE
  8
SCHRAUBEN
 62
2
 10
451.749084
 20
34.248539
 40
13.000000
  0
TEXT
 8
UNTERSCHRIFT
 62
2
 10
453.828918
 20
-43.302761
 40
3.250003
 50
43.334743
 41
0.799998
 51
15.000000
  1
Project  DP0GN9  ,Qty. 10  , Pos. 
  0
TEXT
 8
UNTERSCHRIFT
 62
2
 10
527.582947
 20
26.283892
 40
3.250003
 50
43.334743
 41
0.799998
 51
15.000000
  1
  , Profi l PL306*10
  0
TEXT
 8
UNTERSCHRIFT
 62
2
 10
518.127319
 20
17.362526
 40
3.250003
 50
43.334747
 41
0.799998
 51
15.000000
  1
10390
  0
LINE
  8
TEILE
 62
2
 10
446.674164
 20
-152.802948
 11
126.673653
 21
-152.802948
  0
LINE
  8
TEILE
 62
2
 10
126.673653
 20
-152.802948
 11
126.673668
 21
-52.802959
  0
LINE
  8
TEILE
 62
2
 10
126.673668
 20
-52.802959
 11
0.000000
 21
82.236778
  0
LINE
  8
TEILE
 62
2
 10
0.000000
 20
82.236778
 11
55.860901
 21
152.802948
  0
LINE
  8
TEILE
 62
2
 10
55.860901
 20
152.802948
 11
245.567612
 21
108.743866
  0
LINE
  8
TEILE
 62
2
 10
245.567612
 20
108.743866
 11
247.953964
 21
108.204994
  0
LINE
  8
TEILE
 62
2
 10
247.953964
 20
108.204994
 11
250.346771
 21
107.695351
  0
LINE
  8
TEILE
 62
2
 10
250.346771
 20
107.695351
 11
252.745605
 21
107.215012
  0
LINE
  8
TEILE
 62
2
 10
252.745605
 20
107.215012
 11
255.150162
 21
106.764061
  0
LINE
  8
TEILE
 62
2
 10
255.150162
 20
106.764061
 11
257.560059
 21
106.342552
  0
LINE
  8
TEILE
 62
2
 10
257.560059
 20
106.342552
 11
259.974915
 21
105.950546
  0
LINE
  8
TEILE
 62
2
 10
259.974915
 20
105.950546
 11
262.394379
 21
105.588120
  0
LINE
  8
TEILE
 62
2
 10
262.394379
 20
105.588120
 11
264.818085
 21
105.255310
  0
LINE
  8
TEILE
 62
2
 10
264.818085
 20
105.255310
 11
267.245728
 21
104.952171
  0
LINE
  8
TEILE
 62
2
 10
267.245728
 20
104.952171
 11
269.676849
 21
104.678757
  0
LINE
  8
TEILE
 62
2
 10
269.676849
 20
104.678757
 11
272.111176
 21
104.435089
  0
LINE
  8
TEILE
 62
2
 10
272.111176
 20
104.435089
 11
274.548279
 21
104.221222
  0
LINE
  8
TEILE
 62
2
 10
274.548279
 20
104.221222
 11
276.987793
 21
104.037186
  0
LINE
  8
TEILE
 62
2
 10
276.987793
 20
104.037186
 11
279.429382
 21
103.882996
  0
LINE
  8
TEILE
 62
2
 10
279.429382
 20
103.882996
 11
281.872711
 21
103.758698
  0
LINE
  8
TEILE
 62
2
 10
281.872711
 20
103.758698
 11
284.317352
 21
103.664284
  0
LINE
  8
TEILE
 62
2
 10
284.317352
 20
103.664284
 11
286.762970
 21
103.599777
  0
LINE
  8
TEILE
 62
2
 10
286.762970
 20
103.599777
 11
289.209198
 21
103.565201
  0
LINE
  8
TEILE
 62
2
 10
289.209198
 20
103.565201
 11
291.655640
 21
103.560547
  0
LINE
  8
TEILE
 62
2
 10
291.655640
 20
103.560547
 11
294.101990
 21
103.585815
  0
LINE
  8
TEILE
 62
2
 10
294.101990
 20
103.585815
 11
296.547821
 21
103.641006
  0
LINE
  8
TEILE
 62
2
 10
296.547821
 20
103.641006
 11
298.992828
 21
103.726112
  0
LINE
  8
TEILE
 62
2
 10
298.992828
 20
103.726112
 11
301.436584
 21
103.841110
  0
LINE
  8
TEILE
 62
2
 10
301.436584
 20
103.841110
 11
303.878754
 21
103.986008
  0
LINE
  8
TEILE
 62
2
 10
303.878754
 20
103.986008
 11
306.319000
 21
104.160759
  0
LINE
  8
TEILE
 62
2
 10
306.319000
 20
104.160759
 11
308.756897
 21
104.365349
  0
LINE
  8
TEILE
 62
2
 10
308.756897
 20
104.365349
 11
311.192078
 21
104.599747
  0
LINE
  8
TEILE
 62
2
 10
311.192078
 20
104.599747
 11
313.624268
 21
104.863907
  0
LINE
  8
TEILE
 62
2
 10
313.624268
 20
104.863907
 11
316.053009
 21
105.157806
  0
LINE
  8
TEILE
 62
2
 10
316.053009
 20
105.157806
 11
318.477997
 21
105.481384
  0
LINE
  8
TEILE
 62
2
 10
318.477997
 20
105.481384
 11
320.898804
 21
105.834610
  0
LINE
  8
TEILE
 62
2
 10
320.898804
 20
105.834610
 11
323.315155
 21
106.217415
  0
LINE
  8
TEILE
 62
2
 10
323.315155
 20
106.217415
 11
325.726624
 21
106.629745
  0
LINE
  8
TEILE
 62
2
 10
325.726624
 20
106.629745
 11
328.132874
 21
107.071541
  0
LINE
  8
TEILE
 62
2
 10
328.132874
 20
107.071541
 11
328.133087
 21
107.071594
  0
LINE
  8
TEILE
 62
2
 10
328.133087
 20
107.071594
 11
525.723816
 21
144.601242
  0
LINE
  8
TEILE
 62
2
 10
525.723816
 20
144.601242
 11
579.087646
 21
72.128670
  0
LINE
  8
TEILE
 62
2
 10
579.087646
 20
72.128670
 11
446.674164
 21
-52.802959
  0
LINE
  8
TEILE
 62
2
 10
446.674164
 20
-52.802959
 11
446.674164
 21
-152.802948
  0
TEXT
 8
BEZ_SCHRAUBEN
 62
2
 10
117.938873
 20
19.435398
 40
5.000000
 41
0.800000
 51
15.000000
  1
 ø26
  0
TEXT
 8
BEZ_SCHRAUBEN
 62
2
 10
63.054161
 20
62.882698
 40
5.000000
 41
0.800000
 51
15.000000
  1
 ø26
  0
TEXT
 8
BEZ_SCHRAUBEN
 62
2
 10
173.673920
 20
-131.302963
 40
5.000000
 41
0.800000
 51
15.000000
  1
 ø22
  0
TEXT
 8
BEZ_SCHRAUBEN
 62
2
 10
383.673889
 20
-131.302963
 40
5.000000
 41
0.800000
 51
15.000000
  1
 ø22
  0
TEXT
 8
BEZ_SCHRAUBEN
 62
2
 10
243.673920
 20
-131.302963
 40
5.000000
 41
0.800000
 51
15.000000
  1
 ø22
  0
TEXT
 8
BEZ_SCHRAUBEN
 62
2
 10
313.673889
 20
-131.302963
 40
5.000000
 41
0.800000
 51
15.000000
  1
 ø22
  0
TEXT
 8
BEZ_SCHRAUBEN
 62
2
 10
500.116699
 20
55.253872
 40
5.000000
 41
0.800000
 51
15.000000
  1
 ø26
  0
TEXT
 8
BEZ_SCHRAUBEN
 62
2
 10
443.749084
 20
13.748540
 40
5.000000
 41
0.800000
 51
15.000000
  1
 ø26
  0
ENDSEC
  0
EOF

