999
     *******************************************
999
     BOCAD Software GmbH   Rev.18.000   0202.22
999
     Filename:   c:\progetti21\danieli_aqs\b4\temp_61\10405.dxf
999
     Creator:    bocad
999
     Date:       20.01.2016
999
     Factor:     10.000000
999
     *******************************************
  0
SECTION
  2
HEADER
  9
$DWGCODEPAGE
  3
ANSI_1252
  9
$INSBASE
 10
0.0
 20
0.0
 30
0.0
  9
$EXTMIN
 10
-0.500000
 20
-70.500016
  9
$EXTMAX
 10
300.499992
 20
70.500016
  9
$LIMMIN
 10
-1.500000
 20
-71.500016
  9
$LIMMAX
 10
301.499992
 20
71.500016
  9
$LTSCALE
 40
10.000000
  0
ENDSEC
  0
SECTION
  2
TABLES
  0
TABLE
  2
LTYPE
 70
4
  0
LTYPE
  2
CONTINUOUS
 70
64
  3
____________________________________________
 72
65
 73
0
 40
0.0
  0
LTYPE
  2
HIDDEN
 70
64
  3
__ __ __ __ __ __ __ __ __ __ __ __ __ __ __
 72
65
 73
2
 40
0.50
 49
0.30
 49
-0.20
  0
LTYPE
  2
DASHDOT
 70
64
  3
____ _ ____ _ ____ _ ____ _ ____ _ ____ _ __
 72
65
 73
4
 40
2.0
 49
1.5
 49
-0.25
 49
0
 49
-0.25
  0
LTYPE
  2
DOT
 70
64
  3
............................................
 72
65
 73
2
 40
0.30
 49
0
 49
-0.30
  0
ENDTAB
  0
TABLE
  2
LAYER
 70
23
  0
LAYER
  2
SCHRAUBEN
 70
64
 62
7
  6
CONTINUOUS
  0
LAYER
  2
REST
 70
64
 62
7
  6
CONTINUOUS
  0
LAYER
  2
UNTERSCHRIFT
 70
64
 62
7
  6
CONTINUOUS
  0
LAYER
  2
TEILE
 70
64
 62
7
  6
CONTINUOUS
  0
LAYER
  2
BEZ_SCHRAUBEN
 70
64
 62
7
  6
CONTINUOUS
  0
LAYER
  2
MARKERPUNKTE
 70
64
 62
7
  6
CONTINUOUS
  0
LAYER
  2
HILFSPUNKTE
 70
64
 62
7
  6
CONTINUOUS
  0
LAYER
  2
PICKPUNKTE
 70
64
 62
7
  6
CONTINUOUS
  0
LAYER
  2
SCHWEISSEN
 70
64
 62
7
  6
CONTINUOUS
  0
LAYER
  2
GRAFIK
 70
64
 62
7
  6
CONTINUOUS
  0
LAYER
  2
BEM_FREI
 70
64
 62
7
  6
CONTINUOUS
  0
LAYER
  2
BEM_SYSTEM
 70
64
 62
7
  6
CONTINUOUS
  0
LAYER
  2
BEM_KONTUR
 70
64
 62
7
  6
CONTINUOUS
  0
LAYER
  2
BEM_ANBAU
 70
64
 62
7
  6
CONTINUOUS
  0
LAYER
  2
BEM_SCHRAUBEN
 70
64
 62
7
  6
CONTINUOUS
  0
LAYER
  2
BEM_SCHWEISSEN
 70
64
 62
7
  6
CONTINUOUS
  0
LAYER
  2
FREIER_TEXT
 70
64
 62
7
  6
CONTINUOUS
  0
LAYER
  2
BEZ_TEILE
 70
64
 62
7
  6
CONTINUOUS
  0
LAYER
  2
BEZ_SCHWEISSEN
 70
64
 62
7
  6
CONTINUOUS
  0
LAYER
  2
SCHRAFFUREN
 70
64
 62
7
  6
CONTINUOUS
  0
LAYER
  2
SCHNITTSYMBOL
 70
64
 62
7
  6
CONTINUOUS
  0
LAYER
  2
RASTER
 70
64
 62
7
  6
CONTINUOUS
  0
LAYER
  2
LISTEN
 70
64
 62
7
  6
CONTINUOUS
  0
LAYER
  2
RAHMEN
 70
64
 62
7
  6
CONTINUOUS
  0
ENDTAB
  0
TABLE
  2
STYLE
 70
1
  0
STYLE
  2
STANDARD
 70
64
 40
0
 41
1
 50
0.0
 71
0
 42
0.35
  3
ROMANS
  0
ENDTAB
  0
ENDSEC
  0
SECTION
  2
ENTITIES
  0
LINE
  8
SCHRAUBEN
 62
6
 10
86.400543
 20
6.406538
 11
73.600548
 21
-6.393462
  0
LINE
  8
SCHRAUBEN
 62
6
 10
73.600548
 20
6.406538
 11
86.400543
 21
-6.393462
  0
CIRCLE
  8
SCHRAUBEN
 62
2
 10
80.000542
 20
0.006538
 40
16.000008
  0
LINE
  8
SCHRAUBEN
 62
6
 10
226.399994
 20
6.406538
 11
213.600006
 21
-6.393462
  0
LINE
  8
SCHRAUBEN
 62
6
 10
213.600006
 20
6.406538
 11
226.399994
 21
-6.393462
  0
CIRCLE
  8
SCHRAUBEN
 62
2
 10
220.000000
 20
0.006538
 40
16.000000
  0
TEXT
 8
UNTERSCHRIFT
 62
2
 10
70.700005
 20
64.750015
 40
3.250000
 41
0.800000
 51
15.000000
  1
Project  DP0GN9  ,Qty. 15  , Pos. 
  0
TEXT
 8
UNTERSCHRIFT
 62
2
 10
172.100006
 20
64.750015
 40
3.250000
 41
0.800000
 51
15.000000
  1
  , Profi l PL140*20
  0
TEXT
 8
UNTERSCHRIFT
 62
2
 10
159.100006
 20
64.750015
 40
3.250000
 41
0.799999
 51
15.000000
  1
10405
  0
LINE
  8
TEILE
 62
2
 10
300.000000
 20
10.000014
 11
300.000000
 21
-70.000015
  0
LINE
  8
TEILE
 62
2
 10
300.000000
 20
-70.000015
 11
-0.000000
 21
-70.000015
  0
LINE
  8
TEILE
 62
2
 10
-0.000000
 20
-70.000015
 11
-0.000000
 21
10.000014
  0
LINE
  8
TEILE
 62
2
 10
-0.000000
 20
10.000014
 11
0.033511
 21
12.004906
  0
LINE
  8
TEILE
 62
2
 10
0.033511
 20
12.004906
 11
0.133992
 21
14.007570
  0
LINE
  8
TEILE
 62
2
 10
0.133992
 20
14.007570
 11
0.301336
 21
16.005760
  0
LINE
  8
TEILE
 62
2
 10
0.301336
 20
16.005760
 11
0.535357
 21
17.997240
  0
LINE
  8
TEILE
 62
2
 10
0.535357
 20
17.997240
 11
0.835792
 21
19.979788
  0
LINE
  8
TEILE
 62
2
 10
0.835792
 20
19.979788
 11
1.202306
 21
21.951191
  0
LINE
  8
TEILE
 62
2
 10
1.202306
 20
21.951191
 11
1.634490
 21
23.909245
  0
LINE
  8
TEILE
 62
2
 10
1.634490
 20
23.909245
 11
2.131862
 21
25.851765
  0
LINE
  8
TEILE
 62
2
 10
2.131862
 20
25.851765
 11
2.693865
 21
27.776581
  0
LINE
  8
TEILE
 62
2
 10
2.693865
 20
27.776581
 11
3.319872
 21
29.681540
  0
LINE
  8
TEILE
 62
2
 10
3.319872
 20
29.681540
 11
4.009183
 21
31.564520
  0
LINE
  8
TEILE
 62
2
 10
4.009183
 20
31.564520
 11
4.761030
 21
33.423412
  0
LINE
  8
TEILE
 62
2
 10
4.761030
 20
33.423412
 11
5.574572
 21
35.256145
  0
LINE
  8
TEILE
 62
2
 10
5.574572
 20
35.256145
 11
6.448900
 21
37.060669
  0
LINE
  8
TEILE
 62
2
 10
6.448900
 20
37.060669
 11
7.383039
 21
38.834972
  0
LINE
  8
TEILE
 62
2
 10
7.383039
 20
38.834972
 11
8.375944
 21
40.577068
  0
LINE
  8
TEILE
 62
2
 10
8.375944
 20
40.577068
 11
9.426507
 21
42.285011
  0
LINE
  8
TEILE
 62
2
 10
9.426507
 20
42.285011
 11
10.533554
 21
43.956902
  0
LINE
  8
TEILE
 62
2
 10
10.533554
 20
43.956902
 11
11.695850
 21
45.590862
  0
LINE
  8
TEILE
 62
2
 10
11.695850
 20
45.590862
 11
12.912094
 21
47.185074
  0
LINE
  8
TEILE
 62
2
 10
12.912094
 20
47.185074
 11
14.180931
 21
48.737755
  0
LINE
  8
TEILE
 62
2
 10
14.180931
 20
48.737755
 11
15.500942
 21
50.247169
  0
LINE
  8
TEILE
 62
2
 10
15.500942
 20
50.247169
 11
16.870653
 21
51.711632
  0
LINE
  8
TEILE
 62
2
 10
16.870653
 20
51.711632
 11
18.288534
 21
53.129505
  0
LINE
  8
TEILE
 62
2
 10
18.288534
 20
53.129505
 11
19.753002
 21
54.499210
  0
LINE
  8
TEILE
 62
2
 10
19.753002
 20
54.499210
 11
21.262421
 21
55.819221
  0
LINE
  8
TEILE
 62
2
 10
21.262421
 20
55.819221
 11
22.815104
 21
57.088051
  0
LINE
  8
TEILE
 62
2
 10
22.815104
 20
57.088051
 11
24.409321
 21
58.304291
  0
LINE
  8
TEILE
 62
2
 10
24.409321
 20
58.304291
 11
26.043283
 21
59.466583
  0
LINE
  8
TEILE
 62
2
 10
26.043283
 20
59.466583
 11
27.715176
 21
60.573620
  0
LINE
  8
TEILE
 62
2
 10
27.715176
 20
60.573620
 11
29.423124
 21
61.624180
  0
LINE
  8
TEILE
 62
2
 10
29.423124
 20
61.624180
 11
31.165226
 21
62.617077
  0
LINE
  8
TEILE
 62
2
 10
31.165226
 20
62.617077
 11
32.939529
 21
63.551212
  0
LINE
  8
TEILE
 62
2
 10
32.939529
 20
63.551212
 11
34.744057
 21
64.425529
  0
LINE
  8
TEILE
 62
2
 10
34.744057
 20
64.425529
 11
36.576794
 21
65.239067
  0
LINE
  8
TEILE
 62
2
 10
36.576794
 20
65.239067
 11
38.435684
 21
65.990906
  0
LINE
  8
TEILE
 62
2
 10
38.435684
 20
65.990906
 11
40.318657
 21
66.680206
  0
LINE
  8
TEILE
 62
2
 10
40.318657
 20
66.680206
 11
42.223610
 21
67.306206
  0
LINE
  8
TEILE
 62
2
 10
42.223610
 20
67.306206
 11
44.148422
 21
67.868202
  0
LINE
  8
TEILE
 62
2
 10
44.148422
 20
67.868202
 11
46.090935
 21
68.365562
  0
LINE
  8
TEILE
 62
2
 10
46.090935
 20
68.365562
 11
48.048988
 21
68.797745
  0
LINE
  8
TEILE
 62
2
 10
48.048988
 20
68.797745
 11
50.020378
 21
69.164253
  0
LINE
  8
TEILE
 62
2
 10
50.020378
 20
69.164253
 11
52.002926
 21
69.464676
  0
LINE
  8
TEILE
 62
2
 10
52.002926
 20
69.464676
 11
53.994400
 21
69.698700
  0
LINE
  8
TEILE
 62
2
 10
53.994400
 20
69.698700
 11
55.992580
 21
69.866035
  0
LINE
  8
TEILE
 62
2
 10
55.992580
 20
69.866035
 11
57.995239
 21
69.966515
  0
LINE
  8
TEILE
 62
2
 10
57.995239
 20
69.966515
 11
60.000134
 21
70.000015
  0
LINE
  8
TEILE
 62
2
 10
60.000134
 20
70.000015
 11
60.000000
 21
70.000015
  0
LINE
  8
TEILE
 62
2
 10
60.000000
 20
70.000015
 11
240.000000
 21
70.000015
  0
LINE
  8
TEILE
 62
2
 10
240.000000
 20
70.000015
 11
242.004883
 21
69.966499
  0
LINE
  8
TEILE
 62
2
 10
242.004883
 20
69.966499
 11
244.007553
 21
69.866020
  0
LINE
  8
TEILE
 62
2
 10
244.007553
 20
69.866020
 11
246.005737
 21
69.698677
  0
LINE
  8
TEILE
 62
2
 10
246.005737
 20
69.698677
 11
247.997208
 21
69.464653
  0
LINE
  8
TEILE
 62
2
 10
247.997208
 20
69.464653
 11
249.979767
 21
69.164223
  0
LINE
  8
TEILE
 62
2
 10
249.979767
 20
69.164223
 11
251.951157
 21
68.797707
  0
LINE
  8
TEILE
 62
2
 10
251.951157
 20
68.797707
 11
253.909210
 21
68.365524
  0
LINE
  8
TEILE
 62
2
 10
253.909210
 20
68.365524
 11
255.851715
 21
67.868156
  0
LINE
  8
TEILE
 62
2
 10
255.851715
 20
67.868156
 11
257.776520
 21
67.306152
  0
LINE
  8
TEILE
 62
2
 10
257.776520
 20
67.306152
 11
259.681458
 21
66.680153
  0
LINE
  8
TEILE
 62
2
 10
259.681458
 20
66.680153
 11
261.564453
 21
65.990845
  0
LINE
  8
TEILE
 62
2
 10
261.564453
 20
65.990845
 11
263.423340
 21
65.239006
  0
LINE
  8
TEILE
 62
2
 10
263.423340
 20
65.239006
 11
265.256073
 21
64.425461
  0
LINE
  8
TEILE
 62
2
 10
265.256073
 20
64.425461
 11
267.060577
 21
63.551140
  0
LINE
  8
TEILE
 62
2
 10
267.060577
 20
63.551140
 11
268.834869
 21
62.617004
  0
LINE
  8
TEILE
 62
2
 10
268.834869
 20
62.617004
 11
270.576965
 21
61.624107
  0
LINE
  8
TEILE
 62
2
 10
270.576965
 20
61.624107
 11
272.284912
 21
60.573547
  0
LINE
  8
TEILE
 62
2
 10
272.284912
 20
60.573547
 11
273.956787
 21
59.466511
  0
LINE
  8
TEILE
 62
2
 10
273.956787
 20
59.466511
 11
275.590759
 21
58.304218
  0
LINE
  8
TEILE
 62
2
 10
275.590759
 20
58.304218
 11
277.184967
 21
57.087982
  0
LINE
  8
TEILE
 62
2
 10
277.184967
 20
57.087982
 11
278.737640
 21
55.819153
  0
LINE
  8
TEILE
 62
2
 10
278.737640
 20
55.819153
 11
280.247070
 21
54.499149
  0
LINE
  8
TEILE
 62
2
 10
280.247070
 20
54.499149
 11
281.711517
 21
53.129444
  0
LINE
  8
TEILE
 62
2
 10
281.711517
 20
53.129444
 11
283.129395
 21
51.711575
  0
LINE
  8
TEILE
 62
2
 10
283.129395
 20
51.711575
 11
284.499115
 21
50.247112
  0
LINE
  8
TEILE
 62
2
 10
284.499115
 20
50.247112
 11
285.819122
 21
48.737701
  0
LINE
  8
TEILE
 62
2
 10
285.819122
 20
48.737701
 11
287.087952
 21
47.185024
  0
LINE
  8
TEILE
 62
2
 10
287.087952
 20
47.185024
 11
288.304169
 21
45.590820
  0
LINE
  8
TEILE
 62
2
 10
288.304169
 20
45.590820
 11
289.466492
 21
43.956863
  0
LINE
  8
TEILE
 62
2
 10
289.466492
 20
43.956863
 11
290.573517
 21
42.284981
  0
LINE
  8
TEILE
 62
2
 10
290.573517
 20
42.284981
 11
291.624084
 21
40.577042
  0
LINE
  8
TEILE
 62
2
 10
291.624084
 20
40.577042
 11
292.616974
 21
38.834949
  0
LINE
  8
TEILE
 62
2
 10
292.616974
 20
38.834949
 11
293.551086
 21
37.060654
  0
LINE
  8
TEILE
 62
2
 10
293.551086
 20
37.060654
 11
294.425415
 21
35.256130
  0
LINE
  8
TEILE
 62
2
 10
294.425415
 20
35.256130
 11
295.238983
 21
33.423401
  0
LINE
  8
TEILE
 62
2
 10
295.238983
 20
33.423401
 11
295.990845
 21
31.564512
  0
LINE
  8
TEILE
 62
2
 10
295.990845
 20
31.564512
 11
296.680115
 21
29.681540
  0
LINE
  8
TEILE
 62
2
 10
296.680115
 20
29.681540
 11
297.306152
 21
27.776583
  0
LINE
  8
TEILE
 62
2
 10
297.306152
 20
27.776583
 11
297.868134
 21
25.851772
  0
LINE
  8
TEILE
 62
2
 10
297.868134
 20
25.851772
 11
298.365509
 21
23.909256
  0
LINE
  8
TEILE
 62
2
 10
298.365509
 20
23.909256
 11
298.797699
 21
21.951208
  0
LINE
  8
TEILE
 62
2
 10
298.797699
 20
21.951208
 11
299.164215
 21
19.979809
  0
LINE
  8
TEILE
 62
2
 10
299.164215
 20
19.979809
 11
299.464661
 21
17.997265
  0
LINE
  8
TEILE
 62
2
 10
299.464661
 20
17.997265
 11
299.698669
 21
16.005789
  0
LINE
  8
TEILE
 62
2
 10
299.698669
 20
16.005789
 11
299.865997
 21
14.007607
  0
LINE
  8
TEILE
 62
2
 10
299.865997
 20
14.007607
 11
299.966492
 21
12.004947
  0
LINE
  8
TEILE
 62
2
 10
299.966492
 20
12.004947
 11
300.000000
 21
10.000049
  0
LINE
  8
TEILE
 62
2
 10
300.000000
 20
10.000049
 11
300.000000
 21
10.000014
  0
TEXT
 8
BEZ_SCHRAUBEN
 62
2
 10
72.000542
 20
-23.493462
 40
5.000000
 41
0.800000
 51
15.000000
  1
 ø32
  0
ENDSEC
  0
EOF

