999
     *******************************************
999
     BOCAD Software GmbH   Rev.18.000   0202.22
999
     Filename:   c:\progetti21\danieli_aqs\b4\temp_61\10400.dxf
999
     Creator:    bocad
999
     Date:       20.01.2016
999
     Factor:     10.000000
999
     *******************************************
  0
SECTION
  2
HEADER
  9
$DWGCODEPAGE
  3
ANSI_1252
  9
$INSBASE
 10
0.0
 20
0.0
 30
0.0
  9
$EXTMIN
 10
-0.500326
 20
-127.632179
  9
$EXTMAX
 10
244.634991
 20
127.632179
  9
$LIMMIN
 10
-1.500326
 20
-128.632179
  9
$LIMMAX
 10
245.634991
 20
128.632179
  9
$LTSCALE
 40
10.000000
  0
ENDSEC
  0
SECTION
  2
TABLES
  0
TABLE
  2
LTYPE
 70
4
  0
LTYPE
  2
CONTINUOUS
 70
64
  3
____________________________________________
 72
65
 73
0
 40
0.0
  0
LTYPE
  2
HIDDEN
 70
64
  3
__ __ __ __ __ __ __ __ __ __ __ __ __ __ __
 72
65
 73
2
 40
0.50
 49
0.30
 49
-0.20
  0
LTYPE
  2
DASHDOT
 70
64
  3
____ _ ____ _ ____ _ ____ _ ____ _ ____ _ __
 72
65
 73
4
 40
2.0
 49
1.5
 49
-0.25
 49
0
 49
-0.25
  0
LTYPE
  2
DOT
 70
64
  3
............................................
 72
65
 73
2
 40
0.30
 49
0
 49
-0.30
  0
ENDTAB
  0
TABLE
  2
LAYER
 70
23
  0
LAYER
  2
SCHRAUBEN
 70
64
 62
7
  6
CONTINUOUS
  0
LAYER
  2
REST
 70
64
 62
7
  6
CONTINUOUS
  0
LAYER
  2
UNTERSCHRIFT
 70
64
 62
7
  6
CONTINUOUS
  0
LAYER
  2
TEILE
 70
64
 62
7
  6
CONTINUOUS
  0
LAYER
  2
BEZ_SCHRAUBEN
 70
64
 62
7
  6
CONTINUOUS
  0
LAYER
  2
MARKERPUNKTE
 70
64
 62
7
  6
CONTINUOUS
  0
LAYER
  2
HILFSPUNKTE
 70
64
 62
7
  6
CONTINUOUS
  0
LAYER
  2
PICKPUNKTE
 70
64
 62
7
  6
CONTINUOUS
  0
LAYER
  2
SCHWEISSEN
 70
64
 62
7
  6
CONTINUOUS
  0
LAYER
  2
GRAFIK
 70
64
 62
7
  6
CONTINUOUS
  0
LAYER
  2
BEM_FREI
 70
64
 62
7
  6
CONTINUOUS
  0
LAYER
  2
BEM_SYSTEM
 70
64
 62
7
  6
CONTINUOUS
  0
LAYER
  2
BEM_KONTUR
 70
64
 62
7
  6
CONTINUOUS
  0
LAYER
  2
BEM_ANBAU
 70
64
 62
7
  6
CONTINUOUS
  0
LAYER
  2
BEM_SCHRAUBEN
 70
64
 62
7
  6
CONTINUOUS
  0
LAYER
  2
BEM_SCHWEISSEN
 70
64
 62
7
  6
CONTINUOUS
  0
LAYER
  2
FREIER_TEXT
 70
64
 62
7
  6
CONTINUOUS
  0
LAYER
  2
BEZ_TEILE
 70
64
 62
7
  6
CONTINUOUS
  0
LAYER
  2
BEZ_SCHWEISSEN
 70
64
 62
7
  6
CONTINUOUS
  0
LAYER
  2
SCHRAFFUREN
 70
64
 62
7
  6
CONTINUOUS
  0
LAYER
  2
SCHNITTSYMBOL
 70
64
 62
7
  6
CONTINUOUS
  0
LAYER
  2
RASTER
 70
64
 62
7
  6
CONTINUOUS
  0
LAYER
  2
LISTEN
 70
64
 62
7
  6
CONTINUOUS
  0
LAYER
  2
RAHMEN
 70
64
 62
7
  6
CONTINUOUS
  0
ENDTAB
  0
TABLE
  2
STYLE
 70
1
  0
STYLE
  2
STANDARD
 70
64
 40
0
 41
1
 50
0.0
 71
0
 42
0.35
  3
ROMANS
  0
ENDTAB
  0
ENDSEC
  0
SECTION
  2
ENTITIES
  0
LINE
  8
SCHRAUBEN
 62
6
 10
81.393768
 20
66.532120
 11
72.593765
 21
57.732121
  0
LINE
  8
SCHRAUBEN
 62
6
 10
72.593765
 20
66.532120
 11
81.393768
 21
57.732121
  0
CIRCLE
  8
SCHRAUBEN
 62
2
 10
76.993767
 20
62.132118
 40
11.000000
  0
LINE
  8
SCHRAUBEN
 62
6
 10
141.393753
 20
66.532120
 11
132.593765
 21
57.732121
  0
LINE
  8
SCHRAUBEN
 62
6
 10
132.593765
 20
66.532120
 11
141.393753
 21
57.732121
  0
CIRCLE
  8
SCHRAUBEN
 62
2
 10
136.993759
 20
62.132118
 40
11.000000
  0
LINE
  8
SCHRAUBEN
 62
6
 10
138.777008
 20
-45.474007
 11
129.977020
 21
-54.274006
  0
LINE
  8
SCHRAUBEN
 62
6
 10
129.977020
 20
-45.474007
 11
138.777008
 21
-54.274006
  0
CIRCLE
  8
SCHRAUBEN
 62
2
 10
134.377014
 20
-49.874004
 40
11.000000
  0
LINE
  8
SCHRAUBEN
 62
6
 10
192.780396
 20
-71.620415
 11
183.980392
 21
-80.420410
  0
LINE
  8
SCHRAUBEN
 62
6
 10
183.980392
 20
-71.620415
 11
192.780396
 21
-80.420410
  0
CIRCLE
  8
SCHRAUBEN
 62
2
 10
188.380402
 20
-76.020416
 40
11.000000
  0
TEXT
 8
UNTERSCHRIFT
 62
2
 10
158.921722
 20
100.666061
 40
3.250001
 50
-64.278625
 41
0.800000
 51
15.000000
  1
Project  DP0GN9  ,Qty. 22  , Pos. 
  0
TEXT
 8
UNTERSCHRIFT
 62
2
 10
202.928833
 20
9.313258
 40
3.249999
 50
-64.278679
 41
0.800000
 51
15.000000
  1
  , Profi l PL254*12
  0
TEXT
 8
UNTERSCHRIFT
 62
2
 10
197.286896
 20
21.025158
 40
3.249999
 50
-64.278679
 41
0.800000
 51
15.000000
  1
10400
  0
LINE
  8
TEILE
 62
2
 10
213.630890
 20
-127.132179
 11
-0.000326
 21
-27.038116
  0
LINE
  8
TEILE
 62
2
 10
-0.000326
 20
-27.038116
 11
-0.000314
 21
107.132179
  0
LINE
  8
TEILE
 62
2
 10
-0.000314
 20
107.132179
 11
19.999685
 21
127.132179
  0
LINE
  8
TEILE
 62
2
 10
19.999685
 20
127.132179
 11
151.999710
 21
127.132179
  0
LINE
  8
TEILE
 62
2
 10
151.999710
 20
127.132179
 11
244.134995
 21
-64.128258
  0
LINE
  8
TEILE
 62
2
 10
244.134995
 20
-64.128258
 11
213.630890
 21
-127.132179
  0
TEXT
 8
BEZ_SCHRAUBEN
 62
2
 10
68.993759
 20
43.632126
 40
5.000000
 41
0.800000
 51
15.000000
  1
 ø22
  0
ENDSEC
  0
EOF

