999
     *******************************************
999
     BOCAD Software GmbH   Rev.18.000   0202.22
999
     Filename:   c:\progetti21\danieli_aqs\b4\temp_61\10401.dxf
999
     Creator:    bocad
999
     Date:       20.01.2016
999
     Factor:     10.000000
999
     *******************************************
  0
SECTION
  2
HEADER
  9
$DWGCODEPAGE
  3
ANSI_1252
  9
$INSBASE
 10
0.0
 20
0.0
 30
0.0
  9
$EXTMIN
 10
-0.500000
 20
-120.501976
  9
$EXTMAX
 10
360.499992
 20
120.501976
  9
$LIMMIN
 10
-1.500000
 20
-121.501976
  9
$LIMMAX
 10
361.499992
 20
121.501976
  9
$LTSCALE
 40
10.000000
  0
ENDSEC
  0
SECTION
  2
TABLES
  0
TABLE
  2
LTYPE
 70
4
  0
LTYPE
  2
CONTINUOUS
 70
64
  3
____________________________________________
 72
65
 73
0
 40
0.0
  0
LTYPE
  2
HIDDEN
 70
64
  3
__ __ __ __ __ __ __ __ __ __ __ __ __ __ __
 72
65
 73
2
 40
0.50
 49
0.30
 49
-0.20
  0
LTYPE
  2
DASHDOT
 70
64
  3
____ _ ____ _ ____ _ ____ _ ____ _ ____ _ __
 72
65
 73
4
 40
2.0
 49
1.5
 49
-0.25
 49
0
 49
-0.25
  0
LTYPE
  2
DOT
 70
64
  3
............................................
 72
65
 73
2
 40
0.30
 49
0
 49
-0.30
  0
ENDTAB
  0
TABLE
  2
LAYER
 70
23
  0
LAYER
  2
SCHRAUBEN
 70
64
 62
7
  6
CONTINUOUS
  0
LAYER
  2
REST
 70
64
 62
7
  6
CONTINUOUS
  0
LAYER
  2
UNTERSCHRIFT
 70
64
 62
7
  6
CONTINUOUS
  0
LAYER
  2
TEILE
 70
64
 62
7
  6
CONTINUOUS
  0
LAYER
  2
BEZ_SCHRAUBEN
 70
64
 62
7
  6
CONTINUOUS
  0
LAYER
  2
MARKERPUNKTE
 70
64
 62
7
  6
CONTINUOUS
  0
LAYER
  2
HILFSPUNKTE
 70
64
 62
7
  6
CONTINUOUS
  0
LAYER
  2
PICKPUNKTE
 70
64
 62
7
  6
CONTINUOUS
  0
LAYER
  2
SCHWEISSEN
 70
64
 62
7
  6
CONTINUOUS
  0
LAYER
  2
GRAFIK
 70
64
 62
7
  6
CONTINUOUS
  0
LAYER
  2
BEM_FREI
 70
64
 62
7
  6
CONTINUOUS
  0
LAYER
  2
BEM_SYSTEM
 70
64
 62
7
  6
CONTINUOUS
  0
LAYER
  2
BEM_KONTUR
 70
64
 62
7
  6
CONTINUOUS
  0
LAYER
  2
BEM_ANBAU
 70
64
 62
7
  6
CONTINUOUS
  0
LAYER
  2
BEM_SCHRAUBEN
 70
64
 62
7
  6
CONTINUOUS
  0
LAYER
  2
BEM_SCHWEISSEN
 70
64
 62
7
  6
CONTINUOUS
  0
LAYER
  2
FREIER_TEXT
 70
64
 62
7
  6
CONTINUOUS
  0
LAYER
  2
BEZ_TEILE
 70
64
 62
7
  6
CONTINUOUS
  0
LAYER
  2
BEZ_SCHWEISSEN
 70
64
 62
7
  6
CONTINUOUS
  0
LAYER
  2
SCHRAFFUREN
 70
64
 62
7
  6
CONTINUOUS
  0
LAYER
  2
SCHNITTSYMBOL
 70
64
 62
7
  6
CONTINUOUS
  0
LAYER
  2
RASTER
 70
64
 62
7
  6
CONTINUOUS
  0
LAYER
  2
LISTEN
 70
64
 62
7
  6
CONTINUOUS
  0
LAYER
  2
RAHMEN
 70
64
 62
7
  6
CONTINUOUS
  0
ENDTAB
  0
TABLE
  2
STYLE
 70
1
  0
STYLE
  2
STANDARD
 70
64
 40
0
 41
1
 50
0.0
 71
0
 42
0.35
  3
ROMANS
  0
ENDTAB
  0
ENDSEC
  0
SECTION
  2
ENTITIES
  0
ARC
  8
SCHRAUBEN
 62
4
 10
70.000000
 20
74.998024
 40
11.000000
 50
360.000000
 51
540.000000
  0
LINE
  8
SCHRAUBEN
 62
4
 10
59.000000
 20
74.998024
 11
59.000000
 21
34.998020
  0
ARC
  8
SCHRAUBEN
 62
4
 10
70.000000
 20
34.998020
 40
11.000000
 50
540.000000
 51
360.000000
  0
LINE
  8
SCHRAUBEN
 62
4
 10
81.000000
 20
34.998020
 11
81.000000
 21
74.998024
  0
LINE
  8
SCHRAUBEN
 62
6
 10
74.400002
 20
79.398026
 11
65.599998
 21
70.598022
  0
LINE
  8
SCHRAUBEN
 62
6
 10
65.599998
 20
79.398026
 11
74.400002
 21
70.598022
  0
LINE
  8
SCHRAUBEN
 62
6
 10
74.400002
 20
39.398022
 11
65.599998
 21
30.598021
  0
LINE
  8
SCHRAUBEN
 62
6
 10
65.599998
 20
39.398022
 11
74.400002
 21
30.598021
  0
ARC
  8
SCHRAUBEN
 62
4
 10
180.000000
 20
74.998024
 40
11.000000
 50
360.000000
 51
540.000000
  0
LINE
  8
SCHRAUBEN
 62
4
 10
169.000000
 20
74.998024
 11
169.000000
 21
34.998020
  0
ARC
  8
SCHRAUBEN
 62
4
 10
180.000000
 20
34.998020
 40
11.000000
 50
540.000000
 51
360.000000
  0
LINE
  8
SCHRAUBEN
 62
4
 10
191.000000
 20
34.998020
 11
191.000000
 21
74.998024
  0
LINE
  8
SCHRAUBEN
 62
6
 10
184.400009
 20
79.398026
 11
175.599991
 21
70.598022
  0
LINE
  8
SCHRAUBEN
 62
6
 10
175.599991
 20
79.398026
 11
184.400009
 21
70.598022
  0
LINE
  8
SCHRAUBEN
 62
6
 10
184.400009
 20
39.398022
 11
175.599991
 21
30.598021
  0
LINE
  8
SCHRAUBEN
 62
6
 10
175.599991
 20
39.398022
 11
184.400009
 21
30.598021
  0
ARC
  8
SCHRAUBEN
 62
4
 10
290.000000
 20
74.998024
 40
11.000000
 50
360.000000
 51
540.000000
  0
LINE
  8
SCHRAUBEN
 62
4
 10
279.000000
 20
74.998024
 11
279.000000
 21
34.998020
  0
ARC
  8
SCHRAUBEN
 62
4
 10
290.000000
 20
34.998020
 40
11.000000
 50
540.000000
 51
360.000000
  0
LINE
  8
SCHRAUBEN
 62
4
 10
301.000000
 20
34.998020
 11
301.000000
 21
74.998024
  0
LINE
  8
SCHRAUBEN
 62
6
 10
294.399994
 20
79.398026
 11
285.600006
 21
70.598022
  0
LINE
  8
SCHRAUBEN
 62
6
 10
285.600006
 20
79.398026
 11
294.399994
 21
70.598022
  0
LINE
  8
SCHRAUBEN
 62
6
 10
294.399994
 20
39.398022
 11
285.600006
 21
30.598021
  0
LINE
  8
SCHRAUBEN
 62
6
 10
285.600006
 20
39.398022
 11
294.399994
 21
30.598021
  0
ARC
  8
SCHRAUBEN
 62
4
 10
290.000000
 20
-35.001972
 40
11.000000
 50
360.000000
 51
540.000000
  0
LINE
  8
SCHRAUBEN
 62
4
 10
279.000000
 20
-35.001972
 11
279.000000
 21
-75.001976
  0
ARC
  8
SCHRAUBEN
 62
4
 10
290.000000
 20
-75.001976
 40
11.000000
 50
540.000000
 51
360.000000
  0
LINE
  8
SCHRAUBEN
 62
4
 10
301.000000
 20
-75.001976
 11
301.000000
 21
-35.001972
  0
LINE
  8
SCHRAUBEN
 62
6
 10
294.399994
 20
-30.601971
 11
285.600006
 21
-39.401974
  0
LINE
  8
SCHRAUBEN
 62
6
 10
285.600006
 20
-30.601971
 11
294.399994
 21
-39.401974
  0
LINE
  8
SCHRAUBEN
 62
6
 10
294.399994
 20
-70.601974
 11
285.600006
 21
-79.401978
  0
LINE
  8
SCHRAUBEN
 62
6
 10
285.600006
 20
-70.601974
 11
294.399994
 21
-79.401978
  0
ARC
  8
SCHRAUBEN
 62
4
 10
70.000000
 20
-35.001972
 40
11.000000
 50
360.000000
 51
540.000000
  0
LINE
  8
SCHRAUBEN
 62
4
 10
59.000000
 20
-35.001972
 11
59.000000
 21
-75.001976
  0
ARC
  8
SCHRAUBEN
 62
4
 10
70.000000
 20
-75.001976
 40
11.000000
 50
540.000000
 51
360.000000
  0
LINE
  8
SCHRAUBEN
 62
4
 10
81.000000
 20
-75.001976
 11
81.000000
 21
-35.001972
  0
LINE
  8
SCHRAUBEN
 62
6
 10
74.400002
 20
-30.601971
 11
65.599998
 21
-39.401974
  0
LINE
  8
SCHRAUBEN
 62
6
 10
65.599998
 20
-30.601971
 11
74.400002
 21
-39.401974
  0
LINE
  8
SCHRAUBEN
 62
6
 10
74.400002
 20
-70.601974
 11
65.599998
 21
-79.401978
  0
LINE
  8
SCHRAUBEN
 62
6
 10
65.599998
 20
-70.601974
 11
74.400002
 21
-79.401978
  0
ARC
  8
SCHRAUBEN
 62
4
 10
180.000000
 20
-35.001972
 40
11.000000
 50
360.000000
 51
540.000000
  0
LINE
  8
SCHRAUBEN
 62
4
 10
169.000000
 20
-35.001972
 11
169.000000
 21
-75.001976
  0
ARC
  8
SCHRAUBEN
 62
4
 10
180.000000
 20
-75.001976
 40
11.000000
 50
540.000000
 51
360.000000
  0
LINE
  8
SCHRAUBEN
 62
4
 10
191.000000
 20
-75.001976
 11
191.000000
 21
-35.001972
  0
LINE
  8
SCHRAUBEN
 62
6
 10
184.400009
 20
-30.601971
 11
175.599991
 21
-39.401974
  0
LINE
  8
SCHRAUBEN
 62
6
 10
175.599991
 20
-30.601971
 11
184.400009
 21
-39.401974
  0
LINE
  8
SCHRAUBEN
 62
6
 10
184.400009
 20
-70.601974
 11
175.599991
 21
-79.401978
  0
LINE
  8
SCHRAUBEN
 62
6
 10
175.599991
 20
-70.601974
 11
184.400009
 21
-79.401978
  0
TEXT
 8
UNTERSCHRIFT
 62
2
 10
358.000000
 20
-79.299995
 40
3.250000
 50
90.000000
 41
0.800000
 51
15.000000
  1
Project  DP0GN9  ,Qty. 10  , Pos. 
  0
TEXT
 8
UNTERSCHRIFT
 62
2
 10
358.000000
 20
22.100000
 40
3.250000
 50
90.000000
 41
0.800000
 51
15.000000
  1
  , Profi l PL240*15
  0
TEXT
 8
UNTERSCHRIFT
 62
2
 10
358.000000
 20
9.099999
 40
3.250000
 50
90.000000
 41
0.800000
 51
15.000000
  1
10401
  0
LINE
  8
TEILE
 62
2
 10
360.000000
 20
-120.001976
 11
0.000000
 21
-120.001976
  0
LINE
  8
TEILE
 62
2
 10
0.000000
 20
-120.001976
 11
0.000000
 21
120.001976
  0
LINE
  8
TEILE
 62
2
 10
0.000000
 20
120.001976
 11
360.000000
 21
120.001976
  0
LINE
  8
TEILE
 62
2
 10
360.000000
 20
120.001976
 11
360.000000
 21
-120.001976
  0
TEXT
 8
BEZ_SCHRAUBEN
 62
2
 10
62.000000
 20
56.498028
 40
5.000000
 41
0.800000
 51
15.000000
  1
 ø22
  0
ENDSEC
  0
EOF

