999
     *******************************************
999
     BOCAD Software GmbH   Rev.18.000   0202.22
999
     Filename:   c:\progetti21\danieli_aqs\b4\temp_61\10417.dxf
999
     Creator:    bocad
999
     Date:       20.01.2016
999
     Factor:     10.000000
999
     *******************************************
  0
SECTION
  2
HEADER
  9
$DWGCODEPAGE
  3
ANSI_1252
  9
$INSBASE
 10
0.0
 20
0.0
 30
0.0
  9
$EXTMIN
 10
-0.500000
 20
-165.502262
  9
$EXTMAX
 10
187.490807
 20
165.502262
  9
$LIMMIN
 10
-1.500000
 20
-166.502262
  9
$LIMMAX
 10
188.490807
 20
166.502262
  9
$LTSCALE
 40
10.000000
  0
ENDSEC
  0
SECTION
  2
TABLES
  0
TABLE
  2
LTYPE
 70
4
  0
LTYPE
  2
CONTINUOUS
 70
64
  3
____________________________________________
 72
65
 73
0
 40
0.0
  0
LTYPE
  2
HIDDEN
 70
64
  3
__ __ __ __ __ __ __ __ __ __ __ __ __ __ __
 72
65
 73
2
 40
0.50
 49
0.30
 49
-0.20
  0
LTYPE
  2
DASHDOT
 70
64
  3
____ _ ____ _ ____ _ ____ _ ____ _ ____ _ __
 72
65
 73
4
 40
2.0
 49
1.5
 49
-0.25
 49
0
 49
-0.25
  0
LTYPE
  2
DOT
 70
64
  3
............................................
 72
65
 73
2
 40
0.30
 49
0
 49
-0.30
  0
ENDTAB
  0
TABLE
  2
LAYER
 70
23
  0
LAYER
  2
SCHRAUBEN
 70
64
 62
7
  6
CONTINUOUS
  0
LAYER
  2
REST
 70
64
 62
7
  6
CONTINUOUS
  0
LAYER
  2
UNTERSCHRIFT
 70
64
 62
7
  6
CONTINUOUS
  0
LAYER
  2
TEILE
 70
64
 62
7
  6
CONTINUOUS
  0
LAYER
  2
BEZ_SCHRAUBEN
 70
64
 62
7
  6
CONTINUOUS
  0
LAYER
  2
MARKERPUNKTE
 70
64
 62
7
  6
CONTINUOUS
  0
LAYER
  2
HILFSPUNKTE
 70
64
 62
7
  6
CONTINUOUS
  0
LAYER
  2
PICKPUNKTE
 70
64
 62
7
  6
CONTINUOUS
  0
LAYER
  2
SCHWEISSEN
 70
64
 62
7
  6
CONTINUOUS
  0
LAYER
  2
GRAFIK
 70
64
 62
7
  6
CONTINUOUS
  0
LAYER
  2
BEM_FREI
 70
64
 62
7
  6
CONTINUOUS
  0
LAYER
  2
BEM_SYSTEM
 70
64
 62
7
  6
CONTINUOUS
  0
LAYER
  2
BEM_KONTUR
 70
64
 62
7
  6
CONTINUOUS
  0
LAYER
  2
BEM_ANBAU
 70
64
 62
7
  6
CONTINUOUS
  0
LAYER
  2
BEM_SCHRAUBEN
 70
64
 62
7
  6
CONTINUOUS
  0
LAYER
  2
BEM_SCHWEISSEN
 70
64
 62
7
  6
CONTINUOUS
  0
LAYER
  2
FREIER_TEXT
 70
64
 62
7
  6
CONTINUOUS
  0
LAYER
  2
BEZ_TEILE
 70
64
 62
7
  6
CONTINUOUS
  0
LAYER
  2
BEZ_SCHWEISSEN
 70
64
 62
7
  6
CONTINUOUS
  0
LAYER
  2
SCHRAFFUREN
 70
64
 62
7
  6
CONTINUOUS
  0
LAYER
  2
SCHNITTSYMBOL
 70
64
 62
7
  6
CONTINUOUS
  0
LAYER
  2
RASTER
 70
64
 62
7
  6
CONTINUOUS
  0
LAYER
  2
LISTEN
 70
64
 62
7
  6
CONTINUOUS
  0
LAYER
  2
RAHMEN
 70
64
 62
7
  6
CONTINUOUS
  0
ENDTAB
  0
TABLE
  2
STYLE
 70
1
  0
STYLE
  2
STANDARD
 70
64
 40
0
 41
1
 50
0.0
 71
0
 42
0.35
  3
ROMANS
  0
ENDTAB
  0
ENDSEC
  0
SECTION
  2
ENTITIES
  0
LINE
  8
SCHRAUBEN
 62
6
 10
55.589710
 20
126.102684
 11
48.389706
 21
118.902695
  0
LINE
  8
SCHRAUBEN
 62
6
 10
48.389706
 20
126.102684
 11
55.589710
 21
118.902695
  0
CIRCLE
  8
SCHRAUBEN
 62
2
 10
51.989708
 20
122.502686
 40
9.000000
  0
LINE
  8
SCHRAUBEN
 62
6
 10
55.589710
 20
41.102684
 11
48.389706
 21
33.902687
  0
LINE
  8
SCHRAUBEN
 62
6
 10
48.389706
 20
41.102684
 11
55.589710
 21
33.902687
  0
CIRCLE
  8
SCHRAUBEN
 62
2
 10
51.989708
 20
37.502686
 40
9.000000
  0
LINE
  8
SCHRAUBEN
 62
6
 10
151.389496
 20
-20.601143
 11
142.589508
 21
-29.401146
  0
LINE
  8
SCHRAUBEN
 62
6
 10
142.589508
 20
-20.601143
 11
151.389496
 21
-29.401146
  0
CIRCLE
  8
SCHRAUBEN
 62
2
 10
146.989502
 20
-25.001144
 40
11.000000
  0
LINE
  8
SCHRAUBEN
 62
6
 10
151.389496
 20
-120.601151
 11
142.589508
 21
-129.401138
  0
LINE
  8
SCHRAUBEN
 62
6
 10
142.589508
 20
-120.601151
 11
151.389496
 21
-129.401138
  0
CIRCLE
  8
SCHRAUBEN
 62
2
 10
146.989502
 20
-125.001144
 40
11.000000
  0
TEXT
 8
UNTERSCHRIFT
 62
2
 10
184.990509
 20
-153.005692
 40
3.250000
 50
90.001419
 41
0.800000
 51
15.000000
  1
Project  DP0GN9  ,Qty. 2  , Pos. 
  0
TEXT
 8
UNTERSCHRIFT
 62
2
 10
184.988007
 20
-54.205685
 40
3.250000
 50
90.001419
 41
0.800000
 51
15.000000
  1
  , Profi l PL330*12
  0
TEXT
 8
UNTERSCHRIFT
 62
2
 10
184.988327
 20
-67.205688
 40
3.250000
 50
90.001419
 41
0.800000
 51
15.000000
  1
10417
  0
LINE
  8
TEILE
 62
2
 10
21.989763
 20
165.002274
 11
146.989456
 21
165.002274
  0
LINE
  8
TEILE
 62
2
 10
146.989456
 20
165.002274
 11
186.986252
 21
14.991002
  0
LINE
  8
TEILE
 62
2
 10
186.986252
 20
14.991002
 11
186.990814
 21
-165.002274
  0
LINE
  8
TEILE
 62
2
 10
186.990814
 20
-165.002274
 11
92.985764
 21
-165.001434
  0
LINE
  8
TEILE
 62
2
 10
92.985764
 20
-165.001434
 11
92.999496
 21
-23.001127
  0
LINE
  8
TEILE
 62
2
 10
92.999496
 20
-23.001127
 11
92.972153
 21
-22.478500
  0
LINE
  8
TEILE
 62
2
 10
92.972153
 20
-22.478500
 11
92.890327
 21
-21.961596
  0
LINE
  8
TEILE
 62
2
 10
92.890327
 20
-21.961596
 11
92.754929
 21
-21.456074
  0
LINE
  8
TEILE
 62
2
 10
92.754929
 20
-21.456074
 11
92.567413
 21
-20.967480
  0
LINE
  8
TEILE
 62
2
 10
92.567413
 20
-20.967480
 11
92.329857
 21
-20.501163
  0
LINE
  8
TEILE
 62
2
 10
92.329857
 20
-20.501163
 11
92.044846
 21
-20.062235
  0
LINE
  8
TEILE
 62
2
 10
92.044846
 20
-20.062235
 11
91.715530
 21
-19.655502
  0
LINE
  8
TEILE
 62
2
 10
91.715530
 20
-19.655502
 11
91.345482
 21
-19.285427
  0
LINE
  8
TEILE
 62
2
 10
91.345482
 20
-19.285427
 11
90.938789
 21
-18.956059
  0
LINE
  8
TEILE
 62
2
 10
90.938789
 20
-18.956059
 11
90.499878
 21
-18.671013
  0
LINE
  8
TEILE
 62
2
 10
90.499878
 20
-18.671013
 11
90.033585
 21
-18.433407
  0
LINE
  8
TEILE
 62
2
 10
90.033585
 20
-18.433407
 11
89.545013
 21
-18.245846
  0
LINE
  8
TEILE
 62
2
 10
89.545013
 20
-18.245846
 11
89.039505
 21
-18.110388
  0
LINE
  8
TEILE
 62
2
 10
89.039505
 20
-18.110388
 11
88.522606
 21
-18.028515
  0
LINE
  8
TEILE
 62
2
 10
88.522606
 20
-18.028515
 11
87.999985
 21
-18.001125
  0
LINE
  8
TEILE
 62
2
 10
87.999985
 20
-18.001125
 11
87.999985
 21
-18.001127
  0
LINE
  8
TEILE
 62
2
 10
87.999985
 20
-18.001127
 11
10.002701
 21
-18.001127
  0
LINE
  8
TEILE
 62
2
 10
10.002701
 20
-18.001127
 11
0.002354
 21
-8.001128
  0
LINE
  8
TEILE
 62
2
 10
0.002354
 20
-8.001128
 11
0.000000
 21
59.998890
  0
LINE
  8
TEILE
 62
2
 10
0.000000
 20
59.998890
 11
6.989765
 21
59.998890
  0
LINE
  8
TEILE
 62
2
 10
6.989765
 20
59.998890
 11
8.110715
 21
60.040836
  0
LINE
  8
TEILE
 62
2
 10
8.110715
 20
60.040836
 11
9.225399
 21
60.166431
  0
LINE
  8
TEILE
 62
2
 10
9.225399
 20
60.166431
 11
10.327578
 21
60.374969
  0
LINE
  8
TEILE
 62
2
 10
10.327578
 20
60.374969
 11
11.411091
 21
60.665298
  0
LINE
  8
TEILE
 62
2
 10
11.411091
 20
60.665298
 11
12.469878
 21
61.035782
  0
LINE
  8
TEILE
 62
2
 10
12.469878
 20
61.035782
 11
13.498018
 21
61.484356
  0
LINE
  8
TEILE
 62
2
 10
13.498018
 20
61.484356
 11
14.489761
 21
62.008507
  0
LINE
  8
TEILE
 62
2
 10
14.489761
 20
62.008507
 11
15.439562
 21
62.605305
  0
LINE
  8
TEILE
 62
2
 10
15.439562
 20
62.605305
 11
16.342108
 21
63.271412
  0
LINE
  8
TEILE
 62
2
 10
16.342108
 20
63.271412
 11
17.192352
 21
64.003113
  0
LINE
  8
TEILE
 62
2
 10
17.192352
 20
64.003113
 11
17.985538
 21
64.796295
  0
LINE
  8
TEILE
 62
2
 10
17.985538
 20
64.796295
 11
18.717234
 21
65.646538
  0
LINE
  8
TEILE
 62
2
 10
18.717234
 20
65.646538
 11
19.383343
 21
66.549080
  0
LINE
  8
TEILE
 62
2
 10
19.383343
 20
66.549080
 11
19.980143
 21
67.498886
  0
LINE
  8
TEILE
 62
2
 10
19.980143
 20
67.498886
 11
20.504295
 21
68.490631
  0
LINE
  8
TEILE
 62
2
 10
20.504295
 20
68.490631
 11
20.952871
 21
69.518768
  0
LINE
  8
TEILE
 62
2
 10
20.952871
 20
69.518768
 11
21.323357
 21
70.577553
  0
LINE
  8
TEILE
 62
2
 10
21.323357
 20
70.577553
 11
21.613684
 21
71.661072
  0
LINE
  8
TEILE
 62
2
 10
21.613684
 20
71.661072
 11
21.822227
 21
72.763245
  0
LINE
  8
TEILE
 62
2
 10
21.822227
 20
72.763245
 11
21.947823
 21
73.877930
  0
LINE
  8
TEILE
 62
2
 10
21.947823
 20
73.877930
 11
21.989765
 21
74.998886
  0
LINE
  8
TEILE
 62
2
 10
21.989765
 20
74.998886
 11
21.989763
 21
74.998886
  0
LINE
  8
TEILE
 62
2
 10
21.989763
 20
74.998886
 11
21.989763
 21
165.002274
  0
TEXT
 8
BEZ_SCHRAUBEN
 62
2
 10
43.989700
 20
106.002693
 40
5.000000
 41
0.800000
 51
15.000000
  1
 ø18
  0
TEXT
 8
BEZ_SCHRAUBEN
 62
2
 10
43.989700
 20
21.002686
 40
5.000000
 41
0.800000
 51
15.000000
  1
 ø18
  0
TEXT
 8
BEZ_SCHRAUBEN
 62
2
 10
138.989502
 20
-43.501144
 40
5.000000
 41
0.800000
 51
15.000000
  1
 ø22
  0
TEXT
 8
BEZ_SCHRAUBEN
 62
2
 10
138.989502
 20
-143.501144
 40
5.000000
 41
0.800000
 51
15.000000
  1
 ø22
  0
ENDSEC
  0
EOF

