999
     *******************************************
999
     BOCAD Software GmbH   Rev.18.000   0202.22
999
     Filename:   c:\progetti21\danieli_aqs\b4\temp_61\10412.dxf
999
     Creator:    bocad
999
     Date:       20.01.2016
999
     Factor:     10.000000
999
     *******************************************
  0
SECTION
  2
HEADER
  9
$DWGCODEPAGE
  3
ANSI_1252
  9
$INSBASE
 10
0.0
 20
0.0
 30
0.0
  9
$EXTMIN
 10
-0.500000
 20
-47.500005
  9
$EXTMAX
 10
140.805740
 20
47.500005
  9
$LIMMIN
 10
-1.500000
 20
-48.500005
  9
$LIMMAX
 10
141.805740
 20
48.500005
  9
$LTSCALE
 40
10.000000
  0
ENDSEC
  0
SECTION
  2
TABLES
  0
TABLE
  2
LTYPE
 70
4
  0
LTYPE
  2
CONTINUOUS
 70
64
  3
____________________________________________
 72
65
 73
0
 40
0.0
  0
LTYPE
  2
HIDDEN
 70
64
  3
__ __ __ __ __ __ __ __ __ __ __ __ __ __ __
 72
65
 73
2
 40
0.50
 49
0.30
 49
-0.20
  0
LTYPE
  2
DASHDOT
 70
64
  3
____ _ ____ _ ____ _ ____ _ ____ _ ____ _ __
 72
65
 73
4
 40
2.0
 49
1.5
 49
-0.25
 49
0
 49
-0.25
  0
LTYPE
  2
DOT
 70
64
  3
............................................
 72
65
 73
2
 40
0.30
 49
0
 49
-0.30
  0
ENDTAB
  0
TABLE
  2
LAYER
 70
23
  0
LAYER
  2
SCHRAUBEN
 70
64
 62
7
  6
CONTINUOUS
  0
LAYER
  2
REST
 70
64
 62
7
  6
CONTINUOUS
  0
LAYER
  2
UNTERSCHRIFT
 70
64
 62
7
  6
CONTINUOUS
  0
LAYER
  2
TEILE
 70
64
 62
7
  6
CONTINUOUS
  0
LAYER
  2
BEZ_SCHRAUBEN
 70
64
 62
7
  6
CONTINUOUS
  0
LAYER
  2
MARKERPUNKTE
 70
64
 62
7
  6
CONTINUOUS
  0
LAYER
  2
HILFSPUNKTE
 70
64
 62
7
  6
CONTINUOUS
  0
LAYER
  2
PICKPUNKTE
 70
64
 62
7
  6
CONTINUOUS
  0
LAYER
  2
SCHWEISSEN
 70
64
 62
7
  6
CONTINUOUS
  0
LAYER
  2
GRAFIK
 70
64
 62
7
  6
CONTINUOUS
  0
LAYER
  2
BEM_FREI
 70
64
 62
7
  6
CONTINUOUS
  0
LAYER
  2
BEM_SYSTEM
 70
64
 62
7
  6
CONTINUOUS
  0
LAYER
  2
BEM_KONTUR
 70
64
 62
7
  6
CONTINUOUS
  0
LAYER
  2
BEM_ANBAU
 70
64
 62
7
  6
CONTINUOUS
  0
LAYER
  2
BEM_SCHRAUBEN
 70
64
 62
7
  6
CONTINUOUS
  0
LAYER
  2
BEM_SCHWEISSEN
 70
64
 62
7
  6
CONTINUOUS
  0
LAYER
  2
FREIER_TEXT
 70
64
 62
7
  6
CONTINUOUS
  0
LAYER
  2
BEZ_TEILE
 70
64
 62
7
  6
CONTINUOUS
  0
LAYER
  2
BEZ_SCHWEISSEN
 70
64
 62
7
  6
CONTINUOUS
  0
LAYER
  2
SCHRAFFUREN
 70
64
 62
7
  6
CONTINUOUS
  0
LAYER
  2
SCHNITTSYMBOL
 70
64
 62
7
  6
CONTINUOUS
  0
LAYER
  2
RASTER
 70
64
 62
7
  6
CONTINUOUS
  0
LAYER
  2
LISTEN
 70
64
 62
7
  6
CONTINUOUS
  0
LAYER
  2
RAHMEN
 70
64
 62
7
  6
CONTINUOUS
  0
ENDTAB
  0
TABLE
  2
STYLE
 70
1
  0
STYLE
  2
STANDARD
 70
64
 40
0
 41
1
 50
0.0
 71
0
 42
0.35
  3
ROMANS
  0
ENDTAB
  0
ENDSEC
  0
SECTION
  2
ENTITIES
  0
LINE
  8
SCHRAUBEN
 62
6
 10
118.105728
 20
29.800882
 11
112.505730
 21
24.200882
  0
LINE
  8
SCHRAUBEN
 62
6
 10
112.505730
 20
29.800882
 11
118.105728
 21
24.200882
  0
CIRCLE
  8
SCHRAUBEN
 62
2
 10
115.305725
 20
27.000883
 40
7.000000
  0
TEXT
 8
UNTERSCHRIFT
 62
2
 10
5.252844
 20
42.250004
 40
2.750000
 41
0.800000
 51
15.000000
  1
Project  DP0GN9  ,Qty. 20  , Pos. 
  0
TEXT
 8
UNTERSCHRIFT
 62
2
 10
91.052849
 20
42.250004
 40
2.750000
 41
0.800000
 51
15.000000
  1
  , Profi l PL94*6
  0
TEXT
 8
UNTERSCHRIFT
 62
2
 10
80.052841
 20
42.250004
 40
2.750000
 41
0.800000
 51
15.000000
  1
10412
  0
LINE
  8
TEILE
 62
2
 10
0.000000
 20
47.000004
 11
140.305695
 21
47.000004
  0
LINE
  8
TEILE
 62
2
 10
140.305695
 20
47.000004
 11
140.305740
 21
7.001720
  0
LINE
  8
TEILE
 62
2
 10
140.305740
 20
7.001720
 11
95.834488
 21
7.001720
  0
LINE
  8
TEILE
 62
2
 10
95.834488
 20
7.001720
 11
94.958572
 21
6.963291
  0
LINE
  8
TEILE
 62
2
 10
94.958572
 20
6.963291
 11
94.089386
 21
6.848280
  0
LINE
  8
TEILE
 62
2
 10
94.089386
 20
6.848280
 11
93.233627
 21
6.657579
  0
LINE
  8
TEILE
 62
2
 10
93.233627
 20
6.657579
 11
92.397842
 21
6.392653
  0
LINE
  8
TEILE
 62
2
 10
92.397842
 20
6.392653
 11
91.588486
 21
6.055537
  0
LINE
  8
TEILE
 62
2
 10
91.588486
 20
6.055537
 11
90.811768
 21
5.648825
  0
LINE
  8
TEILE
 62
2
 10
90.811768
 20
5.648825
 11
90.073662
 21
5.175642
  0
LINE
  8
TEILE
 62
2
 10
90.073662
 20
5.175642
 11
89.379837
 21
4.639626
  0
LINE
  8
TEILE
 62
2
 10
89.379837
 20
4.639626
 11
88.735626
 21
4.044897
  0
LINE
  8
TEILE
 62
2
 10
88.735626
 20
4.044897
 11
88.145988
 21
3.396027
  0
LINE
  8
TEILE
 62
2
 10
88.145988
 20
3.396027
 11
87.615463
 21
2.698004
  0
LINE
  8
TEILE
 62
2
 10
87.615463
 20
2.698004
 11
87.148102
 21
1.956192
  0
LINE
  8
TEILE
 62
2
 10
87.148102
 20
1.956192
 11
86.747520
 21
1.176296
  0
LINE
  8
TEILE
 62
2
 10
86.747520
 20
1.176296
 11
86.416786
 21
0.364310
  0
LINE
  8
TEILE
 62
2
 10
86.416786
 20
0.364310
 11
86.158447
 21
-0.473525
  0
LINE
  8
TEILE
 62
2
 10
86.158447
 20
-0.473525
 11
85.974495
 21
-1.330768
  0
LINE
  8
TEILE
 62
2
 10
85.974495
 20
-1.330768
 11
85.866333
 21
-2.200829
  0
LINE
  8
TEILE
 62
2
 10
85.866333
 20
-2.200829
 11
85.866325
 21
-2.200827
  0
LINE
  8
TEILE
 62
2
 10
85.866325
 20
-2.200827
 11
83.079842
 21
-37.031849
  0
LINE
  8
TEILE
 62
2
 10
83.079842
 20
-37.031849
 11
72.282394
 21
-47.000004
  0
LINE
  8
TEILE
 62
2
 10
72.282394
 20
-47.000004
 11
14.328793
 21
-47.000004
  0
LINE
  8
TEILE
 62
2
 10
14.328793
 20
-47.000004
 11
3.531339
 21
-37.031849
  0
LINE
  8
TEILE
 62
2
 10
3.531339
 20
-37.031849
 11
0.008631
 21
7.001960
  0
LINE
  8
TEILE
 62
2
 10
0.008631
 20
7.001960
 11
0.000000
 21
47.000004
  0
TEXT
 8
BEZ_SCHRAUBEN
 62
2
 10
107.305725
 20
12.500882
 40
5.000000
 41
0.800000
 51
15.000000
  1
 ø14
  0
ENDSEC
  0
EOF

