999
     *******************************************
999
     BOCAD Software GmbH   Rev.18.000   0202.22
999
     Filename:   c:\progetti21\danieli_aqs\b4\temp_61\10418.dxf
999
     Creator:    bocad
999
     Date:       20.01.2016
999
     Factor:     10.000000
999
     *******************************************
  0
SECTION
  2
HEADER
  9
$DWGCODEPAGE
  3
ANSI_1252
  9
$INSBASE
 10
0.0
 20
0.0
 30
0.0
  9
$EXTMIN
 10
-0.500000
 20
-140.500021
  9
$EXTMAX
 10
547.916641
 20
140.500021
  9
$LIMMIN
 10
-1.500000
 20
-141.500021
  9
$LIMMAX
 10
548.916641
 20
141.500021
  9
$LTSCALE
 40
10.000000
  0
ENDSEC
  0
SECTION
  2
TABLES
  0
TABLE
  2
LTYPE
 70
4
  0
LTYPE
  2
CONTINUOUS
 70
64
  3
____________________________________________
 72
65
 73
0
 40
0.0
  0
LTYPE
  2
HIDDEN
 70
64
  3
__ __ __ __ __ __ __ __ __ __ __ __ __ __ __
 72
65
 73
2
 40
0.50
 49
0.30
 49
-0.20
  0
LTYPE
  2
DASHDOT
 70
64
  3
____ _ ____ _ ____ _ ____ _ ____ _ ____ _ __
 72
65
 73
4
 40
2.0
 49
1.5
 49
-0.25
 49
0
 49
-0.25
  0
LTYPE
  2
DOT
 70
64
  3
............................................
 72
65
 73
2
 40
0.30
 49
0
 49
-0.30
  0
ENDTAB
  0
TABLE
  2
LAYER
 70
23
  0
LAYER
  2
SCHRAUBEN
 70
64
 62
7
  6
CONTINUOUS
  0
LAYER
  2
REST
 70
64
 62
7
  6
CONTINUOUS
  0
LAYER
  2
UNTERSCHRIFT
 70
64
 62
7
  6
CONTINUOUS
  0
LAYER
  2
TEILE
 70
64
 62
7
  6
CONTINUOUS
  0
LAYER
  2
BEZ_SCHRAUBEN
 70
64
 62
7
  6
CONTINUOUS
  0
LAYER
  2
MARKERPUNKTE
 70
64
 62
7
  6
CONTINUOUS
  0
LAYER
  2
HILFSPUNKTE
 70
64
 62
7
  6
CONTINUOUS
  0
LAYER
  2
PICKPUNKTE
 70
64
 62
7
  6
CONTINUOUS
  0
LAYER
  2
SCHWEISSEN
 70
64
 62
7
  6
CONTINUOUS
  0
LAYER
  2
GRAFIK
 70
64
 62
7
  6
CONTINUOUS
  0
LAYER
  2
BEM_FREI
 70
64
 62
7
  6
CONTINUOUS
  0
LAYER
  2
BEM_SYSTEM
 70
64
 62
7
  6
CONTINUOUS
  0
LAYER
  2
BEM_KONTUR
 70
64
 62
7
  6
CONTINUOUS
  0
LAYER
  2
BEM_ANBAU
 70
64
 62
7
  6
CONTINUOUS
  0
LAYER
  2
BEM_SCHRAUBEN
 70
64
 62
7
  6
CONTINUOUS
  0
LAYER
  2
BEM_SCHWEISSEN
 70
64
 62
7
  6
CONTINUOUS
  0
LAYER
  2
FREIER_TEXT
 70
64
 62
7
  6
CONTINUOUS
  0
LAYER
  2
BEZ_TEILE
 70
64
 62
7
  6
CONTINUOUS
  0
LAYER
  2
BEZ_SCHWEISSEN
 70
64
 62
7
  6
CONTINUOUS
  0
LAYER
  2
SCHRAFFUREN
 70
64
 62
7
  6
CONTINUOUS
  0
LAYER
  2
SCHNITTSYMBOL
 70
64
 62
7
  6
CONTINUOUS
  0
LAYER
  2
RASTER
 70
64
 62
7
  6
CONTINUOUS
  0
LAYER
  2
LISTEN
 70
64
 62
7
  6
CONTINUOUS
  0
LAYER
  2
RAHMEN
 70
64
 62
7
  6
CONTINUOUS
  0
ENDTAB
  0
TABLE
  2
STYLE
 70
1
  0
STYLE
  2
STANDARD
 70
64
 40
0
 41
1
 50
0.0
 71
0
 42
0.35
  3
ROMANS
  0
ENDTAB
  0
ENDSEC
  0
SECTION
  2
ENTITIES
  0
LINE
  8
SCHRAUBEN
 62
6
 10
95.771904
 20
-9.033147
 11
88.571915
 21
-16.233147
  0
LINE
  8
SCHRAUBEN
 62
6
 10
88.571915
 20
-9.033147
 11
95.771904
 21
-16.233147
  0
CIRCLE
  8
SCHRAUBEN
 62
2
 10
92.171906
 20
-12.633147
 40
9.000000
  0
LINE
  8
SCHRAUBEN
 62
6
 10
53.429089
 20
-35.624233
 11
46.229088
 21
-42.824234
  0
LINE
  8
SCHRAUBEN
 62
6
 10
46.229088
 20
-35.624233
 11
53.429089
 21
-42.824234
  0
CIRCLE
  8
SCHRAUBEN
 62
2
 10
49.829086
 20
-39.224236
 40
9.000000
  0
LINE
  8
SCHRAUBEN
 62
6
 10
383.372314
 20
98.599640
 11
376.172302
 21
91.399651
  0
LINE
  8
SCHRAUBEN
 62
6
 10
376.172302
 20
98.599640
 11
383.372314
 21
91.399651
  0
CIRCLE
  8
SCHRAUBEN
 62
2
 10
379.772308
 20
94.999649
 40
9.000000
  0
LINE
  8
SCHRAUBEN
 62
6
 10
313.372314
 20
98.599640
 11
306.172302
 21
91.399651
  0
LINE
  8
SCHRAUBEN
 62
6
 10
306.172302
 20
98.599640
 11
313.372314
 21
91.399651
  0
CIRCLE
  8
SCHRAUBEN
 62
2
 10
309.772308
 20
94.999649
 40
9.000000
  0
LINE
  8
SCHRAUBEN
 62
6
 10
243.372314
 20
98.599640
 11
236.172302
 21
91.399651
  0
LINE
  8
SCHRAUBEN
 62
6
 10
236.172302
 20
98.599640
 11
243.372314
 21
91.399651
  0
CIRCLE
  8
SCHRAUBEN
 62
2
 10
239.772308
 20
94.999649
 40
8.999985
  0
LINE
  8
SCHRAUBEN
 62
6
 10
173.372314
 20
98.599640
 11
166.172302
 21
91.399651
  0
LINE
  8
SCHRAUBEN
 62
6
 10
166.172302
 20
98.599640
 11
173.372314
 21
91.399651
  0
CIRCLE
  8
SCHRAUBEN
 62
2
 10
169.772308
 20
94.999649
 40
8.999985
  0
LINE
  8
SCHRAUBEN
 62
6
 10
453.372314
 20
98.599640
 11
446.172302
 21
91.399651
  0
LINE
  8
SCHRAUBEN
 62
6
 10
446.172302
 20
98.599640
 11
453.372314
 21
91.399651
  0
CIRCLE
  8
SCHRAUBEN
 62
2
 10
449.772308
 20
94.999649
 40
9.000000
  0
LINE
  8
SCHRAUBEN
 62
6
 10
312.372711
 20
-46.400009
 11
305.172699
 21
-53.600010
  0
LINE
  8
SCHRAUBEN
 62
6
 10
305.172699
 20
-46.400009
 11
312.372711
 21
-53.600010
  0
CIRCLE
  8
SCHRAUBEN
 62
2
 10
308.772705
 20
-50.000008
 40
9.000000
  0
LINE
  8
SCHRAUBEN
 62
6
 10
312.372711
 20
-96.400009
 11
305.172699
 21
-103.600006
  0
LINE
  8
SCHRAUBEN
 62
6
 10
305.172699
 20
-96.400009
 11
312.372711
 21
-103.600006
  0
CIRCLE
  8
SCHRAUBEN
 62
2
 10
308.772705
 20
-100.000008
 40
9.000000
  0
LINE
  8
SCHRAUBEN
 62
6
 10
384.372681
 20
-46.400009
 11
377.172668
 21
-53.600010
  0
LINE
  8
SCHRAUBEN
 62
6
 10
377.172668
 20
-46.400009
 11
384.372681
 21
-53.600010
  0
CIRCLE
  8
SCHRAUBEN
 62
2
 10
380.772675
 20
-50.000008
 40
9.000000
  0
LINE
  8
SCHRAUBEN
 62
6
 10
384.372681
 20
-96.400009
 11
377.172668
 21
-103.600006
  0
LINE
  8
SCHRAUBEN
 62
6
 10
377.172668
 20
-96.400009
 11
384.372681
 21
-103.600006
  0
CIRCLE
  8
SCHRAUBEN
 62
2
 10
380.772675
 20
-100.000008
 40
9.000000
  0
LINE
  8
SCHRAUBEN
 62
6
 10
470.290588
 20
-20.844204
 11
463.090576
 21
-28.044205
  0
LINE
  8
SCHRAUBEN
 62
6
 10
463.090576
 20
-20.844208
 11
470.290588
 21
-28.044205
  0
CIRCLE
  8
SCHRAUBEN
 62
2
 10
466.690613
 20
-24.444206
 40
9.000000
  0
LINE
  8
SCHRAUBEN
 62
6
 10
505.112762
 20
-56.724819
 11
497.912750
 21
-63.924824
  0
LINE
  8
SCHRAUBEN
 62
6
 10
497.912750
 20
-56.724819
 11
505.112762
 21
-63.924824
  0
CIRCLE
  8
SCHRAUBEN
 62
2
 10
501.512756
 20
-60.324821
 40
9.000000
  0
TEXT
 8
UNTERSCHRIFT
 62
2
 10
492.383728
 20
111.377701
 40
3.250000
 50
-74.261459
 41
0.800000
 51
15.000000
  1
Project  DP0GN9  ,Qty. 1  , Pos. 
  0
TEXT
 8
UNTERSCHRIFT
 62
2
 10
519.183167
 20
16.281799
 40
3.249999
 50
-74.261459
 41
0.800000
 51
15.000000
  1
  , Profi l PL280*10
  0
TEXT
 8
UNTERSCHRIFT
 62
2
 10
515.656921
 20
28.794418
 40
3.249999
 50
-74.261459
 41
0.800000
 51
15.000000
  1
10418
  0
LINE
  8
TEILE
 62
2
 10
278.772705
 20
-140.000015
 11
31.909531
 21
-85.903473
  0
LINE
  8
TEILE
 62
2
 10
31.909531
 20
-85.903473
 11
0.000000
 21
-35.092175
  0
LINE
  8
TEILE
 62
2
 10
0.000000
 20
-35.092175
 11
116.756142
 21
140.000015
  0
LINE
  8
TEILE
 62
2
 10
116.756142
 20
140.000015
 11
489.772003
 21
140.000015
  0
LINE
  8
TEILE
 62
2
 10
489.772003
 20
140.000015
 11
547.416626
 21
-64.547928
  0
LINE
  8
TEILE
 62
2
 10
547.416626
 20
-64.547928
 11
504.359894
 21
-106.334488
  0
LINE
  8
TEILE
 62
2
 10
504.359894
 20
-106.334488
 11
410.772827
 21
-140.000000
  0
LINE
  8
TEILE
 62
2
 10
410.772827
 20
-140.000000
 11
278.772705
 21
-140.000015
  0
TEXT
 8
BEZ_SCHRAUBEN
 62
2
 10
84.171906
 20
-29.133146
 40
5.000000
 41
0.800000
 51
15.000000
  1
 ø18
  0
TEXT
 8
BEZ_SCHRAUBEN
 62
2
 10
41.829086
 20
-55.724228
 40
5.000000
 41
0.800000
 51
15.000000
  1
 ø18
  0
TEXT
 8
BEZ_SCHRAUBEN
 62
2
 10
371.772308
 20
78.499649
 40
4.999998
 41
0.800000
 51
15.000000
  1
 ø18
  0
TEXT
 8
BEZ_SCHRAUBEN
 62
2
 10
301.772339
 20
78.499649
 40
4.999998
 41
0.800000
 51
15.000000
  1
 ø18
  0
TEXT
 8
BEZ_SCHRAUBEN
 62
2
 10
231.772324
 20
78.499649
 40
4.999998
 41
0.800000
 51
15.000000
  1
 ø18
  0
TEXT
 8
BEZ_SCHRAUBEN
 62
2
 10
161.772324
 20
78.499649
 40
4.999998
 41
0.800000
 51
15.000000
  1
 ø18
  0
TEXT
 8
BEZ_SCHRAUBEN
 62
2
 10
441.772308
 20
78.499649
 40
4.999998
 41
0.800000
 51
15.000000
  1
 ø18
  0
TEXT
 8
BEZ_SCHRAUBEN
 62
2
 10
300.772736
 20
-66.500008
 40
5.000000
 41
0.800000
 51
15.000000
  1
 ø18
  0
TEXT
 8
BEZ_SCHRAUBEN
 62
2
 10
300.772736
 20
-116.500008
 40
5.000000
 41
0.800000
 51
15.000000
  1
 ø18
  0
TEXT
 8
BEZ_SCHRAUBEN
 62
2
 10
372.772675
 20
-66.500008
 40
5.000000
 41
0.800000
 51
15.000000
  1
 ø18
  0
TEXT
 8
BEZ_SCHRAUBEN
 62
2
 10
372.772675
 20
-116.500008
 40
5.000000
 41
0.800000
 51
15.000000
  1
 ø18
  0
TEXT
 8
BEZ_SCHRAUBEN
 62
2
 10
458.690613
 20
-40.944206
 40
5.000000
 41
0.800000
 51
15.000000
  1
 ø18
  0
TEXT
 8
BEZ_SCHRAUBEN
 62
2
 10
493.512726
 20
-76.824821
 40
5.000000
 41
0.800000
 51
15.000000
  1
 ø18
  0
ENDSEC
  0
EOF

