999
     *******************************************
999
     BOCAD Software GmbH   Rev.18.000   0202.22
999
     Filename:   c:\progetti21\danieli_aqs\b4\temp_61\10411.dxf
999
     Creator:    bocad
999
     Date:       20.01.2016
999
     Factor:     10.000000
999
     *******************************************
  0
SECTION
  2
HEADER
  9
$DWGCODEPAGE
  3
ANSI_1252
  9
$INSBASE
 10
0.0
 20
0.0
 30
0.0
  9
$EXTMIN
 10
-0.500000
 20
-50.500016
  9
$EXTMAX
 10
728.918152
 20
50.500002
  9
$LIMMIN
 10
-1.500000
 20
-51.500016
  9
$LIMMAX
 10
729.918152
 20
51.500002
  9
$LTSCALE
 40
10.000000
  0
ENDSEC
  0
SECTION
  2
TABLES
  0
TABLE
  2
LTYPE
 70
4
  0
LTYPE
  2
CONTINUOUS
 70
64
  3
____________________________________________
 72
65
 73
0
 40
0.0
  0
LTYPE
  2
HIDDEN
 70
64
  3
__ __ __ __ __ __ __ __ __ __ __ __ __ __ __
 72
65
 73
2
 40
0.50
 49
0.30
 49
-0.20
  0
LTYPE
  2
DASHDOT
 70
64
  3
____ _ ____ _ ____ _ ____ _ ____ _ ____ _ __
 72
65
 73
4
 40
2.0
 49
1.5
 49
-0.25
 49
0
 49
-0.25
  0
LTYPE
  2
DOT
 70
64
  3
............................................
 72
65
 73
2
 40
0.30
 49
0
 49
-0.30
  0
ENDTAB
  0
TABLE
  2
LAYER
 70
23
  0
LAYER
  2
SCHRAUBEN
 70
64
 62
7
  6
CONTINUOUS
  0
LAYER
  2
REST
 70
64
 62
7
  6
CONTINUOUS
  0
LAYER
  2
UNTERSCHRIFT
 70
64
 62
7
  6
CONTINUOUS
  0
LAYER
  2
TEILE
 70
64
 62
7
  6
CONTINUOUS
  0
LAYER
  2
BEZ_SCHRAUBEN
 70
64
 62
7
  6
CONTINUOUS
  0
LAYER
  2
MARKERPUNKTE
 70
64
 62
7
  6
CONTINUOUS
  0
LAYER
  2
HILFSPUNKTE
 70
64
 62
7
  6
CONTINUOUS
  0
LAYER
  2
PICKPUNKTE
 70
64
 62
7
  6
CONTINUOUS
  0
LAYER
  2
SCHWEISSEN
 70
64
 62
7
  6
CONTINUOUS
  0
LAYER
  2
GRAFIK
 70
64
 62
7
  6
CONTINUOUS
  0
LAYER
  2
BEM_FREI
 70
64
 62
7
  6
CONTINUOUS
  0
LAYER
  2
BEM_SYSTEM
 70
64
 62
7
  6
CONTINUOUS
  0
LAYER
  2
BEM_KONTUR
 70
64
 62
7
  6
CONTINUOUS
  0
LAYER
  2
BEM_ANBAU
 70
64
 62
7
  6
CONTINUOUS
  0
LAYER
  2
BEM_SCHRAUBEN
 70
64
 62
7
  6
CONTINUOUS
  0
LAYER
  2
BEM_SCHWEISSEN
 70
64
 62
7
  6
CONTINUOUS
  0
LAYER
  2
FREIER_TEXT
 70
64
 62
7
  6
CONTINUOUS
  0
LAYER
  2
BEZ_TEILE
 70
64
 62
7
  6
CONTINUOUS
  0
LAYER
  2
BEZ_SCHWEISSEN
 70
64
 62
7
  6
CONTINUOUS
  0
LAYER
  2
SCHRAFFUREN
 70
64
 62
7
  6
CONTINUOUS
  0
LAYER
  2
SCHNITTSYMBOL
 70
64
 62
7
  6
CONTINUOUS
  0
LAYER
  2
RASTER
 70
64
 62
7
  6
CONTINUOUS
  0
LAYER
  2
LISTEN
 70
64
 62
7
  6
CONTINUOUS
  0
LAYER
  2
RAHMEN
 70
64
 62
7
  6
CONTINUOUS
  0
ENDTAB
  0
TABLE
  2
STYLE
 70
1
  0
STYLE
  2
STANDARD
 70
64
 40
0
 41
1
 50
0.0
 71
0
 42
0.35
  3
ROMANS
  0
ENDTAB
  0
ENDSEC
  0
SECTION
  2
ENTITIES
  0
LINE
  8
SCHRAUBEN
 62
6
 10
61.396973
 20
6.400001
 11
48.596973
 21
-6.400001
  0
LINE
  8
SCHRAUBEN
 62
6
 10
48.596973
 20
6.400001
 11
61.396973
 21
-6.400001
  0
CIRCLE
  8
SCHRAUBEN
 62
2
 10
54.996971
 20
-0.000000
 40
16.000000
  0
LINE
  8
SCHRAUBEN
 62
6
 10
679.818115
 20
6.400001
 11
667.018127
 21
-6.400001
  0
LINE
  8
SCHRAUBEN
 62
6
 10
667.018127
 20
6.400001
 11
679.818115
 21
-6.400001
  0
CIRCLE
  8
SCHRAUBEN
 62
2
 10
673.418091
 20
-0.000000
 40
16.000000
  0
TEXT
 8
UNTERSCHRIFT
 62
2
 10
284.909058
 20
44.750004
 40
3.250000
 41
0.800000
 51
15.000000
  1
Project  DP0GN9  ,Qty. 18  , Pos. 
  0
TEXT
 8
UNTERSCHRIFT
 62
2
 10
386.309052
 20
44.750004
 40
3.250000
 41
0.800000
 51
15.000000
  1
  , Profi l PL100*15
  0
TEXT
 8
UNTERSCHRIFT
 62
2
 10
373.309052
 20
44.750004
 40
3.250000
 41
0.800000
 51
15.000000
  1
10411
  0
LINE
  8
TEILE
 62
2
 10
678.418091
 20
-50.000000
 11
50.000000
 21
-50.000000
  0
LINE
  8
TEILE
 62
2
 10
50.000000
 20
-50.000000
 11
48.084862
 21
-49.963306
  0
LINE
  8
TEILE
 62
2
 10
48.084862
 20
-49.963306
 11
46.172539
 21
-49.853287
  0
LINE
  8
TEILE
 62
2
 10
46.172539
 20
-49.853287
 11
44.265827
 21
-49.670105
  0
LINE
  8
TEILE
 62
2
 10
44.265827
 20
-49.670105
 11
42.367535
 21
-49.414021
  0
LINE
  8
TEILE
 62
2
 10
42.367535
 20
-49.414021
 11
40.480446
 21
-49.085411
  0
LINE
  8
TEILE
 62
2
 10
40.480446
 20
-49.085411
 11
38.607327
 21
-48.684769
  0
LINE
  8
TEILE
 62
2
 10
38.607327
 20
-48.684769
 11
36.750931
 21
-48.212669
  0
LINE
  8
TEILE
 62
2
 10
36.750931
 20
-48.212669
 11
34.913975
 21
-47.669823
  0
LINE
  8
TEILE
 62
2
 10
34.913975
 20
-47.669823
 11
33.099167
 21
-47.057003
  0
LINE
  8
TEILE
 62
2
 10
33.099167
 20
-47.057003
 11
31.309156
 21
-46.375122
  0
LINE
  8
TEILE
 62
2
 10
31.309156
 20
-46.375122
 11
29.546577
 21
-45.625183
  0
LINE
  8
TEILE
 62
2
 10
29.546577
 20
-45.625183
 11
27.814018
 21
-44.808277
  0
LINE
  8
TEILE
 62
2
 10
27.814018
 20
-44.808277
 11
26.114021
 21
-43.925613
  0
LINE
  8
TEILE
 62
2
 10
26.114021
 20
-43.925613
 11
24.449074
 21
-42.978481
  0
LINE
  8
TEILE
 62
2
 10
24.449074
 20
-42.978481
 11
22.821627
 21
-41.968269
  0
LINE
  8
TEILE
 62
2
 10
22.821627
 20
-41.968269
 11
21.234070
 21
-40.896461
  0
LINE
  8
TEILE
 62
2
 10
21.234070
 20
-40.896461
 11
19.688726
 21
-39.764637
  0
LINE
  8
TEILE
 62
2
 10
19.688726
 20
-39.764637
 11
18.187872
 21
-38.574448
  0
LINE
  8
TEILE
 62
2
 10
18.187872
 20
-38.574448
 11
16.733706
 21
-37.327648
  0
LINE
  8
TEILE
 62
2
 10
16.733706
 20
-37.327648
 11
15.328363
 21
-36.026062
  0
LINE
  8
TEILE
 62
2
 10
15.328363
 20
-36.026062
 11
13.973906
 21
-34.671604
  0
LINE
  8
TEILE
 62
2
 10
13.973906
 20
-34.671604
 11
12.672321
 21
-33.266262
  0
LINE
  8
TEILE
 62
2
 10
12.672321
 20
-33.266262
 11
11.425523
 21
-31.812094
  0
LINE
  8
TEILE
 62
2
 10
11.425523
 20
-31.812094
 11
10.235336
 21
-30.311237
  0
LINE
  8
TEILE
 62
2
 10
10.235336
 20
-30.311237
 11
9.103510
 21
-28.765896
  0
LINE
  8
TEILE
 62
2
 10
9.103510
 20
-28.765896
 11
8.031706
 21
-27.178333
  0
LINE
  8
TEILE
 62
2
 10
8.031706
 20
-27.178333
 11
7.021496
 21
-25.550884
  0
LINE
  8
TEILE
 62
2
 10
7.021496
 20
-25.550884
 11
6.074364
 21
-23.885937
  0
LINE
  8
TEILE
 62
2
 10
6.074364
 20
-23.885937
 11
5.191699
 21
-22.185934
  0
LINE
  8
TEILE
 62
2
 10
5.191699
 20
-22.185934
 11
4.374796
 21
-20.453367
  0
LINE
  8
TEILE
 62
2
 10
4.374796
 20
-20.453367
 11
3.624855
 21
-18.690784
  0
LINE
  8
TEILE
 62
2
 10
3.624855
 20
-18.690784
 11
2.942976
 21
-16.900770
  0
LINE
  8
TEILE
 62
2
 10
2.942976
 20
-16.900770
 11
2.330160
 21
-15.085950
  0
LINE
  8
TEILE
 62
2
 10
2.330160
 20
-15.085950
 11
1.787307
 21
-13.248989
  0
LINE
  8
TEILE
 62
2
 10
1.787307
 20
-13.248989
 11
1.315213
 21
-11.392585
  0
LINE
  8
TEILE
 62
2
 10
1.315213
 20
-11.392585
 11
0.914570
 21
-9.519460
  0
LINE
  8
TEILE
 62
2
 10
0.914570
 20
-9.519460
 11
0.585968
 21
-7.632363
  0
LINE
  8
TEILE
 62
2
 10
0.585968
 20
-7.632363
 11
0.329888
 21
-5.734066
  0
LINE
  8
TEILE
 62
2
 10
0.329888
 20
-5.734066
 11
0.146706
 21
-3.827352
  0
LINE
  8
TEILE
 62
2
 10
0.146706
 20
-3.827352
 11
0.036691
 21
-1.915021
  0
LINE
  8
TEILE
 62
2
 10
0.036691
 20
-1.915021
 11
0.000005
 21
0.000120
  0
LINE
  8
TEILE
 62
2
 10
0.000005
 20
0.000120
 11
0.000000
 21
0.000000
  0
LINE
  8
TEILE
 62
2
 10
0.000000
 20
0.000000
 11
0.000000
 21
0.000000
  0
LINE
  8
TEILE
 62
2
 10
0.000000
 20
0.000000
 11
0.034965
 21
1.869557
  0
LINE
  8
TEILE
 62
2
 10
0.034965
 20
1.869557
 11
0.139810
 21
3.736506
  0
LINE
  8
TEILE
 62
2
 10
0.139810
 20
3.736506
 11
0.314390
 21
5.598230
  0
LINE
  8
TEILE
 62
2
 10
0.314390
 20
5.598230
 11
0.558460
 21
7.452125
  0
LINE
  8
TEILE
 62
2
 10
0.558460
 20
7.452125
 11
0.871679
 21
9.295596
  0
LINE
  8
TEILE
 62
2
 10
0.871679
 20
9.295596
 11
1.253609
 21
11.126066
  0
LINE
  8
TEILE
 62
2
 10
1.253609
 20
11.126066
 11
1.703715
 21
12.940977
  0
LINE
  8
TEILE
 62
2
 10
1.703715
 20
12.940977
 11
2.221368
 21
14.737787
  0
LINE
  8
TEILE
 62
2
 10
2.221368
 20
14.737787
 11
2.805845
 21
16.513987
  0
LINE
  8
TEILE
 62
2
 10
2.805845
 20
16.513987
 11
3.456326
 21
18.267088
  0
LINE
  8
TEILE
 62
2
 10
3.456326
 20
18.267088
 11
4.171905
 21
19.994642
  0
LINE
  8
TEILE
 62
2
 10
4.171905
 20
19.994642
 11
4.951578
 21
21.694231
  0
LINE
  8
TEILE
 62
2
 10
4.951578
 20
21.694231
 11
5.794255
 21
23.363478
  0
LINE
  8
TEILE
 62
2
 10
5.794255
 20
23.363478
 11
6.698759
 21
25.000050
  0
LINE
  8
TEILE
 62
2
 10
6.698759
 20
25.000050
 11
7.663823
 21
26.601658
  0
LINE
  8
TEILE
 62
2
 10
7.663823
 20
26.601658
 11
8.688099
 21
28.166061
  0
LINE
  8
TEILE
 62
2
 10
8.688099
 20
28.166061
 11
9.770153
 21
29.691069
  0
LINE
  8
TEILE
 62
2
 10
9.770153
 20
29.691069
 11
10.908474
 21
31.174549
  0
LINE
  8
TEILE
 62
2
 10
10.908474
 20
31.174549
 11
12.101467
 21
32.614433
  0
LINE
  8
TEILE
 62
2
 10
12.101467
 20
32.614433
 11
13.347465
 21
34.008701
  0
LINE
  8
TEILE
 62
2
 10
13.347465
 20
34.008701
 11
14.644726
 21
35.355404
  0
LINE
  8
TEILE
 62
2
 10
14.644726
 20
35.355404
 11
15.991432
 21
36.652660
  0
LINE
  8
TEILE
 62
2
 10
15.991432
 20
36.652660
 11
17.385706
 21
37.898651
  0
LINE
  8
TEILE
 62
2
 10
17.385706
 20
37.898651
 11
18.825592
 21
39.091640
  0
LINE
  8
TEILE
 62
2
 10
18.825592
 20
39.091640
 11
20.309078
 21
40.229954
  0
LINE
  8
TEILE
 62
2
 10
20.309078
 20
40.229954
 11
21.834091
 21
41.312004
  0
LINE
  8
TEILE
 62
2
 10
21.834091
 20
41.312004
 11
23.398497
 21
42.336273
  0
LINE
  8
TEILE
 62
2
 10
23.398497
 20
42.336273
 11
25.000107
 21
43.301334
  0
LINE
  8
TEILE
 62
2
 10
25.000107
 20
43.301334
 11
26.636681
 21
44.205833
  0
LINE
  8
TEILE
 62
2
 10
26.636681
 20
44.205833
 11
28.305933
 21
45.048504
  0
LINE
  8
TEILE
 62
2
 10
28.305933
 20
45.048504
 11
30.005524
 21
45.828171
  0
LINE
  8
TEILE
 62
2
 10
30.005524
 20
45.828171
 11
31.733076
 21
46.543736
  0
LINE
  8
TEILE
 62
2
 10
31.733076
 20
46.543736
 11
33.486176
 21
47.194214
  0
LINE
  8
TEILE
 62
2
 10
33.486176
 20
47.194214
 11
35.262371
 21
47.778683
  0
LINE
  8
TEILE
 62
2
 10
35.262371
 20
47.778683
 11
37.059177
 21
48.296326
  0
LINE
  8
TEILE
 62
2
 10
37.059177
 20
48.296326
 11
38.874084
 21
48.746429
  0
LINE
  8
TEILE
 62
2
 10
38.874084
 20
48.746429
 11
40.704544
 21
49.128349
  0
LINE
  8
TEILE
 62
2
 10
40.704544
 20
49.128349
 11
42.548012
 21
49.441563
  0
LINE
  8
TEILE
 62
2
 10
42.548012
 20
49.441563
 11
44.401901
 21
49.685627
  0
LINE
  8
TEILE
 62
2
 10
44.401901
 20
49.685627
 11
46.263622
 21
49.860199
  0
LINE
  8
TEILE
 62
2
 10
46.263622
 20
49.860199
 11
48.130566
 21
49.965042
  0
LINE
  8
TEILE
 62
2
 10
48.130566
 20
49.965042
 11
50.000122
 21
50.000000
  0
LINE
  8
TEILE
 62
2
 10
50.000122
 20
50.000000
 11
50.000000
 21
50.000000
  0
LINE
  8
TEILE
 62
2
 10
50.000000
 20
50.000000
 11
678.418091
 21
50.000000
  0
LINE
  8
TEILE
 62
2
 10
678.418091
 20
50.000000
 11
680.287720
 21
49.965054
  0
LINE
  8
TEILE
 62
2
 10
680.287720
 20
49.965054
 11
682.154602
 21
49.860210
  0
LINE
  8
TEILE
 62
2
 10
682.154602
 20
49.860210
 11
684.016357
 21
49.685635
  0
LINE
  8
TEILE
 62
2
 10
684.016357
 20
49.685635
 11
685.870239
 21
49.441566
  0
LINE
  8
TEILE
 62
2
 10
685.870239
 20
49.441566
 11
687.713684
 21
49.128349
  0
LINE
  8
TEILE
 62
2
 10
687.713684
 20
49.128349
 11
689.544128
 21
48.746422
  0
LINE
  8
TEILE
 62
2
 10
689.544128
 20
48.746422
 11
691.359131
 21
48.296322
  0
LINE
  8
TEILE
 62
2
 10
691.359131
 20
48.296322
 11
693.155884
 21
47.778671
  0
LINE
  8
TEILE
 62
2
 10
693.155884
 20
47.778671
 11
694.932129
 21
47.194199
  0
LINE
  8
TEILE
 62
2
 10
694.932129
 20
47.194199
 11
696.685181
 21
46.543724
  0
LINE
  8
TEILE
 62
2
 10
696.685181
 20
46.543724
 11
698.412720
 21
45.828148
  0
LINE
  8
TEILE
 62
2
 10
698.412720
 20
45.828148
 11
700.112305
 21
45.048481
  0
LINE
  8
TEILE
 62
2
 10
700.112305
 20
45.048481
 11
701.781555
 21
44.205803
  0
LINE
  8
TEILE
 62
2
 10
701.781555
 20
44.205803
 11
703.418091
 21
43.301308
  0
LINE
  8
TEILE
 62
2
 10
703.418091
 20
43.301308
 11
705.019775
 21
42.336243
  0
LINE
  8
TEILE
 62
2
 10
705.019775
 20
42.336243
 11
706.584167
 21
41.311974
  0
LINE
  8
TEILE
 62
2
 10
706.584167
 20
41.311974
 11
708.109131
 21
40.229919
  0
LINE
  8
TEILE
 62
2
 10
708.109131
 20
40.229919
 11
709.592651
 21
39.091610
  0
LINE
  8
TEILE
 62
2
 10
709.592651
 20
39.091610
 11
711.032471
 21
37.898621
  0
LINE
  8
TEILE
 62
2
 10
711.032471
 20
37.898621
 11
712.426758
 21
36.652626
  0
LINE
  8
TEILE
 62
2
 10
712.426758
 20
36.652626
 11
713.773499
 21
35.355370
  0
LINE
  8
TEILE
 62
2
 10
713.773499
 20
35.355370
 11
715.070740
 21
34.008667
  0
LINE
  8
TEILE
 62
2
 10
715.070740
 20
34.008667
 11
716.316772
 21
32.614399
  0
LINE
  8
TEILE
 62
2
 10
716.316772
 20
32.614399
 11
717.509705
 21
31.174517
  0
LINE
  8
TEILE
 62
2
 10
717.509705
 20
31.174517
 11
718.648010
 21
29.691032
  0
LINE
  8
TEILE
 62
2
 10
718.648010
 20
29.691032
 11
719.730103
 21
28.166025
  0
LINE
  8
TEILE
 62
2
 10
719.730103
 20
28.166025
 11
720.754333
 21
26.601624
  0
LINE
  8
TEILE
 62
2
 10
720.754333
 20
26.601624
 11
721.719421
 21
25.000019
  0
LINE
  8
TEILE
 62
2
 10
721.719421
 20
25.000019
 11
722.623901
 21
23.363447
  0
LINE
  8
TEILE
 62
2
 10
722.623901
 20
23.363447
 11
723.466553
 21
21.694201
  0
LINE
  8
TEILE
 62
2
 10
723.466553
 20
21.694201
 11
724.246216
 21
19.994614
  0
LINE
  8
TEILE
 62
2
 10
724.246216
 20
19.994614
 11
724.961853
 21
18.267061
  0
LINE
  8
TEILE
 62
2
 10
724.961853
 20
18.267061
 11
725.612305
 21
16.513960
  0
LINE
  8
TEILE
 62
2
 10
725.612305
 20
16.513960
 11
726.196777
 21
14.737764
  0
LINE
  8
TEILE
 62
2
 10
726.196777
 20
14.737764
 11
726.714417
 21
12.940956
  0
LINE
  8
TEILE
 62
2
 10
726.714417
 20
12.940956
 11
727.164551
 21
11.126049
  0
LINE
  8
TEILE
 62
2
 10
727.164551
 20
11.126049
 11
727.546448
 21
9.295580
  0
LINE
  8
TEILE
 62
2
 10
727.546448
 20
9.295580
 11
727.859619
 21
7.452111
  0
LINE
  8
TEILE
 62
2
 10
727.859619
 20
7.452111
 11
728.103699
 21
5.598220
  0
LINE
  8
TEILE
 62
2
 10
728.103699
 20
5.598220
 11
728.278259
 21
3.736500
  0
LINE
  8
TEILE
 62
2
 10
728.278259
 20
3.736500
 11
728.383179
 21
1.869553
  0
LINE
  8
TEILE
 62
2
 10
728.383179
 20
1.869553
 11
728.418091
 21
-0.000008
  0
LINE
  8
TEILE
 62
2
 10
728.418091
 20
-0.000008
 11
728.418091
 21
0.000000
  0
LINE
  8
TEILE
 62
2
 10
728.418091
 20
0.000000
 11
728.418091
 21
0.000000
  0
LINE
  8
TEILE
 62
2
 10
728.418091
 20
0.000000
 11
728.383179
 21
-1.869561
  0
LINE
  8
TEILE
 62
2
 10
728.383179
 20
-1.869561
 11
728.278259
 21
-3.736507
  0
LINE
  8
TEILE
 62
2
 10
728.278259
 20
-3.736507
 11
728.103699
 21
-5.598228
  0
LINE
  8
TEILE
 62
2
 10
728.103699
 20
-5.598228
 11
727.859619
 21
-7.452119
  0
LINE
  8
TEILE
 62
2
 10
727.859619
 20
-7.452119
 11
727.546448
 21
-9.295588
  0
LINE
  8
TEILE
 62
2
 10
727.546448
 20
-9.295588
 11
727.164551
 21
-11.126056
  0
LINE
  8
TEILE
 62
2
 10
727.164551
 20
-11.126056
 11
726.714417
 21
-12.940964
  0
LINE
  8
TEILE
 62
2
 10
726.714417
 20
-12.940964
 11
726.196777
 21
-14.737772
  0
LINE
  8
TEILE
 62
2
 10
726.196777
 20
-14.737772
 11
725.612244
 21
-16.513968
  0
LINE
  8
TEILE
 62
2
 10
725.612244
 20
-16.513968
 11
724.961853
 21
-18.267067
  0
LINE
  8
TEILE
 62
2
 10
724.961853
 20
-18.267067
 11
724.246216
 21
-19.994619
  0
LINE
  8
TEILE
 62
2
 10
724.246216
 20
-19.994619
 11
723.466553
 21
-21.694206
  0
LINE
  8
TEILE
 62
2
 10
723.466553
 20
-21.694206
 11
722.623901
 21
-23.363455
  0
LINE
  8
TEILE
 62
2
 10
722.623901
 20
-23.363455
 11
721.719421
 21
-25.000023
  0
LINE
  8
TEILE
 62
2
 10
721.719421
 20
-25.000023
 11
720.754333
 21
-26.601629
  0
LINE
  8
TEILE
 62
2
 10
720.754333
 20
-26.601629
 11
719.730103
 21
-28.166031
  0
LINE
  8
TEILE
 62
2
 10
719.730103
 20
-28.166031
 11
718.648010
 21
-29.691038
  0
LINE
  8
TEILE
 62
2
 10
718.648010
 20
-29.691038
 11
717.509705
 21
-31.174522
  0
LINE
  8
TEILE
 62
2
 10
717.509705
 20
-31.174522
 11
716.316772
 21
-32.614403
  0
LINE
  8
TEILE
 62
2
 10
716.316772
 20
-32.614403
 11
715.070740
 21
-34.008671
  0
LINE
  8
TEILE
 62
2
 10
715.070740
 20
-34.008671
 11
713.773499
 21
-35.355373
  0
LINE
  8
TEILE
 62
2
 10
713.773499
 20
-35.355373
 11
712.426758
 21
-36.652630
  0
LINE
  8
TEILE
 62
2
 10
712.426758
 20
-36.652630
 11
711.032471
 21
-37.898624
  0
LINE
  8
TEILE
 62
2
 10
711.032471
 20
-37.898624
 11
709.592590
 21
-39.091610
  0
LINE
  8
TEILE
 62
2
 10
709.592590
 20
-39.091610
 11
708.109131
 21
-40.229927
  0
LINE
  8
TEILE
 62
2
 10
708.109131
 20
-40.229927
 11
706.584167
 21
-41.311981
  0
LINE
  8
TEILE
 62
2
 10
706.584167
 20
-41.311981
 11
705.019775
 21
-42.336250
  0
LINE
  8
TEILE
 62
2
 10
705.019775
 20
-42.336250
 11
703.418091
 21
-43.301308
  0
LINE
  8
TEILE
 62
2
 10
703.418091
 20
-43.301308
 11
701.781555
 21
-44.205811
  0
LINE
  8
TEILE
 62
2
 10
701.781555
 20
-44.205811
 11
700.112305
 21
-45.048481
  0
LINE
  8
TEILE
 62
2
 10
700.112305
 20
-45.048481
 11
698.412720
 21
-45.828148
  0
LINE
  8
TEILE
 62
2
 10
698.412720
 20
-45.828148
 11
696.685181
 21
-46.543724
  0
LINE
  8
TEILE
 62
2
 10
696.685181
 20
-46.543724
 11
694.932129
 21
-47.194199
  0
LINE
  8
TEILE
 62
2
 10
694.932129
 20
-47.194199
 11
693.155884
 21
-47.778671
  0
LINE
  8
TEILE
 62
2
 10
693.155884
 20
-47.778671
 11
691.359131
 21
-48.296322
  0
LINE
  8
TEILE
 62
2
 10
691.359131
 20
-48.296322
 11
689.544128
 21
-48.746422
  0
LINE
  8
TEILE
 62
2
 10
689.544128
 20
-48.746422
 11
687.713684
 21
-49.128349
  0
LINE
  8
TEILE
 62
2
 10
687.713684
 20
-49.128349
 11
685.870239
 21
-49.441566
  0
LINE
  8
TEILE
 62
2
 10
685.870239
 20
-49.441566
 11
684.016357
 21
-49.685635
  0
LINE
  8
TEILE
 62
2
 10
684.016357
 20
-49.685635
 11
682.154602
 21
-49.860210
  0
LINE
  8
TEILE
 62
2
 10
682.154602
 20
-49.860210
 11
680.287720
 21
-49.965054
  0
LINE
  8
TEILE
 62
2
 10
680.287720
 20
-49.965054
 11
678.418091
 21
-50.000015
  0
LINE
  8
TEILE
 62
2
 10
678.418091
 20
-50.000015
 11
678.418091
 21
-50.000000
  0
TEXT
 8
BEZ_SCHRAUBEN
 62
2
 10
46.996971
 20
-23.500002
 40
5.000000
 41
0.800000
 51
15.000000
  1
 ø32
  0
ENDSEC
  0
EOF

