999
     *******************************************
999
     BOCAD Software GmbH   Rev.18.000   0202.22
999
     Filename:   c:\progetti21\danieli_aqs\b4\temp_63\10622.dxf
999
     Creator:    bocad
999
     Date:       20.01.2016
999
     Factor:     10.000000
999
     *******************************************
  0
SECTION
  2
HEADER
  9
$DWGCODEPAGE
  3
ANSI_1252
  9
$INSBASE
 10
0.0
 20
0.0
 30
0.0
  9
$EXTMIN
 10
-0.500000
 20
-30.499978
  9
$EXTMAX
 10
2813.000488
 20
30.499978
  9
$LIMMIN
 10
-1.500000
 20
-31.499978
  9
$LIMMAX
 10
2814.000488
 20
31.499978
  9
$LTSCALE
 40
10.000000
  0
ENDSEC
  0
SECTION
  2
TABLES
  0
TABLE
  2
LTYPE
 70
4
  0
LTYPE
  2
CONTINUOUS
 70
64
  3
____________________________________________
 72
65
 73
0
 40
0.0
  0
LTYPE
  2
HIDDEN
 70
64
  3
__ __ __ __ __ __ __ __ __ __ __ __ __ __ __
 72
65
 73
2
 40
0.50
 49
0.30
 49
-0.20
  0
LTYPE
  2
DASHDOT
 70
64
  3
____ _ ____ _ ____ _ ____ _ ____ _ ____ _ __
 72
65
 73
4
 40
2.0
 49
1.5
 49
-0.25
 49
0
 49
-0.25
  0
LTYPE
  2
DOT
 70
64
  3
............................................
 72
65
 73
2
 40
0.30
 49
0
 49
-0.30
  0
ENDTAB
  0
TABLE
  2
LAYER
 70
23
  0
LAYER
  2
SCHRAUBEN
 70
64
 62
7
  6
CONTINUOUS
  0
LAYER
  2
REST
 70
64
 62
7
  6
CONTINUOUS
  0
LAYER
  2
UNTERSCHRIFT
 70
64
 62
7
  6
CONTINUOUS
  0
LAYER
  2
TEILE
 70
64
 62
7
  6
CONTINUOUS
  0
LAYER
  2
BEZ_SCHRAUBEN
 70
64
 62
7
  6
CONTINUOUS
  0
LAYER
  2
MARKERPUNKTE
 70
64
 62
7
  6
CONTINUOUS
  0
LAYER
  2
HILFSPUNKTE
 70
64
 62
7
  6
CONTINUOUS
  0
LAYER
  2
PICKPUNKTE
 70
64
 62
7
  6
CONTINUOUS
  0
LAYER
  2
SCHWEISSEN
 70
64
 62
7
  6
CONTINUOUS
  0
LAYER
  2
GRAFIK
 70
64
 62
7
  6
CONTINUOUS
  0
LAYER
  2
BEM_FREI
 70
64
 62
7
  6
CONTINUOUS
  0
LAYER
  2
BEM_SYSTEM
 70
64
 62
7
  6
CONTINUOUS
  0
LAYER
  2
BEM_KONTUR
 70
64
 62
7
  6
CONTINUOUS
  0
LAYER
  2
BEM_ANBAU
 70
64
 62
7
  6
CONTINUOUS
  0
LAYER
  2
BEM_SCHRAUBEN
 70
64
 62
7
  6
CONTINUOUS
  0
LAYER
  2
BEM_SCHWEISSEN
 70
64
 62
7
  6
CONTINUOUS
  0
LAYER
  2
FREIER_TEXT
 70
64
 62
7
  6
CONTINUOUS
  0
LAYER
  2
BEZ_TEILE
 70
64
 62
7
  6
CONTINUOUS
  0
LAYER
  2
BEZ_SCHWEISSEN
 70
64
 62
7
  6
CONTINUOUS
  0
LAYER
  2
SCHRAFFUREN
 70
64
 62
7
  6
CONTINUOUS
  0
LAYER
  2
SCHNITTSYMBOL
 70
64
 62
7
  6
CONTINUOUS
  0
LAYER
  2
RASTER
 70
64
 62
7
  6
CONTINUOUS
  0
LAYER
  2
LISTEN
 70
64
 62
7
  6
CONTINUOUS
  0
LAYER
  2
RAHMEN
 70
64
 62
7
  6
CONTINUOUS
  0
ENDTAB
  0
TABLE
  2
STYLE
 70
1
  0
STYLE
  2
STANDARD
 70
64
 40
0
 41
1
 50
0.0
 71
0
 42
0.35
  3
ROMANS
  0
ENDTAB
  0
ENDSEC
  0
SECTION
  2
ENTITIES
  0
LINE
  8
SCHRAUBEN
 62
6
 10
22.799120
 20
-2.199962
 11
17.199120
 21
-7.799962
  0
LINE
  8
SCHRAUBEN
 62
6
 10
17.199120
 20
-2.199962
 11
22.799120
 21
-7.799962
  0
CIRCLE
  8
SCHRAUBEN
 62
2
 10
19.999121
 20
-4.999962
 40
7.000000
  0
LINE
  8
SCHRAUBEN
 62
6
 10
1285.300781
 20
7.799877
 11
1279.700806
 21
2.199877
  0
LINE
  8
SCHRAUBEN
 62
6
 10
1279.700806
 20
7.799877
 11
1285.300781
 21
2.199877
  0
CIRCLE
  8
SCHRAUBEN
 62
2
 10
1282.500732
 20
4.999877
 40
7.000000
  0
LINE
  8
SCHRAUBEN
 62
6
 10
2785.305420
 20
7.803562
 11
2779.705566
 21
2.203562
  0
LINE
  8
SCHRAUBEN
 62
6
 10
2779.705566
 20
7.803563
 11
2785.305420
 21
2.203562
  0
CIRCLE
  8
SCHRAUBEN
 62
2
 10
2782.505371
 20
5.003562
 40
7.000244
  0
TEXT
 8
UNTERSCHRIFT
 62
2
 10
134.726959
 20
4.999969
 40
3.250000
 41
0.800000
 51
15.000000
  1
Project  DP0GN9  ,Qty. 10  , Pos. 
  0
TEXT
 8
UNTERSCHRIFT
 62
2
 10
236.126938
 20
4.999969
 40
3.250000
 41
0.800000
 51
15.000000
  1
  , Profi l PL60*5
  0
TEXT
 8
UNTERSCHRIFT
 62
2
 10
223.126953
 20
4.999969
 40
3.250000
 41
0.800000
 51
15.000000
  1
10622
  0
LINE
  8
TEILE
 62
2
 10
0.000000
 20
-29.999979
 11
0.000000
 21
29.999979
  0
LINE
  8
TEILE
 62
2
 10
0.000000
 20
29.999979
 11
2812.500488
 21
29.999979
  0
LINE
  8
TEILE
 62
2
 10
2812.500488
 20
29.999979
 11
2812.500488
 21
-10.000023
  0
LINE
  8
TEILE
 62
2
 10
2812.500488
 20
-10.000023
 11
2538.634766
 21
-10.000023
  0
LINE
  8
TEILE
 62
2
 10
2538.634766
 20
-10.000023
 11
2538.596680
 21
-9.128463
  0
LINE
  8
TEILE
 62
2
 10
2538.596680
 20
-9.128463
 11
2538.482910
 21
-8.263535
  0
LINE
  8
TEILE
 62
2
 10
2538.482910
 20
-8.263535
 11
2538.293945
 21
-7.411821
  0
LINE
  8
TEILE
 62
2
 10
2538.293945
 20
-7.411821
 11
2538.031738
 21
-6.579805
  0
LINE
  8
TEILE
 62
2
 10
2538.031738
 20
-6.579805
 11
2537.697998
 21
-5.773818
  0
LINE
  8
TEILE
 62
2
 10
2537.697998
 20
-5.773818
 11
2537.295166
 21
-4.999994
  0
LINE
  8
TEILE
 62
2
 10
2537.295166
 20
-4.999994
 11
2536.826416
 21
-4.264223
  0
LINE
  8
TEILE
 62
2
 10
2536.826416
 20
-4.264223
 11
2536.295166
 21
-3.572104
  0
LINE
  8
TEILE
 62
2
 10
2536.295166
 20
-3.572104
 11
2535.705811
 21
-2.928906
  0
LINE
  8
TEILE
 62
2
 10
2535.705811
 20
-2.928906
 11
2535.062744
 21
-2.339523
  0
LINE
  8
TEILE
 62
2
 10
2535.062744
 20
-2.339523
 11
2534.370605
 21
-1.808441
  0
LINE
  8
TEILE
 62
2
 10
2534.370605
 20
-1.808441
 11
2533.634766
 21
-1.339702
  0
LINE
  8
TEILE
 62
2
 10
2533.634766
 20
-1.339702
 11
2532.861084
 21
-0.936873
  0
LINE
  8
TEILE
 62
2
 10
2532.861084
 20
-0.936873
 11
2532.055176
 21
-0.603021
  0
LINE
  8
TEILE
 62
2
 10
2532.055176
 20
-0.603021
 11
2531.222900
 21
-0.340686
  0
LINE
  8
TEILE
 62
2
 10
2531.222900
 20
-0.340686
 11
2530.371338
 21
-0.151864
  0
LINE
  8
TEILE
 62
2
 10
2530.371338
 20
-0.151864
 11
2529.506348
 21
-0.037993
  0
LINE
  8
TEILE
 62
2
 10
2529.506348
 20
-0.037993
 11
2528.634766
 21
0.000060
  0
LINE
  8
TEILE
 62
2
 10
2528.634766
 20
0.000060
 11
2528.634766
 21
-0.000027
  0
LINE
  8
TEILE
 62
2
 10
2528.634766
 20
-0.000027
 11
2346.310059
 21
0.000047
  0
LINE
  8
TEILE
 62
2
 10
2346.310059
 20
0.000047
 11
2345.387451
 21
-0.042616
  0
LINE
  8
TEILE
 62
2
 10
2345.387451
 20
-0.042616
 11
2344.472656
 21
-0.170239
  0
LINE
  8
TEILE
 62
2
 10
2344.472656
 20
-0.170239
 11
2343.573486
 21
-0.381725
  0
LINE
  8
TEILE
 62
2
 10
2343.573486
 20
-0.381725
 11
2342.697754
 21
-0.675268
  0
LINE
  8
TEILE
 62
2
 10
2342.697754
 20
-0.675268
 11
2341.852783
 21
-1.048366
  0
LINE
  8
TEILE
 62
2
 10
2341.852783
 20
-1.048366
 11
2341.045898
 21
-1.497835
  0
LINE
  8
TEILE
 62
2
 10
2341.045898
 20
-1.497835
 11
2340.283691
 21
-2.019839
  0
LINE
  8
TEILE
 62
2
 10
2340.283691
 20
-2.019839
 11
2339.573242
 21
-2.609926
  0
LINE
  8
TEILE
 62
2
 10
2339.573242
 20
-2.609926
 11
2338.919922
 21
-3.263061
  0
LINE
  8
TEILE
 62
2
 10
2338.919922
 20
-3.263061
 11
2338.329834
 21
-3.973673
  0
LINE
  8
TEILE
 62
2
 10
2338.329834
 20
-3.973673
 11
2337.807861
 21
-4.735698
  0
LINE
  8
TEILE
 62
2
 10
2337.807861
 20
-4.735698
 11
2337.358643
 21
-5.542635
  0
LINE
  8
TEILE
 62
2
 10
2337.358643
 20
-5.542635
 11
2336.985352
 21
-6.387601
  0
LINE
  8
TEILE
 62
2
 10
2336.985352
 20
-6.387601
 11
2336.691895
 21
-7.263387
  0
LINE
  8
TEILE
 62
2
 10
2336.691895
 20
-7.263387
 11
2336.480469
 21
-8.162520
  0
LINE
  8
TEILE
 62
2
 10
2336.480469
 20
-8.162520
 11
2336.352783
 21
-9.077331
  0
LINE
  8
TEILE
 62
2
 10
2336.352783
 20
-9.077331
 11
2336.310059
 21
-10.000014
  0
LINE
  8
TEILE
 62
2
 10
2336.310059
 20
-10.000014
 11
2336.310059
 21
-10.000023
  0
LINE
  8
TEILE
 62
2
 10
2336.310059
 20
-10.000023
 11
372.855652
 21
-10.000023
  0
LINE
  8
TEILE
 62
2
 10
372.855652
 20
-10.000023
 11
372.855652
 21
-7.000031
  0
LINE
  8
TEILE
 62
2
 10
372.855652
 20
-7.000031
 11
372.812988
 21
-6.077347
  0
LINE
  8
TEILE
 62
2
 10
372.812988
 20
-6.077347
 11
372.685394
 21
-5.162536
  0
LINE
  8
TEILE
 62
2
 10
372.685394
 20
-5.162536
 11
372.473907
 21
-4.263402
  0
LINE
  8
TEILE
 62
2
 10
372.473907
 20
-4.263402
 11
372.180359
 21
-3.387615
  0
LINE
  8
TEILE
 62
2
 10
372.180359
 20
-3.387615
 11
371.807281
 21
-2.542649
  0
LINE
  8
TEILE
 62
2
 10
371.807281
 20
-2.542649
 11
371.357788
 21
-1.735711
  0
LINE
  8
TEILE
 62
2
 10
371.357788
 20
-1.735711
 11
370.835815
 21
-0.973687
  0
LINE
  8
TEILE
 62
2
 10
370.835815
 20
-0.973687
 11
370.245728
 21
-0.263077
  0
LINE
  8
TEILE
 62
2
 10
370.245728
 20
-0.263077
 11
369.592590
 21
0.390055
  0
LINE
  8
TEILE
 62
2
 10
369.592590
 20
0.390055
 11
368.881989
 21
0.980137
  0
LINE
  8
TEILE
 62
2
 10
368.881989
 20
0.980137
 11
368.119965
 21
1.502136
  0
LINE
  8
TEILE
 62
2
 10
368.119965
 20
1.502136
 11
367.313049
 21
1.951597
  0
LINE
  8
TEILE
 62
2
 10
367.313049
 20
1.951597
 11
366.468048
 21
2.324686
  0
LINE
  8
TEILE
 62
2
 10
366.468048
 20
2.324686
 11
365.592285
 21
2.618219
  0
LINE
  8
TEILE
 62
2
 10
365.592285
 20
2.618219
 11
364.693146
 21
2.829694
  0
LINE
  8
TEILE
 62
2
 10
364.693146
 20
2.829694
 11
363.778351
 21
2.957304
  0
LINE
  8
TEILE
 62
2
 10
363.778351
 20
2.957304
 11
362.855652
 21
2.999962
  0
LINE
  8
TEILE
 62
2
 10
362.855652
 20
2.999962
 11
362.855652
 21
2.999970
  0
LINE
  8
TEILE
 62
2
 10
362.855652
 20
2.999970
 11
59.998260
 21
2.999970
  0
LINE
  8
TEILE
 62
2
 10
59.998260
 20
2.999970
 11
58.633408
 21
2.953345
  0
LINE
  8
TEILE
 62
2
 10
58.633408
 20
2.953345
 11
57.274929
 21
2.813688
  0
LINE
  8
TEILE
 62
2
 10
57.274929
 20
2.813688
 11
55.929142
 21
2.581650
  0
LINE
  8
TEILE
 62
2
 10
55.929142
 20
2.581650
 11
54.602322
 21
2.258314
  0
LINE
  8
TEILE
 62
2
 10
54.602322
 20
2.258314
 11
53.300667
 21
1.845186
  0
LINE
  8
TEILE
 62
2
 10
53.300667
 20
1.845186
 11
52.030239
 21
1.344194
  0
LINE
  8
TEILE
 62
2
 10
52.030239
 20
1.344194
 11
50.796959
 21
0.757672
  0
LINE
  8
TEILE
 62
2
 10
50.796959
 20
0.757672
 11
49.606583
 21
0.088354
  0
LINE
  8
TEILE
 62
2
 10
49.606583
 20
0.088354
 11
48.464653
 21
-0.660636
  0
LINE
  8
TEILE
 62
2
 10
48.464653
 20
-0.660636
 11
47.376499
 21
-1.485808
  0
LINE
  8
TEILE
 62
2
 10
47.376499
 20
-1.485808
 11
46.347195
 21
-2.383315
  0
LINE
  8
TEILE
 62
2
 10
46.347195
 20
-2.383315
 11
45.381542
 21
-3.348972
  0
LINE
  8
TEILE
 62
2
 10
45.381542
 20
-3.348972
 11
44.484032
 21
-4.378276
  0
LINE
  8
TEILE
 62
2
 10
44.484032
 20
-4.378276
 11
43.658863
 21
-5.466428
  0
LINE
  8
TEILE
 62
2
 10
43.658863
 20
-5.466428
 11
42.909870
 21
-6.608356
  0
LINE
  8
TEILE
 62
2
 10
42.909870
 20
-6.608356
 11
42.240559
 21
-7.798734
  0
LINE
  8
TEILE
 62
2
 10
42.240559
 20
-7.798734
 11
41.654034
 21
-9.032013
  0
LINE
  8
TEILE
 62
2
 10
41.654034
 20
-9.032013
 11
41.153046
 21
-10.302443
  0
LINE
  8
TEILE
 62
2
 10
41.153046
 20
-10.302443
 11
40.739918
 21
-11.604099
  0
LINE
  8
TEILE
 62
2
 10
40.739918
 20
-11.604099
 11
40.416580
 21
-12.930914
  0
LINE
  8
TEILE
 62
2
 10
40.416580
 20
-12.930914
 11
40.184540
 21
-14.276701
  0
LINE
  8
TEILE
 62
2
 10
40.184540
 20
-14.276701
 11
40.044884
 21
-15.635186
  0
LINE
  8
TEILE
 62
2
 10
40.044884
 20
-15.635186
 11
39.998260
 21
-17.000034
  0
LINE
  8
TEILE
 62
2
 10
39.998260
 20
-17.000034
 11
39.998260
 21
-17.000031
  0
LINE
  8
TEILE
 62
2
 10
39.998260
 20
-17.000031
 11
39.998260
 21
-29.999979
  0
LINE
  8
TEILE
 62
2
 10
39.998260
 20
-29.999979
 11
0.000000
 21
-29.999979
  0
TEXT
 8
BEZ_SCHRAUBEN
 62
2
 10
11.999119
 20
-19.499962
 40
5.000000
 41
0.800000
 51
15.000000
  1
 ø14
  0
ENDSEC
  0
EOF

