999
     *******************************************
999
     BOCAD Software GmbH   Rev.18.000   0202.22
999
     Filename:   c:\progetti21\danieli_aqs\b4\temp_63\10623.dxf
999
     Creator:    bocad
999
     Date:       20.01.2016
999
     Factor:     10.000000
999
     *******************************************
  0
SECTION
  2
HEADER
  9
$DWGCODEPAGE
  3
ANSI_1252
  9
$INSBASE
 10
0.0
 20
0.0
 30
0.0
  9
$EXTMIN
 10
-0.500000
 20
-30.499978
  9
$EXTMAX
 10
2794.000244
 20
30.499978
  9
$LIMMIN
 10
-1.500000
 20
-31.499978
  9
$LIMMAX
 10
2795.000244
 20
31.499978
  9
$LTSCALE
 40
10.000000
  0
ENDSEC
  0
SECTION
  2
TABLES
  0
TABLE
  2
LTYPE
 70
4
  0
LTYPE
  2
CONTINUOUS
 70
64
  3
____________________________________________
 72
65
 73
0
 40
0.0
  0
LTYPE
  2
HIDDEN
 70
64
  3
__ __ __ __ __ __ __ __ __ __ __ __ __ __ __
 72
65
 73
2
 40
0.50
 49
0.30
 49
-0.20
  0
LTYPE
  2
DASHDOT
 70
64
  3
____ _ ____ _ ____ _ ____ _ ____ _ ____ _ __
 72
65
 73
4
 40
2.0
 49
1.5
 49
-0.25
 49
0
 49
-0.25
  0
LTYPE
  2
DOT
 70
64
  3
............................................
 72
65
 73
2
 40
0.30
 49
0
 49
-0.30
  0
ENDTAB
  0
TABLE
  2
LAYER
 70
23
  0
LAYER
  2
SCHRAUBEN
 70
64
 62
7
  6
CONTINUOUS
  0
LAYER
  2
REST
 70
64
 62
7
  6
CONTINUOUS
  0
LAYER
  2
UNTERSCHRIFT
 70
64
 62
7
  6
CONTINUOUS
  0
LAYER
  2
TEILE
 70
64
 62
7
  6
CONTINUOUS
  0
LAYER
  2
BEZ_SCHRAUBEN
 70
64
 62
7
  6
CONTINUOUS
  0
LAYER
  2
MARKERPUNKTE
 70
64
 62
7
  6
CONTINUOUS
  0
LAYER
  2
HILFSPUNKTE
 70
64
 62
7
  6
CONTINUOUS
  0
LAYER
  2
PICKPUNKTE
 70
64
 62
7
  6
CONTINUOUS
  0
LAYER
  2
SCHWEISSEN
 70
64
 62
7
  6
CONTINUOUS
  0
LAYER
  2
GRAFIK
 70
64
 62
7
  6
CONTINUOUS
  0
LAYER
  2
BEM_FREI
 70
64
 62
7
  6
CONTINUOUS
  0
LAYER
  2
BEM_SYSTEM
 70
64
 62
7
  6
CONTINUOUS
  0
LAYER
  2
BEM_KONTUR
 70
64
 62
7
  6
CONTINUOUS
  0
LAYER
  2
BEM_ANBAU
 70
64
 62
7
  6
CONTINUOUS
  0
LAYER
  2
BEM_SCHRAUBEN
 70
64
 62
7
  6
CONTINUOUS
  0
LAYER
  2
BEM_SCHWEISSEN
 70
64
 62
7
  6
CONTINUOUS
  0
LAYER
  2
FREIER_TEXT
 70
64
 62
7
  6
CONTINUOUS
  0
LAYER
  2
BEZ_TEILE
 70
64
 62
7
  6
CONTINUOUS
  0
LAYER
  2
BEZ_SCHWEISSEN
 70
64
 62
7
  6
CONTINUOUS
  0
LAYER
  2
SCHRAFFUREN
 70
64
 62
7
  6
CONTINUOUS
  0
LAYER
  2
SCHNITTSYMBOL
 70
64
 62
7
  6
CONTINUOUS
  0
LAYER
  2
RASTER
 70
64
 62
7
  6
CONTINUOUS
  0
LAYER
  2
LISTEN
 70
64
 62
7
  6
CONTINUOUS
  0
LAYER
  2
RAHMEN
 70
64
 62
7
  6
CONTINUOUS
  0
ENDTAB
  0
TABLE
  2
STYLE
 70
1
  0
STYLE
  2
STANDARD
 70
64
 40
0
 41
1
 50
0.0
 71
0
 42
0.35
  3
ROMANS
  0
ENDTAB
  0
ENDSEC
  0
SECTION
  2
ENTITIES
  0
LINE
  8
SCHRAUBEN
 62
6
 10
85.794983
 20
7.803562
 11
80.194992
 21
2.203562
  0
LINE
  8
SCHRAUBEN
 62
6
 10
80.194992
 20
7.803563
 11
85.794983
 21
2.203562
  0
CIRCLE
  8
SCHRAUBEN
 62
2
 10
82.994987
 20
5.003562
 40
6.999992
  0
LINE
  8
SCHRAUBEN
 62
6
 10
1465.799683
 20
7.799877
 11
1460.199707
 21
2.199877
  0
LINE
  8
SCHRAUBEN
 62
6
 10
1460.199707
 20
7.799877
 11
1465.799683
 21
2.199877
  0
CIRCLE
  8
SCHRAUBEN
 62
2
 10
1462.999756
 20
4.999877
 40
7.000000
  0
LINE
  8
SCHRAUBEN
 62
6
 10
2776.301270
 20
-2.199962
 11
2770.701172
 21
-7.799962
  0
LINE
  8
SCHRAUBEN
 62
6
 10
2770.701172
 20
-2.199962
 11
2776.301270
 21
-7.799962
  0
CIRCLE
  8
SCHRAUBEN
 62
2
 10
2773.501221
 20
-4.999962
 40
7.000244
  0
TEXT
 8
UNTERSCHRIFT
 62
2
 10
1320.050171
 20
24.749977
 40
3.250000
 41
0.800000
 51
15.000000
  1
Project  DP0GN9  ,Qty. 10  , Pos. 
  0
TEXT
 8
UNTERSCHRIFT
 62
2
 10
1421.450195
 20
24.749977
 40
3.250000
 41
0.800000
 51
15.000000
  1
  , Profi l PL60*5
  0
TEXT
 8
UNTERSCHRIFT
 62
2
 10
1408.450195
 20
24.749977
 40
3.250000
 41
0.800000
 51
15.000000
  1
10623
  0
LINE
  8
TEILE
 62
2
 10
2793.500488
 20
29.999979
 11
2793.500488
 21
-29.999979
  0
LINE
  8
TEILE
 62
2
 10
2793.500488
 20
-29.999979
 11
2753.502197
 21
-29.999979
  0
LINE
  8
TEILE
 62
2
 10
2753.502197
 20
-29.999979
 11
2753.502197
 21
-17.000031
  0
LINE
  8
TEILE
 62
2
 10
2753.502197
 20
-17.000031
 11
2753.455566
 21
-15.635190
  0
LINE
  8
TEILE
 62
2
 10
2753.455566
 20
-15.635190
 11
2753.315918
 21
-14.276715
  0
LINE
  8
TEILE
 62
2
 10
2753.315918
 20
-14.276715
 11
2753.083740
 21
-12.930939
  0
LINE
  8
TEILE
 62
2
 10
2753.083740
 20
-12.930939
 11
2752.760742
 21
-11.604136
  0
LINE
  8
TEILE
 62
2
 10
2752.760742
 20
-11.604136
 11
2752.347412
 21
-10.302492
  0
LINE
  8
TEILE
 62
2
 10
2752.347412
 20
-10.302492
 11
2751.846191
 21
-9.032076
  0
LINE
  8
TEILE
 62
2
 10
2751.846191
 20
-9.032076
 11
2751.259766
 21
-7.798810
  0
LINE
  8
TEILE
 62
2
 10
2751.259766
 20
-7.798810
 11
2750.590576
 21
-6.608444
  0
LINE
  8
TEILE
 62
2
 10
2750.590576
 20
-6.608444
 11
2749.841553
 21
-5.466528
  0
LINE
  8
TEILE
 62
2
 10
2749.841553
 20
-5.466528
 11
2749.016357
 21
-4.378387
  0
LINE
  8
TEILE
 62
2
 10
2749.016357
 20
-4.378387
 11
2748.118896
 21
-3.349093
  0
LINE
  8
TEILE
 62
2
 10
2748.118896
 20
-3.349093
 11
2747.153320
 21
-2.383445
  0
LINE
  8
TEILE
 62
2
 10
2747.153320
 20
-2.383445
 11
2746.124023
 21
-1.485945
  0
LINE
  8
TEILE
 62
2
 10
2746.124023
 20
-1.485945
 11
2745.035645
 21
-0.660777
  0
LINE
  8
TEILE
 62
2
 10
2745.035645
 20
-0.660777
 11
2743.893799
 21
0.088211
  0
LINE
  8
TEILE
 62
2
 10
2743.893799
 20
0.088211
 11
2742.703613
 21
0.757527
  0
LINE
  8
TEILE
 62
2
 10
2742.703613
 20
0.757527
 11
2741.469971
 21
1.344051
  0
LINE
  8
TEILE
 62
2
 10
2741.469971
 20
1.344051
 11
2740.199951
 21
1.845048
  0
LINE
  8
TEILE
 62
2
 10
2740.199951
 20
1.845048
 11
2738.897949
 21
2.258184
  0
LINE
  8
TEILE
 62
2
 10
2738.897949
 20
2.258184
 11
2737.571289
 21
2.581531
  0
LINE
  8
TEILE
 62
2
 10
2737.571289
 20
2.581531
 11
2736.225586
 21
2.813582
  0
LINE
  8
TEILE
 62
2
 10
2736.225586
 20
2.813582
 11
2734.866943
 21
2.953256
  0
LINE
  8
TEILE
 62
2
 10
2734.866943
 20
2.953256
 11
2733.502197
 21
2.999901
  0
LINE
  8
TEILE
 62
2
 10
2733.502197
 20
2.999901
 11
2733.502197
 21
2.999970
  0
LINE
  8
TEILE
 62
2
 10
2733.502197
 20
2.999970
 11
2430.644775
 21
2.999970
  0
LINE
  8
TEILE
 62
2
 10
2430.644775
 20
2.999970
 11
2429.722168
 21
2.957305
  0
LINE
  8
TEILE
 62
2
 10
2429.722168
 20
2.957305
 11
2428.807373
 21
2.829683
  0
LINE
  8
TEILE
 62
2
 10
2428.807373
 20
2.829683
 11
2427.908203
 21
2.618199
  0
LINE
  8
TEILE
 62
2
 10
2427.908203
 20
2.618199
 11
2427.032471
 21
2.324658
  0
LINE
  8
TEILE
 62
2
 10
2427.032471
 20
2.324658
 11
2426.187500
 21
1.951564
  0
LINE
  8
TEILE
 62
2
 10
2426.187500
 20
1.951564
 11
2425.380615
 21
1.502100
  0
LINE
  8
TEILE
 62
2
 10
2425.380615
 20
1.502100
 11
2424.618652
 21
0.980099
  0
LINE
  8
TEILE
 62
2
 10
2424.618652
 20
0.980099
 11
2423.907959
 21
0.390016
  0
LINE
  8
TEILE
 62
2
 10
2423.907959
 20
0.390016
 11
2423.254883
 21
-0.263116
  0
LINE
  8
TEILE
 62
2
 10
2423.254883
 20
-0.263116
 11
2422.664551
 21
-0.973724
  0
LINE
  8
TEILE
 62
2
 10
2422.664551
 20
-0.973724
 11
2422.142578
 21
-1.735745
  0
LINE
  8
TEILE
 62
2
 10
2422.142578
 20
-1.735745
 11
2421.693359
 21
-2.542679
  0
LINE
  8
TEILE
 62
2
 10
2421.693359
 20
-2.542679
 11
2421.320313
 21
-3.387642
  0
LINE
  8
TEILE
 62
2
 10
2421.320313
 20
-3.387642
 11
2421.026611
 21
-4.263424
  0
LINE
  8
TEILE
 62
2
 10
2421.026611
 20
-4.263424
 11
2420.815186
 21
-5.162554
  0
LINE
  8
TEILE
 62
2
 10
2420.815186
 20
-5.162554
 11
2420.687500
 21
-6.077362
  0
LINE
  8
TEILE
 62
2
 10
2420.687500
 20
-6.077362
 11
2420.644775
 21
-7.000043
  0
LINE
  8
TEILE
 62
2
 10
2420.644775
 20
-7.000043
 11
2420.644775
 21
-7.000031
  0
LINE
  8
TEILE
 62
2
 10
2420.644775
 20
-7.000031
 11
2420.644775
 21
-10.000023
  0
LINE
  8
TEILE
 62
2
 10
2420.644775
 20
-10.000023
 11
457.162811
 21
-9.999949
  0
LINE
  8
TEILE
 62
2
 10
457.162811
 20
-9.999949
 11
457.120178
 21
-9.077266
  0
LINE
  8
TEILE
 62
2
 10
457.120178
 20
-9.077266
 11
456.992554
 21
-8.162455
  0
LINE
  8
TEILE
 62
2
 10
456.992554
 20
-8.162455
 11
456.781067
 21
-7.263321
  0
LINE
  8
TEILE
 62
2
 10
456.781067
 20
-7.263321
 11
456.487549
 21
-6.387535
  0
LINE
  8
TEILE
 62
2
 10
456.487549
 20
-6.387535
 11
456.114471
 21
-5.542568
  0
LINE
  8
TEILE
 62
2
 10
456.114471
 20
-5.542568
 11
455.664978
 21
-4.735631
  0
LINE
  8
TEILE
 62
2
 10
455.664978
 20
-4.735631
 11
455.142975
 21
-3.973607
  0
LINE
  8
TEILE
 62
2
 10
455.142975
 20
-3.973607
 11
454.552917
 21
-3.262997
  0
LINE
  8
TEILE
 62
2
 10
454.552917
 20
-3.262997
 11
453.899780
 21
-2.609865
  0
LINE
  8
TEILE
 62
2
 10
453.899780
 20
-2.609865
 11
453.189148
 21
-2.019783
  0
LINE
  8
TEILE
 62
2
 10
453.189148
 20
-2.019783
 11
452.427124
 21
-1.497784
  0
LINE
  8
TEILE
 62
2
 10
452.427124
 20
-1.497784
 11
451.620209
 21
-1.048324
  0
LINE
  8
TEILE
 62
2
 10
451.620209
 20
-1.048324
 11
450.775208
 21
-0.675235
  0
LINE
  8
TEILE
 62
2
 10
450.775208
 20
-0.675235
 11
449.899445
 21
-0.381701
  0
LINE
  8
TEILE
 62
2
 10
449.899445
 20
-0.381701
 11
449.000305
 21
-0.170227
  0
LINE
  8
TEILE
 62
2
 10
449.000305
 20
-0.170227
 11
448.085510
 21
-0.042616
  0
LINE
  8
TEILE
 62
2
 10
448.085510
 20
-0.042616
 11
447.162811
 21
0.000042
  0
LINE
  8
TEILE
 62
2
 10
447.162811
 20
0.000042
 11
447.162811
 21
0.000047
  0
LINE
  8
TEILE
 62
2
 10
447.162811
 20
0.000047
 11
264.837952
 21
-0.000027
  0
LINE
  8
TEILE
 62
2
 10
264.837952
 20
-0.000027
 11
263.966400
 21
-0.038079
  0
LINE
  8
TEILE
 62
2
 10
263.966400
 20
-0.038079
 11
263.101471
 21
-0.151944
  0
LINE
  8
TEILE
 62
2
 10
263.101471
 20
-0.151944
 11
262.249756
 21
-0.340760
  0
LINE
  8
TEILE
 62
2
 10
262.249756
 20
-0.340760
 11
261.417725
 21
-0.603089
  0
LINE
  8
TEILE
 62
2
 10
261.417725
 20
-0.603089
 11
260.611755
 21
-0.936935
  0
LINE
  8
TEILE
 62
2
 10
260.611755
 20
-0.936935
 11
259.837921
 21
-1.339758
  0
LINE
  8
TEILE
 62
2
 10
259.837921
 20
-1.339758
 11
259.102173
 21
-1.808491
  0
LINE
  8
TEILE
 62
2
 10
259.102173
 20
-1.808491
 11
258.410065
 21
-2.339566
  0
LINE
  8
TEILE
 62
2
 10
258.410065
 20
-2.339566
 11
257.766846
 21
-2.928943
  0
LINE
  8
TEILE
 62
2
 10
257.766846
 20
-2.928943
 11
257.177490
 21
-3.572135
  0
LINE
  8
TEILE
 62
2
 10
257.177490
 20
-3.572135
 11
256.646393
 21
-4.264248
  0
LINE
  8
TEILE
 62
2
 10
256.646393
 20
-4.264248
 11
256.177673
 21
-5.000013
  0
LINE
  8
TEILE
 62
2
 10
256.177673
 20
-5.000013
 11
255.774841
 21
-5.773832
  0
LINE
  8
TEILE
 62
2
 10
255.774841
 20
-5.773832
 11
255.440994
 21
-6.579815
  0
LINE
  8
TEILE
 62
2
 10
255.440994
 20
-6.579815
 11
255.178665
 21
-7.411828
  0
LINE
  8
TEILE
 62
2
 10
255.178665
 20
-7.411828
 11
254.989853
 21
-8.263538
  0
LINE
  8
TEILE
 62
2
 10
254.989853
 20
-8.263538
 11
254.875977
 21
-9.128465
  0
LINE
  8
TEILE
 62
2
 10
254.875977
 20
-9.128465
 11
254.837936
 21
-10.000024
  0
LINE
  8
TEILE
 62
2
 10
254.837936
 20
-10.000024
 11
254.837936
 21
-10.000023
  0
LINE
  8
TEILE
 62
2
 10
254.837936
 20
-10.000023
 11
90.848297
 21
-10.000023
  0
LINE
  8
TEILE
 62
2
 10
74.579727
 20
-10.000023
 11
-0.000000
 21
-10.000023
  0
LINE
  8
TEILE
 62
2
 10
-0.000000
 20
-10.000023
 11
0.000000
 21
29.999979
  0
LINE
  8
TEILE
 62
2
 10
0.000000
 20
29.999979
 11
2793.500488
 21
29.999979
  0
TEXT
 8
BEZ_SCHRAUBEN
 62
2
 10
74.994980
 20
-9.496437
 40
5.000000
 41
0.800000
 51
15.000000
  1
 ø14
  0
ENDSEC
  0
EOF

