999
     *******************************************
999
     BOCAD Software GmbH   Rev.18.000   0202.22
999
     Filename:   c:\progetti21\danieli_aqs\b4\temp_63\10630.dxf
999
     Creator:    bocad
999
     Date:       20.01.2016
999
     Factor:     10.000000
999
     *******************************************
  0
SECTION
  2
HEADER
  9
$DWGCODEPAGE
  3
ANSI_1252
  9
$INSBASE
 10
0.0
 20
0.0
 30
0.0
  9
$EXTMIN
 10
-0.499885
 20
-20.500000
  9
$EXTMAX
 10
2806.499939
 20
20.500000
  9
$LIMMIN
 10
-1.499885
 20
-21.500000
  9
$LIMMAX
 10
2807.499939
 20
21.500000
  9
$LTSCALE
 40
10.000000
  0
ENDSEC
  0
SECTION
  2
TABLES
  0
TABLE
  2
LTYPE
 70
4
  0
LTYPE
  2
CONTINUOUS
 70
64
  3
____________________________________________
 72
65
 73
0
 40
0.0
  0
LTYPE
  2
HIDDEN
 70
64
  3
__ __ __ __ __ __ __ __ __ __ __ __ __ __ __
 72
65
 73
2
 40
0.50
 49
0.30
 49
-0.20
  0
LTYPE
  2
DASHDOT
 70
64
  3
____ _ ____ _ ____ _ ____ _ ____ _ ____ _ __
 72
65
 73
4
 40
2.0
 49
1.5
 49
-0.25
 49
0
 49
-0.25
  0
LTYPE
  2
DOT
 70
64
  3
............................................
 72
65
 73
2
 40
0.30
 49
0
 49
-0.30
  0
ENDTAB
  0
TABLE
  2
LAYER
 70
23
  0
LAYER
  2
SCHRAUBEN
 70
64
 62
7
  6
CONTINUOUS
  0
LAYER
  2
REST
 70
64
 62
7
  6
CONTINUOUS
  0
LAYER
  2
UNTERSCHRIFT
 70
64
 62
7
  6
CONTINUOUS
  0
LAYER
  2
TEILE
 70
64
 62
7
  6
CONTINUOUS
  0
LAYER
  2
BEZ_SCHRAUBEN
 70
64
 62
7
  6
CONTINUOUS
  0
LAYER
  2
MARKERPUNKTE
 70
64
 62
7
  6
CONTINUOUS
  0
LAYER
  2
HILFSPUNKTE
 70
64
 62
7
  6
CONTINUOUS
  0
LAYER
  2
PICKPUNKTE
 70
64
 62
7
  6
CONTINUOUS
  0
LAYER
  2
SCHWEISSEN
 70
64
 62
7
  6
CONTINUOUS
  0
LAYER
  2
GRAFIK
 70
64
 62
7
  6
CONTINUOUS
  0
LAYER
  2
BEM_FREI
 70
64
 62
7
  6
CONTINUOUS
  0
LAYER
  2
BEM_SYSTEM
 70
64
 62
7
  6
CONTINUOUS
  0
LAYER
  2
BEM_KONTUR
 70
64
 62
7
  6
CONTINUOUS
  0
LAYER
  2
BEM_ANBAU
 70
64
 62
7
  6
CONTINUOUS
  0
LAYER
  2
BEM_SCHRAUBEN
 70
64
 62
7
  6
CONTINUOUS
  0
LAYER
  2
BEM_SCHWEISSEN
 70
64
 62
7
  6
CONTINUOUS
  0
LAYER
  2
FREIER_TEXT
 70
64
 62
7
  6
CONTINUOUS
  0
LAYER
  2
BEZ_TEILE
 70
64
 62
7
  6
CONTINUOUS
  0
LAYER
  2
BEZ_SCHWEISSEN
 70
64
 62
7
  6
CONTINUOUS
  0
LAYER
  2
SCHRAFFUREN
 70
64
 62
7
  6
CONTINUOUS
  0
LAYER
  2
SCHNITTSYMBOL
 70
64
 62
7
  6
CONTINUOUS
  0
LAYER
  2
RASTER
 70
64
 62
7
  6
CONTINUOUS
  0
LAYER
  2
LISTEN
 70
64
 62
7
  6
CONTINUOUS
  0
LAYER
  2
RAHMEN
 70
64
 62
7
  6
CONTINUOUS
  0
ENDTAB
  0
TABLE
  2
STYLE
 70
1
  0
STYLE
  2
STANDARD
 70
64
 40
0
 41
1
 50
0.0
 71
0
 42
0.35
  3
ROMANS
  0
ENDTAB
  0
ENDSEC
  0
SECTION
  2
ENTITIES
  0
LINE
  8
SCHRAUBEN
 62
6
 10
1278.799438
 20
-2.200095
 11
1273.199463
 21
-7.800095
  0
LINE
  8
SCHRAUBEN
 62
6
 10
1273.199463
 20
-2.200095
 11
1278.799438
 21
-7.800095
  0
CIRCLE
  8
SCHRAUBEN
 62
2
 10
1275.999512
 20
-5.000094
 40
6.999878
  0
LINE
  8
SCHRAUBEN
 62
6
 10
2778.798828
 20
-2.200097
 11
2773.198730
 21
-7.800097
  0
LINE
  8
SCHRAUBEN
 62
6
 10
2773.198730
 20
-2.200097
 11
2778.798828
 21
-7.800097
  0
CIRCLE
  8
SCHRAUBEN
 62
2
 10
2775.998779
 20
-5.000096
 40
7.000244
  0
TEXT
 8
UNTERSCHRIFT
 62
2
 10
24.628525
 20
-17.999998
 40
3.250000
 41
0.800000
 51
15.000000
  1
Project  DP0GN9  ,Qty. 5  , Pos. 
  0
TEXT
 8
UNTERSCHRIFT
 62
2
 10
123.428513
 20
-17.999998
 40
3.250000
 41
0.800000
 51
15.000000
  1
  , Profi l PL40*5
  0
TEXT
 8
UNTERSCHRIFT
 62
2
 10
110.428513
 20
-17.999998
 40
3.250000
 41
0.800000
 51
15.000000
  1
10630
  0
LINE
  8
TEILE
 62
2
 10
0.000115
 20
-19.999998
 11
0.000115
 21
19.999996
  0
LINE
  8
TEILE
 62
2
 10
0.000115
 20
19.999996
 11
2805.999756
 21
19.999996
  0
LINE
  8
TEILE
 62
2
 10
2805.999756
 20
19.999996
 11
2805.999756
 21
-19.999998
  0
LINE
  8
TEILE
 62
2
 10
2805.999756
 20
-19.999998
 11
2479.003418
 21
-19.999998
  0
LINE
  8
TEILE
 62
2
 10
2479.003418
 20
-19.999998
 11
2478.960449
 21
-19.077337
  0
LINE
  8
TEILE
 62
2
 10
2478.960449
 20
-19.077337
 11
2478.832764
 21
-18.162552
  0
LINE
  8
TEILE
 62
2
 10
2478.832764
 20
-18.162552
 11
2478.621338
 21
-17.263447
  0
LINE
  8
TEILE
 62
2
 10
2478.621338
 20
-17.263447
 11
2478.327881
 21
-16.387690
  0
LINE
  8
TEILE
 62
2
 10
2478.327881
 20
-16.387690
 11
2477.954590
 21
-15.542753
  0
LINE
  8
TEILE
 62
2
 10
2477.954590
 20
-15.542753
 11
2477.505127
 21
-14.735843
  0
LINE
  8
TEILE
 62
2
 10
2477.505127
 20
-14.735843
 11
2476.983154
 21
-13.973842
  0
LINE
  8
TEILE
 62
2
 10
2476.983154
 20
-13.973842
 11
2476.393066
 21
-13.263249
  0
LINE
  8
TEILE
 62
2
 10
2476.393066
 20
-13.263249
 11
2475.739990
 21
-12.610129
  0
LINE
  8
TEILE
 62
2
 10
2475.739990
 20
-12.610129
 11
2475.029541
 21
-12.020050
  0
LINE
  8
TEILE
 62
2
 10
2475.029541
 20
-12.020050
 11
2474.267334
 21
-11.498047
  0
LINE
  8
TEILE
 62
2
 10
2474.267334
 20
-11.498047
 11
2473.460449
 21
-11.048573
  0
LINE
  8
TEILE
 62
2
 10
2473.460449
 20
-11.048573
 11
2472.615723
 21
-10.675459
  0
LINE
  8
TEILE
 62
2
 10
2472.615723
 20
-10.675459
 11
2471.739746
 21
-10.381890
  0
LINE
  8
TEILE
 62
2
 10
2471.739746
 20
-10.381890
 11
2470.840820
 21
-10.170372
  0
LINE
  8
TEILE
 62
2
 10
2470.840820
 20
-10.170372
 11
2469.926025
 21
-10.042705
  0
LINE
  8
TEILE
 62
2
 10
2469.926025
 20
-10.042705
 11
2469.003418
 21
-9.999982
  0
LINE
  8
TEILE
 62
2
 10
2469.003418
 20
-9.999982
 11
2469.003418
 21
-10.000023
  0
LINE
  8
TEILE
 62
2
 10
2469.003418
 20
-10.000023
 11
2290.383057
 21
-10.000023
  0
LINE
  8
TEILE
 62
2
 10
2290.383057
 20
-10.000023
 11
2289.460205
 21
-10.042687
  0
LINE
  8
TEILE
 62
2
 10
2289.460205
 20
-10.042687
 11
2288.545410
 21
-10.170309
  0
LINE
  8
TEILE
 62
2
 10
2288.545410
 20
-10.170309
 11
2287.646240
 21
-10.381793
  0
LINE
  8
TEILE
 62
2
 10
2287.646240
 20
-10.381793
 11
2286.770508
 21
-10.675333
  0
LINE
  8
TEILE
 62
2
 10
2286.770508
 20
-10.675333
 11
2285.925537
 21
-11.048426
  0
LINE
  8
TEILE
 62
2
 10
2285.925537
 20
-11.048426
 11
2285.118652
 21
-11.497890
  0
LINE
  8
TEILE
 62
2
 10
2285.118652
 20
-11.497890
 11
2284.356689
 21
-12.019888
  0
LINE
  8
TEILE
 62
2
 10
2284.356689
 20
-12.019888
 11
2283.645996
 21
-12.609969
  0
LINE
  8
TEILE
 62
2
 10
2283.645996
 20
-12.609969
 11
2282.992920
 21
-13.263098
  0
LINE
  8
TEILE
 62
2
 10
2282.992920
 20
-13.263098
 11
2282.402832
 21
-13.973703
  0
LINE
  8
TEILE
 62
2
 10
2282.402832
 20
-13.973703
 11
2281.880859
 21
-14.735722
  0
LINE
  8
TEILE
 62
2
 10
2281.880859
 20
-14.735722
 11
2281.431396
 21
-15.542652
  0
LINE
  8
TEILE
 62
2
 10
2281.431396
 20
-15.542652
 11
2281.058350
 21
-16.387611
  0
LINE
  8
TEILE
 62
2
 10
2281.058350
 20
-16.387611
 11
2280.764648
 21
-17.263391
  0
LINE
  8
TEILE
 62
2
 10
2280.764648
 20
-17.263391
 11
2280.553223
 21
-18.162519
  0
LINE
  8
TEILE
 62
2
 10
2280.553223
 20
-18.162519
 11
2280.425781
 21
-19.077324
  0
LINE
  8
TEILE
 62
2
 10
2280.425781
 20
-19.077324
 11
2280.383057
 21
-20.000000
  0
LINE
  8
TEILE
 62
2
 10
2280.383057
 20
-20.000000
 11
2280.383057
 21
-19.999998
  0
LINE
  8
TEILE
 62
2
 10
2280.383057
 20
-19.999998
 11
1283.853516
 21
-19.999998
  0
LINE
  8
TEILE
 62
2
 10
1267.585083
 20
-19.999998
 11
391.377228
 21
-19.999998
  0
LINE
  8
TEILE
 62
2
 10
391.377228
 20
-19.999998
 11
391.334534
 21
-19.077318
  0
LINE
  8
TEILE
 62
2
 10
391.334534
 20
-19.077318
 11
391.206940
 21
-18.162508
  0
LINE
  8
TEILE
 62
2
 10
391.206940
 20
-18.162508
 11
390.995453
 21
-17.263376
  0
LINE
  8
TEILE
 62
2
 10
390.995453
 20
-17.263376
 11
390.701904
 21
-16.387592
  0
LINE
  8
TEILE
 62
2
 10
390.701904
 20
-16.387592
 11
390.328827
 21
-15.542627
  0
LINE
  8
TEILE
 62
2
 10
390.328827
 20
-15.542627
 11
389.879395
 21
-14.735693
  0
LINE
  8
TEILE
 62
2
 10
389.879395
 20
-14.735693
 11
389.357361
 21
-13.973670
  0
LINE
  8
TEILE
 62
2
 10
389.357361
 20
-13.973670
 11
388.767273
 21
-13.263062
  0
LINE
  8
TEILE
 62
2
 10
388.767273
 20
-13.263062
 11
388.114166
 21
-12.609931
  0
LINE
  8
TEILE
 62
2
 10
388.114166
 20
-12.609931
 11
387.403564
 21
-12.019849
  0
LINE
  8
TEILE
 62
2
 10
387.403564
 20
-12.019849
 11
386.641541
 21
-11.497849
  0
LINE
  8
TEILE
 62
2
 10
386.641541
 20
-11.497849
 11
385.834595
 21
-11.048388
  0
LINE
  8
TEILE
 62
2
 10
385.834595
 20
-11.048388
 11
384.989624
 21
-10.675298
  0
LINE
  8
TEILE
 62
2
 10
384.989624
 20
-10.675298
 11
384.113831
 21
-10.381763
  0
LINE
  8
TEILE
 62
2
 10
384.113831
 20
-10.381763
 11
383.214722
 21
-10.170287
  0
LINE
  8
TEILE
 62
2
 10
383.214722
 20
-10.170287
 11
382.299866
 21
-10.042673
  0
LINE
  8
TEILE
 62
2
 10
382.299866
 20
-10.042673
 11
381.377228
 21
-10.000011
  0
LINE
  8
TEILE
 62
2
 10
381.377228
 20
-10.000011
 11
381.377228
 21
-10.000023
  0
LINE
  8
TEILE
 62
2
 10
381.377228
 20
-10.000023
 11
210.056915
 21
-10.000023
  0
LINE
  8
TEILE
 62
2
 10
210.056915
 20
-10.000023
 11
209.185349
 21
-10.038073
  0
LINE
  8
TEILE
 62
2
 10
209.185349
 20
-10.038073
 11
208.320435
 21
-10.151941
  0
LINE
  8
TEILE
 62
2
 10
208.320435
 20
-10.151941
 11
207.468719
 21
-10.340758
  0
LINE
  8
TEILE
 62
2
 10
207.468719
 20
-10.340758
 11
206.636719
 21
-10.603089
  0
LINE
  8
TEILE
 62
2
 10
206.636719
 20
-10.603089
 11
205.830719
 21
-10.936936
  0
LINE
  8
TEILE
 62
2
 10
205.830719
 20
-10.936936
 11
205.056915
 21
-11.339759
  0
LINE
  8
TEILE
 62
2
 10
205.056915
 20
-11.339759
 11
204.321152
 21
-11.808491
  0
LINE
  8
TEILE
 62
2
 10
204.321152
 20
-11.808491
 11
203.629028
 21
-12.339564
  0
LINE
  8
TEILE
 62
2
 10
203.629028
 20
-12.339564
 11
202.985855
 21
-12.928939
  0
LINE
  8
TEILE
 62
2
 10
202.985855
 20
-12.928939
 11
202.396469
 21
-13.572129
  0
LINE
  8
TEILE
 62
2
 10
202.396469
 20
-13.572129
 11
201.865402
 21
-14.264238
  0
LINE
  8
TEILE
 62
2
 10
201.865402
 20
-14.264238
 11
201.396667
 21
-15.000000
  0
LINE
  8
TEILE
 62
2
 10
201.396667
 20
-15.000000
 11
200.993835
 21
-15.773815
  0
LINE
  8
TEILE
 62
2
 10
200.993835
 20
-15.773815
 11
200.660004
 21
-16.579796
  0
LINE
  8
TEILE
 62
2
 10
200.660004
 20
-16.579796
 11
200.397659
 21
-17.411802
  0
LINE
  8
TEILE
 62
2
 10
200.397659
 20
-17.411802
 11
200.208832
 21
-18.263510
  0
LINE
  8
TEILE
 62
2
 10
200.208832
 20
-18.263510
 11
200.094971
 21
-19.128433
  0
LINE
  8
TEILE
 62
2
 10
200.094971
 20
-19.128433
 11
200.056915
 21
-19.999989
  0
LINE
  8
TEILE
 62
2
 10
200.056915
 20
-19.999989
 11
200.056915
 21
-19.999998
  0
LINE
  8
TEILE
 62
2
 10
200.056915
 20
-19.999998
 11
0.000115
 21
-19.999998
  0
TEXT
 8
BEZ_SCHRAUBEN
 62
2
 10
1267.999390
 20
-19.500095
 40
5.000000
 41
0.800000
 51
15.000000
  1
 ø14
  0
ENDSEC
  0
EOF

