999
     *******************************************
999
     BOCAD Software GmbH   Rev.18.000   0202.22
999
     Filename:   c:\progetti21\danieli_aqs\b4\temp_11\20600.dxf
999
     Creator:    bocad
999
     Date:       20.01.2016
999
     Factor:     10.000000
999
     *******************************************
  0
SECTION
  2
HEADER
  9
$DWGCODEPAGE
  3
ANSI_1252
  9
$INSBASE
 10
0.0
 20
0.0
 30
0.0
  9
$EXTMIN
 10
-0.500000
 20
-230.499992
  9
$EXTMAX
 10
800.503082
 20
230.499992
  9
$LIMMIN
 10
-1.500000
 20
-231.499992
  9
$LIMMAX
 10
801.503082
 20
231.499992
  9
$LTSCALE
 40
10.000000
  0
ENDSEC
  0
SECTION
  2
TABLES
  0
TABLE
  2
LTYPE
 70
4
  0
LTYPE
  2
CONTINUOUS
 70
64
  3
____________________________________________
 72
65
 73
0
 40
0.0
  0
LTYPE
  2
HIDDEN
 70
64
  3
__ __ __ __ __ __ __ __ __ __ __ __ __ __ __
 72
65
 73
2
 40
0.50
 49
0.30
 49
-0.20
  0
LTYPE
  2
DASHDOT
 70
64
  3
____ _ ____ _ ____ _ ____ _ ____ _ ____ _ __
 72
65
 73
4
 40
2.0
 49
1.5
 49
-0.25
 49
0
 49
-0.25
  0
LTYPE
  2
DOT
 70
64
  3
............................................
 72
65
 73
2
 40
0.30
 49
0
 49
-0.30
  0
ENDTAB
  0
TABLE
  2
LAYER
 70
23
  0
LAYER
  2
SCHRAUBEN
 70
64
 62
7
  6
CONTINUOUS
  0
LAYER
  2
REST
 70
64
 62
7
  6
CONTINUOUS
  0
LAYER
  2
UNTERSCHRIFT
 70
64
 62
7
  6
CONTINUOUS
  0
LAYER
  2
TEILE
 70
64
 62
7
  6
CONTINUOUS
  0
LAYER
  2
BEZ_SCHRAUBEN
 70
64
 62
7
  6
CONTINUOUS
  0
LAYER
  2
MARKERPUNKTE
 70
64
 62
7
  6
CONTINUOUS
  0
LAYER
  2
HILFSPUNKTE
 70
64
 62
7
  6
CONTINUOUS
  0
LAYER
  2
PICKPUNKTE
 70
64
 62
7
  6
CONTINUOUS
  0
LAYER
  2
SCHWEISSEN
 70
64
 62
7
  6
CONTINUOUS
  0
LAYER
  2
GRAFIK
 70
64
 62
7
  6
CONTINUOUS
  0
LAYER
  2
BEM_FREI
 70
64
 62
7
  6
CONTINUOUS
  0
LAYER
  2
BEM_SYSTEM
 70
64
 62
7
  6
CONTINUOUS
  0
LAYER
  2
BEM_KONTUR
 70
64
 62
7
  6
CONTINUOUS
  0
LAYER
  2
BEM_ANBAU
 70
64
 62
7
  6
CONTINUOUS
  0
LAYER
  2
BEM_SCHRAUBEN
 70
64
 62
7
  6
CONTINUOUS
  0
LAYER
  2
BEM_SCHWEISSEN
 70
64
 62
7
  6
CONTINUOUS
  0
LAYER
  2
FREIER_TEXT
 70
64
 62
7
  6
CONTINUOUS
  0
LAYER
  2
BEZ_TEILE
 70
64
 62
7
  6
CONTINUOUS
  0
LAYER
  2
BEZ_SCHWEISSEN
 70
64
 62
7
  6
CONTINUOUS
  0
LAYER
  2
SCHRAFFUREN
 70
64
 62
7
  6
CONTINUOUS
  0
LAYER
  2
SCHNITTSYMBOL
 70
64
 62
7
  6
CONTINUOUS
  0
LAYER
  2
RASTER
 70
64
 62
7
  6
CONTINUOUS
  0
LAYER
  2
LISTEN
 70
64
 62
7
  6
CONTINUOUS
  0
LAYER
  2
RAHMEN
 70
64
 62
7
  6
CONTINUOUS
  0
ENDTAB
  0
TABLE
  2
STYLE
 70
1
  0
STYLE
  2
STANDARD
 70
64
 40
0
 41
1
 50
0.0
 71
0
 42
0.35
  3
ROMANS
  0
ENDTAB
  0
ENDSEC
  0
SECTION
  2
ENTITIES
  0
LINE
  8
SCHRAUBEN
 62
6
 10
114.599998
 20
144.599899
 11
85.400002
 21
115.399902
  0
LINE
  8
SCHRAUBEN
 62
6
 10
85.400002
 20
144.599899
 11
114.599998
 21
115.399902
  0
CIRCLE
  8
SCHRAUBEN
 62
4
 10
100.000000
 20
129.999908
 40
36.500000
  0
LINE
  8
SCHRAUBEN
 62
6
 10
334.604553
 20
144.599899
 11
305.404602
 21
115.399902
  0
LINE
  8
SCHRAUBEN
 62
6
 10
305.404602
 20
144.599899
 11
334.604553
 21
115.399902
  0
CIRCLE
  8
SCHRAUBEN
 62
4
 10
320.004578
 20
129.999908
 40
36.500000
  0
LINE
  8
SCHRAUBEN
 62
6
 10
494.617554
 20
144.599899
 11
465.417542
 21
115.399902
  0
LINE
  8
SCHRAUBEN
 62
6
 10
465.417542
 20
144.599899
 11
494.617554
 21
115.399902
  0
CIRCLE
  8
SCHRAUBEN
 62
4
 10
480.017548
 20
129.999908
 40
36.500031
  0
LINE
  8
SCHRAUBEN
 62
6
 10
714.603027
 20
144.599899
 11
685.403076
 21
115.399902
  0
LINE
  8
SCHRAUBEN
 62
6
 10
685.403076
 20
144.599899
 11
714.603027
 21
115.399902
  0
CIRCLE
  8
SCHRAUBEN
 62
4
 10
700.003052
 20
129.999908
 40
36.500000
  0
LINE
  8
SCHRAUBEN
 62
6
 10
714.603027
 20
-115.399902
 11
685.403076
 21
-144.599899
  0
LINE
  8
SCHRAUBEN
 62
6
 10
685.403076
 20
-115.399902
 11
714.603027
 21
-144.599899
  0
CIRCLE
  8
SCHRAUBEN
 62
4
 10
700.003052
 20
-129.999908
 40
36.500000
  0
LINE
  8
SCHRAUBEN
 62
6
 10
494.617554
 20
-115.399902
 11
465.417542
 21
-144.599899
  0
LINE
  8
SCHRAUBEN
 62
6
 10
465.417542
 20
-115.399902
 11
494.617554
 21
-144.599899
  0
CIRCLE
  8
SCHRAUBEN
 62
4
 10
480.017548
 20
-129.999908
 40
36.500031
  0
LINE
  8
SCHRAUBEN
 62
6
 10
334.604553
 20
-115.399902
 11
305.404602
 21
-144.599899
  0
LINE
  8
SCHRAUBEN
 62
6
 10
305.404602
 20
-115.399902
 11
334.604553
 21
-144.599899
  0
CIRCLE
  8
SCHRAUBEN
 62
4
 10
320.004578
 20
-129.999908
 40
36.500000
  0
LINE
  8
SCHRAUBEN
 62
6
 10
114.599998
 20
-115.399902
 11
85.400002
 21
-144.599899
  0
LINE
  8
SCHRAUBEN
 62
6
 10
85.400002
 20
-115.399902
 11
114.599998
 21
-144.599899
  0
CIRCLE
  8
SCHRAUBEN
 62
4
 10
100.000000
 20
-129.999908
 40
36.500000
  0
TEXT
 8
UNTERSCHRIFT
 62
2
 10
5.250000
 20
-78.000000
 40
3.250000
 50
89.999931
 41
0.800000
 51
15.000000
  1
Project  DP0GN9  ,Qty. 8  , Pos. 
  0
TEXT
 8
UNTERSCHRIFT
 62
2
 10
5.250000
 20
20.799997
 40
3.250000
 50
89.999931
 41
0.800000
 51
15.000000
  1
  , Profi l PL460*40
  0
TEXT
 8
UNTERSCHRIFT
 62
2
 10
5.250000
 20
7.799996
 40
3.250000
 50
89.999931
 41
0.800000
 51
15.000000
  1
20600
  0
LINE
  8
TEILE
 62
2
 10
-0.000000
 20
230.000000
 11
800.003052
 21
230.000000
  0
LINE
  8
TEILE
 62
2
 10
800.003052
 20
230.000000
 11
800.003052
 21
-230.000000
  0
LINE
  8
TEILE
 62
2
 10
800.003052
 20
-230.000000
 11
-0.000000
 21
-230.000000
  0
LINE
  8
TEILE
 62
2
 10
-0.000000
 20
-230.000000
 11
-0.000000
 21
230.000000
  0
TEXT
 8
BEZ_SCHRAUBEN
 62
2
 10
92.000000
 20
85.999916
 40
5.000000
 41
0.800000
 51
15.000000
  1
 ø73
  0
ENDSEC
  0
EOF

