999
     *******************************************
999
     BOCAD Software GmbH   Rev.18.000   0202.22
999
     Filename:   c:\progetti21\danieli_aqs\b4\temp_11\20608.dxf
999
     Creator:    bocad
999
     Date:       20.01.2016
999
     Factor:     10.000000
999
     *******************************************
  0
SECTION
  2
HEADER
  9
$DWGCODEPAGE
  3
ANSI_1252
  9
$INSBASE
 10
0.0
 20
0.0
 30
0.0
  9
$EXTMIN
 10
-0.500006
 20
-175.500031
  9
$EXTMAX
 10
11384.494629
 20
175.499992
  9
$LIMMIN
 10
-1.500006
 20
-176.500031
  9
$LIMMAX
 10
11385.494629
 20
176.499992
  9
$LTSCALE
 40
10.000000
  0
ENDSEC
  0
SECTION
  2
TABLES
  0
TABLE
  2
LTYPE
 70
4
  0
LTYPE
  2
CONTINUOUS
 70
64
  3
____________________________________________
 72
65
 73
0
 40
0.0
  0
LTYPE
  2
HIDDEN
 70
64
  3
__ __ __ __ __ __ __ __ __ __ __ __ __ __ __
 72
65
 73
2
 40
0.50
 49
0.30
 49
-0.20
  0
LTYPE
  2
DASHDOT
 70
64
  3
____ _ ____ _ ____ _ ____ _ ____ _ ____ _ __
 72
65
 73
4
 40
2.0
 49
1.5
 49
-0.25
 49
0
 49
-0.25
  0
LTYPE
  2
DOT
 70
64
  3
............................................
 72
65
 73
2
 40
0.30
 49
0
 49
-0.30
  0
ENDTAB
  0
TABLE
  2
LAYER
 70
23
  0
LAYER
  2
UNTERSCHRIFT
 70
64
 62
7
  6
CONTINUOUS
  0
LAYER
  2
TEILE
 70
64
 62
7
  6
CONTINUOUS
  0
LAYER
  2
REST
 70
64
 62
7
  6
CONTINUOUS
  0
LAYER
  2
MARKERPUNKTE
 70
64
 62
7
  6
CONTINUOUS
  0
LAYER
  2
HILFSPUNKTE
 70
64
 62
7
  6
CONTINUOUS
  0
LAYER
  2
PICKPUNKTE
 70
64
 62
7
  6
CONTINUOUS
  0
LAYER
  2
SCHRAUBEN
 70
64
 62
7
  6
CONTINUOUS
  0
LAYER
  2
SCHWEISSEN
 70
64
 62
7
  6
CONTINUOUS
  0
LAYER
  2
GRAFIK
 70
64
 62
7
  6
CONTINUOUS
  0
LAYER
  2
BEM_FREI
 70
64
 62
7
  6
CONTINUOUS
  0
LAYER
  2
BEM_SYSTEM
 70
64
 62
7
  6
CONTINUOUS
  0
LAYER
  2
BEM_KONTUR
 70
64
 62
7
  6
CONTINUOUS
  0
LAYER
  2
BEM_ANBAU
 70
64
 62
7
  6
CONTINUOUS
  0
LAYER
  2
BEM_SCHRAUBEN
 70
64
 62
7
  6
CONTINUOUS
  0
LAYER
  2
BEM_SCHWEISSEN
 70
64
 62
7
  6
CONTINUOUS
  0
LAYER
  2
FREIER_TEXT
 70
64
 62
7
  6
CONTINUOUS
  0
LAYER
  2
BEZ_TEILE
 70
64
 62
7
  6
CONTINUOUS
  0
LAYER
  2
BEZ_SCHRAUBEN
 70
64
 62
7
  6
CONTINUOUS
  0
LAYER
  2
BEZ_SCHWEISSEN
 70
64
 62
7
  6
CONTINUOUS
  0
LAYER
  2
SCHRAFFUREN
 70
64
 62
7
  6
CONTINUOUS
  0
LAYER
  2
SCHNITTSYMBOL
 70
64
 62
7
  6
CONTINUOUS
  0
LAYER
  2
RASTER
 70
64
 62
7
  6
CONTINUOUS
  0
LAYER
  2
LISTEN
 70
64
 62
7
  6
CONTINUOUS
  0
LAYER
  2
RAHMEN
 70
64
 62
7
  6
CONTINUOUS
  0
ENDTAB
  0
TABLE
  2
STYLE
 70
1
  0
STYLE
  2
STANDARD
 70
64
 40
0
 41
1
 50
0.0
 71
0
 42
0.35
  3
ROMANS
  0
ENDTAB
  0
ENDSEC
  0
SECTION
  2
ENTITIES
  0
TEXT
 8
UNTERSCHRIFT
 62
2
 10
5.250000
 20
-78.000031
 40
3.250000
 50
89.999931
 41
0.800000
 51
15.000000
  1
Project  DP0GN9  ,Qty. 2  , Pos. 
  0
TEXT
 8
UNTERSCHRIFT
 62
2
 10
5.250000
 20
20.799969
 40
3.250000
 50
89.999931
 41
0.800000
 51
15.000000
  1
  , Profi l PL350*12
  0
TEXT
 8
UNTERSCHRIFT
 62
2
 10
5.250000
 20
7.799968
 40
3.250000
 50
89.999931
 41
0.800000
 51
15.000000
  1
20608
  0
LINE
  8
TEILE
 62
2
 10
30.000000
 20
174.999985
 11
11353.994141
 21
175.000000
  0
LINE
  8
TEILE
 62
2
 10
11353.994141
 20
175.000000
 11
11354.035156
 21
173.429886
  0
LINE
  8
TEILE
 62
2
 10
11354.035156
 20
173.429886
 11
11354.159180
 21
171.864105
  0
LINE
  8
TEILE
 62
2
 10
11354.159180
 20
171.864105
 11
11354.363281
 21
170.306885
  0
LINE
  8
TEILE
 62
2
 10
11354.363281
 20
170.306885
 11
11354.649414
 21
168.762543
  0
LINE
  8
TEILE
 62
2
 10
11354.649414
 20
168.762543
 11
11355.015625
 21
167.235291
  0
LINE
  8
TEILE
 62
2
 10
11355.015625
 20
167.235291
 11
11355.462891
 21
165.729340
  0
LINE
  8
TEILE
 62
2
 10
11355.462891
 20
165.729340
 11
11355.986328
 21
164.248779
  0
LINE
  8
TEILE
 62
2
 10
11355.986328
 20
164.248779
 11
11356.586914
 21
162.797684
  0
LINE
  8
TEILE
 62
2
 10
11356.586914
 20
162.797684
 11
11357.263672
 21
161.380035
  0
LINE
  8
TEILE
 62
2
 10
11357.263672
 20
161.380035
 11
11358.012695
 21
159.999725
  0
LINE
  8
TEILE
 62
2
 10
11358.012695
 20
159.999725
 11
11358.833984
 21
158.660522
  0
LINE
  8
TEILE
 62
2
 10
11358.833984
 20
158.660522
 11
11359.722656
 21
157.366119
  0
LINE
  8
TEILE
 62
2
 10
11359.722656
 20
157.366119
 11
11360.679688
 21
156.120041
  0
LINE
  8
TEILE
 62
2
 10
11360.679688
 20
156.120041
 11
11361.699219
 21
154.925720
  0
LINE
  8
TEILE
 62
2
 10
11361.699219
 20
154.925720
 11
11362.781250
 21
153.786407
  0
LINE
  8
TEILE
 62
2
 10
11362.781250
 20
153.786407
 11
11363.919922
 21
152.705261
  0
LINE
  8
TEILE
 62
2
 10
11363.919922
 20
152.705261
 11
11365.115234
 21
151.685211
  0
LINE
  8
TEILE
 62
2
 10
11365.115234
 20
151.685211
 11
11366.359375
 21
150.729080
  0
LINE
  8
TEILE
 62
2
 10
11366.359375
 20
150.729080
 11
11367.655273
 21
149.839462
  0
LINE
  8
TEILE
 62
2
 10
11367.655273
 20
149.839462
 11
11368.994141
 21
149.018829
  0
LINE
  8
TEILE
 62
2
 10
11368.994141
 20
149.018829
 11
11370.375000
 21
148.269409
  0
LINE
  8
TEILE
 62
2
 10
11370.375000
 20
148.269409
 11
11371.791992
 21
147.593246
  0
LINE
  8
TEILE
 62
2
 10
11371.791992
 20
147.593246
 11
11373.243164
 21
146.992218
  0
LINE
  8
TEILE
 62
2
 10
11373.243164
 20
146.992218
 11
11374.724609
 21
146.467957
  0
LINE
  8
TEILE
 62
2
 10
11374.724609
 20
146.467957
 11
11376.229492
 21
146.021912
  0
LINE
  8
TEILE
 62
2
 10
11376.229492
 20
146.021912
 11
11377.755859
 21
145.655304
  0
LINE
  8
TEILE
 62
2
 10
11377.755859
 20
145.655304
 11
11379.300781
 21
145.369125
  0
LINE
  8
TEILE
 62
2
 10
11379.300781
 20
145.369125
 11
11380.858398
 21
145.164169
  0
LINE
  8
TEILE
 62
2
 10
11380.858398
 20
145.164169
 11
11382.423828
 21
145.041000
  0
LINE
  8
TEILE
 62
2
 10
11382.423828
 20
145.041000
 11
11383.994141
 21
144.999954
  0
LINE
  8
TEILE
 62
2
 10
11383.994141
 20
144.999954
 11
11383.994141
 21
145.000000
  0
LINE
  8
TEILE
 62
2
 10
11383.994141
 20
145.000000
 11
11383.994141
 21
-145.000000
  0
LINE
  8
TEILE
 62
2
 10
11383.994141
 20
-145.000000
 11
11382.423828
 21
-145.041107
  0
LINE
  8
TEILE
 62
2
 10
11382.423828
 20
-145.041107
 11
11380.858398
 21
-145.164337
  0
LINE
  8
TEILE
 62
2
 10
11380.858398
 20
-145.164337
 11
11379.300781
 21
-145.369339
  0
LINE
  8
TEILE
 62
2
 10
11379.300781
 20
-145.369339
 11
11377.755859
 21
-145.655563
  0
LINE
  8
TEILE
 62
2
 10
11377.755859
 20
-145.655563
 11
11376.229492
 21
-146.022217
  0
LINE
  8
TEILE
 62
2
 10
11376.229492
 20
-146.022217
 11
11374.724609
 21
-146.468292
  0
LINE
  8
TEILE
 62
2
 10
11374.724609
 20
-146.468292
 11
11373.243164
 21
-146.992584
  0
LINE
  8
TEILE
 62
2
 10
11373.243164
 20
-146.992584
 11
11371.791992
 21
-147.593628
  0
LINE
  8
TEILE
 62
2
 10
11371.791992
 20
-147.593628
 11
11370.375000
 21
-148.269806
  0
LINE
  8
TEILE
 62
2
 10
11370.375000
 20
-148.269806
 11
11368.994141
 21
-149.019226
  0
LINE
  8
TEILE
 62
2
 10
11368.994141
 20
-149.019226
 11
11367.655273
 21
-149.839874
  0
LINE
  8
TEILE
 62
2
 10
11367.655273
 20
-149.839874
 11
11366.361328
 21
-150.729492
  0
LINE
  8
TEILE
 62
2
 10
11366.361328
 20
-150.729492
 11
11365.115234
 21
-151.685623
  0
LINE
  8
TEILE
 62
2
 10
11365.115234
 20
-151.685623
 11
11363.919922
 21
-152.705658
  0
LINE
  8
TEILE
 62
2
 10
11363.919922
 20
-152.705658
 11
11362.781250
 21
-153.786789
  0
LINE
  8
TEILE
 62
2
 10
11362.781250
 20
-153.786789
 11
11361.699219
 21
-154.926071
  0
LINE
  8
TEILE
 62
2
 10
11361.699219
 20
-154.926071
 11
11360.679688
 21
-156.120377
  0
LINE
  8
TEILE
 62
2
 10
11360.679688
 20
-156.120377
 11
11359.724609
 21
-157.366425
  0
LINE
  8
TEILE
 62
2
 10
11359.724609
 20
-157.366425
 11
11358.833984
 21
-158.660828
  0
LINE
  8
TEILE
 62
2
 10
11358.833984
 20
-158.660828
 11
11358.013672
 21
-159.999985
  0
LINE
  8
TEILE
 62
2
 10
11358.013672
 20
-159.999985
 11
11357.264648
 21
-161.380280
  0
LINE
  8
TEILE
 62
2
 10
11357.264648
 20
-161.380280
 11
11356.587891
 21
-162.797882
  0
LINE
  8
TEILE
 62
2
 10
11356.587891
 20
-162.797882
 11
11355.986328
 21
-164.248947
  0
LINE
  8
TEILE
 62
2
 10
11355.986328
 20
-164.248947
 11
11355.462891
 21
-165.729462
  0
LINE
  8
TEILE
 62
2
 10
11355.462891
 20
-165.729462
 11
11355.015625
 21
-167.235413
  0
LINE
  8
TEILE
 62
2
 10
11355.015625
 20
-167.235413
 11
11354.649414
 21
-168.762634
  0
LINE
  8
TEILE
 62
2
 10
11354.649414
 20
-168.762634
 11
11354.364258
 21
-170.306931
  0
LINE
  8
TEILE
 62
2
 10
11354.364258
 20
-170.306931
 11
11354.159180
 21
-171.864105
  0
LINE
  8
TEILE
 62
2
 10
11354.159180
 20
-171.864105
 11
11354.035156
 21
-173.429886
  0
LINE
  8
TEILE
 62
2
 10
11354.035156
 20
-173.429886
 11
11353.994141
 21
-174.999969
  0
LINE
  8
TEILE
 62
2
 10
11353.994141
 20
-174.999969
 11
11353.994141
 21
-175.000000
  0
LINE
  8
TEILE
 62
2
 10
11353.994141
 20
-175.000000
 11
30.000000
 21
-175.000031
  0
LINE
  8
TEILE
 62
2
 10
30.000000
 20
-175.000031
 11
29.956007
 21
-173.375870
  0
LINE
  8
TEILE
 62
2
 10
29.956007
 20
-173.375870
 11
29.824142
 21
-171.756470
  0
LINE
  8
TEILE
 62
2
 10
29.824142
 20
-171.756470
 11
29.604799
 21
-170.146576
  0
LINE
  8
TEILE
 62
2
 10
29.604799
 20
-170.146576
 11
29.298620
 21
-168.550934
  0
LINE
  8
TEILE
 62
2
 10
29.298620
 20
-168.550934
 11
28.906502
 21
-166.974182
  0
LINE
  8
TEILE
 62
2
 10
28.906502
 20
-166.974182
 11
28.429596
 21
-165.420990
  0
LINE
  8
TEILE
 62
2
 10
28.429596
 20
-165.420990
 11
27.869303
 21
-163.895889
  0
LINE
  8
TEILE
 62
2
 10
27.869303
 20
-163.895889
 11
27.227264
 21
-162.403381
  0
LINE
  8
TEILE
 62
2
 10
27.227264
 20
-162.403381
 11
26.505360
 21
-160.947784
  0
LINE
  8
TEILE
 62
2
 10
26.505360
 20
-160.947784
 11
25.705715
 21
-159.533417
  0
LINE
  8
TEILE
 62
2
 10
25.705715
 20
-159.533417
 11
24.830667
 21
-158.164429
  0
LINE
  8
TEILE
 62
2
 10
24.830667
 20
-158.164429
 11
23.882790
 21
-156.844818
  0
LINE
  8
TEILE
 62
2
 10
23.882790
 20
-156.844818
 11
22.864859
 21
-155.578445
  0
LINE
  8
TEILE
 62
2
 10
22.864859
 20
-155.578445
 11
21.779861
 21
-154.369064
  0
LINE
  8
TEILE
 62
2
 10
21.779861
 20
-154.369064
 11
20.630980
 21
-153.220184
  0
LINE
  8
TEILE
 62
2
 10
20.630980
 20
-153.220184
 11
19.421585
 21
-152.135178
  0
LINE
  8
TEILE
 62
2
 10
19.421585
 20
-152.135178
 11
18.155224
 21
-151.117249
  0
LINE
  8
TEILE
 62
2
 10
18.155224
 20
-151.117249
 11
16.835608
 21
-150.169373
  0
LINE
  8
TEILE
 62
2
 10
16.835608
 20
-150.169373
 11
15.466612
 21
-149.294312
  0
LINE
  8
TEILE
 62
2
 10
15.466612
 20
-149.294312
 11
14.052250
 21
-148.494690
  0
LINE
  8
TEILE
 62
2
 10
14.052250
 20
-148.494690
 11
12.596669
 21
-147.772781
  0
LINE
  8
TEILE
 62
2
 10
12.596669
 20
-147.772781
 11
11.104141
 21
-147.130737
  0
LINE
  8
TEILE
 62
2
 10
11.104141
 20
-147.130737
 11
9.579042
 21
-146.570450
  0
LINE
  8
TEILE
 62
2
 10
9.579042
 20
-146.570450
 11
8.025846
 21
-146.093536
  0
LINE
  8
TEILE
 62
2
 10
8.025846
 20
-146.093536
 11
6.449109
 21
-145.701416
  0
LINE
  8
TEILE
 62
2
 10
6.449109
 20
-145.701416
 11
4.853455
 21
-145.395233
  0
LINE
  8
TEILE
 62
2
 10
4.853455
 20
-145.395233
 11
3.243566
 21
-145.175903
  0
LINE
  8
TEILE
 62
2
 10
3.243566
 20
-145.175903
 11
1.624162
 21
-145.044037
  0
LINE
  8
TEILE
 62
2
 10
1.624162
 20
-145.044037
 11
-0.000006
 21
-145.000031
  0
LINE
  8
TEILE
 62
2
 10
-0.000006
 20
-145.000031
 11
0.000000
 21
-145.000031
  0
LINE
  8
TEILE
 62
2
 10
0.000000
 20
-145.000031
 11
0.000000
 21
144.999969
  0
LINE
  8
TEILE
 62
2
 10
0.000000
 20
144.999969
 11
1.570077
 21
145.041077
  0
LINE
  8
TEILE
 62
2
 10
1.570077
 20
145.041077
 11
3.135853
 21
145.164322
  0
LINE
  8
TEILE
 62
2
 10
3.135853
 20
145.164322
 11
4.693035
 21
145.369324
  0
LINE
  8
TEILE
 62
2
 10
4.693035
 20
145.369324
 11
6.237353
 21
145.655548
  0
LINE
  8
TEILE
 62
2
 10
6.237353
 20
145.655548
 11
7.764575
 21
146.022202
  0
LINE
  8
TEILE
 62
2
 10
7.764575
 20
146.022202
 11
9.270514
 21
146.468277
  0
LINE
  8
TEILE
 62
2
 10
9.270514
 20
146.468277
 11
10.751045
 21
146.992554
  0
LINE
  8
TEILE
 62
2
 10
10.751045
 20
146.992554
 11
12.202106
 21
147.593613
  0
LINE
  8
TEILE
 62
2
 10
12.202106
 20
147.593613
 11
13.619723
 21
148.269775
  0
LINE
  8
TEILE
 62
2
 10
13.619723
 20
148.269775
 11
15.000010
 21
149.019211
  0
LINE
  8
TEILE
 62
2
 10
15.000010
 20
149.019211
 11
16.339182
 21
149.839859
  0
LINE
  8
TEILE
 62
2
 10
16.339182
 20
149.839859
 11
17.633568
 21
150.729462
  0
LINE
  8
TEILE
 62
2
 10
17.633568
 20
150.729462
 11
18.879623
 21
151.685608
  0
LINE
  8
TEILE
 62
2
 10
18.879623
 20
151.685608
 11
20.073931
 21
152.705627
  0
LINE
  8
TEILE
 62
2
 10
20.073931
 20
152.705627
 11
21.213217
 21
153.786774
  0
LINE
  8
TEILE
 62
2
 10
21.213217
 20
153.786774
 11
22.294359
 21
154.926056
  0
LINE
  8
TEILE
 62
2
 10
22.294359
 20
154.926056
 11
23.314392
 21
156.120361
  0
LINE
  8
TEILE
 62
2
 10
23.314392
 20
156.120361
 11
24.270523
 21
157.366425
  0
LINE
  8
TEILE
 62
2
 10
24.270523
 20
157.366425
 11
25.160131
 21
158.660812
  0
LINE
  8
TEILE
 62
2
 10
25.160131
 20
158.660812
 11
25.980776
 21
159.999985
  0
LINE
  8
TEILE
 62
2
 10
25.980776
 20
159.999985
 11
26.730209
 21
161.380280
  0
LINE
  8
TEILE
 62
2
 10
26.730209
 20
161.380280
 11
27.406376
 21
162.797882
  0
LINE
  8
TEILE
 62
2
 10
27.406376
 20
162.797882
 11
28.007423
 21
164.248947
  0
LINE
  8
TEILE
 62
2
 10
28.007423
 20
164.248947
 11
28.531706
 21
165.729492
  0
LINE
  8
TEILE
 62
2
 10
28.531706
 20
165.729492
 11
28.977783
 21
167.235413
  0
LINE
  8
TEILE
 62
2
 10
28.977783
 20
167.235413
 11
29.344435
 21
168.762650
  0
LINE
  8
TEILE
 62
2
 10
29.344435
 20
168.762650
 11
29.630657
 21
170.306946
  0
LINE
  8
TEILE
 62
2
 10
29.630657
 20
170.306946
 11
29.835661
 21
171.864151
  0
LINE
  8
TEILE
 62
2
 10
29.835661
 20
171.864151
 11
29.958889
 21
173.429901
  0
LINE
  8
TEILE
 62
2
 10
29.958889
 20
173.429901
 11
30.000002
 21
175.000000
  0
LINE
  8
TEILE
 62
2
 10
30.000002
 20
175.000000
 11
30.000000
 21
174.999985
  0
ENDSEC
  0
EOF

