999
     *******************************************
999
     BOCAD Software GmbH   Rev.18.000   0202.22
999
     Filename:   c:\progetti21\danieli_aqs\b4\temp_11\20613.dxf
999
     Creator:    bocad
999
     Date:       20.01.2016
999
     Factor:     10.000000
999
     *******************************************
  0
SECTION
  2
HEADER
  9
$DWGCODEPAGE
  3
ANSI_1252
  9
$INSBASE
 10
0.0
 20
0.0
 30
0.0
  9
$EXTMIN
 10
-0.500000
 20
-165.500031
  9
$EXTMAX
 10
11004.497070
 20
165.500031
  9
$LIMMIN
 10
-1.500000
 20
-166.500031
  9
$LIMMAX
 10
11005.497070
 20
166.500031
  9
$LTSCALE
 40
10.000000
  0
ENDSEC
  0
SECTION
  2
TABLES
  0
TABLE
  2
LTYPE
 70
4
  0
LTYPE
  2
CONTINUOUS
 70
64
  3
____________________________________________
 72
65
 73
0
 40
0.0
  0
LTYPE
  2
HIDDEN
 70
64
  3
__ __ __ __ __ __ __ __ __ __ __ __ __ __ __
 72
65
 73
2
 40
0.50
 49
0.30
 49
-0.20
  0
LTYPE
  2
DASHDOT
 70
64
  3
____ _ ____ _ ____ _ ____ _ ____ _ ____ _ __
 72
65
 73
4
 40
2.0
 49
1.5
 49
-0.25
 49
0
 49
-0.25
  0
LTYPE
  2
DOT
 70
64
  3
............................................
 72
65
 73
2
 40
0.30
 49
0
 49
-0.30
  0
ENDTAB
  0
TABLE
  2
LAYER
 70
23
  0
LAYER
  2
UNTERSCHRIFT
 70
64
 62
7
  6
CONTINUOUS
  0
LAYER
  2
TEILE
 70
64
 62
7
  6
CONTINUOUS
  0
LAYER
  2
REST
 70
64
 62
7
  6
CONTINUOUS
  0
LAYER
  2
MARKERPUNKTE
 70
64
 62
7
  6
CONTINUOUS
  0
LAYER
  2
HILFSPUNKTE
 70
64
 62
7
  6
CONTINUOUS
  0
LAYER
  2
PICKPUNKTE
 70
64
 62
7
  6
CONTINUOUS
  0
LAYER
  2
SCHRAUBEN
 70
64
 62
7
  6
CONTINUOUS
  0
LAYER
  2
SCHWEISSEN
 70
64
 62
7
  6
CONTINUOUS
  0
LAYER
  2
GRAFIK
 70
64
 62
7
  6
CONTINUOUS
  0
LAYER
  2
BEM_FREI
 70
64
 62
7
  6
CONTINUOUS
  0
LAYER
  2
BEM_SYSTEM
 70
64
 62
7
  6
CONTINUOUS
  0
LAYER
  2
BEM_KONTUR
 70
64
 62
7
  6
CONTINUOUS
  0
LAYER
  2
BEM_ANBAU
 70
64
 62
7
  6
CONTINUOUS
  0
LAYER
  2
BEM_SCHRAUBEN
 70
64
 62
7
  6
CONTINUOUS
  0
LAYER
  2
BEM_SCHWEISSEN
 70
64
 62
7
  6
CONTINUOUS
  0
LAYER
  2
FREIER_TEXT
 70
64
 62
7
  6
CONTINUOUS
  0
LAYER
  2
BEZ_TEILE
 70
64
 62
7
  6
CONTINUOUS
  0
LAYER
  2
BEZ_SCHRAUBEN
 70
64
 62
7
  6
CONTINUOUS
  0
LAYER
  2
BEZ_SCHWEISSEN
 70
64
 62
7
  6
CONTINUOUS
  0
LAYER
  2
SCHRAFFUREN
 70
64
 62
7
  6
CONTINUOUS
  0
LAYER
  2
SCHNITTSYMBOL
 70
64
 62
7
  6
CONTINUOUS
  0
LAYER
  2
RASTER
 70
64
 62
7
  6
CONTINUOUS
  0
LAYER
  2
LISTEN
 70
64
 62
7
  6
CONTINUOUS
  0
LAYER
  2
RAHMEN
 70
64
 62
7
  6
CONTINUOUS
  0
ENDTAB
  0
TABLE
  2
STYLE
 70
1
  0
STYLE
  2
STANDARD
 70
64
 40
0
 41
1
 50
0.0
 71
0
 42
0.35
  3
ROMANS
  0
ENDTAB
  0
ENDSEC
  0
SECTION
  2
ENTITIES
  0
TEXT
 8
UNTERSCHRIFT
 62
2
 10
5408.998535
 20
-163.000000
 40
3.250000
 41
0.800000
 51
15.000000
  1
Project  DP0GN9  ,Qty. 2  , Pos. 
  0
TEXT
 8
UNTERSCHRIFT
 62
2
 10
5507.798340
 20
-163.000000
 40
3.250000
 41
0.800000
 51
15.000000
  1
  , Profi l PL330*12
  0
TEXT
 8
UNTERSCHRIFT
 62
2
 10
5494.798828
 20
-163.000000
 40
3.250000
 41
0.800000
 51
15.000000
  1
20613
  0
LINE
  8
TEILE
 62
2
 10
0.000000
 20
-165.000000
 11
0.000000
 21
165.000031
  0
LINE
  8
TEILE
 62
2
 10
0.000000
 20
165.000031
 11
10973.996094
 21
165.000000
  0
LINE
  8
TEILE
 62
2
 10
10973.996094
 20
165.000000
 11
10974.038086
 21
163.429886
  0
LINE
  8
TEILE
 62
2
 10
10974.038086
 20
163.429886
 11
10974.161133
 21
161.864090
  0
LINE
  8
TEILE
 62
2
 10
10974.161133
 20
161.864090
 11
10974.366211
 21
160.306870
  0
LINE
  8
TEILE
 62
2
 10
10974.366211
 20
160.306870
 11
10974.652344
 21
158.762527
  0
LINE
  8
TEILE
 62
2
 10
10974.652344
 20
158.762527
 11
10975.018555
 21
157.235275
  0
LINE
  8
TEILE
 62
2
 10
10975.018555
 20
157.235275
 11
10975.464844
 21
155.729309
  0
LINE
  8
TEILE
 62
2
 10
10975.464844
 20
155.729309
 11
10975.988281
 21
154.248734
  0
LINE
  8
TEILE
 62
2
 10
10975.988281
 20
154.248734
 11
10976.590820
 21
152.797638
  0
LINE
  8
TEILE
 62
2
 10
10976.590820
 20
152.797638
 11
10977.265625
 21
151.379974
  0
LINE
  8
TEILE
 62
2
 10
10977.265625
 20
151.379974
 11
10978.015625
 21
149.999664
  0
LINE
  8
TEILE
 62
2
 10
10978.015625
 20
149.999664
 11
10978.836914
 21
148.660446
  0
LINE
  8
TEILE
 62
2
 10
10978.836914
 20
148.660446
 11
10979.725586
 21
147.366028
  0
LINE
  8
TEILE
 62
2
 10
10979.725586
 20
147.366028
 11
10980.682617
 21
146.119934
  0
LINE
  8
TEILE
 62
2
 10
10980.682617
 20
146.119934
 11
10981.701172
 21
144.925598
  0
LINE
  8
TEILE
 62
2
 10
10981.701172
 20
144.925598
 11
10982.783203
 21
143.786285
  0
LINE
  8
TEILE
 62
2
 10
10982.783203
 20
143.786285
 11
10983.921875
 21
142.705124
  0
LINE
  8
TEILE
 62
2
 10
10983.921875
 20
142.705124
 11
10985.117188
 21
141.685074
  0
LINE
  8
TEILE
 62
2
 10
10985.117188
 20
141.685074
 11
10986.362305
 21
140.728928
  0
LINE
  8
TEILE
 62
2
 10
10986.362305
 20
140.728928
 11
10987.657227
 21
139.839310
  0
LINE
  8
TEILE
 62
2
 10
10987.657227
 20
139.839310
 11
10988.996094
 21
139.018646
  0
LINE
  8
TEILE
 62
2
 10
10988.996094
 20
139.018646
 11
10990.376953
 21
138.269226
  0
LINE
  8
TEILE
 62
2
 10
10990.376953
 20
138.269226
 11
10991.794922
 21
137.593063
  0
LINE
  8
TEILE
 62
2
 10
10991.794922
 20
137.593063
 11
10993.246094
 21
136.992020
  0
LINE
  8
TEILE
 62
2
 10
10993.246094
 20
136.992020
 11
10994.725586
 21
136.467758
  0
LINE
  8
TEILE
 62
2
 10
10994.725586
 20
136.467758
 11
10996.231445
 21
136.021713
  0
LINE
  8
TEILE
 62
2
 10
10996.231445
 20
136.021713
 11
10997.758789
 21
135.655090
  0
LINE
  8
TEILE
 62
2
 10
10997.758789
 20
135.655090
 11
10999.302734
 21
135.368912
  0
LINE
  8
TEILE
 62
2
 10
10999.302734
 20
135.368912
 11
11000.860352
 21
135.163940
  0
LINE
  8
TEILE
 62
2
 10
11000.860352
 20
135.163940
 11
11002.426758
 21
135.040771
  0
LINE
  8
TEILE
 62
2
 10
11002.426758
 20
135.040771
 11
11003.996094
 21
134.999725
  0
LINE
  8
TEILE
 62
2
 10
11003.996094
 20
134.999725
 11
11003.996094
 21
135.000000
  0
LINE
  8
TEILE
 62
2
 10
11003.996094
 20
135.000000
 11
11003.996094
 21
-135.000000
  0
LINE
  8
TEILE
 62
2
 10
11003.996094
 20
-135.000000
 11
11002.372070
 21
-135.044037
  0
LINE
  8
TEILE
 62
2
 10
11002.372070
 20
-135.044037
 11
11000.752930
 21
-135.175903
  0
LINE
  8
TEILE
 62
2
 10
11000.752930
 20
-135.175903
 11
10999.142578
 21
-135.395248
  0
LINE
  8
TEILE
 62
2
 10
10999.142578
 20
-135.395248
 11
10997.547852
 21
-135.701431
  0
LINE
  8
TEILE
 62
2
 10
10997.547852
 20
-135.701431
 11
10995.970703
 21
-136.093536
  0
LINE
  8
TEILE
 62
2
 10
10995.970703
 20
-136.093536
 11
10994.417969
 21
-136.570450
  0
LINE
  8
TEILE
 62
2
 10
10994.417969
 20
-136.570450
 11
10992.891602
 21
-137.130737
  0
LINE
  8
TEILE
 62
2
 10
10992.891602
 20
-137.130737
 11
10991.400391
 21
-137.772781
  0
LINE
  8
TEILE
 62
2
 10
10991.400391
 20
-137.772781
 11
10989.943359
 21
-138.494675
  0
LINE
  8
TEILE
 62
2
 10
10989.943359
 20
-138.494675
 11
10988.530273
 21
-139.294312
  0
LINE
  8
TEILE
 62
2
 10
10988.530273
 20
-139.294312
 11
10987.160156
 21
-140.169357
  0
LINE
  8
TEILE
 62
2
 10
10987.160156
 20
-140.169357
 11
10985.840820
 21
-141.117233
  0
LINE
  8
TEILE
 62
2
 10
10985.840820
 20
-141.117233
 11
10984.575195
 21
-142.135178
  0
LINE
  8
TEILE
 62
2
 10
10984.575195
 20
-142.135178
 11
10983.365234
 21
-143.220169
  0
LINE
  8
TEILE
 62
2
 10
10983.365234
 20
-143.220169
 11
10982.216797
 21
-144.369049
  0
LINE
  8
TEILE
 62
2
 10
10982.216797
 20
-144.369049
 11
10981.131836
 21
-145.578445
  0
LINE
  8
TEILE
 62
2
 10
10981.131836
 20
-145.578445
 11
10980.113281
 21
-146.844803
  0
LINE
  8
TEILE
 62
2
 10
10980.113281
 20
-146.844803
 11
10979.166016
 21
-148.164429
  0
LINE
  8
TEILE
 62
2
 10
10979.166016
 20
-148.164429
 11
10978.291016
 21
-149.533417
  0
LINE
  8
TEILE
 62
2
 10
10978.291016
 20
-149.533417
 11
10977.491211
 21
-150.947784
  0
LINE
  8
TEILE
 62
2
 10
10977.491211
 20
-150.947784
 11
10976.768555
 21
-152.403366
  0
LINE
  8
TEILE
 62
2
 10
10976.768555
 20
-152.403366
 11
10976.126953
 21
-153.895889
  0
LINE
  8
TEILE
 62
2
 10
10976.126953
 20
-153.895889
 11
10975.566406
 21
-155.420990
  0
LINE
  8
TEILE
 62
2
 10
10975.566406
 20
-155.420990
 11
10975.089844
 21
-156.974197
  0
LINE
  8
TEILE
 62
2
 10
10975.089844
 20
-156.974197
 11
10974.698242
 21
-158.550934
  0
LINE
  8
TEILE
 62
2
 10
10974.698242
 20
-158.550934
 11
10974.392578
 21
-160.146576
  0
LINE
  8
TEILE
 62
2
 10
10974.392578
 20
-160.146576
 11
10974.171875
 21
-161.756470
  0
LINE
  8
TEILE
 62
2
 10
10974.171875
 20
-161.756470
 11
10974.041016
 21
-163.375870
  0
LINE
  8
TEILE
 62
2
 10
10974.041016
 20
-163.375870
 11
10973.996094
 21
-165.000031
  0
LINE
  8
TEILE
 62
2
 10
10973.996094
 20
-165.000031
 11
10973.996094
 21
-165.000000
  0
LINE
  8
TEILE
 62
2
 10
10973.996094
 20
-165.000000
 11
0.000000
 21
-165.000000
  0
ENDSEC
  0
EOF

