999
     *******************************************
999
     BOCAD Software GmbH   Rev.18.000   0202.22
999
     Filename:   c:\progetti21\danieli_aqs\b4\temp_11\20614.dxf
999
     Creator:    bocad
999
     Date:       20.01.2016
999
     Factor:     10.000000
999
     *******************************************
  0
SECTION
  2
HEADER
  9
$DWGCODEPAGE
  3
ANSI_1252
  9
$INSBASE
 10
0.0
 20
0.0
 30
0.0
  9
$EXTMIN
 10
-0.500004
 20
-165.500031
  9
$EXTMAX
 10
11004.497070
 20
165.500031
  9
$LIMMIN
 10
-1.500004
 20
-166.500031
  9
$LIMMAX
 10
11005.497070
 20
166.500031
  9
$LTSCALE
 40
10.000000
  0
ENDSEC
  0
SECTION
  2
TABLES
  0
TABLE
  2
LTYPE
 70
4
  0
LTYPE
  2
CONTINUOUS
 70
64
  3
____________________________________________
 72
65
 73
0
 40
0.0
  0
LTYPE
  2
HIDDEN
 70
64
  3
__ __ __ __ __ __ __ __ __ __ __ __ __ __ __
 72
65
 73
2
 40
0.50
 49
0.30
 49
-0.20
  0
LTYPE
  2
DASHDOT
 70
64
  3
____ _ ____ _ ____ _ ____ _ ____ _ ____ _ __
 72
65
 73
4
 40
2.0
 49
1.5
 49
-0.25
 49
0
 49
-0.25
  0
LTYPE
  2
DOT
 70
64
  3
............................................
 72
65
 73
2
 40
0.30
 49
0
 49
-0.30
  0
ENDTAB
  0
TABLE
  2
LAYER
 70
23
  0
LAYER
  2
UNTERSCHRIFT
 70
64
 62
7
  6
CONTINUOUS
  0
LAYER
  2
TEILE
 70
64
 62
7
  6
CONTINUOUS
  0
LAYER
  2
REST
 70
64
 62
7
  6
CONTINUOUS
  0
LAYER
  2
MARKERPUNKTE
 70
64
 62
7
  6
CONTINUOUS
  0
LAYER
  2
HILFSPUNKTE
 70
64
 62
7
  6
CONTINUOUS
  0
LAYER
  2
PICKPUNKTE
 70
64
 62
7
  6
CONTINUOUS
  0
LAYER
  2
SCHRAUBEN
 70
64
 62
7
  6
CONTINUOUS
  0
LAYER
  2
SCHWEISSEN
 70
64
 62
7
  6
CONTINUOUS
  0
LAYER
  2
GRAFIK
 70
64
 62
7
  6
CONTINUOUS
  0
LAYER
  2
BEM_FREI
 70
64
 62
7
  6
CONTINUOUS
  0
LAYER
  2
BEM_SYSTEM
 70
64
 62
7
  6
CONTINUOUS
  0
LAYER
  2
BEM_KONTUR
 70
64
 62
7
  6
CONTINUOUS
  0
LAYER
  2
BEM_ANBAU
 70
64
 62
7
  6
CONTINUOUS
  0
LAYER
  2
BEM_SCHRAUBEN
 70
64
 62
7
  6
CONTINUOUS
  0
LAYER
  2
BEM_SCHWEISSEN
 70
64
 62
7
  6
CONTINUOUS
  0
LAYER
  2
FREIER_TEXT
 70
64
 62
7
  6
CONTINUOUS
  0
LAYER
  2
BEZ_TEILE
 70
64
 62
7
  6
CONTINUOUS
  0
LAYER
  2
BEZ_SCHRAUBEN
 70
64
 62
7
  6
CONTINUOUS
  0
LAYER
  2
BEZ_SCHWEISSEN
 70
64
 62
7
  6
CONTINUOUS
  0
LAYER
  2
SCHRAFFUREN
 70
64
 62
7
  6
CONTINUOUS
  0
LAYER
  2
SCHNITTSYMBOL
 70
64
 62
7
  6
CONTINUOUS
  0
LAYER
  2
RASTER
 70
64
 62
7
  6
CONTINUOUS
  0
LAYER
  2
LISTEN
 70
64
 62
7
  6
CONTINUOUS
  0
LAYER
  2
RAHMEN
 70
64
 62
7
  6
CONTINUOUS
  0
ENDTAB
  0
TABLE
  2
STYLE
 70
1
  0
STYLE
  2
STANDARD
 70
64
 40
0
 41
1
 50
0.0
 71
0
 42
0.35
  3
ROMANS
  0
ENDTAB
  0
ENDSEC
  0
SECTION
  2
ENTITIES
  0
TEXT
 8
UNTERSCHRIFT
 62
2
 10
11001.997070
 20
-78.000000
 40
3.250000
 50
90.000000
 41
0.800000
 51
15.000000
  1
Project  DP0GN9  ,Qty. 1  , Pos. 
  0
TEXT
 8
UNTERSCHRIFT
 62
2
 10
11001.997070
 20
20.800001
 40
3.250000
 50
90.000000
 41
0.800000
 51
15.000000
  1
  , Profi l PL330*12
  0
TEXT
 8
UNTERSCHRIFT
 62
2
 10
11001.997070
 20
7.800001
 40
3.250000
 50
90.000000
 41
0.800000
 51
15.000000
  1
20614
  0
LINE
  8
TEILE
 62
2
 10
10973.996094
 20
-165.000000
 11
30.000000
 21
-165.000000
  0
LINE
  8
TEILE
 62
2
 10
30.000000
 20
-165.000000
 11
29.956005
 21
-163.375839
  0
LINE
  8
TEILE
 62
2
 10
29.956005
 20
-163.375839
 11
29.824141
 21
-161.756439
  0
LINE
  8
TEILE
 62
2
 10
29.824141
 20
-161.756439
 11
29.604795
 21
-160.146545
  0
LINE
  8
TEILE
 62
2
 10
29.604795
 20
-160.146545
 11
29.298615
 21
-158.550888
  0
LINE
  8
TEILE
 62
2
 10
29.298615
 20
-158.550888
 11
28.906498
 21
-156.974152
  0
LINE
  8
TEILE
 62
2
 10
28.906498
 20
-156.974152
 11
28.429594
 21
-155.420959
  0
LINE
  8
TEILE
 62
2
 10
28.429594
 20
-155.420959
 11
27.869299
 21
-153.895859
  0
LINE
  8
TEILE
 62
2
 10
27.869299
 20
-153.895859
 11
27.227259
 21
-152.403320
  0
LINE
  8
TEILE
 62
2
 10
27.227259
 20
-152.403320
 11
26.505358
 21
-150.947754
  0
LINE
  8
TEILE
 62
2
 10
26.505358
 20
-150.947754
 11
25.705711
 21
-149.533386
  0
LINE
  8
TEILE
 62
2
 10
25.705711
 20
-149.533386
 11
24.830666
 21
-148.164398
  0
LINE
  8
TEILE
 62
2
 10
24.830666
 20
-148.164398
 11
23.882788
 21
-146.844772
  0
LINE
  8
TEILE
 62
2
 10
23.882788
 20
-146.844772
 11
22.864857
 21
-145.578415
  0
LINE
  8
TEILE
 62
2
 10
22.864857
 20
-145.578415
 11
21.779860
 21
-144.369019
  0
LINE
  8
TEILE
 62
2
 10
21.779860
 20
-144.369019
 11
20.630980
 21
-143.220139
  0
LINE
  8
TEILE
 62
2
 10
20.630980
 20
-143.220139
 11
19.421583
 21
-142.135147
  0
LINE
  8
TEILE
 62
2
 10
19.421583
 20
-142.135147
 11
18.155220
 21
-141.117218
  0
LINE
  8
TEILE
 62
2
 10
18.155220
 20
-141.117218
 11
16.835606
 21
-140.169342
  0
LINE
  8
TEILE
 62
2
 10
16.835606
 20
-140.169342
 11
15.466610
 21
-139.294296
  0
LINE
  8
TEILE
 62
2
 10
15.466610
 20
-139.294296
 11
14.052249
 21
-138.494644
  0
LINE
  8
TEILE
 62
2
 10
14.052249
 20
-138.494644
 11
12.596669
 21
-137.772736
  0
LINE
  8
TEILE
 62
2
 10
12.596669
 20
-137.772736
 11
11.104140
 21
-137.130707
  0
LINE
  8
TEILE
 62
2
 10
11.104140
 20
-137.130707
 11
9.579042
 21
-136.570404
  0
LINE
  8
TEILE
 62
2
 10
9.579042
 20
-136.570404
 11
8.025846
 21
-136.093506
  0
LINE
  8
TEILE
 62
2
 10
8.025846
 20
-136.093506
 11
6.449109
 21
-135.701385
  0
LINE
  8
TEILE
 62
2
 10
6.449109
 20
-135.701385
 11
4.853456
 21
-135.395218
  0
LINE
  8
TEILE
 62
2
 10
4.853456
 20
-135.395218
 11
3.243567
 21
-135.175873
  0
LINE
  8
TEILE
 62
2
 10
3.243567
 20
-135.175873
 11
1.624163
 21
-135.044006
  0
LINE
  8
TEILE
 62
2
 10
1.624163
 20
-135.044006
 11
-0.000004
 21
-135.000000
  0
LINE
  8
TEILE
 62
2
 10
-0.000004
 20
-135.000000
 11
-0.000000
 21
-135.000000
  0
LINE
  8
TEILE
 62
2
 10
-0.000000
 20
-135.000000
 11
-0.000000
 21
135.000031
  0
LINE
  8
TEILE
 62
2
 10
-0.000000
 20
135.000031
 11
1.624166
 21
135.044037
  0
LINE
  8
TEILE
 62
2
 10
1.624166
 20
135.044037
 11
3.243570
 21
135.175903
  0
LINE
  8
TEILE
 62
2
 10
3.243570
 20
135.175903
 11
4.853459
 21
135.395233
  0
LINE
  8
TEILE
 62
2
 10
4.853459
 20
135.395233
 11
6.449113
 21
135.701416
  0
LINE
  8
TEILE
 62
2
 10
6.449113
 20
135.701416
 11
8.025850
 21
136.093536
  0
LINE
  8
TEILE
 62
2
 10
8.025850
 20
136.093536
 11
9.579046
 21
136.570450
  0
LINE
  8
TEILE
 62
2
 10
9.579046
 20
136.570450
 11
11.104145
 21
137.130737
  0
LINE
  8
TEILE
 62
2
 10
11.104145
 20
137.130737
 11
12.596674
 21
137.772781
  0
LINE
  8
TEILE
 62
2
 10
12.596674
 20
137.772781
 11
14.052254
 21
138.494690
  0
LINE
  8
TEILE
 62
2
 10
14.052254
 20
138.494690
 11
15.466616
 21
139.294327
  0
LINE
  8
TEILE
 62
2
 10
15.466616
 20
139.294327
 11
16.835613
 21
140.169373
  0
LINE
  8
TEILE
 62
2
 10
16.835613
 20
140.169373
 11
18.155228
 21
141.117249
  0
LINE
  8
TEILE
 62
2
 10
18.155228
 20
141.117249
 11
19.421589
 21
142.135178
  0
LINE
  8
TEILE
 62
2
 10
19.421589
 20
142.135178
 11
20.630985
 21
143.220184
  0
LINE
  8
TEILE
 62
2
 10
20.630985
 20
143.220184
 11
21.779865
 21
144.369064
  0
LINE
  8
TEILE
 62
2
 10
21.779865
 20
144.369064
 11
22.864864
 21
145.578461
  0
LINE
  8
TEILE
 62
2
 10
22.864864
 20
145.578461
 11
23.882792
 21
146.844818
  0
LINE
  8
TEILE
 62
2
 10
23.882792
 20
146.844818
 11
24.830669
 21
148.164429
  0
LINE
  8
TEILE
 62
2
 10
24.830669
 20
148.164429
 11
25.705717
 21
149.533432
  0
LINE
  8
TEILE
 62
2
 10
25.705717
 20
149.533432
 11
26.505363
 21
150.947800
  0
LINE
  8
TEILE
 62
2
 10
26.505363
 20
150.947800
 11
27.227264
 21
152.403381
  0
LINE
  8
TEILE
 62
2
 10
27.227264
 20
152.403381
 11
27.869303
 21
153.895905
  0
LINE
  8
TEILE
 62
2
 10
27.869303
 20
153.895905
 11
28.429596
 21
155.421005
  0
LINE
  8
TEILE
 62
2
 10
28.429596
 20
155.421005
 11
28.906500
 21
156.974197
  0
LINE
  8
TEILE
 62
2
 10
28.906500
 20
156.974197
 11
29.298618
 21
158.550934
  0
LINE
  8
TEILE
 62
2
 10
29.298618
 20
158.550934
 11
29.604797
 21
160.146576
  0
LINE
  8
TEILE
 62
2
 10
29.604797
 20
160.146576
 11
29.824141
 21
161.756470
  0
LINE
  8
TEILE
 62
2
 10
29.824141
 20
161.756470
 11
29.956005
 21
163.375870
  0
LINE
  8
TEILE
 62
2
 10
29.956005
 20
163.375870
 11
30.000002
 21
165.000031
  0
LINE
  8
TEILE
 62
2
 10
30.000002
 20
165.000031
 11
30.000000
 21
165.000031
  0
LINE
  8
TEILE
 62
2
 10
30.000000
 20
165.000031
 11
10973.996094
 21
165.000000
  0
LINE
  8
TEILE
 62
2
 10
10973.996094
 20
165.000000
 11
10974.041016
 21
163.375854
  0
LINE
  8
TEILE
 62
2
 10
10974.041016
 20
163.375854
 11
10974.171875
 21
161.756454
  0
LINE
  8
TEILE
 62
2
 10
10974.171875
 20
161.756454
 11
10974.392578
 21
160.146606
  0
LINE
  8
TEILE
 62
2
 10
10974.392578
 20
160.146606
 11
10974.698242
 21
158.550964
  0
LINE
  8
TEILE
 62
2
 10
10974.698242
 20
158.550964
 11
10975.089844
 21
156.974243
  0
LINE
  8
TEILE
 62
2
 10
10975.089844
 20
156.974243
 11
10975.567383
 21
155.421082
  0
LINE
  8
TEILE
 62
2
 10
10975.567383
 20
155.421082
 11
10976.127930
 21
153.895996
  0
LINE
  8
TEILE
 62
2
 10
10976.127930
 20
153.895996
 11
10976.769531
 21
152.403503
  0
LINE
  8
TEILE
 62
2
 10
10976.769531
 20
152.403503
 11
10977.491211
 21
150.947937
  0
LINE
  8
TEILE
 62
2
 10
10977.491211
 20
150.947937
 11
10978.291016
 21
149.533585
  0
LINE
  8
TEILE
 62
2
 10
10978.291016
 20
149.533585
 11
10979.166016
 21
148.164612
  0
LINE
  8
TEILE
 62
2
 10
10979.166016
 20
148.164612
 11
10980.115234
 21
146.845001
  0
LINE
  8
TEILE
 62
2
 10
10980.115234
 20
146.845001
 11
10981.131836
 21
145.578659
  0
LINE
  8
TEILE
 62
2
 10
10981.131836
 20
145.578659
 11
10982.216797
 21
144.369263
  0
LINE
  8
TEILE
 62
2
 10
10982.216797
 20
144.369263
 11
10983.365234
 21
143.220398
  0
LINE
  8
TEILE
 62
2
 10
10983.365234
 20
143.220398
 11
10984.575195
 21
142.135406
  0
LINE
  8
TEILE
 62
2
 10
10984.575195
 20
142.135406
 11
10985.840820
 21
141.117462
  0
LINE
  8
TEILE
 62
2
 10
10985.840820
 20
141.117462
 11
10987.160156
 21
140.169586
  0
LINE
  8
TEILE
 62
2
 10
10987.160156
 20
140.169586
 11
10988.530273
 21
139.294525
  0
LINE
  8
TEILE
 62
2
 10
10988.530273
 20
139.294525
 11
10989.945313
 21
138.494858
  0
LINE
  8
TEILE
 62
2
 10
10989.945313
 20
138.494858
 11
10991.400391
 21
137.772934
  0
LINE
  8
TEILE
 62
2
 10
10991.400391
 20
137.772934
 11
10992.892578
 21
137.130859
  0
LINE
  8
TEILE
 62
2
 10
10992.892578
 20
137.130859
 11
10994.417969
 21
136.570541
  0
LINE
  8
TEILE
 62
2
 10
10994.417969
 20
136.570541
 11
10995.970703
 21
136.093597
  0
LINE
  8
TEILE
 62
2
 10
10995.970703
 20
136.093597
 11
10997.547852
 21
135.701431
  0
LINE
  8
TEILE
 62
2
 10
10997.547852
 20
135.701431
 11
10999.142578
 21
135.395218
  0
LINE
  8
TEILE
 62
2
 10
10999.142578
 20
135.395218
 11
11000.752930
 21
135.175812
  0
LINE
  8
TEILE
 62
2
 10
11000.752930
 20
135.175812
 11
11002.372070
 21
135.043884
  0
LINE
  8
TEILE
 62
2
 10
11002.372070
 20
135.043884
 11
11003.996094
 21
134.999832
  0
LINE
  8
TEILE
 62
2
 10
11003.996094
 20
134.999832
 11
11003.996094
 21
135.000000
  0
LINE
  8
TEILE
 62
2
 10
11003.996094
 20
135.000000
 11
11003.996094
 21
-135.000000
  0
LINE
  8
TEILE
 62
2
 10
11003.996094
 20
-135.000000
 11
11002.372070
 21
-135.044037
  0
LINE
  8
TEILE
 62
2
 10
11002.372070
 20
-135.044037
 11
11000.752930
 21
-135.175903
  0
LINE
  8
TEILE
 62
2
 10
11000.752930
 20
-135.175903
 11
10999.142578
 21
-135.395248
  0
LINE
  8
TEILE
 62
2
 10
10999.142578
 20
-135.395248
 11
10997.547852
 21
-135.701431
  0
LINE
  8
TEILE
 62
2
 10
10997.547852
 20
-135.701431
 11
10995.970703
 21
-136.093536
  0
LINE
  8
TEILE
 62
2
 10
10995.970703
 20
-136.093536
 11
10994.417969
 21
-136.570450
  0
LINE
  8
TEILE
 62
2
 10
10994.417969
 20
-136.570450
 11
10992.891602
 21
-137.130737
  0
LINE
  8
TEILE
 62
2
 10
10992.891602
 20
-137.130737
 11
10991.400391
 21
-137.772781
  0
LINE
  8
TEILE
 62
2
 10
10991.400391
 20
-137.772781
 11
10989.943359
 21
-138.494675
  0
LINE
  8
TEILE
 62
2
 10
10989.943359
 20
-138.494675
 11
10988.530273
 21
-139.294312
  0
LINE
  8
TEILE
 62
2
 10
10988.530273
 20
-139.294312
 11
10987.160156
 21
-140.169357
  0
LINE
  8
TEILE
 62
2
 10
10987.160156
 20
-140.169357
 11
10985.840820
 21
-141.117233
  0
LINE
  8
TEILE
 62
2
 10
10985.840820
 20
-141.117233
 11
10984.575195
 21
-142.135178
  0
LINE
  8
TEILE
 62
2
 10
10984.575195
 20
-142.135178
 11
10983.365234
 21
-143.220169
  0
LINE
  8
TEILE
 62
2
 10
10983.365234
 20
-143.220169
 11
10982.216797
 21
-144.369049
  0
LINE
  8
TEILE
 62
2
 10
10982.216797
 20
-144.369049
 11
10981.131836
 21
-145.578445
  0
LINE
  8
TEILE
 62
2
 10
10981.131836
 20
-145.578445
 11
10980.113281
 21
-146.844803
  0
LINE
  8
TEILE
 62
2
 10
10980.113281
 20
-146.844803
 11
10979.166016
 21
-148.164429
  0
LINE
  8
TEILE
 62
2
 10
10979.166016
 20
-148.164429
 11
10978.291016
 21
-149.533417
  0
LINE
  8
TEILE
 62
2
 10
10978.291016
 20
-149.533417
 11
10977.491211
 21
-150.947784
  0
LINE
  8
TEILE
 62
2
 10
10977.491211
 20
-150.947784
 11
10976.768555
 21
-152.403366
  0
LINE
  8
TEILE
 62
2
 10
10976.768555
 20
-152.403366
 11
10976.126953
 21
-153.895889
  0
LINE
  8
TEILE
 62
2
 10
10976.126953
 20
-153.895889
 11
10975.566406
 21
-155.420990
  0
LINE
  8
TEILE
 62
2
 10
10975.566406
 20
-155.420990
 11
10975.089844
 21
-156.974197
  0
LINE
  8
TEILE
 62
2
 10
10975.089844
 20
-156.974197
 11
10974.698242
 21
-158.550934
  0
LINE
  8
TEILE
 62
2
 10
10974.698242
 20
-158.550934
 11
10974.392578
 21
-160.146576
  0
LINE
  8
TEILE
 62
2
 10
10974.392578
 20
-160.146576
 11
10974.171875
 21
-161.756470
  0
LINE
  8
TEILE
 62
2
 10
10974.171875
 20
-161.756470
 11
10974.041016
 21
-163.375870
  0
LINE
  8
TEILE
 62
2
 10
10974.041016
 20
-163.375870
 11
10973.996094
 21
-165.000031
  0
LINE
  8
TEILE
 62
2
 10
10973.996094
 20
-165.000031
 11
10973.996094
 21
-165.000000
  0
ENDSEC
  0
EOF

