999
     *******************************************
999
     BOCAD Software GmbH   Rev.18.000   0202.22
999
     Filename:   c:\progetti21\danieli_aqs\b4\temp_11\20617.dxf
999
     Creator:    bocad
999
     Date:       20.01.2016
999
     Factor:     10.000000
999
     *******************************************
  0
SECTION
  2
HEADER
  9
$DWGCODEPAGE
  3
ANSI_1252
  9
$INSBASE
 10
0.0
 20
0.0
 30
0.0
  9
$EXTMIN
 10
-0.500000
 20
-141.156406
  9
$EXTMAX
 10
1039.814377
 20
141.156406
  9
$LIMMIN
 10
-1.500000
 20
-142.156406
  9
$LIMMAX
 10
1040.814377
 20
142.156406
  9
$LTSCALE
 40
10.000000
  0
ENDSEC
  0
SECTION
  2
TABLES
  0
TABLE
  2
LTYPE
 70
4
  0
LTYPE
  2
CONTINUOUS
 70
64
  3
____________________________________________
 72
65
 73
0
 40
0.0
  0
LTYPE
  2
HIDDEN
 70
64
  3
__ __ __ __ __ __ __ __ __ __ __ __ __ __ __
 72
65
 73
2
 40
0.50
 49
0.30
 49
-0.20
  0
LTYPE
  2
DASHDOT
 70
64
  3
____ _ ____ _ ____ _ ____ _ ____ _ ____ _ __
 72
65
 73
4
 40
2.0
 49
1.5
 49
-0.25
 49
0
 49
-0.25
  0
LTYPE
  2
DOT
 70
64
  3
............................................
 72
65
 73
2
 40
0.30
 49
0
 49
-0.30
  0
ENDTAB
  0
TABLE
  2
LAYER
 70
23
  0
LAYER
  2
SCHRAUBEN
 70
64
 62
7
  6
CONTINUOUS
  0
LAYER
  2
REST
 70
64
 62
7
  6
CONTINUOUS
  0
LAYER
  2
UNTERSCHRIFT
 70
64
 62
7
  6
CONTINUOUS
  0
LAYER
  2
TEILE
 70
64
 62
7
  6
CONTINUOUS
  0
LAYER
  2
BEZ_SCHRAUBEN
 70
64
 62
7
  6
CONTINUOUS
  0
LAYER
  2
MARKERPUNKTE
 70
64
 62
7
  6
CONTINUOUS
  0
LAYER
  2
HILFSPUNKTE
 70
64
 62
7
  6
CONTINUOUS
  0
LAYER
  2
PICKPUNKTE
 70
64
 62
7
  6
CONTINUOUS
  0
LAYER
  2
SCHWEISSEN
 70
64
 62
7
  6
CONTINUOUS
  0
LAYER
  2
GRAFIK
 70
64
 62
7
  6
CONTINUOUS
  0
LAYER
  2
BEM_FREI
 70
64
 62
7
  6
CONTINUOUS
  0
LAYER
  2
BEM_SYSTEM
 70
64
 62
7
  6
CONTINUOUS
  0
LAYER
  2
BEM_KONTUR
 70
64
 62
7
  6
CONTINUOUS
  0
LAYER
  2
BEM_ANBAU
 70
64
 62
7
  6
CONTINUOUS
  0
LAYER
  2
BEM_SCHRAUBEN
 70
64
 62
7
  6
CONTINUOUS
  0
LAYER
  2
BEM_SCHWEISSEN
 70
64
 62
7
  6
CONTINUOUS
  0
LAYER
  2
FREIER_TEXT
 70
64
 62
7
  6
CONTINUOUS
  0
LAYER
  2
BEZ_TEILE
 70
64
 62
7
  6
CONTINUOUS
  0
LAYER
  2
BEZ_SCHWEISSEN
 70
64
 62
7
  6
CONTINUOUS
  0
LAYER
  2
SCHRAFFUREN
 70
64
 62
7
  6
CONTINUOUS
  0
LAYER
  2
SCHNITTSYMBOL
 70
64
 62
7
  6
CONTINUOUS
  0
LAYER
  2
RASTER
 70
64
 62
7
  6
CONTINUOUS
  0
LAYER
  2
LISTEN
 70
64
 62
7
  6
CONTINUOUS
  0
LAYER
  2
RAHMEN
 70
64
 62
7
  6
CONTINUOUS
  0
ENDTAB
  0
TABLE
  2
STYLE
 70
1
  0
STYLE
  2
STANDARD
 70
64
 40
0
 41
1
 50
0.0
 71
0
 42
0.35
  3
ROMANS
  0
ENDTAB
  0
ENDSEC
  0
SECTION
  2
ENTITIES
  0
LINE
  8
SCHRAUBEN
 62
6
 10
192.103745
 20
-37.249763
 11
180.503754
 21
-48.849762
  0
LINE
  8
SCHRAUBEN
 62
6
 10
180.503754
 20
-37.249763
 11
192.103745
 21
-48.849762
  0
CIRCLE
  8
SCHRAUBEN
 62
2
 10
186.303741
 20
-43.049767
 40
14.500015
  0
LINE
  8
SCHRAUBEN
 62
6
 10
137.911392
 20
14.597984
 11
126.311401
 21
2.997984
  0
LINE
  8
SCHRAUBEN
 62
6
 10
126.311401
 20
14.597986
 11
137.911392
 21
2.997984
  0
CIRCLE
  8
SCHRAUBEN
 62
2
 10
132.111389
 20
8.797985
 40
14.500000
  0
LINE
  8
SCHRAUBEN
 62
6
 10
83.719055
 20
66.445740
 11
72.119049
 21
54.845737
  0
LINE
  8
SCHRAUBEN
 62
6
 10
72.119049
 20
66.445740
 11
83.719055
 21
54.845737
  0
CIRCLE
  8
SCHRAUBEN
 62
2
 10
77.919052
 20
60.645737
 40
14.500000
  0
LINE
  8
SCHRAUBEN
 62
6
 10
501.153809
 20
-77.063148
 11
493.953796
 21
-84.263145
  0
LINE
  8
SCHRAUBEN
 62
6
 10
493.953796
 20
-77.063148
 11
501.153809
 21
-84.263145
  0
CIRCLE
  8
SCHRAUBEN
 62
2
 10
497.553772
 20
-80.663147
 40
9.000031
  0
LINE
  8
SCHRAUBEN
 62
6
 10
501.153809
 20
-27.063145
 11
493.953796
 21
-34.263149
  0
LINE
  8
SCHRAUBEN
 62
6
 10
493.953796
 20
-27.063145
 11
501.153809
 21
-34.263149
  0
CIRCLE
  8
SCHRAUBEN
 62
2
 10
497.553772
 20
-30.663147
 40
9.000031
  0
LINE
  8
SCHRAUBEN
 62
6
 10
853.983093
 20
-29.253525
 11
842.383057
 21
-40.853523
  0
LINE
  8
SCHRAUBEN
 62
6
 10
842.383057
 20
-29.253525
 11
853.983093
 21
-40.853523
  0
CIRCLE
  8
SCHRAUBEN
 62
2
 10
848.183044
 20
-35.053524
 40
14.500000
  0
LINE
  8
SCHRAUBEN
 62
6
 10
910.507080
 20
20.041941
 11
898.906982
 21
8.441939
  0
LINE
  8
SCHRAUBEN
 62
6
 10
898.906982
 20
20.041941
 11
910.507080
 21
8.441939
  0
CIRCLE
  8
SCHRAUBEN
 62
2
 10
904.707031
 20
14.241940
 40
14.500000
  0
LINE
  8
SCHRAUBEN
 62
6
 10
967.031006
 20
69.337402
 11
955.430969
 21
57.737404
  0
LINE
  8
SCHRAUBEN
 62
6
 10
955.430969
 20
69.337402
 11
967.031006
 21
57.737404
  0
CIRCLE
  8
SCHRAUBEN
 62
2
 10
961.231018
 20
63.537403
 40
14.499939
  0
TEXT
 8
UNTERSCHRIFT
 62
2
 10
419.553528
 20
-138.656403
 40
3.250000
 41
0.800000
 51
15.000000
  1
Project  DP0GN9  ,Qty. 6  , Pos. 
  0
TEXT
 8
UNTERSCHRIFT
 62
2
 10
518.353516
 20
-138.656403
 40
3.250000
 41
0.800000
 51
15.000000
  1
  , Profi l PL281*20
  0
TEXT
 8
UNTERSCHRIFT
 62
2
 10
505.353516
 20
-138.656403
 40
3.250000
 41
0.800000
 51
15.000000
  1
20617
  0
LINE
  8
TEILE
 62
2
 10
32.043808
 20
-140.656403
 11
0.000000
 21
65.995705
  0
LINE
  8
TEILE
 62
2
 10
0.000000
 20
65.995705
 11
69.130333
 21
138.252167
  0
LINE
  8
TEILE
 62
2
 10
69.130333
 20
138.252167
 11
497.553558
 21
8.592272
  0
LINE
  8
TEILE
 62
2
 10
497.553558
 20
8.592272
 11
973.586487
 21
140.656403
  0
LINE
  8
TEILE
 62
2
 10
973.586487
 20
140.656403
 11
1039.314331
 21
65.290413
  0
LINE
  8
TEILE
 62
2
 10
1039.314331
 20
65.290413
 11
963.063293
 21
-140.656403
  0
LINE
  8
TEILE
 62
2
 10
963.063293
 20
-140.656403
 11
32.043808
 21
-140.656403
  0
TEXT
 8
BEZ_SCHRAUBEN
 62
2
 10
178.303757
 20
-65.049767
 40
5.000000
 41
0.800000
 51
15.000000
  1
 ø29
  0
TEXT
 8
BEZ_SCHRAUBEN
 62
2
 10
124.111389
 20
-13.202015
 40
5.000000
 41
0.800000
 51
15.000000
  1
 ø29
  0
TEXT
 8
BEZ_SCHRAUBEN
 62
2
 10
69.919044
 20
38.645737
 40
4.999999
 41
0.800000
 51
15.000000
  1
 ø29
  0
TEXT
 8
BEZ_SCHRAUBEN
 62
2
 10
489.553802
 20
-97.163147
 40
5.000000
 41
0.800000
 51
15.000000
  1
 ø18
  0
TEXT
 8
BEZ_SCHRAUBEN
 62
2
 10
489.553802
 20
-47.163147
 40
5.000000
 41
0.800000
 51
15.000000
  1
 ø18
  0
TEXT
 8
BEZ_SCHRAUBEN
 62
2
 10
840.183044
 20
-57.053524
 40
5.000000
 41
0.800000
 51
15.000000
  1
 ø29
  0
TEXT
 8
BEZ_SCHRAUBEN
 62
2
 10
896.707031
 20
-7.758060
 40
5.000000
 41
0.800000
 51
15.000000
  1
 ø29
  0
TEXT
 8
BEZ_SCHRAUBEN
 62
2
 10
953.230957
 20
41.537403
 40
5.000000
 41
0.800000
 51
15.000000
  1
 ø29
  0
ENDSEC
  0
EOF

