999
     *******************************************
999
     BOCAD Software GmbH   Rev.18.000   0202.22
999
     Filename:   c:\progetti21\danieli_aqs\b4\temp_11\20615.dxf
999
     Creator:    bocad
999
     Date:       20.01.2016
999
     Factor:     10.000000
999
     *******************************************
  0
SECTION
  2
HEADER
  9
$DWGCODEPAGE
  3
ANSI_1252
  9
$INSBASE
 10
0.0
 20
0.0
 30
0.0
  9
$EXTMIN
 10
-0.500024
 20
-150.500021
  9
$EXTMAX
 10
180.516911
 20
150.499992
  9
$LIMMIN
 10
-1.500024
 20
-151.500021
  9
$LIMMAX
 10
181.516911
 20
151.499992
  9
$LTSCALE
 40
10.000000
  0
ENDSEC
  0
SECTION
  2
TABLES
  0
TABLE
  2
LTYPE
 70
4
  0
LTYPE
  2
CONTINUOUS
 70
64
  3
____________________________________________
 72
65
 73
0
 40
0.0
  0
LTYPE
  2
HIDDEN
 70
64
  3
__ __ __ __ __ __ __ __ __ __ __ __ __ __ __
 72
65
 73
2
 40
0.50
 49
0.30
 49
-0.20
  0
LTYPE
  2
DASHDOT
 70
64
  3
____ _ ____ _ ____ _ ____ _ ____ _ ____ _ __
 72
65
 73
4
 40
2.0
 49
1.5
 49
-0.25
 49
0
 49
-0.25
  0
LTYPE
  2
DOT
 70
64
  3
............................................
 72
65
 73
2
 40
0.30
 49
0
 49
-0.30
  0
ENDTAB
  0
TABLE
  2
LAYER
 70
23
  0
LAYER
  2
UNTERSCHRIFT
 70
64
 62
7
  6
CONTINUOUS
  0
LAYER
  2
TEILE
 70
64
 62
7
  6
CONTINUOUS
  0
LAYER
  2
REST
 70
64
 62
7
  6
CONTINUOUS
  0
LAYER
  2
MARKERPUNKTE
 70
64
 62
7
  6
CONTINUOUS
  0
LAYER
  2
HILFSPUNKTE
 70
64
 62
7
  6
CONTINUOUS
  0
LAYER
  2
PICKPUNKTE
 70
64
 62
7
  6
CONTINUOUS
  0
LAYER
  2
SCHRAUBEN
 70
64
 62
7
  6
CONTINUOUS
  0
LAYER
  2
SCHWEISSEN
 70
64
 62
7
  6
CONTINUOUS
  0
LAYER
  2
GRAFIK
 70
64
 62
7
  6
CONTINUOUS
  0
LAYER
  2
BEM_FREI
 70
64
 62
7
  6
CONTINUOUS
  0
LAYER
  2
BEM_SYSTEM
 70
64
 62
7
  6
CONTINUOUS
  0
LAYER
  2
BEM_KONTUR
 70
64
 62
7
  6
CONTINUOUS
  0
LAYER
  2
BEM_ANBAU
 70
64
 62
7
  6
CONTINUOUS
  0
LAYER
  2
BEM_SCHRAUBEN
 70
64
 62
7
  6
CONTINUOUS
  0
LAYER
  2
BEM_SCHWEISSEN
 70
64
 62
7
  6
CONTINUOUS
  0
LAYER
  2
FREIER_TEXT
 70
64
 62
7
  6
CONTINUOUS
  0
LAYER
  2
BEZ_TEILE
 70
64
 62
7
  6
CONTINUOUS
  0
LAYER
  2
BEZ_SCHRAUBEN
 70
64
 62
7
  6
CONTINUOUS
  0
LAYER
  2
BEZ_SCHWEISSEN
 70
64
 62
7
  6
CONTINUOUS
  0
LAYER
  2
SCHRAFFUREN
 70
64
 62
7
  6
CONTINUOUS
  0
LAYER
  2
SCHNITTSYMBOL
 70
64
 62
7
  6
CONTINUOUS
  0
LAYER
  2
RASTER
 70
64
 62
7
  6
CONTINUOUS
  0
LAYER
  2
LISTEN
 70
64
 62
7
  6
CONTINUOUS
  0
LAYER
  2
RAHMEN
 70
64
 62
7
  6
CONTINUOUS
  0
ENDTAB
  0
TABLE
  2
STYLE
 70
1
  0
STYLE
  2
STANDARD
 70
64
 40
0
 41
1
 50
0.0
 71
0
 42
0.35
  3
ROMANS
  0
ENDTAB
  0
ENDSEC
  0
SECTION
  2
ENTITIES
  0
TEXT
 8
UNTERSCHRIFT
 62
2
 10
67.385254
 20
113.624535
 40
3.249999
 50
-56.972752
 41
0.800000
 51
15.000000
  1
Project  DP0GN9  ,Qty. 20  , Pos. 
  0
TEXT
 8
UNTERSCHRIFT
 62
2
 10
122.652130
 20
28.609638
 40
3.250000
 50
-56.972782
 41
0.800000
 51
15.000000
  1
  , Profi l PL300*20
  0
TEXT
 8
UNTERSCHRIFT
 62
2
 10
115.566635
 20
39.508984
 40
3.249999
 50
-56.972782
 41
0.800000
 51
15.000000
  1
20615
  0
LINE
  8
TEILE
 62
2
 10
-0.000004
 20
-120.000008
 11
0.000004
 21
149.999985
  0
LINE
  8
TEILE
 62
2
 10
0.000004
 20
149.999985
 11
49.999969
 21
149.999985
  0
LINE
  8
TEILE
 62
2
 10
49.999969
 20
149.999985
 11
180.016922
 21
-50.000046
  0
LINE
  8
TEILE
 62
2
 10
180.016922
 20
-50.000046
 11
180.016922
 21
-150.000015
  0
LINE
  8
TEILE
 62
2
 10
180.016922
 20
-150.000015
 11
29.999998
 21
-150.000015
  0
LINE
  8
TEILE
 62
2
 10
29.999998
 20
-150.000015
 11
29.958887
 21
-148.429932
  0
LINE
  8
TEILE
 62
2
 10
29.958887
 20
-148.429932
 11
29.835659
 21
-146.864166
  0
LINE
  8
TEILE
 62
2
 10
29.835659
 20
-146.864166
 11
29.630651
 21
-145.306992
  0
LINE
  8
TEILE
 62
2
 10
29.630651
 20
-145.306992
 11
29.344429
 21
-143.762665
  0
LINE
  8
TEILE
 62
2
 10
29.344429
 20
-143.762665
 11
28.977776
 21
-142.235443
  0
LINE
  8
TEILE
 62
2
 10
28.977776
 20
-142.235443
 11
28.531696
 21
-140.729507
  0
LINE
  8
TEILE
 62
2
 10
28.531696
 20
-140.729507
 11
28.007414
 21
-139.248978
  0
LINE
  8
TEILE
 62
2
 10
28.007414
 20
-139.248978
 11
27.406366
 21
-137.797913
  0
LINE
  8
TEILE
 62
2
 10
27.406366
 20
-137.797913
 11
26.730196
 21
-136.380295
  0
LINE
  8
TEILE
 62
2
 10
26.730196
 20
-136.380295
 11
25.980762
 21
-135.000015
  0
LINE
  8
TEILE
 62
2
 10
25.980762
 20
-135.000015
 11
25.160118
 21
-133.660843
  0
LINE
  8
TEILE
 62
2
 10
25.160118
 20
-133.660843
 11
24.270512
 21
-132.366455
  0
LINE
  8
TEILE
 62
2
 10
24.270512
 20
-132.366455
 11
23.314379
 21
-131.120407
  0
LINE
  8
TEILE
 62
2
 10
23.314379
 20
-131.120407
 11
22.294346
 21
-129.926102
  0
LINE
  8
TEILE
 62
2
 10
22.294346
 20
-129.926102
 11
21.213203
 21
-128.786804
  0
LINE
  8
TEILE
 62
2
 10
21.213203
 20
-128.786804
 11
20.073917
 21
-127.705673
  0
LINE
  8
TEILE
 62
2
 10
20.073917
 20
-127.705673
 11
18.879610
 21
-126.685638
  0
LINE
  8
TEILE
 62
2
 10
18.879610
 20
-126.685638
 11
17.633556
 21
-125.729507
  0
LINE
  8
TEILE
 62
2
 10
17.633556
 20
-125.729507
 11
16.339169
 21
-124.839897
  0
LINE
  8
TEILE
 62
2
 10
16.339169
 20
-124.839897
 11
14.999998
 21
-124.019249
  0
LINE
  8
TEILE
 62
2
 10
14.999998
 20
-124.019249
 11
13.619710
 21
-123.269814
  0
LINE
  8
TEILE
 62
2
 10
13.619710
 20
-123.269814
 11
12.202092
 21
-122.593651
  0
LINE
  8
TEILE
 62
2
 10
12.202092
 20
-122.593651
 11
10.751030
 21
-121.992599
  0
LINE
  8
TEILE
 62
2
 10
10.751030
 20
-121.992599
 11
9.270499
 21
-121.468315
  0
LINE
  8
TEILE
 62
2
 10
9.270499
 20
-121.468315
 11
7.764558
 21
-121.022232
  0
LINE
  8
TEILE
 62
2
 10
7.764558
 20
-121.022232
 11
6.237336
 21
-120.655586
  0
LINE
  8
TEILE
 62
2
 10
6.237336
 20
-120.655586
 11
4.693017
 21
-120.369354
  0
LINE
  8
TEILE
 62
2
 10
4.693017
 20
-120.369354
 11
3.135834
 21
-120.164352
  0
LINE
  8
TEILE
 62
2
 10
3.135834
 20
-120.164352
 11
1.570057
 21
-120.041130
  0
LINE
  8
TEILE
 62
2
 10
1.570057
 20
-120.041130
 11
-0.000024
 21
-120.000015
  0
LINE
  8
TEILE
 62
2
 10
-0.000024
 20
-120.000015
 11
-0.000004
 21
-120.000008
  0
ENDSEC
  0
EOF

