999
     *******************************************
999
     BOCAD Software GmbH   Rev.18.000   0202.22
999
     Filename:   c:\progetti21\danieli_aqs\b4\temp_11\20610.dxf
999
     Creator:    bocad
999
     Date:       20.01.2016
999
     Factor:     10.000000
999
     *******************************************
  0
SECTION
  2
HEADER
  9
$DWGCODEPAGE
  3
ANSI_1252
  9
$INSBASE
 10
0.0
 20
0.0
 30
0.0
  9
$EXTMIN
 10
-0.500006
 20
-175.500031
  9
$EXTMAX
 10
11004.497070
 20
175.499992
  9
$LIMMIN
 10
-1.500006
 20
-176.500031
  9
$LIMMAX
 10
11005.497070
 20
176.499992
  9
$LTSCALE
 40
10.000000
  0
ENDSEC
  0
SECTION
  2
TABLES
  0
TABLE
  2
LTYPE
 70
4
  0
LTYPE
  2
CONTINUOUS
 70
64
  3
____________________________________________
 72
65
 73
0
 40
0.0
  0
LTYPE
  2
HIDDEN
 70
64
  3
__ __ __ __ __ __ __ __ __ __ __ __ __ __ __
 72
65
 73
2
 40
0.50
 49
0.30
 49
-0.20
  0
LTYPE
  2
DASHDOT
 70
64
  3
____ _ ____ _ ____ _ ____ _ ____ _ ____ _ __
 72
65
 73
4
 40
2.0
 49
1.5
 49
-0.25
 49
0
 49
-0.25
  0
LTYPE
  2
DOT
 70
64
  3
............................................
 72
65
 73
2
 40
0.30
 49
0
 49
-0.30
  0
ENDTAB
  0
TABLE
  2
LAYER
 70
23
  0
LAYER
  2
UNTERSCHRIFT
 70
64
 62
7
  6
CONTINUOUS
  0
LAYER
  2
TEILE
 70
64
 62
7
  6
CONTINUOUS
  0
LAYER
  2
REST
 70
64
 62
7
  6
CONTINUOUS
  0
LAYER
  2
MARKERPUNKTE
 70
64
 62
7
  6
CONTINUOUS
  0
LAYER
  2
HILFSPUNKTE
 70
64
 62
7
  6
CONTINUOUS
  0
LAYER
  2
PICKPUNKTE
 70
64
 62
7
  6
CONTINUOUS
  0
LAYER
  2
SCHRAUBEN
 70
64
 62
7
  6
CONTINUOUS
  0
LAYER
  2
SCHWEISSEN
 70
64
 62
7
  6
CONTINUOUS
  0
LAYER
  2
GRAFIK
 70
64
 62
7
  6
CONTINUOUS
  0
LAYER
  2
BEM_FREI
 70
64
 62
7
  6
CONTINUOUS
  0
LAYER
  2
BEM_SYSTEM
 70
64
 62
7
  6
CONTINUOUS
  0
LAYER
  2
BEM_KONTUR
 70
64
 62
7
  6
CONTINUOUS
  0
LAYER
  2
BEM_ANBAU
 70
64
 62
7
  6
CONTINUOUS
  0
LAYER
  2
BEM_SCHRAUBEN
 70
64
 62
7
  6
CONTINUOUS
  0
LAYER
  2
BEM_SCHWEISSEN
 70
64
 62
7
  6
CONTINUOUS
  0
LAYER
  2
FREIER_TEXT
 70
64
 62
7
  6
CONTINUOUS
  0
LAYER
  2
BEZ_TEILE
 70
64
 62
7
  6
CONTINUOUS
  0
LAYER
  2
BEZ_SCHRAUBEN
 70
64
 62
7
  6
CONTINUOUS
  0
LAYER
  2
BEZ_SCHWEISSEN
 70
64
 62
7
  6
CONTINUOUS
  0
LAYER
  2
SCHRAFFUREN
 70
64
 62
7
  6
CONTINUOUS
  0
LAYER
  2
SCHNITTSYMBOL
 70
64
 62
7
  6
CONTINUOUS
  0
LAYER
  2
RASTER
 70
64
 62
7
  6
CONTINUOUS
  0
LAYER
  2
LISTEN
 70
64
 62
7
  6
CONTINUOUS
  0
LAYER
  2
RAHMEN
 70
64
 62
7
  6
CONTINUOUS
  0
ENDTAB
  0
TABLE
  2
STYLE
 70
1
  0
STYLE
  2
STANDARD
 70
64
 40
0
 41
1
 50
0.0
 71
0
 42
0.35
  3
ROMANS
  0
ENDTAB
  0
ENDSEC
  0
SECTION
  2
ENTITIES
  0
TEXT
 8
UNTERSCHRIFT
 62
2
 10
5.250000
 20
-78.000031
 40
3.250000
 50
89.999931
 41
0.800000
 51
15.000000
  1
Project  DP0GN9  ,Qty. 1  , Pos. 
  0
TEXT
 8
UNTERSCHRIFT
 62
2
 10
5.250000
 20
20.799969
 40
3.250000
 50
89.999931
 41
0.800000
 51
15.000000
  1
  , Profi l PL350*12
  0
TEXT
 8
UNTERSCHRIFT
 62
2
 10
5.250000
 20
7.799968
 40
3.250000
 50
89.999931
 41
0.800000
 51
15.000000
  1
20610
  0
LINE
  8
TEILE
 62
2
 10
30.000000
 20
174.999985
 11
10973.996094
 21
175.000000
  0
LINE
  8
TEILE
 62
2
 10
10973.996094
 20
175.000000
 11
10974.041016
 21
173.375854
  0
LINE
  8
TEILE
 62
2
 10
10974.041016
 20
173.375854
 11
10974.171875
 21
171.756470
  0
LINE
  8
TEILE
 62
2
 10
10974.171875
 20
171.756470
 11
10974.392578
 21
170.146606
  0
LINE
  8
TEILE
 62
2
 10
10974.392578
 20
170.146606
 11
10974.698242
 21
168.550964
  0
LINE
  8
TEILE
 62
2
 10
10974.698242
 20
168.550964
 11
10975.089844
 21
166.974258
  0
LINE
  8
TEILE
 62
2
 10
10975.089844
 20
166.974258
 11
10975.567383
 21
165.421082
  0
LINE
  8
TEILE
 62
2
 10
10975.567383
 20
165.421082
 11
10976.127930
 21
163.896011
  0
LINE
  8
TEILE
 62
2
 10
10976.127930
 20
163.896011
 11
10976.769531
 21
162.403503
  0
LINE
  8
TEILE
 62
2
 10
10976.769531
 20
162.403503
 11
10977.491211
 21
160.947937
  0
LINE
  8
TEILE
 62
2
 10
10977.491211
 20
160.947937
 11
10978.291016
 21
159.533600
  0
LINE
  8
TEILE
 62
2
 10
10978.291016
 20
159.533600
 11
10979.166016
 21
158.164612
  0
LINE
  8
TEILE
 62
2
 10
10979.166016
 20
158.164612
 11
10980.115234
 21
156.845016
  0
LINE
  8
TEILE
 62
2
 10
10980.115234
 20
156.845016
 11
10981.131836
 21
155.578659
  0
LINE
  8
TEILE
 62
2
 10
10981.131836
 20
155.578659
 11
10982.216797
 21
154.369278
  0
LINE
  8
TEILE
 62
2
 10
10982.216797
 20
154.369278
 11
10983.365234
 21
153.220398
  0
LINE
  8
TEILE
 62
2
 10
10983.365234
 20
153.220398
 11
10984.575195
 21
152.135406
  0
LINE
  8
TEILE
 62
2
 10
10984.575195
 20
152.135406
 11
10985.840820
 21
151.117462
  0
LINE
  8
TEILE
 62
2
 10
10985.840820
 20
151.117462
 11
10987.160156
 21
150.169586
  0
LINE
  8
TEILE
 62
2
 10
10987.160156
 20
150.169586
 11
10988.530273
 21
149.294525
  0
LINE
  8
TEILE
 62
2
 10
10988.530273
 20
149.294525
 11
10989.945313
 21
148.494858
  0
LINE
  8
TEILE
 62
2
 10
10989.945313
 20
148.494858
 11
10991.400391
 21
147.772934
  0
LINE
  8
TEILE
 62
2
 10
10991.400391
 20
147.772934
 11
10992.892578
 21
147.130859
  0
LINE
  8
TEILE
 62
2
 10
10992.892578
 20
147.130859
 11
10994.417969
 21
146.570526
  0
LINE
  8
TEILE
 62
2
 10
10994.417969
 20
146.570526
 11
10995.970703
 21
146.093582
  0
LINE
  8
TEILE
 62
2
 10
10995.970703
 20
146.093582
 11
10997.547852
 21
145.701431
  0
LINE
  8
TEILE
 62
2
 10
10997.547852
 20
145.701431
 11
10999.142578
 21
145.395187
  0
LINE
  8
TEILE
 62
2
 10
10999.142578
 20
145.395187
 11
11000.752930
 21
145.175797
  0
LINE
  8
TEILE
 62
2
 10
11000.752930
 20
145.175797
 11
11002.372070
 21
145.043869
  0
LINE
  8
TEILE
 62
2
 10
11002.372070
 20
145.043869
 11
11003.996094
 21
144.999817
  0
LINE
  8
TEILE
 62
2
 10
11003.996094
 20
144.999817
 11
11003.996094
 21
145.000000
  0
LINE
  8
TEILE
 62
2
 10
11003.996094
 20
145.000000
 11
11003.996094
 21
-145.000000
  0
LINE
  8
TEILE
 62
2
 10
11003.996094
 20
-145.000000
 11
11002.426758
 21
-145.041061
  0
LINE
  8
TEILE
 62
2
 10
11002.426758
 20
-145.041061
 11
11000.860352
 21
-145.164307
  0
LINE
  8
TEILE
 62
2
 10
11000.860352
 20
-145.164307
 11
10999.302734
 21
-145.369293
  0
LINE
  8
TEILE
 62
2
 10
10999.302734
 20
-145.369293
 11
10997.758789
 21
-145.655533
  0
LINE
  8
TEILE
 62
2
 10
10997.758789
 20
-145.655533
 11
10996.231445
 21
-146.022171
  0
LINE
  8
TEILE
 62
2
 10
10996.231445
 20
-146.022171
 11
10994.726563
 21
-146.468262
  0
LINE
  8
TEILE
 62
2
 10
10994.726563
 20
-146.468262
 11
10993.246094
 21
-146.992538
  0
LINE
  8
TEILE
 62
2
 10
10993.246094
 20
-146.992538
 11
10991.794922
 21
-147.593597
  0
LINE
  8
TEILE
 62
2
 10
10991.794922
 20
-147.593597
 11
10990.376953
 21
-148.269760
  0
LINE
  8
TEILE
 62
2
 10
10990.376953
 20
-148.269760
 11
10988.996094
 21
-149.019196
  0
LINE
  8
TEILE
 62
2
 10
10988.996094
 20
-149.019196
 11
10987.657227
 21
-149.839844
  0
LINE
  8
TEILE
 62
2
 10
10987.657227
 20
-149.839844
 11
10986.363281
 21
-150.729462
  0
LINE
  8
TEILE
 62
2
 10
10986.363281
 20
-150.729462
 11
10985.117188
 21
-151.685593
  0
LINE
  8
TEILE
 62
2
 10
10985.117188
 20
-151.685593
 11
10983.921875
 21
-152.705627
  0
LINE
  8
TEILE
 62
2
 10
10983.921875
 20
-152.705627
 11
10982.783203
 21
-153.786758
  0
LINE
  8
TEILE
 62
2
 10
10982.783203
 20
-153.786758
 11
10981.701172
 21
-154.926056
  0
LINE
  8
TEILE
 62
2
 10
10981.701172
 20
-154.926056
 11
10980.682617
 21
-156.120361
  0
LINE
  8
TEILE
 62
2
 10
10980.682617
 20
-156.120361
 11
10979.726563
 21
-157.366425
  0
LINE
  8
TEILE
 62
2
 10
10979.726563
 20
-157.366425
 11
10978.836914
 21
-158.660828
  0
LINE
  8
TEILE
 62
2
 10
10978.836914
 20
-158.660828
 11
10978.016602
 21
-159.999985
  0
LINE
  8
TEILE
 62
2
 10
10978.016602
 20
-159.999985
 11
10977.266602
 21
-161.380295
  0
LINE
  8
TEILE
 62
2
 10
10977.266602
 20
-161.380295
 11
10976.590820
 21
-162.797913
  0
LINE
  8
TEILE
 62
2
 10
10976.590820
 20
-162.797913
 11
10975.988281
 21
-164.248962
  0
LINE
  8
TEILE
 62
2
 10
10975.988281
 20
-164.248962
 11
10975.464844
 21
-165.729507
  0
LINE
  8
TEILE
 62
2
 10
10975.464844
 20
-165.729507
 11
10975.018555
 21
-167.235443
  0
LINE
  8
TEILE
 62
2
 10
10975.018555
 20
-167.235443
 11
10974.652344
 21
-168.762665
  0
LINE
  8
TEILE
 62
2
 10
10974.652344
 20
-168.762665
 11
10974.366211
 21
-170.306992
  0
LINE
  8
TEILE
 62
2
 10
10974.366211
 20
-170.306992
 11
10974.161133
 21
-171.864166
  0
LINE
  8
TEILE
 62
2
 10
10974.161133
 20
-171.864166
 11
10974.038086
 21
-173.429947
  0
LINE
  8
TEILE
 62
2
 10
10974.038086
 20
-173.429947
 11
10973.996094
 21
-175.000031
  0
LINE
  8
TEILE
 62
2
 10
10973.996094
 20
-175.000031
 11
10973.996094
 21
-175.000000
  0
LINE
  8
TEILE
 62
2
 10
10973.996094
 20
-175.000000
 11
30.000000
 21
-175.000031
  0
LINE
  8
TEILE
 62
2
 10
30.000000
 20
-175.000031
 11
29.956007
 21
-173.375870
  0
LINE
  8
TEILE
 62
2
 10
29.956007
 20
-173.375870
 11
29.824142
 21
-171.756470
  0
LINE
  8
TEILE
 62
2
 10
29.824142
 20
-171.756470
 11
29.604799
 21
-170.146576
  0
LINE
  8
TEILE
 62
2
 10
29.604799
 20
-170.146576
 11
29.298620
 21
-168.550934
  0
LINE
  8
TEILE
 62
2
 10
29.298620
 20
-168.550934
 11
28.906502
 21
-166.974182
  0
LINE
  8
TEILE
 62
2
 10
28.906502
 20
-166.974182
 11
28.429596
 21
-165.420990
  0
LINE
  8
TEILE
 62
2
 10
28.429596
 20
-165.420990
 11
27.869303
 21
-163.895889
  0
LINE
  8
TEILE
 62
2
 10
27.869303
 20
-163.895889
 11
27.227264
 21
-162.403381
  0
LINE
  8
TEILE
 62
2
 10
27.227264
 20
-162.403381
 11
26.505360
 21
-160.947784
  0
LINE
  8
TEILE
 62
2
 10
26.505360
 20
-160.947784
 11
25.705715
 21
-159.533417
  0
LINE
  8
TEILE
 62
2
 10
25.705715
 20
-159.533417
 11
24.830667
 21
-158.164429
  0
LINE
  8
TEILE
 62
2
 10
24.830667
 20
-158.164429
 11
23.882790
 21
-156.844818
  0
LINE
  8
TEILE
 62
2
 10
23.882790
 20
-156.844818
 11
22.864859
 21
-155.578445
  0
LINE
  8
TEILE
 62
2
 10
22.864859
 20
-155.578445
 11
21.779861
 21
-154.369064
  0
LINE
  8
TEILE
 62
2
 10
21.779861
 20
-154.369064
 11
20.630980
 21
-153.220184
  0
LINE
  8
TEILE
 62
2
 10
20.630980
 20
-153.220184
 11
19.421585
 21
-152.135178
  0
LINE
  8
TEILE
 62
2
 10
19.421585
 20
-152.135178
 11
18.155224
 21
-151.117249
  0
LINE
  8
TEILE
 62
2
 10
18.155224
 20
-151.117249
 11
16.835608
 21
-150.169373
  0
LINE
  8
TEILE
 62
2
 10
16.835608
 20
-150.169373
 11
15.466612
 21
-149.294312
  0
LINE
  8
TEILE
 62
2
 10
15.466612
 20
-149.294312
 11
14.052250
 21
-148.494690
  0
LINE
  8
TEILE
 62
2
 10
14.052250
 20
-148.494690
 11
12.596669
 21
-147.772781
  0
LINE
  8
TEILE
 62
2
 10
12.596669
 20
-147.772781
 11
11.104141
 21
-147.130737
  0
LINE
  8
TEILE
 62
2
 10
11.104141
 20
-147.130737
 11
9.579042
 21
-146.570450
  0
LINE
  8
TEILE
 62
2
 10
9.579042
 20
-146.570450
 11
8.025846
 21
-146.093536
  0
LINE
  8
TEILE
 62
2
 10
8.025846
 20
-146.093536
 11
6.449109
 21
-145.701416
  0
LINE
  8
TEILE
 62
2
 10
6.449109
 20
-145.701416
 11
4.853455
 21
-145.395233
  0
LINE
  8
TEILE
 62
2
 10
4.853455
 20
-145.395233
 11
3.243566
 21
-145.175903
  0
LINE
  8
TEILE
 62
2
 10
3.243566
 20
-145.175903
 11
1.624162
 21
-145.044037
  0
LINE
  8
TEILE
 62
2
 10
1.624162
 20
-145.044037
 11
-0.000006
 21
-145.000031
  0
LINE
  8
TEILE
 62
2
 10
-0.000006
 20
-145.000031
 11
0.000000
 21
-145.000031
  0
LINE
  8
TEILE
 62
2
 10
0.000000
 20
-145.000031
 11
0.000000
 21
144.999969
  0
LINE
  8
TEILE
 62
2
 10
0.000000
 20
144.999969
 11
1.570077
 21
145.041077
  0
LINE
  8
TEILE
 62
2
 10
1.570077
 20
145.041077
 11
3.135853
 21
145.164322
  0
LINE
  8
TEILE
 62
2
 10
3.135853
 20
145.164322
 11
4.693035
 21
145.369324
  0
LINE
  8
TEILE
 62
2
 10
4.693035
 20
145.369324
 11
6.237353
 21
145.655548
  0
LINE
  8
TEILE
 62
2
 10
6.237353
 20
145.655548
 11
7.764575
 21
146.022202
  0
LINE
  8
TEILE
 62
2
 10
7.764575
 20
146.022202
 11
9.270514
 21
146.468277
  0
LINE
  8
TEILE
 62
2
 10
9.270514
 20
146.468277
 11
10.751045
 21
146.992554
  0
LINE
  8
TEILE
 62
2
 10
10.751045
 20
146.992554
 11
12.202106
 21
147.593613
  0
LINE
  8
TEILE
 62
2
 10
12.202106
 20
147.593613
 11
13.619723
 21
148.269775
  0
LINE
  8
TEILE
 62
2
 10
13.619723
 20
148.269775
 11
15.000010
 21
149.019211
  0
LINE
  8
TEILE
 62
2
 10
15.000010
 20
149.019211
 11
16.339182
 21
149.839859
  0
LINE
  8
TEILE
 62
2
 10
16.339182
 20
149.839859
 11
17.633568
 21
150.729462
  0
LINE
  8
TEILE
 62
2
 10
17.633568
 20
150.729462
 11
18.879623
 21
151.685608
  0
LINE
  8
TEILE
 62
2
 10
18.879623
 20
151.685608
 11
20.073931
 21
152.705627
  0
LINE
  8
TEILE
 62
2
 10
20.073931
 20
152.705627
 11
21.213217
 21
153.786774
  0
LINE
  8
TEILE
 62
2
 10
21.213217
 20
153.786774
 11
22.294359
 21
154.926056
  0
LINE
  8
TEILE
 62
2
 10
22.294359
 20
154.926056
 11
23.314392
 21
156.120361
  0
LINE
  8
TEILE
 62
2
 10
23.314392
 20
156.120361
 11
24.270523
 21
157.366425
  0
LINE
  8
TEILE
 62
2
 10
24.270523
 20
157.366425
 11
25.160131
 21
158.660812
  0
LINE
  8
TEILE
 62
2
 10
25.160131
 20
158.660812
 11
25.980776
 21
159.999985
  0
LINE
  8
TEILE
 62
2
 10
25.980776
 20
159.999985
 11
26.730209
 21
161.380280
  0
LINE
  8
TEILE
 62
2
 10
26.730209
 20
161.380280
 11
27.406376
 21
162.797882
  0
LINE
  8
TEILE
 62
2
 10
27.406376
 20
162.797882
 11
28.007423
 21
164.248947
  0
LINE
  8
TEILE
 62
2
 10
28.007423
 20
164.248947
 11
28.531706
 21
165.729492
  0
LINE
  8
TEILE
 62
2
 10
28.531706
 20
165.729492
 11
28.977783
 21
167.235413
  0
LINE
  8
TEILE
 62
2
 10
28.977783
 20
167.235413
 11
29.344435
 21
168.762650
  0
LINE
  8
TEILE
 62
2
 10
29.344435
 20
168.762650
 11
29.630657
 21
170.306946
  0
LINE
  8
TEILE
 62
2
 10
29.630657
 20
170.306946
 11
29.835661
 21
171.864151
  0
LINE
  8
TEILE
 62
2
 10
29.835661
 20
171.864151
 11
29.958889
 21
173.429901
  0
LINE
  8
TEILE
 62
2
 10
29.958889
 20
173.429901
 11
30.000002
 21
175.000000
  0
LINE
  8
TEILE
 62
2
 10
30.000002
 20
175.000000
 11
30.000000
 21
174.999985
  0
ENDSEC
  0
EOF

