999
     *******************************************
999
     BOCAD Software GmbH   Rev.18.000   0202.22
999
     Filename:   c:\progetti21\danieli_aqs\b4\temp_11\20611.dxf
999
     Creator:    bocad
999
     Date:       20.01.2016
999
     Factor:     10.000000
999
     *******************************************
  0
SECTION
  2
HEADER
  9
$DWGCODEPAGE
  3
ANSI_1252
  9
$INSBASE
 10
0.0
 20
0.0
 30
0.0
  9
$EXTMIN
 10
-0.500000
 20
-166.184101
  9
$EXTMAX
 10
314.351349
 20
166.184101
  9
$LIMMIN
 10
-1.500000
 20
-167.184101
  9
$LIMMAX
 10
315.351349
 20
167.184101
  9
$LTSCALE
 40
10.000000
  0
ENDSEC
  0
SECTION
  2
TABLES
  0
TABLE
  2
LTYPE
 70
4
  0
LTYPE
  2
CONTINUOUS
 70
64
  3
____________________________________________
 72
65
 73
0
 40
0.0
  0
LTYPE
  2
HIDDEN
 70
64
  3
__ __ __ __ __ __ __ __ __ __ __ __ __ __ __
 72
65
 73
2
 40
0.50
 49
0.30
 49
-0.20
  0
LTYPE
  2
DASHDOT
 70
64
  3
____ _ ____ _ ____ _ ____ _ ____ _ ____ _ __
 72
65
 73
4
 40
2.0
 49
1.5
 49
-0.25
 49
0
 49
-0.25
  0
LTYPE
  2
DOT
 70
64
  3
............................................
 72
65
 73
2
 40
0.30
 49
0
 49
-0.30
  0
ENDTAB
  0
TABLE
  2
LAYER
 70
23
  0
LAYER
  2
SCHRAUBEN
 70
64
 62
7
  6
CONTINUOUS
  0
LAYER
  2
REST
 70
64
 62
7
  6
CONTINUOUS
  0
LAYER
  2
UNTERSCHRIFT
 70
64
 62
7
  6
CONTINUOUS
  0
LAYER
  2
TEILE
 70
64
 62
7
  6
CONTINUOUS
  0
LAYER
  2
BEZ_SCHRAUBEN
 70
64
 62
7
  6
CONTINUOUS
  0
LAYER
  2
MARKERPUNKTE
 70
64
 62
7
  6
CONTINUOUS
  0
LAYER
  2
HILFSPUNKTE
 70
64
 62
7
  6
CONTINUOUS
  0
LAYER
  2
PICKPUNKTE
 70
64
 62
7
  6
CONTINUOUS
  0
LAYER
  2
SCHWEISSEN
 70
64
 62
7
  6
CONTINUOUS
  0
LAYER
  2
GRAFIK
 70
64
 62
7
  6
CONTINUOUS
  0
LAYER
  2
BEM_FREI
 70
64
 62
7
  6
CONTINUOUS
  0
LAYER
  2
BEM_SYSTEM
 70
64
 62
7
  6
CONTINUOUS
  0
LAYER
  2
BEM_KONTUR
 70
64
 62
7
  6
CONTINUOUS
  0
LAYER
  2
BEM_ANBAU
 70
64
 62
7
  6
CONTINUOUS
  0
LAYER
  2
BEM_SCHRAUBEN
 70
64
 62
7
  6
CONTINUOUS
  0
LAYER
  2
BEM_SCHWEISSEN
 70
64
 62
7
  6
CONTINUOUS
  0
LAYER
  2
FREIER_TEXT
 70
64
 62
7
  6
CONTINUOUS
  0
LAYER
  2
BEZ_TEILE
 70
64
 62
7
  6
CONTINUOUS
  0
LAYER
  2
BEZ_SCHWEISSEN
 70
64
 62
7
  6
CONTINUOUS
  0
LAYER
  2
SCHRAFFUREN
 70
64
 62
7
  6
CONTINUOUS
  0
LAYER
  2
SCHNITTSYMBOL
 70
64
 62
7
  6
CONTINUOUS
  0
LAYER
  2
RASTER
 70
64
 62
7
  6
CONTINUOUS
  0
LAYER
  2
LISTEN
 70
64
 62
7
  6
CONTINUOUS
  0
LAYER
  2
RAHMEN
 70
64
 62
7
  6
CONTINUOUS
  0
ENDTAB
  0
TABLE
  2
STYLE
 70
1
  0
STYLE
  2
STANDARD
 70
64
 40
0
 41
1
 50
0.0
 71
0
 42
0.35
  3
ROMANS
  0
ENDTAB
  0
ENDSEC
  0
SECTION
  2
ENTITIES
  0
LINE
  8
SCHRAUBEN
 62
6
 10
121.418221
 20
-31.820557
 11
111.018211
 21
-42.220558
  0
LINE
  8
SCHRAUBEN
 62
6
 10
111.018211
 20
-31.820557
 11
121.418221
 21
-42.220558
  0
CIRCLE
  8
SCHRAUBEN
 62
2
 10
116.218216
 20
-37.020557
 40
13.000000
  0
LINE
  8
SCHRAUBEN
 62
6
 10
184.679901
 20
-61.786491
 11
174.279907
 21
-72.186493
  0
LINE
  8
SCHRAUBEN
 62
6
 10
174.279907
 20
-61.786491
 11
184.679901
 21
-72.186493
  0
CIRCLE
  8
SCHRAUBEN
 62
2
 10
179.479904
 20
-66.986488
 40
12.999985
  0
LINE
  8
SCHRAUBEN
 62
6
 10
247.941620
 20
-91.752411
 11
237.541626
 21
-102.152420
  0
LINE
  8
SCHRAUBEN
 62
6
 10
237.541626
 20
-91.752411
 11
247.941620
 21
-102.152420
  0
CIRCLE
  8
SCHRAUBEN
 62
2
 10
242.741623
 20
-96.952423
 40
12.999985
  0
TEXT
 8
UNTERSCHRIFT
 62
2
 10
57.521461
 20
-163.684097
 40
3.250000
 41
0.800000
 51
15.000000
  1
Project  DP0GN9  ,Qty. 6  , Pos. 
  0
TEXT
 8
UNTERSCHRIFT
 62
2
 10
156.321457
 20
-163.684097
 40
3.250000
 41
0.799999
 51
15.000000
  1
  , Profi l PL331*20
  0
TEXT
 8
UNTERSCHRIFT
 62
2
 10
143.321457
 20
-163.684097
 40
3.250000
 41
0.800000
 51
15.000000
  1
20611
  0
LINE
  8
TEILE
 62
2
 10
0.000000
 20
-165.684113
 11
76.125504
 21
165.684113
  0
LINE
  8
TEILE
 62
2
 10
76.125504
 20
165.684113
 11
313.851349
 21
-75.310432
  0
LINE
  8
TEILE
 62
2
 10
313.851349
 20
-75.310432
 11
271.042908
 21
-165.684113
  0
LINE
  8
TEILE
 62
2
 10
271.042908
 20
-165.684113
 11
0.000000
 21
-165.684113
  0
TEXT
 8
BEZ_SCHRAUBEN
 62
2
 10
108.218216
 20
-57.520557
 40
5.000000
 41
0.800000
 51
15.000000
  1
 ø26
  0
ENDSEC
  0
EOF

