999
     *******************************************
999
     BOCAD Software GmbH   Rev.18.000   0202.22
999
     Filename:   c:\progetti21\danieli_aqs\b4\temp_11\20626.dxf
999
     Creator:    bocad
999
     Date:       20.01.2016
999
     Factor:     10.000000
999
     *******************************************
  0
SECTION
  2
HEADER
  9
$DWGCODEPAGE
  3
ANSI_1252
  9
$INSBASE
 10
0.0
 20
0.0
 30
0.0
  9
$EXTMIN
 10
-0.500000
 20
-137.079668
  9
$EXTMAX
 10
454.837723
 20
137.079668
  9
$LIMMIN
 10
-1.500000
 20
-138.079668
  9
$LIMMAX
 10
455.837723
 20
138.079668
  9
$LTSCALE
 40
10.000000
  0
ENDSEC
  0
SECTION
  2
TABLES
  0
TABLE
  2
LTYPE
 70
4
  0
LTYPE
  2
CONTINUOUS
 70
64
  3
____________________________________________
 72
65
 73
0
 40
0.0
  0
LTYPE
  2
HIDDEN
 70
64
  3
__ __ __ __ __ __ __ __ __ __ __ __ __ __ __
 72
65
 73
2
 40
0.50
 49
0.30
 49
-0.20
  0
LTYPE
  2
DASHDOT
 70
64
  3
____ _ ____ _ ____ _ ____ _ ____ _ ____ _ __
 72
65
 73
4
 40
2.0
 49
1.5
 49
-0.25
 49
0
 49
-0.25
  0
LTYPE
  2
DOT
 70
64
  3
............................................
 72
65
 73
2
 40
0.30
 49
0
 49
-0.30
  0
ENDTAB
  0
TABLE
  2
LAYER
 70
23
  0
LAYER
  2
SCHRAUBEN
 70
64
 62
7
  6
CONTINUOUS
  0
LAYER
  2
REST
 70
64
 62
7
  6
CONTINUOUS
  0
LAYER
  2
UNTERSCHRIFT
 70
64
 62
7
  6
CONTINUOUS
  0
LAYER
  2
TEILE
 70
64
 62
7
  6
CONTINUOUS
  0
LAYER
  2
BEZ_SCHRAUBEN
 70
64
 62
7
  6
CONTINUOUS
  0
LAYER
  2
MARKERPUNKTE
 70
64
 62
7
  6
CONTINUOUS
  0
LAYER
  2
HILFSPUNKTE
 70
64
 62
7
  6
CONTINUOUS
  0
LAYER
  2
PICKPUNKTE
 70
64
 62
7
  6
CONTINUOUS
  0
LAYER
  2
SCHWEISSEN
 70
64
 62
7
  6
CONTINUOUS
  0
LAYER
  2
GRAFIK
 70
64
 62
7
  6
CONTINUOUS
  0
LAYER
  2
BEM_FREI
 70
64
 62
7
  6
CONTINUOUS
  0
LAYER
  2
BEM_SYSTEM
 70
64
 62
7
  6
CONTINUOUS
  0
LAYER
  2
BEM_KONTUR
 70
64
 62
7
  6
CONTINUOUS
  0
LAYER
  2
BEM_ANBAU
 70
64
 62
7
  6
CONTINUOUS
  0
LAYER
  2
BEM_SCHRAUBEN
 70
64
 62
7
  6
CONTINUOUS
  0
LAYER
  2
BEM_SCHWEISSEN
 70
64
 62
7
  6
CONTINUOUS
  0
LAYER
  2
FREIER_TEXT
 70
64
 62
7
  6
CONTINUOUS
  0
LAYER
  2
BEZ_TEILE
 70
64
 62
7
  6
CONTINUOUS
  0
LAYER
  2
BEZ_SCHWEISSEN
 70
64
 62
7
  6
CONTINUOUS
  0
LAYER
  2
SCHRAFFUREN
 70
64
 62
7
  6
CONTINUOUS
  0
LAYER
  2
SCHNITTSYMBOL
 70
64
 62
7
  6
CONTINUOUS
  0
LAYER
  2
RASTER
 70
64
 62
7
  6
CONTINUOUS
  0
LAYER
  2
LISTEN
 70
64
 62
7
  6
CONTINUOUS
  0
LAYER
  2
RAHMEN
 70
64
 62
7
  6
CONTINUOUS
  0
ENDTAB
  0
TABLE
  2
STYLE
 70
1
  0
STYLE
  2
STANDARD
 70
64
 40
0
 41
1
 50
0.0
 71
0
 42
0.35
  3
ROMANS
  0
ENDTAB
  0
ENDSEC
  0
SECTION
  2
ENTITIES
  0
LINE
  8
SCHRAUBEN
 62
6
 10
269.251526
 20
-33.635231
 11
257.651520
 21
-45.235233
  0
LINE
  8
SCHRAUBEN
 62
6
 10
257.651520
 20
-33.635231
 11
269.251526
 21
-45.235233
  0
CIRCLE
  8
SCHRAUBEN
 62
2
 10
263.451508
 20
-39.435230
 40
14.500031
  0
LINE
  8
SCHRAUBEN
 62
6
 10
325.655365
 20
15.797638
 11
314.055359
 21
4.197637
  0
LINE
  8
SCHRAUBEN
 62
6
 10
314.055359
 20
15.797638
 11
325.655365
 21
4.197637
  0
CIRCLE
  8
SCHRAUBEN
 62
2
 10
319.855347
 20
9.997637
 40
14.500000
  0
LINE
  8
SCHRAUBEN
 62
6
 10
382.059204
 20
65.230507
 11
370.459167
 21
53.630508
  0
LINE
  8
SCHRAUBEN
 62
6
 10
370.459167
 20
65.230507
 11
382.059204
 21
53.630508
  0
CIRCLE
  8
SCHRAUBEN
 62
2
 10
376.259186
 20
59.430508
 40
14.500031
  0
TEXT
 8
UNTERSCHRIFT
 62
2
 10
149.168869
 20
-134.579666
 40
3.250000
 41
0.800000
 51
15.000000
  1
Project  DP0GN9  ,Qty. 2  , Pos. 
  0
TEXT
 8
UNTERSCHRIFT
 62
2
 10
247.968842
 20
-134.579666
 40
3.250000
 41
0.800000
 51
15.000000
  1
  , Profi l PL273*20
  0
TEXT
 8
UNTERSCHRIFT
 62
2
 10
234.968857
 20
-134.579666
 40
3.250000
 41
0.800000
 51
15.000000
  1
20626
  0
LINE
  8
TEILE
 62
2
 10
-0.000000
 20
-136.579666
 11
-0.000000
 21
-113.954422
  0
LINE
  8
TEILE
 62
2
 10
-0.000000
 20
-113.954422
 11
388.426758
 21
136.579666
  0
LINE
  8
TEILE
 62
2
 10
388.426758
 20
136.579666
 11
454.337738
 21
61.373940
  0
LINE
  8
TEILE
 62
2
 10
454.337738
 20
61.373940
 11
454.337738
 21
-136.579666
  0
LINE
  8
TEILE
 62
2
 10
454.337738
 20
-136.579666
 11
-0.000000
 21
-136.579666
  0
TEXT
 8
BEZ_SCHRAUBEN
 62
2
 10
255.451538
 20
-61.435234
 40
5.000000
 41
0.800000
 51
15.000000
  1
 ø29
  0
ENDSEC
  0
EOF

