999
     *******************************************
999
     BOCAD Software GmbH   Rev.18.000   0202.22
999
     Filename:   c:\progetti21\danieli_aqs\b4\temp_11\20638.dxf
999
     Creator:    bocad
999
     Date:       20.01.2016
999
     Factor:     10.000000
999
     *******************************************
  0
SECTION
  2
HEADER
  9
$DWGCODEPAGE
  3
ANSI_1252
  9
$INSBASE
 10
0.0
 20
0.0
 30
0.0
  9
$EXTMIN
 10
-0.500000
 20
-205.499992
  9
$EXTMAX
 10
180.499935
 20
205.499992
  9
$LIMMIN
 10
-1.500000
 20
-206.499992
  9
$LIMMAX
 10
181.499935
 20
206.499992
  9
$LTSCALE
 40
10.000000
  0
ENDSEC
  0
SECTION
  2
TABLES
  0
TABLE
  2
LTYPE
 70
4
  0
LTYPE
  2
CONTINUOUS
 70
64
  3
____________________________________________
 72
65
 73
0
 40
0.0
  0
LTYPE
  2
HIDDEN
 70
64
  3
__ __ __ __ __ __ __ __ __ __ __ __ __ __ __
 72
65
 73
2
 40
0.50
 49
0.30
 49
-0.20
  0
LTYPE
  2
DASHDOT
 70
64
  3
____ _ ____ _ ____ _ ____ _ ____ _ ____ _ __
 72
65
 73
4
 40
2.0
 49
1.5
 49
-0.25
 49
0
 49
-0.25
  0
LTYPE
  2
DOT
 70
64
  3
............................................
 72
65
 73
2
 40
0.30
 49
0
 49
-0.30
  0
ENDTAB
  0
TABLE
  2
LAYER
 70
23
  0
LAYER
  2
UNTERSCHRIFT
 70
64
 62
7
  6
CONTINUOUS
  0
LAYER
  2
TEILE
 70
64
 62
7
  6
CONTINUOUS
  0
LAYER
  2
REST
 70
64
 62
7
  6
CONTINUOUS
  0
LAYER
  2
MARKERPUNKTE
 70
64
 62
7
  6
CONTINUOUS
  0
LAYER
  2
HILFSPUNKTE
 70
64
 62
7
  6
CONTINUOUS
  0
LAYER
  2
PICKPUNKTE
 70
64
 62
7
  6
CONTINUOUS
  0
LAYER
  2
SCHRAUBEN
 70
64
 62
7
  6
CONTINUOUS
  0
LAYER
  2
SCHWEISSEN
 70
64
 62
7
  6
CONTINUOUS
  0
LAYER
  2
GRAFIK
 70
64
 62
7
  6
CONTINUOUS
  0
LAYER
  2
BEM_FREI
 70
64
 62
7
  6
CONTINUOUS
  0
LAYER
  2
BEM_SYSTEM
 70
64
 62
7
  6
CONTINUOUS
  0
LAYER
  2
BEM_KONTUR
 70
64
 62
7
  6
CONTINUOUS
  0
LAYER
  2
BEM_ANBAU
 70
64
 62
7
  6
CONTINUOUS
  0
LAYER
  2
BEM_SCHRAUBEN
 70
64
 62
7
  6
CONTINUOUS
  0
LAYER
  2
BEM_SCHWEISSEN
 70
64
 62
7
  6
CONTINUOUS
  0
LAYER
  2
FREIER_TEXT
 70
64
 62
7
  6
CONTINUOUS
  0
LAYER
  2
BEZ_TEILE
 70
64
 62
7
  6
CONTINUOUS
  0
LAYER
  2
BEZ_SCHRAUBEN
 70
64
 62
7
  6
CONTINUOUS
  0
LAYER
  2
BEZ_SCHWEISSEN
 70
64
 62
7
  6
CONTINUOUS
  0
LAYER
  2
SCHRAFFUREN
 70
64
 62
7
  6
CONTINUOUS
  0
LAYER
  2
SCHNITTSYMBOL
 70
64
 62
7
  6
CONTINUOUS
  0
LAYER
  2
RASTER
 70
64
 62
7
  6
CONTINUOUS
  0
LAYER
  2
LISTEN
 70
64
 62
7
  6
CONTINUOUS
  0
LAYER
  2
RAHMEN
 70
64
 62
7
  6
CONTINUOUS
  0
ENDTAB
  0
TABLE
  2
STYLE
 70
1
  0
STYLE
  2
STANDARD
 70
64
 40
0
 41
1
 50
0.0
 71
0
 42
0.35
  3
ROMANS
  0
ENDTAB
  0
ENDSEC
  0
SECTION
  2
ENTITIES
  0
TEXT
 8
UNTERSCHRIFT
 62
2
 10
177.999939
 20
-79.299995
 40
3.250000
 50
90.000000
 41
0.800000
 51
15.000000
  1
Project  DP0GN9  ,Qty. 20  , Pos. 
  0
TEXT
 8
UNTERSCHRIFT
 62
2
 10
177.999939
 20
22.100000
 40
3.250000
 50
90.000000
 41
0.800000
 51
15.000000
  1
  , Profi l PL410*20
  0
TEXT
 8
UNTERSCHRIFT
 62
2
 10
177.999939
 20
9.099999
 40
3.250000
 50
90.000000
 41
0.800000
 51
15.000000
  1
20638
  0
LINE
  8
TEILE
 62
2
 10
149.999939
 20
-205.000000
 11
0.000000
 21
-205.000000
  0
LINE
  8
TEILE
 62
2
 10
0.000000
 20
-205.000000
 11
-0.000000
 21
204.999969
  0
LINE
  8
TEILE
 62
2
 10
-0.000000
 20
204.999969
 11
149.999939
 21
205.000000
  0
LINE
  8
TEILE
 62
2
 10
149.999939
 20
205.000000
 11
150.043930
 21
203.375839
  0
LINE
  8
TEILE
 62
2
 10
150.043930
 20
203.375839
 11
150.175797
 21
201.756439
  0
LINE
  8
TEILE
 62
2
 10
150.175797
 20
201.756439
 11
150.395142
 21
200.146545
  0
LINE
  8
TEILE
 62
2
 10
150.395142
 20
200.146545
 11
150.701324
 21
198.550888
  0
LINE
  8
TEILE
 62
2
 10
150.701324
 20
198.550888
 11
151.093430
 21
196.974152
  0
LINE
  8
TEILE
 62
2
 10
151.093430
 20
196.974152
 11
151.570343
 21
195.420959
  0
LINE
  8
TEILE
 62
2
 10
151.570343
 20
195.420959
 11
152.130646
 21
193.895859
  0
LINE
  8
TEILE
 62
2
 10
152.130646
 20
193.895859
 11
152.772675
 21
192.403336
  0
LINE
  8
TEILE
 62
2
 10
152.772675
 20
192.403336
 11
153.494583
 21
190.947739
  0
LINE
  8
TEILE
 62
2
 10
153.494583
 20
190.947739
 11
154.294220
 21
189.533386
  0
LINE
  8
TEILE
 62
2
 10
154.294220
 20
189.533386
 11
155.169266
 21
188.164383
  0
LINE
  8
TEILE
 62
2
 10
155.169266
 20
188.164383
 11
156.117157
 21
186.844788
  0
LINE
  8
TEILE
 62
2
 10
156.117157
 20
186.844788
 11
157.135071
 21
185.578430
  0
LINE
  8
TEILE
 62
2
 10
157.135071
 20
185.578430
 11
158.220078
 21
184.369034
  0
LINE
  8
TEILE
 62
2
 10
158.220078
 20
184.369034
 11
159.368958
 21
183.220139
  0
LINE
  8
TEILE
 62
2
 10
159.368958
 20
183.220139
 11
160.578339
 21
182.135147
  0
LINE
  8
TEILE
 62
2
 10
160.578339
 20
182.135147
 11
161.844711
 21
181.117218
  0
LINE
  8
TEILE
 62
2
 10
161.844711
 20
181.117218
 11
163.164337
 21
180.169342
  0
LINE
  8
TEILE
 62
2
 10
163.164337
 20
180.169342
 11
164.533325
 21
179.294296
  0
LINE
  8
TEILE
 62
2
 10
164.533325
 20
179.294296
 11
165.947693
 21
178.494644
  0
LINE
  8
TEILE
 62
2
 10
165.947693
 20
178.494644
 11
167.403259
 21
177.772751
  0
LINE
  8
TEILE
 62
2
 10
167.403259
 20
177.772751
 11
168.895798
 21
177.130707
  0
LINE
  8
TEILE
 62
2
 10
168.895798
 20
177.130707
 11
170.420898
 21
176.570419
  0
LINE
  8
TEILE
 62
2
 10
170.420898
 20
176.570419
 11
171.974091
 21
176.093506
  0
LINE
  8
TEILE
 62
2
 10
171.974091
 20
176.093506
 11
173.550842
 21
175.701385
  0
LINE
  8
TEILE
 62
2
 10
173.550842
 20
175.701385
 11
175.146484
 21
175.395218
  0
LINE
  8
TEILE
 62
2
 10
175.146484
 20
175.395218
 11
176.756363
 21
175.175873
  0
LINE
  8
TEILE
 62
2
 10
176.756363
 20
175.175873
 11
178.375778
 21
175.044006
  0
LINE
  8
TEILE
 62
2
 10
178.375778
 20
175.044006
 11
179.999939
 21
175.000015
  0
LINE
  8
TEILE
 62
2
 10
179.999939
 20
175.000015
 11
179.999939
 21
175.000000
  0
LINE
  8
TEILE
 62
2
 10
179.999939
 20
175.000000
 11
179.999939
 21
-175.000000
  0
LINE
  8
TEILE
 62
2
 10
179.999939
 20
-175.000000
 11
178.375778
 21
-175.044006
  0
LINE
  8
TEILE
 62
2
 10
178.375778
 20
-175.044006
 11
176.756363
 21
-175.175873
  0
LINE
  8
TEILE
 62
2
 10
176.756363
 20
-175.175873
 11
175.146484
 21
-175.395218
  0
LINE
  8
TEILE
 62
2
 10
175.146484
 20
-175.395218
 11
173.550842
 21
-175.701385
  0
LINE
  8
TEILE
 62
2
 10
173.550842
 20
-175.701385
 11
171.974091
 21
-176.093506
  0
LINE
  8
TEILE
 62
2
 10
171.974091
 20
-176.093506
 11
170.420898
 21
-176.570419
  0
LINE
  8
TEILE
 62
2
 10
170.420898
 20
-176.570419
 11
168.895798
 21
-177.130707
  0
LINE
  8
TEILE
 62
2
 10
168.895798
 20
-177.130707
 11
167.403275
 21
-177.772751
  0
LINE
  8
TEILE
 62
2
 10
167.403275
 20
-177.772751
 11
165.947693
 21
-178.494644
  0
LINE
  8
TEILE
 62
2
 10
165.947693
 20
-178.494644
 11
164.533325
 21
-179.294296
  0
LINE
  8
TEILE
 62
2
 10
164.533325
 20
-179.294296
 11
163.164337
 21
-180.169342
  0
LINE
  8
TEILE
 62
2
 10
163.164337
 20
-180.169342
 11
161.844711
 21
-181.117218
  0
LINE
  8
TEILE
 62
2
 10
161.844711
 20
-181.117218
 11
160.578339
 21
-182.135147
  0
LINE
  8
TEILE
 62
2
 10
160.578339
 20
-182.135147
 11
159.368958
 21
-183.220139
  0
LINE
  8
TEILE
 62
2
 10
159.368958
 20
-183.220139
 11
158.220078
 21
-184.369034
  0
LINE
  8
TEILE
 62
2
 10
158.220078
 20
-184.369034
 11
157.135071
 21
-185.578430
  0
LINE
  8
TEILE
 62
2
 10
157.135071
 20
-185.578430
 11
156.117157
 21
-186.844788
  0
LINE
  8
TEILE
 62
2
 10
156.117157
 20
-186.844788
 11
155.169266
 21
-188.164383
  0
LINE
  8
TEILE
 62
2
 10
155.169266
 20
-188.164383
 11
154.294220
 21
-189.533386
  0
LINE
  8
TEILE
 62
2
 10
154.294220
 20
-189.533386
 11
153.494583
 21
-190.947739
  0
LINE
  8
TEILE
 62
2
 10
153.494583
 20
-190.947739
 11
152.772675
 21
-192.403336
  0
LINE
  8
TEILE
 62
2
 10
152.772675
 20
-192.403336
 11
152.130630
 21
-193.895859
  0
LINE
  8
TEILE
 62
2
 10
152.130630
 20
-193.895859
 11
151.570343
 21
-195.420959
  0
LINE
  8
TEILE
 62
2
 10
151.570343
 20
-195.420959
 11
151.093430
 21
-196.974152
  0
LINE
  8
TEILE
 62
2
 10
151.093430
 20
-196.974152
 11
150.701324
 21
-198.550888
  0
LINE
  8
TEILE
 62
2
 10
150.701324
 20
-198.550888
 11
150.395142
 21
-200.146545
  0
LINE
  8
TEILE
 62
2
 10
150.395142
 20
-200.146545
 11
150.175797
 21
-201.756439
  0
LINE
  8
TEILE
 62
2
 10
150.175797
 20
-201.756439
 11
150.043930
 21
-203.375839
  0
LINE
  8
TEILE
 62
2
 10
150.043930
 20
-203.375839
 11
149.999939
 21
-205.000000
  0
LINE
  8
TEILE
 62
2
 10
149.999939
 20
-205.000000
 11
149.999939
 21
-205.000000
  0
ENDSEC
  0
EOF

