999
     *******************************************
999
     BOCAD Software GmbH   Rev.18.000   0202.22
999
     Filename:   c:\progetti21\danieli_aqs\b4\temp_11\20639.dxf
999
     Creator:    bocad
999
     Date:       20.01.2016
999
     Factor:     10.000000
999
     *******************************************
  0
SECTION
  2
HEADER
  9
$DWGCODEPAGE
  3
ANSI_1252
  9
$INSBASE
 10
0.0
 20
0.0
 30
0.0
  9
$EXTMIN
 10
-0.500000
 20
-200.499992
  9
$EXTMAX
 10
2583.531799
 20
200.499992
  9
$LIMMIN
 10
-1.500000
 20
-201.499992
  9
$LIMMAX
 10
2584.531799
 20
201.499992
  9
$LTSCALE
 40
10.000000
  0
ENDSEC
  0
SECTION
  2
TABLES
  0
TABLE
  2
LTYPE
 70
4
  0
LTYPE
  2
CONTINUOUS
 70
64
  3
____________________________________________
 72
65
 73
0
 40
0.0
  0
LTYPE
  2
HIDDEN
 70
64
  3
__ __ __ __ __ __ __ __ __ __ __ __ __ __ __
 72
65
 73
2
 40
0.50
 49
0.30
 49
-0.20
  0
LTYPE
  2
DASHDOT
 70
64
  3
____ _ ____ _ ____ _ ____ _ ____ _ ____ _ __
 72
65
 73
4
 40
2.0
 49
1.5
 49
-0.25
 49
0
 49
-0.25
  0
LTYPE
  2
DOT
 70
64
  3
............................................
 72
65
 73
2
 40
0.30
 49
0
 49
-0.30
  0
ENDTAB
  0
TABLE
  2
LAYER
 70
23
  0
LAYER
  2
SCHRAUBEN
 70
64
 62
7
  6
CONTINUOUS
  0
LAYER
  2
REST
 70
64
 62
7
  6
CONTINUOUS
  0
LAYER
  2
UNTERSCHRIFT
 70
64
 62
7
  6
CONTINUOUS
  0
LAYER
  2
TEILE
 70
64
 62
7
  6
CONTINUOUS
  0
LAYER
  2
BEZ_SCHRAUBEN
 70
64
 62
7
  6
CONTINUOUS
  0
LAYER
  2
MARKERPUNKTE
 70
64
 62
7
  6
CONTINUOUS
  0
LAYER
  2
HILFSPUNKTE
 70
64
 62
7
  6
CONTINUOUS
  0
LAYER
  2
PICKPUNKTE
 70
64
 62
7
  6
CONTINUOUS
  0
LAYER
  2
SCHWEISSEN
 70
64
 62
7
  6
CONTINUOUS
  0
LAYER
  2
GRAFIK
 70
64
 62
7
  6
CONTINUOUS
  0
LAYER
  2
BEM_FREI
 70
64
 62
7
  6
CONTINUOUS
  0
LAYER
  2
BEM_SYSTEM
 70
64
 62
7
  6
CONTINUOUS
  0
LAYER
  2
BEM_KONTUR
 70
64
 62
7
  6
CONTINUOUS
  0
LAYER
  2
BEM_ANBAU
 70
64
 62
7
  6
CONTINUOUS
  0
LAYER
  2
BEM_SCHRAUBEN
 70
64
 62
7
  6
CONTINUOUS
  0
LAYER
  2
BEM_SCHWEISSEN
 70
64
 62
7
  6
CONTINUOUS
  0
LAYER
  2
FREIER_TEXT
 70
64
 62
7
  6
CONTINUOUS
  0
LAYER
  2
BEZ_TEILE
 70
64
 62
7
  6
CONTINUOUS
  0
LAYER
  2
BEZ_SCHWEISSEN
 70
64
 62
7
  6
CONTINUOUS
  0
LAYER
  2
SCHRAFFUREN
 70
64
 62
7
  6
CONTINUOUS
  0
LAYER
  2
SCHNITTSYMBOL
 70
64
 62
7
  6
CONTINUOUS
  0
LAYER
  2
RASTER
 70
64
 62
7
  6
CONTINUOUS
  0
LAYER
  2
LISTEN
 70
64
 62
7
  6
CONTINUOUS
  0
LAYER
  2
RAHMEN
 70
64
 62
7
  6
CONTINUOUS
  0
ENDTAB
  0
TABLE
  2
STYLE
 70
1
  0
STYLE
  2
STANDARD
 70
64
 40
0
 41
1
 50
0.0
 71
0
 42
0.35
  3
ROMANS
  0
ENDTAB
  0
ENDSEC
  0
SECTION
  2
ENTITIES
  0
ARC
  8
SCHRAUBEN
 62
4
 10
153.001007
 20
-100.000008
 40
13.000008
 50
270.000000
 51
450.000000
  0
LINE
  8
SCHRAUBEN
 62
4
 10
153.001007
 20
-87.000008
 11
117.001007
 21
-87.000008
  0
ARC
  8
SCHRAUBEN
 62
4
 10
117.001007
 20
-100.000008
 40
13.000000
 50
450.000000
 51
270.000000
  0
LINE
  8
SCHRAUBEN
 62
4
 10
117.001007
 20
-113.000015
 11
153.001007
 21
-113.000015
  0
LINE
  8
SCHRAUBEN
 62
6
 10
158.201004
 20
-94.800003
 11
147.800995
 21
-105.200012
  0
LINE
  8
SCHRAUBEN
 62
6
 10
147.800995
 20
-94.800003
 11
158.201004
 21
-105.200012
  0
LINE
  8
SCHRAUBEN
 62
6
 10
122.201012
 20
-94.800003
 11
111.801003
 21
-105.200012
  0
LINE
  8
SCHRAUBEN
 62
6
 10
111.801003
 20
-94.800003
 11
122.201012
 21
-105.200012
  0
ARC
  8
SCHRAUBEN
 62
4
 10
423.001038
 20
-100.000008
 40
13.000008
 50
270.000000
 51
450.000000
  0
LINE
  8
SCHRAUBEN
 62
4
 10
423.001038
 20
-87.000008
 11
387.001038
 21
-87.000008
  0
ARC
  8
SCHRAUBEN
 62
4
 10
387.001038
 20
-100.000008
 40
13.000000
 50
450.000000
 51
270.000000
  0
LINE
  8
SCHRAUBEN
 62
4
 10
387.001038
 20
-113.000015
 11
423.001038
 21
-113.000015
  0
LINE
  8
SCHRAUBEN
 62
6
 10
428.201019
 20
-94.800003
 11
417.801025
 21
-105.200012
  0
LINE
  8
SCHRAUBEN
 62
6
 10
417.801025
 20
-94.800003
 11
428.201019
 21
-105.200012
  0
LINE
  8
SCHRAUBEN
 62
6
 10
392.201050
 20
-94.800003
 11
381.801025
 21
-105.200012
  0
LINE
  8
SCHRAUBEN
 62
6
 10
381.801025
 20
-94.800003
 11
392.201050
 21
-105.200012
  0
ARC
  8
SCHRAUBEN
 62
4
 10
423.001038
 20
100.000000
 40
13.000000
 50
270.000000
 51
450.000000
  0
LINE
  8
SCHRAUBEN
 62
4
 10
423.001038
 20
113.000000
 11
387.001038
 21
113.000000
  0
ARC
  8
SCHRAUBEN
 62
4
 10
387.001038
 20
100.000000
 40
13.000000
 50
450.000000
 51
270.000000
  0
LINE
  8
SCHRAUBEN
 62
4
 10
387.001038
 20
87.000000
 11
423.001038
 21
87.000000
  0
LINE
  8
SCHRAUBEN
 62
6
 10
428.201019
 20
105.200005
 11
417.801025
 21
94.799995
  0
LINE
  8
SCHRAUBEN
 62
6
 10
417.801025
 20
105.200005
 11
428.201019
 21
94.799995
  0
LINE
  8
SCHRAUBEN
 62
6
 10
392.201050
 20
105.200005
 11
381.801025
 21
94.799995
  0
LINE
  8
SCHRAUBEN
 62
6
 10
381.801025
 20
105.200005
 11
392.201050
 21
94.799995
  0
ARC
  8
SCHRAUBEN
 62
4
 10
153.001007
 20
100.000000
 40
13.000000
 50
270.000000
 51
450.000000
  0
LINE
  8
SCHRAUBEN
 62
4
 10
153.001007
 20
113.000000
 11
117.001007
 21
113.000000
  0
ARC
  8
SCHRAUBEN
 62
4
 10
117.001007
 20
100.000000
 40
13.000000
 50
450.000000
 51
270.000000
  0
LINE
  8
SCHRAUBEN
 62
4
 10
117.001007
 20
87.000000
 11
153.001007
 21
87.000000
  0
LINE
  8
SCHRAUBEN
 62
6
 10
158.201004
 20
105.200005
 11
147.800995
 21
94.799995
  0
LINE
  8
SCHRAUBEN
 62
6
 10
147.800995
 20
105.200005
 11
158.201004
 21
94.799995
  0
LINE
  8
SCHRAUBEN
 62
6
 10
122.201012
 20
105.200005
 11
111.801003
 21
94.799995
  0
LINE
  8
SCHRAUBEN
 62
6
 10
111.801003
 20
105.200005
 11
122.201012
 21
94.799995
  0
LINE
  8
SCHRAUBEN
 62
6
 10
1753.333130
 20
145.800034
 11
1741.733154
 21
134.200043
  0
LINE
  8
SCHRAUBEN
 62
6
 10
1741.733154
 20
145.800034
 11
1753.333130
 21
134.200043
  0
CIRCLE
  8
SCHRAUBEN
 62
2
 10
1747.533081
 20
140.000031
 40
14.500000
  0
LINE
  8
SCHRAUBEN
 62
6
 10
1753.333130
 20
70.800034
 11
1741.733154
 21
59.200035
  0
LINE
  8
SCHRAUBEN
 62
6
 10
1741.733154
 20
70.800034
 11
1753.333130
 21
59.200035
  0
CIRCLE
  8
SCHRAUBEN
 62
2
 10
1747.533081
 20
65.000031
 40
14.500000
  0
LINE
  8
SCHRAUBEN
 62
6
 10
1753.333130
 20
-59.199959
 11
1741.733154
 21
-70.799957
  0
LINE
  8
SCHRAUBEN
 62
6
 10
1741.733154
 20
-59.199959
 11
1753.333130
 21
-70.799957
  0
CIRCLE
  8
SCHRAUBEN
 62
2
 10
1747.533081
 20
-64.999954
 40
14.500000
  0
LINE
  8
SCHRAUBEN
 62
6
 10
1753.333130
 20
-134.199966
 11
1741.733154
 21
-145.799957
  0
LINE
  8
SCHRAUBEN
 62
6
 10
1741.733154
 20
-134.199966
 11
1753.333130
 21
-145.799957
  0
CIRCLE
  8
SCHRAUBEN
 62
2
 10
1747.533081
 20
-139.999969
 40
14.500000
  0
LINE
  8
SCHRAUBEN
 62
6
 10
1580.833130
 20
-59.199963
 11
1569.233154
 21
-70.799957
  0
LINE
  8
SCHRAUBEN
 62
6
 10
1569.233154
 20
-59.199963
 11
1580.833130
 21
-70.799957
  0
CIRCLE
  8
SCHRAUBEN
 62
2
 10
1575.033081
 20
-64.999962
 40
14.500000
  0
LINE
  8
SCHRAUBEN
 62
6
 10
1580.833130
 20
-134.199966
 11
1569.233154
 21
-145.799957
  0
LINE
  8
SCHRAUBEN
 62
6
 10
1569.233154
 20
-134.199966
 11
1580.833130
 21
-145.799957
  0
CIRCLE
  8
SCHRAUBEN
 62
2
 10
1575.033081
 20
-139.999969
 40
14.500000
  0
LINE
  8
SCHRAUBEN
 62
6
 10
1580.833130
 20
70.800034
 11
1569.233154
 21
59.200039
  0
LINE
  8
SCHRAUBEN
 62
6
 10
1569.233154
 20
70.800034
 11
1580.833130
 21
59.200039
  0
CIRCLE
  8
SCHRAUBEN
 62
2
 10
1575.033081
 20
65.000038
 40
14.500000
  0
LINE
  8
SCHRAUBEN
 62
6
 10
1580.833130
 20
145.800034
 11
1569.233154
 21
134.200043
  0
LINE
  8
SCHRAUBEN
 62
6
 10
1569.233154
 20
145.800034
 11
1580.833130
 21
134.200043
  0
CIRCLE
  8
SCHRAUBEN
 62
2
 10
1575.033081
 20
140.000031
 40
14.500000
  0
LINE
  8
SCHRAUBEN
 62
6
 10
1270.833130
 20
145.800034
 11
1259.233154
 21
134.200043
  0
LINE
  8
SCHRAUBEN
 62
6
 10
1259.233154
 20
145.800034
 11
1270.833130
 21
134.200043
  0
CIRCLE
  8
SCHRAUBEN
 62
2
 10
1265.033081
 20
140.000031
 40
14.500000
  0
LINE
  8
SCHRAUBEN
 62
6
 10
1270.833130
 20
70.800034
 11
1259.233154
 21
59.200039
  0
LINE
  8
SCHRAUBEN
 62
6
 10
1259.233154
 20
70.800034
 11
1270.833130
 21
59.200039
  0
CIRCLE
  8
SCHRAUBEN
 62
2
 10
1265.033081
 20
65.000038
 40
14.500000
  0
LINE
  8
SCHRAUBEN
 62
6
 10
1270.833130
 20
-59.199963
 11
1259.233154
 21
-70.799957
  0
LINE
  8
SCHRAUBEN
 62
6
 10
1259.233154
 20
-59.199963
 11
1270.833130
 21
-70.799957
  0
CIRCLE
  8
SCHRAUBEN
 62
2
 10
1265.033081
 20
-64.999962
 40
14.500000
  0
LINE
  8
SCHRAUBEN
 62
6
 10
1270.833130
 20
-134.199966
 11
1259.233154
 21
-145.799957
  0
LINE
  8
SCHRAUBEN
 62
6
 10
1259.233154
 20
-134.199966
 11
1270.833130
 21
-145.799957
  0
CIRCLE
  8
SCHRAUBEN
 62
2
 10
1265.033081
 20
-139.999969
 40
14.500000
  0
LINE
  8
SCHRAUBEN
 62
6
 10
1098.333130
 20
-134.199966
 11
1086.733154
 21
-145.799957
  0
LINE
  8
SCHRAUBEN
 62
6
 10
1086.733154
 20
-134.199966
 11
1098.333130
 21
-145.799957
  0
CIRCLE
  8
SCHRAUBEN
 62
2
 10
1092.533081
 20
-139.999969
 40
14.500000
  0
LINE
  8
SCHRAUBEN
 62
6
 10
1098.333130
 20
-59.199963
 11
1086.733154
 21
-70.799957
  0
LINE
  8
SCHRAUBEN
 62
6
 10
1086.733154
 20
-59.199963
 11
1098.333130
 21
-70.799957
  0
CIRCLE
  8
SCHRAUBEN
 62
2
 10
1092.533081
 20
-64.999962
 40
14.500000
  0
LINE
  8
SCHRAUBEN
 62
6
 10
1098.333130
 20
70.800034
 11
1086.733154
 21
59.200039
  0
LINE
  8
SCHRAUBEN
 62
6
 10
1086.733154
 20
70.800034
 11
1098.333130
 21
59.200039
  0
CIRCLE
  8
SCHRAUBEN
 62
2
 10
1092.533081
 20
65.000038
 40
14.500000
  0
LINE
  8
SCHRAUBEN
 62
6
 10
1098.333130
 20
145.800034
 11
1086.733154
 21
134.200043
  0
LINE
  8
SCHRAUBEN
 62
6
 10
1086.733154
 20
145.800034
 11
1098.333130
 21
134.200043
  0
CIRCLE
  8
SCHRAUBEN
 62
2
 10
1092.533081
 20
140.000031
 40
14.500000
  0
LINE
  8
SCHRAUBEN
 62
6
 10
925.833130
 20
70.800034
 11
914.233093
 21
59.200039
  0
LINE
  8
SCHRAUBEN
 62
6
 10
914.233093
 20
70.800034
 11
925.833130
 21
59.200039
  0
CIRCLE
  8
SCHRAUBEN
 62
2
 10
920.033081
 20
65.000038
 40
14.500000
  0
LINE
  8
SCHRAUBEN
 62
6
 10
925.833130
 20
-59.199963
 11
914.233093
 21
-70.799957
  0
LINE
  8
SCHRAUBEN
 62
6
 10
914.233093
 20
-59.199963
 11
925.833130
 21
-70.799957
  0
CIRCLE
  8
SCHRAUBEN
 62
2
 10
920.033081
 20
-64.999962
 40
14.500000
  0
LINE
  8
SCHRAUBEN
 62
6
 10
1390.833130
 20
-59.199963
 11
1379.233154
 21
-70.799957
  0
LINE
  8
SCHRAUBEN
 62
6
 10
1379.233154
 20
-59.199963
 11
1390.833130
 21
-70.799957
  0
CIRCLE
  8
SCHRAUBEN
 62
2
 10
1385.033081
 20
-64.999962
 40
14.500000
  0
LINE
  8
SCHRAUBEN
 62
6
 10
1390.833130
 20
70.800034
 11
1379.233154
 21
59.200039
  0
LINE
  8
SCHRAUBEN
 62
6
 10
1379.233154
 20
70.800034
 11
1390.833130
 21
59.200039
  0
CIRCLE
  8
SCHRAUBEN
 62
2
 10
1385.033081
 20
65.000038
 40
14.500000
  0
LINE
  8
SCHRAUBEN
 62
6
 10
1460.833130
 20
70.800034
 11
1449.233154
 21
59.200039
  0
LINE
  8
SCHRAUBEN
 62
6
 10
1449.233154
 20
70.800034
 11
1460.833130
 21
59.200039
  0
CIRCLE
  8
SCHRAUBEN
 62
2
 10
1455.033081
 20
65.000038
 40
14.500000
  0
LINE
  8
SCHRAUBEN
 62
6
 10
1460.833130
 20
-59.199963
 11
1449.233154
 21
-70.799957
  0
LINE
  8
SCHRAUBEN
 62
6
 10
1449.233154
 20
-59.199963
 11
1460.833130
 21
-70.799957
  0
CIRCLE
  8
SCHRAUBEN
 62
2
 10
1455.033081
 20
-64.999962
 40
14.500000
  0
LINE
  8
SCHRAUBEN
 62
6
 10
1925.832642
 20
-59.199959
 11
1914.232666
 21
-70.799957
  0
LINE
  8
SCHRAUBEN
 62
6
 10
1914.232666
 20
-59.199959
 11
1925.832642
 21
-70.799957
  0
CIRCLE
  8
SCHRAUBEN
 62
2
 10
1920.032715
 20
-64.999954
 40
14.499878
  0
LINE
  8
SCHRAUBEN
 62
6
 10
1925.832642
 20
70.800034
 11
1914.232666
 21
59.200035
  0
LINE
  8
SCHRAUBEN
 62
6
 10
1914.232666
 20
70.800034
 11
1925.832642
 21
59.200035
  0
CIRCLE
  8
SCHRAUBEN
 62
2
 10
1920.032715
 20
65.000031
 40
14.499878
  0
LINE
  8
SCHRAUBEN
 62
6
 10
2513.227539
 20
-59.799973
 11
2502.827393
 21
-70.199974
  0
LINE
  8
SCHRAUBEN
 62
6
 10
2502.827393
 20
-59.799973
 11
2513.227539
 21
-70.199974
  0
CIRCLE
  8
SCHRAUBEN
 62
2
 10
2508.027588
 20
-64.999969
 40
13.000000
  0
LINE
  8
SCHRAUBEN
 62
6
 10
2413.227539
 20
-59.799973
 11
2402.827393
 21
-70.199974
  0
LINE
  8
SCHRAUBEN
 62
6
 10
2402.827393
 20
-59.799973
 11
2413.227539
 21
-70.199974
  0
CIRCLE
  8
SCHRAUBEN
 62
2
 10
2408.027588
 20
-64.999969
 40
13.000000
  0
LINE
  8
SCHRAUBEN
 62
6
 10
2413.227539
 20
70.200035
 11
2402.827393
 21
59.800037
  0
LINE
  8
SCHRAUBEN
 62
6
 10
2402.827393
 20
70.200035
 11
2413.227539
 21
59.800037
  0
CIRCLE
  8
SCHRAUBEN
 62
2
 10
2408.027588
 20
65.000038
 40
13.000000
  0
LINE
  8
SCHRAUBEN
 62
6
 10
2513.227539
 20
70.200035
 11
2502.827393
 21
59.800037
  0
LINE
  8
SCHRAUBEN
 62
6
 10
2502.827393
 20
70.200035
 11
2513.227539
 21
59.800037
  0
CIRCLE
  8
SCHRAUBEN
 62
2
 10
2508.027588
 20
65.000038
 40
13.000000
  0
TEXT
 8
UNTERSCHRIFT
 62
2
 10
1213.515869
 20
-198.000000
 40
3.250000
 41
0.800000
 51
15.000000
  1
Project  DP0GN9  ,Qty. 5  , Pos. 
  0
TEXT
 8
UNTERSCHRIFT
 62
2
 10
1312.315918
 20
-198.000000
 40
3.250000
 41
0.800000
 51
15.000000
  1
  , Profi l PL400*20
  0
TEXT
 8
UNTERSCHRIFT
 62
2
 10
1299.315918
 20
-198.000000
 40
3.250000
 41
0.800000
 51
15.000000
  1
20639
  0
LINE
  8
TEILE
 62
2
 10
-0.000000
 20
-200.000000
 11
-0.000000
 21
200.000000
  0
LINE
  8
TEILE
 62
2
 10
-0.000000
 20
200.000000
 11
2583.031982
 21
200.000000
  0
LINE
  8
TEILE
 62
2
 10
2583.031982
 20
200.000000
 11
2583.031982
 21
-200.000000
  0
LINE
  8
TEILE
 62
2
 10
2583.031982
 20
-200.000000
 11
-0.000000
 21
-200.000000
  0
TEXT
 8
BEZ_SCHRAUBEN
 62
2
 10
145.001007
 20
-120.500015
 40
5.000000
 41
0.800000
 51
15.000000
  1
 ø26
  0
TEXT
 8
BEZ_SCHRAUBEN
 62
2
 10
415.001038
 20
-120.500015
 40
5.000000
 41
0.800000
 51
15.000000
  1
 ø26
  0
TEXT
 8
BEZ_SCHRAUBEN
 62
2
 10
415.001038
 20
79.500000
 40
5.000000
 41
0.800000
 51
15.000000
  1
 ø26
  0
TEXT
 8
BEZ_SCHRAUBEN
 62
2
 10
145.001007
 20
79.500000
 40
5.000000
 41
0.800000
 51
15.000000
  1
 ø26
  0
TEXT
 8
BEZ_SCHRAUBEN
 62
2
 10
1739.533081
 20
118.000031
 40
5.000000
 41
0.800000
 51
15.000000
  1
 ø29
  0
TEXT
 8
BEZ_SCHRAUBEN
 62
2
 10
1739.533081
 20
43.000034
 40
5.000000
 41
0.800000
 51
15.000000
  1
 ø29
  0
TEXT
 8
BEZ_SCHRAUBEN
 62
2
 10
1739.533081
 20
-86.999962
 40
5.000000
 41
0.800000
 51
15.000000
  1
 ø29
  0
TEXT
 8
BEZ_SCHRAUBEN
 62
2
 10
1739.533081
 20
-161.999954
 40
5.000000
 41
0.800000
 51
15.000000
  1
 ø29
  0
TEXT
 8
BEZ_SCHRAUBEN
 62
2
 10
1567.033081
 20
-86.999962
 40
5.000000
 41
0.800000
 51
15.000000
  1
 ø29
  0
TEXT
 8
BEZ_SCHRAUBEN
 62
2
 10
1567.033081
 20
-161.999969
 40
5.000000
 41
0.800000
 51
15.000000
  1
 ø29
  0
TEXT
 8
BEZ_SCHRAUBEN
 62
2
 10
1567.033081
 20
43.000038
 40
5.000000
 41
0.800000
 51
15.000000
  1
 ø29
  0
TEXT
 8
BEZ_SCHRAUBEN
 62
2
 10
1567.033081
 20
118.000031
 40
5.000000
 41
0.800000
 51
15.000000
  1
 ø29
  0
TEXT
 8
BEZ_SCHRAUBEN
 62
2
 10
1257.033081
 20
118.000031
 40
5.000000
 41
0.800000
 51
15.000000
  1
 ø29
  0
TEXT
 8
BEZ_SCHRAUBEN
 62
2
 10
1257.033081
 20
43.000038
 40
5.000000
 41
0.800000
 51
15.000000
  1
 ø29
  0
TEXT
 8
BEZ_SCHRAUBEN
 62
2
 10
1257.033081
 20
-86.999962
 40
5.000000
 41
0.800000
 51
15.000000
  1
 ø29
  0
TEXT
 8
BEZ_SCHRAUBEN
 62
2
 10
1257.033081
 20
-161.999969
 40
5.000000
 41
0.800000
 51
15.000000
  1
 ø29
  0
TEXT
 8
BEZ_SCHRAUBEN
 62
2
 10
1084.533081
 20
-161.999969
 40
5.000000
 41
0.800000
 51
15.000000
  1
 ø29
  0
TEXT
 8
BEZ_SCHRAUBEN
 62
2
 10
1084.533081
 20
-86.999962
 40
5.000000
 41
0.800000
 51
15.000000
  1
 ø29
  0
TEXT
 8
BEZ_SCHRAUBEN
 62
2
 10
1084.533081
 20
43.000038
 40
5.000000
 41
0.800000
 51
15.000000
  1
 ø29
  0
TEXT
 8
BEZ_SCHRAUBEN
 62
2
 10
1084.533081
 20
118.000031
 40
5.000000
 41
0.800000
 51
15.000000
  1
 ø29
  0
TEXT
 8
BEZ_SCHRAUBEN
 62
2
 10
912.033081
 20
43.000038
 40
5.000000
 41
0.800000
 51
15.000000
  1
 ø29
  0
TEXT
 8
BEZ_SCHRAUBEN
 62
2
 10
912.033081
 20
-86.999962
 40
5.000000
 41
0.800000
 51
15.000000
  1
 ø29
  0
TEXT
 8
BEZ_SCHRAUBEN
 62
2
 10
1377.033081
 20
-86.999962
 40
5.000000
 41
0.800000
 51
15.000000
  1
 ø29
  0
TEXT
 8
BEZ_SCHRAUBEN
 62
2
 10
1377.033081
 20
43.000038
 40
5.000000
 41
0.800000
 51
15.000000
  1
 ø29
  0
TEXT
 8
BEZ_SCHRAUBEN
 62
2
 10
1447.033081
 20
43.000038
 40
5.000000
 41
0.800000
 51
15.000000
  1
 ø29
  0
TEXT
 8
BEZ_SCHRAUBEN
 62
2
 10
1447.033081
 20
-86.999962
 40
5.000000
 41
0.800000
 51
15.000000
  1
 ø29
  0
TEXT
 8
BEZ_SCHRAUBEN
 62
2
 10
1912.032593
 20
-86.999962
 40
5.000000
 41
0.800000
 51
15.000000
  1
 ø29
  0
TEXT
 8
BEZ_SCHRAUBEN
 62
2
 10
1912.032593
 20
43.000034
 40
5.000000
 41
0.800000
 51
15.000000
  1
 ø29
  0
TEXT
 8
BEZ_SCHRAUBEN
 62
2
 10
2500.027344
 20
-85.499969
 40
5.000000
 41
0.800000
 51
15.000000
  1
 ø26
  0
TEXT
 8
BEZ_SCHRAUBEN
 62
2
 10
2400.027344
 20
-85.499969
 40
5.000000
 41
0.800000
 51
15.000000
  1
 ø26
  0
TEXT
 8
BEZ_SCHRAUBEN
 62
2
 10
2400.027344
 20
44.500038
 40
5.000000
 41
0.800000
 51
15.000000
  1
 ø26
  0
TEXT
 8
BEZ_SCHRAUBEN
 62
2
 10
2500.027344
 20
44.500038
 40
5.000000
 41
0.800000
 51
15.000000
  1
 ø26
  0
ENDSEC
  0
EOF

