999
     *******************************************
999
     BOCAD Software GmbH   Rev.18.000   0202.22
999
     Filename:   c:\progetti21\danieli_aqs\b4\temp_11\20640.dxf
999
     Creator:    bocad
999
     Date:       20.01.2016
999
     Factor:     10.000000
999
     *******************************************
  0
SECTION
  2
HEADER
  9
$DWGCODEPAGE
  3
ANSI_1252
  9
$INSBASE
 10
0.0
 20
0.0
 30
0.0
  9
$EXTMIN
 10
-0.499945
 20
-200.499992
  9
$EXTMAX
 10
2480.523529
 20
200.499992
  9
$LIMMIN
 10
-1.499945
 20
-201.499992
  9
$LIMMAX
 10
2481.523529
 20
201.499992
  9
$LTSCALE
 40
10.000000
  0
ENDSEC
  0
SECTION
  2
TABLES
  0
TABLE
  2
LTYPE
 70
4
  0
LTYPE
  2
CONTINUOUS
 70
64
  3
____________________________________________
 72
65
 73
0
 40
0.0
  0
LTYPE
  2
HIDDEN
 70
64
  3
__ __ __ __ __ __ __ __ __ __ __ __ __ __ __
 72
65
 73
2
 40
0.50
 49
0.30
 49
-0.20
  0
LTYPE
  2
DASHDOT
 70
64
  3
____ _ ____ _ ____ _ ____ _ ____ _ ____ _ __
 72
65
 73
4
 40
2.0
 49
1.5
 49
-0.25
 49
0
 49
-0.25
  0
LTYPE
  2
DOT
 70
64
  3
............................................
 72
65
 73
2
 40
0.30
 49
0
 49
-0.30
  0
ENDTAB
  0
TABLE
  2
LAYER
 70
23
  0
LAYER
  2
SCHRAUBEN
 70
64
 62
7
  6
CONTINUOUS
  0
LAYER
  2
REST
 70
64
 62
7
  6
CONTINUOUS
  0
LAYER
  2
UNTERSCHRIFT
 70
64
 62
7
  6
CONTINUOUS
  0
LAYER
  2
TEILE
 70
64
 62
7
  6
CONTINUOUS
  0
LAYER
  2
BEZ_SCHRAUBEN
 70
64
 62
7
  6
CONTINUOUS
  0
LAYER
  2
MARKERPUNKTE
 70
64
 62
7
  6
CONTINUOUS
  0
LAYER
  2
HILFSPUNKTE
 70
64
 62
7
  6
CONTINUOUS
  0
LAYER
  2
PICKPUNKTE
 70
64
 62
7
  6
CONTINUOUS
  0
LAYER
  2
SCHWEISSEN
 70
64
 62
7
  6
CONTINUOUS
  0
LAYER
  2
GRAFIK
 70
64
 62
7
  6
CONTINUOUS
  0
LAYER
  2
BEM_FREI
 70
64
 62
7
  6
CONTINUOUS
  0
LAYER
  2
BEM_SYSTEM
 70
64
 62
7
  6
CONTINUOUS
  0
LAYER
  2
BEM_KONTUR
 70
64
 62
7
  6
CONTINUOUS
  0
LAYER
  2
BEM_ANBAU
 70
64
 62
7
  6
CONTINUOUS
  0
LAYER
  2
BEM_SCHRAUBEN
 70
64
 62
7
  6
CONTINUOUS
  0
LAYER
  2
BEM_SCHWEISSEN
 70
64
 62
7
  6
CONTINUOUS
  0
LAYER
  2
FREIER_TEXT
 70
64
 62
7
  6
CONTINUOUS
  0
LAYER
  2
BEZ_TEILE
 70
64
 62
7
  6
CONTINUOUS
  0
LAYER
  2
BEZ_SCHWEISSEN
 70
64
 62
7
  6
CONTINUOUS
  0
LAYER
  2
SCHRAFFUREN
 70
64
 62
7
  6
CONTINUOUS
  0
LAYER
  2
SCHNITTSYMBOL
 70
64
 62
7
  6
CONTINUOUS
  0
LAYER
  2
RASTER
 70
64
 62
7
  6
CONTINUOUS
  0
LAYER
  2
LISTEN
 70
64
 62
7
  6
CONTINUOUS
  0
LAYER
  2
RAHMEN
 70
64
 62
7
  6
CONTINUOUS
  0
ENDTAB
  0
TABLE
  2
STYLE
 70
1
  0
STYLE
  2
STANDARD
 70
64
 40
0
 41
1
 50
0.0
 71
0
 42
0.35
  3
ROMANS
  0
ENDTAB
  0
ENDSEC
  0
SECTION
  2
ENTITIES
  0
LINE
  8
SCHRAUBEN
 62
6
 10
365.199524
 20
-74.798798
 11
354.799500
 21
-85.198792
  0
LINE
  8
SCHRAUBEN
 62
6
 10
354.799500
 20
-74.798798
 11
365.199524
 21
-85.198792
  0
CIRCLE
  8
SCHRAUBEN
 62
2
 10
359.999512
 20
-79.998795
 40
13.000000
  0
LINE
  8
SCHRAUBEN
 62
6
 10
285.199493
 20
-74.798798
 11
274.799469
 21
-85.198792
  0
LINE
  8
SCHRAUBEN
 62
6
 10
274.799469
 20
-74.798798
 11
285.199493
 21
-85.198792
  0
CIRCLE
  8
SCHRAUBEN
 62
2
 10
279.999481
 20
-79.998795
 40
13.000000
  0
LINE
  8
SCHRAUBEN
 62
6
 10
285.199493
 20
85.201218
 11
274.799469
 21
74.801208
  0
LINE
  8
SCHRAUBEN
 62
6
 10
274.799469
 20
85.201218
 11
285.199493
 21
74.801208
  0
CIRCLE
  8
SCHRAUBEN
 62
2
 10
279.999481
 20
80.001213
 40
13.000000
  0
LINE
  8
SCHRAUBEN
 62
6
 10
365.199524
 20
85.201218
 11
354.799500
 21
74.801208
  0
LINE
  8
SCHRAUBEN
 62
6
 10
354.799500
 20
85.201218
 11
365.199524
 21
74.801208
  0
CIRCLE
  8
SCHRAUBEN
 62
2
 10
359.999512
 20
80.001213
 40
13.000000
  0
LINE
  8
SCHRAUBEN
 62
6
 10
145.199493
 20
85.201218
 11
134.799484
 21
74.801208
  0
LINE
  8
SCHRAUBEN
 62
6
 10
134.799484
 20
85.201218
 11
145.199493
 21
74.801208
  0
CIRCLE
  8
SCHRAUBEN
 62
2
 10
139.999481
 20
80.001213
 40
13.000000
  0
LINE
  8
SCHRAUBEN
 62
6
 10
65.199493
 20
85.201218
 11
54.799492
 21
74.801208
  0
LINE
  8
SCHRAUBEN
 62
6
 10
54.799492
 20
85.201218
 11
65.199493
 21
74.801208
  0
CIRCLE
  8
SCHRAUBEN
 62
2
 10
59.999489
 20
80.001213
 40
13.000000
  0
LINE
  8
SCHRAUBEN
 62
6
 10
65.199493
 20
-74.798798
 11
54.799492
 21
-85.198792
  0
LINE
  8
SCHRAUBEN
 62
6
 10
54.799492
 20
-74.798798
 11
65.199493
 21
-85.198792
  0
CIRCLE
  8
SCHRAUBEN
 62
2
 10
59.999489
 20
-79.998795
 40
13.000000
  0
LINE
  8
SCHRAUBEN
 62
6
 10
145.199493
 20
-74.798798
 11
134.799484
 21
-85.198792
  0
LINE
  8
SCHRAUBEN
 62
6
 10
134.799484
 20
-74.798798
 11
145.199493
 21
-85.198792
  0
CIRCLE
  8
SCHRAUBEN
 62
2
 10
139.999481
 20
-79.998795
 40
13.000000
  0
LINE
  8
SCHRAUBEN
 62
6
 10
2365.199707
 20
-74.798798
 11
2354.799561
 21
-85.198792
  0
LINE
  8
SCHRAUBEN
 62
6
 10
2354.799561
 20
-74.798798
 11
2365.199707
 21
-85.198792
  0
CIRCLE
  8
SCHRAUBEN
 62
2
 10
2359.999512
 20
-79.998795
 40
13.000000
  0
LINE
  8
SCHRAUBEN
 62
6
 10
2285.199707
 20
-74.798798
 11
2274.799561
 21
-85.198792
  0
LINE
  8
SCHRAUBEN
 62
6
 10
2274.799561
 20
-74.798798
 11
2285.199707
 21
-85.198792
  0
CIRCLE
  8
SCHRAUBEN
 62
2
 10
2279.999512
 20
-79.998795
 40
13.000000
  0
LINE
  8
SCHRAUBEN
 62
6
 10
2285.199707
 20
85.201218
 11
2274.799561
 21
74.801208
  0
LINE
  8
SCHRAUBEN
 62
6
 10
2274.799561
 20
85.201218
 11
2285.199707
 21
74.801208
  0
CIRCLE
  8
SCHRAUBEN
 62
2
 10
2279.999512
 20
80.001213
 40
13.000000
  0
LINE
  8
SCHRAUBEN
 62
6
 10
2365.199707
 20
85.201218
 11
2354.799561
 21
74.801208
  0
LINE
  8
SCHRAUBEN
 62
6
 10
2354.799561
 20
85.201218
 11
2365.199707
 21
74.801208
  0
CIRCLE
  8
SCHRAUBEN
 62
2
 10
2359.999512
 20
80.001213
 40
13.000000
  0
LINE
  8
SCHRAUBEN
 62
6
 10
2145.199707
 20
85.201218
 11
2134.799561
 21
74.801208
  0
LINE
  8
SCHRAUBEN
 62
6
 10
2134.799561
 20
85.201218
 11
2145.199707
 21
74.801208
  0
CIRCLE
  8
SCHRAUBEN
 62
2
 10
2139.999512
 20
80.001213
 40
13.000000
  0
LINE
  8
SCHRAUBEN
 62
6
 10
2065.199707
 20
85.201218
 11
2054.799561
 21
74.801208
  0
LINE
  8
SCHRAUBEN
 62
6
 10
2054.799561
 20
85.201218
 11
2065.199707
 21
74.801208
  0
CIRCLE
  8
SCHRAUBEN
 62
2
 10
2059.999512
 20
80.001213
 40
13.000000
  0
LINE
  8
SCHRAUBEN
 62
6
 10
2065.199707
 20
-74.798798
 11
2054.799561
 21
-85.198792
  0
LINE
  8
SCHRAUBEN
 62
6
 10
2054.799561
 20
-74.798798
 11
2065.199707
 21
-85.198792
  0
CIRCLE
  8
SCHRAUBEN
 62
2
 10
2059.999512
 20
-79.998795
 40
13.000000
  0
LINE
  8
SCHRAUBEN
 62
6
 10
2145.199707
 20
-74.798798
 11
2134.799561
 21
-85.198792
  0
LINE
  8
SCHRAUBEN
 62
6
 10
2134.799561
 20
-74.798798
 11
2145.199707
 21
-85.198792
  0
CIRCLE
  8
SCHRAUBEN
 62
2
 10
2139.999512
 20
-79.998795
 40
13.000000
  0
LINE
  8
SCHRAUBEN
 62
6
 10
2065.223145
 20
-74.799934
 11
2054.822998
 21
-85.199936
  0
LINE
  8
SCHRAUBEN
 62
6
 10
2054.822998
 20
-74.799934
 11
2065.223145
 21
-85.199936
  0
CIRCLE
  8
SCHRAUBEN
 62
2
 10
2060.022949
 20
-79.999931
 40
13.000000
  0
LINE
  8
SCHRAUBEN
 62
6
 10
2145.223145
 20
-74.799934
 11
2134.822998
 21
-85.199936
  0
LINE
  8
SCHRAUBEN
 62
6
 10
2134.822998
 20
-74.799934
 11
2145.223145
 21
-85.199936
  0
CIRCLE
  8
SCHRAUBEN
 62
2
 10
2140.022949
 20
-79.999931
 40
13.000000
  0
LINE
  8
SCHRAUBEN
 62
6
 10
2145.223145
 20
85.200073
 11
2134.822998
 21
74.800064
  0
LINE
  8
SCHRAUBEN
 62
6
 10
2134.822998
 20
85.200073
 11
2145.223145
 21
74.800064
  0
CIRCLE
  8
SCHRAUBEN
 62
2
 10
2140.022949
 20
80.000069
 40
13.000000
  0
LINE
  8
SCHRAUBEN
 62
6
 10
2065.223145
 20
85.200073
 11
2054.822998
 21
74.800064
  0
LINE
  8
SCHRAUBEN
 62
6
 10
2054.822998
 20
85.200073
 11
2065.223145
 21
74.800064
  0
CIRCLE
  8
SCHRAUBEN
 62
2
 10
2060.022949
 20
80.000069
 40
13.000000
  0
LINE
  8
SCHRAUBEN
 62
6
 10
2285.223145
 20
85.200073
 11
2274.822998
 21
74.800064
  0
LINE
  8
SCHRAUBEN
 62
6
 10
2274.822998
 20
85.200073
 11
2285.223145
 21
74.800064
  0
CIRCLE
  8
SCHRAUBEN
 62
2
 10
2280.022949
 20
80.000069
 40
13.000000
  0
LINE
  8
SCHRAUBEN
 62
6
 10
2365.223145
 20
85.200073
 11
2354.822998
 21
74.800064
  0
LINE
  8
SCHRAUBEN
 62
6
 10
2354.822998
 20
85.200073
 11
2365.223145
 21
74.800064
  0
CIRCLE
  8
SCHRAUBEN
 62
2
 10
2360.022949
 20
80.000069
 40
13.000000
  0
LINE
  8
SCHRAUBEN
 62
6
 10
2365.223145
 20
-74.799934
 11
2354.822998
 21
-85.199936
  0
LINE
  8
SCHRAUBEN
 62
6
 10
2354.822998
 20
-74.799934
 11
2365.223145
 21
-85.199936
  0
CIRCLE
  8
SCHRAUBEN
 62
2
 10
2360.022949
 20
-79.999931
 40
13.000000
  0
LINE
  8
SCHRAUBEN
 62
6
 10
2285.223145
 20
-74.799934
 11
2274.822998
 21
-85.199936
  0
LINE
  8
SCHRAUBEN
 62
6
 10
2274.822998
 20
-74.799934
 11
2285.223145
 21
-85.199936
  0
CIRCLE
  8
SCHRAUBEN
 62
2
 10
2280.022949
 20
-79.999931
 40
13.000000
  0
TEXT
 8
UNTERSCHRIFT
 62
2
 10
2478.023438
 20
-78.000000
 40
3.250000
 50
90.000000
 41
0.800000
 51
15.000000
  1
Project  DP0GN9  ,Qty. 5  , Pos. 
  0
TEXT
 8
UNTERSCHRIFT
 62
2
 10
2478.023438
 20
20.800001
 40
3.250000
 50
90.000000
 41
0.800000
 51
15.000000
  1
  , Profi l PL400*20
  0
TEXT
 8
UNTERSCHRIFT
 62
2
 10
2478.023438
 20
7.800001
 40
3.250000
 50
90.000000
 41
0.800000
 51
15.000000
  1
20640
  0
LINE
  8
TEILE
 62
2
 10
2480.023438
 20
-200.000000
 11
0.000056
 21
-200.000000
  0
LINE
  8
TEILE
 62
2
 10
0.000056
 20
-200.000000
 11
0.000056
 21
200.000000
  0
LINE
  8
TEILE
 62
2
 10
0.000056
 20
200.000000
 11
2480.023438
 21
200.000000
  0
LINE
  8
TEILE
 62
2
 10
2480.023438
 20
200.000000
 11
2480.023438
 21
-200.000000
  0
TEXT
 8
BEZ_SCHRAUBEN
 62
2
 10
351.999512
 20
-100.498795
 40
5.000000
 41
0.800000
 51
15.000000
  1
 ø26
  0
ENDSEC
  0
EOF

