999
     *******************************************
999
     BOCAD Software GmbH   Rev.18.000   0202.22
999
     Filename:   c:\progetti21\danieli_aqs\b4\temp_11\20643.dxf
999
     Creator:    bocad
999
     Date:       20.01.2016
999
     Factor:     10.000000
999
     *******************************************
  0
SECTION
  2
HEADER
  9
$DWGCODEPAGE
  3
ANSI_1252
  9
$INSBASE
 10
0.0
 20
0.0
 30
0.0
  9
$EXTMIN
 10
-0.500000
 20
-95.503082
  9
$EXTMAX
 10
430.363770
 20
95.503082
  9
$LIMMIN
 10
-1.500000
 20
-96.503082
  9
$LIMMAX
 10
431.363770
 20
96.503082
  9
$LTSCALE
 40
10.000000
  0
ENDSEC
  0
SECTION
  2
TABLES
  0
TABLE
  2
LTYPE
 70
4
  0
LTYPE
  2
CONTINUOUS
 70
64
  3
____________________________________________
 72
65
 73
0
 40
0.0
  0
LTYPE
  2
HIDDEN
 70
64
  3
__ __ __ __ __ __ __ __ __ __ __ __ __ __ __
 72
65
 73
2
 40
0.50
 49
0.30
 49
-0.20
  0
LTYPE
  2
DASHDOT
 70
64
  3
____ _ ____ _ ____ _ ____ _ ____ _ ____ _ __
 72
65
 73
4
 40
2.0
 49
1.5
 49
-0.25
 49
0
 49
-0.25
  0
LTYPE
  2
DOT
 70
64
  3
............................................
 72
65
 73
2
 40
0.30
 49
0
 49
-0.30
  0
ENDTAB
  0
TABLE
  2
LAYER
 70
23
  0
LAYER
  2
UNTERSCHRIFT
 70
64
 62
7
  6
CONTINUOUS
  0
LAYER
  2
TEILE
 70
64
 62
7
  6
CONTINUOUS
  0
LAYER
  2
REST
 70
64
 62
7
  6
CONTINUOUS
  0
LAYER
  2
MARKERPUNKTE
 70
64
 62
7
  6
CONTINUOUS
  0
LAYER
  2
HILFSPUNKTE
 70
64
 62
7
  6
CONTINUOUS
  0
LAYER
  2
PICKPUNKTE
 70
64
 62
7
  6
CONTINUOUS
  0
LAYER
  2
SCHRAUBEN
 70
64
 62
7
  6
CONTINUOUS
  0
LAYER
  2
SCHWEISSEN
 70
64
 62
7
  6
CONTINUOUS
  0
LAYER
  2
GRAFIK
 70
64
 62
7
  6
CONTINUOUS
  0
LAYER
  2
BEM_FREI
 70
64
 62
7
  6
CONTINUOUS
  0
LAYER
  2
BEM_SYSTEM
 70
64
 62
7
  6
CONTINUOUS
  0
LAYER
  2
BEM_KONTUR
 70
64
 62
7
  6
CONTINUOUS
  0
LAYER
  2
BEM_ANBAU
 70
64
 62
7
  6
CONTINUOUS
  0
LAYER
  2
BEM_SCHRAUBEN
 70
64
 62
7
  6
CONTINUOUS
  0
LAYER
  2
BEM_SCHWEISSEN
 70
64
 62
7
  6
CONTINUOUS
  0
LAYER
  2
FREIER_TEXT
 70
64
 62
7
  6
CONTINUOUS
  0
LAYER
  2
BEZ_TEILE
 70
64
 62
7
  6
CONTINUOUS
  0
LAYER
  2
BEZ_SCHRAUBEN
 70
64
 62
7
  6
CONTINUOUS
  0
LAYER
  2
BEZ_SCHWEISSEN
 70
64
 62
7
  6
CONTINUOUS
  0
LAYER
  2
SCHRAFFUREN
 70
64
 62
7
  6
CONTINUOUS
  0
LAYER
  2
SCHNITTSYMBOL
 70
64
 62
7
  6
CONTINUOUS
  0
LAYER
  2
RASTER
 70
64
 62
7
  6
CONTINUOUS
  0
LAYER
  2
LISTEN
 70
64
 62
7
  6
CONTINUOUS
  0
LAYER
  2
RAHMEN
 70
64
 62
7
  6
CONTINUOUS
  0
ENDTAB
  0
TABLE
  2
STYLE
 70
1
  0
STYLE
  2
STANDARD
 70
64
 40
0
 41
1
 50
0.0
 71
0
 42
0.35
  3
ROMANS
  0
ENDTAB
  0
ENDSEC
  0
SECTION
  2
ENTITIES
  0
TEXT
 8
UNTERSCHRIFT
 62
2
 10
135.631882
 20
89.753075
 40
3.250000
 41
0.800000
 51
15.000000
  1
Project  DP0GN9  ,Qty. 10  , Pos. 
  0
TEXT
 8
UNTERSCHRIFT
 62
2
 10
237.031860
 20
89.753067
 40
3.250000
 41
0.800000
 51
15.000000
  1
  , Profi l PL190*20
  0
TEXT
 8
UNTERSCHRIFT
 62
2
 10
224.031860
 20
89.753067
 40
3.250000
 41
0.800000
 51
15.000000
  1
20643
  0
LINE
  8
TEILE
 62
2
 10
429.863739
 20
65.003052
 11
429.863739
 21
-95.003082
  0
LINE
  8
TEILE
 62
2
 10
429.863739
 20
-95.003082
 11
0.000000
 21
-95.003052
  0
LINE
  8
TEILE
 62
2
 10
0.000000
 20
-95.003052
 11
0.000000
 21
65.003075
  0
LINE
  8
TEILE
 62
2
 10
0.000000
 20
65.003075
 11
0.856683
 21
65.015312
  0
LINE
  8
TEILE
 62
2
 10
0.856683
 20
65.015312
 11
1.712665
 21
65.052002
  0
LINE
  8
TEILE
 62
2
 10
1.712665
 20
65.052002
 11
2.567251
 21
65.113129
  0
LINE
  8
TEILE
 62
2
 10
2.567251
 20
65.113129
 11
3.419743
 21
65.198624
  0
LINE
  8
TEILE
 62
2
 10
3.419743
 20
65.198624
 11
4.269445
 21
65.308434
  0
LINE
  8
TEILE
 62
2
 10
4.269445
 20
65.308434
 11
5.115666
 21
65.442459
  0
LINE
  8
TEILE
 62
2
 10
5.115666
 20
65.442459
 11
5.957714
 21
65.600601
  0
LINE
  8
TEILE
 62
2
 10
5.957714
 20
65.600601
 11
6.794903
 21
65.782715
  0
LINE
  8
TEILE
 62
2
 10
6.794903
 20
65.782715
 11
7.626550
 21
65.988670
  0
LINE
  8
TEILE
 62
2
 10
7.626550
 20
65.988670
 11
8.451977
 21
66.218285
  0
LINE
  8
TEILE
 62
2
 10
8.451977
 20
66.218285
 11
8.451977
 21
66.218285
  0
LINE
  8
TEILE
 62
2
 10
8.451977
 20
66.218285
 11
12.462450
 21
67.714111
  0
LINE
  8
TEILE
 62
2
 10
12.462450
 20
67.714111
 11
14.000019
 21
68.470085
  0
LINE
  8
TEILE
 62
2
 10
14.000019
 20
68.470085
 11
15.491922
 21
69.312607
  0
LINE
  8
TEILE
 62
2
 10
15.491922
 20
69.312607
 11
16.933292
 21
70.238922
  0
LINE
  8
TEILE
 62
2
 10
16.933292
 20
70.238922
 11
18.319431
 21
71.246017
  0
LINE
  8
TEILE
 62
2
 10
18.319431
 20
71.246017
 11
19.645815
 21
72.330597
  0
LINE
  8
TEILE
 62
2
 10
19.645815
 20
72.330597
 11
20.908119
 21
73.489128
  0
LINE
  8
TEILE
 62
2
 10
20.908119
 20
73.489128
 11
22.102226
 21
74.717834
  0
LINE
  8
TEILE
 62
2
 10
22.102226
 20
74.717834
 11
23.224241
 21
76.012711
  0
LINE
  8
TEILE
 62
2
 10
23.224241
 20
76.012711
 11
24.270504
 21
77.369522
  0
LINE
  8
TEILE
 62
2
 10
24.270504
 20
77.369522
 11
25.237602
 21
78.783859
  0
LINE
  8
TEILE
 62
2
 10
25.237602
 20
78.783859
 11
25.237606
 21
78.783852
  0
LINE
  8
TEILE
 62
2
 10
25.237606
 20
78.783852
 11
27.288960
 21
82.540627
  0
LINE
  8
TEILE
 62
2
 10
27.288960
 20
82.540627
 11
27.797653
 21
83.720764
  0
LINE
  8
TEILE
 62
2
 10
27.797653
 20
83.720764
 11
28.255337
 21
84.921600
  0
LINE
  8
TEILE
 62
2
 10
28.255337
 20
84.921600
 11
28.661171
 21
86.140930
  0
LINE
  8
TEILE
 62
2
 10
28.661171
 20
86.140930
 11
29.014412
 21
87.376526
  0
LINE
  8
TEILE
 62
2
 10
29.014412
 20
87.376526
 11
29.314413
 21
88.626114
  0
LINE
  8
TEILE
 62
2
 10
29.314413
 20
88.626114
 11
29.560621
 21
89.887405
  0
LINE
  8
TEILE
 62
2
 10
29.560621
 20
89.887405
 11
29.752586
 21
91.158096
  0
LINE
  8
TEILE
 62
2
 10
29.752586
 20
91.158096
 11
29.889954
 21
92.435829
  0
LINE
  8
TEILE
 62
2
 10
29.889954
 20
92.435829
 11
29.972475
 21
93.718277
  0
LINE
  8
TEILE
 62
2
 10
29.972475
 20
93.718277
 11
29.999998
 21
95.003082
  0
LINE
  8
TEILE
 62
2
 10
29.999998
 20
95.003082
 11
30.000000
 21
95.003082
  0
LINE
  8
TEILE
 62
2
 10
30.000000
 20
95.003082
 11
399.863739
 21
95.003052
  0
LINE
  8
TEILE
 62
2
 10
399.863739
 20
95.003052
 11
399.891296
 21
93.718254
  0
LINE
  8
TEILE
 62
2
 10
399.891296
 20
93.718254
 11
399.973785
 21
92.435799
  0
LINE
  8
TEILE
 62
2
 10
399.973785
 20
92.435799
 11
400.111145
 21
91.158073
  0
LINE
  8
TEILE
 62
2
 10
400.111145
 20
91.158073
 11
400.303101
 21
89.887398
  0
LINE
  8
TEILE
 62
2
 10
400.303101
 20
89.887398
 11
400.549316
 21
88.626106
  0
LINE
  8
TEILE
 62
2
 10
400.549316
 20
88.626106
 11
400.849335
 21
87.376518
  0
LINE
  8
TEILE
 62
2
 10
400.849335
 20
87.376518
 11
401.202576
 21
86.140930
  0
LINE
  8
TEILE
 62
2
 10
401.202576
 20
86.140930
 11
401.608398
 21
84.921600
  0
LINE
  8
TEILE
 62
2
 10
401.608398
 20
84.921600
 11
402.066071
 21
83.720764
  0
LINE
  8
TEILE
 62
2
 10
402.066071
 20
83.720764
 11
402.574768
 21
82.540634
  0
LINE
  8
TEILE
 62
2
 10
402.574768
 20
82.540634
 11
402.574768
 21
82.540604
  0
LINE
  8
TEILE
 62
2
 10
402.574768
 20
82.540604
 11
404.626129
 21
78.783829
  0
LINE
  8
TEILE
 62
2
 10
404.626129
 20
78.783829
 11
405.513947
 21
77.479126
  0
LINE
  8
TEILE
 62
2
 10
405.513947
 20
77.479126
 11
406.469147
 21
76.222908
  0
LINE
  8
TEILE
 62
2
 10
406.469147
 20
76.222908
 11
407.489075
 21
75.018661
  0
LINE
  8
TEILE
 62
2
 10
407.489075
 20
75.018661
 11
408.570984
 21
73.869713
  0
LINE
  8
TEILE
 62
2
 10
408.570984
 20
73.869713
 11
409.711731
 21
72.779243
  0
LINE
  8
TEILE
 62
2
 10
409.711731
 20
72.779243
 11
410.908264
 21
71.750275
  0
LINE
  8
TEILE
 62
2
 10
410.908264
 20
71.750275
 11
412.157288
 21
70.785652
  0
LINE
  8
TEILE
 62
2
 10
412.157288
 20
70.785652
 11
413.455261
 21
69.888046
  0
LINE
  8
TEILE
 62
2
 10
413.455261
 20
69.888046
 11
414.798706
 21
69.059937
  0
LINE
  8
TEILE
 62
2
 10
414.798706
 20
69.059937
 11
416.183777
 21
68.303612
  0
LINE
  8
TEILE
 62
2
 10
416.183777
 20
68.303612
 11
417.606750
 21
67.621178
  0
LINE
  8
TEILE
 62
2
 10
417.606750
 20
67.621178
 11
419.063599
 21
67.014519
  0
LINE
  8
TEILE
 62
2
 10
419.063599
 20
67.014519
 11
420.550354
 21
66.485306
  0
LINE
  8
TEILE
 62
2
 10
420.550354
 20
66.485306
 11
422.062866
 21
66.035011
  0
LINE
  8
TEILE
 62
2
 10
422.062866
 20
66.035011
 11
423.596985
 21
65.664871
  0
LINE
  8
TEILE
 62
2
 10
423.596985
 20
65.664871
 11
425.148468
 21
65.375916
  0
LINE
  8
TEILE
 62
2
 10
425.148468
 20
65.375916
 11
426.712952
 21
65.168953
  0
LINE
  8
TEILE
 62
2
 10
426.712952
 20
65.168953
 11
428.286163
 21
65.044548
  0
LINE
  8
TEILE
 62
2
 10
428.286163
 20
65.044548
 11
429.863770
 21
65.003044
  0
LINE
  8
TEILE
 62
2
 10
429.863770
 20
65.003044
 11
429.863739
 21
65.003052
  0
ENDSEC
  0
EOF

