999
     *******************************************
999
     BOCAD Software GmbH   Rev.18.000   0202.22
999
     Filename:   c:\progetti21\danieli_aqs\b4\temp_11\20644.dxf
999
     Creator:    bocad
999
     Date:       20.01.2016
999
     Factor:     10.000000
999
     *******************************************
  0
SECTION
  2
HEADER
  9
$DWGCODEPAGE
  3
ANSI_1252
  9
$INSBASE
 10
0.0
 20
0.0
 30
0.0
  9
$EXTMIN
 10
-0.500000
 20
-95.503120
  9
$EXTMAX
 10
430.363731
 20
95.503120
  9
$LIMMIN
 10
-1.500000
 20
-96.503120
  9
$LIMMAX
 10
431.363731
 20
96.503120
  9
$LTSCALE
 40
10.000000
  0
ENDSEC
  0
SECTION
  2
TABLES
  0
TABLE
  2
LTYPE
 70
4
  0
LTYPE
  2
CONTINUOUS
 70
64
  3
____________________________________________
 72
65
 73
0
 40
0.0
  0
LTYPE
  2
HIDDEN
 70
64
  3
__ __ __ __ __ __ __ __ __ __ __ __ __ __ __
 72
65
 73
2
 40
0.50
 49
0.30
 49
-0.20
  0
LTYPE
  2
DASHDOT
 70
64
  3
____ _ ____ _ ____ _ ____ _ ____ _ ____ _ __
 72
65
 73
4
 40
2.0
 49
1.5
 49
-0.25
 49
0
 49
-0.25
  0
LTYPE
  2
DOT
 70
64
  3
............................................
 72
65
 73
2
 40
0.30
 49
0
 49
-0.30
  0
ENDTAB
  0
TABLE
  2
LAYER
 70
23
  0
LAYER
  2
UNTERSCHRIFT
 70
64
 62
7
  6
CONTINUOUS
  0
LAYER
  2
TEILE
 70
64
 62
7
  6
CONTINUOUS
  0
LAYER
  2
REST
 70
64
 62
7
  6
CONTINUOUS
  0
LAYER
  2
MARKERPUNKTE
 70
64
 62
7
  6
CONTINUOUS
  0
LAYER
  2
HILFSPUNKTE
 70
64
 62
7
  6
CONTINUOUS
  0
LAYER
  2
PICKPUNKTE
 70
64
 62
7
  6
CONTINUOUS
  0
LAYER
  2
SCHRAUBEN
 70
64
 62
7
  6
CONTINUOUS
  0
LAYER
  2
SCHWEISSEN
 70
64
 62
7
  6
CONTINUOUS
  0
LAYER
  2
GRAFIK
 70
64
 62
7
  6
CONTINUOUS
  0
LAYER
  2
BEM_FREI
 70
64
 62
7
  6
CONTINUOUS
  0
LAYER
  2
BEM_SYSTEM
 70
64
 62
7
  6
CONTINUOUS
  0
LAYER
  2
BEM_KONTUR
 70
64
 62
7
  6
CONTINUOUS
  0
LAYER
  2
BEM_ANBAU
 70
64
 62
7
  6
CONTINUOUS
  0
LAYER
  2
BEM_SCHRAUBEN
 70
64
 62
7
  6
CONTINUOUS
  0
LAYER
  2
BEM_SCHWEISSEN
 70
64
 62
7
  6
CONTINUOUS
  0
LAYER
  2
FREIER_TEXT
 70
64
 62
7
  6
CONTINUOUS
  0
LAYER
  2
BEZ_TEILE
 70
64
 62
7
  6
CONTINUOUS
  0
LAYER
  2
BEZ_SCHRAUBEN
 70
64
 62
7
  6
CONTINUOUS
  0
LAYER
  2
BEZ_SCHWEISSEN
 70
64
 62
7
  6
CONTINUOUS
  0
LAYER
  2
SCHRAFFUREN
 70
64
 62
7
  6
CONTINUOUS
  0
LAYER
  2
SCHNITTSYMBOL
 70
64
 62
7
  6
CONTINUOUS
  0
LAYER
  2
RASTER
 70
64
 62
7
  6
CONTINUOUS
  0
LAYER
  2
LISTEN
 70
64
 62
7
  6
CONTINUOUS
  0
LAYER
  2
RAHMEN
 70
64
 62
7
  6
CONTINUOUS
  0
ENDTAB
  0
TABLE
  2
STYLE
 70
1
  0
STYLE
  2
STANDARD
 70
64
 40
0
 41
1
 50
0.0
 71
0
 42
0.35
  3
ROMANS
  0
ENDTAB
  0
ENDSEC
  0
SECTION
  2
ENTITIES
  0
TEXT
 8
UNTERSCHRIFT
 62
2
 10
135.631882
 20
89.753036
 40
3.250000
 41
0.800000
 51
15.000000
  1
Project  DP0GN9  ,Qty. 10  , Pos. 
  0
TEXT
 8
UNTERSCHRIFT
 62
2
 10
237.031860
 20
89.753067
 40
3.250000
 41
0.800000
 51
15.000000
  1
  , Profi l PL190*20
  0
TEXT
 8
UNTERSCHRIFT
 62
2
 10
224.031860
 20
89.753067
 40
3.250000
 41
0.800000
 51
15.000000
  1
20644
  0
LINE
  8
TEILE
 62
2
 10
429.863739
 20
65.003120
 11
429.863739
 21
-95.003006
  0
LINE
  8
TEILE
 62
2
 10
429.863739
 20
-95.003006
 11
-0.000000
 21
-95.003120
  0
LINE
  8
TEILE
 62
2
 10
-0.000000
 20
-95.003120
 11
-0.000000
 21
65.003006
  0
LINE
  8
TEILE
 62
2
 10
-0.000000
 20
65.003006
 11
1.577584
 21
65.044518
  0
LINE
  8
TEILE
 62
2
 10
1.577584
 20
65.044518
 11
3.150804
 21
65.168930
  0
LINE
  8
TEILE
 62
2
 10
3.150804
 20
65.168930
 11
4.715305
 21
65.375893
  0
LINE
  8
TEILE
 62
2
 10
4.715305
 20
65.375893
 11
6.266758
 21
65.664848
  0
LINE
  8
TEILE
 62
2
 10
6.266758
 20
65.664848
 11
7.800869
 21
66.034988
  0
LINE
  8
TEILE
 62
2
 10
7.800869
 20
66.034988
 11
9.313394
 21
66.485283
  0
LINE
  8
TEILE
 62
2
 10
9.313394
 20
66.485283
 11
10.800146
 21
67.014496
  0
LINE
  8
TEILE
 62
2
 10
10.800146
 20
67.014496
 11
12.257012
 21
67.621162
  0
LINE
  8
TEILE
 62
2
 10
12.257012
 20
67.621162
 11
13.679960
 21
68.303596
  0
LINE
  8
TEILE
 62
2
 10
13.679960
 20
68.303596
 11
15.065052
 21
69.059921
  0
LINE
  8
TEILE
 62
2
 10
15.065052
 20
69.059921
 11
16.408459
 21
69.888031
  0
LINE
  8
TEILE
 62
2
 10
16.408459
 20
69.888031
 11
17.706453
 21
70.785629
  0
LINE
  8
TEILE
 62
2
 10
17.706453
 20
70.785629
 11
18.955454
 21
71.750252
  0
LINE
  8
TEILE
 62
2
 10
18.955454
 20
71.750252
 11
20.151999
 21
72.779221
  0
LINE
  8
TEILE
 62
2
 10
20.151999
 20
72.779221
 11
21.292782
 21
73.869690
  0
LINE
  8
TEILE
 62
2
 10
21.292782
 20
73.869690
 11
22.374640
 21
75.018631
  0
LINE
  8
TEILE
 62
2
 10
22.374640
 20
75.018631
 11
23.394585
 21
76.222878
  0
LINE
  8
TEILE
 62
2
 10
23.394585
 20
76.222878
 11
24.349789
 21
77.479088
  0
LINE
  8
TEILE
 62
2
 10
24.349789
 20
77.479088
 11
25.237616
 21
78.783798
  0
LINE
  8
TEILE
 62
2
 10
25.237616
 20
78.783798
 11
25.237606
 21
78.783783
  0
LINE
  8
TEILE
 62
2
 10
25.237606
 20
78.783783
 11
27.288960
 21
82.540558
  0
LINE
  8
TEILE
 62
2
 10
27.288960
 20
82.540558
 11
27.797649
 21
83.720695
  0
LINE
  8
TEILE
 62
2
 10
27.797649
 20
83.720695
 11
28.255331
 21
84.921524
  0
LINE
  8
TEILE
 62
2
 10
28.255331
 20
84.921524
 11
28.661165
 21
86.140862
  0
LINE
  8
TEILE
 62
2
 10
28.661165
 20
86.140862
 11
29.014406
 21
87.376465
  0
LINE
  8
TEILE
 62
2
 10
29.014406
 20
87.376465
 11
29.314405
 21
88.626053
  0
LINE
  8
TEILE
 62
2
 10
29.314405
 20
88.626053
 11
29.560616
 21
89.887344
  0
LINE
  8
TEILE
 62
2
 10
29.560616
 20
89.887344
 11
29.752581
 21
91.158020
  0
LINE
  8
TEILE
 62
2
 10
29.752581
 20
91.158020
 11
29.889950
 21
92.435753
  0
LINE
  8
TEILE
 62
2
 10
29.889950
 20
92.435753
 11
29.972475
 21
93.718201
  0
LINE
  8
TEILE
 62
2
 10
29.972475
 20
93.718201
 11
29.999998
 21
95.003006
  0
LINE
  8
TEILE
 62
2
 10
29.999998
 20
95.003006
 11
30.000000
 21
95.003006
  0
LINE
  8
TEILE
 62
2
 10
30.000000
 20
95.003006
 11
399.863739
 21
95.003120
  0
LINE
  8
TEILE
 62
2
 10
399.863739
 20
95.003120
 11
399.891296
 21
93.718323
  0
LINE
  8
TEILE
 62
2
 10
399.891296
 20
93.718323
 11
399.973785
 21
92.435875
  0
LINE
  8
TEILE
 62
2
 10
399.973785
 20
92.435875
 11
400.111145
 21
91.158134
  0
LINE
  8
TEILE
 62
2
 10
400.111145
 20
91.158134
 11
400.303101
 21
89.887459
  0
LINE
  8
TEILE
 62
2
 10
400.303101
 20
89.887459
 11
400.549316
 21
88.626167
  0
LINE
  8
TEILE
 62
2
 10
400.549316
 20
88.626167
 11
400.849335
 21
87.376572
  0
LINE
  8
TEILE
 62
2
 10
400.849335
 20
87.376572
 11
401.202576
 21
86.140976
  0
LINE
  8
TEILE
 62
2
 10
401.202576
 20
86.140976
 11
401.608398
 21
84.921638
  0
LINE
  8
TEILE
 62
2
 10
401.608398
 20
84.921638
 11
402.066071
 21
83.720795
  0
LINE
  8
TEILE
 62
2
 10
402.066071
 20
83.720795
 11
402.574768
 21
82.540665
  0
LINE
  8
TEILE
 62
2
 10
402.574768
 20
82.540665
 11
402.574768
 21
82.540665
  0
LINE
  8
TEILE
 62
2
 10
402.574768
 20
82.540665
 11
404.626129
 21
78.783890
  0
LINE
  8
TEILE
 62
2
 10
404.626129
 20
78.783890
 11
405.593231
 21
77.369568
  0
LINE
  8
TEILE
 62
2
 10
405.593231
 20
77.369568
 11
406.639465
 21
76.012764
  0
LINE
  8
TEILE
 62
2
 10
406.639465
 20
76.012764
 11
407.761505
 21
74.717896
  0
LINE
  8
TEILE
 62
2
 10
407.761505
 20
74.717896
 11
408.955627
 21
73.489197
  0
LINE
  8
TEILE
 62
2
 10
408.955627
 20
73.489197
 11
410.217926
 21
72.330658
  0
LINE
  8
TEILE
 62
2
 10
410.217926
 20
72.330658
 11
411.544312
 21
71.246078
  0
LINE
  8
TEILE
 62
2
 10
411.544312
 20
71.246078
 11
412.930420
 21
70.238983
  0
LINE
  8
TEILE
 62
2
 10
412.930420
 20
70.238983
 11
414.371796
 21
69.312668
  0
LINE
  8
TEILE
 62
2
 10
414.371796
 20
69.312668
 11
415.863678
 21
68.470139
  0
LINE
  8
TEILE
 62
2
 10
415.863678
 20
68.470139
 11
417.401245
 21
67.714157
  0
LINE
  8
TEILE
 62
2
 10
417.401245
 20
67.714157
 11
417.401276
 21
67.714157
  0
LINE
  8
TEILE
 62
2
 10
417.401276
 20
67.714157
 11
421.411774
 21
66.218330
  0
LINE
  8
TEILE
 62
2
 10
421.411774
 20
66.218330
 11
422.237213
 21
65.988716
  0
LINE
  8
TEILE
 62
2
 10
422.237213
 20
65.988716
 11
423.068848
 21
65.782768
  0
LINE
  8
TEILE
 62
2
 10
423.068848
 20
65.782768
 11
423.906006
 21
65.600647
  0
LINE
  8
TEILE
 62
2
 10
423.906006
 20
65.600647
 11
424.748077
 21
65.442505
  0
LINE
  8
TEILE
 62
2
 10
424.748077
 20
65.442505
 11
425.594299
 21
65.308472
  0
LINE
  8
TEILE
 62
2
 10
425.594299
 20
65.308472
 11
426.444031
 21
65.198662
  0
LINE
  8
TEILE
 62
2
 10
426.444031
 20
65.198662
 11
427.296478
 21
65.113167
  0
LINE
  8
TEILE
 62
2
 10
427.296478
 20
65.113167
 11
428.151062
 21
65.052040
  0
LINE
  8
TEILE
 62
2
 10
428.151062
 20
65.052040
 11
429.007019
 21
65.015350
  0
LINE
  8
TEILE
 62
2
 10
429.007019
 20
65.015350
 11
429.863739
 21
65.003120
  0
LINE
  8
TEILE
 62
2
 10
429.863739
 20
65.003120
 11
429.863739
 21
65.003120
  0
ENDSEC
  0
EOF

