999
     *******************************************
999
     BOCAD Software GmbH   Rev.18.000   0202.22
999
     Filename:   c:\progetti21\danieli_aqs\b4\temp_11\30201.dxf
999
     Creator:    bocad
999
     Date:       20.01.2016
999
     Factor:     10.000000
999
     *******************************************
  0
SECTION
  2
HEADER
  9
$DWGCODEPAGE
  3
ANSI_1252
  9
$INSBASE
 10
0.0
 20
0.0
 30
0.0
  9
$EXTMIN
 10
-0.500000
 20
-275.498981
  9
$EXTMAX
 10
380.497665
 20
275.499535
  9
$LIMMIN
 10
-1.500000
 20
-276.498981
  9
$LIMMAX
 10
381.497665
 20
276.499535
  9
$LTSCALE
 40
10.000000
  0
ENDSEC
  0
SECTION
  2
TABLES
  0
TABLE
  2
LTYPE
 70
4
  0
LTYPE
  2
CONTINUOUS
 70
64
  3
____________________________________________
 72
65
 73
0
 40
0.0
  0
LTYPE
  2
HIDDEN
 70
64
  3
__ __ __ __ __ __ __ __ __ __ __ __ __ __ __
 72
65
 73
2
 40
0.50
 49
0.30
 49
-0.20
  0
LTYPE
  2
DASHDOT
 70
64
  3
____ _ ____ _ ____ _ ____ _ ____ _ ____ _ __
 72
65
 73
4
 40
2.0
 49
1.5
 49
-0.25
 49
0
 49
-0.25
  0
LTYPE
  2
DOT
 70
64
  3
............................................
 72
65
 73
2
 40
0.30
 49
0
 49
-0.30
  0
ENDTAB
  0
TABLE
  2
LAYER
 70
23
  0
LAYER
  2
SCHRAUBEN
 70
64
 62
7
  6
CONTINUOUS
  0
LAYER
  2
REST
 70
64
 62
7
  6
CONTINUOUS
  0
LAYER
  2
UNTERSCHRIFT
 70
64
 62
7
  6
CONTINUOUS
  0
LAYER
  2
TEILE
 70
64
 62
7
  6
CONTINUOUS
  0
LAYER
  2
BEZ_SCHRAUBEN
 70
64
 62
7
  6
CONTINUOUS
  0
LAYER
  2
MARKERPUNKTE
 70
64
 62
7
  6
CONTINUOUS
  0
LAYER
  2
HILFSPUNKTE
 70
64
 62
7
  6
CONTINUOUS
  0
LAYER
  2
PICKPUNKTE
 70
64
 62
7
  6
CONTINUOUS
  0
LAYER
  2
SCHWEISSEN
 70
64
 62
7
  6
CONTINUOUS
  0
LAYER
  2
GRAFIK
 70
64
 62
7
  6
CONTINUOUS
  0
LAYER
  2
BEM_FREI
 70
64
 62
7
  6
CONTINUOUS
  0
LAYER
  2
BEM_SYSTEM
 70
64
 62
7
  6
CONTINUOUS
  0
LAYER
  2
BEM_KONTUR
 70
64
 62
7
  6
CONTINUOUS
  0
LAYER
  2
BEM_ANBAU
 70
64
 62
7
  6
CONTINUOUS
  0
LAYER
  2
BEM_SCHRAUBEN
 70
64
 62
7
  6
CONTINUOUS
  0
LAYER
  2
BEM_SCHWEISSEN
 70
64
 62
7
  6
CONTINUOUS
  0
LAYER
  2
FREIER_TEXT
 70
64
 62
7
  6
CONTINUOUS
  0
LAYER
  2
BEZ_TEILE
 70
64
 62
7
  6
CONTINUOUS
  0
LAYER
  2
BEZ_SCHWEISSEN
 70
64
 62
7
  6
CONTINUOUS
  0
LAYER
  2
SCHRAFFUREN
 70
64
 62
7
  6
CONTINUOUS
  0
LAYER
  2
SCHNITTSYMBOL
 70
64
 62
7
  6
CONTINUOUS
  0
LAYER
  2
RASTER
 70
64
 62
7
  6
CONTINUOUS
  0
LAYER
  2
LISTEN
 70
64
 62
7
  6
CONTINUOUS
  0
LAYER
  2
RAHMEN
 70
64
 62
7
  6
CONTINUOUS
  0
ENDTAB
  0
TABLE
  2
STYLE
 70
1
  0
STYLE
  2
STANDARD
 70
64
 40
0
 41
1
 50
0.0
 71
0
 42
0.35
  3
ROMANS
  0
ENDTAB
  0
ENDSEC
  0
SECTION
  2
ENTITIES
  0
LINE
  8
SCHRAUBEN
 62
6
 10
275.799469
 20
-84.199028
 11
264.199463
 21
-95.799026
  0
LINE
  8
SCHRAUBEN
 62
6
 10
264.199463
 20
-84.199028
 11
275.799469
 21
-95.799026
  0
CIRCLE
  8
SCHRAUBEN
 62
2
 10
269.999451
 20
-89.999023
 40
14.500031
  0
LINE
  8
SCHRAUBEN
 62
6
 10
275.799469
 20
0.800972
 11
264.199463
 21
-10.799028
  0
LINE
  8
SCHRAUBEN
 62
6
 10
264.199463
 20
0.800972
 11
275.799469
 21
-10.799028
  0
CIRCLE
  8
SCHRAUBEN
 62
2
 10
269.999451
 20
-4.999029
 40
14.500031
  0
LINE
  8
SCHRAUBEN
 62
6
 10
115.799477
 20
0.800972
 11
104.199478
 21
-10.799028
  0
LINE
  8
SCHRAUBEN
 62
6
 10
104.199478
 20
0.800972
 11
115.799477
 21
-10.799028
  0
CIRCLE
  8
SCHRAUBEN
 62
2
 10
109.999474
 20
-4.999029
 40
14.500000
  0
LINE
  8
SCHRAUBEN
 62
6
 10
115.799477
 20
-84.199028
 11
104.199478
 21
-95.799026
  0
LINE
  8
SCHRAUBEN
 62
6
 10
104.199478
 20
-84.199028
 11
115.799477
 21
-95.799026
  0
CIRCLE
  8
SCHRAUBEN
 62
2
 10
109.999474
 20
-89.999023
 40
14.500000
  0
LINE
  8
SCHRAUBEN
 62
6
 10
115.799477
 20
140.800964
 11
104.199478
 21
129.200974
  0
LINE
  8
SCHRAUBEN
 62
6
 10
104.199478
 20
140.800964
 11
115.799477
 21
129.200974
  0
CIRCLE
  8
SCHRAUBEN
 62
2
 10
109.999474
 20
135.000977
 40
14.500000
  0
LINE
  8
SCHRAUBEN
 62
6
 10
115.799477
 20
225.800964
 11
104.199478
 21
214.200974
  0
LINE
  8
SCHRAUBEN
 62
6
 10
104.199478
 20
225.800964
 11
115.799477
 21
214.200974
  0
CIRCLE
  8
SCHRAUBEN
 62
2
 10
109.999474
 20
220.000977
 40
14.500000
  0
LINE
  8
SCHRAUBEN
 62
6
 10
275.799469
 20
225.800964
 11
264.199463
 21
214.200974
  0
LINE
  8
SCHRAUBEN
 62
6
 10
264.199463
 20
225.800964
 11
275.799469
 21
214.200974
  0
CIRCLE
  8
SCHRAUBEN
 62
2
 10
269.999451
 20
220.000977
 40
14.500031
  0
LINE
  8
SCHRAUBEN
 62
6
 10
275.799469
 20
140.800964
 11
264.199463
 21
129.200974
  0
LINE
  8
SCHRAUBEN
 62
6
 10
264.199463
 20
140.800964
 11
275.799469
 21
129.200974
  0
CIRCLE
  8
SCHRAUBEN
 62
2
 10
269.999451
 20
135.000977
 40
14.500031
  0
LINE
  8
SCHRAUBEN
 62
6
 10
115.799492
 20
-214.194000
 11
104.199493
 21
-225.793991
  0
LINE
  8
SCHRAUBEN
 62
6
 10
104.199493
 20
-214.194000
 11
115.799492
 21
-225.793991
  0
CIRCLE
  8
SCHRAUBEN
 62
2
 10
109.999496
 20
-219.993988
 40
14.500000
  0
LINE
  8
SCHRAUBEN
 62
6
 10
275.799438
 20
-214.194000
 11
264.199463
 21
-225.793991
  0
LINE
  8
SCHRAUBEN
 62
6
 10
264.199463
 20
-214.194000
 11
275.799438
 21
-225.793991
  0
CIRCLE
  8
SCHRAUBEN
 62
2
 10
269.999451
 20
-219.993988
 40
14.500000
  0
TEXT
 8
UNTERSCHRIFT
 62
2
 10
5.250000
 20
-77.999725
 40
3.250000
 50
89.999931
 41
0.800000
 51
15.000000
  1
Project  DP0GN9  ,Qty. 2  , Pos. 
  0
TEXT
 8
UNTERSCHRIFT
 62
2
 10
5.250000
 20
20.800274
 40
3.250000
 50
89.999931
 41
0.800000
 51
15.000000
  1
  , Profi l PL550*25
  0
TEXT
 8
UNTERSCHRIFT
 62
2
 10
5.250000
 20
7.800273
 40
3.250000
 50
89.999931
 41
0.800000
 51
15.000000
  1
30201
  0
LINE
  8
TEILE
 62
2
 10
0.000000
 20
274.999542
 11
379.997681
 21
274.999542
  0
LINE
  8
TEILE
 62
2
 10
379.997681
 20
274.999542
 11
379.997681
 21
-274.998993
  0
LINE
  8
TEILE
 62
2
 10
379.997681
 20
-274.998993
 11
0.000000
 21
-274.998993
  0
LINE
  8
TEILE
 62
2
 10
0.000000
 20
-274.998993
 11
0.000000
 21
274.999542
  0
TEXT
 8
BEZ_SCHRAUBEN
 62
2
 10
261.999481
 20
-111.999039
 40
5.000000
 41
0.800000
 51
15.000000
  1
 ø29
  0
ENDSEC
  0
EOF

