999
     *******************************************
999
     BOCAD Software GmbH   Rev.18.000   0202.22
999
     Filename:   c:\progetti21\danieli_aqs\b4\temp_11\30202.dxf
999
     Creator:    bocad
999
     Date:       20.01.2016
999
     Factor:     10.000000
999
     *******************************************
  0
SECTION
  2
HEADER
  9
$DWGCODEPAGE
  3
ANSI_1252
  9
$INSBASE
 10
0.0
 20
0.0
 30
0.0
  9
$EXTMIN
 10
-0.500000
 20
-230.500546
  9
$EXTMAX
 10
800.512238
 20
230.499992
  9
$LIMMIN
 10
-1.500000
 20
-231.500546
  9
$LIMMAX
 10
801.512238
 20
231.499992
  9
$LTSCALE
 40
10.000000
  0
ENDSEC
  0
SECTION
  2
TABLES
  0
TABLE
  2
LTYPE
 70
4
  0
LTYPE
  2
CONTINUOUS
 70
64
  3
____________________________________________
 72
65
 73
0
 40
0.0
  0
LTYPE
  2
HIDDEN
 70
64
  3
__ __ __ __ __ __ __ __ __ __ __ __ __ __ __
 72
65
 73
2
 40
0.50
 49
0.30
 49
-0.20
  0
LTYPE
  2
DASHDOT
 70
64
  3
____ _ ____ _ ____ _ ____ _ ____ _ ____ _ __
 72
65
 73
4
 40
2.0
 49
1.5
 49
-0.25
 49
0
 49
-0.25
  0
LTYPE
  2
DOT
 70
64
  3
............................................
 72
65
 73
2
 40
0.30
 49
0
 49
-0.30
  0
ENDTAB
  0
TABLE
  2
LAYER
 70
23
  0
LAYER
  2
SCHRAUBEN
 70
64
 62
7
  6
CONTINUOUS
  0
LAYER
  2
REST
 70
64
 62
7
  6
CONTINUOUS
  0
LAYER
  2
UNTERSCHRIFT
 70
64
 62
7
  6
CONTINUOUS
  0
LAYER
  2
TEILE
 70
64
 62
7
  6
CONTINUOUS
  0
LAYER
  2
BEZ_SCHRAUBEN
 70
64
 62
7
  6
CONTINUOUS
  0
LAYER
  2
MARKERPUNKTE
 70
64
 62
7
  6
CONTINUOUS
  0
LAYER
  2
HILFSPUNKTE
 70
64
 62
7
  6
CONTINUOUS
  0
LAYER
  2
PICKPUNKTE
 70
64
 62
7
  6
CONTINUOUS
  0
LAYER
  2
SCHWEISSEN
 70
64
 62
7
  6
CONTINUOUS
  0
LAYER
  2
GRAFIK
 70
64
 62
7
  6
CONTINUOUS
  0
LAYER
  2
BEM_FREI
 70
64
 62
7
  6
CONTINUOUS
  0
LAYER
  2
BEM_SYSTEM
 70
64
 62
7
  6
CONTINUOUS
  0
LAYER
  2
BEM_KONTUR
 70
64
 62
7
  6
CONTINUOUS
  0
LAYER
  2
BEM_ANBAU
 70
64
 62
7
  6
CONTINUOUS
  0
LAYER
  2
BEM_SCHRAUBEN
 70
64
 62
7
  6
CONTINUOUS
  0
LAYER
  2
BEM_SCHWEISSEN
 70
64
 62
7
  6
CONTINUOUS
  0
LAYER
  2
FREIER_TEXT
 70
64
 62
7
  6
CONTINUOUS
  0
LAYER
  2
BEZ_TEILE
 70
64
 62
7
  6
CONTINUOUS
  0
LAYER
  2
BEZ_SCHWEISSEN
 70
64
 62
7
  6
CONTINUOUS
  0
LAYER
  2
SCHRAFFUREN
 70
64
 62
7
  6
CONTINUOUS
  0
LAYER
  2
SCHNITTSYMBOL
 70
64
 62
7
  6
CONTINUOUS
  0
LAYER
  2
RASTER
 70
64
 62
7
  6
CONTINUOUS
  0
LAYER
  2
LISTEN
 70
64
 62
7
  6
CONTINUOUS
  0
LAYER
  2
RAHMEN
 70
64
 62
7
  6
CONTINUOUS
  0
ENDTAB
  0
TABLE
  2
STYLE
 70
1
  0
STYLE
  2
STANDARD
 70
64
 40
0
 41
1
 50
0.0
 71
0
 42
0.35
  3
ROMANS
  0
ENDTAB
  0
ENDSEC
  0
SECTION
  2
ENTITIES
  0
LINE
  8
SCHRAUBEN
 62
6
 10
116.206146
 20
146.199997
 11
83.806152
 21
113.800003
  0
LINE
  8
SCHRAUBEN
 62
6
 10
83.806152
 20
146.199997
 11
116.206146
 21
113.800003
  0
CIRCLE
  8
SCHRAUBEN
 62
4
 10
100.006149
 20
130.000000
 40
40.500000
  0
LINE
  8
SCHRAUBEN
 62
6
 10
116.206146
 20
-113.800003
 11
83.806152
 21
-146.199997
  0
LINE
  8
SCHRAUBEN
 62
6
 10
83.806152
 20
-113.800003
 11
116.206146
 21
-146.199997
  0
CIRCLE
  8
SCHRAUBEN
 62
4
 10
100.006149
 20
-130.000000
 40
40.500000
  0
LINE
  8
SCHRAUBEN
 62
6
 10
336.206116
 20
-113.800003
 11
303.806122
 21
-146.199997
  0
LINE
  8
SCHRAUBEN
 62
6
 10
303.806122
 20
-113.800003
 11
336.206116
 21
-146.199997
  0
CIRCLE
  8
SCHRAUBEN
 62
4
 10
320.006134
 20
-130.000000
 40
40.500000
  0
LINE
  8
SCHRAUBEN
 62
6
 10
336.206116
 20
146.199997
 11
303.806122
 21
113.800003
  0
LINE
  8
SCHRAUBEN
 62
6
 10
303.806122
 20
146.199997
 11
336.206116
 21
113.800003
  0
CIRCLE
  8
SCHRAUBEN
 62
4
 10
320.006134
 20
130.000000
 40
40.500000
  0
LINE
  8
SCHRAUBEN
 62
6
 10
496.206116
 20
146.199997
 11
463.806152
 21
113.800003
  0
LINE
  8
SCHRAUBEN
 62
6
 10
463.806152
 20
146.199997
 11
496.206116
 21
113.800003
  0
CIRCLE
  8
SCHRAUBEN
 62
4
 10
480.006134
 20
130.000000
 40
40.499969
  0
LINE
  8
SCHRAUBEN
 62
6
 10
496.206116
 20
-113.800003
 11
463.806152
 21
-146.199997
  0
LINE
  8
SCHRAUBEN
 62
6
 10
463.806152
 20
-113.800003
 11
496.206116
 21
-146.199997
  0
CIRCLE
  8
SCHRAUBEN
 62
4
 10
480.006134
 20
-130.000000
 40
40.499969
  0
LINE
  8
SCHRAUBEN
 62
6
 10
716.206177
 20
-113.800003
 11
683.806152
 21
-146.199997
  0
LINE
  8
SCHRAUBEN
 62
6
 10
683.806152
 20
-113.800003
 11
716.206177
 21
-146.199997
  0
CIRCLE
  8
SCHRAUBEN
 62
4
 10
700.006165
 20
-130.000000
 40
40.500061
  0
LINE
  8
SCHRAUBEN
 62
6
 10
716.206177
 20
146.199997
 11
683.806152
 21
113.800003
  0
LINE
  8
SCHRAUBEN
 62
6
 10
683.806152
 20
146.199997
 11
716.206177
 21
113.800003
  0
CIRCLE
  8
SCHRAUBEN
 62
4
 10
700.006165
 20
130.000000
 40
40.500061
  0
TEXT
 8
UNTERSCHRIFT
 62
2
 10
5.257274
 20
-79.300247
 40
3.250000
 50
89.997192
 41
0.800000
 51
15.000000
  1
Project  DP0GN9  ,Qty. 10  , Pos. 
  0
TEXT
 8
UNTERSCHRIFT
 62
2
 10
5.262169
 20
22.099747
 40
3.250000
 50
89.997192
 41
0.800000
 51
15.000000
  1
  , Profi l PL460*40
  0
TEXT
 8
UNTERSCHRIFT
 62
2
 10
5.261541
 20
9.099747
 40
3.250000
 50
89.997192
 41
0.800000
 51
15.000000
  1
30202
  0
LINE
  8
TEILE
 62
2
 10
0.022204
 20
230.000000
 11
799.990234
 21
229.999451
  0
LINE
  8
TEILE
 62
2
 10
799.990234
 20
229.999451
 11
800.012207
 21
-230.000549
  0
LINE
  8
TEILE
 62
2
 10
800.012207
 20
-230.000549
 11
-0.000000
 21
-230.000000
  0
LINE
  8
TEILE
 62
2
 10
-0.000000
 20
-230.000000
 11
0.022204
 21
230.000000
  0
TEXT
 8
BEZ_SCHRAUBEN
 62
2
 10
92.006149
 20
82.000000
 40
5.000000
 41
0.800000
 51
15.000000
  1
 ø81
  0
ENDSEC
  0
EOF

