999
     *******************************************
999
     BOCAD Software GmbH   Rev.18.000   0202.22
999
     Filename:   c:\progetti21\danieli_aqs\b4\temp_11\30216.dxf
999
     Creator:    bocad
999
     Date:       20.01.2016
999
     Factor:     10.000000
999
     *******************************************
  0
SECTION
  2
HEADER
  9
$DWGCODEPAGE
  3
ANSI_1252
  9
$INSBASE
 10
0.0
 20
0.0
 30
0.0
  9
$EXTMIN
 10
-0.500000
 20
-150.056000
  9
$EXTMAX
 10
916.511078
 20
150.056000
  9
$LIMMIN
 10
-1.500000
 20
-151.056000
  9
$LIMMAX
 10
917.511078
 20
151.056000
  9
$LTSCALE
 40
10.000000
  0
ENDSEC
  0
SECTION
  2
TABLES
  0
TABLE
  2
LTYPE
 70
4
  0
LTYPE
  2
CONTINUOUS
 70
64
  3
____________________________________________
 72
65
 73
0
 40
0.0
  0
LTYPE
  2
HIDDEN
 70
64
  3
__ __ __ __ __ __ __ __ __ __ __ __ __ __ __
 72
65
 73
2
 40
0.50
 49
0.30
 49
-0.20
  0
LTYPE
  2
DASHDOT
 70
64
  3
____ _ ____ _ ____ _ ____ _ ____ _ ____ _ __
 72
65
 73
4
 40
2.0
 49
1.5
 49
-0.25
 49
0
 49
-0.25
  0
LTYPE
  2
DOT
 70
64
  3
............................................
 72
65
 73
2
 40
0.30
 49
0
 49
-0.30
  0
ENDTAB
  0
TABLE
  2
LAYER
 70
23
  0
LAYER
  2
SCHRAUBEN
 70
64
 62
7
  6
CONTINUOUS
  0
LAYER
  2
REST
 70
64
 62
7
  6
CONTINUOUS
  0
LAYER
  2
UNTERSCHRIFT
 70
64
 62
7
  6
CONTINUOUS
  0
LAYER
  2
TEILE
 70
64
 62
7
  6
CONTINUOUS
  0
LAYER
  2
BEZ_SCHRAUBEN
 70
64
 62
7
  6
CONTINUOUS
  0
LAYER
  2
MARKERPUNKTE
 70
64
 62
7
  6
CONTINUOUS
  0
LAYER
  2
HILFSPUNKTE
 70
64
 62
7
  6
CONTINUOUS
  0
LAYER
  2
PICKPUNKTE
 70
64
 62
7
  6
CONTINUOUS
  0
LAYER
  2
SCHWEISSEN
 70
64
 62
7
  6
CONTINUOUS
  0
LAYER
  2
GRAFIK
 70
64
 62
7
  6
CONTINUOUS
  0
LAYER
  2
BEM_FREI
 70
64
 62
7
  6
CONTINUOUS
  0
LAYER
  2
BEM_SYSTEM
 70
64
 62
7
  6
CONTINUOUS
  0
LAYER
  2
BEM_KONTUR
 70
64
 62
7
  6
CONTINUOUS
  0
LAYER
  2
BEM_ANBAU
 70
64
 62
7
  6
CONTINUOUS
  0
LAYER
  2
BEM_SCHRAUBEN
 70
64
 62
7
  6
CONTINUOUS
  0
LAYER
  2
BEM_SCHWEISSEN
 70
64
 62
7
  6
CONTINUOUS
  0
LAYER
  2
FREIER_TEXT
 70
64
 62
7
  6
CONTINUOUS
  0
LAYER
  2
BEZ_TEILE
 70
64
 62
7
  6
CONTINUOUS
  0
LAYER
  2
BEZ_SCHWEISSEN
 70
64
 62
7
  6
CONTINUOUS
  0
LAYER
  2
SCHRAFFUREN
 70
64
 62
7
  6
CONTINUOUS
  0
LAYER
  2
SCHNITTSYMBOL
 70
64
 62
7
  6
CONTINUOUS
  0
LAYER
  2
RASTER
 70
64
 62
7
  6
CONTINUOUS
  0
LAYER
  2
LISTEN
 70
64
 62
7
  6
CONTINUOUS
  0
LAYER
  2
RAHMEN
 70
64
 62
7
  6
CONTINUOUS
  0
ENDTAB
  0
TABLE
  2
STYLE
 70
1
  0
STYLE
  2
STANDARD
 70
64
 40
0
 41
1
 50
0.0
 71
0
 42
0.35
  3
ROMANS
  0
ENDTAB
  0
ENDSEC
  0
SECTION
  2
ENTITIES
  0
LINE
  8
SCHRAUBEN
 62
6
 10
194.555756
 20
-44.411808
 11
182.955765
 21
-56.011806
  0
LINE
  8
SCHRAUBEN
 62
6
 10
182.955765
 20
-44.411808
 11
194.555756
 21
-56.011806
  0
CIRCLE
  8
SCHRAUBEN
 62
2
 10
188.755768
 20
-50.211807
 40
14.500000
  0
LINE
  8
SCHRAUBEN
 62
6
 10
137.185532
 20
18.307077
 11
125.585541
 21
6.707076
  0
LINE
  8
SCHRAUBEN
 62
6
 10
125.585541
 20
18.307077
 11
137.185532
 21
6.707076
  0
CIRCLE
  8
SCHRAUBEN
 62
2
 10
131.385529
 20
12.507076
 40
14.500000
  0
LINE
  8
SCHRAUBEN
 62
6
 10
79.815315
 20
81.025963
 11
68.215317
 21
69.425957
  0
LINE
  8
SCHRAUBEN
 62
6
 10
68.215317
 20
81.025963
 11
79.815315
 21
69.425957
  0
CIRCLE
  8
SCHRAUBEN
 62
2
 10
74.015320
 20
75.225960
 40
14.500000
  0
LINE
  8
SCHRAUBEN
 62
6
 10
466.971985
 20
-85.155197
 11
458.171997
 21
-93.955193
  0
LINE
  8
SCHRAUBEN
 62
6
 10
458.171997
 20
-85.155197
 11
466.971985
 21
-93.955193
  0
CIRCLE
  8
SCHRAUBEN
 62
2
 10
462.571991
 20
-89.555199
 40
10.999969
  0
LINE
  8
SCHRAUBEN
 62
6
 10
466.972015
 20
-25.155209
 11
458.172028
 21
-33.955208
  0
LINE
  8
SCHRAUBEN
 62
6
 10
458.172028
 20
-25.155209
 11
466.972015
 21
-33.955208
  0
CIRCLE
  8
SCHRAUBEN
 62
2
 10
462.572021
 20
-29.555208
 40
11.000000
  0
LINE
  8
SCHRAUBEN
 62
6
 10
847.891846
 20
79.474693
 11
836.291809
 21
67.874695
  0
LINE
  8
SCHRAUBEN
 62
6
 10
836.291809
 20
79.474693
 11
847.891846
 21
67.874695
  0
CIRCLE
  8
SCHRAUBEN
 62
2
 10
842.091797
 20
73.674690
 40
14.500000
  0
LINE
  8
SCHRAUBEN
 62
6
 10
791.144531
 20
16.191608
 11
779.544556
 21
4.591608
  0
LINE
  8
SCHRAUBEN
 62
6
 10
779.544556
 20
16.191608
 11
791.144531
 21
4.591608
  0
CIRCLE
  8
SCHRAUBEN
 62
2
 10
785.344543
 20
10.391608
 40
14.499939
  0
LINE
  8
SCHRAUBEN
 62
6
 10
734.397339
 20
-47.091476
 11
722.797302
 21
-58.691475
  0
LINE
  8
SCHRAUBEN
 62
6
 10
722.797302
 20
-47.091476
 11
734.397339
 21
-58.691475
  0
CIRCLE
  8
SCHRAUBEN
 62
2
 10
728.597351
 20
-52.891472
 40
14.499939
  0
TEXT
 8
UNTERSCHRIFT
 62
2
 10
371.834473
 20
-147.555695
 40
3.250000
 41
0.800000
 51
15.000000
  1
Project  DP0GN9  ,Qty. 6  , Pos. 
  0
TEXT
 8
UNTERSCHRIFT
 62
2
 10
470.634460
 20
-147.555603
 40
3.250000
 41
0.800000
 51
15.000000
  1
  , Profi l PL299*16
  0
TEXT
 8
UNTERSCHRIFT
 62
2
 10
457.634460
 20
-147.555603
 40
3.250000
 41
0.800000
 51
15.000000
  1
30216
  0
LINE
  8
TEILE
 62
2
 10
68.009697
 20
-149.556000
 11
0.000000
 21
82.061707
  0
LINE
  8
TEILE
 62
2
 10
0.000000
 20
82.061707
 11
73.786934
 21
149.556000
  0
LINE
  8
TEILE
 62
2
 10
73.786934
 20
149.556000
 11
429.980804
 21
20.942505
  0
LINE
  8
TEILE
 62
2
 10
429.980804
 20
20.942505
 11
432.081421
 21
20.291309
  0
LINE
  8
TEILE
 62
2
 10
432.081421
 20
20.291309
 11
434.195831
 21
19.686459
  0
LINE
  8
TEILE
 62
2
 10
434.195831
 20
19.686459
 11
436.322998
 21
19.128250
  0
LINE
  8
TEILE
 62
2
 10
436.322998
 20
19.128250
 11
438.461975
 21
18.616959
  0
LINE
  8
TEILE
 62
2
 10
438.461975
 20
18.616959
 11
440.611633
 21
18.152826
  0
LINE
  8
TEILE
 62
2
 10
440.611633
 20
18.152826
 11
442.771027
 21
17.736080
  0
LINE
  8
TEILE
 62
2
 10
442.771027
 20
17.736080
 11
444.939026
 21
17.366922
  0
LINE
  8
TEILE
 62
2
 10
444.939026
 20
17.366922
 11
447.114685
 21
17.045530
  0
LINE
  8
TEILE
 62
2
 10
447.114685
 20
17.045530
 11
449.296844
 21
16.772058
  0
LINE
  8
TEILE
 62
2
 10
449.296844
 20
16.772058
 11
451.484436
 21
16.546642
  0
LINE
  8
TEILE
 62
2
 10
451.484436
 20
16.546642
 11
453.676514
 21
16.369389
  0
LINE
  8
TEILE
 62
2
 10
453.676514
 20
16.369389
 11
455.871948
 21
16.240381
  0
LINE
  8
TEILE
 62
2
 10
455.871948
 20
16.240381
 11
458.069702
 21
16.159685
  0
LINE
  8
TEILE
 62
2
 10
458.069702
 20
16.159685
 11
460.268707
 21
16.127340
  0
LINE
  8
TEILE
 62
2
 10
460.268707
 20
16.127340
 11
462.467834
 21
16.143360
  0
LINE
  8
TEILE
 62
2
 10
462.467834
 20
16.143360
 11
464.666138
 21
16.207737
  0
LINE
  8
TEILE
 62
2
 10
464.666138
 20
16.207737
 11
466.862457
 21
16.320442
  0
LINE
  8
TEILE
 62
2
 10
466.862457
 20
16.320442
 11
469.055786
 21
16.481419
  0
LINE
  8
TEILE
 62
2
 10
469.055786
 20
16.481419
 11
471.245056
 21
16.690590
  0
LINE
  8
TEILE
 62
2
 10
471.245056
 20
16.690590
 11
473.429138
 21
16.947853
  0
LINE
  8
TEILE
 62
2
 10
473.429138
 20
16.947853
 11
475.607117
 21
17.253086
  0
LINE
  8
TEILE
 62
2
 10
475.607117
 20
17.253086
 11
477.777771
 21
17.606140
  0
LINE
  8
TEILE
 62
2
 10
477.777771
 20
17.606140
 11
479.940216
 21
18.006842
  0
LINE
  8
TEILE
 62
2
 10
479.940216
 20
18.006842
 11
482.093262
 21
18.455002
  0
LINE
  8
TEILE
 62
2
 10
482.093262
 20
18.455002
 11
484.235992
 21
18.950403
  0
LINE
  8
TEILE
 62
2
 10
484.235992
 20
18.950403
 11
486.367249
 21
19.492802
  0
LINE
  8
TEILE
 62
2
 10
486.367249
 20
19.492802
 11
488.486084
 21
20.081940
  0
LINE
  8
TEILE
 62
2
 10
488.486084
 20
20.081940
 11
490.591461
 21
20.717529
  0
LINE
  8
TEILE
 62
2
 10
490.591461
 20
20.717529
 11
492.682373
 21
21.399267
  0
LINE
  8
TEILE
 62
2
 10
492.682373
 20
21.399267
 11
494.757751
 21
22.126818
  0
LINE
  8
TEILE
 62
2
 10
494.757751
 20
22.126818
 11
494.757660
 21
22.126787
  0
LINE
  8
TEILE
 62
2
 10
494.757660
 20
22.126787
 11
841.578308
 21
148.007431
  0
LINE
  8
TEILE
 62
2
 10
841.578308
 20
148.007431
 11
916.011047
 21
81.173843
  0
LINE
  8
TEILE
 62
2
 10
916.011047
 20
81.173843
 11
831.659302
 21
-149.555222
  0
LINE
  8
TEILE
 62
2
 10
831.659302
 20
-149.555222
 11
68.009697
 21
-149.556000
  0
TEXT
 8
BEZ_SCHRAUBEN
 62
2
 10
180.755768
 20
-72.211807
 40
5.000000
 41
0.800000
 51
15.000000
  1
 ø29
  0
TEXT
 8
BEZ_SCHRAUBEN
 62
2
 10
123.385529
 20
-9.492926
 40
5.000000
 41
0.800000
 51
15.000000
  1
 ø29
  0
TEXT
 8
BEZ_SCHRAUBEN
 62
2
 10
66.015320
 20
53.225960
 40
5.000000
 41
0.800000
 51
15.000000
  1
 ø29
  0
TEXT
 8
BEZ_SCHRAUBEN
 62
2
 10
454.571991
 20
-108.055199
 40
5.000000
 41
0.800000
 51
15.000000
  1
 ø22
  0
TEXT
 8
BEZ_SCHRAUBEN
 62
2
 10
454.572021
 20
-48.055210
 40
5.000000
 41
0.800000
 51
15.000000
  1
 ø22
  0
TEXT
 8
BEZ_SCHRAUBEN
 62
2
 10
834.091858
 20
51.674694
 40
5.000000
 41
0.800000
 51
15.000000
  1
 ø29
  0
TEXT
 8
BEZ_SCHRAUBEN
 62
2
 10
777.344482
 20
-11.608392
 40
5.000000
 41
0.800000
 51
15.000000
  1
 ø29
  0
TEXT
 8
BEZ_SCHRAUBEN
 62
2
 10
720.597290
 20
-74.891479
 40
5.000000
 41
0.800000
 51
15.000000
  1
 ø29
  0
ENDSEC
  0
EOF

