999
     *******************************************
999
     BOCAD Software GmbH   Rev.18.000   0202.22
999
     Filename:   c:\progetti21\danieli_aqs\b4\temp_11\30228.dxf
999
     Creator:    bocad
999
     Date:       20.01.2016
999
     Factor:     10.000000
999
     *******************************************
  0
SECTION
  2
HEADER
  9
$DWGCODEPAGE
  3
ANSI_1252
  9
$INSBASE
 10
0.0
 20
0.0
 30
0.0
  9
$EXTMIN
 10
-0.500000
 20
-83.000002
  9
$EXTMAX
 10
328.499985
 20
83.000002
  9
$LIMMIN
 10
-1.500000
 20
-84.000002
  9
$LIMMAX
 10
329.499985
 20
84.000002
  9
$LTSCALE
 40
10.000000
  0
ENDSEC
  0
SECTION
  2
TABLES
  0
TABLE
  2
LTYPE
 70
4
  0
LTYPE
  2
CONTINUOUS
 70
64
  3
____________________________________________
 72
65
 73
0
 40
0.0
  0
LTYPE
  2
HIDDEN
 70
64
  3
__ __ __ __ __ __ __ __ __ __ __ __ __ __ __
 72
65
 73
2
 40
0.50
 49
0.30
 49
-0.20
  0
LTYPE
  2
DASHDOT
 70
64
  3
____ _ ____ _ ____ _ ____ _ ____ _ ____ _ __
 72
65
 73
4
 40
2.0
 49
1.5
 49
-0.25
 49
0
 49
-0.25
  0
LTYPE
  2
DOT
 70
64
  3
............................................
 72
65
 73
2
 40
0.30
 49
0
 49
-0.30
  0
ENDTAB
  0
TABLE
  2
LAYER
 70
23
  0
LAYER
  2
UNTERSCHRIFT
 70
64
 62
7
  6
CONTINUOUS
  0
LAYER
  2
TEILE
 70
64
 62
7
  6
CONTINUOUS
  0
LAYER
  2
REST
 70
64
 62
7
  6
CONTINUOUS
  0
LAYER
  2
MARKERPUNKTE
 70
64
 62
7
  6
CONTINUOUS
  0
LAYER
  2
HILFSPUNKTE
 70
64
 62
7
  6
CONTINUOUS
  0
LAYER
  2
PICKPUNKTE
 70
64
 62
7
  6
CONTINUOUS
  0
LAYER
  2
SCHRAUBEN
 70
64
 62
7
  6
CONTINUOUS
  0
LAYER
  2
SCHWEISSEN
 70
64
 62
7
  6
CONTINUOUS
  0
LAYER
  2
GRAFIK
 70
64
 62
7
  6
CONTINUOUS
  0
LAYER
  2
BEM_FREI
 70
64
 62
7
  6
CONTINUOUS
  0
LAYER
  2
BEM_SYSTEM
 70
64
 62
7
  6
CONTINUOUS
  0
LAYER
  2
BEM_KONTUR
 70
64
 62
7
  6
CONTINUOUS
  0
LAYER
  2
BEM_ANBAU
 70
64
 62
7
  6
CONTINUOUS
  0
LAYER
  2
BEM_SCHRAUBEN
 70
64
 62
7
  6
CONTINUOUS
  0
LAYER
  2
BEM_SCHWEISSEN
 70
64
 62
7
  6
CONTINUOUS
  0
LAYER
  2
FREIER_TEXT
 70
64
 62
7
  6
CONTINUOUS
  0
LAYER
  2
BEZ_TEILE
 70
64
 62
7
  6
CONTINUOUS
  0
LAYER
  2
BEZ_SCHRAUBEN
 70
64
 62
7
  6
CONTINUOUS
  0
LAYER
  2
BEZ_SCHWEISSEN
 70
64
 62
7
  6
CONTINUOUS
  0
LAYER
  2
SCHRAFFUREN
 70
64
 62
7
  6
CONTINUOUS
  0
LAYER
  2
SCHNITTSYMBOL
 70
64
 62
7
  6
CONTINUOUS
  0
LAYER
  2
RASTER
 70
64
 62
7
  6
CONTINUOUS
  0
LAYER
  2
LISTEN
 70
64
 62
7
  6
CONTINUOUS
  0
LAYER
  2
RAHMEN
 70
64
 62
7
  6
CONTINUOUS
  0
ENDTAB
  0
TABLE
  2
STYLE
 70
1
  0
STYLE
  2
STANDARD
 70
64
 40
0
 41
1
 50
0.0
 71
0
 42
0.35
  3
ROMANS
  0
ENDTAB
  0
ENDSEC
  0
SECTION
  2
ENTITIES
  0
TEXT
 8
UNTERSCHRIFT
 62
2
 10
86.000015
 20
77.250000
 40
3.250000
 41
0.800000
 51
15.000000
  1
Project  DP0GN9  ,Qty. 1  , Pos. 
  0
TEXT
 8
UNTERSCHRIFT
 62
2
 10
184.799988
 20
77.250000
 40
3.250000
 41
0.800000
 51
15.000000
  1
  , Profi l PL165*16
  0
TEXT
 8
UNTERSCHRIFT
 62
2
 10
171.800003
 20
77.250000
 40
3.250000
 41
0.800000
 51
15.000000
  1
30228
  0
LINE
  8
TEILE
 62
2
 10
328.000000
 20
52.499996
 11
328.000000
 21
-82.500000
  0
LINE
  8
TEILE
 62
2
 10
328.000000
 20
-82.500000
 11
0.000000
 21
-82.500000
  0
LINE
  8
TEILE
 62
2
 10
0.000000
 20
-82.500000
 11
0.000000
 21
52.499996
  0
LINE
  8
TEILE
 62
2
 10
0.000000
 20
52.499996
 11
1.624169
 21
52.543991
  0
LINE
  8
TEILE
 62
2
 10
1.624169
 20
52.543991
 11
3.243571
 21
52.675858
  0
LINE
  8
TEILE
 62
2
 10
3.243571
 20
52.675858
 11
4.853460
 21
52.895203
  0
LINE
  8
TEILE
 62
2
 10
4.853460
 20
52.895203
 11
6.449113
 21
53.201378
  0
LINE
  8
TEILE
 62
2
 10
6.449113
 20
53.201378
 11
8.025849
 21
53.593498
  0
LINE
  8
TEILE
 62
2
 10
8.025849
 20
53.593498
 11
9.579044
 21
54.070400
  0
LINE
  8
TEILE
 62
2
 10
9.579044
 20
54.070400
 11
11.104143
 21
54.630695
  0
LINE
  8
TEILE
 62
2
 10
11.104143
 20
54.630695
 11
12.596670
 21
55.272732
  0
LINE
  8
TEILE
 62
2
 10
12.596670
 20
55.272732
 11
14.052250
 21
55.994637
  0
LINE
  8
TEILE
 62
2
 10
14.052250
 20
55.994637
 11
15.466613
 21
56.794281
  0
LINE
  8
TEILE
 62
2
 10
15.466613
 20
56.794281
 11
16.835609
 21
57.669327
  0
LINE
  8
TEILE
 62
2
 10
16.835609
 20
57.669327
 11
18.155222
 21
58.617203
  0
LINE
  8
TEILE
 62
2
 10
18.155222
 20
58.617203
 11
19.421583
 21
59.635132
  0
LINE
  8
TEILE
 62
2
 10
19.421583
 20
59.635132
 11
20.630980
 21
60.720131
  0
LINE
  8
TEILE
 62
2
 10
20.630980
 20
60.720131
 11
21.779860
 21
61.869011
  0
LINE
  8
TEILE
 62
2
 10
21.779860
 20
61.869011
 11
22.864857
 21
63.078403
  0
LINE
  8
TEILE
 62
2
 10
22.864857
 20
63.078403
 11
23.882788
 21
64.344765
  0
LINE
  8
TEILE
 62
2
 10
23.882788
 20
64.344765
 11
24.830666
 21
65.664375
  0
LINE
  8
TEILE
 62
2
 10
24.830666
 20
65.664375
 11
25.705709
 21
67.033371
  0
LINE
  8
TEILE
 62
2
 10
25.705709
 20
67.033371
 11
26.505356
 21
68.447739
  0
LINE
  8
TEILE
 62
2
 10
26.505356
 20
68.447739
 11
27.227259
 21
69.903320
  0
LINE
  8
TEILE
 62
2
 10
27.227259
 20
69.903320
 11
27.869299
 21
71.395844
  0
LINE
  8
TEILE
 62
2
 10
27.869299
 20
71.395844
 11
28.429592
 21
72.920944
  0
LINE
  8
TEILE
 62
2
 10
28.429592
 20
72.920944
 11
28.906498
 21
74.474136
  0
LINE
  8
TEILE
 62
2
 10
28.906498
 20
74.474136
 11
29.298615
 21
76.050880
  0
LINE
  8
TEILE
 62
2
 10
29.298615
 20
76.050880
 11
29.604795
 21
77.646530
  0
LINE
  8
TEILE
 62
2
 10
29.604795
 20
77.646530
 11
29.824139
 21
79.256424
  0
LINE
  8
TEILE
 62
2
 10
29.824139
 20
79.256424
 11
29.956001
 21
80.875824
  0
LINE
  8
TEILE
 62
2
 10
29.956001
 20
80.875824
 11
30.000000
 21
82.499992
  0
LINE
  8
TEILE
 62
2
 10
30.000000
 20
82.499992
 11
30.000000
 21
82.500000
  0
LINE
  8
TEILE
 62
2
 10
30.000000
 20
82.500000
 11
298.000000
 21
82.500000
  0
LINE
  8
TEILE
 62
2
 10
298.000000
 20
82.500000
 11
298.044006
 21
80.875824
  0
LINE
  8
TEILE
 62
2
 10
298.044006
 20
80.875824
 11
298.175873
 21
79.256424
  0
LINE
  8
TEILE
 62
2
 10
298.175873
 20
79.256424
 11
298.395203
 21
77.646538
  0
LINE
  8
TEILE
 62
2
 10
298.395203
 20
77.646538
 11
298.701385
 21
76.050888
  0
LINE
  8
TEILE
 62
2
 10
298.701385
 20
76.050888
 11
299.093506
 21
74.474152
  0
LINE
  8
TEILE
 62
2
 10
299.093506
 20
74.474152
 11
299.570404
 21
72.920959
  0
LINE
  8
TEILE
 62
2
 10
299.570404
 20
72.920959
 11
300.130676
 21
71.395859
  0
LINE
  8
TEILE
 62
2
 10
300.130676
 20
71.395859
 11
300.772736
 21
69.903328
  0
LINE
  8
TEILE
 62
2
 10
300.772736
 20
69.903328
 11
301.494629
 21
68.447754
  0
LINE
  8
TEILE
 62
2
 10
301.494629
 20
68.447754
 11
302.294281
 21
67.033394
  0
LINE
  8
TEILE
 62
2
 10
302.294281
 20
67.033394
 11
303.169312
 21
65.664398
  0
LINE
  8
TEILE
 62
2
 10
303.169312
 20
65.664398
 11
304.117188
 21
64.344780
  0
LINE
  8
TEILE
 62
2
 10
304.117188
 20
64.344780
 11
305.135132
 21
63.078423
  0
LINE
  8
TEILE
 62
2
 10
305.135132
 20
63.078423
 11
306.220123
 21
61.869026
  0
LINE
  8
TEILE
 62
2
 10
306.220123
 20
61.869026
 11
307.369019
 21
60.720142
  0
LINE
  8
TEILE
 62
2
 10
307.369019
 20
60.720142
 11
308.578400
 21
59.635147
  0
LINE
  8
TEILE
 62
2
 10
308.578400
 20
59.635147
 11
309.844757
 21
58.617218
  0
LINE
  8
TEILE
 62
2
 10
309.844757
 20
58.617218
 11
311.164368
 21
57.669338
  0
LINE
  8
TEILE
 62
2
 10
311.164368
 20
57.669338
 11
312.533356
 21
56.794296
  0
LINE
  8
TEILE
 62
2
 10
312.533356
 20
56.794296
 11
313.947723
 21
55.994648
  0
LINE
  8
TEILE
 62
2
 10
313.947723
 20
55.994648
 11
315.403320
 21
55.272747
  0
LINE
  8
TEILE
 62
2
 10
315.403320
 20
55.272747
 11
316.895813
 21
54.630707
  0
LINE
  8
TEILE
 62
2
 10
316.895813
 20
54.630707
 11
318.420929
 21
54.070415
  0
LINE
  8
TEILE
 62
2
 10
318.420929
 20
54.070415
 11
319.974121
 21
53.593506
  0
LINE
  8
TEILE
 62
2
 10
319.974121
 20
53.593506
 11
321.550873
 21
53.201389
  0
LINE
  8
TEILE
 62
2
 10
321.550873
 20
53.201389
 11
323.146515
 21
52.895210
  0
LINE
  8
TEILE
 62
2
 10
323.146515
 20
52.895210
 11
324.756409
 21
52.675865
  0
LINE
  8
TEILE
 62
2
 10
324.756409
 20
52.675865
 11
326.375793
 21
52.544003
  0
LINE
  8
TEILE
 62
2
 10
326.375793
 20
52.544003
 11
327.999939
 21
52.500004
  0
LINE
  8
TEILE
 62
2
 10
327.999939
 20
52.500004
 11
328.000000
 21
52.499996
  0
ENDSEC
  0
EOF

