999
     *******************************************
999
     BOCAD Software GmbH   Rev.18.000   0202.22
999
     Filename:   c:\progetti21\danieli_aqs\b4\temp_11\30229.dxf
999
     Creator:    bocad
999
     Date:       20.01.2016
999
     Factor:     10.000000
999
     *******************************************
  0
SECTION
  2
HEADER
  9
$DWGCODEPAGE
  3
ANSI_1252
  9
$INSBASE
 10
0.0
 20
0.0
 30
0.0
  9
$EXTMIN
 10
-0.500000
 20
-80.501003
  9
$EXTMAX
 10
200.499916
 20
80.501003
  9
$LIMMIN
 10
-1.500000
 20
-81.501003
  9
$LIMMAX
 10
201.499916
 20
81.501003
  9
$LTSCALE
 40
10.000000
  0
ENDSEC
  0
SECTION
  2
TABLES
  0
TABLE
  2
LTYPE
 70
4
  0
LTYPE
  2
CONTINUOUS
 70
64
  3
____________________________________________
 72
65
 73
0
 40
0.0
  0
LTYPE
  2
HIDDEN
 70
64
  3
__ __ __ __ __ __ __ __ __ __ __ __ __ __ __
 72
65
 73
2
 40
0.50
 49
0.30
 49
-0.20
  0
LTYPE
  2
DASHDOT
 70
64
  3
____ _ ____ _ ____ _ ____ _ ____ _ ____ _ __
 72
65
 73
4
 40
2.0
 49
1.5
 49
-0.25
 49
0
 49
-0.25
  0
LTYPE
  2
DOT
 70
64
  3
............................................
 72
65
 73
2
 40
0.30
 49
0
 49
-0.30
  0
ENDTAB
  0
TABLE
  2
LAYER
 70
23
  0
LAYER
  2
SCHRAUBEN
 70
64
 62
7
  6
CONTINUOUS
  0
LAYER
  2
REST
 70
64
 62
7
  6
CONTINUOUS
  0
LAYER
  2
UNTERSCHRIFT
 70
64
 62
7
  6
CONTINUOUS
  0
LAYER
  2
TEILE
 70
64
 62
7
  6
CONTINUOUS
  0
LAYER
  2
BEZ_SCHRAUBEN
 70
64
 62
7
  6
CONTINUOUS
  0
LAYER
  2
MARKERPUNKTE
 70
64
 62
7
  6
CONTINUOUS
  0
LAYER
  2
HILFSPUNKTE
 70
64
 62
7
  6
CONTINUOUS
  0
LAYER
  2
PICKPUNKTE
 70
64
 62
7
  6
CONTINUOUS
  0
LAYER
  2
SCHWEISSEN
 70
64
 62
7
  6
CONTINUOUS
  0
LAYER
  2
GRAFIK
 70
64
 62
7
  6
CONTINUOUS
  0
LAYER
  2
BEM_FREI
 70
64
 62
7
  6
CONTINUOUS
  0
LAYER
  2
BEM_SYSTEM
 70
64
 62
7
  6
CONTINUOUS
  0
LAYER
  2
BEM_KONTUR
 70
64
 62
7
  6
CONTINUOUS
  0
LAYER
  2
BEM_ANBAU
 70
64
 62
7
  6
CONTINUOUS
  0
LAYER
  2
BEM_SCHRAUBEN
 70
64
 62
7
  6
CONTINUOUS
  0
LAYER
  2
BEM_SCHWEISSEN
 70
64
 62
7
  6
CONTINUOUS
  0
LAYER
  2
FREIER_TEXT
 70
64
 62
7
  6
CONTINUOUS
  0
LAYER
  2
BEZ_TEILE
 70
64
 62
7
  6
CONTINUOUS
  0
LAYER
  2
BEZ_SCHWEISSEN
 70
64
 62
7
  6
CONTINUOUS
  0
LAYER
  2
SCHRAFFUREN
 70
64
 62
7
  6
CONTINUOUS
  0
LAYER
  2
SCHNITTSYMBOL
 70
64
 62
7
  6
CONTINUOUS
  0
LAYER
  2
RASTER
 70
64
 62
7
  6
CONTINUOUS
  0
LAYER
  2
LISTEN
 70
64
 62
7
  6
CONTINUOUS
  0
LAYER
  2
RAHMEN
 70
64
 62
7
  6
CONTINUOUS
  0
ENDTAB
  0
TABLE
  2
STYLE
 70
1
  0
STYLE
  2
STANDARD
 70
64
 40
0
 41
1
 50
0.0
 71
0
 42
0.35
  3
ROMANS
  0
ENDTAB
  0
ENDSEC
  0
SECTION
  2
ENTITIES
  0
LINE
  8
SCHRAUBEN
 62
6
 10
104.399933
 20
-15.598957
 11
95.599937
 21
-24.398958
  0
LINE
  8
SCHRAUBEN
 62
6
 10
95.599937
 20
-15.598957
 11
104.399933
 21
-24.398958
  0
CIRCLE
  8
SCHRAUBEN
 62
2
 10
99.999931
 20
-19.998959
 40
11.000008
  0
LINE
  8
SCHRAUBEN
 62
6
 10
104.399933
 20
44.400982
 11
95.599937
 21
35.600983
  0
LINE
  8
SCHRAUBEN
 62
6
 10
95.599937
 20
44.400982
 11
104.399933
 21
35.600983
  0
CIRCLE
  8
SCHRAUBEN
 62
2
 10
99.999931
 20
40.000984
 40
11.000008
  0
TEXT
 8
UNTERSCHRIFT
 62
2
 10
20.699963
 20
-78.001007
 40
3.250000
 41
0.800000
 51
15.000000
  1
Project  DP0GN9  ,Qty. 40  , Pos. 
  0
TEXT
 8
UNTERSCHRIFT
 62
2
 10
122.099960
 20
-78.001007
 40
3.250000
 41
0.800000
 51
15.000000
  1
  , Profi l PL160*16
  0
TEXT
 8
UNTERSCHRIFT
 62
2
 10
109.099960
 20
-78.001007
 40
3.250000
 41
0.800000
 51
15.000000
  1
30229
  0
LINE
  8
TEILE
 62
2
 10
0.000000
 20
-80.000999
 11
0.000000
 21
-40.002331
  0
LINE
  8
TEILE
 62
2
 10
0.000000
 20
-40.002331
 11
65.000000
 21
80.000999
  0
LINE
  8
TEILE
 62
2
 10
65.000000
 20
80.000999
 11
134.999924
 21
80.000999
  0
LINE
  8
TEILE
 62
2
 10
134.999924
 20
80.000999
 11
199.999924
 21
-40.002331
  0
LINE
  8
TEILE
 62
2
 10
199.999924
 20
-40.002331
 11
199.999924
 21
-80.000999
  0
LINE
  8
TEILE
 62
2
 10
199.999924
 20
-80.000999
 11
0.000000
 21
-80.000999
  0
TEXT
 8
BEZ_SCHRAUBEN
 62
2
 10
91.999939
 20
-38.498959
 40
5.000000
 41
0.800000
 51
15.000000
  1
 ø22
  0
ENDSEC
  0
EOF

