999
     *******************************************
999
     BOCAD Software GmbH   Rev.18.000   0202.22
999
     Filename:   c:\progetti21\danieli_aqs\b4\temp_11\30223.dxf
999
     Creator:    bocad
999
     Date:       20.01.2016
999
     Factor:     10.000000
999
     *******************************************
  0
SECTION
  2
HEADER
  9
$DWGCODEPAGE
  3
ANSI_1252
  9
$INSBASE
 10
0.0
 20
0.0
 30
0.0
  9
$EXTMIN
 10
-0.500000
 20
-88.000002
  9
$EXTMAX
 10
339.500046
 20
88.000011
  9
$LIMMIN
 10
-1.500000
 20
-89.000002
  9
$LIMMAX
 10
340.500046
 20
89.000011
  9
$LTSCALE
 40
10.000000
  0
ENDSEC
  0
SECTION
  2
TABLES
  0
TABLE
  2
LTYPE
 70
4
  0
LTYPE
  2
CONTINUOUS
 70
64
  3
____________________________________________
 72
65
 73
0
 40
0.0
  0
LTYPE
  2
HIDDEN
 70
64
  3
__ __ __ __ __ __ __ __ __ __ __ __ __ __ __
 72
65
 73
2
 40
0.50
 49
0.30
 49
-0.20
  0
LTYPE
  2
DASHDOT
 70
64
  3
____ _ ____ _ ____ _ ____ _ ____ _ ____ _ __
 72
65
 73
4
 40
2.0
 49
1.5
 49
-0.25
 49
0
 49
-0.25
  0
LTYPE
  2
DOT
 70
64
  3
............................................
 72
65
 73
2
 40
0.30
 49
0
 49
-0.30
  0
ENDTAB
  0
TABLE
  2
LAYER
 70
23
  0
LAYER
  2
UNTERSCHRIFT
 70
64
 62
7
  6
CONTINUOUS
  0
LAYER
  2
TEILE
 70
64
 62
7
  6
CONTINUOUS
  0
LAYER
  2
REST
 70
64
 62
7
  6
CONTINUOUS
  0
LAYER
  2
MARKERPUNKTE
 70
64
 62
7
  6
CONTINUOUS
  0
LAYER
  2
HILFSPUNKTE
 70
64
 62
7
  6
CONTINUOUS
  0
LAYER
  2
PICKPUNKTE
 70
64
 62
7
  6
CONTINUOUS
  0
LAYER
  2
SCHRAUBEN
 70
64
 62
7
  6
CONTINUOUS
  0
LAYER
  2
SCHWEISSEN
 70
64
 62
7
  6
CONTINUOUS
  0
LAYER
  2
GRAFIK
 70
64
 62
7
  6
CONTINUOUS
  0
LAYER
  2
BEM_FREI
 70
64
 62
7
  6
CONTINUOUS
  0
LAYER
  2
BEM_SYSTEM
 70
64
 62
7
  6
CONTINUOUS
  0
LAYER
  2
BEM_KONTUR
 70
64
 62
7
  6
CONTINUOUS
  0
LAYER
  2
BEM_ANBAU
 70
64
 62
7
  6
CONTINUOUS
  0
LAYER
  2
BEM_SCHRAUBEN
 70
64
 62
7
  6
CONTINUOUS
  0
LAYER
  2
BEM_SCHWEISSEN
 70
64
 62
7
  6
CONTINUOUS
  0
LAYER
  2
FREIER_TEXT
 70
64
 62
7
  6
CONTINUOUS
  0
LAYER
  2
BEZ_TEILE
 70
64
 62
7
  6
CONTINUOUS
  0
LAYER
  2
BEZ_SCHRAUBEN
 70
64
 62
7
  6
CONTINUOUS
  0
LAYER
  2
BEZ_SCHWEISSEN
 70
64
 62
7
  6
CONTINUOUS
  0
LAYER
  2
SCHRAFFUREN
 70
64
 62
7
  6
CONTINUOUS
  0
LAYER
  2
SCHNITTSYMBOL
 70
64
 62
7
  6
CONTINUOUS
  0
LAYER
  2
RASTER
 70
64
 62
7
  6
CONTINUOUS
  0
LAYER
  2
LISTEN
 70
64
 62
7
  6
CONTINUOUS
  0
LAYER
  2
RAHMEN
 70
64
 62
7
  6
CONTINUOUS
  0
ENDTAB
  0
TABLE
  2
STYLE
 70
1
  0
STYLE
  2
STANDARD
 70
64
 40
0
 41
1
 50
0.0
 71
0
 42
0.35
  3
ROMANS
  0
ENDTAB
  0
ENDSEC
  0
SECTION
  2
ENTITIES
  0
TEXT
 8
UNTERSCHRIFT
 62
2
 10
91.500008
 20
-85.500000
 40
3.250000
 41
0.800000
 51
15.000000
  1
Project  DP0GN9  ,Qty. 2  , Pos. 
  0
TEXT
 8
UNTERSCHRIFT
 62
2
 10
190.299988
 20
-85.500000
 40
3.250000
 41
0.800000
 51
15.000000
  1
  , Profi l PL175*16
  0
TEXT
 8
UNTERSCHRIFT
 62
2
 10
177.299988
 20
-85.500000
 40
3.250000
 41
0.800000
 51
15.000000
  1
30223
  0
LINE
  8
TEILE
 62
2
 10
30.000000
 20
87.500000
 11
309.000000
 21
87.500000
  0
LINE
  8
TEILE
 62
2
 10
309.000000
 20
87.500000
 11
309.041107
 21
85.929916
  0
LINE
  8
TEILE
 62
2
 10
309.041107
 20
85.929916
 11
309.164368
 21
84.364136
  0
LINE
  8
TEILE
 62
2
 10
309.164368
 20
84.364136
 11
309.369354
 21
82.806961
  0
LINE
  8
TEILE
 62
2
 10
309.369354
 20
82.806961
 11
309.655579
 21
81.262650
  0
LINE
  8
TEILE
 62
2
 10
309.655579
 20
81.262650
 11
310.022247
 21
79.735428
  0
LINE
  8
TEILE
 62
2
 10
310.022247
 20
79.735428
 11
310.468323
 21
78.229492
  0
LINE
  8
TEILE
 62
2
 10
310.468323
 20
78.229492
 11
310.992584
 21
76.748962
  0
LINE
  8
TEILE
 62
2
 10
310.992584
 20
76.748962
 11
311.593658
 21
75.297905
  0
LINE
  8
TEILE
 62
2
 10
311.593658
 20
75.297905
 11
312.269806
 21
73.880287
  0
LINE
  8
TEILE
 62
2
 10
312.269806
 20
73.880287
 11
313.019226
 21
72.500008
  0
LINE
  8
TEILE
 62
2
 10
313.019226
 20
72.500008
 11
313.839874
 21
71.160828
  0
LINE
  8
TEILE
 62
2
 10
313.839874
 20
71.160828
 11
314.729492
 21
69.866447
  0
LINE
  8
TEILE
 62
2
 10
314.729492
 20
69.866447
 11
315.685608
 21
68.620392
  0
LINE
  8
TEILE
 62
2
 10
315.685608
 20
68.620392
 11
316.705658
 21
67.426086
  0
LINE
  8
TEILE
 62
2
 10
316.705658
 20
67.426086
 11
317.786804
 21
66.286804
  0
LINE
  8
TEILE
 62
2
 10
317.786804
 20
66.286804
 11
318.926056
 21
65.205658
  0
LINE
  8
TEILE
 62
2
 10
318.926056
 20
65.205658
 11
320.120392
 21
64.185623
  0
LINE
  8
TEILE
 62
2
 10
320.120392
 20
64.185623
 11
321.366425
 21
63.229488
  0
LINE
  8
TEILE
 62
2
 10
321.366425
 20
63.229488
 11
322.660828
 21
62.339878
  0
LINE
  8
TEILE
 62
2
 10
322.660828
 20
62.339878
 11
324.000000
 21
61.519234
  0
LINE
  8
TEILE
 62
2
 10
324.000000
 20
61.519234
 11
325.380280
 21
60.769791
  0
LINE
  8
TEILE
 62
2
 10
325.380280
 20
60.769791
 11
326.797913
 21
60.093620
  0
LINE
  8
TEILE
 62
2
 10
326.797913
 20
60.093620
 11
328.248962
 21
59.492569
  0
LINE
  8
TEILE
 62
2
 10
328.248962
 20
59.492569
 11
329.729492
 21
58.968285
  0
LINE
  8
TEILE
 62
2
 10
329.729492
 20
58.968285
 11
331.235474
 21
58.522205
  0
LINE
  8
TEILE
 62
2
 10
331.235474
 20
58.522205
 11
332.762695
 21
58.155552
  0
LINE
  8
TEILE
 62
2
 10
332.762695
 20
58.155552
 11
334.306976
 21
57.869331
  0
LINE
  8
TEILE
 62
2
 10
334.306976
 20
57.869331
 11
335.864197
 21
57.664322
  0
LINE
  8
TEILE
 62
2
 10
335.864197
 20
57.664322
 11
337.429962
 21
57.541092
  0
LINE
  8
TEILE
 62
2
 10
337.429962
 20
57.541092
 11
339.000061
 21
57.499985
  0
LINE
  8
TEILE
 62
2
 10
339.000061
 20
57.499985
 11
339.000000
 21
57.499996
  0
LINE
  8
TEILE
 62
2
 10
339.000000
 20
57.499996
 11
339.000000
 21
-87.500000
  0
LINE
  8
TEILE
 62
2
 10
339.000000
 20
-87.500000
 11
0.000000
 21
-87.500000
  0
LINE
  8
TEILE
 62
2
 10
0.000000
 20
-87.500000
 11
0.000000
 21
57.499996
  0
LINE
  8
TEILE
 62
2
 10
0.000000
 20
57.499996
 11
1.570078
 21
57.541107
  0
LINE
  8
TEILE
 62
2
 10
1.570078
 20
57.541107
 11
3.135855
 21
57.664337
  0
LINE
  8
TEILE
 62
2
 10
3.135855
 20
57.664337
 11
4.693036
 21
57.869343
  0
LINE
  8
TEILE
 62
2
 10
4.693036
 20
57.869343
 11
6.237354
 21
58.155563
  0
LINE
  8
TEILE
 62
2
 10
6.237354
 20
58.155563
 11
7.764577
 21
58.522221
  0
LINE
  8
TEILE
 62
2
 10
7.764577
 20
58.522221
 11
9.270516
 21
58.968300
  0
LINE
  8
TEILE
 62
2
 10
9.270516
 20
58.968300
 11
10.751047
 21
59.492584
  0
LINE
  8
TEILE
 62
2
 10
10.751047
 20
59.492584
 11
12.202109
 21
60.093632
  0
LINE
  8
TEILE
 62
2
 10
12.202109
 20
60.093632
 11
13.619726
 21
60.769802
  0
LINE
  8
TEILE
 62
2
 10
13.619726
 20
60.769802
 11
15.000011
 21
61.519238
  0
LINE
  8
TEILE
 62
2
 10
15.000011
 20
61.519238
 11
16.339184
 21
62.339882
  0
LINE
  8
TEILE
 62
2
 10
16.339184
 20
62.339882
 11
17.633570
 21
63.229488
  0
LINE
  8
TEILE
 62
2
 10
17.633570
 20
63.229488
 11
18.879625
 21
64.185623
  0
LINE
  8
TEILE
 62
2
 10
18.879625
 20
64.185623
 11
20.073929
 21
65.205658
  0
LINE
  8
TEILE
 62
2
 10
20.073929
 20
65.205658
 11
21.213215
 21
66.286797
  0
LINE
  8
TEILE
 62
2
 10
21.213215
 20
66.286797
 11
22.294353
 21
67.426086
  0
LINE
  8
TEILE
 62
2
 10
22.294353
 20
67.426086
 11
23.314390
 21
68.620392
  0
LINE
  8
TEILE
 62
2
 10
23.314390
 20
68.620392
 11
24.270519
 21
69.866440
  0
LINE
  8
TEILE
 62
2
 10
24.270519
 20
69.866440
 11
25.160126
 21
71.160828
  0
LINE
  8
TEILE
 62
2
 10
25.160126
 20
71.160828
 11
25.980770
 21
72.500000
  0
LINE
  8
TEILE
 62
2
 10
25.980770
 20
72.500000
 11
26.730204
 21
73.880287
  0
LINE
  8
TEILE
 62
2
 10
26.730204
 20
73.880287
 11
27.406370
 21
75.297905
  0
LINE
  8
TEILE
 62
2
 10
27.406370
 20
75.297905
 11
28.007420
 21
76.748970
  0
LINE
  8
TEILE
 62
2
 10
28.007420
 20
76.748970
 11
28.531702
 21
78.229492
  0
LINE
  8
TEILE
 62
2
 10
28.531702
 20
78.229492
 11
28.977779
 21
79.735435
  0
LINE
  8
TEILE
 62
2
 10
28.977779
 20
79.735435
 11
29.344435
 21
81.262657
  0
LINE
  8
TEILE
 62
2
 10
29.344435
 20
81.262657
 11
29.630657
 21
82.806969
  0
LINE
  8
TEILE
 62
2
 10
29.630657
 20
82.806969
 11
29.835661
 21
84.364159
  0
LINE
  8
TEILE
 62
2
 10
29.835661
 20
84.364159
 11
29.958889
 21
85.929932
  0
LINE
  8
TEILE
 62
2
 10
29.958889
 20
85.929932
 11
30.000002
 21
87.500008
  0
LINE
  8
TEILE
 62
2
 10
30.000002
 20
87.500008
 11
30.000000
 21
87.500000
  0
ENDSEC
  0
EOF

