999
     *******************************************
999
     BOCAD Software GmbH   Rev.18.000   0202.22
999
     Filename:   c:\progetti21\danieli_aqs\b4\temp_11\30237.dxf
999
     Creator:    bocad
999
     Date:       20.01.2016
999
     Factor:     10.000000
999
     *******************************************
  0
SECTION
  2
HEADER
  9
$DWGCODEPAGE
  3
ANSI_1252
  9
$INSBASE
 10
0.0
 20
0.0
 30
0.0
  9
$EXTMIN
 10
-0.500000
 20
-200.499992
  9
$EXTMAX
 10
3060.503235
 20
200.499992
  9
$LIMMIN
 10
-1.500000
 20
-201.499992
  9
$LIMMAX
 10
3061.503235
 20
201.499992
  9
$LTSCALE
 40
10.000000
  0
ENDSEC
  0
SECTION
  2
TABLES
  0
TABLE
  2
LTYPE
 70
4
  0
LTYPE
  2
CONTINUOUS
 70
64
  3
____________________________________________
 72
65
 73
0
 40
0.0
  0
LTYPE
  2
HIDDEN
 70
64
  3
__ __ __ __ __ __ __ __ __ __ __ __ __ __ __
 72
65
 73
2
 40
0.50
 49
0.30
 49
-0.20
  0
LTYPE
  2
DASHDOT
 70
64
  3
____ _ ____ _ ____ _ ____ _ ____ _ ____ _ __
 72
65
 73
4
 40
2.0
 49
1.5
 49
-0.25
 49
0
 49
-0.25
  0
LTYPE
  2
DOT
 70
64
  3
............................................
 72
65
 73
2
 40
0.30
 49
0
 49
-0.30
  0
ENDTAB
  0
TABLE
  2
LAYER
 70
23
  0
LAYER
  2
SCHRAUBEN
 70
64
 62
7
  6
CONTINUOUS
  0
LAYER
  2
REST
 70
64
 62
7
  6
CONTINUOUS
  0
LAYER
  2
UNTERSCHRIFT
 70
64
 62
7
  6
CONTINUOUS
  0
LAYER
  2
TEILE
 70
64
 62
7
  6
CONTINUOUS
  0
LAYER
  2
BEZ_SCHRAUBEN
 70
64
 62
7
  6
CONTINUOUS
  0
LAYER
  2
MARKERPUNKTE
 70
64
 62
7
  6
CONTINUOUS
  0
LAYER
  2
HILFSPUNKTE
 70
64
 62
7
  6
CONTINUOUS
  0
LAYER
  2
PICKPUNKTE
 70
64
 62
7
  6
CONTINUOUS
  0
LAYER
  2
SCHWEISSEN
 70
64
 62
7
  6
CONTINUOUS
  0
LAYER
  2
GRAFIK
 70
64
 62
7
  6
CONTINUOUS
  0
LAYER
  2
BEM_FREI
 70
64
 62
7
  6
CONTINUOUS
  0
LAYER
  2
BEM_SYSTEM
 70
64
 62
7
  6
CONTINUOUS
  0
LAYER
  2
BEM_KONTUR
 70
64
 62
7
  6
CONTINUOUS
  0
LAYER
  2
BEM_ANBAU
 70
64
 62
7
  6
CONTINUOUS
  0
LAYER
  2
BEM_SCHRAUBEN
 70
64
 62
7
  6
CONTINUOUS
  0
LAYER
  2
BEM_SCHWEISSEN
 70
64
 62
7
  6
CONTINUOUS
  0
LAYER
  2
FREIER_TEXT
 70
64
 62
7
  6
CONTINUOUS
  0
LAYER
  2
BEZ_TEILE
 70
64
 62
7
  6
CONTINUOUS
  0
LAYER
  2
BEZ_SCHWEISSEN
 70
64
 62
7
  6
CONTINUOUS
  0
LAYER
  2
SCHRAFFUREN
 70
64
 62
7
  6
CONTINUOUS
  0
LAYER
  2
SCHNITTSYMBOL
 70
64
 62
7
  6
CONTINUOUS
  0
LAYER
  2
RASTER
 70
64
 62
7
  6
CONTINUOUS
  0
LAYER
  2
LISTEN
 70
64
 62
7
  6
CONTINUOUS
  0
LAYER
  2
RAHMEN
 70
64
 62
7
  6
CONTINUOUS
  0
ENDTAB
  0
TABLE
  2
STYLE
 70
1
  0
STYLE
  2
STANDARD
 70
64
 40
0
 41
1
 50
0.0
 71
0
 42
0.35
  3
ROMANS
  0
ENDTAB
  0
ENDSEC
  0
SECTION
  2
ENTITIES
  0
LINE
  8
SCHRAUBEN
 62
6
 10
440.803101
 20
-74.199966
 11
429.203064
 21
-85.799973
  0
LINE
  8
SCHRAUBEN
 62
6
 10
429.203064
 20
-74.199966
 11
440.803101
 21
-85.799973
  0
CIRCLE
  8
SCHRAUBEN
 62
2
 10
435.003082
 20
-79.999969
 40
14.500031
  0
LINE
  8
SCHRAUBEN
 62
6
 10
355.803101
 20
-74.199966
 11
344.203064
 21
-85.799973
  0
LINE
  8
SCHRAUBEN
 62
6
 10
344.203064
 20
-74.199966
 11
355.803101
 21
-85.799973
  0
CIRCLE
  8
SCHRAUBEN
 62
2
 10
350.003082
 20
-79.999969
 40
14.500031
  0
LINE
  8
SCHRAUBEN
 62
6
 10
355.803101
 20
85.800034
 11
344.203064
 21
74.200043
  0
LINE
  8
SCHRAUBEN
 62
6
 10
344.203064
 20
85.800034
 11
355.803101
 21
74.200043
  0
CIRCLE
  8
SCHRAUBEN
 62
2
 10
350.003082
 20
80.000038
 40
14.500031
  0
LINE
  8
SCHRAUBEN
 62
6
 10
440.803101
 20
85.800034
 11
429.203064
 21
74.200043
  0
LINE
  8
SCHRAUBEN
 62
6
 10
429.203064
 20
85.800034
 11
440.803101
 21
74.200043
  0
CIRCLE
  8
SCHRAUBEN
 62
2
 10
435.003082
 20
80.000038
 40
14.500031
  0
LINE
  8
SCHRAUBEN
 62
6
 10
215.803070
 20
85.800034
 11
204.203064
 21
74.200043
  0
LINE
  8
SCHRAUBEN
 62
6
 10
204.203064
 20
85.800034
 11
215.803070
 21
74.200043
  0
CIRCLE
  8
SCHRAUBEN
 62
2
 10
210.003067
 20
80.000038
 40
14.500015
  0
LINE
  8
SCHRAUBEN
 62
6
 10
130.803070
 20
85.800034
 11
119.203072
 21
74.200043
  0
LINE
  8
SCHRAUBEN
 62
6
 10
119.203072
 20
85.800034
 11
130.803070
 21
74.200043
  0
CIRCLE
  8
SCHRAUBEN
 62
2
 10
125.003067
 20
80.000038
 40
14.500000
  0
LINE
  8
SCHRAUBEN
 62
6
 10
130.803070
 20
-74.199966
 11
119.203072
 21
-85.799973
  0
LINE
  8
SCHRAUBEN
 62
6
 10
119.203072
 20
-74.199966
 11
130.803070
 21
-85.799973
  0
CIRCLE
  8
SCHRAUBEN
 62
2
 10
125.003067
 20
-79.999969
 40
14.500000
  0
LINE
  8
SCHRAUBEN
 62
6
 10
215.803070
 20
-74.199966
 11
204.203064
 21
-85.799973
  0
LINE
  8
SCHRAUBEN
 62
6
 10
204.203064
 20
-74.199966
 11
215.803070
 21
-85.799973
  0
CIRCLE
  8
SCHRAUBEN
 62
2
 10
210.003067
 20
-79.999969
 40
14.500015
  0
LINE
  8
SCHRAUBEN
 62
6
 10
570.798035
 20
85.800018
 11
559.197998
 21
74.200020
  0
LINE
  8
SCHRAUBEN
 62
6
 10
559.197998
 20
85.800018
 11
570.798035
 21
74.200020
  0
CIRCLE
  8
SCHRAUBEN
 62
2
 10
564.998047
 20
80.000015
 40
14.500000
  0
LINE
  8
SCHRAUBEN
 62
6
 10
700.798035
 20
85.800018
 11
689.197998
 21
74.200020
  0
LINE
  8
SCHRAUBEN
 62
6
 10
689.197998
 20
85.800018
 11
700.798035
 21
74.200020
  0
CIRCLE
  8
SCHRAUBEN
 62
2
 10
694.998047
 20
80.000015
 40
14.499939
  0
LINE
  8
SCHRAUBEN
 62
6
 10
700.798035
 20
-74.199951
 11
689.197998
 21
-85.799950
  0
LINE
  8
SCHRAUBEN
 62
6
 10
689.197998
 20
-74.199951
 11
700.798035
 21
-85.799950
  0
CIRCLE
  8
SCHRAUBEN
 62
2
 10
694.998047
 20
-79.999947
 40
14.499939
  0
LINE
  8
SCHRAUBEN
 62
6
 10
570.798035
 20
-74.199951
 11
559.197998
 21
-85.799950
  0
LINE
  8
SCHRAUBEN
 62
6
 10
559.197998
 20
-74.199951
 11
570.798035
 21
-85.799950
  0
CIRCLE
  8
SCHRAUBEN
 62
2
 10
564.998047
 20
-79.999947
 40
14.500000
  0
LINE
  8
SCHRAUBEN
 62
6
 10
2935.802979
 20
-74.199966
 11
2924.203125
 21
-85.799973
  0
LINE
  8
SCHRAUBEN
 62
6
 10
2924.203125
 20
-74.199966
 11
2935.802979
 21
-85.799973
  0
CIRCLE
  8
SCHRAUBEN
 62
2
 10
2930.002930
 20
-79.999969
 40
14.500244
  0
LINE
  8
SCHRAUBEN
 62
6
 10
2855.802979
 20
-74.199966
 11
2844.203125
 21
-85.799973
  0
LINE
  8
SCHRAUBEN
 62
6
 10
2844.203125
 20
-74.199966
 11
2855.802979
 21
-85.799973
  0
CIRCLE
  8
SCHRAUBEN
 62
2
 10
2850.002930
 20
-79.999969
 40
14.500244
  0
LINE
  8
SCHRAUBEN
 62
6
 10
2855.802979
 20
85.800034
 11
2844.203125
 21
74.200043
  0
LINE
  8
SCHRAUBEN
 62
6
 10
2844.203125
 20
85.800034
 11
2855.802979
 21
74.200043
  0
CIRCLE
  8
SCHRAUBEN
 62
2
 10
2850.002930
 20
80.000038
 40
14.500244
  0
LINE
  8
SCHRAUBEN
 62
6
 10
2935.802979
 20
85.800034
 11
2924.203125
 21
74.200043
  0
LINE
  8
SCHRAUBEN
 62
6
 10
2924.203125
 20
85.800034
 11
2935.802979
 21
74.200043
  0
CIRCLE
  8
SCHRAUBEN
 62
2
 10
2930.002930
 20
80.000038
 40
14.500244
  0
LINE
  8
SCHRAUBEN
 62
6
 10
2715.802979
 20
85.800034
 11
2704.203125
 21
74.200043
  0
LINE
  8
SCHRAUBEN
 62
6
 10
2704.203125
 20
85.800034
 11
2715.802979
 21
74.200043
  0
CIRCLE
  8
SCHRAUBEN
 62
2
 10
2710.002930
 20
80.000038
 40
14.500244
  0
LINE
  8
SCHRAUBEN
 62
6
 10
2635.802979
 20
85.800034
 11
2624.203125
 21
74.200043
  0
LINE
  8
SCHRAUBEN
 62
6
 10
2624.203125
 20
85.800034
 11
2635.802979
 21
74.200043
  0
CIRCLE
  8
SCHRAUBEN
 62
2
 10
2630.002930
 20
80.000038
 40
14.500244
  0
LINE
  8
SCHRAUBEN
 62
6
 10
2635.802979
 20
-74.199966
 11
2624.203125
 21
-85.799973
  0
LINE
  8
SCHRAUBEN
 62
6
 10
2624.203125
 20
-74.199966
 11
2635.802979
 21
-85.799973
  0
CIRCLE
  8
SCHRAUBEN
 62
2
 10
2630.002930
 20
-79.999969
 40
14.500244
  0
LINE
  8
SCHRAUBEN
 62
6
 10
2715.802979
 20
-74.199966
 11
2704.203125
 21
-85.799973
  0
LINE
  8
SCHRAUBEN
 62
6
 10
2704.203125
 20
-74.199966
 11
2715.802979
 21
-85.799973
  0
CIRCLE
  8
SCHRAUBEN
 62
2
 10
2710.002930
 20
-79.999969
 40
14.500244
  0
TEXT
 8
UNTERSCHRIFT
 62
2
 10
1452.001709
 20
-198.000000
 40
3.250000
 41
0.800000
 51
15.000000
  1
Project  DP0GN9  ,Qty. 3  , Pos. 
  0
TEXT
 8
UNTERSCHRIFT
 62
2
 10
1550.801758
 20
-198.000000
 40
3.250000
 41
0.800000
 51
15.000000
  1
  , Profi l PL400*25
  0
TEXT
 8
UNTERSCHRIFT
 62
2
 10
1537.801636
 20
-198.000000
 40
3.250000
 41
0.800000
 51
15.000000
  1
30237
  0
LINE
  8
TEILE
 62
2
 10
-0.000000
 20
-200.000000
 11
-0.000000
 21
200.000000
  0
LINE
  8
TEILE
 62
2
 10
-0.000000
 20
200.000000
 11
3060.003418
 21
200.000000
  0
LINE
  8
TEILE
 62
2
 10
3060.003418
 20
200.000000
 11
3060.003418
 21
-200.000000
  0
LINE
  8
TEILE
 62
2
 10
3060.003418
 20
-200.000000
 11
-0.000000
 21
-200.000000
  0
TEXT
 8
BEZ_SCHRAUBEN
 62
2
 10
427.003113
 20
-101.999969
 40
5.000000
 41
0.800000
 51
15.000000
  1
 ø29
  0
ENDSEC
  0
EOF

