999
     *******************************************
999
     BOCAD Software GmbH   Rev.18.000   0202.22
999
     Filename:   c:\progetti21\danieli_aqs\b4\temp_11\30232.dxf
999
     Creator:    bocad
999
     Date:       20.01.2016
999
     Factor:     10.000000
999
     *******************************************
  0
SECTION
  2
HEADER
  9
$DWGCODEPAGE
  3
ANSI_1252
  9
$INSBASE
 10
0.0
 20
0.0
 30
0.0
  9
$EXTMIN
 10
-0.500000
 20
-25.500000
  9
$EXTMAX
 10
380.499992
 20
25.500000
  9
$LIMMIN
 10
-1.500000
 20
-26.500000
  9
$LIMMAX
 10
381.499992
 20
26.500000
  9
$LTSCALE
 40
10.000000
  0
ENDSEC
  0
SECTION
  2
TABLES
  0
TABLE
  2
LTYPE
 70
4
  0
LTYPE
  2
CONTINUOUS
 70
64
  3
____________________________________________
 72
65
 73
0
 40
0.0
  0
LTYPE
  2
HIDDEN
 70
64
  3
__ __ __ __ __ __ __ __ __ __ __ __ __ __ __
 72
65
 73
2
 40
0.50
 49
0.30
 49
-0.20
  0
LTYPE
  2
DASHDOT
 70
64
  3
____ _ ____ _ ____ _ ____ _ ____ _ ____ _ __
 72
65
 73
4
 40
2.0
 49
1.5
 49
-0.25
 49
0
 49
-0.25
  0
LTYPE
  2
DOT
 70
64
  3
............................................
 72
65
 73
2
 40
0.30
 49
0
 49
-0.30
  0
ENDTAB
  0
TABLE
  2
LAYER
 70
23
  0
LAYER
  2
SCHRAUBEN
 70
64
 62
7
  6
CONTINUOUS
  0
LAYER
  2
REST
 70
64
 62
7
  6
CONTINUOUS
  0
LAYER
  2
UNTERSCHRIFT
 70
64
 62
7
  6
CONTINUOUS
  0
LAYER
  2
TEILE
 70
64
 62
7
  6
CONTINUOUS
  0
LAYER
  2
BEZ_SCHRAUBEN
 70
64
 62
7
  6
CONTINUOUS
  0
LAYER
  2
MARKERPUNKTE
 70
64
 62
7
  6
CONTINUOUS
  0
LAYER
  2
HILFSPUNKTE
 70
64
 62
7
  6
CONTINUOUS
  0
LAYER
  2
PICKPUNKTE
 70
64
 62
7
  6
CONTINUOUS
  0
LAYER
  2
SCHWEISSEN
 70
64
 62
7
  6
CONTINUOUS
  0
LAYER
  2
GRAFIK
 70
64
 62
7
  6
CONTINUOUS
  0
LAYER
  2
BEM_FREI
 70
64
 62
7
  6
CONTINUOUS
  0
LAYER
  2
BEM_SYSTEM
 70
64
 62
7
  6
CONTINUOUS
  0
LAYER
  2
BEM_KONTUR
 70
64
 62
7
  6
CONTINUOUS
  0
LAYER
  2
BEM_ANBAU
 70
64
 62
7
  6
CONTINUOUS
  0
LAYER
  2
BEM_SCHRAUBEN
 70
64
 62
7
  6
CONTINUOUS
  0
LAYER
  2
BEM_SCHWEISSEN
 70
64
 62
7
  6
CONTINUOUS
  0
LAYER
  2
FREIER_TEXT
 70
64
 62
7
  6
CONTINUOUS
  0
LAYER
  2
BEZ_TEILE
 70
64
 62
7
  6
CONTINUOUS
  0
LAYER
  2
BEZ_SCHWEISSEN
 70
64
 62
7
  6
CONTINUOUS
  0
LAYER
  2
SCHRAFFUREN
 70
64
 62
7
  6
CONTINUOUS
  0
LAYER
  2
SCHNITTSYMBOL
 70
64
 62
7
  6
CONTINUOUS
  0
LAYER
  2
RASTER
 70
64
 62
7
  6
CONTINUOUS
  0
LAYER
  2
LISTEN
 70
64
 62
7
  6
CONTINUOUS
  0
LAYER
  2
RAHMEN
 70
64
 62
7
  6
CONTINUOUS
  0
ENDTAB
  0
TABLE
  2
STYLE
 70
1
  0
STYLE
  2
STANDARD
 70
64
 40
0
 41
1
 50
0.0
 71
0
 42
0.35
  3
ROMANS
  0
ENDTAB
  0
ENDSEC
  0
SECTION
  2
ENTITIES
  0
LINE
  8
SCHRAUBEN
 62
6
 10
117.200005
 20
2.200000
 11
112.799995
 21
-2.200000
  0
LINE
  8
SCHRAUBEN
 62
6
 10
112.799995
 20
2.200000
 11
117.200005
 21
-2.200000
  0
CIRCLE
  8
SCHRAUBEN
 62
4
 10
115.000000
 20
0.000000
 40
5.500000
  0
LINE
  8
SCHRAUBEN
 62
6
 10
147.199997
 20
2.200000
 11
142.800003
 21
-2.200000
  0
LINE
  8
SCHRAUBEN
 62
6
 10
142.800003
 20
2.200000
 11
147.199997
 21
-2.200000
  0
CIRCLE
  8
SCHRAUBEN
 62
4
 10
145.000000
 20
0.000000
 40
5.500000
  0
LINE
  8
SCHRAUBEN
 62
6
 10
177.199997
 20
2.200000
 11
172.800003
 21
-2.200000
  0
LINE
  8
SCHRAUBEN
 62
6
 10
172.800003
 20
2.200000
 11
177.199997
 21
-2.200000
  0
CIRCLE
  8
SCHRAUBEN
 62
4
 10
175.000000
 20
0.000000
 40
5.500000
  0
LINE
  8
SCHRAUBEN
 62
6
 10
207.199997
 20
2.200000
 11
202.800003
 21
-2.200000
  0
LINE
  8
SCHRAUBEN
 62
6
 10
202.800003
 20
2.200000
 11
207.199997
 21
-2.200000
  0
CIRCLE
  8
SCHRAUBEN
 62
4
 10
205.000000
 20
0.000000
 40
5.500000
  0
LINE
  8
SCHRAUBEN
 62
6
 10
237.199997
 20
2.200000
 11
232.800003
 21
-2.200000
  0
LINE
  8
SCHRAUBEN
 62
6
 10
232.800003
 20
2.200000
 11
237.199997
 21
-2.200000
  0
CIRCLE
  8
SCHRAUBEN
 62
4
 10
235.000000
 20
0.000000
 40
5.500000
  0
LINE
  8
SCHRAUBEN
 62
6
 10
267.199982
 20
2.200000
 11
262.800018
 21
-2.200000
  0
LINE
  8
SCHRAUBEN
 62
6
 10
262.800018
 20
2.200000
 11
267.199982
 21
-2.200000
  0
CIRCLE
  8
SCHRAUBEN
 62
4
 10
265.000000
 20
0.000000
 40
5.500000
  0
TEXT
 8
UNTERSCHRIFT
 62
2
 10
113.300003
 20
-23.000000
 40
3.250000
 41
0.800000
 51
15.000000
  1
Project  DP0GN9  ,Qty. 10  , Pos. 
  0
TEXT
 8
UNTERSCHRIFT
 62
2
 10
214.699997
 20
-23.000000
 40
3.250000
 41
0.800000
 51
15.000000
  1
  , Profi l PL50*5
  0
TEXT
 8
UNTERSCHRIFT
 62
2
 10
201.699997
 20
-23.000000
 40
3.250000
 41
0.800000
 51
15.000000
  1
30232
  0
LINE
  8
TEILE
 62
2
 10
0.000000
 20
-25.000000
 11
0.000000
 21
25.000000
  0
LINE
  8
TEILE
 62
2
 10
0.000000
 20
25.000000
 11
380.000000
 21
25.000000
  0
LINE
  8
TEILE
 62
2
 10
380.000000
 20
25.000000
 11
380.000000
 21
-25.000000
  0
LINE
  8
TEILE
 62
2
 10
380.000000
 20
-25.000000
 11
0.000000
 21
-25.000000
  0
TEXT
 8
BEZ_SCHRAUBEN
 62
2
 10
107.000000
 20
-13.000000
 40
5.000000
 41
0.800000
 51
15.000000
  1
 ø11
  0
ENDSEC
  0
EOF

