999
     *******************************************
999
     BOCAD Software GmbH   Rev.18.000   0202.22
999
     Filename:   c:\progetti21\danieli_aqs\b4\temp_11\30248.dxf
999
     Creator:    bocad
999
     Date:       20.01.2016
999
     Factor:     10.000000
999
     *******************************************
  0
SECTION
  2
HEADER
  9
$DWGCODEPAGE
  3
ANSI_1252
  9
$INSBASE
 10
0.0
 20
0.0
 30
0.0
  9
$EXTMIN
 10
-0.500000
 20
-96.750002
  9
$EXTMAX
 10
398.499985
 20
96.750002
  9
$LIMMIN
 10
-1.500000
 20
-97.750002
  9
$LIMMAX
 10
399.499985
 20
97.750002
  9
$LTSCALE
 40
10.000000
  0
ENDSEC
  0
SECTION
  2
TABLES
  0
TABLE
  2
LTYPE
 70
4
  0
LTYPE
  2
CONTINUOUS
 70
64
  3
____________________________________________
 72
65
 73
0
 40
0.0
  0
LTYPE
  2
HIDDEN
 70
64
  3
__ __ __ __ __ __ __ __ __ __ __ __ __ __ __
 72
65
 73
2
 40
0.50
 49
0.30
 49
-0.20
  0
LTYPE
  2
DASHDOT
 70
64
  3
____ _ ____ _ ____ _ ____ _ ____ _ ____ _ __
 72
65
 73
4
 40
2.0
 49
1.5
 49
-0.25
 49
0
 49
-0.25
  0
LTYPE
  2
DOT
 70
64
  3
............................................
 72
65
 73
2
 40
0.30
 49
0
 49
-0.30
  0
ENDTAB
  0
TABLE
  2
LAYER
 70
23
  0
LAYER
  2
UNTERSCHRIFT
 70
64
 62
7
  6
CONTINUOUS
  0
LAYER
  2
TEILE
 70
64
 62
7
  6
CONTINUOUS
  0
LAYER
  2
REST
 70
64
 62
7
  6
CONTINUOUS
  0
LAYER
  2
MARKERPUNKTE
 70
64
 62
7
  6
CONTINUOUS
  0
LAYER
  2
HILFSPUNKTE
 70
64
 62
7
  6
CONTINUOUS
  0
LAYER
  2
PICKPUNKTE
 70
64
 62
7
  6
CONTINUOUS
  0
LAYER
  2
SCHRAUBEN
 70
64
 62
7
  6
CONTINUOUS
  0
LAYER
  2
SCHWEISSEN
 70
64
 62
7
  6
CONTINUOUS
  0
LAYER
  2
GRAFIK
 70
64
 62
7
  6
CONTINUOUS
  0
LAYER
  2
BEM_FREI
 70
64
 62
7
  6
CONTINUOUS
  0
LAYER
  2
BEM_SYSTEM
 70
64
 62
7
  6
CONTINUOUS
  0
LAYER
  2
BEM_KONTUR
 70
64
 62
7
  6
CONTINUOUS
  0
LAYER
  2
BEM_ANBAU
 70
64
 62
7
  6
CONTINUOUS
  0
LAYER
  2
BEM_SCHRAUBEN
 70
64
 62
7
  6
CONTINUOUS
  0
LAYER
  2
BEM_SCHWEISSEN
 70
64
 62
7
  6
CONTINUOUS
  0
LAYER
  2
FREIER_TEXT
 70
64
 62
7
  6
CONTINUOUS
  0
LAYER
  2
BEZ_TEILE
 70
64
 62
7
  6
CONTINUOUS
  0
LAYER
  2
BEZ_SCHRAUBEN
 70
64
 62
7
  6
CONTINUOUS
  0
LAYER
  2
BEZ_SCHWEISSEN
 70
64
 62
7
  6
CONTINUOUS
  0
LAYER
  2
SCHRAFFUREN
 70
64
 62
7
  6
CONTINUOUS
  0
LAYER
  2
SCHNITTSYMBOL
 70
64
 62
7
  6
CONTINUOUS
  0
LAYER
  2
RASTER
 70
64
 62
7
  6
CONTINUOUS
  0
LAYER
  2
LISTEN
 70
64
 62
7
  6
CONTINUOUS
  0
LAYER
  2
RAHMEN
 70
64
 62
7
  6
CONTINUOUS
  0
ENDTAB
  0
TABLE
  2
STYLE
 70
1
  0
STYLE
  2
STANDARD
 70
64
 40
0
 41
1
 50
0.0
 71
0
 42
0.35
  3
ROMANS
  0
ENDTAB
  0
ENDSEC
  0
SECTION
  2
ENTITIES
  0
TEXT
 8
UNTERSCHRIFT
 62
2
 10
119.700005
 20
91.000000
 40
3.250000
 41
0.800000
 51
15.000000
  1
Project  DP0GN9  ,Qty. 40  , Pos. 
  0
TEXT
 8
UNTERSCHRIFT
 62
2
 10
221.099991
 20
91.000000
 40
3.250000
 41
0.800000
 51
15.000000
  1
  , Profi l PL193*20
  0
TEXT
 8
UNTERSCHRIFT
 62
2
 10
208.099991
 20
91.000000
 40
3.250000
 41
0.800000
 51
15.000000
  1
30248
  0
LINE
  8
TEILE
 62
2
 10
398.000000
 20
66.250000
 11
398.000000
 21
-96.250000
  0
LINE
  8
TEILE
 62
2
 10
398.000000
 20
-96.250000
 11
0.000000
 21
-96.250000
  0
LINE
  8
TEILE
 62
2
 10
0.000000
 20
-96.250000
 11
0.000000
 21
66.250000
  0
LINE
  8
TEILE
 62
2
 10
0.000000
 20
66.250000
 11
0.856678
 21
66.262230
  0
LINE
  8
TEILE
 62
2
 10
0.856678
 20
66.262230
 11
1.712661
 21
66.298920
  0
LINE
  8
TEILE
 62
2
 10
1.712661
 20
66.298920
 11
2.567247
 21
66.360046
  0
LINE
  8
TEILE
 62
2
 10
2.567247
 20
66.360046
 11
3.419740
 21
66.445541
  0
LINE
  8
TEILE
 62
2
 10
3.419740
 20
66.445541
 11
4.269443
 21
66.555351
  0
LINE
  8
TEILE
 62
2
 10
4.269443
 20
66.555351
 11
5.115664
 21
66.689377
  0
LINE
  8
TEILE
 62
2
 10
5.115664
 20
66.689377
 11
5.957711
 21
66.847519
  0
LINE
  8
TEILE
 62
2
 10
5.957711
 20
66.847519
 11
6.794900
 21
67.029640
  0
LINE
  8
TEILE
 62
2
 10
6.794900
 20
67.029640
 11
7.626547
 21
67.235588
  0
LINE
  8
TEILE
 62
2
 10
7.626547
 20
67.235588
 11
8.451974
 21
67.465210
  0
LINE
  8
TEILE
 62
2
 10
8.451974
 20
67.465210
 11
8.451977
 21
67.465210
  0
LINE
  8
TEILE
 62
2
 10
8.451977
 20
67.465210
 11
12.462450
 21
68.961037
  0
LINE
  8
TEILE
 62
2
 10
12.462450
 20
68.961037
 11
16.219225
 21
71.012390
  0
LINE
  8
TEILE
 62
2
 10
16.219225
 20
71.012390
 11
19.645823
 21
73.577507
  0
LINE
  8
TEILE
 62
2
 10
19.645823
 20
73.577507
 11
20.831192
 21
74.661545
  0
LINE
  8
TEILE
 62
2
 10
20.831192
 20
74.661545
 11
21.956837
 21
75.807457
  0
LINE
  8
TEILE
 62
2
 10
21.956837
 20
75.807457
 11
23.019539
 21
77.011986
  0
LINE
  8
TEILE
 62
2
 10
23.019539
 20
77.011986
 11
24.016243
 21
78.271667
  0
LINE
  8
TEILE
 62
2
 10
24.016243
 20
78.271667
 11
24.944096
 21
79.582893
  0
LINE
  8
TEILE
 62
2
 10
24.944096
 20
79.582893
 11
25.800436
 21
80.941895
  0
LINE
  8
TEILE
 62
2
 10
25.800436
 20
80.941895
 11
26.582806
 21
82.344788
  0
LINE
  8
TEILE
 62
2
 10
26.582806
 20
82.344788
 11
27.288969
 21
83.787544
  0
LINE
  8
TEILE
 62
2
 10
27.288969
 20
83.787544
 11
27.916897
 21
85.266037
  0
LINE
  8
TEILE
 62
2
 10
27.916897
 20
85.266037
 11
28.464787
 21
86.776009
  0
LINE
  8
TEILE
 62
2
 10
28.464787
 20
86.776009
 11
28.931072
 21
88.313148
  0
LINE
  8
TEILE
 62
2
 10
28.931072
 20
88.313148
 11
29.314415
 21
89.873047
  0
LINE
  8
TEILE
 62
2
 10
29.314415
 20
89.873047
 11
29.613714
 21
91.451218
  0
LINE
  8
TEILE
 62
2
 10
29.613714
 20
91.451218
 11
29.828117
 21
93.043144
  0
LINE
  8
TEILE
 62
2
 10
29.828117
 20
93.043144
 11
29.957005
 21
94.644279
  0
LINE
  8
TEILE
 62
2
 10
29.957005
 20
94.644279
 11
30.000004
 21
96.250000
  0
LINE
  8
TEILE
 62
2
 10
30.000004
 20
96.250000
 11
30.000000
 21
96.250000
  0
LINE
  8
TEILE
 62
2
 10
30.000000
 20
96.250000
 11
368.000000
 21
96.250000
  0
LINE
  8
TEILE
 62
2
 10
368.000000
 20
96.250000
 11
368.044006
 21
94.625839
  0
LINE
  8
TEILE
 62
2
 10
368.044006
 20
94.625839
 11
368.175842
 21
93.006432
  0
LINE
  8
TEILE
 62
2
 10
368.175842
 20
93.006432
 11
368.395203
 21
91.396545
  0
LINE
  8
TEILE
 62
2
 10
368.395203
 20
91.396545
 11
368.701416
 21
89.800888
  0
LINE
  8
TEILE
 62
2
 10
368.701416
 20
89.800888
 11
369.093506
 21
88.224152
  0
LINE
  8
TEILE
 62
2
 10
369.093506
 20
88.224152
 11
369.570435
 21
86.670959
  0
LINE
  8
TEILE
 62
2
 10
369.570435
 20
86.670959
 11
370.130676
 21
85.145859
  0
LINE
  8
TEILE
 62
2
 10
370.130676
 20
85.145859
 11
370.772736
 21
83.653328
  0
LINE
  8
TEILE
 62
2
 10
370.772736
 20
83.653328
 11
371.494629
 21
82.197754
  0
LINE
  8
TEILE
 62
2
 10
371.494629
 20
82.197754
 11
372.294312
 21
80.783386
  0
LINE
  8
TEILE
 62
2
 10
372.294312
 20
80.783386
 11
373.169312
 21
79.414383
  0
LINE
  8
TEILE
 62
2
 10
373.169312
 20
79.414383
 11
374.117188
 21
78.094772
  0
LINE
  8
TEILE
 62
2
 10
374.117188
 20
78.094772
 11
375.135162
 21
76.828415
  0
LINE
  8
TEILE
 62
2
 10
375.135162
 20
76.828415
 11
376.220123
 21
75.619019
  0
LINE
  8
TEILE
 62
2
 10
376.220123
 20
75.619019
 11
377.369049
 21
74.470131
  0
LINE
  8
TEILE
 62
2
 10
377.369049
 20
74.470131
 11
378.578430
 21
73.385132
  0
LINE
  8
TEILE
 62
2
 10
378.578430
 20
73.385132
 11
379.844788
 21
72.367203
  0
LINE
  8
TEILE
 62
2
 10
379.844788
 20
72.367203
 11
381.164398
 21
71.419327
  0
LINE
  8
TEILE
 62
2
 10
381.164398
 20
71.419327
 11
382.533386
 21
70.544281
  0
LINE
  8
TEILE
 62
2
 10
382.533386
 20
70.544281
 11
383.947754
 21
69.744637
  0
LINE
  8
TEILE
 62
2
 10
383.947754
 20
69.744637
 11
385.403320
 21
69.022736
  0
LINE
  8
TEILE
 62
2
 10
385.403320
 20
69.022736
 11
386.895874
 21
68.380692
  0
LINE
  8
TEILE
 62
2
 10
386.895874
 20
68.380692
 11
388.420959
 21
67.820396
  0
LINE
  8
TEILE
 62
2
 10
388.420959
 20
67.820396
 11
389.974182
 21
67.343491
  0
LINE
  8
TEILE
 62
2
 10
389.974182
 20
67.343491
 11
391.550903
 21
66.951378
  0
LINE
  8
TEILE
 62
2
 10
391.550903
 20
66.951378
 11
393.146545
 21
66.645195
  0
LINE
  8
TEILE
 62
2
 10
393.146545
 20
66.645195
 11
394.756439
 21
66.425850
  0
LINE
  8
TEILE
 62
2
 10
394.756439
 20
66.425850
 11
396.375854
 21
66.293983
  0
LINE
  8
TEILE
 62
2
 10
396.375854
 20
66.293983
 11
398.000000
 21
66.249985
  0
LINE
  8
TEILE
 62
2
 10
398.000000
 20
66.249985
 11
398.000000
 21
66.250000
  0
ENDSEC
  0
EOF

