999
     *******************************************
999
     BOCAD Software GmbH   Rev.18.000   0202.22
999
     Filename:   c:\progetti21\danieli_aqs\b4\temp_11\30241.dxf
999
     Creator:    bocad
999
     Date:       20.01.2016
999
     Factor:     10.000000
999
     *******************************************
  0
SECTION
  2
HEADER
  9
$DWGCODEPAGE
  3
ANSI_1252
  9
$INSBASE
 10
0.0
 20
0.0
 30
0.0
  9
$EXTMIN
 10
-0.500004
 20
-199.499989
  9
$EXTMAX
 10
180.499935
 20
199.500008
  9
$LIMMIN
 10
-1.500004
 20
-200.499989
  9
$LIMMAX
 10
181.499935
 20
200.500008
  9
$LTSCALE
 40
10.000000
  0
ENDSEC
  0
SECTION
  2
TABLES
  0
TABLE
  2
LTYPE
 70
4
  0
LTYPE
  2
CONTINUOUS
 70
64
  3
____________________________________________
 72
65
 73
0
 40
0.0
  0
LTYPE
  2
HIDDEN
 70
64
  3
__ __ __ __ __ __ __ __ __ __ __ __ __ __ __
 72
65
 73
2
 40
0.50
 49
0.30
 49
-0.20
  0
LTYPE
  2
DASHDOT
 70
64
  3
____ _ ____ _ ____ _ ____ _ ____ _ ____ _ __
 72
65
 73
4
 40
2.0
 49
1.5
 49
-0.25
 49
0
 49
-0.25
  0
LTYPE
  2
DOT
 70
64
  3
............................................
 72
65
 73
2
 40
0.30
 49
0
 49
-0.30
  0
ENDTAB
  0
TABLE
  2
LAYER
 70
23
  0
LAYER
  2
UNTERSCHRIFT
 70
64
 62
7
  6
CONTINUOUS
  0
LAYER
  2
TEILE
 70
64
 62
7
  6
CONTINUOUS
  0
LAYER
  2
REST
 70
64
 62
7
  6
CONTINUOUS
  0
LAYER
  2
MARKERPUNKTE
 70
64
 62
7
  6
CONTINUOUS
  0
LAYER
  2
HILFSPUNKTE
 70
64
 62
7
  6
CONTINUOUS
  0
LAYER
  2
PICKPUNKTE
 70
64
 62
7
  6
CONTINUOUS
  0
LAYER
  2
SCHRAUBEN
 70
64
 62
7
  6
CONTINUOUS
  0
LAYER
  2
SCHWEISSEN
 70
64
 62
7
  6
CONTINUOUS
  0
LAYER
  2
GRAFIK
 70
64
 62
7
  6
CONTINUOUS
  0
LAYER
  2
BEM_FREI
 70
64
 62
7
  6
CONTINUOUS
  0
LAYER
  2
BEM_SYSTEM
 70
64
 62
7
  6
CONTINUOUS
  0
LAYER
  2
BEM_KONTUR
 70
64
 62
7
  6
CONTINUOUS
  0
LAYER
  2
BEM_ANBAU
 70
64
 62
7
  6
CONTINUOUS
  0
LAYER
  2
BEM_SCHRAUBEN
 70
64
 62
7
  6
CONTINUOUS
  0
LAYER
  2
BEM_SCHWEISSEN
 70
64
 62
7
  6
CONTINUOUS
  0
LAYER
  2
FREIER_TEXT
 70
64
 62
7
  6
CONTINUOUS
  0
LAYER
  2
BEZ_TEILE
 70
64
 62
7
  6
CONTINUOUS
  0
LAYER
  2
BEZ_SCHRAUBEN
 70
64
 62
7
  6
CONTINUOUS
  0
LAYER
  2
BEZ_SCHWEISSEN
 70
64
 62
7
  6
CONTINUOUS
  0
LAYER
  2
SCHRAFFUREN
 70
64
 62
7
  6
CONTINUOUS
  0
LAYER
  2
SCHNITTSYMBOL
 70
64
 62
7
  6
CONTINUOUS
  0
LAYER
  2
RASTER
 70
64
 62
7
  6
CONTINUOUS
  0
LAYER
  2
LISTEN
 70
64
 62
7
  6
CONTINUOUS
  0
LAYER
  2
RAHMEN
 70
64
 62
7
  6
CONTINUOUS
  0
ENDTAB
  0
TABLE
  2
STYLE
 70
1
  0
STYLE
  2
STANDARD
 70
64
 40
0
 41
1
 50
0.0
 71
0
 42
0.35
  3
ROMANS
  0
ENDTAB
  0
ENDSEC
  0
SECTION
  2
ENTITIES
  0
TEXT
 8
UNTERSCHRIFT
 62
2
 10
5.250000
 20
-79.300003
 40
3.250000
 50
89.999931
 41
0.800000
 51
15.000000
  1
Project  DP0GN9  ,Qty. 16  , Pos. 
  0
TEXT
 8
UNTERSCHRIFT
 62
2
 10
5.250000
 20
22.099995
 40
3.250000
 50
89.999931
 41
0.800000
 51
15.000000
  1
  , Profi l PL398*20
  0
TEXT
 8
UNTERSCHRIFT
 62
2
 10
5.250000
 20
9.099995
 40
3.250000
 50
89.999931
 41
0.800000
 51
15.000000
  1
30241
  0
LINE
  8
TEILE
 62
2
 10
30.000000
 20
199.000000
 11
179.999939
 21
198.999954
  0
LINE
  8
TEILE
 62
2
 10
179.999939
 20
198.999954
 11
179.999939
 21
-199.000000
  0
LINE
  8
TEILE
 62
2
 10
179.999939
 20
-199.000000
 11
30.000000
 21
-199.000000
  0
LINE
  8
TEILE
 62
2
 10
30.000000
 20
-199.000000
 11
29.958897
 21
-197.429932
  0
LINE
  8
TEILE
 62
2
 10
29.958897
 20
-197.429932
 11
29.835667
 21
-195.864136
  0
LINE
  8
TEILE
 62
2
 10
29.835667
 20
-195.864136
 11
29.630661
 21
-194.306961
  0
LINE
  8
TEILE
 62
2
 10
29.630661
 20
-194.306961
 11
29.344440
 21
-192.762634
  0
LINE
  8
TEILE
 62
2
 10
29.344440
 20
-192.762634
 11
28.977785
 21
-191.235428
  0
LINE
  8
TEILE
 62
2
 10
28.977785
 20
-191.235428
 11
28.531706
 21
-189.729477
  0
LINE
  8
TEILE
 62
2
 10
28.531706
 20
-189.729477
 11
28.007423
 21
-188.248962
  0
LINE
  8
TEILE
 62
2
 10
28.007423
 20
-188.248962
 11
27.406372
 21
-186.797882
  0
LINE
  8
TEILE
 62
2
 10
27.406372
 20
-186.797882
 11
26.730204
 21
-185.380280
  0
LINE
  8
TEILE
 62
2
 10
26.730204
 20
-185.380280
 11
25.980770
 21
-184.000000
  0
LINE
  8
TEILE
 62
2
 10
25.980770
 20
-184.000000
 11
25.160124
 21
-182.660828
  0
LINE
  8
TEILE
 62
2
 10
25.160124
 20
-182.660828
 11
24.270517
 21
-181.366440
  0
LINE
  8
TEILE
 62
2
 10
24.270517
 20
-181.366440
 11
23.314388
 21
-180.120392
  0
LINE
  8
TEILE
 62
2
 10
23.314388
 20
-180.120392
 11
22.294352
 21
-178.926086
  0
LINE
  8
TEILE
 62
2
 10
22.294352
 20
-178.926086
 11
21.213211
 21
-177.786789
  0
LINE
  8
TEILE
 62
2
 10
21.213211
 20
-177.786789
 11
20.073927
 21
-176.705643
  0
LINE
  8
TEILE
 62
2
 10
20.073927
 20
-176.705643
 11
18.879620
 21
-175.685608
  0
LINE
  8
TEILE
 62
2
 10
18.879620
 20
-175.685608
 11
17.633566
 21
-174.729477
  0
LINE
  8
TEILE
 62
2
 10
17.633566
 20
-174.729477
 11
16.339180
 21
-173.839874
  0
LINE
  8
TEILE
 62
2
 10
16.339180
 20
-173.839874
 11
15.000009
 21
-173.019241
  0
LINE
  8
TEILE
 62
2
 10
15.000009
 20
-173.019241
 11
13.619723
 21
-172.269806
  0
LINE
  8
TEILE
 62
2
 10
13.619723
 20
-172.269806
 11
12.202106
 21
-171.593628
  0
LINE
  8
TEILE
 62
2
 10
12.202106
 20
-171.593628
 11
10.751045
 21
-170.992584
  0
LINE
  8
TEILE
 62
2
 10
10.751045
 20
-170.992584
 11
9.270514
 21
-170.468307
  0
LINE
  8
TEILE
 62
2
 10
9.270514
 20
-170.468307
 11
7.764574
 21
-170.022217
  0
LINE
  8
TEILE
 62
2
 10
7.764574
 20
-170.022217
 11
6.237352
 21
-169.655579
  0
LINE
  8
TEILE
 62
2
 10
6.237352
 20
-169.655579
 11
4.693034
 21
-169.369354
  0
LINE
  8
TEILE
 62
2
 10
4.693034
 20
-169.369354
 11
3.135852
 21
-169.164352
  0
LINE
  8
TEILE
 62
2
 10
3.135852
 20
-169.164352
 11
1.570076
 21
-169.041122
  0
LINE
  8
TEILE
 62
2
 10
1.570076
 20
-169.041122
 11
-0.000004
 21
-169.000015
  0
LINE
  8
TEILE
 62
2
 10
-0.000004
 20
-169.000015
 11
0.000000
 21
-169.000000
  0
LINE
  8
TEILE
 62
2
 10
0.000000
 20
-169.000000
 11
-0.000000
 21
169.000000
  0
LINE
  8
TEILE
 62
2
 10
-0.000000
 20
169.000000
 11
1.570077
 21
169.041122
  0
LINE
  8
TEILE
 62
2
 10
1.570077
 20
169.041122
 11
3.135854
 21
169.164337
  0
LINE
  8
TEILE
 62
2
 10
3.135854
 20
169.164337
 11
4.693036
 21
169.369354
  0
LINE
  8
TEILE
 62
2
 10
4.693036
 20
169.369354
 11
6.237354
 21
169.655579
  0
LINE
  8
TEILE
 62
2
 10
6.237354
 20
169.655579
 11
7.764577
 21
170.022217
  0
LINE
  8
TEILE
 62
2
 10
7.764577
 20
170.022217
 11
9.270516
 21
170.468307
  0
LINE
  8
TEILE
 62
2
 10
9.270516
 20
170.468307
 11
10.751047
 21
170.992584
  0
LINE
  8
TEILE
 62
2
 10
10.751047
 20
170.992584
 11
12.202109
 21
171.593628
  0
LINE
  8
TEILE
 62
2
 10
12.202109
 20
171.593628
 11
13.619727
 21
172.269806
  0
LINE
  8
TEILE
 62
2
 10
13.619727
 20
172.269806
 11
15.000013
 21
173.019241
  0
LINE
  8
TEILE
 62
2
 10
15.000013
 20
173.019241
 11
16.339186
 21
173.839890
  0
LINE
  8
TEILE
 62
2
 10
16.339186
 20
173.839890
 11
17.633572
 21
174.729492
  0
LINE
  8
TEILE
 62
2
 10
17.633572
 20
174.729492
 11
18.879625
 21
175.685638
  0
LINE
  8
TEILE
 62
2
 10
18.879625
 20
175.685638
 11
20.073931
 21
176.705658
  0
LINE
  8
TEILE
 62
2
 10
20.073931
 20
176.705658
 11
21.213217
 21
177.786804
  0
LINE
  8
TEILE
 62
2
 10
21.213217
 20
177.786804
 11
22.294357
 21
178.926086
  0
LINE
  8
TEILE
 62
2
 10
22.294357
 20
178.926086
 11
23.314390
 21
180.120392
  0
LINE
  8
TEILE
 62
2
 10
23.314390
 20
180.120392
 11
24.270519
 21
181.366440
  0
LINE
  8
TEILE
 62
2
 10
24.270519
 20
181.366440
 11
25.160126
 21
182.660828
  0
LINE
  8
TEILE
 62
2
 10
25.160126
 20
182.660828
 11
25.980774
 21
184.000015
  0
LINE
  8
TEILE
 62
2
 10
25.980774
 20
184.000015
 11
26.730204
 21
185.380280
  0
LINE
  8
TEILE
 62
2
 10
26.730204
 20
185.380280
 11
27.406372
 21
186.797913
  0
LINE
  8
TEILE
 62
2
 10
27.406372
 20
186.797913
 11
28.007421
 21
188.248978
  0
LINE
  8
TEILE
 62
2
 10
28.007421
 20
188.248978
 11
28.531702
 21
189.729492
  0
LINE
  8
TEILE
 62
2
 10
28.531702
 20
189.729492
 11
28.977779
 21
191.235443
  0
LINE
  8
TEILE
 62
2
 10
28.977779
 20
191.235443
 11
29.344435
 21
192.762665
  0
LINE
  8
TEILE
 62
2
 10
29.344435
 20
192.762665
 11
29.630657
 21
194.306976
  0
LINE
  8
TEILE
 62
2
 10
29.630657
 20
194.306976
 11
29.835661
 21
195.864166
  0
LINE
  8
TEILE
 62
2
 10
29.835661
 20
195.864166
 11
29.958889
 21
197.429932
  0
LINE
  8
TEILE
 62
2
 10
29.958889
 20
197.429932
 11
30.000002
 21
199.000015
  0
LINE
  8
TEILE
 62
2
 10
30.000002
 20
199.000015
 11
30.000000
 21
199.000000
  0
ENDSEC
  0
EOF

