999
     *******************************************
999
     BOCAD Software GmbH   Rev.18.000   0202.22
999
     Filename:   c:\progetti21\danieli_aqs\b4\temp_11\30254.dxf
999
     Creator:    bocad
999
     Date:       20.01.2016
999
     Factor:     10.000000
999
     *******************************************
  0
SECTION
  2
HEADER
  9
$DWGCODEPAGE
  3
ANSI_1252
  9
$INSBASE
 10
0.0
 20
0.0
 30
0.0
  9
$EXTMIN
 10
-0.500018
 20
-87.000685
  9
$EXTMAX
 10
192.999935
 20
87.000704
  9
$LIMMIN
 10
-1.500018
 20
-88.000685
  9
$LIMMAX
 10
193.999935
 20
88.000704
  9
$LTSCALE
 40
10.000000
  0
ENDSEC
  0
SECTION
  2
TABLES
  0
TABLE
  2
LTYPE
 70
4
  0
LTYPE
  2
CONTINUOUS
 70
64
  3
____________________________________________
 72
65
 73
0
 40
0.0
  0
LTYPE
  2
HIDDEN
 70
64
  3
__ __ __ __ __ __ __ __ __ __ __ __ __ __ __
 72
65
 73
2
 40
0.50
 49
0.30
 49
-0.20
  0
LTYPE
  2
DASHDOT
 70
64
  3
____ _ ____ _ ____ _ ____ _ ____ _ ____ _ __
 72
65
 73
4
 40
2.0
 49
1.5
 49
-0.25
 49
0
 49
-0.25
  0
LTYPE
  2
DOT
 70
64
  3
............................................
 72
65
 73
2
 40
0.30
 49
0
 49
-0.30
  0
ENDTAB
  0
TABLE
  2
LAYER
 70
23
  0
LAYER
  2
UNTERSCHRIFT
 70
64
 62
7
  6
CONTINUOUS
  0
LAYER
  2
TEILE
 70
64
 62
7
  6
CONTINUOUS
  0
LAYER
  2
REST
 70
64
 62
7
  6
CONTINUOUS
  0
LAYER
  2
MARKERPUNKTE
 70
64
 62
7
  6
CONTINUOUS
  0
LAYER
  2
HILFSPUNKTE
 70
64
 62
7
  6
CONTINUOUS
  0
LAYER
  2
PICKPUNKTE
 70
64
 62
7
  6
CONTINUOUS
  0
LAYER
  2
SCHRAUBEN
 70
64
 62
7
  6
CONTINUOUS
  0
LAYER
  2
SCHWEISSEN
 70
64
 62
7
  6
CONTINUOUS
  0
LAYER
  2
GRAFIK
 70
64
 62
7
  6
CONTINUOUS
  0
LAYER
  2
BEM_FREI
 70
64
 62
7
  6
CONTINUOUS
  0
LAYER
  2
BEM_SYSTEM
 70
64
 62
7
  6
CONTINUOUS
  0
LAYER
  2
BEM_KONTUR
 70
64
 62
7
  6
CONTINUOUS
  0
LAYER
  2
BEM_ANBAU
 70
64
 62
7
  6
CONTINUOUS
  0
LAYER
  2
BEM_SCHRAUBEN
 70
64
 62
7
  6
CONTINUOUS
  0
LAYER
  2
BEM_SCHWEISSEN
 70
64
 62
7
  6
CONTINUOUS
  0
LAYER
  2
FREIER_TEXT
 70
64
 62
7
  6
CONTINUOUS
  0
LAYER
  2
BEZ_TEILE
 70
64
 62
7
  6
CONTINUOUS
  0
LAYER
  2
BEZ_SCHRAUBEN
 70
64
 62
7
  6
CONTINUOUS
  0
LAYER
  2
BEZ_SCHWEISSEN
 70
64
 62
7
  6
CONTINUOUS
  0
LAYER
  2
SCHRAFFUREN
 70
64
 62
7
  6
CONTINUOUS
  0
LAYER
  2
SCHNITTSYMBOL
 70
64
 62
7
  6
CONTINUOUS
  0
LAYER
  2
RASTER
 70
64
 62
7
  6
CONTINUOUS
  0
LAYER
  2
LISTEN
 70
64
 62
7
  6
CONTINUOUS
  0
LAYER
  2
RAHMEN
 70
64
 62
7
  6
CONTINUOUS
  0
ENDTAB
  0
TABLE
  2
STYLE
 70
1
  0
STYLE
  2
STANDARD
 70
64
 40
0
 41
1
 50
0.0
 71
0
 42
0.35
  3
ROMANS
  0
ENDTAB
  0
ENDSEC
  0
SECTION
  2
ENTITIES
  0
TEXT
 8
UNTERSCHRIFT
 62
2
 10
190.499939
 20
-78.000015
 40
3.250000
 50
90.000000
 41
0.800000
 51
15.000000
  1
Project  DP0GN9  ,Qty. 4  , Pos. 
  0
TEXT
 8
UNTERSCHRIFT
 62
2
 10
190.499939
 20
20.799982
 40
3.250000
 50
90.000000
 41
0.800000
 51
15.000000
  1
  , Profi l PL173*20
  0
TEXT
 8
UNTERSCHRIFT
 62
2
 10
190.499939
 20
7.799982
 40
3.250000
 50
90.000000
 41
0.800000
 51
15.000000
  1
30254
  0
LINE
  8
TEILE
 62
2
 10
192.499939
 20
86.500641
 11
192.499939
 21
-86.500687
  0
LINE
  8
TEILE
 62
2
 10
192.499939
 20
-86.500687
 11
30.000000
 21
-86.500687
  0
LINE
  8
TEILE
 62
2
 10
30.000000
 20
-86.500687
 11
29.958889
 21
-84.930603
  0
LINE
  8
TEILE
 62
2
 10
29.958889
 20
-84.930603
 11
29.835661
 21
-83.364830
  0
LINE
  8
TEILE
 62
2
 10
29.835661
 20
-83.364830
 11
29.630653
 21
-81.807648
  0
LINE
  8
TEILE
 62
2
 10
29.630653
 20
-81.807648
 11
29.344429
 21
-80.263329
  0
LINE
  8
TEILE
 62
2
 10
29.344429
 20
-80.263329
 11
28.977777
 21
-78.736107
  0
LINE
  8
TEILE
 62
2
 10
28.977777
 20
-78.736107
 11
28.531696
 21
-77.230171
  0
LINE
  8
TEILE
 62
2
 10
28.531696
 20
-77.230171
 11
28.007414
 21
-75.749649
  0
LINE
  8
TEILE
 62
2
 10
28.007414
 20
-75.749649
 11
27.406366
 21
-74.298584
  0
LINE
  8
TEILE
 62
2
 10
27.406366
 20
-74.298584
 11
26.730198
 21
-72.880966
  0
LINE
  8
TEILE
 62
2
 10
26.730198
 20
-72.880966
 11
25.980762
 21
-71.500687
  0
LINE
  8
TEILE
 62
2
 10
25.980762
 20
-71.500687
 11
25.160120
 21
-70.161507
  0
LINE
  8
TEILE
 62
2
 10
25.160120
 20
-70.161507
 11
24.270512
 21
-68.867126
  0
LINE
  8
TEILE
 62
2
 10
24.270512
 20
-68.867126
 11
23.314381
 21
-67.621071
  0
LINE
  8
TEILE
 62
2
 10
23.314381
 20
-67.621071
 11
22.294346
 21
-66.426765
  0
LINE
  8
TEILE
 62
2
 10
22.294346
 20
-66.426765
 11
21.213205
 21
-65.287476
  0
LINE
  8
TEILE
 62
2
 10
21.213205
 20
-65.287476
 11
20.073919
 21
-64.206337
  0
LINE
  8
TEILE
 62
2
 10
20.073919
 20
-64.206337
 11
18.879612
 21
-63.186302
  0
LINE
  8
TEILE
 62
2
 10
18.879612
 20
-63.186302
 11
17.633558
 21
-62.230171
  0
LINE
  8
TEILE
 62
2
 10
17.633558
 20
-62.230171
 11
16.339172
 21
-61.340565
  0
LINE
  8
TEILE
 62
2
 10
16.339172
 20
-61.340565
 11
15.000000
 21
-60.519920
  0
LINE
  8
TEILE
 62
2
 10
15.000000
 20
-60.519920
 11
13.619714
 21
-59.770485
  0
LINE
  8
TEILE
 62
2
 10
13.619714
 20
-59.770485
 11
12.202096
 21
-59.094315
  0
LINE
  8
TEILE
 62
2
 10
12.202096
 20
-59.094315
 11
10.751034
 21
-58.493267
  0
LINE
  8
TEILE
 62
2
 10
10.751034
 20
-58.493267
 11
9.270503
 21
-57.968983
  0
LINE
  8
TEILE
 62
2
 10
9.270503
 20
-57.968983
 11
7.764563
 21
-57.522907
  0
LINE
  8
TEILE
 62
2
 10
7.764563
 20
-57.522907
 11
6.237340
 21
-57.156254
  0
LINE
  8
TEILE
 62
2
 10
6.237340
 20
-57.156254
 11
4.693021
 21
-56.870033
  0
LINE
  8
TEILE
 62
2
 10
4.693021
 20
-56.870033
 11
3.135839
 21
-56.665024
  0
LINE
  8
TEILE
 62
2
 10
3.135839
 20
-56.665024
 11
1.570062
 21
-56.541794
  0
LINE
  8
TEILE
 62
2
 10
1.570062
 20
-56.541794
 11
-0.000018
 21
-56.500683
  0
LINE
  8
TEILE
 62
2
 10
-0.000018
 20
-56.500683
 11
0.000000
 21
-56.500683
  0
LINE
  8
TEILE
 62
2
 10
0.000000
 20
-56.500683
 11
0.000000
 21
56.500683
  0
LINE
  8
TEILE
 62
2
 10
0.000000
 20
56.500683
 11
1.570077
 21
56.541794
  0
LINE
  8
TEILE
 62
2
 10
1.570077
 20
56.541794
 11
3.135854
 21
56.665024
  0
LINE
  8
TEILE
 62
2
 10
3.135854
 20
56.665024
 11
4.693036
 21
56.870033
  0
LINE
  8
TEILE
 62
2
 10
4.693036
 20
56.870033
 11
6.237354
 21
57.156254
  0
LINE
  8
TEILE
 62
2
 10
6.237354
 20
57.156254
 11
7.764577
 21
57.522907
  0
LINE
  8
TEILE
 62
2
 10
7.764577
 20
57.522907
 11
9.270516
 21
57.968987
  0
LINE
  8
TEILE
 62
2
 10
9.270516
 20
57.968987
 11
10.751047
 21
58.493271
  0
LINE
  8
TEILE
 62
2
 10
10.751047
 20
58.493271
 11
12.202109
 21
59.094322
  0
LINE
  8
TEILE
 62
2
 10
12.202109
 20
59.094322
 11
13.619727
 21
59.770493
  0
LINE
  8
TEILE
 62
2
 10
13.619727
 20
59.770493
 11
15.000013
 21
60.519928
  0
LINE
  8
TEILE
 62
2
 10
15.000013
 20
60.519928
 11
16.339186
 21
61.340576
  0
LINE
  8
TEILE
 62
2
 10
16.339186
 20
61.340576
 11
17.633572
 21
62.230183
  0
LINE
  8
TEILE
 62
2
 10
17.633572
 20
62.230183
 11
18.879625
 21
63.186310
  0
LINE
  8
TEILE
 62
2
 10
18.879625
 20
63.186310
 11
20.073931
 21
64.206345
  0
LINE
  8
TEILE
 62
2
 10
20.073931
 20
64.206345
 11
21.213217
 21
65.287491
  0
LINE
  8
TEILE
 62
2
 10
21.213217
 20
65.287491
 11
22.294357
 21
66.426773
  0
LINE
  8
TEILE
 62
2
 10
22.294357
 20
66.426773
 11
23.314390
 21
67.621086
  0
LINE
  8
TEILE
 62
2
 10
23.314390
 20
67.621086
 11
24.270519
 21
68.867134
  0
LINE
  8
TEILE
 62
2
 10
24.270519
 20
68.867134
 11
25.160126
 21
70.161522
  0
LINE
  8
TEILE
 62
2
 10
25.160126
 20
70.161522
 11
25.980774
 21
71.500694
  0
LINE
  8
TEILE
 62
2
 10
25.980774
 20
71.500694
 11
26.730204
 21
72.880981
  0
LINE
  8
TEILE
 62
2
 10
26.730204
 20
72.880981
 11
27.406372
 21
74.298599
  0
LINE
  8
TEILE
 62
2
 10
27.406372
 20
74.298599
 11
28.007421
 21
75.749657
  0
LINE
  8
TEILE
 62
2
 10
28.007421
 20
75.749657
 11
28.531702
 21
77.230186
  0
LINE
  8
TEILE
 62
2
 10
28.531702
 20
77.230186
 11
28.977779
 21
78.736122
  0
LINE
  8
TEILE
 62
2
 10
28.977779
 20
78.736122
 11
29.344435
 21
80.263351
  0
LINE
  8
TEILE
 62
2
 10
29.344435
 20
80.263351
 11
29.630657
 21
81.807663
  0
LINE
  8
TEILE
 62
2
 10
29.630657
 20
81.807663
 11
29.835661
 21
83.364838
  0
LINE
  8
TEILE
 62
2
 10
29.835661
 20
83.364838
 11
29.958889
 21
84.930618
  0
LINE
  8
TEILE
 62
2
 10
29.958889
 20
84.930618
 11
30.000002
 21
86.500702
  0
LINE
  8
TEILE
 62
2
 10
30.000002
 20
86.500702
 11
30.000000
 21
86.500687
  0
LINE
  8
TEILE
 62
2
 10
30.000000
 20
86.500687
 11
192.499939
 21
86.500641
  0
ENDSEC
  0
EOF

