999
     *******************************************
999
     BOCAD Software GmbH   Rev.18.000   0202.22
999
     Filename:   c:\progetti21\danieli_aqs\b4\temp_11\4_11_2167.dxf
999
     Creator:    bocad
999
     Date:       20.01.2016
999
     Factor:     10.000000
999
     *******************************************
  0
SECTION
  2
HEADER
  9
$DWGCODEPAGE
  3
ANSI_1252
  9
$INSBASE
 10
0.0
 20
0.0
 30
0.0
  9
$EXTMIN
 10
-0.500000
 20
-35.500083
  9
$EXTMAX
 10
130.500002
 20
35.500083
  9
$LIMMIN
 10
-1.500000
 20
-36.500083
  9
$LIMMAX
 10
131.500002
 20
36.500083
  9
$LTSCALE
 40
10.000000
  0
ENDSEC
  0
SECTION
  2
TABLES
  0
TABLE
  2
LTYPE
 70
4
  0
LTYPE
  2
CONTINUOUS
 70
64
  3
____________________________________________
 72
65
 73
0
 40
0.0
  0
LTYPE
  2
HIDDEN
 70
64
  3
__ __ __ __ __ __ __ __ __ __ __ __ __ __ __
 72
65
 73
2
 40
0.50
 49
0.30
 49
-0.20
  0
LTYPE
  2
DASHDOT
 70
64
  3
____ _ ____ _ ____ _ ____ _ ____ _ ____ _ __
 72
65
 73
4
 40
2.0
 49
1.5
 49
-0.25
 49
0
 49
-0.25
  0
LTYPE
  2
DOT
 70
64
  3
............................................
 72
65
 73
2
 40
0.30
 49
0
 49
-0.30
  0
ENDTAB
  0
TABLE
  2
LAYER
 70
23
  0
LAYER
  2
SCHRAUBEN
 70
64
 62
7
  6
CONTINUOUS
  0
LAYER
  2
REST
 70
64
 62
7
  6
CONTINUOUS
  0
LAYER
  2
UNTERSCHRIFT
 70
64
 62
7
  6
CONTINUOUS
  0
LAYER
  2
TEILE
 70
64
 62
7
  6
CONTINUOUS
  0
LAYER
  2
BEZ_SCHRAUBEN
 70
64
 62
7
  6
CONTINUOUS
  0
LAYER
  2
MARKERPUNKTE
 70
64
 62
7
  6
CONTINUOUS
  0
LAYER
  2
HILFSPUNKTE
 70
64
 62
7
  6
CONTINUOUS
  0
LAYER
  2
PICKPUNKTE
 70
64
 62
7
  6
CONTINUOUS
  0
LAYER
  2
SCHWEISSEN
 70
64
 62
7
  6
CONTINUOUS
  0
LAYER
  2
GRAFIK
 70
64
 62
7
  6
CONTINUOUS
  0
LAYER
  2
BEM_FREI
 70
64
 62
7
  6
CONTINUOUS
  0
LAYER
  2
BEM_SYSTEM
 70
64
 62
7
  6
CONTINUOUS
  0
LAYER
  2
BEM_KONTUR
 70
64
 62
7
  6
CONTINUOUS
  0
LAYER
  2
BEM_ANBAU
 70
64
 62
7
  6
CONTINUOUS
  0
LAYER
  2
BEM_SCHRAUBEN
 70
64
 62
7
  6
CONTINUOUS
  0
LAYER
  2
BEM_SCHWEISSEN
 70
64
 62
7
  6
CONTINUOUS
  0
LAYER
  2
FREIER_TEXT
 70
64
 62
7
  6
CONTINUOUS
  0
LAYER
  2
BEZ_TEILE
 70
64
 62
7
  6
CONTINUOUS
  0
LAYER
  2
BEZ_SCHWEISSEN
 70
64
 62
7
  6
CONTINUOUS
  0
LAYER
  2
SCHRAFFUREN
 70
64
 62
7
  6
CONTINUOUS
  0
LAYER
  2
SCHNITTSYMBOL
 70
64
 62
7
  6
CONTINUOUS
  0
LAYER
  2
RASTER
 70
64
 62
7
  6
CONTINUOUS
  0
LAYER
  2
LISTEN
 70
64
 62
7
  6
CONTINUOUS
  0
LAYER
  2
RAHMEN
 70
64
 62
7
  6
CONTINUOUS
  0
ENDTAB
  0
TABLE
  2
STYLE
 70
1
  0
STYLE
  2
STANDARD
 70
64
 40
0
 41
1
 50
0.0
 71
0
 42
0.35
  3
ROMANS
  0
ENDTAB
  0
ENDSEC
  0
SECTION
  2
ENTITIES
  0
LINE
  8
SCHRAUBEN
 62
6
 10
43.600002
 20
3.599762
 11
36.399998
 21
-3.600239
  0
LINE
  8
SCHRAUBEN
 62
6
 10
36.399998
 20
3.599762
 11
43.600002
 21
-3.600239
  0
CIRCLE
  8
SCHRAUBEN
 62
2
 10
40.000000
 20
-0.000238
 40
9.000000
  0
LINE
  8
SCHRAUBEN
 62
6
 10
93.599998
 20
3.599762
 11
86.400002
 21
-3.600239
  0
LINE
  8
SCHRAUBEN
 62
6
 10
86.400002
 20
3.599762
 11
93.599998
 21
-3.600239
  0
CIRCLE
  8
SCHRAUBEN
 62
2
 10
90.000000
 20
-0.000238
 40
9.000000
  0
TEXT
 8
UNTERSCHRIFT
 62
2
 10
3.399998
 20
30.250082
 40
2.750000
 41
0.700000
 51
15.000000
  1
Project  DP0GN9  ,Qty. 68  , Pos. 
  0
TEXT
 8
UNTERSCHRIFT
 62
2
 10
86.174995
 20
30.250082
 40
2.750000
 41
0.700000
 51
15.000000
  1
  , Profi l PL70*20
  0
TEXT
 8
UNTERSCHRIFT
 62
2
 10
68.849998
 20
30.250082
 40
2.750000
 41
0.700000
 51
15.000000
  1
4_11_2167
  0
LINE
  8
TEILE
 62
2
 10
130.000000
 20
-35.000084
 11
0.000000
 21
-35.000084
  0
LINE
  8
TEILE
 62
2
 10
0.000000
 20
-35.000084
 11
0.000000
 21
35.000084
  0
LINE
  8
TEILE
 62
2
 10
0.000000
 20
35.000084
 11
130.000000
 21
35.000084
  0
LINE
  8
TEILE
 62
2
 10
130.000000
 20
35.000084
 11
130.000000
 21
-35.000084
  0
TEXT
 8
BEZ_SCHRAUBEN
 62
2
 10
32.000000
 20
-16.500238
 40
5.000000
 41
0.800000
 51
15.000000
  1
 ø18
  0
ENDSEC
  0
EOF

