999
     *******************************************
999
     BOCAD Software GmbH   Rev.18.000   0202.22
999
     Filename:   c:\progetti21\danieli_aqs\b4\temp_61\4_61_1557.dxf
999
     Creator:    bocad
999
     Date:       20.01.2016
999
     Factor:     10.000000
999
     *******************************************
  0
SECTION
  2
HEADER
  9
$DWGCODEPAGE
  3
ANSI_1252
  9
$INSBASE
 10
0.0
 20
0.0
 30
0.0
  9
$EXTMIN
 10
-0.500000
 20
-56.499887
  9
$EXTMAX
 10
480.500031
 20
56.499887
  9
$LIMMIN
 10
-1.500000
 20
-57.499887
  9
$LIMMAX
 10
481.500031
 20
57.499887
  9
$LTSCALE
 40
10.000000
  0
ENDSEC
  0
SECTION
  2
TABLES
  0
TABLE
  2
LTYPE
 70
4
  0
LTYPE
  2
CONTINUOUS
 70
64
  3
____________________________________________
 72
65
 73
0
 40
0.0
  0
LTYPE
  2
HIDDEN
 70
64
  3
__ __ __ __ __ __ __ __ __ __ __ __ __ __ __
 72
65
 73
2
 40
0.50
 49
0.30
 49
-0.20
  0
LTYPE
  2
DASHDOT
 70
64
  3
____ _ ____ _ ____ _ ____ _ ____ _ ____ _ __
 72
65
 73
4
 40
2.0
 49
1.5
 49
-0.25
 49
0
 49
-0.25
  0
LTYPE
  2
DOT
 70
64
  3
............................................
 72
65
 73
2
 40
0.30
 49
0
 49
-0.30
  0
ENDTAB
  0
TABLE
  2
LAYER
 70
23
  0
LAYER
  2
SCHRAUBEN
 70
64
 62
7
  6
CONTINUOUS
  0
LAYER
  2
REST
 70
64
 62
7
  6
CONTINUOUS
  0
LAYER
  2
UNTERSCHRIFT
 70
64
 62
7
  6
CONTINUOUS
  0
LAYER
  2
TEILE
 70
64
 62
7
  6
CONTINUOUS
  0
LAYER
  2
BEZ_SCHRAUBEN
 70
64
 62
7
  6
CONTINUOUS
  0
LAYER
  2
MARKERPUNKTE
 70
64
 62
7
  6
CONTINUOUS
  0
LAYER
  2
HILFSPUNKTE
 70
64
 62
7
  6
CONTINUOUS
  0
LAYER
  2
PICKPUNKTE
 70
64
 62
7
  6
CONTINUOUS
  0
LAYER
  2
SCHWEISSEN
 70
64
 62
7
  6
CONTINUOUS
  0
LAYER
  2
GRAFIK
 70
64
 62
7
  6
CONTINUOUS
  0
LAYER
  2
BEM_FREI
 70
64
 62
7
  6
CONTINUOUS
  0
LAYER
  2
BEM_SYSTEM
 70
64
 62
7
  6
CONTINUOUS
  0
LAYER
  2
BEM_KONTUR
 70
64
 62
7
  6
CONTINUOUS
  0
LAYER
  2
BEM_ANBAU
 70
64
 62
7
  6
CONTINUOUS
  0
LAYER
  2
BEM_SCHRAUBEN
 70
64
 62
7
  6
CONTINUOUS
  0
LAYER
  2
BEM_SCHWEISSEN
 70
64
 62
7
  6
CONTINUOUS
  0
LAYER
  2
FREIER_TEXT
 70
64
 62
7
  6
CONTINUOUS
  0
LAYER
  2
BEZ_TEILE
 70
64
 62
7
  6
CONTINUOUS
  0
LAYER
  2
BEZ_SCHWEISSEN
 70
64
 62
7
  6
CONTINUOUS
  0
LAYER
  2
SCHRAFFUREN
 70
64
 62
7
  6
CONTINUOUS
  0
LAYER
  2
SCHNITTSYMBOL
 70
64
 62
7
  6
CONTINUOUS
  0
LAYER
  2
RASTER
 70
64
 62
7
  6
CONTINUOUS
  0
LAYER
  2
LISTEN
 70
64
 62
7
  6
CONTINUOUS
  0
LAYER
  2
RAHMEN
 70
64
 62
7
  6
CONTINUOUS
  0
ENDTAB
  0
TABLE
  2
STYLE
 70
1
  0
STYLE
  2
STANDARD
 70
64
 40
0
 41
1
 50
0.0
 71
0
 42
0.35
  3
ROMANS
  0
ENDTAB
  0
ENDSEC
  0
SECTION
  2
ENTITIES
  0
LINE
  8
SCHRAUBEN
 62
6
 10
442.799988
 20
-33.200527
 11
437.200012
 21
-38.800529
  0
LINE
  8
SCHRAUBEN
 62
6
 10
437.200012
 20
-33.200527
 11
442.799988
 21
-38.800529
  0
CIRCLE
  8
SCHRAUBEN
 62
2
 10
440.000000
 20
-36.000526
 40
7.000000
  0
LINE
  8
SCHRAUBEN
 62
6
 10
362.799988
 20
-33.200584
 11
357.200012
 21
-38.800587
  0
LINE
  8
SCHRAUBEN
 62
6
 10
357.200012
 20
-33.200584
 11
362.799988
 21
-38.800587
  0
CIRCLE
  8
SCHRAUBEN
 62
2
 10
360.000000
 20
-36.000587
 40
7.000000
  0
LINE
  8
SCHRAUBEN
 62
6
 10
282.800018
 20
-33.200645
 11
277.199982
 21
-38.800644
  0
LINE
  8
SCHRAUBEN
 62
6
 10
277.199982
 20
-33.200645
 11
282.800018
 21
-38.800644
  0
CIRCLE
  8
SCHRAUBEN
 62
2
 10
280.000000
 20
-36.000645
 40
7.000000
  0
LINE
  8
SCHRAUBEN
 62
6
 10
42.800068
 20
-33.200821
 11
37.200066
 21
-38.800819
  0
LINE
  8
SCHRAUBEN
 62
6
 10
37.200066
 20
-33.200821
 11
42.800068
 21
-38.800819
  0
CIRCLE
  8
SCHRAUBEN
 62
2
 10
40.000069
 20
-36.000820
 40
6.999996
  0
LINE
  8
SCHRAUBEN
 62
6
 10
122.799995
 20
-33.200764
 11
117.200005
 21
-38.800762
  0
LINE
  8
SCHRAUBEN
 62
6
 10
117.200005
 20
-33.200764
 11
122.799995
 21
-38.800762
  0
CIRCLE
  8
SCHRAUBEN
 62
2
 10
120.000000
 20
-36.000763
 40
7.000000
  0
LINE
  8
SCHRAUBEN
 62
6
 10
202.800003
 20
-33.200703
 11
197.199997
 21
-38.800701
  0
LINE
  8
SCHRAUBEN
 62
6
 10
197.199997
 20
-33.200703
 11
202.800003
 21
-38.800701
  0
CIRCLE
  8
SCHRAUBEN
 62
2
 10
200.000000
 20
-36.000702
 40
7.000000
  0
LINE
  8
SCHRAUBEN
 62
6
 10
442.799957
 20
38.799473
 11
437.199982
 21
33.199474
  0
LINE
  8
SCHRAUBEN
 62
6
 10
437.199982
 20
38.799473
 11
442.799957
 21
33.199474
  0
CIRCLE
  8
SCHRAUBEN
 62
2
 10
439.999969
 20
35.999474
 40
7.000000
  0
LINE
  8
SCHRAUBEN
 62
6
 10
362.799957
 20
38.799416
 11
357.199982
 21
33.199417
  0
LINE
  8
SCHRAUBEN
 62
6
 10
357.199982
 20
38.799416
 11
362.799957
 21
33.199417
  0
CIRCLE
  8
SCHRAUBEN
 62
2
 10
359.999969
 20
35.999416
 40
7.000000
  0
LINE
  8
SCHRAUBEN
 62
6
 10
282.799957
 20
38.799355
 11
277.199951
 21
33.199356
  0
LINE
  8
SCHRAUBEN
 62
6
 10
277.199951
 20
38.799355
 11
282.799957
 21
33.199356
  0
CIRCLE
  8
SCHRAUBEN
 62
2
 10
279.999969
 20
35.999355
 40
7.000000
  0
LINE
  8
SCHRAUBEN
 62
6
 10
202.799957
 20
38.799297
 11
197.199936
 21
33.199299
  0
LINE
  8
SCHRAUBEN
 62
6
 10
197.199936
 20
38.799297
 11
202.799957
 21
33.199299
  0
CIRCLE
  8
SCHRAUBEN
 62
2
 10
199.999939
 20
35.999298
 40
7.000015
  0
LINE
  8
SCHRAUBEN
 62
6
 10
42.800018
 20
38.799179
 11
37.200016
 21
33.199181
  0
LINE
  8
SCHRAUBEN
 62
6
 10
37.200016
 20
38.799179
 11
42.800018
 21
33.199181
  0
CIRCLE
  8
SCHRAUBEN
 62
2
 10
40.000015
 20
35.999180
 40
6.999996
  0
LINE
  8
SCHRAUBEN
 62
6
 10
122.799950
 20
38.799240
 11
117.199951
 21
33.199238
  0
LINE
  8
SCHRAUBEN
 62
6
 10
117.199951
 20
38.799240
 11
122.799950
 21
33.199238
  0
CIRCLE
  8
SCHRAUBEN
 62
2
 10
119.999954
 20
35.999237
 40
7.000000
  0
TEXT
 8
UNTERSCHRIFT
 62
2
 10
155.500061
 20
-53.999886
 40
3.250000
 41
0.800001
 51
15.000000
  1
Project  DP0GN9  ,Qty. 22  , Pos. 
  0
TEXT
 8
UNTERSCHRIFT
 62
2
 10
267.300049
 20
-53.999886
 40
3.250000
 41
0.800000
 51
15.000000
  1
  , Profi l PL112*15
  0
TEXT
 8
UNTERSCHRIFT
 62
2
 10
243.900055
 20
-53.999886
 40
3.250000
 41
0.800000
 51
15.000000
  1
4_61_1557
  0
LINE
  8
TEILE
 62
2
 10
0.000082
 20
-55.999886
 11
0.000000
 21
55.999535
  0
LINE
  8
TEILE
 62
2
 10
0.000000
 20
55.999535
 11
479.999969
 21
55.999886
  0
LINE
  8
TEILE
 62
2
 10
479.999969
 20
55.999886
 11
480.000031
 21
-55.999886
  0
LINE
  8
TEILE
 62
2
 10
480.000031
 20
-55.999886
 11
0.000082
 21
-55.999886
  0
TEXT
 8
BEZ_SCHRAUBEN
 62
2
 10
432.000000
 20
-50.500526
 40
5.000000
 41
0.800000
 51
15.000000
  1
 ø14
  0
TEXT
 8
BEZ_SCHRAUBEN
 62
2
 10
352.000000
 20
-50.500584
 40
5.000000
 41
0.800000
 51
15.000000
  1
 ø14
  0
TEXT
 8
BEZ_SCHRAUBEN
 62
2
 10
272.000000
 20
-50.500645
 40
5.000000
 41
0.800000
 51
15.000000
  1
 ø14
  0
TEXT
 8
BEZ_SCHRAUBEN
 62
2
 10
32.000072
 20
-50.500824
 40
5.000000
 41
0.800000
 51
15.000000
  1
 ø14
  0
TEXT
 8
BEZ_SCHRAUBEN
 62
2
 10
112.000000
 20
-50.500763
 40
5.000000
 41
0.800000
 51
15.000000
  1
 ø14
  0
TEXT
 8
BEZ_SCHRAUBEN
 62
2
 10
192.000000
 20
-50.500702
 40
5.000000
 41
0.800000
 51
15.000000
  1
 ø14
  0
TEXT
 8
BEZ_SCHRAUBEN
 62
2
 10
431.999969
 20
21.499474
 40
5.000000
 41
0.800000
 51
15.000000
  1
 ø14
  0
TEXT
 8
BEZ_SCHRAUBEN
 62
2
 10
351.999969
 20
21.499416
 40
5.000000
 41
0.800000
 51
15.000000
  1
 ø14
  0
TEXT
 8
BEZ_SCHRAUBEN
 62
2
 10
271.999939
 20
21.499355
 40
5.000000
 41
0.800000
 51
15.000000
  1
 ø14
  0
TEXT
 8
BEZ_SCHRAUBEN
 62
2
 10
191.999969
 20
21.499298
 40
5.000000
 41
0.800000
 51
15.000000
  1
 ø14
  0
TEXT
 8
BEZ_SCHRAUBEN
 62
2
 10
32.000015
 20
21.499180
 40
5.000000
 41
0.800000
 51
15.000000
  1
 ø14
  0
TEXT
 8
BEZ_SCHRAUBEN
 62
2
 10
111.999954
 20
21.499237
 40
5.000000
 41
0.800000
 51
15.000000
  1
 ø14
  0
ENDSEC
  0
EOF

