999
     *******************************************
999
     BOCAD Software GmbH   Rev.18.000   0202.22
999
     Filename:   c:\progetti21\danieli_aqs\b4\temp_61\4_61_1554.dxf
999
     Creator:    bocad
999
     Date:       20.01.2016
999
     Factor:     10.000000
999
     *******************************************
  0
SECTION
  2
HEADER
  9
$DWGCODEPAGE
  3
ANSI_1252
  9
$INSBASE
 10
0.0
 20
0.0
 30
0.0
  9
$EXTMIN
 10
-0.500000
 20
-110.499897
  9
$EXTMAX
 10
508.500786
 20
110.499840
  9
$LIMMIN
 10
-1.500000
 20
-111.499897
  9
$LIMMAX
 10
509.500786
 20
111.499840
  9
$LTSCALE
 40
10.000000
  0
ENDSEC
  0
SECTION
  2
TABLES
  0
TABLE
  2
LTYPE
 70
4
  0
LTYPE
  2
CONTINUOUS
 70
64
  3
____________________________________________
 72
65
 73
0
 40
0.0
  0
LTYPE
  2
HIDDEN
 70
64
  3
__ __ __ __ __ __ __ __ __ __ __ __ __ __ __
 72
65
 73
2
 40
0.50
 49
0.30
 49
-0.20
  0
LTYPE
  2
DASHDOT
 70
64
  3
____ _ ____ _ ____ _ ____ _ ____ _ ____ _ __
 72
65
 73
4
 40
2.0
 49
1.5
 49
-0.25
 49
0
 49
-0.25
  0
LTYPE
  2
DOT
 70
64
  3
............................................
 72
65
 73
2
 40
0.30
 49
0
 49
-0.30
  0
ENDTAB
  0
TABLE
  2
LAYER
 70
23
  0
LAYER
  2
SCHRAUBEN
 70
64
 62
7
  6
CONTINUOUS
  0
LAYER
  2
REST
 70
64
 62
7
  6
CONTINUOUS
  0
LAYER
  2
UNTERSCHRIFT
 70
64
 62
7
  6
CONTINUOUS
  0
LAYER
  2
TEILE
 70
64
 62
7
  6
CONTINUOUS
  0
LAYER
  2
BEZ_SCHRAUBEN
 70
64
 62
7
  6
CONTINUOUS
  0
LAYER
  2
MARKERPUNKTE
 70
64
 62
7
  6
CONTINUOUS
  0
LAYER
  2
HILFSPUNKTE
 70
64
 62
7
  6
CONTINUOUS
  0
LAYER
  2
PICKPUNKTE
 70
64
 62
7
  6
CONTINUOUS
  0
LAYER
  2
SCHWEISSEN
 70
64
 62
7
  6
CONTINUOUS
  0
LAYER
  2
GRAFIK
 70
64
 62
7
  6
CONTINUOUS
  0
LAYER
  2
BEM_FREI
 70
64
 62
7
  6
CONTINUOUS
  0
LAYER
  2
BEM_SYSTEM
 70
64
 62
7
  6
CONTINUOUS
  0
LAYER
  2
BEM_KONTUR
 70
64
 62
7
  6
CONTINUOUS
  0
LAYER
  2
BEM_ANBAU
 70
64
 62
7
  6
CONTINUOUS
  0
LAYER
  2
BEM_SCHRAUBEN
 70
64
 62
7
  6
CONTINUOUS
  0
LAYER
  2
BEM_SCHWEISSEN
 70
64
 62
7
  6
CONTINUOUS
  0
LAYER
  2
FREIER_TEXT
 70
64
 62
7
  6
CONTINUOUS
  0
LAYER
  2
BEZ_TEILE
 70
64
 62
7
  6
CONTINUOUS
  0
LAYER
  2
BEZ_SCHWEISSEN
 70
64
 62
7
  6
CONTINUOUS
  0
LAYER
  2
SCHRAFFUREN
 70
64
 62
7
  6
CONTINUOUS
  0
LAYER
  2
SCHNITTSYMBOL
 70
64
 62
7
  6
CONTINUOUS
  0
LAYER
  2
RASTER
 70
64
 62
7
  6
CONTINUOUS
  0
LAYER
  2
LISTEN
 70
64
 62
7
  6
CONTINUOUS
  0
LAYER
  2
RAHMEN
 70
64
 62
7
  6
CONTINUOUS
  0
ENDTAB
  0
TABLE
  2
STYLE
 70
1
  0
STYLE
  2
STANDARD
 70
64
 40
0
 41
1
 50
0.0
 71
0
 42
0.35
  3
ROMANS
  0
ENDTAB
  0
ENDSEC
  0
SECTION
  2
ENTITIES
  0
LINE
  8
SCHRAUBEN
 62
6
 10
457.599976
 20
-71.400276
 11
450.399963
 21
-78.600281
  0
LINE
  8
SCHRAUBEN
 62
6
 10
450.399963
 20
-71.400276
 11
457.599976
 21
-78.600281
  0
CIRCLE
  8
SCHRAUBEN
 62
2
 10
453.999969
 20
-75.000275
 40
9.000031
  0
LINE
  8
SCHRAUBEN
 62
6
 10
357.599945
 20
-71.400276
 11
350.399933
 21
-78.600281
  0
LINE
  8
SCHRAUBEN
 62
6
 10
350.399933
 20
-71.400276
 11
357.599945
 21
-78.600281
  0
CIRCLE
  8
SCHRAUBEN
 62
2
 10
353.999939
 20
-75.000275
 40
9.000000
  0
LINE
  8
SCHRAUBEN
 62
6
 10
257.600403
 20
-71.400276
 11
250.400391
 21
-78.600281
  0
LINE
  8
SCHRAUBEN
 62
6
 10
250.400391
 20
-71.400276
 11
257.600403
 21
-78.600281
  0
CIRCLE
  8
SCHRAUBEN
 62
2
 10
254.000397
 20
-75.000275
 40
9.000000
  0
LINE
  8
SCHRAUBEN
 62
6
 10
157.600403
 20
-71.400452
 11
150.400406
 21
-78.600456
  0
LINE
  8
SCHRAUBEN
 62
6
 10
150.400406
 20
-71.400452
 11
157.600403
 21
-78.600456
  0
CIRCLE
  8
SCHRAUBEN
 62
2
 10
154.000412
 20
-75.000450
 40
9.000000
  0
LINE
  8
SCHRAUBEN
 62
6
 10
57.600403
 20
-71.400452
 11
50.400398
 21
-78.600456
  0
LINE
  8
SCHRAUBEN
 62
6
 10
50.400398
 20
-71.400452
 11
57.600403
 21
-78.600456
  0
CIRCLE
  8
SCHRAUBEN
 62
2
 10
54.000401
 20
-75.000450
 40
9.000004
  0
LINE
  8
SCHRAUBEN
 62
6
 10
59.789963
 20
52.824265
 11
52.589958
 21
45.624260
  0
LINE
  8
SCHRAUBEN
 62
6
 10
52.589958
 20
52.824265
 11
59.789963
 21
45.624260
  0
CIRCLE
  8
SCHRAUBEN
 62
2
 10
56.189960
 20
49.224262
 40
9.000004
  0
LINE
  8
SCHRAUBEN
 62
6
 10
102.132782
 20
26.233179
 11
94.932785
 21
19.033178
  0
LINE
  8
SCHRAUBEN
 62
6
 10
94.932785
 20
26.233177
 11
102.132782
 21
19.033178
  0
CIRCLE
  8
SCHRAUBEN
 62
2
 10
98.532784
 20
22.633179
 40
8.999992
  0
LINE
  8
SCHRAUBEN
 62
6
 10
221.600311
 20
73.599983
 11
214.400299
 21
66.399979
  0
LINE
  8
SCHRAUBEN
 62
6
 10
214.400299
 20
73.599983
 11
221.600311
 21
66.399979
  0
CIRCLE
  8
SCHRAUBEN
 62
2
 10
218.000305
 20
69.999985
 40
8.999985
  0
LINE
  8
SCHRAUBEN
 62
6
 10
221.600525
 20
23.599983
 11
214.400513
 21
16.399982
  0
LINE
  8
SCHRAUBEN
 62
6
 10
214.400513
 20
23.599983
 11
221.600525
 21
16.399982
  0
CIRCLE
  8
SCHRAUBEN
 62
2
 10
218.000519
 20
19.999983
 40
9.000000
  0
LINE
  8
SCHRAUBEN
 62
6
 10
293.601288
 20
73.599983
 11
286.401276
 21
66.399979
  0
LINE
  8
SCHRAUBEN
 62
6
 10
286.401276
 20
73.599983
 11
293.601288
 21
66.399979
  0
CIRCLE
  8
SCHRAUBEN
 62
2
 10
290.001282
 20
69.999985
 40
9.000000
  0
LINE
  8
SCHRAUBEN
 62
6
 10
293.601044
 20
23.599983
 11
286.401031
 21
16.399982
  0
LINE
  8
SCHRAUBEN
 62
6
 10
286.401031
 20
23.599983
 11
293.601044
 21
16.399982
  0
CIRCLE
  8
SCHRAUBEN
 62
2
 10
290.001038
 20
19.999983
 40
9.000000
  0
LINE
  8
SCHRAUBEN
 62
6
 10
455.410828
 20
52.824265
 11
448.210815
 21
45.624260
  0
LINE
  8
SCHRAUBEN
 62
6
 10
448.210815
 20
52.824265
 11
455.410828
 21
45.624260
  0
CIRCLE
  8
SCHRAUBEN
 62
2
 10
451.810852
 20
49.224262
 40
9.000000
  0
LINE
  8
SCHRAUBEN
 62
6
 10
413.068054
 20
26.233179
 11
405.868042
 21
19.033178
  0
LINE
  8
SCHRAUBEN
 62
6
 10
405.868042
 20
26.233177
 11
413.068054
 21
19.033178
  0
CIRCLE
  8
SCHRAUBEN
 62
2
 10
409.468048
 20
22.633179
 40
9.000000
  0
TEXT
 8
UNTERSCHRIFT
 62
2
 10
170.800400
 20
104.749840
 40
3.250000
 41
0.800000
 51
15.000000
  1
Project  DP0GN9  ,Qty. 5  , Pos. 
  0
TEXT
 8
UNTERSCHRIFT
 62
2
 10
280.000397
 20
104.749840
 40
3.250000
 41
0.800000
 51
15.000000
  1
  , Profi l PL220*10
  0
TEXT
 8
UNTERSCHRIFT
 62
2
 10
256.600403
 20
104.749840
 40
3.250000
 41
0.800000
 51
15.000000
  1
4_61_1554
  0
LINE
  8
TEILE
 62
2
 10
508.000793
 20
-109.999893
 11
0.000000
 21
-109.999893
  0
LINE
  8
TEILE
 62
2
 10
0.000000
 20
-109.999893
 11
0.000007
 21
34.962303
  0
LINE
  8
TEILE
 62
2
 10
0.000007
 20
34.962303
 11
47.123219
 21
109.999840
  0
LINE
  8
TEILE
 62
2
 10
47.123219
 20
109.999840
 11
460.877625
 21
109.999840
  0
LINE
  8
TEILE
 62
2
 10
460.877625
 20
109.999840
 11
508.000793
 21
34.962303
  0
LINE
  8
TEILE
 62
2
 10
508.000793
 20
34.962303
 11
508.000793
 21
-109.999893
  0
TEXT
 8
BEZ_SCHRAUBEN
 62
2
 10
445.999939
 20
-91.500275
 40
5.000000
 41
0.800000
 51
15.000000
  1
 ø18
  0
TEXT
 8
BEZ_SCHRAUBEN
 62
2
 10
345.999939
 20
-91.500275
 40
5.000000
 41
0.800000
 51
15.000000
  1
 ø18
  0
TEXT
 8
BEZ_SCHRAUBEN
 62
2
 10
246.000397
 20
-91.500275
 40
5.000000
 41
0.800000
 51
15.000000
  1
 ø18
  0
TEXT
 8
BEZ_SCHRAUBEN
 62
2
 10
146.000397
 20
-91.500458
 40
5.000000
 41
0.800000
 51
15.000000
  1
 ø18
  0
TEXT
 8
BEZ_SCHRAUBEN
 62
2
 10
46.000401
 20
-91.500458
 40
5.000000
 41
0.800000
 51
15.000000
  1
 ø18
  0
TEXT
 8
BEZ_SCHRAUBEN
 62
2
 10
48.189960
 20
32.724262
 40
5.000000
 41
0.800000
 51
15.000000
  1
 ø18
  0
TEXT
 8
BEZ_SCHRAUBEN
 62
2
 10
90.532776
 20
6.133178
 40
5.000000
 41
0.800000
 51
15.000000
  1
 ø18
  0
TEXT
 8
BEZ_SCHRAUBEN
 62
2
 10
210.000305
 20
53.499985
 40
5.000000
 41
0.800000
 51
15.000000
  1
 ø18
  0
TEXT
 8
BEZ_SCHRAUBEN
 62
2
 10
210.000549
 20
3.499983
 40
5.000000
 41
0.800000
 51
15.000000
  1
 ø18
  0
TEXT
 8
BEZ_SCHRAUBEN
 62
2
 10
282.001282
 20
53.499985
 40
5.000000
 41
0.800000
 51
15.000000
  1
 ø18
  0
TEXT
 8
BEZ_SCHRAUBEN
 62
2
 10
282.001068
 20
3.499983
 40
5.000000
 41
0.800000
 51
15.000000
  1
 ø18
  0
TEXT
 8
BEZ_SCHRAUBEN
 62
2
 10
443.810883
 20
32.724262
 40
5.000000
 41
0.800000
 51
15.000000
  1
 ø18
  0
TEXT
 8
BEZ_SCHRAUBEN
 62
2
 10
401.468048
 20
6.133178
 40
5.000000
 41
0.800000
 51
15.000000
  1
 ø18
  0
ENDSEC
  0
EOF

