999
     *******************************************
999
     BOCAD Software GmbH   Rev.18.000   0202.22
999
     Filename:   c:\progetti21\danieli_aqs\b4\temp_61\4_61_1552.dxf
999
     Creator:    bocad
999
     Date:       20.01.2016
999
     Factor:     10.000000
999
     *******************************************
  0
SECTION
  2
HEADER
  9
$DWGCODEPAGE
  3
ANSI_1252
  9
$INSBASE
 10
0.0
 20
0.0
 30
0.0
  9
$EXTMIN
 10
-0.500000
 20
-125.500002
  9
$EXTMAX
 10
400.501518
 20
125.500002
  9
$LIMMIN
 10
-1.500000
 20
-126.500002
  9
$LIMMAX
 10
401.501518
 20
126.500002
  9
$LTSCALE
 40
10.000000
  0
ENDSEC
  0
SECTION
  2
TABLES
  0
TABLE
  2
LTYPE
 70
4
  0
LTYPE
  2
CONTINUOUS
 70
64
  3
____________________________________________
 72
65
 73
0
 40
0.0
  0
LTYPE
  2
HIDDEN
 70
64
  3
__ __ __ __ __ __ __ __ __ __ __ __ __ __ __
 72
65
 73
2
 40
0.50
 49
0.30
 49
-0.20
  0
LTYPE
  2
DASHDOT
 70
64
  3
____ _ ____ _ ____ _ ____ _ ____ _ ____ _ __
 72
65
 73
4
 40
2.0
 49
1.5
 49
-0.25
 49
0
 49
-0.25
  0
LTYPE
  2
DOT
 70
64
  3
............................................
 72
65
 73
2
 40
0.30
 49
0
 49
-0.30
  0
ENDTAB
  0
TABLE
  2
LAYER
 70
23
  0
LAYER
  2
SCHRAUBEN
 70
64
 62
7
  6
CONTINUOUS
  0
LAYER
  2
REST
 70
64
 62
7
  6
CONTINUOUS
  0
LAYER
  2
UNTERSCHRIFT
 70
64
 62
7
  6
CONTINUOUS
  0
LAYER
  2
TEILE
 70
64
 62
7
  6
CONTINUOUS
  0
LAYER
  2
BEZ_SCHRAUBEN
 70
64
 62
7
  6
CONTINUOUS
  0
LAYER
  2
MARKERPUNKTE
 70
64
 62
7
  6
CONTINUOUS
  0
LAYER
  2
HILFSPUNKTE
 70
64
 62
7
  6
CONTINUOUS
  0
LAYER
  2
PICKPUNKTE
 70
64
 62
7
  6
CONTINUOUS
  0
LAYER
  2
SCHWEISSEN
 70
64
 62
7
  6
CONTINUOUS
  0
LAYER
  2
GRAFIK
 70
64
 62
7
  6
CONTINUOUS
  0
LAYER
  2
BEM_FREI
 70
64
 62
7
  6
CONTINUOUS
  0
LAYER
  2
BEM_SYSTEM
 70
64
 62
7
  6
CONTINUOUS
  0
LAYER
  2
BEM_KONTUR
 70
64
 62
7
  6
CONTINUOUS
  0
LAYER
  2
BEM_ANBAU
 70
64
 62
7
  6
CONTINUOUS
  0
LAYER
  2
BEM_SCHRAUBEN
 70
64
 62
7
  6
CONTINUOUS
  0
LAYER
  2
BEM_SCHWEISSEN
 70
64
 62
7
  6
CONTINUOUS
  0
LAYER
  2
FREIER_TEXT
 70
64
 62
7
  6
CONTINUOUS
  0
LAYER
  2
BEZ_TEILE
 70
64
 62
7
  6
CONTINUOUS
  0
LAYER
  2
BEZ_SCHWEISSEN
 70
64
 62
7
  6
CONTINUOUS
  0
LAYER
  2
SCHRAFFUREN
 70
64
 62
7
  6
CONTINUOUS
  0
LAYER
  2
SCHNITTSYMBOL
 70
64
 62
7
  6
CONTINUOUS
  0
LAYER
  2
RASTER
 70
64
 62
7
  6
CONTINUOUS
  0
LAYER
  2
LISTEN
 70
64
 62
7
  6
CONTINUOUS
  0
LAYER
  2
RAHMEN
 70
64
 62
7
  6
CONTINUOUS
  0
ENDTAB
  0
TABLE
  2
STYLE
 70
1
  0
STYLE
  2
STANDARD
 70
64
 40
0
 41
1
 50
0.0
 71
0
 42
0.35
  3
ROMANS
  0
ENDTAB
  0
ENDSEC
  0
SECTION
  2
ENTITIES
  0
LINE
  8
SCHRAUBEN
 62
6
 10
55.802151
 20
67.802780
 11
44.202152
 21
56.202782
  0
LINE
  8
SCHRAUBEN
 62
6
 10
44.202152
 20
67.802780
 11
55.802151
 21
56.202782
  0
CIRCLE
  8
SCHRAUBEN
 62
2
 10
50.002151
 20
62.002785
 40
14.500000
  0
LINE
  8
SCHRAUBEN
 62
6
 10
145.802155
 20
67.802780
 11
134.202148
 21
56.202782
  0
LINE
  8
SCHRAUBEN
 62
6
 10
134.202148
 20
67.802780
 11
145.802155
 21
56.202782
  0
CIRCLE
  8
SCHRAUBEN
 62
2
 10
140.002151
 20
62.002785
 40
14.500000
  0
LINE
  8
SCHRAUBEN
 62
6
 10
265.802155
 20
67.802780
 11
254.202148
 21
56.202782
  0
LINE
  8
SCHRAUBEN
 62
6
 10
254.202148
 20
67.802780
 11
265.802155
 21
56.202782
  0
CIRCLE
  8
SCHRAUBEN
 62
2
 10
260.002167
 20
62.002785
 40
14.500000
  0
LINE
  8
SCHRAUBEN
 62
6
 10
355.802185
 20
67.802780
 11
344.202148
 21
56.202782
  0
LINE
  8
SCHRAUBEN
 62
6
 10
344.202148
 20
67.802780
 11
355.802185
 21
56.202782
  0
CIRCLE
  8
SCHRAUBEN
 62
2
 10
350.002167
 20
62.002785
 40
14.500031
  0
LINE
  8
SCHRAUBEN
 62
6
 10
355.802185
 20
-56.197220
 11
344.202148
 21
-67.797218
  0
LINE
  8
SCHRAUBEN
 62
6
 10
344.202148
 20
-56.197220
 11
355.802185
 21
-67.797218
  0
CIRCLE
  8
SCHRAUBEN
 62
2
 10
350.002167
 20
-61.997219
 40
14.500031
  0
LINE
  8
SCHRAUBEN
 62
6
 10
265.802155
 20
-56.197220
 11
254.202148
 21
-67.797218
  0
LINE
  8
SCHRAUBEN
 62
6
 10
254.202148
 20
-56.197220
 11
265.802155
 21
-67.797218
  0
CIRCLE
  8
SCHRAUBEN
 62
2
 10
260.002167
 20
-61.997219
 40
14.500000
  0
LINE
  8
SCHRAUBEN
 62
6
 10
145.802155
 20
-56.197220
 11
134.202148
 21
-67.797218
  0
LINE
  8
SCHRAUBEN
 62
6
 10
134.202148
 20
-56.197220
 11
145.802155
 21
-67.797218
  0
CIRCLE
  8
SCHRAUBEN
 62
2
 10
140.002151
 20
-61.997219
 40
14.500000
  0
LINE
  8
SCHRAUBEN
 62
6
 10
55.802151
 20
-56.197220
 11
44.202152
 21
-67.797218
  0
LINE
  8
SCHRAUBEN
 62
6
 10
44.202152
 20
-56.197220
 11
55.802151
 21
-67.797218
  0
CIRCLE
  8
SCHRAUBEN
 62
2
 10
50.002151
 20
-61.997219
 40
14.500000
  0
TEXT
 8
UNTERSCHRIFT
 62
2
 10
116.800766
 20
-123.000000
 40
3.250000
 41
0.800000
 51
15.000000
  1
Project  DP0GN9  ,Qty. 28  , Pos. 
  0
TEXT
 8
UNTERSCHRIFT
 62
2
 10
228.600769
 20
-123.000000
 40
3.250000
 41
0.800000
 51
15.000000
  1
  , Profi l PL250*6
  0
TEXT
 8
UNTERSCHRIFT
 62
2
 10
205.200775
 20
-123.000000
 40
3.250000
 41
0.800000
 51
15.000000
  1
4_61_1552
  0
LINE
  8
TEILE
 62
2
 10
0.000000
 20
-125.000000
 11
0.000000
 21
125.000000
  0
LINE
  8
TEILE
 62
2
 10
0.000000
 20
125.000000
 11
400.001526
 21
125.000000
  0
LINE
  8
TEILE
 62
2
 10
400.001526
 20
125.000000
 11
400.001526
 21
-125.000000
  0
LINE
  8
TEILE
 62
2
 10
400.001526
 20
-125.000000
 11
0.000000
 21
-125.000000
  0
TEXT
 8
BEZ_SCHRAUBEN
 62
2
 10
42.002148
 20
40.002789
 40
5.000000
 41
0.800000
 51
15.000000
  1
 ø29
  0
ENDSEC
  0
EOF

