999
     *******************************************
999
     BOCAD Software GmbH   Rev.18.000   0202.22
999
     Filename:   c:\progetti21\danieli_aqs\b4\temp_61\4_61_1556.dxf
999
     Creator:    bocad
999
     Date:       20.01.2016
999
     Factor:     10.000000
999
     *******************************************
  0
SECTION
  2
HEADER
  9
$DWGCODEPAGE
  3
ANSI_1252
  9
$INSBASE
 10
0.0
 20
0.0
 30
0.0
  9
$EXTMIN
 10
-0.500000
 20
-75.500002
  9
$EXTMAX
 10
243.845959
 20
75.500002
  9
$LIMMIN
 10
-1.500000
 20
-76.500002
  9
$LIMMAX
 10
244.845959
 20
76.500002
  9
$LTSCALE
 40
10.000000
  0
ENDSEC
  0
SECTION
  2
TABLES
  0
TABLE
  2
LTYPE
 70
4
  0
LTYPE
  2
CONTINUOUS
 70
64
  3
____________________________________________
 72
65
 73
0
 40
0.0
  0
LTYPE
  2
HIDDEN
 70
64
  3
__ __ __ __ __ __ __ __ __ __ __ __ __ __ __
 72
65
 73
2
 40
0.50
 49
0.30
 49
-0.20
  0
LTYPE
  2
DASHDOT
 70
64
  3
____ _ ____ _ ____ _ ____ _ ____ _ ____ _ __
 72
65
 73
4
 40
2.0
 49
1.5
 49
-0.25
 49
0
 49
-0.25
  0
LTYPE
  2
DOT
 70
64
  3
............................................
 72
65
 73
2
 40
0.30
 49
0
 49
-0.30
  0
ENDTAB
  0
TABLE
  2
LAYER
 70
23
  0
LAYER
  2
SCHRAUBEN
 70
64
 62
7
  6
CONTINUOUS
  0
LAYER
  2
REST
 70
64
 62
7
  6
CONTINUOUS
  0
LAYER
  2
UNTERSCHRIFT
 70
64
 62
7
  6
CONTINUOUS
  0
LAYER
  2
TEILE
 70
64
 62
7
  6
CONTINUOUS
  0
LAYER
  2
BEZ_SCHRAUBEN
 70
64
 62
7
  6
CONTINUOUS
  0
LAYER
  2
MARKERPUNKTE
 70
64
 62
7
  6
CONTINUOUS
  0
LAYER
  2
HILFSPUNKTE
 70
64
 62
7
  6
CONTINUOUS
  0
LAYER
  2
PICKPUNKTE
 70
64
 62
7
  6
CONTINUOUS
  0
LAYER
  2
SCHWEISSEN
 70
64
 62
7
  6
CONTINUOUS
  0
LAYER
  2
GRAFIK
 70
64
 62
7
  6
CONTINUOUS
  0
LAYER
  2
BEM_FREI
 70
64
 62
7
  6
CONTINUOUS
  0
LAYER
  2
BEM_SYSTEM
 70
64
 62
7
  6
CONTINUOUS
  0
LAYER
  2
BEM_KONTUR
 70
64
 62
7
  6
CONTINUOUS
  0
LAYER
  2
BEM_ANBAU
 70
64
 62
7
  6
CONTINUOUS
  0
LAYER
  2
BEM_SCHRAUBEN
 70
64
 62
7
  6
CONTINUOUS
  0
LAYER
  2
BEM_SCHWEISSEN
 70
64
 62
7
  6
CONTINUOUS
  0
LAYER
  2
FREIER_TEXT
 70
64
 62
7
  6
CONTINUOUS
  0
LAYER
  2
BEZ_TEILE
 70
64
 62
7
  6
CONTINUOUS
  0
LAYER
  2
BEZ_SCHWEISSEN
 70
64
 62
7
  6
CONTINUOUS
  0
LAYER
  2
SCHRAFFUREN
 70
64
 62
7
  6
CONTINUOUS
  0
LAYER
  2
SCHNITTSYMBOL
 70
64
 62
7
  6
CONTINUOUS
  0
LAYER
  2
RASTER
 70
64
 62
7
  6
CONTINUOUS
  0
LAYER
  2
LISTEN
 70
64
 62
7
  6
CONTINUOUS
  0
LAYER
  2
RAHMEN
 70
64
 62
7
  6
CONTINUOUS
  0
ENDTAB
  0
TABLE
  2
STYLE
 70
1
  0
STYLE
  2
STANDARD
 70
64
 40
0
 41
1
 50
0.0
 71
0
 42
0.35
  3
ROMANS
  0
ENDTAB
  0
ENDSEC
  0
SECTION
  2
ENTITIES
  0
LINE
  8
SCHRAUBEN
 62
6
 10
49.400021
 20
3.898833
 11
40.600018
 21
-4.901167
  0
LINE
  8
SCHRAUBEN
 62
6
 10
40.600018
 20
3.898833
 11
49.400021
 21
-4.901167
  0
CIRCLE
  8
SCHRAUBEN
 62
2
 10
45.000019
 20
-0.501167
 40
11.000000
  0
LINE
  8
SCHRAUBEN
 62
6
 10
109.400017
 20
3.898833
 11
100.600021
 21
-4.901167
  0
LINE
  8
SCHRAUBEN
 62
6
 10
100.600021
 20
3.898833
 11
109.400017
 21
-4.901167
  0
CIRCLE
  8
SCHRAUBEN
 62
2
 10
105.000015
 20
-0.501167
 40
11.000008
  0
LINE
  8
SCHRAUBEN
 62
6
 10
217.745987
 20
-26.099995
 11
208.945984
 21
-34.899994
  0
LINE
  8
SCHRAUBEN
 62
6
 10
208.945984
 20
-26.099995
 11
217.745987
 21
-34.899994
  0
CIRCLE
  8
SCHRAUBEN
 62
2
 10
213.345978
 20
-30.499994
 40
11.000015
  0
LINE
  8
SCHRAUBEN
 62
6
 10
217.745987
 20
33.900005
 11
208.945984
 21
25.100004
  0
LINE
  8
SCHRAUBEN
 62
6
 10
208.945984
 20
33.900005
 11
217.745987
 21
25.100004
  0
CIRCLE
  8
SCHRAUBEN
 62
2
 10
213.345978
 20
29.500006
 40
11.000015
  0
TEXT
 8
UNTERSCHRIFT
 62
2
 10
7.209963
 20
31.526585
 40
2.750000
 50
15.109535
 41
0.800000
 51
15.000000
  1
Project  DP0GN9  ,Qty. 22  , Pos. 
  0
TEXT
 8
UNTERSCHRIFT
 62
2
 10
98.539566
 20
56.185589
 40
2.750000
 50
15.109521
 41
0.800000
 51
15.000000
  1
  , Profi l PL150*10
  0
TEXT
 8
UNTERSCHRIFT
 62
2
 10
79.424065
 20
51.024403
 40
2.750000
 50
15.109555
 41
0.800000
 51
15.000000
  1
4_61_1556
  0
LINE
  8
TEILE
 62
2
 10
149.999985
 20
-75.000000
 11
0.000000
 21
-35.500023
  0
LINE
  8
TEILE
 62
2
 10
0.000000
 20
-35.500023
 11
0.000000
 21
34.499985
  0
LINE
  8
TEILE
 62
2
 10
0.000000
 20
34.499985
 11
149.999954
 21
75.000000
  0
LINE
  8
TEILE
 62
2
 10
149.999954
 20
75.000000
 11
243.345963
 21
75.000000
  0
LINE
  8
TEILE
 62
2
 10
243.345963
 20
75.000000
 11
243.345963
 21
-75.000000
  0
LINE
  8
TEILE
 62
2
 10
243.345963
 20
-75.000000
 11
149.999985
 21
-75.000000
  0
TEXT
 8
BEZ_SCHRAUBEN
 62
2
 10
37.000019
 20
-19.001167
 40
5.000000
 41
0.800000
 51
15.000000
  1
 ø22
  0
ENDSEC
  0
EOF

