999
     *******************************************
999
     BOCAD Software GmbH   Rev.18.000   0202.22
999
     Filename:   c:\progetti21\danieli_aqs\b4\temp_61\4_61_1555.dxf
999
     Creator:    bocad
999
     Date:       20.01.2016
999
     Factor:     10.000000
999
     *******************************************
  0
SECTION
  2
HEADER
  9
$DWGCODEPAGE
  3
ANSI_1252
  9
$INSBASE
 10
0.0
 20
0.0
 30
0.0
  9
$EXTMIN
 10
-0.500000
 20
-110.499840
  9
$EXTMAX
 10
380.499992
 20
110.499840
  9
$LIMMIN
 10
-1.500000
 20
-111.499840
  9
$LIMMAX
 10
381.499992
 20
111.499840
  9
$LTSCALE
 40
10.000000
  0
ENDSEC
  0
SECTION
  2
TABLES
  0
TABLE
  2
LTYPE
 70
4
  0
LTYPE
  2
CONTINUOUS
 70
64
  3
____________________________________________
 72
65
 73
0
 40
0.0
  0
LTYPE
  2
HIDDEN
 70
64
  3
__ __ __ __ __ __ __ __ __ __ __ __ __ __ __
 72
65
 73
2
 40
0.50
 49
0.30
 49
-0.20
  0
LTYPE
  2
DASHDOT
 70
64
  3
____ _ ____ _ ____ _ ____ _ ____ _ ____ _ __
 72
65
 73
4
 40
2.0
 49
1.5
 49
-0.25
 49
0
 49
-0.25
  0
LTYPE
  2
DOT
 70
64
  3
............................................
 72
65
 73
2
 40
0.30
 49
0
 49
-0.30
  0
ENDTAB
  0
TABLE
  2
LAYER
 70
23
  0
LAYER
  2
SCHRAUBEN
 70
64
 62
7
  6
CONTINUOUS
  0
LAYER
  2
REST
 70
64
 62
7
  6
CONTINUOUS
  0
LAYER
  2
UNTERSCHRIFT
 70
64
 62
7
  6
CONTINUOUS
  0
LAYER
  2
TEILE
 70
64
 62
7
  6
CONTINUOUS
  0
LAYER
  2
BEZ_SCHRAUBEN
 70
64
 62
7
  6
CONTINUOUS
  0
LAYER
  2
MARKERPUNKTE
 70
64
 62
7
  6
CONTINUOUS
  0
LAYER
  2
HILFSPUNKTE
 70
64
 62
7
  6
CONTINUOUS
  0
LAYER
  2
PICKPUNKTE
 70
64
 62
7
  6
CONTINUOUS
  0
LAYER
  2
SCHWEISSEN
 70
64
 62
7
  6
CONTINUOUS
  0
LAYER
  2
GRAFIK
 70
64
 62
7
  6
CONTINUOUS
  0
LAYER
  2
BEM_FREI
 70
64
 62
7
  6
CONTINUOUS
  0
LAYER
  2
BEM_SYSTEM
 70
64
 62
7
  6
CONTINUOUS
  0
LAYER
  2
BEM_KONTUR
 70
64
 62
7
  6
CONTINUOUS
  0
LAYER
  2
BEM_ANBAU
 70
64
 62
7
  6
CONTINUOUS
  0
LAYER
  2
BEM_SCHRAUBEN
 70
64
 62
7
  6
CONTINUOUS
  0
LAYER
  2
BEM_SCHWEISSEN
 70
64
 62
7
  6
CONTINUOUS
  0
LAYER
  2
FREIER_TEXT
 70
64
 62
7
  6
CONTINUOUS
  0
LAYER
  2
BEZ_TEILE
 70
64
 62
7
  6
CONTINUOUS
  0
LAYER
  2
BEZ_SCHWEISSEN
 70
64
 62
7
  6
CONTINUOUS
  0
LAYER
  2
SCHRAFFUREN
 70
64
 62
7
  6
CONTINUOUS
  0
LAYER
  2
SCHNITTSYMBOL
 70
64
 62
7
  6
CONTINUOUS
  0
LAYER
  2
RASTER
 70
64
 62
7
  6
CONTINUOUS
  0
LAYER
  2
LISTEN
 70
64
 62
7
  6
CONTINUOUS
  0
LAYER
  2
RAHMEN
 70
64
 62
7
  6
CONTINUOUS
  0
ENDTAB
  0
TABLE
  2
STYLE
 70
1
  0
STYLE
  2
STANDARD
 70
64
 40
0
 41
1
 50
0.0
 71
0
 42
0.35
  3
ROMANS
  0
ENDTAB
  0
ENDSEC
  0
SECTION
  2
ENTITIES
  0
LINE
  8
SCHRAUBEN
 62
6
 10
343.599701
 20
-71.400276
 11
336.399689
 21
-78.600281
  0
LINE
  8
SCHRAUBEN
 62
6
 10
336.399689
 20
-71.400276
 11
343.599701
 21
-78.600281
  0
CIRCLE
  8
SCHRAUBEN
 62
2
 10
339.999695
 20
-75.000275
 40
9.000000
  0
LINE
  8
SCHRAUBEN
 62
6
 10
243.599716
 20
-71.400276
 11
236.399704
 21
-78.600281
  0
LINE
  8
SCHRAUBEN
 62
6
 10
236.399704
 20
-71.400276
 11
243.599716
 21
-78.600281
  0
CIRCLE
  8
SCHRAUBEN
 62
2
 10
239.999710
 20
-75.000275
 40
9.000000
  0
LINE
  8
SCHRAUBEN
 62
6
 10
143.600143
 20
-71.400879
 11
136.400162
 21
-78.600883
  0
LINE
  8
SCHRAUBEN
 62
6
 10
136.400162
 20
-71.400879
 11
143.600143
 21
-78.600883
  0
CIRCLE
  8
SCHRAUBEN
 62
2
 10
140.000153
 20
-75.000885
 40
9.000000
  0
LINE
  8
SCHRAUBEN
 62
6
 10
43.600155
 20
-71.400452
 11
36.400150
 21
-78.600456
  0
LINE
  8
SCHRAUBEN
 62
6
 10
36.400150
 20
-71.400452
 11
43.600155
 21
-78.600456
  0
CIRCLE
  8
SCHRAUBEN
 62
2
 10
40.000153
 20
-75.000450
 40
9.000000
  0
LINE
  8
SCHRAUBEN
 62
6
 10
93.599487
 20
73.599983
 11
86.399498
 21
66.399979
  0
LINE
  8
SCHRAUBEN
 62
6
 10
86.399498
 20
73.599983
 11
93.599487
 21
66.399979
  0
CIRCLE
  8
SCHRAUBEN
 62
2
 10
89.999496
 20
69.999985
 40
8.999992
  0
LINE
  8
SCHRAUBEN
 62
6
 10
93.599731
 20
23.599983
 11
86.399734
 21
16.399982
  0
LINE
  8
SCHRAUBEN
 62
6
 10
86.399734
 20
23.599983
 11
93.599731
 21
16.399982
  0
CIRCLE
  8
SCHRAUBEN
 62
2
 10
89.999733
 20
19.999983
 40
8.999992
  0
LINE
  8
SCHRAUBEN
 62
6
 10
165.600494
 20
73.599983
 11
158.400482
 21
66.399979
  0
LINE
  8
SCHRAUBEN
 62
6
 10
158.400482
 20
73.599983
 11
165.600494
 21
66.399979
  0
CIRCLE
  8
SCHRAUBEN
 62
2
 10
162.000488
 20
69.999985
 40
9.000000
  0
LINE
  8
SCHRAUBEN
 62
6
 10
165.600250
 20
23.599983
 11
158.400238
 21
16.399982
  0
LINE
  8
SCHRAUBEN
 62
6
 10
158.400238
 20
23.599983
 11
165.600250
 21
16.399982
  0
CIRCLE
  8
SCHRAUBEN
 62
2
 10
162.000244
 20
19.999983
 40
8.999985
  0
LINE
  8
SCHRAUBEN
 62
6
 10
327.410034
 20
52.824265
 11
320.210022
 21
45.624260
  0
LINE
  8
SCHRAUBEN
 62
6
 10
320.210022
 20
52.824265
 11
327.410034
 21
45.624260
  0
CIRCLE
  8
SCHRAUBEN
 62
2
 10
323.810059
 20
49.224262
 40
9.000000
  0
LINE
  8
SCHRAUBEN
 62
6
 10
285.067230
 20
26.233179
 11
277.867218
 21
19.033178
  0
LINE
  8
SCHRAUBEN
 62
6
 10
277.867218
 20
26.233177
 11
285.067230
 21
19.033178
  0
CIRCLE
  8
SCHRAUBEN
 62
2
 10
281.467224
 20
22.633179
 40
9.000000
  0
TEXT
 8
UNTERSCHRIFT
 62
2
 10
105.500000
 20
-107.999840
 40
3.250000
 41
0.800000
 51
15.000000
  1
Project  DP0GN9  ,Qty. 12  , Pos. 
  0
TEXT
 8
UNTERSCHRIFT
 62
2
 10
217.299988
 20
-107.999840
 40
3.250000
 41
0.800000
 51
15.000000
  1
  , Profi l PL220*10
  0
TEXT
 8
UNTERSCHRIFT
 62
2
 10
193.899994
 20
-107.999840
 40
3.250000
 41
0.800000
 51
15.000000
  1
4_61_1555
  0
LINE
  8
TEILE
 62
2
 10
0.000000
 20
-109.999840
 11
0.000000
 21
-39.999855
  0
LINE
  8
TEILE
 62
2
 10
0.000000
 20
-39.999855
 11
59.999382
 21
109.999840
  0
LINE
  8
TEILE
 62
2
 10
59.999382
 20
109.999840
 11
332.876831
 21
109.999840
  0
LINE
  8
TEILE
 62
2
 10
332.876831
 20
109.999840
 11
380.000000
 21
34.962303
  0
LINE
  8
TEILE
 62
2
 10
380.000000
 20
34.962303
 11
380.000000
 21
-109.999840
  0
LINE
  8
TEILE
 62
2
 10
380.000000
 20
-109.999840
 11
0.000000
 21
-109.999840
  0
TEXT
 8
BEZ_SCHRAUBEN
 62
2
 10
331.999695
 20
-91.500275
 40
5.000000
 41
0.800000
 51
15.000000
  1
 ø18
  0
TEXT
 8
BEZ_SCHRAUBEN
 62
2
 10
231.999695
 20
-91.500275
 40
5.000000
 41
0.800000
 51
15.000000
  1
 ø18
  0
TEXT
 8
BEZ_SCHRAUBEN
 62
2
 10
132.000153
 20
-91.500885
 40
5.000000
 41
0.800000
 51
15.000000
  1
 ø18
  0
TEXT
 8
BEZ_SCHRAUBEN
 62
2
 10
32.000153
 20
-91.500458
 40
5.000000
 41
0.800000
 51
15.000000
  1
 ø18
  0
TEXT
 8
BEZ_SCHRAUBEN
 62
2
 10
81.999496
 20
53.499985
 40
5.000000
 41
0.800000
 51
15.000000
  1
 ø18
  0
TEXT
 8
BEZ_SCHRAUBEN
 62
2
 10
81.999733
 20
3.499983
 40
5.000000
 41
0.800000
 51
15.000000
  1
 ø18
  0
TEXT
 8
BEZ_SCHRAUBEN
 62
2
 10
154.000488
 20
53.499985
 40
5.000000
 41
0.799999
 51
15.000000
  1
 ø18
  0
TEXT
 8
BEZ_SCHRAUBEN
 62
2
 10
154.000259
 20
3.499983
 40
5.000000
 41
0.799999
 51
15.000000
  1
 ø18
  0
TEXT
 8
BEZ_SCHRAUBEN
 62
2
 10
315.810089
 20
32.724262
 40
5.000000
 41
0.800000
 51
15.000000
  1
 ø18
  0
TEXT
 8
BEZ_SCHRAUBEN
 62
2
 10
273.467224
 20
6.133178
 40
5.000000
 41
0.800000
 51
15.000000
  1
 ø18
  0
ENDSEC
  0
EOF

