999
     *******************************************
999
     BOCAD Software GmbH   Rev.18.000   0202.22
999
     Filename:   c:\progetti21\danieli_aqs\b4\temp_63\4_63_1209.dxf
999
     Creator:    bocad
999
     Date:       20.01.2016
999
     Factor:     10.000000
999
     *******************************************
  0
SECTION
  2
HEADER
  9
$DWGCODEPAGE
  3
ANSI_1252
  9
$INSBASE
 10
0.0
 20
0.0
 30
0.0
  9
$EXTMIN
 10
-0.500000
 20
-25.500000
  9
$EXTMAX
 10
50.500002
 20
25.500000
  9
$LIMMIN
 10
-1.500000
 20
-26.500000
  9
$LIMMAX
 10
51.500002
 20
26.500000
  9
$LTSCALE
 40
10.000000
  0
ENDSEC
  0
SECTION
  2
TABLES
  0
TABLE
  2
LTYPE
 70
4
  0
LTYPE
  2
CONTINUOUS
 70
64
  3
____________________________________________
 72
65
 73
0
 40
0.0
  0
LTYPE
  2
HIDDEN
 70
64
  3
__ __ __ __ __ __ __ __ __ __ __ __ __ __ __
 72
65
 73
2
 40
0.50
 49
0.30
 49
-0.20
  0
LTYPE
  2
DASHDOT
 70
64
  3
____ _ ____ _ ____ _ ____ _ ____ _ ____ _ __
 72
65
 73
4
 40
2.0
 49
1.5
 49
-0.25
 49
0
 49
-0.25
  0
LTYPE
  2
DOT
 70
64
  3
............................................
 72
65
 73
2
 40
0.30
 49
0
 49
-0.30
  0
ENDTAB
  0
TABLE
  2
LAYER
 70
23
  0
LAYER
  2
SCHRAUBEN
 70
64
 62
7
  6
CONTINUOUS
  0
LAYER
  2
REST
 70
64
 62
7
  6
CONTINUOUS
  0
LAYER
  2
UNTERSCHRIFT
 70
64
 62
7
  6
CONTINUOUS
  0
LAYER
  2
TEILE
 70
64
 62
7
  6
CONTINUOUS
  0
LAYER
  2
BEZ_SCHRAUBEN
 70
64
 62
7
  6
CONTINUOUS
  0
LAYER
  2
MARKERPUNKTE
 70
64
 62
7
  6
CONTINUOUS
  0
LAYER
  2
HILFSPUNKTE
 70
64
 62
7
  6
CONTINUOUS
  0
LAYER
  2
PICKPUNKTE
 70
64
 62
7
  6
CONTINUOUS
  0
LAYER
  2
SCHWEISSEN
 70
64
 62
7
  6
CONTINUOUS
  0
LAYER
  2
GRAFIK
 70
64
 62
7
  6
CONTINUOUS
  0
LAYER
  2
BEM_FREI
 70
64
 62
7
  6
CONTINUOUS
  0
LAYER
  2
BEM_SYSTEM
 70
64
 62
7
  6
CONTINUOUS
  0
LAYER
  2
BEM_KONTUR
 70
64
 62
7
  6
CONTINUOUS
  0
LAYER
  2
BEM_ANBAU
 70
64
 62
7
  6
CONTINUOUS
  0
LAYER
  2
BEM_SCHRAUBEN
 70
64
 62
7
  6
CONTINUOUS
  0
LAYER
  2
BEM_SCHWEISSEN
 70
64
 62
7
  6
CONTINUOUS
  0
LAYER
  2
FREIER_TEXT
 70
64
 62
7
  6
CONTINUOUS
  0
LAYER
  2
BEZ_TEILE
 70
64
 62
7
  6
CONTINUOUS
  0
LAYER
  2
BEZ_SCHWEISSEN
 70
64
 62
7
  6
CONTINUOUS
  0
LAYER
  2
SCHRAFFUREN
 70
64
 62
7
  6
CONTINUOUS
  0
LAYER
  2
SCHNITTSYMBOL
 70
64
 62
7
  6
CONTINUOUS
  0
LAYER
  2
RASTER
 70
64
 62
7
  6
CONTINUOUS
  0
LAYER
  2
LISTEN
 70
64
 62
7
  6
CONTINUOUS
  0
LAYER
  2
RAHMEN
 70
64
 62
7
  6
CONTINUOUS
  0
ENDTAB
  0
TABLE
  2
STYLE
 70
1
  0
STYLE
  2
STANDARD
 70
64
 40
0
 41
1
 50
0.0
 71
0
 42
0.35
  3
ROMANS
  0
ENDTAB
  0
ENDSEC
  0
SECTION
  2
ENTITIES
  0
LINE
  8
SCHRAUBEN
 62
6
 10
27.799999
 20
2.800000
 11
22.200001
 21
-2.800000
  0
LINE
  8
SCHRAUBEN
 62
6
 10
22.200001
 20
2.800000
 11
27.799999
 21
-2.800000
  0
CIRCLE
  8
SCHRAUBEN
 62
2
 10
25.000000
 20
0.000000
 40
7.000000
  0
TEXT
 8
UNTERSCHRIFT
 62
2
 10
25.000000
 20
23.000000
 40
3.000000
 50
179.999969
 41
0.800000
 51
15.000000
  1
P
  0
TEXT
 8
UNTERSCHRIFT
 62
2
 10
22.624249
 20
22.876970
 40
3.000000
 50
-174.071167
 41
0.800000
 51
15.000000
  1
r
  0
TEXT
 8
UNTERSCHRIFT
 62
2
 10
20.273914
 20
22.509201
 40
3.000000
 50
-168.142319
 41
0.800000
 51
15.000000
  1
o
  0
TEXT
 8
UNTERSCHRIFT
 62
2
 10
17.974140
 20
21.900623
 40
3.000000
 50
-162.213455
 41
0.800000
 51
15.000000
  1
j
  0
TEXT
 8
UNTERSCHRIFT
 62
2
 10
15.749530
 20
21.057749
 40
3.000000
 50
-156.284607
 41
0.800000
 51
15.000000
  1
e
  0
TEXT
 8
UNTERSCHRIFT
 62
2
 10
13.623882
 20
19.989595
 40
3.000000
 50
-150.355743
 41
0.800000
 51
15.000000
  1
c
  0
TEXT
 8
UNTERSCHRIFT
 62
2
 10
11.619941
 20
18.707592
 40
3.000000
 50
-144.426895
 41
0.800000
 51
15.000000
  1
t
  0
TEXT
 8
UNTERSCHRIFT
 62
2
 10
9.759142
 20
17.225452
 40
3.000000
 50
-138.498047
 41
0.800000
 51
15.000000
  1
 
  0
TEXT
 8
UNTERSCHRIFT
 62
2
 10
8.061391
 20
15.559033
 40
3.000000
 50
-132.569199
 41
0.800000
 51
15.000000
  1
 
  0
TEXT
 8
UNTERSCHRIFT
 62
2
 10
6.544852
 20
13.726160
 40
3.000000
 50
-126.640350
 41
0.800000
 51
15.000000
  1
D
  0
TEXT
 8
UNTERSCHRIFT
 62
2
 10
5.225748
 20
11.746444
 40
3.000000
 50
-120.711510
 41
0.800000
 51
15.000000
  1
P
  0
TEXT
 8
UNTERSCHRIFT
 62
2
 10
4.118192
 20
9.641062
 40
3.000000
 50
-114.782661
 41
0.800000
 51
15.000000
  1
0
  0
TEXT
 8
UNTERSCHRIFT
 62
2
 10
3.234032
 20
7.432538
 40
3.000000
 50
-108.853798
 41
0.800000
 51
15.000000
  1
G
  0
TEXT
 8
UNTERSCHRIFT
 62
2
 10
2.582728
 20
5.144500
 40
3.000000
 50
-102.924965
 41
0.800000
 51
15.000000
  1
N
  0
TEXT
 8
UNTERSCHRIFT
 62
2
 10
2.171247
 20
2.801426
 40
3.000000
 50
-96.996101
 41
0.800000
 51
15.000000
  1
9
  0
TEXT
 8
UNTERSCHRIFT
 62
2
 10
2.003990
 20
0.428382
 40
3.000000
 50
-91.067268
 41
0.800000
 51
15.000000
  1
 
  0
TEXT
 8
UNTERSCHRIFT
 62
2
 10
2.082748
 20
-1.949245
 40
3.000000
 50
-85.138405
 41
0.800000
 51
15.000000
  1
 
  0
TEXT
 8
UNTERSCHRIFT
 62
2
 10
2.406678
 20
-4.306019
 40
3.000000
 50
-79.209541
 41
0.800000
 51
15.000000
  1
,
  0
TEXT
 8
UNTERSCHRIFT
 62
2
 10
2.972315
 20
-6.616726
 40
3.000000
 50
-73.280708
 41
0.800000
 51
15.000000
  1
Q
  0
TEXT
 8
UNTERSCHRIFT
 62
2
 10
3.773607
 20
-8.856647
 40
3.000000
 50
-67.351845
 41
0.800000
 51
15.000000
  1
t
  0
TEXT
 8
UNTERSCHRIFT
 62
2
 10
4.801981
 20
-11.001818
 40
3.000000
 50
-61.423019
 41
0.800000
 51
15.000000
  1
y
  0
TEXT
 8
UNTERSCHRIFT
 62
2
 10
6.046437
 20
-13.029290
 40
3.000000
 50
-55.494156
 41
0.800000
 51
15.000000
  1
.
  0
TEXT
 8
UNTERSCHRIFT
 62
2
 10
7.493660
 20
-14.917374
 40
3.000000
 50
-49.565315
 41
0.800000
 51
15.000000
  1
 
  0
TEXT
 8
UNTERSCHRIFT
 62
2
 10
9.128169
 20
-16.645868
 40
3.000000
 50
-43.636463
 41
0.800000
 51
15.000000
  1
2
  0
TEXT
 8
UNTERSCHRIFT
 62
2
 10
10.932476
 20
-18.196285
 40
3.000000
 50
-37.707626
 41
0.800000
 51
15.000000
  1
 
  0
TEXT
 8
UNTERSCHRIFT
 62
2
 10
12.887281
 20
-19.552032
 40
3.000000
 50
-31.778757
 41
0.800000
 51
15.000000
  1
 
  0
TEXT
 8
UNTERSCHRIFT
 62
2
 10
14.971668
 20
-20.698612
 40
3.000000
 50
-25.849907
 41
0.800000
 51
15.000000
  1
,
  0
TEXT
 8
UNTERSCHRIFT
 62
2
 10
17.163340
 20
-21.623755
 40
3.000000
 50
-19.921074
 41
0.800000
 51
15.000000
  1
 
  0
TEXT
 8
UNTERSCHRIFT
 62
2
 10
19.438850
 20
-22.317562
 40
3.000000
 50
-13.992201
 41
0.800000
 51
15.000000
  1
P
  0
TEXT
 8
UNTERSCHRIFT
 62
2
 10
21.773853
 20
-22.772615
 40
3.000000
 50
-8.063374
 41
0.800000
 51
15.000000
  1
o
  0
TEXT
 8
UNTERSCHRIFT
 62
2
 10
24.143372
 20
-22.984043
 40
3.000000
 50
-2.134518
 41
0.800000
 51
15.000000
  1
s
  0
TEXT
 8
UNTERSCHRIFT
 62
2
 10
26.522053
 20
-22.949581
 40
3.000000
 50
3.794320
 41
0.800000
 51
15.000000
  1
.
  0
TEXT
 8
UNTERSCHRIFT
 62
2
 10
28.884451
 20
-22.669605
 40
3.000000
 50
9.723176
 41
0.800000
 51
15.000000
  1
 
  0
TEXT
 8
UNTERSCHRIFT
 62
2
 10
31.205294
 20
-22.147106
 40
3.000000
 50
15.652016
 41
0.800000
 51
15.000000
  1
 
  0
TEXT
 8
UNTERSCHRIFT
 62
2
 10
33.459747
 20
-21.387674
 40
3.000000
 50
21.580877
 41
0.800000
 51
15.000000
  1
4
  0
TEXT
 8
UNTERSCHRIFT
 62
2
 10
35.623703
 20
-20.399435
 40
3.000000
 50
27.509739
 41
0.800000
 51
15.000000
  1
_
  0
TEXT
 8
UNTERSCHRIFT
 62
2
 10
37.674004
 20
-19.192959
 40
3.000000
 50
33.438580
 41
0.800000
 51
15.000000
  1
6
  0
TEXT
 8
UNTERSCHRIFT
 62
2
 10
39.588715
 20
-17.781153
 40
3.000000
 50
39.367435
 41
0.800000
 51
15.000000
  1
3
  0
TEXT
 8
UNTERSCHRIFT
 62
2
 10
41.347355
 20
-16.179121
 40
3.000000
 50
45.296261
 41
0.800000
 51
15.000000
  1
_
  0
TEXT
 8
UNTERSCHRIFT
 62
2
 10
42.931107
 20
-14.404005
 40
3.000000
 50
51.225140
 41
0.800000
 51
15.000000
  1
1
  0
TEXT
 8
UNTERSCHRIFT
 62
2
 10
44.323029
 20
-12.474792
 40
3.000000
 50
57.153950
 41
0.800000
 51
15.000000
  1
2
  0
TEXT
 8
UNTERSCHRIFT
 62
2
 10
45.508232
 20
-10.412122
 40
3.000000
 50
63.082825
 41
0.800000
 51
15.000000
  1
0
  0
TEXT
 8
UNTERSCHRIFT
 62
2
 10
46.474037
 20
-8.238062
 40
3.000000
 50
69.011650
 41
0.800000
 51
15.000000
  1
9
  0
TEXT
 8
UNTERSCHRIFT
 62
2
 10
47.210106
 20
-5.975871
 40
3.000000
 50
74.940536
 41
0.800000
 51
15.000000
  1
 
  0
TEXT
 8
UNTERSCHRIFT
 62
2
 10
47.708572
 20
-3.649748
 40
3.000000
 50
80.869385
 41
0.800000
 51
15.000000
  1
 
  0
TEXT
 8
UNTERSCHRIFT
 62
2
 10
47.964100
 20
-1.284580
 40
3.000000
 50
86.798225
 41
0.800000
 51
15.000000
  1
 
  0
TEXT
 8
UNTERSCHRIFT
 62
2
 10
47.973953
 20
1.094331
 40
3.000000
 50
92.727066
 41
0.800000
 51
15.000000
  1
,
  0
TEXT
 8
UNTERSCHRIFT
 62
2
 10
47.738022
 20
3.461535
 40
3.000000
 50
98.655922
 41
0.800000
 51
15.000000
  1
 
  0
TEXT
 8
UNTERSCHRIFT
 62
2
 10
47.258842
 20
5.791707
 40
3.000000
 50
104.584763
 41
0.800000
 51
15.000000
  1
P
  0
TEXT
 8
UNTERSCHRIFT
 62
2
 10
46.541534
 20
8.059917
 40
3.000000
 50
110.513618
 41
0.800000
 51
15.000000
  1
r
  0
TEXT
 8
UNTERSCHRIFT
 62
2
 10
45.593773
 20
10.241901
 40
3.000000
 50
116.442474
 41
0.800000
 51
15.000000
  1
o
  0
TEXT
 8
UNTERSCHRIFT
 62
2
 10
44.425694
 20
12.314319
 40
3.000000
 50
122.371292
 41
0.800000
 51
15.000000
  1
f
  0
TEXT
 8
UNTERSCHRIFT
 62
2
 10
43.049797
 20
14.254993
 40
3.000000
 50
128.300156
 41
0.800000
 51
15.000000
  1
i
  0
TEXT
 8
UNTERSCHRIFT
 62
2
 10
41.480797
 20
16.043167
 40
3.000000
 50
134.229004
 41
0.800000
 51
15.000000
  1
 
  0
TEXT
 8
UNTERSCHRIFT
 62
2
 10
39.735489
 20
17.659708
 40
3.000000
 50
140.157852
 41
0.800000
 51
15.000000
  1
l
  0
TEXT
 8
UNTERSCHRIFT
 62
2
 10
37.832535
 20
19.087324
 40
3.000000
 50
146.086716
 41
0.800000
 51
15.000000
  1
 
  0
TEXT
 8
UNTERSCHRIFT
 62
2
 10
35.792301
 20
20.310741
 40
3.000000
 50
152.015549
 41
0.800000
 51
15.000000
  1
P
  0
TEXT
 8
UNTERSCHRIFT
 62
2
 10
33.636608
 20
21.316872
 40
3.000000
 50
157.944382
 41
0.800000
 51
15.000000
  1
L
  0
TEXT
 8
UNTERSCHRIFT
 62
2
 10
31.388519
 20
22.094952
 40
3.000000
 50
163.873276
 41
0.800000
 51
15.000000
  1
5
  0
TEXT
 8
UNTERSCHRIFT
 62
2
 10
29.072083
 20
22.636654
 40
3.000000
 50
169.802109
 41
0.800000
 51
15.000000
  1
0
  0
TEXT
 8
UNTERSCHRIFT
 62
2
 10
26.712084
 20
22.936190
 40
3.000000
 50
175.730942
 41
0.800000
 51
15.000000
  1
*
  0
TEXT
 8
UNTERSCHRIFT
 62
2
 10
24.333771
 20
22.990349
 40
3.000000
 50
-178.340225
 41
0.800000
 51
15.000000
  1
3
  0
LINE
  8
TEILE
 62
2
 10
25.000000
 20
25.000000
 11
26.453611
 21
24.957705
  0
LINE
  8
TEILE
 62
2
 10
26.453611
 20
24.957705
 11
27.902309
 21
24.830961
  0
LINE
  8
TEILE
 62
2
 10
27.902309
 20
24.830961
 11
29.341187
 21
24.620197
  0
LINE
  8
TEILE
 62
2
 10
29.341187
 20
24.620197
 11
30.765377
 21
24.326126
  0
LINE
  8
TEILE
 62
2
 10
30.765377
 20
24.326126
 11
32.170059
 21
23.949745
  0
LINE
  8
TEILE
 62
2
 10
32.170059
 20
23.949745
 11
33.550476
 21
23.492327
  0
LINE
  8
TEILE
 62
2
 10
33.550476
 20
23.492327
 11
34.901962
 21
22.955416
  0
LINE
  8
TEILE
 62
2
 10
34.901962
 20
22.955416
 11
36.219944
 21
22.340834
  0
LINE
  8
TEILE
 62
2
 10
36.219944
 20
22.340834
 11
37.499966
 21
21.650658
  0
LINE
  8
TEILE
 62
2
 10
37.499966
 20
21.650658
 11
38.737686
 21
20.887222
  0
LINE
  8
TEILE
 62
2
 10
38.737686
 20
20.887222
 11
39.928925
 21
20.053110
  0
LINE
  8
TEILE
 62
2
 10
39.928925
 20
20.053110
 11
41.069645
 21
19.151146
  0
LINE
  8
TEILE
 62
2
 10
41.069645
 20
19.151146
 11
42.155994
 21
18.184381
  0
LINE
  8
TEILE
 62
2
 10
42.155994
 20
18.184381
 11
43.184299
 21
17.156088
  0
LINE
  8
TEILE
 62
2
 10
43.184299
 20
17.156088
 11
44.151070
 21
16.069742
  0
LINE
  8
TEILE
 62
2
 10
44.151070
 20
16.069742
 11
45.053040
 21
14.929023
  0
LINE
  8
TEILE
 62
2
 10
45.053040
 20
14.929023
 11
45.887154
 21
13.737788
  0
LINE
  8
TEILE
 62
2
 10
45.887154
 20
13.737788
 11
46.650597
 21
12.500071
  0
LINE
  8
TEILE
 62
2
 10
46.650597
 20
12.500071
 11
47.340778
 21
11.220056
  0
LINE
  8
TEILE
 62
2
 10
47.340778
 20
11.220056
 11
47.955364
 21
9.902076
  0
LINE
  8
TEILE
 62
2
 10
47.955364
 20
9.902076
 11
48.492283
 21
8.550591
  0
LINE
  8
TEILE
 62
2
 10
48.492283
 20
8.550591
 11
48.949707
 21
7.170175
  0
LINE
  8
TEILE
 62
2
 10
48.949707
 20
7.170175
 11
49.326099
 21
5.765496
  0
LINE
  8
TEILE
 62
2
 10
49.326099
 20
5.765496
 11
49.620174
 21
4.341310
  0
LINE
  8
TEILE
 62
2
 10
49.620174
 20
4.341310
 11
49.830948
 21
2.902433
  0
LINE
  8
TEILE
 62
2
 10
49.830948
 20
2.902433
 11
49.957695
 21
1.453736
  0
LINE
  8
TEILE
 62
2
 10
49.957695
 20
1.453736
 11
50.000000
 21
0.000119
  0
LINE
  8
TEILE
 62
2
 10
50.000000
 20
0.000119
 11
49.957710
 21
-1.453497
  0
LINE
  8
TEILE
 62
2
 10
49.957710
 20
-1.453497
 11
49.830975
 21
-2.902196
  0
LINE
  8
TEILE
 62
2
 10
49.830975
 20
-2.902196
 11
49.620216
 21
-4.341074
  0
LINE
  8
TEILE
 62
2
 10
49.620216
 20
-4.341074
 11
49.326153
 21
-5.765264
  0
LINE
  8
TEILE
 62
2
 10
49.326153
 20
-5.765264
 11
48.949780
 21
-7.169946
  0
LINE
  8
TEILE
 62
2
 10
48.949780
 20
-7.169946
 11
48.492363
 21
-8.550367
  0
LINE
  8
TEILE
 62
2
 10
48.492363
 20
-8.550367
 11
47.955460
 21
-9.901857
  0
LINE
  8
TEILE
 62
2
 10
47.955460
 20
-9.901857
 11
47.340885
 21
-11.219843
  0
LINE
  8
TEILE
 62
2
 10
47.340885
 20
-11.219843
 11
46.650715
 21
-12.499863
  0
LINE
  8
TEILE
 62
2
 10
46.650715
 20
-12.499863
 11
45.887283
 21
-13.737589
  0
LINE
  8
TEILE
 62
2
 10
45.887283
 20
-13.737589
 11
45.053177
 21
-14.928831
  0
LINE
  8
TEILE
 62
2
 10
45.053177
 20
-14.928831
 11
44.151222
 21
-16.069561
  0
LINE
  8
TEILE
 62
2
 10
44.151222
 20
-16.069561
 11
43.184464
 21
-17.155914
  0
LINE
  8
TEILE
 62
2
 10
43.184464
 20
-17.155914
 11
42.156174
 21
-18.184219
  0
LINE
  8
TEILE
 62
2
 10
42.156174
 20
-18.184219
 11
41.069832
 21
-19.150993
  0
LINE
  8
TEILE
 62
2
 10
41.069832
 20
-19.150993
 11
39.929115
 21
-20.052967
  0
LINE
  8
TEILE
 62
2
 10
39.929115
 20
-20.052967
 11
38.737885
 21
-20.887089
  0
LINE
  8
TEILE
 62
2
 10
38.737885
 20
-20.887089
 11
37.500168
 21
-21.650536
  0
LINE
  8
TEILE
 62
2
 10
37.500168
 20
-21.650536
 11
36.220161
 21
-22.340727
  0
LINE
  8
TEILE
 62
2
 10
36.220161
 20
-22.340727
 11
34.902184
 21
-22.955322
  0
LINE
  8
TEILE
 62
2
 10
34.902184
 20
-22.955322
 11
33.550697
 21
-23.492243
  0
LINE
  8
TEILE
 62
2
 10
33.550697
 20
-23.492243
 11
32.170284
 21
-23.949677
  0
LINE
  8
TEILE
 62
2
 10
32.170284
 20
-23.949677
 11
30.765608
 21
-24.326073
  0
LINE
  8
TEILE
 62
2
 10
30.765608
 20
-24.326073
 11
29.341423
 21
-24.620155
  0
LINE
  8
TEILE
 62
2
 10
29.341423
 20
-24.620155
 11
27.902548
 21
-24.830933
  0
LINE
  8
TEILE
 62
2
 10
27.902548
 20
-24.830933
 11
26.453850
 21
-24.957691
  0
LINE
  8
TEILE
 62
2
 10
26.453850
 20
-24.957691
 11
25.000233
 21
-25.000000
  0
LINE
  8
TEILE
 62
2
 10
25.000233
 20
-25.000000
 11
23.546618
 21
-24.957716
  0
LINE
  8
TEILE
 62
2
 10
23.546618
 20
-24.957716
 11
22.097919
 21
-24.830988
  0
LINE
  8
TEILE
 62
2
 10
22.097919
 20
-24.830988
 11
20.659039
 21
-24.620237
  0
LINE
  8
TEILE
 62
2
 10
20.659039
 20
-24.620237
 11
19.234848
 21
-24.326180
  0
LINE
  8
TEILE
 62
2
 10
19.234848
 20
-24.326180
 11
17.830164
 21
-23.949812
  0
LINE
  8
TEILE
 62
2
 10
17.830164
 20
-23.949812
 11
16.449741
 21
-23.492405
  0
LINE
  8
TEILE
 62
2
 10
16.449741
 20
-23.492405
 11
15.098248
 21
-22.955509
  0
LINE
  8
TEILE
 62
2
 10
15.098248
 20
-22.955509
 11
13.780260
 21
-22.340937
  0
LINE
  8
TEILE
 62
2
 10
13.780260
 20
-22.340937
 11
12.500237
 21
-21.650772
  0
LINE
  8
TEILE
 62
2
 10
12.500237
 20
-21.650772
 11
11.262507
 21
-20.887346
  0
LINE
  8
TEILE
 62
2
 10
11.262507
 20
-20.887346
 11
10.071260
 21
-20.053249
  0
LINE
  8
TEILE
 62
2
 10
10.071260
 20
-20.053249
 11
8.930529
 21
-19.151295
  0
LINE
  8
TEILE
 62
2
 10
8.930529
 20
-19.151295
 11
7.844170
 21
-18.184540
  0
LINE
  8
TEILE
 62
2
 10
7.844170
 20
-18.184540
 11
6.815857
 21
-17.156250
  0
LINE
  8
TEILE
 62
2
 10
6.815857
 20
-17.156250
 11
5.849073
 21
-16.069910
  0
LINE
  8
TEILE
 62
2
 10
5.849073
 20
-16.069910
 11
4.947090
 21
-14.929193
  0
LINE
  8
TEILE
 62
2
 10
4.947090
 20
-14.929193
 11
4.112960
 21
-13.737961
  0
LINE
  8
TEILE
 62
2
 10
4.112960
 20
-13.737961
 11
3.349506
 21
-12.500243
  0
LINE
  8
TEILE
 62
2
 10
3.349506
 20
-12.500243
 11
2.659309
 21
-11.220228
  0
LINE
  8
TEILE
 62
2
 10
2.659309
 20
-11.220228
 11
2.044707
 21
-9.902249
  0
LINE
  8
TEILE
 62
2
 10
2.044707
 20
-9.902249
 11
1.507779
 21
-8.550763
  0
LINE
  8
TEILE
 62
2
 10
1.507779
 20
-8.550763
 11
1.050341
 21
-7.170343
  0
LINE
  8
TEILE
 62
2
 10
1.050341
 20
-7.170343
 11
0.673941
 21
-5.765662
  0
LINE
  8
TEILE
 62
2
 10
0.673941
 20
-5.765662
 11
0.379853
 21
-4.341471
  0
LINE
  8
TEILE
 62
2
 10
0.379853
 20
-4.341471
 11
0.169072
 21
-2.902590
  0
LINE
  8
TEILE
 62
2
 10
0.169072
 20
-2.902590
 11
0.042312
 21
-1.453888
  0
LINE
  8
TEILE
 62
2
 10
0.042312
 20
-1.453888
 11
0.000000
 21
-0.000266
  0
LINE
  8
TEILE
 62
2
 10
0.000000
 20
-0.000266
 11
0.042281
 21
1.453357
  0
LINE
  8
TEILE
 62
2
 10
0.042281
 20
1.453357
 11
0.169011
 21
2.902062
  0
LINE
  8
TEILE
 62
2
 10
0.169011
 20
2.902062
 11
0.379761
 21
4.340948
  0
LINE
  8
TEILE
 62
2
 10
0.379761
 20
4.340948
 11
0.673818
 21
5.765145
  0
LINE
  8
TEILE
 62
2
 10
0.673818
 20
5.765145
 11
1.050188
 21
7.169834
  0
LINE
  8
TEILE
 62
2
 10
1.050188
 20
7.169834
 11
1.507597
 21
8.550263
  0
LINE
  8
TEILE
 62
2
 10
1.507597
 20
8.550263
 11
2.044497
 21
9.901761
  0
LINE
  8
TEILE
 62
2
 10
2.044497
 20
9.901761
 11
2.659071
 21
11.219754
  0
LINE
  8
TEILE
 62
2
 10
2.659071
 20
11.219754
 11
3.349240
 21
12.499783
  0
LINE
  8
TEILE
 62
2
 10
3.349240
 20
12.499783
 11
4.112668
 21
13.737516
  0
LINE
  8
TEILE
 62
2
 10
4.112668
 20
13.737516
 11
4.946773
 21
14.928766
  0
LINE
  8
TEILE
 62
2
 10
4.946773
 20
14.928766
 11
5.848731
 21
16.069502
  0
LINE
  8
TEILE
 62
2
 10
5.848731
 20
16.069502
 11
6.815491
 21
17.155865
  0
LINE
  8
TEILE
 62
2
 10
6.815491
 20
17.155865
 11
7.843783
 21
18.184175
  0
LINE
  8
TEILE
 62
2
 10
7.843783
 20
18.184175
 11
8.930125
 21
19.150957
  0
LINE
  8
TEILE
 62
2
 10
8.930125
 20
19.150957
 11
10.070844
 21
20.052938
  0
LINE
  8
TEILE
 62
2
 10
10.070844
 20
20.052938
 11
11.262077
 21
20.887066
  0
LINE
  8
TEILE
 62
2
 10
11.262077
 20
20.887066
 11
12.499796
 21
21.650517
  0
LINE
  8
TEILE
 62
2
 10
12.499796
 20
21.650517
 11
13.779812
 21
22.340710
  0
LINE
  8
TEILE
 62
2
 10
13.779812
 20
22.340710
 11
15.097792
 21
22.955311
  0
LINE
  8
TEILE
 62
2
 10
15.097792
 20
22.955311
 11
16.449278
 21
23.492237
  0
LINE
  8
TEILE
 62
2
 10
16.449278
 20
23.492237
 11
17.829695
 21
23.949671
  0
LINE
  8
TEILE
 62
2
 10
17.829695
 20
23.949671
 11
19.234373
 21
24.326067
  0
LINE
  8
TEILE
 62
2
 10
19.234373
 20
24.326067
 11
20.658562
 21
24.620153
  0
LINE
  8
TEILE
 62
2
 10
20.658562
 20
24.620153
 11
22.097439
 21
24.830933
  0
LINE
  8
TEILE
 62
2
 10
22.097439
 20
24.830933
 11
23.546141
 21
24.957691
  0
LINE
  8
TEILE
 62
2
 10
23.546141
 20
24.957691
 11
24.999760
 21
25.000000
  0
LINE
  8
TEILE
 62
2
 10
24.999760
 20
25.000000
 11
25.000000
 21
25.000000
  0
TEXT
 8
BEZ_SCHRAUBEN
 62
2
 10
17.000000
 20
-14.500000
 40
5.000000
 41
0.800000
 51
15.000000
  1
 ø14
  0
ENDSEC
  0
EOF

