  0
SECTION
  2
HEADER
  9
$ACADVER
  1
AC1009
  9
$DWGCODEPAGE
  3
ansi_1252
  9
$INSBASE
 10
0.0
 20
0.0
 30
0.0
  9
$EXTMIN
 10
-410.0463812307999
 20
-1138.2892090734
 30
0.0
  9
$EXTMAX
 10
-11.39862490659969
 20
-627.8415326306188
 30
0.0
  9
$LIMMIN
 10
0.0
 20
0.0
  9
$LIMMAX
 10
420.0
 20
297.0
  9
$ORTHOMODE
 70
     1
  9
$REGENMODE
 70
     1
  9
$FILLMODE
 70
     1
  9
$QTEXTMODE
 70
     0
  9
$MIRRTEXT
 70
     1
  9
$DRAGMODE
 70
     2
  9
$LTSCALE
 40
1.0
  9
$OSMODE
 70
  1023
  9
$ATTMODE
 70
     1
  9
$TEXTSIZE
 40
3.5
  9
$TRACEWID
 40
1.0
  9
$TEXTSTYLE
  7
STANDARD
  9
$CLAYER
  8
0
  9
$CELTYPE
  6
BYLAYER
  9
$CECOLOR
 62
   256
  9
$DIMSCALE
 40
1.0
  9
$DIMASZ
 40
6.0
  9
$DIMEXO
 40
1.0
  9
$DIMDLI
 40
3.75
  9
$DIMRND
 40
0.0
  9
$DIMDLE
 40
0.0
  9
$DIMEXE
 40
1.0
  9
$DIMTP
 40
0.0
  9
$DIMTM
 40
0.0
  9
$DIMTXT
 40
3.5
  9
$DIMCEN
 40
2.5
  9
$DIMTSZ
 40
0.0
  9
$DIMTOL
 70
     0
  9
$DIMLIM
 70
     0
  9
$DIMTIH
 70
     1
  9
$DIMTOH
 70
     1
  9
$DIMSE1
 70
     0
  9
$DIMSE2
 70
     0
  9
$DIMTAD
 70
     1
  9
$DIMZIN
 70
     0
  9
$DIMBLK
  1

  9
$DIMASO
 70
     1
  9
$DIMSHO
 70
     1
  9
$DIMPOST
  1

  9
$DIMAPOST
  1

  9
$DIMALT
 70
     0
  9
$DIMALTD
 70
     3
  9
$DIMALTF
 40
0.0393700787
  9
$DIMLFAC
 40
1.0
  9
$DIMTOFL
 70
     1
  9
$DIMTVP
 40
0.0
  9
$DIMTIX
 70
     0
  9
$DIMSOXD
 70
     0
  9
$DIMSAH
 70
     0
  9
$DIMBLK1
  1

  9
$DIMBLK2
  1

  9
$DIMSTYLE
  2
ISO-25
  9
$DIMCLRD
 70
     0
  9
$DIMCLRE
 70
     0
  9
$DIMCLRT
 70
     0
  9
$DIMTFAC
 40
1.0
  9
$DIMGAP
 40
1.524
  9
$LUNITS
 70
     2
  9
$LUPREC
 70
     2
  9
$SKETCHINC
 40
1.0
  9
$FILLETRAD
 40
10.0
  9
$AUNITS
 70
     0
  9
$AUPREC
 70
     2
  9
$MENU
  1
.
  9
$ELEVATION
 40
0.0
  9
$PELEVATION
 40
0.0
  9
$THICKNESS
 40
0.0
  9
$LIMCHECK
 70
     0
  9
$CHAMFERA
 40
0.0
  9
$CHAMFERB
 40
0.0
  9
$SKPOLY
 70
     0
  9
$TDCREATE
 40
2456816.480408704
  9
$TDUPDATE
 40
2456816.489716528
  9
$TDINDWG
 40
0.0044742708
  9
$TDUSRTIMER
 40
2456816.406232384
  9
$USRTIMER
 70
     1
  9
$ANGBASE
 50
0.0
  9
$ANGDIR
 70
     0
  9
$PDMODE
 70
     0
  9
$PDSIZE
 40
-1.0
  9
$PLINEWID
 40
0.0
  9
$COORDS
 70
     1
  9
$SPLFRAME
 70
     0
  9
$SPLINETYPE
 70
     6
  9
$SPLINESEGS
 70
     8
  9
$ATTDIA
 70
     0
  9
$ATTREQ
 70
     1
  9
$HANDLING
 70
     1
  9
$HANDSEED
  5
11D
  9
$SURFTAB1
 70
     6
  9
$SURFTAB2
 70
     6
  9
$SURFTYPE
 70
     6
  9
$SURFU
 70
     6
  9
$SURFV
 70
     6
  9
$UCSNAME
  2

  9
$UCSORG
 10
0.0
 20
0.0
 30
0.0
  9
$UCSXDIR
 10
1.0
 20
0.0
 30
0.0
  9
$UCSYDIR
 10
0.0
 20
1.0
 30
0.0
  9
$PUCSNAME
  2

  9
$PUCSORG
 10
0.0
 20
0.0
 30
0.0
  9
$PUCSXDIR
 10
1.0
 20
0.0
 30
0.0
  9
$PUCSYDIR
 10
0.0
 20
1.0
 30
0.0
  9
$USERI1
 70
     0
  9
$USERI2
 70
     0
  9
$USERI3
 70
     0
  9
$USERI4
 70
     0
  9
$USERI5
 70
     0
  9
$USERR1
 40
0.0
  9
$USERR2
 40
0.0
  9
$USERR3
 40
0.0
  9
$USERR4
 40
0.0
  9
$USERR5
 40
0.0
  9
$WORLDVIEW
 70
     1
  9
$SHADEDGE
 70
     3
  9
$SHADEDIF
 70
    70
  9
$TILEMODE
 70
     1
  9
$MAXACTVP
 70
    64
  9
$PLIMCHECK
 70
     0
  9
$PEXTMIN
 10
1.000000000000000E+20
 20
1.000000000000000E+20
 30
1.000000000000000E+20
  9
$PEXTMAX
 10
-1.000000000000000E+20
 20
-1.000000000000000E+20
 30
-1.000000000000000E+20
  9
$PLIMMIN
 10
0.0
 20
0.0
  9
$PLIMMAX
 10
0.0
 20
0.0
  9
$UNITMODE
 70
     0
  9
$VISRETAIN
 70
     1
  9
$PLINEGEN
 70
     0
  9
$PSLTSCALE
 70
     1
  0
ENDSEC
  0
SECTION
  2
TABLES
  0
TABLE
  2
VPORT
 70
     1
  0
VPORT
  2
*ACTIVE
 70
     0
 10
0.0
 20
0.0
 11
1.0
 21
1.0
 12
-108.6342537997255
 22
-915.2558137271046
 13
0.0
 23
0.0
 14
10.0
 24
10.0
 15
10.0
 25
10.0
 16
0.0
 26
0.0
 36
1.0
 17
0.0
 27
0.0
 37
0.0
 40
637.1557494955156
 41
1.828877005347593
 42
50.0
 43
0.0
 44
0.0
 50
0.0
 51
0.0
 71
     0
 72
   100
 73
     1
 74
     3
 75
     0
 76
     0
 77
     0
 78
     0
  0
ENDTAB
  0
TABLE
  2
LTYPE
 70
     6
  0
LTYPE
  2
CONTINUOUS
 70
     0
  3
Solid line
 72
    65
 73
     0
 40
0.0
  0
LTYPE
  2
HIDDEN
 70
     0
  3
Hidden __ __ __ __ __ __ __ __ __ __ __ __ __ __
 72
    65
 73
     2
 40
1.905
 49
1.27
 49
-0.635
  0
LTYPE
  2
PHANTOM
 70
     0
  3
Phantom ______  __  __  ______  __  __  ______
 72
    65
 73
     6
 40
12.7
 49
6.349999999999999
 49
-1.27
 49
1.27
 49
-1.27
 49
1.27
 49
-1.27
  0
LTYPE
  2
CENTER
 70
     0
  3
Center ____ _ ____ _ ____ _ ____ _ ____ _ ____
 72
    65
 73
     4
 40
10.16
 49
6.349999999999999
 49
-1.27
 49
1.27
 49
-1.27
  0
LTYPE
  2
CENTERX2
 70
     0
  3
Center (2x) ________  __  ________  __  _____
 72
    65
 73
     4
 40
20.32
 49
12.7
 49
-2.54
 49
2.54
 49
-2.54
  0
LTYPE
  2
DOT2
 70
     0
  3
Dot (.5x) ........................................
 72
    65
 73
     2
 40
0.635
 49
0.0
 49
-0.635
  0
ENDTAB
  0
TABLE
  2
LAYER
 70
     1
  0
LAYER
  2
0
 70
     0
 62
     7
  6
CONTINUOUS
  0
ENDTAB
  0
TABLE
  2
STYLE
 70
     1
  0
STYLE
  2
STANDARD
 70
     0
 40
0.0
 41
1.0
 50
0.0
 71
     0
 42
3.5
  3
txt
  4

  0
ENDTAB
  0
TABLE
  2
VIEW
 70
     0
  0
ENDTAB
  0
TABLE
  2
UCS
 70
     0
  0
ENDTAB
  0
TABLE
  2
APPID
 70
     2
  0
APPID
  2
ACAD
 70
     0
  0
APPID
  2
ACAD_MLEADERVER
 70
     0
  0
ENDTAB
  0
TABLE
  2
DIMSTYLE
 70
     1
  0
DIMSTYLE
  2
ISO-25
 70
     0
  3

  4

  5

  6

  7

 40
1.0
 41
2.5
 42
0.625
 43
3.75
 44
1.25
 45
0.0
 46
0.0
 47
0.0
 48
0.0
140
2.5
141
2.5
142
0.0
143
0.0393700787
144
1.0
145
0.0
146
1.0
147
0.625
 71
     0
 72
     0
 73
     0
 74
     0
 75
     0
 76
     0
 77
     1
 78
     8
170
     0
171
     3
172
     1
173
     0
174
     0
175
     0
176
     0
177
     0
178
     0
  0
ENDTAB
  0
ENDSEC
  0
SECTION
  2
BLOCKS
  0
BLOCK
  8
0
  2
$MODEL_SPACE
 70
     0
 10
0.0
 20
0.0
 30
0.0
  3
$MODEL_SPACE
  1

  0
ENDBLK
  5
21
  8
0
  0
BLOCK
 67
     1
  8
0
  2
$PAPER_SPACE
 70
     0
 10
0.0
 20
0.0
 30
0.0
  3
$PAPER_SPACE
  1

  0
ENDBLK
  5
1D
 67
     1
  8
0
  0
ENDSEC
  0
SECTION
  2
ENTITIES
  0
CIRCLE
  5
88
  8
0
 10
-144.5762498336895
 20
-930.8121086120998
 30
0.0
 40
8.999999999999574
  0
CIRCLE
  5
89
  8
0
 10
-219.5762498336891
 20
-816.8121086120188
 30
0.0
 40
8.999999999999488
  0
CIRCLE
  5
8A
  8
0
 10
-219.5762498336925
 20
-746.8121086120991
 30
0.0
 40
8.999999999999703
  0
CIRCLE
  5
8B
  8
0
 10
-219.5762498336975
 20
-890.8121086120029
 30
0.0
 40
9.000000000000027
  0
CIRCLE
  5
8C
  8
0
 10
-144.5762498337453
 20
-776.8121086120777
 30
0.0
 40
8.999999999999403
  0
CIRCLE
  5
8D
  8
0
 10
-219.5762498337425
 20
-960.8121086120556
 30
0.0
 40
8.999999999999801
  0
LINE
  5
8F
  8
0
 10
-276.3600227287442
 20
-683.8258827428609
 30
0.0
 11
-272.6461159652641
 21
-685.3114454482788
 31
0.0
  0
LINE
  5
90
  8
0
 10
-272.6461159652641
 20
-685.3114454482788
 30
0.0
 11
-270.2512049723793
 21
-679.3241679660764
 31
0.0
  0
LINE
  5
91
  8
0
 10
-249.6581508381628
 20
-627.8415326306188
 30
0.0
 11
-136.4432994507405
 21
-689.2357396520146
 31
0.0
  0
LINE
  5
92
  8
0
 10
-129.9036156800701
 20
-708.4295615227447
 30
0.0
 11
-137.7399985471256
 21
-728.0205186904346
 31
0.0
  0
LINE
  5
95
  8
0
 10
-137.5036590258476
 20
-732.4231863446884
 30
0.0
 11
-110.046381230808
 21
-803.8121086120844
 31
0.0
  0
LINE
  5
96
  8
0
 10
-110.0463812307488
 20
-903.8121086120867
 30
0.0
 11
-137.5036590258954
 21
-975.2010308794235
 31
0.0
  0
LINE
  5
9A
  8
0
 10
-249.6581508382599
 20
-1079.782684593579
 30
0.0
 11
-268.7656422669789
 21
-1032.013956021551
 31
0.0
  0
LINE
  5
9B
  8
0
 10
-272.6461159652604
 20
-1022.3127717758
 30
0.0
 11
-276.3600227287957
 21
-1023.798334481241
 31
0.0
  0
LINE
  5
9C
  8
0
 10
-276.3600227287957
 20
-1023.798334481241
 30
0.0
 11
-273.760287994321
 21
-1030.297671317448
 31
0.0
  0
LINE
  5
9D
  8
0
 10
-273.760287994321
 20
-1030.297671317448
 30
0.0
 11
-310.0463812308462
 21
-1044.812108612073
 31
0.0
  0
LINE
  5
9E
  8
0
 10
-310.0463812308462
 20
-1044.812108612073
 30
0.0
 11
-410.0463812307999
 21
-1044.812108612
 31
0.0
  0
LINE
  5
9F
  8
0
 10
-410.0463812307999
 20
-1044.812108612
 30
0.0
 11
-410.0463812307999
 21
-662.8121086119891
 31
0.0
  0
LINE
  5
A0
  8
0
 10
-410.0463812307999
 20
-662.8121086119891
 30
0.0
 11
-310.0463812307555
 21
-662.8121086120204
 31
0.0
  0
LINE
  5
A1
  8
0
 10
-310.0463812307555
 20
-662.8121086120204
 30
0.0
 11
-273.7602879942581
 21
-677.3265459066033
 31
0.0
  0
LINE
  5
A2
  8
0
 10
-273.7602879942581
 20
-677.3265459066033
 30
0.0
 11
-276.3600227287442
 21
-683.8258827428609
 31
0.0
  0
LINE
  5
A3
  8
0
 10
-136.4432994519159
 20
-1018.3884775728
 30
0.0
 11
-249.6581508382599
 21
-1079.782684593579
 31
0.0
  0
ARC
  5
A4
  8
0
 10
-144.9350301163413
 20
-702.8400320066029
 30
0.0
 40
16.03702778466806
 50
339.6020205832116
 51
58.02779778770427
  0
ARC
  5
A5
  8
0
 10
-110.0463812307995
 20
-853.8121086120403
 30
0.0
 40
49.99999999999991
 50
89.99999999999022
 51
269.9999999999902
  0
LINE
  5
E1
  8
0
 10
-129.9036156800701
 20
-999.194655701336
 30
0.0
 11
-137.7399985471257
 21
-979.603698533646
 31
0.0
  0
ARC
  5
E2
  8
0
 10
-144.9350301163413
 20
-1004.784185217478
 30
0.0
 40
16.03702778466806
 50
301.9722022122936
 51
20.39797941678888
  0
LINE
  5
EB
  8
0
 10
-137.5036590258953
 20
-975.2010308794236
 30
0.0
 11
-145.9105934269224
 21
-980.7178705626872
 31
0.0
  0
LINE
  5
EC
  8
0
 10
-145.9105934269224
 20
-980.7178705626872
 30
0.0
 11
-137.7399985472124
 21
-979.6036985336578
 31
0.0
  0
LINE
  5
ED
  8
0
 10
-270.2512049723885
 20
-1028.300049258005
 30
0.0
 11
-262.0806100926024
 21
-1027.185877228945
 31
0.0
  0
LINE
  5
EE
  8
0
 10
-262.0806100926024
 20
-1027.185877228945
 30
0.0
 11
-268.7656422669726
 21
-1032.013956021546
 31
0.0
  0
LINE
  5
EF
  8
0
 10
-270.25120497239
 20
-1028.300049258005
 30
0.0
 11
-272.6461159652604
 21
-1022.3127717758
 31
0.0
  0
LINE
  5
F0
  8
0
 10
-137.5036590258953
 20
-732.4231863446571
 30
0.0
 11
-145.9105934269224
 21
-726.9063466613935
 31
0.0
  0
LINE
  5
F1
  8
0
 10
-145.9105934269224
 20
-726.9063466613935
 30
0.0
 11
-137.7399985472124
 21
-728.0205186904228
 31
0.0
  0
LINE
  5
F2
  8
0
 10
-270.2512049723885
 20
-679.3241679660752
 30
0.0
 11
-262.0806100926024
 21
-680.438339995135
 31
0.0
  0
LINE
  5
F3
  8
0
 10
-262.0806100926024
 20
-680.438339995135
 30
0.0
 11
-268.7656422669726
 21
-675.610261202534
 31
0.0
  0
LINE
  5
F4
  8
0
 10
-268.7656422669627
 20
-675.6102612025411
 30
0.0
 11
-249.6581508381628
 21
-627.8415326306188
 31
0.0
  0
ENDSEC
  0
EOF
