0
SECTION
2
HEADER
9
$PDMODE
70
33
9
$PDSIZE
40
1.000
9
$EXTMIN
10
-116.950
20
-53.600
30
-1.000
9
$EXTMAX
10
1286.450
20
589.600
30
1.000
9
$LIMMIN
10
-116.950
20
-53.600
9
$LIMMAX
10
1286.450
20
589.600
0
ENDSEC
0
SECTION
2
TABLES
0
TABLE
2
LAYER
70
7
0
LAYER
2
0
70
0
62
2
6
CONTINUOUS
0
LAYER
2
0
70
0
62
2
6
CONTINUOUS
0
ENDTAB
0
TABLE
2
VPORT
70
4
0
VPORT
2
*ACTIVE
70
0
10
0.000000
20
0.000000
11
1.000000
21
1.000000
12
584.750000
22
268.000000
13
0.000000
23
0.000000
14
1.000000
24
1.000000
15
1.000000
25
1.000000
16
0.000000
26
0.000000
36
1.000000
17
0.000000
27
0.000000
37
0.000000
40
1169.500000
41
1.500000
42
50.000000
43
0.000000
44
0.000000
50
0.000000
51
0.000000
71
0
72
100
73
1
74
1
75
0
76
0
77
0
78
0
0
ENDTAB
0
ENDSEC
0
SECTION
2
ENTITIES
0
POLYLINE
8
0
6
CONTINUOUS
62
2
66
1
10
0.000
20
0.000
30
0.000
70
1
0
VERTEX
8
0
10
0.000
20
211.000
30
0.000
42
0.00000000
0
VERTEX
8
0
10
0.000
20
509.000
30
0.000
42
-0.41421356
0
VERTEX
8
0
10
27.000
20
536.000
30
0.000
42
0.00000000
0
VERTEX
8
0
10
124.500
20
536.000
30
0.000
42
0.70056706
0
VERTEX
8
0
10
159.830
20
523.150
30
0.000
42
0.00000000
0
VERTEX
8
0
10
494.170
20
242.850
30
0.000
42
0.63701367
0
VERTEX
8
0
10
509.500
20
210.000
30
0.000
42
0.00000000
0
VERTEX
8
0
10
1149.500
20
210.000
30
0.000
42
0.41421356
0
VERTEX
8
0
10
1169.500
20
190.000
30
0.000
42
0.00000000
0
VERTEX
8
0
10
1169.500
20
20.000
30
0.000
42
0.41421356
0
VERTEX
8
0
10
1149.500
20
0.000
30
0.000
42
0.00000000
0
VERTEX
8
0
10
479.500
20
0.000
30
0.000
42
0.74377203
0
VERTEX
8
0
10
442.810
20
11.020
30
0.000
42
0.00000000
0
VERTEX
8
0
10
155.520
20
200.690
30
0.000
42
1.00000000
0
VERTEX
8
0
10
155.520
20
200.690
30
0.000
42
0.59751229
0
VERTEX
8
0
10
124.500
20
184.000
30
0.000
42
0.00000000
0
VERTEX
8
0
10
27.000
20
184.000
30
0.000
42
-0.41421356
0
SEQEND
0
POLYLINE
8
0
6
CONTINUOUS
62
2
66
1
10
0.000
20
0.000
30
0.000
70
1
0
VERTEX
8
0
10
72.500
20
360.000
30
0.000
42
-1.00000000
0
VERTEX
8
0
10
87.500
20
360.000
30
0.000
42
-1.00000000
0
SEQEND
0
POLYLINE
8
0
6
CONTINUOUS
62
2
66
1
10
0.000
20
0.000
30
0.000
70
1
0
VERTEX
8
0
10
1062.000
20
105.000
30
0.000
42
-1.00000000
0
VERTEX
8
0
10
1077.000
20
105.000
30
0.000
42
-1.00000000
0
SEQEND
0
ENDSEC
0
EOF
