0
SECTION
2
HEADER
9
$PDMODE
70
33
9
$PDSIZE
40
1.000
9
$EXTMIN
10
-90.000
20
-47.000
30
-1.000
9
$EXTMAX
10
990.000
20
517.000
30
1.000
9
$LIMMIN
10
-90.000
20
-47.000
9
$LIMMAX
10
990.000
20
517.000
0
ENDSEC
0
SECTION
2
TABLES
0
TABLE
2
LAYER
70
7
0
LAYER
2
0
70
0
62
2
6
CONTINUOUS
0
LAYER
2
0
70
0
62
2
6
CONTINUOUS
0
ENDTAB
0
TABLE
2
VPORT
70
4
0
VPORT
2
*ACTIVE
70
0
10
0.000000
20
0.000000
11
1.000000
21
1.000000
12
450.000000
22
235.000000
13
0.000000
23
0.000000
14
1.000000
24
1.000000
15
1.000000
25
1.000000
16
0.000000
26
0.000000
36
1.000000
17
0.000000
27
0.000000
37
0.000000
40
900.000000
41
1.500000
42
50.000000
43
0.000000
44
0.000000
50
0.000000
51
0.000000
71
0
72
100
73
1
74
1
75
0
76
0
77
0
78
0
0
ENDTAB
0
ENDSEC
0
SECTION
2
ENTITIES
0
POLYLINE
8
0
6
CONTINUOUS
62
2
66
1
10
0.000
20
0.000
30
0.000
70
1
0
VERTEX
8
0
10
0.000
20
320.030
30
0.000
42
-0.41415499
0
VERTEX
8
0
10
150.000
20
470.000
30
0.000
42
0.00000000
0
VERTEX
8
0
10
670.000
20
470.000
30
0.000
42
0.00000000
0
VERTEX
8
0
10
863.070
20
248.540
30
0.000
42
-0.13524539
0
VERTEX
8
0
10
897.600
20
176.720
30
0.000
42
0.00000000
0
VERTEX
8
0
10
900.000
20
150.000
30
0.000
42
-0.41421356
0
VERTEX
8
0
10
750.000
20
0.000
30
0.000
42
0.00000000
0
VERTEX
8
0
10
230.000
20
0.000
30
0.000
42
0.00000000
0
VERTEX
8
0
10
36.930
20
221.460
30
0.000
42
-0.18119473
0
SEQEND
0
POLYLINE
8
0
6
CONTINUOUS
62
2
66
1
10
0.000
20
0.000
30
0.000
70
1
0
VERTEX
8
0
10
115.000
20
320.000
30
0.000
42
-1.00000000
0
VERTEX
8
0
10
185.000
20
320.000
30
0.000
42
-1.00000000
0
SEQEND
0
POLYLINE
8
0
6
CONTINUOUS
62
2
66
1
10
0.000
20
0.000
30
0.000
70
1
0
VERTEX
8
0
10
715.000
20
150.000
30
0.000
42
-1.00000000
0
VERTEX
8
0
10
785.000
20
150.000
30
0.000
42
-1.00000000
0
SEQEND
0
ENDSEC
0
EOF
