0
SECTION
2
HEADER
9
$PDMODE
70
33
9
$PDSIZE
40
1.000
9
$EXTMIN
10
-56.000
20
-51.000
30
-1.000
9
$EXTMAX
10
616.000
20
561.000
30
1.000
9
$LIMMIN
10
-56.000
20
-51.000
9
$LIMMAX
10
616.000
20
561.000
0
ENDSEC
0
SECTION
2
TABLES
0
TABLE
2
LAYER
70
7
0
LAYER
2
0
70
0
62
2
6
CONTINUOUS
0
LAYER
2
0
70
0
62
2
6
CONTINUOUS
0
LAYER
2
30
70
0
62
7
6
CONTINUOUS
0
ENDTAB
0
TABLE
2
VPORT
70
4
0
VPORT
2
*ACTIVE
70
0
10
0.000000
20
0.000000
11
1.000000
21
1.000000
12
280.000000
22
255.000000
13
0.000000
23
0.000000
14
1.000000
24
1.000000
15
1.000000
25
1.000000
16
0.000000
26
0.000000
36
1.000000
17
0.000000
27
0.000000
37
0.000000
40
560.000000
41
1.500000
42
50.000000
43
0.000000
44
0.000000
50
0.000000
51
0.000000
71
0
72
100
73
1
74
1
75
0
76
0
77
0
78
0
0
ENDTAB
0
ENDSEC
0
SECTION
2
ENTITIES
0
POLYLINE
8
0
6
CONTINUOUS
62
2
66
1
10
0.000
20
0.000
30
0.000
70
1
0
VERTEX
8
0
10
0.000
20
20.000
30
0.000
42
0.00000000
0
VERTEX
8
0
10
0.000
20
490.000
30
0.000
42
0.00000000
0
VERTEX
8
0
10
20.000
20
510.000
30
0.000
42
0.00000000
0
VERTEX
8
0
10
540.000
20
510.000
30
0.000
42
0.00000000
0
VERTEX
8
0
10
560.000
20
490.000
30
0.000
42
0.00000000
0
VERTEX
8
0
10
560.000
20
20.000
30
0.000
42
0.00000000
0
VERTEX
8
0
10
540.000
20
0.000
30
0.000
42
0.00000000
0
VERTEX
8
0
10
20.000
20
0.000
30
0.000
42
0.00000000
0
SEQEND
0
POLYLINE
8
0
6
CONTINUOUS
62
2
66
1
10
0.000
20
0.000
30
0.000
70
1
0
VERTEX
8
0
10
493.500
20
460.000
30
0.000
42
-1.00000000
0
VERTEX
8
0
10
526.500
20
460.000
30
0.000
42
-1.00000000
0
SEQEND
0
POLYLINE
8
0
6
CONTINUOUS
62
2
66
1
10
0.000
20
0.000
30
0.000
70
1
0
VERTEX
8
0
10
378.500
20
460.000
30
0.000
42
-1.00000000
0
VERTEX
8
0
10
411.500
20
460.000
30
0.000
42
-1.00000000
0
SEQEND
0
POLYLINE
8
0
6
CONTINUOUS
62
2
66
1
10
0.000
20
0.000
30
0.000
70
1
0
VERTEX
8
0
10
263.500
20
460.000
30
0.000
42
-1.00000000
0
VERTEX
8
0
10
296.500
20
460.000
30
0.000
42
-1.00000000
0
SEQEND
0
POLYLINE
8
0
6
CONTINUOUS
62
2
66
1
10
0.000
20
0.000
30
0.000
70
1
0
VERTEX
8
0
10
148.500
20
460.000
30
0.000
42
-1.00000000
0
VERTEX
8
0
10
181.500
20
460.000
30
0.000
42
-1.00000000
0
SEQEND
0
POLYLINE
8
0
6
CONTINUOUS
62
2
66
1
10
0.000
20
0.000
30
0.000
70
1
0
VERTEX
8
0
10
33.500
20
460.000
30
0.000
42
-1.00000000
0
VERTEX
8
0
10
66.500
20
460.000
30
0.000
42
-1.00000000
0
SEQEND
0
POLYLINE
8
0
6
CONTINUOUS
62
2
66
1
10
0.000
20
0.000
30
0.000
70
1
0
VERTEX
8
0
10
215.000
20
190.000
30
0.000
42
0.00000000
0
VERTEX
8
0
10
215.000
20
320.000
30
0.000
42
-0.41421356
0
VERTEX
8
0
10
230.000
20
335.000
30
0.000
42
0.00000000
0
VERTEX
8
0
10
330.000
20
335.000
30
0.000
42
-0.41421356
0
VERTEX
8
0
10
345.000
20
320.000
30
0.000
42
0.00000000
0
VERTEX
8
0
10
345.000
20
190.000
30
0.000
42
-0.41421356
0
VERTEX
8
0
10
330.000
20
175.000
30
0.000
42
0.00000000
0
VERTEX
8
0
10
230.000
20
175.000
30
0.000
42
-0.41421356
0
SEQEND
0
POLYLINE
8
0
6
CONTINUOUS
62
2
66
1
10
0.000
20
0.000
30
0.000
70
1
0
VERTEX
8
0
10
493.500
20
315.000
30
0.000
42
-1.00000000
0
VERTEX
8
0
10
526.500
20
315.000
30
0.000
42
-1.00000000
0
SEQEND
0
POLYLINE
8
0
6
CONTINUOUS
62
2
66
1
10
0.000
20
0.000
30
0.000
70
1
0
VERTEX
8
0
10
33.500
20
315.000
30
0.000
42
-1.00000000
0
VERTEX
8
0
10
66.500
20
315.000
30
0.000
42
-1.00000000
0
SEQEND
0
POLYLINE
8
0
6
CONTINUOUS
62
2
66
1
10
0.000
20
0.000
30
0.000
70
1
0
VERTEX
8
0
10
493.500
20
195.000
30
0.000
42
-1.00000000
0
VERTEX
8
0
10
526.500
20
195.000
30
0.000
42
-1.00000000
0
SEQEND
0
POLYLINE
8
0
6
CONTINUOUS
62
2
66
1
10
0.000
20
0.000
30
0.000
70
1
0
VERTEX
8
0
10
33.500
20
195.000
30
0.000
42
-1.00000000
0
VERTEX
8
0
10
66.500
20
195.000
30
0.000
42
-1.00000000
0
SEQEND
0
POLYLINE
8
0
6
CONTINUOUS
62
2
66
1
10
0.000
20
0.000
30
0.000
70
1
0
VERTEX
8
0
10
493.500
20
50.000
30
0.000
42
-1.00000000
0
VERTEX
8
0
10
526.500
20
50.000
30
0.000
42
-1.00000000
0
SEQEND
0
POLYLINE
8
0
6
CONTINUOUS
62
2
66
1
10
0.000
20
0.000
30
0.000
70
1
0
VERTEX
8
0
10
378.500
20
50.000
30
0.000
42
-1.00000000
0
VERTEX
8
0
10
411.500
20
50.000
30
0.000
42
-1.00000000
0
SEQEND
0
POLYLINE
8
0
6
CONTINUOUS
62
2
66
1
10
0.000
20
0.000
30
0.000
70
1
0
VERTEX
8
0
10
263.500
20
50.000
30
0.000
42
-1.00000000
0
VERTEX
8
0
10
296.500
20
50.000
30
0.000
42
-1.00000000
0
SEQEND
0
POLYLINE
8
0
6
CONTINUOUS
62
2
66
1
10
0.000
20
0.000
30
0.000
70
1
0
VERTEX
8
0
10
148.500
20
50.000
30
0.000
42
-1.00000000
0
VERTEX
8
0
10
181.500
20
50.000
30
0.000
42
-1.00000000
0
SEQEND
0
POLYLINE
8
0
6
CONTINUOUS
62
2
66
1
10
0.000
20
0.000
30
0.000
70
1
0
VERTEX
8
0
10
33.500
20
50.000
30
0.000
42
-1.00000000
0
VERTEX
8
0
10
66.500
20
50.000
30
0.000
42
-1.00000000
0
SEQEND
0
POLYLINE
8
30
6
CONTINUOUS
62
7
66
1
10
0.000
20
0.000
30
0.000
70
1
0
VERTEX
8
30
10
50.000
20
66.000
30
0.000
42
1.00000000
0
VERTEX
8
30
10
50.000
20
34.000
30
0.000
42
1.00000000
0
SEQEND
0
POLYLINE
8
30
6
CONTINUOUS
62
7
66
1
10
0.000
20
0.000
30
0.000
70
1
0
VERTEX
8
30
10
50.000
20
211.000
30
0.000
42
1.00000000
0
VERTEX
8
30
10
50.000
20
179.000
30
0.000
42
1.00000000
0
SEQEND
0
POLYLINE
8
30
6
CONTINUOUS
62
7
66
1
10
0.000
20
0.000
30
0.000
70
1
0
VERTEX
8
30
10
50.000
20
331.000
30
0.000
42
1.00000000
0
VERTEX
8
30
10
50.000
20
299.000
30
0.000
42
1.00000000
0
SEQEND
0
POLYLINE
8
30
6
CONTINUOUS
62
7
66
1
10
0.000
20
0.000
30
0.000
70
1
0
VERTEX
8
30
10
50.000
20
476.000
30
0.000
42
1.00000000
0
VERTEX
8
30
10
50.000
20
444.000
30
0.000
42
1.00000000
0
SEQEND
0
POLYLINE
8
30
6
CONTINUOUS
62
7
66
1
10
0.000
20
0.000
30
0.000
70
1
0
VERTEX
8
30
10
165.000
20
66.000
30
0.000
42
1.00000000
0
VERTEX
8
30
10
165.000
20
34.000
30
0.000
42
1.00000000
0
SEQEND
0
POLYLINE
8
30
6
CONTINUOUS
62
7
66
1
10
0.000
20
0.000
30
0.000
70
1
0
VERTEX
8
30
10
165.000
20
476.000
30
0.000
42
1.00000000
0
VERTEX
8
30
10
165.000
20
444.000
30
0.000
42
1.00000000
0
SEQEND
0
POLYLINE
8
30
6
CONTINUOUS
62
7
66
1
10
0.000
20
0.000
30
0.000
70
1
0
VERTEX
8
30
10
280.000
20
66.000
30
0.000
42
1.00000000
0
VERTEX
8
30
10
280.000
20
34.000
30
0.000
42
1.00000000
0
SEQEND
0
POLYLINE
8
30
6
CONTINUOUS
62
7
66
1
10
0.000
20
0.000
30
0.000
70
1
0
VERTEX
8
30
10
280.000
20
476.000
30
0.000
42
1.00000000
0
VERTEX
8
30
10
280.000
20
444.000
30
0.000
42
1.00000000
0
SEQEND
0
POLYLINE
8
30
6
CONTINUOUS
62
7
66
1
10
0.000
20
0.000
30
0.000
70
1
0
VERTEX
8
30
10
395.000
20
66.000
30
0.000
42
1.00000000
0
VERTEX
8
30
10
395.000
20
34.000
30
0.000
42
1.00000000
0
SEQEND
0
POLYLINE
8
30
6
CONTINUOUS
62
7
66
1
10
0.000
20
0.000
30
0.000
70
1
0
VERTEX
8
30
10
395.000
20
476.000
30
0.000
42
1.00000000
0
VERTEX
8
30
10
395.000
20
444.000
30
0.000
42
1.00000000
0
SEQEND
0
POLYLINE
8
30
6
CONTINUOUS
62
7
66
1
10
0.000
20
0.000
30
0.000
70
1
0
VERTEX
8
30
10
510.000
20
66.000
30
0.000
42
1.00000000
0
VERTEX
8
30
10
510.000
20
34.000
30
0.000
42
1.00000000
0
SEQEND
0
POLYLINE
8
30
6
CONTINUOUS
62
7
66
1
10
0.000
20
0.000
30
0.000
70
1
0
VERTEX
8
30
10
510.000
20
211.000
30
0.000
42
1.00000000
0
VERTEX
8
30
10
510.000
20
179.000
30
0.000
42
1.00000000
0
SEQEND
0
POLYLINE
8
30
6
CONTINUOUS
62
7
66
1
10
0.000
20
0.000
30
0.000
70
1
0
VERTEX
8
30
10
510.000
20
331.000
30
0.000
42
1.00000000
0
VERTEX
8
30
10
510.000
20
299.000
30
0.000
42
1.00000000
0
SEQEND
0
POLYLINE
8
30
6
CONTINUOUS
62
7
66
1
10
0.000
20
0.000
30
0.000
70
1
0
VERTEX
8
30
10
510.000
20
476.000
30
0.000
42
1.00000000
0
VERTEX
8
30
10
510.000
20
444.000
30
0.000
42
1.00000000
0
SEQEND
0
ENDSEC
0
EOF
