  0
SECTION
  2
HEADER
  9
$ACADVER
  1
AC1009
  9
$INSBASE
 10
0.0
 20
0.0
 30
0.0
  9
$EXTMIN
 10
894.29614471060177
 20
141.449122206097
 30
0.0
  9
$EXTMAX
 10
1594.29614471066
 20
797.94912220615549
 30
31.834400056947779
  9
$LIMMIN
 10
0.0
 20
0.0
  9
$LIMMAX
 10
420.0
 20
297.0
  9
$ORTHOMODE
 70
     1
  9
$REGENMODE
 70
     1
  9
$FILLMODE
 70
     1
  9
$QTEXTMODE
 70
     0
  9
$MIRRTEXT
 70
     1
  9
$DRAGMODE
 70
     2
  9
$LTSCALE
 40
1.0
  9
$OSMODE
 70
  3071
  9
$ATTMODE
 70
     1
  9
$TEXTSIZE
 40
2.5
  9
$TRACEWID
 40
1.0
  9
$TEXTSTYLE
  7
STANDARD
  9
$CLAYER
  8
0
  9
$CELTYPE
  6
BYLAYER
  9
$CECOLOR
 62
   256
  9
$DIMSCALE
 40
1.0
  9
$DIMASZ
 40
2.5
  9
$DIMEXO
 40
0.625
  9
$DIMDLI
 40
3.75
  9
$DIMRND
 40
0.0
  9
$DIMDLE
 40
0.0
  9
$DIMEXE
 40
1.25
  9
$DIMTP
 40
0.0
  9
$DIMTM
 40
0.0
  9
$DIMTXT
 40
2.5
  9
$DIMCEN
 40
2.5
  9
$DIMTSZ
 40
0.0
  9
$DIMTOL
 70
     0
  9
$DIMLIM
 70
     0
  9
$DIMTIH
 70
     0
  9
$DIMTOH
 70
     0
  9
$DIMSE1
 70
     0
  9
$DIMSE2
 70
     0
  9
$DIMTAD
 70
     1
  9
$DIMZIN
 70
     8
  9
$DIMBLK
  1

  9
$DIMASO
 70
     1
  9
$DIMSHO
 70
     1
  9
$DIMPOST
  1

  9
$DIMAPOST
  1

  9
$DIMALT
 70
     0
  9
$DIMALTD
 70
     3
  9
$DIMALTF
 40
0.03937007874016
  9
$DIMLFAC
 40
1.0
  9
$DIMTOFL
 70
     1
  9
$DIMTVP
 40
0.0
  9
$DIMTIX
 70
     0
  9
$DIMSOXD
 70
     0
  9
$DIMSAH
 70
     0
  9
$DIMBLK1
  1

  9
$DIMBLK2
  1

  9
$DIMSTYLE
  2
ISO-25
  9
$DIMCLRD
 70
     0
  9
$DIMCLRE
 70
     0
  9
$DIMCLRT
 70
     0
  9
$DIMTFAC
 40
1.0
  9
$DIMGAP
 40
0.625
  9
$LUNITS
 70
     2
  9
$LUPREC
 70
     4
  9
$SKETCHINC
 40
1.0
  9
$FILLETRAD
 40
10.0
  9
$AUNITS
 70
     0
  9
$AUPREC
 70
     0
  9
$MENU
  1
.
  9
$ELEVATION
 40
0.0
  9
$PELEVATION
 40
0.0
  9
$THICKNESS
 40
0.0
  9
$LIMCHECK
 70
     0
  9
$BLIPMODE
 70
     0
  9
$CHAMFERA
 40
10.0
  9
$CHAMFERB
 40
10.0
  9
$SKPOLY
 70
     0
  9
$TDCREATE
 40
2453066.6975899311
  9
$TDUPDATE
 40
2456211.4004195598
  9
$TDINDWG
 40
0.0043253009
  9
$TDUSRTIMER
 40
0.0043239931
  9
$USRTIMER
 70
     1
  9
$ANGBASE
 50
0.0
  9
$ANGDIR
 70
     0
  9
$PDMODE
 70
     0
  9
$PDSIZE
 40
0.0
  9
$PLINEWID
 40
0.0
  9
$COORDS
 70
     0
  9
$SPLFRAME
 70
     0
  9
$SPLINETYPE
 70
     6
  9
$SPLINESEGS
 70
     8
  9
$ATTDIA
 70
     0
  9
$ATTREQ
 70
     1
  9
$HANDLING
 70
     1
  9
$HANDSEED
  5
468
  9
$SURFTAB1
 70
     6
  9
$SURFTAB2
 70
     6
  9
$SURFTYPE
 70
     6
  9
$SURFU
 70
     6
  9
$SURFV
 70
     6
  9
$UCSNAME
  2

  9
$UCSORG
 10
0.0
 20
0.0
 30
0.0
  9
$UCSXDIR
 10
1.0
 20
0.0
 30
0.0
  9
$UCSYDIR
 10
0.0
 20
1.0
 30
0.0
  9
$PUCSNAME
  2

  9
$PUCSORG
 10
0.0
 20
0.0
 30
0.0
  9
$PUCSXDIR
 10
1.0
 20
0.0
 30
0.0
  9
$PUCSYDIR
 10
0.0
 20
1.0
 30
0.0
  9
$USERI1
 70
     0
  9
$USERI2
 70
     0
  9
$USERI3
 70
     0
  9
$USERI4
 70
     0
  9
$USERI5
 70
     0
  9
$USERR1
 40
0.0
  9
$USERR2
 40
0.0
  9
$USERR3
 40
0.0
  9
$USERR4
 40
0.0
  9
$USERR5
 40
0.0
  9
$WORLDVIEW
 70
     1
  9
$SHADEDGE
 70
     3
  9
$SHADEDIF
 70
    70
  9
$TILEMODE
 70
     1
  9
$MAXACTVP
 70
    64
  9
$PLIMCHECK
 70
     0
  9
$PEXTMIN
 10
1.0000000000000000E+020
 20
1.0000000000000000E+020
 30
1.0000000000000000E+020
  9
$PEXTMAX
 10
-1.0000000000000000E+020
 20
-1.0000000000000000E+020
 30
-1.0000000000000000E+020
  9
$PLIMMIN
 10
0.0
 20
0.0
  9
$PLIMMAX
 10
420.0
 20
297.0
  9
$UNITMODE
 70
     0
  9
$VISRETAIN
 70
     1
  9
$PLINEGEN
 70
     0
  9
$PSLTSCALE
 70
     1
  0
ENDSEC
  0
SECTION
  2
TABLES
  0
TABLE
  2
VPORT
 70
     1
  0
VPORT
  2
*ACTIVE
 70
     0
 10
0.0
 20
0.0
 11
1.0
 21
1.0
 12
1373.3481522303291
 22
409.38098328441117
 13
0.0
 23
0.0
 14
10.0
 24
10.0
 15
10.0
 25
10.0
 16
0.0
 26
0.0
 36
1.0
 17
0.0
 27
0.0
 37
0.0
 40
970.40059105277953
 41
2.094876660341555
 42
50.0
 43
0.0
 44
0.0
 50
0.0
 51
0.0
 71
     0
 72
   100
 73
     1
 74
     3
 75
     0
 76
     0
 77
     0
 78
     0
  0
ENDTAB
  0
TABLE
  2
LTYPE
 70
     1
  0
LTYPE
  2
CONTINUOUS
 70
     0
  3
Solid line
 72
    65
 73
     0
 40
0.0
  0
ENDTAB
  0
TABLE
  2
LAYER
 70
     2
  0
LAYER
  2
0
 70
     0
 62
     7
  6
CONTINUOUS
  0
LAYER
  2
CONTORNO
 70
     0
 62
     7
  6
CONTINUOUS
  0
ENDTAB
  0
TABLE
  2
STYLE
 70
     3
  0
STYLE
  2
STANDARD
 70
     0
 40
0.0
 41
1.0
 50
0.0
 71
     0
 42
2.5
  3
txt
  4

  0
STYLE
  2
ANNOTATIVE
 70
     0
 40
0.0
 41
1.0
 50
0.0
 71
     0
 42
0.2
  3
txt
  4

  0
STYLE
  2
STILE1
 70
     0
 40
100.0
 41
1.0
 50
0.0
 71
     0
 42
100.0
  3
txt
  4

  0
ENDTAB
  0
TABLE
  2
VIEW
 70
     0
  0
ENDTAB
  0
TABLE
  2
UCS
 70
     0
  0
ENDTAB
  0
TABLE
  2
APPID
 70
     4
  0
APPID
  2
ACAD
 70
     0
  0
APPID
  2
ACADANNOTATIVE
 70
     0
  0
APPID
  2
ACAD_MLEADERVER
 70
     0
  0
APPID
  2
ACAD_EXEMPT_FROM_CAD_STANDARDS
 70
     0
  0
ENDTAB
  0
TABLE
  2
DIMSTYLE
 70
     3
  0
DIMSTYLE
  2
STANDARD
 70
     0
  3

  4

  5

  6

  7

 40
0.0
 41
100.0
 42
1.0
 43
1.0
 44
20.0
 45
0.0
 46
0.0
 47
0.0
 48
0.0
140
2.5
141
-100.0
142
0.0
143
1.0
144
-1.0
145
1.0
146
1.0
147
30.0
 71
     0
 72
     0
 73
     0
 74
     0
 75
     0
 76
     0
 77
     1
 78
     8
170
     0
171
     0
172
     1
173
     0
174
     0
175
     0
176
     5
177
     5
178
     5
  0
DIMSTYLE
  2
ANNOTATIVE
 70
     0
  3

  4

  5

  6

  7

 40
1.0
 41
0.18
 42
0.0625
 43
0.38
 44
0.18
 45
0.0
 46
0.0
 47
0.0
 48
0.0
140
0.18
141
0.09
142
0.0
143
25.399999999999999
144
1.0
145
0.0
146
1.0
147
0.09
 71
     0
 72
     0
 73
     1
 74
     1
 75
     0
 76
     0
 77
     0
 78
     0
170
     0
171
     2
172
     0
173
     0
174
     0
175
     0
176
     0
177
     0
178
     0
  0
DIMSTYLE
  2
ISO-25
 70
     0
  3

  4

  5

  6

  7

 40
1.0
 41
2.5
 42
0.625
 43
3.75
 44
1.25
 45
0.0
 46
0.0
 47
0.0
 48
0.0
140
2.5
141
2.5
142
0.0
143
0.03937007874016
144
1.0
145
0.0
146
1.0
147
0.625
 71
     0
 72
     0
 73
     0
 74
     0
 75
     0
 76
     0
 77
     1
 78
     8
170
     0
171
     3
172
     1
173
     0
174
     0
175
     0
176
     0
177
     0
178
     0
  0
ENDTAB
  0
ENDSEC
  0
SECTION
  2
BLOCKS
  0
BLOCK
  8
0
  2
$MODEL_SPACE
 70
     0
 10
0.0
 20
0.0
 30
0.0
  3
$MODEL_SPACE
  1

  0
ENDBLK
  5
440
  8
0
  0
BLOCK
 67
     1
  8
0
  2
$PAPER_SPACE
 70
     0
 10
0.0
 20
0.0
 30
0.0
  3
$PAPER_SPACE
  1

  0
ENDBLK
  5
43C
 67
     1
  8
0
  0
ENDSEC
  0
SECTION
  2
ENTITIES
  0
LINE
  5
357
  8
0
 39
31.834400056947779
 10
1564.2961447106011
 20
169.44912220606801
 30
0.0
 11
1564.2961447106011
 21
141.44912220612611
 31
0.0
  0
LINE
  5
358
  8
0
 39
31.834400056947779
 10
1566.2961447105431
 20
171.449122206097
 30
0.0
 11
1594.296144710572
 21
171.449122206097
 31
0.0
  0
LINE
  5
359
  8
0
 39
31.834400056947779
 10
1562.6961447105959
 20
173.04912220610291
 30
0.0
 11
1556.2961447105431
 21
171.449122206097
 31
0.0
  0
LINE
  5
35A
  8
0
 39
31.834400056947779
 10
1562.6961447105671
 20
173.04912220610291
 30
0.0
 11
1564.2961447105431
 21
179.44912220606801
 31
0.0
  0
CIRCLE
  5
35B
  8
0
 39
31.834400056947779
 10
909.34274310375133
 20
378.4457402384362
 30
0.0
 40
6.75
  0
CIRCLE
  5
35C
  8
0
 39
31.834400056947779
 10
909.37425918220401
 20
518.44573669108661
 30
0.0
 40
6.75
  0
CIRCLE
  5
35D
  8
0
 39
31.834400056947779
 10
909.405775260685
 20
658.44573314373724
 30
0.0
 40
6.75
  0
CIRCLE
  5
35E
  8
0
 39
31.834400056947779
 10
1579.1865141605181
 20
658.44573314373724
 30
0.0
 40
6.75
  0
CIRCLE
  5
35F
  8
0
 39
31.834400056947779
 10
1579.2495463174509
 20
378.4457402384362
 30
0.0
 40
6.75
  0
CIRCLE
  5
360
  8
0
 39
31.834400056947779
 10
1579.2180302389991
 20
518.44573669108661
 30
0.0
 40
6.75
  0
CIRCLE
  5
361
  8
0
 39
31.834400056947779
 10
1244.296144710602
 20
479.44912220612599
 30
0.0
 40
42.0
  0
CIRCLE
  5
362
  8
0
 39
31.834400056947779
 10
1206.796144710602
 20
516.94912220612605
 30
0.0
 40
6.75
  0
CIRCLE
  5
363
  8
0
 39
31.834400056947779
 10
1206.796144710602
 20
441.94912220612599
 30
0.0
 40
6.75
  0
CIRCLE
  5
364
  8
0
 39
31.834400056947779
 10
1281.796144710602
 20
516.94912220612605
 30
0.0
 40
6.75
  0
CIRCLE
  5
365
  8
0
 39
31.834400056947779
 10
1281.796144710602
 20
441.94912220612599
 30
0.0
 40
6.75
  0
LINE
  5
36F
  8
0
 39
31.834400056947779
 10
1292.736144710487
 20
782.44912220609694
 30
0.0
 11
1292.736144710517
 21
785.44912220609694
 31
0.0
  0
LINE
  5
370
  8
0
 39
31.834400056947779
 10
1195.876144710589
 20
785.44912220612628
 30
0.0
 11
1195.876144710589
 21
782.44912220612605
 31
0.0
  0
LINE
  5
371
  8
0
 39
31.834400056947779
 10
1195.876144710589
 20
782.44912220612605
 30
0.0
 11
1292.736144710487
 21
782.44912220609694
 31
0.0
  0
LINE
  5
372
  8
0
 39
31.834400056947779
 10
924.29614471051434
 20
179.442368760465
 30
0.0
 11
925.89434379168483
 21
173.0495724358409
 31
0.0
  0
LINE
  5
373
  8
0
 39
31.834400056947779
 10
926.29445634908461
 20
171.449122206097
 30
0.0
 11
926.29614471051423
 21
171.442368760465
 31
0.0
  0
LINE
  5
374
  8
0
 39
31.834400056947779
 10
925.89434379165584
 20
173.0495724358409
 30
0.0
 11
932.29614471057255
 21
171.44912220612619
 31
0.0
  0
LINE
  5
375
  8
0
 39
31.834400056947779
 10
924.29614471057255
 20
169.44912220615529
 30
0.0
 11
924.29614471057255
 21
141.44912220612611
 31
0.0
  0
LINE
  5
376
  8
0
 39
31.834400056947779
 10
894.29614471060177
 20
171.44912220612619
 30
0.0
 11
922.29783307191542
 21
171.449122206097
 31
0.0
  0
ARC
  5
377
  8
0
 39
31.834400056947779
 10
1564.29614471066
 20
797.94912220612628
 30
0.0
 40
12.499999999970891
 50
279.40187792651341
 51
0.0
  0
LINE
  5
378
  8
0
 39
31.834400056947779
 10
1292.736144710517
 20
785.44912220609694
 30
0.0
 11
1562.296144710718
 21
785.44912220606784
 31
0.0
  0
LINE
  5
379
  8
0
 39
31.834400056947779
 10
1564.296144710718
 20
777.44912220606784
 30
0.0
 11
1566.3381234360379
 21
785.61703710731695
 31
0.0
  0
LINE
  5
37A
  8
0
 39
31.834400056947779
 10
926.29614471063076
 20
785.44912220615549
 30
0.0
 11
1195.876144710589
 21
785.44912220612628
 31
0.0
  0
ARC
  5
37B
  8
0
 39
31.834400056947779
 10
924.29614471060165
 20
797.94912220612628
 30
0.0
 40
12.499999999970891
 50
180.0
 51
260.5981220751305
  0
LINE
  5
37C
  8
0
 39
31.834400056947779
 10
922.25416598534014
 20
785.61703710728762
 30
0.0
 11
924.29614471063076
 21
777.44912220615549
 31
0.0
  0
LINE
  5
37D
  8
0
 39
31.834400056947779
 10
1556.2961447105431
 20
171.449122206097
 30
0.0
 11
1564.2961447105431
 21
169.449122206097
 31
0.0
  0
LINE
  5
37E
  8
0
 39
31.834400056947779
 10
1564.2961447105431
 20
179.44912220606801
 30
0.0
 11
1566.2961447105431
 21
171.44912220606801
 31
0.0
  0
LINE
  5
37F
  8
0
 39
31.834400056947779
 10
922.29614471051434
 20
171.442368760465
 30
0.0
 11
924.29614471051434
 21
179.442368760465
 31
0.0
  0
LINE
  5
380
  8
0
 39
31.834400056947779
 10
1562.296144710718
 20
785.44912220606784
 30
0.0
 11
1564.296144710718
 21
777.44912220606784
 31
0.0
  0
LINE
  5
381
  8
0
 39
31.834400056947779
 10
924.29614471063076
 20
777.44912220615549
 30
0.0
 11
926.29614471063076
 21
785.44912220615549
 31
0.0
  0
LINE
  5
382
  8
0
 39
31.834400056947779
 10
932.29614471057255
 20
171.44912220612619
 30
0.0
 11
924.29614471057255
 21
169.44912220612619
 31
0.0
  0
LINE
  5
383
  8
0
 39
31.834400056947779
 10
1594.29614471063
 20
785.4491222062137
 30
0.0
 11
1594.296144710602
 21
171.44912220612619
 31
0.0
  0
LINE
  5
384
  8
0
 39
31.834400056947779
 10
894.29614471060177
 20
785.4491222062137
 30
0.0
 11
911.79614471063076
 21
797.94912220615549
 31
0.0
  0
LINE
  5
385
  8
0
 39
31.834400056947779
 10
894.29614471060177
 20
785.4491222062137
 30
0.0
 11
894.29614471060177
 21
171.44912220615529
 31
0.0
  0
CIRCLE
  5
386
  8
0
 39
31.834400056947779
 10
909.43451243506104
 20
236.52532039442309
 30
0.0
 40
8.75
  0
CIRCLE
  5
387
  8
0
 39
31.834400056947779
 10
1579.1577769861419
 20
236.52532039442309
 30
0.0
 40
8.75
  0
LINE
  5
388
  8
0
 39
31.834400056947779
 10
1594.29614471066
 20
785.44912220615549
 30
0.0
 11
1576.79614471063
 21
797.94912220615549
 31
0.0
  0
LINE
  5
389
  8
0
 39
31.834400056947779
 10
924.29614471060165
 20
141.44912220612611
 30
0.0
 11
1564.2961447106011
 21
141.449122206097
 31
0.0
  0
ENDSEC
  0
EOF
