  0
SECTION
  2
HEADER
  9
$ACADVER
  1
AC1009
  9
$DWGCODEPAGE
  3
ansi_1252
  9
$INSBASE
 10
0.0
 20
0.0
 30
0.0
  9
$EXTMIN
 10
5.281675555387778
 20
90.98888505289186
 30
0.0
  9
$EXTMAX
 10
2295.281675554746
 20
1406.988885052904
 30
0.0
  9
$LIMMIN
 10
0.0
 20
0.0
  9
$LIMMAX
 10
12.0
 20
9.0
  9
$ORTHOMODE
 70
     0
  9
$REGENMODE
 70
     1
  9
$FILLMODE
 70
     1
  9
$QTEXTMODE
 70
     0
  9
$MIRRTEXT
 70
     0
  9
$DRAGMODE
 70
     2
  9
$LTSCALE
 40
1.0
  9
$OSMODE
 70
  1023
  9
$ATTMODE
 70
     1
  9
$TEXTSIZE
 40
0.2
  9
$TRACEWID
 40
0.05
  9
$TEXTSTYLE
  7
STANDARD
  9
$CLAYER
  8
0
  9
$CELTYPE
  6
BYLAYER
  9
$CECOLOR
 62
   256
  9
$DIMSCALE
 40
1.0
  9
$DIMASZ
 40
0.18
  9
$DIMEXO
 40
0.0625
  9
$DIMDLI
 40
0.38
  9
$DIMRND
 40
0.0
  9
$DIMDLE
 40
0.0
  9
$DIMEXE
 40
0.18
  9
$DIMTP
 40
0.0
  9
$DIMTM
 40
0.0
  9
$DIMTXT
 40
0.18
  9
$DIMCEN
 40
0.09
  9
$DIMTSZ
 40
0.0
  9
$DIMTOL
 70
     0
  9
$DIMLIM
 70
     0
  9
$DIMTIH
 70
     1
  9
$DIMTOH
 70
     1
  9
$DIMSE1
 70
     0
  9
$DIMSE2
 70
     0
  9
$DIMTAD
 70
     0
  9
$DIMZIN
 70
     0
  9
$DIMBLK
  1

  9
$DIMASO
 70
     1
  9
$DIMSHO
 70
     1
  9
$DIMPOST
  1

  9
$DIMAPOST
  1

  9
$DIMALT
 70
     0
  9
$DIMALTD
 70
     2
  9
$DIMALTF
 40
25.4
  9
$DIMLFAC
 40
1.0
  9
$DIMTOFL
 70
     0
  9
$DIMTVP
 40
0.0
  9
$DIMTIX
 70
     0
  9
$DIMSOXD
 70
     0
  9
$DIMSAH
 70
     0
  9
$DIMBLK1
  1

  9
$DIMBLK2
  1

  9
$DIMSTYLE
  2
STANDARD
  9
$DIMCLRD
 70
     0
  9
$DIMCLRE
 70
     0
  9
$DIMCLRT
 70
     0
  9
$DIMTFAC
 40
1.0
  9
$DIMGAP
 40
0.09
  9
$LUNITS
 70
     2
  9
$LUPREC
 70
     4
  9
$SKETCHINC
 40
0.1
  9
$FILLETRAD
 40
0.0
  9
$AUNITS
 70
     0
  9
$AUPREC
 70
     0
  9
$MENU
  1
.
  9
$ELEVATION
 40
0.0
  9
$PELEVATION
 40
0.0
  9
$THICKNESS
 40
0.0
  9
$LIMCHECK
 70
     0
  9
$CHAMFERA
 40
0.0
  9
$CHAMFERB
 40
0.0
  9
$SKPOLY
 70
     0
  9
$TDCREATE
 40
2452643.105050926
  9
$TDUPDATE
 40
2458029.588155266
  9
$TDINDWG
 40
0.0025347917
  9
$TDUSRTIMER
 40
2458029.504734966
  9
$USRTIMER
 70
     1
  9
$ANGBASE
 50
0.0
  9
$ANGDIR
 70
     0
  9
$PDMODE
 70
     0
  9
$PDSIZE
 40
0.0
  9
$PLINEWID
 40
0.0
  9
$COORDS
 70
     1
  9
$SPLFRAME
 70
     0
  9
$SPLINETYPE
 70
     6
  9
$SPLINESEGS
 70
     8
  9
$ATTDIA
 70
     0
  9
$ATTREQ
 70
     1
  9
$HANDLING
 70
     1
  9
$HANDSEED
  5
518
  9
$SURFTAB1
 70
     6
  9
$SURFTAB2
 70
     6
  9
$SURFTYPE
 70
     6
  9
$SURFU
 70
     6
  9
$SURFV
 70
     6
  9
$UCSNAME
  2

  9
$UCSORG
 10
0.0
 20
0.0
 30
0.0
  9
$UCSXDIR
 10
1.0
 20
0.0
 30
0.0
  9
$UCSYDIR
 10
0.0
 20
1.0
 30
0.0
  9
$PUCSNAME
  2

  9
$PUCSORG
 10
0.0
 20
0.0
 30
0.0
  9
$PUCSXDIR
 10
1.0
 20
0.0
 30
0.0
  9
$PUCSYDIR
 10
0.0
 20
1.0
 30
0.0
  9
$USERI1
 70
     0
  9
$USERI2
 70
     0
  9
$USERI3
 70
     0
  9
$USERI4
 70
     0
  9
$USERI5
 70
     0
  9
$USERR1
 40
0.0
  9
$USERR2
 40
0.0
  9
$USERR3
 40
0.0
  9
$USERR4
 40
0.0
  9
$USERR5
 40
0.0
  9
$WORLDVIEW
 70
     1
  9
$SHADEDGE
 70
     3
  9
$SHADEDIF
 70
    70
  9
$TILEMODE
 70
     1
  9
$MAXACTVP
 70
    64
  9
$PLIMCHECK
 70
     0
  9
$PEXTMIN
 10
0.0
 20
0.0
 30
0.0
  9
$PEXTMAX
 10
0.0
 20
0.0
 30
0.0
  9
$PLIMMIN
 10
0.0
 20
0.0
  9
$PLIMMAX
 10
0.0
 20
0.0
  9
$UNITMODE
 70
     0
  9
$VISRETAIN
 70
     1
  9
$PLINEGEN
 70
     0
  9
$PSLTSCALE
 70
     1
  0
ENDSEC
  0
SECTION
  2
TABLES
  0
TABLE
  2
VPORT
 70
     1
  0
VPORT
  2
*ACTIVE
 70
     0
 10
0.0
 20
0.0
 11
1.0
 21
1.0
 12
2078.071915805488
 22
591.5000927752865
 13
0.0
 23
0.0
 14
0.5
 24
0.5
 15
0.5
 25
0.5
 16
0.0
 26
0.0
 36
1.0
 17
-27.66959356598136
 27
-19.53870295786226
 37
0.0
 40
2802.985669441333
 41
2.122302158273381
 42
50.0
 43
0.0
 44
0.0
 50
0.0
 51
0.0
 71
    16
 72
  1000
 73
     1
 74
     3
 75
     0
 76
     0
 77
     0
 78
     0
  0
ENDTAB
  0
TABLE
  2
LTYPE
 70
     2
  0
LTYPE
  2
CONTINUOUS
 70
     0
  3
Solid line
 72
    65
 73
     0
 40
0.0
  0
LTYPE
  2
CENTERX2
 70
     0
  3
Center (2x) ________  __  ________  __  _____
 72
    65
 73
     4
 40
20.32
 49
12.7
 49
-2.54
 49
2.54
 49
-2.54
  0
ENDTAB
  0
TABLE
  2
LAYER
 70
     1
  0
LAYER
  2
0
 70
     0
 62
     7
  6
CONTINUOUS
  0
ENDTAB
  0
TABLE
  2
STYLE
 70
     1
  0
STYLE
  2
STANDARD
 70
     0
 40
0.0
 41
1.0
 50
0.0
 71
     0
 42
0.2
  3
arial.ttf
  4

  0
ENDTAB
  0
TABLE
  2
VIEW
 70
     0
  0
ENDTAB
  0
TABLE
  2
UCS
 70
     0
  0
ENDTAB
  0
TABLE
  2
APPID
 70
     4
  0
APPID
  2
ACAD
 70
     0
  0
APPID
  2
AECBASE
 70
     0
  0
APPID
  2
AEC_2DSECTION_XDATA
 70
     0
  0
APPID
  2
AEC_MASSGROUP_XDADA
 70
     0
  0
ENDTAB
  0
TABLE
  2
DIMSTYLE
 70
     1
  0
DIMSTYLE
  2
STANDARD
 70
     0
  3

  4

  5

  6

  7

 40
1.0
 41
0.18
 42
0.0625
 43
0.38
 44
0.18
 45
0.0
 46
0.0
 47
0.0
 48
0.0
140
0.18
141
0.09
142
0.0
143
25.4
144
1.0
145
0.0
146
1.0
147
0.09
 71
     0
 72
     0
 73
     1
 74
     1
 75
     0
 76
     0
 77
     0
 78
     0
170
     0
171
     2
172
     0
173
     0
174
     0
175
     0
176
     0
177
     0
178
     0
  0
ENDTAB
  0
ENDSEC
  0
SECTION
  2
BLOCKS
  0
BLOCK
  8
0
  2
$MODEL_SPACE
 70
     0
 10
0.0
 20
0.0
 30
0.0
  3
$MODEL_SPACE
  1

  0
ENDBLK
  5
21
  8
0
  0
BLOCK
 67
     1
  8
0
  2
$PAPER_SPACE
 70
     0
 10
0.0
 20
0.0
 30
0.0
  3
$PAPER_SPACE
  1

  0
ENDBLK
  5
5B
 67
     1
  8
0
  0
ENDSEC
  0
SECTION
  2
ENTITIES
  0
CIRCLE
  5
249
  8
0
 10
1345.281675555068
 20
846.9888850528898
 30
0.0
 40
16.0
  0
CIRCLE
  5
24A
  8
0
 10
700.2816755550685
 20
696.9888850528898
 30
0.0
 40
16.0
  0
CIRCLE
  5
24B
  8
0
 10
1795.281675554766
 20
906.9888850528898
 30
0.0
 40
45.0
  0
CIRCLE
  5
24C
  8
0
 10
1150.281675555068
 20
446.9888850524897
 30
0.0
 40
45.0
  0
CIRCLE
  5
24D
  8
0
 10
1730.281675554766
 20
906.9888850528898
 30
0.0
 40
7.00000000000004
  0
CIRCLE
  5
24E
  8
0
 10
1795.281675554766
 20
971.9888850528898
 30
0.0
 40
7.000000000000036
  0
CIRCLE
  5
24F
  8
0
 10
1860.281675554766
 20
906.9888850528898
 30
0.0
 40
7.00000000000004
  0
CIRCLE
  5
250
  8
0
 10
1795.281675554766
 20
841.9888850528898
 30
0.0
 40
7.000000000000057
  0
CIRCLE
  5
251
  8
0
 10
1150.281675555068
 20
511.9888850524897
 30
0.0
 40
7.0
  0
CIRCLE
  5
252
  8
0
 10
1150.281675555068
 20
381.9888850524933
 30
0.0
 40
7.0
  0
CIRCLE
  5
253
  8
0
 10
1215.281675555068
 20
446.9888850524897
 30
0.0
 40
7.0
  0
CIRCLE
  5
254
  8
0
 10
1085.281675555068
 20
446.9888850524897
 30
0.0
 40
7.0
  0
LINE
  5
255
  8
0
 10
505.2816755553668
 20
1406.98888505289
 30
0.0
 11
855.3390192785247
 21
1406.98888505289
 31
0.0
  0
ARC
  5
256
  8
0
 10
505.2816755553668
 20
906.9888850528898
 30
0.0
 40
499.999999999979
 50
90.0
 51
275.9999999999999
  0
LINE
  5
257
  8
0
 10
557.5459071891675
 20
409.7279373687909
 30
0.0
 11
959.0738591490682
 21
147.8343678690929
 31
0.0
  0
ARC
  5
258
  8
0
 10
1150.281675555068
 20
440.9888850528899
 30
0.0
 40
349.999999999998
 50
236.8859036250999
 51
303.1140963748999
  0
LINE
  5
259
  8
0
 10
1743.017443920968
 20
409.7279373687909
 30
0.0
 11
1341.489491961067
 21
147.8343678690929
 31
0.0
  0
ARC
  5
25A
  8
0
 10
1795.281675554766
 20
906.9888850528898
 30
0.0
 40
499.9999999999791
 50
264.0000000000001
 51
90.0
  0
CIRCLE
  5
25B
  8
0
 10
1885.281675555068
 20
671.9888850528898
 30
0.0
 40
16.0
  0
CIRCLE
  5
25C
  8
0
 10
415.2816755550685
 20
671.9888850528898
 30
0.0
 40
16.0
  0
CIRCLE
  5
25D
  8
0
 10
440.2816755553668
 20
906.9888850528898
 30
0.0
 40
7.00000000000004
  0
CIRCLE
  5
25E
  8
0
 10
505.2816755553668
 20
841.9888850528898
 30
0.0
 40
7.000000000000057
  0
CIRCLE
  5
25F
  8
0
 10
570.2816755553669
 20
906.9888850528898
 30
0.0
 40
7.00000000000004
  0
CIRCLE
  5
260
  8
0
 10
505.2816755553668
 20
971.9888850528898
 30
0.0
 40
7.000000000000036
  0
CIRCLE
  5
261
  8
0
 10
505.2816755553668
 20
906.9888850528898
 30
0.0
 40
45.0
  0
CIRCLE
  5
273
  8
0
 10
2003.686293577306
 20
510.8046847384415
 30
0.0
 40
10.0
  0
CIRCLE
  5
274
  8
0
 10
1957.366464241191
 20
485.4311641189182
 30
0.0
 40
10.0
  0
CIRCLE
  5
275
  8
0
 10
1910.762222984811
 20
473.6186713042501
 30
0.0
 40
10.0
  0
CIRCLE
  5
276
  8
0
 10
296.8770575328309
 20
510.8046847384415
 30
0.0
 40
10.0
  0
CIRCLE
  5
277
  8
0
 10
343.1968868689456
 20
485.4311641189182
 30
0.0
 40
10.0
  0
CIRCLE
  5
278
  8
0
 10
389.8011281253258
 20
473.6186713042501
 30
0.0
 40
10.0
  0
LINE
  5
279
  8
0
 10
235.2816755550685
 20
924.9888850528462
 30
0.0
 11
238.8172094610019
 21
928.5244189587813
 31
0.0
  0
CIRCLE
  5
27B
  8
0
 10
948.8150330750142
 20
1079.488885052864
 30
0.0
 40
2.5
  0
CIRCLE
  5
27C
  8
0
 10
1287.904228489821
 20
1079.488885052864
 30
0.0
 40
2.5
  0
CIRCLE
  5
27D
  8
0
 10
1633.775207812922
 20
1079.488885052864
 30
0.0
 40
2.500000000003638
  0
CIRCLE
  5
27E
  8
0
 10
1795.281675554763
 20
1079.488885052864
 30
0.0
 40
2.5
  0
CIRCLE
  5
27F
  8
0
 10
1906.723262237743
 20
1038.659013622628
 30
0.0
 40
2.50000000000168
  0
CIRCLE
  5
280
  8
0
 10
1967.466054660634
 20
896.5586601310081
 30
0.0
 40
2.500000000000421
  0
CIRCLE
  5
281
  8
0
 10
1895.442251670242
 20
766.5463381085485
 30
0.0
 40
2.500000000000393
  0
CIRCLE
  5
282
  8
0
 10
343.1347417685084
 20
820.6713527453451
 30
0.0
 40
2.500000000000422
  0
CIRCLE
  5
283
  8
0
 10
496.9998550799338
 20
666.806239433927
 30
0.0
 40
2.500000000000422
  0
CIRCLE
  5
284
  8
0
 10
616.803342209576
 20
547.0027523042902
 30
0.0
 40
2.524109885445856
  0
CIRCLE
  5
285
  8
0
 10
841.5316802817507
 20
421.6688462163568
 30
0.0
 40
2.500000000001291
  0
CIRCLE
  5
286
  8
0
 10
1066.260018353923
 20
296.3349401284234
 30
0.0
 40
2.499999999999
  0
CIRCLE
  5
287
  8
0
 10
1150.281675555068
 20
274.4888850524533
 30
0.0
 40
2.5
  0
CIRCLE
  5
288
  8
0
 10
1250.442251670551
 20
306.5463381081084
 30
0.0
 40
2.500000000002299
  0
CIRCLE
  5
289
  8
0
 10
1345.076460573693
 20
374.0374018220739
 30
0.0
 40
2.499999999999337
  0
CIRCLE
  5
28A
  8
0
 10
1534.190755245521
 20
508.9096119758199
 30
0.0
 40
2.499999999999337
  0
CIRCLE
  5
28B
  8
0
 10
1692.548276021456
 20
621.8467585758756
 30
0.0
 40
2.500000000000393
  0
LINE
  5
28C
  8
0
 10
243.7669569293085
 20
916.5036036786098
 30
0.0
 11
247.3024908352419
 21
920.039137584545
 31
0.0
  0
LINE
  5
28D
  8
0
 10
238.8172094610019
 20
928.5244189587813
 30
0.0
 11
247.3024908352419
 21
920.039137584545
 31
0.0
  0
LINE
  5
28E
  8
0
 10
235.2816755550685
 20
924.9888850528462
 30
0.0
 11
243.7669569293085
 21
916.5036036786098
 31
0.0
  0
CIRCLE
  5
28F
  8
0
 10
809.31816113855
 20
505.4317421957006
 30
0.0
 40
3.000000000001354
  0
CIRCLE
  5
290
  8
0
 10
802.6394364540448
 20
508.7585973633198
 30
0.0
 40
2.999999999999884
  0
CIRCLE
  5
291
  8
0
 10
1497.923914656092
 20
508.7585973633198
 30
0.0
 40
2.999999999999884
  0
CIRCLE
  5
292
  8
0
 10
1491.245189971587
 20
505.4317421957006
 30
0.0
 40
3.000000000001354
  0
ARC
  5
2A0
  8
0
 10
861.8520399588471
 20
1406.988885052893
 30
0.0
 40
6.51302068032237
 50
179.999999999904
 51
359.9999999999681
  0
LINE
  5
2A1
  8
0
 10
868.3650606391694
 20
1406.98888505289
 30
0.0
 11
1432.198290470968
 21
1406.98888505289
 31
0.0
  0
ARC
  5
2A2
  8
0
 10
1438.71131115129
 20
1406.988885052893
 30
0.0
 40
6.51302068032237
 50
180.000000000032
 51
0.0000000000960111
  0
LINE
  5
2A3
  8
0
 10
1445.224331831612
 20
1406.98888505289
 30
0.0
 11
1795.281675554766
 21
1406.98888505289
 31
0.0
  0
LINE
  5
3DA
  8
0
 10
1510.281675555068
 20
479.9931870162312
 30
0.0
 11
1510.281675555068
 21
447.7114048676106
 31
0.0
  0
LINE
  5
3DB
  8
0
 10
1510.281675555068
 20
447.7114048676106
 30
0.0
 11
1498.281675555068
 21
447.7114048676106
 31
0.0
  0
LINE
  5
3DC
  8
0
 10
1498.281675555068
 20
447.7114048676106
 30
0.0
 11
1498.281675555068
 21
479.9931870162312
 31
0.0
  0
LINE
  5
3DD
  8
0
 10
1498.281675555068
 20
479.9931870162312
 30
0.0
 11
1510.281675555068
 21
479.9931870162312
 31
0.0
  0
LINE
  5
3DE
  8
0
 10
718.2816755550685
 20
480.616802615363
 30
0.0
 11
718.2816755550685
 21
448.3350204667425
 31
0.0
  0
LINE
  5
3DF
  8
0
 10
718.2816755550685
 20
448.3350204667425
 30
0.0
 11
730.2816755550685
 21
448.3350204667425
 31
0.0
  0
LINE
  5
3E0
  8
0
 10
730.2816755550685
 20
448.3350204667425
 30
0.0
 11
730.2816755550685
 21
480.616802615363
 31
0.0
  0
LINE
  5
3E1
  8
0
 10
730.2816755550685
 20
480.616802615363
 30
0.0
 11
718.2816755550685
 21
480.616802615363
 31
0.0
  0
LINE
  5
3E2
  8
0
 10
1510.281675555068
 20
330.8694397521852
 30
0.0
 11
1510.281675555068
 21
299.2862642709245
 31
0.0
  0
LINE
  5
3E3
  8
0
 10
1510.281675555068
 20
299.2862642709245
 30
0.0
 11
1498.281675555068
 21
299.2862642709245
 31
0.0
  0
LINE
  5
3E4
  8
0
 10
1498.281675555068
 20
299.2862642709245
 30
0.0
 11
1498.281675555068
 21
330.8694397521852
 31
0.0
  0
LINE
  5
3E5
  8
0
 10
1498.281675555068
 20
330.8694397521852
 30
0.0
 11
1510.281675555068
 21
330.8694397521852
 31
0.0
  0
LINE
  5
3E6
  8
0
 10
1582.281675555068
 20
1333.779036201772
 30
0.0
 11
1582.281675555068
 21
1301.497254053151
 31
0.0
  0
LINE
  5
3E7
  8
0
 10
1582.281675555068
 20
1301.497254053151
 30
0.0
 11
1570.281675555068
 21
1301.497254053151
 31
0.0
  0
LINE
  5
3E8
  8
0
 10
1570.281675555068
 20
1301.497254053151
 30
0.0
 11
1570.281675555068
 21
1333.779036201772
 31
0.0
  0
LINE
  5
3E9
  8
0
 10
1570.281675555068
 20
1333.779036201772
 30
0.0
 11
1582.281675555068
 21
1333.779036201772
 31
0.0
  0
LINE
  5
3EA
  8
0
 10
790.2816755550685
 20
330.8694397521852
 30
0.0
 11
790.2816755550685
 21
299.2862642709245
 31
0.0
  0
LINE
  5
3EB
  8
0
 10
790.2816755550685
 20
299.2862642709245
 30
0.0
 11
802.2816755550685
 21
299.2862642709245
 31
0.0
  0
LINE
  5
3EC
  8
0
 10
802.2816755550685
 20
299.2862642709245
 30
0.0
 11
802.2816755550685
 21
330.8694397521852
 31
0.0
  0
LINE
  5
3ED
  8
0
 10
802.2816755550685
 20
330.8694397521852
 30
0.0
 11
790.2816755550685
 21
330.8694397521852
 31
0.0
  0
LINE
  5
3EE
  8
0
 10
718.2816755550685
 20
1333.779036201772
 30
0.0
 11
718.2816755550685
 21
1301.497254053151
 31
0.0
  0
LINE
  5
3EF
  8
0
 10
718.2816755550685
 20
1301.497254053151
 30
0.0
 11
730.2816755550685
 21
1301.497254053151
 31
0.0
  0
LINE
  5
3F0
  8
0
 10
730.2816755550685
 20
1301.497254053151
 30
0.0
 11
730.2816755550685
 21
1333.779036201772
 31
0.0
  0
LINE
  5
3F1
  8
0
 10
730.2816755550685
 20
1333.779036201772
 30
0.0
 11
718.2816755550685
 21
1333.779036201772
 31
0.0
  0
LINE
  5
3F2
  8
0
 10
1582.281675555068
 20
369.6275593663325
 30
0.0
 11
1582.281675555068
 21
337.3457772177083
 31
0.0
  0
LINE
  5
3F3
  8
0
 10
1582.281675555068
 20
337.3457772177083
 30
0.0
 11
1570.281675555068
 21
337.3457772177083
 31
0.0
  0
LINE
  5
3F4
  8
0
 10
1570.281675555068
 20
337.3457772177083
 30
0.0
 11
1570.281675555068
 21
369.6275593663325
 31
0.0
  0
LINE
  5
3F5
  8
0
 10
1570.281675555068
 20
369.6275593663325
 30
0.0
 11
1582.281675555068
 21
369.6275593663325
 31
0.0
  0
LINE
  5
3F6
  8
0
 10
1520.281675555068
 20
1333.779036201772
 30
0.0
 11
1520.281675555068
 21
1301.497254053151
 31
0.0
  0
LINE
  5
3F7
  8
0
 10
1520.281675555068
 20
1301.497254053151
 30
0.0
 11
1508.281675555068
 21
1301.497254053151
 31
0.0
  0
LINE
  5
3F8
  8
0
 10
1508.281675555068
 20
1301.497254053151
 30
0.0
 11
1508.281675555068
 21
1333.779036201772
 31
0.0
  0
LINE
  5
3F9
  8
0
 10
1508.281675555068
 20
1333.779036201772
 30
0.0
 11
1520.281675555068
 21
1333.779036201772
 31
0.0
  0
LINE
  5
3FA
  8
0
 10
675.2816755550722
 20
1081.988885052864
 30
0.0
 11
675.2816755550722
 21
1076.988885052864
 31
0.0
  0
LINE
  5
3FB
  8
0
 10
675.2816755550722
 20
1076.988885052864
 30
0.0
 11
687.3425248082968
 21
1076.988885052864
 31
0.0
  0
LINE
  5
3FC
  8
0
 10
687.3425248082968
 20
1076.988885052864
 30
0.0
 11
687.3425248082968
 21
1081.988885052864
 31
0.0
  0
LINE
  5
3FD
  8
0
 10
687.3425248082968
 20
1081.988885052864
 30
0.0
 11
675.2816755550722
 21
1081.988885052864
 31
0.0
  0
LINE
  5
3FE
  8
0
 10
780.2816755550685
 20
1114.270667201536
 30
0.0
 11
780.2816755550685
 21
1081.988885052912
 31
0.0
  0
LINE
  5
3FF
  8
0
 10
780.2816755550685
 20
1081.988885052912
 30
0.0
 11
792.2816755550685
 21
1081.988885052912
 31
0.0
  0
LINE
  5
400
  8
0
 10
792.2816755550685
 20
1081.988885052912
 30
0.0
 11
792.2816755550685
 21
1114.270667201536
 31
0.0
  0
LINE
  5
401
  8
0
 10
792.2816755550685
 20
1114.270667201536
 30
0.0
 11
780.2816755550685
 21
1114.270667201536
 31
0.0
  0
LINE
  5
402
  8
0
 10
790.2816755550685
 20
440.6965619774112
 30
0.0
 11
790.2816755550685
 21
408.4147798287907
 31
0.0
  0
LINE
  5
403
  8
0
 10
790.2816755550685
 20
408.4147798287907
 30
0.0
 11
802.2816755550685
 21
408.4147798287907
 31
0.0
  0
LINE
  5
404
  8
0
 10
802.2816755550685
 20
408.4147798287907
 30
0.0
 11
802.2816755550685
 21
440.6965619774112
 31
0.0
  0
LINE
  5
405
  8
0
 10
802.2816755550685
 20
440.6965619774112
 30
0.0
 11
790.2816755550685
 21
440.6965619774112
 31
0.0
  0
LINE
  5
406
  8
0
 10
1520.281675555068
 20
1114.270667201536
 30
0.0
 11
1520.281675555068
 21
1081.988885052912
 31
0.0
  0
LINE
  5
407
  8
0
 10
1520.281675555068
 20
1081.988885052912
 30
0.0
 11
1508.281675555068
 21
1081.988885052912
 31
0.0
  0
LINE
  5
408
  8
0
 10
1508.281675555068
 20
1081.988885052912
 30
0.0
 11
1508.281675555068
 21
1114.270667201536
 31
0.0
  0
LINE
  5
409
  8
0
 10
1508.281675555068
 20
1114.270667201536
 30
0.0
 11
1520.281675555068
 21
1114.270667201536
 31
0.0
  0
LINE
  5
40A
  8
0
 10
1582.281675555068
 20
1114.270667201536
 30
0.0
 11
1582.281675555068
 21
1081.988885052912
 31
0.0
  0
LINE
  5
40B
  8
0
 10
1582.281675555068
 20
1081.988885052912
 30
0.0
 11
1570.281675555068
 21
1081.988885052912
 31
0.0
  0
LINE
  5
40C
  8
0
 10
1570.281675555068
 20
1081.988885052912
 30
0.0
 11
1570.281675555068
 21
1114.270667201536
 31
0.0
  0
LINE
  5
40D
  8
0
 10
1570.281675555068
 20
1114.270667201536
 30
0.0
 11
1582.281675555068
 21
1114.270667201536
 31
0.0
  0
LINE
  5
40E
  8
0
 10
780.2816755550685
 20
1333.779036201772
 30
0.0
 11
780.2816755550685
 21
1301.497254053151
 31
0.0
  0
LINE
  5
40F
  8
0
 10
780.2816755550685
 20
1301.497254053151
 30
0.0
 11
792.2816755550685
 21
1301.497254053151
 31
0.0
  0
LINE
  5
410
  8
0
 10
792.2816755550685
 20
1301.497254053151
 30
0.0
 11
792.2816755550685
 21
1333.779036201772
 31
0.0
  0
LINE
  5
411
  8
0
 10
792.2816755550685
 20
1333.779036201772
 30
0.0
 11
780.2816755550685
 21
1333.779036201772
 31
0.0
  0
LINE
  5
412
  8
0
 10
718.2816755550685
 20
1114.270667201536
 30
0.0
 11
718.2816755550685
 21
1081.988885052912
 31
0.0
  0
LINE
  5
413
  8
0
 10
718.2816755550685
 20
1081.988885052912
 30
0.0
 11
730.2816755550685
 21
1081.988885052912
 31
0.0
  0
LINE
  5
414
  8
0
 10
730.2816755550685
 20
1081.988885052912
 30
0.0
 11
730.2816755550685
 21
1114.270667201536
 31
0.0
  0
LINE
  5
415
  8
0
 10
730.2816755550685
 20
1114.270667201536
 30
0.0
 11
718.2816755550685
 21
1114.270667201536
 31
0.0
  0
LINE
  5
416
  8
0
 10
718.2816755550685
 20
369.6275593663325
 30
0.0
 11
718.2816755550685
 21
337.3457772177083
 31
0.0
  0
LINE
  5
417
  8
0
 10
718.2816755550685
 20
337.3457772177083
 30
0.0
 11
730.2816755550685
 21
337.3457772177083
 31
0.0
  0
LINE
  5
418
  8
0
 10
730.2816755550685
 20
337.3457772177083
 30
0.0
 11
730.2816755550685
 21
369.6275593663325
 31
0.0
  0
LINE
  5
419
  8
0
 10
730.2816755550685
 20
369.6275593663325
 30
0.0
 11
718.2816755550685
 21
369.6275593663325
 31
0.0
  0
LINE
  5
41A
  8
0
 10
1582.281675555068
 20
531.5008783096293
 30
0.0
 11
1582.281675555068
 21
499.2190961610088
 31
0.0
  0
LINE
  5
41B
  8
0
 10
1582.281675555068
 20
499.2190961610088
 30
0.0
 11
1570.281675555068
 21
499.2190961610088
 31
0.0
  0
LINE
  5
41C
  8
0
 10
1570.281675555068
 20
499.2190961610088
 30
0.0
 11
1570.281675555068
 21
531.5008783096293
 31
0.0
  0
LINE
  5
41D
  8
0
 10
1570.281675555068
 20
531.5008783096293
 30
0.0
 11
1582.281675555068
 21
531.5008783096293
 31
0.0
  0
CIRCLE
  5
504
  8
0
 10
1176.281675555068
 20
696.9888850528639
 30
0.0
 40
2.5
  0
CIRCLE
  5
505
  8
0
 10
1216.281675555068
 20
696.9888850528639
 30
0.0
 40
2.5
  0
CIRCLE
  5
506
  8
0
 10
1176.281675555068
 20
646.9888850528639
 30
0.0
 40
2.5
  0
CIRCLE
  5
507
  8
0
 10
1216.281675555068
 20
646.9888850528639
 30
0.0
 40
2.5
  0
CIRCLE
  5
514
  8
0
 10
1011.174604086808
 20
546.2551261490893
 30
0.0
 40
2.5
  0
CIRCLE
  5
515
  8
0
 10
1019.245810069053
 20
507.0778925306707
 30
0.0
 40
2.5
  0
CIRCLE
  5
516
  8
0
 10
962.2030620637844
 20
536.1661186712831
 30
0.0
 40
2.5
  0
CIRCLE
  5
517
  8
0
 10
970.2742680460291
 20
496.9888850528645
 30
0.0
 40
2.5
  0
ENDSEC
  0
EOF
