  0
SECTION
  2
HEADER
  9
$ACADVER
  1
AC1009
  9
$DWGCODEPAGE
  3
ansi_1252
  9
$INSBASE
 10
0.0
 20
0.0
 30
0.0
  9
$EXTMIN
 10
5.538506820964731
 20
3.927700498123706
 30
0.0
  9
$EXTMAX
 10
532.3337587655329
 20
193.9277004981237
 30
0.0
  9
$LIMMIN
 10
0.0
 20
0.0
  9
$LIMMAX
 10
12.0
 20
9.0
  9
$ORTHOMODE
 70
     1
  9
$REGENMODE
 70
     1
  9
$FILLMODE
 70
     1
  9
$QTEXTMODE
 70
     0
  9
$MIRRTEXT
 70
     0
  9
$DRAGMODE
 70
     2
  9
$LTSCALE
 40
1.0
  9
$OSMODE
 70
  1023
  9
$ATTMODE
 70
     1
  9
$TEXTSIZE
 40
0.2
  9
$TRACEWID
 40
0.05
  9
$TEXTSTYLE
  7
STANDARD
  9
$CLAYER
  8
0
  9
$CELTYPE
  6
BYLAYER
  9
$CECOLOR
 62
   256
  9
$DIMSCALE
 40
1.0
  9
$DIMASZ
 40
0.18
  9
$DIMEXO
 40
0.0625
  9
$DIMDLI
 40
0.38
  9
$DIMRND
 40
0.0
  9
$DIMDLE
 40
0.0
  9
$DIMEXE
 40
0.18
  9
$DIMTP
 40
0.0
  9
$DIMTM
 40
0.0
  9
$DIMTXT
 40
0.18
  9
$DIMCEN
 40
0.09
  9
$DIMTSZ
 40
0.0
  9
$DIMTOL
 70
     0
  9
$DIMLIM
 70
     0
  9
$DIMTIH
 70
     1
  9
$DIMTOH
 70
     1
  9
$DIMSE1
 70
     0
  9
$DIMSE2
 70
     0
  9
$DIMTAD
 70
     0
  9
$DIMZIN
 70
     0
  9
$DIMBLK
  1

  9
$DIMASO
 70
     1
  9
$DIMSHO
 70
     1
  9
$DIMPOST
  1

  9
$DIMAPOST
  1

  9
$DIMALT
 70
     0
  9
$DIMALTD
 70
     2
  9
$DIMALTF
 40
25.4
  9
$DIMLFAC
 40
1.0
  9
$DIMTOFL
 70
     0
  9
$DIMTVP
 40
0.0
  9
$DIMTIX
 70
     0
  9
$DIMSOXD
 70
     0
  9
$DIMSAH
 70
     0
  9
$DIMBLK1
  1

  9
$DIMBLK2
  1

  9
$DIMSTYLE
  2
STANDARD
  9
$DIMCLRD
 70
     0
  9
$DIMCLRE
 70
     0
  9
$DIMCLRT
 70
     0
  9
$DIMTFAC
 40
1.0
  9
$DIMGAP
 40
0.09
  9
$LUNITS
 70
     2
  9
$LUPREC
 70
     4
  9
$SKETCHINC
 40
0.1
  9
$FILLETRAD
 40
3.0
  9
$AUNITS
 70
     0
  9
$AUPREC
 70
     0
  9
$MENU
  1
.
  9
$ELEVATION
 40
0.0
  9
$PELEVATION
 40
0.0
  9
$THICKNESS
 40
0.0
  9
$LIMCHECK
 70
     0
  9
$CHAMFERA
 40
0.0
  9
$CHAMFERB
 40
0.0
  9
$SKPOLY
 70
     0
  9
$TDCREATE
 40
2452643.146717593
  9
$TDUPDATE
 40
2457931.329199549
  9
$TDINDWG
 40
0.0049201852
  9
$TDUSRTIMER
 40
2457931.241849641
  9
$USRTIMER
 70
     1
  9
$ANGBASE
 50
0.0
  9
$ANGDIR
 70
     0
  9
$PDMODE
 70
     0
  9
$PDSIZE
 40
0.0
  9
$PLINEWID
 40
0.0
  9
$COORDS
 70
     1
  9
$SPLFRAME
 70
     0
  9
$SPLINETYPE
 70
     6
  9
$SPLINESEGS
 70
     8
  9
$ATTDIA
 70
     0
  9
$ATTREQ
 70
     1
  9
$HANDLING
 70
     1
  9
$HANDSEED
  5
5B0
  9
$SURFTAB1
 70
     6
  9
$SURFTAB2
 70
     6
  9
$SURFTYPE
 70
     6
  9
$SURFU
 70
     6
  9
$SURFV
 70
     6
  9
$UCSNAME
  2

  9
$UCSORG
 10
0.0
 20
0.0
 30
0.0
  9
$UCSXDIR
 10
1.0
 20
0.0
 30
0.0
  9
$UCSYDIR
 10
0.0
 20
1.0
 30
0.0
  9
$PUCSNAME
  2

  9
$PUCSORG
 10
0.0
 20
0.0
 30
0.0
  9
$PUCSXDIR
 10
1.0
 20
0.0
 30
0.0
  9
$PUCSYDIR
 10
0.0
 20
1.0
 30
0.0
  9
$USERI1
 70
     0
  9
$USERI2
 70
     0
  9
$USERI3
 70
     0
  9
$USERI4
 70
     0
  9
$USERI5
 70
     0
  9
$USERR1
 40
0.0
  9
$USERR2
 40
0.0
  9
$USERR3
 40
0.0
  9
$USERR4
 40
0.0
  9
$USERR5
 40
0.0
  9
$WORLDVIEW
 70
     1
  9
$SHADEDGE
 70
     3
  9
$SHADEDIF
 70
    70
  9
$TILEMODE
 70
     1
  9
$MAXACTVP
 70
    64
  9
$PLIMCHECK
 70
     0
  9
$PEXTMIN
 10
0.0
 20
0.0
 30
0.0
  9
$PEXTMAX
 10
0.0
 20
0.0
 30
0.0
  9
$PLIMMIN
 10
0.0
 20
0.0
  9
$PLIMMAX
 10
0.0
 20
0.0
  9
$UNITMODE
 70
     0
  9
$VISRETAIN
 70
     1
  9
$PLINEGEN
 70
     0
  9
$PSLTSCALE
 70
     1
  0
ENDSEC
  0
SECTION
  2
TABLES
  0
TABLE
  2
VPORT
 70
     1
  0
VPORT
  2
*ACTIVE
 70
     0
 10
0.0
 20
0.0
 11
1.0
 21
1.0
 12
597.5735225513439
 22
63.37083052392975
 13
0.0
 23
0.0
 14
0.5
 24
0.5
 15
0.5
 25
0.5
 16
0.0
 26
0.0
 36
1.0
 17
-27.66959356597977
 27
-19.53870295786197
 37
0.0
 40
162.0566400592555
 41
2.443537414965987
 42
50.0
 43
0.0
 44
0.0
 50
0.0
 51
0.0
 71
    16
 72
  1000
 73
     1
 74
     3
 75
     0
 76
     0
 77
     0
 78
     0
  0
ENDTAB
  0
TABLE
  2
LTYPE
 70
     2
  0
LTYPE
  2
CONTINUOUS
 70
     0
  3
Solid line
 72
    65
 73
     0
 40
0.0
  0
LTYPE
  2
CENTERX2
 70
     0
  3
Center (2x) ________  __  ________  __  _____
 72
    65
 73
     4
 40
20.32
 49
12.7
 49
-2.54
 49
2.54
 49
-2.54
  0
ENDTAB
  0
TABLE
  2
LAYER
 70
     1
  0
LAYER
  2
0
 70
     0
 62
     7
  6
CONTINUOUS
  0
ENDTAB
  0
TABLE
  2
STYLE
 70
     1
  0
STYLE
  2
STANDARD
 70
     0
 40
0.0
 41
1.0
 50
0.0
 71
     0
 42
0.2
  3
arial.ttf
  4

  0
ENDTAB
  0
TABLE
  2
VIEW
 70
     0
  0
ENDTAB
  0
TABLE
  2
UCS
 70
     0
  0
ENDTAB
  0
TABLE
  2
APPID
 70
     4
  0
APPID
  2
ACAD
 70
     0
  0
APPID
  2
AECBASE
 70
     0
  0
APPID
  2
AEC_2DSECTION_XDATA
 70
     0
  0
APPID
  2
AEC_MASSGROUP_XDADA
 70
     0
  0
ENDTAB
  0
TABLE
  2
DIMSTYLE
 70
     2
  0
DIMSTYLE
  2
STANDARD
 70
     0
  3

  4

  5

  6

  7

 40
1.0
 41
0.18
 42
0.0625
 43
0.38
 44
0.18
 45
0.0
 46
0.0
 47
0.0
 48
0.0
140
0.18
141
0.09
142
0.0
143
25.4
144
1.0
145
0.0
146
1.0
147
0.09
 71
     0
 72
     0
 73
     1
 74
     1
 75
     0
 76
     0
 77
     0
 78
     0
170
     0
171
     2
172
     0
173
     0
174
     0
175
     0
176
     0
177
     0
178
     0
  0
DIMSTYLE
  2
ISO-25
 70
     0
  3

  4

  5

  6

  7

 40
1.0
 41
2.5
 42
0.625
 43
3.75
 44
1.25
 45
0.0
 46
0.0
 47
0.0
 48
0.0
140
2.5
141
2.5
142
0.0
143
0.03937007874016
144
1.0
145
0.0
146
1.0
147
0.625
 71
     0
 72
     0
 73
     0
 74
     0
 75
     0
 76
     0
 77
     1
 78
     8
170
     0
171
     3
172
     1
173
     0
174
     0
175
     0
176
     0
177
     0
178
     0
  0
ENDTAB
  0
ENDSEC
  0
SECTION
  2
BLOCKS
  0
BLOCK
  8
0
  2
$MODEL_SPACE
 70
     0
 10
0.0
 20
0.0
 30
0.0
  3
$MODEL_SPACE
  1

  0
ENDBLK
  5
21
  8
0
  0
BLOCK
 67
     1
  8
0
  2
$PAPER_SPACE
 70
     0
 10
0.0
 20
0.0
 30
0.0
  3
$PAPER_SPACE
  1

  0
ENDBLK
  5
5B
 67
     1
  8
0
  0
ENDSEC
  0
SECTION
  2
ENTITIES
  0
CIRCLE
  5
1E8
  8
0
 10
130.5385068209647
 20
148.9277004981237
 30
0.0
 40
5.0
  0
LINE
  5
1E9
  8
0
 10
309.1678933911639
 20
96.0357027009237
 30
0.0
 11
318.2910923280419
 21
101.4274222447675
 31
0.0
  0
LINE
  5
1EB
  8
0
 10
359.4965729202644
 20
46.42770049812371
 30
0.0
 11
359.4965729202644
 21
3.927700498123707
 31
0.0
  0
LINE
  5
1EC
  8
0
 10
356.9965729202644
 20
48.92770049812371
 30
0.0
 11
256.8613507292643
 21
48.92770049812371
 31
0.0
  0
LINE
  5
1ED
  8
0
 10
5.538506820964731
 20
133.9277004981237
 30
0.0
 11
5.538506820964731
 21
48.92770049812371
 31
0.0
  0
LINE
  5
1EE
  8
0
 10
5.538506820964731
 20
133.9277004981237
 30
0.0
 11
65.73109983686427
 21
133.9277004981237
 31
0.0
  0
LINE
  5
1EF
  8
0
 10
171.3543875884656
 20
167.8766813987246
 30
0.0
 11
202.6316021088655
 21
100.505931209024
 31
0.0
  0
LINE
  5
1F0
  8
0
 10
220.7719935610652
 20
88.92770049812371
 30
0.0
 11
251.8613507292643
 21
88.92770049812371
 31
0.0
  0
ARC
  5
1F1
  8
0
 10
282.2103807310645
 20
143.5520316187254
 30
0.0
 40
54.63065991400374
 50
269.1278643082001
 51
299.5676097325987
  0
ARC
  5
1F2
  8
0
 10
65.73109983686427
 20
153.9277004981237
 30
0.0
 40
20.00000000000007
 50
270.0
 51
355.5882742142002
  0
ARC
  5
1F3
  8
0
 10
130.5385068209647
 20
148.9277004981237
 30
0.0
 40
45.0
 50
24.90332588700092
 51
175.5882742142012
  0
ARC
  5
1F4
  8
0
 10
220.7719935610652
 20
108.9277004981237
 30
0.0
 40
20.00000000000009
 50
204.9033258869946
 51
270.0
  0
ARC
  5
1F5
  8
0
 10
254.3613507292643
 20
88.92770049812371
 30
0.0
 40
2.5
 50
180.0
 51
0.0
  0
ARC
  5
1F6
  8
0
 10
359.4965729202644
 20
119.1875330463677
 30
0.0
 40
2.5
 50
199.3549160347229
 51
18.88783587957635
  0
ARC
  5
1F7
  8
0
 10
254.3613507292643
 20
48.92770049812371
 30
0.0
 40
2.5
 50
0.0
 51
180.0
  0
ARC
  5
1F8
  8
0
 10
359.4965729202644
 20
48.92770049812371
 30
0.0
 40
2.5
 50
270.0
 51
180.0
  0
LINE
  5
1FB
  8
0
 10
256.8613507292643
 20
88.92770049812371
 30
0.0
 11
281.3788446403645
 21
88.92770049812371
 31
0.0
  0
LINE
  5
1FC
  8
0
 10
251.8613507292643
 20
48.92770049812371
 30
0.0
 11
5.538506820964731
 21
48.92770049812371
 31
0.0
  0
CIRCLE
  5
1FD
  8
0
 10
400.3489359009035
 20
85.72771394836364
 30
0.0
 40
5.0
  0
ARC
  5
200
  8
0
 10
400.3489359009035
 20
85.72771394836364
 30
0.0
 40
94.60495548404997
 50
323.936984452066
 51
12.72306415996901
  0
ARC
  5
201
  8
0
 10
400.3489359009035
 20
85.72771394836364
 30
0.0
 40
109.60495548405
 50
323.936984452066
 51
12.72306415996813
  0
LINE
  5
203
  8
0
 10
491.9765957188439
 20
3.927700498123674
 30
0.0
 11
359.4965729202644
 21
3.927700498123707
 31
0.0
  0
ARC
  5
205
  8
0
 10
499.9468029183208
 20
108.215195354264
 30
0.0
 40
7.500000000000028
 50
12.72306415996255
 51
192.7230641599625
  0
LINE
  5
206
  8
0
 10
449.4515074352292
 20
135.9277004981254
 30
0.0
 11
502.0697388072596
 21
135.9277004981256
 31
0.0
  0
ARC
  5
207
  8
0
 10
482.8875230599533
 20
25.62111227943078
 30
0.0
 40
7.500000000000028
 50
143.9369844520656
 51
323.9369844520656
  0
ARC
  5
3FE
  8
0
 10
491.962357125003
 20
25.54824608717669
 30
0.0
 40
21.62055027759179
 50
270.0377331465565
 51
312.6499784393088
  0
ARC
  5
3FF
  8
0
 10
501.1424802206344
 20
107.9499465880413
 30
0.0
 40
27.99311562401916
 50
15.82491510398137
 51
88.10175742183438
  0
LINE
  5
402
  8
0
 10
519.2104987104416
 20
105.0530023136538
 30
0.0
 11
519.6779288721895
 21
102.0010187807441
 31
0.0
  0
LINE
  5
404
  8
0
 10
520.7433064606544
 20
88.3225976545706
 30
0.0
 11
520.781433611846
 21
85.2352621105122
 31
0.0
  0
LINE
  5
407
  8
0
 10
519.9327747344887
 20
71.54168653578246
 30
0.0
 11
519.5408567734949
 21
68.47909045514852
 31
0.0
  0
LINE
  5
40A
  8
0
 10
516.7946796100275
 20
55.03689030421306
 30
0.0
 11
515.9803447741591
 21
52.05864363606158
 31
0.0
  0
LINE
  5
40D
  8
0
 10
511.3901005393386
 20
39.12945604458268
 30
0.0
 11
510.1691989298837
 21
36.29352697260389
 31
0.0
  0
LINE
  5
410
  8
0
 10
503.8242315064155
 20
24.12900387031678
 30
0.0
 11
502.2205265844469
 21
21.49059052807529
 31
0.0
  0
ARC
  5
430
  8
0
 10
459.9528556285689
 20
-170.5632488181687
 30
0.0
 40
306.670801229398
 50
91.96236673984286
 51
108.6542958020053
  0
ARC
  5
432
  8
0
 10
459.9528556285689
 20
-170.5632488181687
 30
0.0
 40
306.670801229398
 50
109.5884561122948
 51
117.5119952426289
  0
LINE
  5
586
  8
0
 10
521.7339516743987
 20
108.4744403424861
 30
0.0
 11
526.1896895611717
 21
109.1381146688159
 31
0.0
  0
LINE
  5
587
  8
0
 10
523.0892197788792
 20
99.48850970527408
 30
0.0
 11
527.5253131169837
 21
100.1552197184052
 31
0.0
  0
LINE
  5
588
  8
0
 10
523.7183734940477
 20
91.35954170958047
 30
0.0
 11
528.2160330080613
 21
91.39658003160709
 31
0.0
  0
LINE
  5
589
  8
0
 10
523.8098523907058
 20
82.27244466688998
 30
0.0
 11
528.2955620733567
 21
82.31528143799169
 31
0.0
  0
LINE
  5
58A
  8
0
 10
523.3015495416017
 20
74.13502595541173
 30
0.0
 11
527.7605928805318
 21
73.5457506014067
 31
0.0
  0
LINE
  5
58B
  8
0
 10
522.1274586977696
 20
65.12363251475915
 30
0.0
 11
526.5754754884131
 21
64.54176227480804
 31
0.0
  0
LINE
  5
58C
  8
0
 10
520.4915928211644
 20
57.13614868653877
 30
0.0
 11
524.8252297785057
 21
55.93202923097694
 31
0.0
  0
LINE
  5
58D
  8
0
 10
518.074784579609
 20
48.37585537093818
 30
0.0
 11
522.398532890959
 21
47.18060356228732
 31
0.0
  0
LINE
  5
58E
  8
0
 10
515.3431959440211
 20
40.69377371306379
 30
0.0
 11
519.4670772058375
 21
38.89824697148214
 31
0.0
  0
LINE
  5
58F
  8
0
 10
511.7307107280855
 20
32.35508966721737
 30
0.0
 11
515.8460337174527
 21
30.56972050674346
 31
0.0
  0
LINE
  5
590
  8
0
 10
507.9565665991707
 20
25.12793316092116
 30
0.0
 11
511.7904255075465
 21
22.77594701896312
 31
0.0
  0
LINE
  5
591
  8
0
 10
503.2187173244417
 20
17.37316138466898
 30
0.0
 11
506.6652991815877
 21
15.26499151330886
 31
0.0
  0
ARC
  5
592
  8
0
 10
528.119805103366
 20
96.19964399821889
 30
0.0
 40
4.0
 50
4.685413418909808
 51
98.5471356287323
  0
ARC
  5
593
  8
0
 10
528.1830940396156
 20
95.39644440735255
 30
0.0
 40
4.0
 50
270.4718213009098
 51
4.325328207201762
  0
ARC
  5
594
  8
0
 10
524.6191947282634
 20
113.0957765997521
 30
0.0
 40
4.25787998653934
 50
291.6443609288689
 51
35.75314467451675
  0
ARC
  5
595
  8
0
 10
528.3337587655329
 20
78.31546381556102
 30
0.0
 40
4.0
 50
356.6854134189107
 51
90.5471356287291
  0
ARC
  5
596
  8
0
 10
528.2846480004549
 20
77.5112727903854
 30
0.0
 40
4.0
 50
262.4718213009101
 51
356.3253282072017
  0
ARC
  5
597
  8
0
 10
526.0566334312185
 20
60.57555465042854
 30
0.0
 40
4.0
 50
348.68541341891
 51
82.54713562873118
  0
ARC
  5
598
  8
0
 10
525.8960788499923
 20
59.78602485449504
 30
0.0
 40
4.0
 50
254.4718213009088
 51
348.3253282072016
  0
ARC
  5
599
  8
0
 10
521.3327507548626
 20
43.32520365587324
 30
0.0
 40
4.0
 50
340.6854134189115
 51
74.5471356287288
  0
ARC
  5
59A
  8
0
 10
521.0638773697839
 20
42.56570238858284
 30
0.0
 40
4.0
 50
246.4718213009073
 51
340.3253282072006
  0
ARC
  5
59B
  8
0
 10
514.2540557394244
 20
26.90016929202069
 30
0.0
 40
4.0
 50
332.6854134189116
 51
66.5471356287298
  0
ARC
  5
59C
  8
0
 10
513.8820968650945
 20
26.18547938162133
 30
0.0
 40
4.0
 50
238.4718213009089
 51
332.3253282072001
  0
ARC
  5
59D
  8
0
 10
505.5569708041385
 20
12.46610371889772
 30
0.0
 40
3.010342950223977
 50
290.4888180183468
 51
68.39698619206027
  0
ARC
  5
59F
  8
0
 10
506.3878130810098
 20
22.57078388892752
 30
0.0
 40
2.999999999999998
 50
58.4718213009096
 51
148.7075401337052
  0
ARC
  5
5A0
  8
0
 10
504.7841081590412
 20
19.93237054668601
 30
0.0
 40
3.0
 50
148.7075401337051
 51
238.547135628728
  0
ARC
  5
5A1
  8
0
 10
512.9246942116066
 20
35.10725307825945
 30
0.0
 40
3.0
 50
156.7075401337065
 51
246.547135628731
  0
ARC
  5
5A2
  8
0
 10
514.1455958210614
 20
37.94318215023823
 30
0.0
 40
2.999999999999998
 50
66.47182130091075
 51
156.7075401337064
  0
ARC
  5
5A3
  8
0
 10
518.8741211816812
 20
51.26740530074876
 30
0.0
 40
3.000000000000001
 50
164.7075401337063
 51
254.54713562873
  0
ARC
  5
5A4
  8
0
 10
519.6884560175496
 20
54.24565196890021
 30
0.0
 40
2.999999999999999
 50
74.47182130091075
 51
164.7075401337057
  0
ARC
  5
5A5
  8
0
 10
522.5165902406657
 20
68.09828823304377
 30
0.0
 40
2.999999999999999
 50
172.7075401337035
 51
262.5471356287302
  0
ARC
  5
5A6
  8
0
 10
522.9085082016594
 20
71.16088431367771
 30
0.0
 40
3.000000000000001
 50
82.4718213009102
 51
172.7075401337034
  0
ARC
  5
5A7
  8
0
 10
523.7812048715737
 20
85.27230788371297
 30
0.0
 40
3.000000000000001
 50
180.7075401337061
 51
270.5471356287302
  0
ARC
  5
5A8
  8
0
 10
523.743077720382
 20
88.35964342777136
 30
0.0
 40
3.0
 50
90.47182130090995
 51
180.7075401337058
  0
ARC
  5
5A9
  8
0
 10
522.6433507890926
 20
102.4551914954138
 30
0.0
 40
2.999999999999999
 50
188.707540133705
 51
278.54713562873
  0
ARC
  5
5AA
  8
0
 10
522.1759206273447
 20
105.5071750283236
 30
0.0
 40
3.0
 50
98.47182130091038
 51
188.7075401337056
  0
LINE
  5
5AB
  8
0
 10
532.1064379623367
 20
96.5263831109304
 30
0.0
 11
532.1717016034188
 21
95.69812255036695
 31
0.0
  0
LINE
  5
5AC
  8
0
 10
532.3270672830885
 20
78.084191068316
 30
0.0
 11
532.2764241922854
 21
77.25490813928256
 31
0.0
  0
LINE
  5
5AD
  8
0
 10
529.9788923993859
 20
59.79077150418316
 30
0.0
 11
529.8133282868544
 21
58.97660725559819
 31
0.0
  0
LINE
  5
5AE
  8
0
 10
525.1076178643298
 20
42.00218502189172
 30
0.0
 11
524.8303552471941
 21
41.2189862347556
 31
0.0
  0
LINE
  5
5AF
  8
0
 10
517.8080574957535
 20
25.06466622310199
 30
0.0
 11
517.4244929754742
 21
24.32767697093105
 31
0.0
  0
ENDSEC
  0
EOF
