  0
SECTION
  2
HEADER
  9
$ACADVER
  1
AC1009
  9
$INSBASE
 10
0.0
 20
0.0
 30
0.0
  9
$EXTMIN
 10
-286.61340880843022
 20
8.6765718882015062
 30
0.0
  9
$EXTMAX
 10
526.26054667088022
 20
1508.676571888202
 30
0.0
  9
$LIMMIN
 10
0.0
 20
0.0
  9
$LIMMAX
 10
12.0
 20
9.0
  9
$ORTHOMODE
 70
     1
  9
$REGENMODE
 70
     1
  9
$FILLMODE
 70
     1
  9
$QTEXTMODE
 70
     0
  9
$MIRRTEXT
 70
     0
  9
$DRAGMODE
 70
     2
  9
$LTSCALE
 40
1.0
  9
$OSMODE
 70
  3071
  9
$ATTMODE
 70
     1
  9
$TEXTSIZE
 40
0.2
  9
$TRACEWID
 40
0.05
  9
$TEXTSTYLE
  7
STANDARD
  9
$CLAYER
  8
0
  9
$CELTYPE
  6
BYLAYER
  9
$CECOLOR
 62
   256
  9
$DIMSCALE
 40
1.0
  9
$DIMASZ
 40
0.18
  9
$DIMEXO
 40
0.0625
  9
$DIMDLI
 40
0.38
  9
$DIMRND
 40
0.0
  9
$DIMDLE
 40
0.0
  9
$DIMEXE
 40
0.18
  9
$DIMTP
 40
0.0
  9
$DIMTM
 40
0.0
  9
$DIMTXT
 40
0.18
  9
$DIMCEN
 40
0.09
  9
$DIMTSZ
 40
0.0
  9
$DIMTOL
 70
     0
  9
$DIMLIM
 70
     0
  9
$DIMTIH
 70
     1
  9
$DIMTOH
 70
     1
  9
$DIMSE1
 70
     0
  9
$DIMSE2
 70
     0
  9
$DIMTAD
 70
     0
  9
$DIMZIN
 70
     0
  9
$DIMBLK
  1

  9
$DIMASO
 70
     1
  9
$DIMSHO
 70
     1
  9
$DIMPOST
  1

  9
$DIMAPOST
  1

  9
$DIMALT
 70
     0
  9
$DIMALTD
 70
     2
  9
$DIMALTF
 40
25.399999999999999
  9
$DIMLFAC
 40
1.0
  9
$DIMTOFL
 70
     0
  9
$DIMTVP
 40
0.0
  9
$DIMTIX
 70
     0
  9
$DIMSOXD
 70
     0
  9
$DIMSAH
 70
     0
  9
$DIMBLK1
  1

  9
$DIMBLK2
  1

  9
$DIMSTYLE
  2
STANDARD
  9
$DIMCLRD
 70
     0
  9
$DIMCLRE
 70
     0
  9
$DIMCLRT
 70
     0
  9
$DIMTFAC
 40
1.0
  9
$DIMGAP
 40
0.09
  9
$LUNITS
 70
     2
  9
$LUPREC
 70
     4
  9
$SKETCHINC
 40
0.1
  9
$FILLETRAD
 40
0.0
  9
$AUNITS
 70
     0
  9
$AUPREC
 70
     0
  9
$MENU
  1
.
  9
$ELEVATION
 40
0.0
  9
$PELEVATION
 40
0.0
  9
$THICKNESS
 40
0.0
  9
$LIMCHECK
 70
     0
  9
$BLIPMODE
 70
     0
  9
$CHAMFERA
 40
0.0
  9
$CHAMFERB
 40
0.0
  9
$SKPOLY
 70
     0
  9
$TDCREATE
 40
2456004.4642095258
  9
$TDUPDATE
 40
2456014.6817809609
  9
$TDINDWG
 40
0.001001331
  9
$TDUSRTIMER
 40
0.0010009606
  9
$USRTIMER
 70
     1
  9
$ANGBASE
 50
0.0
  9
$ANGDIR
 70
     0
  9
$PDMODE
 70
     0
  9
$PDSIZE
 40
0.0
  9
$PLINEWID
 40
0.0
  9
$COORDS
 70
     0
  9
$SPLFRAME
 70
     0
  9
$SPLINETYPE
 70
     6
  9
$SPLINESEGS
 70
     8
  9
$ATTDIA
 70
     0
  9
$ATTREQ
 70
     1
  9
$HANDLING
 70
     1
  9
$HANDSEED
  5
3D1
  9
$SURFTAB1
 70
     6
  9
$SURFTAB2
 70
     6
  9
$SURFTYPE
 70
     6
  9
$SURFU
 70
     6
  9
$SURFV
 70
     6
  9
$UCSNAME
  2

  9
$UCSORG
 10
0.0
 20
0.0
 30
0.0
  9
$UCSXDIR
 10
1.0
 20
0.0
 30
0.0
  9
$UCSYDIR
 10
0.0
 20
1.0
 30
0.0
  9
$PUCSNAME
  2

  9
$PUCSORG
 10
0.0
 20
0.0
 30
0.0
  9
$PUCSXDIR
 10
1.0
 20
0.0
 30
0.0
  9
$PUCSYDIR
 10
0.0
 20
1.0
 30
0.0
  9
$USERI1
 70
     0
  9
$USERI2
 70
     0
  9
$USERI3
 70
     0
  9
$USERI4
 70
     0
  9
$USERI5
 70
     0
  9
$USERR1
 40
0.0
  9
$USERR2
 40
0.0
  9
$USERR3
 40
0.0
  9
$USERR4
 40
0.0
  9
$USERR5
 40
0.0
  9
$WORLDVIEW
 70
     1
  9
$SHADEDGE
 70
     3
  9
$SHADEDIF
 70
    70
  9
$TILEMODE
 70
     1
  9
$MAXACTVP
 70
    64
  9
$PLIMCHECK
 70
     0
  9
$PEXTMIN
 10
0.0
 20
0.0
 30
0.0
  9
$PEXTMAX
 10
0.0
 20
0.0
 30
0.0
  9
$PLIMMIN
 10
0.0
 20
0.0
  9
$PLIMMAX
 10
12.0
 20
9.0
  9
$UNITMODE
 70
     0
  9
$VISRETAIN
 70
     1
  9
$PLINEGEN
 70
     0
  9
$PSLTSCALE
 70
     1
  0
ENDSEC
  0
SECTION
  2
TABLES
  0
TABLE
  2
VPORT
 70
     1
  0
VPORT
  2
*ACTIVE
 70
     0
 10
0.0
 20
0.0
 11
1.0
 21
1.0
 12
1783.5771936499291
 22
383.91082817353049
 13
0.0
 23
0.0
 14
0.5
 24
0.5
 15
0.5
 25
0.5
 16
0.0
 26
0.0
 36
1.0
 17
0.0
 27
0.0
 37
0.0
 40
4748.8453218530349
 41
2.7925531914893611
 42
50.0
 43
0.0
 44
0.0
 50
0.0
 51
0.0
 71
     0
 72
  1000
 73
     1
 74
     3
 75
     0
 76
     0
 77
     0
 78
     0
  0
ENDTAB
  0
TABLE
  2
LTYPE
 70
     1
  0
LTYPE
  2
CONTINUOUS
 70
     0
  3
Solid line
 72
    65
 73
     0
 40
0.0
  0
ENDTAB
  0
TABLE
  2
LAYER
 70
     1
  0
LAYER
  2
0
 70
     0
 62
     7
  6
CONTINUOUS
  0
ENDTAB
  0
TABLE
  2
STYLE
 70
     4
  0
STYLE
  2
STANDARD
 70
     0
 40
0.0
 41
1.0
 50
0.0
 71
     0
 42
0.2
  3
txt.shx
  4

  0
STYLE
  2
ANNOTATIVE
 70
     0
 40
0.0
 41
1.0
 50
0.0
 71
     0
 42
0.2
  3
txt
  4

  0
STYLE
  2
ANNOTATIVA
 70
     0
 40
0.0
 41
1.0
 50
0.0
 71
     0
 42
0.2
  3
txt.shx
  4

  0
STYLE
  2
STILE1
 70
     0
 40
100.0
 41
1.0
 50
0.0
 71
     0
 42
100.0
  3
txt
  4

  0
ENDTAB
  0
TABLE
  2
VIEW
 70
     0
  0
ENDTAB
  0
TABLE
  2
UCS
 70
     0
  0
ENDTAB
  0
TABLE
  2
APPID
 70
     8
  0
APPID
  2
ACAD
 70
     0
  0
APPID
  2
ACADANNOTATIVE
 70
     0
  0
APPID
  2
ACAD_MLEADERVER
 70
     0
  0
APPID
  2
ACADANNOPO
 70
     0
  0
APPID
  2
ACAD_DSTYLE_DIMJAG
 70
     0
  0
APPID
  2
ACAD_DSTYLE_DIMTALN
 70
     0
  0
APPID
  2
ACAD_PSEXT
 70
     0
  0
APPID
  2
ACAD_DSTYLE_DIMBREAK
 70
     0
  0
ENDTAB
  0
TABLE
  2
DIMSTYLE
 70
     5
  0
DIMSTYLE
  2
STANDARD
 70
     0
  3

  4

  5

  6

  7

 40
1.0
 41
0.18
 42
0.0625
 43
0.38
 44
0.18
 45
0.0
 46
0.0
 47
0.0
 48
0.0
140
0.18
141
0.09
142
0.0
143
25.399999999999999
144
1.0
145
0.0
146
1.0
147
0.09
 71
     0
 72
     0
 73
     1
 74
     1
 75
     0
 76
     0
 77
     0
 78
     0
170
     0
171
     2
172
     0
173
     0
174
     0
175
     0
176
     0
177
     0
178
     0
  0
DIMSTYLE
  2
ANNOTATIVE
 70
     0
  3

  4

  5

  6

  7

 40
1.0
 41
0.18
 42
0.0625
 43
0.38
 44
0.18
 45
0.0
 46
0.0
 47
0.0
 48
0.0
140
0.18
141
0.09
142
0.0
143
25.399999999999999
144
1.0
145
0.0
146
1.0
147
0.09
 71
     0
 72
     0
 73
     1
 74
     1
 75
     0
 76
     0
 77
     0
 78
     0
170
     0
171
     2
172
     0
173
     0
174
     0
175
     0
176
     0
177
     0
178
     0
  0
DIMSTYLE
  2
ANNOTATIVA
 70
     0
  3

  4

  5

  6

  7

 40
0.0
 41
0.18
 42
0.0625
 43
0.38
 44
0.18
 45
0.0
 46
0.0
 47
0.0
 48
0.0
140
0.18
141
0.09
142
0.0
143
25.399999999999999
144
1.0
145
0.0
146
1.0
147
0.09
 71
     0
 72
     0
 73
     1
 74
     1
 75
     0
 76
     0
 77
     0
 78
     0
170
     0
171
     2
172
     0
173
     0
174
     0
175
     0
176
     0
177
     0
178
     0
  0
DIMSTYLE
  2
ISO-25
 70
     0
  3

  4

  5

  6

  7

 40
1.0
 41
2.5
 42
0.625
 43
3.75
 44
1.25
 45
0.0
 46
0.0
 47
0.0
 48
0.0
140
2.5
141
2.5
142
0.0
143
0.03937007874016
144
1.0
145
0.0
146
1.0
147
0.625
 71
     0
 72
     0
 73
     0
 74
     0
 75
     0
 76
     0
 77
     1
 78
     8
170
     0
171
     3
172
     1
173
     0
174
     0
175
     0
176
     0
177
     0
178
     0
  0
DIMSTYLE
  2
NOSTRE_QUOTE
 70
     0
  3

  4

  5

  6

  7

 40
1.0
 41
20.0
 42
5.0
 43
3.75
 44
5.0
 45
0.0
 46
0.0
 47
0.0
 48
0.0
140
40.0
141
2.5
142
0.0
143
0.03937007874016
144
1.0
145
0.0
146
1.0
147
10.0
 71
     0
 72
     0
 73
     0
 74
     0
 75
     0
 76
     0
 77
     1
 78
     8
170
     0
171
     3
172
     1
173
     0
174
     0
175
     0
176
     0
177
     0
178
     0
  0
ENDTAB
  0
ENDSEC
  0
SECTION
  2
BLOCKS
  0
BLOCK
  8
0
  2
$MODEL_SPACE
 70
     0
 10
0.0
 20
0.0
 30
0.0
  3
$MODEL_SPACE
  1

  0
ENDBLK
  5
391
  8
0
  0
BLOCK
 67
     1
  8
0
  2
$PAPER_SPACE
 70
     0
 10
0.0
 20
0.0
 30
0.0
  3
$PAPER_SPACE
  1

  0
ENDBLK
  5
38D
 67
     1
  8
0
  0
BLOCK
  8
0
  2
*U2
 70
     1
 10
0.0
 20
0.0
 30
0.0
  3
*U2
  1

  0
TEXT
  5
1D3
  8
0
 10
85.210893488962014
 20
1285.7802318899189
 30
0.0
 40
100.0
  1
SX
  0
ENDBLK
  5
1D5
  8
0
  0
ENDSEC
  0
SECTION
  2
ENTITIES
  0
CIRCLE
  5
18A
  8
0
 10
445.69417605647971
 20
327.67657188820141
 30
0.0
 40
6.0000000000000231
  0
CIRCLE
  5
18B
  8
0
 10
445.69417605647971
 20
397.67657188820152
 30
0.0
 40
6.0000000000000231
  0
CIRCLE
  5
18C
  8
0
 10
375.69417605647971
 20
327.67657188820141
 30
0.0
 40
6.0000000000000124
  0
CIRCLE
  5
18D
  8
0
 10
375.69417605647971
 20
397.67657188820152
 30
0.0
 40
6.0000000000000124
  0
CIRCLE
  5
18E
  8
0
 10
460.69417605647959
 20
88.676571888201508
 30
0.0
 40
6.9999999999999831
  0
CIRCLE
  5
18F
  8
0
 10
460.69417605647959
 20
188.67657188820149
 30
0.0
 40
6.9999999999999503
  0
CIRCLE
  5
190
  8
0
 10
360.69417605647971
 20
88.676571888201508
 30
0.0
 40
6.9999999999999432
  0
CIRCLE
  5
191
  8
0
 10
360.69417605647971
 20
188.67657188820149
 30
0.0
 40
6.999999999999968
  0
CIRCLE
  5
192
  8
0
 10
511.26054667088022
 20
629.67657188820135
 30
0.0
 40
9.0000000000001048
  0
CIRCLE
  5
193
  8
0
 10
511.26054667088022
 20
849.67657188820147
 30
0.0
 40
9.0000000000001048
  0
CIRCLE
  5
194
  8
0
 10
511.26054667088022
 20
1069.6765718882009
 30
0.0
 40
9.0000000000004121
  0
CIRCLE
  5
195
  8
0
 10
511.26054667088022
 20
409.67657188820152
 30
0.0
 40
9.0000000000000533
  0
CIRCLE
  5
196
  8
0
 10
511.26054667088022
 20
64.676571888201508
 30
0.0
 40
9.0000000000000355
  0
LINE
  5
197
  8
0
 10
526.26054667088022
 20
8.6765718882015062
 30
0.0
 11
488.97736136367791
 21
8.6765718882015062
 31
0.0
  0
LINE
  5
198
  8
0
 10
526.26054667088022
 20
1368.6765718882009
 30
0.0
 11
488.14967247334693
 21
1368.6765718882009
 31
0.0
  0
LINE
  5
199
  8
0
 10
481.39741101406889
 20
1376.7020360213501
 30
0.0
 11
233.26054667088019
 21
1508.676571888202
 31
0.0
  0
LINE
  5
19A
  8
0
 10
31.561434827780548
 20
1508.676571888202
 30
0.0
 11
74.844620134978982
 21
1508.676571888202
 31
0.0
  0
LINE
  5
19B
  8
0
 10
31.561434827780548
 20
1508.676571888202
 30
0.0
 11
31.561434827780548
 21
234.17657188820149
 31
0.0
  0
LINE
  5
19C
  8
0
 10
482.97736136367791
 20
8.6765718882015062
 30
0.0
 11
485.97736136368172
 21
18.676571888201511
 31
0.0
  0
LINE
  5
19D
  8
0
 10
485.97736136368172
 20
18.676571888201511
 30
0.0
 11
488.97736136368172
 21
8.6765718882015062
 31
0.0
  0
LINE
  5
19E
  8
0
 10
178.97736136368181
 20
8.6765718882015062
 30
0.0
 11
181.97736136368181
 21
18.676571888201511
 31
0.0
  0
LINE
  5
19F
  8
0
 10
181.97736136368181
 20
18.676571888201511
 30
0.0
 11
184.97736136368181
 21
8.6765718882015062
 31
0.0
  0
LINE
  5
1A0
  8
0
 10
137.41099074937949
 20
8.6765718882015062
 30
0.0
 11
140.41099074937949
 21
18.676571888201511
 31
0.0
  0
LINE
  5
1A1
  8
0
 10
140.41099074937949
 20
18.676571888201511
 30
0.0
 11
143.41099074937941
 21
8.6765718882015062
 31
0.0
  0
LINE
  5
1A2
  8
0
 10
74.844620134978982
 20
8.6765718882015062
 30
0.0
 11
77.844620134978982
 21
18.676571888201511
 31
0.0
  0
LINE
  5
1A3
  8
0
 10
77.844620134978982
 20
18.676571888201511
 30
0.0
 11
80.844620134978982
 21
8.6765718882015062
 31
0.0
  0
LINE
  5
1A4
  8
0
 10
481.39741101406889
 20
1376.7020360213501
 30
0.0
 11
485.97736136368172
 21
1361.4355348559759
 31
0.0
  0
LINE
  5
1A5
  8
0
 10
485.97736136368172
 20
1361.4355348559759
 30
0.0
 11
488.14967247334693
 21
1368.6765718882009
 31
0.0
  0
LINE
  5
1A6
  8
0
 10
178.97736136368181
 20
1508.676571888202
 30
0.0
 11
181.97736136368181
 21
1498.6765718882
 31
0.0
  0
LINE
  5
1A7
  8
0
 10
181.97736136368181
 20
1498.6765718882
 30
0.0
 11
184.97736136368181
 21
1508.676571888202
 31
0.0
  0
LINE
  5
1A8
  8
0
 10
137.41099074937949
 20
1508.676571888202
 30
0.0
 11
140.41099074937949
 21
1498.6765718882
 31
0.0
  0
LINE
  5
1A9
  8
0
 10
140.41099074937949
 20
1498.6765718882
 30
0.0
 11
143.41099074937941
 21
1508.676571888202
 31
0.0
  0
LINE
  5
1AA
  8
0
 10
74.844620134978982
 20
1508.676571888202
 30
0.0
 11
77.844620134978982
 21
1498.6765718882
 31
0.0
  0
LINE
  5
1AB
  8
0
 10
77.844620134978982
 20
1498.6765718882
 30
0.0
 11
80.844620134978982
 21
1508.676571888202
 31
0.0
  0
LINE
  5
1AC
  8
0
 10
526.26054667088022
 20
8.6765718882015062
 30
0.0
 11
526.26054667088022
 21
1368.6765718882009
 31
0.0
  0
LINE
  5
1AD
  8
0
 10
184.97736136368181
 20
1508.6765718881941
 30
0.0
 11
233.26054667088019
 21
1508.676571888202
 31
0.0
  0
LINE
  5
1AE
  8
0
 10
143.41099074937941
 20
1508.676571888202
 30
0.0
 11
178.97736136368181
 21
1508.676571888202
 31
0.0
  0
LINE
  5
1AF
  8
0
 10
80.844620134978982
 20
1508.676571888202
 30
0.0
 11
137.41099074937949
 21
1508.676571888202
 31
0.0
  0
LINE
  5
1B0
  8
0
 10
31.561434827780548
 20
8.6765718882015062
 30
0.0
 11
74.844620134978982
 21
8.6765718882015062
 31
0.0
  0
LINE
  5
1B1
  8
0
 10
80.844620134978982
 20
8.6765718882015062
 30
0.0
 11
137.41099074937949
 21
8.6765718882015062
 31
0.0
  0
LINE
  5
1B2
  8
0
 10
143.41099074937941
 20
8.6765718882015062
 30
0.0
 11
178.97736136368181
 21
8.6765718882015062
 31
0.0
  0
LINE
  5
1B3
  8
0
 10
184.97736136368181
 20
8.6765718882015062
 30
0.0
 11
482.97736136367791
 21
8.6765718882015062
 31
0.0
  0
CIRCLE
  5
1B4
  8
0
 10
410.69417605647959
 20
138.67657188820149
 30
0.0
 40
51.000000000000021
  0
CIRCLE
  5
1B5
  8
0
 10
410.69417605647959
 20
362.67657188820152
 30
0.0
 40
36.000000000000149
  0
CIRCLE
  5
1B6
  8
0
 10
362.47736136368172
 20
215.67657188820149
 30
0.0
 40
6.0
  0
LINE
  5
3B2
  8
0
 10
31.561434827780548
 20
234.17657188820149
 30
0.0
 11
39.561434827780552
 21
231.67657188820149
 31
0.0
  0
LINE
  5
3B3
  8
0
 10
39.561434827780552
 20
231.67657188820149
 30
0.0
 11
31.561434827780548
 21
229.17657188820149
 31
0.0
  0
LINE
  5
3B6
  8
0
 10
31.561434827780548
 20
229.17657188820149
 30
0.0
 11
31.561434827780548
 21
8.6765718882015062
 31
0.0
  0
ENDSEC
  0
EOF
