  0
SECTION
  2
HEADER
  9
$ACADVER
  1
AC1009
  9
$DWGCODEPAGE
  3
ansi_1252
  9
$INSBASE
 10
0.0
 20
0.0
 30
0.0
  9
$EXTMIN
 10
-4185.163164533361
 20
2153.961927030188
 30
0.0
  9
$EXTMAX
 10
-1324.669344146929
 20
2495.961927030246
 30
63.66880011389556
  9
$LIMMIN
 10
0.0
 20
0.0
  9
$LIMMAX
 10
420.0
 20
297.0
  9
$ORTHOMODE
 70
     1
  9
$REGENMODE
 70
     1
  9
$FILLMODE
 70
     1
  9
$QTEXTMODE
 70
     0
  9
$MIRRTEXT
 70
     0
  9
$DRAGMODE
 70
     2
  9
$LTSCALE
 40
1.0
  9
$OSMODE
 70
  1023
  9
$ATTMODE
 70
     1
  9
$TEXTSIZE
 40
2.5
  9
$TRACEWID
 40
1.0
  9
$TEXTSTYLE
  7
STANDARD
  9
$CLAYER
  8
NASCOSTI
  9
$CELTYPE
  6
BYLAYER
  9
$CECOLOR
 62
   256
  9
$DIMSCALE
 40
1.0
  9
$DIMASZ
 40
20.0
  9
$DIMEXO
 40
5.0
  9
$DIMDLI
 40
3.75
  9
$DIMRND
 40
0.0
  9
$DIMDLE
 40
0.0
  9
$DIMEXE
 40
5.0
  9
$DIMTP
 40
0.0
  9
$DIMTM
 40
0.0
  9
$DIMTXT
 40
40.0
  9
$DIMCEN
 40
2.5
  9
$DIMTSZ
 40
0.0
  9
$DIMTOL
 70
     0
  9
$DIMLIM
 70
     0
  9
$DIMTIH
 70
     0
  9
$DIMTOH
 70
     0
  9
$DIMSE1
 70
     0
  9
$DIMSE2
 70
     0
  9
$DIMTAD
 70
     1
  9
$DIMZIN
 70
     8
  9
$DIMBLK
  1

  9
$DIMASO
 70
     1
  9
$DIMSHO
 70
     1
  9
$DIMPOST
  1

  9
$DIMAPOST
  1

  9
$DIMALT
 70
     0
  9
$DIMALTD
 70
     3
  9
$DIMALTF
 40
0.03937007874016
  9
$DIMLFAC
 40
1.0
  9
$DIMTOFL
 70
     1
  9
$DIMTVP
 40
0.0
  9
$DIMTIX
 70
     0
  9
$DIMSOXD
 70
     0
  9
$DIMSAH
 70
     0
  9
$DIMBLK1
  1

  9
$DIMBLK2
  1

  9
$DIMSTYLE
  2
NOSTRE_QUOTE
  9
$DIMCLRD
 70
     0
  9
$DIMCLRE
 70
     0
  9
$DIMCLRT
 70
     0
  9
$DIMTFAC
 40
1.0
  9
$DIMGAP
 40
10.0
  9
$LUNITS
 70
     2
  9
$LUPREC
 70
     4
  9
$SKETCHINC
 40
1.0
  9
$FILLETRAD
 40
0.0
  9
$AUNITS
 70
     0
  9
$AUPREC
 70
     0
  9
$MENU
  1
.
  9
$ELEVATION
 40
0.0
  9
$PELEVATION
 40
0.0
  9
$THICKNESS
 40
0.0
  9
$LIMCHECK
 70
     0
  9
$CHAMFERA
 40
15.0
  9
$CHAMFERB
 40
15.0
  9
$SKPOLY
 70
     0
  9
$TDCREATE
 40
2456000.434301563
  9
$TDUPDATE
 40
2457703.543499919
  9
$TDINDWG
 40
0.0018643287
  9
$TDUSRTIMER
 40
2457703.501608299
  9
$USRTIMER
 70
     1
  9
$ANGBASE
 50
0.0
  9
$ANGDIR
 70
     0
  9
$PDMODE
 70
     0
  9
$PDSIZE
 40
0.0
  9
$PLINEWID
 40
0.0
  9
$COORDS
 70
     1
  9
$SPLFRAME
 70
     0
  9
$SPLINETYPE
 70
     6
  9
$SPLINESEGS
 70
     8
  9
$ATTDIA
 70
     0
  9
$ATTREQ
 70
     1
  9
$HANDLING
 70
     1
  9
$HANDSEED
  5
691
  9
$SURFTAB1
 70
     6
  9
$SURFTAB2
 70
     6
  9
$SURFTYPE
 70
     6
  9
$SURFU
 70
     6
  9
$SURFV
 70
     6
  9
$UCSNAME
  2

  9
$UCSORG
 10
0.0
 20
0.0
 30
0.0
  9
$UCSXDIR
 10
1.0
 20
0.0
 30
0.0
  9
$UCSYDIR
 10
0.0
 20
1.0
 30
0.0
  9
$PUCSNAME
  2

  9
$PUCSORG
 10
0.0
 20
0.0
 30
0.0
  9
$PUCSXDIR
 10
1.0
 20
0.0
 30
0.0
  9
$PUCSYDIR
 10
0.0
 20
1.0
 30
0.0
  9
$USERI1
 70
     0
  9
$USERI2
 70
     0
  9
$USERI3
 70
     0
  9
$USERI4
 70
     0
  9
$USERI5
 70
     0
  9
$USERR1
 40
0.0
  9
$USERR2
 40
0.0
  9
$USERR3
 40
0.0
  9
$USERR4
 40
0.0
  9
$USERR5
 40
0.0
  9
$WORLDVIEW
 70
     1
  9
$SHADEDGE
 70
     3
  9
$SHADEDIF
 70
    70
  9
$TILEMODE
 70
     1
  9
$MAXACTVP
 70
    64
  9
$PLIMCHECK
 70
     0
  9
$PEXTMIN
 10
0.0
 20
0.0
 30
0.0
  9
$PEXTMAX
 10
0.0
 20
0.0
 30
0.0
  9
$PLIMMIN
 10
0.0
 20
0.0
  9
$PLIMMAX
 10
0.0
 20
0.0
  9
$UNITMODE
 70
     0
  9
$VISRETAIN
 70
     1
  9
$PLINEGEN
 70
     0
  9
$PSLTSCALE
 70
     1
  0
ENDSEC
  0
SECTION
  2
TABLES
  0
TABLE
  2
VPORT
 70
     1
  0
VPORT
  2
*ACTIVE
 70
     0
 10
0.0
 20
0.0
 11
1.0
 21
1.0
 12
-1694.937641843374
 22
2320.94597790286
 13
0.0
 23
0.0
 14
10.0
 24
10.0
 15
10.0
 25
10.0
 16
0.0
 26
0.0
 36
1.0
 17
0.0
 27
0.0
 37
0.0
 40
1320.342416258913
 41
2.646176911544228
 42
50.0
 43
0.0
 44
0.0
 50
0.0
 51
0.0
 71
    16
 72
  1000
 73
     1
 74
     3
 75
     0
 76
     0
 77
     0
 78
     0
  0
ENDTAB
  0
TABLE
  2
LTYPE
 70
     3
  0
LTYPE
  2
CONTINUOUS
 70
     0
  3
Solid line
 72
    65
 73
     0
 40
0.0
  0
LTYPE
  2
CENTROX2
 70
     0
  3
Centro (2x) ________  __  ________  __  _____
 72
    65
 73
     4
 40
101.6
 49
63.5
 49
-12.7
 49
12.7
 49
-12.7
  0
LTYPE
  2
TRATTEGGIATA
 70
     0
  3
Tratteggiata __ __ __ __ __ __ __ __ __ __ __ _
 72
    65
 73
     2
 40
19.05
 49
12.7
 49
-6.349999999999997
  0
ENDTAB
  0
TABLE
  2
LAYER
 70
     8
  0
LAYER
  2
0
 70
     0
 62
     7
  6
CONTINUOUS
  0
LAYER
  2
NASCOSTI
 70
     0
 62
     8
  6
TRATTEGGIATA
  0
LAYER
  2
CONTORNI
 70
     0
 62
     1
  6
CONTINUOUS
  0
LAYER
  2
ASSI
 70
     0
 62
     5
  6
CENTROX2
  0
LAYER
  2
SOTTILE
 70
     0
 62
     4
  6
CONTINUOUS
  0
LAYER
  2
ALTRO
 70
     0
 62
     3
  6
CONTINUOUS
  0
LAYER
  2
QUOTE
 70
     0
 62
     5
  6
CONTINUOUS
  0
LAYER
  2
DEFPOINTS
 70
     0
 62
     7
  6
CONTINUOUS
  0
ENDTAB
  0
TABLE
  2
STYLE
 70
     2
  0
STYLE
  2
STANDARD
 70
     0
 40
0.0
 41
1.0
 50
0.0
 71
     0
 42
2.5
  3
txt
  4

  0
STYLE
  2
ANNOTATIVE
 70
     0
 40
0.0
 41
1.0
 50
0.0
 71
     0
 42
0.2
  3
txt
  4

  0
STYLE
  2

 70
     1
 40
0.0
 41
1.0
 50
0.0
 71
     0
 42
2.5
  3
ltypeshp.shx
  4

  0
ENDTAB
  0
TABLE
  2
VIEW
 70
     0
  0
ENDTAB
  0
TABLE
  2
UCS
 70
     0
  0
ENDTAB
  0
TABLE
  2
APPID
 70
     9
  0
APPID
  2
ACAD
 70
     0
  0
APPID
  2
ACADANNOTATIVE
 70
     0
  0
APPID
  2
ACAD_MLEADERVER
 70
     0
  0
APPID
  2
ACAD_PSEXT
 70
     0
  0
APPID
  2
ACAECLAYERSTANDARD
 70
     0
  0
APPID
  2
ACAD_EXEMPT_FROM_CAD_STAND
 70
     0
  0
APPID
  2
ACAD_DSTYLE_DIMJAG
 70
     0
  0
APPID
  2
ACAD_DSTYLE_DIMBREAK
 70
     0
  0
APPID
  2
ACAD_DSTYLE_DIMTALN
 70
     0
  0
ENDTAB
  0
TABLE
  2
DIMSTYLE
 70
     4
  0
DIMSTYLE
  2
STANDARD
 70
     0
  3

  4

  5

  6

  7

 40
1.0
 41
0.18
 42
0.0625
 43
0.38
 44
0.18
 45
0.0
 46
0.0
 47
0.0
 48
0.0
140
0.18
141
0.09
142
0.0
143
25.4
144
1.0
145
0.0
146
1.0
147
0.09
 71
     0
 72
     0
 73
     1
 74
     1
 75
     0
 76
     0
 77
     0
 78
     0
170
     0
171
     2
172
     0
173
     0
174
     0
175
     0
176
     0
177
     0
178
     0
  0
DIMSTYLE
  2
ANNOTATIVE
 70
     0
  3

  4

  5

  6

  7

 40
1.0
 41
0.18
 42
0.0625
 43
0.38
 44
0.18
 45
0.0
 46
0.0
 47
0.0
 48
0.0
140
0.18
141
0.09
142
0.0
143
25.4
144
1.0
145
0.0
146
1.0
147
0.09
 71
     0
 72
     0
 73
     1
 74
     1
 75
     0
 76
     0
 77
     0
 78
     0
170
     0
171
     2
172
     0
173
     0
174
     0
175
     0
176
     0
177
     0
178
     0
  0
DIMSTYLE
  2
ISO-25
 70
     0
  3

  4

  5

  6

  7

 40
1.0
 41
2.5
 42
0.625
 43
3.75
 44
1.25
 45
0.0
 46
0.0
 47
0.0
 48
0.0
140
2.5
141
2.5
142
0.0
143
0.03937007874016
144
1.0
145
0.0
146
1.0
147
0.625
 71
     0
 72
     0
 73
     0
 74
     0
 75
     0
 76
     0
 77
     1
 78
     8
170
     0
171
     3
172
     1
173
     0
174
     0
175
     0
176
     0
177
     0
178
     0
  0
DIMSTYLE
  2
NOSTRE_QUOTE
 70
     0
  3

  4

  5

  6

  7

 40
1.0
 41
20.0
 42
5.0
 43
3.75
 44
5.0
 45
0.0
 46
0.0
 47
0.0
 48
0.0
140
40.0
141
2.5
142
0.0
143
0.03937007874016
144
1.0
145
0.0
146
1.0
147
10.0
 71
     0
 72
     0
 73
     0
 74
     0
 75
     0
 76
     0
 77
     1
 78
     8
170
     0
171
     3
172
     1
173
     0
174
     0
175
     0
176
     0
177
     0
178
     0
  0
ENDTAB
  0
ENDSEC
  0
SECTION
  2
BLOCKS
  0
BLOCK
  8
0
  2
$MODEL_SPACE
 70
     0
 10
0.0
 20
0.0
 30
0.0
  3
$MODEL_SPACE
  1

  0
ENDBLK
  5
53F
  8
0
  0
BLOCK
 67
     1
  8
0
  2
$PAPER_SPACE
 70
     0
 10
0.0
 20
0.0
 30
0.0
  3
$PAPER_SPACE
  1

  0
ENDBLK
  5
53B
 67
     1
  8
0
  0
BLOCK
  8
0
  2
*U0
 70
     1
 10
0.0
 20
0.0
 30
0.0
  3
*U0
  1

  0
TEXT
  5
346
  8
0
 62
     0
 10
-2700.655588535394
 20
3111.256983279022
 30
0.0
 40
40.0
  1
100
  0
ENDBLK
  5
348
  8
0
  0
ENDSEC
  0
SECTION
  2
ENTITIES
  0
LINE
  5
2D7
  8
0
 39
31.83440005694778
 10
-1341.143544989076
 20
2280.961927030217
 30
0.0
 11
-1324.66934414693
 21
2280.961927030217
 31
0.0
  0
LINE
  5
2D8
  8
0
 39
31.83440005694778
 10
-1342.143544989046
 20
2276.961927030217
 30
0.0
 11
-1342.143544989046
 21
2279.961927030217
 31
0.0
  0
LINE
  5
2D9
  8
0
 39
31.83440005694778
 10
-1345.143544989045
 20
2276.961927030217
 30
0.0
 11
-1342.143544989046
 21
2276.961927030217
 31
0.0
  0
LINE
  5
2DA
  8
0
 39
31.83440005694778
 10
-4185.163164533361
 20
2153.961927030217
 30
0.0
 11
-3058.163164533361
 21
2153.961927030217
 31
0.0
  0
LINE
  5
2DB
  8
0
 39
31.83440005694778
 10
-1353.143544989046
 20
2449.961927030217
 30
0.0
 11
-1345.143544989045
 21
2446.961927030217
 31
0.0
  0
LINE
  5
2DC
  8
0
 39
31.83440005694778
 10
-1345.143544989045
 20
2452.961927030217
 30
0.0
 11
-1353.143544989046
 21
2449.961927030217
 31
0.0
  0
LINE
  5
2DD
  8
0
 39
31.83440005694778
 10
-1345.143544989045
 20
2452.961927030246
 30
0.0
 11
-1345.143544989045
 21
2453.961927030216
 31
0.0
  0
LINE
  5
2DE
  8
0
 39
31.83440005694778
 10
-1345.143544989045
 20
2282.961927030246
 30
0.0
 11
-1345.143544989045
 21
2446.961927030188
 31
0.0
  0
LINE
  5
2DF
  8
0
 39
31.83440005694778
 10
-1345.143544989045
 20
2276.961927030217
 30
0.0
 11
-1353.143544989046
 21
2279.961927030217
 31
0.0
  0
LINE
  5
2E0
  8
0
 39
31.83440005694778
 10
-1345.143544989045
 20
2282.961927030217
 30
0.0
 11
-1353.143544989046
 21
2279.961927030217
 31
0.0
  0
LINE
  5
2E1
  8
0
 39
31.83440005694778
 10
-3796.16316696716
 20
2454.961927030206
 30
0.0
 11
-4185.163164533332
 21
2454.961927030246
 31
0.0
  0
LINE
  5
2E2
  8
0
 39
31.83440005694778
 10
-4185.163164533332
 20
2452.961927030217
 30
0.0
 11
-4185.163164533332
 21
2454.961927030276
 31
0.0
  0
LINE
  5
2E3
  8
0
 39
31.83440005694778
 10
-2362.84196132292
 20
2449.961927030217
 30
0.0
 11
-2360.34196132292
 21
2449.961927030217
 31
0.0
  0
LINE
  5
2E4
  8
0
 39
31.83440005694778
 10
-2360.34196132292
 20
2453.961927030216
 30
0.0
 11
-2313.34196132292
 21
2453.961927030216
 31
0.0
  0
LINE
  5
2E5
  8
0
 39
31.83440005694778
 10
-2313.34196132292
 20
2449.961927030217
 30
0.0
 11
-2310.84196132292
 21
2449.961927030217
 31
0.0
  0
LINE
  5
2E6
  8
0
 39
31.83440005694778
 10
-3744.163166967161
 20
2495.961927030206
 30
0.0
 11
-3318.44196132292
 21
2495.961927030216
 31
0.0
  0
LINE
  5
2E7
  8
0
 39
31.83440005694778
 10
-2788.641961322922
 20
2495.961927030216
 30
0.0
 11
-2362.84196132292
 21
2495.961927030216
 31
0.0
  0
LINE
  5
2E8
  8
0
 39
31.83440005694778
 10
-1833.041961322919
 20
2495.961927030216
 30
0.0
 11
-1407.24196132292
 21
2495.961927030246
 31
0.0
  0
ARC
  5
2E9
  8
0
 39
31.83440005694778
 10
-4044.226679186524
 20
2418.961927030207
 30
0.0
 40
22.0
 50
90.0
 51
270.0
  0
ARC
  5
2EA
  8
0
 39
31.83440005694778
 10
-3875.163166967161
 20
2418.961927030207
 30
0.0
 40
22.0
 50
270.0
 51
90.0
  0
LINE
  5
2EB
  8
0
 39
31.83440005694778
 10
-4044.226679186524
 20
2396.961927030206
 30
0.0
 11
-3875.163166967161
 21
2396.961927030206
 31
0.0
  0
LINE
  5
2EC
  8
0
 39
31.83440005694778
 10
-4044.226679186524
 20
2440.961927030206
 30
0.0
 11
-3875.163166967161
 21
2440.961927030206
 31
0.0
  0
LINE
  5
2ED
  8
0
 39
31.83440005694778
 10
-4177.220915062243
 20
2279.961927030217
 30
0.0
 11
-4185.163164533361
 21
2276.983583478559
 31
0.0
  0
LINE
  5
2EE
  8
0
 39
31.83440005694778
 10
-4185.163164533361
 20
2282.940270581876
 30
0.0
 11
-4177.220915062243
 21
2279.961927030217
 31
0.0
  0
LINE
  5
2EF
  8
0
 39
31.83440005694778
 10
-4185.163164533361
 20
2282.940270581876
 30
0.0
 11
-4185.163164533361
 21
2446.961927030217
 31
0.0
  0
LINE
  5
2F0
  8
0
 39
31.83440005694778
 10
-4177.163164533332
 20
2449.961927030217
 30
0.0
 11
-4185.163164533332
 21
2446.961927030217
 31
0.0
  0
LINE
  5
2F1
  8
0
 39
31.83440005694778
 10
-4185.163164533332
 20
2452.961927030217
 30
0.0
 11
-4177.163164533332
 21
2449.961927030217
 31
0.0
  0
LINE
  5
2F2
  8
0
 10
-3796.16316696716
 20
2454.961927030206
 30
0.0
 11
-3796.16316696716
 21
2381.961927030206
 31
0.0
  0
LINE
  5
2F3
  8
0
 10
-3796.16316696716
 20
2381.961927030177
 30
0.0
 11
-3744.163166967161
 21
2381.961927030206
 31
0.0
  0
ARC
  5
2F5
  8
0
 39
31.83440005694778
 10
-1341.143544989076
 20
2279.961927030217
 30
0.0
 40
1.0
 50
90.0
 51
180.0
  0
LINE
  5
2F6
  8
0
 10
-2362.84196132292
 20
2495.961927030216
 30
0.0
 11
-2362.84196132292
 21
2449.961927030217
 31
0.0
  0
LINE
  5
2F7
  8
0
 10
-2310.84196132292
 20
2449.961927030217
 30
0.0
 11
-2310.84196132292
 21
2495.961927030216
 31
0.0
  0
LINE
  5
2F8
  8
0
 10
-2360.34196132292
 20
2453.961927030216
 30
0.0
 11
-2360.34196132292
 21
2449.961927030217
 31
0.0
  0
LINE
  5
2F9
  8
0
 10
-2313.34196132292
 20
2449.961927030217
 30
0.0
 11
-2313.34196132292
 21
2453.961927030216
 31
0.0
  0
LINE
  5
2FA
  8
0
 10
-3744.163166967161
 20
2495.961927030206
 30
0.0
 11
-3744.163166967161
 21
2381.961927030206
 31
0.0
  0
LINE
  5
2FB
  8
0
 10
-4185.163164533361
 20
2153.961927030217
 30
0.0
 11
-4185.163164533361
 21
2276.983583478559
 31
0.0
  0
LINE
  5
2FC
  8
0
 10
-1677.669344146916
 20
2153.961927030217
 30
0.0
 11
-1674.669344146917
 21
2163.961927030217
 31
0.0
  0
LINE
  5
2FD
  8
0
 10
-1674.669344146917
 20
2163.961927030217
 30
0.0
 11
-1671.669344146916
 21
2153.961927030188
 31
0.0
  0
LINE
  5
2FE
  8
0
 39
31.83440005694778
 10
-1671.669344146945
 20
2153.961927030217
 30
0.0
 11
-1324.669344146929
 21
2153.961927030216
 31
0.0
  0
LINE
  5
2FF
  8
0
 10
-1757.669344146917
 20
2153.961927030217
 30
0.0
 11
-1754.669344146916
 21
2163.961927030217
 31
0.0
  0
LINE
  5
300
  8
0
 10
-1754.669344146916
 20
2163.961927030217
 30
0.0
 11
-1751.669344146917
 21
2153.961927030188
 31
0.0
  0
LINE
  5
301
  8
0
 39
31.83440005694778
 10
-1751.669344146946
 20
2153.961927030217
 30
0.0
 11
-1677.669344146916
 21
2153.961927030217
 31
0.0
  0
LINE
  5
302
  8
0
 10
-2252.669344146916
 20
2153.961927030217
 30
0.0
 11
-2249.669344146916
 21
2163.961927030217
 31
0.0
  0
LINE
  5
303
  8
0
 10
-2249.669344146916
 20
2163.961927030217
 30
0.0
 11
-2246.669344146916
 21
2153.961927030188
 31
0.0
  0
LINE
  5
304
  8
0
 10
-2332.669344146916
 20
2153.961927030217
 30
0.0
 11
-2329.669344146916
 21
2163.961927030217
 31
0.0
  0
LINE
  5
305
  8
0
 10
-2329.669344146916
 20
2163.961927030217
 30
0.0
 11
-2326.669344146916
 21
2153.961927030188
 31
0.0
  0
LINE
  5
306
  8
0
 39
31.83440005694778
 10
-2326.669344146946
 20
2153.961927030217
 30
0.0
 11
-2252.669344146916
 21
2153.961927030217
 31
0.0
  0
LINE
  5
307
  8
0
 39
31.83440005694778
 10
-2246.669344146946
 20
2153.961927030217
 30
0.0
 11
-1757.669344146917
 21
2153.961927030217
 31
0.0
  0
LINE
  5
308
  8
0
 39
31.83440005694778
 10
-2840.641961322922
 20
2449.961927030217
 30
0.0
 11
-2838.141961322922
 21
2449.961927030217
 31
0.0
  0
LINE
  5
309
  8
0
 39
31.83440005694778
 10
-2838.141961322922
 20
2453.961927030216
 30
0.0
 11
-2791.141961322922
 21
2453.961927030216
 31
0.0
  0
LINE
  5
30A
  8
0
 39
31.83440005694778
 10
-2791.141961322922
 20
2449.961927030217
 30
0.0
 11
-2788.641961322922
 21
2449.961927030217
 31
0.0
  0
LINE
  5
30B
  8
0
 10
-2840.641961322922
 20
2495.961927030216
 30
0.0
 11
-2840.641961322922
 21
2449.961927030217
 31
0.0
  0
LINE
  5
30C
  8
0
 10
-2788.641961322922
 20
2449.961927030217
 30
0.0
 11
-2788.641961322922
 21
2495.961927030216
 31
0.0
  0
LINE
  5
30D
  8
0
 10
-2838.141961322922
 20
2453.961927030216
 30
0.0
 11
-2838.141961322922
 21
2449.961927030217
 31
0.0
  0
LINE
  5
30E
  8
0
 10
-2791.141961322922
 20
2449.961927030217
 30
0.0
 11
-2791.141961322922
 21
2453.961927030216
 31
0.0
  0
LINE
  5
30F
  8
0
 39
31.83440005694778
 10
-3266.44196132292
 20
2495.961927030216
 30
0.0
 11
-2840.641961322922
 21
2495.961927030216
 31
0.0
  0
LINE
  5
310
  8
0
 39
31.83440005694778
 10
-1885.041961322919
 20
2449.961927030217
 30
0.0
 11
-1882.541961322919
 21
2449.961927030217
 31
0.0
  0
LINE
  5
311
  8
0
 39
31.83440005694778
 10
-1882.541961322919
 20
2453.961927030216
 30
0.0
 11
-1835.54196132292
 21
2453.961927030216
 31
0.0
  0
LINE
  5
312
  8
0
 39
31.83440005694778
 10
-1835.54196132292
 20
2449.961927030217
 30
0.0
 11
-1833.041961322919
 21
2449.961927030217
 31
0.0
  0
LINE
  5
313
  8
0
 10
-1885.041961322919
 20
2495.961927030216
 30
0.0
 11
-1885.041961322919
 21
2449.961927030217
 31
0.0
  0
LINE
  5
314
  8
0
 10
-1833.041961322919
 20
2449.961927030217
 30
0.0
 11
-1833.041961322919
 21
2495.961927030216
 31
0.0
  0
LINE
  5
315
  8
0
 10
-1882.541961322919
 20
2453.961927030216
 30
0.0
 11
-1882.541961322919
 21
2449.961927030217
 31
0.0
  0
LINE
  5
316
  8
0
 10
-1835.54196132292
 20
2449.961927030217
 30
0.0
 11
-1835.54196132292
 21
2453.961927030216
 31
0.0
  0
LINE
  5
317
  8
0
 39
31.83440005694778
 10
-1407.24196132292
 20
2449.961927030217
 30
0.0
 11
-1404.741961322921
 21
2449.961927030217
 31
0.0
  0
LINE
  5
318
  8
0
 39
31.83440005694778
 10
-1404.741961322921
 20
2453.961927030216
 30
0.0
 11
-1345.143544989045
 21
2453.961927030216
 31
0.0
  0
LINE
  5
319
  8
0
 10
-1407.24196132292
 20
2495.961927030216
 30
0.0
 11
-1407.24196132292
 21
2449.961927030217
 31
0.0
  0
LINE
  5
31A
  8
0
 10
-1404.741961322921
 20
2453.961927030216
 30
0.0
 11
-1404.741961322921
 21
2449.961927030217
 31
0.0
  0
LINE
  5
31B
  8
0
 39
31.83440005694778
 10
-3318.44196132292
 20
2449.961927030217
 30
0.0
 11
-3315.94196132292
 21
2449.961927030217
 31
0.0
  0
LINE
  5
31C
  8
0
 39
31.83440005694778
 10
-3315.94196132292
 20
2453.961927030216
 30
0.0
 11
-3268.941961322922
 21
2453.961927030216
 31
0.0
  0
LINE
  5
31D
  8
0
 39
31.83440005694778
 10
-3268.941961322922
 20
2449.961927030217
 30
0.0
 11
-3266.44196132292
 21
2449.961927030217
 31
0.0
  0
LINE
  5
31E
  8
0
 10
-3318.44196132292
 20
2495.961927030216
 30
0.0
 11
-3318.44196132292
 21
2449.961927030217
 31
0.0
  0
LINE
  5
31F
  8
0
 10
-3266.44196132292
 20
2449.961927030217
 30
0.0
 11
-3266.44196132292
 21
2495.961927030216
 31
0.0
  0
LINE
  5
320
  8
0
 10
-3315.94196132292
 20
2453.961927030216
 30
0.0
 11
-3315.94196132292
 21
2449.961927030217
 31
0.0
  0
LINE
  5
321
  8
0
 10
-3268.941961322922
 20
2449.961927030217
 30
0.0
 11
-3268.941961322922
 21
2453.961927030216
 31
0.0
  0
LINE
  5
322
  8
0
 10
-2310.84196132292
 20
2495.961927030216
 30
0.0
 11
-1885.041961322919
 21
2495.961927030216
 31
0.0
  0
CIRCLE
  5
323
  8
0
 39
31.83440005694778
 10
-4085.585183463551
 20
2419.672253353852
 30
0.0
 40
3.25
  0
CIRCLE
  5
324
  8
0
 39
31.83440005694778
 10
-4108.100522067831
 20
2419.672253353852
 30
0.0
 40
3.25
  0
CIRCLE
  5
325
  8
0
 39
31.83440005694778
 10
-4085.585183463551
 20
2244.295689748786
 30
0.0
 40
3.25
  0
CIRCLE
  5
326
  8
0
 39
31.83440005694778
 10
-4108.100522067831
 20
2244.295689748786
 30
0.0
 40
3.25
  0
CIRCLE
  5
327
  8
0
 39
31.83440005694778
 10
-4085.585183463551
 20
2305.035004172397
 30
0.0
 40
3.25
  0
CIRCLE
  5
328
  8
0
 39
31.83440005694778
 10
-4108.100522067831
 20
2305.035004172397
 30
0.0
 40
3.25
  0
CIRCLE
  5
329
  8
0
 39
31.83440005694778
 10
-4108.100522067831
 20
2167.304168812767
 30
0.0
 40
3.25
  0
LINE
  5
494
  8
0
 10
-1324.66934414693
 20
2153.961927030188
 30
0.0
 11
-1324.66934414693
 21
2280.961927030189
 31
0.0
  0
LINE
  5
561
  8
0
 10
-3058.163164533361
 20
2153.961927030217
 30
0.0
 11
-3055.163164533361
 21
2163.961927030217
 31
0.0
  0
LINE
  5
562
  8
0
 10
-3055.163164533361
 20
2163.961927030217
 30
0.0
 11
-3052.163164533361
 21
2153.961927030188
 31
0.0
  0
LINE
  5
563
  8
0
 10
-2998.163164533361
 20
2153.961927030217
 30
0.0
 11
-2995.163164533361
 21
2163.961927030217
 31
0.0
  0
LINE
  5
564
  8
0
 10
-2995.163164533361
 20
2163.961927030217
 30
0.0
 11
-2992.163164533361
 21
2153.961927030188
 31
0.0
  0
LINE
  5
565
  8
0
 39
31.83440005694778
 10
-2992.16316453337
 20
2153.961927030217
 30
0.0
 11
-2332.669344146916
 21
2153.961927030217
 31
0.0
  0
LINE
  5
566
  8
0
 39
31.83440005694778
 10
-3052.16316453337
 20
2153.961927030217
 30
0.0
 11
-2998.163164533361
 21
2153.961927030217
 31
0.0
  0
ENDSEC
  0
EOF
