  0
SECTION
  2
HEADER
  9
$ACADVER
  1
AC1014
  9
$ACADMAINTVER
 70
     9
  9
$DWGCODEPAGE
  3
ANSI_1252
  9
$INSBASE
 10
0.0
 20
0.0
 30
0.0
  9
$EXTMIN
 10
-2.610389610389603
 20
63.73376623376623
 30
0.0
  9
$EXTMAX
 10
4117.189610389606
 20
424.7506018937451
 30
31.83440005694778
  9
$LIMMIN
 10
0.0
 20
0.0
  9
$LIMMAX
 10
420.0
 20
297.0
  9
$ORTHOMODE
 70
     1
  9
$REGENMODE
 70
     1
  9
$FILLMODE
 70
     1
  9
$QTEXTMODE
 70
     0
  9
$MIRRTEXT
 70
     0
  9
$DRAGMODE
 70
     2
  9
$LTSCALE
 40
1.0
  9
$OSMODE
 70
  1023
  9
$ATTMODE
 70
     1
  9
$TEXTSIZE
 40
2.5
  9
$TRACEWID
 40
1.0
  9
$TEXTSTYLE
  7
STANDARD
  9
$CLAYER
  8
0
  9
$CELTYPE
  6
BYLAYER
  9
$CECOLOR
 62
   256
  9
$CELTSCALE
 40
1.0
  9
$DELOBJ
 70
     1
  9
$DISPSILH
 70
     0
  9
$DIMSCALE
 40
1.0
  9
$DIMASZ
 40
2.5
  9
$DIMEXO
 40
0.625
  9
$DIMDLI
 40
3.75
  9
$DIMRND
 40
0.0
  9
$DIMDLE
 40
0.0
  9
$DIMEXE
 40
1.25
  9
$DIMTP
 40
0.0
  9
$DIMTM
 40
0.0
  9
$DIMTXT
 40
2.5
  9
$DIMCEN
 40
2.5
  9
$DIMTSZ
 40
0.0
  9
$DIMTOL
 70
     0
  9
$DIMLIM
 70
     0
  9
$DIMTIH
 70
     0
  9
$DIMTOH
 70
     0
  9
$DIMSE1
 70
     0
  9
$DIMSE2
 70
     0
  9
$DIMTAD
 70
     1
  9
$DIMZIN
 70
     8
  9
$DIMBLK
  1

  9
$DIMASO
 70
     1
  9
$DIMSHO
 70
     1
  9
$DIMPOST
  1

  9
$DIMAPOST
  1

  9
$DIMALT
 70
     0
  9
$DIMALTD
 70
     3
  9
$DIMALTF
 40
0.03937007874016
  9
$DIMLFAC
 40
1.0
  9
$DIMTOFL
 70
     1
  9
$DIMTVP
 40
0.0
  9
$DIMTIX
 70
     0
  9
$DIMSOXD
 70
     0
  9
$DIMSAH
 70
     0
  9
$DIMBLK1
  1

  9
$DIMBLK2
  1

  9
$DIMSTYLE
  2
DIN-1
  9
$DIMCLRD
 70
     0
  9
$DIMCLRE
 70
     0
  9
$DIMCLRT
 70
     0
  9
$DIMTFAC
 40
1.0
  9
$DIMGAP
 40
0.625
  9
$DIMJUST
 70
     0
  9
$DIMSD1
 70
     0
  9
$DIMSD2
 70
     0
  9
$DIMTOLJ
 70
     1
  9
$DIMTZIN
 70
     0
  9
$DIMALTZ
 70
     0
  9
$DIMALTTZ
 70
     0
  9
$DIMFIT
 70
     5
  9
$DIMUPT
 70
     0
  9
$DIMUNIT
 70
     2
  9
$DIMDEC
 70
     3
  9
$DIMTDEC
 70
     3
  9
$DIMALTU
 70
     2
  9
$DIMALTTD
 70
     2
  9
$DIMTXSTY
  7
STANDARD
  9
$DIMAUNIT
 70
     0
  9
$LUNITS
 70
     2
  9
$LUPREC
 70
     3
  9
$SKETCHINC
 40
1.0
  9
$FILLETRAD
 40
10.0
  9
$AUNITS
 70
     0
  9
$AUPREC
 70
     0
  9
$MENU
  1
.
  9
$ELEVATION
 40
0.0
  9
$PELEVATION
 40
0.0
  9
$THICKNESS
 40
0.0
  9
$LIMCHECK
 70
     0
  9
$CHAMFERA
 40
10.0
  9
$CHAMFERB
 40
10.0
  9
$CHAMFERC
 40
0.0
  9
$CHAMFERD
 40
0.0
  9
$SKPOLY
 70
     0
  9
$TDCREATE
 40
2455022.720692836
  9
$TDUPDATE
 40
2459625.352522488
  9
$TDINDWG
 40
0.0012630556
  9
$TDUSRTIMER
 40
0.0002358102
  9
$USRTIMER
 70
     1
  9
$ANGBASE
 50
0.0
  9
$ANGDIR
 70
     0
  9
$PDMODE
 70
     0
  9
$PDSIZE
 40
0.0
  9
$PLINEWID
 40
0.0
  9
$COORDS
 70
     1
  9
$SPLFRAME
 70
     0
  9
$SPLINETYPE
 70
     6
  9
$SPLINESEGS
 70
     8
  9
$ATTDIA
 70
     0
  9
$ATTREQ
 70
     1
  9
$HANDLING
 70
     1
  9
$HANDSEED
  5
2D3
  9
$SURFTAB1
 70
     6
  9
$SURFTAB2
 70
     6
  9
$SURFTYPE
 70
     6
  9
$SURFU
 70
     6
  9
$SURFV
 70
     6
  9
$UCSNAME
  2

  9
$UCSORG
 10
0.0
 20
0.0
 30
0.0
  9
$UCSXDIR
 10
1.0
 20
0.0
 30
0.0
  9
$UCSYDIR
 10
0.0
 20
1.0
 30
0.0
  9
$PUCSNAME
  2

  9
$PUCSORG
 10
0.0
 20
0.0
 30
0.0
  9
$PUCSXDIR
 10
1.0
 20
0.0
 30
0.0
  9
$PUCSYDIR
 10
0.0
 20
1.0
 30
0.0
  9
$USERI1
 70
     0
  9
$USERI2
 70
     0
  9
$USERI3
 70
     0
  9
$USERI4
 70
     0
  9
$USERI5
 70
     0
  9
$USERR1
 40
0.0
  9
$USERR2
 40
0.0
  9
$USERR3
 40
0.0
  9
$USERR4
 40
0.0
  9
$USERR5
 40
0.0
  9
$WORLDVIEW
 70
     1
  9
$SHADEDGE
 70
     3
  9
$SHADEDIF
 70
    70
  9
$TILEMODE
 70
     1
  9
$MAXACTVP
 70
    64
  9
$PINSBASE
 10
0.0
 20
0.0
 30
0.0
  9
$PLIMCHECK
 70
     0
  9
$PEXTMIN
 10
1.000000000000000E+20
 20
1.000000000000000E+20
 30
1.000000000000000E+20
  9
$PEXTMAX
 10
-1.000000000000000E+20
 20
-1.000000000000000E+20
 30
-1.000000000000000E+20
  9
$PLIMMIN
 10
0.0
 20
0.0
  9
$PLIMMAX
 10
0.0
 20
0.0
  9
$UNITMODE
 70
     0
  9
$VISRETAIN
 70
     1
  9
$PLINEGEN
 70
     0
  9
$PSLTSCALE
 70
     1
  9
$TREEDEPTH
 70
  3020
  9
$PICKSTYLE
 70
     1
  9
$CMLSTYLE
  2
STANDARD
  9
$CMLJUST
 70
     0
  9
$CMLSCALE
 40
1.0
  9
$PROXYGRAPHICS
 70
     1
  9
$MEASUREMENT
 70
     0
  0
ENDSEC
  0
SECTION
  2
CLASSES
  0
CLASS
  1
ACDBDICTIONARYWDFLT
  2
AcDbDictionaryWithDefault
  3
ObjectDBX Classes
 90
        0
280
     0
281
     0
  0
CLASS
  1
MATERIAL
  2
AcDbMaterial
  3
ObjectDBX Classes
 90
     1153
280
     0
281
     0
  0
CLASS
  1
SCALE
  2
AcDbScale
  3
ObjectDBX Classes
 90
     1153
280
     0
281
     0
  0
CLASS
  1
VISUALSTYLE
  2
AcDbVisualStyle
  3
ObjectDBX Classes
 90
     4095
280
     0
281
     0
  0
CLASS
  1
TABLESTYLE
  2
AcDbTableStyle
  3
ObjectDBX Classes
 90
     4095
280
     0
281
     0
  0
CLASS
  1
MLEADERSTYLE
  2
AcDbMLeaderStyle
  3
ACDB_MLEADERSTYLE_CLASS
 90
     4095
280
     0
281
     0
  0
CLASS
  1
XRECORD
  2
AcDbXrecord
  3
ObjectDBX Classes
 90
        0
280
     0
281
     0
  0
CLASS
  1
LWPOLYLINE
  2
AcDbPolyline
  3
ObjectDBX Classes
 90
        0
280
     0
281
     1
  0
CLASS
  1
HATCH
  2
AcDbHatch
  3
ObjectDBX Classes
 90
        0
280
     0
281
     1
  0
ENDSEC
  0
SECTION
  2
TABLES
  0
TABLE
  2
VPORT
  5
1AF
330
0
100
AcDbSymbolTable
 70
     1
  0
VPORT
  5
1C6
330
1AF
100
AcDbSymbolTableRecord
100
AcDbViewportTableRecord
  2
*ACTIVE
 70
     0
 10
0.0
 20
0.0
 11
1.0
 21
1.0
 12
2689.287263388543
 22
354.9395661235205
 13
0.0
 23
0.0
 14
10.0
 24
10.0
 15
10.0
 25
10.0
 16
0.0
 26
0.0
 36
1.0
 17
-134.1869158878503
 27
0.0
 37
0.0
 40
3156.210195463313
 41
2.080321285140562
 42
50.0
 43
0.0
 44
0.0
 50
0.0
 51
0.0
 71
    16
 72
  1000
 73
     1
 74
     3
 75
     0
 76
     0
 77
     0
 78
     0
  0
ENDTAB
  0
TABLE
  2
LTYPE
  5
1AC
330
0
100
AcDbSymbolTable
 70
     1
  0
LTYPE
  5
1BA
330
1AC
100
AcDbSymbolTableRecord
100
AcDbLinetypeTableRecord
  2
BYBLOCK
 70
     0
  3

 72
    65
 73
     0
 40
0.0
  0
LTYPE
  5
1BB
330
1AC
100
AcDbSymbolTableRecord
100
AcDbLinetypeTableRecord
  2
BYLAYER
 70
     0
  3

 72
    65
 73
     0
 40
0.0
  0
LTYPE
  5
1BC
330
1AC
100
AcDbSymbolTableRecord
100
AcDbLinetypeTableRecord
  2
CONTINUOUS
 70
     0
  3
Solid line
 72
    65
 73
     0
 40
0.0
  0
ENDTAB
  0
TABLE
  2
LAYER
  5
1AA
330
0
100
AcDbSymbolTable
 70
     1
  0
LAYER
  5
1B7
330
1AA
100
AcDbSymbolTableRecord
100
AcDbLayerTableRecord
  2
0
 70
     0
 62
     7
  6
CONTINUOUS
  0
ENDTAB
  0
TABLE
  2
STYLE
  5
1AB
330
0
100
AcDbSymbolTable
 70
     2
  0
STYLE
  5
1B8
330
1AB
100
AcDbSymbolTableRecord
100
AcDbTextStyleTableRecord
  2
STANDARD
 70
     0
 40
0.0
 41
1.0
 50
0.0
 71
     0
 42
2.5
  3
arial.ttf
  4

  0
STYLE
  5
1CE
330
1AB
100
AcDbSymbolTableRecord
100
AcDbTextStyleTableRecord
  2
ANNOTATIVE
 70
     0
 40
0.0
 41
1.0
 50
0.0
 71
     0
 42
2.5
  3
arial.ttf
  4

  0
ENDTAB
  0
TABLE
  2
VIEW
  5
1AD
330
0
100
AcDbSymbolTable
 70
     0
  0
ENDTAB
  0
TABLE
  2
UCS
  5
1AE
330
0
100
AcDbSymbolTable
 70
     0
  0
ENDTAB
  0
TABLE
  2
APPID
  5
1B0
330
0
100
AcDbSymbolTable
 70
     6
  0
APPID
  5
1B9
330
1B0
100
AcDbSymbolTableRecord
100
AcDbRegAppTableRecord
  2
ACAD
 70
     0
  0
APPID
  5
1D0
330
1B0
100
AcDbSymbolTableRecord
100
AcDbRegAppTableRecord
  2
ACADANNOTATIVE
 70
     0
  0
APPID
  5
1D1
330
1B0
100
AcDbSymbolTableRecord
100
AcDbRegAppTableRecord
  2
ACAD_DSTYLE_DIMBREAK
 70
     0
  0
APPID
  5
1D2
330
1B0
100
AcDbSymbolTableRecord
100
AcDbRegAppTableRecord
  2
ACAD_DSTYLE_DIMJAG
 70
     0
  0
APPID
  5
1D3
330
1B0
100
AcDbSymbolTableRecord
100
AcDbRegAppTableRecord
  2
ACAD_DSTYLE_DIMTALN
 70
     0
  0
APPID
  5
1D4
330
1B0
100
AcDbSymbolTableRecord
100
AcDbRegAppTableRecord
  2
ACAD_PSEXT
 70
     0
  0
ENDTAB
  0
TABLE
  2
DIMSTYLE
  5
1B1
330
0
100
AcDbSymbolTable
 70
     7
  0
DIMSTYLE
105
1D5
330
1B1
100
AcDbSymbolTableRecord
100
AcDbDimStyleTableRecord
  2
ISO-25
 70
     0
  3

  4

  5

  6

  7

 40
1.0
 41
2.5
 42
0.625
 43
3.75
 44
1.25
 45
0.0
 46
0.0
 47
0.0
 48
0.0
140
2.5
141
2.5
142
0.0
143
0.03937007874016
144
1.0
145
0.0
146
1.0
147
0.625
 71
     0
 72
     0
 73
     0
 74
     0
 75
     0
 76
     0
 77
     1
 78
     8
170
     0
171
     3
172
     1
173
     0
174
     0
175
     0
176
     0
177
     0
178
     0
270
     2
271
     4
272
     4
273
     2
274
     2
340
1B8
275
     0
280
     0
281
     0
282
     0
283
     1
284
     0
285
     0
286
     0
287
     3
288
     0
  0
DIMSTYLE
105
1D6
330
1B1
100
AcDbSymbolTableRecord
100
AcDbDimStyleTableRecord
  2
DIN-1
 70
     0
  3

  4

  5

  6

  7

 40
1.0
 41
2.5
 42
0.625
 43
3.75
 44
1.25
 45
0.0
 46
0.0
 47
0.0
 48
0.0
140
2.5
141
2.5
142
0.0
143
0.03937007874016
144
1.0
145
0.0
146
1.0
147
0.625
 71
     0
 72
     0
 73
     0
 74
     0
 75
     0
 76
     0
 77
     1
 78
     8
170
     0
171
     3
172
     1
173
     0
174
     0
175
     0
176
     0
177
     0
178
     0
270
     2
271
     4
272
     4
273
     2
274
     2
340
1B8
275
     0
280
     0
281
     0
282
     0
283
     1
284
     0
285
     0
286
     0
287
     3
288
     0
  0
DIMSTYLE
105
1D7
330
1B1
100
AcDbSymbolTableRecord
100
AcDbDimStyleTableRecord
  2
ANNOTATIVE
 70
     0
  3

  4

  5

  6

  7

 40
0.0
 41
2.5
 42
0.625
 43
3.75
 44
1.25
 45
0.0
 46
0.0
 47
0.0
 48
0.0
140
2.5
141
2.5
142
0.0
143
0.03937007874016
144
1.0
145
0.0
146
1.0
147
0.625
 71
     0
 72
     0
 73
     0
 74
     0
 75
     0
 76
     0
 77
     1
 78
     8
170
     0
171
     3
172
     1
173
     0
174
     0
175
     0
176
     0
177
     0
178
     0
270
     2
271
     4
272
     4
273
     2
274
     2
340
1B8
275
     0
280
     0
281
     0
282
     0
283
     1
284
     0
285
     0
286
     0
287
     3
288
     0
  0
DIMSTYLE
105
1D8
330
1B1
100
AcDbSymbolTableRecord
100
AcDbDimStyleTableRecord
  2
STANDARD
 70
     0
  3

  4

  5

  6

  7

 40
1.0
 41
0.18
 42
0.0625
 43
0.38
 44
0.18
 45
0.0
 46
0.0
 47
0.0
 48
0.0
140
0.18
141
0.09
142
0.0
143
25.4
144
1.0
145
0.0
146
1.0
147
0.09
 71
     0
 72
     0
 73
     1
 74
     1
 75
     0
 76
     0
 77
     0
 78
     0
170
     0
171
     2
172
     0
173
     0
174
     0
175
     0
176
     0
177
     0
178
     0
270
     2
271
     4
272
     4
273
     2
274
     2
340
1B8
275
     0
280
     0
281
     0
282
     0
283
     1
284
     0
285
     0
286
     0
287
     3
288
     0
  0
DIMSTYLE
105
1D9
330
1B1
100
AcDbSymbolTableRecord
100
AcDbDimStyleTableRecord
  2
COPIA_DI_ISO-250
 70
     0
  3

  4

  5

  6

  7

 40
1.0
 41
20.0
 42
16.0
 43
3.75
 44
1.25
 45
0.0
 46
0.0
 47
0.0
 48
0.0
140
30.0
141
2.5
142
0.0
143
0.0393700787
144
1.0
145
0.0
146
1.0
147
10.0
 71
     0
 72
     0
 73
     0
 74
     0
 75
     0
 76
     0
 77
     1
 78
     8
170
     0
171
     3
172
     1
173
     0
174
     0
175
     0
176
     0
177
     0
178
     0
270
     2
271
     4
272
     4
273
     2
274
     2
340
1B8
275
     0
280
     0
281
     0
282
     0
283
     1
284
     0
285
     0
286
     0
287
     3
288
     0
  0
DIMSTYLE
105
1DA
330
1B1
100
AcDbSymbolTableRecord
100
AcDbDimStyleTableRecord
  2
COPIA_DI_ISO-25
 70
     0
  3

  4

  5

  6

  7

 40
1.0
 41
20.0
 42
16.0
 43
3.75
 44
1.25
 45
0.0
 46
0.0
 47
0.0
 48
0.0
140
30.0
141
2.5
142
0.0
143
0.0393700787
144
1.0
145
0.0
146
1.0
147
10.0
 71
     0
 72
     0
 73
     0
 74
     0
 75
     0
 76
     0
 77
     1
 78
     8
170
     0
171
     3
172
     1
173
     0
174
     0
175
     0
176
     0
177
     0
178
     0
270
     2
271
     4
272
     4
273
     2
274
     2
340
1B8
275
     0
280
     0
281
     0
282
     0
283
     1
284
     0
285
     0
286
     0
287
     3
288
     0
  0
DIMSTYLE
105
26B
330
1B1
100
AcDbSymbolTableRecord
100
AcDbDimStyleTableRecord
  2
ANNOTATIVA
 70
     0
  3

  4

  5

  6

  7

 40
0.0
 41
0.18
 42
0.0625
 43
0.38
 44
0.18
 45
0.0
 46
0.0
 47
0.0
 48
0.0
140
0.18
141
0.09
142
0.0
143
25.4
144
1.0
145
0.0
146
1.0
147
0.09
 71
     0
 72
     0
 73
     1
 74
     1
 75
     0
 76
     0
 77
     0
 78
     0
170
     0
171
     2
172
     0
173
     0
174
     0
175
     0
176
     0
177
     0
178
     0
270
     2
271
     4
272
     4
273
     2
274
     2
340
1B8
275
     0
280
     0
281
     0
282
     0
283
     1
284
     0
285
     0
286
     0
287
     3
288
     0
  0
ENDTAB
  0
TABLE
  2
BLOCK_RECORD
  5
1A9
330
0
100
AcDbSymbolTable
 70
     0
  0
BLOCK_RECORD
  5
1C3
330
1A9
100
AcDbSymbolTableRecord
100
AcDbBlockTableRecord
  2
*MODEL_SPACE
  0
BLOCK_RECORD
  5
1C1
330
1A9
100
AcDbSymbolTableRecord
100
AcDbBlockTableRecord
  2
*PAPER_SPACE
  0
ENDTAB
  0
ENDSEC
  0
SECTION
  2
BLOCKS
  0
BLOCK
  5
1DB
330
1C3
100
AcDbEntity
  8
0
100
AcDbBlockBegin
  2
*MODEL_SPACE
 70
     0
 10
0.0
 20
0.0
 30
0.0
  3
*MODEL_SPACE
  1

  0
ENDBLK
  5
21
330
1C3
100
AcDbEntity
  8
0
100
AcDbBlockEnd
  0
BLOCK
  5
1DC
330
1C1
100
AcDbEntity
 67
     1
  8
0
100
AcDbBlockBegin
  2
*PAPER_SPACE
 70
     0
 10
0.0
 20
0.0
 30
0.0
  3
*PAPER_SPACE
  1

  0
ENDBLK
  5
1D
330
1C1
100
AcDbEntity
 67
     1
  8
0
100
AcDbBlockEnd
  0
ENDSEC
  0
SECTION
  2
ENTITIES
  0
LINE
  5
141
330
1C3
100
AcDbEntity
  8
0
100
AcDbLine
 10
2544.589610389608
 20
424.7506018937451
 30
0.0
 11
3033.88961038961
 21
424.7506018937451
 31
0.0
  0
LINE
  5
142
330
1C3
100
AcDbEntity
  8
0
100
AcDbLine
 10
2011.289610389605
 20
424.7506018937451
 30
0.0
 11
2493.589610389608
 21
424.7506018937451
 31
0.0
  0
LINE
  5
143
330
1C3
100
AcDbEntity
  8
0
100
AcDbLine
 10
1477.989610389609
 20
424.7506018937451
 30
0.0
 11
1960.289610389605
 21
424.7506018937451
 31
0.0
  0
LINE
  5
144
330
1C3
100
AcDbEntity
  8
0
100
AcDbLine
 10
944.6896103896061
 20
424.7506018937451
 30
0.0
 11
1426.989610389609
 21
424.7506018937451
 31
0.0
  0
LINE
  5
145
330
1C3
100
AcDbEntity
  8
0
100
AcDbLine
 10
944.6896103896061
 20
424.7506018937451
 30
0.0
 11
944.6896103896061
 21
374.7550276061442
 31
0.0
  0
LINE
  5
146
330
1C3
100
AcDbEntity
  8
0
100
AcDbLine
 10
944.6896103896061
 20
374.7550276061442
 30
0.0
 11
941.6896103896061
 21
374.7550276061442
 31
0.0
  0
LINE
  5
147
330
1C3
100
AcDbEntity
  8
0
100
AcDbLine
 10
941.6896103896061
 20
374.7550276061442
 30
0.0
 11
941.6896103896061
 21
381.7550276061478
 31
0.0
  0
LINE
  5
148
330
1C3
100
AcDbEntity
  8
0
100
AcDbLine
 10
896.6896103896133
 20
381.7550276061478
 30
0.0
 11
941.6896103896061
 21
381.7550276061478
 31
0.0
  0
LINE
  5
149
330
1C3
100
AcDbEntity
  8
0
100
AcDbLine
 10
896.6896103896133
 20
381.7550276061478
 30
0.0
 11
896.6896103896133
 21
374.7550276061442
 31
0.0
  0
LINE
  5
14A
330
1C3
100
AcDbEntity
  8
0
100
AcDbLine
 10
896.6896103896133
 20
374.7550276061442
 30
0.0
 11
893.6896103896133
 21
374.7550276061442
 31
0.0
  0
LINE
  5
14B
330
1C3
100
AcDbEntity
  8
0
100
AcDbLine
 10
893.6896103896133
 20
374.7550276061442
 30
0.0
 11
893.6896103896133
 21
424.7506018937451
 31
0.0
  0
LINE
  5
14C
330
1C3
100
AcDbEntity
  8
0
100
AcDbLine
 10
438.3896103896104
 20
424.7506018937451
 30
0.0
 11
893.6896103896133
 21
424.7506018937451
 31
0.0
  0
LINE
  5
14D
330
1C3
100
AcDbEntity
  8
0
100
AcDbLine
 10
438.3896103896104
 20
308.7550276061442
 30
0.0
 11
438.3896103896104
 21
424.7506018937451
 31
0.0
  0
LINE
  5
14E
330
1C3
100
AcDbEntity
  8
0
100
AcDbLine
 10
387.3896103896104
 20
308.7550276061442
 30
0.0
 11
438.3896103896104
 21
308.7550276061442
 31
0.0
  0
LINE
  5
14F
330
1C3
100
AcDbEntity
  8
0
100
AcDbLine
 10
387.3896103896104
 20
381.7550276061478
 30
0.0
 11
387.3896103896104
 21
308.7550276061442
 31
0.0
  0
LINE
  5
150
330
1C3
100
AcDbEntity
  8
0
100
AcDbLine
 10
-2.610389610389603
 20
381.7550276061478
 30
0.0
 11
387.3896103896104
 21
381.7550276061478
 31
0.0
  0
LINE
  5
151
330
1C3
100
AcDbEntity
  8
0
100
AcDbLine
 10
-2.610389610389603
 20
381.7550276061478
 30
0.0
 11
-2.610389610389603
 21
381.2528147499464
 31
0.0
  0
LINE
  5
152
330
1C3
100
AcDbEntity
  8
0
100
AcDbLine
 10
4117.189610389606
 20
218.7594533185469
 30
0.0
 11
4065.755981004003
 21
218.7594533185469
 31
0.0
  0
LINE
  5
153
330
1C3
100
AcDbEntity
  8
0
100
AcDbLine
 10
4065.755981004003
 20
189.7594533185469
 30
0.0
 11
3997.189610389606
 21
189.7594533185469
 31
0.0
  0
LINE
  5
154
330
1C3
100
AcDbEntity
  8
0
100
AcDbLine
 10
3997.189610389606
 20
189.7594533185469
 30
0.0
 11
3997.189610389606
 21
212.2572404623455
 31
0.0
  0
LINE
  5
155
330
1C3
100
AcDbEntity
  8
0
100
AcDbLine
 10
138.3260981702469
 20
367.2550276061478
 30
0.0
 11
307.3896103896104
 21
367.2550276061478
 31
0.0
  0
LINE
  5
156
330
1C3
100
AcDbEntity
  8
0
100
AcDbLine
 10
307.3896103896104
 20
323.2550276061478
 30
0.0
 11
138.3260981702469
 21
323.2550276061478
 31
0.0
  0
ARC
  5
157
330
1C3
100
AcDbEntity
  8
0
100
AcDbCircle
 10
138.3260981702469
 20
345.2550276061442
 30
0.0
 40
22.0
100
AcDbArc
 50
90.0
 51
270.0
  0
ARC
  5
158
330
1C3
100
AcDbEntity
  8
0
100
AcDbCircle
 10
307.3896103896104
 20
345.2550276061442
 30
0.0
 40
22.00000000000003
100
AcDbArc
 50
270.0
 51
90.0
  0
CIRCLE
  5
159
330
1C3
100
AcDbEntity
  8
0
100
AcDbCircle
 39
31.83440005694778
 10
95.90408167385519
 20
354.9675667859805
 30
0.0
 40
3.25
  0
CIRCLE
  5
15A
330
1C3
100
AcDbEntity
  8
0
100
AcDbCircle
 39
31.83440005694778
 10
73.38874306957493
 20
354.9675667859805
 30
0.0
 40
3.25
  0
CIRCLE
  5
15B
330
1C3
100
AcDbEntity
  8
0
100
AcDbCircle
 39
31.83440005694778
 10
96.96759389321866
 20
179.5910031809138
 30
0.0
 40
3.25
  0
CIRCLE
  5
15C
330
1C3
100
AcDbEntity
  8
0
100
AcDbCircle
 39
31.83440005694778
 10
74.4522552889384
 20
179.5910031809138
 30
0.0
 40
3.25
  0
CIRCLE
  5
15D
330
1C3
100
AcDbEntity
  8
0
100
AcDbCircle
 39
31.83440005694778
 10
96.96759389321866
 20
240.3303176045259
 30
0.0
 40
3.25
  0
CIRCLE
  5
15E
330
1C3
100
AcDbEntity
  8
0
100
AcDbCircle
 39
31.83440005694778
 10
74.4522552889384
 20
240.3303176045259
 30
0.0
 40
3.25
  0
CIRCLE
  5
15F
330
1C3
100
AcDbEntity
  8
0
100
AcDbCircle
 39
31.83440005694778
 10
74.4522552889384
 20
102.5994822448951
 30
0.0
 40
3.25
  0
LINE
  5
160
330
1C3
100
AcDbEntity
  8
0
100
AcDbLine
 10
3954.722795696804
 20
381.2528147499464
 30
0.0
 11
3946.722795696804
 21
378.2528147499464
 31
0.0
  0
LINE
  5
161
330
1C3
100
AcDbEntity
  8
0
100
AcDbLine
 10
3946.722795696804
 20
378.2528147499464
 30
0.0
 11
3954.722795696804
 21
375.2528147499464
 31
0.0
  0
LINE
  5
162
330
1C3
100
AcDbEntity
  8
0
100
AcDbLine
 10
3997.189610389606
 20
218.2572404623455
 30
0.0
 11
3989.189610389606
 21
215.2572404623455
 31
0.0
  0
LINE
  5
163
330
1C3
100
AcDbEntity
  8
0
100
AcDbLine
 10
3989.189610389606
 20
215.2572404623455
 30
0.0
 11
3997.189610389606
 21
212.2572404623455
 31
0.0
  0
LINE
  5
164
330
1C3
100
AcDbEntity
  8
0
100
AcDbLine
 10
-2.610389610389603
 20
381.2528147499464
 30
0.0
 11
5.389610389610397
 21
378.2528147499464
 31
0.0
  0
LINE
  5
165
330
1C3
100
AcDbEntity
  8
0
100
AcDbLine
 10
5.389610389610397
 20
378.2528147499464
 30
0.0
 11
-2.610389610389603
 21
375.2528147499464
 31
0.0
  0
LINE
  5
166
330
1C3
100
AcDbEntity
  8
0
100
AcDbLine
 10
-2.610389610389603
 20
218.2572404623455
 30
0.0
 11
5.389610389610397
 21
215.2572404623455
 31
0.0
  0
LINE
  5
167
330
1C3
100
AcDbEntity
  8
0
100
AcDbLine
 10
5.389610389610397
 20
215.2572404623455
 30
0.0
 11
-2.610389610389603
 21
212.2572404623455
 31
0.0
  0
LINE
  5
168
330
1C3
100
AcDbEntity
  8
0
100
AcDbLine
 10
-2.610389610389603
 20
375.2528147499464
 30
0.0
 11
-2.610389610389603
 21
218.2572404623455
 31
0.0
  0
LINE
  5
169
330
1C3
100
AcDbEntity
  8
0
100
AcDbLine
 10
3997.189610389606
 20
218.2572404623455
 30
0.0
 11
3997.189610389606
 21
381.7550276061478
 31
0.0
  0
LINE
  5
16A
330
1C3
100
AcDbEntity
  8
0
100
AcDbLine
 10
4065.755981004003
 20
218.7594533185469
 30
0.0
 11
4065.755981004003
 21
189.7594533185469
 31
0.0
  0
LINE
  5
16B
330
1C3
100
AcDbEntity
  8
0
100
AcDbLine
 10
3084.88961038961
 20
424.7506018937451
 30
0.0
 11
3574.189610389606
 21
424.7506018937451
 31
0.0
  0
LINE
  5
16C
330
1C3
100
AcDbEntity
  8
0
100
AcDbLine
 10
1477.989610389609
 20
374.7550276061442
 30
0.0
 11
1474.989610389609
 21
374.7550276061442
 31
0.0
  0
LINE
  5
16D
330
1C3
100
AcDbEntity
  8
0
100
AcDbLine
 10
1474.989610389609
 20
374.7550276061442
 30
0.0
 11
1474.989610389609
 21
381.7550276061478
 31
0.0
  0
LINE
  5
16E
330
1C3
100
AcDbEntity
  8
0
100
AcDbLine
 10
1429.989610389609
 20
381.7550276061478
 30
0.0
 11
1474.989610389609
 21
381.7550276061478
 31
0.0
  0
LINE
  5
16F
330
1C3
100
AcDbEntity
  8
0
100
AcDbLine
 10
1429.989610389609
 20
381.7550276061478
 30
0.0
 11
1429.989610389609
 21
374.7550276061442
 31
0.0
  0
LINE
  5
170
330
1C3
100
AcDbEntity
  8
0
100
AcDbLine
 10
1429.989610389609
 20
374.7550276061442
 30
0.0
 11
1426.989610389609
 21
374.7550276061442
 31
0.0
  0
LINE
  5
171
330
1C3
100
AcDbEntity
  8
0
100
AcDbLine
 10
2011.289610389605
 20
374.7550276061442
 30
0.0
 11
2008.289610389605
 21
374.7550276061442
 31
0.0
  0
LINE
  5
172
330
1C3
100
AcDbEntity
  8
0
100
AcDbLine
 10
2008.289610389605
 20
374.7550276061442
 30
0.0
 11
2008.289610389605
 21
381.7550276061478
 31
0.0
  0
LINE
  5
173
330
1C3
100
AcDbEntity
  8
0
100
AcDbLine
 10
1963.289610389605
 20
381.7550276061478
 30
0.0
 11
2008.289610389605
 21
381.7550276061478
 31
0.0
  0
LINE
  5
174
330
1C3
100
AcDbEntity
  8
0
100
AcDbLine
 10
1963.289610389605
 20
381.7550276061478
 30
0.0
 11
1963.289610389605
 21
374.7550276061442
 31
0.0
  0
LINE
  5
175
330
1C3
100
AcDbEntity
  8
0
100
AcDbLine
 10
1963.289610389605
 20
374.7550276061442
 30
0.0
 11
1960.289610389605
 21
374.7550276061442
 31
0.0
  0
LINE
  5
176
330
1C3
100
AcDbEntity
  8
0
100
AcDbLine
 10
2544.589610389608
 20
374.7550276061442
 30
0.0
 11
2541.589610389608
 21
374.7550276061442
 31
0.0
  0
LINE
  5
177
330
1C3
100
AcDbEntity
  8
0
100
AcDbLine
 10
2541.589610389608
 20
374.7550276061442
 30
0.0
 11
2541.589610389608
 21
381.7550276061478
 31
0.0
  0
LINE
  5
178
330
1C3
100
AcDbEntity
  8
0
100
AcDbLine
 10
2496.589610389608
 20
381.7550276061478
 30
0.0
 11
2541.589610389608
 21
381.7550276061478
 31
0.0
  0
LINE
  5
179
330
1C3
100
AcDbEntity
  8
0
100
AcDbLine
 10
2496.589610389608
 20
381.7550276061478
 30
0.0
 11
2496.589610389608
 21
374.7550276061442
 31
0.0
  0
LINE
  5
17A
330
1C3
100
AcDbEntity
  8
0
100
AcDbLine
 10
2496.589610389608
 20
374.7550276061442
 30
0.0
 11
2493.589610389608
 21
374.7550276061442
 31
0.0
  0
LINE
  5
17B
330
1C3
100
AcDbEntity
  8
0
100
AcDbLine
 10
3084.88961038961
 20
374.7550276061442
 30
0.0
 11
3081.88961038961
 21
374.7550276061442
 31
0.0
  0
LINE
  5
17C
330
1C3
100
AcDbEntity
  8
0
100
AcDbLine
 10
3081.88961038961
 20
374.7550276061442
 30
0.0
 11
3081.88961038961
 21
381.7550276061478
 31
0.0
  0
LINE
  5
17D
330
1C3
100
AcDbEntity
  8
0
100
AcDbLine
 10
3036.88961038961
 20
381.7550276061478
 30
0.0
 11
3081.88961038961
 21
381.7550276061478
 31
0.0
  0
LINE
  5
17E
330
1C3
100
AcDbEntity
  8
0
100
AcDbLine
 10
3036.88961038961
 20
381.7550276061478
 30
0.0
 11
3036.88961038961
 21
374.7550276061442
 31
0.0
  0
LINE
  5
17F
330
1C3
100
AcDbEntity
  8
0
100
AcDbLine
 10
3036.88961038961
 20
374.7550276061442
 30
0.0
 11
3033.88961038961
 21
374.7550276061442
 31
0.0
  0
LINE
  5
180
330
1C3
100
AcDbEntity
  8
0
100
AcDbLine
 10
3625.189610389606
 20
374.7550276061442
 30
0.0
 11
3622.189610389606
 21
374.7550276061442
 31
0.0
  0
LINE
  5
181
330
1C3
100
AcDbEntity
  8
0
100
AcDbLine
 10
3622.189610389606
 20
374.7550276061442
 30
0.0
 11
3622.189610389606
 21
381.7550276061478
 31
0.0
  0
LINE
  5
182
330
1C3
100
AcDbEntity
  8
0
100
AcDbLine
 10
3577.189610389606
 20
381.7550276061478
 30
0.0
 11
3622.189610389606
 21
381.7550276061478
 31
0.0
  0
LINE
  5
183
330
1C3
100
AcDbEntity
  8
0
100
AcDbLine
 10
3577.189610389606
 20
381.7550276061478
 30
0.0
 11
3577.189610389606
 21
374.7550276061442
 31
0.0
  0
LINE
  5
184
330
1C3
100
AcDbEntity
  8
0
100
AcDbLine
 10
3577.189610389606
 20
374.7550276061442
 30
0.0
 11
3574.189610389606
 21
374.7550276061442
 31
0.0
  0
LINE
  5
185
330
1C3
100
AcDbEntity
  8
0
100
AcDbLine
 10
3625.189610389606
 20
424.7506018937451
 30
0.0
 11
3625.189610389606
 21
374.7550276061442
 31
0.0
  0
LINE
  5
186
330
1C3
100
AcDbEntity
  8
0
100
AcDbLine
 10
3574.189610389606
 20
374.7550276061442
 30
0.0
 11
3574.189610389606
 21
424.7506018937451
 31
0.0
  0
LINE
  5
187
330
1C3
100
AcDbEntity
  8
0
100
AcDbLine
 10
3033.88961038961
 20
374.7550276061442
 30
0.0
 11
3033.88961038961
 21
424.7506018937451
 31
0.0
  0
LINE
  5
188
330
1C3
100
AcDbEntity
  8
0
100
AcDbLine
 10
3084.88961038961
 20
424.7506018937451
 30
0.0
 11
3084.88961038961
 21
374.7550276061442
 31
0.0
  0
LINE
  5
189
330
1C3
100
AcDbEntity
  8
0
100
AcDbLine
 10
2493.589610389608
 20
374.7550276061442
 30
0.0
 11
2493.589610389608
 21
424.7506018937451
 31
0.0
  0
LINE
  5
18A
330
1C3
100
AcDbEntity
  8
0
100
AcDbLine
 10
2544.589610389608
 20
424.7506018937451
 30
0.0
 11
2544.589610389608
 21
374.7550276061442
 31
0.0
  0
LINE
  5
18B
330
1C3
100
AcDbEntity
  8
0
100
AcDbLine
 10
1960.289610389605
 20
374.7550276061442
 30
0.0
 11
1960.289610389605
 21
424.7506018937451
 31
0.0
  0
LINE
  5
18C
330
1C3
100
AcDbEntity
  8
0
100
AcDbLine
 10
2011.289610389605
 20
424.7506018937451
 30
0.0
 11
2011.289610389605
 21
374.7550276061442
 31
0.0
  0
LINE
  5
18D
330
1C3
100
AcDbEntity
  8
0
100
AcDbLine
 10
1477.989610389609
 20
424.7506018937451
 30
0.0
 11
1477.989610389609
 21
374.7550276061442
 31
0.0
  0
LINE
  5
18E
330
1C3
100
AcDbEntity
  8
0
100
AcDbLine
 10
1426.989610389609
 20
374.7550276061442
 30
0.0
 11
1426.989610389609
 21
424.7506018937451
 31
0.0
  0
LINE
  5
18F
330
1C3
100
AcDbEntity
  8
0
100
AcDbLine
 10
3954.722795696804
 20
375.2528147499464
 30
0.0
 11
3959.970270654404
 21
378.2528147499464
 31
0.0
  0
LINE
  5
190
330
1C3
100
AcDbEntity
  8
0
100
AcDbLine
 10
3959.970270654404
 20
381.7550276061478
 30
0.0
 11
3997.189610389606
 21
381.7550276061478
 31
0.0
  0
LINE
  5
191
330
1C3
100
AcDbEntity
  8
0
100
AcDbLine
 10
3959.970270654404
 20
378.2528147499464
 30
0.0
 11
3959.970270654404
 21
381.7550276061478
 31
0.0
  0
LINE
  5
192
330
1C3
100
AcDbEntity
  8
0
100
AcDbLine
 10
3954.722795696804
 20
381.2528147499464
 30
0.0
 11
3954.722795696804
 21
424.7506018937451
 31
0.0
  0
LINE
  5
193
330
1C3
100
AcDbEntity
  8
0
100
AcDbLine
 10
3625.189610389606
 20
424.7506018937451
 30
0.0
 11
3954.722795696804
 21
424.7506018937451
 31
0.0
  0
LINE
  5
194
330
1C3
100
AcDbEntity
  8
0
100
AcDbLine
 10
4117.189610389577
 20
85.73376617742122
 30
0.0
 11
4107.189610389577
 21
88.73376617742122
 31
0.0
  0
LINE
  5
195
330
1C3
100
AcDbEntity
  8
0
100
AcDbLine
 10
4107.189610389577
 20
88.73376617742122
 30
0.0
 11
4117.189610389606
 21
91.73376617742122
 31
0.0
  0
LINE
  5
196
330
1C3
100
AcDbEntity
  8
0
100
AcDbLine
 10
4117.189610389577
 20
85.73376617742122
 30
0.0
 11
4117.187931923355
 21
63.73376623376623
 31
0.0
  0
LINE
  5
197
330
1C3
100
AcDbEntity
  8
0
100
AcDbLine
 39
31.83440005694778
 10
5.331859860728372
 20
88.75945331854689
 30
0.0
 11
-2.610389610389603
 21
85.78110976688856
 31
0.0
  0
LINE
  5
198
330
1C3
100
AcDbEntity
  8
0
100
AcDbLine
 39
31.83440005694778
 10
-2.610389610389603
 20
91.73779687020522
 30
0.0
 11
5.331859860728372
 21
88.75945331854689
 31
0.0
  0
LINE
  5
199
330
1C3
100
AcDbEntity
  8
0
100
AcDbLine
 10
4117.189610389606
 20
218.7594533185469
 30
0.0
 11
4117.189610389606
 21
91.73376617742122
 31
0.0
  0
LINE
  5
19A
330
1C3
100
AcDbEntity
  8
0
100
AcDbLine
 10
-2.610389610389603
 20
212.2572404623455
 30
0.0
 11
-2.610389610389603
 21
91.73779687020522
 31
0.0
  0
LINE
  5
19B
330
1C3
100
AcDbEntity
  8
0
100
AcDbLine
 10
-2.610389610389603
 20
85.78110976688856
 30
0.0
 11
-2.610389610389603
 21
63.759076114496
 31
0.0
  0
LINE
  5
19C
330
1C3
100
AcDbEntity
  8
0
100
AcDbLine
 10
4117.187931923355
 20
63.73376623376623
 30
0.0
 11
3609.58464684266
 21
63.73700755170955
 31
0.0
  0
LINE
  5
19D
330
1C3
100
AcDbEntity
  8
0
100
AcDbLine
 10
3526.58464684266
 20
63.73751746018695
 30
0.0
 11
2679.58464684266
 21
63.74272098407471
 31
0.0
  0
LINE
  5
19E
330
1C3
100
AcDbEntity
  8
0
100
AcDbLine
 10
2679.58464684266
 20
88.73376617742122
 30
0.0
 11
2596.58464684266
 21
88.73376617742122
 31
0.0
  0
LINE
  5
19F
330
1C3
100
AcDbEntity
  8
0
100
AcDbLine
 10
3609.58464684266
 20
88.73376617742122
 30
0.0
 11
3526.58464684266
 21
88.73376617742122
 31
0.0
  0
LINE
  5
1A0
330
1C3
100
AcDbEntity
  8
0
100
AcDbLine
 10
3609.58464684266
 20
63.73700755170955
 30
0.0
 11
3609.58464684266
 21
88.73376617742122
 31
0.0
  0
LINE
  5
1A1
330
1C3
100
AcDbEntity
  8
0
100
AcDbLine
 10
3526.58464684266
 20
63.73751746018695
 30
0.0
 11
3526.58464684266
 21
88.73376617742122
 31
0.0
  0
LINE
  5
1A2
330
1C3
100
AcDbEntity
  8
0
100
AcDbLine
 10
2679.58464684266
 20
63.74272098407471
 30
0.0
 11
2679.58464684266
 21
88.73376617742122
 31
0.0
  0
LINE
  5
1A3
330
1C3
100
AcDbEntity
  8
0
100
AcDbLine
 10
2596.58464684266
 20
63.74323089255574
 30
0.0
 11
2596.58464684266
 21
88.73376617742122
 31
0.0
  0
LINE
  5
1A4
330
1C3
100
AcDbEntity
  8
0
100
AcDbLine
 10
1482.671074184508
 20
88.7337661774227
 30
0.0
 11
1420.671074184508
 21
88.7337661774227
 31
0.0
  0
LINE
  5
1A5
330
1C3
100
AcDbEntity
  8
0
100
AcDbLine
 10
1420.671074184508
 20
88.7337661774227
 30
0.0
 11
1420.671074184508
 21
63.74856454376368
 31
0.0
  0
LINE
  5
1A6
330
1C3
100
AcDbEntity
  8
0
100
AcDbLine
 10
1482.671074184508
 20
88.7337661774227
 30
0.0
 11
1482.671074184508
 21
63.74819877155187
 31
0.0
  0
LINE
  5
1A7
330
1C3
100
AcDbEntity
  8
0
100
AcDbLine
 10
1420.671074184508
 20
63.74856454376368
 30
0.0
 11
-2.610389610389603
 21
63.759076114496
 31
0.0
  0
LINE
  5
1A8
330
1C3
100
AcDbEntity
  8
0
100
AcDbLine
 10
2596.58464684266
 20
63.74323089255574
 30
0.0
 11
1482.671074184508
 21
63.74819877155187
 31
0.0
  0
ENDSEC
  0
SECTION
  2
OBJECTS
  0
DICTIONARY
  5
1B3
330
0
100
AcDbDictionary
  3
ACAD_GROUP
350
1B4
  3
ACAD_MLINESTYLE
350
1BD
  3
ACAD_SCALELIST
350
28C
  3
APPDATA
350
21C
  3
DWGPROPS
350
2D2
  0
DICTIONARY
  5
1B4
102
{ACAD_REACTORS
330
1B3
102
}
330
1B3
100
AcDbDictionary
  0
DICTIONARY
  5
1BD
102
{ACAD_REACTORS
330
1B3
102
}
330
1B3
100
AcDbDictionary
  3
STANDARD
350
1BE
  0
DICTIONARY
  5
28C
102
{ACAD_REACTORS
330
1B3
102
}
330
1B3
100
AcDbDictionary
  0
DICTIONARY
  5
21C
102
{ACAD_REACTORS
330
1B3
102
}
330
1B3
100
AcDbDictionary
  0
XRECORD
  5
2D2
102
{ACAD_REACTORS
330
1B3
102
}
330
1B3
100
AcDbXrecord
  1
DWGPROPS COOKIE
  2

  3

  4

  6

  7

  8
Principale
  9

300
=
301
=
302
=
303
=
304
=
305
=
306
=
307
=
308
=
309
=
 40
0.0
 41
2455022.679026169
 42
2459625.310855822
  1

 90
        0
  0
MLINESTYLE
  5
1BE
102
{ACAD_REACTORS
330
1BD
102
}
330
1BD
100
AcDbMlineStyle
  2
Standard
 70
     0
  3

 62
   256
 51
90.0
 52
90.0
 71
     2
 49
0.5
 62
   256
  6
BYLAYER
 49
-0.5
 62
   256
  6
BYLAYER
  0
ENDSEC
  0
EOF
