  0
SECTION
  2
HEADER
  9
$ACADVER
  1
AC1009
  9
$DWGCODEPAGE
  3
ansi_1252
  9
$INSBASE
 10
0.0
 20
0.0
 30
0.0
  9
$EXTMIN
 10
1.000000000000000E+20
 20
1.000000000000000E+20
 30
1.000000000000000E+20
  9
$EXTMAX
 10
-1.000000000000000E+20
 20
-1.000000000000000E+20
 30
-1.000000000000000E+20
  9
$LIMMIN
 10
0.0
 20
0.0
  9
$LIMMAX
 10
12.0
 20
9.0
  9
$ORTHOMODE
 70
     1
  9
$REGENMODE
 70
     1
  9
$FILLMODE
 70
     1
  9
$QTEXTMODE
 70
     0
  9
$MIRRTEXT
 70
     0
  9
$DRAGMODE
 70
     2
  9
$LTSCALE
 40
1.0
  9
$OSMODE
 70
  1023
  9
$ATTMODE
 70
     1
  9
$TEXTSIZE
 40
0.2
  9
$TRACEWID
 40
0.05
  9
$TEXTSTYLE
  7
STANDARD
  9
$CLAYER
  8
0
  9
$CELTYPE
  6
BYLAYER
  9
$CECOLOR
 62
   256
  9
$DIMSCALE
 40
1.0
  9
$DIMASZ
 40
0.18
  9
$DIMEXO
 40
0.0625
  9
$DIMDLI
 40
0.38
  9
$DIMRND
 40
0.0
  9
$DIMDLE
 40
0.0
  9
$DIMEXE
 40
0.18
  9
$DIMTP
 40
0.0
  9
$DIMTM
 40
0.0
  9
$DIMTXT
 40
0.18
  9
$DIMCEN
 40
0.09
  9
$DIMTSZ
 40
0.0
  9
$DIMTOL
 70
     0
  9
$DIMLIM
 70
     0
  9
$DIMTIH
 70
     1
  9
$DIMTOH
 70
     1
  9
$DIMSE1
 70
     0
  9
$DIMSE2
 70
     0
  9
$DIMTAD
 70
     0
  9
$DIMZIN
 70
     0
  9
$DIMBLK
  1

  9
$DIMASO
 70
     1
  9
$DIMSHO
 70
     1
  9
$DIMPOST
  1

  9
$DIMAPOST
  1

  9
$DIMALT
 70
     0
  9
$DIMALTD
 70
     2
  9
$DIMALTF
 40
25.4
  9
$DIMLFAC
 40
1.0
  9
$DIMTOFL
 70
     0
  9
$DIMTVP
 40
0.0
  9
$DIMTIX
 70
     0
  9
$DIMSOXD
 70
     0
  9
$DIMSAH
 70
     0
  9
$DIMBLK1
  1

  9
$DIMBLK2
  1

  9
$DIMSTYLE
  2
STANDARD
  9
$DIMCLRD
 70
     0
  9
$DIMCLRE
 70
     0
  9
$DIMCLRT
 70
     0
  9
$DIMTFAC
 40
1.0
  9
$DIMGAP
 40
0.09
  9
$LUNITS
 70
     2
  9
$LUPREC
 70
     4
  9
$SKETCHINC
 40
0.1
  9
$FILLETRAD
 40
0.0
  9
$AUNITS
 70
     0
  9
$AUPREC
 70
     0
  9
$MENU
  1
.
  9
$ELEVATION
 40
0.0
  9
$PELEVATION
 40
0.0
  9
$THICKNESS
 40
0.0
  9
$LIMCHECK
 70
     0
  9
$CHAMFERA
 40
0.0
  9
$CHAMFERB
 40
0.0
  9
$SKPOLY
 70
     0
  9
$TDCREATE
 40
2455531.353550521
  9
$TDUPDATE
 40
2458801.696787731
  9
$TDINDWG
 40
0.0064620255
  9
$TDUSRTIMER
 40
2458801.653798877
  9
$USRTIMER
 70
     1
  9
$ANGBASE
 50
0.0
  9
$ANGDIR
 70
     0
  9
$PDMODE
 70
     0
  9
$PDSIZE
 40
0.0
  9
$PLINEWID
 40
0.0
  9
$COORDS
 70
     1
  9
$SPLFRAME
 70
     0
  9
$SPLINETYPE
 70
     6
  9
$SPLINESEGS
 70
     8
  9
$ATTDIA
 70
     0
  9
$ATTREQ
 70
     1
  9
$HANDLING
 70
     1
  9
$HANDSEED
  5
B81
  9
$SURFTAB1
 70
     6
  9
$SURFTAB2
 70
     6
  9
$SURFTYPE
 70
     6
  9
$SURFU
 70
     6
  9
$SURFV
 70
     6
  9
$UCSNAME
  2

  9
$UCSORG
 10
0.0
 20
0.0
 30
0.0
  9
$UCSXDIR
 10
1.0
 20
0.0
 30
0.0
  9
$UCSYDIR
 10
0.0
 20
1.0
 30
0.0
  9
$PUCSNAME
  2

  9
$PUCSORG
 10
0.0
 20
0.0
 30
0.0
  9
$PUCSXDIR
 10
1.0
 20
0.0
 30
0.0
  9
$PUCSYDIR
 10
0.0
 20
1.0
 30
0.0
  9
$USERI1
 70
     0
  9
$USERI2
 70
     0
  9
$USERI3
 70
     0
  9
$USERI4
 70
     0
  9
$USERI5
 70
     0
  9
$USERR1
 40
0.0
  9
$USERR2
 40
0.0
  9
$USERR3
 40
0.0
  9
$USERR4
 40
0.0
  9
$USERR5
 40
0.0
  9
$WORLDVIEW
 70
     1
  9
$SHADEDGE
 70
     3
  9
$SHADEDIF
 70
    70
  9
$TILEMODE
 70
     1
  9
$MAXACTVP
 70
    64
  9
$PLIMCHECK
 70
     0
  9
$PEXTMIN
 10
0.0
 20
0.0
 30
0.0
  9
$PEXTMAX
 10
0.0
 20
0.0
 30
0.0
  9
$PLIMMIN
 10
0.0
 20
0.0
  9
$PLIMMAX
 10
0.0
 20
0.0
  9
$UNITMODE
 70
     0
  9
$VISRETAIN
 70
     1
  9
$PLINEGEN
 70
     0
  9
$PSLTSCALE
 70
     1
  0
ENDSEC
  0
SECTION
  2
TABLES
  0
TABLE
  2
VPORT
 70
     1
  0
VPORT
  2
*ACTIVE
 70
     0
 10
0.0
 20
0.0
 11
1.0
 21
1.0
 12
5255.462690040334
 22
-2385.954231780793
 13
0.0
 23
0.0
 14
0.5
 24
0.5
 15
0.5
 25
0.5
 16
0.0
 26
0.0
 36
1.0
 17
0.0
 27
0.0
 37
0.0
 40
8548.299624801353
 41
2.135664335664336
 42
50.0
 43
0.0
 44
0.0
 50
0.0
 51
0.0
 71
    16
 72
  1000
 73
     1
 74
     3
 75
     0
 76
     0
 77
     0
 78
     0
  0
ENDTAB
  0
TABLE
  2
LTYPE
 70
     2
  0
LTYPE
  2
CONTINUOUS
 70
     0
  3
Solid line
 72
    65
 73
     0
 40
0.0
  0
LTYPE
  2
CENTERX2
 70
     0
  3
Center (2x) ________  __  ________  __  _____
 72
    65
 73
     4
 40
20.32
 49
12.7
 49
-2.54
 49
2.54
 49
-2.54
  0
ENDTAB
  0
TABLE
  2
LAYER
 70
     2
  0
LAYER
  2
0
 70
     0
 62
     7
  6
CONTINUOUS
  0
LAYER
  2
CONTORNO
 70
     0
 62
     7
  6
CONTINUOUS
  0
ENDTAB
  0
TABLE
  2
STYLE
 70
     3
  0
STYLE
  2
STANDARD
 70
     0
 40
0.0
 41
1.0
 50
0.0
 71
     0
 42
0.2
  3
txt.shx
  4

  0
STYLE
  2
ANNOTATIVE
 70
     0
 40
0.0
 41
1.0
 50
0.0
 71
     0
 42
0.2
  3
txt
  4

  0
STYLE
  2
ANNOTATIVA
 70
     0
 40
0.0
 41
1.0
 50
0.0
 71
     0
 42
0.2
  3
txt.shx
  4

  0
ENDTAB
  0
TABLE
  2
VIEW
 70
     0
  0
ENDTAB
  0
TABLE
  2
UCS
 70
     0
  0
ENDTAB
  0
TABLE
  2
APPID
 70
     7
  0
APPID
  2
ACAD
 70
     0
  0
APPID
  2
ACADANNOTATIVE
 70
     0
  0
APPID
  2
ACAD_MLEADERVER
 70
     0
  0
APPID
  2
ACADANNOPO
 70
     0
  0
APPID
  2
ACAD_DSTYLE_DIMJAG
 70
     0
  0
APPID
  2
ACAD_DSTYLE_DIMTALN
 70
     0
  0
APPID
  2
ACAD_EXEMPT_FROM_CAD_STAND
 70
     0
  0
ENDTAB
  0
TABLE
  2
DIMSTYLE
 70
     4
  0
DIMSTYLE
  2
STANDARD
 70
     0
  3

  4

  5

  6

  7

 40
1.0
 41
0.18
 42
0.0625
 43
0.38
 44
0.18
 45
0.0
 46
0.0
 47
0.0
 48
0.0
140
0.18
141
0.09
142
0.0
143
25.4
144
1.0
145
0.0
146
1.0
147
0.09
 71
     0
 72
     0
 73
     1
 74
     1
 75
     0
 76
     0
 77
     0
 78
     0
170
     0
171
     2
172
     0
173
     0
174
     0
175
     0
176
     0
177
     0
178
     0
  0
DIMSTYLE
  2
ANNOTATIVE
 70
     0
  3

  4

  5

  6

  7

 40
1.0
 41
0.18
 42
0.0625
 43
0.38
 44
0.18
 45
0.0
 46
0.0
 47
0.0
 48
0.0
140
0.18
141
0.09
142
0.0
143
25.4
144
1.0
145
0.0
146
1.0
147
0.09
 71
     0
 72
     0
 73
     1
 74
     1
 75
     0
 76
     0
 77
     0
 78
     0
170
     0
171
     2
172
     0
173
     0
174
     0
175
     0
176
     0
177
     0
178
     0
  0
DIMSTYLE
  2
ANNOTATIVA
 70
     0
  3

  4

  5

  6

  7

 40
0.0
 41
0.18
 42
0.0625
 43
0.38
 44
0.18
 45
0.0
 46
0.0
 47
0.0
 48
0.0
140
0.18
141
0.09
142
0.0
143
25.4
144
1.0
145
0.0
146
1.0
147
0.09
 71
     0
 72
     0
 73
     1
 74
     1
 75
     0
 76
     0
 77
     0
 78
     0
170
     0
171
     2
172
     0
173
     0
174
     0
175
     0
176
     0
177
     0
178
     0
  0
DIMSTYLE
  2
ISO-25
 70
     0
  3

  4

  5

  6

  7

 40
1.0
 41
2.5
 42
0.625
 43
3.75
 44
1.25
 45
0.0
 46
0.0
 47
0.0
 48
0.0
140
2.5
141
2.5
142
0.0
143
0.0393700787
144
1.0
145
0.0
146
1.0
147
0.625
 71
     0
 72
     0
 73
     0
 74
     0
 75
     0
 76
     0
 77
     1
 78
     8
170
     0
171
     3
172
     1
173
     0
174
     0
175
     0
176
     0
177
     0
178
     0
  0
ENDTAB
  0
ENDSEC
  0
SECTION
  2
BLOCKS
  0
BLOCK
  8
0
  2
$MODEL_SPACE
 70
     0
 10
0.0
 20
0.0
 30
0.0
  3
$MODEL_SPACE
  1

  0
ENDBLK
  5
96B
  8
0
  0
BLOCK
 67
     1
  8
0
  2
$PAPER_SPACE
 70
     0
 10
0.0
 20
0.0
 30
0.0
  3
$PAPER_SPACE
  1

  0
ENDBLK
  5
967
 67
     1
  8
0
  0
ENDSEC
  0
SECTION
  2
ENTITIES
  0
LINE
  5
3E1
  8
0
 10
3021.503677596775
 20
-740.7512178957268
 30
0.0
 11
3019.503677596775
 21
-740.7512178957268
 31
0.0
  0
LINE
  5
3E2
  8
0
 10
3019.503677596775
 20
-740.7512178957268
 30
0.0
 11
3019.503677596775
 21
-729.7512178957263
 31
0.0
  0
LINE
  5
3E3
  8
0
 10
2972.503677596775
 20
-729.7512178957263
 30
0.0
 11
3019.503677596775
 21
-729.7512178957263
 31
0.0
  0
LINE
  5
3E4
  8
0
 10
2972.503677596775
 20
-729.7512178957263
 30
0.0
 11
2972.503677596775
 21
-740.7512178957268
 31
0.0
  0
LINE
  5
3E5
  8
0
 10
2972.503677596775
 20
-740.7512178957268
 30
0.0
 11
2970.503677596775
 21
-740.7512178957268
 31
0.0
  0
LINE
  5
3E6
  8
0
 10
2970.503677596775
 20
-740.7512178957268
 30
0.0
 11
2970.503677596775
 21
-686.7556436081265
 31
0.0
  0
LINE
  5
3E7
  8
0
 10
2514.503677596775
 20
-686.7556436081265
 30
0.0
 11
2970.503677596775
 21
-686.7556436081265
 31
0.0
  0
LINE
  5
3E8
  8
0
 10
2514.503677596775
 20
-686.7556436081265
 30
0.0
 11
2514.503677596775
 21
-740.7512178957268
 31
0.0
  0
LINE
  5
3E9
  8
0
 10
2514.503677596775
 20
-740.7512178957268
 30
0.0
 11
2512.503677596775
 21
-740.7512178957268
 31
0.0
  0
LINE
  5
3EA
  8
0
 10
2512.503677596775
 20
-740.7512178957268
 30
0.0
 11
2512.503677596775
 21
-729.7512178957263
 31
0.0
  0
LINE
  5
3EB
  8
0
 10
2465.503677596775
 20
-729.7512178957263
 30
0.0
 11
2512.503677596775
 21
-729.7512178957263
 31
0.0
  0
LINE
  5
3EC
  8
0
 10
2465.503677596775
 20
-729.7512178957263
 30
0.0
 11
2465.503677596775
 21
-740.7512178957268
 31
0.0
  0
LINE
  5
3ED
  8
0
 10
2465.503677596775
 20
-740.7512178957268
 30
0.0
 11
2463.503677596775
 21
-740.7512178957268
 31
0.0
  0
LINE
  5
3EE
  8
0
 10
2463.503677596775
 20
-740.7512178957268
 30
0.0
 11
2463.503677596775
 21
-686.7556436081265
 31
0.0
  0
LINE
  5
3EF
  8
0
 10
2014.503677596775
 20
-686.7556436081265
 30
0.0
 11
2463.503677596775
 21
-686.7556436081265
 31
0.0
  0
LINE
  5
3F0
  8
0
 10
2014.503677596775
 20
-686.7556436081265
 30
0.0
 11
2014.503677596775
 21
-740.7512178957268
 31
0.0
  0
LINE
  5
3F1
  8
0
 10
2014.503677596775
 20
-740.7512178957268
 30
0.0
 11
2012.503677596775
 21
-740.7512178957268
 31
0.0
  0
LINE
  5
3F2
  8
0
 10
2012.503677596775
 20
-740.7512178957268
 30
0.0
 11
2012.503677596775
 21
-729.7512178957263
 31
0.0
  0
LINE
  5
3F3
  8
0
 10
1965.503677596775
 20
-729.7512178957263
 30
0.0
 11
2012.503677596775
 21
-729.7512178957263
 31
0.0
  0
LINE
  5
3F4
  8
0
 10
1965.503677596775
 20
-729.7512178957263
 30
0.0
 11
1965.503677596775
 21
-740.7512178957268
 31
0.0
  0
LINE
  5
3F5
  8
0
 10
1965.503677596775
 20
-740.7512178957268
 30
0.0
 11
1963.503677596775
 21
-740.7512178957268
 31
0.0
  0
LINE
  5
3F6
  8
0
 10
1963.503677596775
 20
-740.7512178957268
 30
0.0
 11
1963.503677596775
 21
-686.7556436081265
 31
0.0
  0
LINE
  5
3F7
  8
0
 10
1514.503677596775
 20
-686.7556436081265
 30
0.0
 11
1963.503677596775
 21
-686.7556436081265
 31
0.0
  0
LINE
  5
3F8
  8
0
 10
1514.503677596775
 20
-686.7556436081265
 30
0.0
 11
1514.503677596775
 21
-740.7512178957268
 31
0.0
  0
LINE
  5
3F9
  8
0
 10
1514.503677596775
 20
-740.7512178957268
 30
0.0
 11
1512.503677596775
 21
-740.7512178957268
 31
0.0
  0
LINE
  5
3FA
  8
0
 10
1512.503677596775
 20
-740.7512178957268
 30
0.0
 11
1512.503677596775
 21
-729.7512178957263
 31
0.0
  0
LINE
  5
3FB
  8
0
 10
1465.503677596775
 20
-729.7512178957263
 30
0.0
 11
1512.503677596775
 21
-729.7512178957263
 31
0.0
  0
LINE
  5
3FC
  8
0
 10
1465.503677596775
 20
-729.7512178957263
 30
0.0
 11
1465.503677596775
 21
-740.7512178957268
 31
0.0
  0
LINE
  5
3FD
  8
0
 10
1465.503677596775
 20
-740.7512178957268
 30
0.0
 11
1463.503677596775
 21
-740.7512178957268
 31
0.0
  0
LINE
  5
3FE
  8
0
 10
1463.503677596775
 20
-740.7512178957268
 30
0.0
 11
1463.503677596775
 21
-686.7556436081265
 31
0.0
  0
LINE
  5
3FF
  8
0
 10
1014.503677596774
 20
-686.7556436081265
 30
0.0
 11
1463.503677596775
 21
-686.7556436081265
 31
0.0
  0
LINE
  5
400
  8
0
 10
1014.503677596774
 20
-686.7556436081265
 30
0.0
 11
1014.503677596774
 21
-740.7512178957268
 31
0.0
  0
LINE
  5
401
  8
0
 10
1014.503677596774
 20
-740.7512178957268
 30
0.0
 11
1012.503677596774
 21
-740.7512178957268
 31
0.0
  0
LINE
  5
402
  8
0
 10
1012.503677596774
 20
-740.7512178957268
 30
0.0
 11
1012.503677596774
 21
-729.7512178957263
 31
0.0
  0
LINE
  5
403
  8
0
 10
965.5036775967744
 20
-729.7512178957263
 30
0.0
 11
1012.503677596774
 21
-729.7512178957263
 31
0.0
  0
LINE
  5
404
  8
0
 10
965.5036775967744
 20
-729.7512178957263
 30
0.0
 11
965.5036775967744
 21
-740.7512178957268
 31
0.0
  0
LINE
  5
405
  8
0
 10
965.5036775967744
 20
-740.7512178957268
 30
0.0
 11
963.5036775967742
 21
-740.7512178957268
 31
0.0
  0
LINE
  5
406
  8
0
 10
963.5036775967742
 20
-740.7512178957268
 30
0.0
 11
963.5036775967742
 21
-686.7556436081265
 31
0.0
  0
LINE
  5
407
  8
0
 10
541.5036775967747
 20
-686.7556436081265
 30
0.0
 11
963.5036775967742
 21
-686.7556436081265
 31
0.0
  0
LINE
  5
408
  8
0
 10
541.5036775967747
 20
-802.7512178957268
 30
0.0
 11
541.5036775967747
 21
-686.7556436081265
 31
0.0
  0
LINE
  5
409
  8
0
 10
490.5036775967746
 20
-802.7512178957268
 30
0.0
 11
541.5036775967747
 21
-802.7512178957268
 31
0.0
  0
LINE
  5
40A
  8
0
 10
490.5036775967746
 20
-729.7512178957263
 30
0.0
 11
490.5036775967746
 21
-802.7512178957268
 31
0.0
  0
LINE
  5
40B
  8
0
 10
100.5036775967746
 20
-729.7512178957263
 30
0.0
 11
490.5036775967746
 21
-729.7512178957263
 31
0.0
  0
LINE
  5
40C
  8
0
 10
100.5036775967746
 20
-729.7512178957263
 30
0.0
 11
100.5036775967746
 21
-730.2534307519265
 31
0.0
  0
LINE
  5
40D
  8
0
 10
100.5036775967746
 20
-1022.746792183327
 30
0.0
 11
1497.503677596776
 21
-1022.746792183327
 31
0.0
  0
LINE
  5
40E
  8
0
 10
2203.503677596775
 20
-1022.746792183327
 30
0.0
 11
2277.503677596775
 21
-1022.746792183327
 31
0.0
  0
LINE
  5
40F
  8
0
 10
2283.503677596775
 20
-1022.746792183327
 30
0.0
 11
3127.503677596775
 21
-1022.746792183327
 31
0.0
  0
LINE
  5
410
  8
0
 10
3207.503677596776
 20
-1022.746792183327
 30
0.0
 11
3133.503677596774
 21
-1022.746792183327
 31
0.0
  0
LINE
  5
411
  8
0
 10
3213.503677596775
 20
-1022.746792183327
 30
0.0
 11
3520.503677596775
 21
-1022.746792183327
 31
0.0
  0
LINE
  5
412
  8
0
 10
3520.503677596775
 20
-896.7467921833268
 30
0.0
 11
3520.503677596775
 21
-1022.746792183327
 31
0.0
  0
LINE
  5
413
  8
0
 10
3520.503677596775
 20
-896.7467921833268
 30
0.0
 11
3469.070048211174
 21
-896.7467921833268
 31
0.0
  0
LINE
  5
414
  8
0
 10
3406.503677596776
 20
-896.7467921833268
 30
0.0
 11
3402.503677596775
 21
-896.7467921833268
 31
0.0
  0
LINE
  5
415
  8
0
 10
3469.070048211174
 20
-919.7467921833263
 30
0.0
 11
3406.503677596776
 21
-919.7467921833263
 31
0.0
  0
LINE
  5
416
  8
0
 10
3402.503677596775
 20
-896.7467921833268
 30
0.0
 11
3402.503677596775
 21
-903.7467921833265
 31
0.0
  0
LINE
  5
417
  8
0
 10
3402.503677596775
 20
-903.7467921833265
 30
0.0
 11
3400.503677596776
 21
-903.7467921833265
 31
0.0
  0
LINE
  5
418
  8
0
 10
3400.503677596776
 20
-903.7467921833265
 30
0.0
 11
3400.503677596776
 21
-899.2490050395264
 31
0.0
  0
LINE
  5
419
  8
0
 10
3021.503677596775
 20
-686.7556436081265
 30
0.0
 11
3361.768514065653
 21
-686.7556436081265
 31
0.0
  0
LINE
  5
41A
  8
0
 10
3021.503677596775
 20
-686.7556436081265
 30
0.0
 11
3021.503677596775
 21
-740.7512178957268
 31
0.0
  0
LINE
  5
41B
  8
0
 10
241.4401653774112
 20
-744.2512178957263
 30
0.0
 11
410.5036775967746
 21
-744.2512178957263
 31
0.0
  0
LINE
  5
41C
  8
0
 10
410.5036775967746
 20
-788.2512178957263
 30
0.0
 11
241.4401653774112
 21
-788.2512178957263
 31
0.0
  0
ARC
  5
41D
  8
0
 10
241.4401653774112
 20
-766.2512178957268
 30
0.0
 40
22.0
 50
90.0
 51
270.0
  0
ARC
  5
41E
  8
0
 10
410.5036775967746
 20
-766.2512178957268
 30
0.0
 40
22.00000000000003
 50
270.0
 51
90.0
  0
CIRCLE
  5
41F
  8
0
 39
31.83440005694778
 10
199.0181488810194
 20
-756.5386787158918
 30
0.0
 40
3.25
  0
CIRCLE
  5
420
  8
0
 39
31.83440005694778
 10
176.5028102767392
 20
-756.5386787158918
 30
0.0
 40
3.25
  0
CIRCLE
  5
421
  8
0
 39
31.83440005694778
 10
200.0816611003829
 20
-931.9152423209586
 30
0.0
 40
3.25
  0
CIRCLE
  5
422
  8
0
 39
31.83440005694778
 10
177.5663224961026
 20
-931.9152423209586
 30
0.0
 40
3.25
  0
CIRCLE
  5
423
  8
0
 39
31.83440005694778
 10
200.0816611003829
 20
-871.1759278973461
 30
0.0
 40
3.25
  0
CIRCLE
  5
424
  8
0
 39
31.83440005694778
 10
177.5663224961026
 20
-871.1759278973461
 30
0.0
 40
3.25
  0
CIRCLE
  5
425
  8
0
 39
31.83440005694778
 10
177.5663224961026
 20
-1008.906763256977
 30
0.0
 40
3.25
  0
LINE
  5
426
  8
0
 10
3210.503677596776
 20
-1012.746792183327
 30
0.0
 11
3207.503677596776
 21
-1022.746792183327
 31
0.0
  0
LINE
  5
427
  8
0
 10
3210.503677596776
 20
-1012.746792183327
 30
0.0
 11
3213.503677596775
 21
-1022.746792183327
 31
0.0
  0
LINE
  5
428
  8
0
 10
3130.503677596776
 20
-1012.746792183327
 30
0.0
 11
3127.503677596775
 21
-1022.746792183327
 31
0.0
  0
LINE
  5
429
  8
0
 10
3130.503677596776
 20
-1012.746792183327
 30
0.0
 11
3133.503677596774
 21
-1022.746792183327
 31
0.0
  0
LINE
  5
42A
  8
0
 10
2280.503677596775
 20
-1012.746792183327
 30
0.0
 11
2277.503677596775
 21
-1022.746792183327
 31
0.0
  0
LINE
  5
42B
  8
0
 10
2280.503677596775
 20
-1012.746792183327
 30
0.0
 11
2283.503677596775
 21
-1022.746792183327
 31
0.0
  0
LINE
  5
42C
  8
0
 10
2200.503677596775
 20
-1012.746792183327
 30
0.0
 11
2197.503677596775
 21
-1022.746792183327
 31
0.0
  0
LINE
  5
42D
  8
0
 10
2200.503677596775
 20
-1012.746792183327
 30
0.0
 11
2203.503677596775
 21
-1022.746792183327
 31
0.0
  0
LINE
  5
42E
  8
0
 10
3361.768514065653
 20
-730.2534307519265
 30
0.0
 11
3353.768514065653
 21
-733.2534307519265
 31
0.0
  0
LINE
  5
42F
  8
0
 10
3353.768514065653
 20
-733.2534307519265
 30
0.0
 11
3361.768514065653
 21
-736.2534307519265
 31
0.0
  0
LINE
  5
430
  8
0
 10
3400.503677596776
 20
-893.2490050395267
 30
0.0
 11
3392.503677596776
 21
-896.2490050395265
 31
0.0
  0
LINE
  5
431
  8
0
 10
3392.503677596776
 20
-896.2490050395265
 30
0.0
 11
3400.503677596776
 21
-899.2490050395268
 31
0.0
  0
LINE
  5
432
  8
0
 10
100.5036775967746
 20
-730.2534307519265
 30
0.0
 11
108.5036775967746
 21
-733.2534307519265
 31
0.0
  0
LINE
  5
433
  8
0
 10
108.5036775967746
 20
-733.2534307519265
 30
0.0
 11
100.5036775967746
 21
-736.2534307519265
 31
0.0
  0
LINE
  5
434
  8
0
 10
100.5036775967746
 20
-893.2490050395267
 30
0.0
 11
108.5036775967746
 21
-896.2490050395265
 31
0.0
  0
LINE
  5
435
  8
0
 10
108.5036775967746
 20
-896.2490050395265
 30
0.0
 11
100.5036775967746
 21
-899.2490050395268
 31
0.0
  0
LINE
  5
436
  8
0
 10
100.5036775967746
 20
-736.2534307519265
 30
0.0
 11
100.5036775967746
 21
-893.2490050395267
 31
0.0
  0
LINE
  5
437
  8
0
 10
100.5036775967746
 20
-899.2490050395268
 30
0.0
 11
100.5036775967746
 21
-1022.746792183327
 31
0.0
  0
LINE
  5
438
  8
0
 10
3400.503677596776
 20
-893.2490050395267
 30
0.0
 11
3400.503677596776
 21
-736.2534307519265
 31
0.0
  0
LINE
  5
439
  8
0
 10
3361.768514065654
 20
-730.2534307519265
 30
0.0
 11
3361.768514065653
 21
-686.7556436081265
 31
0.0
  0
LINE
  5
43A
  8
0
 10
3469.070048211174
 20
-896.746792183327
 30
0.0
 11
3469.070048211174
 21
-919.7467921833263
 31
0.0
  0
LINE
  5
43B
  8
0
 10
3406.503677596776
 20
-896.7467921833264
 30
0.0
 11
3406.503677596776
 21
-919.7467921833263
 31
0.0
  0
LINE
  5
63B
  8
0
 10
1560.503677596775
 20
-1012.746792183327
 30
0.0
 11
1557.503677596776
 21
-1022.746792183327
 31
0.0
  0
LINE
  5
63C
  8
0
 10
1560.503677596775
 20
-1012.746792183327
 30
0.0
 11
1563.503677596774
 21
-1022.746792183327
 31
0.0
  0
LINE
  5
63D
  8
0
 10
1563.503677596774
 20
-1022.746792183327
 30
0.0
 11
2197.503677596775
 21
-1022.746792183327
 31
0.0
  0
LINE
  5
8C8
  8
0
 10
1500.503677596775
 20
-1012.746792183327
 30
0.0
 11
1497.503677596776
 21
-1022.746792183327
 31
0.0
  0
LINE
  5
8C9
  8
0
 10
1500.503677596775
 20
-1012.746792183327
 30
0.0
 11
1503.503677596774
 21
-1022.746792183327
 31
0.0
  0
LINE
  5
8CA
  8
0
 10
1503.503677596774
 20
-1022.746792183327
 30
0.0
 11
1557.503677596776
 21
-1022.746792183327
 31
0.0
  0
LINE
  5
B80
  8
0
 10
3361.768514065653
 20
-736.2534307519265
 30
0.0
 11
3400.503677596776
 21
-736.2534307519265
 31
0.0
  0
ENDSEC
  0
EOF
