  0
SECTION
  2
HEADER
  9
$ACADVER
  1
AC1009
  9
$DWGCODEPAGE
  3
ansi_1252
  9
$INSBASE
 10
0.0
 20
0.0
 30
0.0
  9
$EXTMIN
 10
2.963120625771922
 20
3.072745986002471
 30
0.0
  9
$EXTMAX
 10
315.669133669565
 20
586.0727459860188
 30
31.83440005694778
  9
$LIMMIN
 10
0.0
 20
0.0
  9
$LIMMAX
 10
12.0
 20
9.0
  9
$ORTHOMODE
 70
     0
  9
$REGENMODE
 70
     1
  9
$FILLMODE
 70
     1
  9
$QTEXTMODE
 70
     0
  9
$MIRRTEXT
 70
     0
  9
$DRAGMODE
 70
     2
  9
$LTSCALE
 40
1.0
  9
$OSMODE
 70
  1023
  9
$ATTMODE
 70
     1
  9
$TEXTSIZE
 40
0.2
  9
$TRACEWID
 40
0.05
  9
$TEXTSTYLE
  7
STANDARD
  9
$CLAYER
  8
0
  9
$CELTYPE
  6
BYLAYER
  9
$CECOLOR
 62
   256
  9
$DIMSCALE
 40
1.0
  9
$DIMASZ
 40
0.18
  9
$DIMEXO
 40
0.0625
  9
$DIMDLI
 40
0.38
  9
$DIMRND
 40
0.0
  9
$DIMDLE
 40
0.0
  9
$DIMEXE
 40
0.18
  9
$DIMTP
 40
0.0
  9
$DIMTM
 40
0.0
  9
$DIMTXT
 40
0.18
  9
$DIMCEN
 40
0.09
  9
$DIMTSZ
 40
0.0
  9
$DIMTOL
 70
     0
  9
$DIMLIM
 70
     0
  9
$DIMTIH
 70
     1
  9
$DIMTOH
 70
     1
  9
$DIMSE1
 70
     0
  9
$DIMSE2
 70
     0
  9
$DIMTAD
 70
     0
  9
$DIMZIN
 70
     0
  9
$DIMBLK
  1

  9
$DIMASO
 70
     1
  9
$DIMSHO
 70
     1
  9
$DIMPOST
  1

  9
$DIMAPOST
  1

  9
$DIMALT
 70
     0
  9
$DIMALTD
 70
     2
  9
$DIMALTF
 40
25.4
  9
$DIMLFAC
 40
1.0
  9
$DIMTOFL
 70
     0
  9
$DIMTVP
 40
0.0
  9
$DIMTIX
 70
     0
  9
$DIMSOXD
 70
     0
  9
$DIMSAH
 70
     0
  9
$DIMBLK1
  1

  9
$DIMBLK2
  1

  9
$DIMSTYLE
  2
STANDARD
  9
$DIMCLRD
 70
     0
  9
$DIMCLRE
 70
     0
  9
$DIMCLRT
 70
     0
  9
$DIMTFAC
 40
1.0
  9
$DIMGAP
 40
0.09
  9
$LUNITS
 70
     2
  9
$LUPREC
 70
     4
  9
$SKETCHINC
 40
0.1
  9
$FILLETRAD
 40
0.0
  9
$AUNITS
 70
     0
  9
$AUPREC
 70
     0
  9
$MENU
  1
.
  9
$ELEVATION
 40
0.0
  9
$PELEVATION
 40
0.0
  9
$THICKNESS
 40
0.0
  9
$LIMCHECK
 70
     0
  9
$CHAMFERA
 40
0.0
  9
$CHAMFERB
 40
0.0
  9
$SKPOLY
 70
     0
  9
$TDCREATE
 40
2452643.146717604
  9
$TDUPDATE
 40
2456828.794124607
  9
$TDINDWG
 40
0.0002654745
  9
$TDUSRTIMER
 40
2456828.710525845
  9
$USRTIMER
 70
     1
  9
$ANGBASE
 50
0.0
  9
$ANGDIR
 70
     0
  9
$PDMODE
 70
     0
  9
$PDSIZE
 40
0.0
  9
$PLINEWID
 40
0.0
  9
$COORDS
 70
     1
  9
$SPLFRAME
 70
     0
  9
$SPLINETYPE
 70
     6
  9
$SPLINESEGS
 70
     8
  9
$ATTDIA
 70
     0
  9
$ATTREQ
 70
     1
  9
$HANDLING
 70
     1
  9
$HANDSEED
  5
1A3
  9
$SURFTAB1
 70
     6
  9
$SURFTAB2
 70
     6
  9
$SURFTYPE
 70
     6
  9
$SURFU
 70
     6
  9
$SURFV
 70
     6
  9
$UCSNAME
  2

  9
$UCSORG
 10
0.0
 20
0.0
 30
0.0
  9
$UCSXDIR
 10
1.0
 20
0.0
 30
0.0
  9
$UCSYDIR
 10
0.0
 20
1.0
 30
0.0
  9
$PUCSNAME
  2

  9
$PUCSORG
 10
0.0
 20
0.0
 30
0.0
  9
$PUCSXDIR
 10
1.0
 20
0.0
 30
0.0
  9
$PUCSYDIR
 10
0.0
 20
1.0
 30
0.0
  9
$USERI1
 70
     0
  9
$USERI2
 70
     0
  9
$USERI3
 70
     0
  9
$USERI4
 70
     0
  9
$USERI5
 70
     0
  9
$USERR1
 40
0.0
  9
$USERR2
 40
0.0
  9
$USERR3
 40
0.0
  9
$USERR4
 40
0.0
  9
$USERR5
 40
0.0
  9
$WORLDVIEW
 70
     1
  9
$SHADEDGE
 70
     3
  9
$SHADEDIF
 70
    70
  9
$TILEMODE
 70
     1
  9
$MAXACTVP
 70
    64
  9
$PLIMCHECK
 70
     0
  9
$PEXTMIN
 10
0.0
 20
0.0
 30
0.0
  9
$PEXTMAX
 10
0.0
 20
0.0
 30
0.0
  9
$PLIMMIN
 10
0.0
 20
0.0
  9
$PLIMMAX
 10
0.0
 20
0.0
  9
$UNITMODE
 70
     0
  9
$VISRETAIN
 70
     1
  9
$PLINEGEN
 70
     0
  9
$PSLTSCALE
 70
     1
  0
ENDSEC
  0
SECTION
  2
TABLES
  0
TABLE
  2
VPORT
 70
     1
  0
VPORT
  2
*ACTIVE
 70
     0
 10
0.0
 20
0.0
 11
1.0
 21
1.0
 12
303.4671016407089
 22
309.721771497701
 13
0.0
 23
0.0
 14
0.5
 24
0.5
 15
0.5
 25
0.5
 16
0.0
 26
0.0
 36
1.0
 17
-27.66959356597982
 27
-19.53870295786203
 37
0.0
 40
1459.458498305027
 41
1.79971181556196
 42
50.0
 43
0.0
 44
0.0
 50
0.0
 51
0.0
 71
    16
 72
  1000
 73
     1
 74
     3
 75
     0
 76
     0
 77
     0
 78
     0
  0
ENDTAB
  0
TABLE
  2
LTYPE
 70
     1
  0
LTYPE
  2
CONTINUOUS
 70
     0
  3
Solid line
 72
    65
 73
     0
 40
0.0
  0
ENDTAB
  0
TABLE
  2
LAYER
 70
     1
  0
LAYER
  2
0
 70
     0
 62
     7
  6
CONTINUOUS
  0
ENDTAB
  0
TABLE
  2
STYLE
 70
     1
  0
STYLE
  2
STANDARD
 70
     0
 40
0.0
 41
1.0
 50
0.0
 71
     0
 42
0.2
  3
arial.ttf
  4

  0
ENDTAB
  0
TABLE
  2
VIEW
 70
     0
  0
ENDTAB
  0
TABLE
  2
UCS
 70
     0
  0
ENDTAB
  0
TABLE
  2
APPID
 70
     2
  0
APPID
  2
ACAD
 70
     0
  0
APPID
  2
ACAD_PSEXT
 70
     0
  0
ENDTAB
  0
TABLE
  2
DIMSTYLE
 70
     2
  0
DIMSTYLE
  2
STANDARD
 70
     0
  3

  4

  5

  6

  7

 40
1.0
 41
0.18
 42
0.0625
 43
0.38
 44
0.18
 45
0.0
 46
0.0
 47
0.0
 48
0.0
140
0.18
141
0.09
142
0.0
143
25.4
144
1.0
145
0.0
146
1.0
147
0.09
 71
     0
 72
     0
 73
     1
 74
     1
 75
     0
 76
     0
 77
     0
 78
     0
170
     0
171
     2
172
     0
173
     0
174
     0
175
     0
176
     0
177
     0
178
     0
  0
DIMSTYLE
  2
ISO-25
 70
     0
  3

  4

  5

  6

  7

 40
1.0
 41
2.5
 42
0.625
 43
3.75
 44
1.25
 45
0.0
 46
0.0
 47
0.0
 48
0.0
140
2.5
141
2.5
142
0.0
143
0.03937007874016
144
1.0
145
0.0
146
1.0
147
0.625
 71
     0
 72
     0
 73
     0
 74
     0
 75
     0
 76
     0
 77
     1
 78
     8
170
     0
171
     3
172
     1
173
     0
174
     0
175
     0
176
     0
177
     0
178
     0
  0
ENDTAB
  0
ENDSEC
  0
SECTION
  2
BLOCKS
  0
BLOCK
  8
0
  2
$MODEL_SPACE
 70
     0
 10
0.0
 20
0.0
 30
0.0
  3
$MODEL_SPACE
  1

  0
ENDBLK
  5
21
  8
0
  0
BLOCK
 67
     1
  8
0
  2
$PAPER_SPACE
 70
     0
 10
0.0
 20
0.0
 30
0.0
  3
$PAPER_SPACE
  1

  0
ENDBLK
  5
5B
 67
     1
  8
0
  0
ENDSEC
  0
SECTION
  2
ENTITIES
  0
LINE
  5
177
  8
0
 10
201.3161271476685
 20
3.072745986009747
 30
0.0
 11
211.609078828301
 21
3.072745986002471
 31
0.0
  0
LINE
  5
178
  8
0
 10
315.669133669565
 20
586.0727459860188
 30
0.0
 11
315.669133669565
 21
408.8964186227674
 31
0.0
  0
LINE
  5
179
  8
0
 10
315.669133669565
 20
408.8964186227674
 30
0.0
 11
259.6173427827536
 21
44.10111071736696
 31
0.0
  0
ARC
  5
17A
  8
0
 10
206.5056131161447
 20
57.64641968411684
 30
0.0
 40
54.81177996729687
 50
275.3424865204402
 51
345.6926067910858
  0
LINE
  5
17B
  8
0
 10
315.669133669565
 20
586.0727459860188
 30
0.0
 11
201.3161271476685
 21
586.0727459860188
 31
0.0
  0
LINE
  5
17C
  8
0
 10
208.3408090690001
 20
208.2040352704569
 30
0.0
 11
110.2914452263368
 21
208.2040352704569
 31
0.0
  0
LINE
  5
17D
  8
0
 10
208.3408090690001
 20
280.731751383966
 30
0.0
 11
110.2914452263368
 21
280.731751383966
 31
0.0
  0
LINE
  5
17E
  8
0
 10
223.3408090690001
 20
265.731751383966
 30
0.0
 11
223.3408090690001
 21
223.2040352704569
 31
0.0
  0
ARC
  5
17F
  8
0
 10
208.3408090690001
 20
223.2040352704569
 30
0.0
 40
15.0
 50
270.0
 51
0.0
  0
ARC
  5
180
  8
0
 10
208.3408090690001
 20
265.731751383966
 30
0.0
 40
15.0
 50
0.0
 51
90.0
  0
LINE
  5
181
  8
0
 39
31.83440005694778
 10
165.0161271476292
 20
461.0316518326724
 30
0.0
 11
165.0161271476292
 21
451.0316518326579
 31
0.0
  0
LINE
  5
182
  8
0
 39
31.83440005694778
 10
153.6161271476714
 20
461.0316518326724
 30
0.0
 11
153.6161271476714
 21
451.0316518326579
 31
0.0
  0
ARC
  5
183
  8
0
 10
159.3161271476685
 20
451.0316518326579
 30
0.0
 40
5.699999999998182
 50
180.0
 51
0.0
  0
ARC
  5
184
  8
0
 10
159.3161271476685
 20
461.0316518326724
 30
0.0
 40
5.699999999998182
 50
0.0
 51
180.0
  0
LINE
  5
185
  8
0
 39
31.83440005694778
 10
165.0161271476292
 20
189.4678933272187
 30
0.0
 11
165.0161271476292
 21
179.4678933272041
 31
0.0
  0
LINE
  5
186
  8
0
 39
31.83440005694778
 10
153.6161271476714
 20
189.4678933272187
 30
0.0
 11
153.6161271476714
 21
179.4678933272041
 31
0.0
  0
ARC
  5
187
  8
0
 10
159.3161271476685
 20
179.4678933272041
 30
0.0
 40
5.699999999998182
 50
180.0
 51
0.0
  0
ARC
  5
188
  8
0
 10
159.3161271476685
 20
189.4678933272187
 30
0.0
 40
5.699999999998182
 50
0.0
 51
180.0
  0
LINE
  5
189
  8
0
 39
31.83440005694778
 10
165.0161271476292
 20
25.50978138311961
 30
0.0
 11
165.0161271476292
 21
15.50978138310506
 31
0.0
  0
LINE
  5
18A
  8
0
 39
31.83440005694778
 10
153.6161271476714
 20
25.50978138311961
 30
0.0
 11
153.6161271476714
 21
15.50978138310506
 31
0.0
  0
ARC
  5
18B
  8
0
 10
159.3161271476685
 20
15.50978138310506
 30
0.0
 40
5.699999999998182
 50
180.0
 51
0.0
  0
ARC
  5
18C
  8
0
 10
159.3161271476685
 20
25.50978138311961
 30
0.0
 40
5.699999999998182
 50
0.0
 51
180.0
  0
LINE
  5
18D
  8
0
 10
201.3161271476685
 20
586.0727459860188
 30
0.0
 11
199.3161271476685
 21
578.0727459860188
 31
0.0
  0
LINE
  5
18E
  8
0
 10
199.3161271476685
 20
578.0727459860188
 30
0.0
 11
197.3161271476685
 21
586.0727459860043
 31
0.0
  0
LINE
  5
18F
  8
0
 10
201.3161271476685
 20
3.072745986009747
 30
0.0
 11
199.3161271476685
 21
11.07274598600975
 31
0.0
  0
LINE
  5
190
  8
0
 10
199.3161271476685
 20
11.07274598600975
 30
0.0
 11
197.3161271476685
 21
3.072745986024299
 31
0.0
  0
LINE
  5
191
  8
0
 39
31.83440005694778
 10
165.0161271476292
 20
299.4678933272041
 30
0.0
 11
165.0161271476292
 21
309.4678933272187
 31
0.0
  0
LINE
  5
192
  8
0
 39
31.83440005694778
 10
153.6161271476714
 20
299.4678933272041
 30
0.0
 11
153.6161271476714
 21
309.4678933272187
 31
0.0
  0
ARC
  5
193
  8
0
 10
159.3161271476685
 20
309.4678933272187
 30
0.0
 40
5.699999999998182
 50
0.0
 51
180.0
  0
ARC
  5
194
  8
0
 10
159.3161271476685
 20
299.4678933272041
 30
0.0
 40
5.699999999998182
 50
180.0
 51
0.0
  0
LINE
  5
195
  8
0
 10
117.3161271476685
 20
3.072745986009747
 30
0.0
 11
107.0231754670359
 21
3.072745986002471
 31
0.0
  0
LINE
  5
196
  8
0
 10
95.2914452263368
 20
265.731751383966
 30
0.0
 11
95.2914452263368
 21
223.2040352704569
 31
0.0
  0
ARC
  5
197
  8
0
 10
110.2914452263368
 20
223.2040352704569
 30
0.0
 40
15.0
 50
180.0
 51
270.0
  0
ARC
  5
198
  8
0
 10
110.2914452263368
 20
265.731751383966
 30
0.0
 40
15.0
 50
90.0
 51
180.0
  0
LINE
  5
199
  8
0
 10
117.3161271476685
 20
586.0727459860188
 30
0.0
 11
119.3161271476685
 21
578.0727459860188
 31
0.0
  0
LINE
  5
19A
  8
0
 10
119.3161271476685
 20
578.0727459860188
 30
0.0
 11
121.3161271476685
 21
586.0727459860043
 31
0.0
  0
LINE
  5
19B
  8
0
 10
117.3161271476685
 20
3.072745986009747
 30
0.0
 11
119.3161271476685
 21
11.07274598600975
 31
0.0
  0
LINE
  5
19C
  8
0
 10
119.3161271476685
 20
11.07274598600975
 30
0.0
 11
121.3161271476685
 21
3.072745986024299
 31
0.0
  0
LINE
  5
19D
  8
0
 10
121.3161271476685
 20
586.0727459860043
 30
0.0
 11
197.3161271476685
 21
586.0727459860043
 31
0.0
  0
LINE
  5
19E
  8
0
 10
121.3161271476685
 20
3.072745986024299
 30
0.0
 11
197.3161271476685
 21
3.072745986024299
 31
0.0
  0
LINE
  5
19F
  8
0
 10
2.963120625771922
 20
586.0727459860188
 30
0.0
 11
2.963120625771922
 21
408.8964186227674
 31
0.0
  0
LINE
  5
1A0
  8
0
 10
2.963120625771922
 20
408.8964186227674
 30
0.0
 11
59.01491151258335
 21
44.10111071736696
 31
0.0
  0
ARC
  5
1A1
  8
0
 10
112.1266411791922
 20
57.64641968411684
 30
0.0
 40
54.81177996729687
 50
194.3073932089142
 51
264.6575134795598
  0
LINE
  5
1A2
  8
0
 10
2.963120625771922
 20
586.0727459860188
 30
0.0
 11
117.3161271476685
 21
586.0727459860188
 31
0.0
  0
ENDSEC
  0
EOF
