  0
SECTION
  2
HEADER
  9
$ACADVER
  1
AC1009
  9
$DWGCODEPAGE
  3
ansi_1252
  9
$INSBASE
 10
0.0
 20
0.0
 30
0.0
  9
$EXTMIN
 10
30.63843562987517
 20
18.15909429516263
 30
0.0
  9
$EXTMAX
 10
4511.558902152219
 20
1514.868725115312
 30
31.83440005694778
  9
$LIMMIN
 10
0.0
 20
0.0
  9
$LIMMAX
 10
12.0
 20
9.0
  9
$ORTHOMODE
 70
     1
  9
$REGENMODE
 70
     1
  9
$FILLMODE
 70
     1
  9
$QTEXTMODE
 70
     0
  9
$MIRRTEXT
 70
     0
  9
$DRAGMODE
 70
     2
  9
$LTSCALE
 40
1.0
  9
$OSMODE
 70
   695
  9
$ATTMODE
 70
     1
  9
$TEXTSIZE
 40
0.2
  9
$TRACEWID
 40
0.05
  9
$TEXTSTYLE
  7
STANDARD
  9
$CLAYER
  8
0
  9
$CELTYPE
  6
BYLAYER
  9
$CECOLOR
 62
   256
  9
$DIMSCALE
 40
1.0
  9
$DIMASZ
 40
0.18
  9
$DIMEXO
 40
0.0625
  9
$DIMDLI
 40
0.38
  9
$DIMRND
 40
0.0
  9
$DIMDLE
 40
0.0
  9
$DIMEXE
 40
0.18
  9
$DIMTP
 40
0.0
  9
$DIMTM
 40
0.0
  9
$DIMTXT
 40
0.18
  9
$DIMCEN
 40
0.09
  9
$DIMTSZ
 40
0.0
  9
$DIMTOL
 70
     0
  9
$DIMLIM
 70
     0
  9
$DIMTIH
 70
     1
  9
$DIMTOH
 70
     1
  9
$DIMSE1
 70
     0
  9
$DIMSE2
 70
     0
  9
$DIMTAD
 70
     0
  9
$DIMZIN
 70
     0
  9
$DIMBLK
  1

  9
$DIMASO
 70
     1
  9
$DIMSHO
 70
     1
  9
$DIMPOST
  1

  9
$DIMAPOST
  1

  9
$DIMALT
 70
     0
  9
$DIMALTD
 70
     2
  9
$DIMALTF
 40
25.4
  9
$DIMLFAC
 40
1.0
  9
$DIMTOFL
 70
     0
  9
$DIMTVP
 40
0.0
  9
$DIMTIX
 70
     0
  9
$DIMSOXD
 70
     0
  9
$DIMSAH
 70
     0
  9
$DIMBLK1
  1

  9
$DIMBLK2
  1

  9
$DIMSTYLE
  2
STANDARD
  9
$DIMCLRD
 70
     0
  9
$DIMCLRE
 70
     0
  9
$DIMCLRT
 70
     0
  9
$DIMTFAC
 40
1.0
  9
$DIMGAP
 40
0.09
  9
$LUNITS
 70
     2
  9
$LUPREC
 70
     4
  9
$SKETCHINC
 40
0.1
  9
$FILLETRAD
 40
0.0
  9
$AUNITS
 70
     0
  9
$AUPREC
 70
     0
  9
$MENU
  1
.
  9
$ELEVATION
 40
0.0
  9
$PELEVATION
 40
0.0
  9
$THICKNESS
 40
0.0
  9
$LIMCHECK
 70
     0
  9
$CHAMFERA
 40
0.0
  9
$CHAMFERB
 40
0.0
  9
$SKPOLY
 70
     0
  9
$TDCREATE
 40
2456244.367871609
  9
$TDUPDATE
 40
2459129.274642118
  9
$TDINDWG
 40
0.0559917245
  9
$TDUSRTIMER
 40
0.0003452894
  9
$USRTIMER
 70
     1
  9
$ANGBASE
 50
0.0
  9
$ANGDIR
 70
     0
  9
$PDMODE
 70
     0
  9
$PDSIZE
 40
0.0
  9
$PLINEWID
 40
0.0
  9
$COORDS
 70
     1
  9
$SPLFRAME
 70
     0
  9
$SPLINETYPE
 70
     6
  9
$SPLINESEGS
 70
     8
  9
$ATTDIA
 70
     0
  9
$ATTREQ
 70
     1
  9
$HANDLING
 70
     1
  9
$HANDSEED
  5
71C
  9
$SURFTAB1
 70
     6
  9
$SURFTAB2
 70
     6
  9
$SURFTYPE
 70
     6
  9
$SURFU
 70
     6
  9
$SURFV
 70
     6
  9
$UCSNAME
  2

  9
$UCSORG
 10
0.0
 20
0.0
 30
0.0
  9
$UCSXDIR
 10
1.0
 20
0.0
 30
0.0
  9
$UCSYDIR
 10
0.0
 20
1.0
 30
0.0
  9
$PUCSNAME
  2

  9
$PUCSORG
 10
0.0
 20
0.0
 30
0.0
  9
$PUCSXDIR
 10
1.0
 20
0.0
 30
0.0
  9
$PUCSYDIR
 10
0.0
 20
1.0
 30
0.0
  9
$USERI1
 70
     0
  9
$USERI2
 70
     0
  9
$USERI3
 70
     0
  9
$USERI4
 70
     0
  9
$USERI5
 70
     0
  9
$USERR1
 40
0.0
  9
$USERR2
 40
0.0
  9
$USERR3
 40
0.0
  9
$USERR4
 40
0.0
  9
$USERR5
 40
0.0
  9
$WORLDVIEW
 70
     1
  9
$SHADEDGE
 70
     3
  9
$SHADEDIF
 70
    70
  9
$TILEMODE
 70
     1
  9
$MAXACTVP
 70
    64
  9
$PLIMCHECK
 70
     0
  9
$PEXTMIN
 10
0.0
 20
0.0
 30
0.0
  9
$PEXTMAX
 10
0.0
 20
0.0
 30
0.0
  9
$PLIMMIN
 10
0.0
 20
0.0
  9
$PLIMMAX
 10
0.0
 20
0.0
  9
$UNITMODE
 70
     0
  9
$VISRETAIN
 70
     1
  9
$PLINEGEN
 70
     0
  9
$PSLTSCALE
 70
     1
  0
ENDSEC
  0
SECTION
  2
TABLES
  0
TABLE
  2
VPORT
 70
     1
  0
VPORT
  2
*ACTIVE
 70
     0
 10
0.0
 20
0.0
 11
1.0
 21
1.0
 12
5346.70525515099
 22
861.9934117756505
 13
0.0
 23
0.0
 14
0.5
 24
0.5
 15
0.5
 25
0.5
 16
0.0
 26
0.0
 36
1.0
 17
0.0
 27
0.0
 37
0.0
 40
3951.93196310988
 41
2.287157287157287
 42
50.0
 43
0.0
 44
0.0
 50
0.0
 51
0.0
 71
    16
 72
  1000
 73
     1
 74
     3
 75
     0
 76
     0
 77
     0
 78
     0
  0
ENDTAB
  0
TABLE
  2
LTYPE
 70
     1
  0
LTYPE
  2
CONTINUOUS
 70
     0
  3
Solid line
 72
    65
 73
     0
 40
0.0
  0
ENDTAB
  0
TABLE
  2
LAYER
 70
     1
  0
LAYER
  2
0
 70
     0
 62
     7
  6
CONTINUOUS
  0
ENDTAB
  0
TABLE
  2
STYLE
 70
     3
  0
STYLE
  2
STANDARD
 70
     0
 40
0.0
 41
1.0
 50
0.0
 71
     0
 42
0.2
  3
txt.shx
  4

  0
STYLE
  2
ANNOTATIVE
 70
     0
 40
0.0
 41
1.0
 50
0.0
 71
     0
 42
0.2
  3
txt
  4

  0
STYLE
  2
ANNOTATIVA
 70
     0
 40
0.0
 41
1.0
 50
0.0
 71
     0
 42
0.2
  3
txt.shx
  4

  0
ENDTAB
  0
TABLE
  2
VIEW
 70
     0
  0
ENDTAB
  0
TABLE
  2
UCS
 70
     0
  0
ENDTAB
  0
TABLE
  2
APPID
 70
     7
  0
APPID
  2
ACAD
 70
     0
  0
APPID
  2
ACADANNOTATIVE
 70
     0
  0
APPID
  2
ACAD_MLEADERVER
 70
     0
  0
APPID
  2
ACADANNOPO
 70
     0
  0
APPID
  2
ACAD_DSTYLE_DIMJAG
 70
     0
  0
APPID
  2
ACAD_DSTYLE_DIMTALN
 70
     0
  0
APPID
  2
ACAD_EXEMPT_FROM_CAD_STAND
 70
     0
  0
ENDTAB
  0
TABLE
  2
DIMSTYLE
 70
     4
  0
DIMSTYLE
  2
STANDARD
 70
     0
  3

  4

  5

  6

  7

 40
1.0
 41
0.18
 42
0.0625
 43
0.38
 44
0.18
 45
0.0
 46
0.0
 47
0.0
 48
0.0
140
0.18
141
0.09
142
0.0
143
25.4
144
1.0
145
0.0
146
1.0
147
0.09
 71
     0
 72
     0
 73
     1
 74
     1
 75
     0
 76
     0
 77
     0
 78
     0
170
     0
171
     2
172
     0
173
     0
174
     0
175
     0
176
     0
177
     0
178
     0
  0
DIMSTYLE
  2
ANNOTATIVE
 70
     0
  3

  4

  5

  6

  7

 40
1.0
 41
0.18
 42
0.0625
 43
0.38
 44
0.18
 45
0.0
 46
0.0
 47
0.0
 48
0.0
140
0.18
141
0.09
142
0.0
143
25.4
144
1.0
145
0.0
146
1.0
147
0.09
 71
     0
 72
     0
 73
     1
 74
     1
 75
     0
 76
     0
 77
     0
 78
     0
170
     0
171
     2
172
     0
173
     0
174
     0
175
     0
176
     0
177
     0
178
     0
  0
DIMSTYLE
  2
ANNOTATIVA
 70
     0
  3

  4

  5

  6

  7

 40
0.0
 41
0.18
 42
0.0625
 43
0.38
 44
0.18
 45
0.0
 46
0.0
 47
0.0
 48
0.0
140
0.18
141
0.09
142
0.0
143
25.4
144
1.0
145
0.0
146
1.0
147
0.09
 71
     0
 72
     0
 73
     1
 74
     1
 75
     0
 76
     0
 77
     0
 78
     0
170
     0
171
     2
172
     0
173
     0
174
     0
175
     0
176
     0
177
     0
178
     0
  0
DIMSTYLE
  2
ISO-25
 70
     0
  3

  4

  5

  6

  7

 40
1.0
 41
2.5
 42
0.625
 43
3.75
 44
1.25
 45
0.0
 46
0.0
 47
0.0
 48
0.0
140
2.5
141
2.5
142
0.0
143
0.0393700787
144
1.0
145
0.0
146
1.0
147
0.625
 71
     0
 72
     0
 73
     0
 74
     0
 75
     0
 76
     0
 77
     1
 78
     8
170
     0
171
     3
172
     1
173
     0
174
     0
175
     0
176
     0
177
     0
178
     0
  0
ENDTAB
  0
ENDSEC
  0
SECTION
  2
BLOCKS
  0
BLOCK
  8
0
  2
$MODEL_SPACE
 70
     0
 10
0.0
 20
0.0
 30
0.0
  3
$MODEL_SPACE
  1

  0
ENDBLK
  5
52A
  8
0
  0
BLOCK
 67
     1
  8
0
  2
$PAPER_SPACE
 70
     0
 10
0.0
 20
0.0
 30
0.0
  3
$PAPER_SPACE
  1

  0
ENDBLK
  5
526
 67
     1
  8
0
  0
ENDSEC
  0
SECTION
  2
ENTITIES
  0
LINE
  5
1F5
  8
0
 39
31.83440005694778
 10
4348.059641274116
 20
43.15909429521425
 30
0.0
 11
4350.559641274143
 21
43.15909429524196
 31
0.0
  0
LINE
  5
1F6
  8
0
 39
31.83440005694778
 10
4298.559641274116
 20
43.15909429521425
 30
0.0
 11
4301.059641274116
 21
43.15909429521425
 31
0.0
  0
LINE
  5
1F7
  8
0
 39
31.83440005694778
 10
4301.059641274116
 20
40.15909429521349
 30
0.0
 11
4348.059641274116
 21
40.15909429521349
 31
0.0
  0
LINE
  5
1F8
  8
0
 39
31.83440005694778
 10
4350.559641274117
 20
18.15909429518338
 30
0.0
 11
4408.736672857534
 21
18.15909429521424
 31
0.0
  0
LINE
  5
1F9
  8
0
 39
31.83440005694778
 10
3376.559641274087
 20
18.1590942952147
 30
0.0
 11
3808.559641274088
 21
18.15909429520018
 31
0.0
  0
LINE
  5
1FA
  8
0
 39
31.83440005694778
 10
3324.559641274087
 20
43.15909429521425
 30
0.0
 11
3324.559641274117
 21
18.15909429524301
 31
0.0
  0
LINE
  5
1FB
  8
0
 39
31.83440005694778
 10
2892.559641274116
 20
18.15909429519384
 30
0.0
 11
3324.559641274117
 21
18.15909429538572
 31
0.0
  0
LINE
  5
1FC
  8
0
 39
31.83440005694778
 10
3324.559641274087
 20
43.15909429521425
 30
0.0
 11
3327.059641274087
 21
43.15909429521425
 31
0.0
  0
LINE
  5
1FD
  8
0
 39
31.83440005694778
 10
3374.059641274089
 20
43.15909429521425
 30
0.0
 11
3376.559641274087
 21
43.15909429521425
 31
0.0
  0
LINE
  5
1FE
  8
0
 39
31.83440005694778
 10
3327.059641274117
 20
40.15909429521349
 30
0.0
 11
3374.059641274116
 21
40.15909429521349
 31
0.0
  0
LINE
  5
1FF
  8
0
 39
31.83440005694778
 10
433.6179691075617
 20
41.15909429518513
 30
0.0
 11
475.9733716427967
 21
41.15909429521344
 31
0.0
  0
LINE
  5
200
  8
0
 39
31.83440005694778
 10
475.9733716427967
 20
41.15909429521344
 30
0.0
 11
480.6589021522177
 21
46.22137157160229
 31
0.0
  0
LINE
  5
201
  8
0
 39
31.83440005694778
 10
480.6589021522177
 20
40.22686902318288
 30
0.0
 11
480.6589021522177
 21
18.15909429518338
 31
0.0
  0
LINE
  5
202
  8
0
 39
31.83440005694778
 10
480.6589021522177
 20
46.22137157160229
 30
0.0
 11
488.6515722167776
 21
43.22412029739273
 31
0.0
  0
LINE
  5
203
  8
0
 39
31.83440005694778
 10
488.6515722167776
 20
43.22412029739273
 30
0.0
 11
480.6589021522177
 21
40.22686902318288
 31
0.0
  0
LINE
  5
204
  8
0
 39
31.83440005694778
 10
480.6589021522177
 20
18.15909429518338
 30
0.0
 11
904.559641274116
 21
18.15909429517069
 31
0.0
  0
LINE
  5
205
  8
0
 39
31.83440005694778
 10
956.5596412741154
 20
18.15909429517087
 30
0.0
 11
1388.559641274115
 21
18.15909429517082
 31
0.0
  0
LINE
  5
206
  8
0
 39
31.83440005694778
 10
2840.559641274115
 20
43.15909429523591
 30
0.0
 11
2843.059641274115
 21
43.15909429520703
 31
0.0
  0
LINE
  5
207
  8
0
 39
31.83440005694778
 10
2890.059641274144
 20
43.15909429520703
 30
0.0
 11
2892.559641274144
 21
43.15909429523591
 31
0.0
  0
LINE
  5
208
  8
0
 39
31.83440005694778
 10
2843.059641274115
 20
40.1590942952359
 30
0.0
 11
2890.059641274116
 21
40.15909429520703
 31
0.0
  0
LINE
  5
209
  8
0
 39
31.83440005694778
 10
430.6589021522177
 20
607.6806061295313
 30
0.0
 11
433.6642126678296
 21
618.2860857386071
 31
0.0
  0
LINE
  5
20A
  8
0
 39
31.83440005694778
 10
438.6589021522177
 20
620.1590942952422
 30
0.0
 11
433.6642126677707
 21
618.2860857386071
 31
0.0
  0
LINE
  5
20B
  8
0
 39
31.83440005694778
 10
430.6589021522177
 20
623.1590942952422
 30
0.0
 11
438.6589021522177
 21
620.1590942952422
 31
0.0
  0
LINE
  5
20C
  8
0
 39
31.83440005694778
 10
428.2750792259565
 20
623.1590942952422
 30
0.0
 11
430.6589021522177
 21
623.1590942952422
 31
0.0
  0
LINE
  5
20D
  8
0
 39
31.83440005694778
 10
4400.73667285753
 20
43.15909429524196
 30
0.0
 11
4408.736672857534
 21
40.15909429524317
 31
0.0
  0
LINE
  5
20E
  8
0
 39
31.83440005694778
 10
4408.736672857534
 20
46.15909429524335
 30
0.0
 11
4400.73667285753
 21
43.15909429524196
 31
0.0
  0
LINE
  5
20F
  8
0
 39
31.83440005694778
 10
4435.239537226199
 20
41.97412115909948
 30
0.0
 11
4437.55890215225
 21
48.15909429524204
 31
0.0
  0
LINE
  5
212
  8
0
 10
2892.559641274115
 20
18.15909429520703
 30
0.0
 11
2892.559641274144
 21
43.15909429523591
 31
0.0
  0
LINE
  5
213
  8
0
 10
2840.559641274115
 20
43.15909429526503
 30
0.0
 11
2840.559641274115
 21
18.15909429517849
 31
0.0
  0
LINE
  5
214
  8
0
 10
2843.059641274115
 20
43.15909429520703
 30
0.0
 11
2843.059641274115
 21
40.1590942952359
 31
0.0
  0
LINE
  5
215
  8
0
 10
2890.059641274116
 20
40.15909429520703
 30
0.0
 11
2890.059641274116
 21
43.15909429520703
 31
0.0
  0
LINE
  5
216
  8
0
 10
428.2750792259565
 20
623.1590942952422
 30
0.0
 11
428.2750792259565
 21
618.1590942952708
 31
0.0
  0
LINE
  5
217
  8
0
 10
4360.559641274115
 20
643.1590942952708
 30
0.0
 11
4511.558902152219
 21
643.2256839714051
 31
0.0
  0
LINE
  5
218
  8
0
 10
4360.559641274115
 20
643.1590942952708
 30
0.0
 11
4360.559641274115
 21
623.0954224469712
 31
0.0
  0
LINE
  5
219
  8
0
 10
4350.559641274117
 20
18.15909429518338
 30
0.0
 11
4350.559641274117
 21
43.15909429521425
 31
0.0
  0
LINE
  5
21A
  8
0
 10
4298.559641274116
 20
43.15909429518518
 30
0.0
 11
4298.559641274116
 21
18.15909429518338
 31
0.0
  0
LINE
  5
21B
  8
0
 10
4348.059641274116
 20
40.15909429521349
 30
0.0
 11
4348.059641274116
 21
43.15909429524196
 31
0.0
  0
LINE
  5
21C
  8
0
 10
4301.059641274116
 20
43.15909429521425
 30
0.0
 11
4301.059641274116
 21
40.15909429518513
 31
0.0
  0
LINE
  5
21D
  8
0
 10
3376.559641274087
 20
18.15909429521424
 30
0.0
 11
3376.559641274087
 21
43.15909429521425
 31
0.0
  0
LINE
  5
21E
  8
0
 10
3374.059641274089
 20
40.15909429521349
 30
0.0
 11
3374.059641274089
 21
43.15909429521425
 31
0.0
  0
LINE
  5
21F
  8
0
 10
3327.059641274087
 20
43.15909429521425
 30
0.0
 11
3327.059641274087
 21
40.15909429521349
 31
0.0
  0
LINE
  5
220
  8
0
 10
4360.559641274115
 20
617.2227661435998
 30
0.0
 11
4360.559641274115
 21
546.1590942952708
 31
0.0
  0
LINE
  5
221
  8
0
 10
4350.771880768517
 20
620.159094295271
 30
0.0
 11
4360.559641274147
 21
617.2227661435721
 31
0.0
  0
LINE
  5
222
  8
0
 10
4360.559641274147
 20
623.0954224469712
 30
0.0
 11
4350.771880768517
 21
620.159094295271
 31
0.0
  0
LINE
  5
223
  8
0
 10
4435.239537226199
 20
41.97412115909948
 30
0.0
 11
4433.402660677256
 21
41.97412115909948
 31
0.0
  0
CIRCLE
  5
224
  8
0
 10
4188.55890215222
 20
1401.798843596389
 30
0.0
 40
5.75
  0
LINE
  5
225
  8
0
 39
31.83440005694778
 10
430.6179691075323
 20
49.82379212339369
 30
0.0
 11
433.6179691075323
 21
41.15909429530172
 31
0.0
  0
LINE
  5
226
  8
0
 10
4437.55890215225
 20
546.1590942952708
 30
0.0
 11
4437.55890215225
 21
48.15909429524203
 31
0.0
  0
LINE
  5
227
  8
0
 10
430.6589021522177
 20
607.6806061295313
 30
0.0
 11
430.6179691075323
 21
49.82379212339369
 31
0.0
  0
LINE
  5
228
  8
0
 10
4408.736672857534
 20
18.15909429521424
 30
0.0
 11
4408.736672857534
 21
40.15909429524317
 31
0.0
  0
LINE
  5
229
  8
0
 10
4433.402660677256
 20
41.97412115909948
 30
0.0
 11
4411.736672857533
 21
41.97412115909948
 31
0.0
  0
LINE
  5
22A
  8
0
 10
4408.736672857534
 20
46.15909429524335
 30
0.0
 11
4411.736672857533
 21
46.15909429524335
 31
0.0
  0
LINE
  5
22B
  8
0
 10
4411.736672857533
 20
46.15909429524335
 30
0.0
 11
4411.736672857533
 21
41.97412115909948
 31
0.0
  0
LINE
  5
22C
  8
0
 39
31.83440005694778
 10
1388.559641274115
 20
43.15909429522004
 30
0.0
 11
1391.059641274115
 21
43.15909429519114
 31
0.0
  0
LINE
  5
22D
  8
0
 39
31.83440005694778
 10
1438.059641274146
 20
43.15909429519114
 30
0.0
 11
1440.559641274146
 21
43.15909429522004
 31
0.0
  0
LINE
  5
22E
  8
0
 39
31.83440005694778
 10
1391.059641274115
 20
40.15909429522004
 30
0.0
 11
1438.059641274116
 21
40.15909429519115
 31
0.0
  0
LINE
  5
22F
  8
0
 10
1440.559641274116
 20
18.15909429519116
 30
0.0
 11
1440.559641274146
 21
43.15909429522004
 31
0.0
  0
LINE
  5
230
  8
0
 10
1388.559641274115
 20
43.1590942952492
 30
0.0
 11
1388.559641274115
 21
18.15909429516263
 31
0.0
  0
LINE
  5
231
  8
0
 10
1391.059641274115
 20
43.15909429519114
 30
0.0
 11
1391.059641274115
 21
40.15909429522004
 31
0.0
  0
LINE
  5
232
  8
0
 10
1438.059641274116
 20
40.15909429519115
 30
0.0
 11
1438.059641274116
 21
43.15909429519114
 31
0.0
  0
LINE
  5
233
  8
0
 39
31.83440005694778
 10
1440.559641274116
 20
18.15909429519907
 30
0.0
 11
1872.559641274115
 21
18.15909429519052
 31
0.0
  0
LINE
  5
234
  8
0
 39
31.83440005694778
 10
1924.559641274116
 20
18.15909429518952
 30
0.0
 11
2356.559641274116
 21
18.15909429518088
 31
0.0
  0
LINE
  5
235
  8
0
 39
31.83440005694778
 10
2408.559641274116
 20
18.15909429517974
 30
0.0
 11
2840.559641274115
 21
18.15909429517116
 31
0.0
  0
LINE
  5
236
  8
0
 39
31.83440005694778
 10
904.559641274116
 20
43.15909429522386
 30
0.0
 11
907.059641274116
 21
43.15909429519495
 31
0.0
  0
LINE
  5
237
  8
0
 39
31.83440005694778
 10
954.0596412741447
 20
43.15909429519495
 30
0.0
 11
956.5596412741454
 21
43.15909429522386
 31
0.0
  0
LINE
  5
238
  8
0
 39
31.83440005694778
 10
907.059641274116
 20
40.15909429522385
 30
0.0
 11
954.0596412741158
 21
40.15909429519497
 31
0.0
  0
LINE
  5
239
  8
0
 10
956.5596412741154
 20
18.15909429519497
 30
0.0
 11
956.5596412741454
 21
43.15909429522386
 31
0.0
  0
LINE
  5
23A
  8
0
 10
904.559641274116
 20
43.15909429525301
 30
0.0
 11
904.559641274116
 21
18.15909429516644
 31
0.0
  0
LINE
  5
23B
  8
0
 10
907.059641274116
 20
43.15909429519495
 30
0.0
 11
907.059641274116
 21
40.15909429522385
 31
0.0
  0
LINE
  5
23C
  8
0
 10
954.0596412741158
 20
40.15909429519497
 30
0.0
 11
954.0596412741158
 21
43.15909429519495
 31
0.0
  0
ARC
  5
23D
  8
0
 10
4182.827267648482
 20
1366.258044985277
 30
0.0
 40
5.75
 50
80.83883510887976
 51
260.8388351088798
  0
ARC
  5
23E
  8
0
 10
4194.290536655959
 20
1366.258044985277
 30
0.0
 40
5.75
 50
279.1611648911294
 51
99.16116489112957
  0
ARC
  5
23F
  8
0
 10
4188.55890215222
 20
1401.798843596389
 30
0.0
 40
30.25000000000009
 50
260.8388351088757
 51
279.1611648911243
  0
ARC
  5
240
  8
0
 10
4188.55890215222
 20
1401.798843596389
 30
0.0
 40
41.74999999999999
 50
260.8388351088769
 51
279.1611648911232
  0
LINE
  5
241
  8
0
 10
30.63843562987563
 20
1514.868725115312
 30
0.0
 11
30.63843562987563
 21
1487.479511180143
 31
0.0
  0
LINE
  5
242
  8
0
 10
4511.558902152219
 20
1514.868725115312
 30
0.0
 11
30.63843562987563
 21
1514.868725115312
 31
0.0
  0
CIRCLE
  5
243
  8
0
 10
110.2613360363561
 20
1156.773919032775
 30
0.0
 40
7.5
  0
CIRCLE
  5
244
  8
0
 39
31.83440005694778
 10
113.6043884677079
 20
1225.383910057264
 30
0.0
 40
3.25
  0
CIRCLE
  5
245
  8
0
 39
31.83440005694778
 10
91.08904986342777
 20
1225.383910057264
 30
0.0
 40
3.25
  0
CIRCLE
  5
246
  8
0
 39
31.83440005694778
 10
70.8081682332438
 20
1293.975567500017
 30
0.0
 40
3.25
  0
CIRCLE
  5
247
  8
0
 39
31.83440005694778
 10
48.29282962896343
 20
1293.975567500017
 30
0.0
 40
3.25
  0
CIRCLE
  5
248
  8
0
 39
31.83440005694778
 10
130.2164191334838
 20
1056.440706339998
 30
0.0
 40
3.25
  0
CIRCLE
  5
249
  8
0
 39
31.83440005694778
 10
107.7010805292035
 20
1056.440706339998
 30
0.0
 40
3.25
  0
CIRCLE
  5
24A
  8
0
 39
31.83440005694778
 10
130.2164191334838
 20
689.5040891830871
 30
0.0
 40
3.25
  0
CIRCLE
  5
24B
  8
0
 39
31.83440005694778
 10
107.7010805292035
 20
689.5040891830871
 30
0.0
 40
3.25
  0
CIRCLE
  5
24C
  8
0
 39
31.83440005694778
 10
130.2164191334838
 20
852.121381346615
 30
0.0
 40
3.25
  0
CIRCLE
  5
24D
  8
0
 39
31.83440005694778
 10
107.7010805292035
 20
852.121381346615
 30
0.0
 40
3.25
  0
CIRCLE
  5
24E
  8
0
 39
31.83440005694778
 10
70.8081682332438
 20
1400.883188468474
 30
0.0
 40
3.25
  0
CIRCLE
  5
24F
  8
0
 39
31.83440005694778
 10
48.29282962896343
 20
1400.883188468474
 30
0.0
 40
3.25
  0
CIRCLE
  5
254
  8
0
 39
31.83440005694778
 10
377.9050856405032
 20
1504.013802915443
 30
0.0
 40
3.0
  0
CIRCLE
  5
255
  8
0
 39
31.83440005694778
 10
93.18795395192386
 20
1504.013802915443
 30
0.0
 40
3.0
  0
LINE
  5
259
  8
0
 10
30.63843562987563
 20
1044.394359545742
 30
0.0
 11
40.63843562987528
 21
1041.394359545741
 31
0.0
  0
LINE
  5
25A
  8
0
 10
40.63843562987528
 20
1041.394359545741
 30
0.0
 11
30.63843562987563
 21
1038.394359545742
 31
0.0
  0
LINE
  5
25B
  8
0
 10
30.63843562987563
 20
994.5879898718407
 30
0.0
 11
40.63843562987528
 21
991.587989871842
 31
0.0
  0
LINE
  5
25C
  8
0
 10
40.63843562987528
 20
991.587989871842
 30
0.0
 11
30.63843562987563
 21
988.5879898718412
 31
0.0
  0
LINE
  5
25D
  8
0
 10
30.63843562987563
 20
926.0242608850411
 30
0.0
 11
40.63843562987528
 21
923.0242608850417
 31
0.0
  0
LINE
  5
25E
  8
0
 10
40.63843562987528
 20
923.0242608850417
 30
0.0
 11
30.63843562987563
 21
920.0242608850411
 31
0.0
  0
LINE
  5
25F
  8
0
 10
30.63843562987563
 20
876.2178912110433
 30
0.0
 11
40.63843562987528
 21
873.2178912110411
 31
0.0
  0
LINE
  5
260
  8
0
 10
40.63843562987528
 20
873.2178912110411
 30
0.0
 11
30.63843562987563
 21
870.217891211041
 31
0.0
  0
LINE
  5
261
  8
0
 10
30.63843562987563
 20
1487.479511180143
 30
0.0
 11
40.63843562987528
 21
1484.479511180143
 31
0.0
  0
LINE
  5
262
  8
0
 10
40.63843562987528
 20
1484.479511180143
 30
0.0
 11
30.63843562987563
 21
1481.479511180143
 31
0.0
  0
LINE
  5
263
  8
0
 10
30.63843562987563
 20
1446.41092770954
 30
0.0
 11
40.63843562987528
 21
1443.410927709541
 31
0.0
  0
LINE
  5
264
  8
0
 10
40.63843562987528
 20
1443.410927709541
 30
0.0
 11
30.63843562987563
 21
1440.410927709542
 31
0.0
  0
LINE
  5
265
  8
0
 10
30.63843562987563
 20
1270.397750350243
 30
0.0
 11
40.63843562987528
 21
1267.397750350243
 31
0.0
  0
LINE
  5
266
  8
0
 10
40.63843562987528
 20
1267.397750350243
 30
0.0
 11
30.63843562987563
 21
1264.397750350243
 31
0.0
  0
LINE
  5
267
  8
0
 10
4511.558902152219
 20
1487.662984444921
 30
0.0
 11
4500.947324602954
 21
1484.479511180143
 31
0.0
  0
LINE
  5
268
  8
0
 10
4500.947324602954
 20
1484.479511180143
 30
0.0
 11
4511.558902152219
 21
1481.296037915365
 31
0.0
  0
LINE
  5
269
  8
0
 10
4511.558902152219
 20
1044.249281745614
 30
0.0
 11
4501.558902152216
 21
1041.249281745614
 31
0.0
  0
LINE
  5
26A
  8
0
 10
4501.558902152216
 20
1041.249281745614
 30
0.0
 11
4511.558902152219
 21
1038.249281745613
 31
0.0
  0
LINE
  5
26B
  8
0
 10
4511.558902152219
 20
994.4429120717124
 30
0.0
 11
4501.558902152216
 21
991.4429120717132
 31
0.0
  0
LINE
  5
26C
  8
0
 10
4501.558902152216
 20
991.4429120717132
 30
0.0
 11
4511.558902152219
 21
988.4429120717108
 31
0.0
  0
LINE
  5
26D
  8
0
 10
4511.558902152219
 20
925.879183084913
 30
0.0
 11
4501.558902152216
 21
922.879183084913
 31
0.0
  0
LINE
  5
26E
  8
0
 10
4501.558902152216
 20
922.879183084913
 30
0.0
 11
4511.558902152219
 21
919.8791830849128
 31
0.0
  0
LINE
  5
26F
  8
0
 10
4511.558902152219
 20
876.0728134109141
 30
0.0
 11
4501.558902152216
 21
873.072813410911
 31
0.0
  0
LINE
  5
270
  8
0
 10
4501.558902152216
 20
873.072813410911
 30
0.0
 11
4511.558902152219
 21
870.0728134109132
 31
0.0
  0
LINE
  5
271
  8
0
 10
4511.558902152219
 20
1270.252672550113
 30
0.0
 11
4501.558902152216
 21
1267.252672550112
 31
0.0
  0
LINE
  5
272
  8
0
 10
4501.558902152216
 20
1267.252672550112
 30
0.0
 11
4511.558902152219
 21
1264.252672550113
 31
0.0
  0
LINE
  5
273
  8
0
 10
30.63843562987563
 20
870.217891211041
 30
0.0
 11
30.63843562987517
 21
618.1590942952708
 31
0.0
  0
LINE
  5
274
  8
0
 10
30.63843562987563
 20
920.0242608850411
 30
0.0
 11
30.63843562987563
 21
876.2178912110433
 31
0.0
  0
LINE
  5
275
  8
0
 10
30.63843562987563
 20
988.5879898718412
 30
0.0
 11
30.63843562987563
 21
926.0242608850411
 31
0.0
  0
LINE
  5
276
  8
0
 10
30.63843562987563
 20
1038.394359545742
 30
0.0
 11
30.63843562987563
 21
994.5879898718407
 31
0.0
  0
LINE
  5
277
  8
0
 10
30.63843562987563
 20
1264.397750350239
 30
0.0
 11
30.63843562987563
 21
1044.394359545742
 31
0.0
  0
LINE
  5
278
  8
0
 10
30.63843562987563
 20
1440.410927709542
 30
0.0
 11
30.63843562987563
 21
1270.397750350243
 31
0.0
  0
LINE
  5
279
  8
0
 10
30.63843562987563
 20
1481.479511180143
 30
0.0
 11
30.63843562987563
 21
1446.41092770954
 31
0.0
  0
LINE
  5
27A
  8
0
 10
4511.558902152219
 20
1447.313847625999
 30
0.0
 11
4498.54916909735
 21
1443.410927709541
 31
0.0
  0
LINE
  5
27B
  8
0
 10
4498.54916909735
 20
1443.410927709541
 30
0.0
 11
4511.558902152219
 21
1439.508007793083
 31
0.0
  0
LINE
  5
27C
  8
0
 10
4511.558902152219
 20
1044.249281745614
 30
0.0
 11
4511.558902152219
 21
1264.25267255011
 31
0.0
  0
LINE
  5
27D
  8
0
 10
4511.558902152219
 20
994.4429120717124
 30
0.0
 11
4511.558902152219
 21
1038.249281745613
 31
0.0
  0
LINE
  5
27E
  8
0
 10
4511.558902152219
 20
925.879183084913
 30
0.0
 11
4511.558902152219
 21
988.4429120717108
 31
0.0
  0
LINE
  5
27F
  8
0
 10
4511.558902152219
 20
876.0728134109141
 30
0.0
 11
4511.558902152219
 21
919.8791830849128
 31
0.0
  0
LINE
  5
280
  8
0
 10
4511.558902152219
 20
643.2256839714051
 30
0.0
 11
4511.558902152219
 21
870.0728134109132
 31
0.0
  0
LINE
  5
281
  8
0
 10
4511.558902152219
 20
1270.252672550113
 30
0.0
 11
4511.558902152219
 21
1295.252672550114
 31
0.0
  0
LINE
  5
282
  8
0
 10
428.2750792259565
 20
618.1590942952708
 30
0.0
 11
30.63843562987517
 21
618.1590942952708
 31
0.0
  0
LINE
  5
283
  8
0
 10
4511.558902152219
 20
1447.313847625999
 30
0.0
 11
4511.558902152219
 21
1481.296037915365
 31
0.0
  0
LINE
  5
284
  8
0
 10
4511.558902152219
 20
1487.662984444921
 30
0.0
 11
4511.558902152219
 21
1514.868725115312
 31
0.0
  0
LINE
  5
285
  8
0
 10
4511.558902152219
 20
1295.252672550114
 30
0.0
 11
4496.558902152216
 21
1295.252672550114
 31
0.0
  0
LINE
  5
286
  8
0
 10
4511.558902152219
 20
1325.252672550113
 30
0.0
 11
4496.558902152216
 21
1325.252672550113
 31
0.0
  0
LINE
  5
287
  8
0
 10
4496.558902152219
 20
1295.252672550114
 30
0.0
 11
4496.558902152219
 21
1325.252672550113
 31
0.0
  0
LINE
  5
288
  8
0
 10
4511.558902152219
 20
1325.252672550113
 30
0.0
 11
4511.558902152219
 21
1439.508007793083
 31
0.0
  0
LINE
  5
289
  8
0
 39
31.83440005694778
 10
1872.559641274115
 20
43.15909429522791
 30
0.0
 11
1875.059641274114
 21
43.15909429519905
 31
0.0
  0
LINE
  5
28A
  8
0
 39
31.83440005694778
 10
1922.059641274146
 20
43.15909429519905
 30
0.0
 11
1924.559641274146
 21
43.15909429522791
 31
0.0
  0
LINE
  5
28B
  8
0
 39
31.83440005694778
 10
1875.059641274114
 20
40.15909429522793
 30
0.0
 11
1922.059641274116
 21
40.15909429519904
 31
0.0
  0
LINE
  5
28C
  8
0
 10
1924.559641274116
 20
18.15909429519907
 30
0.0
 11
1924.559641274146
 21
43.15909429522791
 31
0.0
  0
LINE
  5
28D
  8
0
 10
1872.559641274115
 20
43.15909429525709
 30
0.0
 11
1872.559641274115
 21
18.15909429517052
 31
0.0
  0
LINE
  5
28E
  8
0
 10
1875.059641274114
 20
43.15909429519905
 30
0.0
 11
1875.059641274114
 21
40.15909429522793
 31
0.0
  0
LINE
  5
28F
  8
0
 10
1922.059641274116
 20
40.15909429519904
 30
0.0
 11
1922.059641274116
 21
43.15909429519905
 31
0.0
  0
LINE
  5
290
  8
0
 39
31.83440005694778
 10
2356.559641274115
 20
43.15909429522004
 30
0.0
 11
2359.059641274115
 21
43.15909429519114
 31
0.0
  0
LINE
  5
291
  8
0
 39
31.83440005694778
 10
2406.059641274146
 20
43.15909429519114
 30
0.0
 11
2408.559641274147
 21
43.15909429522004
 31
0.0
  0
LINE
  5
292
  8
0
 39
31.83440005694778
 10
2359.059641274115
 20
40.15909429522004
 30
0.0
 11
2406.059641274116
 21
40.15909429519115
 31
0.0
  0
LINE
  5
293
  8
0
 10
2408.559641274116
 20
18.15909429519116
 30
0.0
 11
2408.559641274147
 21
43.15909429522004
 31
0.0
  0
LINE
  5
294
  8
0
 10
2356.559641274115
 20
43.1590942952492
 30
0.0
 11
2356.559641274115
 21
18.15909429516263
 31
0.0
  0
LINE
  5
295
  8
0
 10
2359.059641274115
 20
43.15909429519114
 30
0.0
 11
2359.059641274115
 21
40.15909429522004
 31
0.0
  0
LINE
  5
296
  8
0
 10
2406.059641274116
 20
40.15909429519115
 30
0.0
 11
2406.059641274116
 21
43.15909429519114
 31
0.0
  0
CIRCLE
  5
34E
  8
0
 39
31.83440005694778
 10
662.6222173290824
 20
1504.013802915443
 30
0.0
 40
3.0
  0
CIRCLE
  5
34F
  8
0
 39
31.83440005694778
 10
947.3393490176622
 20
1504.013802915443
 30
0.0
 40
3.0
  0
CIRCLE
  5
350
  8
0
 39
31.83440005694778
 10
1232.056480706241
 20
1504.013802915443
 30
0.0
 40
3.0
  0
CIRCLE
  5
351
  8
0
 39
31.83440005694778
 10
1516.77361239482
 20
1504.013802915443
 30
0.0
 40
3.0
  0
CIRCLE
  5
352
  8
0
 39
31.83440005694778
 10
1801.4907440834
 20
1504.013802915443
 30
0.0
 40
3.0
  0
CIRCLE
  5
353
  8
0
 39
31.83440005694778
 10
2086.207875771979
 20
1504.013802915443
 30
0.0
 40
3.0
  0
CIRCLE
  5
354
  8
0
 39
31.83440005694778
 10
2370.925007460559
 20
1504.013802915443
 30
0.0
 40
3.0
  0
CIRCLE
  5
355
  8
0
 39
31.83440005694778
 10
2655.642139149138
 20
1504.013802915443
 30
0.0
 40
3.0
  0
CIRCLE
  5
356
  8
0
 39
31.83440005694778
 10
2940.359270837719
 20
1504.013802915443
 30
0.0
 40
3.0
  0
CIRCLE
  5
357
  8
0
 39
31.83440005694778
 10
3225.076402526298
 20
1504.013802915443
 30
0.0
 40
3.0
  0
CIRCLE
  5
358
  8
0
 39
31.83440005694778
 10
3509.793534214877
 20
1504.013802915443
 30
0.0
 40
3.0
  0
CIRCLE
  5
359
  8
0
 39
31.83440005694778
 10
4284.510665903457
 20
1504.013802915443
 30
0.0
 40
3.0
  0
CIRCLE
  5
35A
  8
0
 39
31.83440005694778
 10
4451.930945274671
 20
1504.013802915443
 30
0.0
 40
3.0
  0
ARC
  5
463
  8
0
 10
240.6384356298756
 20
1466.198701447352
 30
0.0
 40
5.75
 50
0.0
 51
180.0
  0
ARC
  5
464
  8
0
 10
50.63843562987562
 20
1466.198701447352
 30
0.0
 40
5.75
 50
0.0
 51
180.0
  0
ARC
  5
465
  8
0
 10
50.63843562987562
 20
1461.691737442331
 30
0.0
 40
5.75
 50
180.0
 51
0.0
  0
ARC
  5
466
  8
0
 10
240.6384356298756
 20
1461.691737442331
 30
0.0
 40
5.75
 50
180.0
 51
0.0
  0
LINE
  5
467
  8
0
 10
44.88843562987562
 20
1466.198701447352
 30
0.0
 11
44.88843562987562
 21
1461.691737442331
 31
0.0
  0
LINE
  5
468
  8
0
 10
56.38843562987562
 20
1466.198701447352
 30
0.0
 11
56.38843562987562
 21
1461.691737442331
 31
0.0
  0
LINE
  5
469
  8
0
 10
234.8884356298756
 20
1466.198701447352
 30
0.0
 11
234.8884356298756
 21
1461.691737442331
 31
0.0
  0
LINE
  5
46A
  8
0
 10
246.3884356298756
 20
1466.198701447352
 30
0.0
 11
246.3884356298756
 21
1461.691737442331
 31
0.0
  0
ARC
  5
55D
  8
0
 10
4486.558902152219
 20
1466.198701447352
 30
0.0
 40
5.75
 50
0.0
 51
180.0
  0
ARC
  5
55E
  8
0
 10
4296.55890215222
 20
1466.198701447352
 30
0.0
 40
5.75
 50
0.0
 51
180.0
  0
ARC
  5
55F
  8
0
 10
4296.55890215222
 20
1461.691737442331
 30
0.0
 40
5.75
 50
180.0
 51
0.0
  0
ARC
  5
560
  8
0
 10
4486.558902152219
 20
1461.691737442331
 30
0.0
 40
5.75
 50
180.0
 51
0.0
  0
LINE
  5
561
  8
0
 10
4290.808902152219
 20
1466.198701447352
 30
0.0
 11
4290.808902152219
 21
1461.691737442331
 31
0.0
  0
LINE
  5
562
  8
0
 10
4302.308902152219
 20
1466.198701447352
 30
0.0
 11
4302.308902152219
 21
1461.691737442331
 31
0.0
  0
LINE
  5
563
  8
0
 10
4480.808902152219
 20
1466.198701447352
 30
0.0
 11
4480.808902152219
 21
1461.691737442331
 31
0.0
  0
LINE
  5
564
  8
0
 10
4492.308902152217
 20
1466.198701447352
 30
0.0
 11
4492.308902152217
 21
1461.691737442331
 31
0.0
  0
LINE
  5
5F2
  8
0
 39
31.83440005694778
 10
3808.559641274058
 20
43.15909429523465
 30
0.0
 11
3808.559641274088
 21
18.15909429526341
 31
0.0
  0
LINE
  5
5F3
  8
0
 39
31.83440005694778
 10
3808.559641274058
 20
43.15909429523465
 30
0.0
 11
3811.059641274058
 21
43.15909429523465
 31
0.0
  0
LINE
  5
5F4
  8
0
 39
31.83440005694778
 10
3858.05964127406
 20
43.15909429523465
 30
0.0
 11
3860.559641274058
 21
43.15909429523465
 31
0.0
  0
LINE
  5
5F5
  8
0
 39
31.83440005694778
 10
3811.059641274088
 20
40.15909429523389
 30
0.0
 11
3858.059641274087
 21
40.15909429523389
 31
0.0
  0
LINE
  5
5F6
  8
0
 10
3860.559641274058
 20
18.15909429523464
 30
0.0
 11
3860.559641274058
 21
43.15909429523465
 31
0.0
  0
LINE
  5
5F7
  8
0
 10
3858.05964127406
 20
40.15909429523389
 30
0.0
 11
3858.05964127406
 21
43.15909429523465
 31
0.0
  0
LINE
  5
5F8
  8
0
 10
3811.059641274058
 20
43.15909429523465
 30
0.0
 11
3811.059641274058
 21
40.15909429523389
 31
0.0
  0
LINE
  5
5F9
  8
0
 39
31.83440005694778
 10
3860.559641274058
 20
18.15909429519844
 30
0.0
 11
4298.559641274116
 21
18.15909429518338
 31
0.0
  0
CIRCLE
  5
5FA
  8
0
 39
31.83440005694778
 10
3794.510665903456
 20
1504.013802915443
 30
0.0
 40
3.0
  0
CIRCLE
  5
5FB
  8
0
 39
31.83440005694778
 10
4069.227797592035
 20
1504.013802915443
 30
0.0
 40
3.0
  0
LINE
  5
71B
  8
0
 10
4360.559641274115
 20
546.1590942952708
 30
0.0
 11
4437.55890215225
 21
546.1590942952708
 31
0.0
  0
ENDSEC
  0
EOF
