  0
SECTION
  2
HEADER
  9
$ACADVER
  1
AC1009
  9
$DWGCODEPAGE
  3
ansi_1252
  9
$INSBASE
 10
0.0
 20
0.0
 30
0.0
  9
$EXTMIN
 10
-1215.1653798791
 20
2793.4846237961
 30
0.0
  9
$EXTMAX
 10
1097.0
 20
4414.6322169049
 30
0.0
  9
$LIMMIN
 10
0.0
 20
0.0
  9
$LIMMAX
 10
420.0
 20
297.0
  9
$ORTHOMODE
 70
     1
  9
$REGENMODE
 70
     1
  9
$FILLMODE
 70
     1
  9
$QTEXTMODE
 70
     0
  9
$MIRRTEXT
 70
     1
  9
$DRAGMODE
 70
     2
  9
$LTSCALE
 40
1.0
  9
$OSMODE
 70
  1023
  9
$ATTMODE
 70
     1
  9
$TEXTSIZE
 40
3.5
  9
$TRACEWID
 40
1.0
  9
$TEXTSTYLE
  7
STANDARD
  9
$CLAYER
  8
0
  9
$CELTYPE
  6
BYLAYER
  9
$CECOLOR
 62
   256
  9
$DIMSCALE
 40
1.0
  9
$DIMASZ
 40
6.0
  9
$DIMEXO
 40
1.0
  9
$DIMDLI
 40
3.75
  9
$DIMRND
 40
0.0
  9
$DIMDLE
 40
0.0
  9
$DIMEXE
 40
1.0
  9
$DIMTP
 40
0.0
  9
$DIMTM
 40
0.0
  9
$DIMTXT
 40
3.5
  9
$DIMCEN
 40
2.5
  9
$DIMTSZ
 40
0.0
  9
$DIMTOL
 70
     0
  9
$DIMLIM
 70
     0
  9
$DIMTIH
 70
     1
  9
$DIMTOH
 70
     1
  9
$DIMSE1
 70
     0
  9
$DIMSE2
 70
     0
  9
$DIMTAD
 70
     1
  9
$DIMZIN
 70
     0
  9
$DIMBLK
  1

  9
$DIMASO
 70
     1
  9
$DIMSHO
 70
     1
  9
$DIMPOST
  1

  9
$DIMAPOST
  1

  9
$DIMALT
 70
     0
  9
$DIMALTD
 70
     3
  9
$DIMALTF
 40
0.0393700787
  9
$DIMLFAC
 40
1.0
  9
$DIMTOFL
 70
     1
  9
$DIMTVP
 40
0.0
  9
$DIMTIX
 70
     0
  9
$DIMSOXD
 70
     0
  9
$DIMSAH
 70
     0
  9
$DIMBLK1
  1

  9
$DIMBLK2
  1

  9
$DIMSTYLE
  2
ISO-25
  9
$DIMCLRD
 70
     0
  9
$DIMCLRE
 70
     0
  9
$DIMCLRT
 70
     0
  9
$DIMTFAC
 40
1.0
  9
$DIMGAP
 40
1.524
  9
$LUNITS
 70
     2
  9
$LUPREC
 70
     2
  9
$SKETCHINC
 40
1.0
  9
$FILLETRAD
 40
10.0
  9
$AUNITS
 70
     0
  9
$AUPREC
 70
     2
  9
$MENU
  1
.
  9
$ELEVATION
 40
0.0
  9
$PELEVATION
 40
0.0
  9
$THICKNESS
 40
0.0
  9
$LIMCHECK
 70
     0
  9
$CHAMFERA
 40
0.0
  9
$CHAMFERB
 40
0.0
  9
$SKPOLY
 70
     0
  9
$TDCREATE
 40
2456816.53969566
  9
$TDUPDATE
 40
2456821.331635127
  9
$TDINDWG
 40
0.0042653241
  9
$TDUSRTIMER
 40
2456821.24774397
  9
$USRTIMER
 70
     1
  9
$ANGBASE
 50
0.0
  9
$ANGDIR
 70
     0
  9
$PDMODE
 70
     0
  9
$PDSIZE
 40
-1.0
  9
$PLINEWID
 40
0.0
  9
$COORDS
 70
     1
  9
$SPLFRAME
 70
     0
  9
$SPLINETYPE
 70
     6
  9
$SPLINESEGS
 70
     8
  9
$ATTDIA
 70
     0
  9
$ATTREQ
 70
     1
  9
$HANDLING
 70
     1
  9
$HANDSEED
  5
41C
  9
$SURFTAB1
 70
     6
  9
$SURFTAB2
 70
     6
  9
$SURFTYPE
 70
     6
  9
$SURFU
 70
     6
  9
$SURFV
 70
     6
  9
$UCSNAME
  2

  9
$UCSORG
 10
0.0
 20
0.0
 30
0.0
  9
$UCSXDIR
 10
1.0
 20
0.0
 30
0.0
  9
$UCSYDIR
 10
0.0
 20
1.0
 30
0.0
  9
$PUCSNAME
  2

  9
$PUCSORG
 10
0.0
 20
0.0
 30
0.0
  9
$PUCSXDIR
 10
1.0
 20
0.0
 30
0.0
  9
$PUCSYDIR
 10
0.0
 20
1.0
 30
0.0
  9
$USERI1
 70
     0
  9
$USERI2
 70
     0
  9
$USERI3
 70
     0
  9
$USERI4
 70
     0
  9
$USERI5
 70
     0
  9
$USERR1
 40
0.0
  9
$USERR2
 40
0.0
  9
$USERR3
 40
0.0
  9
$USERR4
 40
0.0
  9
$USERR5
 40
0.0
  9
$WORLDVIEW
 70
     1
  9
$SHADEDGE
 70
     3
  9
$SHADEDIF
 70
    70
  9
$TILEMODE
 70
     1
  9
$MAXACTVP
 70
    64
  9
$PLIMCHECK
 70
     0
  9
$PEXTMIN
 10
1.000000000000000E+20
 20
1.000000000000000E+20
 30
1.000000000000000E+20
  9
$PEXTMAX
 10
-1.000000000000000E+20
 20
-1.000000000000000E+20
 30
-1.000000000000000E+20
  9
$PLIMMIN
 10
0.0
 20
0.0
  9
$PLIMMAX
 10
0.0
 20
0.0
  9
$UNITMODE
 70
     0
  9
$VISRETAIN
 70
     1
  9
$PLINEGEN
 70
     0
  9
$PSLTSCALE
 70
     1
  0
ENDSEC
  0
SECTION
  2
TABLES
  0
TABLE
  2
VPORT
 70
     1
  0
VPORT
  2
*ACTIVE
 70
     0
 10
0.0
 20
0.0
 11
1.0
 21
1.0
 12
573.9882497009321
 22
2793.933471153334
 13
0.0
 23
0.0
 14
10.0
 24
10.0
 15
10.0
 25
10.0
 16
0.0
 26
0.0
 36
1.0
 17
0.0
 27
0.0
 37
0.0
 40
3.998088252739103
 41
1.86140089418778
 42
50.0
 43
0.0
 44
0.0
 50
0.0
 51
0.0
 71
    16
 72
   100
 73
     1
 74
     3
 75
     0
 76
     0
 77
     0
 78
     0
  0
ENDTAB
  0
TABLE
  2
LTYPE
 70
     6
  0
LTYPE
  2
CONTINUOUS
 70
     0
  3
Solid line
 72
    65
 73
     0
 40
0.0
  0
LTYPE
  2
HIDDEN
 70
     0
  3
Hidden __ __ __ __ __ __ __ __ __ __ __ __ __ __
 72
    65
 73
     2
 40
1.905
 49
1.27
 49
-0.635
  0
LTYPE
  2
PHANTOM
 70
     0
  3
Phantom ______  __  __  ______  __  __  ______
 72
    65
 73
     6
 40
12.7
 49
6.35
 49
-1.27
 49
1.27
 49
-1.27
 49
1.27
 49
-1.27
  0
LTYPE
  2
CENTER
 70
     0
  3
Center ____ _ ____ _ ____ _ ____ _ ____ _ ____
 72
    65
 73
     4
 40
10.16
 49
6.35
 49
-1.27
 49
1.27
 49
-1.27
  0
LTYPE
  2
CENTERX2
 70
     0
  3
Center (2x) ________  __  ________  __  _____
 72
    65
 73
     4
 40
20.32
 49
12.7
 49
-2.54
 49
2.54
 49
-2.54
  0
LTYPE
  2
DOT2
 70
     0
  3
Dot (.5x) ........................................
 72
    65
 73
     2
 40
0.635
 49
0.0
 49
-0.635
  0
ENDTAB
  0
TABLE
  2
LAYER
 70
     1
  0
LAYER
  2
0
 70
     0
 62
     7
  6
CONTINUOUS
  0
ENDTAB
  0
TABLE
  2
STYLE
 70
     1
  0
STYLE
  2
STANDARD
 70
     0
 40
0.0
 41
1.0
 50
0.0
 71
     0
 42
3.5
  3
txt
  4

  0
ENDTAB
  0
TABLE
  2
VIEW
 70
     0
  0
ENDTAB
  0
TABLE
  2
UCS
 70
     0
  0
ENDTAB
  0
TABLE
  2
APPID
 70
     1
  0
APPID
  2
ACAD
 70
     0
  0
ENDTAB
  0
TABLE
  2
DIMSTYLE
 70
     1
  0
DIMSTYLE
  2
ISO-25
 70
     0
  3

  4

  5

  6

  7

 40
1.0
 41
2.5
 42
0.625
 43
3.75
 44
1.25
 45
0.0
 46
0.0
 47
0.0
 48
0.0
140
2.5
141
2.5
142
0.0
143
0.0393700787
144
1.0
145
0.0
146
1.0
147
0.625
 71
     0
 72
     0
 73
     0
 74
     0
 75
     0
 76
     0
 77
     1
 78
     8
170
     0
171
     3
172
     1
173
     0
174
     0
175
     0
176
     0
177
     0
178
     0
  0
ENDTAB
  0
ENDSEC
  0
SECTION
  2
BLOCKS
  0
BLOCK
  8
0
  2
$MODEL_SPACE
 70
     0
 10
0.0
 20
0.0
 30
0.0
  3
$MODEL_SPACE
  1

  0
ENDBLK
  5
21
  8
0
  0
BLOCK
 67
     1
  8
0
  2
$PAPER_SPACE
 70
     0
 10
0.0
 20
0.0
 30
0.0
  3
$PAPER_SPACE
  1

  0
ENDBLK
  5
1D
 67
     1
  8
0
  0
ENDSEC
  0
SECTION
  2
ENTITIES
  0
LINE
  5
6F
  8
0
  6
CENTERX2
 62
     7
 10
571.64231894
 20
2811.484623795683
 30
0.0
 11
571.64231894
 21
4396.632216905316
 31
0.0
  0
LINE
  5
70
  8
0
  6
CENTERX2
 62
     7
 10
499.242182646
 20
2811.4846237961
 30
0.0
 11
499.242182646
 21
4396.6322169049
 31
0.0
  0
LINE
  5
71
  8
0
  6
CENTERX2
 62
     7
 10
335.6751274145
 20
2811.484623796101
 30
0.0
 11
335.6751274145
 21
4396.6322169049
 31
0.0
  0
LINE
  5
72
  8
0
  6
CENTERX2
 62
     7
 10
263.2749911205
 20
2811.484623797001
 30
0.0
 11
263.2749911205
 21
4396.632216905317
 31
0.0
  0
LINE
  5
73
  8
0
  6
CENTERX2
 62
     7
 10
-689.8076988191
 20
2811.484623795683
 30
0.0
 11
-689.8076988191
 21
4396.632216903999
 31
0.0
  0
LINE
  5
74
  8
0
  6
CENTERX2
 62
     7
 10
-617.4075625251
 20
2811.4846237961
 30
0.0
 11
-617.4075625251
 21
4396.6322169049
 31
0.0
  0
LINE
  5
75
  8
0
  6
CENTERX2
 62
     7
 10
-453.8405072936
 20
2811.4846237961
 30
0.0
 11
-453.8405072936
 21
4396.6322169049
 31
0.0
  0
LINE
  5
76
  8
0
  6
CENTERX2
 62
     7
 10
-381.4403709995
 20
2811.4846237961
 30
0.0
 11
-381.4403709995
 21
4396.6322169049
 31
0.0
  0
POLYLINE
  5
77
  8
0
  6
CONTINUOUS
 62
     7
 66
     1
 10
0.0
 20
0.0
 30
0.0
 70
   128
  0
VERTEX
  5
3BD
  8
0
  6
CONTINUOUS
 62
     7
 10
-59.0826899395
 20
4250.4930605865
 30
0.0
  0
VERTEX
  5
3BE
  8
0
  6
CONTINUOUS
 62
     7
 10
-63.8758819665
 20
4250.6717839298
 30
0.0
  0
VERTEX
  5
3BF
  8
0
  6
CONTINUOUS
 62
     7
 10
-68.6472037576
 20
4251.2071384859
 30
0.0
  0
VERTEX
  5
3C0
  8
0
  6
CONTINUOUS
 62
     7
 10
-73.3748848658
 20
4252.0966815549
 30
0.0
  0
VERTEX
  5
3C1
  8
0
  6
CONTINUOUS
 62
     7
 10
-78.0373539667
 20
4253.3363543557
 30
0.0
  0
VERTEX
  5
3C2
  8
0
  6
CONTINUOUS
 62
     7
 10
-82.6133372831
 20
4254.9205005457
 30
0.0
  0
VERTEX
  5
3C3
  8
0
  6
CONTINUOUS
 62
     7
 10
-87.0819556526
 20
4256.8418920291
 30
0.0
  0
VERTEX
  5
3C4
  8
0
  6
CONTINUOUS
 62
     7
 10
-91.4228197946
 20
4259.0917619373
 30
0.0
  0
VERTEX
  5
3C5
  8
0
  6
CONTINUOUS
 62
     7
 10
-95.6161233416
 20
4261.65984463
 30
0.0
  0
VERTEX
  5
3C6
  8
0
  6
CONTINUOUS
 62
     7
 10
-99.6427332113
 20
4264.5344225348
 30
0.0
  0
VERTEX
  5
3C7
  8
0
  6
CONTINUOUS
 62
     7
 10
-103.4842769064
 20
4267.702379612
 30
0.0
  0
VERTEX
  5
3C8
  8
0
  6
CONTINUOUS
 62
     7
 10
-107.1232263441
 20
4271.1492612002
 30
0.0
  0
VERTEX
  5
3C9
  8
0
  6
CONTINUOUS
 62
     7
 10
-110.5429778328
 20
4274.8593399692
 30
0.0
  0
VERTEX
  5
3CA
  8
0
  6
CONTINUOUS
 62
     7
 10
-113.7279278308
 20
4278.8156876806
 30
0.0
  0
VERTEX
  5
3CB
  8
0
  6
CONTINUOUS
 62
     7
 10
-116.6635441417
 20
4283.000252427
 30
0.0
  0
VERTEX
  5
3CC
  8
0
  6
CONTINUOUS
 62
     7
 10
-119.3364322217
 20
4287.3939409995
 30
0.0
  0
VERTEX
  5
3CD
  8
0
  6
CONTINUOUS
 62
     7
 10
-121.7343962954
 20
4291.9767060048
 30
0.0
  0
VERTEX
  5
3CE
  8
0
  6
CONTINUOUS
 62
     7
 10
-123.8464950028
 20
4296.7276373372
 30
0.0
  0
VERTEX
  5
3CF
  8
0
  6
CONTINUOUS
 62
     7
 10
-125.663091322
 20
4301.6250575868
 30
0.0
  0
VERTEX
  5
3D0
  8
0
  6
CONTINUOUS
 62
     7
 10
-127.1758965405
 20
4306.6466209482
 30
0.0
  0
VERTEX
  5
3D1
  8
0
  6
CONTINUOUS
 62
     7
 10
-128.3780080752
 20
4311.7694151795
 30
0.0
  0
VERTEX
  5
3D2
  8
0
  6
CONTINUOUS
 62
     7
 10
-129.2639409668
 20
4316.9700661457
 30
0.0
  0
VERTEX
  5
3D3
  8
0
  6
CONTINUOUS
 62
     7
 10
-129.8296529068
 20
4322.2248444693
 30
0.0
  0
VERTEX
  5
3D4
  8
0
  6
CONTINUOUS
 62
     7
 10
-130.0725626813
 20
4327.5097738019
 30
0.0
  0
VERTEX
  5
3D5
  8
0
  6
CONTINUOUS
 62
     7
 10
-129.9915619487
 20
4332.8007402231
 30
0.0
  0
VERTEX
  5
3D6
  8
0
  6
CONTINUOUS
 62
     7
 10
-129.5870202968
 20
4338.0736022668
 30
0.0
  0
VERTEX
  5
3D7
  8
0
  6
CONTINUOUS
 62
     7
 10
-128.8607835563
 20
4343.3043010728
 30
0.0
  0
VERTEX
  5
3D8
  8
0
  6
CONTINUOUS
 62
     7
 10
-127.816165379
 20
4348.4689701622
 30
0.0
  0
VERTEX
  5
3D9
  8
0
  6
CONTINUOUS
 62
     7
 10
-126.457932118
 20
4353.5440443344
 30
0.0
  0
VERTEX
  5
3DA
  8
0
  6
CONTINUOUS
 62
     7
 10
-124.7922810802
 20
4358.5063671901
 30
0.0
  0
VERTEX
  5
3DB
  8
0
  6
CONTINUOUS
 62
     7
 10
-122.8268122491
 20
4363.3332967882
 30
0.0
  0
VERTEX
  5
3DC
  8
0
  6
CONTINUOUS
 62
     7
 10
-120.5704936082
 20
4368.0028089561
 30
0.0
  0
VERTEX
  5
3DD
  8
0
  6
CONTINUOUS
 62
     7
 10
-118.0336202221
 20
4372.4935977807
 30
0.0
  0
VERTEX
  5
3DE
  8
0
  6
CONTINUOUS
 62
     7
 10
-115.2277672621
 20
4376.7851728227
 30
0.0
  0
VERTEX
  5
3DF
  8
0
  6
CONTINUOUS
 62
     7
 10
-112.1657371917
 20
4380.8579526094
 30
0.0
  0
VERTEX
  5
3E0
  8
0
  6
CONTINUOUS
 62
     7
 10
-108.8615013519
 20
4384.6933539808
 30
0.0
  0
VERTEX
  5
3E1
  8
0
  6
CONTINUOUS
 62
     7
 10
-105.3301362128
 20
4388.2738768802
 30
0.0
  0
VERTEX
  5
3E2
  8
0
  6
CONTINUOUS
 62
     7
 10
-101.5877545837
 20
4391.5831842028
 30
0.0
  0
VERTEX
  5
3E3
  8
0
  6
CONTINUOUS
 62
     7
 10
-97.6514320937
 20
4394.6061763382
 30
0.0
  0
VERTEX
  5
3E4
  8
0
  6
CONTINUOUS
 62
     7
 10
-93.5391292792
 20
4397.3290600668
 30
0.0
  0
VERTEX
  5
3E5
  8
0
  6
CONTINUOUS
 62
     7
 10
-89.2696096351
 20
4399.7394114946
 30
0.0
  0
VERTEX
  5
3E6
  8
0
  6
CONTINUOUS
 62
     7
 10
-84.862354
 20
4401.8262327409
 30
0.0
  0
VERTEX
  5
3E7
  8
0
  6
CONTINUOUS
 62
     7
 10
-80.3374716707
 20
4403.5800021189
 30
0.0
  0
VERTEX
  5
3E8
  8
0
  6
CONTINUOUS
 62
     7
 10
-75.7156086473
 20
4404.9927175813
 30
0.0
  0
VERTEX
  5
3E9
  8
0
  6
CONTINUOUS
 62
     7
 10
-71.0178534307
 20
4406.0579332314
 30
0.0
  0
VERTEX
  5
3EA
  8
0
  6
CONTINUOUS
 62
     7
 10
-66.2656408007
 20
4406.7707887344
 30
0.0
  0
VERTEX
  5
3EB
  8
0
  6
CONTINUOUS
 62
     7
 10
-61.4806540133
 20
4407.1280314944
 30
0.0
  0
VERTEX
  5
3EC
  8
0
  6
CONTINUOUS
 62
     7
 10
-56.6847258658
 20
4407.1280314944
 30
0.0
  0
VERTEX
  5
3ED
  8
0
  6
CONTINUOUS
 62
     7
 10
-51.8997390784
 20
4406.7707887344
 30
0.0
  0
VERTEX
  5
3EE
  8
0
  6
CONTINUOUS
 62
     7
 10
-47.1475264483
 20
4406.0579332314
 30
0.0
  0
VERTEX
  5
3EF
  8
0
  6
CONTINUOUS
 62
     7
 10
-42.4497712318
 20
4404.9927175813
 30
0.0
  0
VERTEX
  5
3F0
  8
0
  6
CONTINUOUS
 62
     7
 10
-37.8279082084
 20
4403.5800021189
 30
0.0
  0
VERTEX
  5
3F1
  8
0
  6
CONTINUOUS
 62
     7
 10
-33.3030258791
 20
4401.8262327409
 30
0.0
  0
VERTEX
  5
3F2
  8
0
  6
CONTINUOUS
 62
     7
 10
-28.895770244
 20
4399.7394114946
 30
0.0
  0
VERTEX
  5
3F3
  8
0
  6
CONTINUOUS
 62
     7
 10
-24.6262505998
 20
4397.3290600668
 30
0.0
  0
VERTEX
  5
3F4
  8
0
  6
CONTINUOUS
 62
     7
 10
-20.5139477854
 20
4394.6061763382
 30
0.0
  0
VERTEX
  5
3F5
  8
0
  6
CONTINUOUS
 62
     7
 10
-16.5776252953
 20
4391.5831842028
 30
0.0
  0
VERTEX
  5
3F6
  8
0
  6
CONTINUOUS
 62
     7
 10
-12.8352436663
 20
4388.2738768802
 30
0.0
  0
VERTEX
  5
3F7
  8
0
  6
CONTINUOUS
 62
     7
 10
-9.3038785272
 20
4384.6933539808
 30
0.0
  0
VERTEX
  5
3F8
  8
0
  6
CONTINUOUS
 62
     7
 10
-5.9996426873
 20
4380.8579526094
 30
0.0
  0
VERTEX
  5
3F9
  8
0
  6
CONTINUOUS
 62
     7
 10
-2.937612617
 20
4376.7851728226
 30
0.0
  0
VERTEX
  5
3FA
  8
0
  6
CONTINUOUS
 62
     7
 10
-0.131759657
 20
4372.4935977807
 30
0.0
  0
VERTEX
  5
3FB
  8
0
  6
CONTINUOUS
 62
     7
 10
2.4051137292
 20
4368.0028089561
 30
0.0
  0
VERTEX
  5
3FC
  8
0
  6
CONTINUOUS
 62
     7
 10
4.66143237
 20
4363.3332967882
 30
0.0
  0
VERTEX
  5
3FD
  8
0
  6
CONTINUOUS
 62
     7
 10
6.6269012011
 20
4358.5063671901
 30
0.0
  0
VERTEX
  5
3FE
  8
0
  6
CONTINUOUS
 62
     7
 10
8.2925522389
 20
4353.5440443344
 30
0.0
  0
VERTEX
  5
3FF
  8
0
  6
CONTINUOUS
 62
     7
 10
9.6507855
 20
4348.4689701622
 30
0.0
  0
VERTEX
  5
400
  8
0
  6
CONTINUOUS
 62
     7
 10
10.6954036773
 20
4343.3043010728
 30
0.0
  0
VERTEX
  5
401
  8
0
  6
CONTINUOUS
 62
     7
 10
11.4216404177
 20
4338.0736022668
 30
0.0
  0
VERTEX
  5
402
  8
0
  6
CONTINUOUS
 62
     7
 10
11.8261820696
 20
4332.8007402231
 30
0.0
  0
VERTEX
  5
403
  8
0
  6
CONTINUOUS
 62
     7
 10
11.9071828022
 20
4327.5097738019
 30
0.0
  0
VERTEX
  5
404
  8
0
  6
CONTINUOUS
 62
     7
 10
11.6642730277
 20
4322.2248444693
 30
0.0
  0
VERTEX
  5
405
  8
0
  6
CONTINUOUS
 62
     7
 10
11.0985610878
 20
4316.9700661457
 30
0.0
  0
VERTEX
  5
406
  8
0
  6
CONTINUOUS
 62
     7
 10
10.2126281961
 20
4311.7694151795
 30
0.0
  0
VERTEX
  5
407
  8
0
  6
CONTINUOUS
 62
     7
 10
9.0105166614
 20
4306.6466209482
 30
0.0
  0
VERTEX
  5
408
  8
0
  6
CONTINUOUS
 62
     7
 10
7.4977114429
 20
4301.6250575868
 30
0.0
  0
VERTEX
  5
409
  8
0
  6
CONTINUOUS
 62
     7
 10
5.6811151237
 20
4296.7276373372
 30
0.0
  0
VERTEX
  5
40A
  8
0
  6
CONTINUOUS
 62
     7
 10
3.5690164163
 20
4291.9767060048
 30
0.0
  0
VERTEX
  5
40B
  8
0
  6
CONTINUOUS
 62
     7
 10
1.1710523426
 20
4287.3939409995
 30
0.0
  0
VERTEX
  5
40C
  8
0
  6
CONTINUOUS
 62
     7
 10
-1.5018357374
 20
4283.000252427
 30
0.0
  0
VERTEX
  5
40D
  8
0
  6
CONTINUOUS
 62
     7
 10
-4.4374520483
 20
4278.8156876806
 30
0.0
  0
VERTEX
  5
40E
  8
0
  6
CONTINUOUS
 62
     7
 10
-7.6224020463
 20
4274.8593399692
 30
0.0
  0
VERTEX
  5
40F
  8
0
  6
CONTINUOUS
 62
     7
 10
-11.042153535
 20
4271.1492612002
 30
0.0
  0
VERTEX
  5
410
  8
0
  6
CONTINUOUS
 62
     7
 10
-14.6811029727
 20
4267.702379612
 30
0.0
  0
VERTEX
  5
411
  8
0
  6
CONTINUOUS
 62
     7
 10
-18.5226466678
 20
4264.5344225348
 30
0.0
  0
VERTEX
  5
412
  8
0
  6
CONTINUOUS
 62
     7
 10
-22.5492565375
 20
4261.65984463
 30
0.0
  0
VERTEX
  5
413
  8
0
  6
CONTINUOUS
 62
     7
 10
-26.7425600845
 20
4259.0917619373
 30
0.0
  0
VERTEX
  5
414
  8
0
  6
CONTINUOUS
 62
     7
 10
-31.0834242265
 20
4256.8418920291
 30
0.0
  0
VERTEX
  5
415
  8
0
  6
CONTINUOUS
 62
     7
 10
-35.552042596
 20
4254.9205005457
 30
0.0
  0
VERTEX
  5
416
  8
0
  6
CONTINUOUS
 62
     7
 10
-40.1280259124
 20
4253.3363543557
 30
0.0
  0
VERTEX
  5
417
  8
0
  6
CONTINUOUS
 62
     7
 10
-44.7904950132
 20
4252.0966815549
 30
0.0
  0
VERTEX
  5
418
  8
0
  6
CONTINUOUS
 62
     7
 10
-49.5181761215
 20
4251.2071384859
 30
0.0
  0
VERTEX
  5
419
  8
0
  6
CONTINUOUS
 62
     7
 10
-54.2894979126
 20
4250.6717839298
 30
0.0
  0
VERTEX
  5
41A
  8
0
  6
CONTINUOUS
 62
     7
 10
-59.0826899395
 20
4250.4930605865
 30
0.0
  0
SEQEND
  5
41B
  8
0
  6
CONTINUOUS
 62
     7
  0
LINE
  5
95
  8
0
  6
CONTINUOUS
 62
     7
 10
-383.3597532112
 20
2803.4846237961
 30
0.0
 11
-451.8405072936
 21
2803.4846237961
 31
0.0
  0
LINE
  5
97
  8
0
  6
CONTINUOUS
 62
     7
 10
-691.7270810307
 20
2793.4846237961
 30
0.0
 11
-1190.1653798791
 21
2793.4846237961
 31
0.0
  0
LINE
  5
98
  8
0
  6
CONTINUOUS
 62
     7
 10
-1215.1653798791
 20
2818.4846237961
 30
0.0
 11
-1215.1653798791
 21
3948.6071006466
 31
0.0
  0
LINE
  5
99
  8
0
  6
CONTINUOUS
 62
     7
 10
-1213.3694112917
 20
3957.9115579764
 30
0.0
 11
-1036.5251680384
 21
4398.9366742347
 31
0.0
  0
LINE
  5
9A
  8
0
  6
CONTINUOUS
 62
     7
 10
-1013.3211366258
 20
4414.6322169049
 30
0.0
 11
-691.7270810307
 21
4414.6322169049
 31
0.0
  0
LINE
  5
9C
  8
0
  6
CONTINUOUS
 62
     7
 10
-687.8883166074
 20
4404.6322169049
 30
0.0
 11
-619.4075625251
 21
4404.6322169049
 31
0.0
  0
LINE
  5
9E
  8
0
  6
CONTINUOUS
 62
     7
 10
-379.5209887879
 20
4414.6322169049
 30
0.0
 11
261.3556089088
 21
4414.6322169049
 31
0.0
  0
LINE
  5
A0
  8
0
  6
CONTINUOUS
 62
     7
 10
265.1943733321
 20
4404.6322169049
 30
0.0
 11
333.6751274144999
 21
4404.6322169049
 31
0.0
  0
LINE
  5
A2
  8
0
  6
CONTINUOUS
 62
     7
 10
573.5617011517
 20
4414.6322169049
 30
0.0
 11
895.1557567467
 21
4414.6322169049
 31
0.0
  0
LINE
  5
A3
  8
0
  6
CONTINUOUS
 62
     7
 10
918.3597881593
 20
4398.9366742347
 30
0.0
 11
1095.2040314126
 21
3957.9115579764
 31
0.0
  0
LINE
  5
A4
  8
0
  6
CONTINUOUS
 62
     7
 10
1097.0
 20
3948.6071006466
 30
0.0
 11
1097.0
 21
2818.4846237961
 31
0.0
  0
LINE
  5
A5
  8
0
  6
CONTINUOUS
 62
     7
 10
1072.0
 20
2793.4846237961
 30
0.0
 11
573.5617011517
 21
2793.4846237961
 31
0.0
  0
LINE
  5
A7
  8
0
  6
CONTINUOUS
 62
     7
 10
569.7229367284
 20
2803.4846237961
 30
0.0
 11
501.2421826459999
 21
2803.4846237961
 31
0.0
  0
LINE
  5
A9
  8
0
  6
CONTINUOUS
 62
     7
 10
261.3556089088
 20
2793.4846237961
 30
0.0
 11
-379.5209887879
 21
2793.4846237961
 31
0.0
  0
ARC
  5
AA
  8
0
  6
CONTINUOUS
 62
     7
 10
-1190.1653798791
 20
2818.4846237961
 30
0.0
 40
24.99999999999727
 50
180.0
 51
270.0
  0
ARC
  5
AB
  8
0
  6
CONTINUOUS
 62
     7
 10
-1190.1653798791
 20
3948.6071006466
 30
0.0
 40
24.99999999997961
 50
158.1499788627
 51
180.0
  0
ARC
  5
AC
  8
0
  6
CONTINUOUS
 62
     7
 10
-1013.3211366258
 20
4389.6322169049
 30
0.0
 40
24.99999999999363
 50
90.0
 51
158.1499788627
  0
ARC
  5
AD
  8
0
  6
CONTINUOUS
 62
     7
 10
895.1557567467
 20
4389.6322169049
 30
0.0
 40
24.99999999999636
 50
21.8500211373
 51
90.0
  0
ARC
  5
AE
  8
0
  6
CONTINUOUS
 62
     7
 10
1072.0
 20
3948.6071006466
 30
0.0
 40
25.00000000000887
 50
0.0
 51
21.8500211373
  0
ARC
  5
AF
  8
0
  6
CONTINUOUS
 62
     7
 10
1072.0
 20
2818.4846237961
 30
0.0
 40
25.0
 50
270.0
 51
0.0
  0
LINE
  5
D7
  8
0
 10
-455.8405072936
 20
4404.6322169049
 30
0.0
 11
-453.8405072936
 21
4396.6322169049
 31
0.0
  0
LINE
  5
D8
  8
0
 10
-453.8405072936
 20
4396.6322169049
 30
0.0
 11
-451.8405072936
 21
4404.6322169049
 31
0.0
  0
LINE
  5
D9
  8
0
 10
-383.3597532112
 20
4404.6322169049
 30
0.0
 11
-381.4403709995
 21
4396.6322169049
 31
0.0
  0
LINE
  5
DA
  8
0
 10
-381.4403709995
 20
4396.6322169049
 30
0.0
 11
-379.5209887879
 21
4414.6322169049
 31
0.0
  0
LINE
  5
DB
  8
0
  6
CONTINUOUS
 62
     7
 10
-451.8405072936
 20
4404.6322169049
 30
0.0
 11
-383.3597532112
 21
4404.6322169049
 31
0.0
  0
LINE
  5
DD
  8
0
 10
-615.4075625251
 20
4404.6322169049
 30
0.0
 11
-617.4075625251
 21
4396.6322169049
 31
0.0
  0
LINE
  5
DE
  8
0
 10
-617.4075625251
 20
4396.6322169049
 30
0.0
 11
-619.4075625251
 21
4404.6322169049
 31
0.0
  0
LINE
  5
DF
  8
0
 10
-687.8883166075001
 20
4404.6322169049
 30
0.0
 11
-689.8076988192001
 21
4396.6322169049
 31
0.0
  0
LINE
  5
E0
  8
0
 10
-689.8076988192001
 20
4396.6322169049
 30
0.0
 11
-691.7270810307
 21
4414.6322169049
 31
0.0
  0
LINE
  5
E1
  8
0
  6
CONTINUOUS
 62
     7
 10
-615.4075625251
 20
4404.6322169049
 30
0.0
 11
-455.8405072936
 21
4404.6322169049
 31
0.0
  0
LINE
  5
E2
  8
0
 10
569.7229367284
 20
4404.6322169049
 30
0.0
 11
571.6423189401
 21
4396.6322169049
 31
0.0
  0
LINE
  5
E3
  8
0
 10
571.6423189401
 20
4396.6322169049
 30
0.0
 11
573.5617011517
 21
4414.6322169049
 31
0.0
  0
LINE
  5
E4
  8
0
 10
497.2421826459999
 20
4404.6322169049
 30
0.0
 11
499.2421826459999
 21
4396.6322169049
 31
0.0
  0
LINE
  5
E5
  8
0
 10
499.2421826459999
 20
4396.6322169049
 30
0.0
 11
501.2421826459999
 21
4404.6322169049
 31
0.0
  0
LINE
  5
E6
  8
0
 10
337.6751274144999
 20
4404.6322169049
 30
0.0
 11
335.6751274144999
 21
4396.6322169049
 31
0.0
  0
LINE
  5
E7
  8
0
 10
335.6751274144999
 20
4396.6322169049
 30
0.0
 11
333.6751274144999
 21
4404.6322169049
 31
0.0
  0
LINE
  5
E8
  8
0
 10
265.1943733320999
 20
4404.6322169049
 30
0.0
 11
263.2749911203999
 21
4396.6322169049
 31
0.0
  0
LINE
  5
E9
  8
0
 10
263.2749911203999
 20
4396.6322169049
 30
0.0
 11
261.3556089088
 21
4414.6322169049
 31
0.0
  0
LINE
  5
EA
  8
0
  6
CONTINUOUS
 62
     7
 10
337.6751274144999
 20
4404.6322169049
 30
0.0
 11
497.2421826459999
 21
4404.6322169049
 31
0.0
  0
LINE
  5
EB
  8
0
  6
CONTINUOUS
 62
     7
 10
501.2421826459999
 20
4404.6322169049
 30
0.0
 11
569.7229367284
 21
4404.6322169049
 31
0.0
  0
LINE
  5
ED
  8
0
 10
-687.8883166075001
 20
2803.4846237961
 30
0.0
 11
-689.8076988192001
 21
2811.4846237961
 31
0.0
  0
LINE
  5
EE
  8
0
 10
-689.8076988192001
 20
2811.4846237961
 30
0.0
 11
-691.7270810307
 21
2793.4846237961
 31
0.0
  0
LINE
  5
EF
  8
0
 10
-615.4075625251
 20
2803.4846237961
 30
0.0
 11
-617.4075625251
 21
2811.4846237961
 31
0.0
  0
LINE
  5
F0
  8
0
 10
-617.4075625251
 20
2811.4846237961
 30
0.0
 11
-619.4075625251
 21
2803.4846237961
 31
0.0
  0
LINE
  5
F1
  8
0
 10
-455.8405072936
 20
2803.4846237961
 30
0.0
 11
-453.8405072936
 21
2811.4846237961
 31
0.0
  0
LINE
  5
F2
  8
0
 10
-453.8405072936
 20
2811.4846237961
 30
0.0
 11
-451.8405072936
 21
2803.4846237961
 31
0.0
  0
LINE
  5
F3
  8
0
 10
-383.3597532112
 20
2803.4846237961
 30
0.0
 11
-381.4403709995
 21
2811.4846237961
 31
0.0
  0
LINE
  5
F4
  8
0
 10
-381.4403709995
 20
2811.4846237961
 30
0.0
 11
-379.5209887879
 21
2793.4846237961
 31
0.0
  0
LINE
  5
F5
  8
0
 10
265.1943733320999
 20
2803.4846237961
 30
0.0
 11
263.2749911203999
 21
2811.4846237961
 31
0.0
  0
LINE
  5
F6
  8
0
 10
263.2749911203999
 20
2811.4846237961
 30
0.0
 11
261.3556089088
 21
2793.4846237961
 31
0.0
  0
LINE
  5
F7
  8
0
 10
337.6751274144999
 20
2803.4846237961
 30
0.0
 11
335.6751274144999
 21
2811.4846237961
 31
0.0
  0
LINE
  5
F8
  8
0
 10
335.6751274144999
 20
2811.4846237961
 30
0.0
 11
333.6751274144999
 21
2803.4846237961
 31
0.0
  0
LINE
  5
F9
  8
0
 10
497.2421826459999
 20
2803.4846237961
 30
0.0
 11
499.2421826459999
 21
2811.4846237961
 31
0.0
  0
LINE
  5
FA
  8
0
 10
499.2421826459999
 20
2811.4846237961
 30
0.0
 11
501.2421826459999
 21
2803.4846237961
 31
0.0
  0
LINE
  5
FB
  8
0
 10
569.7229367284
 20
2803.4846237961
 30
0.0
 11
571.6423189401
 21
2811.4846237961
 31
0.0
  0
LINE
  5
FC
  8
0
 10
571.6423189401
 20
2811.4846237961
 30
0.0
 11
573.5617011517
 21
2793.4846237961
 31
0.0
  0
LINE
  5
FD
  8
0
  6
CONTINUOUS
 62
     7
 10
333.6751274144999
 20
2803.4846237961
 30
0.0
 11
265.1943733321
 21
2803.4846237961
 31
0.0
  0
LINE
  5
FE
  8
0
  6
CONTINUOUS
 62
     7
 10
497.2421826459999
 20
2803.4846237961
 30
0.0
 11
337.6751274144999
 21
2803.4846237961
 31
0.0
  0
LINE
  5
FF
  8
0
  6
CONTINUOUS
 62
     7
 10
-619.4075625251
 20
2803.4846237961
 30
0.0
 11
-687.8883166074
 21
2803.4846237961
 31
0.0
  0
LINE
  5
100
  8
0
  6
CONTINUOUS
 62
     7
 10
-455.8405072936
 20
2803.4846237961
 30
0.0
 11
-615.4075625251
 21
2803.4846237961
 31
0.0
  0
ENDSEC
  0
EOF
