  0
SECTION
  2
HEADER
  9
$ACADVER
  1
AC1009
  9
$INSBASE
 10
0.0
 20
0.0
 30
0.0
  9
$EXTMIN
 10
37.293427622542183
 20
15.320618550947559
 30
0.0
  9
$EXTMAX
 10
373.99199068218871
 20
288.74946108613187
 30
31.834400056947789
  9
$LIMMIN
 10
0.0
 20
0.0
  9
$LIMMAX
 10
12.0
 20
9.0
  9
$ORTHOMODE
 70
     1
  9
$REGENMODE
 70
     1
  9
$FILLMODE
 70
     1
  9
$QTEXTMODE
 70
     0
  9
$MIRRTEXT
 70
     0
  9
$DRAGMODE
 70
     2
  9
$LTSCALE
 40
1.0
  9
$OSMODE
 70
  3071
  9
$ATTMODE
 70
     1
  9
$TEXTSIZE
 40
0.2
  9
$TRACEWID
 40
0.05
  9
$TEXTSTYLE
  7
STANDARD
  9
$CLAYER
  8
0
  9
$CELTYPE
  6
BYLAYER
  9
$CECOLOR
 62
   256
  9
$DIMSCALE
 40
1.0
  9
$DIMASZ
 40
0.18
  9
$DIMEXO
 40
0.0625
  9
$DIMDLI
 40
0.38
  9
$DIMRND
 40
0.0
  9
$DIMDLE
 40
0.0
  9
$DIMEXE
 40
0.18
  9
$DIMTP
 40
0.0
  9
$DIMTM
 40
0.0
  9
$DIMTXT
 40
0.18
  9
$DIMCEN
 40
0.09
  9
$DIMTSZ
 40
0.0
  9
$DIMTOL
 70
     0
  9
$DIMLIM
 70
     0
  9
$DIMTIH
 70
     1
  9
$DIMTOH
 70
     1
  9
$DIMSE1
 70
     0
  9
$DIMSE2
 70
     0
  9
$DIMTAD
 70
     0
  9
$DIMZIN
 70
     0
  9
$DIMBLK
  1

  9
$DIMASO
 70
     1
  9
$DIMSHO
 70
     1
  9
$DIMPOST
  1

  9
$DIMAPOST
  1

  9
$DIMALT
 70
     0
  9
$DIMALTD
 70
     2
  9
$DIMALTF
 40
25.399999999999999
  9
$DIMLFAC
 40
1.0
  9
$DIMTOFL
 70
     0
  9
$DIMTVP
 40
0.0
  9
$DIMTIX
 70
     0
  9
$DIMSOXD
 70
     0
  9
$DIMSAH
 70
     0
  9
$DIMBLK1
  1

  9
$DIMBLK2
  1

  9
$DIMSTYLE
  2
STANDARD
  9
$DIMCLRD
 70
     0
  9
$DIMCLRE
 70
     0
  9
$DIMCLRT
 70
     0
  9
$DIMTFAC
 40
1.0
  9
$DIMGAP
 40
0.09
  9
$LUNITS
 70
     2
  9
$LUPREC
 70
     4
  9
$SKETCHINC
 40
0.1
  9
$FILLETRAD
 40
1.0
  9
$AUNITS
 70
     0
  9
$AUPREC
 70
     0
  9
$MENU
  1
.
  9
$ELEVATION
 40
0.0
  9
$PELEVATION
 40
0.0
  9
$THICKNESS
 40
0.0
  9
$LIMCHECK
 70
     0
  9
$BLIPMODE
 70
     0
  9
$CHAMFERA
 40
0.0
  9
$CHAMFERB
 40
0.0
  9
$SKPOLY
 70
     0
  9
$TDCREATE
 40
2455544.5911481832
  9
$TDUPDATE
 40
2455686.5765147568
  9
$TDINDWG
 40
0.0016954051
  9
$TDUSRTIMER
 40
0.0016952199
  9
$USRTIMER
 70
     1
  9
$ANGBASE
 50
0.0
  9
$ANGDIR
 70
     0
  9
$PDMODE
 70
     0
  9
$PDSIZE
 40
0.0
  9
$PLINEWID
 40
0.0
  9
$COORDS
 70
     2
  9
$SPLFRAME
 70
     0
  9
$SPLINETYPE
 70
     6
  9
$SPLINESEGS
 70
     8
  9
$ATTDIA
 70
     0
  9
$ATTREQ
 70
     1
  9
$HANDLING
 70
     1
  9
$HANDSEED
  5
350
  9
$SURFTAB1
 70
     6
  9
$SURFTAB2
 70
     6
  9
$SURFTYPE
 70
     6
  9
$SURFU
 70
     6
  9
$SURFV
 70
     6
  9
$UCSNAME
  2

  9
$UCSORG
 10
0.0
 20
0.0
 30
0.0
  9
$UCSXDIR
 10
1.0
 20
0.0
 30
0.0
  9
$UCSYDIR
 10
0.0
 20
1.0
 30
0.0
  9
$PUCSNAME
  2

  9
$PUCSORG
 10
0.0
 20
0.0
 30
0.0
  9
$PUCSXDIR
 10
1.0
 20
0.0
 30
0.0
  9
$PUCSYDIR
 10
0.0
 20
1.0
 30
0.0
  9
$USERI1
 70
     0
  9
$USERI2
 70
     0
  9
$USERI3
 70
     0
  9
$USERI4
 70
     0
  9
$USERI5
 70
     0
  9
$USERR1
 40
0.0
  9
$USERR2
 40
0.0
  9
$USERR3
 40
0.0
  9
$USERR4
 40
0.0
  9
$USERR5
 40
0.0
  9
$WORLDVIEW
 70
     1
  9
$SHADEDGE
 70
     3
  9
$SHADEDIF
 70
    70
  9
$TILEMODE
 70
     1
  9
$MAXACTVP
 70
    64
  9
$PLIMCHECK
 70
     0
  9
$PEXTMIN
 10
0.0
 20
0.0
 30
0.0
  9
$PEXTMAX
 10
0.0
 20
0.0
 30
0.0
  9
$PLIMMIN
 10
0.0
 20
0.0
  9
$PLIMMAX
 10
12.0
 20
9.0
  9
$UNITMODE
 70
     0
  9
$VISRETAIN
 70
     1
  9
$PLINEGEN
 70
     0
  9
$PSLTSCALE
 70
     1
  0
ENDSEC
  0
SECTION
  2
TABLES
  0
TABLE
  2
VPORT
 70
     1
  0
VPORT
  2
*ACTIVE
 70
     0
 10
0.0
 20
0.0
 11
1.0
 21
1.0
 12
197.1149781134005
 22
143.42541038646641
 13
0.0
 23
0.0
 14
0.5
 24
0.5
 15
0.5
 25
0.5
 16
0.0
 26
0.0
 36
1.0
 17
0.0
 27
0.0
 37
0.0
 40
510.14425083023798
 41
1.885304659498207
 42
50.0
 43
0.0
 44
0.0
 50
0.0
 51
0.0
 71
     0
 72
  1000
 73
     1
 74
     3
 75
     0
 76
     0
 77
     0
 78
     0
  0
ENDTAB
  0
TABLE
  2
LTYPE
 70
     1
  0
LTYPE
  2
CONTINUOUS
 70
     0
  3
Solid line
 72
    65
 73
     0
 40
0.0
  0
ENDTAB
  0
TABLE
  2
LAYER
 70
     3
  0
LAYER
  2
0
 70
     0
 62
     7
  6
CONTINUOUS
  0
LAYER
  2
CONTORNO
 70
     0
 62
     7
  6
CONTINUOUS
  0
LAYER
  2
MANOVELLA
 70
     0
 62
     8
  6
CONTINUOUS
  0
ENDTAB
  0
TABLE
  2
STYLE
 70
     3
  0
STYLE
  2
STANDARD
 70
     0
 40
0.0
 41
1.0
 50
0.0
 71
     0
 42
0.2
  3
txt.shx
  4

  0
STYLE
  2
ANNOTATIVE
 70
     0
 40
0.0
 41
1.0
 50
0.0
 71
     0
 42
0.2
  3
txt
  4

  0
STYLE
  2
ANNOTATIVA
 70
     0
 40
0.0
 41
1.0
 50
0.0
 71
     0
 42
0.2
  3
txt.shx
  4

  0
ENDTAB
  0
TABLE
  2
VIEW
 70
     0
  0
ENDTAB
  0
TABLE
  2
UCS
 70
     0
  0
ENDTAB
  0
TABLE
  2
APPID
 70
     7
  0
APPID
  2
ACAD
 70
     0
  0
APPID
  2
ACADANNOTATIVE
 70
     0
  0
APPID
  2
ACAD_MLEADERVER
 70
     0
  0
APPID
  2
ACADANNOPO
 70
     0
  0
APPID
  2
ACAD_DSTYLE_DIMJAG
 70
     0
  0
APPID
  2
ACAD_DSTYLE_DIMTALN
 70
     0
  0
APPID
  2
ACAECLAYERSTANDARD
 70
     0
  0
ENDTAB
  0
TABLE
  2
DIMSTYLE
 70
     4
  0
DIMSTYLE
  2
STANDARD
 70
     0
  3

  4

  5

  6

  7

 40
1.0
 41
0.18
 42
0.0625
 43
0.38
 44
0.18
 45
0.0
 46
0.0
 47
0.0
 48
0.0
140
0.18
141
0.09
142
0.0
143
25.399999999999999
144
1.0
145
0.0
146
1.0
147
0.09
 71
     0
 72
     0
 73
     1
 74
     1
 75
     0
 76
     0
 77
     0
 78
     0
170
     0
171
     2
172
     0
173
     0
174
     0
175
     0
176
     0
177
     0
178
     0
  0
DIMSTYLE
  2
ANNOTATIVE
 70
     0
  3

  4

  5

  6

  7

 40
1.0
 41
0.18
 42
0.0625
 43
0.38
 44
0.18
 45
0.0
 46
0.0
 47
0.0
 48
0.0
140
0.18
141
0.09
142
0.0
143
25.399999999999999
144
1.0
145
0.0
146
1.0
147
0.09
 71
     0
 72
     0
 73
     1
 74
     1
 75
     0
 76
     0
 77
     0
 78
     0
170
     0
171
     2
172
     0
173
     0
174
     0
175
     0
176
     0
177
     0
178
     0
  0
DIMSTYLE
  2
ANNOTATIVA
 70
     0
  3

  4

  5

  6

  7

 40
0.0
 41
0.18
 42
0.0625
 43
0.38
 44
0.18
 45
0.0
 46
0.0
 47
0.0
 48
0.0
140
0.18
141
0.09
142
0.0
143
25.399999999999999
144
1.0
145
0.0
146
1.0
147
0.09
 71
     0
 72
     0
 73
     1
 74
     1
 75
     0
 76
     0
 77
     0
 78
     0
170
     0
171
     2
172
     0
173
     0
174
     0
175
     0
176
     0
177
     0
178
     0
  0
DIMSTYLE
  2
ISO-25
 70
     0
  3

  4

  5

  6

  7

 40
1.0
 41
2.5
 42
0.625
 43
3.75
 44
1.25
 45
0.0
 46
0.0
 47
0.0
 48
0.0
140
2.5
141
2.5
142
0.0
143
0.0393700787
144
1.0
145
0.0
146
1.0
147
0.625
 71
     0
 72
     0
 73
     0
 74
     0
 75
     0
 76
     0
 77
     1
 78
     8
170
     0
171
     3
172
     1
173
     0
174
     0
175
     0
176
     0
177
     0
178
     0
  0
ENDTAB
  0
ENDSEC
  0
SECTION
  2
BLOCKS
  0
BLOCK
  8
0
  2
$MODEL_SPACE
 70
     0
 10
0.0
 20
0.0
 30
0.0
  3
$MODEL_SPACE
  1

  0
ENDBLK
  5
313
  8
0
  0
BLOCK
 67
     1
  8
0
  2
$PAPER_SPACE
 70
     0
 10
0.0
 20
0.0
 30
0.0
  3
$PAPER_SPACE
  1

  0
ENDBLK
  5
30F
 67
     1
  8
0
  0
ENDSEC
  0
SECTION
  2
ENTITIES
  0
ARC
  5
18C
  8
0
 10
205.6427091523218
 20
54.908174255760542
 30
0.0
 40
82.000000000029303
 50
19.800567838272379
 51
160.1994321617274
  0
ARC
  5
18D
  8
0
 10
205.64270915235079
 20
54.908174255760542
 30
0.0
 40
102.0
 50
28.079630641071049
 51
151.92036935892889
  0
ARC
  5
18E
  8
0
 10
304.4596663641712
 20
107.6263776336705
 30
0.0
 40
10.0
 50
208.07963064107111
 51
292.95711454291143
  0
ARC
  5
18F
  8
0
 10
205.64270915240181
 20
54.908174255810557
 30
0.0
 40
147.2564915549174
 50
27.13517478382548
 51
87.417780682950081
  0
ARC
  5
190
  8
0
 10
327.7917864277112
 20
117.50967100755911
 30
0.0
 40
10.0
 50
292.95711454291143
 51
27.13517478382548
  0
ARC
  5
191
  8
0
 10
205.64458416735201
 20
54.905278200958982
 30
0.0
 40
147.25948106823731
 50
92.976926848967935
 51
152.864155174476
  0
ARC
  5
192
  8
0
 10
205.64270915235079
 20
54.908174255760542
 30
0.0
 40
170.25649155498829
 50
9.4253546293067512
 51
77.837405793574561
  0
ARC
  5
193
  8
0
 10
205.64270915235079
 20
54.908174255760542
 30
0.0
 40
170.25649155498829
 50
102.1625942064254
 51
170.57464537069319
  0
LINE
  5
194
  8
0
 39
31.834400056947789
 10
331.69220670942718
 20
108.3017004588469
 30
0.0
 11
308.36008664588718
 21
98.418407084958346
 31
0.0
  0
LINE
  5
195
  8
0
 39
31.834400056947789
 10
197.9968395167196
 20
201.96603695816481
 30
0.0
 11
205.64270915235079
 21
188.5953033311857
 31
0.0
  0
LINE
  5
196
  8
0
 39
31.834400056947789
 10
205.64270915235079
 20
188.5953033311857
 30
0.0
 11
212.2770520322336
 21
202.01514145866491
 31
0.0
  0
LINE
  5
197
  8
0
 39
31.834400056947789
 10
363.99199068218871
 20
15.320618550976659
 30
0.0
 11
293.60557002179831
 21
15.320618550976659
 31
0.0
  0
ARC
  5
198
  8
0
 39
31.834400056947789
 10
293.60557002179831
 20
25.320618550976661
 30
0.0
 40
10.0
 50
180.0
 51
270.0
  0
LINE
  5
199
  8
0
 39
31.834400056947789
 10
117.6798482829324
 20
15.320618550947559
 30
0.0
 11
47.293427622542183
 21
15.320618550947559
 31
0.0
  0
ARC
  5
19A
  8
0
 39
31.834400056947789
 10
47.293427622542183
 20
25.320618550947561
 30
0.0
 40
10.0
 50
180.0
 51
270.0
  0
ARC
  5
19B
  8
0
 39
31.834400056947789
 10
283.6055700217691
 20
80.320618550947543
 30
0.0
 40
2.5
 50
328.62822002646232
 51
108.9271227336543
  0
ARC
  5
19C
  8
0
 39
31.834400056947789
 10
127.6798482829325
 20
80.320618550947543
 30
0.0
 40
2.5
 50
71.072877266345259
 51
211.37177997353771
  0
ARC
  5
19D
  8
0
 39
31.834400056947789
 10
37.293427622687723
 20
80.320618550947543
 30
0.0
 40
2.5
 50
269.99999999666488
 51
80.995306969633376
  0
ARC
  5
19E
  8
0
 39
31.834400056947789
 10
373.99199068201398
 20
80.320618550947543
 30
0.0
 40
2.5
 50
99.004693030366653
 51
270.00000000333512
  0
LINE
  5
1A0
  8
0
 39
31.834400056947789
 10
283.6055700217691
 20
42.82061855094755
 30
0.0
 11
283.60557002179831
 21
25.320618550976661
 31
0.0
  0
LINE
  5
1A1
  8
0
 39
31.834400056947789
 10
373.9919906821595
 20
77.820618550947543
 30
0.0
 11
373.9919906821886
 21
47.820618550976661
 31
0.0
  0
LINE
  5
1A2
  8
0
 39
31.834400056947789
 10
373.9919906821886
 20
42.820618550976661
 30
0.0
 11
373.9919906821886
 21
25.320618550976661
 31
0.0
  0
ARC
  5
1A3
  8
0
 39
31.834400056947789
 10
363.99199068218871
 20
25.320618550976661
 30
0.0
 40
10.0
 50
270.0
 51
0.0
  0
LINE
  5
1A5
  8
0
 39
31.834400056947789
 10
127.6798482829325
 20
42.82061855094755
 30
0.0
 11
127.6798482829325
 21
25.320618550947561
 31
0.0
  0
ARC
  5
1A6
  8
0
 39
31.834400056947789
 10
117.6798482829324
 20
25.320618550947561
 30
0.0
 40
10.0
 50
270.0
 51
0.0
  0
LINE
  5
1A7
  8
0
 39
31.834400056947789
 10
37.293427622542211
 20
77.820618550947543
 30
0.0
 11
37.293427622542211
 21
47.820618550947543
 31
0.0
  0
LINE
  5
1A8
  8
0
 39
31.834400056947789
 10
37.293427622542211
 20
42.82061855094755
 30
0.0
 11
37.293427622542211
 21
25.320618550947561
 31
0.0
  0
ARC
  5
1A9
  8
0
 39
31.834400056947789
 10
37.293427622542211
 20
45.320618550947543
 30
0.0
 40
2.5
 50
270.0
 51
90.0
  0
ARC
  5
1AA
  8
0
 39
31.834400056947789
 10
127.6798482829325
 20
45.320618550947543
 30
0.0
 40
2.5
 50
148.62822002646109
 51
270.0
  0
ARC
  5
1AB
  8
0
 39
31.834400056947789
 10
283.6055700217691
 20
45.320618550947543
 30
0.0
 40
2.5
 50
270.0
 51
31.37177997353843
  0
ARC
  5
1AC
  8
0
 39
31.834400056947789
 10
373.9919906821595
 20
45.320618550976661
 30
0.0
 40
2.5
 50
90.0
 51
270.0
  0
ARC
  5
1AD
  8
0
 10
106.8257519405304
 20
107.6263776336705
 30
0.0
 40
10.0
 50
247.04288545935361
 51
331.92036935892889
  0
ARC
  5
1AE
  8
0
 10
83.493631876990378
 20
117.50967100755911
 30
0.0
 40
10.0
 50
152.8648252178069
 51
247.04288545935361
  0
LINE
  5
1AF
  8
0
 39
31.834400056947789
 10
79.593211595274454
 20
108.3017004588469
 30
0.0
 11
102.9253316588145
 21
98.418407084958346
 31
0.0
  0
LINE
  5
1B0
  8
0
 39
31.834400056947789
 10
230.83591948253141
 20
288.74946108613182
 30
0.0
 11
180.44949882214101
 21
288.74946108613182
 31
0.0
  0
ARC
  5
1B1
  8
0
 39
31.834400056947789
 10
180.44949882214101
 20
278.74946108613187
 30
0.0
 40
10.0
 50
90.0
 51
180.0
  0
LINE
  5
1B2
  8
0
 39
31.834400056947789
 10
170.44949882214109
 20
226.24946108619
 30
0.0
 11
170.4494988221702
 21
256.24946108613187
 31
0.0
  0
LINE
  5
1B3
  8
0
 39
31.834400056947789
 10
170.4494988221993
 20
261.24946108613187
 30
0.0
 11
170.44949882222841
 21
278.74946108616081
 31
0.0
  0
LINE
  5
1B4
  8
0
 39
31.834400056947789
 10
240.8359194825604
 20
226.24946108616089
 30
0.0
 11
240.8359194825604
 21
256.24946108613187
 31
0.0
  0
LINE
  5
1B5
  8
0
 39
31.834400056947789
 10
240.8359194825897
 20
261.24946108613187
 30
0.0
 11
240.8359194825604
 21
278.74946108613187
 31
0.0
  0
ARC
  5
1B6
  8
0
 39
31.834400056947789
 10
230.83591948253141
 20
278.74946108613187
 30
0.0
 40
10.0
 50
0.0
 51
90.0
  0
ARC
  5
1B7
  8
0
 39
31.834400056947789
 10
170.44949882214109
 20
223.74946108619
 30
0.0
 40
2.5
 50
254.27483679274221
 51
90.0
  0
ARC
  5
1B8
  8
0
 39
31.834400056947789
 10
240.83591948253141
 20
223.74946108616089
 30
0.0
 40
2.5
 50
90.0
 51
285.7251632087752
  0
ARC
  5
1B9
  8
0
 39
31.834400056947789
 10
170.4494988221993
 20
258.7494610861317
 30
0.0
 40
2.5
 50
270.0
 51
90.0
  0
ARC
  5
1BA
  8
0
 39
31.834400056947789
 10
240.8359194825604
 20
258.7494610861317
 30
0.0
 40
2.5
 50
90.0
 51
270.0
  0
CIRCLE
  5
1BB
  8
0
 39
31.834400056947789
 10
82.486637952751906
 20
30.320618550947561
 30
0.0
 40
6.0
  0
CIRCLE
  5
1BC
  8
0
 39
31.834400056947789
 10
328.79878035200801
 20
30.320618550976661
 30
0.0
 40
6.0
  0
CIRCLE
  5
1BD
  8
0
 39
31.834400056947789
 10
205.64270915235079
 20
273.74946108613187
 30
0.0
 40
6.0
  0
ARC
  5
327
  8
0
 10
283.3922050828001
 20
62.820618550947579
 30
0.0
 40
15.00151740982159
 50
281.5420279713253
 51
78.457972028674618
  0
ARC
  5
328
  8
0
 10
127.8932132219015
 20
62.820618550947579
 30
0.0
 40
15.00151740982159
 50
101.5420279713254
 51
258.4579720286747
  0
ARC
  5
32E
  8
0
 10
124.6915227054694
 20
47.14268063635523
 30
0.0
 40
1.0
 50
328.62822002646112
 51
78.457972028674547
  0
ARC
  5
331
  8
0
 39
31.834400056947789
 10
124.6915227054694
 20
78.49855646553992
 30
0.0
 40
1.0
 50
281.54202797132552
 51
31.371779973537379
  0
ARC
  5
332
  8
0
 39
31.834400056947789
 10
286.59389559923221
 20
47.14268063635523
 30
0.0
 40
1.0
 50
101.5420279713269
 51
211.37177997353919
  0
ARC
  5
333
  8
0
 39
31.834400056947789
 10
286.59389559923221
 20
78.49855646553992
 30
0.0
 40
1.0
 50
148.6282200264622
 51
258.45797202867288
  0
ENDSEC
  0
EOF
