  0
SECTION
  2
HEADER
  9
$ACADVER
  1
AC1009
  9
$DWGCODEPAGE
  3
ansi_1252
  9
$INSBASE
 10
0.0
 20
0.0
 30
0.0
  9
$EXTMIN
 10
0.4495677233429394
 20
1.835792507204612
 30
0.0
  9
$EXTMAX
 10
94.44956772334294
 20
538.0931518200885
 30
0.0
  9
$LIMMIN
 10
0.0
 20
0.0
  9
$LIMMAX
 10
12.0
 20
9.0
  9
$ORTHOMODE
 70
     0
  9
$REGENMODE
 70
     1
  9
$FILLMODE
 70
     1
  9
$QTEXTMODE
 70
     0
  9
$MIRRTEXT
 70
     0
  9
$DRAGMODE
 70
     2
  9
$LTSCALE
 40
1.0
  9
$OSMODE
 70
  1023
  9
$ATTMODE
 70
     1
  9
$TEXTSIZE
 40
0.2
  9
$TRACEWID
 40
0.05
  9
$TEXTSTYLE
  7
STANDARD
  9
$CLAYER
  8
0
  9
$CELTYPE
  6
BYLAYER
  9
$CECOLOR
 62
   256
  9
$DIMSCALE
 40
1.0
  9
$DIMASZ
 40
0.18
  9
$DIMEXO
 40
0.0625
  9
$DIMDLI
 40
0.38
  9
$DIMRND
 40
0.0
  9
$DIMDLE
 40
0.0
  9
$DIMEXE
 40
0.18
  9
$DIMTP
 40
0.0
  9
$DIMTM
 40
0.0
  9
$DIMTXT
 40
0.18
  9
$DIMCEN
 40
0.09
  9
$DIMTSZ
 40
0.0
  9
$DIMTOL
 70
     0
  9
$DIMLIM
 70
     0
  9
$DIMTIH
 70
     1
  9
$DIMTOH
 70
     1
  9
$DIMSE1
 70
     0
  9
$DIMSE2
 70
     0
  9
$DIMTAD
 70
     0
  9
$DIMZIN
 70
     0
  9
$DIMBLK
  1

  9
$DIMASO
 70
     1
  9
$DIMSHO
 70
     1
  9
$DIMPOST
  1

  9
$DIMAPOST
  1

  9
$DIMALT
 70
     0
  9
$DIMALTD
 70
     2
  9
$DIMALTF
 40
25.4
  9
$DIMLFAC
 40
1.0
  9
$DIMTOFL
 70
     0
  9
$DIMTVP
 40
0.0
  9
$DIMTIX
 70
     0
  9
$DIMSOXD
 70
     0
  9
$DIMSAH
 70
     0
  9
$DIMBLK1
  1

  9
$DIMBLK2
  1

  9
$DIMSTYLE
  2
STANDARD
  9
$DIMCLRD
 70
     0
  9
$DIMCLRE
 70
     0
  9
$DIMCLRT
 70
     0
  9
$DIMTFAC
 40
1.0
  9
$DIMGAP
 40
0.09
  9
$LUNITS
 70
     2
  9
$LUPREC
 70
     4
  9
$SKETCHINC
 40
0.1
  9
$FILLETRAD
 40
0.0
  9
$AUNITS
 70
     0
  9
$AUPREC
 70
     0
  9
$MENU
  1
.
  9
$ELEVATION
 40
0.0
  9
$PELEVATION
 40
0.0
  9
$THICKNESS
 40
0.0
  9
$LIMCHECK
 70
     0
  9
$CHAMFERA
 40
0.0
  9
$CHAMFERB
 40
0.0
  9
$SKPOLY
 70
     0
  9
$TDCREATE
 40
2452643.146717593
  9
$TDUPDATE
 40
2456850.657742454
  9
$TDINDWG
 40
0.0113211574
  9
$TDUSRTIMER
 40
2456850.574253056
  9
$USRTIMER
 70
     1
  9
$ANGBASE
 50
0.0
  9
$ANGDIR
 70
     0
  9
$PDMODE
 70
     0
  9
$PDSIZE
 40
0.0
  9
$PLINEWID
 40
0.0
  9
$COORDS
 70
     1
  9
$SPLFRAME
 70
     0
  9
$SPLINETYPE
 70
     6
  9
$SPLINESEGS
 70
     8
  9
$ATTDIA
 70
     0
  9
$ATTREQ
 70
     1
  9
$HANDLING
 70
     1
  9
$HANDSEED
  5
36E
  9
$SURFTAB1
 70
     6
  9
$SURFTAB2
 70
     6
  9
$SURFTYPE
 70
     6
  9
$SURFU
 70
     6
  9
$SURFV
 70
     6
  9
$UCSNAME
  2

  9
$UCSORG
 10
0.0
 20
0.0
 30
0.0
  9
$UCSXDIR
 10
1.0
 20
0.0
 30
0.0
  9
$UCSYDIR
 10
0.0
 20
1.0
 30
0.0
  9
$PUCSNAME
  2

  9
$PUCSORG
 10
0.0
 20
0.0
 30
0.0
  9
$PUCSXDIR
 10
1.0
 20
0.0
 30
0.0
  9
$PUCSYDIR
 10
0.0
 20
1.0
 30
0.0
  9
$USERI1
 70
     0
  9
$USERI2
 70
     0
  9
$USERI3
 70
     0
  9
$USERI4
 70
     0
  9
$USERI5
 70
     0
  9
$USERR1
 40
0.0
  9
$USERR2
 40
0.0
  9
$USERR3
 40
0.0
  9
$USERR4
 40
0.0
  9
$USERR5
 40
0.0
  9
$WORLDVIEW
 70
     1
  9
$SHADEDGE
 70
     3
  9
$SHADEDIF
 70
    70
  9
$TILEMODE
 70
     1
  9
$MAXACTVP
 70
    64
  9
$PLIMCHECK
 70
     0
  9
$PEXTMIN
 10
0.0
 20
0.0
 30
0.0
  9
$PEXTMAX
 10
0.0
 20
0.0
 30
0.0
  9
$PLIMMIN
 10
0.0
 20
0.0
  9
$PLIMMAX
 10
0.0
 20
0.0
  9
$UNITMODE
 70
     0
  9
$VISRETAIN
 70
     1
  9
$PLINEGEN
 70
     0
  9
$PSLTSCALE
 70
     1
  0
ENDSEC
  0
SECTION
  2
TABLES
  0
TABLE
  2
VPORT
 70
     1
  0
VPORT
  2
*ACTIVE
 70
     0
 10
0.0
 20
0.0
 11
1.0
 21
1.0
 12
2750.497798732427
 22
-1112.781026136399
 13
0.0
 23
0.0
 14
0.5
 24
0.5
 15
0.5
 25
0.5
 16
0.0
 26
0.0
 36
1.0
 17
-27.6695935659809
 27
-19.53870295786328
 37
0.0
 40
224.8110140852164
 41
1.446685878962536
 42
50.0
 43
0.0
 44
0.0
 50
0.0
 51
0.0
 71
    16
 72
  1000
 73
     1
 74
     3
 75
     0
 76
     0
 77
     0
 78
     0
  0
ENDTAB
  0
TABLE
  2
LTYPE
 70
     1
  0
LTYPE
  2
CONTINUOUS
 70
     0
  3
Solid line
 72
    65
 73
     0
 40
0.0
  0
ENDTAB
  0
TABLE
  2
LAYER
 70
     2
  0
LAYER
  2
0
 70
     0
 62
     7
  6
CONTINUOUS
  0
LAYER
  2
DEFPOINTS
 70
     0
 62
     7
  6
CONTINUOUS
  0
ENDTAB
  0
TABLE
  2
STYLE
 70
     1
  0
STYLE
  2
STANDARD
 70
     0
 40
0.0
 41
1.0
 50
0.0
 71
     0
 42
0.2
  3
arial.ttf
  4

  0
ENDTAB
  0
TABLE
  2
VIEW
 70
     0
  0
ENDTAB
  0
TABLE
  2
UCS
 70
     0
  0
ENDTAB
  0
TABLE
  2
APPID
 70
     1
  0
APPID
  2
ACAD
 70
     0
  0
ENDTAB
  0
TABLE
  2
DIMSTYLE
 70
     1
  0
DIMSTYLE
  2
STANDARD
 70
     0
  3

  4

  5

  6

  7

 40
1.0
 41
0.18
 42
0.0625
 43
0.38
 44
0.18
 45
0.0
 46
0.0
 47
0.0
 48
0.0
140
0.18
141
0.09
142
0.0
143
25.4
144
1.0
145
0.0
146
1.0
147
0.09
 71
     0
 72
     0
 73
     1
 74
     1
 75
     0
 76
     0
 77
     0
 78
     0
170
     0
171
     2
172
     0
173
     0
174
     0
175
     0
176
     0
177
     0
178
     0
  0
ENDTAB
  0
ENDSEC
  0
SECTION
  2
BLOCKS
  0
BLOCK
  8
0
  2
$MODEL_SPACE
 70
     0
 10
0.0
 20
0.0
 30
0.0
  3
$MODEL_SPACE
  1

  0
ENDBLK
  5
21
  8
0
  0
BLOCK
 67
     1
  8
0
  2
$PAPER_SPACE
 70
     0
 10
0.0
 20
0.0
 30
0.0
  3
$PAPER_SPACE
  1

  0
ENDBLK
  5
5B
 67
     1
  8
0
  0
BLOCK
  8
0
  2
*D0
 70
     1
 10
0.0
 20
0.0
 30
0.0
  3
*D0
  1

  0
ARC
  5
1A0
  8
0
 62
     0
 10
741.5508870157165
 20
307.858650687251
 30
0.0
 40
22.73211963350866
 50
180.4536870042042
 51
207.517716981193
  0
ARC
  5
1A1
  8
0
 62
     0
 10
741.5508870157165
 20
307.858650687251
 30
0.0
 40
22.73211963350866
 50
208.5632567699311
 51
235.6247463166338
  0
SOLID
  5
1A2
  8
0
 62
     0
 10
718.8494797951012
 20
307.6787708726685
 30
0.0
 11
718.7894802653504
 21
307.6785333233291
 31
0.0
 12
718.8187673822079
 22
307.858650687251
 32
0.0
 13
718.8187673822079
 23
307.858650687251
 33
0.0
  0
SOLID
  5
1A3
  8
0
 62
     0
 10
728.699251603968
 20
289.0716991845753
 30
0.0
 11
728.7329319101678
 21
289.121354365315
 31
0.0
 12
728.865057299287
 22
288.9954858563457
 32
0.0
 13
728.865057299287
 23
288.9954858563457
 33
0.0
  0
TEXT
  5
1A4
  8
0
  6
CONTINUOUS
 62
     0
 10
721.3001760184914
 20
297.0843614798165
 30
0.0
 40
0.18
  1
56°
  0
POINT
  5
1A5
  8
DEFPOINTS
 62
     0
 10
720.0178753823951
 20
300.5731395156588
 30
0.0
  0
POINT
  5
1A6
  8
DEFPOINTS
 62
     0
 10
535.7448145454887
 20
1.835792507204587
 30
0.0
  0
POINT
  5
1A7
  8
DEFPOINTS
 62
     0
 10
94.44956772334294
 20
307.858650687251
 30
0.0
  0
POINT
  5
1A8
  8
DEFPOINTS
 62
     0
 10
1072.709268924165
 20
307.858650687251
 30
0.0
  0
POINT
  5
1A9
  8
DEFPOINTS
 62
     0
 10
741.5508870157165
 20
307.858650687251
 30
0.0
  0
ENDBLK
  5
19F
  8
0
  0
BLOCK
  8
0
  2
*D1
 70
     1
 10
0.0
 20
0.0
 30
0.0
  3
*D1
  1

  0
ARC
  5
248
  8
0
 62
     0
 10
680.5880243459501
 20
307.858650687251
 30
0.0
 40
24.95612290341366
 50
236.4916891261329
 51
297.1901585804379
  0
ARC
  5
249
  8
0
 62
     0
 10
680.5880243459501
 20
307.858650687251
 30
0.0
 40
24.95612290341366
 50
298.8950299469263
 51
359.5867441947051
  0
SOLID
  5
24A
  8
0
 62
     0
 10
666.8274504749508
 20
287.0750461039749
 30
0.0
 11
666.7941467954698
 21
287.0251375382467
 31
0.0
 12
666.6610729380259
 22
287.1500028595533
 32
0.0
 13
666.6610729380259
 23
287.1500028595533
 33
0.0
  0
SOLID
  5
24B
  8
0
 62
     0
 10
705.573497914985
 20
307.6785436678775
 30
0.0
 11
705.5134983051546
 21
307.6787600476422
 31
0.0
 12
705.5441472493637
 22
307.858650687251
 32
0.0
 13
705.5441472493637
 23
307.858650687251
 33
0.0
  0
TEXT
  5
24C
  8
0
  6
CONTINUOUS
 62
     0
 10
692.0542436584384
 20
285.7417264651051
 30
0.0
 40
0.18
  1
124°
  0
POINT
  5
24D
  8
DEFPOINTS
 62
     0
 10
683.7960526594563
 20
283.109577478138
 30
0.0
  0
POINT
  5
24E
  8
DEFPOINTS
 62
     0
 10
485.7448145454885
 20
307.858650687251
 30
0.0
  0
POINT
  5
24F
  8
DEFPOINTS
 62
     0
 10
485.129942858435
 20
17.22271350006892
 30
0.0
  0
POINT
  5
250
  8
DEFPOINTS
 62
     0
 10
690.9360153286628
 20
323.2455716801153
 30
0.0
  0
POINT
  5
251
  8
DEFPOINTS
 62
     0
 10
739.0508870157165
 20
307.858650687251
 30
0.0
  0
ENDBLK
  5
247
  8
0
  0
BLOCK
  8
0
  2
*D2
 70
     1
 10
0.0
 20
0.0
 30
0.0
  3
*D2
  1

  0
ARC
  5
258
  8
0
 62
     0
 10
741.5508870157165
 20
307.858650687251
 30
0.0
 40
24.69996334948847
 50
180.4175416371131
 51
207.5591735506433
  0
ARC
  5
259
  8
0
 62
     0
 10
741.5508870157165
 20
307.858650687251
 30
0.0
 40
24.69996334948847
 50
208.5214115033886
 51
235.6608916837249
  0
SOLID
  5
25A
  8
0
 62
     0
 10
716.8815793384944
 20
307.6787611940672
 30
0.0
 11
716.8215797367988
 21
307.6785425702611
 31
0.0
 12
716.850923666228
 22
307.858650687251
 32
0.0
 13
716.850923666228
 23
307.858650687251
 33
0.0
  0
SOLID
  5
25B
  8
0
 62
     0
 10
727.60105763965
 20
287.4387256676146
 30
0.0
 11
727.6347222815484
 21
287.4883914695899
 31
0.0
 12
727.766887366525
 22
287.3625646429068
 32
0.0
 13
727.766887366525
 23
287.3625646429068
 33
0.0
  0
TEXT
  5
25C
  8
0
  6
CONTINUOUS
 62
     0
 10
719.5633058892381
 20
296.1593257807059
 30
0.0
 40
0.18
  1
56°
  0
POINT
  5
25D
  8
DEFPOINTS
 62
     0
 10
718.1538344433227
 20
299.9424571328516
 30
0.0
  0
POINT
  5
25E
  8
DEFPOINTS
 62
     0
 10
535.7448145454887
 20
1.835792507204587
 30
0.0
  0
POINT
  5
25F
  8
DEFPOINTS
 62
     0
 10
485.7448145454885
 20
307.858650687251
 30
0.0
  0
POINT
  5
260
  8
DEFPOINTS
 62
     0
 10
739.0508870157165
 20
307.858650687251
 30
0.0
  0
POINT
  5
261
  8
DEFPOINTS
 62
     0
 10
741.5508870157165
 20
307.858650687251
 30
0.0
  0
ENDBLK
  5
257
  8
0
  0
BLOCK
  8
0
  2
*D3
 70
     1
 10
0.0
 20
0.0
 30
0.0
  3
*D3
  1

  0
ARC
  5
268
  8
0
 62
     0
 10
535.7448145454887
 20
1.835792507204612
 30
0.0
 40
16.38626598530758
 50
180.6293863516379
 51
207.3164229678513
  0
ARC
  5
269
  8
0
 62
     0
 10
535.7448145454887
 20
1.835792507204612
 30
0.0
 40
16.38626598530758
 50
208.7668998487473
 51
235.4490469692
  0
SOLID
  5
26A
  8
0
 62
     0
 10
519.3895367404787
 20
1.655959994343787
 30
0.0
 11
519.3295376454807
 21
1.65563045007758
 31
0.0
 12
519.3585485601811
 22
1.835792507204623
 32
0.0
 13
519.3585485601811
 23
1.835792507204623
 33
0.0
  0
SOLID
  5
26B
  8
0
 62
     0
 10
526.4346473682302
 20
-11.68510099885716
 30
0.0
 11
526.4684037694136
 21
-11.63549751733471
 31
0.0
 12
526.6003360133893
 22
-11.76156846164601
 32
0.0
 13
526.6003360133893
 23
-11.76156846164601
 33
0.0
  0
TEXT
  5
26C
  8
0
  6
CONTINUOUS
 62
     0
 10
521.095119297975
 20
-5.955464501967217
 30
0.0
 40
0.18
  1
56°
  0
POINT
  5
26D
  8
DEFPOINTS
 62
     0
 10
520.2229159378371
 20
-3.415909745877968
 30
0.0
  0
POINT
  5
26E
  8
DEFPOINTS
 62
     0
 10
485.7448145454887
 20
1.835792507204644
 30
0.0
  0
POINT
  5
26F
  8
DEFPOINTS
 62
     0
 10
534.3496708104396
 20
-0.2387132070689582
 30
0.0
  0
POINT
  5
270
  8
DEFPOINTS
 62
     0
 10
505.4051299964618
 20
-43.27773048331508
 30
0.0
  0
POINT
  5
271
  8
DEFPOINTS
 62
     0
 10
533.2448145454887
 20
1.835792507204614
 30
0.0
  0
ENDBLK
  5
267
  8
0
  0
BLOCK
  8
0
  2
*D4
 70
     1
 10
0.0
 20
0.0
 30
0.0
  3
*D4
  1

  0
ARC
  5
278
  8
0
 62
     0
 10
535.7448145454887
 20
1.835792507204587
 30
0.0
 40
16.29783685314634
 50
56.71123464426656
 51
116.7417236339651
  0
ARC
  5
279
  8
0
 62
     0
 10
535.7448145454887
 20
1.835792507204587
 30
0.0
 40
16.29783685314634
 50
119.3525540869312
 51
179.3671986765714
  0
SOLID
  5
27A
  8
0
 62
     0
 10
544.6734236968625
 20
15.43441263619775
 30
0.0
 11
544.7066316956534
 21
15.48438491667703
 31
0.0
 12
544.8399445376958
 22
15.35977478006451
 32
0.0
 13
544.8399445376958
 23
15.35977478006451
 33
0.0
  0
SOLID
  5
27B
  8
0
 62
     0
 10
519.4179721467094
 20
2.015955428813183
 30
0.0
 11
519.47797123186
 21
2.015624096499045
 31
0.0
 12
519.4469776923423
 22
1.835792507204598
 32
0.0
 13
519.4469776923423
 23
1.835792507204598
 33
0.0
  0
TEXT
  5
27C
  8
0
  6
CONTINUOUS
 62
     0
 10
527.8185459309135
 20
16.13068789895014
 30
0.0
 40
0.18
  1
124°
  0
POINT
  5
27D
  8
DEFPOINTS
 62
     0
 10
533.6497807024455
 20
17.99841355975286
 30
0.0
  0
POINT
  5
27E
  8
DEFPOINTS
 62
     0
 10
535.7448145454887
 20
1.835792507204587
 30
0.0
  0
POINT
  5
27F
  8
DEFPOINTS
 62
     0
 10
485.7448145454887
 20
1.835792507204644
 30
0.0
  0
POINT
  5
280
  8
DEFPOINTS
 62
     0
 10
533.2448145454887
 20
1.835792507204614
 30
0.0
  0
POINT
  5
281
  8
DEFPOINTS
 62
     0
 10
741.5508870157165
 20
307.858650687251
 30
0.0
  0
ENDBLK
  5
277
  8
0
  0
ENDSEC
  0
SECTION
  2
ENTITIES
  0
LINE
  5
17D
  8
0
 10
485.7448145454885
 20
307.858650687251
 30
0.0
 11
739.0508870157165
 21
307.858650687251
 31
0.0
  0
LINE
  5
17E
  8
0
 10
485.7448145454887
 20
307.858650687251
 30
0.0
 11
485.7448145454887
 21
1.835792507204644
 31
0.0
  0
LINE
  5
182
  8
0
 10
485.7448145454887
 20
1.835792507204644
 30
0.0
 11
533.2448145454887
 21
1.835792507204614
 31
0.0
  0
LINE
  5
189
  8
0
 10
508.3448145454871
 20
285.8144721636451
 30
0.0
 11
513.14481454549
 21
285.8144721636451
 31
0.0
  0
LINE
  5
18A
  8
0
 10
508.3448145454871
 20
276.614472163648
 30
0.0
 11
513.14481454549
 21
276.614472163648
 31
0.0
  0
ARC
  5
18B
  8
0
 10
508.3448145454871
 20
281.2144721636466
 30
0.0
 40
4.6
 50
90.0
 51
270.0
  0
ARC
  5
18C
  8
0
 10
513.14481454549
 20
281.2144721636466
 30
0.0
 40
4.6
 50
270.0
 51
90.0
  0
LINE
  5
18E
  8
0
 10
508.3448145454872
 20
68.69315182008694
 30
0.0
 11
513.1448145454901
 21
68.69315182008694
 31
0.0
  0
LINE
  5
18F
  8
0
 10
508.3448145454872
 20
59.49315182008985
 30
0.0
 11
513.1448145454901
 21
59.49315182008985
 31
0.0
  0
ARC
  5
190
  8
0
 10
508.3448145454872
 20
64.0931518200884
 30
0.0
 40
4.6
 50
90.0
 51
270.0
  0
ARC
  5
191
  8
0
 10
513.1448145454901
 20
64.0931518200884
 30
0.0
 40
4.6
 50
270.0
 51
90.0
  0
LINE
  5
1B1
  8
0
 10
778.9491971826571
 20
363.4679805336611
 30
0.0
 11
2662.600385743023
 21
-903.3225308908295
 31
0.0
  0
LINE
  5
1B2
  8
0
 10
742.9460307507655
 20
309.9331564015246
 30
0.0
 11
766.4908754798614
 21
344.9431082115989
 31
0.0
  0
LINE
  5
1B5
  8
0
 10
492.8488363810209
 20
-61.94828191177685
 30
0.0
 11
2376.500024941387
 21
-1328.738793336267
 31
0.0
  0
LINE
  5
1B6
  8
0
 10
534.3496708104396
 20
-0.2387132070689582
 30
0.0
 11
505.4051299964618
 21
-43.27773048331508
 31
0.0
  0
ARC
  5
1B8
  8
0
 10
741.5508870157165
 20
307.858650687251
 30
0.0
 40
2.5
 50
180.0
 51
56.07843332083731
  0
ARC
  5
1B9
  8
0
 10
767.8860192149104
 20
347.0176139258725
 30
0.0
 40
2.5
 50
236.0784333208373
 51
56.07843332083731
  0
ARC
  5
1BA
  8
0
 10
535.7448145454887
 20
1.835792507204587
 30
0.0
 40
2.5
 50
236.078433320837
 51
179.9999999999994
  0
ARC
  5
1BB
  8
0
 10
504.0099862614128
 20
-45.3522361975886
 30
0.0
 40
2.5
 50
236.0784333208385
 51
56.07843332083856
  0
LINE
  5
1BC
  8
0
 10
769.2811629499595
 20
349.092119640146
 30
0.0
 11
778.9491971826571
 21
363.4679805336611
 31
0.0
  0
LINE
  5
1BD
  8
0
 10
502.6148425263639
 20
-47.42674191186214
 30
0.0
 11
492.8488363810209
 21
-61.94828191177685
 31
0.0
  0
LINE
  5
1BF
  8
0
 10
2692.737947802411
 20
-1183.230599044882
 30
0.0
 11
2690.927658202072
 21
-1178.78505615757
 31
0.0
  0
LINE
  5
1C0
  8
0
 10
2684.217323935071
 20
-1186.700320778862
 30
0.0
 11
2682.407034334731
 21
-1182.25477789155
 31
0.0
  0
ARC
  5
1C1
  8
0
 10
2688.477635868741
 20
-1184.965459911872
 30
0.0
 40
4.599999999999999
 50
202.1568666416701
 51
22.15686664167746
  0
ARC
  5
1C2
  8
0
 10
2686.667346268401
 20
-1180.51991702456
 30
0.0
 40
4.599999999999999
 50
22.15686664167533
 51
202.1568666416775
  0
LINE
  5
1C3
  8
0
 10
2491.650001690633
 20
-1265.116529926058
 30
0.0
 11
2489.839712090294
 21
-1260.670987038746
 31
0.0
  0
LINE
  5
1C4
  8
0
 10
2483.129377823293
 20
-1268.586251660038
 30
0.0
 11
2481.319088222953
 21
-1264.140708772726
 31
0.0
  0
ARC
  5
1C5
  8
0
 10
2487.389689756963
 20
-1266.851390793048
 30
0.0
 40
4.599999999999999
 50
202.1568666416775
 51
22.15686664167746
  0
ARC
  5
1C6
  8
0
 10
2485.579400156624
 20
-1262.405847905736
 30
0.0
 40
4.599999999999999
 50
22.15686664167746
 51
202.1568666416701
  0
LINE
  5
1C7
  8
0
 10
2721.677715721127
 20
-1195.847874487361
 30
0.0
 11
2438.25318644271
 21
-1311.26245732676
 31
0.0
  0
LINE
  5
1C8
  8
0
 10
2652.932351510324
 20
-917.6983917843464
 30
0.0
 11
2662.600385743022
 21
-903.3225308908314
 31
0.0
  0
ARC
  5
1C9
  8
0
 10
2651.537207775275
 20
-919.77289749862
 30
0.0
 40
2.5
 50
56.07843332084309
 51
236.0784333208431
  0
LINE
  5
1CA
  8
0
 10
2386.266031086728
 20
-1314.217253336354
 30
0.0
 11
2376.500024941385
 21
-1328.738793336269
 31
0.0
  0
ARC
  5
1CB
  8
0
 10
2387.661174821777
 20
-1312.142747622081
 30
0.0
 40
2.5
 50
56.07843332084162
 51
236.0784333208271
  0
ARC
  5
1CC
  8
0
 10
2419.396003105853
 20
-1264.954718917288
 30
0.0
 40
2.5
 50
292.1568666416803
 51
236.0784333208271
  0
ARC
  5
1CD
  8
0
 10
2625.202075576081
 20
-958.9318607372413
 30
0.0
 40
2.5
 50
56.07843332084309
 51
292.1568666416783
  0
LINE
  5
1CE
  8
0
 10
2626.59721931113
 20
-956.8573550229678
 30
0.0
 11
2650.142064040227
 21
-921.8474032128935
 31
0.0
  0
LINE
  5
1CF
  8
0
 10
2438.25318644271
 20
-1311.26245732676
 30
0.0
 11
2420.338862272696
 21
-1267.270105837761
 31
0.0
  0
LINE
  5
1D0
  8
0
 10
2721.677715721127
 20
-1195.847874487362
 30
0.0
 11
2626.144934742924
 21
-961.247247657715
 31
0.0
  0
LINE
  5
1D2
  8
0
 10
2418.000859370804
 20
-1267.029224631561
 30
0.0
 11
2389.056318556826
 21
-1310.068241907807
 31
0.0
  0
ENDSEC
  0
EOF
