  0
SECTION
  2
HEADER
  9
$ACADVER
  1
AC1009
  9
$DWGCODEPAGE
  3
ansi_1252
  9
$INSBASE
 10
0.0
 20
0.0
 30
0.0
  9
$EXTMIN
 10
1.901531494442157
 20
3.960815150267601
 30
0.0
  9
$EXTMAX
 10
3032.901531494442
 20
667.8380903704298
 30
0.0
  9
$LIMMIN
 10
0.0
 20
0.0
  9
$LIMMAX
 10
12.0
 20
9.0
  9
$ORTHOMODE
 70
     1
  9
$REGENMODE
 70
     1
  9
$FILLMODE
 70
     1
  9
$QTEXTMODE
 70
     0
  9
$MIRRTEXT
 70
     0
  9
$DRAGMODE
 70
     2
  9
$LTSCALE
 40
1.0
  9
$OSMODE
 70
  1023
  9
$ATTMODE
 70
     1
  9
$TEXTSIZE
 40
0.2
  9
$TRACEWID
 40
0.05
  9
$TEXTSTYLE
  7
STANDARD
  9
$CLAYER
  8
0
  9
$CELTYPE
  6
BYLAYER
  9
$CECOLOR
 62
   256
  9
$DIMSCALE
 40
1.0
  9
$DIMASZ
 40
0.18
  9
$DIMEXO
 40
0.0625
  9
$DIMDLI
 40
0.38
  9
$DIMRND
 40
0.0
  9
$DIMDLE
 40
0.0
  9
$DIMEXE
 40
0.18
  9
$DIMTP
 40
0.0
  9
$DIMTM
 40
0.0
  9
$DIMTXT
 40
0.18
  9
$DIMCEN
 40
0.09
  9
$DIMTSZ
 40
0.0
  9
$DIMTOL
 70
     0
  9
$DIMLIM
 70
     0
  9
$DIMTIH
 70
     1
  9
$DIMTOH
 70
     1
  9
$DIMSE1
 70
     0
  9
$DIMSE2
 70
     0
  9
$DIMTAD
 70
     0
  9
$DIMZIN
 70
     0
  9
$DIMBLK
  1

  9
$DIMASO
 70
     1
  9
$DIMSHO
 70
     1
  9
$DIMPOST
  1

  9
$DIMAPOST
  1

  9
$DIMALT
 70
     0
  9
$DIMALTD
 70
     2
  9
$DIMALTF
 40
25.4
  9
$DIMLFAC
 40
1.0
  9
$DIMTOFL
 70
     0
  9
$DIMTVP
 40
0.0
  9
$DIMTIX
 70
     0
  9
$DIMSOXD
 70
     0
  9
$DIMSAH
 70
     0
  9
$DIMBLK1
  1

  9
$DIMBLK2
  1

  9
$DIMSTYLE
  2
STANDARD
  9
$DIMCLRD
 70
     0
  9
$DIMCLRE
 70
     0
  9
$DIMCLRT
 70
     0
  9
$DIMTFAC
 40
1.0
  9
$DIMGAP
 40
0.09
  9
$LUNITS
 70
     2
  9
$LUPREC
 70
     4
  9
$SKETCHINC
 40
0.1
  9
$FILLETRAD
 40
10.0
  9
$AUNITS
 70
     0
  9
$AUPREC
 70
     0
  9
$MENU
  1
.
  9
$ELEVATION
 40
0.0
  9
$PELEVATION
 40
0.0
  9
$THICKNESS
 40
0.0
  9
$LIMCHECK
 70
     0
  9
$CHAMFERA
 40
0.0
  9
$CHAMFERB
 40
0.0
  9
$SKPOLY
 70
     0
  9
$TDCREATE
 40
2452643.146717593
  9
$TDUPDATE
 40
2456829.620511632
  9
$TDINDWG
 40
0.0057308333
  9
$TDUSRTIMER
 40
2456829.536438785
  9
$USRTIMER
 70
     1
  9
$ANGBASE
 50
0.0
  9
$ANGDIR
 70
     0
  9
$PDMODE
 70
     0
  9
$PDSIZE
 40
0.0
  9
$PLINEWID
 40
0.0
  9
$COORDS
 70
     1
  9
$SPLFRAME
 70
     0
  9
$SPLINETYPE
 70
     6
  9
$SPLINESEGS
 70
     8
  9
$ATTDIA
 70
     0
  9
$ATTREQ
 70
     1
  9
$HANDLING
 70
     1
  9
$HANDSEED
  5
52D
  9
$SURFTAB1
 70
     6
  9
$SURFTAB2
 70
     6
  9
$SURFTYPE
 70
     6
  9
$SURFU
 70
     6
  9
$SURFV
 70
     6
  9
$UCSNAME
  2

  9
$UCSORG
 10
0.0
 20
0.0
 30
0.0
  9
$UCSXDIR
 10
1.0
 20
0.0
 30
0.0
  9
$UCSYDIR
 10
0.0
 20
1.0
 30
0.0
  9
$PUCSNAME
  2

  9
$PUCSORG
 10
0.0
 20
0.0
 30
0.0
  9
$PUCSXDIR
 10
1.0
 20
0.0
 30
0.0
  9
$PUCSYDIR
 10
0.0
 20
1.0
 30
0.0
  9
$USERI1
 70
     0
  9
$USERI2
 70
     0
  9
$USERI3
 70
     0
  9
$USERI4
 70
     0
  9
$USERI5
 70
     0
  9
$USERR1
 40
0.0
  9
$USERR2
 40
0.0
  9
$USERR3
 40
0.0
  9
$USERR4
 40
0.0
  9
$USERR5
 40
0.0
  9
$WORLDVIEW
 70
     1
  9
$SHADEDGE
 70
     3
  9
$SHADEDIF
 70
    70
  9
$TILEMODE
 70
     1
  9
$MAXACTVP
 70
    64
  9
$PLIMCHECK
 70
     0
  9
$PEXTMIN
 10
0.0
 20
0.0
 30
0.0
  9
$PEXTMAX
 10
0.0
 20
0.0
 30
0.0
  9
$PLIMMIN
 10
0.0
 20
0.0
  9
$PLIMMAX
 10
0.0
 20
0.0
  9
$UNITMODE
 70
     0
  9
$VISRETAIN
 70
     1
  9
$PLINEGEN
 70
     0
  9
$PSLTSCALE
 70
     1
  0
ENDSEC
  0
SECTION
  2
TABLES
  0
TABLE
  2
VPORT
 70
     1
  0
VPORT
  2
*ACTIVE
 70
     0
 10
0.0
 20
0.0
 11
1.0
 21
1.0
 12
581.219562629118
 22
279.8118307073917
 13
0.0
 23
0.0
 14
0.5
 24
0.5
 15
0.5
 25
0.5
 16
0.0
 26
0.0
 36
1.0
 17
-27.66959356597999
 27
-19.53870295786152
 37
0.0
 40
2913.188315021016
 41
1.79971181556196
 42
50.0
 43
0.0
 44
0.0
 50
0.0
 51
0.0
 71
    16
 72
  1000
 73
     1
 74
     3
 75
     0
 76
     0
 77
     0
 78
     0
  0
ENDTAB
  0
TABLE
  2
LTYPE
 70
     1
  0
LTYPE
  2
CONTINUOUS
 70
     0
  3
Solid line
 72
    65
 73
     0
 40
0.0
  0
ENDTAB
  0
TABLE
  2
LAYER
 70
     1
  0
LAYER
  2
0
 70
     0
 62
     7
  6
CONTINUOUS
  0
ENDTAB
  0
TABLE
  2
STYLE
 70
     1
  0
STYLE
  2
STANDARD
 70
     0
 40
0.0
 41
1.0
 50
0.0
 71
     0
 42
0.2
  3
arial.ttf
  4

  0
ENDTAB
  0
TABLE
  2
VIEW
 70
     0
  0
ENDTAB
  0
TABLE
  2
UCS
 70
     0
  0
ENDTAB
  0
TABLE
  2
APPID
 70
     2
  0
APPID
  2
ACAD
 70
     0
  0
APPID
  2
ACAD_PSEXT
 70
     0
  0
ENDTAB
  0
TABLE
  2
DIMSTYLE
 70
     2
  0
DIMSTYLE
  2
STANDARD
 70
     0
  3

  4

  5

  6

  7

 40
1.0
 41
0.18
 42
0.0625
 43
0.38
 44
0.18
 45
0.0
 46
0.0
 47
0.0
 48
0.0
140
0.18
141
0.09
142
0.0
143
25.4
144
1.0
145
0.0
146
1.0
147
0.09
 71
     0
 72
     0
 73
     1
 74
     1
 75
     0
 76
     0
 77
     0
 78
     0
170
     0
171
     2
172
     0
173
     0
174
     0
175
     0
176
     0
177
     0
178
     0
  0
DIMSTYLE
  2
ISO-25
 70
     0
  3

  4

  5

  6

  7

 40
1.0
 41
2.5
 42
0.625
 43
3.75
 44
1.25
 45
0.0
 46
0.0
 47
0.0
 48
0.0
140
2.5
141
2.5
142
0.0
143
0.03937007874016
144
1.0
145
0.0
146
1.0
147
0.625
 71
     0
 72
     0
 73
     0
 74
     0
 75
     0
 76
     0
 77
     1
 78
     8
170
     0
171
     3
172
     1
173
     0
174
     0
175
     0
176
     0
177
     0
178
     0
  0
ENDTAB
  0
ENDSEC
  0
SECTION
  2
BLOCKS
  0
BLOCK
  8
0
  2
$MODEL_SPACE
 70
     0
 10
0.0
 20
0.0
 30
0.0
  3
$MODEL_SPACE
  1

  0
ENDBLK
  5
21
  8
0
  0
BLOCK
 67
     1
  8
0
  2
$PAPER_SPACE
 70
     0
 10
0.0
 20
0.0
 30
0.0
  3
$PAPER_SPACE
  1

  0
ENDBLK
  5
5B
 67
     1
  8
0
  0
ENDSEC
  0
SECTION
  2
ENTITIES
  0
LINE
  5
323
  8
0
 10
-484.8715826356568
 20
541.4982774056953
 30
0.0
 11
-489.6715826356597
 21
541.4982774056953
 31
0.0
  0
LINE
  5
324
  8
0
 10
-484.8715826356568
 20
550.6982774056924
 30
0.0
 11
-489.6715826356597
 21
550.6982774056924
 31
0.0
  0
ARC
  5
325
  8
0
 10
-484.8715826356568
 20
546.0982774056938
 30
0.0
 40
4.6
 50
270.0
 51
90.0
  0
ARC
  5
326
  8
0
 10
-489.6715826356597
 20
546.0982774056938
 30
0.0
 40
4.6
 50
90.0
 51
270.0
  0
LINE
  5
327
  8
0
 10
-484.8715826356568
 20
341.6195977492498
 30
0.0
 11
-489.6715826356597
 21
341.6195977492498
 31
0.0
  0
LINE
  5
328
  8
0
 10
-484.8715826356568
 20
350.8195977492542
 30
0.0
 11
-489.6715826356597
 21
350.8195977492542
 31
0.0
  0
ARC
  5
329
  8
0
 10
-489.6715826356597
 20
346.2195977492556
 30
0.0
 40
4.6
 50
90.0
 51
270.0
  0
ARC
  5
32A
  8
0
 10
-484.8715826356568
 20
346.2195977492556
 30
0.0
 40
4.6
 50
270.0
 51
90.0
  0
LINE
  5
32B
  8
0
 10
-484.8715826356568
 20
150.940918092816
 30
0.0
 11
-489.6715826356597
 21
150.940918092816
 31
0.0
  0
LINE
  5
32C
  8
0
 10
-484.8715826356568
 20
141.7409180928116
 30
0.0
 11
-489.6715826356597
 21
141.7409180928116
 31
0.0
  0
ARC
  5
32D
  8
0
 10
-484.8715826356568
 20
146.3409180928102
 30
0.0
 40
4.6
 50
270.0
 51
90.0
  0
ARC
  5
32E
  8
0
 10
-489.6715826356597
 20
146.3409180928102
 30
0.0
 40
4.6
 50
90.0
 51
270.0
  0
LINE
  5
331
  8
0
 10
-1384.987470918455
 20
87.22214643235621
 30
0.0
 11
-1412.11805929532
 21
24.91050402303333
 31
0.0
  0
LINE
  5
333
  8
0
 10
-452.2715826356582
 20
-6.536357127351948
 30
0.0
 11
-1425.810072739791
 21
-6.536357127351948
 31
0.0
  0
LINE
  5
335
  8
0
 10
-1036.450467371764
 20
585.8409180928102
 30
0.0
 11
-1036.450467371764
 21
628.8409180928099
 31
0.0
  0
LINE
  5
338
  8
0
 10
-452.2715826356582
 20
657.3409180928102
 30
0.0
 11
-1017.456885967055
 21
657.3409180928102
 31
0.0
  0
LINE
  5
346
  8
0
 10
-1412.11805929532
 20
24.9105040230333
 30
0.0
 11
-1406.330614693778
 21
23.46364287264795
 31
0.0
  0
LINE
  5
347
  8
0
 10
-1406.330614693778
 20
23.46364287264795
 30
0.0
 11
-1413.531886218959
 21
21.66332499135263
 31
0.0
  0
LINE
  5
348
  8
0
 10
-1380.488425850809
 20
92.67260858095487
 30
0.0
 11
-1376.132226646695
 21
91.5835587799264
 31
0.0
  0
LINE
  5
349
  8
0
 10
-1376.132226646695
 20
91.5835587799264
 30
0.0
 11
-1381.369617020919
 21
90.27421118637061
 31
0.0
  0
LINE
  5
34A
  8
0
 10
-1035.553087463522
 20
631.6165731157497
 30
0.0
 11
-1030.450467371764
 21
630.34091809281
 31
0.0
  0
LINE
  5
34B
  8
0
 10
-1030.450467371764
 20
630.34091809281
 30
0.0
 11
-1036.450467371764
 21
628.84091809281
 31
0.0
  0
LINE
  5
34C
  8
0
 10
-1036.450467371764
 20
585.84091809281
 30
0.0
 11
-1030.450467371764
 21
584.34091809281
 31
0.0
  0
LINE
  5
34D
  8
0
 10
-1030.450467371764
 20
584.34091809281
 30
0.0
 11
-1035.505510362167
 21
583.0771573452093
 31
0.0
  0
LINE
  5
34E
  8
0
 10
-1413.531886218959
 20
21.66332499135262
 30
0.0
 11
-1425.810072739791
 21
-6.536357127351948
 31
0.0
  0
LINE
  5
350
  8
0
 10
-1436.46605613205
 20
142.5819610957649
 30
0.0
 11
-1108.747816783707
 21
608.4442054964759
 31
0.0
  0
LINE
  5
356
  8
0
 10
-1038.059197429444
 20
584.2499584895595
 30
0.0
 11
-1040.098813904843
 21
579.1546736297876
 31
0.0
  0
LINE
  5
357
  8
0
 10
-1040.098813904843
 20
579.1546736297876
 30
0.0
 11
-1035.505510362167
 21
583.0771573452093
 31
0.0
  0
LINE
  5
35A
  8
0
 10
-1378.348816063529
 20
98.32118237361175
 30
0.0
 11
-1380.488425850809
 21
92.67260858095489
 31
0.0
  0
LINE
  5
35B
  8
0
 10
-1383.913499296494
 20
93.38656064218021
 30
0.0
 11
-1378.348816063529
 21
98.32118237361175
 31
0.0
  0
LINE
  5
35F
  8
0
 10
-1415.972120312939
 20
124.7878968912154
 30
0.0
 11
-1418.618829515558
 21
117.8005797048875
 31
0.0
  0
LINE
  5
360
  8
0
 10
-1421.536803545904
 20
119.8532751597838
 30
0.0
 11
-1415.972120312939
 21
124.7878968912154
 31
0.0
  0
LINE
  5
361
  8
0
 10
-1421.536803545904
 20
119.8532751597837
 30
0.0
 11
-1434.040710538179
 21
128.6493483203272
 31
0.0
  0
LINE
  5
362
  8
0
 10
-1077.722118154253
 20
605.6213881473911
 30
0.0
 11
-1073.529239438016
 21
609.2019262791245
 31
0.0
  0
LINE
  5
363
  8
0
 10
-1076.125474499067
 20
609.6100567725211
 30
0.0
 11
-1077.722118154253
 21
605.6213881473911
 31
0.0
  0
LINE
  5
365
  8
0
 10
-1038.059197429444
 20
584.2499584895596
 30
0.0
 11
-1073.529239438016
 21
609.2019262791246
 31
0.0
  0
LINE
  5
36A
  8
0
 10
-1017.456885967055
 20
657.3409180928102
 30
0.0
 11
-1035.553087463522
 21
631.6165731157497
 31
0.0
  0
LINE
  5
36B
  8
0
 10
-1108.747816783707
 20
608.4442054964759
 30
0.0
 11
-1076.125474499067
 21
609.6100567725211
 31
0.0
  0
LINE
  5
3A7
  8
0
 10
-1453.23618893237
 20
71.81579903950546
 30
0.0
 11
-1386.608353323936
 21
90.59165838560662
 31
0.0
  0
LINE
  5
3A8
  8
0
 10
-1383.913499296494
 20
93.38656064218017
 30
0.0
 11
-1386.608353323936
 21
90.59165838560662
 31
0.0
  0
LINE
  5
3AA
  8
0
 10
-1418.618829515558
 20
117.8005797048875
 30
0.0
 11
-1423.83955455237
 21
113.604080635689
 31
0.0
  0
ARC
  5
3AB
  8
0
 10
-1428.287076947395
 20
136.8283275049815
 30
0.0
 40
10.0
 50
144.8749175745925
 51
234.8749175745925
  0
LINE
  5
3AD
  8
0
 10
-1381.369617020919
 20
90.27421118637058
 30
0.0
 11
-1384.987470918455
 21
87.22214643235603
 31
0.0
  0
LINE
  5
3AE
  8
0
 10
-1453.23618893237
 20
71.81579903950546
 30
0.0
 11
-1423.83955455237
 21
113.604080635689
 31
0.0
  0
LINE
  5
4EC
  8
0
 10
2579.728417364342
 20
-6.536357127351948
 30
0.0
 11
2579.728417364342
 21
21.96364287264795
 31
0.0
  0
LINE
  5
4ED
  8
0
 10
2335.128417364343
 20
541.4982774056953
 30
0.0
 11
2330.328417364341
 21
541.4982774056953
 31
0.0
  0
LINE
  5
4EE
  8
0
 10
2335.128417364343
 20
550.6982774056924
 30
0.0
 11
2330.328417364341
 21
550.6982774056924
 31
0.0
  0
ARC
  5
4EF
  8
0
 10
2335.128417364343
 20
546.0982774056938
 30
0.0
 40
4.6
 50
270.0
 51
90.0
  0
ARC
  5
4F0
  8
0
 10
2330.328417364341
 20
546.0982774056938
 30
0.0
 40
4.6
 50
90.0
 51
270.0
  0
LINE
  5
4F1
  8
0
 10
2335.128417364343
 20
341.6195977492498
 30
0.0
 11
2330.328417364341
 21
341.6195977492498
 31
0.0
  0
LINE
  5
4F2
  8
0
 10
2335.128417364343
 20
350.8195977492542
 30
0.0
 11
2330.328417364341
 21
350.8195977492542
 31
0.0
  0
ARC
  5
4F3
  8
0
 10
2330.328417364341
 20
346.2195977492556
 30
0.0
 40
4.6
 50
90.0
 51
270.0
  0
ARC
  5
4F4
  8
0
 10
2335.128417364343
 20
346.2195977492556
 30
0.0
 40
4.6
 50
270.0
 51
90.0
  0
LINE
  5
4F5
  8
0
 10
2335.128417364343
 20
150.940918092816
 30
0.0
 11
2330.328417364341
 21
150.940918092816
 31
0.0
  0
LINE
  5
4F6
  8
0
 10
2335.128417364343
 20
141.7409180928116
 30
0.0
 11
2330.328417364341
 21
141.7409180928116
 31
0.0
  0
ARC
  5
4F7
  8
0
 10
2335.128417364343
 20
146.3409180928102
 30
0.0
 40
4.6
 50
270.0
 51
90.0
  0
ARC
  5
4F8
  8
0
 10
2330.328417364341
 20
146.3409180928102
 30
0.0
 40
4.6
 50
90.0
 51
270.0
  0
LINE
  5
4F9
  8
0
 10
-414.8715826356568
 20
541.4982774056953
 30
0.0
 11
-419.6715826356597
 21
541.4982774056953
 31
0.0
  0
LINE
  5
4FA
  8
0
 10
-414.8715826356568
 20
550.6982774056924
 30
0.0
 11
-419.6715826356597
 21
550.6982774056924
 31
0.0
  0
ARC
  5
4FB
  8
0
 10
-414.8715826356568
 20
546.0982774056938
 30
0.0
 40
4.6
 50
270.0
 51
90.0
  0
ARC
  5
4FC
  8
0
 10
-419.6715826356597
 20
546.0982774056938
 30
0.0
 40
4.6
 50
90.0
 51
270.0
  0
LINE
  5
4FD
  8
0
 10
-414.8715826356568
 20
341.6195977492498
 30
0.0
 11
-419.6715826356597
 21
341.6195977492498
 31
0.0
  0
LINE
  5
4FE
  8
0
 10
-414.8715826356568
 20
350.8195977492542
 30
0.0
 11
-419.6715826356597
 21
350.8195977492542
 31
0.0
  0
ARC
  5
4FF
  8
0
 10
-419.6715826356597
 20
346.2195977492556
 30
0.0
 40
4.6
 50
90.0
 51
270.0
  0
ARC
  5
500
  8
0
 10
-414.8715826356568
 20
346.2195977492556
 30
0.0
 40
4.6
 50
270.0
 51
90.0
  0
LINE
  5
501
  8
0
 10
-414.8715826356568
 20
150.940918092816
 30
0.0
 11
-419.6715826356597
 21
150.940918092816
 31
0.0
  0
LINE
  5
502
  8
0
 10
-414.8715826356568
 20
141.7409180928116
 30
0.0
 11
-419.6715826356597
 21
141.7409180928116
 31
0.0
  0
ARC
  5
503
  8
0
 10
-414.8715826356568
 20
146.3409180928102
 30
0.0
 40
4.6
 50
270.0
 51
90.0
  0
ARC
  5
504
  8
0
 10
-419.6715826356597
 20
146.3409180928102
 30
0.0
 40
4.6
 50
90.0
 51
270.0
  0
LINE
  5
505
  8
0
 10
2405.128417364343
 20
541.4982774056953
 30
0.0
 11
2400.328417364341
 21
541.4982774056953
 31
0.0
  0
LINE
  5
506
  8
0
 10
2405.128417364343
 20
550.6982774056924
 30
0.0
 11
2400.328417364341
 21
550.6982774056924
 31
0.0
  0
ARC
  5
507
  8
0
 10
2405.128417364343
 20
546.0982774056938
 30
0.0
 40
4.6
 50
270.0
 51
90.0
  0
ARC
  5
508
  8
0
 10
2400.328417364341
 20
546.0982774056938
 30
0.0
 40
4.6
 50
90.0
 51
270.0
  0
LINE
  5
509
  8
0
 10
2405.128417364343
 20
341.6195977492498
 30
0.0
 11
2400.328417364341
 21
341.6195977492498
 31
0.0
  0
LINE
  5
50A
  8
0
 10
2405.128417364343
 20
350.8195977492542
 30
0.0
 11
2400.328417364341
 21
350.8195977492542
 31
0.0
  0
ARC
  5
50B
  8
0
 10
2400.328417364341
 20
346.2195977492556
 30
0.0
 40
4.6
 50
90.0
 51
270.0
  0
ARC
  5
50C
  8
0
 10
2405.128417364343
 20
346.2195977492556
 30
0.0
 40
4.6
 50
270.0
 51
90.0
  0
LINE
  5
50D
  8
0
 10
2405.128417364343
 20
150.940918092816
 30
0.0
 11
2400.328417364341
 21
150.940918092816
 31
0.0
  0
LINE
  5
50E
  8
0
 10
2405.128417364343
 20
141.7409180928116
 30
0.0
 11
2400.328417364341
 21
141.7409180928116
 31
0.0
  0
ARC
  5
50F
  8
0
 10
2405.128417364343
 20
146.3409180928102
 30
0.0
 40
4.6
 50
270.0
 51
90.0
  0
ARC
  5
510
  8
0
 10
2400.328417364341
 20
146.3409180928102
 30
0.0
 40
4.6
 50
90.0
 51
270.0
  0
LINE
  5
511
  8
0
 10
-452.2715826356582
 20
657.3409180928102
 30
0.0
 11
2579.728417364342
 21
657.3409180928102
 31
0.0
  0
LINE
  5
512
  8
0
 10
-452.2715826356582
 20
-6.536357127351948
 30
0.0
 11
2579.728417364342
 21
-6.536357127351948
 31
0.0
  0
LINE
  5
514
  8
0
 10
2579.728417364342
 20
631.84091809281
 30
0.0
 11
2573.728417364342
 21
630.34091809281
 31
0.0
  0
LINE
  5
515
  8
0
 10
2573.728417364342
 20
630.34091809281
 30
0.0
 11
2579.728417364342
 21
628.84091809281
 31
0.0
  0
LINE
  5
516
  8
0
 10
2579.728417364342
 20
585.84091809281
 30
0.0
 11
2573.728417364342
 21
584.34091809281
 31
0.0
  0
LINE
  5
517
  8
0
 10
2573.728417364342
 20
584.34091809281
 30
0.0
 11
2579.728417364342
 21
582.84091809281
 31
0.0
  0
LINE
  5
518
  8
0
 10
2579.728417364342
 20
93.08355877992639
 30
0.0
 11
2573.728417364342
 21
91.58355877992639
 31
0.0
  0
LINE
  5
519
  8
0
 10
2573.728417364342
 20
91.58355877992639
 30
0.0
 11
2579.728417364342
 21
90.08355877992643
 31
0.0
  0
LINE
  5
51A
  8
0
 10
2579.728417364342
 20
24.96364287264795
 30
0.0
 11
2573.728417364342
 21
23.46364287264795
 31
0.0
  0
LINE
  5
51B
  8
0
 10
2573.728417364342
 20
23.46364287264795
 30
0.0
 11
2579.728417364342
 21
21.96364287264795
 31
0.0
  0
LINE
  5
528
  8
0
 10
2579.728417364342
 20
24.96364287264795
 30
0.0
 11
2579.728417364342
 21
90.0835587799264
 31
0.0
  0
LINE
  5
529
  8
0
 10
2579.728417364342
 20
93.08355877992639
 30
0.0
 11
2579.728417364342
 21
582.84091809281
 31
0.0
  0
LINE
  5
52A
  8
0
 10
2579.728417364342
 20
585.84091809281
 30
0.0
 11
2579.728417364342
 21
628.84091809281
 31
0.0
  0
LINE
  5
52B
  8
0
 10
2579.728417364342
 20
631.84091809281
 30
0.0
 11
2579.728417364342
 21
657.3409180928102
 31
0.0
  0
ENDSEC
  0
EOF
