  0
SECTION
  2
HEADER
  9
$ACADVER
  1
AC1009
  9
$DWGCODEPAGE
  3
ansi_1252
  9
$INSBASE
 10
0.0
 20
0.0
 30
0.0
  9
$EXTMIN
 10
0.3306298888431449
 20
2.644569781803212
 30
0.0
  9
$EXTMAX
 10
2598.330629888843
 20
735.2473099140021
 30
0.0
  9
$LIMMIN
 10
0.0
 20
0.0
  9
$LIMMAX
 10
12.0
 20
9.0
  9
$ORTHOMODE
 70
     1
  9
$REGENMODE
 70
     1
  9
$FILLMODE
 70
     1
  9
$QTEXTMODE
 70
     0
  9
$MIRRTEXT
 70
     0
  9
$DRAGMODE
 70
     2
  9
$LTSCALE
 40
1.0
  9
$OSMODE
 70
  1023
  9
$ATTMODE
 70
     1
  9
$TEXTSIZE
 40
0.2
  9
$TRACEWID
 40
0.05
  9
$TEXTSTYLE
  7
STANDARD
  9
$CLAYER
  8
0
  9
$CELTYPE
  6
BYLAYER
  9
$CECOLOR
 62
   256
  9
$DIMSCALE
 40
1.0
  9
$DIMASZ
 40
0.18
  9
$DIMEXO
 40
0.0625
  9
$DIMDLI
 40
0.38
  9
$DIMRND
 40
0.0
  9
$DIMDLE
 40
0.0
  9
$DIMEXE
 40
0.18
  9
$DIMTP
 40
0.0
  9
$DIMTM
 40
0.0
  9
$DIMTXT
 40
0.18
  9
$DIMCEN
 40
0.09
  9
$DIMTSZ
 40
0.0
  9
$DIMTOL
 70
     0
  9
$DIMLIM
 70
     0
  9
$DIMTIH
 70
     1
  9
$DIMTOH
 70
     1
  9
$DIMSE1
 70
     0
  9
$DIMSE2
 70
     0
  9
$DIMTAD
 70
     0
  9
$DIMZIN
 70
     0
  9
$DIMBLK
  1

  9
$DIMASO
 70
     1
  9
$DIMSHO
 70
     1
  9
$DIMPOST
  1

  9
$DIMAPOST
  1

  9
$DIMALT
 70
     0
  9
$DIMALTD
 70
     2
  9
$DIMALTF
 40
25.4
  9
$DIMLFAC
 40
1.0
  9
$DIMTOFL
 70
     0
  9
$DIMTVP
 40
0.0
  9
$DIMTIX
 70
     0
  9
$DIMSOXD
 70
     0
  9
$DIMSAH
 70
     0
  9
$DIMBLK1
  1

  9
$DIMBLK2
  1

  9
$DIMSTYLE
  2
STANDARD
  9
$DIMCLRD
 70
     0
  9
$DIMCLRE
 70
     0
  9
$DIMCLRT
 70
     0
  9
$DIMTFAC
 40
1.0
  9
$DIMGAP
 40
0.09
  9
$LUNITS
 70
     2
  9
$LUPREC
 70
     4
  9
$SKETCHINC
 40
0.1
  9
$FILLETRAD
 40
0.0
  9
$AUNITS
 70
     0
  9
$AUPREC
 70
     0
  9
$MENU
  1
.
  9
$ELEVATION
 40
0.0
  9
$PELEVATION
 40
0.0
  9
$THICKNESS
 40
0.0
  9
$LIMCHECK
 70
     0
  9
$CHAMFERA
 40
0.0
  9
$CHAMFERB
 40
0.0
  9
$SKPOLY
 70
     0
  9
$TDCREATE
 40
2452643.146717593
  9
$TDUPDATE
 40
2456833.571241169
  9
$TDINDWG
 40
0.0023083218
  9
$TDUSRTIMER
 40
2456833.487763576
  9
$USRTIMER
 70
     1
  9
$ANGBASE
 50
0.0
  9
$ANGDIR
 70
     0
  9
$PDMODE
 70
     0
  9
$PDSIZE
 40
0.0
  9
$PLINEWID
 40
0.0
  9
$COORDS
 70
     1
  9
$SPLFRAME
 70
     0
  9
$SPLINETYPE
 70
     6
  9
$SPLINESEGS
 70
     8
  9
$ATTDIA
 70
     0
  9
$ATTREQ
 70
     1
  9
$HANDLING
 70
     1
  9
$HANDSEED
  5
37C
  9
$SURFTAB1
 70
     6
  9
$SURFTAB2
 70
     6
  9
$SURFTYPE
 70
     6
  9
$SURFU
 70
     6
  9
$SURFV
 70
     6
  9
$UCSNAME
  2

  9
$UCSORG
 10
0.0
 20
0.0
 30
0.0
  9
$UCSXDIR
 10
1.0
 20
0.0
 30
0.0
  9
$UCSYDIR
 10
0.0
 20
1.0
 30
0.0
  9
$PUCSNAME
  2

  9
$PUCSORG
 10
0.0
 20
0.0
 30
0.0
  9
$PUCSXDIR
 10
1.0
 20
0.0
 30
0.0
  9
$PUCSYDIR
 10
0.0
 20
1.0
 30
0.0
  9
$USERI1
 70
     0
  9
$USERI2
 70
     0
  9
$USERI3
 70
     0
  9
$USERI4
 70
     0
  9
$USERI5
 70
     0
  9
$USERR1
 40
0.0
  9
$USERR2
 40
0.0
  9
$USERR3
 40
0.0
  9
$USERR4
 40
0.0
  9
$USERR5
 40
0.0
  9
$WORLDVIEW
 70
     1
  9
$SHADEDGE
 70
     3
  9
$SHADEDIF
 70
    70
  9
$TILEMODE
 70
     1
  9
$MAXACTVP
 70
    64
  9
$PLIMCHECK
 70
     0
  9
$PEXTMIN
 10
0.0
 20
0.0
 30
0.0
  9
$PEXTMAX
 10
0.0
 20
0.0
 30
0.0
  9
$PLIMMIN
 10
0.0
 20
0.0
  9
$PLIMMAX
 10
0.0
 20
0.0
  9
$UNITMODE
 70
     0
  9
$VISRETAIN
 70
     1
  9
$PLINEGEN
 70
     0
  9
$PSLTSCALE
 70
     1
  0
ENDSEC
  0
SECTION
  2
TABLES
  0
TABLE
  2
VPORT
 70
     1
  0
VPORT
  2
*ACTIVE
 70
     0
 10
0.0
 20
0.0
 11
1.0
 21
1.0
 12
122.3760214936244
 22
161.1624303313152
 13
0.0
 23
0.0
 14
0.5
 24
0.5
 15
0.5
 25
0.5
 16
0.0
 26
0.0
 36
1.0
 17
-27.66959356598001
 27
-19.53870295786214
 37
0.0
 40
3.560584242866766
 41
1.79971181556196
 42
50.0
 43
0.0
 44
0.0
 50
0.0
 51
0.0
 71
    16
 72
  1000
 73
     1
 74
     3
 75
     0
 76
     0
 77
     0
 78
     0
  0
ENDTAB
  0
TABLE
  2
LTYPE
 70
     1
  0
LTYPE
  2
CONTINUOUS
 70
     0
  3
Solid line
 72
    65
 73
     0
 40
0.0
  0
ENDTAB
  0
TABLE
  2
LAYER
 70
     1
  0
LAYER
  2
0
 70
     0
 62
     7
  6
CONTINUOUS
  0
ENDTAB
  0
TABLE
  2
STYLE
 70
     1
  0
STYLE
  2
STANDARD
 70
     0
 40
0.0
 41
1.0
 50
0.0
 71
     0
 42
0.2
  3
arial.ttf
  4

  0
ENDTAB
  0
TABLE
  2
VIEW
 70
     0
  0
ENDTAB
  0
TABLE
  2
UCS
 70
     0
  0
ENDTAB
  0
TABLE
  2
APPID
 70
     2
  0
APPID
  2
ACAD
 70
     0
  0
APPID
  2
ACAD_PSEXT
 70
     0
  0
ENDTAB
  0
TABLE
  2
DIMSTYLE
 70
     2
  0
DIMSTYLE
  2
STANDARD
 70
     0
  3

  4

  5

  6

  7

 40
1.0
 41
0.18
 42
0.0625
 43
0.38
 44
0.18
 45
0.0
 46
0.0
 47
0.0
 48
0.0
140
0.18
141
0.09
142
0.0
143
25.4
144
1.0
145
0.0
146
1.0
147
0.09
 71
     0
 72
     0
 73
     1
 74
     1
 75
     0
 76
     0
 77
     0
 78
     0
170
     0
171
     2
172
     0
173
     0
174
     0
175
     0
176
     0
177
     0
178
     0
  0
DIMSTYLE
  2
ISO-25
 70
     0
  3

  4

  5

  6

  7

 40
1.0
 41
2.5
 42
0.625
 43
3.75
 44
1.25
 45
0.0
 46
0.0
 47
0.0
 48
0.0
140
2.5
141
2.5
142
0.0
143
0.03937007874016
144
1.0
145
0.0
146
1.0
147
0.625
 71
     0
 72
     0
 73
     0
 74
     0
 75
     0
 76
     0
 77
     1
 78
     8
170
     0
171
     3
172
     1
173
     0
174
     0
175
     0
176
     0
177
     0
178
     0
  0
ENDTAB
  0
ENDSEC
  0
SECTION
  2
BLOCKS
  0
BLOCK
  8
0
  2
$MODEL_SPACE
 70
     0
 10
0.0
 20
0.0
 30
0.0
  3
$MODEL_SPACE
  1

  0
ENDBLK
  5
21
  8
0
  0
BLOCK
 67
     1
  8
0
  2
$PAPER_SPACE
 70
     0
 10
0.0
 20
0.0
 30
0.0
  3
$PAPER_SPACE
  1

  0
ENDBLK
  5
5B
 67
     1
  8
0
  0
ENDSEC
  0
SECTION
  2
ENTITIES
  0
LINE
  5
1F6
  8
0
 10
2502.330629888843
 20
-0.3554302181967879
 30
0.0
 11
2502.330629888843
 21
28.14456978180321
 31
0.0
  0
LINE
  5
1F7
  8
0
 10
96.33062988884315
 20
-0.3554302181967879
 30
0.0
 11
2502.330629888843
 21
-0.3554302181967879
 31
0.0
  0
LINE
  5
1F8
  8
0
 10
96.33062988884315
 20
735.2473099140021
 30
0.0
 11
2502.330629888843
 21
735.2473099140021
 31
0.0
  0
LINE
  5
1F9
  8
0
 10
2449.730629888845
 20
583.440938178957
 30
0.0
 11
2444.930629888842
 21
583.440938178957
 31
0.0
  0
LINE
  5
1FA
  8
0
 10
2449.730629888845
 20
592.6409381789541
 30
0.0
 11
2444.930629888842
 21
592.6409381789541
 31
0.0
  0
ARC
  5
1FB
  8
0
 10
2449.730629888845
 20
588.0409381789556
 30
0.0
 40
4.6
 50
270.0
 51
90.0
  0
ARC
  5
1FC
  8
0
 10
2444.930629888842
 20
588.0409381789556
 30
0.0
 40
4.6
 50
90.0
 51
270.0
  0
LINE
  5
1FD
  8
0
 10
2449.730629888845
 20
383.5622585225116
 30
0.0
 11
2444.930629888842
 21
383.5622585225116
 31
0.0
  0
LINE
  5
1FE
  8
0
 10
2449.730629888845
 20
392.762258522516
 30
0.0
 11
2444.930629888842
 21
392.762258522516
 31
0.0
  0
ARC
  5
1FF
  8
0
 10
2444.930629888842
 20
388.1622585225174
 30
0.0
 40
4.6
 50
90.0
 51
270.0
  0
ARC
  5
200
  8
0
 10
2449.730629888845
 20
388.1622585225174
 30
0.0
 40
4.6
 50
270.0
 51
90.0
  0
LINE
  5
201
  8
0
 10
2449.730629888845
 20
192.8835788660778
 30
0.0
 11
2444.930629888842
 21
192.8835788660778
 31
0.0
  0
LINE
  5
202
  8
0
 10
2449.730629888845
 20
183.6835788660734
 30
0.0
 11
2444.930629888842
 21
183.6835788660734
 31
0.0
  0
ARC
  5
203
  8
0
 10
2449.730629888845
 20
188.283578866072
 30
0.0
 40
4.6
 50
270.0
 51
90.0
  0
ARC
  5
204
  8
0
 10
2444.930629888842
 20
188.283578866072
 30
0.0
 40
4.6
 50
90.0
 51
270.0
  0
LINE
  5
205
  8
0
 10
2502.330629888843
 20
698.747309914004
 30
0.0
 11
2496.330629888843
 21
697.247309914004
 31
0.0
  0
LINE
  5
206
  8
0
 10
2496.330629888843
 20
697.247309914004
 30
0.0
 11
2502.330629888843
 21
695.747309914004
 31
0.0
  0
LINE
  5
207
  8
0
 10
2502.330629888843
 20
633.8527238727289
 30
0.0
 11
2496.330629888843
 21
632.3527238727289
 31
0.0
  0
LINE
  5
208
  8
0
 10
2496.330629888843
 20
143.9717931723077
 30
0.0
 11
2502.330629888843
 21
142.4717931723077
 31
0.0
  0
LINE
  5
209
  8
0
 10
2502.330629888843
 20
31.14456978180321
 30
0.0
 11
2496.330629888843
 21
29.64456978180321
 31
0.0
  0
LINE
  5
20A
  8
0
 10
2496.330629888843
 20
29.64456978180321
 30
0.0
 11
2502.330629888843
 21
28.14456978180321
 31
0.0
  0
LINE
  5
20E
  8
0
 10
2502.330629888843
 20
142.4717931723077
 30
0.0
 11
2502.330629888843
 21
31.14456978180321
 31
0.0
  0
LINE
  5
213
  8
0
 10
2542.730629888845
 20
583.440938178957
 30
0.0
 11
2537.930629888842
 21
583.440938178957
 31
0.0
  0
LINE
  5
214
  8
0
 10
2542.730629888845
 20
592.6409381789541
 30
0.0
 11
2537.930629888842
 21
592.6409381789541
 31
0.0
  0
ARC
  5
215
  8
0
 10
2542.730629888845
 20
588.0409381789556
 30
0.0
 40
4.6
 50
270.0
 51
90.0
  0
ARC
  5
216
  8
0
 10
2537.930629888842
 20
588.0409381789556
 30
0.0
 40
4.6
 50
90.0
 51
270.0
  0
LINE
  5
217
  8
0
 10
2542.730629888845
 20
383.5622585225116
 30
0.0
 11
2537.930629888842
 21
383.5622585225116
 31
0.0
  0
LINE
  5
218
  8
0
 10
2542.730629888845
 20
392.762258522516
 30
0.0
 11
2537.930629888842
 21
392.762258522516
 31
0.0
  0
ARC
  5
219
  8
0
 10
2537.930629888842
 20
388.1622585225174
 30
0.0
 40
4.6
 50
90.0
 51
270.0
  0
ARC
  5
21A
  8
0
 10
2542.730629888845
 20
388.1622585225174
 30
0.0
 40
4.6
 50
270.0
 51
90.0
  0
LINE
  5
21B
  8
0
 10
2542.730629888845
 20
192.8835788660778
 30
0.0
 11
2537.930629888842
 21
192.8835788660778
 31
0.0
  0
LINE
  5
21C
  8
0
 10
2542.730629888845
 20
183.6835788660734
 30
0.0
 11
2537.930629888842
 21
183.6835788660734
 31
0.0
  0
ARC
  5
21D
  8
0
 10
2542.730629888845
 20
188.283578866072
 30
0.0
 40
4.6
 50
270.0
 51
90.0
  0
ARC
  5
21E
  8
0
 10
2537.930629888842
 20
188.283578866072
 30
0.0
 40
4.6
 50
90.0
 51
270.0
  0
LINE
  5
21F
  8
0
 10
2598.330629888843
 20
619.8772095797718
 30
0.0
 11
2598.330629888843
 21
177.3528827381157
 31
0.0
  0
ARC
  5
221
  8
0
 10
2588.330629888843
 20
177.3528827381157
 30
0.0
 40
10.0
 50
270.0
 51
0.0
  0
LINE
  5
222
  8
0
 10
2576.830629888843
 20
619.8772095797718
 30
0.0
 11
2578.330629888843
 21
613.8772095797718
 31
0.0
  0
LINE
  5
223
  8
0
 10
2578.330629888843
 20
613.8772095797718
 30
0.0
 11
2579.830629888843
 21
619.8772095797718
 31
0.0
  0
LINE
  5
224
  8
0
 10
2576.830629888843
 20
619.8772095797718
 30
0.0
 11
2577.330629888843
 21
622.6345957266582
 31
0.0
  0
LINE
  5
225
  8
0
 10
2579.830629888843
 20
619.8772095797718
 30
0.0
 11
2598.330629888843
 21
619.8772095797718
 31
0.0
  0
LINE
  5
226
  8
0
 10
2502.330629888843
 20
150.9210373246785
 30
0.0
 11
2504.623587871103
 21
141.7492053956481
 31
0.0
  0
LINE
  5
227
  8
0
 10
2576.830629888843
 20
167.3528827381157
 30
0.0
 11
2578.330629888843
 21
164.2941423758836
 31
0.0
  0
LINE
  5
228
  8
0
 10
2579.830629888843
 20
167.3528827381157
 30
0.0
 11
2588.330629888843
 21
167.3528827381157
 31
0.0
  0
LINE
  5
229
  8
0
 10
2500.877498114879
 20
145.1085102288158
 30
0.0
 11
2496.330629888843
 21
143.9717931723077
 31
0.0
  0
LINE
  5
22A
  8
0
 10
2576.830629888843
 20
167.3528827381157
 30
0.0
 11
2578.330629888843
 21
173.3528827381157
 31
0.0
  0
LINE
  5
22B
  8
0
 10
2500.877498114876
 20
145.1085102288158
 30
0.0
 11
2502.330629888843
 21
150.9210373246785
 31
0.0
  0
LINE
  5
22D
  8
0
 10
2578.330629888843
 20
173.3528827381157
 30
0.0
 11
2579.830629888843
 21
167.3528827381157
 31
0.0
  0
LINE
  5
22E
  8
0
 10
2500.858782841764
 20
631.2206856344998
 30
0.0
 11
2502.33062988884
 21
625.3332974461915
 31
0.0
  0
LINE
  5
22F
  8
0
 10
2496.330629888843
 20
632.3527238727289
 30
0.0
 11
2500.858782841764
 21
631.2206856344998
 31
0.0
  0
LINE
  5
230
  8
0
 10
96.33062988884315
 20
-0.3554302181967879
 30
0.0
 11
96.33062988884315
 21
28.14456978180321
 31
0.0
  0
LINE
  5
231
  8
0
 10
148.9306298888417
 20
583.440938178957
 30
0.0
 11
153.7306298888446
 21
583.440938178957
 31
0.0
  0
LINE
  5
232
  8
0
 10
148.9306298888417
 20
592.6409381789541
 30
0.0
 11
153.7306298888446
 21
592.6409381789541
 31
0.0
  0
ARC
  5
233
  8
0
 10
148.9306298888417
 20
588.0409381789556
 30
0.0
 40
4.6
 50
90.0
 51
270.0
  0
ARC
  5
234
  8
0
 10
153.7306298888446
 20
588.0409381789556
 30
0.0
 40
4.6
 50
270.0
 51
90.0
  0
LINE
  5
235
  8
0
 10
148.9306298888417
 20
383.5622585225116
 30
0.0
 11
153.7306298888446
 21
383.5622585225116
 31
0.0
  0
LINE
  5
236
  8
0
 10
148.9306298888417
 20
392.762258522516
 30
0.0
 11
153.7306298888446
 21
392.762258522516
 31
0.0
  0
ARC
  5
237
  8
0
 10
153.7306298888446
 20
388.1622585225174
 30
0.0
 40
4.6
 50
270.0
 51
90.0
  0
ARC
  5
238
  8
0
 10
148.9306298888417
 20
388.1622585225174
 30
0.0
 40
4.6
 50
90.0
 51
270.0
  0
LINE
  5
239
  8
0
 10
148.9306298888417
 20
192.8835788660778
 30
0.0
 11
153.7306298888446
 21
192.8835788660778
 31
0.0
  0
LINE
  5
23A
  8
0
 10
148.9306298888417
 20
183.6835788660734
 30
0.0
 11
153.7306298888446
 21
183.6835788660734
 31
0.0
  0
ARC
  5
23B
  8
0
 10
148.9306298888417
 20
188.283578866072
 30
0.0
 40
4.6
 50
90.0
 51
270.0
  0
ARC
  5
23C
  8
0
 10
153.7306298888446
 20
188.283578866072
 30
0.0
 40
4.6
 50
270.0
 51
90.0
  0
LINE
  5
23D
  8
0
 10
96.33062988884315
 20
698.747309914004
 30
0.0
 11
102.3306298888431
 21
697.247309914004
 31
0.0
  0
LINE
  5
23E
  8
0
 10
102.3306298888431
 20
697.247309914004
 30
0.0
 11
96.33062988884315
 21
695.747309914004
 31
0.0
  0
LINE
  5
23F
  8
0
 10
96.33062988884315
 20
633.8527238727289
 30
0.0
 11
102.3306298888431
 21
632.3527238727289
 31
0.0
  0
LINE
  5
240
  8
0
 10
102.3306298888431
 20
143.9717931723077
 30
0.0
 11
96.33062988884315
 21
142.4717931723077
 31
0.0
  0
LINE
  5
241
  8
0
 10
96.33062988884315
 20
31.14456978180321
 30
0.0
 11
102.3306298888431
 21
29.64456978180321
 31
0.0
  0
LINE
  5
242
  8
0
 10
102.3306298888431
 20
29.64456978180321
 30
0.0
 11
96.33062988884315
 21
28.14456978180321
 31
0.0
  0
LINE
  5
243
  8
0
 10
96.33062988884315
 20
633.8527238727289
 30
0.0
 11
96.33062988884315
 21
695.747309914004
 31
0.0
  0
LINE
  5
246
  8
0
 10
96.33062988884315
 20
142.4717931723077
 30
0.0
 11
96.33062988884315
 21
31.14456978180321
 31
0.0
  0
LINE
  5
249
  8
0
 10
96.33062988884315
 20
150.9210373246785
 30
0.0
 11
94.09754850471775
 21
141.9887117881841
 31
0.0
  0
LINE
  5
24A
  8
0
 10
97.78376166280698
 20
145.1085102288158
 30
0.0
 11
102.3306298888431
 21
143.9717931723077
 31
0.0
  0
LINE
  5
24B
  8
0
 10
97.78376166281062
 20
145.1085102288158
 30
0.0
 11
96.33062988884315
 21
150.9210373246785
 31
0.0
  0
LINE
  5
24C
  8
0
 10
102.3306298888431
 20
632.3527238727289
 30
0.0
 11
97.80247693592294
 21
631.2206856344998
 31
0.0
  0
LINE
  5
24D
  8
0
 10
97.80247693592294
 20
631.2206856344998
 30
0.0
 11
96.33062988884679
 21
625.3332974461915
 31
0.0
  0
LINE
  5
24E
  8
0
 10
636.7306298888446
 20
583.440938178957
 30
0.0
 11
631.9306298888417
 21
583.440938178957
 31
0.0
  0
LINE
  5
24F
  8
0
 10
636.7306298888446
 20
592.6409381789541
 30
0.0
 11
631.9306298888417
 21
592.6409381789541
 31
0.0
  0
ARC
  5
250
  8
0
 10
636.7306298888446
 20
588.0409381789556
 30
0.0
 40
4.6
 50
270.0
 51
90.0
  0
ARC
  5
251
  8
0
 10
631.9306298888417
 20
588.0409381789556
 30
0.0
 40
4.6
 50
90.0
 51
270.0
  0
LINE
  5
252
  8
0
 10
636.7306298888446
 20
383.5622585225116
 30
0.0
 11
631.9306298888417
 21
383.5622585225116
 31
0.0
  0
LINE
  5
253
  8
0
 10
636.7306298888446
 20
392.762258522516
 30
0.0
 11
631.9306298888417
 21
392.762258522516
 31
0.0
  0
ARC
  5
254
  8
0
 10
631.9306298888417
 20
388.1622585225174
 30
0.0
 40
4.6
 50
90.0
 51
270.0
  0
ARC
  5
255
  8
0
 10
636.7306298888446
 20
388.1622585225174
 30
0.0
 40
4.6
 50
270.0
 51
90.0
  0
LINE
  5
256
  8
0
 10
636.7306298888446
 20
192.8835788660778
 30
0.0
 11
631.9306298888417
 21
192.8835788660778
 31
0.0
  0
LINE
  5
257
  8
0
 10
636.7306298888446
 20
183.6835788660734
 30
0.0
 11
631.9306298888417
 21
183.6835788660734
 31
0.0
  0
ARC
  5
258
  8
0
 10
636.7306298888446
 20
188.283578866072
 30
0.0
 40
4.6
 50
270.0
 51
90.0
  0
ARC
  5
259
  8
0
 10
631.9306298888417
 20
188.283578866072
 30
0.0
 40
4.6
 50
90.0
 51
270.0
  0
LINE
  5
25A
  8
0
 10
566.7306298888446
 20
583.440938178957
 30
0.0
 11
561.9306298888417
 21
583.440938178957
 31
0.0
  0
LINE
  5
25B
  8
0
 10
566.7306298888446
 20
592.6409381789541
 30
0.0
 11
561.9306298888417
 21
592.6409381789541
 31
0.0
  0
ARC
  5
25C
  8
0
 10
566.7306298888446
 20
588.0409381789556
 30
0.0
 40
4.6
 50
270.0
 51
90.0
  0
ARC
  5
25D
  8
0
 10
561.9306298888417
 20
588.0409381789556
 30
0.0
 40
4.6
 50
90.0
 51
270.0
  0
LINE
  5
25E
  8
0
 10
566.7306298888446
 20
383.5622585225116
 30
0.0
 11
561.9306298888417
 21
383.5622585225116
 31
0.0
  0
LINE
  5
25F
  8
0
 10
566.7306298888446
 20
392.762258522516
 30
0.0
 11
561.9306298888417
 21
392.762258522516
 31
0.0
  0
ARC
  5
260
  8
0
 10
561.9306298888417
 20
388.1622585225174
 30
0.0
 40
4.6
 50
90.0
 51
270.0
  0
ARC
  5
261
  8
0
 10
566.7306298888446
 20
388.1622585225174
 30
0.0
 40
4.6
 50
270.0
 51
90.0
  0
LINE
  5
262
  8
0
 10
566.7306298888446
 20
192.8835788660778
 30
0.0
 11
561.9306298888417
 21
192.8835788660778
 31
0.0
  0
LINE
  5
263
  8
0
 10
566.7306298888446
 20
183.6835788660734
 30
0.0
 11
561.9306298888417
 21
183.6835788660734
 31
0.0
  0
ARC
  5
264
  8
0
 10
566.7306298888446
 20
188.283578866072
 30
0.0
 40
4.6
 50
270.0
 51
90.0
  0
ARC
  5
265
  8
0
 10
561.9306298888417
 20
188.283578866072
 30
0.0
 40
4.6
 50
90.0
 51
270.0
  0
LINE
  5
266
  8
0
 10
1961.930629888842
 20
583.440938178957
 30
0.0
 11
1966.730629888845
 21
583.440938178957
 31
0.0
  0
LINE
  5
267
  8
0
 10
1961.930629888842
 20
592.6409381789541
 30
0.0
 11
1966.730629888845
 21
592.6409381789541
 31
0.0
  0
ARC
  5
268
  8
0
 10
1961.930629888842
 20
588.0409381789556
 30
0.0
 40
4.6
 50
90.0
 51
270.0
  0
ARC
  5
269
  8
0
 10
1966.730629888845
 20
588.0409381789556
 30
0.0
 40
4.6
 50
270.0
 51
90.0
  0
LINE
  5
26A
  8
0
 10
1961.930629888842
 20
383.5622585225116
 30
0.0
 11
1966.730629888845
 21
383.5622585225116
 31
0.0
  0
LINE
  5
26B
  8
0
 10
1961.930629888842
 20
392.762258522516
 30
0.0
 11
1966.730629888845
 21
392.762258522516
 31
0.0
  0
ARC
  5
26C
  8
0
 10
1966.730629888845
 20
388.1622585225174
 30
0.0
 40
4.6
 50
270.0
 51
90.0
  0
ARC
  5
26D
  8
0
 10
1961.930629888842
 20
388.1622585225174
 30
0.0
 40
4.6
 50
90.0
 51
270.0
  0
LINE
  5
26E
  8
0
 10
1961.930629888842
 20
192.8835788660778
 30
0.0
 11
1966.730629888845
 21
192.8835788660778
 31
0.0
  0
LINE
  5
26F
  8
0
 10
1961.930629888842
 20
183.6835788660734
 30
0.0
 11
1966.730629888845
 21
183.6835788660734
 31
0.0
  0
ARC
  5
270
  8
0
 10
1961.930629888842
 20
188.283578866072
 30
0.0
 40
4.6
 50
90.0
 51
270.0
  0
ARC
  5
271
  8
0
 10
1966.730629888845
 20
188.283578866072
 30
0.0
 40
4.6
 50
270.0
 51
90.0
  0
LINE
  5
272
  8
0
 10
2031.930629888842
 20
583.440938178957
 30
0.0
 11
2036.730629888845
 21
583.440938178957
 31
0.0
  0
LINE
  5
273
  8
0
 10
2031.930629888842
 20
592.6409381789541
 30
0.0
 11
2036.730629888845
 21
592.6409381789541
 31
0.0
  0
ARC
  5
274
  8
0
 10
2031.930629888842
 20
588.0409381789556
 30
0.0
 40
4.6
 50
90.0
 51
270.0
  0
ARC
  5
275
  8
0
 10
2036.730629888845
 20
588.0409381789556
 30
0.0
 40
4.6
 50
270.0
 51
90.0
  0
LINE
  5
276
  8
0
 10
2031.930629888842
 20
383.5622585225116
 30
0.0
 11
2036.730629888845
 21
383.5622585225116
 31
0.0
  0
LINE
  5
277
  8
0
 10
2031.930629888842
 20
392.762258522516
 30
0.0
 11
2036.730629888845
 21
392.762258522516
 31
0.0
  0
ARC
  5
278
  8
0
 10
2036.730629888845
 20
388.1622585225174
 30
0.0
 40
4.6
 50
270.0
 51
90.0
  0
ARC
  5
279
  8
0
 10
2031.930629888842
 20
388.1622585225174
 30
0.0
 40
4.6
 50
90.0
 51
270.0
  0
LINE
  5
27A
  8
0
 10
2031.930629888842
 20
192.8835788660778
 30
0.0
 11
2036.730629888845
 21
192.8835788660778
 31
0.0
  0
LINE
  5
27B
  8
0
 10
2031.930629888842
 20
183.6835788660734
 30
0.0
 11
2036.730629888845
 21
183.6835788660734
 31
0.0
  0
ARC
  5
27C
  8
0
 10
2031.930629888842
 20
188.283578866072
 30
0.0
 40
4.6
 50
90.0
 51
270.0
  0
ARC
  5
27D
  8
0
 10
2036.730629888845
 20
188.283578866072
 30
0.0
 40
4.6
 50
270.0
 51
90.0
  0
LINE
  5
280
  8
0
  6
CONTINUOUS
 62
     7
 10
2561.145125710367
 20
657.3406915082265
 30
0.0
 11
2577.33011813467
 21
622.6317735189219
 31
0.0
  0
LINE
  5
281
  8
0
 10
2504.623587871103
 20
141.7492053956481
 30
0.0
 11
2578.330629888843
 21
68.04216337791301
 31
0.0
  0
LINE
  5
282
  8
0
 10
2578.330629888843
 20
164.2941423758836
 30
0.0
 11
2578.330629888843
 21
68.04216337791301
 31
0.0
  0
LINE
  5
283
  8
0
 10
2561.145125710367
 20
657.3406915082265
 30
0.0
 11
2503.627237839531
 21
630.5197292489553
 31
0.0
  0
LINE
  5
284
  8
0
 10
2502.33062988884
 20
625.3332974461915
 30
0.0
 11
2503.627237839531
 21
630.5197292489553
 31
0.0
  0
LINE
  5
285
  8
0
 10
55.93062988884169
 20
583.440938178957
 30
0.0
 11
60.7306298888446
 21
583.440938178957
 31
0.0
  0
LINE
  5
286
  8
0
 10
55.93062988884169
 20
592.6409381789541
 30
0.0
 11
60.7306298888446
 21
592.6409381789541
 31
0.0
  0
ARC
  5
287
  8
0
 10
55.93062988884169
 20
588.0409381789556
 30
0.0
 40
4.6
 50
90.0
 51
270.0
  0
ARC
  5
288
  8
0
 10
60.7306298888446
 20
588.0409381789556
 30
0.0
 40
4.6
 50
270.0
 51
90.0
  0
LINE
  5
289
  8
0
 10
55.93062988884169
 20
383.5622585225116
 30
0.0
 11
60.7306298888446
 21
383.5622585225116
 31
0.0
  0
LINE
  5
28A
  8
0
 10
55.93062988884169
 20
392.762258522516
 30
0.0
 11
60.7306298888446
 21
392.762258522516
 31
0.0
  0
ARC
  5
28B
  8
0
 10
60.7306298888446
 20
388.1622585225174
 30
0.0
 40
4.6
 50
270.0
 51
90.0
  0
ARC
  5
28C
  8
0
 10
55.93062988884169
 20
388.1622585225174
 30
0.0
 40
4.6
 50
90.0
 51
270.0
  0
LINE
  5
28D
  8
0
 10
55.93062988884169
 20
192.8835788660778
 30
0.0
 11
60.7306298888446
 21
192.8835788660778
 31
0.0
  0
LINE
  5
28E
  8
0
 10
55.93062988884169
 20
183.6835788660734
 30
0.0
 11
60.7306298888446
 21
183.6835788660734
 31
0.0
  0
ARC
  5
28F
  8
0
 10
55.93062988884169
 20
188.283578866072
 30
0.0
 40
4.6
 50
90.0
 51
270.0
  0
ARC
  5
290
  8
0
 10
60.7306298888446
 20
188.283578866072
 30
0.0
 40
4.6
 50
270.0
 51
90.0
  0
LINE
  5
291
  8
0
 10
0.3306298888431449
 20
619.8772095797718
 30
0.0
 11
0.3306298888431449
 21
177.3528827381157
 31
0.0
  0
ARC
  5
292
  8
0
 10
10.33062988884314
 20
177.3528827381157
 30
0.0
 40
10.0
 50
180.0
 51
270.0
  0
LINE
  5
293
  8
0
 10
21.83062988884314
 20
619.8772095797718
 30
0.0
 11
20.33062988884314
 21
613.8772095797718
 31
0.0
  0
LINE
  5
294
  8
0
 10
20.33062988884314
 20
613.8772095797718
 30
0.0
 11
18.83062988884314
 21
619.8772095797718
 31
0.0
  0
LINE
  5
295
  8
0
 10
21.83062988884314
 20
619.8772095797718
 30
0.0
 11
21.33062988884314
 21
622.6345957266582
 31
0.0
  0
LINE
  5
296
  8
0
 10
18.83062988884314
 20
619.8772095797718
 30
0.0
 11
0.3306298888431449
 21
619.8772095797718
 31
0.0
  0
LINE
  5
297
  8
0
 10
21.83062988884314
 20
167.3528827381157
 30
0.0
 11
20.33062988884314
 21
164.2941423758836
 31
0.0
  0
LINE
  5
298
  8
0
 10
18.83062988884314
 20
167.3528827381157
 30
0.0
 11
10.33062988884314
 21
167.3528827381157
 31
0.0
  0
LINE
  5
29A
  8
0
 10
21.83062988884314
 20
167.3528827381157
 30
0.0
 11
20.33062988884314
 21
173.3528827381157
 31
0.0
  0
LINE
  5
29B
  8
0
 10
20.33062988884314
 20
173.3528827381157
 30
0.0
 11
18.83062988884314
 21
167.3528827381157
 31
0.0
  0
LINE
  5
29C
  8
0
 10
37.5161340673197
 20
657.3406915082265
 30
0.0
 11
95.03402193815539
 21
630.5197292489553
 31
0.0
  0
LINE
  5
29D
  8
0
 10
20.33062988884314
 20
164.2941423758836
 30
0.0
 11
20.33062988884314
 21
68.04216337791301
 31
0.0
  0
LINE
  5
29E
  8
0
 10
94.09754850471775
 20
141.9887117881841
 30
0.0
 11
20.33062988884314
 21
68.04216337791301
 31
0.0
  0
LINE
  5
29F
  8
0
  6
CONTINUOUS
 62
     7
 10
37.5161340673197
 20
657.3406915082265
 30
0.0
 11
21.33114164301635
 21
622.6317735189219
 31
0.0
  0
LINE
  5
2A0
  8
0
 10
96.33062988884679
 20
625.3332974461915
 30
0.0
 11
95.03402193815721
 21
630.5197292489553
 31
0.0
  0
LINE
  5
30D
  8
0
 10
96.33062988884315
 20
698.747309914004
 30
0.0
 11
96.33062988884315
 21
735.2473099140021
 31
0.0
  0
LINE
  5
30E
  8
0
 10
2502.330629888843
 20
735.2473099140021
 30
0.0
 11
2502.330629888843
 21
698.747309914004
 31
0.0
  0
LINE
  5
30F
  8
0
 10
2502.330629888843
 20
633.8527238727289
 30
0.0
 11
2502.330629888843
 21
695.747309914004
 31
0.0
  0
ENDSEC
  0
EOF
