  0
SECTION
  2
HEADER
  9
$ACADVER
  1
AC1009
  9
$DWGCODEPAGE
  3
ansi_1252
  9
$INSBASE
 10
0.0
 20
0.0
 30
0.0
  9
$EXTMIN
 10
4870.253228098482
 20
-1854.048247303095
 30
0.0
  9
$EXTMAX
 10
9089.853228098478
 20
-356.5906634770961
 30
31.83440005694778
  9
$LIMMIN
 10
0.0
 20
0.0
  9
$LIMMAX
 10
420.0
 20
297.0
  9
$ORTHOMODE
 70
     1
  9
$REGENMODE
 70
     1
  9
$FILLMODE
 70
     1
  9
$QTEXTMODE
 70
     0
  9
$MIRRTEXT
 70
     0
  9
$DRAGMODE
 70
     2
  9
$LTSCALE
 40
1.0
  9
$OSMODE
 70
   695
  9
$ATTMODE
 70
     1
  9
$TEXTSIZE
 40
2.5
  9
$TRACEWID
 40
1.0
  9
$TEXTSTYLE
  7
STANDARD
  9
$CLAYER
  8
0
  9
$CELTYPE
  6
BYLAYER
  9
$CECOLOR
 62
   256
  9
$DIMSCALE
 40
1.0
  9
$DIMASZ
 40
2.5
  9
$DIMEXO
 40
0.625
  9
$DIMDLI
 40
3.75
  9
$DIMRND
 40
0.0
  9
$DIMDLE
 40
0.0
  9
$DIMEXE
 40
1.25
  9
$DIMTP
 40
0.0
  9
$DIMTM
 40
0.0
  9
$DIMTXT
 40
2.5
  9
$DIMCEN
 40
2.5
  9
$DIMTSZ
 40
0.0
  9
$DIMTOL
 70
     0
  9
$DIMLIM
 70
     0
  9
$DIMTIH
 70
     0
  9
$DIMTOH
 70
     0
  9
$DIMSE1
 70
     0
  9
$DIMSE2
 70
     0
  9
$DIMTAD
 70
     1
  9
$DIMZIN
 70
     8
  9
$DIMBLK
  1

  9
$DIMASO
 70
     1
  9
$DIMSHO
 70
     1
  9
$DIMPOST
  1

  9
$DIMAPOST
  1

  9
$DIMALT
 70
     0
  9
$DIMALTD
 70
     3
  9
$DIMALTF
 40
0.03937007874016
  9
$DIMLFAC
 40
1.0
  9
$DIMTOFL
 70
     1
  9
$DIMTVP
 40
0.0
  9
$DIMTIX
 70
     0
  9
$DIMSOXD
 70
     0
  9
$DIMSAH
 70
     0
  9
$DIMBLK1
  1

  9
$DIMBLK2
  1

  9
$DIMSTYLE
  2
DIN-1
  9
$DIMCLRD
 70
     0
  9
$DIMCLRE
 70
     0
  9
$DIMCLRT
 70
     0
  9
$DIMTFAC
 40
1.0
  9
$DIMGAP
 40
0.625
  9
$LUNITS
 70
     2
  9
$LUPREC
 70
     3
  9
$SKETCHINC
 40
1.0
  9
$FILLETRAD
 40
10.0
  9
$AUNITS
 70
     0
  9
$AUPREC
 70
     0
  9
$MENU
  1
.
  9
$ELEVATION
 40
0.0
  9
$PELEVATION
 40
0.0
  9
$THICKNESS
 40
0.0
  9
$LIMCHECK
 70
     0
  9
$CHAMFERA
 40
10.0
  9
$CHAMFERB
 40
10.0
  9
$SKPOLY
 70
     0
  9
$TDCREATE
 40
2455022.720692836
  9
$TDUPDATE
 40
2459129.278019248
  9
$TDINDWG
 40
0.0043273843
  9
$TDUSRTIMER
 40
0.0009467361
  9
$USRTIMER
 70
     1
  9
$ANGBASE
 50
0.0
  9
$ANGDIR
 70
     0
  9
$PDMODE
 70
     0
  9
$PDSIZE
 40
0.0
  9
$PLINEWID
 40
0.0
  9
$COORDS
 70
     1
  9
$SPLFRAME
 70
     0
  9
$SPLINETYPE
 70
     6
  9
$SPLINESEGS
 70
     8
  9
$ATTDIA
 70
     0
  9
$ATTREQ
 70
     1
  9
$HANDLING
 70
     1
  9
$HANDSEED
  5
863
  9
$SURFTAB1
 70
     6
  9
$SURFTAB2
 70
     6
  9
$SURFTYPE
 70
     6
  9
$SURFU
 70
     6
  9
$SURFV
 70
     6
  9
$UCSNAME
  2

  9
$UCSORG
 10
0.0
 20
0.0
 30
0.0
  9
$UCSXDIR
 10
1.0
 20
0.0
 30
0.0
  9
$UCSYDIR
 10
0.0
 20
1.0
 30
0.0
  9
$PUCSNAME
  2

  9
$PUCSORG
 10
0.0
 20
0.0
 30
0.0
  9
$PUCSXDIR
 10
1.0
 20
0.0
 30
0.0
  9
$PUCSYDIR
 10
0.0
 20
1.0
 30
0.0
  9
$USERI1
 70
     0
  9
$USERI2
 70
     0
  9
$USERI3
 70
     0
  9
$USERI4
 70
     0
  9
$USERI5
 70
     0
  9
$USERR1
 40
0.0
  9
$USERR2
 40
0.0
  9
$USERR3
 40
0.0
  9
$USERR4
 40
0.0
  9
$USERR5
 40
0.0
  9
$WORLDVIEW
 70
     1
  9
$SHADEDGE
 70
     3
  9
$SHADEDIF
 70
    70
  9
$TILEMODE
 70
     1
  9
$MAXACTVP
 70
    64
  9
$PLIMCHECK
 70
     0
  9
$PEXTMIN
 10
1.000000000000000E+20
 20
1.000000000000000E+20
 30
1.000000000000000E+20
  9
$PEXTMAX
 10
-1.000000000000000E+20
 20
-1.000000000000000E+20
 30
-1.000000000000000E+20
  9
$PLIMMIN
 10
0.0
 20
0.0
  9
$PLIMMAX
 10
0.0
 20
0.0
  9
$UNITMODE
 70
     0
  9
$VISRETAIN
 70
     1
  9
$PLINEGEN
 70
     0
  9
$PSLTSCALE
 70
     1
  0
ENDSEC
  0
SECTION
  2
TABLES
  0
TABLE
  2
VPORT
 70
     1
  0
VPORT
  2
*ACTIVE
 70
     0
 10
0.0
 20
0.0
 11
1.0
 21
1.0
 12
9215.374732302844
 22
-1723.083667904673
 13
0.0
 23
0.0
 14
10.0
 24
10.0
 15
10.0
 25
10.0
 16
0.0
 26
0.0
 36
1.0
 17
-134.1869158878508
 27
0.0
 37
0.0
 40
2598.4800630547
 41
2.287157287157287
 42
50.0
 43
0.0
 44
0.0
 50
0.0
 51
0.0
 71
    16
 72
  1000
 73
     1
 74
     3
 75
     0
 76
     0
 77
     0
 78
     0
  0
ENDTAB
  0
TABLE
  2
LTYPE
 70
     1
  0
LTYPE
  2
CONTINUOUS
 70
     0
  3
Solid line
 72
    65
 73
     0
 40
0.0
  0
ENDTAB
  0
TABLE
  2
LAYER
 70
     1
  0
LAYER
  2
0
 70
     0
 62
     7
  6
CONTINUOUS
  0
ENDTAB
  0
TABLE
  2
STYLE
 70
     2
  0
STYLE
  2
STANDARD
 70
     0
 40
0.0
 41
1.0
 50
0.0
 71
     0
 42
2.5
  3
arial.ttf
  4

  0
STYLE
  2
ANNOTATIVE
 70
     0
 40
0.0
 41
1.0
 50
0.0
 71
     0
 42
2.5
  3
arial.ttf
  4

  0
ENDTAB
  0
TABLE
  2
VIEW
 70
     0
  0
ENDTAB
  0
TABLE
  2
UCS
 70
     0
  0
ENDTAB
  0
TABLE
  2
APPID
 70
     6
  0
APPID
  2
ACAD
 70
     0
  0
APPID
  2
ACADANNOTATIVE
 70
     0
  0
APPID
  2
ACAD_DSTYLE_DIMBREAK
 70
     0
  0
APPID
  2
ACAD_DSTYLE_DIMJAG
 70
     0
  0
APPID
  2
ACAD_DSTYLE_DIMTALN
 70
     0
  0
APPID
  2
ACAD_PSEXT
 70
     0
  0
ENDTAB
  0
TABLE
  2
DIMSTYLE
 70
     8
  0
DIMSTYLE
  2
ISO-25
 70
     0
  3

  4

  5

  6

  7

 40
1.0
 41
2.5
 42
0.625
 43
3.75
 44
1.25
 45
0.0
 46
0.0
 47
0.0
 48
0.0
140
2.5
141
2.5
142
0.0
143
0.03937007874016
144
1.0
145
0.0
146
1.0
147
0.625
 71
     0
 72
     0
 73
     0
 74
     0
 75
     0
 76
     0
 77
     1
 78
     8
170
     0
171
     3
172
     1
173
     0
174
     0
175
     0
176
     0
177
     0
178
     0
  0
DIMSTYLE
  2
DIN-1
 70
     0
  3

  4

  5

  6

  7

 40
1.0
 41
2.5
 42
0.625
 43
3.75
 44
1.25
 45
0.0
 46
0.0
 47
0.0
 48
0.0
140
2.5
141
2.5
142
0.0
143
0.03937007874016
144
1.0
145
0.0
146
1.0
147
0.625
 71
     0
 72
     0
 73
     0
 74
     0
 75
     0
 76
     0
 77
     1
 78
     8
170
     0
171
     3
172
     1
173
     0
174
     0
175
     0
176
     0
177
     0
178
     0
  0
DIMSTYLE
  2
ANNOTATIVE
 70
     0
  3

  4

  5

  6

  7

 40
0.0
 41
2.5
 42
0.625
 43
3.75
 44
1.25
 45
0.0
 46
0.0
 47
0.0
 48
0.0
140
2.5
141
2.5
142
0.0
143
0.03937007874016
144
1.0
145
0.0
146
1.0
147
0.625
 71
     0
 72
     0
 73
     0
 74
     0
 75
     0
 76
     0
 77
     1
 78
     8
170
     0
171
     3
172
     1
173
     0
174
     0
175
     0
176
     0
177
     0
178
     0
  0
DIMSTYLE
  2
STANDARD
 70
     0
  3

  4

  5

  6

  7

 40
1.0
 41
0.18
 42
0.0625
 43
0.38
 44
0.18
 45
0.0
 46
0.0
 47
0.0
 48
0.0
140
0.18
141
0.09
142
0.0
143
25.4
144
1.0
145
0.0
146
1.0
147
0.09
 71
     0
 72
     0
 73
     1
 74
     1
 75
     0
 76
     0
 77
     0
 78
     0
170
     0
171
     2
172
     0
173
     0
174
     0
175
     0
176
     0
177
     0
178
     0
  0
DIMSTYLE
  2
COPIA_DI_ISO-25
 70
     0
  3

  4

  5

  6

  7

 40
1.0
 41
20.0
 42
16.0
 43
3.75
 44
1.25
 45
0.0
 46
0.0
 47
0.0
 48
0.0
140
30.0
141
2.5
142
0.0
143
0.0393700787
144
1.0
145
0.0
146
1.0
147
10.0
 71
     0
 72
     0
 73
     0
 74
     0
 75
     0
 76
     0
 77
     1
 78
     8
170
     0
171
     3
172
     1
173
     0
174
     0
175
     0
176
     0
177
     0
178
     0
  0
DIMSTYLE
  2
ANNOTATIVA
 70
     0
  3

  4

  5

  6

  7

 40
0.0
 41
0.18
 42
0.0625
 43
0.38
 44
0.18
 45
0.0
 46
0.0
 47
0.0
 48
0.0
140
0.18
141
0.09
142
0.0
143
25.4
144
1.0
145
0.0
146
1.0
147
0.09
 71
     0
 72
     0
 73
     1
 74
     1
 75
     0
 76
     0
 77
     0
 78
     0
170
     0
171
     2
172
     0
173
     0
174
     0
175
     0
176
     0
177
     0
178
     0
  0
DIMSTYLE
  2
COPIA_DI_ISO-250
 70
     0
  3

  4

  5

  6

  7

 40
1.0
 41
20.0
 42
16.0
 43
3.75
 44
1.25
 45
0.0
 46
0.0
 47
0.0
 48
0.0
140
30.0
141
2.5
142
0.0
143
0.0393700787
144
1.0
145
0.0
146
1.0
147
10.0
 71
     0
 72
     0
 73
     0
 74
     0
 75
     0
 76
     0
 77
     1
 78
     8
170
     0
171
     3
172
     1
173
     0
174
     0
175
     0
176
     0
177
     0
178
     0
  0
DIMSTYLE
  2
COPIA_DI_ISO-251
 70
     0
  3

  4

  5

  6

  7

 40
1.0
 41
20.0
 42
16.0
 43
3.75
 44
1.25
 45
0.0
 46
0.0
 47
0.0
 48
0.0
140
30.0
141
2.5
142
0.0
143
0.0393700787
144
1.0
145
0.0
146
1.0
147
10.0
 71
     0
 72
     0
 73
     0
 74
     0
 75
     0
 76
     0
 77
     1
 78
     8
170
     0
171
     3
172
     1
173
     0
174
     0
175
     0
176
     0
177
     0
178
     0
  0
ENDTAB
  0
ENDSEC
  0
SECTION
  2
BLOCKS
  0
BLOCK
  8
0
  2
$MODEL_SPACE
 70
     0
 10
0.0
 20
0.0
 30
0.0
  3
$MODEL_SPACE
  1

  0
ENDBLK
  5
21
  8
0
  0
BLOCK
 67
     1
  8
0
  2
$PAPER_SPACE
 70
     0
 10
0.0
 20
0.0
 30
0.0
  3
$PAPER_SPACE
  1

  0
ENDBLK
  5
1D
 67
     1
  8
0
  0
ENDSEC
  0
SECTION
  2
ENTITIES
  0
LINE
  5
5DF
  8
0
 10
8870.053228098477
 20
-1256.479663832595
 30
0.0
 11
8871.553228098477
 21
-1256.479663832595
 31
0.0
  0
LINE
  5
5E0
  8
0
 10
8871.553228098477
 20
-1256.479663832595
 30
0.0
 11
8871.553228098477
 21
-1278.229663832594
 31
0.0
  0
LINE
  5
5E1
  8
0
 10
8938.619598712881
 20
-1251.979663832595
 30
0.0
 11
9007.85322809848
 21
-1251.979663832595
 31
0.0
  0
LINE
  5
5E3
  8
0
 10
9007.85322809848
 20
-1320.445372097294
 30
0.0
 11
9007.85322809848
 21
-1251.979663832595
 31
0.0
  0
LINE
  5
5E5
  8
0
 10
7957.753228098475
 20
-1854.048247303095
 30
0.0
 11
7957.753228098475
 21
-1823.479663832595
 31
0.0
  0
LINE
  5
5E6
  8
0
 10
7957.753228098475
 20
-1823.479663832595
 30
0.0
 11
7956.253228098475
 21
-1823.479663832595
 31
0.0
  0
LINE
  5
5E7
  8
0
 10
7956.253228098475
 20
-1823.479663832595
 30
0.0
 11
7956.253228098475
 21
-1830.979663832595
 31
0.0
  0
LINE
  5
5E8
  8
0
 10
7956.253228098475
 20
-1830.979663832595
 30
0.0
 11
7908.253228098475
 21
-1830.979663832595
 31
0.0
  0
LINE
  5
5E9
  8
0
 10
7908.253228098475
 20
-1830.979663832595
 30
0.0
 11
7908.253228098475
 21
-1823.479663832595
 31
0.0
  0
LINE
  5
5EA
  8
0
 10
7908.253228098475
 20
-1823.479663832595
 30
0.0
 11
7906.753228098475
 21
-1823.479663832595
 31
0.0
  0
LINE
  5
5EB
  8
0
 10
7906.753228098475
 20
-1823.479663832595
 30
0.0
 11
7906.753228098475
 21
-1854.048247303095
 31
0.0
  0
LINE
  5
5EC
  8
0
 10
7906.753228098475
 20
-1854.048247303095
 30
0.0
 11
7417.453228098479
 21
-1854.048247303095
 31
0.0
  0
LINE
  5
5ED
  8
0
 10
7417.453228098479
 20
-1854.048247303095
 30
0.0
 11
7417.453228098479
 21
-1823.479663832595
 31
0.0
  0
LINE
  5
5EE
  8
0
 10
7417.453228098479
 20
-1823.479663832595
 30
0.0
 11
7415.953228098479
 21
-1823.479663832595
 31
0.0
  0
LINE
  5
5EF
  8
0
 10
7415.953228098479
 20
-1823.479663832595
 30
0.0
 11
7415.953228098479
 21
-1830.979663832595
 31
0.0
  0
LINE
  5
5F0
  8
0
 10
7415.953228098479
 20
-1830.979663832595
 30
0.0
 11
7367.953228098479
 21
-1830.979663832595
 31
0.0
  0
LINE
  5
5F1
  8
0
 10
7367.953228098479
 20
-1830.979663832595
 30
0.0
 11
7367.953228098479
 21
-1823.479663832595
 31
0.0
  0
LINE
  5
5F2
  8
0
 10
7367.953228098479
 20
-1823.479663832595
 30
0.0
 11
7366.453228098479
 21
-1823.479663832595
 31
0.0
  0
LINE
  5
5F3
  8
0
 10
7366.453228098479
 20
-1823.479663832595
 30
0.0
 11
7366.453228098479
 21
-1854.048247303095
 31
0.0
  0
LINE
  5
5F4
  8
0
 10
7366.453228098479
 20
-1854.048247303095
 30
0.0
 11
6884.153228098477
 21
-1854.048247303095
 31
0.0
  0
LINE
  5
5F5
  8
0
 10
6884.153228098477
 20
-1854.048247303095
 30
0.0
 11
6884.153228098477
 21
-1823.479663832595
 31
0.0
  0
LINE
  5
5F6
  8
0
 10
6884.153228098477
 20
-1823.479663832595
 30
0.0
 11
6882.653228098477
 21
-1823.479663832595
 31
0.0
  0
LINE
  5
5F7
  8
0
 10
6882.653228098477
 20
-1823.479663832595
 30
0.0
 11
6882.653228098477
 21
-1830.979663832595
 31
0.0
  0
LINE
  5
5F8
  8
0
 10
6882.653228098477
 20
-1830.979663832595
 30
0.0
 11
6834.653228098484
 21
-1830.979663832595
 31
0.0
  0
LINE
  5
5F9
  8
0
 10
6834.653228098484
 20
-1830.979663832595
 30
0.0
 11
6834.653228098484
 21
-1823.479663832595
 31
0.0
  0
LINE
  5
5FA
  8
0
 10
6834.653228098484
 20
-1823.479663832595
 30
0.0
 11
6833.153228098484
 21
-1823.479663832595
 31
0.0
  0
LINE
  5
5FB
  8
0
 10
6833.153228098484
 20
-1823.479663832595
 30
0.0
 11
6833.153228098484
 21
-1854.048247303095
 31
0.0
  0
LINE
  5
5FC
  8
0
 10
6833.153228098484
 20
-1854.048247303095
 30
0.0
 11
6350.853228098481
 21
-1854.048247303095
 31
0.0
  0
LINE
  5
5FD
  8
0
 10
6350.853228098481
 20
-1854.048247303095
 30
0.0
 11
6350.853228098481
 21
-1823.479663832595
 31
0.0
  0
LINE
  5
5FE
  8
0
 10
6350.853228098481
 20
-1823.479663832595
 30
0.0
 11
6349.353228098481
 21
-1823.479663832595
 31
0.0
  0
LINE
  5
5FF
  8
0
 10
6349.353228098481
 20
-1823.479663832595
 30
0.0
 11
6349.353228098481
 21
-1830.979663832595
 31
0.0
  0
LINE
  5
600
  8
0
 10
6349.353228098481
 20
-1830.979663832595
 30
0.0
 11
6301.353228098481
 21
-1830.979663832595
 31
0.0
  0
LINE
  5
601
  8
0
 10
6301.353228098481
 20
-1830.979663832595
 30
0.0
 11
6301.353228098481
 21
-1823.479663832595
 31
0.0
  0
LINE
  5
602
  8
0
 10
6301.353228098481
 20
-1823.479663832595
 30
0.0
 11
6299.853228098481
 21
-1823.479663832595
 31
0.0
  0
LINE
  5
603
  8
0
 10
6299.853228098481
 20
-1823.479663832595
 30
0.0
 11
6299.853228098481
 21
-1854.048247303095
 31
0.0
  0
LINE
  5
604
  8
0
 10
6299.853228098481
 20
-1854.048247303095
 30
0.0
 11
5817.553228098485
 21
-1854.048247303095
 31
0.0
  0
LINE
  5
605
  8
0
 10
5817.553228098485
 20
-1854.048247303095
 30
0.0
 11
5817.553228098485
 21
-1823.479663832595
 31
0.0
  0
LINE
  5
606
  8
0
 10
5817.553228098485
 20
-1823.479663832595
 30
0.0
 11
5816.053228098485
 21
-1823.479663832595
 31
0.0
  0
LINE
  5
607
  8
0
 10
5816.053228098485
 20
-1823.479663832595
 30
0.0
 11
5816.053228098485
 21
-1830.979663832595
 31
0.0
  0
LINE
  5
608
  8
0
 10
5816.053228098485
 20
-1830.979663832595
 30
0.0
 11
5768.053228098485
 21
-1830.979663832595
 31
0.0
  0
LINE
  5
609
  8
0
 10
5768.053228098485
 20
-1830.979663832595
 30
0.0
 11
5768.053228098485
 21
-1823.479663832595
 31
0.0
  0
LINE
  5
60A
  8
0
 10
5768.053228098485
 20
-1823.479663832595
 30
0.0
 11
5766.553228098485
 21
-1823.479663832595
 31
0.0
  0
LINE
  5
60B
  8
0
 10
5766.553228098485
 20
-1823.479663832595
 30
0.0
 11
5766.553228098485
 21
-1854.048247303095
 31
0.0
  0
LINE
  5
60C
  8
0
 10
5766.553228098485
 20
-1854.048247303095
 30
0.0
 11
5311.253228098482
 21
-1854.048247303095
 31
0.0
  0
LINE
  5
60D
  8
0
 10
5311.253228098482
 20
-1854.048247303095
 30
0.0
 11
5311.253228098482
 21
-1831.513955567896
 31
0.0
  0
LINE
  5
60E
  8
0
 10
5311.253228098482
 20
-1823.479663832595
 30
0.0
 11
5309.753228098482
 21
-1823.479663832595
 31
0.0
  0
LINE
  5
60F
  8
0
 10
5309.753228098482
 20
-1823.479663832595
 30
0.0
 11
5309.753228098482
 21
-1825.320782356893
 31
0.0
  0
LINE
  5
610
  8
0
 10
5303.789925775121
 20
-1830.979663832595
 30
0.0
 11
5260.253228098482
 21
-1830.979663832595
 31
0.0
  0
LINE
  5
611
  8
0
 10
5260.253228098482
 20
-1246.411080361996
 30
0.0
 11
5260.253228098482
 21
-1248.445372097294
 31
0.0
  0
LINE
  5
612
  8
0
 10
5260.253228098482
 20
-1246.411080361996
 30
0.0
 11
5258.753228098482
 21
-1246.411080361996
 31
0.0
  0
LINE
  5
613
  8
0
 10
5258.753228098482
 20
-1246.411080361996
 30
0.0
 11
5257.101541267687
 21
-1253.911080361996
 31
0.0
  0
LINE
  5
614
  8
0
 10
4870.253228098482
 20
-1253.911080361996
 30
0.0
 11
5257.101541267687
 21
-1253.911080361996
 31
0.0
  0
LINE
  5
615
  8
0
 10
4870.253228098482
 20
-356.5906634770959
 30
0.0
 11
4870.253228098482
 21
-384.1249552123932
 31
0.0
  0
LINE
  5
616
  8
0
 10
8785.053228098477
 20
-356.5906634770959
 30
0.0
 11
4870.253228098482
 21
-356.5906634770959
 31
0.0
  0
LINE
  5
617
  8
0
 10
8870.053228098477
 20
-1256.479663832595
 30
0.0
 11
8870.053228098477
 21
-1254.445372097294
 31
0.0
  0
CIRCLE
  5
618
  8
0
 10
6196.090070400046
 20
-749.2410061903552
 30
0.0
 40
6.0
  0
CIRCLE
  5
619
  8
0
 10
6289.541812373683
 20
-749.2410061903552
 30
0.0
 40
6.0
  0
CIRCLE
  5
61A
  8
0
 10
6196.090070400046
 20
-1016.328679704363
 30
0.0
 40
6.0
  0
CIRCLE
  5
61B
  8
0
 10
6270.510070400044
 20
-1016.328679704363
 30
0.0
 40
6.0
  0
CIRCLE
  5
61C
  8
0
 10
7601.822776652743
 20
-749.2410061903552
 30
0.0
 40
6.0
  0
CIRCLE
  5
61D
  8
0
 10
7695.274518626379
 20
-749.2410061903552
 30
0.0
 40
6.0
  0
CIRCLE
  5
61E
  8
0
 10
7601.822776652743
 20
-1016.328679704363
 30
0.0
 40
6.0
  0
CIRCLE
  5
61F
  8
0
 10
7676.242776652741
 20
-1016.328679704363
 30
0.0
 40
6.0
  0
CIRCLE
  5
620
  8
0
 10
4953.988676898946
 20
-714.8305473597625
 30
0.0
 40
7.5
  0
CIRCLE
  5
621
  8
0
 39
31.83440005694778
 10
4966.393551848473
 20
-646.2205563352741
 30
0.0
 40
3.25
  0
CIRCLE
  5
622
  8
0
 39
31.83440005694778
 10
4943.878213244193
 20
-646.2205563352741
 30
0.0
 40
3.25
  0
CIRCLE
  5
623
  8
0
 39
31.83440005694778
 10
4919.484783220026
 20
-577.6288988925203
 30
0.0
 40
3.25
  0
CIRCLE
  5
624
  8
0
 39
31.83440005694778
 10
4896.969444615745
 20
-577.6288988925203
 30
0.0
 40
3.25
  0
CIRCLE
  5
625
  8
0
 39
31.83440005694778
 10
4982.082238050797
 20
-815.1637600525369
 30
0.0
 40
3.25
  0
CIRCLE
  5
626
  8
0
 39
31.83440005694778
 10
4959.566899446517
 20
-815.1637600525369
 30
0.0
 40
3.25
  0
CIRCLE
  5
627
  8
0
 39
31.83440005694778
 10
4982.082238050797
 20
-1180.460627908336
 30
0.0
 40
3.25
  0
CIRCLE
  5
628
  8
0
 39
31.83440005694778
 10
4959.566899446517
 20
-1180.460627908336
 30
0.0
 40
3.25
  0
CIRCLE
  5
629
  8
0
 39
31.83440005694778
 10
4982.082238050797
 20
-999.4830850459234
 30
0.0
 40
3.25
  0
CIRCLE
  5
62A
  8
0
 39
31.83440005694778
 10
4959.566899446517
 20
-999.4830850459234
 30
0.0
 40
3.25
  0
CIRCLE
  5
62B
  8
0
 39
31.83440005694778
 10
4919.484783220026
 20
-470.7212779240631
 30
0.0
 40
3.25
  0
CIRCLE
  5
62C
  8
0
 39
31.83440005694778
 10
4896.969444615745
 20
-470.7212779240631
 30
0.0
 40
3.25
  0
CIRCLE
  5
62D
  8
0
 39
31.83440005694778
 10
8744.29935074468
 20
-367.5906634770959
 30
0.0
 40
3.0
  0
CIRCLE
  5
62E
  8
0
 39
31.83440005694778
 10
7994.302746420523
 20
-367.5906634770959
 30
0.0
 40
3.0
  0
CIRCLE
  5
62F
  8
0
 39
31.83440005694778
 10
7599.302746420523
 20
-367.5906634770959
 30
0.0
 40
3.0
  0
CIRCLE
  5
630
  8
0
 39
31.83440005694778
 10
7278.782081845981
 20
-367.5906634770959
 30
0.0
 40
3.0
  0
CIRCLE
  5
631
  8
0
 39
31.83440005694778
 10
6709.297277170984
 20
-370.3337677091417
 30
0.0
 40
3.0
  0
CIRCLE
  5
632
  8
0
 39
31.83440005694778
 10
5217.51987810911
 20
-367.5906634770959
 30
0.0
 40
3.0
  0
CIRCLE
  5
633
  8
0
 39
31.83440005694778
 10
4932.802746420531
 20
-367.5906634770959
 30
0.0
 40
3.0
  0
CIRCLE
  5
634
  8
0
 39
31.83440005694778
 10
6349.714808332116
 20
-367.5906634770959
 30
0.0
 40
3.0
  0
CIRCLE
  5
635
  8
0
 39
31.83440005694778
 10
5966.102746420526
 20
-367.5906634770959
 30
0.0
 40
3.0
  0
CIRCLE
  5
636
  8
0
 39
31.83440005694778
 10
5591.102746420534
 20
-367.5906634770959
 30
0.0
 40
3.0
  0
LINE
  5
637
  8
0
 10
4870.253228098482
 20
-827.2101068467941
 30
0.0
 11
4880.253228098482
 21
-830.2101068467941
 31
0.0
  0
LINE
  5
638
  8
0
 10
4880.253228098482
 20
-830.2101068467941
 30
0.0
 11
4870.253228098482
 21
-833.2101068467941
 31
0.0
  0
LINE
  5
639
  8
0
 10
4870.253228098482
 20
-877.016476520695
 30
0.0
 11
4880.253228098482
 21
-880.016476520695
 31
0.0
  0
LINE
  5
63A
  8
0
 10
4880.253228098482
 20
-880.016476520695
 30
0.0
 11
4870.253228098482
 21
-883.016476520695
 31
0.0
  0
LINE
  5
63B
  8
0
 10
4870.253228098482
 20
-945.5802055074942
 30
0.0
 11
4880.253228098482
 21
-948.5802055074942
 31
0.0
  0
LINE
  5
63C
  8
0
 10
4880.253228098482
 20
-948.5802055074942
 30
0.0
 11
4870.253228098482
 21
-951.5802055074942
 31
0.0
  0
LINE
  5
63D
  8
0
 10
4870.253228098482
 20
-995.3865751814933
 30
0.0
 11
4880.253228098482
 21
-998.3865751814969
 31
0.0
  0
LINE
  5
63E
  8
0
 10
4880.253228098482
 20
-998.3865751814969
 30
0.0
 11
4870.253228098482
 21
-1001.386575181497
 31
0.0
  0
LINE
  5
63F
  8
0
 10
4870.253228098482
 20
-384.1249552123932
 30
0.0
 11
4880.253228098482
 21
-387.1249552123932
 31
0.0
  0
LINE
  5
640
  8
0
 10
4880.253228098482
 20
-387.1249552123932
 30
0.0
 11
4870.253228098482
 21
-390.1249552123932
 31
0.0
  0
LINE
  5
641
  8
0
 10
4870.253228098482
 20
-425.193538682995
 30
0.0
 11
4880.253228098482
 21
-428.193538682995
 31
0.0
  0
LINE
  5
642
  8
0
 10
4880.253228098482
 20
-428.193538682995
 30
0.0
 11
4870.253228098482
 21
-431.193538682995
 31
0.0
  0
LINE
  5
643
  8
0
 10
4870.253228098482
 20
-601.2067160422935
 30
0.0
 11
4880.253228098482
 21
-604.2067160422935
 31
0.0
  0
LINE
  5
644
  8
0
 10
4880.253228098482
 20
-604.2067160422935
 30
0.0
 11
4870.253228098482
 21
-607.2067160422935
 31
0.0
  0
LINE
  5
645
  8
0
 10
8771.501565286926
 20
-384.1766918628432
 30
0.0
 11
8761.674020788429
 21
-387.1249552123932
 31
0.0
  0
LINE
  5
646
  8
0
 10
8761.674020788429
 20
-387.1249552123932
 30
0.0
 11
8772.285598337687
 21
-390.3084284771699
 31
0.0
  0
LINE
  5
647
  8
0
 10
8870.053228098477
 20
-827.2101068467941
 30
0.0
 11
8860.053228098477
 21
-830.2101068467941
 31
0.0
  0
LINE
  5
648
  8
0
 10
8860.053228098477
 20
-830.2101068467941
 30
0.0
 11
8870.053228098477
 21
-833.2101068467941
 31
0.0
  0
LINE
  5
649
  8
0
 10
8870.053228098477
 20
-877.016476520695
 30
0.0
 11
8860.053228098477
 21
-880.016476520695
 31
0.0
  0
LINE
  5
64A
  8
0
 10
8860.053228098477
 20
-880.016476520695
 30
0.0
 11
8870.053228098477
 21
-883.016476520695
 31
0.0
  0
LINE
  5
64B
  8
0
 10
8870.053228098477
 20
-945.5802055074942
 30
0.0
 11
8860.053228098477
 21
-948.5802055074942
 31
0.0
  0
LINE
  5
64C
  8
0
 10
8860.053228098477
 20
-948.5802055074942
 30
0.0
 11
8870.053228098477
 21
-951.5802055074942
 31
0.0
  0
LINE
  5
64D
  8
0
 10
8870.053228098477
 20
-995.3865751814933
 30
0.0
 11
8860.053228098477
 21
-998.3865751814969
 31
0.0
  0
LINE
  5
64E
  8
0
 10
8860.053228098477
 20
-998.3865751814969
 30
0.0
 11
8870.053228098477
 21
-1001.386575181497
 31
0.0
  0
LINE
  5
64F
  8
0
 10
8870.053228098477
 20
-601.2067160422971
 30
0.0
 11
8860.053228098477
 21
-604.2067160422935
 31
0.0
  0
LINE
  5
650
  8
0
 10
8860.053228098477
 20
-604.2067160422935
 30
0.0
 11
8870.053228098477
 21
-607.2067160422935
 31
0.0
  0
LINE
  5
651
  8
0
 10
8938.619598712881
 20
-1278.229663832594
 30
0.0
 11
8938.619598712881
 21
-1251.979663832595
 31
0.0
  0
LINE
  5
652
  8
0
 10
8870.053228098477
 20
-1248.445372097294
 30
0.0
 11
8860.053228098477
 21
-1251.445372097294
 31
0.0
  0
LINE
  5
653
  8
0
 10
8860.053228098477
 20
-1251.445372097294
 30
0.0
 11
8870.053228098477
 21
-1254.445372097294
 31
0.0
  0
LINE
  5
656
  8
0
 10
5260.253228098482
 20
-1248.445372097294
 30
0.0
 11
5270.253228098482
 21
-1251.445372097294
 31
0.0
  0
LINE
  5
657
  8
0
 10
5270.253228098482
 20
-1251.445372097294
 30
0.0
 11
5260.253228098482
 21
-1254.445372097294
 31
0.0
  0
LINE
  5
658
  8
0
 10
5311.253228098482
 20
-1825.513955567896
 30
0.0
 11
5321.253228098482
 21
-1828.513955567896
 31
0.0
  0
LINE
  5
659
  8
0
 10
5321.253228098482
 20
-1828.513955567896
 30
0.0
 11
5311.253228098482
 21
-1831.513955567896
 31
0.0
  0
LINE
  5
65A
  8
0
 10
5309.753228098482
 20
-1825.320782356893
 30
0.0
 11
5303.789925775121
 21
-1830.979663832595
 31
0.0
  0
LINE
  5
65B
  8
0
 10
5311.253228098482
 20
-1825.513955567896
 30
0.0
 11
5311.253228098482
 21
-1823.479663832595
 31
0.0
  0
LINE
  5
65C
  8
0
 10
5260.253228098482
 20
-1254.445372097294
 30
0.0
 11
5260.253228098482
 21
-1830.979663832595
 31
0.0
  0
LINE
  5
65D
  8
0
 10
4870.253228098482
 20
-1001.386575181497
 30
0.0
 11
4870.253228098482
 21
-1253.911080361996
 31
0.0
  0
LINE
  5
65E
  8
0
 10
4870.253228098482
 20
-951.5802055074942
 30
0.0
 11
4870.253228098482
 21
-995.3865751814969
 31
0.0
  0
LINE
  5
65F
  8
0
 10
4870.253228098482
 20
-883.016476520695
 30
0.0
 11
4870.253228098482
 21
-945.5802055074942
 31
0.0
  0
LINE
  5
660
  8
0
 10
4870.253228098482
 20
-833.2101068467941
 30
0.0
 11
4870.253228098482
 21
-877.016476520695
 31
0.0
  0
LINE
  5
661
  8
0
 10
4870.253228098482
 20
-607.2067160422971
 30
0.0
 11
4870.253228098482
 21
-827.2101068467941
 31
0.0
  0
LINE
  5
662
  8
0
 10
4870.253228098482
 20
-431.193538682995
 30
0.0
 11
4870.253228098482
 21
-601.2067160422935
 31
0.0
  0
LINE
  5
663
  8
0
 10
4870.253228098482
 20
-390.1249552123932
 30
0.0
 11
4870.253228098482
 21
-425.193538682995
 31
0.0
  0
LINE
  5
664
  8
0
 10
8796.865096950496
 20
-425.3600410282975
 30
0.0
 11
8787.42010476817
 21
-428.193538682995
 31
0.0
  0
LINE
  5
665
  8
0
 10
8787.42010476817
 20
-428.193538682995
 30
0.0
 11
8800.429837823038
 21
-432.0964585994529
 31
0.0
  0
LINE
  5
666
  8
0
 10
8870.053228098477
 20
-827.2101068467941
 30
0.0
 11
8870.053228098477
 21
-607.2067160422971
 31
0.0
  0
LINE
  5
667
  8
0
 10
8870.053228098477
 20
-877.016476520695
 30
0.0
 11
8870.053228098477
 21
-833.2101068467941
 31
0.0
  0
LINE
  5
668
  8
0
 10
8870.053228098477
 20
-945.5802055074942
 30
0.0
 11
8870.053228098477
 21
-883.016476520695
 31
0.0
  0
LINE
  5
669
  8
0
 10
8870.053228098477
 20
-995.3865751814933
 30
0.0
 11
8870.053228098477
 21
-951.5802055074942
 31
0.0
  0
LINE
  5
66A
  8
0
 10
8870.053228098477
 20
-1248.445372097294
 30
0.0
 11
8870.053228098477
 21
-1001.386575181497
 31
0.0
  0
LINE
  5
66B
  8
0
 10
8785.053228098477
 20
-356.5906634770959
 30
0.0
 11
8771.501565286926
 21
-384.1766918628468
 31
0.0
  0
LINE
  5
66C
  8
0
 10
8772.285598337687
 20
-390.3084284771699
 30
0.0
 11
8796.865096950496
 21
-425.3600410282975
 31
0.0
  0
LINE
  5
66D
  8
0
 10
8800.429837823038
 20
-432.0964585994529
 30
0.0
 11
8870.053228098477
 21
-549.2067160422935
 31
0.0
  0
LINE
  5
66E
  8
0
 10
8870.053228098477
 20
-601.2067160422971
 30
0.0
 11
8870.053228098477
 21
-549.2067160422935
 31
0.0
  0
ARC
  5
66F
  8
0
 10
5080.253228098482
 20
-405.2606871450566
 30
0.0
 40
5.75
 50
0.0
 51
180.0
  0
ARC
  5
670
  8
0
 10
4890.253228098482
 20
-405.2606871450566
 30
0.0
 40
5.75
 50
0.0
 51
180.0
  0
ARC
  5
671
  8
0
 10
4890.253228098482
 20
-409.7676511500772
 30
0.0
 40
5.75
 50
180.0
 51
0.0
  0
ARC
  5
672
  8
0
 10
5080.253228098482
 20
-409.7676511500772
 30
0.0
 40
5.75
 50
180.0
 51
0.0
  0
LINE
  5
673
  8
0
 10
4884.503228098482
 20
-405.2606871450566
 30
0.0
 11
4884.503228098482
 21
-409.7676511500772
 31
0.0
  0
LINE
  5
674
  8
0
 10
4896.003228098482
 20
-405.2606871450566
 30
0.0
 11
4896.003228098482
 21
-409.7676511500772
 31
0.0
  0
LINE
  5
675
  8
0
 10
5074.503228098482
 20
-405.2606871450566
 30
0.0
 11
5074.503228098482
 21
-409.7676511500772
 31
0.0
  0
LINE
  5
676
  8
0
 10
5086.003228098482
 20
-405.2606871450566
 30
0.0
 11
5086.003228098482
 21
-409.7676511500772
 31
0.0
  0
LINE
  5
677
  8
0
 10
8982.586413405676
 20
-1854.048247303095
 30
0.0
 11
8982.586413405676
 21
-1823.479663832595
 31
0.0
  0
LINE
  5
678
  8
0
 10
8982.586413405676
 20
-1823.479663832595
 30
0.0
 11
8981.086413405676
 21
-1823.479663832595
 31
0.0
  0
LINE
  5
679
  8
0
 10
8981.086413405676
 20
-1823.479663832595
 30
0.0
 11
8981.086413405676
 21
-1830.979663832595
 31
0.0
  0
LINE
  5
67A
  8
0
 10
8981.086413405676
 20
-1830.979663832595
 30
0.0
 11
8829.086413405676
 21
-1830.979663832595
 31
0.0
  0
LINE
  5
67B
  8
0
 10
8829.086413405676
 20
-1830.979663832595
 30
0.0
 11
8829.086413405676
 21
-1823.479663832595
 31
0.0
  0
LINE
  5
67C
  8
0
 10
8829.086413405676
 20
-1823.479663832595
 30
0.0
 11
8827.586413405676
 21
-1823.479663832595
 31
0.0
  0
LINE
  5
67D
  8
0
 10
8827.586413405676
 20
-1823.479663832595
 30
0.0
 11
8827.586413405676
 21
-1854.048247303095
 31
0.0
  0
LINE
  5
67E
  8
0
 10
8498.053228098477
 20
-1854.048247303095
 30
0.0
 11
8498.053228098477
 21
-1823.479663832595
 31
0.0
  0
LINE
  5
67F
  8
0
 10
8498.053228098477
 20
-1823.479663832595
 30
0.0
 11
8496.553228098477
 21
-1823.479663832595
 31
0.0
  0
LINE
  5
680
  8
0
 10
8496.553228098477
 20
-1823.479663832595
 30
0.0
 11
8496.553228098477
 21
-1830.979663832595
 31
0.0
  0
LINE
  5
681
  8
0
 10
8496.553228098477
 20
-1830.979663832595
 30
0.0
 11
8448.553228098477
 21
-1830.979663832595
 31
0.0
  0
LINE
  5
682
  8
0
 10
8448.553228098477
 20
-1830.979663832595
 30
0.0
 11
8448.553228098477
 21
-1823.479663832595
 31
0.0
  0
LINE
  5
683
  8
0
 10
8448.553228098477
 20
-1823.479663832595
 30
0.0
 11
8447.053228098477
 21
-1823.479663832595
 31
0.0
  0
LINE
  5
684
  8
0
 10
8447.053228098477
 20
-1823.479663832595
 30
0.0
 11
8447.053228098477
 21
-1854.048247303095
 31
0.0
  0
LINE
  5
685
  8
0
 10
8447.053228098477
 20
-1854.048247303095
 30
0.0
 11
7957.753228098475
 21
-1854.048247303095
 31
0.0
  0
LINE
  5
686
  8
0
 10
8827.586413405676
 20
-1854.048247303095
 30
0.0
 11
8498.053228098477
 21
-1854.048247303095
 31
0.0
  0
CIRCLE
  5
687
  8
0
 39
31.83440005694778
 10
8389.302746420522
 20
-367.5906634770959
 30
0.0
 40
3.0
  0
LINE
  5
688
  8
0
 10
9007.85322809848
 20
-1320.445372097294
 30
0.0
 11
9089.853228098473
 21
-1320.445372097294
 31
0.0
  0
LINE
  5
68A
  8
0
 10
9061.03099880376
 20
-1854.048247303095
 30
0.0
 11
8982.586413405676
 21
-1854.048247303095
 31
0.0
  0
LINE
  5
68B
  8
0
 10
9089.853228098473
 20
-1320.445372097294
 30
0.0
 11
9089.853228098465
 21
-1829.698928704037
 31
0.0
  0
ARC
  5
68D
  8
0
 10
6782.386707341801
 20
-409.2447277318984
 30
0.0
 40
5.75
 50
180.0
 51
359.9999999999275
  0
ARC
  5
68E
  8
0
 10
6782.386707341809
 20
-406.2447277318984
 30
0.0
 40
5.75
 50
359.9999999999275
 51
180.0
  0
LINE
  5
68F
  8
0
 10
6776.636707341801
 20
-409.2447277318984
 30
0.0
 11
6776.636707341809
 21
-406.2447277318984
 31
0.0
  0
LINE
  5
690
  8
0
 10
6788.136707341801
 20
-409.2447277319056
 30
0.0
 11
6788.136707341809
 21
-406.2447277319056
 31
0.0
  0
ARC
  5
691
  8
0
 10
6872.426027566799
 20
-409.2487528944998
 30
0.0
 40
5.75
 50
180.0
 51
359.9999999999275
  0
ARC
  5
692
  8
0
 10
6872.426027566807
 20
-406.2487528944998
 30
0.0
 40
5.75
 50
359.9999999999275
 51
180.0
  0
LINE
  5
693
  8
0
 10
6866.676027566799
 20
-409.2487528944998
 30
0.0
 11
6866.676027566807
 21
-406.2487528944998
 31
0.0
  0
LINE
  5
694
  8
0
 10
6878.176027566799
 20
-409.2487528945071
 30
0.0
 11
6878.176027566807
 21
-406.2487528945071
 31
0.0
  0
CIRCLE
  5
695
  8
0
 39
31.83440005694778
 10
6942.930756339382
 20
-370.3337677091417
 30
0.0
 40
3.0
  0
LINE
  5
85A
  8
0
 10
8871.553228098475
 20
-1278.229663832594
 30
0.0
 11
8938.619598712878
 21
-1278.229663832594
 31
0.0
  0
LINE
  5
85B
  8
0
 39
31.83440005694778
 10
9053.030998803759
 20
-1828.513955567894
 30
0.0
 11
9061.030998803762
 21
-1831.513955567893
 31
0.0
  0
LINE
  5
85C
  8
0
 39
31.83440005694778
 10
9061.030998803762
 20
-1825.513955567893
 30
0.0
 11
9053.030998803759
 21
-1828.513955567894
 31
0.0
  0
LINE
  5
85D
  8
0
 10
9061.03099880376
 20
-1854.048247303095
 30
0.0
 11
9061.030998803762
 21
-1831.513955567893
 31
0.0
  0
LINE
  5
85E
  8
0
 10
9089.853228098478
 20
-1829.698928704037
 30
0.0
 11
9064.030998803759
 21
-1829.698928704037
 31
0.0
  0
LINE
  5
85F
  8
0
 10
9061.030998803762
 20
-1825.513955567893
 30
0.0
 11
9064.030998803759
 21
-1825.513955567893
 31
0.0
  0
LINE
  5
860
  8
0
 10
9064.030998803759
 20
-1825.513955567893
 30
0.0
 11
9064.030998803759
 21
-1829.698928704037
 31
0.0
  0
ENDSEC
  0
EOF
