  0
SECTION
  2
HEADER
  9
$ACADVER
  1
AC1009
  9
$INSBASE
 10
0.0
 20
0.0
 30
0.0
  9
$EXTMIN
 10
34.008040080586603
 20
22.747709371084259
 30
0.0
  9
$EXTMAX
 10
86.008040080586568
 20
1181.747709371258
 30
31.834400056947779
  9
$LIMMIN
 10
0.0
 20
0.0
  9
$LIMMAX
 10
12.0
 20
9.0
  9
$ORTHOMODE
 70
     1
  9
$REGENMODE
 70
     1
  9
$FILLMODE
 70
     1
  9
$QTEXTMODE
 70
     0
  9
$MIRRTEXT
 70
     0
  9
$DRAGMODE
 70
     2
  9
$LTSCALE
 40
1.0
  9
$OSMODE
 70
  3071
  9
$ATTMODE
 70
     1
  9
$TEXTSIZE
 40
0.2
  9
$TRACEWID
 40
0.05
  9
$TEXTSTYLE
  7
STANDARD
  9
$CLAYER
  8
0
  9
$CELTYPE
  6
BYLAYER
  9
$CECOLOR
 62
   256
  9
$DIMSCALE
 40
1.0
  9
$DIMASZ
 40
0.18
  9
$DIMEXO
 40
0.0625
  9
$DIMDLI
 40
0.38
  9
$DIMRND
 40
0.0
  9
$DIMDLE
 40
0.0
  9
$DIMEXE
 40
0.18
  9
$DIMTP
 40
0.0
  9
$DIMTM
 40
0.0
  9
$DIMTXT
 40
0.18
  9
$DIMCEN
 40
0.09
  9
$DIMTSZ
 40
0.0
  9
$DIMTOL
 70
     0
  9
$DIMLIM
 70
     0
  9
$DIMTIH
 70
     1
  9
$DIMTOH
 70
     1
  9
$DIMSE1
 70
     0
  9
$DIMSE2
 70
     0
  9
$DIMTAD
 70
     0
  9
$DIMZIN
 70
     0
  9
$DIMBLK
  1

  9
$DIMASO
 70
     1
  9
$DIMSHO
 70
     1
  9
$DIMPOST
  1

  9
$DIMAPOST
  1

  9
$DIMALT
 70
     0
  9
$DIMALTD
 70
     2
  9
$DIMALTF
 40
25.399999999999999
  9
$DIMLFAC
 40
1.0
  9
$DIMTOFL
 70
     0
  9
$DIMTVP
 40
0.0
  9
$DIMTIX
 70
     0
  9
$DIMSOXD
 70
     0
  9
$DIMSAH
 70
     0
  9
$DIMBLK1
  1

  9
$DIMBLK2
  1

  9
$DIMSTYLE
  2
STANDARD
  9
$DIMCLRD
 70
     0
  9
$DIMCLRE
 70
     0
  9
$DIMCLRT
 70
     0
  9
$DIMTFAC
 40
1.0
  9
$DIMGAP
 40
0.09
  9
$LUNITS
 70
     2
  9
$LUPREC
 70
     4
  9
$SKETCHINC
 40
0.1
  9
$FILLETRAD
 40
0.0
  9
$AUNITS
 70
     0
  9
$AUPREC
 70
     0
  9
$MENU
  1
.
  9
$ELEVATION
 40
0.0
  9
$PELEVATION
 40
0.0
  9
$THICKNESS
 40
0.0
  9
$LIMCHECK
 70
     0
  9
$BLIPMODE
 70
     0
  9
$CHAMFERA
 40
0.0
  9
$CHAMFERB
 40
0.0
  9
$SKPOLY
 70
     0
  9
$TDCREATE
 40
2455531.3742087958
  9
$TDUPDATE
 40
2455650.776953842
  9
$TDINDWG
 40
0.0008394907
  9
$TDUSRTIMER
 40
0.0008394907
  9
$USRTIMER
 70
     1
  9
$ANGBASE
 50
0.0
  9
$ANGDIR
 70
     0
  9
$PDMODE
 70
     0
  9
$PDSIZE
 40
0.0
  9
$PLINEWID
 40
0.0
  9
$COORDS
 70
     2
  9
$SPLFRAME
 70
     0
  9
$SPLINETYPE
 70
     6
  9
$SPLINESEGS
 70
     8
  9
$ATTDIA
 70
     0
  9
$ATTREQ
 70
     1
  9
$HANDLING
 70
     1
  9
$HANDSEED
  5
24F
  9
$SURFTAB1
 70
     6
  9
$SURFTAB2
 70
     6
  9
$SURFTYPE
 70
     6
  9
$SURFU
 70
     6
  9
$SURFV
 70
     6
  9
$UCSNAME
  2

  9
$UCSORG
 10
0.0
 20
0.0
 30
0.0
  9
$UCSXDIR
 10
1.0
 20
0.0
 30
0.0
  9
$UCSYDIR
 10
0.0
 20
1.0
 30
0.0
  9
$PUCSNAME
  2

  9
$PUCSORG
 10
0.0
 20
0.0
 30
0.0
  9
$PUCSXDIR
 10
1.0
 20
0.0
 30
0.0
  9
$PUCSYDIR
 10
0.0
 20
1.0
 30
0.0
  9
$USERI1
 70
     0
  9
$USERI2
 70
     0
  9
$USERI3
 70
     0
  9
$USERI4
 70
     0
  9
$USERI5
 70
     0
  9
$USERR1
 40
0.0
  9
$USERR2
 40
0.0
  9
$USERR3
 40
0.0
  9
$USERR4
 40
0.0
  9
$USERR5
 40
0.0
  9
$WORLDVIEW
 70
     1
  9
$SHADEDGE
 70
     3
  9
$SHADEDIF
 70
    70
  9
$TILEMODE
 70
     1
  9
$MAXACTVP
 70
    64
  9
$PLIMCHECK
 70
     0
  9
$PEXTMIN
 10
0.0
 20
0.0
 30
0.0
  9
$PEXTMAX
 10
0.0
 20
0.0
 30
0.0
  9
$PLIMMIN
 10
0.0
 20
0.0
  9
$PLIMMAX
 10
12.0
 20
9.0
  9
$UNITMODE
 70
     0
  9
$VISRETAIN
 70
     1
  9
$PLINEGEN
 70
     0
  9
$PSLTSCALE
 70
     1
  0
ENDSEC
  0
SECTION
  2
TABLES
  0
TABLE
  2
VPORT
 70
     1
  0
VPORT
  2
*ACTIVE
 70
     0
 10
0.0
 20
0.0
 11
1.0
 21
1.0
 12
43.655264572736989
 22
54.668298962748558
 13
0.0
 23
0.0
 14
0.5
 24
0.5
 15
0.5
 25
0.5
 16
0.0
 26
0.0
 36
1.0
 17
0.0
 27
0.0
 37
0.0
 40
1023.90514084018
 41
1.885304659498207
 42
50.0
 43
0.0
 44
0.0
 50
0.0
 51
0.0
 71
     0
 72
  1000
 73
     1
 74
     3
 75
     0
 76
     0
 77
     0
 78
     0
  0
ENDTAB
  0
TABLE
  2
LTYPE
 70
     1
  0
LTYPE
  2
CONTINUOUS
 70
     0
  3
Solid line
 72
    65
 73
     0
 40
0.0
  0
ENDTAB
  0
TABLE
  2
LAYER
 70
     2
  0
LAYER
  2
0
 70
     0
 62
     7
  6
CONTINUOUS
  0
LAYER
  2
CONTORNO
 70
     0
 62
     7
  6
CONTINUOUS
  0
ENDTAB
  0
TABLE
  2
STYLE
 70
     3
  0
STYLE
  2
STANDARD
 70
     0
 40
0.0
 41
1.0
 50
0.0
 71
     0
 42
0.2
  3
txt.shx
  4

  0
STYLE
  2
ANNOTATIVE
 70
     0
 40
0.0
 41
1.0
 50
0.0
 71
     0
 42
0.2
  3
txt
  4

  0
STYLE
  2
ANNOTATIVA
 70
     0
 40
0.0
 41
1.0
 50
0.0
 71
     0
 42
0.2
  3
txt.shx
  4

  0
ENDTAB
  0
TABLE
  2
VIEW
 70
     0
  0
ENDTAB
  0
TABLE
  2
UCS
 70
     0
  0
ENDTAB
  0
TABLE
  2
APPID
 70
     6
  0
APPID
  2
ACAD
 70
     0
  0
APPID
  2
ACADANNOTATIVE
 70
     0
  0
APPID
  2
ACAD_MLEADERVER
 70
     0
  0
APPID
  2
ACADANNOPO
 70
     0
  0
APPID
  2
ACAD_DSTYLE_DIMJAG
 70
     0
  0
APPID
  2
ACAD_DSTYLE_DIMTALN
 70
     0
  0
ENDTAB
  0
TABLE
  2
DIMSTYLE
 70
     4
  0
DIMSTYLE
  2
STANDARD
 70
     0
  3

  4

  5

  6

  7

 40
1.0
 41
0.18
 42
0.0625
 43
0.38
 44
0.18
 45
0.0
 46
0.0
 47
0.0
 48
0.0
140
0.18
141
0.09
142
0.0
143
25.399999999999999
144
1.0
145
0.0
146
1.0
147
0.09
 71
     0
 72
     0
 73
     1
 74
     1
 75
     0
 76
     0
 77
     0
 78
     0
170
     0
171
     2
172
     0
173
     0
174
     0
175
     0
176
     0
177
     0
178
     0
  0
DIMSTYLE
  2
ANNOTATIVE
 70
     0
  3

  4

  5

  6

  7

 40
1.0
 41
0.18
 42
0.0625
 43
0.38
 44
0.18
 45
0.0
 46
0.0
 47
0.0
 48
0.0
140
0.18
141
0.09
142
0.0
143
25.399999999999999
144
1.0
145
0.0
146
1.0
147
0.09
 71
     0
 72
     0
 73
     1
 74
     1
 75
     0
 76
     0
 77
     0
 78
     0
170
     0
171
     2
172
     0
173
     0
174
     0
175
     0
176
     0
177
     0
178
     0
  0
DIMSTYLE
  2
ANNOTATIVA
 70
     0
  3

  4

  5

  6

  7

 40
0.0
 41
0.18
 42
0.0625
 43
0.38
 44
0.18
 45
0.0
 46
0.0
 47
0.0
 48
0.0
140
0.18
141
0.09
142
0.0
143
25.399999999999999
144
1.0
145
0.0
146
1.0
147
0.09
 71
     0
 72
     0
 73
     1
 74
     1
 75
     0
 76
     0
 77
     0
 78
     0
170
     0
171
     2
172
     0
173
     0
174
     0
175
     0
176
     0
177
     0
178
     0
  0
DIMSTYLE
  2
ISO-25
 70
     0
  3

  4

  5

  6

  7

 40
1.0
 41
2.5
 42
0.625
 43
3.75
 44
1.25
 45
0.0
 46
0.0
 47
0.0
 48
0.0
140
2.5
141
2.5
142
0.0
143
0.0393700787
144
1.0
145
0.0
146
1.0
147
0.625
 71
     0
 72
     0
 73
     0
 74
     0
 75
     0
 76
     0
 77
     1
 78
     8
170
     0
171
     3
172
     1
173
     0
174
     0
175
     0
176
     0
177
     0
178
     0
  0
ENDTAB
  0
ENDSEC
  0
SECTION
  2
BLOCKS
  0
BLOCK
  8
0
  2
$MODEL_SPACE
 70
     0
 10
0.0
 20
0.0
 30
0.0
  3
$MODEL_SPACE
  1

  0
ENDBLK
  5
223
  8
0
  0
BLOCK
 67
     1
  8
0
  2
$PAPER_SPACE
 70
     0
 10
0.0
 20
0.0
 30
0.0
  3
$PAPER_SPACE
  1

  0
ENDBLK
  5
21F
 67
     1
  8
0
  0
ENDSEC
  0
SECTION
  2
ENTITIES
  0
LINE
  5
175
  8
0
 39
31.834400056947779
 10
65.341807579490904
 20
1181.747709371258
 30
0.0
 11
68.688040080586859
 21
1172.0830115430799
 31
0.0
  0
LINE
  5
176
  8
0
 39
31.834400056947779
 10
68.688040080586859
 20
1172.0830115430799
 30
0.0
 11
72.03427258168287
 21
1181.747709371258
 31
0.0
  0
LINE
  5
177
  8
0
 39
31.834400056947779
 10
84.008040080586596
 20
1176.7477093712
 30
0.0
 11
86.008040080586568
 21
1171.269221205489
 31
0.0
  0
LINE
  5
178
  8
0
 10
34.008040080586603
 20
1172.0830115430799
 30
0.0
 11
34.008040080586603
 21
677.74770937117148
 31
0.0
  0
LINE
  5
179
  8
0
 10
84.008040080586596
 20
1179.747709371258
 30
0.0
 11
84.008040080586596
 21
1176.7477093712
 31
0.0
  0
LINE
  5
17A
  8
0
 10
34.008040080586603
 20
1172.0830115430799
 30
0.0
 11
36.508040080586603
 21
1172.0830115430799
 31
0.0
  0
LINE
  5
17B
  8
0
 10
36.508040080586603
 20
1179.747709371258
 30
0.0
 11
36.508040080586603
 21
1172.0830115430799
 31
0.0
  0
LINE
  5
17C
  8
0
 39
31.834400056947779
 10
38.508040080586589
 20
1181.747709371258
 30
0.0
 11
48.021807579490272
 21
1181.747709371258
 31
0.0
  0
LINE
  5
17D
  8
0
 39
31.834400056947779
 10
51.368040080586262
 20
1172.0830115430799
 30
0.0
 11
54.714272581682252
 21
1181.747709371258
 31
0.0
  0
LINE
  5
17E
  8
0
 39
31.834400056947779
 10
48.021807579490272
 20
1181.747709371258
 30
0.0
 11
51.368040080586262
 21
1172.0830115430799
 31
0.0
  0
LINE
  5
17F
  8
0
 39
31.834400056947779
 10
54.714272581682252
 20
1181.747709371258
 30
0.0
 11
65.341807579490904
 21
1181.747709371258
 31
0.0
  0
LINE
  5
180
  8
0
 39
31.834400056947779
 10
72.03427258168287
 20
1181.747709371258
 30
0.0
 11
82.008040080586596
 21
1181.747709371258
 31
0.0
  0
ARC
  5
181
  8
0
 10
82.008040080586596
 20
1179.747709371258
 30
0.0
 40
2.0
 50
0.0
 51
90.0
  0
ARC
  5
182
  8
0
 10
38.508040080586589
 20
1179.747709371258
 30
0.0
 40
2.0
 50
90.0
 51
180.0
  0
LINE
  5
184
  8
0
 39
31.834400056947779
 10
65.341807579490904
 20
22.747709371084259
 30
0.0
 11
68.688040080586859
 21
32.41240719926347
 31
0.0
  0
LINE
  5
185
  8
0
 39
31.834400056947779
 10
68.688040080586859
 20
32.41240719926347
 30
0.0
 11
72.03427258168287
 21
22.747709371084259
 31
0.0
  0
LINE
  5
186
  8
0
 39
31.834400056947779
 10
84.008040080586596
 20
27.747709371142921
 30
0.0
 11
86.008040080586568
 21
33.226197536853512
 31
0.0
  0
LINE
  5
187
  8
0
 10
34.008040080586603
 20
32.41240719926347
 30
0.0
 11
34.008040080586603
 21
677.74770937117148
 31
0.0
  0
LINE
  5
188
  8
0
 10
84.008040080586596
 20
24.74770937108471
 30
0.0
 11
84.008040080586596
 21
27.747709371142921
 31
0.0
  0
LINE
  5
189
  8
0
 10
34.008040080586603
 20
32.41240719926347
 30
0.0
 11
36.508040080586603
 21
32.41240719926347
 31
0.0
  0
LINE
  5
18A
  8
0
 10
36.508040080586603
 20
24.74770937108471
 30
0.0
 11
36.508040080586603
 21
32.41240719926347
 31
0.0
  0
LINE
  5
18B
  8
0
 39
31.834400056947779
 10
38.508040080586589
 20
22.747709371084259
 30
0.0
 11
48.021807579490272
 21
22.747709371084259
 31
0.0
  0
LINE
  5
18C
  8
0
 39
31.834400056947779
 10
51.368040080586262
 20
32.41240719926347
 30
0.0
 11
54.714272581682252
 21
22.747709371084259
 31
0.0
  0
LINE
  5
18D
  8
0
 39
31.834400056947779
 10
48.021807579490272
 20
22.747709371084259
 30
0.0
 11
51.368040080586262
 21
32.41240719926347
 31
0.0
  0
LINE
  5
18E
  8
0
 39
31.834400056947779
 10
54.714272581682252
 20
22.747709371084259
 30
0.0
 11
65.341807579490904
 21
22.747709371084259
 31
0.0
  0
LINE
  5
18F
  8
0
 39
31.834400056947779
 10
72.03427258168287
 20
22.747709371084259
 30
0.0
 11
82.008040080586596
 21
22.747709371084259
 31
0.0
  0
ARC
  5
190
  8
0
 10
82.008040080586596
 20
24.74770937108471
 30
0.0
 40
2.0
 50
270.0
 51
0.0
  0
ARC
  5
191
  8
0
 10
38.508040080586589
 20
24.74770937108471
 30
0.0
 40
2.0
 50
180.0
 51
270.0
  0
LINE
  5
233
  8
0
 10
86.008040080586568
 20
1171.269221205489
 30
0.0
 11
86.008040080586568
 21
33.226197536853512
 31
0.0
  0
ENDSEC
  0
EOF
