  0
SECTION
  2
HEADER
  9
$ACADVER
  1
AC1014
  9
$ACADMAINTVER
 70
     9
  9
$DWGCODEPAGE
  3
ANSI_1252
  9
$INSBASE
 10
0.0
 20
0.0
 30
0.0
  9
$EXTMIN
 10
56.66034602744793
 20
35.60767784524955
 30
0.0
  9
$EXTMAX
 10
1911.210974445313
 20
598.8144033616338
 30
0.0
  9
$LIMMIN
 10
0.0
 20
0.0
  9
$LIMMAX
 10
12.0
 20
9.0
  9
$ORTHOMODE
 70
     1
  9
$REGENMODE
 70
     1
  9
$FILLMODE
 70
     1
  9
$QTEXTMODE
 70
     0
  9
$MIRRTEXT
 70
     0
  9
$DRAGMODE
 70
     2
  9
$LTSCALE
 40
1.0
  9
$OSMODE
 70
  1023
  9
$ATTMODE
 70
     1
  9
$TEXTSIZE
 40
0.2
  9
$TRACEWID
 40
0.05
  9
$TEXTSTYLE
  7
STANDARD
  9
$CLAYER
  8
0
  9
$CELTYPE
  6
BYLAYER
  9
$CECOLOR
 62
   256
  9
$CELTSCALE
 40
1.0
  9
$DELOBJ
 70
     1
  9
$DISPSILH
 70
     0
  9
$DIMSCALE
 40
1.0
  9
$DIMASZ
 40
0.18
  9
$DIMEXO
 40
0.0625
  9
$DIMDLI
 40
0.38
  9
$DIMRND
 40
0.0
  9
$DIMDLE
 40
0.0
  9
$DIMEXE
 40
0.18
  9
$DIMTP
 40
0.0
  9
$DIMTM
 40
0.0
  9
$DIMTXT
 40
0.18
  9
$DIMCEN
 40
0.09
  9
$DIMTSZ
 40
0.0
  9
$DIMTOL
 70
     0
  9
$DIMLIM
 70
     0
  9
$DIMTIH
 70
     1
  9
$DIMTOH
 70
     1
  9
$DIMSE1
 70
     0
  9
$DIMSE2
 70
     0
  9
$DIMTAD
 70
     0
  9
$DIMZIN
 70
     0
  9
$DIMBLK
  1

  9
$DIMASO
 70
     1
  9
$DIMSHO
 70
     1
  9
$DIMPOST
  1

  9
$DIMAPOST
  1

  9
$DIMALT
 70
     0
  9
$DIMALTD
 70
     2
  9
$DIMALTF
 40
25.4
  9
$DIMLFAC
 40
1.0
  9
$DIMTOFL
 70
     0
  9
$DIMTVP
 40
0.0
  9
$DIMTIX
 70
     0
  9
$DIMSOXD
 70
     0
  9
$DIMSAH
 70
     0
  9
$DIMBLK1
  1

  9
$DIMBLK2
  1

  9
$DIMSTYLE
  2
STANDARD
  9
$DIMCLRD
 70
     0
  9
$DIMCLRE
 70
     0
  9
$DIMCLRT
 70
     0
  9
$DIMTFAC
 40
1.0
  9
$DIMGAP
 40
0.09
  9
$DIMJUST
 70
     0
  9
$DIMSD1
 70
     0
  9
$DIMSD2
 70
     0
  9
$DIMTOLJ
 70
     1
  9
$DIMTZIN
 70
     0
  9
$DIMALTZ
 70
     0
  9
$DIMALTTZ
 70
     0
  9
$DIMFIT
 70
     5
  9
$DIMUPT
 70
     0
  9
$DIMUNIT
 70
     2
  9
$DIMDEC
 70
     4
  9
$DIMTDEC
 70
     4
  9
$DIMALTU
 70
     2
  9
$DIMALTTD
 70
     2
  9
$DIMTXSTY
  7
STANDARD
  9
$DIMAUNIT
 70
     0
  9
$LUNITS
 70
     2
  9
$LUPREC
 70
     4
  9
$SKETCHINC
 40
0.1
  9
$FILLETRAD
 40
0.0
  9
$AUNITS
 70
     0
  9
$AUPREC
 70
     0
  9
$MENU
  1
.
  9
$ELEVATION
 40
0.0
  9
$PELEVATION
 40
0.0
  9
$THICKNESS
 40
0.0
  9
$LIMCHECK
 70
     0
  9
$CHAMFERA
 40
0.0
  9
$CHAMFERB
 40
0.0
  9
$CHAMFERC
 40
0.0
  9
$CHAMFERD
 40
0.0
  9
$SKPOLY
 70
     0
  9
$TDCREATE
 40
2456001.577677755
  9
$TDUPDATE
 40
2459114.718974688
  9
$TDINDWG
 40
0.0040549537
  9
$TDUSRTIMER
 40
0.0001086921
  9
$USRTIMER
 70
     1
  9
$ANGBASE
 50
0.0
  9
$ANGDIR
 70
     0
  9
$PDMODE
 70
     0
  9
$PDSIZE
 40
0.0
  9
$PLINEWID
 40
0.0
  9
$COORDS
 70
     1
  9
$SPLFRAME
 70
     0
  9
$SPLINETYPE
 70
     6
  9
$SPLINESEGS
 70
     8
  9
$ATTDIA
 70
     0
  9
$ATTREQ
 70
     1
  9
$HANDLING
 70
     1
  9
$HANDSEED
  5
599
  9
$SURFTAB1
 70
     6
  9
$SURFTAB2
 70
     6
  9
$SURFTYPE
 70
     6
  9
$SURFU
 70
     6
  9
$SURFV
 70
     6
  9
$UCSNAME
  2

  9
$UCSORG
 10
0.0
 20
0.0
 30
0.0
  9
$UCSXDIR
 10
1.0
 20
0.0
 30
0.0
  9
$UCSYDIR
 10
0.0
 20
1.0
 30
0.0
  9
$PUCSNAME
  2

  9
$PUCSORG
 10
0.0
 20
0.0
 30
0.0
  9
$PUCSXDIR
 10
1.0
 20
0.0
 30
0.0
  9
$PUCSYDIR
 10
0.0
 20
1.0
 30
0.0
  9
$USERI1
 70
     0
  9
$USERI2
 70
     0
  9
$USERI3
 70
     0
  9
$USERI4
 70
     0
  9
$USERI5
 70
     0
  9
$USERR1
 40
0.0
  9
$USERR2
 40
0.0
  9
$USERR3
 40
0.0
  9
$USERR4
 40
0.0
  9
$USERR5
 40
0.0
  9
$WORLDVIEW
 70
     1
  9
$SHADEDGE
 70
     3
  9
$SHADEDIF
 70
    70
  9
$TILEMODE
 70
     1
  9
$MAXACTVP
 70
    64
  9
$PINSBASE
 10
0.0
 20
0.0
 30
0.0
  9
$PLIMCHECK
 70
     0
  9
$PEXTMIN
 10
0.0
 20
0.0
 30
0.0
  9
$PEXTMAX
 10
0.0
 20
0.0
 30
0.0
  9
$PLIMMIN
 10
0.0
 20
0.0
  9
$PLIMMAX
 10
0.0
 20
0.0
  9
$UNITMODE
 70
     0
  9
$VISRETAIN
 70
     1
  9
$PLINEGEN
 70
     0
  9
$PSLTSCALE
 70
     1
  9
$TREEDEPTH
 70
  3020
  9
$PICKSTYLE
 70
     0
  9
$CMLSTYLE
  2
STANDARD
  9
$CMLJUST
 70
     0
  9
$CMLSCALE
 40
1.0
  9
$PROXYGRAPHICS
 70
     1
  9
$MEASUREMENT
 70
     0
  0
ENDSEC
  0
SECTION
  2
CLASSES
  0
CLASS
  1
ACDBDICTIONARYWDFLT
  2
AcDbDictionaryWithDefault
  3
ObjectDBX Classes
 90
        0
280
     0
281
     0
  0
CLASS
  1
MATERIAL
  2
AcDbMaterial
  3
ObjectDBX Classes
 90
     1153
280
     0
281
     0
  0
CLASS
  1
SCALE
  2
AcDbScale
  3
ObjectDBX Classes
 90
     1153
280
     0
281
     0
  0
CLASS
  1
VISUALSTYLE
  2
AcDbVisualStyle
  3
ObjectDBX Classes
 90
     4095
280
     0
281
     0
  0
CLASS
  1
TABLESTYLE
  2
AcDbTableStyle
  3
ObjectDBX Classes
 90
     4095
280
     0
281
     0
  0
CLASS
  1
MLEADERSTYLE
  2
AcDbMLeaderStyle
  3
ACDB_MLEADERSTYLE_CLASS
 90
     4095
280
     0
281
     0
  0
CLASS
  1
XRECORD
  2
AcDbXrecord
  3
ObjectDBX Classes
 90
        0
280
     0
281
     0
  0
CLASS
  1
LWPOLYLINE
  2
AcDbPolyline
  3
ObjectDBX Classes
 90
        0
280
     0
281
     1
  0
CLASS
  1
HATCH
  2
AcDbHatch
  3
ObjectDBX Classes
 90
        0
280
     0
281
     1
  0
ENDSEC
  0
SECTION
  2
TABLES
  0
TABLE
  2
VPORT
  5
529
330
0
100
AcDbSymbolTable
 70
     1
  0
VPORT
  5
540
330
529
100
AcDbSymbolTableRecord
100
AcDbViewportTableRecord
  2
*ACTIVE
 70
     0
 10
0.0
 20
0.0
 11
1.0
 21
1.0
 12
1058.870800676495
 22
504.3811956511998
 13
0.0
 23
0.0
 14
0.5
 24
0.5
 15
0.5
 25
0.5
 16
0.0
 26
0.0
 36
1.0
 17
0.0
 27
0.0
 37
0.0
 40
1259.630409791792
 41
2.091520861372813
 42
50.0
 43
0.0
 44
0.0
 50
0.0
 51
0.0
 71
    16
 72
  1000
 73
     1
 74
     3
 75
     0
 76
     0
 77
     0
 78
     0
  0
ENDTAB
  0
TABLE
  2
LTYPE
  5
526
330
0
100
AcDbSymbolTable
 70
     2
  0
LTYPE
  5
534
330
526
100
AcDbSymbolTableRecord
100
AcDbLinetypeTableRecord
  2
BYBLOCK
 70
     0
  3

 72
    65
 73
     0
 40
0.0
  0
LTYPE
  5
535
330
526
100
AcDbSymbolTableRecord
100
AcDbLinetypeTableRecord
  2
BYLAYER
 70
     0
  3

 72
    65
 73
     0
 40
0.0
  0
LTYPE
  5
536
330
526
100
AcDbSymbolTableRecord
100
AcDbLinetypeTableRecord
  2
CONTINUOUS
 70
     0
  3
Solid line
 72
    65
 73
     0
 40
0.0
  0
LTYPE
  5
542
330
526
100
AcDbSymbolTableRecord
100
AcDbLinetypeTableRecord
  2
CENTERX2
 70
     0
  3
Center (2x) ________  __  ________  __  _____
 72
    65
 73
     4
 40
20.32
 49
12.7
 74
     0
 49
-2.54
 74
     0
 49
2.54
 74
     0
 49
-2.54
 74
     0
  0
ENDTAB
  0
TABLE
  2
LAYER
  5
524
330
0
100
AcDbSymbolTable
 70
     1
  0
LAYER
  5
531
330
524
100
AcDbSymbolTableRecord
100
AcDbLayerTableRecord
  2
0
 70
     0
 62
     7
  6
CONTINUOUS
  0
ENDTAB
  0
TABLE
  2
STYLE
  5
525
330
0
100
AcDbSymbolTable
 70
     3
  0
STYLE
  5
532
330
525
100
AcDbSymbolTableRecord
100
AcDbTextStyleTableRecord
  2
STANDARD
 70
     0
 40
0.0
 41
1.0
 50
0.0
 71
     0
 42
0.2
  3
txt.shx
  4

  0
STYLE
  5
549
330
525
100
AcDbSymbolTableRecord
100
AcDbTextStyleTableRecord
  2
ANNOTATIVE
 70
     0
 40
0.0
 41
1.0
 50
0.0
 71
     0
 42
0.2
  3
txt
  4

  0
STYLE
  5
54A
330
525
100
AcDbSymbolTableRecord
100
AcDbTextStyleTableRecord
  2
ANNOTATIVA
 70
     0
 40
0.0
 41
1.0
 50
0.0
 71
     0
 42
0.2
  3
txt.shx
  4

  0
ENDTAB
  0
TABLE
  2
VIEW
  5
527
330
0
100
AcDbSymbolTable
 70
     0
  0
ENDTAB
  0
TABLE
  2
UCS
  5
528
330
0
100
AcDbSymbolTable
 70
     0
  0
ENDTAB
  0
TABLE
  2
APPID
  5
52A
330
0
100
AcDbSymbolTable
 70
     7
  0
APPID
  5
533
330
52A
100
AcDbSymbolTableRecord
100
AcDbRegAppTableRecord
  2
ACAD
 70
     0
  0
APPID
  5
54C
330
52A
100
AcDbSymbolTableRecord
100
AcDbRegAppTableRecord
  2
ACADANNOTATIVE
 70
     0
  0
APPID
  5
54D
330
52A
100
AcDbSymbolTableRecord
100
AcDbRegAppTableRecord
  2
ACAD_MLEADERVER
 70
     0
  0
APPID
  5
54E
330
52A
100
AcDbSymbolTableRecord
100
AcDbRegAppTableRecord
  2
ACADANNOPO
 70
     0
  0
APPID
  5
54F
330
52A
100
AcDbSymbolTableRecord
100
AcDbRegAppTableRecord
  2
ACAD_DSTYLE_DIMJAG
 70
     0
  0
APPID
  5
550
330
52A
100
AcDbSymbolTableRecord
100
AcDbRegAppTableRecord
  2
ACAD_DSTYLE_DIMTALN
 70
     0
  0
APPID
  5
551
330
52A
100
AcDbSymbolTableRecord
100
AcDbRegAppTableRecord
  2
ACAD_EXEMPT_FROM_CAD_STAND
 70
     0
  0
ENDTAB
  0
TABLE
  2
DIMSTYLE
  5
52B
330
0
100
AcDbSymbolTable
 70
     4
  0
DIMSTYLE
105
552
330
52B
100
AcDbSymbolTableRecord
100
AcDbDimStyleTableRecord
  2
STANDARD
 70
     0
  3

  4

  5

  6

  7

 40
1.0
 41
0.18
 42
0.0625
 43
0.38
 44
0.18
 45
0.0
 46
0.0
 47
0.0
 48
0.0
140
0.18
141
0.09
142
0.0
143
25.4
144
1.0
145
0.0
146
1.0
147
0.09
 71
     0
 72
     0
 73
     1
 74
     1
 75
     0
 76
     0
 77
     0
 78
     0
170
     0
171
     2
172
     0
173
     0
174
     0
175
     0
176
     0
177
     0
178
     0
270
     2
271
     4
272
     4
273
     2
274
     2
340
532
275
     0
280
     0
281
     0
282
     0
283
     1
284
     0
285
     0
286
     0
287
     3
288
     0
  0
DIMSTYLE
105
553
330
52B
100
AcDbSymbolTableRecord
100
AcDbDimStyleTableRecord
  2
ANNOTATIVE
 70
     0
  3

  4

  5

  6

  7

 40
1.0
 41
0.18
 42
0.0625
 43
0.38
 44
0.18
 45
0.0
 46
0.0
 47
0.0
 48
0.0
140
0.18
141
0.09
142
0.0
143
25.4
144
1.0
145
0.0
146
1.0
147
0.09
 71
     0
 72
     0
 73
     1
 74
     1
 75
     0
 76
     0
 77
     0
 78
     0
170
     0
171
     2
172
     0
173
     0
174
     0
175
     0
176
     0
177
     0
178
     0
270
     2
271
     4
272
     4
273
     2
274
     2
340
532
275
     0
280
     0
281
     0
282
     0
283
     1
284
     0
285
     0
286
     0
287
     3
288
     0
  0
DIMSTYLE
105
554
330
52B
100
AcDbSymbolTableRecord
100
AcDbDimStyleTableRecord
  2
ANNOTATIVA
 70
     0
  3

  4

  5

  6

  7

 40
0.0
 41
0.18
 42
0.0625
 43
0.38
 44
0.18
 45
0.0
 46
0.0
 47
0.0
 48
0.0
140
0.18
141
0.09
142
0.0
143
25.4
144
1.0
145
0.0
146
1.0
147
0.09
 71
     0
 72
     0
 73
     1
 74
     1
 75
     0
 76
     0
 77
     0
 78
     0
170
     0
171
     2
172
     0
173
     0
174
     0
175
     0
176
     0
177
     0
178
     0
270
     2
271
     4
272
     4
273
     2
274
     2
340
532
275
     0
280
     0
281
     0
282
     0
283
     1
284
     0
285
     0
286
     0
287
     3
288
     0
  0
DIMSTYLE
105
555
330
52B
100
AcDbSymbolTableRecord
100
AcDbDimStyleTableRecord
  2
ISO-25
 70
     0
  3

  4

  5

  6

  7

 40
1.0
 41
2.5
 42
0.625
 43
3.75
 44
1.25
 45
0.0
 46
0.0
 47
0.0
 48
0.0
140
2.5
141
2.5
142
0.0
143
0.03937007874016
144
1.0
145
0.0
146
1.0
147
0.625
 71
     0
 72
     0
 73
     0
 74
     0
 75
     0
 76
     0
 77
     1
 78
     8
170
     0
171
     3
172
     1
173
     0
174
     0
175
     0
176
     0
177
     0
178
     0
270
     2
271
     4
272
     4
273
     2
274
     2
340
532
275
     0
280
     0
281
     0
282
     0
283
     1
284
     0
285
     0
286
     0
287
     3
288
     0
  0
ENDTAB
  0
TABLE
  2
BLOCK_RECORD
  5
523
330
0
100
AcDbSymbolTable
 70
     0
  0
BLOCK_RECORD
  5
53D
330
523
100
AcDbSymbolTableRecord
100
AcDbBlockTableRecord
  2
*MODEL_SPACE
  0
BLOCK_RECORD
  5
53B
330
523
100
AcDbSymbolTableRecord
100
AcDbBlockTableRecord
  2
*PAPER_SPACE
  0
ENDTAB
  0
ENDSEC
  0
SECTION
  2
BLOCKS
  0
BLOCK
  5
556
330
53D
100
AcDbEntity
  8
0
100
AcDbBlockBegin
  2
*MODEL_SPACE
 70
     0
 10
0.0
 20
0.0
 30
0.0
  3
*MODEL_SPACE
  1

  0
ENDBLK
  5
350
330
53D
100
AcDbEntity
  8
0
100
AcDbBlockEnd
  0
BLOCK
  5
557
330
53B
100
AcDbEntity
 67
     1
  8
0
100
AcDbBlockBegin
  2
*PAPER_SPACE
 70
     0
 10
0.0
 20
0.0
 30
0.0
  3
*PAPER_SPACE
  1

  0
ENDBLK
  5
34C
330
53B
100
AcDbEntity
 67
     1
  8
0
100
AcDbBlockEnd
  0
ENDSEC
  0
SECTION
  2
ENTITIES
  0
LINE
  5
4C0
330
53D
100
AcDbEntity
  8
0
  6
CENTERX2
100
AcDbLine
 10
463.638672662168
 20
110.4911358541661
 30
0.0
 11
213.7259878605482
 21
454.3985776742468
 31
0.0
  0
LINE
  5
4C1
330
53D
100
AcDbEntity
  8
0
  6
CONTINUOUS
100
AcDbLine
 10
268.9356602363806
 20
463.0772364205336
 30
0.0
 11
268.9356602363808
 21
516.0772364205332
 31
0.0
  0
LINE
  5
4C2
330
53D
100
AcDbEntity
  8
0
  6
CONTINUOUS
100
AcDbLine
 10
210.9877853394793
 20
463.0772364205336
 30
0.0
 11
268.9356602363806
 21
463.0772364205336
 31
0.0
  0
LINE
  5
4C3
330
53D
100
AcDbEntity
  8
0
  6
CONTINUOUS
100
AcDbLine
 10
475.5734937566798
 20
108.8736652156161
 30
0.0
 11
473.1092717552132
 21
106.0970770449534
 31
0.0
  0
LINE
  5
4C4
330
53D
100
AcDbEntity
  8
0
  6
CONTINUOUS
100
AcDbLine
 10
477.0693435640809
 20
107.5460985115163
 30
0.0
 11
475.5734937566798
 21
108.8736652156161
 31
0.0
  0
LINE
  5
4C5
330
53D
100
AcDbEntity
  8
0
  6
CONTINUOUS
100
AcDbLine
 10
563.935660236381
 20
101.3944161786161
 30
0.0
 11
477.0693435640809
 21
101.3944161786161
 31
0.0
  0
LINE
  5
4C6
330
53D
100
AcDbEntity
  8
0
100
AcDbLine
 10
268.9356602363808
 20
522.0772364205336
 30
0.0
 11
278.9356602363808
 21
519.0772364205336
 31
0.0
  0
LINE
  5
4C7
330
53D
100
AcDbEntity
  8
0
100
AcDbLine
 10
278.9356602363808
 20
519.0772364205336
 30
0.0
 11
268.9356602363808
 21
516.0772364205336
 31
0.0
  0
LINE
  5
4C8
330
53D
100
AcDbEntity
  8
0
100
AcDbLine
 10
209.8069931910742
 20
462.9804294824269
 30
0.0
 11
213.8089425850359
 21
454.2169226294243
 31
0.0
  0
LINE
  5
4C9
330
53D
100
AcDbEntity
  8
0
100
AcDbLine
 10
213.8089425850359
 20
454.2169226294243
 30
0.0
 11
198.9446127891694
 21
464.5174730137731
 31
0.0
  0
LINE
  5
4CB
330
53D
100
AcDbEntity
  8
0
100
AcDbLine
 10
473.1092717552132
 20
106.0970770449534
 30
0.0
 11
463.638672662168
 21
110.4911358541661
 31
0.0
  0
LINE
  5
4CC
330
53D
100
AcDbEntity
  8
0
100
AcDbLine
 10
463.638672662168
 20
110.4911358541661
 30
0.0
 11
466.7529960543675
 21
100.3437544912483
 31
0.0
  0
LINE
  5
4CD
330
53D
100
AcDbEntity
  8
0
100
AcDbLine
 10
477.0693435640809
 20
107.5460985115163
 30
0.0
 11
477.0693435640809
 21
101.3944161786161
 31
0.0
  0
LINE
  5
4CF
330
53D
100
AcDbEntity
  8
0
  6
CENTERX2
100
AcDbLine
 10
1688.935660236381
 20
519.0772364205336
 30
0.0
 11
278.9356602363808
 21
519.0772364205336
 31
0.0
  0
LINE
  5
4D0
330
53D
100
AcDbEntity
  8
0
  6
CONTINUOUS
100
AcDbLine
 10
1698.935660236381
 20
463.0772364205336
 30
0.0
 11
1698.935660236381
 21
516.0772364205336
 31
0.0
  0
LINE
  5
4D6
330
53D
100
AcDbEntity
  8
0
  6
CONTINUOUS
100
AcDbLine
 10
563.935660236381
 20
101.3944161786161
 30
0.0
 11
1490.801976908681
 21
101.3944161786161
 31
0.0
  0
LINE
  5
4D7
330
53D
100
AcDbEntity
  8
0
100
AcDbLine
 10
1698.935660236381
 20
522.0772364205336
 30
0.0
 11
1688.935660236381
 21
519.0772364205336
 31
0.0
  0
LINE
  5
4D8
330
53D
100
AcDbEntity
  8
0
100
AcDbLine
 10
1688.935660236381
 20
519.0772364205336
 30
0.0
 11
1698.935660236381
 21
516.0772364205336
 31
0.0
  0
LINE
  5
4DE
330
53D
100
AcDbEntity
  8
0
100
AcDbLine
 10
268.9356602363808
 20
574.1020143813337
 30
0.0
 11
278.9356602363808
 21
571.1020143813337
 31
0.0
  0
LINE
  5
4DF
330
53D
100
AcDbEntity
  8
0
100
AcDbLine
 10
278.9356602363808
 20
571.1020143813337
 30
0.0
 11
268.9356602363808
 21
568.1020143813337
 31
0.0
  0
LINE
  5
4E0
330
53D
100
AcDbEntity
  8
0
  6
CONTINUOUS
100
AcDbLine
 10
268.9356602363808
 20
574.1020143813337
 30
0.0
 11
268.9356602363808
 21
598.8144033616338
 31
0.0
  0
LINE
  5
4E1
330
53D
100
AcDbEntity
  8
0
  6
CONTINUOUS
100
AcDbLine
 10
268.9356602363808
 20
522.0772364205338
 30
0.0
 11
268.9356602363808
 21
568.1020143813337
 31
0.0
  0
LINE
  5
4E2
330
53D
100
AcDbEntity
  8
0
100
AcDbLine
 10
1698.935660236381
 20
574.1020143813337
 30
0.0
 11
1688.935660236381
 21
571.1020143813337
 31
0.0
  0
LINE
  5
4E3
330
53D
100
AcDbEntity
  8
0
100
AcDbLine
 10
1688.935660236381
 20
571.1020143813337
 30
0.0
 11
1698.935660236381
 21
568.1020143813337
 31
0.0
  0
LINE
  5
4E4
330
53D
100
AcDbEntity
  8
0
  6
CONTINUOUS
100
AcDbLine
 10
1698.935660236381
 20
574.1020143813337
 30
0.0
 11
1698.935660236381
 21
598.8144033616338
 31
0.0
  0
LINE
  5
4E5
330
53D
100
AcDbEntity
  8
0
  6
CONTINUOUS
100
AcDbLine
 10
1698.935660236381
 20
522.0772364205338
 30
0.0
 11
1698.935660236381
 21
568.1020143813337
 31
0.0
  0
LINE
  5
4E6
330
53D
100
AcDbEntity
  8
0
100
AcDbLine
 10
268.9356602363808
 20
598.8144033616338
 30
0.0
 11
1698.935660236381
 21
598.8144033616338
 31
0.0
  0
LINE
  5
4E7
330
53D
100
AcDbEntity
  8
0
  6
CENTERX2
100
AcDbLine
 10
419.5060039993996
 20
78.01522295641793
 30
0.0
 11
68.87028267470606
 21
351.47008944252
 31
0.0
  0
LINE
  5
4E8
330
53D
100
AcDbEntity
  8
0
  6
CONTINUOUS
100
AcDbLine
 10
434.6667163520933
 20
35.60767784524961
 30
0.0
 11
72.60139390232428
 21
311.1338254715094
 31
0.0
  0
LINE
  5
4E9
330
53D
100
AcDbEntity
  8
0
  6
CONTINUOUS
100
AcDbLine
 10
429.3495678290427
 20
62.20874285616025
 30
0.0
 11
434.6667163520933
 21
35.60767784524961
 31
0.0
  0
LINE
  5
4ED
330
53D
100
AcDbEntity
  8
0
100
AcDbLine
 10
430.5708396546502
 20
74.05069203261128
 30
0.0
 11
419.4638772250674
 21
78.08286878385326
 31
0.0
  0
LINE
  5
4EE
330
53D
100
AcDbEntity
  8
0
100
AcDbLine
 10
419.4638772250674
 20
78.08286878385326
 30
0.0
 11
429.3495678290428
 21
62.20874285616017
 31
0.0
  0
LINE
  5
4F0
330
53D
100
AcDbEntity
  8
0
  6
CONTINUOUS
100
AcDbLine
 10
466.7529960543675
 20
100.3437544912483
 30
0.0
 11
430.5708396546502
 21
74.05069203261127
 31
0.0
  0
LINE
  5
4F1
330
53D
100
AcDbEntity
  8
0
  6
CONTINUOUS
100
AcDbLine
 10
59.36306070692937
 20
363.0855288690479
 30
0.0
 11
198.9446127891694
 21
464.5174730137731
 31
0.0
  0
LINE
  5
4F3
330
53D
100
AcDbEntity
  8
0
  6
CONTINUOUS
100
AcDbLine
 10
72.60139390232428
 20
311.1338254715094
 30
0.0
 11
56.66034602744793
 21
355.3602706605644
 31
0.0
  0
LINE
  5
4F4
330
53D
100
AcDbEntity
  8
0
100
AcDbLine
 10
59.3630607069294
 20
363.0855288690479
 30
0.0
 11
69.3219144780848
 21
351.2852241960147
 31
0.0
  0
LINE
  5
4F5
330
53D
100
AcDbEntity
  8
0
100
AcDbLine
 10
69.3219144780848
 20
351.2852241960147
 30
0.0
 11
56.97026550201252
 21
356.3410918643817
 31
0.0
  0
LINE
  5
4F6
330
53D
100
AcDbEntity
  8
0
  6
CONTINUOUS
100
AcDbLine
 10
56.9702655020107
 20
356.341091864382
 30
0.0
 11
56.66034602744793
 21
355.3602706605644
 31
0.0
  0
LINE
  5
4F7
330
53D
100
AcDbEntity
  8
0
  6
CONTINUOUS
100
AcDbLine
 10
210.9877853394793
 20
463.0772364205336
 30
0.0
 11
209.8069931910742
 21
462.9804294824269
 31
0.0
  0
LINE
  5
50D
330
53D
100
AcDbEntity
  8
0
  6
CONTINUOUS
100
AcDbLine
 10
1756.883535133282
 20
463.0772364205336
 30
0.0
 11
1698.935660236381
 21
463.0772364205336
 31
0.0
  0
LINE
  5
50E
330
53D
100
AcDbEntity
  8
0
  6
CONTINUOUS
100
AcDbLine
 10
1492.297826716082
 20
108.8736652156161
 30
0.0
 11
1494.762048717548
 21
106.0970770449534
 31
0.0
  0
LINE
  5
50F
330
53D
100
AcDbEntity
  8
0
  6
CONTINUOUS
100
AcDbLine
 10
1490.80197690868
 20
107.5460985115163
 30
0.0
 11
1492.297826716082
 21
108.8736652156161
 31
0.0
  0
LINE
  5
510
330
53D
100
AcDbEntity
  8
0
  6
CONTINUOUS
100
AcDbLine
 10
1403.93566023638
 20
101.3944161786161
 30
0.0
 11
1490.80197690868
 21
101.3944161786161
 31
0.0
  0
LINE
  5
511
330
53D
100
AcDbEntity
  8
0
100
AcDbLine
 10
1758.064327281687
 20
462.9804294824269
 30
0.0
 11
1754.062377887726
 21
454.2169226294243
 31
0.0
  0
LINE
  5
512
330
53D
100
AcDbEntity
  8
0
100
AcDbLine
 10
1754.062377887726
 20
454.2169226294243
 30
0.0
 11
1768.926707683592
 21
464.5174730137731
 31
0.0
  0
LINE
  5
513
330
53D
100
AcDbEntity
  8
0
100
AcDbLine
 10
1494.762048717548
 20
106.0970770449534
 30
0.0
 11
1504.232647810593
 21
110.4911358541661
 31
0.0
  0
LINE
  5
514
330
53D
100
AcDbEntity
  8
0
100
AcDbLine
 10
1504.232647810593
 20
110.4911358541661
 30
0.0
 11
1501.118324418394
 21
100.3437544912483
 31
0.0
  0
LINE
  5
515
330
53D
100
AcDbEntity
  8
0
100
AcDbLine
 10
1490.80197690868
 20
107.5460985115163
 30
0.0
 11
1490.80197690868
 21
101.3944161786161
 31
0.0
  0
LINE
  5
516
330
53D
100
AcDbEntity
  8
0
  6
CONTINUOUS
100
AcDbLine
 10
1533.204604120668
 20
35.60767784524961
 30
0.0
 11
1895.269926570437
 21
311.1338254715094
 31
0.0
  0
LINE
  5
517
330
53D
100
AcDbEntity
  8
0
100
AcDbLine
 10
1537.300480818111
 20
74.05069203261128
 30
0.0
 11
1548.407443247694
 21
78.08286878385326
 31
0.0
  0
LINE
  5
518
330
53D
100
AcDbEntity
  8
0
100
AcDbLine
 10
1548.407443247694
 20
78.08286878385326
 30
0.0
 11
1538.521752643719
 21
62.20874285616017
 31
0.0
  0
LINE
  5
519
330
53D
100
AcDbEntity
  8
0
  6
CONTINUOUS
100
AcDbLine
 10
1895.269926570437
 20
311.1338254715094
 30
0.0
 11
1911.210974445313
 21
355.3602706605644
 31
0.0
  0
LINE
  5
51A
330
53D
100
AcDbEntity
  8
0
100
AcDbLine
 10
1908.508259765832
 20
363.0855288690479
 30
0.0
 11
1898.549405994677
 21
351.2852241960147
 31
0.0
  0
LINE
  5
51B
330
53D
100
AcDbEntity
  8
0
100
AcDbLine
 10
1898.549405994677
 20
351.2852241960147
 30
0.0
 11
1910.901054970749
 21
356.3410918643817
 31
0.0
  0
LINE
  5
51C
330
53D
100
AcDbEntity
  8
0
  6
CONTINUOUS
100
AcDbLine
 10
1910.901054970751
 20
356.341091864382
 30
0.0
 11
1911.210974445313
 21
355.3602706605644
 31
0.0
  0
LINE
  5
51D
330
53D
100
AcDbEntity
  8
0
  6
CONTINUOUS
100
AcDbLine
 10
1756.883535133282
 20
463.0772364205336
 30
0.0
 11
1758.064327281687
 21
462.9804294824269
 31
0.0
  0
LINE
  5
51E
330
53D
100
AcDbEntity
  8
0
  6
CENTERX2
100
AcDbLine
 10
1504.232647810593
 20
110.4911358541661
 30
0.0
 11
1754.145332612213
 21
454.3985776742468
 31
0.0
  0
LINE
  5
51F
330
53D
100
AcDbEntity
  8
0
  6
CONTINUOUS
100
AcDbLine
 10
1501.118324418394
 20
100.3437544912483
 30
0.0
 11
1537.300480818111
 21
74.05069203261127
 31
0.0
  0
LINE
  5
520
330
53D
100
AcDbEntity
  8
0
  6
CONTINUOUS
100
AcDbLine
 10
1908.508259765832
 20
363.0855288690479
 30
0.0
 11
1768.926707683592
 21
464.5174730137731
 31
0.0
  0
LINE
  5
521
330
53D
100
AcDbEntity
  8
0
  6
CENTERX2
100
AcDbLine
 10
1548.365316473362
 20
78.01522295641793
 30
0.0
 11
1899.001037798055
 21
351.47008944252
 31
0.0
  0
LINE
  5
522
330
53D
100
AcDbEntity
  8
0
  6
CONTINUOUS
100
AcDbLine
 10
1538.521752643719
 20
62.20874285616025
 30
0.0
 11
1533.204604120668
 21
35.60767784524961
 31
0.0
  0
ENDSEC
  0
SECTION
  2
OBJECTS
  0
DICTIONARY
  5
52D
330
0
100
AcDbDictionary
  3
ACAD_GROUP
350
52E
  3
ACAD_MLINESTYLE
350
537
  3
ACAD_SCALELIST
350
558
  3
APPDATA
350
597
  3
DWGPROPS
350
598
  0
DICTIONARY
  5
52E
102
{ACAD_REACTORS
330
52D
102
}
330
52D
100
AcDbDictionary
  0
DICTIONARY
  5
537
102
{ACAD_REACTORS
330
52D
102
}
330
52D
100
AcDbDictionary
  3
STANDARD
350
538
  0
DICTIONARY
  5
558
102
{ACAD_REACTORS
330
52D
102
}
330
52D
100
AcDbDictionary
  0
DICTIONARY
  5
597
102
{ACAD_REACTORS
330
52D
102
}
330
52D
100
AcDbDictionary
  0
XRECORD
  5
598
102
{ACAD_REACTORS
330
52D
102
}
330
52D
100
AcDbXrecord
  1
DWGPROPS COOKIE
  2

  3

  4

  6

  7

  8
Principale
  9

300
=
301
=
302
=
303
=
304
=
305
=
306
=
307
=
308
=
309
=
 40
0.0
 41
2456001.494344421
 42
2459114.635641354
  1

 90
        0
  0
MLINESTYLE
  5
538
102
{ACAD_REACTORS
330
537
102
}
330
537
100
AcDbMlineStyle
  2
Standard
 70
     0
  3

 62
   256
 51
90.0
 52
90.0
 71
     2
 49
0.5
 62
   256
  6
BYLAYER
 49
-0.5
 62
   256
  6
BYLAYER
  0
ENDSEC
  0
EOF
