  0
SECTION
  2
HEADER
  9
$ACADVER
  1
AC1014
  9
$ACADMAINTVER
 70
     9
  9
$DWGCODEPAGE
  3
ANSI_1252
  9
$INSBASE
 10
0.0
 20
0.0
 30
0.0
  9
$EXTMIN
 10
-828.8251685997726
 20
613.7926910367415
 30
0.0
  9
$EXTMAX
 10
395.4172933794267
 20
1184.478350862942
 30
0.0
  9
$LIMMIN
 10
0.0
 20
0.0
  9
$LIMMAX
 10
12.0
 20
9.0
  9
$ORTHOMODE
 70
     1
  9
$REGENMODE
 70
     1
  9
$FILLMODE
 70
     1
  9
$QTEXTMODE
 70
     0
  9
$MIRRTEXT
 70
     0
  9
$DRAGMODE
 70
     2
  9
$LTSCALE
 40
1.0
  9
$OSMODE
 70
  1023
  9
$ATTMODE
 70
     1
  9
$TEXTSIZE
 40
0.2
  9
$TRACEWID
 40
0.05
  9
$TEXTSTYLE
  7
STANDARD
  9
$CLAYER
  8
0
  9
$CELTYPE
  6
BYLAYER
  9
$CECOLOR
 62
   256
  9
$CELTSCALE
 40
1.0
  9
$DELOBJ
 70
     1
  9
$DISPSILH
 70
     0
  9
$DIMSCALE
 40
1.0
  9
$DIMASZ
 40
0.18
  9
$DIMEXO
 40
0.0625
  9
$DIMDLI
 40
0.38
  9
$DIMRND
 40
0.0
  9
$DIMDLE
 40
0.0
  9
$DIMEXE
 40
0.18
  9
$DIMTP
 40
0.0
  9
$DIMTM
 40
0.0
  9
$DIMTXT
 40
0.18
  9
$DIMCEN
 40
0.09
  9
$DIMTSZ
 40
0.0
  9
$DIMTOL
 70
     0
  9
$DIMLIM
 70
     0
  9
$DIMTIH
 70
     1
  9
$DIMTOH
 70
     1
  9
$DIMSE1
 70
     0
  9
$DIMSE2
 70
     0
  9
$DIMTAD
 70
     0
  9
$DIMZIN
 70
     0
  9
$DIMBLK
  1

  9
$DIMASO
 70
     1
  9
$DIMSHO
 70
     1
  9
$DIMPOST
  1

  9
$DIMAPOST
  1

  9
$DIMALT
 70
     0
  9
$DIMALTD
 70
     2
  9
$DIMALTF
 40
25.4
  9
$DIMLFAC
 40
1.0
  9
$DIMTOFL
 70
     0
  9
$DIMTVP
 40
0.0
  9
$DIMTIX
 70
     0
  9
$DIMSOXD
 70
     0
  9
$DIMSAH
 70
     0
  9
$DIMBLK1
  1

  9
$DIMBLK2
  1

  9
$DIMSTYLE
  2
STANDARD
  9
$DIMCLRD
 70
     0
  9
$DIMCLRE
 70
     0
  9
$DIMCLRT
 70
     0
  9
$DIMTFAC
 40
1.0
  9
$DIMGAP
 40
0.09
  9
$DIMJUST
 70
     0
  9
$DIMSD1
 70
     0
  9
$DIMSD2
 70
     0
  9
$DIMTOLJ
 70
     1
  9
$DIMTZIN
 70
     0
  9
$DIMALTZ
 70
     0
  9
$DIMALTTZ
 70
     0
  9
$DIMFIT
 70
     5
  9
$DIMUPT
 70
     0
  9
$DIMUNIT
 70
     2
  9
$DIMDEC
 70
     4
  9
$DIMTDEC
 70
     4
  9
$DIMALTU
 70
     2
  9
$DIMALTTD
 70
     2
  9
$DIMTXSTY
  7
STANDARD
  9
$DIMAUNIT
 70
     0
  9
$LUNITS
 70
     2
  9
$LUPREC
 70
     4
  9
$SKETCHINC
 40
0.1
  9
$FILLETRAD
 40
0.0
  9
$AUNITS
 70
     0
  9
$AUPREC
 70
     0
  9
$MENU
  1
.
  9
$ELEVATION
 40
0.0
  9
$PELEVATION
 40
0.0
  9
$THICKNESS
 40
0.0
  9
$LIMCHECK
 70
     0
  9
$CHAMFERA
 40
0.0
  9
$CHAMFERB
 40
0.0
  9
$CHAMFERC
 40
0.0
  9
$CHAMFERD
 40
0.0
  9
$SKPOLY
 70
     0
  9
$TDCREATE
 40
2455531.527171748
  9
$TDUPDATE
 40
2459114.719726759
  9
$TDINDWG
 40
0.0149796875
  9
$TDUSRTIMER
 40
0.0001357986
  9
$USRTIMER
 70
     1
  9
$ANGBASE
 50
0.0
  9
$ANGDIR
 70
     0
  9
$PDMODE
 70
     0
  9
$PDSIZE
 40
0.0
  9
$PLINEWID
 40
0.0
  9
$COORDS
 70
     1
  9
$SPLFRAME
 70
     0
  9
$SPLINETYPE
 70
     6
  9
$SPLINESEGS
 70
     8
  9
$ATTDIA
 70
     0
  9
$ATTREQ
 70
     1
  9
$HANDLING
 70
     1
  9
$HANDSEED
  5
968
  9
$SURFTAB1
 70
     6
  9
$SURFTAB2
 70
     6
  9
$SURFTYPE
 70
     6
  9
$SURFU
 70
     6
  9
$SURFV
 70
     6
  9
$UCSNAME
  2

  9
$UCSORG
 10
0.0
 20
0.0
 30
0.0
  9
$UCSXDIR
 10
1.0
 20
0.0
 30
0.0
  9
$UCSYDIR
 10
0.0
 20
1.0
 30
0.0
  9
$PUCSNAME
  2

  9
$PUCSORG
 10
0.0
 20
0.0
 30
0.0
  9
$PUCSXDIR
 10
1.0
 20
0.0
 30
0.0
  9
$PUCSYDIR
 10
0.0
 20
1.0
 30
0.0
  9
$USERI1
 70
     0
  9
$USERI2
 70
     0
  9
$USERI3
 70
     0
  9
$USERI4
 70
     0
  9
$USERI5
 70
     0
  9
$USERR1
 40
0.0
  9
$USERR2
 40
0.0
  9
$USERR3
 40
0.0
  9
$USERR4
 40
0.0
  9
$USERR5
 40
0.0
  9
$WORLDVIEW
 70
     1
  9
$SHADEDGE
 70
     3
  9
$SHADEDIF
 70
    70
  9
$TILEMODE
 70
     1
  9
$MAXACTVP
 70
    64
  9
$PINSBASE
 10
0.0
 20
0.0
 30
0.0
  9
$PLIMCHECK
 70
     0
  9
$PEXTMIN
 10
0.0
 20
0.0
 30
0.0
  9
$PEXTMAX
 10
0.0
 20
0.0
 30
0.0
  9
$PLIMMIN
 10
0.0
 20
0.0
  9
$PLIMMAX
 10
0.0
 20
0.0
  9
$UNITMODE
 70
     0
  9
$VISRETAIN
 70
     1
  9
$PLINEGEN
 70
     0
  9
$PSLTSCALE
 70
     1
  9
$TREEDEPTH
 70
  3020
  9
$PICKSTYLE
 70
     0
  9
$CMLSTYLE
  2
STANDARD
  9
$CMLJUST
 70
     0
  9
$CMLSCALE
 40
1.0
  9
$PROXYGRAPHICS
 70
     1
  9
$MEASUREMENT
 70
     0
  0
ENDSEC
  0
SECTION
  2
CLASSES
  0
CLASS
  1
ACDBDICTIONARYWDFLT
  2
AcDbDictionaryWithDefault
  3
ObjectDBX Classes
 90
        0
280
     0
281
     0
  0
CLASS
  1
MATERIAL
  2
AcDbMaterial
  3
ObjectDBX Classes
 90
     1153
280
     0
281
     0
  0
CLASS
  1
SCALE
  2
AcDbScale
  3
ObjectDBX Classes
 90
     1153
280
     0
281
     0
  0
CLASS
  1
VISUALSTYLE
  2
AcDbVisualStyle
  3
ObjectDBX Classes
 90
     4095
280
     0
281
     0
  0
CLASS
  1
TABLESTYLE
  2
AcDbTableStyle
  3
ObjectDBX Classes
 90
     4095
280
     0
281
     0
  0
CLASS
  1
MLEADERSTYLE
  2
AcDbMLeaderStyle
  3
ACDB_MLEADERSTYLE_CLASS
 90
     4095
280
     0
281
     0
  0
CLASS
  1
XRECORD
  2
AcDbXrecord
  3
ObjectDBX Classes
 90
        0
280
     0
281
     0
  0
CLASS
  1
LWPOLYLINE
  2
AcDbPolyline
  3
ObjectDBX Classes
 90
        0
280
     0
281
     1
  0
CLASS
  1
HATCH
  2
AcDbHatch
  3
ObjectDBX Classes
 90
        0
280
     0
281
     1
  0
ENDSEC
  0
SECTION
  2
TABLES
  0
TABLE
  2
VPORT
  5
8F7
330
0
100
AcDbSymbolTable
 70
     1
  0
VPORT
  5
90E
330
8F7
100
AcDbSymbolTableRecord
100
AcDbViewportTableRecord
  2
*ACTIVE
 70
     0
 10
0.0
 20
0.0
 11
1.0
 21
1.0
 12
1191.579777615997
 22
954.2541374373043
 13
0.0
 23
0.0
 14
0.5
 24
0.5
 15
0.5
 25
0.5
 16
0.0
 26
0.0
 36
1.0
 17
0.0
 27
0.0
 37
0.0
 40
2675.774553717658
 41
2.091520861372813
 42
50.0
 43
0.0
 44
0.0
 50
0.0
 51
0.0
 71
    16
 72
  1000
 73
     1
 74
     3
 75
     0
 76
     0
 77
     0
 78
     0
  0
ENDTAB
  0
TABLE
  2
LTYPE
  5
8F4
330
0
100
AcDbSymbolTable
 70
     2
  0
LTYPE
  5
902
330
8F4
100
AcDbSymbolTableRecord
100
AcDbLinetypeTableRecord
  2
BYBLOCK
 70
     0
  3

 72
    65
 73
     0
 40
0.0
  0
LTYPE
  5
903
330
8F4
100
AcDbSymbolTableRecord
100
AcDbLinetypeTableRecord
  2
BYLAYER
 70
     0
  3

 72
    65
 73
     0
 40
0.0
  0
LTYPE
  5
904
330
8F4
100
AcDbSymbolTableRecord
100
AcDbLinetypeTableRecord
  2
CONTINUOUS
 70
     0
  3
Solid line
 72
    65
 73
     0
 40
0.0
  0
LTYPE
  5
910
330
8F4
100
AcDbSymbolTableRecord
100
AcDbLinetypeTableRecord
  2
CENTERX2
 70
     0
  3
Center (2x) ________  __  ________  __  _____
 72
    65
 73
     4
 40
20.32
 49
12.7
 74
     0
 49
-2.54
 74
     0
 49
2.54
 74
     0
 49
-2.54
 74
     0
  0
ENDTAB
  0
TABLE
  2
LAYER
  5
8F2
330
0
100
AcDbSymbolTable
 70
     2
  0
LAYER
  5
8FF
330
8F2
100
AcDbSymbolTableRecord
100
AcDbLayerTableRecord
  2
0
 70
     0
 62
     7
  6
CONTINUOUS
  0
LAYER
  5
916
330
8F2
100
AcDbSymbolTableRecord
100
AcDbLayerTableRecord
  2
CONTORNO
 70
     0
 62
     7
  6
CONTINUOUS
  0
ENDTAB
  0
TABLE
  2
STYLE
  5
8F3
330
0
100
AcDbSymbolTable
 70
     3
  0
STYLE
  5
900
330
8F3
100
AcDbSymbolTableRecord
100
AcDbTextStyleTableRecord
  2
STANDARD
 70
     0
 40
0.0
 41
1.0
 50
0.0
 71
     0
 42
0.2
  3
txt.shx
  4

  0
STYLE
  5
918
330
8F3
100
AcDbSymbolTableRecord
100
AcDbTextStyleTableRecord
  2
ANNOTATIVE
 70
     0
 40
0.0
 41
1.0
 50
0.0
 71
     0
 42
0.2
  3
txt
  4

  0
STYLE
  5
919
330
8F3
100
AcDbSymbolTableRecord
100
AcDbTextStyleTableRecord
  2
ANNOTATIVA
 70
     0
 40
0.0
 41
1.0
 50
0.0
 71
     0
 42
0.2
  3
txt.shx
  4

  0
ENDTAB
  0
TABLE
  2
VIEW
  5
8F5
330
0
100
AcDbSymbolTable
 70
     0
  0
ENDTAB
  0
TABLE
  2
UCS
  5
8F6
330
0
100
AcDbSymbolTable
 70
     0
  0
ENDTAB
  0
TABLE
  2
APPID
  5
8F8
330
0
100
AcDbSymbolTable
 70
     7
  0
APPID
  5
901
330
8F8
100
AcDbSymbolTableRecord
100
AcDbRegAppTableRecord
  2
ACAD
 70
     0
  0
APPID
  5
91B
330
8F8
100
AcDbSymbolTableRecord
100
AcDbRegAppTableRecord
  2
ACADANNOTATIVE
 70
     0
  0
APPID
  5
91C
330
8F8
100
AcDbSymbolTableRecord
100
AcDbRegAppTableRecord
  2
ACAD_MLEADERVER
 70
     0
  0
APPID
  5
91D
330
8F8
100
AcDbSymbolTableRecord
100
AcDbRegAppTableRecord
  2
ACADANNOPO
 70
     0
  0
APPID
  5
91E
330
8F8
100
AcDbSymbolTableRecord
100
AcDbRegAppTableRecord
  2
ACAD_DSTYLE_DIMJAG
 70
     0
  0
APPID
  5
91F
330
8F8
100
AcDbSymbolTableRecord
100
AcDbRegAppTableRecord
  2
ACAD_DSTYLE_DIMTALN
 70
     0
  0
APPID
  5
920
330
8F8
100
AcDbSymbolTableRecord
100
AcDbRegAppTableRecord
  2
ACAD_EXEMPT_FROM_CAD_STAND
 70
     0
  0
ENDTAB
  0
TABLE
  2
DIMSTYLE
  5
8F9
330
0
100
AcDbSymbolTable
 70
     4
  0
DIMSTYLE
105
921
330
8F9
100
AcDbSymbolTableRecord
100
AcDbDimStyleTableRecord
  2
STANDARD
 70
     0
  3

  4

  5

  6

  7

 40
1.0
 41
0.18
 42
0.0625
 43
0.38
 44
0.18
 45
0.0
 46
0.0
 47
0.0
 48
0.0
140
0.18
141
0.09
142
0.0
143
25.4
144
1.0
145
0.0
146
1.0
147
0.09
 71
     0
 72
     0
 73
     1
 74
     1
 75
     0
 76
     0
 77
     0
 78
     0
170
     0
171
     2
172
     0
173
     0
174
     0
175
     0
176
     0
177
     0
178
     0
270
     2
271
     4
272
     4
273
     2
274
     2
340
900
275
     0
280
     0
281
     0
282
     0
283
     1
284
     0
285
     0
286
     0
287
     3
288
     0
  0
DIMSTYLE
105
922
330
8F9
100
AcDbSymbolTableRecord
100
AcDbDimStyleTableRecord
  2
ANNOTATIVE
 70
     0
  3

  4

  5

  6

  7

 40
1.0
 41
0.18
 42
0.0625
 43
0.38
 44
0.18
 45
0.0
 46
0.0
 47
0.0
 48
0.0
140
0.18
141
0.09
142
0.0
143
25.4
144
1.0
145
0.0
146
1.0
147
0.09
 71
     0
 72
     0
 73
     1
 74
     1
 75
     0
 76
     0
 77
     0
 78
     0
170
     0
171
     2
172
     0
173
     0
174
     0
175
     0
176
     0
177
     0
178
     0
270
     2
271
     4
272
     4
273
     2
274
     2
340
900
275
     0
280
     0
281
     0
282
     0
283
     1
284
     0
285
     0
286
     0
287
     3
288
     0
  0
DIMSTYLE
105
923
330
8F9
100
AcDbSymbolTableRecord
100
AcDbDimStyleTableRecord
  2
ANNOTATIVA
 70
     0
  3

  4

  5

  6

  7

 40
0.0
 41
0.18
 42
0.0625
 43
0.38
 44
0.18
 45
0.0
 46
0.0
 47
0.0
 48
0.0
140
0.18
141
0.09
142
0.0
143
25.4
144
1.0
145
0.0
146
1.0
147
0.09
 71
     0
 72
     0
 73
     1
 74
     1
 75
     0
 76
     0
 77
     0
 78
     0
170
     0
171
     2
172
     0
173
     0
174
     0
175
     0
176
     0
177
     0
178
     0
270
     2
271
     4
272
     4
273
     2
274
     2
340
900
275
     0
280
     0
281
     0
282
     0
283
     1
284
     0
285
     0
286
     0
287
     3
288
     0
  0
DIMSTYLE
105
924
330
8F9
100
AcDbSymbolTableRecord
100
AcDbDimStyleTableRecord
  2
ISO-25
 70
     0
  3

  4

  5

  6

  7

 40
1.0
 41
2.5
 42
0.625
 43
3.75
 44
1.25
 45
0.0
 46
0.0
 47
0.0
 48
0.0
140
2.5
141
2.5
142
0.0
143
0.0393700787
144
1.0
145
0.0
146
1.0
147
0.625
 71
     0
 72
     0
 73
     0
 74
     0
 75
     0
 76
     0
 77
     1
 78
     8
170
     0
171
     3
172
     1
173
     0
174
     0
175
     0
176
     0
177
     0
178
     0
270
     2
271
     4
272
     4
273
     2
274
     2
340
900
275
     0
280
     0
281
     0
282
     0
283
     1
284
     0
285
     0
286
     0
287
     3
288
     0
  0
ENDTAB
  0
TABLE
  2
BLOCK_RECORD
  5
8F1
330
0
100
AcDbSymbolTable
 70
     0
  0
BLOCK_RECORD
  5
90B
330
8F1
100
AcDbSymbolTableRecord
100
AcDbBlockTableRecord
  2
*MODEL_SPACE
  0
BLOCK_RECORD
  5
909
330
8F1
100
AcDbSymbolTableRecord
100
AcDbBlockTableRecord
  2
*PAPER_SPACE
  0
ENDTAB
  0
ENDSEC
  0
SECTION
  2
BLOCKS
  0
BLOCK
  5
925
330
90B
100
AcDbEntity
  8
0
100
AcDbBlockBegin
  2
*MODEL_SPACE
 70
     0
 10
0.0
 20
0.0
 30
0.0
  3
*MODEL_SPACE
  1

  0
ENDBLK
  5
749
330
90B
100
AcDbEntity
  8
0
100
AcDbBlockEnd
  0
BLOCK
  5
926
330
909
100
AcDbEntity
 67
     1
  8
0
100
AcDbBlockBegin
  2
*PAPER_SPACE
 70
     0
 10
0.0
 20
0.0
 30
0.0
  3
*PAPER_SPACE
  1

  0
ENDBLK
  5
745
330
909
100
AcDbEntity
 67
     1
  8
0
100
AcDbBlockEnd
  0
ENDSEC
  0
SECTION
  2
ENTITIES
  0
LINE
  5
188
330
90B
100
AcDbEntity
  8
0
  6
CENTERX2
100
AcDbLine
 10
-353.5111022648956
 20
1144.283754979014
 30
0.0
 11
-815.8352698281536
 21
901.171583236079
 31
0.0
  0
LINE
  5
189
330
90B
100
AcDbEntity
  8
0
  6
CENTERX2
100
AcDbLine
 10
-317.0009251843846
 20
1103.145527282692
 30
0.0
 11
-696.8069527845477
 21
769.0676777874833
 31
0.0
  0
LINE
  5
18A
330
90B
100
AcDbEntity
  8
0
  6
CENTERX2
100
AcDbLine
 10
-631.7039376101728
 20
641.5050800170416
 30
0.0
 11
-216.7039376101737
 21
641.5050800170416
 31
0.0
  0
LINE
  5
18B
330
90B
100
AcDbEntity
  8
0
  6
CENTERX2
100
AcDbLine
 10
-631.703937610174
 20
693.5298579778415
 30
0.0
 11
-216.7039376101737
 21
693.5298579778415
 31
0.0
  0
LINE
  5
18D
330
90B
100
AcDbEntity
  8
0
  6
CONTINUOUS
100
AcDbLine
 10
-641.7039376101728
 20
613.7926910367416
 30
0.0
 11
-216.7039376101737
 21
613.7926910367416
 31
0.0
  0
LINE
  5
18E
330
90B
100
AcDbEntity
  8
0
  6
CONTINUOUS
100
AcDbLine
 10
-641.7039376101726
 20
760.2422469582416
 30
0.0
 11
-641.7039376101728
 21
696.5298579778417
 31
0.0
  0
LINE
  5
18F
330
90B
100
AcDbEntity
  8
0
  6
CONTINUOUS
100
AcDbLine
 10
-699.6518125070737
 20
760.2422469582416
 30
0.0
 11
-641.7039376101726
 21
760.2422469582416
 31
0.0
  0
LINE
  5
190
330
90B
100
AcDbEntity
  8
0
  6
CONTINUOUS
100
AcDbLine
 10
-699.6518125070737
 20
760.2422469582416
 30
0.0
 11
-702.0133968038837
 21
760.4358608344553
 31
0.0
  0
LINE
  5
191
330
90B
100
AcDbEntity
  8
0
  6
CONTINUOUS
100
AcDbLine
 10
-827.3416419266738
 20
890.5382518218418
 30
0.0
 11
-712.6496815008737
 21
761.3078738773415
 31
0.0
  0
LINE
  5
192
330
90B
100
AcDbEntity
  8
0
  6
CONTINUOUS
100
AcDbLine
 10
-827.3416419266738
 20
890.5382518218418
 30
0.0
 11
-827.5241959397678
 21
891.5505434530348
 31
0.0
  0
LINE
  5
193
330
90B
100
AcDbEntity
  8
0
  6
CONTINUOUS
100
AcDbLine
 10
-818.6534859173736
 20
928.9606634397417
 30
0.0
 11
-828.8251685997726
 21
898.7646480011418
 31
0.0
  0
LINE
  5
194
330
90B
100
AcDbEntity
  8
0
  6
CONTINUOUS
100
AcDbLine
 10
-333.0254335054735
 20
1184.478350862942
 30
0.0
 11
-818.6534859173736
 21
928.9606634397417
 31
0.0
  0
LINE
  5
195
330
90B
100
AcDbEntity
  8
0
  6
CONTINUOUS
100
AcDbLine
 10
-343.197116187874
 20
1154.282335424341
 30
0.0
 11
-333.0254335054735
 21
1184.478350862942
 31
0.0
  0
LINE
  5
196
330
90B
100
AcDbEntity
  8
0
  6
CONTINUOUS
100
AcDbLine
 10
-343.197116187874
 20
1154.282335424341
 30
0.0
 11
-343.0818196869915
 21
1153.073099430265
 31
0.0
  0
LINE
  5
197
330
90B
100
AcDbEntity
  8
0
  6
CONTINUOUS
100
AcDbLine
 10
-342.3789844431735
 20
1145.701725032742
 30
0.0
 11
-341.4391779541734
 21
1143.936289176242
 31
0.0
  0
LINE
  5
198
330
90B
100
AcDbEntity
  8
0
  6
CONTINUOUS
100
AcDbLine
 10
-341.4391779541734
 20
1143.936289176242
 30
0.0
 11
-340.3479496904732
 21
1144.517190147242
 31
0.0
  0
LINE
  5
199
330
90B
100
AcDbEntity
  8
0
  6
CONTINUOUS
100
AcDbLine
 10
-305.0661040898735
 20
1104.762997921242
 30
0.0
 11
-307.5303260913395
 21
1107.539586091905
 31
0.0
  0
LINE
  5
19A
330
90B
100
AcDbEntity
  8
0
  6
CONTINUOUS
100
AcDbLine
 10
-303.570254282473
 20
1106.090564625342
 30
0.0
 11
-305.0661040898735
 21
1104.762997921242
 31
0.0
  0
LINE
  5
19C
330
90B
100
AcDbEntity
  8
0
  6
CONTINUOUS
100
AcDbLine
 10
-216.7039376101734
 20
1112.242246958242
 30
0.0
 11
-303.570254282473
 21
1112.242246958242
 31
0.0
  0
LINE
  5
1B0
330
90B
100
AcDbEntity
  8
0
  6
CONTINUOUS
100
AcDbLine
 10
111.2198007997554
 20
1042.588040155441
 30
0.0
 11
110.5258584317563
 21
1050.659113821335
 31
0.0
  0
LINE
  5
1B1
330
90B
100
AcDbEntity
  8
0
  6
CONTINUOUS
100
AcDbLine
 10
101.5283224913646
 20
1077.074753453409
 30
0.0
 11
110.5258584317563
 21
1050.659113821335
 31
0.0
  0
LINE
  5
1B7
330
90B
100
AcDbEntity
  8
0
100
AcDbLine
 10
-641.7039376101728
 20
638.5050800170416
 30
0.0
 11
-631.7039376101728
 21
641.5050800170416
 31
0.0
  0
LINE
  5
1B8
330
90B
100
AcDbEntity
  8
0
100
AcDbLine
 10
-631.7039376101728
 20
641.5050800170416
 30
0.0
 11
-641.7039376101728
 21
644.5050800170418
 31
0.0
  0
LINE
  5
1B9
330
90B
100
AcDbEntity
  8
0
100
AcDbLine
 10
-641.7039376101728
 20
690.5298579778416
 30
0.0
 11
-631.7039376101728
 21
693.5298579778415
 31
0.0
  0
LINE
  5
1BA
330
90B
100
AcDbEntity
  8
0
100
AcDbLine
 10
-631.7039376101728
 20
693.5298579778415
 30
0.0
 11
-641.7039376101728
 21
696.5298579778416
 31
0.0
  0
LINE
  5
1C1
330
90B
100
AcDbEntity
  8
0
100
AcDbLine
 10
-702.0133968038837
 20
760.4358608344553
 30
0.0
 11
-696.8069527845486
 21
769.0676777874841
 31
0.0
  0
LINE
  5
1C2
330
90B
100
AcDbEntity
  8
0
100
AcDbLine
 10
-696.8069527845486
 20
769.0676777874841
 30
0.0
 11
-710.2880972039596
 21
761.1142600011196
 31
0.0
  0
LINE
  5
1CB
330
90B
100
AcDbEntity
  8
0
  6
CONTINUOUS
100
AcDbLine
 10
-710.2880972039596
 20
761.1142600011196
 30
0.0
 11
-712.6496815008737
 21
761.3078738773415
 31
0.0
  0
LINE
  5
1CD
330
90B
100
AcDbEntity
  8
0
100
AcDbLine
 10
-827.5241959397678
 20
891.5505434530348
 30
0.0
 11
-815.7478927793976
 21
901.1949106281525
 31
0.0
  0
LINE
  5
1CE
330
90B
100
AcDbEntity
  8
0
100
AcDbLine
 10
-815.7478927793976
 20
901.1949106281525
 30
0.0
 11
-828.6426145866536
 21
897.7523563698094
 31
0.0
  0
LINE
  5
1CF
330
90B
100
AcDbEntity
  8
0
  6
CONTINUOUS
100
AcDbLine
 10
-828.6426145866548
 20
897.7523563698091
 30
0.0
 11
-828.8251685997726
 21
898.7646480011418
 31
0.0
  0
LINE
  5
1D5
330
90B
100
AcDbEntity
  8
0
100
AcDbLine
 10
-307.5303260913395
 20
1107.539586091905
 30
0.0
 11
-317.0009251843846
 21
1103.145527282692
 31
0.0
  0
LINE
  5
1D6
330
90B
100
AcDbEntity
  8
0
100
AcDbLine
 10
-317.0009251843846
 20
1103.145527282692
 30
0.0
 11
-311.5130262035199
 21
1112.027135514078
 31
0.0
  0
LINE
  5
1D7
330
90B
100
AcDbEntity
  8
0
100
AcDbLine
 10
-342.4796588940953
 20
1146.757604168768
 30
0.0
 11
-353.5111022648956
 21
1144.283754979014
 31
0.0
  0
LINE
  5
1D8
330
90B
100
AcDbEntity
  8
0
100
AcDbLine
 10
-353.5111022648956
 20
1144.283754979014
 30
0.0
 11
-343.0818196869915
 21
1153.073099430265
 31
0.0
  0
LINE
  5
1D9
330
90B
100
AcDbEntity
  8
0
  6
CONTINUOUS
100
AcDbLine
 10
-342.4796588940953
 20
1146.757604168768
 30
0.0
 11
-342.3789844431735
 21
1145.701725032742
 31
0.0
  0
LINE
  5
1DA
330
90B
100
AcDbEntity
  8
0
  6
CONTINUOUS
100
AcDbLine
 10
-311.5130262035199
 20
1112.027135514077
 30
0.0
 11
-340.3479496904732
 21
1144.517190147242
 31
0.0
  0
LINE
  5
1DB
330
90B
100
AcDbEntity
  8
0
100
AcDbLine
 10
-303.570254282473
 20
1106.090564625342
 30
0.0
 11
-303.570254282473
 21
1112.242246958242
 31
0.0
  0
LINE
  5
1DD
330
90B
100
AcDbEntity
  8
0
  6
CONTINUOUS
100
AcDbLine
 10
-641.7039376101728
 20
638.5050800170416
 30
0.0
 11
-641.7039376101728
 21
613.7926910367416
 31
0.0
  0
LINE
  5
1DE
330
90B
100
AcDbEntity
  8
0
  6
CONTINUOUS
100
AcDbLine
 10
-641.7039376101728
 20
690.5298579778416
 30
0.0
 11
-641.7039376101728
 21
644.5050800170418
 31
0.0
  0
LINE
  5
1E1
330
90B
100
AcDbEntity
  8
0
  6
CENTERX2
100
AcDbLine
 10
-116.4069500359616
 20
1103.145527282692
 30
0.0
 11
263.3990775642015
 21
769.0676777874831
 31
0.0
  0
LINE
  5
1E2
330
90B
100
AcDbEntity
  8
0
  6
CENTERX2
100
AcDbLine
 10
198.2960623898265
 20
641.5050800170415
 30
0.0
 11
-216.7039376101737
 21
641.5050800170416
 31
0.0
  0
LINE
  5
1E3
330
90B
100
AcDbEntity
  8
0
  6
CENTERX2
100
AcDbLine
 10
198.2960623898267
 20
693.5298579778414
 30
0.0
 11
-216.7039376101735
 21
693.5298579778415
 31
0.0
  0
LINE
  5
1E4
330
90B
100
AcDbEntity
  8
0
  6
CONTINUOUS
100
AcDbLine
 10
208.2960623898264
 20
613.7926910367415
 30
0.0
 11
-216.7039376101737
 21
613.7926910367416
 31
0.0
  0
LINE
  5
1E5
330
90B
100
AcDbEntity
  8
0
  6
CONTINUOUS
100
AcDbLine
 10
208.2960623898267
 20
760.2422469582415
 30
0.0
 11
208.2960623898265
 21
696.5298579778416
 31
0.0
  0
LINE
  5
1E6
330
90B
100
AcDbEntity
  8
0
  6
CONTINUOUS
100
AcDbLine
 10
208.2960623898265
 20
690.5298579778415
 30
0.0
 11
208.2960623898265
 21
644.5050800170417
 31
0.0
  0
LINE
  5
1E7
330
90B
100
AcDbEntity
  8
0
  6
CONTINUOUS
100
AcDbLine
 10
208.2960623898265
 20
638.5050800170415
 30
0.0
 11
208.2960623898264
 21
613.7926910367415
 31
0.0
  0
LINE
  5
1E8
330
90B
100
AcDbEntity
  8
0
  6
CONTINUOUS
100
AcDbLine
 10
266.243937286727
 20
760.2422469582415
 30
0.0
 11
208.2960623898267
 21
760.2422469582415
 31
0.0
  0
LINE
  5
1E9
330
90B
100
AcDbEntity
  8
0
  6
CONTINUOUS
100
AcDbLine
 10
266.243937286727
 20
760.2422469582415
 30
0.0
 11
268.6055215835376
 21
760.4358608344552
 31
0.0
  0
LINE
  5
1EA
330
90B
100
AcDbEntity
  8
0
  6
CONTINUOUS
100
AcDbLine
 10
276.8802219836131
 20
761.1142600011194
 30
0.0
 11
279.2418062805269
 21
761.3078738773415
 31
0.0
  0
LINE
  5
1EB
330
90B
100
AcDbEntity
  8
0
  6
CONTINUOUS
100
AcDbLine
 10
393.9337667063269
 20
890.5382518218416
 30
0.0
 11
279.2418062805269
 21
761.3078738773415
 31
0.0
  0
LINE
  5
1EC
330
90B
100
AcDbEntity
  8
0
  6
CONTINUOUS
100
AcDbLine
 10
393.9337667063269
 20
890.5382518218416
 30
0.0
 11
394.1163207194207
 21
891.5505434530346
 31
0.0
  0
LINE
  5
1ED
330
90B
100
AcDbEntity
  8
0
  6
CONTINUOUS
100
AcDbLine
 10
395.2347393663079
 20
897.752356369809
 30
0.0
 11
395.4172933794267
 21
898.7646480011417
 31
0.0
  0
LINE
  5
1EE
330
90B
100
AcDbEntity
  8
0
  6
CONTINUOUS
100
AcDbLine
 10
385.2456106970272
 20
928.9606634397416
 30
0.0
 11
395.4172933794267
 21
898.7646480011417
 31
0.0
  0
LINE
  5
1EF
330
90B
100
AcDbEntity
  8
0
  6
CONTINUOUS
100
AcDbLine
 10
-100.3824417148727
 20
1184.478350862942
 30
0.0
 11
2.625398030136594
 21
1129.643486227171
 31
0.0
  0
LINE
  5
1F0
330
90B
100
AcDbEntity
  8
0
  6
CONTINUOUS
100
AcDbLine
 10
-90.21075903247225
 20
1154.282335424341
 30
0.0
 11
-100.3824417148727
 21
1184.478350862942
 31
0.0
  0
LINE
  5
1F1
330
90B
100
AcDbEntity
  8
0
  6
CONTINUOUS
100
AcDbLine
 10
-90.21075903247225
 20
1154.282335424341
 30
0.0
 11
-90.3260555333548
 21
1153.073099430265
 31
0.0
  0
LINE
  5
1F2
330
90B
100
AcDbEntity
  8
0
  6
CONTINUOUS
100
AcDbLine
 10
-90.92821632625089
 20
1146.757604168768
 30
0.0
 11
-91.02889077717276
 21
1145.701725032742
 31
0.0
  0
LINE
  5
1F3
330
90B
100
AcDbEntity
  8
0
  6
CONTINUOUS
100
AcDbLine
 10
-91.02889077717276
 20
1145.701725032742
 30
0.0
 11
-91.9686972661732
 21
1143.936289176242
 31
0.0
  0
LINE
  5
1F4
330
90B
100
AcDbEntity
  8
0
  6
CONTINUOUS
100
AcDbLine
 10
-91.9686972661732
 20
1143.936289176242
 30
0.0
 11
-93.05992552987317
 21
1144.517190147242
 31
0.0
  0
LINE
  5
1F5
330
90B
100
AcDbEntity
  8
0
  6
CONTINUOUS
100
AcDbLine
 10
-128.341771130473
 20
1104.762997921242
 30
0.0
 11
-125.8775491290071
 21
1107.539586091905
 31
0.0
  0
LINE
  5
1F6
330
90B
100
AcDbEntity
  8
0
  6
CONTINUOUS
100
AcDbLine
 10
-121.8948490168262
 20
1112.027135514077
 30
0.0
 11
-93.05992552987317
 21
1144.517190147242
 31
0.0
  0
LINE
  5
1F7
330
90B
100
AcDbEntity
  8
0
  6
CONTINUOUS
100
AcDbLine
 10
-129.8376209378732
 20
1106.090564625342
 30
0.0
 11
-128.341771130473
 21
1104.762997921242
 31
0.0
  0
LINE
  5
1F8
330
90B
100
AcDbEntity
  8
0
  6
CONTINUOUS
100
AcDbLine
 10
-216.7039376101734
 20
1112.242246958242
 30
0.0
 11
-129.8376209378732
 21
1112.242246958242
 31
0.0
  0
LINE
  5
1F9
330
90B
100
AcDbEntity
  8
0
100
AcDbLine
 10
208.2960623898265
 20
638.5050800170415
 30
0.0
 11
198.2960623898265
 21
641.5050800170415
 31
0.0
  0
LINE
  5
1FA
330
90B
100
AcDbEntity
  8
0
100
AcDbLine
 10
198.2960623898265
 20
641.5050800170415
 30
0.0
 11
208.2960623898265
 21
644.5050800170417
 31
0.0
  0
LINE
  5
1FB
330
90B
100
AcDbEntity
  8
0
100
AcDbLine
 10
208.2960623898265
 20
690.5298579778415
 30
0.0
 11
198.2960623898265
 21
693.5298579778414
 31
0.0
  0
LINE
  5
1FC
330
90B
100
AcDbEntity
  8
0
100
AcDbLine
 10
198.2960623898265
 20
693.5298579778414
 30
0.0
 11
208.2960623898265
 21
696.5298579778415
 31
0.0
  0
LINE
  5
1FD
330
90B
100
AcDbEntity
  8
0
100
AcDbLine
 10
268.6055215835376
 20
760.4358608344552
 30
0.0
 11
263.3990775642022
 21
769.067677787484
 31
0.0
  0
LINE
  5
1FE
330
90B
100
AcDbEntity
  8
0
100
AcDbLine
 10
263.3990775642022
 20
769.067677787484
 30
0.0
 11
276.8802219836131
 21
761.1142600011194
 31
0.0
  0
LINE
  5
1FF
330
90B
100
AcDbEntity
  8
0
100
AcDbLine
 10
394.1163207194207
 20
891.5505434530346
 30
0.0
 11
382.3400175590514
 21
901.1949106281522
 31
0.0
  0
LINE
  5
200
330
90B
100
AcDbEntity
  8
0
100
AcDbLine
 10
382.3400175590514
 20
901.1949106281522
 30
0.0
 11
395.2347393663077
 21
897.7523563698091
 31
0.0
  0
LINE
  5
201
330
90B
100
AcDbEntity
  8
0
100
AcDbLine
 10
-125.8775491290071
 20
1107.539586091905
 30
0.0
 11
-116.4069500359616
 21
1103.145527282692
 31
0.0
  0
LINE
  5
202
330
90B
100
AcDbEntity
  8
0
100
AcDbLine
 10
-116.4069500359616
 20
1103.145527282692
 30
0.0
 11
-121.8948490168262
 21
1112.027135514078
 31
0.0
  0
LINE
  5
203
330
90B
100
AcDbEntity
  8
0
100
AcDbLine
 10
-90.92821632625089
 20
1146.757604168768
 30
0.0
 11
-79.89677295545056
 21
1144.283754979014
 31
0.0
  0
LINE
  5
204
330
90B
100
AcDbEntity
  8
0
100
AcDbLine
 10
-79.89677295545056
 20
1144.283754979014
 30
0.0
 11
-90.3260555333548
 21
1153.073099430265
 31
0.0
  0
LINE
  5
205
330
90B
100
AcDbEntity
  8
0
100
AcDbLine
 10
-129.8376209378732
 20
1106.090564625342
 30
0.0
 11
-129.8376209378732
 21
1112.242246958242
 31
0.0
  0
LINE
  5
206
330
90B
100
AcDbEntity
  8
0
  6
CONTINUOUS
100
AcDbLine
 10
101.5308866476281
 20
1077.06722541148
 30
0.0
 11
385.2456106970272
 21
928.9606634397416
 31
0.0
  0
LINE
  5
207
330
90B
100
AcDbEntity
  8
0
  6
CENTERX2
100
AcDbLine
 10
111.2198007997554
 20
1042.588040155441
 30
0.0
 11
382.427394607807
 21
901.1715832360787
 31
0.0
  0
LINE
  5
877
330
90B
100
AcDbEntity
  8
0
100
AcDbLine
 10
111.2198007997554
 20
1042.588040155441
 30
0.0
 11
90.7819074257181
 21
1019.559427903087
 31
0.0
  0
LINE
  5
878
330
90B
100
AcDbEntity
  8
0
  6
CONTINUOUS
100
AcDbLine
 10
90.7819074257181
 20
1019.559427903087
 30
0.0
 11
18.1719450752834
 21
1084.000769489143
 31
0.0
  0
LINE
  5
879
330
90B
100
AcDbEntity
  8
0
  6
CONTINUOUS
100
AcDbLine
 10
18.17194507528343
 20
1084.000769489143
 30
0.0
 11
2.625398030136605
 21
1129.643486227171
 31
0.0
  0
ENDSEC
  0
SECTION
  2
OBJECTS
  0
DICTIONARY
  5
8FB
330
0
100
AcDbDictionary
  3
ACAD_GROUP
350
8FC
  3
ACAD_MLINESTYLE
350
905
  3
ACAD_SCALELIST
350
927
  3
APPDATA
350
966
  3
DWGPROPS
350
967
  0
DICTIONARY
  5
8FC
102
{ACAD_REACTORS
330
8FB
102
}
330
8FB
100
AcDbDictionary
  0
DICTIONARY
  5
905
102
{ACAD_REACTORS
330
8FB
102
}
330
8FB
100
AcDbDictionary
  3
STANDARD
350
906
  0
DICTIONARY
  5
927
102
{ACAD_REACTORS
330
8FB
102
}
330
8FB
100
AcDbDictionary
  0
DICTIONARY
  5
966
102
{ACAD_REACTORS
330
8FB
102
}
330
8FB
100
AcDbDictionary
  0
XRECORD
  5
967
102
{ACAD_REACTORS
330
8FB
102
}
330
8FB
100
AcDbXrecord
  1
DWGPROPS COOKIE
  2

  3

  4

  6

  7

  8
Principale
  9

300
=
301
=
302
=
303
=
304
=
305
=
306
=
307
=
308
=
309
=
 40
0.0
 41
2455531.443838414
 42
2459114.636393426
  1

 90
        0
  0
MLINESTYLE
  5
906
102
{ACAD_REACTORS
330
905
102
}
330
905
100
AcDbMlineStyle
  2
Standard
 70
     0
  3

 62
   256
 51
90.0
 52
90.0
 71
     2
 49
0.5
 62
   256
  6
BYLAYER
 49
-0.5
 62
   256
  6
BYLAYER
  0
ENDSEC
  0
EOF
