  0
SECTION
  2
HEADER
  9
$ACADVER
  1
AC1009
  9
$DWGCODEPAGE
  3
ansi_1252
  9
$INSBASE
 10
0.0
 20
0.0
 30
0.0
  9
$EXTMIN
 10
-0.0023960477562781
 20
2.930020584602718
 30
0.0
  9
$EXTMAX
 10
2399.997603952303
 20
662.9174525222786
 30
0.0
  9
$LIMMIN
 10
0.0
 20
0.0
  9
$LIMMAX
 10
12.0
 20
9.0
  9
$ORTHOMODE
 70
     0
  9
$REGENMODE
 70
     1
  9
$FILLMODE
 70
     1
  9
$QTEXTMODE
 70
     0
  9
$MIRRTEXT
 70
     0
  9
$DRAGMODE
 70
     2
  9
$LTSCALE
 40
1.0
  9
$OSMODE
 70
  1023
  9
$ATTMODE
 70
     1
  9
$TEXTSIZE
 40
0.2
  9
$TRACEWID
 40
0.05
  9
$TEXTSTYLE
  7
STANDARD
  9
$CLAYER
  8
0
  9
$CELTYPE
  6
BYLAYER
  9
$CECOLOR
 62
   256
  9
$DIMSCALE
 40
1.0
  9
$DIMASZ
 40
0.18
  9
$DIMEXO
 40
0.0625
  9
$DIMDLI
 40
0.38
  9
$DIMRND
 40
0.0
  9
$DIMDLE
 40
0.0
  9
$DIMEXE
 40
0.18
  9
$DIMTP
 40
0.0
  9
$DIMTM
 40
0.0
  9
$DIMTXT
 40
0.18
  9
$DIMCEN
 40
0.09
  9
$DIMTSZ
 40
0.0
  9
$DIMTOL
 70
     0
  9
$DIMLIM
 70
     0
  9
$DIMTIH
 70
     1
  9
$DIMTOH
 70
     1
  9
$DIMSE1
 70
     0
  9
$DIMSE2
 70
     0
  9
$DIMTAD
 70
     0
  9
$DIMZIN
 70
     0
  9
$DIMBLK
  1

  9
$DIMASO
 70
     1
  9
$DIMSHO
 70
     1
  9
$DIMPOST
  1

  9
$DIMAPOST
  1

  9
$DIMALT
 70
     0
  9
$DIMALTD
 70
     2
  9
$DIMALTF
 40
25.4
  9
$DIMLFAC
 40
1.0
  9
$DIMTOFL
 70
     0
  9
$DIMTVP
 40
0.0
  9
$DIMTIX
 70
     0
  9
$DIMSOXD
 70
     0
  9
$DIMSAH
 70
     0
  9
$DIMBLK1
  1

  9
$DIMBLK2
  1

  9
$DIMSTYLE
  2
STANDARD
  9
$DIMCLRD
 70
     0
  9
$DIMCLRE
 70
     0
  9
$DIMCLRT
 70
     0
  9
$DIMTFAC
 40
1.0
  9
$DIMGAP
 40
0.09
  9
$LUNITS
 70
     2
  9
$LUPREC
 70
     4
  9
$SKETCHINC
 40
0.1
  9
$FILLETRAD
 40
0.0
  9
$AUNITS
 70
     0
  9
$AUPREC
 70
     0
  9
$MENU
  1
.
  9
$ELEVATION
 40
0.0
  9
$PELEVATION
 40
0.0
  9
$THICKNESS
 40
0.0
  9
$LIMCHECK
 70
     0
  9
$CHAMFERA
 40
0.0
  9
$CHAMFERB
 40
0.0
  9
$SKPOLY
 70
     0
  9
$TDCREATE
 40
2452643.146717604
  9
$TDUPDATE
 40
2456828.79126772
  9
$TDINDWG
 40
0.000877963
  9
$TDUSRTIMER
 40
2456828.70705647
  9
$USRTIMER
 70
     1
  9
$ANGBASE
 50
0.0
  9
$ANGDIR
 70
     0
  9
$PDMODE
 70
     0
  9
$PDSIZE
 40
0.0
  9
$PLINEWID
 40
0.0
  9
$COORDS
 70
     1
  9
$SPLFRAME
 70
     0
  9
$SPLINETYPE
 70
     6
  9
$SPLINESEGS
 70
     8
  9
$ATTDIA
 70
     0
  9
$ATTREQ
 70
     1
  9
$HANDLING
 70
     1
  9
$HANDSEED
  5
3F1
  9
$SURFTAB1
 70
     6
  9
$SURFTAB2
 70
     6
  9
$SURFTYPE
 70
     6
  9
$SURFU
 70
     6
  9
$SURFV
 70
     6
  9
$UCSNAME
  2

  9
$UCSORG
 10
0.0
 20
0.0
 30
0.0
  9
$UCSXDIR
 10
1.0
 20
0.0
 30
0.0
  9
$UCSYDIR
 10
0.0
 20
1.0
 30
0.0
  9
$PUCSNAME
  2

  9
$PUCSORG
 10
0.0
 20
0.0
 30
0.0
  9
$PUCSXDIR
 10
1.0
 20
0.0
 30
0.0
  9
$PUCSYDIR
 10
0.0
 20
1.0
 30
0.0
  9
$USERI1
 70
     0
  9
$USERI2
 70
     0
  9
$USERI3
 70
     0
  9
$USERI4
 70
     0
  9
$USERI5
 70
     0
  9
$USERR1
 40
0.0
  9
$USERR2
 40
0.0
  9
$USERR3
 40
0.0
  9
$USERR4
 40
0.0
  9
$USERR5
 40
0.0
  9
$WORLDVIEW
 70
     1
  9
$SHADEDGE
 70
     3
  9
$SHADEDIF
 70
    70
  9
$TILEMODE
 70
     1
  9
$MAXACTVP
 70
    64
  9
$PLIMCHECK
 70
     0
  9
$PEXTMIN
 10
0.0
 20
0.0
 30
0.0
  9
$PEXTMAX
 10
0.0
 20
0.0
 30
0.0
  9
$PLIMMIN
 10
0.0
 20
0.0
  9
$PLIMMAX
 10
0.0
 20
0.0
  9
$UNITMODE
 70
     0
  9
$VISRETAIN
 70
     1
  9
$PLINEGEN
 70
     0
  9
$PSLTSCALE
 70
     1
  0
ENDSEC
  0
SECTION
  2
TABLES
  0
TABLE
  2
VPORT
 70
     1
  0
VPORT
  2
*ACTIVE
 70
     0
 10
0.0
 20
0.0
 11
1.0
 21
1.0
 12
1261.231649079502
 22
401.9565965528698
 13
0.0
 23
0.0
 14
0.5
 24
0.5
 15
0.5
 25
0.5
 16
0.0
 26
0.0
 36
1.0
 17
-27.66959356597977
 27
-19.53870295786203
 37
0.0
 40
1700.272217774261
 41
1.79971181556196
 42
50.0
 43
0.0
 44
0.0
 50
0.0
 51
0.0
 71
    16
 72
  1000
 73
     1
 74
     3
 75
     0
 76
     0
 77
     0
 78
     0
  0
ENDTAB
  0
TABLE
  2
LTYPE
 70
     1
  0
LTYPE
  2
CONTINUOUS
 70
     0
  3
Solid line
 72
    65
 73
     0
 40
0.0
  0
ENDTAB
  0
TABLE
  2
LAYER
 70
     1
  0
LAYER
  2
0
 70
     0
 62
     7
  6
CONTINUOUS
  0
ENDTAB
  0
TABLE
  2
STYLE
 70
     1
  0
STYLE
  2
STANDARD
 70
     0
 40
0.0
 41
1.0
 50
0.0
 71
     0
 42
0.2
  3
arial.ttf
  4

  0
ENDTAB
  0
TABLE
  2
VIEW
 70
     0
  0
ENDTAB
  0
TABLE
  2
UCS
 70
     0
  0
ENDTAB
  0
TABLE
  2
APPID
 70
     2
  0
APPID
  2
ACAD
 70
     0
  0
APPID
  2
ACAD_PSEXT
 70
     0
  0
ENDTAB
  0
TABLE
  2
DIMSTYLE
 70
     2
  0
DIMSTYLE
  2
STANDARD
 70
     0
  3

  4

  5

  6

  7

 40
1.0
 41
0.18
 42
0.0625
 43
0.38
 44
0.18
 45
0.0
 46
0.0
 47
0.0
 48
0.0
140
0.18
141
0.09
142
0.0
143
25.4
144
1.0
145
0.0
146
1.0
147
0.09
 71
     0
 72
     0
 73
     1
 74
     1
 75
     0
 76
     0
 77
     0
 78
     0
170
     0
171
     2
172
     0
173
     0
174
     0
175
     0
176
     0
177
     0
178
     0
  0
DIMSTYLE
  2
ISO-25
 70
     0
  3

  4

  5

  6

  7

 40
1.0
 41
2.5
 42
0.625
 43
3.75
 44
1.25
 45
0.0
 46
0.0
 47
0.0
 48
0.0
140
2.5
141
2.5
142
0.0
143
0.03937007874016
144
1.0
145
0.0
146
1.0
147
0.625
 71
     0
 72
     0
 73
     0
 74
     0
 75
     0
 76
     0
 77
     1
 78
     8
170
     0
171
     3
172
     1
173
     0
174
     0
175
     0
176
     0
177
     0
178
     0
  0
ENDTAB
  0
ENDSEC
  0
SECTION
  2
BLOCKS
  0
BLOCK
  8
0
  2
$MODEL_SPACE
 70
     0
 10
0.0
 20
0.0
 30
0.0
  3
$MODEL_SPACE
  1

  0
ENDBLK
  5
21
  8
0
  0
BLOCK
 67
     1
  8
0
  2
$PAPER_SPACE
 70
     0
 10
0.0
 20
0.0
 30
0.0
  3
$PAPER_SPACE
  1

  0
ENDBLK
  5
5B
 67
     1
  8
0
  0
ENDSEC
  0
SECTION
  2
ENTITIES
  0
LINE
  5
29E
  8
0
 10
-0.0023960477267195
 20
2.930020584602718
 30
0.0
 11
2399.997603952273
 21
2.930020584602718
 31
0.0
  0
LINE
  5
29F
  8
0
 10
2399.997603952273
 20
85.55002058460352
 30
0.0
 11
2399.997603952273
 21
32.93002058459544
 31
0.0
  0
LINE
  5
2A0
  8
0
 10
2399.997603952273
 20
28.93002058460272
 30
0.0
 11
2399.997603952273
 21
2.930020584602718
 31
0.0
  0
LINE
  5
2A1
  8
0
 10
2399.997603952273
 20
89.55002058460352
 30
0.0
 11
2391.997603952273
 21
87.55002058460352
 31
0.0
  0
LINE
  5
2A2
  8
0
 10
2391.997603952273
 20
87.55002058460352
 30
0.0
 11
2399.997603952273
 21
85.55002058460352
 31
0.0
  0
LINE
  5
2A3
  8
0
 10
2399.997603952273
 20
32.93002058460272
 30
0.0
 11
2391.997603952273
 21
30.93002058460272
 31
0.0
  0
LINE
  5
2A4
  8
0
 10
2391.997603952273
 20
30.93002058460272
 30
0.0
 11
2399.997603952273
 21
28.93002058460272
 31
0.0
  0
LINE
  5
2A5
  8
0
 10
-0.0023960477267195
 20
85.55002058460352
 30
0.0
 11
-0.0023960477267195
 21
32.93002058460999
 31
0.0
  0
LINE
  5
2A6
  8
0
 10
-0.0023960477267195
 20
28.93002058460272
 30
0.0
 11
-0.0023960477267195
 21
2.930020584602718
 31
0.0
  0
LINE
  5
2A7
  8
0
 10
-0.0023960477267195
 20
89.55002058460352
 30
0.0
 11
7.99760395227328
 21
87.55002058460352
 31
0.0
  0
LINE
  5
2A8
  8
0
 10
7.99760395227328
 20
87.55002058460352
 30
0.0
 11
-0.0023960477267195
 21
85.55002058460352
 31
0.0
  0
LINE
  5
2A9
  8
0
 10
-0.0023960477267195
 20
32.93002058460272
 30
0.0
 11
7.99760395227328
 21
30.93002058460272
 31
0.0
  0
LINE
  5
2AA
  8
0
 10
7.99760395227328
 20
30.93002058460272
 30
0.0
 11
-0.0023960477267195
 21
28.93002058460272
 31
0.0
  0
CIRCLE
  5
2AB
  8
0
 10
2384.997603952273
 20
14.93002058460272
 30
0.0
 40
3.5
  0
CIRCLE
  5
2AC
  8
0
 10
14.99760395227328
 20
14.93002058460272
 30
0.0
 40
3.5
  0
CIRCLE
  5
2AD
  8
0
 10
184.0976039522754
 20
14.93002058460272
 30
0.0
 40
3.5
  0
CIRCLE
  5
2AE
  8
0
 10
353.3976039522747
 20
14.93002058459544
 30
0.0
 40
3.5
  0
CIRCLE
  5
2AF
  8
0
 10
522.697603952274
 20
14.93002058459544
 30
0.0
 40
3.5
  0
CIRCLE
  5
2B0
  8
0
 10
691.9976039522733
 20
14.93002058459544
 30
0.0
 40
3.5
  0
CIRCLE
  5
2B1
  8
0
 10
861.2976039522725
 20
14.93002058459544
 30
0.0
 40
3.5
  0
CIRCLE
  5
2B2
  8
0
 10
1030.597603952272
 20
14.93002058460272
 30
0.0
 40
3.5
  0
CIRCLE
  5
2B3
  8
0
 10
1199.997603952273
 20
14.93002058460272
 30
0.0
 40
3.5
  0
CIRCLE
  5
2B4
  8
0
 10
1369.197603952274
 20
14.93002058460272
 30
0.0
 40
3.5
  0
CIRCLE
  5
2B5
  8
0
 10
1538.497603952273
 20
14.93002058460272
 30
0.0
 40
3.5
  0
CIRCLE
  5
2B6
  8
0
 10
1707.797603952273
 20
14.93002058459544
 30
0.0
 40
3.5
  0
CIRCLE
  5
2B7
  8
0
 10
1877.097603952272
 20
14.93002058460272
 30
0.0
 40
3.5
  0
CIRCLE
  5
2B8
  8
0
 10
2046.397603952275
 20
14.93002058460272
 30
0.0
 40
3.5
  0
CIRCLE
  5
2B9
  8
0
 10
2215.697603952274
 20
14.93002058460272
 30
0.0
 40
3.5
  0
LINE
  5
2BA
  8
0
 10
2399.997603952273
 20
662.9174525222786
 30
0.0
 11
-0.0023960477271743
 21
662.9174525222713
 31
0.0
  0
LINE
  5
2BB
  8
0
 10
2399.997603952273
 20
154.9574829537321
 30
0.0
 11
2391.997603952273
 21
152.9574829537321
 31
0.0
  0
LINE
  5
2BC
  8
0
 10
2391.997603952273
 20
152.9574829537321
 30
0.0
 11
2399.997603952273
 21
150.9574829537321
 31
0.0
  0
LINE
  5
2BD
  8
0
 10
-0.0023960477267195
 20
154.9574829537321
 30
0.0
 11
7.99760395227328
 21
152.9574829537321
 31
0.0
  0
LINE
  5
2BE
  8
0
 10
7.99760395227328
 20
152.9574829537321
 30
0.0
 11
-0.0023960477267195
 21
150.9574829537321
 31
0.0
  0
LINE
  5
2BF
  8
0
 10
2399.997603952273
 20
211.5731462752298
 30
0.0
 11
2391.997603952273
 21
209.5731462752298
 31
0.0
  0
LINE
  5
2C0
  8
0
 10
2391.997603952273
 20
209.5731462752298
 30
0.0
 11
2399.997603952273
 21
207.5731462752298
 31
0.0
  0
LINE
  5
2C1
  8
0
 10
-0.0023960477267195
 20
211.5731462752298
 30
0.0
 11
7.99760395227328
 21
209.5731462752298
 31
0.0
  0
LINE
  5
2C2
  8
0
 10
7.99760395227328
 20
209.5731462752298
 30
0.0
 11
-0.0023960477267195
 21
207.5731462752298
 31
0.0
  0
LINE
  5
2C3
  8
0
 10
2399.997603952273
 20
386.5731462752262
 30
0.0
 11
2391.997603952273
 21
384.5731462752299
 31
0.0
  0
LINE
  5
2C4
  8
0
 10
2391.997603952273
 20
384.5731462752299
 30
0.0
 11
2399.997603952273
 21
382.5731462752299
 31
0.0
  0
LINE
  5
2C5
  8
0
 10
-0.0023960477267195
 20
386.5731462752262
 30
0.0
 11
7.99760395227328
 21
384.5731462752299
 31
0.0
  0
LINE
  5
2C6
  8
0
 10
7.99760395227328
 20
384.5731462752299
 30
0.0
 11
-0.0023960477267195
 21
382.5731462752299
 31
0.0
  0
LINE
  5
2C7
  8
0
 10
2399.997603952273
 20
457.0382676710885
 30
0.0
 11
2391.997603952273
 21
455.0382676710885
 31
0.0
  0
LINE
  5
2C8
  8
0
 10
2391.997603952273
 20
455.0382676710885
 30
0.0
 11
2399.997603952273
 21
453.0382676710885
 31
0.0
  0
LINE
  5
2C9
  8
0
 10
2399.997603952273
 20
564.9174525222786
 30
0.0
 11
2391.997603952273
 21
562.9174525222786
 31
0.0
  0
LINE
  5
2CA
  8
0
 10
2399.997603952303
 20
624.9174525222786
 30
0.0
 11
2391.997603952303
 21
622.9174525222786
 31
0.0
  0
LINE
  5
2CB
  8
0
 10
2391.997603952303
 20
622.9174525222786
 30
0.0
 11
2399.997603952303
 21
620.9174525222786
 31
0.0
  0
LINE
  5
2CC
  8
0
 10
2399.997603952273
 20
564.9174525222786
 30
0.0
 11
2399.997603952273
 21
620.9174525222859
 31
0.0
  0
LINE
  5
2CD
  8
0
 10
-0.0023960477271743
 20
457.0382676710885
 30
0.0
 11
7.997603952272826
 21
455.0382676710885
 31
0.0
  0
LINE
  5
2CE
  8
0
 10
7.997603952272826
 20
455.0382676710885
 30
0.0
 11
-0.0023960477271743
 21
453.0382676710885
 31
0.0
  0
LINE
  5
2CF
  8
0
 10
-0.0023960477271743
 20
564.9174525222786
 30
0.0
 11
7.997603952272826
 21
562.9174525222786
 31
0.0
  0
LINE
  5
2D0
  8
0
 10
-0.0023960477562781
 20
624.9174525222786
 30
0.0
 11
7.997603952243722
 21
622.9174525222786
 31
0.0
  0
LINE
  5
2D1
  8
0
 10
7.997603952243722
 20
622.9174525222786
 30
0.0
 11
-0.0023960477562781
 21
620.9174525222786
 31
0.0
  0
LINE
  5
2D2
  8
0
 10
-0.0023960477271743
 20
564.9174525222786
 30
0.0
 11
-0.0023960477271743
 21
620.9174525222859
 31
0.0
  0
LINE
  5
2D3
  8
0
 10
-0.0023960477271743
 20
453.0382676710885
 30
0.0
 11
-0.0023960477267195
 21
386.5731462752335
 31
0.0
  0
LINE
  5
2D4
  8
0
 10
-0.0023960477267195
 20
382.5731462752226
 30
0.0
 11
-0.0023960477267195
 21
211.5731462752298
 31
0.0
  0
LINE
  5
2D5
  8
0
 10
-0.0023960477267195
 20
207.5731462752298
 30
0.0
 11
-0.0023960477267195
 21
154.9574829537321
 31
0.0
  0
LINE
  5
2D6
  8
0
 10
-0.0023960477267195
 20
150.9574829537393
 30
0.0
 11
-0.0023960477267195
 21
89.55002058460352
 31
0.0
  0
LINE
  5
2D7
  8
0
 10
2399.997603952273
 20
453.0382676710885
 30
0.0
 11
2399.997603952273
 21
386.5731462752335
 31
0.0
  0
LINE
  5
2D8
  8
0
 10
2399.997603952273
 20
382.5731462752153
 30
0.0
 11
2399.997603952273
 21
211.5731462752226
 31
0.0
  0
LINE
  5
2D9
  8
0
 10
2399.997603952273
 20
207.5731462752371
 30
0.0
 11
2399.997603952273
 21
154.9574829537321
 31
0.0
  0
LINE
  5
2DA
  8
0
 10
2399.997603952273
 20
150.9574829537321
 30
0.0
 11
2399.997603952273
 21
89.55002058460352
 31
0.0
  0
CIRCLE
  5
2DB
  8
0
 10
1579.810560444122
 20
284.5731462752299
 30
0.0
 40
3.5
  0
ARC
  5
2DC
  8
0
 10
1587.001438436098
 20
307.0731462752299
 30
0.0
 40
6.0
 50
270.0
 51
90.0
  0
ARC
  5
2DD
  8
0
 10
1572.110747727485
 20
307.0731462752299
 30
0.0
 40
6.0
 50
90.0
 51
270.0
  0
CIRCLE
  5
2DE
  8
0
 10
1579.810560444122
 20
329.5731462752262
 30
0.0
 40
3.5
  0
LINE
  5
2DF
  8
0
 10
1572.110747727485
 20
313.0731462752299
 30
0.0
 11
1587.001438436098
 21
313.0731462752299
 31
0.0
  0
LINE
  5
2E0
  8
0
 10
1572.110747727485
 20
301.0731462752299
 30
0.0
 11
1587.001438436098
 21
301.0731462752299
 31
0.0
  0
CIRCLE
  5
2E1
  8
0
 10
1866.931168236835
 20
307.4383091468114
 30
0.0
 40
4.0
  0
CIRCLE
  5
2E2
  8
0
 10
1866.931168236835
 20
285.4383091468151
 30
0.0
 40
4.0
  0
CIRCLE
  5
2E3
  8
0
 10
1366.406612990346
 20
257.2090464209866
 30
0.0
 40
4.0
  0
CIRCLE
  5
2E4
  8
0
 10
1366.406612990346
 20
235.2090464209902
 30
0.0
 40
4.0
  0
CIRCLE
  5
2E5
  8
0
 10
1256.41062750182
 20
257.2090464209848
 30
0.0
 40
4.0
  0
CIRCLE
  5
2E6
  8
0
 10
1256.41062750182
 20
235.2090464209884
 30
0.0
 40
4.0
  0
CIRCLE
  5
2E7
  8
0
 10
1535.394977836394
 20
369.4967525197642
 30
0.0
 40
3.5
  0
CIRCLE
  5
2E8
  8
0
 10
1390.394977836394
 20
369.4967525197642
 30
0.0
 40
3.5
  0
CIRCLE
  5
2E9
  8
0
 10
1535.394977836394
 20
224.4967525197642
 30
0.0
 40
3.5
  0
CIRCLE
  5
2EA
  8
0
 10
1390.394977836394
 20
224.4967525197642
 30
0.0
 40
3.5
  0
LINE
  5
2EB
  8
0
 10
1343.825820002441
 20
521.267912051351
 30
0.0
 11
1343.631726626985
 21
524.1845506826955
 31
0.0
  0
LINE
  5
2EC
  8
0
 10
1354.554156911023
 20
527.2743611377534
 30
0.0
 11
1355.446781368018
 21
522.8852088836591
 31
0.0
  0
LINE
  5
2ED
  8
0
 10
1332.523648966458
 20
526.8942663418582
 30
0.0
 11
1330.062861953067
 21
522.8400835560913
 31
0.0
  0
LINE
  5
2EE
  8
0
 10
1317.672899474934
 20
522.700797358282
 30
0.0
 11
1320.774490733491
 21
528.4383355784246
 31
0.0
  0
LINE
  5
2EF
  8
0
 10
1288.800420972658
 20
521.267912051351
 30
0.0
 11
1288.60632759721
 21
524.1845506826955
 31
0.0
  0
LINE
  5
2F0
  8
0
 10
1299.528757881255
 20
527.2743611377534
 30
0.0
 11
1300.421382338243
 21
522.8852088836591
 31
0.0
  0
LINE
  5
2F1
  8
0
 10
1277.498249936683
 20
526.8942663418582
 30
0.0
 11
1275.037462923295
 21
522.8400835560913
 31
0.0
  0
LINE
  5
2F2
  8
0
 10
1262.647500445162
 20
522.700797358282
 30
0.0
 11
1265.749091703712
 21
528.4383355784246
 31
0.0
  0
ARC
  5
2F3
  8
0
 10
1229.161115463759
 20
522.2788689970346
 30
0.0
 40
15.41867788361962
 50
356.8943045580704
 51
69.93627367589353
  0
LINE
  5
2F4
  8
0
 10
1268.685567234059
 20
477.8158655905588
 30
0.0
 11
1263.745989865221
 21
480.6049641127918
 31
0.0
  0
LINE
  5
2F5
  8
0
 10
1258.313919965576
 20
489.0446935125381
 30
0.0
 11
1257.398479960879
 21
493.4260295252914
 31
0.0
  0
LINE
  5
2F6
  8
0
 10
1229.956725014172
 20
494.4837347628797
 30
0.0
 11
1222.494137506104
 21
488.0721633172086
 31
0.0
  0
LINE
  5
2F7
  8
0
 10
1202.069185026992
 20
483.5496920639723
 30
0.0
 11
1221.882895943565
 21
501.8492619186306
 31
0.0
  0
LINE
  5
2F8
  8
0
 10
1241.727573956921
 20
477.134421224602
 30
0.0
 11
1201.927056830407
 21
477.134421224602
 31
0.0
  0
LINE
  5
2F9
  8
0
 10
1201.927056830407
 20
477.134421224602
 30
0.0
 11
1202.069185026992
 21
483.5496920639723
 31
0.0
  0
LINE
  5
2FA
  8
0
 10
1222.494137506104
 20
488.0721633172086
 30
0.0
 11
1241.727573956921
 21
488.0721633172086
 31
0.0
  0
LINE
  5
2FB
  8
0
 10
1260.075495581024
 20
484.9340237979175
 30
0.0
 11
1258.313919965576
 21
489.0446935125381
 31
0.0
  0
LINE
  5
2FC
  8
0
 10
1241.727573956921
 20
488.0721633172086
 30
0.0
 11
1241.727573956921
 21
477.134421224602
 31
0.0
  0
LINE
  5
2FD
  8
0
 10
1263.745989865221
 20
480.6049641127918
 30
0.0
 11
1260.075495581024
 21
484.9340237979175
 31
0.0
  0
LINE
  5
2FE
  8
0
 10
1216.86252718976
 20
517.5450950320244
 30
0.0
 11
1206.150676558105
 21
517.5450950320244
 31
0.0
  0
LINE
  5
2FF
  8
0
 10
1257.144449580819
 20
497.8969019224039
 30
0.0
 11
1258.165116525511
 21
508.5089851210375
 31
0.0
  0
LINE
  5
300
  8
0
 10
1257.398479960879
 20
493.4260295252914
 30
0.0
 11
1257.144449580819
 21
497.8969019224039
 31
0.0
  0
LINE
  5
301
  8
0
 10
1258.165116525511
 20
508.5089851210375
 30
0.0
 11
1260.285315492407
 21
516.6184412532182
 31
0.0
  0
LINE
  5
302
  8
0
 10
1260.285315492407
 20
516.6184412532182
 30
0.0
 11
1262.647500445162
 21
522.700797358282
 31
0.0
  0
ARC
  5
303
  8
0
 10
1227.063213535502
 20
521.4435147646598
 30
0.0
 40
17.4939342413439
 50
328.2125608010437
 51
0.0
  0
LINE
  5
304
  8
0
 10
1349.688129152227
 20
492.3162653726192
 30
0.0
 11
1346.260044813984
 21
486.5169259160773
 31
0.0
  0
LINE
  5
305
  8
0
 10
1324.21825752808
 20
492.4273427919559
 30
0.0
 11
1324.961003398925
 21
489.5380322898143
 31
0.0
  0
LINE
  5
306
  8
0
 10
1280.564922165171
 20
489.5377469768443
 30
0.0
 11
1283.036242063159
 21
493.7874028095555
 31
0.0
  0
LINE
  5
307
  8
0
 10
1269.192858498298
 20
492.4273427919559
 30
0.0
 11
1269.935604369149
 21
489.5380322898143
 31
0.0
  0
LINE
  5
308
  8
0
 10
1294.662730122445
 20
492.3162653726192
 30
0.0
 11
1291.234645784208
 21
486.5169259160773
 31
0.0
  0
LINE
  5
309
  8
0
 10
1313.339318995326
 20
489.0446935125381
 30
0.0
 11
1312.423878990654
 21
493.4260295252914
 31
0.0
  0
LINE
  5
30A
  8
0
 10
1335.590321194946
 20
489.5377469768443
 30
0.0
 11
1338.061641092941
 21
493.7874028095555
 31
0.0
  0
LINE
  5
30B
  8
0
 10
1323.710966263834
 20
477.8158655905588
 30
0.0
 11
1318.771388894993
 21
480.6049641127918
 31
0.0
  0
LINE
  5
30C
  8
0
 10
1282.943560106547
 20
479.063570400567
 30
0.0
 11
1278.752368706433
 21
477.4618882795346
 31
0.0
  0
LINE
  5
30D
  8
0
 10
1269.85026855971
 20
477.6334412106096
 30
0.0
 11
1268.685567234059
 21
477.8158655905588
 31
0.0
  0
LINE
  5
30E
  8
0
 10
1271.902172359741
 20
487.2154286041202
 30
0.0
 11
1269.85026855971
 21
477.6334412106096
 31
0.0
  0
LINE
  5
30F
  8
0
 10
1270.727936840665
 20
488.2741198491292
 30
0.0
 11
1271.902172359741
 21
487.2154286041202
 31
0.0
  0
LINE
  5
310
  8
0
 10
1278.179291937924
 20
487.4473353091469
 30
0.0
 11
1278.321311936253
 21
487.5126932490255
 31
0.0
  0
LINE
  5
311
  8
0
 10
1278.752368706433
 20
477.4618882795346
 30
0.0
 11
1275.970866198016
 21
477.134421224602
 31
0.0
  0
LINE
  5
312
  8
0
 10
1278.179291937924
 20
487.4473353091469
 30
0.0
 11
1275.970866198016
 21
477.134421224602
 31
0.0
  0
LINE
  5
313
  8
0
 10
1286.662957696027
 20
481.5778734285429
 30
0.0
 11
1282.943560106547
 21
479.063570400567
 31
0.0
  0
LINE
  5
314
  8
0
 10
1291.234645784208
 20
486.5169259160773
 30
0.0
 11
1286.662957696027
 21
481.5778734285429
 31
0.0
  0
LINE
  5
315
  8
0
 10
1269.935604369149
 20
489.5380322898143
 30
0.0
 11
1270.727936840665
 21
488.2741198491292
 31
0.0
  0
LINE
  5
316
  8
0
 10
1278.321311936253
 20
487.5126932490255
 30
0.0
 11
1280.564922165171
 21
489.5377469768443
 31
0.0
  0
LINE
  5
317
  8
0
 10
1318.771388894993
 20
480.6049641127918
 30
0.0
 11
1315.100894610807
 21
484.9340237979175
 31
0.0
  0
LINE
  5
318
  8
0
 10
1315.100894610807
 20
484.9340237979175
 30
0.0
 11
1313.339318995326
 21
489.0446935125381
 31
0.0
  0
LINE
  5
319
  8
0
 10
1346.260044813984
 20
486.5169259160773
 30
0.0
 11
1341.688356725803
 21
481.5778734285429
 31
0.0
  0
LINE
  5
31A
  8
0
 10
1341.688356725803
 20
481.5778734285429
 30
0.0
 11
1337.968959136322
 21
479.063570400567
 31
0.0
  0
LINE
  5
31B
  8
0
 10
1325.753335870447
 20
488.2741198491292
 30
0.0
 11
1326.927571389517
 21
487.2154286041202
 31
0.0
  0
LINE
  5
31C
  8
0
 10
1326.927571389517
 20
487.2154286041202
 30
0.0
 11
1324.875667589485
 21
477.6334412106096
 31
0.0
  0
LINE
  5
31D
  8
0
 10
1324.875667589485
 20
477.6334412106096
 30
0.0
 11
1323.710966263834
 21
477.8158655905588
 31
0.0
  0
LINE
  5
31E
  8
0
 10
1333.204690967699
 20
487.4473353091469
 30
0.0
 11
1330.996265227784
 21
477.134421224602
 31
0.0
  0
LINE
  5
31F
  8
0
 10
1333.777767736183
 20
477.4618882795346
 30
0.0
 11
1330.996265227784
 21
477.134421224602
 31
0.0
  0
LINE
  5
320
  8
0
 10
1333.204690967699
 20
487.4473353091469
 30
0.0
 11
1333.346710966025
 21
487.5126932490255
 31
0.0
  0
LINE
  5
321
  8
0
 10
1324.961003398925
 20
489.5380322898143
 30
0.0
 11
1325.753335870447
 21
488.2741198491292
 31
0.0
  0
LINE
  5
322
  8
0
 10
1333.346710966025
 20
487.5126932490255
 30
0.0
 11
1335.590321194946
 21
489.5377469768443
 31
0.0
  0
LINE
  5
323
  8
0
 10
1337.968959136322
 20
479.063570400567
 30
0.0
 11
1333.777767736183
 21
477.4618882795346
 31
0.0
  0
LINE
  5
324
  8
0
 10
1312.169848610594
 20
497.8969019224039
 30
0.0
 11
1313.19051555529
 21
508.5089851210375
 31
0.0
  0
LINE
  5
325
  8
0
 10
1299.914653689715
 20
509.4606045669659
 30
0.0
 11
1297.857642745215
 21
500.7129837738773
 31
0.0
  0
LINE
  5
326
  8
0
 10
1271.265980568898
 20
511.2393992395243
 30
0.0
 11
1269.583704621143
 21
502.431119777191
 31
0.0
  0
LINE
  5
327
  8
0
 10
1286.685901008406
 20
505.9098196810098
 30
0.0
 11
1288.249023189097
 21
514.4623311331686
 31
0.0
  0
LINE
  5
328
  8
0
 10
1269.583704621143
 20
502.431119777191
 30
0.0
 11
1269.015438852852
 21
495.4114135434809
 31
0.0
  0
LINE
  5
329
  8
0
 10
1269.015438852852
 20
495.4114135434809
 30
0.0
 11
1269.192858498298
 21
492.4273427919559
 31
0.0
  0
LINE
  5
32A
  8
0
 10
1283.036242063159
 20
493.7874028095555
 30
0.0
 11
1284.738714690787
 21
498.4125511320906
 31
0.0
  0
LINE
  5
32B
  8
0
 10
1284.738714690787
 20
498.4125511320906
 30
0.0
 11
1286.685901008406
 21
505.9098196810098
 31
0.0
  0
LINE
  5
32C
  8
0
 10
1297.857642745215
 20
500.7129837738773
 30
0.0
 11
1294.662730122445
 21
492.3162653726192
 31
0.0
  0
LINE
  5
32D
  8
0
 10
1312.423878990654
 20
493.4260295252914
 30
0.0
 11
1312.169848610594
 21
497.8969019224039
 31
0.0
  0
LINE
  5
32E
  8
0
 10
1273.276931839615
 20
518.4284854968735
 30
0.0
 11
1271.265980568898
 21
511.2393992395243
 31
0.0
  0
LINE
  5
32F
  8
0
 10
1288.249023189097
 20
514.4623311331686
 30
0.0
 11
1288.800420972658
 21
521.267912051351
 31
0.0
  0
LINE
  5
330
  8
0
 10
1275.037462923295
 20
522.8400835560913
 30
0.0
 11
1273.276931839615
 21
518.4284854968735
 31
0.0
  0
LINE
  5
331
  8
0
 10
1300.671410244469
 20
518.4114552577828
 30
0.0
 11
1299.914653689715
 21
509.4606045669659
 31
0.0
  0
LINE
  5
332
  8
0
 10
1313.19051555529
 20
508.5089851210375
 30
0.0
 11
1315.310714522185
 21
516.6184412532182
 31
0.0
  0
LINE
  5
333
  8
0
 10
1315.310714522185
 20
516.6184412532182
 30
0.0
 11
1317.672899474934
 21
522.700797358282
 31
0.0
  0
LINE
  5
334
  8
0
 10
1300.421382338243
 20
522.8852088836591
 30
0.0
 11
1300.671410244469
 21
518.4114552577828
 31
0.0
  0
LINE
  5
335
  8
0
 10
1341.711300038181
 20
505.9098196810098
 30
0.0
 11
1343.274422218876
 21
514.4623311331686
 31
0.0
  0
LINE
  5
336
  8
0
 10
1354.94005271949
 20
509.4606045669659
 30
0.0
 11
1352.88304177499
 21
500.7129837738773
 31
0.0
  0
LINE
  5
337
  8
0
 10
1326.291379598699
 20
511.2393992395243
 30
0.0
 11
1324.609103650919
 21
502.431119777191
 31
0.0
  0
LINE
  5
338
  8
0
 10
1338.061641092941
 20
493.7874028095555
 30
0.0
 11
1339.764113720555
 21
498.4125511320906
 31
0.0
  0
LINE
  5
339
  8
0
 10
1339.764113720555
 20
498.4125511320906
 30
0.0
 11
1341.711300038181
 21
505.9098196810098
 31
0.0
  0
LINE
  5
33A
  8
0
 10
1324.040837882605
 20
495.4114135434809
 30
0.0
 11
1324.21825752808
 21
492.4273427919559
 31
0.0
  0
LINE
  5
33B
  8
0
 10
1324.609103650919
 20
502.431119777191
 30
0.0
 11
1324.040837882605
 21
495.4114135434809
 31
0.0
  0
LINE
  5
33C
  8
0
 10
1352.88304177499
 20
500.7129837738773
 30
0.0
 11
1349.688129152227
 21
492.3162653726192
 31
0.0
  0
LINE
  5
33D
  8
0
 10
1343.274422218876
 20
514.4623311331686
 30
0.0
 11
1343.825820002441
 21
521.267912051351
 31
0.0
  0
LINE
  5
33E
  8
0
 10
1328.30233086939
 20
518.4284854968735
 30
0.0
 11
1326.291379598699
 21
511.2393992395243
 31
0.0
  0
LINE
  5
33F
  8
0
 10
1330.062861953067
 20
522.8400835560913
 30
0.0
 11
1328.30233086939
 21
518.4284854968735
 31
0.0
  0
LINE
  5
340
  8
0
 10
1355.696809274219
 20
518.4114552577828
 30
0.0
 11
1354.94005271949
 21
509.4606045669659
 31
0.0
  0
LINE
  5
341
  8
0
 10
1355.446781368018
 20
522.8852088836591
 30
0.0
 11
1355.696809274219
 21
518.4114552577828
 31
0.0
  0
LINE
  5
342
  8
0
 10
1265.749091703712
 20
528.4383355784246
 30
0.0
 11
1269.84639362438
 21
533.5035162130532
 31
0.0
  0
LINE
  5
343
  8
0
 10
1320.774490733491
 20
528.4383355784246
 30
0.0
 11
1324.871792654156
 21
533.5035162130532
 31
0.0
  0
LINE
  5
344
  8
0
 10
1289.218906849857
 20
538.572990508708
 30
0.0
 11
1294.143681407831
 21
535.7550924183322
 31
0.0
  0
LINE
  5
345
  8
0
 10
1288.60632759721
 20
524.1845506826955
 30
0.0
 11
1287.785166034153
 21
526.9810113430738
 31
0.0
  0
LINE
  5
346
  8
0
 10
1278.542515286155
 20
538.7535179380081
 30
0.0
 11
1283.073551124455
 21
539.3835714238392
 31
0.0
  0
LINE
  5
347
  8
0
 10
1273.871491514082
 20
536.6677583749276
 30
0.0
 11
1278.542515286155
 21
538.7535179380081
 31
0.0
  0
LINE
  5
348
  8
0
 10
1279.611614956726
 20
528.8809182839193
 30
0.0
 11
1277.498249936683
 21
526.8942663418582
 31
0.0
  0
LINE
  5
349
  8
0
 10
1280.96539938322
 20
529.538917201791
 30
0.0
 11
1279.611614956726
 21
528.8809182839193
 31
0.0
  0
LINE
  5
34A
  8
0
 10
1283.073551124455
 20
539.3835714238392
 30
0.0
 11
1280.96539938322
 21
529.538917201791
 31
0.0
  0
LINE
  5
34B
  8
0
 10
1269.84639362438
 20
533.5035162130532
 30
0.0
 11
1273.871491514082
 21
536.6677583749276
 31
0.0
  0
LINE
  5
34C
  8
0
 10
1289.218906849857
 20
538.572990508708
 30
0.0
 11
1286.868955280077
 21
528.0263549482349
 31
0.0
  0
LINE
  5
34D
  8
0
 10
1287.785166034153
 20
526.9810113430738
 30
0.0
 11
1286.868955280077
 21
528.0263549482349
 31
0.0
  0
LINE
  5
34E
  8
0
 10
1297.783512078111
 20
531.3943959368496
 30
0.0
 11
1299.528757881255
 21
527.2743611377534
 31
0.0
  0
LINE
  5
34F
  8
0
 10
1294.143681407831
 20
535.7550924183322
 30
0.0
 11
1297.783512078111
 21
531.3943959368496
 31
0.0
  0
LINE
  5
350
  8
0
 10
1344.244305879636
 20
538.572990508708
 30
0.0
 11
1349.169080437581
 21
535.7550924183322
 31
0.0
  0
LINE
  5
351
  8
0
 10
1343.631726626985
 20
524.1845506826955
 30
0.0
 11
1342.810565063924
 21
526.9810113430738
 31
0.0
  0
LINE
  5
352
  8
0
 10
1342.810565063924
 20
526.9810113430738
 30
0.0
 11
1341.894354309856
 21
528.0263549482349
 31
0.0
  0
LINE
  5
353
  8
0
 10
1344.244305879636
 20
538.572990508708
 30
0.0
 11
1341.894354309856
 21
528.0263549482349
 31
0.0
  0
LINE
  5
354
  8
0
 10
1328.896890543858
 20
536.6677583749276
 30
0.0
 11
1333.567914315934
 21
538.7535179380081
 31
0.0
  0
LINE
  5
355
  8
0
 10
1335.990798412995
 20
529.538917201791
 30
0.0
 11
1334.637013986501
 21
528.8809182839193
 31
0.0
  0
LINE
  5
356
  8
0
 10
1334.637013986501
 20
528.8809182839193
 30
0.0
 11
1332.523648966458
 21
526.8942663418582
 31
0.0
  0
LINE
  5
357
  8
0
 10
1324.871792654156
 20
533.5035162130532
 30
0.0
 11
1328.896890543858
 21
536.6677583749276
 31
0.0
  0
LINE
  5
358
  8
0
 10
1338.098950154233
 20
539.3835714238392
 30
0.0
 11
1335.990798412995
 21
529.538917201791
 31
0.0
  0
LINE
  5
359
  8
0
 10
1333.567914315934
 20
538.7535179380081
 30
0.0
 11
1338.098950154233
 21
539.3835714238392
 31
0.0
  0
LINE
  5
35A
  8
0
 10
1352.808911107893
 20
531.3943959368496
 30
0.0
 11
1354.554156911023
 21
527.2743611377534
 31
0.0
  0
LINE
  5
35B
  8
0
 10
1349.169080437581
 20
535.7550924183322
 30
0.0
 11
1352.808911107893
 21
531.3943959368496
 31
0.0
  0
LINE
  5
35C
  8
0
 10
1221.882895943565
 20
501.8492619186306
 30
0.0
 11
1226.055801815813
 21
506.2558574991579
 31
0.0
  0
LINE
  5
35D
  8
0
 10
1226.055801815813
 20
506.2558574991579
 30
0.0
 11
1229.793105803646
 21
511.0330585950448
 31
0.0
  0
LINE
  5
35E
  8
0
 10
1229.793105803646
 20
511.0330585950448
 30
0.0
 11
1231.983565636748
 21
515.2604193301247
 31
0.0
  0
LINE
  5
35F
  8
0
 10
1231.983565636748
 20
515.2604193301247
 30
0.0
 11
1233.002934088354
 21
519.8979496515983
 31
0.0
  0
LINE
  5
360
  8
0
 10
1241.93320101543
 20
512.2282444166356
 30
0.0
 11
1240.971038339952
 21
509.6049157684336
 31
0.0
  0
LINE
  5
361
  8
0
 10
1240.971038339952
 20
509.6049157684336
 30
0.0
 11
1238.233816499438
 21
504.731226945705
 31
0.0
  0
LINE
  5
362
  8
0
 10
1238.233816499438
 20
504.731226945705
 30
0.0
 11
1234.304353251244
 21
499.4397480779751
 31
0.0
  0
LINE
  5
363
  8
0
 10
1234.304353251244
 20
499.4397480779751
 30
0.0
 11
1229.956725014172
 21
494.4837347628797
 31
0.0
  0
LINE
  5
364
  8
0
 10
1206.150676558105
 20
517.5450950320244
 30
0.0
 11
1207.102598729872
 21
523.806147639423
 31
0.0
  0
LINE
  5
365
  8
0
 10
1207.102598729872
 20
523.806147639423
 30
0.0
 11
1210.457128954747
 21
529.389495184734
 31
0.0
  0
LINE
  5
366
  8
0
 10
1210.457128954747
 20
529.389495184734
 30
0.0
 11
1213.753204559232
 21
534.093160227292
 31
0.0
  0
LINE
  5
367
  8
0
 10
1213.753204559232
 20
534.093160227292
 30
0.0
 11
1217.664591495062
 21
536.7900767232366
 31
0.0
  0
LINE
  5
368
  8
0
 10
1217.664591495062
 20
536.7900767232366
 30
0.0
 11
1222.160668808863
 21
538.3270766610965
 31
0.0
  0
LINE
  5
369
  8
0
 10
1222.160668808863
 20
538.3270766610965
 30
0.0
 11
1226.901470545776
 21
538.7076783766549
 31
0.0
  0
LINE
  5
36A
  8
0
 10
1226.505063694714
 20
528.0117921016952
 30
0.0
 11
1223.746417736389
 21
527.5611062192781
 31
0.0
  0
LINE
  5
36B
  8
0
 10
1223.746417736389
 20
527.5611062192781
 30
0.0
 11
1221.389444696169
 21
526.0597986744849
 31
0.0
  0
LINE
  5
36C
  8
0
 10
1221.389444696169
 20
526.0597986744849
 30
0.0
 11
1219.644377697676
 21
523.867383808132
 31
0.0
  0
LINE
  5
36D
  8
0
 10
1219.644377697676
 20
523.867383808132
 30
0.0
 11
1217.337474513215
 21
520.8202412148837
 31
0.0
  0
LINE
  5
36E
  8
0
 10
1217.337474513215
 20
520.8202412148837
 30
0.0
 11
1216.86252718976
 21
517.5450950320244
 31
0.0
  0
LINE
  5
36F
  8
0
 10
1233.002934088354
 20
519.8979496515983
 30
0.0
 11
1232.434262469423
 21
523.3227839930057
 31
0.0
  0
LINE
  5
370
  8
0
 10
1232.434262469423
 20
523.3227839930057
 30
0.0
 11
1231.54220966279
 21
526.1290624561532
 31
0.0
  0
LINE
  5
371
  8
0
 10
1231.54220966279
 20
526.1290624561532
 30
0.0
 11
1229.20019922533
 21
527.5355542506893
 31
0.0
  0
LINE
  5
372
  8
0
 10
1229.20019922533
 20
527.5355542506893
 30
0.0
 11
1226.505063694714
 21
528.0117921016952
 31
0.0
  0
LINE
  5
373
  8
0
 10
1226.901470545776
 20
538.7076783766549
 30
0.0
 11
1232.093544726749
 21
537.9124933889705
 31
0.0
  0
LINE
  5
374
  8
0
 10
1232.093544726749
 20
537.9124933889705
 30
0.0
 11
1234.45072557654
 21
536.7618125008173
 31
0.0
  0
ARC
  5
375
  8
0
 10
1407.651922402181
 20
525.743366375247
 30
0.0
 40
22.31708755770748
 50
296.9083734910303
 51
355.1666357416387
  0
LINE
  5
376
  8
0
 10
1397.534584635245
 20
512.6048912489512
 30
0.0
 11
1395.720001318446
 21
503.6680176324314
 31
0.0
  0
LINE
  5
377
  8
0
 10
1371.320455175219
 20
476.8958384456653
 30
0.0
 11
1384.600863937272
 21
540.1219922007165
 31
0.0
  0
LINE
  5
378
  8
0
 10
1396.995914287932
 20
540.1219922007165
 30
0.0
 11
1384.158185719205
 21
476.8958384456653
 31
0.0
  0
ARC
  5
379
  8
0
 10
1034.603491673058
 20
523.3976382941344
 30
0.0
 40
22.80030344270477
 50
304.4666559997741
 51
2.090771000006103
  0
LINE
  5
37A
  8
0
 10
1064.023891618211
 20
496.7165234605507
 30
0.0
 11
1073.320177652886
 21
540.0463361677118
 31
0.0
  0
LINE
  5
37B
  8
0
 10
998.8194221687461
 20
477.2623233687498
 30
0.0
 11
1012.099830930778
 21
540.4884771237864
 31
0.0
  0
LINE
  5
37C
  8
0
 10
1024.49488128146
 20
540.4884771237864
 30
0.0
 11
1011.657152712707
 21
477.2623233687498
 31
0.0
  0
LINE
  5
37D
  8
0
 10
1085.715227015933
 20
540.0463361677118
 30
0.0
 11
1076.418940981259
 21
494.9479606238908
 31
0.0
  0
LINE
  5
37E
  8
0
 10
1125.113778046843
 20
540.0463361677118
 30
0.0
 11
1115.374811818872
 21
493.1793967996216
 31
0.0
  0
LINE
  5
37F
  8
0
 10
1102.537081274911
 20
494.5058196678308
 30
0.0
 11
1113.161407889483
 21
540.0463361677118
 31
0.0
  0
ARC
  5
380
  8
0
 10
1400.862543388777
 20
545.028879028732
 30
0.0
 40
42.67106433327207
 50
284.2350083562948
 51
293.3160311797889
  0
LINE
  5
381
  8
0
 10
1395.720001318446
 20
503.6680176324314
 30
0.0
 11
1411.355344534813
 21
503.6680176324314
 31
0.0
  0
LINE
  5
382
  8
0
 10
1394.767663965047
 20
498.9777295157708
 30
0.0
 11
1408.178657990431
 21
498.9777295157708
 31
0.0
  0
LINE
  5
383
  8
0
 10
1409.823145683824
 20
476.3663330200814
 30
0.0
 11
1421.790764676452
 21
476.3663330200814
 31
0.0
  0
LINE
  5
384
  8
0
 10
1384.158185719205
 20
476.8958384456653
 30
0.0
 11
1371.320455175219
 21
476.8958384456653
 31
0.0
  0
ARC
  5
385
  8
0
 10
1375.347111418637
 20
463.8101154892227
 30
0.0
 40
48.11103331478477
 50
15.1284666173472
 51
46.967585858795
  0
ARC
  5
386
  8
0
 10
1365.348266982311
 20
463.0712969237045
 30
0.0
 40
46.41953059129924
 50
16.64317313473013
 51
50.67103741361207
  0
ARC
  5
387
  8
0
 10
1035.228517999889
 20
524.1321761981251
 30
0.0
 40
23.07097090762934
 50
270.0
 51
302.1539260006175
  0
ARC
  5
388
  8
0
 10
1090.855512897966
 20
498.6627610165904
 30
0.0
 40
12.3991598124682
 50
300.0203690009088
 51
340.4116560005867
  0
ARC
  5
389
  8
0
 10
1092.977923012526
 20
496.3194769592099
 30
0.0
 40
9.332122595859792
 50
266.6938100007704
 51
295.9320860000183
  0
ARC
  5
38A
  8
0
 10
1088.810647270971
 20
503.5164827989518
 30
0.0
 40
28.50456333004339
 50
321.0659220004231
 51
338.7371739995289
  0
ARC
  5
38B
  8
0
 10
1092.927585315121
 20
499.7441183373028
 30
0.0
 40
22.93410242302885
 50
271.9997839989773
 51
321.9333999996951
  0
ARC
  5
38C
  8
0
 10
1083.698282223993
 20
494.1823958388575
 30
0.0
 40
7.319487751369861
 50
173.9962959999701
 51
245.923392001062
  0
ARC
  5
38D
  8
0
 10
1084.732818740742
 20
502.6724777604848
 30
0.0
 40
15.69644342867865
 50
255.1585090002297
 51
270.3577580001387
  0
ARC
  5
38E
  8
0
 10
1082.408261819813
 20
496.0617906925488
 30
0.0
 40
19.41979557090887
 50
208.5760770000647
 51
242.3853309990091
  0
LINE
  5
38F
  8
0
 10
1011.657152712707
 20
477.2623233687498
 30
0.0
 11
998.8194221687461
 21
477.2623233687498
 31
0.0
  0
ARC
  5
390
  8
0
 10
1087.489527889882
 20
517.0978659363916
 30
0.0
 40
40.75417270668444
 50
249.7843539992574
 51
278.8050469997207
  0
LINE
  5
391
  8
0
 10
1084.830827577736
 20
486.9763404921412
 30
0.0
 11
1092.439721781853
 21
487.0028875561563
 31
0.0
  0
ARC
  5
392
  8
0
 10
1076.000328940847
 20
493.2578637186105
 30
0.0
 40
12.46584745942972
 50
163.8918750001601
 51
211.3473690005704
  0
ARC
  5
393
  8
0
 10
1415.624943140037
 20
523.9981489423533
 30
0.0
 40
16.15017304728918
 50
41.25752000017062
 51
93.27208200001279
  0
ARC
  5
394
  8
0
 10
1404.99460689433
 20
522.0570025364302
 30
0.0
 40
11.56560866807883
 50
359.2522819998946
 51
24.03434200047786
  0
ARC
  5
395
  8
0
 10
1410.949753326034
 20
523.3142055154037
 30
0.0
 40
5.758164846446565
 50
36.84982800005743
 51
87.89072300076297
  0
ARC
  5
396
  8
0
 10
1409.292011642616
 20
525.408800469582
 30
0.0
 40
20.65556238826704
 50
355.7080629998118
 51
26.57138499969348
  0
ARC
  5
397
  8
0
 10
1407.407574193157
 20
523.820530879924
 30
0.0
 40
10.81259249399882
 50
271.5070526822733
 51
303.558483080314
  0
ARC
  5
398
  8
0
 10
1407.920359174235
 20
521.5128682436496
 30
0.0
 40
8.647815549247351
 50
309.1881349433916
 51
2.606061955545318
  0
LINE
  5
399
  8
0
 10
1384.600863937272
 20
540.1219922007165
 30
0.0
 11
1396.995914287932
 21
540.1219922007165
 31
0.0
  0
LINE
  5
39A
  8
0
 10
1403.44852484849
 20
540.1219922007165
 30
0.0
 11
1401.204167121466
 21
529.0684682989829
 31
0.0
  0
LINE
  5
39B
  8
0
 10
1397.534584635245
 20
512.6048912489512
 30
0.0
 11
1399.677966732839
 21
512.6048912489512
 31
0.0
  0
ARC
  5
39C
  8
0
 10
1392.265393995158
 20
737.7818463758902
 30
0.0
 40
225.2989277557971
 50
271.8854321148389
 51
273.9261988870859
  0
LINE
  5
39D
  8
0
 10
1403.44852484849
 20
540.1219922007165
 30
0.0
 11
1414.70346472227
 21
540.1224158871062
 31
0.0
  0
LINE
  5
39E
  8
0
 10
1401.204167121466
 20
529.0684682989829
 30
0.0
 11
1411.161686399426
 21
529.0684682989829
 31
0.0
  0
LINE
  5
39F
  8
0
 10
1113.161407889483
 20
540.0463361677118
 30
0.0
 11
1125.113778046843
 21
540.0463361677118
 31
0.0
  0
LINE
  5
3A0
  8
0
 10
1073.320177652886
 20
540.0463361677118
 30
0.0
 11
1085.715227015933
 21
540.0463361677118
 31
0.0
  0
ARC
  5
3A1
  8
0
 10
1043.123910133561
 20
524.3646338654232
 30
0.0
 40
16.15017304728918
 50
41.25752000017062
 51
93.27208200001279
  0
ARC
  5
3A2
  8
0
 10
1038.448720319537
 20
523.6806904384882
 30
0.0
 40
5.758164846446565
 50
36.84982800005743
 51
87.89072300076297
  0
ARC
  5
3A3
  8
0
 10
1032.493573887832
 20
522.4234874595002
 30
0.0
 40
11.56560866807883
 50
359.2522819998946
 51
24.03434200047786
  0
ARC
  5
3A4
  8
0
 10
1036.790978636139
 20
525.7752853926374
 30
0.0
 40
20.65556238826704
 50
355.7080629998118
 51
26.57138499969348
  0
LINE
  5
3A5
  8
0
 10
1012.099830930778
 20
540.4884771237864
 30
0.0
 11
1024.49488128146
 21
540.4884771237864
 31
0.0
  0
LINE
  5
3A6
  8
0
 10
1030.947491841993
 20
540.4884771237864
 30
0.0
 11
1028.703134114994
 21
529.4349532220529
 31
0.0
  0
LINE
  5
3A7
  8
0
 10
1028.703134114994
 20
529.4349532220529
 30
0.0
 11
1038.660653392931
 21
529.4349532220529
 31
0.0
  0
LINE
  5
3A8
  8
0
 10
1030.947491841993
 20
540.4884771237864
 30
0.0
 11
1042.202431715768
 21
540.4889008101907
 31
0.0
  0
ARC
  5
3A9
  8
0
 10
1032.295622465672
 20
524.9384919115271
 30
0.0
 40
13.0104770695446
 50
285.8747364920212
 51
319.0333274765548
  0
LINE
  5
3AA
  8
0
 10
1025.033551628747
 20
511.3621712834008
 30
0.0
 11
1027.176933726348
 21
511.3621712834008
 31
0.0
  0
ARC
  5
3AB
  8
0
 10
1028.17491667413
 20
539.1894388162489
 30
0.0
 40
27.8451561850235
 50
267.946055000294
 51
286.0093397937946
  0
ARC
  5
3AC
  8
0
 10
1035.393987371737
 20
521.8843133624193
 30
0.0
 40
8.672904755676093
 50
320.8492608838313
 51
2.565716062661008
  0
LINE
  5
3AD
  8
0
 10
1025.033551628747
 20
511.3621712834008
 30
0.0
 11
1022.941996814448
 21
501.0612052904924
 31
0.0
  0
LINE
  5
3AE
  8
0
 10
1035.228517999889
 20
501.0612052904924
 30
0.0
 11
1022.941996814448
 21
501.0612052904924
 31
0.0
  0
ARC
  5
3AF
  8
0
 10
1164.631687703813
 20
523.3976382941344
 30
0.0
 40
22.80030344270477
 50
304.4666559997741
 51
2.090771000006103
  0
LINE
  5
3B0
  8
0
 10
1128.847618199501
 20
477.2623233687498
 30
0.0
 11
1142.128026961525
 21
540.4884771237864
 31
0.0
  0
LINE
  5
3B1
  8
0
 10
1154.523077312215
 20
540.4884771237864
 30
0.0
 11
1141.685348743462
 21
477.2623233687498
 31
0.0
  0
ARC
  5
3B2
  8
0
 10
1165.256714030651
 20
524.1321761981251
 30
0.0
 40
23.07097090762934
 50
270.0
 51
302.1539260006115
  0
LINE
  5
3B3
  8
0
 10
1141.685348743462
 20
477.2623233687498
 30
0.0
 11
1128.847618199501
 21
477.2623233687498
 31
0.0
  0
ARC
  5
3B4
  8
0
 10
1173.15210616432
 20
524.3646338654232
 30
0.0
 40
16.15017304728918
 50
41.25752000017062
 51
93.27208199999984
  0
ARC
  5
3B5
  8
0
 10
1168.476916350288
 20
523.6806904384882
 30
0.0
 40
5.758164846446565
 50
36.84982800005743
 51
87.89072300079924
  0
ARC
  5
3B6
  8
0
 10
1162.52176991859
 20
522.4234874595002
 30
0.0
 40
11.56560866807883
 50
359.2522819998946
 51
24.03434200047786
  0
ARC
  5
3B7
  8
0
 10
1166.819174666894
 20
525.7752853926374
 30
0.0
 40
20.65556238826704
 50
355.7080629998118
 51
26.57138499969348
  0
LINE
  5
3B8
  8
0
 10
1142.128026961525
 20
540.4884771237864
 30
0.0
 11
1154.523077312215
 21
540.4884771237864
 31
0.0
  0
LINE
  5
3B9
  8
0
 10
1160.975687872744
 20
540.4884771237864
 30
0.0
 11
1158.731330145752
 21
529.4349532220529
 31
0.0
  0
LINE
  5
3BA
  8
0
 10
1158.731330145752
 20
529.4349532220529
 30
0.0
 11
1168.688849423683
 21
529.4349532220529
 31
0.0
  0
LINE
  5
3BB
  8
0
 10
1160.975687872744
 20
540.4884771237864
 30
0.0
 11
1172.230627746527
 21
540.4889008101907
 31
0.0
  0
ARC
  5
3BC
  8
0
 10
1162.323818496426
 20
524.9384919115271
 30
0.0
 40
13.0104770695446
 50
285.8747364920212
 51
319.0333274765548
  0
LINE
  5
3BD
  8
0
 10
1155.061747659505
 20
511.3621712834008
 30
0.0
 11
1157.205129757096
 21
511.3621712834008
 31
0.0
  0
ARC
  5
3BE
  8
0
 10
1158.203112704881
 20
539.1894388162489
 30
0.0
 40
27.8451561850235
 50
267.946055000294
 51
286.0093397937946
  0
ARC
  5
3BF
  8
0
 10
1165.422183402492
 20
521.8843133624193
 30
0.0
 40
8.672904755676093
 50
320.8492608838313
 51
2.565716062661008
  0
LINE
  5
3C0
  8
0
 10
1155.061747659505
 20
511.3621712834008
 30
0.0
 11
1152.970192845203
 21
501.0612052904924
 31
0.0
  0
LINE
  5
3C1
  8
0
 10
1165.256714030651
 20
501.0612052904924
 30
0.0
 11
1152.970192845203
 21
501.0612052904924
 31
0.0
  0
CIRCLE
  5
3C2
  8
0
 10
1659.997603952273
 20
648.9425417414766
 30
0.0
 40
5.75
  0
CIRCLE
  5
3C3
  8
0
 10
1659.997603952273
 20
237.0731462752298
 30
0.0
 40
5.75
  0
CIRCLE
  5
3C4
  8
0
 10
1659.997603952273
 20
357.0731462752299
 30
0.0
 40
5.75
  0
CIRCLE
  5
3C5
  8
0
 10
1659.997603952273
 20
15.43002058460272
 30
0.0
 40
5.75
  0
LINE
  5
3C6
  8
0
 10
-0.0023960477271743
 20
624.9174525222713
 30
0.0
 11
-0.0023960477271743
 21
662.9174525222786
 31
0.0
  0
LINE
  5
3C7
  8
0
 10
2399.997603952273
 20
624.9174525222713
 30
0.0
 11
2399.997603952273
 21
662.9174525222786
 31
0.0
  0
LINE
  5
3C8
  8
0
 10
2399.997603952273
 20
457.0382676710885
 30
0.0
 11
2399.997603952273
 21
560.917452522275
 31
0.0
  0
LINE
  5
3C9
  8
0
 10
2391.997603952273
 20
562.9174525222786
 30
0.0
 11
2399.997603952273
 21
560.917452522275
 31
0.0
  0
LINE
  5
3CA
  8
0
 10
7.997603952272826
 20
562.9174525222786
 30
0.0
 11
-0.0023960477271743
 21
560.917452522275
 31
0.0
  0
LINE
  5
3CB
  8
0
 10
-0.0023960477271743
 20
457.0382676710885
 30
0.0
 11
-0.0023960477271743
 21
560.917452522275
 31
0.0
  0
CIRCLE
  5
3CC
  8
0
 10
2089.997603952273
 20
297.0731462752299
 30
0.0
 40
17.5
  0
CIRCLE
  5
3CD
  8
0
 10
2164.997603952273
 20
297.0731462752299
 30
0.0
 40
5.0
  0
CIRCLE
  5
3CE
  8
0
 10
2014.997603952273
 20
297.0731462752299
 30
0.0
 40
5.0
  0
CIRCLE
  5
3CF
  8
0
 10
1725.558438003388
 20
308.222215017551
 30
0.0
 40
4.0
  0
CIRCLE
  5
3D0
  8
0
 10
1725.558438003388
 20
286.2222150175546
 30
0.0
 40
4.0
  0
CIRCLE
  5
3D1
  8
0
 10
1579.181063619091
 20
257.2090464209866
 30
0.0
 40
4.0
  0
CIRCLE
  5
3D2
  8
0
 10
1579.181063619091
 20
235.2090464209902
 30
0.0
 40
4.0
  0
CIRCLE
  5
3D3
  8
0
 10
820.1846474604242
 20
284.5731462752299
 30
0.0
 40
3.5
  0
ARC
  5
3D4
  8
0
 10
812.9937694684484
 20
307.0731462752299
 30
0.0
 40
6.0
 50
90.0
 51
270.0
  0
ARC
  5
3D5
  8
0
 10
827.8844601770613
 20
307.0731462752299
 30
0.0
 40
6.0
 50
270.0
 51
90.0
  0
CIRCLE
  5
3D6
  8
0
 10
820.1846474604242
 20
329.5731462752262
 30
0.0
 40
3.5
  0
LINE
  5
3D7
  8
0
 10
827.8844601770613
 20
313.0731462752299
 30
0.0
 11
812.9937694684484
 21
313.0731462752299
 31
0.0
  0
LINE
  5
3D8
  8
0
 10
827.8844601770613
 20
301.0731462752299
 30
0.0
 11
812.9937694684484
 21
301.0731462752299
 31
0.0
  0
CIRCLE
  5
3D9
  8
0
 10
533.0640396677115
 20
307.4383091468114
 30
0.0
 40
4.0
  0
CIRCLE
  5
3DA
  8
0
 10
533.0640396677115
 20
285.4383091468151
 30
0.0
 40
4.0
  0
CIRCLE
  5
3DB
  8
0
 10
1033.588594914201
 20
257.2090464209866
 30
0.0
 40
4.0
  0
CIRCLE
  5
3DC
  8
0
 10
1033.588594914201
 20
235.2090464209902
 30
0.0
 40
4.0
  0
CIRCLE
  5
3DD
  8
0
 10
1143.584580402726
 20
257.2090464209848
 30
0.0
 40
4.0
  0
CIRCLE
  5
3DE
  8
0
 10
1143.584580402726
 20
235.2090464209884
 30
0.0
 40
4.0
  0
CIRCLE
  5
3DF
  8
0
 10
864.6002300681528
 20
369.4967525197642
 30
0.0
 40
3.5
  0
CIRCLE
  5
3E0
  8
0
 10
1009.600230068153
 20
369.4967525197642
 30
0.0
 40
3.5
  0
CIRCLE
  5
3E1
  8
0
 10
864.6002300681528
 20
224.4967525197642
 30
0.0
 40
3.5
  0
CIRCLE
  5
3E2
  8
0
 10
1009.600230068153
 20
224.4967525197642
 30
0.0
 40
3.5
  0
CIRCLE
  5
3E3
  8
0
 10
739.9976039522733
 20
237.0731462752298
 30
0.0
 40
5.75
  0
CIRCLE
  5
3E4
  8
0
 10
739.9976039522733
 20
357.0731462752299
 30
0.0
 40
5.75
  0
CIRCLE
  5
3E5
  8
0
 10
309.9976039522733
 20
297.0731462752299
 30
0.0
 40
17.5
  0
CIRCLE
  5
3E6
  8
0
 10
234.9976039522733
 20
297.0731462752299
 30
0.0
 40
5.0
  0
CIRCLE
  5
3E7
  8
0
 10
384.9976039522733
 20
297.0731462752299
 30
0.0
 40
5.0
  0
CIRCLE
  5
3E8
  8
0
 10
674.4367699011589
 20
308.222215017551
 30
0.0
 40
4.0
  0
CIRCLE
  5
3E9
  8
0
 10
674.4367699011589
 20
286.2222150175546
 30
0.0
 40
4.0
  0
CIRCLE
  5
3EA
  8
0
 10
820.8141442854555
 20
257.2090464209866
 30
0.0
 40
4.0
  0
CIRCLE
  5
3EB
  8
0
 10
820.8141442854555
 20
235.2090464209902
 30
0.0
 40
4.0
  0
CIRCLE
  5
3EC
  8
0
 10
739.9976039522733
 20
648.9425417414766
 30
0.0
 40
5.75
  0
CIRCLE
  5
3ED
  8
0
 10
739.9976039522733
 20
15.43002058460272
 30
0.0
 40
5.75
  0
ENDSEC
  0
EOF
