  0
SECTION
  2
HEADER
  9
$ACADVER
  1
AC1009
  9
$DWGCODEPAGE
  3
ansi_1252
  9
$INSBASE
 10
0.0
 20
0.0
 30
0.0
  9
$EXTMIN
 10
-946.9096633583
 20
-7159.0930551399
 30
0.0
  9
$EXTMAX
 10
825.197403689
 20
-3063.3139449657
 30
0.0
  9
$LIMMIN
 10
0.0
 20
0.0
  9
$LIMMAX
 10
420.0
 20
297.0
  9
$ORTHOMODE
 70
     0
  9
$REGENMODE
 70
     1
  9
$FILLMODE
 70
     1
  9
$QTEXTMODE
 70
     0
  9
$MIRRTEXT
 70
     1
  9
$DRAGMODE
 70
     2
  9
$LTSCALE
 40
1.0
  9
$OSMODE
 70
  1023
  9
$ATTMODE
 70
     1
  9
$TEXTSIZE
 40
3.5
  9
$TRACEWID
 40
1.0
  9
$TEXTSTYLE
  7
STANDARD
  9
$CLAYER
  8
0
  9
$CELTYPE
  6
BYLAYER
  9
$CECOLOR
 62
   256
  9
$DIMSCALE
 40
1.0
  9
$DIMASZ
 40
6.0
  9
$DIMEXO
 40
1.0
  9
$DIMDLI
 40
3.75
  9
$DIMRND
 40
0.0
  9
$DIMDLE
 40
0.0
  9
$DIMEXE
 40
1.0
  9
$DIMTP
 40
0.0
  9
$DIMTM
 40
0.0
  9
$DIMTXT
 40
3.5
  9
$DIMCEN
 40
2.5
  9
$DIMTSZ
 40
0.0
  9
$DIMTOL
 70
     0
  9
$DIMLIM
 70
     0
  9
$DIMTIH
 70
     1
  9
$DIMTOH
 70
     1
  9
$DIMSE1
 70
     0
  9
$DIMSE2
 70
     0
  9
$DIMTAD
 70
     1
  9
$DIMZIN
 70
     0
  9
$DIMBLK
  1

  9
$DIMASO
 70
     1
  9
$DIMSHO
 70
     1
  9
$DIMPOST
  1

  9
$DIMAPOST
  1

  9
$DIMALT
 70
     0
  9
$DIMALTD
 70
     3
  9
$DIMALTF
 40
0.0393700787
  9
$DIMLFAC
 40
1.0
  9
$DIMTOFL
 70
     1
  9
$DIMTVP
 40
0.0
  9
$DIMTIX
 70
     0
  9
$DIMSOXD
 70
     0
  9
$DIMSAH
 70
     0
  9
$DIMBLK1
  1

  9
$DIMBLK2
  1

  9
$DIMSTYLE
  2
ISO-25
  9
$DIMCLRD
 70
     0
  9
$DIMCLRE
 70
     0
  9
$DIMCLRT
 70
     0
  9
$DIMTFAC
 40
1.0
  9
$DIMGAP
 40
1.524
  9
$LUNITS
 70
     2
  9
$LUPREC
 70
     2
  9
$SKETCHINC
 40
1.0
  9
$FILLETRAD
 40
10.0
  9
$AUNITS
 70
     0
  9
$AUPREC
 70
     2
  9
$MENU
  1
.
  9
$ELEVATION
 40
0.0
  9
$PELEVATION
 40
0.0
  9
$THICKNESS
 40
0.0
  9
$LIMCHECK
 70
     0
  9
$CHAMFERA
 40
0.0
  9
$CHAMFERB
 40
0.0
  9
$SKPOLY
 70
     0
  9
$TDCREATE
 40
2456811.619975752
  9
$TDUPDATE
 40
2456813.638210312
  9
$TDINDWG
 40
0.0047021181
  9
$TDUSRTIMER
 40
2456813.554801574
  9
$USRTIMER
 70
     1
  9
$ANGBASE
 50
0.0
  9
$ANGDIR
 70
     0
  9
$PDMODE
 70
     0
  9
$PDSIZE
 40
-1.0
  9
$PLINEWID
 40
0.0
  9
$COORDS
 70
     1
  9
$SPLFRAME
 70
     0
  9
$SPLINETYPE
 70
     6
  9
$SPLINESEGS
 70
     8
  9
$ATTDIA
 70
     0
  9
$ATTREQ
 70
     1
  9
$HANDLING
 70
     1
  9
$HANDSEED
  5
1B2
  9
$SURFTAB1
 70
     6
  9
$SURFTAB2
 70
     6
  9
$SURFTYPE
 70
     6
  9
$SURFU
 70
     6
  9
$SURFV
 70
     6
  9
$UCSNAME
  2

  9
$UCSORG
 10
0.0
 20
0.0
 30
0.0
  9
$UCSXDIR
 10
1.0
 20
0.0
 30
0.0
  9
$UCSYDIR
 10
0.0
 20
1.0
 30
0.0
  9
$PUCSNAME
  2

  9
$PUCSORG
 10
0.0
 20
0.0
 30
0.0
  9
$PUCSXDIR
 10
1.0
 20
0.0
 30
0.0
  9
$PUCSYDIR
 10
0.0
 20
1.0
 30
0.0
  9
$USERI1
 70
     0
  9
$USERI2
 70
     0
  9
$USERI3
 70
     0
  9
$USERI4
 70
     0
  9
$USERI5
 70
     0
  9
$USERR1
 40
0.0
  9
$USERR2
 40
0.0
  9
$USERR3
 40
0.0
  9
$USERR4
 40
0.0
  9
$USERR5
 40
0.0
  9
$WORLDVIEW
 70
     1
  9
$SHADEDGE
 70
     3
  9
$SHADEDIF
 70
    70
  9
$TILEMODE
 70
     1
  9
$MAXACTVP
 70
    64
  9
$PLIMCHECK
 70
     0
  9
$PEXTMIN
 10
1.000000000000000E+20
 20
1.000000000000000E+20
 30
1.000000000000000E+20
  9
$PEXTMAX
 10
-1.000000000000000E+20
 20
-1.000000000000000E+20
 30
-1.000000000000000E+20
  9
$PLIMMIN
 10
0.0
 20
0.0
  9
$PLIMMAX
 10
0.0
 20
0.0
  9
$UNITMODE
 70
     0
  9
$VISRETAIN
 70
     1
  9
$PLINEGEN
 70
     0
  9
$PSLTSCALE
 70
     1
  0
ENDSEC
  0
SECTION
  2
TABLES
  0
TABLE
  2
VPORT
 70
     1
  0
VPORT
  2
*ACTIVE
 70
     0
 10
0.0
 20
0.0
 11
1.0
 21
1.0
 12
-792.6099878022109
 22
-3632.014088898431
 13
0.0
 23
0.0
 14
10.0
 24
10.0
 15
10.0
 25
10.0
 16
0.0
 26
0.0
 36
1.0
 17
0.0
 27
0.0
 37
0.0
 40
19.72860539094678
 41
1.996879875195008
 42
50.0
 43
0.0
 44
0.0
 50
0.0
 51
0.0
 71
    16
 72
   100
 73
     1
 74
     3
 75
     0
 76
     0
 77
     0
 78
     0
  0
ENDTAB
  0
TABLE
  2
LTYPE
 70
     6
  0
LTYPE
  2
CONTINUOUS
 70
     0
  3
Solid line
 72
    65
 73
     0
 40
0.0
  0
LTYPE
  2
HIDDEN
 70
     0
  3
Hidden __ __ __ __ __ __ __ __ __ __ __ __ __ __
 72
    65
 73
     2
 40
1.905
 49
1.27
 49
-0.635
  0
LTYPE
  2
PHANTOM
 70
     0
  3
Phantom ______  __  __  ______  __  __  ______
 72
    65
 73
     6
 40
12.7
 49
6.35
 49
-1.27
 49
1.27
 49
-1.27
 49
1.27
 49
-1.27
  0
LTYPE
  2
CENTER
 70
     0
  3
Center ____ _ ____ _ ____ _ ____ _ ____ _ ____
 72
    65
 73
     4
 40
10.16
 49
6.35
 49
-1.27
 49
1.27
 49
-1.27
  0
LTYPE
  2
CENTERX2
 70
     0
  3
Center (2x) ________  __  ________  __  _____
 72
    65
 73
     4
 40
20.32
 49
12.7
 49
-2.54
 49
2.54
 49
-2.54
  0
LTYPE
  2
DOT2
 70
     0
  3
Dot (.5x) ........................................
 72
    65
 73
     2
 40
0.635
 49
0.0
 49
-0.635
  0
ENDTAB
  0
TABLE
  2
LAYER
 70
     1
  0
LAYER
  2
0
 70
     0
 62
     7
  6
CONTINUOUS
  0
ENDTAB
  0
TABLE
  2
STYLE
 70
     1
  0
STYLE
  2
STANDARD
 70
     0
 40
0.0
 41
1.0
 50
0.0
 71
     0
 42
3.5
  3
txt
  4

  0
ENDTAB
  0
TABLE
  2
VIEW
 70
     0
  0
ENDTAB
  0
TABLE
  2
UCS
 70
     0
  0
ENDTAB
  0
TABLE
  2
APPID
 70
     1
  0
APPID
  2
ACAD
 70
     0
  0
ENDTAB
  0
TABLE
  2
DIMSTYLE
 70
     1
  0
DIMSTYLE
  2
ISO-25
 70
     0
  3

  4

  5

  6

  7

 40
1.0
 41
2.5
 42
0.625
 43
3.75
 44
1.25
 45
0.0
 46
0.0
 47
0.0
 48
0.0
140
2.5
141
2.5
142
0.0
143
0.0393700787
144
1.0
145
0.0
146
1.0
147
0.625
 71
     0
 72
     0
 73
     0
 74
     0
 75
     0
 76
     0
 77
     1
 78
     8
170
     0
171
     3
172
     1
173
     0
174
     0
175
     0
176
     0
177
     0
178
     0
  0
ENDTAB
  0
ENDSEC
  0
SECTION
  2
BLOCKS
  0
BLOCK
  8
0
  2
$MODEL_SPACE
 70
     0
 10
0.0
 20
0.0
 30
0.0
  3
$MODEL_SPACE
  1

  0
ENDBLK
  5
21
  8
0
  0
BLOCK
 67
     1
  8
0
  2
$PAPER_SPACE
 70
     0
 10
0.0
 20
0.0
 30
0.0
  3
$PAPER_SPACE
  1

  0
ENDBLK
  5
1D
 67
     1
  8
0
  0
ENDSEC
  0
SECTION
  2
ENTITIES
  0
LINE
  5
71
  8
0
 10
-435.0018657615441
 20
-3546.713682465441
 30
0.0
 11
-435.0095293835964
 21
-3546.823693058348
 31
0.0
  0
LINE
  5
8E
  8
0
 10
-409.7327481535896
 20
-7002.125493873763
 30
0.0
 11
-680.3968043807142
 21
-7098.114954030026
 31
0.0
  0
LINE
  5
90
  8
0
 10
-946.9096633583
 20
-7159.0930551399
 30
0.0
 11
-684.5128375895836
 21
-7099.641443576906
 31
0.0
  0
LINE
  5
91
  8
0
 10
-797.3772781518348
 20
-3629.148224035908
 30
0.0
 11
-946.9096633583
 21
-7159.0930551399
 31
0.0
  0
LINE
  5
92
  8
0
 10
-797.3772781518
 20
-3629.1482240359
 30
0.0
 11
-437.0456722883479
 21
-3547.507393957475
 31
0.0
  0
LINE
  5
93
  8
0
 10
-434.111006334
 20
-3546.3977442625
 30
0.0
 11
-435.0095293835964
 21
-3546.823693058348
 31
0.0
  0
LINE
  5
94
  8
0
 10
-16.10983628118964
 20
-3398.156019013163
 30
0.0
 11
-432.9462334657171
 21
-3545.984664223762
 31
0.0
  0
LINE
  5
96
  8
0
 10
422.419216198939
 20
-3224.598798386985
 30
0.0
 11
-11.8813992474665
 21
-3396.282264817257
 31
0.0
  0
LINE
  5
98
  8
0
 10
825.197403689
 20
-3063.3139449657
 30
0.0
 11
426.7417710523796
 21
-3222.729551471572
 31
0.0
  0
LINE
  5
99
  8
0
 10
825.197403689
 20
-3063.3139449657
 30
0.0
 11
628.49159346
 21
-6587.7738092372
 31
0.0
  0
LINE
  5
9A
  8
0
 10
628.49159346
 20
-6587.7738092372
 30
0.0
 11
-119.0308717247361
 21
-6886.845368034479
 31
0.0
  0
LINE
  5
9C
  8
0
 10
-123.3534265781767
 20
-6888.714614949891
 30
0.0
 11
-405.5043111198662
 21
-7000.251739677857
 31
0.0
  0
CIRCLE
  5
11F
  8
0
 10
-899.0437562318717
 20
-7137.994549553473
 30
0.0
 40
4.0
  0
CIRCLE
  5
120
  8
0
 10
-710.9876887747618
 20
-7095.386426372979
 30
0.0
 40
4.0
  0
CIRCLE
  5
121
  8
0
 10
-654.6355654773188
 20
-7078.368634919038
 30
0.0
 40
4.0
  0
CIRCLE
  5
122
  8
0
 10
-433.952235122331
 20
-7000.104553453836
 30
0.0
 40
4.0
  0
CIRCLE
  5
123
  8
0
 10
-369.6576481466653
 20
-6975.328187571644
 30
0.0
 40
4.0
  0
CIRCLE
  5
124
  8
0
 10
-154.9025292244088
 20
-6890.433296938538
 30
0.0
 40
4.0
  0
CIRCLE
  5
125
  8
0
 10
-77.9284532994742
 20
-6859.630319590301
 30
0.0
 40
4.0
  0
CIRCLE
  5
126
  8
0
 10
565.8808597494652
 20
-6602.052703144797
 30
0.0
 40
4.0
  0
CIRCLE
  5
127
  8
0
 10
367.8592750159947
 20
-6681.277912793997
 30
0.0
 40
4.0
  0
CIRCLE
  5
128
  8
0
 10
131.6810914105343
 20
-6775.768955959286
 30
0.0
 40
4.0
  0
LINE
  5
135
  8
0
 10
-123.3534265781768
 20
-6888.714614949891
 30
0.0
 11
-119.8163069527287
 21
-6878.543095454668
 31
0.0
  0
LINE
  5
136
  8
0
 10
-119.8163069527287
 20
-6878.543095454668
 30
0.0
 11
-119.0308717247361
 21
-6886.845368034479
 31
0.0
  0
LINE
  5
137
  8
0
 10
-409.7327481535896
 20
-7002.125493873763
 30
0.0
 11
-406.6250449712708
 21
-6992.092376948158
 31
0.0
  0
LINE
  5
138
  8
0
 10
-406.6250449712708
 20
-6992.092376948158
 30
0.0
 11
-405.5043111198663
 21
-7000.251739677857
 31
0.0
  0
LINE
  5
139
  8
0
 10
-684.5128375895836
 20
-7099.641443576906
 30
0.0
 11
-681.8461485157459
 21
-7090.140761233033
 31
0.0
  0
LINE
  5
13A
  8
0
 10
-681.8461485157459
 20
-7090.140761233033
 30
0.0
 11
-680.3968043807142
 21
-7098.114954030026
 31
0.0
  0
LINE
  5
13B
  8
0
 10
-437.045672288348
 20
-3547.507393957475
 30
0.0
 11
-435.6058584362938
 21
-3555.383942012089
 31
0.0
  0
LINE
  5
13C
  8
0
 10
-435.6058584362938
 20
-3555.383942012089
 30
0.0
 11
-432.9462334657169
 21
-3545.984664223762
 31
0.0
  0
LINE
  5
13D
  8
0
 10
-16.10983628118964
 20
-3398.156019013163
 30
0.0
 11
-14.98130465332212
 21
-3406.243986131739
 31
0.0
  0
LINE
  5
13E
  8
0
 10
-14.98130465332212
 20
-3406.243986131739
 30
0.0
 11
-11.88139924746649
 21
-3396.282264817257
 31
0.0
  0
LINE
  5
13F
  8
0
 10
422.419216198939
 20
-3224.598798386985
 30
0.0
 11
423.2062915593326
 21
-3232.890059724017
 31
0.0
  0
LINE
  5
140
  8
0
 10
423.2062915593326
 20
-3232.890059724017
 30
0.0
 11
426.7417710523796
 21
-3222.729551471572
 31
0.0
  0
LINE
  5
141
  8
0
 10
-434.1110063340012
 20
-3546.397744262501
 30
0.0
 11
-435.0018657615441
 21
-3546.713682465441
 31
0.0
  0
ENDSEC
  0
EOF
