  0
SECTION
  2
HEADER
  9
$ACADVER
  1
AC1009
  9
$DWGCODEPAGE
  3
ansi_1252
  9
$INSBASE
 10
0.0
 20
0.0
 30
0.0
  9
$EXTMIN
 10
-716.6308497517
 20
1544.6669124187
 30
0.0
  9
$EXTMAX
 10
-140.0
 20
1994.6522893369
 30
0.0
  9
$LIMMIN
 10
0.0
 20
0.0
  9
$LIMMAX
 10
420.0
 20
297.0
  9
$ORTHOMODE
 70
     0
  9
$REGENMODE
 70
     1
  9
$FILLMODE
 70
     1
  9
$QTEXTMODE
 70
     0
  9
$MIRRTEXT
 70
     1
  9
$DRAGMODE
 70
     2
  9
$LTSCALE
 40
1.0
  9
$OSMODE
 70
  1023
  9
$ATTMODE
 70
     1
  9
$TEXTSIZE
 40
3.5
  9
$TRACEWID
 40
1.0
  9
$TEXTSTYLE
  7
STANDARD
  9
$CLAYER
  8
0
  9
$CELTYPE
  6
BYLAYER
  9
$CECOLOR
 62
   256
  9
$DIMSCALE
 40
1.0
  9
$DIMASZ
 40
6.0
  9
$DIMEXO
 40
1.0
  9
$DIMDLI
 40
3.75
  9
$DIMRND
 40
0.0
  9
$DIMDLE
 40
0.0
  9
$DIMEXE
 40
1.0
  9
$DIMTP
 40
0.0
  9
$DIMTM
 40
0.0
  9
$DIMTXT
 40
3.5
  9
$DIMCEN
 40
2.5
  9
$DIMTSZ
 40
0.0
  9
$DIMTOL
 70
     0
  9
$DIMLIM
 70
     0
  9
$DIMTIH
 70
     1
  9
$DIMTOH
 70
     1
  9
$DIMSE1
 70
     0
  9
$DIMSE2
 70
     0
  9
$DIMTAD
 70
     1
  9
$DIMZIN
 70
     0
  9
$DIMBLK
  1

  9
$DIMASO
 70
     1
  9
$DIMSHO
 70
     1
  9
$DIMPOST
  1

  9
$DIMAPOST
  1

  9
$DIMALT
 70
     0
  9
$DIMALTD
 70
     3
  9
$DIMALTF
 40
0.0393700787
  9
$DIMLFAC
 40
1.0
  9
$DIMTOFL
 70
     1
  9
$DIMTVP
 40
0.0
  9
$DIMTIX
 70
     0
  9
$DIMSOXD
 70
     0
  9
$DIMSAH
 70
     0
  9
$DIMBLK1
  1

  9
$DIMBLK2
  1

  9
$DIMSTYLE
  2
ISO-25
  9
$DIMCLRD
 70
     0
  9
$DIMCLRE
 70
     0
  9
$DIMCLRT
 70
     0
  9
$DIMTFAC
 40
1.0
  9
$DIMGAP
 40
1.524
  9
$LUNITS
 70
     2
  9
$LUPREC
 70
     2
  9
$SKETCHINC
 40
1.0
  9
$FILLETRAD
 40
10.0
  9
$AUNITS
 70
     0
  9
$AUPREC
 70
     2
  9
$MENU
  1
.
  9
$ELEVATION
 40
0.0
  9
$PELEVATION
 40
0.0
  9
$THICKNESS
 40
0.0
  9
$LIMCHECK
 70
     0
  9
$CHAMFERA
 40
0.0
  9
$CHAMFERB
 40
0.0
  9
$SKPOLY
 70
     0
  9
$TDCREATE
 40
2456804.403839908
  9
$TDUPDATE
 40
2456804.444908518
  9
$TDINDWG
 40
0.0007286111
  9
$TDUSRTIMER
 40
2456804.361434352
  9
$USRTIMER
 70
     1
  9
$ANGBASE
 50
0.0
  9
$ANGDIR
 70
     0
  9
$PDMODE
 70
     0
  9
$PDSIZE
 40
-1.0
  9
$PLINEWID
 40
0.0
  9
$COORDS
 70
     1
  9
$SPLFRAME
 70
     0
  9
$SPLINETYPE
 70
     6
  9
$SPLINESEGS
 70
     8
  9
$ATTDIA
 70
     0
  9
$ATTREQ
 70
     1
  9
$HANDLING
 70
     1
  9
$HANDSEED
  5
1AF
  9
$SURFTAB1
 70
     6
  9
$SURFTAB2
 70
     6
  9
$SURFTYPE
 70
     6
  9
$SURFU
 70
     6
  9
$SURFV
 70
     6
  9
$UCSNAME
  2

  9
$UCSORG
 10
0.0
 20
0.0
 30
0.0
  9
$UCSXDIR
 10
1.0
 20
0.0
 30
0.0
  9
$UCSYDIR
 10
0.0
 20
1.0
 30
0.0
  9
$PUCSNAME
  2

  9
$PUCSORG
 10
0.0
 20
0.0
 30
0.0
  9
$PUCSXDIR
 10
1.0
 20
0.0
 30
0.0
  9
$PUCSYDIR
 10
0.0
 20
1.0
 30
0.0
  9
$USERI1
 70
     0
  9
$USERI2
 70
     0
  9
$USERI3
 70
     0
  9
$USERI4
 70
     0
  9
$USERI5
 70
     0
  9
$USERR1
 40
0.0
  9
$USERR2
 40
0.0
  9
$USERR3
 40
0.0
  9
$USERR4
 40
0.0
  9
$USERR5
 40
0.0
  9
$WORLDVIEW
 70
     1
  9
$SHADEDGE
 70
     3
  9
$SHADEDIF
 70
    70
  9
$TILEMODE
 70
     1
  9
$MAXACTVP
 70
    64
  9
$PLIMCHECK
 70
     0
  9
$PEXTMIN
 10
1.000000000000000E+20
 20
1.000000000000000E+20
 30
1.000000000000000E+20
  9
$PEXTMAX
 10
-1.000000000000000E+20
 20
-1.000000000000000E+20
 30
-1.000000000000000E+20
  9
$PLIMMIN
 10
0.0
 20
0.0
  9
$PLIMMAX
 10
0.0
 20
0.0
  9
$UNITMODE
 70
     0
  9
$VISRETAIN
 70
     1
  9
$PLINEGEN
 70
     0
  9
$PSLTSCALE
 70
     1
  0
ENDSEC
  0
SECTION
  2
TABLES
  0
TABLE
  2
VPORT
 70
     1
  0
VPORT
  2
*ACTIVE
 70
     0
 10
0.0
 20
0.0
 11
1.0
 21
1.0
 12
-323.2446094609522
 22
1751.465913551187
 13
0.0
 23
0.0
 14
10.0
 24
10.0
 15
10.0
 25
10.0
 16
0.0
 26
0.0
 36
1.0
 17
0.0
 27
0.0
 37
0.0
 40
642.9861322040089
 41
1.996879875195008
 42
50.0
 43
0.0
 44
0.0
 50
0.0
 51
0.0
 71
    16
 72
   100
 73
     1
 74
     3
 75
     0
 76
     0
 77
     0
 78
     0
  0
ENDTAB
  0
TABLE
  2
LTYPE
 70
     6
  0
LTYPE
  2
CONTINUOUS
 70
     0
  3
Solid line
 72
    65
 73
     0
 40
0.0
  0
LTYPE
  2
HIDDEN
 70
     0
  3
Hidden __ __ __ __ __ __ __ __ __ __ __ __ __ __
 72
    65
 73
     2
 40
1.905
 49
1.27
 49
-0.635
  0
LTYPE
  2
PHANTOM
 70
     0
  3
Phantom ______  __  __  ______  __  __  ______
 72
    65
 73
     6
 40
12.7
 49
6.35
 49
-1.27
 49
1.27
 49
-1.27
 49
1.27
 49
-1.27
  0
LTYPE
  2
CENTER
 70
     0
  3
Center ____ _ ____ _ ____ _ ____ _ ____ _ ____
 72
    65
 73
     4
 40
10.16
 49
6.35
 49
-1.27
 49
1.27
 49
-1.27
  0
LTYPE
  2
CENTERX2
 70
     0
  3
Center (2x) ________  __  ________  __  _____
 72
    65
 73
     4
 40
20.32
 49
12.7
 49
-2.54
 49
2.54
 49
-2.54
  0
LTYPE
  2
DOT2
 70
     0
  3
Dot (.5x) ........................................
 72
    65
 73
     2
 40
0.635
 49
0.0
 49
-0.635
  0
ENDTAB
  0
TABLE
  2
LAYER
 70
     2
  0
LAYER
  2
0
 70
     0
 62
     7
  6
CONTINUOUS
  0
LAYER
  2
CONTORNO
 70
     0
 62
     7
  6
CONTINUOUS
  0
ENDTAB
  0
TABLE
  2
STYLE
 70
     2
  0
STYLE
  2
STANDARD
 70
     0
 40
0.0
 41
1.0
 50
0.0
 71
     0
 42
3.5
  3
txt
  4

  0
STYLE
  2
STILE1
 70
     0
 40
100.0
 41
1.0
 50
0.0
 71
     0
 42
3.5
  3
sanss___.ttf
  4

  0
ENDTAB
  0
TABLE
  2
VIEW
 70
     0
  0
ENDTAB
  0
TABLE
  2
UCS
 70
     0
  0
ENDTAB
  0
TABLE
  2
APPID
 70
     1
  0
APPID
  2
ACAD
 70
     0
  0
ENDTAB
  0
TABLE
  2
DIMSTYLE
 70
     1
  0
DIMSTYLE
  2
ISO-25
 70
     0
  3

  4

  5

  6

  7

 40
1.0
 41
2.5
 42
0.625
 43
3.75
 44
1.25
 45
0.0
 46
0.0
 47
0.0
 48
0.0
140
2.5
141
2.5
142
0.0
143
0.0393700787
144
1.0
145
0.0
146
1.0
147
0.625
 71
     0
 72
     0
 73
     0
 74
     0
 75
     0
 76
     0
 77
     1
 78
     8
170
     0
171
     3
172
     1
173
     0
174
     0
175
     0
176
     0
177
     0
178
     0
  0
ENDTAB
  0
ENDSEC
  0
SECTION
  2
BLOCKS
  0
BLOCK
  8
0
  2
$MODEL_SPACE
 70
     0
 10
0.0
 20
0.0
 30
0.0
  3
$MODEL_SPACE
  1

  0
ENDBLK
  5
21
  8
0
  0
BLOCK
 67
     1
  8
0
  2
$PAPER_SPACE
 70
     0
 10
0.0
 20
0.0
 30
0.0
  3
$PAPER_SPACE
  1

  0
ENDBLK
  5
1D
 67
     1
  8
0
  0
ENDSEC
  0
SECTION
  2
ENTITIES
  0
LINE
  5
6F
  8
0
  6
CENTERX2
 62
     7
 10
-714.4344892381
 20
1620.0932769828
 30
0.0
 11
-244.8639563416
 21
1961.6369419087
 31
0.0
  0
LINE
  5
70
  8
0
  6
CENTERX2
 62
     7
 10
-536.9531594174
 20
1549.8450859053
 30
0.0
 11
-183.8488059386
 21
1937.2807137501
 31
0.0
  0
LINE
  5
71
  8
0
  6
CENTERX2
 62
     7
 10
-447.8354448418
 20
1545.6042990007
 30
0.0
 11
-158.6894056453
 21
1939.3264334036
 31
0.0
  0
LINE
  5
84
  8
0
  6
CONTINUOUS
 62
     7
 10
-716.0443634201923
 20
1622.450505282757
 30
0.0
 11
-716.6308497517
 21
1653.108624411
 31
0.0
  0
LINE
  5
85
  8
0
  6
CONTINUOUS
 62
     7
 10
-716.6308497517
 20
1653.108624411
 30
0.0
 11
-261.2416899468815
 21
1984.337421175339
 31
0.0
  0
LINE
  5
87
  8
0
  6
CONTINUOUS
 62
     7
 10
-243.2517440574
 20
1959.1574911304
 30
0.0
 11
-243.6867067184101
 21
1959.826428167358
 31
0.0
  0
LINE
  5
88
  8
0
  6
CONTINUOUS
 62
     7
 10
-243.2517440574
 20
1959.1574911304
 30
0.0
 11
-187.0312150181
 21
1937.0045326762
 31
0.0
  0
LINE
  5
89
  8
0
  6
CONTINUOUS
 62
     7
 10
-180.6663968591
 20
1937.5568948239
 30
0.0
 11
-180.9513549851545
 21
1937.532165117791
 31
0.0
  0
LINE
  5
8A
  8
0
  6
CONTINUOUS
 62
     7
 10
-180.6663968591
 20
1937.5568948239
 30
0.0
 11
-162.8227414668
 21
1938.2070734273
 31
0.0
  0
LINE
  5
8B
  8
0
  6
CONTINUOUS
 62
     7
 10
-154.5560698238
 20
1940.44579338
 30
0.0
 11
-155.2611735865996
 21
1940.254842301903
 31
0.0
  0
LINE
  5
8C
  8
0
  6
CONTINUOUS
 62
     7
 10
-154.5560698238
 20
1940.44579338
 30
0.0
 11
-140.0
 21
1940.44579338
 31
0.0
  0
LINE
  5
8D
  8
0
  6
CONTINUOUS
 62
     7
 10
-140.0
 20
1538.6669124187
 30
0.0
 11
-140.0
 21
1940.44579338
 31
0.0
  0
LINE
  5
90
  8
0
  6
CONTINUOUS
 62
     7
 10
-448.8767927059
 20
1553.214592511
 30
0.0
 11
-450.458324255
 21
1546.5416855828
 31
0.0
  0
LINE
  5
91
  8
0
  6
CONTINUOUS
 62
     7
 10
-533.770750338
 20
1550.1212669791
 30
0.0
 11
-448.8767927059
 21
1553.214592511
 31
0.0
  0
LINE
  5
93
  8
0
  6
CONTINUOUS
 62
     7
 10
-542.0421150985925
 20
1550.32015439059
 30
0.0
 11
-712.8222769538
 21
1617.6138262045
 31
0.0
  0
TEXT
  5
12A
  8
CONTORNO
  6
CONTINUOUS
 10
-372.1355171602077
 20
1658.139024364123
 30
0.0
 40
20.0
  1
122.5
  7
STILE1
  0
TEXT
  5
12B
  8
CONTORNO
  6
CONTINUOUS
 10
-384.8437038220031
 20
1737.565191000316
 30
0.0
 40
20.0
  1
133.3
  7
STILE1
  0
LINE
  5
12C
  8
0
 10
-450.458324255
 20
1546.5416855828
 30
0.0
 11
-442.2899625687569
 21
1553.155428260139
 31
0.0
  0
LINE
  5
12D
  8
0
 10
-442.2899625687569
 20
1553.155428260139
 30
0.0
 11
-447.2783702744308
 21
1538.6669124187
 31
0.0
  0
LINE
  5
12E
  8
0
 10
-542.0421150985931
 20
1550.32015439059
 30
0.0
 11
-531.1150835303415
 21
1556.179363559198
 31
0.0
  0
LINE
  5
12F
  8
0
 10
-531.1150835303415
 20
1556.179363559198
 30
0.0
 11
-534.3390400952485
 21
1550.071948720036
 31
0.0
  0
LINE
  5
130
  8
0
 10
-161.5552042509379
 20
1938.550338646784
 30
0.0
 11
-164.1030047866225
 21
1931.954885743289
 31
0.0
  0
LINE
  5
131
  8
0
 10
-164.1030047866225
 20
1931.954885743289
 30
0.0
 11
-155.2611735865939
 21
1940.254842301908
 31
0.0
  0
LINE
  5
132
  8
0
 10
-189.0037548146793
 20
1931.62456469762
 30
0.0
 11
-180.9513549851545
 21
1937.532165117791
 31
0.0
  0
LINE
  5
133
  8
0
 10
-186.5038087405846
 20
1937.050302917678
 30
0.0
 11
-189.0037548146793
 21
1931.62456469762
 31
0.0
  0
LINE
  5
134
  8
0
  6
CONTINUOUS
 62
     7
 10
-534.3390400952463
 20
1550.07194872004
 30
0.0
 11
-533.770750338
 21
1550.1212669791
 31
0.0
  0
LINE
  5
135
  8
0
  6
CONTINUOUS
 62
     7
 10
-161.5552042509379
 20
1938.550338646784
 30
0.0
 11
-162.8227414668
 21
1938.2070734273
 31
0.0
  0
LINE
  5
136
  8
0
  6
CONTINUOUS
 62
     7
 10
-186.5038087405801
 20
1937.050302917687
 30
0.0
 11
-187.0312150181
 21
1937.0045326762
 31
0.0
  0
LINE
  5
137
  8
0
 10
-251.3594175871411
 20
1956.912446899395
 30
0.0
 11
-243.6867067184101
 21
1959.826428167358
 31
0.0
  0
LINE
  5
138
  8
0
 10
-245.9897840960502
 20
1963.368373016842
 30
0.0
 11
-251.3594175871411
 21
1956.912446899395
 31
0.0
  0
LINE
  5
139
  8
0
 10
-716.0443634201923
 20
1622.450505282757
 30
0.0
 11
-707.2117603434916
 21
1625.346752498425
 31
0.0
  0
LINE
  5
13A
  8
0
 10
-707.2117603434916
 20
1625.346752498425
 30
0.0
 11
-712.8222769538
 21
1617.6138262045
 31
0.0
  0
LINE
  5
13C
  8
0
  6
CONTINUOUS
 62
     7
 10
-447.2783702744308
 20
1538.6669124187
 30
0.0
 11
-140.0
 21
1538.6669124187
 31
0.0
  0
LINE
  5
13D
  8
0
 10
-245.9897840960502
 20
1963.368373016842
 30
0.0
 11
-261.2416899468816
 21
1984.337421175339
 31
0.0
  0
ENDSEC
  0
EOF
