  0
SECTION
  2
HEADER
  9
$ACADVER
  1
AC1009
  9
$DWGCODEPAGE
  3
ansi_1252
  9
$INSBASE
 10
0.0
 20
0.0
 30
0.0
  9
$EXTMIN
 10
2.186060107039934
 20
2.200535199670643
 30
0.0
  9
$EXTMAX
 10
360.2913055270143
 20
702.0284741725538
 30
0.0
  9
$LIMMIN
 10
0.0
 20
0.0
  9
$LIMMAX
 10
12.0
 20
9.0
  9
$ORTHOMODE
 70
     0
  9
$REGENMODE
 70
     1
  9
$FILLMODE
 70
     1
  9
$QTEXTMODE
 70
     0
  9
$MIRRTEXT
 70
     0
  9
$DRAGMODE
 70
     2
  9
$LTSCALE
 40
1.0
  9
$OSMODE
 70
  1023
  9
$ATTMODE
 70
     1
  9
$TEXTSIZE
 40
0.2
  9
$TRACEWID
 40
0.05
  9
$TEXTSTYLE
  7
STANDARD
  9
$CLAYER
  8
0
  9
$CELTYPE
  6
BYLAYER
  9
$CECOLOR
 62
   256
  9
$DIMSCALE
 40
1.0
  9
$DIMASZ
 40
0.18
  9
$DIMEXO
 40
0.0625
  9
$DIMDLI
 40
0.38
  9
$DIMRND
 40
0.0
  9
$DIMDLE
 40
0.0
  9
$DIMEXE
 40
0.18
  9
$DIMTP
 40
0.0
  9
$DIMTM
 40
0.0
  9
$DIMTXT
 40
0.18
  9
$DIMCEN
 40
0.09
  9
$DIMTSZ
 40
0.0
  9
$DIMTOL
 70
     0
  9
$DIMLIM
 70
     0
  9
$DIMTIH
 70
     1
  9
$DIMTOH
 70
     1
  9
$DIMSE1
 70
     0
  9
$DIMSE2
 70
     0
  9
$DIMTAD
 70
     0
  9
$DIMZIN
 70
     0
  9
$DIMBLK
  1

  9
$DIMASO
 70
     1
  9
$DIMSHO
 70
     1
  9
$DIMPOST
  1

  9
$DIMAPOST
  1

  9
$DIMALT
 70
     0
  9
$DIMALTD
 70
     2
  9
$DIMALTF
 40
25.4
  9
$DIMLFAC
 40
1.0
  9
$DIMTOFL
 70
     0
  9
$DIMTVP
 40
0.0
  9
$DIMTIX
 70
     0
  9
$DIMSOXD
 70
     0
  9
$DIMSAH
 70
     0
  9
$DIMBLK1
  1

  9
$DIMBLK2
  1

  9
$DIMSTYLE
  2
STANDARD
  9
$DIMCLRD
 70
     0
  9
$DIMCLRE
 70
     0
  9
$DIMCLRT
 70
     0
  9
$DIMTFAC
 40
1.0
  9
$DIMGAP
 40
0.09
  9
$LUNITS
 70
     2
  9
$LUPREC
 70
     4
  9
$SKETCHINC
 40
0.1
  9
$FILLETRAD
 40
0.0
  9
$AUNITS
 70
     0
  9
$AUPREC
 70
     0
  9
$MENU
  1
.
  9
$ELEVATION
 40
0.0
  9
$PELEVATION
 40
0.0
  9
$THICKNESS
 40
0.0
  9
$LIMCHECK
 70
     0
  9
$CHAMFERA
 40
0.0
  9
$CHAMFERB
 40
0.0
  9
$SKPOLY
 70
     0
  9
$TDCREATE
 40
2452643.146717604
  9
$TDUPDATE
 40
2456833.567920752
  9
$TDINDWG
 40
0.0006501157
  9
$TDUSRTIMER
 40
2456833.483937338
  9
$USRTIMER
 70
     1
  9
$ANGBASE
 50
0.0
  9
$ANGDIR
 70
     0
  9
$PDMODE
 70
     0
  9
$PDSIZE
 40
0.0
  9
$PLINEWID
 40
0.0
  9
$COORDS
 70
     1
  9
$SPLFRAME
 70
     0
  9
$SPLINETYPE
 70
     6
  9
$SPLINESEGS
 70
     8
  9
$ATTDIA
 70
     0
  9
$ATTREQ
 70
     1
  9
$HANDLING
 70
     1
  9
$HANDSEED
  5
1AB
  9
$SURFTAB1
 70
     6
  9
$SURFTAB2
 70
     6
  9
$SURFTYPE
 70
     6
  9
$SURFU
 70
     6
  9
$SURFV
 70
     6
  9
$UCSNAME
  2

  9
$UCSORG
 10
0.0
 20
0.0
 30
0.0
  9
$UCSXDIR
 10
1.0
 20
0.0
 30
0.0
  9
$UCSYDIR
 10
0.0
 20
1.0
 30
0.0
  9
$PUCSNAME
  2

  9
$PUCSORG
 10
0.0
 20
0.0
 30
0.0
  9
$PUCSXDIR
 10
1.0
 20
0.0
 30
0.0
  9
$PUCSYDIR
 10
0.0
 20
1.0
 30
0.0
  9
$USERI1
 70
     0
  9
$USERI2
 70
     0
  9
$USERI3
 70
     0
  9
$USERI4
 70
     0
  9
$USERI5
 70
     0
  9
$USERR1
 40
0.0
  9
$USERR2
 40
0.0
  9
$USERR3
 40
0.0
  9
$USERR4
 40
0.0
  9
$USERR5
 40
0.0
  9
$WORLDVIEW
 70
     1
  9
$SHADEDGE
 70
     3
  9
$SHADEDIF
 70
    70
  9
$TILEMODE
 70
     1
  9
$MAXACTVP
 70
    64
  9
$PLIMCHECK
 70
     0
  9
$PEXTMIN
 10
0.0
 20
0.0
 30
0.0
  9
$PEXTMAX
 10
0.0
 20
0.0
 30
0.0
  9
$PLIMMIN
 10
0.0
 20
0.0
  9
$PLIMMAX
 10
0.0
 20
0.0
  9
$UNITMODE
 70
     0
  9
$VISRETAIN
 70
     1
  9
$PLINEGEN
 70
     0
  9
$PSLTSCALE
 70
     1
  0
ENDSEC
  0
SECTION
  2
TABLES
  0
TABLE
  2
VPORT
 70
     1
  0
VPORT
  2
*ACTIVE
 70
     0
 10
0.0
 20
0.0
 11
1.0
 21
1.0
 12
207.815246329487
 22
370.5529400441389
 13
0.0
 23
0.0
 14
0.5
 24
0.5
 15
0.5
 25
0.5
 16
0.0
 26
0.0
 36
1.0
 17
-27.66959356597982
 27
-19.53870295786203
 37
0.0
 40
716.069043656005
 41
1.79971181556196
 42
50.0
 43
0.0
 44
0.0
 50
0.0
 51
0.0
 71
    16
 72
  1000
 73
     1
 74
     3
 75
     0
 76
     0
 77
     0
 78
     0
  0
ENDTAB
  0
TABLE
  2
LTYPE
 70
     1
  0
LTYPE
  2
CONTINUOUS
 70
     0
  3
Solid line
 72
    65
 73
     0
 40
0.0
  0
ENDTAB
  0
TABLE
  2
LAYER
 70
     1
  0
LAYER
  2
0
 70
     0
 62
     7
  6
CONTINUOUS
  0
ENDTAB
  0
TABLE
  2
STYLE
 70
     1
  0
STYLE
  2
STANDARD
 70
     0
 40
0.0
 41
1.0
 50
0.0
 71
     0
 42
0.2
  3
arial.ttf
  4

  0
ENDTAB
  0
TABLE
  2
VIEW
 70
     0
  0
ENDTAB
  0
TABLE
  2
UCS
 70
     0
  0
ENDTAB
  0
TABLE
  2
APPID
 70
     2
  0
APPID
  2
ACAD
 70
     0
  0
APPID
  2
ACAD_PSEXT
 70
     0
  0
ENDTAB
  0
TABLE
  2
DIMSTYLE
 70
     2
  0
DIMSTYLE
  2
STANDARD
 70
     0
  3

  4

  5

  6

  7

 40
1.0
 41
0.18
 42
0.0625
 43
0.38
 44
0.18
 45
0.0
 46
0.0
 47
0.0
 48
0.0
140
0.18
141
0.09
142
0.0
143
25.4
144
1.0
145
0.0
146
1.0
147
0.09
 71
     0
 72
     0
 73
     1
 74
     1
 75
     0
 76
     0
 77
     0
 78
     0
170
     0
171
     2
172
     0
173
     0
174
     0
175
     0
176
     0
177
     0
178
     0
  0
DIMSTYLE
  2
ISO-25
 70
     0
  3

  4

  5

  6

  7

 40
1.0
 41
2.5
 42
0.625
 43
3.75
 44
1.25
 45
0.0
 46
0.0
 47
0.0
 48
0.0
140
2.5
141
2.5
142
0.0
143
0.03937007874016
144
1.0
145
0.0
146
1.0
147
0.625
 71
     0
 72
     0
 73
     0
 74
     0
 75
     0
 76
     0
 77
     1
 78
     8
170
     0
171
     3
172
     1
173
     0
174
     0
175
     0
176
     0
177
     0
178
     0
  0
ENDTAB
  0
ENDSEC
  0
SECTION
  2
BLOCKS
  0
BLOCK
  8
0
  2
$MODEL_SPACE
 70
     0
 10
0.0
 20
0.0
 30
0.0
  3
$MODEL_SPACE
  1

  0
ENDBLK
  5
21
  8
0
  0
BLOCK
 67
     1
  8
0
  2
$PAPER_SPACE
 70
     0
 10
0.0
 20
0.0
 30
0.0
  3
$PAPER_SPACE
  1

  0
ENDBLK
  5
5B
 67
     1
  8
0
  0
ENDSEC
  0
SECTION
  2
ENTITIES
  0
ARC
  5
17B
  8
0
 10
260.2913055270143
 20
614.7665078610573
 30
0.0
 40
100.0000000000001
 50
349.8748608424936
 51
24.99994326790237
  0
LINE
  5
17C
  8
0
 10
258.8489573340263
 20
37.85722427011047
 30
0.0
 11
358.7339196390745
 21
597.1866407744149
 31
0.0
  0
LINE
  5
17D
  8
0
 10
194.4397556519467
 20
3.137453144703849
 30
0.0
 11
253.230869566312
 21
30.55212892380792
 31
0.0
  0
LINE
  5
17E
  8
0
 10
117.1149922951733
 20
71.15698928921144
 30
0.0
 11
183.1425141965916
 21
5.129467387803978
 31
0.0
  0
LINE
  5
17F
  8
0
 10
158.7860601070421
 20
323.5248061385648
 30
0.0
 11
158.7860601070421
 21
318.7248061385619
 31
0.0
  0
LINE
  5
180
  8
0
 10
149.5860601070378
 20
323.5248061385648
 30
0.0
 11
149.5860601070378
 21
318.7248061385619
 31
0.0
  0
ARC
  5
181
  8
0
 10
154.1860601070363
 20
318.7248061385619
 30
0.0
 40
4.6
 50
180.0
 51
0.0
  0
ARC
  5
182
  8
0
 10
154.1860601070363
 20
323.5248061385648
 30
0.0
 40
4.6
 50
0.0
 51
180.0
  0
ARC
  5
183
  8
0
 10
57.18606010703994
 20
118.7461264821234
 30
0.0
 40
35.0
 50
180.0
 51
270.0
  0
LINE
  5
184
  8
0
 10
2.186060107039934
 20
570.3152714887767
 30
0.0
 11
22.18606010703994
 21
118.7461264821234
 31
0.0
  0
LINE
  5
185
  8
0
 10
61.78606010703848
 20
523.403485795003
 30
0.0
 11
61.78606010703848
 21
518.6034857950001
 31
0.0
  0
LINE
  5
186
  8
0
 10
52.58606010704139
 20
523.403485795003
 30
0.0
 11
52.58606010704139
 21
518.6034857950001
 31
0.0
  0
ARC
  5
187
  8
0
 10
57.18606010703994
 20
523.403485795003
 30
0.0
 40
4.6
 50
0.0
 51
180.0
  0
ARC
  5
188
  8
0
 10
57.18606010703994
 20
518.6034857950001
 30
0.0
 40
4.6
 50
180.0
 51
0.0
  0
ARC
  5
189
  8
0
 10
249.0046959228199
 20
39.61521097877472
 30
0.0
 40
9.99999999999999
 50
294.9999432679109
 51
349.8748608424939
  0
ARC
  5
18A
  8
0
 10
190.2135820084547
 20
12.20053519967065
 30
0.0
 40
10.0
 50
224.9999999999926
 51
294.9999432679109
  0
ARC
  5
18B
  8
0
 10
124.1860601070399
 20
78.22805710107811
 30
0.0
 40
10.0
 50
180.0
 51
224.9999999999926
  0
LINE
  5
18C
  8
0
 10
61.78606010703848
 20
323.5248061385666
 30
0.0
 11
61.78606010703848
 21
318.7248061385637
 31
0.0
  0
LINE
  5
18D
  8
0
 10
52.58606010704139
 20
323.5248061385666
 30
0.0
 11
52.58606010704139
 21
318.7248061385637
 31
0.0
  0
ARC
  5
18E
  8
0
 10
57.18606010703994
 20
323.5248061385666
 30
0.0
 40
4.6
 50
0.0
 51
180.0
  0
ARC
  5
18F
  8
0
 10
57.18606010703994
 20
318.7248061385637
 30
0.0
 40
4.6
 50
180.0
 51
0.0
  0
LINE
  5
190
  8
0
 10
61.78606010703848
 20
123.6461264821212
 30
0.0
 11
61.78606010703848
 21
118.8461264821183
 31
0.0
  0
LINE
  5
191
  8
0
 10
52.58606010704139
 20
123.6461264821212
 30
0.0
 11
52.58606010704139
 21
118.8461264821183
 31
0.0
  0
ARC
  5
192
  8
0
 10
57.18606010703994
 20
123.6461264821212
 30
0.0
 40
4.6
 50
0.0
 51
180.0
  0
ARC
  5
193
  8
0
 10
57.18606010703994
 20
118.8461264821183
 30
0.0
 40
4.6
 50
180.0
 51
0.0
  0
LINE
  5
194
  8
0
 10
158.7860601070421
 20
123.6461264821248
 30
0.0
 11
158.7860601070421
 21
118.8461264821219
 31
0.0
  0
LINE
  5
195
  8
0
 10
149.5860601070378
 20
123.6461264821248
 30
0.0
 11
149.5860601070378
 21
118.8461264821219
 31
0.0
  0
ARC
  5
196
  8
0
 10
154.1860601070363
 20
118.8461264821219
 30
0.0
 40
4.6
 50
180.0
 51
0.0
  0
ARC
  5
197
  8
0
 10
154.1860601070363
 20
123.6461264821248
 30
0.0
 40
4.6
 50
0.0
 51
180.0
  0
LINE
  5
198
  8
0
 10
158.7860601070421
 20
523.4034857950048
 30
0.0
 11
158.7860601070421
 21
518.6034857950019
 31
0.0
  0
LINE
  5
199
  8
0
 10
149.5860601070378
 20
523.4034857950048
 30
0.0
 11
149.5860601070378
 21
518.6034857950019
 31
0.0
  0
ARC
  5
19A
  8
0
 10
154.1860601070363
 20
518.6034857950019
 30
0.0
 40
4.6
 50
180.0
 51
0.0
  0
ARC
  5
19B
  8
0
 10
154.1860601070363
 20
523.4034857950048
 30
0.0
 40
4.6
 50
0.0
 51
180.0
  0
LINE
  5
19C
  8
0
 10
64.85291529994689
 20
670.8891775990217
 30
0.0
 11
314.7355155926303
 21
701.8764471902361
 31
0.0
  0
ARC
  5
19D
  8
0
 10
317.1968093762622
 20
682.0284741725538
 30
0.0
 40
20.0
 50
24.99994326790617
 51
97.06900772221272
  0
LINE
  5
19E
  8
0
 10
112.1860601070399
 20
83.74612648212339
 30
0.0
 11
114.1860601070399
 21
93.74612648212339
 31
0.0
  0
LINE
  5
19F
  8
0
 10
114.1860601070399
 20
93.74612648212339
 30
0.0
 11
116.1860601070399
 21
83.90349639825969
 31
0.0
  0
LINE
  5
1A0
  8
0
 10
116.1860601070399
 20
83.90349639825969
 30
0.0
 11
114.1860601070399
 21
78.22805710107811
 31
0.0
  0
LINE
  5
1A1
  8
0
 10
57.18606010703994
 20
83.74612648212339
 30
0.0
 11
112.1860601070399
 21
83.74612648212339
 31
0.0
  0
LINE
  5
1A2
  8
0
 10
341.0074832077331
 20
678.290319507991
 30
0.0
 11
334.6022522924574
 21
673.0967641822047
 31
0.0
  0
LINE
  5
1A3
  8
0
 10
334.6022522924574
 20
673.0967641822047
 30
0.0
 11
342.6979526651299
 21
674.6650866860057
 31
0.0
  0
LINE
  5
1A4
  8
0
 10
2.186060107039934
 20
570.3152714887749
 30
0.0
 11
110.1860601070363
 21
570.3152714887749
 31
0.0
  0
LINE
  5
1A5
  8
0
 10
64.85291529994689
 20
670.8891775990217
 30
0.0
 11
112.4245039761405
 21
573.9064996906166
 31
0.0
  0
LINE
  5
1A7
  8
0
 10
350.9221260766859
 20
657.0282442959635
 30
0.0
 11
342.6979526651299
 21
674.6650866860057
 31
0.0
  0
LINE
  5
1A8
  8
0
 10
335.3229734861958
 20
690.4808214595362
 30
0.0
 11
341.0074832077331
 21
678.290319507991
 31
0.0
  0
ARC
  5
1A9
  8
0
 10
114.1860601070363
 20
570.3152714887749
 30
0.0
 40
4.0
 50
180.0
 51
116.128705586564
  0
ENDSEC
  0
EOF
