  0
SECTION
  2
HEADER
  9
$ACADVER
  1
AC1009
  9
$DWGCODEPAGE
  3
ansi_1252
  9
$INSBASE
 10
0.0
 20
0.0
 30
0.0
  9
$EXTMIN
 10
5432.8934829601
 20
-170.7458710133
 30
0.0
  9
$EXTMAX
 10
6520.1353941716
 20
60.2448070267
 30
0.0
  9
$LIMMIN
 10
0.0
 20
0.0
  9
$LIMMAX
 10
420.0
 20
297.0
  9
$ORTHOMODE
 70
     0
  9
$REGENMODE
 70
     1
  9
$FILLMODE
 70
     1
  9
$QTEXTMODE
 70
     0
  9
$MIRRTEXT
 70
     1
  9
$DRAGMODE
 70
     2
  9
$LTSCALE
 40
1.0
  9
$OSMODE
 70
  1023
  9
$ATTMODE
 70
     1
  9
$TEXTSIZE
 40
3.5
  9
$TRACEWID
 40
1.0
  9
$TEXTSTYLE
  7
STANDARD
  9
$CLAYER
  8
0
  9
$CELTYPE
  6
BYLAYER
  9
$CECOLOR
 62
   256
  9
$DIMSCALE
 40
1.0
  9
$DIMASZ
 40
6.0
  9
$DIMEXO
 40
1.0
  9
$DIMDLI
 40
3.75
  9
$DIMRND
 40
0.0
  9
$DIMDLE
 40
0.0
  9
$DIMEXE
 40
1.0
  9
$DIMTP
 40
0.0
  9
$DIMTM
 40
0.0
  9
$DIMTXT
 40
3.5
  9
$DIMCEN
 40
2.5
  9
$DIMTSZ
 40
0.0
  9
$DIMTOL
 70
     0
  9
$DIMLIM
 70
     0
  9
$DIMTIH
 70
     1
  9
$DIMTOH
 70
     1
  9
$DIMSE1
 70
     0
  9
$DIMSE2
 70
     0
  9
$DIMTAD
 70
     1
  9
$DIMZIN
 70
     0
  9
$DIMBLK
  1

  9
$DIMASO
 70
     1
  9
$DIMSHO
 70
     1
  9
$DIMPOST
  1

  9
$DIMAPOST
  1

  9
$DIMALT
 70
     0
  9
$DIMALTD
 70
     3
  9
$DIMALTF
 40
0.0393700787
  9
$DIMLFAC
 40
1.0
  9
$DIMTOFL
 70
     1
  9
$DIMTVP
 40
0.0
  9
$DIMTIX
 70
     0
  9
$DIMSOXD
 70
     0
  9
$DIMSAH
 70
     0
  9
$DIMBLK1
  1

  9
$DIMBLK2
  1

  9
$DIMSTYLE
  2
ISO-25
  9
$DIMCLRD
 70
     0
  9
$DIMCLRE
 70
     0
  9
$DIMCLRT
 70
     0
  9
$DIMTFAC
 40
1.0
  9
$DIMGAP
 40
1.524
  9
$LUNITS
 70
     2
  9
$LUPREC
 70
     2
  9
$SKETCHINC
 40
1.0
  9
$FILLETRAD
 40
10.0
  9
$AUNITS
 70
     0
  9
$AUPREC
 70
     2
  9
$MENU
  1
.
  9
$ELEVATION
 40
0.0
  9
$PELEVATION
 40
0.0
  9
$THICKNESS
 40
0.0
  9
$LIMCHECK
 70
     0
  9
$CHAMFERA
 40
0.0
  9
$CHAMFERB
 40
0.0
  9
$SKPOLY
 70
     0
  9
$TDCREATE
 40
2456811.953225393
  9
$TDUPDATE
 40
2456812.604307095
  9
$TDINDWG
 40
0.0016070255
  9
$TDUSRTIMER
 40
2456812.519558762
  9
$USRTIMER
 70
     1
  9
$ANGBASE
 50
0.0
  9
$ANGDIR
 70
     0
  9
$PDMODE
 70
     0
  9
$PDSIZE
 40
-1.0
  9
$PLINEWID
 40
0.0
  9
$COORDS
 70
     1
  9
$SPLFRAME
 70
     0
  9
$SPLINETYPE
 70
     6
  9
$SPLINESEGS
 70
     8
  9
$ATTDIA
 70
     0
  9
$ATTREQ
 70
     1
  9
$HANDLING
 70
     1
  9
$HANDSEED
  5
133
  9
$SURFTAB1
 70
     6
  9
$SURFTAB2
 70
     6
  9
$SURFTYPE
 70
     6
  9
$SURFU
 70
     6
  9
$SURFV
 70
     6
  9
$UCSNAME
  2

  9
$UCSORG
 10
0.0
 20
0.0
 30
0.0
  9
$UCSXDIR
 10
1.0
 20
0.0
 30
0.0
  9
$UCSYDIR
 10
0.0
 20
1.0
 30
0.0
  9
$PUCSNAME
  2

  9
$PUCSORG
 10
0.0
 20
0.0
 30
0.0
  9
$PUCSXDIR
 10
1.0
 20
0.0
 30
0.0
  9
$PUCSYDIR
 10
0.0
 20
1.0
 30
0.0
  9
$USERI1
 70
     0
  9
$USERI2
 70
     0
  9
$USERI3
 70
     0
  9
$USERI4
 70
     0
  9
$USERI5
 70
     0
  9
$USERR1
 40
0.0
  9
$USERR2
 40
0.0
  9
$USERR3
 40
0.0
  9
$USERR4
 40
0.0
  9
$USERR5
 40
0.0
  9
$WORLDVIEW
 70
     1
  9
$SHADEDGE
 70
     3
  9
$SHADEDIF
 70
    70
  9
$TILEMODE
 70
     1
  9
$MAXACTVP
 70
    64
  9
$PLIMCHECK
 70
     0
  9
$PEXTMIN
 10
1.000000000000000E+20
 20
1.000000000000000E+20
 30
1.000000000000000E+20
  9
$PEXTMAX
 10
-1.000000000000000E+20
 20
-1.000000000000000E+20
 30
-1.000000000000000E+20
  9
$PLIMMIN
 10
0.0
 20
0.0
  9
$PLIMMAX
 10
0.0
 20
0.0
  9
$UNITMODE
 70
     0
  9
$VISRETAIN
 70
     1
  9
$PLINEGEN
 70
     0
  9
$PSLTSCALE
 70
     1
  0
ENDSEC
  0
SECTION
  2
TABLES
  0
TABLE
  2
VPORT
 70
     1
  0
VPORT
  2
*ACTIVE
 70
     0
 10
0.0
 20
0.0
 11
1.0
 21
1.0
 12
6020.984891221517
 22
-19.98567794163591
 13
0.0
 23
0.0
 14
10.0
 24
10.0
 15
10.0
 25
10.0
 16
0.0
 26
0.0
 36
1.0
 17
0.0
 27
0.0
 37
0.0
 40
1355.858814972344
 41
1.996879875195008
 42
50.0
 43
0.0
 44
0.0
 50
0.0
 51
0.0
 71
    16
 72
   100
 73
     1
 74
     3
 75
     0
 76
     0
 77
     0
 78
     0
  0
ENDTAB
  0
TABLE
  2
LTYPE
 70
     6
  0
LTYPE
  2
CONTINUOUS
 70
     0
  3
Solid line
 72
    65
 73
     0
 40
0.0
  0
LTYPE
  2
HIDDEN
 70
     0
  3
Hidden __ __ __ __ __ __ __ __ __ __ __ __ __ __
 72
    65
 73
     2
 40
1.905
 49
1.27
 49
-0.635
  0
LTYPE
  2
PHANTOM
 70
     0
  3
Phantom ______  __  __  ______  __  __  ______
 72
    65
 73
     6
 40
12.7
 49
6.35
 49
-1.27
 49
1.27
 49
-1.27
 49
1.27
 49
-1.27
  0
LTYPE
  2
CENTER
 70
     0
  3
Center ____ _ ____ _ ____ _ ____ _ ____ _ ____
 72
    65
 73
     4
 40
10.16
 49
6.35
 49
-1.27
 49
1.27
 49
-1.27
  0
LTYPE
  2
CENTERX2
 70
     0
  3
Center (2x) ________  __  ________  __  _____
 72
    65
 73
     4
 40
20.32
 49
12.7
 49
-2.54
 49
2.54
 49
-2.54
  0
LTYPE
  2
DOT2
 70
     0
  3
Dot (.5x) ........................................
 72
    65
 73
     2
 40
0.635
 49
0.0
 49
-0.635
  0
ENDTAB
  0
TABLE
  2
LAYER
 70
     1
  0
LAYER
  2
0
 70
     0
 62
     7
  6
CONTINUOUS
  0
ENDTAB
  0
TABLE
  2
STYLE
 70
     1
  0
STYLE
  2
STANDARD
 70
     0
 40
0.0
 41
1.0
 50
0.0
 71
     0
 42
3.5
  3
txt
  4

  0
ENDTAB
  0
TABLE
  2
VIEW
 70
     0
  0
ENDTAB
  0
TABLE
  2
UCS
 70
     0
  0
ENDTAB
  0
TABLE
  2
APPID
 70
     1
  0
APPID
  2
ACAD
 70
     0
  0
ENDTAB
  0
TABLE
  2
DIMSTYLE
 70
     1
  0
DIMSTYLE
  2
ISO-25
 70
     0
  3

  4

  5

  6

  7

 40
1.0
 41
2.5
 42
0.625
 43
3.75
 44
1.25
 45
0.0
 46
0.0
 47
0.0
 48
0.0
140
2.5
141
2.5
142
0.0
143
0.0393700787
144
1.0
145
0.0
146
1.0
147
0.625
 71
     0
 72
     0
 73
     0
 74
     0
 75
     0
 76
     0
 77
     1
 78
     8
170
     0
171
     3
172
     1
173
     0
174
     0
175
     0
176
     0
177
     0
178
     0
  0
ENDTAB
  0
ENDSEC
  0
SECTION
  2
BLOCKS
  0
BLOCK
  8
0
  2
$MODEL_SPACE
 70
     0
 10
0.0
 20
0.0
 30
0.0
  3
$MODEL_SPACE
  1

  0
ENDBLK
  5
21
  8
0
  0
BLOCK
 67
     1
  8
0
  2
$PAPER_SPACE
 70
     0
 10
0.0
 20
0.0
 30
0.0
  3
$PAPER_SPACE
  1

  0
ENDBLK
  5
1D
 67
     1
  8
0
  0
ENDSEC
  0
SECTION
  2
ENTITIES
  0
CIRCLE
  5
7E
  8
0
 10
5595.0
 20
5.0
 30
0.0
 40
16.0
  0
LINE
  5
80
  8
0
 10
6389.8229279443
 20
43.0
 30
0.0
 11
6389.1785556519
 21
42.6995242654
 31
0.0
  0
LINE
  5
81
  8
0
 10
6389.1785556519
 20
42.6995242654
 30
0.0
 11
6390.0237921754
 21
40.8869086913
 31
0.0
  0
LINE
  5
82
  8
0
 10
6390.0237921754
 20
40.8869086913
 30
0.0
 11
6393.107363801591
 21
42.32480175506217
 31
0.0
  0
LINE
  5
83
  8
0
 10
6431.5369391222
 20
60.2448070267
 30
0.0
 11
6520.1353941716
 21
-129.7551929733
 31
0.0
  0
LINE
  5
84
  8
0
 10
6520.1353941716
 20
-129.7551929733
 30
0.0
 11
6486.6020060513
 21
-145.3920686577
 31
0.0
  0
LINE
  5
85
  8
0
 10
6486.6020060513
 20
-145.3920686577
 30
0.0
 11
6485.209210372621
 21
-145.72343927572
 31
0.0
  0
LINE
  5
86
  8
0
 10
6479.8436524032
 20
-147.0
 30
0.0
 11
5595.9603342065
 21
-147.0
 31
0.0
  0
LINE
  5
87
  8
0
 10
5600.9179592445
 20
-143.8018809557
 30
0.0
 11
5595.9603342065
 21
-147.0
 31
0.0
  0
LINE
  5
88
  8
0
 10
5599.8337889795
 20
-142.1212338075
 30
0.0
 11
5600.9179592445
 21
-143.8018809557
 31
0.0
  0
LINE
  5
89
  8
0
 10
5555.4607634139
 20
-170.7458710133
 30
0.0
 11
5593.613424103947
 21
-146.133934892919
 31
0.0
  0
LINE
  5
8A
  8
0
 10
5469.8677202189
 20
43.1058748165
 30
0.0
 11
5432.8934829601
 21
19.2541289867
 31
0.0
  0
LINE
  5
8B
  8
0
 10
5469.8677202189
 20
43.1058748165
 30
0.0
 11
5471.550610906214
 21
43.08405559919197
 31
0.0
  0
LINE
  5
8C
  8
0
 10
5478.0337208684
 20
43.0
 30
0.0
 11
6389.8229279443
 21
43.0
 31
0.0
  0
LINE
  5
8D
  8
0
 10
5432.8934829601
 20
19.2541289867
 30
0.0
 11
5555.4607634139
 21
-170.7458710133
 31
0.0
  0
LINE
  5
127
  8
0
 10
6396.732594949774
 20
44.01527480198089
 30
0.0
 11
6398.300925469601
 21
35.9195759822549
 31
0.0
  0
LINE
  5
128
  8
0
 10
6398.300925469601
 20
35.9195759822549
 30
0.0
 11
6393.107363801626
 21
42.32480175501912
 31
0.0
  0
LINE
  5
129
  8
0
 10
6481.236448081747
 20
-146.6686293820116
 30
0.0
 11
6479.771176279584
 21
-138.7939406955348
 31
0.0
  0
LINE
  5
12A
  8
0
 10
6479.771176279584
 20
-138.7939406955348
 30
0.0
 11
6485.209210372621
 21
-145.7234392757197
 31
0.0
  0
LINE
  5
12B
  8
0
 10
5593.613424103974
 20
-146.133934892992
 30
0.0
 11
5590.848937207837
 21
-138.3971380740416
 31
0.0
  0
LINE
  5
12C
  8
0
 10
5590.848937207837
 20
-138.3971380740416
 30
0.0
 11
5596.974718400227
 21
-143.965594363008
 31
0.0
  0
LINE
  5
12D
  8
0
 10
5471.550610906214
 20
43.08405559919179
 30
0.0
 11
5479.145597584657
 21
35.0
 31
0.0
  0
LINE
  5
12E
  8
0
 10
5479.145597584657
 20
35.0
 30
0.0
 11
5476.350830181051
 21
43.02181921730851
 31
0.0
  0
LINE
  5
12F
  8
0
 10
6396.732594949763
 20
44.01527480203585
 30
0.0
 11
6431.5369391222
 21
60.2448070267
 31
0.0
  0
LINE
  5
130
  8
0
 10
6481.236448081747
 20
-146.6686293820116
 30
0.0
 11
6479.8436524032
 21
-147.0
 31
0.0
  0
LINE
  5
131
  8
0
 10
5476.350830181051
 20
43.02181921730849
 30
0.0
 11
5478.0337208684
 21
43.0
 31
0.0
  0
LINE
  5
132
  8
0
 10
5596.974718400165
 20
-143.9655943629516
 30
0.0
 11
5599.8337889795
 21
-142.1212338075
 31
0.0
  0
ENDSEC
  0
EOF
