  0
SECTION
  2
HEADER
  9
$ACADVER
  1
AC1009
  9
$DWGCODEPAGE
  3
ansi_1252
  9
$INSBASE
 10
0.0
 20
0.0
 30
0.0
  9
$EXTMIN
 10
2.276374975638277
 20
2.555607094133697
 30
0.0
  9
$EXTMAX
 10
170.2763749756383
 20
441.5556070941337
 30
0.0
  9
$LIMMIN
 10
0.0
 20
0.0
  9
$LIMMAX
 10
12.0
 20
9.0
  9
$ORTHOMODE
 70
     0
  9
$REGENMODE
 70
     1
  9
$FILLMODE
 70
     1
  9
$QTEXTMODE
 70
     0
  9
$MIRRTEXT
 70
     0
  9
$DRAGMODE
 70
     2
  9
$LTSCALE
 40
1.0
  9
$OSMODE
 70
  1023
  9
$ATTMODE
 70
     1
  9
$TEXTSIZE
 40
0.2
  9
$TRACEWID
 40
0.05
  9
$TEXTSTYLE
  7
STANDARD
  9
$CLAYER
  8
0
  9
$CELTYPE
  6
BYLAYER
  9
$CECOLOR
 62
   256
  9
$DIMSCALE
 40
1.0
  9
$DIMASZ
 40
0.18
  9
$DIMEXO
 40
0.0625
  9
$DIMDLI
 40
0.38
  9
$DIMRND
 40
0.0
  9
$DIMDLE
 40
0.0
  9
$DIMEXE
 40
0.18
  9
$DIMTP
 40
0.0
  9
$DIMTM
 40
0.0
  9
$DIMTXT
 40
0.18
  9
$DIMCEN
 40
0.09
  9
$DIMTSZ
 40
0.0
  9
$DIMTOL
 70
     0
  9
$DIMLIM
 70
     0
  9
$DIMTIH
 70
     1
  9
$DIMTOH
 70
     1
  9
$DIMSE1
 70
     0
  9
$DIMSE2
 70
     0
  9
$DIMTAD
 70
     0
  9
$DIMZIN
 70
     0
  9
$DIMBLK
  1

  9
$DIMASO
 70
     1
  9
$DIMSHO
 70
     1
  9
$DIMPOST
  1

  9
$DIMAPOST
  1

  9
$DIMALT
 70
     0
  9
$DIMALTD
 70
     2
  9
$DIMALTF
 40
25.4
  9
$DIMLFAC
 40
1.0
  9
$DIMTOFL
 70
     0
  9
$DIMTVP
 40
0.0
  9
$DIMTIX
 70
     0
  9
$DIMSOXD
 70
     0
  9
$DIMSAH
 70
     0
  9
$DIMBLK1
  1

  9
$DIMBLK2
  1

  9
$DIMSTYLE
  2
STANDARD
  9
$DIMCLRD
 70
     0
  9
$DIMCLRE
 70
     0
  9
$DIMCLRT
 70
     0
  9
$DIMTFAC
 40
1.0
  9
$DIMGAP
 40
0.09
  9
$LUNITS
 70
     2
  9
$LUPREC
 70
     4
  9
$SKETCHINC
 40
0.1
  9
$FILLETRAD
 40
0.0
  9
$AUNITS
 70
     0
  9
$AUPREC
 70
     0
  9
$MENU
  1
.
  9
$ELEVATION
 40
0.0
  9
$PELEVATION
 40
0.0
  9
$THICKNESS
 40
0.0
  9
$LIMCHECK
 70
     0
  9
$CHAMFERA
 40
0.0
  9
$CHAMFERB
 40
0.0
  9
$SKPOLY
 70
     0
  9
$TDCREATE
 40
2452643.146717593
  9
$TDUPDATE
 40
2457199.37903397
  9
$TDINDWG
 40
0.0012227083
  9
$TDUSRTIMER
 40
2457199.295045903
  9
$USRTIMER
 70
     1
  9
$ANGBASE
 50
0.0
  9
$ANGDIR
 70
     0
  9
$PDMODE
 70
     0
  9
$PDSIZE
 40
0.0
  9
$PLINEWID
 40
0.0
  9
$COORDS
 70
     1
  9
$SPLFRAME
 70
     0
  9
$SPLINETYPE
 70
     6
  9
$SPLINESEGS
 70
     8
  9
$ATTDIA
 70
     0
  9
$ATTREQ
 70
     1
  9
$HANDLING
 70
     1
  9
$HANDSEED
  5
1EE
  9
$SURFTAB1
 70
     6
  9
$SURFTAB2
 70
     6
  9
$SURFTYPE
 70
     6
  9
$SURFU
 70
     6
  9
$SURFV
 70
     6
  9
$UCSNAME
  2

  9
$UCSORG
 10
0.0
 20
0.0
 30
0.0
  9
$UCSXDIR
 10
1.0
 20
0.0
 30
0.0
  9
$UCSYDIR
 10
0.0
 20
1.0
 30
0.0
  9
$PUCSNAME
  2

  9
$PUCSORG
 10
0.0
 20
0.0
 30
0.0
  9
$PUCSXDIR
 10
1.0
 20
0.0
 30
0.0
  9
$PUCSYDIR
 10
0.0
 20
1.0
 30
0.0
  9
$USERI1
 70
     0
  9
$USERI2
 70
     0
  9
$USERI3
 70
     0
  9
$USERI4
 70
     0
  9
$USERI5
 70
     0
  9
$USERR1
 40
0.0
  9
$USERR2
 40
0.0
  9
$USERR3
 40
0.0
  9
$USERR4
 40
0.0
  9
$USERR5
 40
0.0
  9
$WORLDVIEW
 70
     1
  9
$SHADEDGE
 70
     3
  9
$SHADEDIF
 70
    70
  9
$TILEMODE
 70
     1
  9
$MAXACTVP
 70
    64
  9
$PLIMCHECK
 70
     0
  9
$PEXTMIN
 10
0.0
 20
0.0
 30
0.0
  9
$PEXTMAX
 10
0.0
 20
0.0
 30
0.0
  9
$PLIMMIN
 10
0.0
 20
0.0
  9
$PLIMMAX
 10
0.0
 20
0.0
  9
$UNITMODE
 70
     0
  9
$VISRETAIN
 70
     1
  9
$PLINEGEN
 70
     0
  9
$PSLTSCALE
 70
     1
  0
ENDSEC
  0
SECTION
  2
TABLES
  0
TABLE
  2
VPORT
 70
     1
  0
VPORT
  2
*ACTIVE
 70
     0
 10
0.0
 20
0.0
 11
1.0
 21
1.0
 12
190.042604400996
 22
-43.32054284370275
 13
0.0
 23
0.0
 14
0.5
 24
0.5
 15
0.5
 25
0.5
 16
0.0
 26
0.0
 36
1.0
 17
-27.66959356597982
 27
-19.53870295786203
 37
0.0
 40
1974.445142934293
 41
2.534788540245566
 42
50.0
 43
0.0
 44
0.0
 50
0.0
 51
0.0
 71
    16
 72
  1000
 73
     1
 74
     3
 75
     0
 76
     0
 77
     0
 78
     0
  0
ENDTAB
  0
TABLE
  2
LTYPE
 70
     1
  0
LTYPE
  2
CONTINUOUS
 70
     0
  3
Solid line
 72
    65
 73
     0
 40
0.0
  0
ENDTAB
  0
TABLE
  2
LAYER
 70
     1
  0
LAYER
  2
0
 70
     0
 62
     7
  6
CONTINUOUS
  0
ENDTAB
  0
TABLE
  2
STYLE
 70
     1
  0
STYLE
  2
STANDARD
 70
     0
 40
0.0
 41
1.0
 50
0.0
 71
     0
 42
0.2
  3
arial.ttf
  4

  0
ENDTAB
  0
TABLE
  2
VIEW
 70
     0
  0
ENDTAB
  0
TABLE
  2
UCS
 70
     0
  0
ENDTAB
  0
TABLE
  2
APPID
 70
     5
  0
APPID
  2
ACAD
 70
     0
  0
APPID
  2
ACAD_DSTYLE_DIMBREAK
 70
     0
  0
APPID
  2
ACAD_DSTYLE_DIMJAG
 70
     0
  0
APPID
  2
ACAD_DSTYLE_DIMTALN
 70
     0
  0
APPID
  2
ACAD_PSEXT
 70
     0
  0
ENDTAB
  0
TABLE
  2
DIMSTYLE
 70
     2
  0
DIMSTYLE
  2
STANDARD
 70
     0
  3

  4

  5

  6

  7

 40
1.0
 41
0.18
 42
0.0625
 43
0.38
 44
0.18
 45
0.0
 46
0.0
 47
0.0
 48
0.0
140
0.18
141
0.09
142
0.0
143
25.4
144
1.0
145
0.0
146
1.0
147
0.09
 71
     0
 72
     0
 73
     1
 74
     1
 75
     0
 76
     0
 77
     0
 78
     0
170
     0
171
     2
172
     0
173
     0
174
     0
175
     0
176
     0
177
     0
178
     0
  0
DIMSTYLE
  2
COPIA_DI_ISO-25
 70
     0
  3

  4

  5

  6

  7

 40
1.0
 41
20.0
 42
16.0
 43
3.75
 44
1.25
 45
0.0
 46
0.0
 47
0.0
 48
0.0
140
30.0
141
2.5
142
0.0
143
0.0393700787
144
1.0
145
0.0
146
1.0
147
10.0
 71
     0
 72
     0
 73
     0
 74
     0
 75
     0
 76
     0
 77
     1
 78
     8
170
     0
171
     3
172
     1
173
     0
174
     0
175
     0
176
     0
177
     0
178
     0
  0
ENDTAB
  0
ENDSEC
  0
SECTION
  2
BLOCKS
  0
BLOCK
  8
0
  2
$MODEL_SPACE
 70
     0
 10
0.0
 20
0.0
 30
0.0
  3
$MODEL_SPACE
  1

  0
ENDBLK
  5
21
  8
0
  0
BLOCK
 67
     1
  8
0
  2
$PAPER_SPACE
 70
     0
 10
0.0
 20
0.0
 30
0.0
  3
$PAPER_SPACE
  1

  0
ENDBLK
  5
5B
 67
     1
  8
0
  0
ENDSEC
  0
SECTION
  2
ENTITIES
  0
LINE
  5
167
  8
0
 10
170.2763749756383
 20
405.5556070941337
 30
0.0
 11
170.2763749756383
 21
2.555607094133697
 31
0.0
  0
LINE
  5
168
  8
0
 10
2.276374975638277
 20
401.5556070941337
 30
0.0
 11
2.276374975638277
 21
158.0325835217435
 31
0.0
  0
LINE
  5
169
  8
0
 10
170.2763749756383
 20
2.555607094133697
 30
0.0
 11
135.2763749756383
 21
2.555607094133697
 31
0.0
  0
ARC
  5
16A
  8
0
 10
130.8773621885835
 20
45.74104974201585
 30
0.0
 40
44.45885191873889
 50
206.3415366963343
 51
256.2537384574744
  0
LINE
  5
16B
  8
0
 10
170.2763749756383
 20
405.5556070941337
 30
0.0
 11
135.2763749756383
 21
405.5556070941337
 31
0.0
  0
ARC
  5
16C
  8
0
 10
155.2763749756383
 20
372.5556070941337
 30
0.0
 40
8.5
 50
270.0
 51
90.0
  0
ARC
  5
16D
  8
0
 10
155.2763749756383
 20
27.5556070941337
 30
0.0
 40
8.5
 50
270.0
 51
90.0
  0
ARC
  5
16E
  8
0
 10
151.2763749756383
 20
372.5556070941337
 30
0.0
 40
8.5
 50
90.0
 51
270.0
  0
ARC
  5
16F
  8
0
 10
151.2763749756383
 20
27.5556070941337
 30
0.0
 40
8.5
 50
90.0
 51
270.0
  0
LINE
  5
170
  8
0
 10
151.2763749756383
 20
36.0556070941337
 30
0.0
 11
155.2763749756383
 21
36.0556070941337
 31
0.0
  0
LINE
  5
171
  8
0
 10
151.2763749756383
 20
19.0556070941337
 30
0.0
 11
155.2763749756383
 21
19.0556070941337
 31
0.0
  0
LINE
  5
172
  8
0
 10
151.2763749756383
 20
381.0556070941337
 30
0.0
 11
155.2763749756383
 21
381.0556070941337
 31
0.0
  0
LINE
  5
173
  8
0
 10
151.2763749756383
 20
364.0556070941337
 30
0.0
 11
155.2763749756383
 21
364.0556070941337
 31
0.0
  0
LINE
  5
174
  8
0
 10
103.3474427875031
 20
441.5556070941337
 30
0.0
 11
42.27637497563828
 21
441.5556070941337
 31
0.0
  0
LINE
  5
175
  8
0
 10
91.03489562833292
 20
26.01372421807431
 30
0.0
 11
2.998332547294552
 21
151.4907006456823
 31
0.0
  0
ARC
  5
176
  8
0
 10
32.27637497563828
 20
158.0325835217435
 30
0.0
 40
30.0
 50
180.0
 51
192.5952751538118
  0
LINE
  5
177
  8
0
 10
129.2763749756383
 20
2.555607094133697
 30
0.0
 11
132.2763749756383
 21
12.5556070941337
 31
0.0
  0
LINE
  5
178
  8
0
 10
132.2763749756383
 20
12.5556070941337
 30
0.0
 11
135.2763749756383
 21
2.555607094133697
 31
0.0
  0
LINE
  5
179
  8
0
 10
129.2763749756383
 20
408.5556070941337
 30
0.0
 11
132.2763749756383
 21
395.5556070941337
 31
0.0
  0
LINE
  5
17A
  8
0
 10
132.2763749756383
 20
395.5556070941337
 30
0.0
 11
135.2763749756383
 21
405.5556070941337
 31
0.0
  0
LINE
  5
17B
  8
0
 10
129.2763749756383
 20
2.555607094133697
 30
0.0
 11
120.3129380566757
 21
2.555607094133697
 31
0.0
  0
LINE
  5
17C
  8
0
 10
132.8119088815716
 20
412.0911410000652
 30
0.0
 11
129.2763749756383
 21
408.5556070941337
 31
0.0
  0
LINE
  5
17D
  8
0
 10
132.8119088815716
 20
412.0911410000652
 30
0.0
 11
103.3474427875031
 21
441.5556070941337
 31
0.0
  0
ARC
  5
17E
  8
0
 10
42.27637497563828
 20
401.5556070941337
 30
0.0
 40
40.0
 50
90.0
 51
180.0
  0
ENDSEC
  0
EOF
