0
SECTION
2
HEADER
9
$PDMODE
70
33
9
$PDSIZE
40
1.000
9
$EXTMIN
10
-160.000
20
-160.000
30
-1.000
9
$EXTMAX
10
1760.000
20
1760.000
30
1.000
9
$LIMMIN
10
-160.000
20
-160.000
9
$LIMMAX
10
1760.000
20
1760.000
0
ENDSEC
0
SECTION
2
TABLES
0
TABLE
2
LAYER
70
7
0
LAYER
2
0
70
0
62
2
6
CONTINUOUS
0
LAYER
2
0
70
0
62
2
6
CONTINUOUS
0
ENDTAB
0
TABLE
2
VPORT
70
4
0
VPORT
2
*ACTIVE
70
0
10
0.000000
20
0.000000
11
1.000000
21
1.000000
12
800.000000
22
800.000000
13
0.000000
23
0.000000
14
1.000000
24
1.000000
15
1.000000
25
1.000000
16
0.000000
26
0.000000
36
1.000000
17
0.000000
27
0.000000
37
0.000000
40
1600.000000
41
1.500000
42
50.000000
43
0.000000
44
0.000000
50
0.000000
51
0.000000
71
0
72
100
73
1
74
1
75
0
76
0
77
0
78
0
0
ENDTAB
0
ENDSEC
0
SECTION
2
ENTITIES
0
POLYLINE
8
0
6
CONTINUOUS
62
2
66
1
10
0.000
20
0.000
30
0.000
70
1
0
VERTEX
8
0
10
0.000
20
50.000
30
0.000
42
0.00000000
0
VERTEX
8
0
10
0.000
20
1550.000
30
0.000
42
0.00000000
0
VERTEX
8
0
10
50.000
20
1600.000
30
0.000
42
0.00000000
0
VERTEX
8
0
10
1550.000
20
1600.000
30
0.000
42
0.00000000
0
VERTEX
8
0
10
1600.000
20
1550.000
30
0.000
42
0.00000000
0
VERTEX
8
0
10
1600.000
20
50.000
30
0.000
42
0.00000000
0
VERTEX
8
0
10
1550.000
20
0.000
30
0.000
42
0.00000000
0
VERTEX
8
0
10
50.000
20
0.000
30
0.000
42
0.00000000
0
SEQEND
0
POLYLINE
8
0
6
CONTINUOUS
62
2
66
1
10
0.000
20
0.000
30
0.000
70
1
0
VERTEX
8
0
10
1319.990
20
1400.000
30
0.000
42
-1.00000000
0
VERTEX
8
0
10
1479.990
20
1400.000
30
0.000
42
-1.00000000
0
SEQEND
0
POLYLINE
8
0
6
CONTINUOUS
62
2
66
1
10
0.000
20
0.000
30
0.000
70
1
0
VERTEX
8
0
10
920.000
20
1400.000
30
0.000
42
-0.98888164
0
VERTEX
8
0
10
1079.990
20
1400.000
30
0.000
42
-0.98888164
0
SEQEND
0
POLYLINE
8
0
6
CONTINUOUS
62
2
66
1
10
0.000
20
0.000
30
0.000
70
1
0
VERTEX
8
0
10
520.000
20
1400.000
30
0.000
42
-1.00000000
0
VERTEX
8
0
10
680.000
20
1400.000
30
0.000
42
-1.00000000
0
SEQEND
0
POLYLINE
8
0
6
CONTINUOUS
62
2
66
1
10
0.000
20
0.000
30
0.000
70
1
0
VERTEX
8
0
10
120.000
20
1400.000
30
0.000
42
-1.00000000
0
VERTEX
8
0
10
280.000
20
1400.000
30
0.000
42
-1.00000000
0
SEQEND
0
POLYLINE
8
0
6
CONTINUOUS
62
2
66
1
10
0.000
20
0.000
30
0.000
70
1
0
VERTEX
8
0
10
1319.990
20
1000.000
30
0.000
42
-1.00000000
0
VERTEX
8
0
10
1479.990
20
1000.000
30
0.000
42
-1.00000000
0
SEQEND
0
POLYLINE
8
0
6
CONTINUOUS
62
2
66
1
10
0.000
20
0.000
30
0.000
70
1
0
VERTEX
8
0
10
920.000
20
1000.000
30
0.000
42
-0.98888164
0
VERTEX
8
0
10
1079.990
20
1000.000
30
0.000
42
-0.98888164
0
SEQEND
0
POLYLINE
8
0
6
CONTINUOUS
62
2
66
1
10
0.000
20
0.000
30
0.000
70
1
0
VERTEX
8
0
10
520.000
20
1000.000
30
0.000
42
-1.00000000
0
VERTEX
8
0
10
680.000
20
1000.000
30
0.000
42
-1.00000000
0
SEQEND
0
POLYLINE
8
0
6
CONTINUOUS
62
2
66
1
10
0.000
20
0.000
30
0.000
70
1
0
VERTEX
8
0
10
120.000
20
1000.000
30
0.000
42
-1.00000000
0
VERTEX
8
0
10
280.000
20
1000.000
30
0.000
42
-1.00000000
0
SEQEND
0
POLYLINE
8
0
6
CONTINUOUS
62
2
66
1
10
0.000
20
0.000
30
0.000
70
1
0
VERTEX
8
0
10
1319.990
20
600.000
30
0.000
42
-1.00000000
0
VERTEX
8
0
10
1479.990
20
600.000
30
0.000
42
-1.00000000
0
SEQEND
0
POLYLINE
8
0
6
CONTINUOUS
62
2
66
1
10
0.000
20
0.000
30
0.000
70
1
0
VERTEX
8
0
10
920.000
20
600.000
30
0.000
42
-0.98888164
0
VERTEX
8
0
10
1079.990
20
600.000
30
0.000
42
-0.98888164
0
SEQEND
0
POLYLINE
8
0
6
CONTINUOUS
62
2
66
1
10
0.000
20
0.000
30
0.000
70
1
0
VERTEX
8
0
10
520.000
20
600.000
30
0.000
42
-1.00000000
0
VERTEX
8
0
10
680.000
20
600.000
30
0.000
42
-1.00000000
0
SEQEND
0
POLYLINE
8
0
6
CONTINUOUS
62
2
66
1
10
0.000
20
0.000
30
0.000
70
1
0
VERTEX
8
0
10
120.000
20
600.000
30
0.000
42
-1.00000000
0
VERTEX
8
0
10
280.000
20
600.000
30
0.000
42
-1.00000000
0
SEQEND
0
POLYLINE
8
0
6
CONTINUOUS
62
2
66
1
10
0.000
20
0.000
30
0.000
70
1
0
VERTEX
8
0
10
1319.990
20
200.000
30
0.000
42
-1.00000000
0
VERTEX
8
0
10
1479.990
20
200.000
30
0.000
42
-1.00000000
0
SEQEND
0
POLYLINE
8
0
6
CONTINUOUS
62
2
66
1
10
0.000
20
0.000
30
0.000
70
1
0
VERTEX
8
0
10
920.000
20
200.000
30
0.000
42
-0.98888164
0
VERTEX
8
0
10
1079.990
20
200.000
30
0.000
42
-0.98888164
0
SEQEND
0
POLYLINE
8
0
6
CONTINUOUS
62
2
66
1
10
0.000
20
0.000
30
0.000
70
1
0
VERTEX
8
0
10
520.000
20
200.000
30
0.000
42
-1.00000000
0
VERTEX
8
0
10
680.000
20
200.000
30
0.000
42
-1.00000000
0
SEQEND
0
POLYLINE
8
0
6
CONTINUOUS
62
2
66
1
10
0.000
20
0.000
30
0.000
70
1
0
VERTEX
8
0
10
120.000
20
200.000
30
0.000
42
-1.00000000
0
VERTEX
8
0
10
280.000
20
200.000
30
0.000
42
-1.00000000
0
SEQEND
0
ENDSEC
0
EOF
