0
SECTION
2
HEADER
9
$PDMODE
70
33
9
$PDSIZE
40
1.000
9
$EXTMIN
10
-44.500
20
-29.000
30
-1.000
9
$EXTMAX
10
489.500
20
319.000
30
1.000
9
$LIMMIN
10
-44.500
20
-29.000
9
$LIMMAX
10
489.500
20
319.000
0
ENDSEC
0
SECTION
2
TABLES
0
TABLE
2
LAYER
70
7
0
LAYER
2
0
70
0
62
2
6
CONTINUOUS
0
LAYER
2
0
70
0
62
2
6
CONTINUOUS
0
LAYER
2
18
70
0
62
7
6
CONTINUOUS
0
ENDTAB
0
TABLE
2
VPORT
70
4
0
VPORT
2
*ACTIVE
70
0
10
0.000000
20
0.000000
11
1.000000
21
1.000000
12
222.500000
22
145.000000
13
0.000000
23
0.000000
14
1.000000
24
1.000000
15
1.000000
25
1.000000
16
0.000000
26
0.000000
36
1.000000
17
0.000000
27
0.000000
37
0.000000
40
445.000000
41
1.500000
42
50.000000
43
0.000000
44
0.000000
50
0.000000
51
0.000000
71
0
72
100
73
1
74
1
75
0
76
0
77
0
78
0
0
ENDTAB
0
ENDSEC
0
SECTION
2
ENTITIES
0
POLYLINE
8
0
6
CONTINUOUS
62
2
66
1
10
0.000
20
0.000
30
0.000
70
1
0
VERTEX
8
0
10
0.000
20
20.000
30
0.000
42
0.00000000
0
VERTEX
8
0
10
0.000
20
270.000
30
0.000
42
0.00000000
0
VERTEX
8
0
10
40.000
20
290.000
30
0.000
42
0.00000000
0
VERTEX
8
0
10
405.000
20
290.000
30
0.000
42
0.00000000
0
VERTEX
8
0
10
445.000
20
270.000
30
0.000
42
0.00000000
0
VERTEX
8
0
10
445.000
20
20.000
30
0.000
42
0.00000000
0
VERTEX
8
0
10
405.000
20
0.000
30
0.000
42
0.00000000
0
VERTEX
8
0
10
40.000
20
0.000
30
0.000
42
0.00000000
0
SEQEND
0
POLYLINE
8
0
6
CONTINUOUS
62
2
66
1
10
0.000
20
0.000
30
0.000
70
1
0
VERTEX
8
0
10
66.000
20
230.000
30
0.000
42
-1.00000000
0
VERTEX
8
0
10
84.000
20
230.000
30
0.000
42
-1.00000000
0
SEQEND
0
POLYLINE
8
0
6
CONTINUOUS
62
2
66
1
10
0.000
20
0.000
30
0.000
70
1
0
VERTEX
8
0
10
361.000
20
230.000
30
0.000
42
-1.00000000
0
VERTEX
8
0
10
379.000
20
230.000
30
0.000
42
-1.00000000
0
SEQEND
0
POLYLINE
8
0
6
CONTINUOUS
62
2
66
1
10
0.000
20
0.000
30
0.000
70
1
0
VERTEX
8
0
10
146.000
20
145.000
30
0.000
42
-0.41421356
0
VERTEX
8
0
10
200.000
20
199.000
30
0.000
42
0.00000000
0
VERTEX
8
0
10
245.000
20
199.000
30
0.000
42
-1.00000000
0
VERTEX
8
0
10
245.000
20
91.000
30
0.000
42
0.00000000
0
VERTEX
8
0
10
200.000
20
91.000
30
0.000
42
-0.41421356
0
SEQEND
0
POLYLINE
8
0
6
CONTINUOUS
62
2
66
1
10
0.000
20
0.000
30
0.000
70
1
0
VERTEX
8
0
10
66.000
20
60.000
30
0.000
42
-1.00000000
0
VERTEX
8
0
10
84.000
20
60.000
30
0.000
42
-1.00000000
0
SEQEND
0
POLYLINE
8
0
6
CONTINUOUS
62
2
66
1
10
0.000
20
0.000
30
0.000
70
1
0
VERTEX
8
0
10
361.000
20
60.000
30
0.000
42
-1.00000000
0
VERTEX
8
0
10
379.000
20
60.000
30
0.000
42
-1.00000000
0
SEQEND
0
POLYLINE
8
18
6
CONTINUOUS
62
7
66
1
10
0.000
20
0.000
30
0.000
70
1
0
VERTEX
8
18
10
75.000
20
69.000
30
0.000
42
1.00000000
0
VERTEX
8
18
10
75.000
20
51.000
30
0.000
42
1.00000000
0
SEQEND
0
POLYLINE
8
18
6
CONTINUOUS
62
7
66
1
10
0.000
20
0.000
30
0.000
70
1
0
VERTEX
8
18
10
75.000
20
239.000
30
0.000
42
1.00000000
0
VERTEX
8
18
10
75.000
20
221.000
30
0.000
42
1.00000000
0
SEQEND
0
POLYLINE
8
18
6
CONTINUOUS
62
7
66
1
10
0.000
20
0.000
30
0.000
70
1
0
VERTEX
8
18
10
370.000
20
69.000
30
0.000
42
1.00000000
0
VERTEX
8
18
10
370.000
20
51.000
30
0.000
42
1.00000000
0
SEQEND
0
POLYLINE
8
18
6
CONTINUOUS
62
7
66
1
10
0.000
20
0.000
30
0.000
70
1
0
VERTEX
8
18
10
370.000
20
239.000
30
0.000
42
1.00000000
0
VERTEX
8
18
10
370.000
20
221.000
30
0.000
42
1.00000000
0
SEQEND
0
ENDSEC
0
EOF
