0
SECTION
2
HEADER
9
$PDMODE
70
33
9
$PDSIZE
40
1.000
9
$EXTMIN
10
-30.000
20
-20.500
30
-1.000
9
$EXTMAX
10
330.000
20
225.500
30
1.000
9
$LIMMIN
10
-30.000
20
-20.500
9
$LIMMAX
10
330.000
20
225.500
0
ENDSEC
0
SECTION
2
TABLES
0
TABLE
2
LAYER
70
7
0
LAYER
2
0
70
0
62
2
6
CONTINUOUS
0
LAYER
2
0
70
0
62
2
6
CONTINUOUS
0
ENDTAB
0
TABLE
2
VPORT
70
4
0
VPORT
2
*ACTIVE
70
0
10
0.000000
20
0.000000
11
1.000000
21
1.000000
12
150.000000
22
102.500000
13
0.000000
23
0.000000
14
1.000000
24
1.000000
15
1.000000
25
1.000000
16
0.000000
26
0.000000
36
1.000000
17
0.000000
27
0.000000
37
0.000000
40
300.000000
41
1.500000
42
50.000000
43
0.000000
44
0.000000
50
0.000000
51
0.000000
71
0
72
100
73
1
74
1
75
0
76
0
77
0
78
0
0
ENDTAB
0
ENDSEC
0
SECTION
2
ENTITIES
0
POLYLINE
8
0
6
CONTINUOUS
62
2
66
1
10
0.000
20
0.000
30
0.000
70
1
0
VERTEX
8
0
10
0.000
20
50.000
30
0.000
42
0.00000000
0
VERTEX
8
0
10
0.000
20
205.000
30
0.000
42
0.00000000
0
VERTEX
8
0
10
300.000
20
205.000
30
0.000
42
0.00000000
0
VERTEX
8
0
10
300.000
20
50.000
30
0.000
42
0.00000000
0
VERTEX
8
0
10
250.000
20
0.000
30
0.000
42
0.00000000
0
VERTEX
8
0
10
50.000
20
0.000
30
0.000
42
0.00000000
0
SEQEND
0
POLYLINE
8
0
6
CONTINUOUS
62
2
66
1
10
0.000
20
0.000
30
0.000
70
1
0
VERTEX
8
0
10
140.000
20
155.000
30
0.000
42
-1.00000000
0
VERTEX
8
0
10
160.000
20
155.000
30
0.000
42
-1.00000000
0
SEQEND
0
POLYLINE
8
0
6
CONTINUOUS
62
2
66
1
10
0.000
20
0.000
30
0.000
70
1
0
VERTEX
8
0
10
51.930
20
134.510
30
0.000
42
-0.25069329
0
VERTEX
8
0
10
62.590
20
150.080
30
0.000
42
0.00000000
0
VERTEX
8
0
10
66.260
20
151.550
30
0.000
42
0.00000000
0
VERTEX
8
0
10
70.230
20
152.270
30
0.000
42
0.00000000
0
VERTEX
8
0
10
73.180
20
152.290
30
0.000
42
0.00000000
0
VERTEX
8
0
10
76.570
20
151.760
30
0.000
42
0.00000000
0
VERTEX
8
0
10
80.270
20
150.460
30
0.000
42
0.04711708
0
VERTEX
8
0
10
109.500
20
140.050
30
0.000
42
0.03564497
0
VERTEX
8
0
10
132.630
20
135.920
30
0.000
42
0.03697802
0
VERTEX
8
0
10
156.990
20
135.150
30
0.000
42
0.04223210
0
VERTEX
8
0
10
184.590
20
138.670
30
0.000
42
0.03753046
0
VERTEX
8
0
10
208.320
20
145.650
30
0.000
42
0.00000000
0
VERTEX
8
0
10
222.020
20
151.380
30
0.000
42
0.00000000
0
VERTEX
8
0
10
228.080
20
152.410
30
0.000
42
0.00000000
0
VERTEX
8
0
10
230.550
20
152.290
30
0.000
42
0.00000000
0
VERTEX
8
0
10
235.310
20
151.020
30
0.000
42
-0.33522234
0
VERTEX
8
0
10
248.110
20
130.590
30
0.000
42
0.00000000
0
VERTEX
8
0
10
247.440
20
126.950
30
0.000
42
0.00000000
0
VERTEX
8
0
10
246.110
20
123.480
30
0.000
42
0.00000000
0
VERTEX
8
0
10
244.110
20
120.240
30
0.000
42
0.00000000
0
VERTEX
8
0
10
241.270
20
117.210
30
0.000
42
0.00000000
0
VERTEX
8
0
10
238.270
20
115.060
30
0.000
42
0.00000000
0
VERTEX
8
0
10
236.630
20
114.210
30
0.000
42
-0.06470212
0
VERTEX
8
0
10
186.270
20
98.230
30
0.000
42
-0.03788523
0
VERTEX
8
0
10
155.410
20
95.070
30
0.000
42
-0.04902342
0
VERTEX
8
0
10
115.410
20
97.940
30
0.000
42
-0.04450266
0
VERTEX
8
0
10
80.200
20
107.250
30
0.000
42
0.00000000
0
VERTEX
8
0
10
62.190
20
114.800
30
0.000
42
-0.30330917
0
SEQEND
0
POLYLINE
8
0
6
CONTINUOUS
62
2
66
1
10
0.000
20
0.000
30
0.000
70
1
0
VERTEX
8
0
10
86.000
20
75.000
30
0.000
42
-1.00000000
0
VERTEX
8
0
10
106.000
20
75.000
30
0.000
42
-1.00000000
0
SEQEND
0
POLYLINE
8
0
6
CONTINUOUS
62
2
66
1
10
0.000
20
0.000
30
0.000
70
1
0
VERTEX
8
0
10
140.000
20
30.000
30
0.000
42
-1.00000000
0
VERTEX
8
0
10
160.000
20
30.000
30
0.000
42
-1.00000000
0
SEQEND
0
ENDSEC
0
EOF
