0
SECTION
2
HEADER
9
$PDMODE
70
33
9
$PDSIZE
40
1.000
9
$EXTMIN
10
-12.936
20
-6.017
30
-1.000
9
$EXTMAX
10
142.296
20
66.187
30
1.000
9
$LIMMIN
10
-12.936
20
-6.017
9
$LIMMAX
10
142.296
20
66.187
0
ENDSEC
0
SECTION
2
TABLES
0
TABLE
2
LAYER
70
7
0
LAYER
2
0
70
0
62
2
6
CONTINUOUS
0
LAYER
2
0
70
0
62
2
6
CONTINUOUS
0
ENDTAB
0
TABLE
2
VPORT
70
4
0
VPORT
2
*ACTIVE
70
0
10
0.000000
20
0.000000
11
1.000000
21
1.000000
12
64.680000
22
30.085000
13
0.000000
23
0.000000
14
1.000000
24
1.000000
15
1.000000
25
1.000000
16
0.000000
26
0.000000
36
1.000000
17
0.000000
27
0.000000
37
0.000000
40
129.360000
41
1.500000
42
50.000000
43
0.000000
44
0.000000
50
0.000000
51
0.000000
71
0
72
100
73
1
74
1
75
0
76
0
77
0
78
0
0
ENDTAB
0
ENDSEC
0
SECTION
2
ENTITIES
0
POLYLINE
8
0
6
CONTINUOUS
62
2
66
1
10
0.000
20
0.000
30
0.000
70
1
0
VERTEX
8
0
10
0.250
20
18.630
30
0.000
42
-0.18697268
0
VERTEX
8
0
10
3.650
20
34.160
30
0.000
42
0.00000000
0
VERTEX
8
0
10
6.210
20
37.330
30
0.000
42
0.00000000
0
VERTEX
8
0
10
9.350
20
40.010
30
0.000
42
0.00000000
0
VERTEX
8
0
10
13.100
20
42.130
30
0.000
42
0.00000000
0
VERTEX
8
0
10
15.970
20
43.160
30
0.000
42
0.00000000
0
VERTEX
8
0
10
19.960
20
43.910
30
0.000
42
0.00000000
0
VERTEX
8
0
10
61.990
20
44.000
30
0.000
42
0.09178874
0
VERTEX
8
0
10
97.790
20
50.630
30
0.000
42
0.00000000
0
VERTEX
8
0
10
115.300
20
59.300
30
0.000
42
0.00000000
0
VERTEX
8
0
10
118.960
20
60.170
30
0.000
42
0.00000000
0
VERTEX
8
0
10
122.680
20
59.660
30
0.000
42
0.00000000
0
VERTEX
8
0
10
125.430
20
58.120
30
0.000
42
0.00000000
0
VERTEX
8
0
10
127.610
20
55.900
30
0.000
42
0.00000000
0
VERTEX
8
0
10
129.150
20
52.460
30
0.000
42
0.00000000
0
VERTEX
8
0
10
129.360
20
49.190
30
0.000
42
0.00000000
0
VERTEX
8
0
10
128.510
20
46.020
30
0.000
42
0.00000000
0
VERTEX
8
0
10
101.990
20
0.000
30
0.000
42
0.00000000
0
VERTEX
8
0
10
21.990
20
0.000
30
0.000
42
0.00000000
0
VERTEX
8
0
10
19.290
20
0.170
30
0.000
42
-0.33522565
0
SEQEND
0
POLYLINE
8
0
6
CONTINUOUS
62
2
66
1
10
0.000
20
0.000
30
0.000
70
1
0
VERTEX
8
0
10
10.990
20
22.000
30
0.000
42
-1.00000000
0
VERTEX
8
0
10
32.990
20
22.000
30
0.000
42
-1.00000000
0
SEQEND
0
ENDSEC
0
EOF
