0
SECTION
2
HEADER
9
$PDMODE
70
33
9
$PDSIZE
40
1.000
9
$EXTMIN
10
-604.000
20
-136.000
30
-1.000
9
$EXTMAX
10
6644.000
20
1496.000
30
1.000
9
$LIMMIN
10
-604.000
20
-136.000
9
$LIMMAX
10
6644.000
20
1496.000
0
ENDSEC
0
SECTION
2
TABLES
0
TABLE
2
LAYER
70
7
0
LAYER
2
0
70
0
62
2
6
CONTINUOUS
0
LAYER
2
0
70
0
62
2
6
CONTINUOUS
0
ENDTAB
0
TABLE
2
VPORT
70
4
0
VPORT
2
*ACTIVE
70
0
10
0.000000
20
0.000000
11
1.000000
21
1.000000
12
3020.000000
22
680.000000
13
0.000000
23
0.000000
14
1.000000
24
1.000000
15
1.000000
25
1.000000
16
0.000000
26
0.000000
36
1.000000
17
0.000000
27
0.000000
37
0.000000
40
6040.000000
41
1.500000
42
50.000000
43
0.000000
44
0.000000
50
0.000000
51
0.000000
71
0
72
100
73
1
74
1
75
0
76
0
77
0
78
0
0
ENDTAB
0
ENDSEC
0
SECTION
2
ENTITIES
0
POLYLINE
8
0
6
CONTINUOUS
62
2
66
1
10
0.000
20
0.000
30
0.000
70
1
0
VERTEX
8
0
10
0.000
20
30.000
30
0.000
42
0.00000000
0
VERTEX
8
0
10
0.000
20
320.000
30
0.000
42
0.00000000
0
VERTEX
8
0
10
30.000
20
350.000
30
0.000
42
0.00000000
0
VERTEX
8
0
10
230.000
20
350.000
30
0.000
42
0.55264713
0
VERTEX
8
0
10
301.690
20
304.950
30
0.000
42
0.79749493
0
VERTEX
8
0
10
280.000
20
400.000
30
0.000
42
0.00000000
0
VERTEX
8
0
10
280.000
20
960.000
30
0.000
42
0.55264713
0
VERTEX
8
0
10
325.050
20
1031.690
30
0.000
42
0.79749493
0
VERTEX
8
0
10
230.000
20
1010.000
30
0.000
42
0.00000000
0
VERTEX
8
0
10
30.000
20
1010.000
30
0.000
42
0.00000000
0
VERTEX
8
0
10
0.000
20
1040.000
30
0.000
42
0.00000000
0
VERTEX
8
0
10
0.000
20
1330.000
30
0.000
42
0.00000000
0
VERTEX
8
0
10
30.000
20
1360.000
30
0.000
42
0.00000000
0
VERTEX
8
0
10
6010.000
20
1360.000
30
0.000
42
0.00000000
0
VERTEX
8
0
10
6040.000
20
1330.000
30
0.000
42
0.00000000
0
VERTEX
8
0
10
6040.000
20
1040.000
30
0.000
42
0.00000000
0
VERTEX
8
0
10
6010.000
20
1010.000
30
0.000
42
0.00000000
0
VERTEX
8
0
10
1155.000
20
1010.000
30
0.000
42
0.55264713
0
VERTEX
8
0
10
1083.310
20
1055.050
30
0.000
42
0.79749493
0
VERTEX
8
0
10
1105.000
20
960.000
30
0.000
42
0.00000000
0
VERTEX
8
0
10
1105.000
20
400.000
30
0.000
42
0.55264713
0
VERTEX
8
0
10
1059.950
20
328.310
30
0.000
42
0.79749493
0
VERTEX
8
0
10
1155.000
20
350.000
30
0.000
42
0.00000000
0
VERTEX
8
0
10
6010.000
20
350.000
30
0.000
42
0.00000000
0
VERTEX
8
0
10
6040.000
20
320.000
30
0.000
42
0.00000000
0
VERTEX
8
0
10
6040.000
20
30.000
30
0.000
42
0.00000000
0
VERTEX
8
0
10
6010.000
20
0.000
30
0.000
42
0.00000000
0
VERTEX
8
0
10
30.000
20
0.000
30
0.000
42
0.00000000
0
SEQEND
0
POLYLINE
8
0
6
CONTINUOUS
62
2
66
1
10
0.000
20
0.000
30
0.000
70
1
0
VERTEX
8
0
10
2520.000
20
1185.000
30
0.000
42
-1.00000000
0
VERTEX
8
0
10
2620.000
20
1185.000
30
0.000
42
-1.00000000
0
SEQEND
0
POLYLINE
8
0
6
CONTINUOUS
62
2
66
1
10
0.000
20
0.000
30
0.000
70
1
0
VERTEX
8
0
10
4620.000
20
1185.000
30
0.000
42
-1.00000000
0
VERTEX
8
0
10
4720.000
20
1185.000
30
0.000
42
-1.00000000
0
SEQEND
0
POLYLINE
8
0
6
CONTINUOUS
62
2
66
1
10
0.000
20
0.000
30
0.000
70
1
0
VERTEX
8
0
10
2820.000
20
1185.000
30
0.000
42
-1.00000000
0
VERTEX
8
0
10
2920.000
20
1185.000
30
0.000
42
-1.00000000
0
SEQEND
0
POLYLINE
8
0
6
CONTINUOUS
62
2
66
1
10
0.000
20
0.000
30
0.000
70
1
0
VERTEX
8
0
10
2220.000
20
1185.000
30
0.000
42
-1.00000000
0
VERTEX
8
0
10
2320.000
20
1185.000
30
0.000
42
-1.00000000
0
SEQEND
0
POLYLINE
8
0
6
CONTINUOUS
62
2
66
1
10
0.000
20
0.000
30
0.000
70
1
0
VERTEX
8
0
10
1920.000
20
1185.000
30
0.000
42
-1.00000000
0
VERTEX
8
0
10
2020.000
20
1185.000
30
0.000
42
-1.00000000
0
SEQEND
0
POLYLINE
8
0
6
CONTINUOUS
62
2
66
1
10
0.000
20
0.000
30
0.000
70
1
0
VERTEX
8
0
10
1620.000
20
1185.000
30
0.000
42
-1.00000000
0
VERTEX
8
0
10
1720.000
20
1185.000
30
0.000
42
-1.00000000
0
SEQEND
0
POLYLINE
8
0
6
CONTINUOUS
62
2
66
1
10
0.000
20
0.000
30
0.000
70
1
0
VERTEX
8
0
10
1320.000
20
1185.000
30
0.000
42
-1.00000000
0
VERTEX
8
0
10
1420.000
20
1185.000
30
0.000
42
-1.00000000
0
SEQEND
0
POLYLINE
8
0
6
CONTINUOUS
62
2
66
1
10
0.000
20
0.000
30
0.000
70
1
0
VERTEX
8
0
10
1020.000
20
1185.000
30
0.000
42
-1.00000000
0
VERTEX
8
0
10
1120.000
20
1185.000
30
0.000
42
-1.00000000
0
SEQEND
0
POLYLINE
8
0
6
CONTINUOUS
62
2
66
1
10
0.000
20
0.000
30
0.000
70
1
0
VERTEX
8
0
10
720.000
20
1185.000
30
0.000
42
-1.00000000
0
VERTEX
8
0
10
820.000
20
1185.000
30
0.000
42
-1.00000000
0
SEQEND
0
POLYLINE
8
0
6
CONTINUOUS
62
2
66
1
10
0.000
20
0.000
30
0.000
70
1
0
VERTEX
8
0
10
420.000
20
1185.000
30
0.000
42
-1.00000000
0
VERTEX
8
0
10
520.000
20
1185.000
30
0.000
42
-1.00000000
0
SEQEND
0
POLYLINE
8
0
6
CONTINUOUS
62
2
66
1
10
0.000
20
0.000
30
0.000
70
1
0
VERTEX
8
0
10
5820.000
20
1185.000
30
0.000
42
-1.00000000
0
VERTEX
8
0
10
5920.000
20
1185.000
30
0.000
42
-1.00000000
0
SEQEND
0
POLYLINE
8
0
6
CONTINUOUS
62
2
66
1
10
0.000
20
0.000
30
0.000
70
1
0
VERTEX
8
0
10
5520.000
20
1185.000
30
0.000
42
-1.00000000
0
VERTEX
8
0
10
5620.000
20
1185.000
30
0.000
42
-1.00000000
0
SEQEND
0
POLYLINE
8
0
6
CONTINUOUS
62
2
66
1
10
0.000
20
0.000
30
0.000
70
1
0
VERTEX
8
0
10
5220.000
20
1185.000
30
0.000
42
-1.00000000
0
VERTEX
8
0
10
5320.000
20
1185.000
30
0.000
42
-1.00000000
0
SEQEND
0
POLYLINE
8
0
6
CONTINUOUS
62
2
66
1
10
0.000
20
0.000
30
0.000
70
1
0
VERTEX
8
0
10
4920.000
20
1185.000
30
0.000
42
-1.00000000
0
VERTEX
8
0
10
5020.000
20
1185.000
30
0.000
42
-1.00000000
0
SEQEND
0
POLYLINE
8
0
6
CONTINUOUS
62
2
66
1
10
0.000
20
0.000
30
0.000
70
1
0
VERTEX
8
0
10
4320.000
20
1185.000
30
0.000
42
-1.00000000
0
VERTEX
8
0
10
4420.000
20
1185.000
30
0.000
42
-1.00000000
0
SEQEND
0
POLYLINE
8
0
6
CONTINUOUS
62
2
66
1
10
0.000
20
0.000
30
0.000
70
1
0
VERTEX
8
0
10
4020.000
20
1185.000
30
0.000
42
-1.00000000
0
VERTEX
8
0
10
4120.000
20
1185.000
30
0.000
42
-1.00000000
0
SEQEND
0
POLYLINE
8
0
6
CONTINUOUS
62
2
66
1
10
0.000
20
0.000
30
0.000
70
1
0
VERTEX
8
0
10
3720.000
20
1185.000
30
0.000
42
-1.00000000
0
VERTEX
8
0
10
3820.000
20
1185.000
30
0.000
42
-1.00000000
0
SEQEND
0
POLYLINE
8
0
6
CONTINUOUS
62
2
66
1
10
0.000
20
0.000
30
0.000
70
1
0
VERTEX
8
0
10
3420.000
20
1185.000
30
0.000
42
-1.00000000
0
VERTEX
8
0
10
3520.000
20
1185.000
30
0.000
42
-1.00000000
0
SEQEND
0
POLYLINE
8
0
6
CONTINUOUS
62
2
66
1
10
0.000
20
0.000
30
0.000
70
1
0
VERTEX
8
0
10
3120.000
20
1185.000
30
0.000
42
-1.00000000
0
VERTEX
8
0
10
3220.000
20
1185.000
30
0.000
42
-1.00000000
0
SEQEND
0
POLYLINE
8
0
6
CONTINUOUS
62
2
66
1
10
0.000
20
0.000
30
0.000
70
1
0
VERTEX
8
0
10
420.000
20
830.000
30
0.000
42
-1.00000000
0
VERTEX
8
0
10
520.000
20
830.000
30
0.000
42
-1.00000000
0
SEQEND
0
POLYLINE
8
0
6
CONTINUOUS
62
2
66
1
10
0.000
20
0.000
30
0.000
70
1
0
VERTEX
8
0
10
720.000
20
830.000
30
0.000
42
-1.00000000
0
VERTEX
8
0
10
820.000
20
830.000
30
0.000
42
-1.00000000
0
SEQEND
0
POLYLINE
8
0
6
CONTINUOUS
62
2
66
1
10
0.000
20
0.000
30
0.000
70
1
0
VERTEX
8
0
10
720.000
20
530.000
30
0.000
42
-1.00000000
0
VERTEX
8
0
10
820.000
20
530.000
30
0.000
42
-1.00000000
0
SEQEND
0
POLYLINE
8
0
6
CONTINUOUS
62
2
66
1
10
0.000
20
0.000
30
0.000
70
1
0
VERTEX
8
0
10
420.000
20
530.000
30
0.000
42
-1.00000000
0
VERTEX
8
0
10
520.000
20
530.000
30
0.000
42
-1.00000000
0
SEQEND
0
POLYLINE
8
0
6
CONTINUOUS
62
2
66
1
10
0.000
20
0.000
30
0.000
70
1
0
VERTEX
8
0
10
720.000
20
175.000
30
0.000
42
-1.00000000
0
VERTEX
8
0
10
820.000
20
175.000
30
0.000
42
-1.00000000
0
SEQEND
0
POLYLINE
8
0
6
CONTINUOUS
62
2
66
1
10
0.000
20
0.000
30
0.000
70
1
0
VERTEX
8
0
10
1020.000
20
175.000
30
0.000
42
-1.00000000
0
VERTEX
8
0
10
1120.000
20
175.000
30
0.000
42
-1.00000000
0
SEQEND
0
POLYLINE
8
0
6
CONTINUOUS
62
2
66
1
10
0.000
20
0.000
30
0.000
70
1
0
VERTEX
8
0
10
1320.000
20
175.000
30
0.000
42
-1.00000000
0
VERTEX
8
0
10
1420.000
20
175.000
30
0.000
42
-1.00000000
0
SEQEND
0
POLYLINE
8
0
6
CONTINUOUS
62
2
66
1
10
0.000
20
0.000
30
0.000
70
1
0
VERTEX
8
0
10
1620.000
20
175.000
30
0.000
42
-1.00000000
0
VERTEX
8
0
10
1720.000
20
175.000
30
0.000
42
-1.00000000
0
SEQEND
0
POLYLINE
8
0
6
CONTINUOUS
62
2
66
1
10
0.000
20
0.000
30
0.000
70
1
0
VERTEX
8
0
10
1920.000
20
175.000
30
0.000
42
-1.00000000
0
VERTEX
8
0
10
2020.000
20
175.000
30
0.000
42
-1.00000000
0
SEQEND
0
POLYLINE
8
0
6
CONTINUOUS
62
2
66
1
10
0.000
20
0.000
30
0.000
70
1
0
VERTEX
8
0
10
2220.000
20
175.000
30
0.000
42
-1.00000000
0
VERTEX
8
0
10
2320.000
20
175.000
30
0.000
42
-1.00000000
0
SEQEND
0
POLYLINE
8
0
6
CONTINUOUS
62
2
66
1
10
0.000
20
0.000
30
0.000
70
1
0
VERTEX
8
0
10
2520.000
20
175.000
30
0.000
42
-1.00000000
0
VERTEX
8
0
10
2620.000
20
175.000
30
0.000
42
-1.00000000
0
SEQEND
0
POLYLINE
8
0
6
CONTINUOUS
62
2
66
1
10
0.000
20
0.000
30
0.000
70
1
0
VERTEX
8
0
10
2820.000
20
175.000
30
0.000
42
-1.00000000
0
VERTEX
8
0
10
2920.000
20
175.000
30
0.000
42
-1.00000000
0
SEQEND
0
POLYLINE
8
0
6
CONTINUOUS
62
2
66
1
10
0.000
20
0.000
30
0.000
70
1
0
VERTEX
8
0
10
3120.000
20
175.000
30
0.000
42
-1.00000000
0
VERTEX
8
0
10
3220.000
20
175.000
30
0.000
42
-1.00000000
0
SEQEND
0
POLYLINE
8
0
6
CONTINUOUS
62
2
66
1
10
0.000
20
0.000
30
0.000
70
1
0
VERTEX
8
0
10
3420.000
20
175.000
30
0.000
42
-1.00000000
0
VERTEX
8
0
10
3520.000
20
175.000
30
0.000
42
-1.00000000
0
SEQEND
0
POLYLINE
8
0
6
CONTINUOUS
62
2
66
1
10
0.000
20
0.000
30
0.000
70
1
0
VERTEX
8
0
10
3720.000
20
175.000
30
0.000
42
-1.00000000
0
VERTEX
8
0
10
3820.000
20
175.000
30
0.000
42
-1.00000000
0
SEQEND
0
POLYLINE
8
0
6
CONTINUOUS
62
2
66
1
10
0.000
20
0.000
30
0.000
70
1
0
VERTEX
8
0
10
4020.000
20
175.000
30
0.000
42
-1.00000000
0
VERTEX
8
0
10
4120.000
20
175.000
30
0.000
42
-1.00000000
0
SEQEND
0
POLYLINE
8
0
6
CONTINUOUS
62
2
66
1
10
0.000
20
0.000
30
0.000
70
1
0
VERTEX
8
0
10
4620.000
20
175.000
30
0.000
42
-1.00000000
0
VERTEX
8
0
10
4720.000
20
175.000
30
0.000
42
-1.00000000
0
SEQEND
0
POLYLINE
8
0
6
CONTINUOUS
62
2
66
1
10
0.000
20
0.000
30
0.000
70
1
0
VERTEX
8
0
10
4920.000
20
175.000
30
0.000
42
-1.00000000
0
VERTEX
8
0
10
5020.000
20
175.000
30
0.000
42
-1.00000000
0
SEQEND
0
POLYLINE
8
0
6
CONTINUOUS
62
2
66
1
10
0.000
20
0.000
30
0.000
70
1
0
VERTEX
8
0
10
5220.000
20
175.000
30
0.000
42
-1.00000000
0
VERTEX
8
0
10
5320.000
20
175.000
30
0.000
42
-1.00000000
0
SEQEND
0
POLYLINE
8
0
6
CONTINUOUS
62
2
66
1
10
0.000
20
0.000
30
0.000
70
1
0
VERTEX
8
0
10
5520.000
20
175.000
30
0.000
42
-1.00000000
0
VERTEX
8
0
10
5620.000
20
175.000
30
0.000
42
-1.00000000
0
SEQEND
0
POLYLINE
8
0
6
CONTINUOUS
62
2
66
1
10
0.000
20
0.000
30
0.000
70
1
0
VERTEX
8
0
10
420.000
20
175.000
30
0.000
42
-1.00000000
0
VERTEX
8
0
10
520.000
20
175.000
30
0.000
42
-1.00000000
0
SEQEND
0
POLYLINE
8
0
6
CONTINUOUS
62
2
66
1
10
0.000
20
0.000
30
0.000
70
1
0
VERTEX
8
0
10
5820.000
20
175.000
30
0.000
42
-1.00000000
0
VERTEX
8
0
10
5920.000
20
175.000
30
0.000
42
-1.00000000
0
SEQEND
0
POLYLINE
8
0
6
CONTINUOUS
62
2
66
1
10
0.000
20
0.000
30
0.000
70
1
0
VERTEX
8
0
10
4320.000
20
175.000
30
0.000
42
-1.00000000
0
VERTEX
8
0
10
4420.000
20
175.000
30
0.000
42
-1.00000000
0
SEQEND
0
ENDSEC
0
EOF
