0
SECTION
2
HEADER
9
$PDMODE
70
33
9
$PDSIZE
40
1.000
9
$EXTMIN
10
-166.500
20
-144.000
30
-1.000
9
$EXTMAX
10
1831.500
20
1584.000
30
1.000
9
$LIMMIN
10
-166.500
20
-144.000
9
$LIMMAX
10
1831.500
20
1584.000
0
ENDSEC
0
SECTION
2
TABLES
0
TABLE
2
LAYER
70
7
0
LAYER
2
0
70
0
62
2
6
CONTINUOUS
0
LAYER
2
0
70
0
62
2
6
CONTINUOUS
0
ENDTAB
0
TABLE
2
VPORT
70
4
0
VPORT
2
*ACTIVE
70
0
10
0.000000
20
0.000000
11
1.000000
21
1.000000
12
832.500000
22
720.000000
13
0.000000
23
0.000000
14
1.000000
24
1.000000
15
1.000000
25
1.000000
16
0.000000
26
0.000000
36
1.000000
17
0.000000
27
0.000000
37
0.000000
40
1665.000000
41
1.500000
42
50.000000
43
0.000000
44
0.000000
50
0.000000
51
0.000000
71
0
72
100
73
1
74
1
75
0
76
0
77
0
78
0
0
ENDTAB
0
ENDSEC
0
SECTION
2
ENTITIES
0
POLYLINE
8
0
6
CONTINUOUS
62
2
66
1
10
0.000
20
0.000
30
0.000
70
1
0
VERTEX
8
0
10
0.000
20
50.000
30
0.000
42
0.00000000
0
VERTEX
8
0
10
0.000
20
1390.000
30
0.000
42
0.00000000
0
VERTEX
8
0
10
50.000
20
1440.000
30
0.000
42
0.00000000
0
VERTEX
8
0
10
1615.000
20
1440.000
30
0.000
42
0.00000000
0
VERTEX
8
0
10
1665.000
20
1390.000
30
0.000
42
0.00000000
0
VERTEX
8
0
10
1665.000
20
50.000
30
0.000
42
0.00000000
0
VERTEX
8
0
10
1615.000
20
0.000
30
0.000
42
0.00000000
0
VERTEX
8
0
10
50.000
20
0.000
30
0.000
42
0.00000000
0
SEQEND
0
POLYLINE
8
0
6
CONTINUOUS
62
2
66
1
10
0.000
20
0.000
30
0.000
70
1
0
VERTEX
8
0
10
647.480
20
1322.360
30
0.000
42
-0.98749683
0
VERTEX
8
0
10
695.410
20
1319.840
30
0.000
42
-0.98749683
0
SEQEND
0
POLYLINE
8
0
6
CONTINUOUS
62
2
66
1
10
0.000
20
0.000
30
0.000
70
1
0
VERTEX
8
0
10
969.610
20
1319.840
30
0.000
42
-0.98666793
0
VERTEX
8
0
10
1017.540
20
1322.350
30
0.000
42
-0.98666793
0
SEQEND
0
POLYLINE
8
0
6
CONTINUOUS
62
2
66
1
10
0.000
20
0.000
30
0.000
70
1
0
VERTEX
8
0
10
368.770
20
1156.280
30
0.000
42
-0.99997652
0
VERTEX
8
0
10
416.180
20
1163.790
30
0.000
42
-0.99997652
0
SEQEND
0
POLYLINE
8
0
6
CONTINUOUS
62
2
66
1
10
0.000
20
0.000
30
0.000
70
1
0
VERTEX
8
0
10
1248.840
20
1156.280
30
0.000
42
-0.99997652
0
VERTEX
8
0
10
1296.250
20
1163.790
30
0.000
42
-0.99997652
0
SEQEND
0
POLYLINE
8
0
6
CONTINUOUS
62
2
66
1
10
0.000
20
0.000
30
0.000
70
1
0
VERTEX
8
0
10
407.500
20
720.000
30
0.000
42
-1.00000000
0
VERTEX
8
0
10
1257.500
20
720.000
30
0.000
42
-1.00000000
0
SEQEND
0
POLYLINE
8
0
6
CONTINUOUS
62
2
66
1
10
0.000
20
0.000
30
0.000
70
1
0
VERTEX
8
0
10
207.440
20
879.810
30
0.000
42
-0.99987112
0
VERTEX
8
0
10
255.380
20
882.330
30
0.000
42
-0.99987112
0
SEQEND
0
POLYLINE
8
0
6
CONTINUOUS
62
2
66
1
10
0.000
20
0.000
30
0.000
70
1
0
VERTEX
8
0
10
1409.640
20
882.320
30
0.000
42
-0.98749683
0
VERTEX
8
0
10
1457.570
20
879.800
30
0.000
42
-0.98749683
0
SEQEND
0
POLYLINE
8
0
6
CONTINUOUS
62
2
66
1
10
0.000
20
0.000
30
0.000
70
1
0
VERTEX
8
0
10
207.440
20
560.200
30
0.000
42
-0.98666793
0
VERTEX
8
0
10
255.370
20
557.690
30
0.000
42
-0.98666793
0
SEQEND
0
POLYLINE
8
0
6
CONTINUOUS
62
2
66
1
10
0.000
20
0.000
30
0.000
70
1
0
VERTEX
8
0
10
1409.630
20
557.680
30
0.000
42
-0.99988203
0
VERTEX
8
0
10
1457.570
20
560.190
30
0.000
42
-0.99988203
0
SEQEND
0
POLYLINE
8
0
6
CONTINUOUS
62
2
66
1
10
0.000
20
0.000
30
0.000
70
1
0
VERTEX
8
0
10
368.760
20
276.220
30
0.000
42
-0.99997652
0
VERTEX
8
0
10
416.170
20
283.730
30
0.000
42
-0.99997652
0
SEQEND
0
POLYLINE
8
0
6
CONTINUOUS
62
2
66
1
10
0.000
20
0.000
30
0.000
70
1
0
VERTEX
8
0
10
1248.830
20
276.210
30
0.000
42
-0.99997652
0
VERTEX
8
0
10
1296.240
20
283.720
30
0.000
42
-0.99997652
0
SEQEND
0
POLYLINE
8
0
6
CONTINUOUS
62
2
66
1
10
0.000
20
0.000
30
0.000
70
1
0
VERTEX
8
0
10
647.470
20
117.650
30
0.000
42
-0.98666793
0
VERTEX
8
0
10
695.400
20
120.160
30
0.000
42
-0.98666793
0
SEQEND
0
POLYLINE
8
0
6
CONTINUOUS
62
2
66
1
10
0.000
20
0.000
30
0.000
70
1
0
VERTEX
8
0
10
969.600
20
120.160
30
0.000
42
-0.98666793
0
VERTEX
8
0
10
1017.530
20
117.650
30
0.000
42
-0.98666793
0
SEQEND
0
ENDSEC
0
EOF
