0
SECTION
2
HEADER
9
$PDMODE
70
33
9
$PDSIZE
40
1.000
9
$EXTMIN
10
-166.500
20
-144.000
30
-1.000
9
$EXTMAX
10
1831.500
20
1584.000
30
1.000
9
$LIMMIN
10
-166.500
20
-144.000
9
$LIMMAX
10
1831.500
20
1584.000
0
ENDSEC
0
SECTION
2
TABLES
0
TABLE
2
LAYER
70
7
0
LAYER
2
0
70
0
62
2
6
CONTINUOUS
0
LAYER
2
0
70
0
62
2
6
CONTINUOUS
0
ENDTAB
0
TABLE
2
VPORT
70
4
0
VPORT
2
*ACTIVE
70
0
10
0.000000
20
0.000000
11
1.000000
21
1.000000
12
832.500000
22
720.000000
13
0.000000
23
0.000000
14
1.000000
24
1.000000
15
1.000000
25
1.000000
16
0.000000
26
0.000000
36
1.000000
17
0.000000
27
0.000000
37
0.000000
40
1665.000000
41
1.500000
42
50.000000
43
0.000000
44
0.000000
50
0.000000
51
0.000000
71
0
72
100
73
1
74
1
75
0
76
0
77
0
78
0
0
ENDTAB
0
ENDSEC
0
SECTION
2
ENTITIES
0
POLYLINE
8
0
6
CONTINUOUS
62
2
66
1
10
0.000
20
0.000
30
0.000
70
1
0
VERTEX
8
0
10
0.000
20
50.000
30
0.000
42
0.00000000
0
VERTEX
8
0
10
0.000
20
1390.000
30
0.000
42
0.00000000
0
VERTEX
8
0
10
50.000
20
1440.000
30
0.000
42
0.00000000
0
VERTEX
8
0
10
1615.000
20
1440.000
30
0.000
42
0.00000000
0
VERTEX
8
0
10
1665.000
20
1390.000
30
0.000
42
0.00000000
0
VERTEX
8
0
10
1665.000
20
50.000
30
0.000
42
0.00000000
0
VERTEX
8
0
10
1615.000
20
0.000
30
0.000
42
0.00000000
0
VERTEX
8
0
10
50.000
20
0.000
30
0.000
42
0.00000000
0
SEQEND
0
POLYLINE
8
0
6
CONTINUOUS
62
2
66
1
10
0.000
20
0.000
30
0.000
70
1
0
VERTEX
8
0
10
629.720
20
1030.590
30
0.000
42
-0.98908672
0
VERTEX
8
0
10
673.340
20
1036.340
30
0.000
42
-0.98908672
0
SEQEND
0
POLYLINE
8
0
6
CONTINUOUS
62
2
66
1
10
0.000
20
0.000
30
0.000
70
1
0
VERTEX
8
0
10
991.670
20
1036.330
30
0.000
42
-0.99986457
0
VERTEX
8
0
10
1035.300
20
1030.590
30
0.000
42
-0.99986457
0
SEQEND
0
POLYLINE
8
0
6
CONTINUOUS
62
2
66
1
10
0.000
20
0.000
30
0.000
70
1
0
VERTEX
8
0
10
585.000
20
720.000
30
0.000
42
-1.00000000
0
VERTEX
8
0
10
1080.000
20
720.000
30
0.000
42
-1.00000000
0
SEQEND
0
POLYLINE
8
0
6
CONTINUOUS
62
2
66
1
10
0.000
20
0.000
30
0.000
70
1
0
VERTEX
8
0
10
448.550
20
720.010
30
0.000
42
-1.00000000
0
VERTEX
8
0
10
492.550
20
720.010
30
0.000
42
-1.00000000
0
SEQEND
0
POLYLINE
8
0
6
CONTINUOUS
62
2
66
1
10
0.000
20
0.000
30
0.000
70
1
0
VERTEX
8
0
10
1172.460
20
720.000
30
0.000
42
-1.00000000
0
VERTEX
8
0
10
1216.460
20
720.000
30
0.000
42
-1.00000000
0
SEQEND
0
POLYLINE
8
0
6
CONTINUOUS
62
2
66
1
10
0.000
20
0.000
30
0.000
70
1
0
VERTEX
8
0
10
629.710
20
409.420
30
0.000
42
-0.99983491
0
VERTEX
8
0
10
673.340
20
403.670
30
0.000
42
-0.99983491
0
SEQEND
0
POLYLINE
8
0
6
CONTINUOUS
62
2
66
1
10
0.000
20
0.000
30
0.000
70
1
0
VERTEX
8
0
10
991.660
20
403.670
30
0.000
42
-0.99986457
0
VERTEX
8
0
10
1035.290
20
409.410
30
0.000
42
-0.99986457
0
SEQEND
0
ENDSEC
0
EOF
