  0
SECTION
  2
HEADER
  9
$ACADVER
  1
AC1009
  9
$DWGCODEPAGE
  3
ansi_1252
  9
$INSBASE
 10
0.0
 20
0.0
 30
0.0
  9
$EXTMIN
 10
1.518734120793404
 20
2.396723868954759
 30
0.0
  9
$EXTMAX
 10
333.5187341207934
 20
476.3967238689548
 30
0.0
  9
$LIMMIN
 10
0.0
 20
0.0
  9
$LIMMAX
 10
12.0
 20
9.0
  9
$ORTHOMODE
 70
     1
  9
$REGENMODE
 70
     1
  9
$FILLMODE
 70
     1
  9
$QTEXTMODE
 70
     0
  9
$MIRRTEXT
 70
     0
  9
$DRAGMODE
 70
     2
  9
$LTSCALE
 40
1.0
  9
$OSMODE
 70
  1023
  9
$ATTMODE
 70
     1
  9
$TEXTSIZE
 40
0.2
  9
$TRACEWID
 40
0.05
  9
$TEXTSTYLE
  7
STANDARD
  9
$CLAYER
  8
0
  9
$CELTYPE
  6
BYLAYER
  9
$CECOLOR
 62
   256
  9
$DIMSCALE
 40
1.0
  9
$DIMASZ
 40
0.18
  9
$DIMEXO
 40
0.0625
  9
$DIMDLI
 40
0.38
  9
$DIMRND
 40
0.0
  9
$DIMDLE
 40
0.0
  9
$DIMEXE
 40
0.18
  9
$DIMTP
 40
0.0
  9
$DIMTM
 40
0.0
  9
$DIMTXT
 40
0.18
  9
$DIMCEN
 40
0.09
  9
$DIMTSZ
 40
0.0
  9
$DIMTOL
 70
     0
  9
$DIMLIM
 70
     0
  9
$DIMTIH
 70
     1
  9
$DIMTOH
 70
     1
  9
$DIMSE1
 70
     0
  9
$DIMSE2
 70
     0
  9
$DIMTAD
 70
     0
  9
$DIMZIN
 70
     0
  9
$DIMBLK
  1

  9
$DIMASO
 70
     1
  9
$DIMSHO
 70
     1
  9
$DIMPOST
  1

  9
$DIMAPOST
  1

  9
$DIMALT
 70
     0
  9
$DIMALTD
 70
     2
  9
$DIMALTF
 40
25.4
  9
$DIMLFAC
 40
1.0
  9
$DIMTOFL
 70
     0
  9
$DIMTVP
 40
0.0
  9
$DIMTIX
 70
     0
  9
$DIMSOXD
 70
     0
  9
$DIMSAH
 70
     0
  9
$DIMBLK1
  1

  9
$DIMBLK2
  1

  9
$DIMSTYLE
  2
STANDARD
  9
$DIMCLRD
 70
     0
  9
$DIMCLRE
 70
     0
  9
$DIMCLRT
 70
     0
  9
$DIMTFAC
 40
1.0
  9
$DIMGAP
 40
0.09
  9
$LUNITS
 70
     2
  9
$LUPREC
 70
     4
  9
$SKETCHINC
 40
0.1
  9
$FILLETRAD
 40
5.0
  9
$AUNITS
 70
     0
  9
$AUPREC
 70
     0
  9
$MENU
  1
.
  9
$ELEVATION
 40
0.0
  9
$PELEVATION
 40
0.0
  9
$THICKNESS
 40
0.0
  9
$LIMCHECK
 70
     0
  9
$CHAMFERA
 40
0.0
  9
$CHAMFERB
 40
0.0
  9
$SKPOLY
 70
     0
  9
$TDCREATE
 40
2452643.146717593
  9
$TDUPDATE
 40
2456807.326432407
  9
$TDINDWG
 40
0.0063669097
  9
$TDUSRTIMER
 40
2456807.243012465
  9
$USRTIMER
 70
     1
  9
$ANGBASE
 50
0.0
  9
$ANGDIR
 70
     0
  9
$PDMODE
 70
     0
  9
$PDSIZE
 40
0.0
  9
$PLINEWID
 40
0.0
  9
$COORDS
 70
     1
  9
$SPLFRAME
 70
     0
  9
$SPLINETYPE
 70
     6
  9
$SPLINESEGS
 70
     8
  9
$ATTDIA
 70
     0
  9
$ATTREQ
 70
     1
  9
$HANDLING
 70
     1
  9
$HANDSEED
  5
37B
  9
$SURFTAB1
 70
     6
  9
$SURFTAB2
 70
     6
  9
$SURFTYPE
 70
     6
  9
$SURFU
 70
     6
  9
$SURFV
 70
     6
  9
$UCSNAME
  2

  9
$UCSORG
 10
0.0
 20
0.0
 30
0.0
  9
$UCSXDIR
 10
1.0
 20
0.0
 30
0.0
  9
$UCSYDIR
 10
0.0
 20
1.0
 30
0.0
  9
$PUCSNAME
  2

  9
$PUCSORG
 10
0.0
 20
0.0
 30
0.0
  9
$PUCSXDIR
 10
1.0
 20
0.0
 30
0.0
  9
$PUCSYDIR
 10
0.0
 20
1.0
 30
0.0
  9
$USERI1
 70
     0
  9
$USERI2
 70
     0
  9
$USERI3
 70
     0
  9
$USERI4
 70
     0
  9
$USERI5
 70
     0
  9
$USERR1
 40
0.0
  9
$USERR2
 40
0.0
  9
$USERR3
 40
0.0
  9
$USERR4
 40
0.0
  9
$USERR5
 40
0.0
  9
$WORLDVIEW
 70
     1
  9
$SHADEDGE
 70
     3
  9
$SHADEDIF
 70
    70
  9
$TILEMODE
 70
     1
  9
$MAXACTVP
 70
    64
  9
$PLIMCHECK
 70
     0
  9
$PEXTMIN
 10
0.0
 20
0.0
 30
0.0
  9
$PEXTMAX
 10
0.0
 20
0.0
 30
0.0
  9
$PLIMMIN
 10
0.0
 20
0.0
  9
$PLIMMAX
 10
0.0
 20
0.0
  9
$UNITMODE
 70
     0
  9
$VISRETAIN
 70
     1
  9
$PLINEGEN
 70
     0
  9
$PSLTSCALE
 70
     1
  0
ENDSEC
  0
SECTION
  2
TABLES
  0
TABLE
  2
VPORT
 70
     1
  0
VPORT
  2
*ACTIVE
 70
     0
 10
0.0
 20
0.0
 11
1.0
 21
1.0
 12
365.6718816238086
 22
355.3506338180027
 13
0.0
 23
0.0
 14
0.5
 24
0.5
 15
0.5
 25
0.5
 16
0.0
 26
0.0
 36
1.0
 17
-27.66959356597982
 27
-19.53870295786203
 37
0.0
 40
21.37119248299498
 41
1.996879875195008
 42
50.0
 43
0.0
 44
0.0
 50
0.0
 51
0.0
 71
    16
 72
  1000
 73
     1
 74
     3
 75
     0
 76
     0
 77
     0
 78
     0
  0
ENDTAB
  0
TABLE
  2
LTYPE
 70
     1
  0
LTYPE
  2
CONTINUOUS
 70
     0
  3
Solid line
 72
    65
 73
     0
 40
0.0
  0
ENDTAB
  0
TABLE
  2
LAYER
 70
     1
  0
LAYER
  2
0
 70
     0
 62
     7
  6
CONTINUOUS
  0
ENDTAB
  0
TABLE
  2
STYLE
 70
     1
  0
STYLE
  2
STANDARD
 70
     0
 40
0.0
 41
1.0
 50
0.0
 71
     0
 42
0.2
  3
arial.ttf
  4

  0
ENDTAB
  0
TABLE
  2
VIEW
 70
     0
  0
ENDTAB
  0
TABLE
  2
UCS
 70
     0
  0
ENDTAB
  0
TABLE
  2
APPID
 70
     1
  0
APPID
  2
ACAD
 70
     0
  0
ENDTAB
  0
TABLE
  2
DIMSTYLE
 70
     1
  0
DIMSTYLE
  2
STANDARD
 70
     0
  3

  4

  5

  6

  7

 40
1.0
 41
0.18
 42
0.0625
 43
0.38
 44
0.18
 45
0.0
 46
0.0
 47
0.0
 48
0.0
140
0.18
141
0.09
142
0.0
143
25.4
144
1.0
145
0.0
146
1.0
147
0.09
 71
     0
 72
     0
 73
     1
 74
     1
 75
     0
 76
     0
 77
     0
 78
     0
170
     0
171
     2
172
     0
173
     0
174
     0
175
     0
176
     0
177
     0
178
     0
  0
ENDTAB
  0
ENDSEC
  0
SECTION
  2
BLOCKS
  0
BLOCK
  8
0
  2
$MODEL_SPACE
 70
     0
 10
0.0
 20
0.0
 30
0.0
  3
$MODEL_SPACE
  1

  0
ENDBLK
  5
21
  8
0
  0
BLOCK
 67
     1
  8
0
  2
$PAPER_SPACE
 70
     0
 10
0.0
 20
0.0
 30
0.0
  3
$PAPER_SPACE
  1

  0
ENDBLK
  5
5B
 67
     1
  8
0
  0
ENDSEC
  0
SECTION
  2
ENTITIES
  0
LINE
  5
17C
  8
0
 10
114.0828627959877
 20
2.396723868954759
 30
0.0
 11
98.5187341207934
 21
2.396723868954762
 31
0.0
  0
CIRCLE
  5
180
  8
0
 10
106.7687341207934
 20
14.89672386895476
 30
0.0
 40
5.0
  0
CIRCLE
  5
187
  8
0
 10
118.5187341207934
 20
360.3967238689548
 30
0.0
 40
7.0
  0
CIRCLE
  5
188
  8
0
 10
216.5187341207934
 20
360.3967238689548
 30
0.0
 40
7.0
  0
CIRCLE
  5
189
  8
0
 10
118.5187341207934
 20
456.3967238689548
 30
0.0
 40
7.0
  0
CIRCLE
  5
18A
  8
0
 10
216.5187341207934
 20
456.3967238689548
 30
0.0
 40
7.0
  0
LINE
  5
18B
  8
0
 10
225.5187341207934
 20
476.3967238689548
 30
0.0
 11
109.5187341207934
 21
476.3967238689548
 31
0.0
  0
LINE
  5
18D
  8
0
 10
51.5187341207934
 20
315.3967238689547
 30
0.0
 11
51.51873412079338
 21
340.3967238689548
 31
0.0
  0
LINE
  5
18E
  8
0
 10
76.5187341207934
 20
290.3967238689547
 30
0.0
 11
98.5187341207934
 21
290.3967238689547
 31
0.0
  0
LINE
  5
18F
  8
0
 10
51.51873412079338
 20
340.3967238689547
 30
0.0
 11
1.518734120793404
 21
340.3967238689547
 31
0.0
  0
LINE
  5
190
  8
0
 10
343.9573585632391
 20
340.3967238689547
 30
0.0
 11
301.5187341207934
 21
95.39672386895475
 31
0.0
  0
ARC
  5
191
  8
0
 10
76.5187341207934
 20
315.3967238689547
 30
0.0
 40
25.0
 50
180.0
 51
270.0
  0
LINE
  5
192
  8
0
 10
283.5187341207934
 20
315.3967238689547
 30
0.0
 11
283.5187341207934
 21
340.3967238689548
 31
0.0
  0
LINE
  5
193
  8
0
 10
283.5187341207934
 20
340.3967238689547
 30
0.0
 11
333.5187341207934
 21
340.3967238689547
 31
0.0
  0
ARC
  5
194
  8
0
 10
258.5187341207934
 20
315.3967238689547
 30
0.0
 40
25.0
 50
270.0
 51
0.0
  0
LINE
  5
195
  8
0
 10
258.5187341207934
 20
290.3967238689547
 30
0.0
 11
236.5187341207934
 21
290.3967238689547
 31
0.0
  0
ARC
  5
196
  8
0
 10
112.9468071646679
 20
460.1206234336273
 30
0.0
 40
16.63319362524852
 50
101.893800441174
 51
150.1609463290332
  0
ARC
  5
197
  8
0
 10
222.0906610769188
 20
460.1206234336271
 30
0.0
 40
16.63319362524862
 50
29.83905367096707
 51
78.1061995588259
  0
LINE
  5
198
  8
0
 10
33.5187341207934
 20
95.39672386895475
 30
0.0
 11
96.0187341207934
 21
95.39672386895475
 31
0.0
  0
ARC
  5
199
  8
0
 10
98.5187341207934
 20
95.39672386895475
 30
0.0
 40
2.5
 50
270.0
 51
180.0
  0
ARC
  5
19A
  8
0
 10
236.5187341207934
 20
95.39672386895475
 30
0.0
 40
2.5
 50
0.0
 51
270.0
  0
LINE
  5
19B
  8
0
 10
301.5187341207934
 20
95.39672386895475
 30
0.0
 11
239.0187341207934
 21
95.39672386895475
 31
0.0
  0
LINE
  5
19C
  8
0
 10
236.5187341207934
 20
27.39672386895476
 30
0.0
 11
236.5187341207934
 21
92.89672386895475
 31
0.0
  0
LINE
  5
1A0
  8
0
 10
98.5187341207934
 20
27.39672386895476
 30
0.0
 11
98.5187341207934
 21
92.89672386895475
 31
0.0
  0
LINE
  5
1A3
  8
0
 10
236.5187341207934
 20
290.3967238689547
 30
0.0
 11
236.5187341207934
 21
468.3967238689548
 31
0.0
  0
LINE
  5
1A4
  8
0
 10
98.5187341207934
 20
290.3967238689547
 30
0.0
 11
98.5187341207934
 21
468.3967238689548
 31
0.0
  0
LINE
  5
1A6
  8
0
 10
128.5187341207934
 20
338.8967238689548
 30
0.0
 11
108.5187341207934
 21
338.8967238689548
 31
0.0
  0
LINE
  5
1A7
  8
0
 10
128.5187341207934
 20
341.8967238689548
 30
0.0
 11
108.5187341207934
 21
341.8967238689548
 31
0.0
  0
LINE
  5
1A8
  8
0
 10
108.5187341207934
 20
338.8967238689548
 30
0.0
 11
108.5187341207934
 21
341.8967238689548
 31
0.0
  0
LINE
  5
1A9
  8
0
 10
128.5187341207934
 20
341.8967238689548
 30
0.0
 11
128.5187341207934
 21
338.8967238689548
 31
0.0
  0
LINE
  5
1AA
  8
0
 10
206.5187341207934
 20
338.8967238689548
 30
0.0
 11
226.5187341207934
 21
338.8967238689548
 31
0.0
  0
LINE
  5
1AB
  8
0
 10
206.5187341207934
 20
341.8967238689548
 30
0.0
 11
226.5187341207934
 21
341.8967238689548
 31
0.0
  0
LINE
  5
1AC
  8
0
 10
226.5187341207934
 20
338.8967238689548
 30
0.0
 11
226.5187341207934
 21
341.8967238689548
 31
0.0
  0
LINE
  5
1AD
  8
0
 10
206.5187341207934
 20
341.8967238689548
 30
0.0
 11
206.5187341207934
 21
338.8967238689548
 31
0.0
  0
LINE
  5
21A
  8
0
 10
1.518734120793404
 20
340.3967238689547
 30
0.0
 11
-8.481265879206596
 21
340.3967238689547
 31
0.0
  0
LINE
  5
21C
  8
0
 10
33.5187341207934
 20
95.39672386895475
 30
0.0
 11
-8.481265879206596
 21
340.3967238689547
 31
0.0
  0
LINE
  5
21F
  8
0
 10
137.5187341207934
 20
94.39672386895475
 30
0.0
 11
137.5187341207934
 21
96.39672386895475
 31
0.0
  0
LINE
  5
220
  8
0
 10
197.5187341207934
 20
94.39672386895475
 30
0.0
 11
197.5187341207934
 21
96.39672386895475
 31
0.0
  0
LINE
  5
223
  8
0
 10
137.5187341207934
 20
94.39672386895475
 30
0.0
 11
197.5187341207934
 21
94.39672386895475
 31
0.0
  0
LINE
  5
225
  8
0
 10
137.5187341207934
 20
96.39672386895475
 30
0.0
 11
197.5187341207934
 21
96.39672386895475
 31
0.0
  0
LINE
  5
22C
  8
0
 10
98.5187341207934
 20
27.39672386895476
 30
0.0
 11
93.9573585632391
 21
27.39672386895476
 31
0.0
  0
LINE
  5
22E
  8
0
 10
121.0760838700167
 20
23.70797177914882
 30
0.0
 11
119.0472469884223
 21
6.800997765862604
 31
0.0
  0
LINE
  5
230
  8
0
 10
220.9546054455991
 20
2.396723868954759
 30
0.0
 11
236.5187341207934
 21
2.396723868954762
 31
0.0
  0
CIRCLE
  5
231
  8
0
 10
228.2687341207934
 20
14.89672386895476
 30
0.0
 40
5.0
  0
LINE
  5
232
  8
0
 10
213.9063864100239
 20
24.16628812536719
 30
0.0
 11
215.9902212531645
 21
6.800997765862608
 31
0.0
  0
LINE
  5
233
  8
0
 10
241.5187341207934
 20
27.39672386895476
 30
0.0
 11
241.5187341207934
 21
7.396723868954762
 31
0.0
  0
LINE
  5
234
  8
0
 10
236.5187341207934
 20
27.39672386895476
 30
0.0
 11
241.5187341207934
 21
27.39672386895476
 31
0.0
  0
ARC
  5
235
  8
0
 10
167.5187341207934
 20
27.39672386895476
 30
0.0
 40
46.5
 50
356.0163539216159
 51
183.4431853791144
  0
ARC
  5
236
  8
0
 10
116.1116996775821
 20
24.30369788224098
 30
0.0
 40
5.0
 50
353.1572265873691
 51
3.443185379114422
  0
ARC
  5
237
  8
0
 10
236.5187341207934
 20
7.396723868954762
 30
0.0
 40
5.0
 50
270.0
 51
0.0
  0
ARC
  5
238
  8
0
 10
220.9546054455991
 20
7.396723868954762
 30
0.0
 40
5.000000000000004
 50
186.8427734126309
 51
269.9999999999999
  0
ARC
  5
239
  8
0
 10
114.0828627959877
 20
7.396723868954759
 30
0.0
 40
5.0
 50
270.0
 51
353.1572265873691
  0
ARC
  5
23A
  8
0
 10
98.2395047675174
 20
6.722604577263175
 30
0.0
 40
4.334883266507401
 50
171.0536028903082
 51
273.6932362113999
  0
LINE
  5
30F
  8
0
 10
333.5187341207934
 20
340.3967238689547
 30
0.0
 11
343.9573585632391
 21
340.3967238689547
 31
0.0
  0
LINE
  5
310
  8
0
 10
93.9573585632391
 20
27.39672386895476
 30
0.0
 11
93.9573585632391
 21
7.396723868954762
 31
0.0
  0
ENDSEC
  0
EOF
