  0
SECTION
  2
HEADER
  9
$ACADVER
  1
AC1009
  9
$DWGCODEPAGE
  3
ansi_1252
  9
$INSBASE
 10
0.0
 20
0.0
 30
0.0
  9
$EXTMIN
 10
-7300.9803580576
 20
-1710.5223476772
 30
0.0
  9
$EXTMAX
 10
-6242.3325814393
 20
-119.8057020662
 30
0.0
  9
$LIMMIN
 10
0.0
 20
0.0
  9
$LIMMAX
 10
420.0
 20
297.0
  9
$ORTHOMODE
 70
     0
  9
$REGENMODE
 70
     1
  9
$FILLMODE
 70
     1
  9
$QTEXTMODE
 70
     0
  9
$MIRRTEXT
 70
     1
  9
$DRAGMODE
 70
     2
  9
$LTSCALE
 40
1.0
  9
$OSMODE
 70
  1023
  9
$ATTMODE
 70
     1
  9
$TEXTSIZE
 40
3.5
  9
$TRACEWID
 40
1.0
  9
$TEXTSTYLE
  7
STANDARD
  9
$CLAYER
  8
0
  9
$CELTYPE
  6
BYLAYER
  9
$CECOLOR
 62
   256
  9
$DIMSCALE
 40
1.0
  9
$DIMASZ
 40
6.0
  9
$DIMEXO
 40
1.0
  9
$DIMDLI
 40
3.75
  9
$DIMRND
 40
0.0
  9
$DIMDLE
 40
0.0
  9
$DIMEXE
 40
1.0
  9
$DIMTP
 40
0.0
  9
$DIMTM
 40
0.0
  9
$DIMTXT
 40
3.5
  9
$DIMCEN
 40
2.5
  9
$DIMTSZ
 40
0.0
  9
$DIMTOL
 70
     0
  9
$DIMLIM
 70
     0
  9
$DIMTIH
 70
     1
  9
$DIMTOH
 70
     1
  9
$DIMSE1
 70
     0
  9
$DIMSE2
 70
     0
  9
$DIMTAD
 70
     1
  9
$DIMZIN
 70
     0
  9
$DIMBLK
  1

  9
$DIMASO
 70
     1
  9
$DIMSHO
 70
     1
  9
$DIMPOST
  1

  9
$DIMAPOST
  1

  9
$DIMALT
 70
     0
  9
$DIMALTD
 70
     3
  9
$DIMALTF
 40
0.0393700787
  9
$DIMLFAC
 40
1.0
  9
$DIMTOFL
 70
     1
  9
$DIMTVP
 40
0.0
  9
$DIMTIX
 70
     0
  9
$DIMSOXD
 70
     0
  9
$DIMSAH
 70
     0
  9
$DIMBLK1
  1

  9
$DIMBLK2
  1

  9
$DIMSTYLE
  2
ISO-25
  9
$DIMCLRD
 70
     0
  9
$DIMCLRE
 70
     0
  9
$DIMCLRT
 70
     0
  9
$DIMTFAC
 40
1.0
  9
$DIMGAP
 40
1.524
  9
$LUNITS
 70
     2
  9
$LUPREC
 70
     2
  9
$SKETCHINC
 40
1.0
  9
$FILLETRAD
 40
10.0
  9
$AUNITS
 70
     0
  9
$AUPREC
 70
     2
  9
$MENU
  1
.
  9
$ELEVATION
 40
0.0
  9
$PELEVATION
 40
0.0
  9
$THICKNESS
 40
0.0
  9
$LIMCHECK
 70
     0
  9
$CHAMFERA
 40
0.0
  9
$CHAMFERB
 40
0.0
  9
$SKPOLY
 70
     0
  9
$TDCREATE
 40
2456811.63996875
  9
$TDUPDATE
 40
2456812.466322396
  9
$TDINDWG
 40
0.0024898958
  9
$TDUSRTIMER
 40
2456812.380499294
  9
$USRTIMER
 70
     1
  9
$ANGBASE
 50
0.0
  9
$ANGDIR
 70
     0
  9
$PDMODE
 70
     0
  9
$PDSIZE
 40
-1.0
  9
$PLINEWID
 40
0.0
  9
$COORDS
 70
     1
  9
$SPLFRAME
 70
     0
  9
$SPLINETYPE
 70
     6
  9
$SPLINESEGS
 70
     8
  9
$ATTDIA
 70
     0
  9
$ATTREQ
 70
     1
  9
$HANDLING
 70
     1
  9
$HANDSEED
  5
109
  9
$SURFTAB1
 70
     6
  9
$SURFTAB2
 70
     6
  9
$SURFTYPE
 70
     6
  9
$SURFU
 70
     6
  9
$SURFV
 70
     6
  9
$UCSNAME
  2

  9
$UCSORG
 10
0.0
 20
0.0
 30
0.0
  9
$UCSXDIR
 10
1.0
 20
0.0
 30
0.0
  9
$UCSYDIR
 10
0.0
 20
1.0
 30
0.0
  9
$PUCSNAME
  2

  9
$PUCSORG
 10
0.0
 20
0.0
 30
0.0
  9
$PUCSXDIR
 10
1.0
 20
0.0
 30
0.0
  9
$PUCSYDIR
 10
0.0
 20
1.0
 30
0.0
  9
$USERI1
 70
     0
  9
$USERI2
 70
     0
  9
$USERI3
 70
     0
  9
$USERI4
 70
     0
  9
$USERI5
 70
     0
  9
$USERR1
 40
0.0
  9
$USERR2
 40
0.0
  9
$USERR3
 40
0.0
  9
$USERR4
 40
0.0
  9
$USERR5
 40
0.0
  9
$WORLDVIEW
 70
     1
  9
$SHADEDGE
 70
     3
  9
$SHADEDIF
 70
    70
  9
$TILEMODE
 70
     1
  9
$MAXACTVP
 70
    64
  9
$PLIMCHECK
 70
     0
  9
$PEXTMIN
 10
1.000000000000000E+20
 20
1.000000000000000E+20
 30
1.000000000000000E+20
  9
$PEXTMAX
 10
-1.000000000000000E+20
 20
-1.000000000000000E+20
 30
-1.000000000000000E+20
  9
$PLIMMIN
 10
0.0
 20
0.0
  9
$PLIMMAX
 10
0.0
 20
0.0
  9
$UNITMODE
 70
     0
  9
$VISRETAIN
 70
     1
  9
$PLINEGEN
 70
     0
  9
$PSLTSCALE
 70
     1
  0
ENDSEC
  0
SECTION
  2
TABLES
  0
TABLE
  2
VPORT
 70
     1
  0
VPORT
  2
*ACTIVE
 70
     0
 10
0.0
 20
0.0
 11
1.0
 21
1.0
 12
-6725.557489300955
 22
-785.1553653945105
 13
0.0
 23
0.0
 14
10.0
 24
10.0
 15
10.0
 25
10.0
 16
0.0
 26
0.0
 36
1.0
 17
0.0
 27
0.0
 37
0.0
 40
2535.204653942638
 41
1.996879875195008
 42
50.0
 43
0.0
 44
0.0
 50
0.0
 51
0.0
 71
    16
 72
   100
 73
     1
 74
     3
 75
     0
 76
     0
 77
     0
 78
     0
  0
ENDTAB
  0
TABLE
  2
LTYPE
 70
     6
  0
LTYPE
  2
CONTINUOUS
 70
     0
  3
Solid line
 72
    65
 73
     0
 40
0.0
  0
LTYPE
  2
HIDDEN
 70
     0
  3
Hidden __ __ __ __ __ __ __ __ __ __ __ __ __ __
 72
    65
 73
     2
 40
1.905
 49
1.27
 49
-0.635
  0
LTYPE
  2
PHANTOM
 70
     0
  3
Phantom ______  __  __  ______  __  __  ______
 72
    65
 73
     6
 40
12.7
 49
6.35
 49
-1.27
 49
1.27
 49
-1.27
 49
1.27
 49
-1.27
  0
LTYPE
  2
CENTER
 70
     0
  3
Center ____ _ ____ _ ____ _ ____ _ ____ _ ____
 72
    65
 73
     4
 40
10.16
 49
6.35
 49
-1.27
 49
1.27
 49
-1.27
  0
LTYPE
  2
CENTERX2
 70
     0
  3
Center (2x) ________  __  ________  __  _____
 72
    65
 73
     4
 40
20.32
 49
12.7
 49
-2.54
 49
2.54
 49
-2.54
  0
LTYPE
  2
DOT2
 70
     0
  3
Dot (.5x) ........................................
 72
    65
 73
     2
 40
0.635
 49
0.0
 49
-0.635
  0
ENDTAB
  0
TABLE
  2
LAYER
 70
     1
  0
LAYER
  2
0
 70
     0
 62
     7
  6
CONTINUOUS
  0
ENDTAB
  0
TABLE
  2
STYLE
 70
     1
  0
STYLE
  2
STANDARD
 70
     0
 40
0.0
 41
1.0
 50
0.0
 71
     0
 42
3.5
  3
txt
  4

  0
ENDTAB
  0
TABLE
  2
VIEW
 70
     0
  0
ENDTAB
  0
TABLE
  2
UCS
 70
     0
  0
ENDTAB
  0
TABLE
  2
APPID
 70
     1
  0
APPID
  2
ACAD
 70
     0
  0
ENDTAB
  0
TABLE
  2
DIMSTYLE
 70
     1
  0
DIMSTYLE
  2
ISO-25
 70
     0
  3

  4

  5

  6

  7

 40
1.0
 41
2.5
 42
0.625
 43
3.75
 44
1.25
 45
0.0
 46
0.0
 47
0.0
 48
0.0
140
2.5
141
2.5
142
0.0
143
0.0393700787
144
1.0
145
0.0
146
1.0
147
0.625
 71
     0
 72
     0
 73
     0
 74
     0
 75
     0
 76
     0
 77
     1
 78
     8
170
     0
171
     3
172
     1
173
     0
174
     0
175
     0
176
     0
177
     0
178
     0
  0
ENDTAB
  0
ENDSEC
  0
SECTION
  2
BLOCKS
  0
BLOCK
  8
0
  2
$MODEL_SPACE
 70
     0
 10
0.0
 20
0.0
 30
0.0
  3
$MODEL_SPACE
  1

  0
ENDBLK
  5
21
  8
0
  0
BLOCK
 67
     1
  8
0
  2
$PAPER_SPACE
 70
     0
 10
0.0
 20
0.0
 30
0.0
  3
$PAPER_SPACE
  1

  0
ENDBLK
  5
1D
 67
     1
  8
0
  0
ENDSEC
  0
SECTION
  2
ENTITIES
  0
LINE
  5
A1
  8
0
  6
CONTINUOUS
 62
     7
 10
-6595.964696848
 20
-1182.1896290345
 30
0.0
 11
-6690.346730768492
 21
-1125.624928616869
 31
0.0
  0
LINE
  5
A2
  8
0
  6
CONTINUOUS
 62
     7
 10
-6619.0378190571
 20
-1215.6336611535
 30
0.0
 11
-6595.964696848
 21
-1182.1896290345
 31
0.0
  0
LINE
  5
A3
  8
0
  6
CONTINUOUS
 62
     7
 10
-6619.0378190571
 20
-1215.6336611535
 30
0.0
 11
-6716.3041020544
 21
-1495.9399108605
 31
0.0
  0
LINE
  5
A4
  8
0
  6
CONTINUOUS
 62
     7
 10
-6699.3308664366
 20
-1676.3009078568
 30
0.0
 11
-6716.3041020544
 21
-1495.9399108605
 31
0.0
  0
LINE
  5
A5
  8
0
  6
CONTINUOUS
 62
     7
 10
-6887.555295877
 20
-1706.6134586297
 30
0.0
 11
-6699.3308664366
 21
-1676.3009078568
 31
0.0
  0
LINE
  5
A6
  8
0
  6
CONTINUOUS
 62
     7
 10
-6898.7305746906
 20
-1710.5223476772
 30
0.0
 11
-6895.61916456944
 21
-1709.434038638316
 31
0.0
  0
LINE
  5
A7
  8
0
  6
CONTINUOUS
 62
     7
 10
-6898.7305746906
 20
-1710.5223476772
 30
0.0
 11
-7176.7580853337
 21
-1708.7251441949
 31
0.0
  0
LINE
  5
A8
  8
0
  6
CONTINUOUS
 62
     7
 10
-7186.8748260315
 20
-1702.3794854424
 30
0.0
 11
-7183.533459961569
 21
-1704.475335230423
 31
0.0
  0
LINE
  5
A9
  8
0
  6
CONTINUOUS
 62
     7
 10
-7300.9803580576
 20
-1553.8938320866
 30
0.0
 11
-7186.8748260315
 21
-1702.3794854424
 31
0.0
  0
LINE
  5
AA
  8
0
  6
CONTINUOUS
 62
     7
 10
-7170.4897083844
 20
-1432.4537163125
 30
0.0
 11
-7300.9803580576
 21
-1553.8938320866
 31
0.0
  0
LINE
  5
AB
  8
0
  6
CONTINUOUS
 62
     7
 10
-7170.4897083844
 20
-1432.4537163125
 30
0.0
 11
-7057.1427471999
 21
-1162.37566208
 31
0.0
  0
LINE
  5
AC
  8
0
  6
CONTINUOUS
 62
     7
 10
-7051.9915303894
 20
-1124.4418116788
 30
0.0
 11
-7057.1427471999
 21
-1162.37566208
 31
0.0
  0
LINE
  5
AD
  8
0
  6
CONTINUOUS
 62
     7
 10
-6945.278011600084
 20
-1141.939121651755
 30
0.0
 11
-7051.9915303894
 21
-1124.4418116788
 31
0.0
  0
LINE
  5
B4
  8
0
  6
CONTINUOUS
 62
     7
 10
-6944.117061403863
 20
-1136.172861605792
 30
0.0
 11
-7037.1808241989
 21
-1080.6060420817
 31
0.0
  0
LINE
  5
B5
  8
0
  6
CONTINUOUS
 62
     7
 10
-6894.5306138717
 20
-850.6804930374
 30
0.0
 11
-7037.1808241989
 21
-1080.6060420817
 31
0.0
  0
LINE
  5
B6
  8
0
  6
CONTINUOUS
 62
     7
 10
-6553.7181016894
 20
-119.8057020662
 30
0.0
 11
-6894.5306138717
 21
-850.6804930374
 31
0.0
  0
LINE
  5
B7
  8
0
  6
CONTINUOUS
 62
     7
 10
-6517.4657902079
 20
-136.7104325358
 30
0.0
 11
-6553.7181016894
 21
-119.8057020662
 31
0.0
  0
LINE
  5
B8
  8
0
  6
CONTINUOUS
 62
     7
 10
-6517.4657902079
 20
-136.7104325358
 30
0.0
 11
-6529.5245193731
 21
-235.9227097609
 31
0.0
  0
LINE
  5
B9
  8
0
  6
CONTINUOUS
 62
     7
 10
-6524.5632074363
 20
-250.0
 30
0.0
 11
-6526.093947833018
 21
-245.6566575293357
 31
0.0
  0
LINE
  5
BA
  8
0
  6
CONTINUOUS
 62
     7
 10
-6358.3732437604
 20
-250.0
 30
0.0
 11
-6524.5632074363
 21
-250.0
 31
0.0
  0
LINE
  5
BB
  8
0
  6
CONTINUOUS
 62
     7
 10
-6341.8623983854
 20
-236.2719508775
 30
0.0
 11
-6346.95657877994
 21
-240.5075400982075
 31
0.0
  0
LINE
  5
BC
  8
0
  6
CONTINUOUS
 62
     7
 10
-6341.8623983854
 20
-236.2719508775
 30
0.0
 11
-6279.63842363
 21
-161.3454119263
 31
0.0
  0
LINE
  5
BD
  8
0
  6
CONTINUOUS
 62
     7
 10
-6242.3325814393
 20
-175.7771179392
 30
0.0
 11
-6279.63842363
 21
-161.3454119263
 31
0.0
  0
LINE
  5
BE
  8
0
  6
CONTINUOUS
 62
     7
 10
-6516.2477963708
 20
-883.8457116844
 30
0.0
 11
-6242.3325814393
 21
-175.7771179392
 31
0.0
  0
LINE
  5
BF
  8
0
  6
CONTINUOUS
 62
     7
 10
-6581.696221096
 20
-1144.7297730977
 30
0.0
 11
-6516.2477963708
 21
-883.8457116844
 31
0.0
  0
LINE
  5
C0
  8
0
  6
CONTINUOUS
 62
     7
 10
-6581.696221096
 20
-1144.7297730977
 30
0.0
 11
-6689.264352817529
 21
-1119.826990452565
 31
0.0
  0
ARC
  5
ED
  8
0
 10
-6690.346730768492
 20
-1122.624928616869
 30
0.0
 40
3.0
 50
68.85111663105495
 51
270.0
  0
ARC
  5
EE
  8
0
 10
-6944.117061403863
 20
-1139.172861605792
 30
0.0
 40
3.0
 50
247.2330726014209
 51
90.0
  0
LINE
  5
FD
  8
0
 10
-6346.95657877994
 20
-240.5075400982076
 30
0.0
 11
-6355.867945451273
 21
-258.0
 31
0.0
  0
LINE
  5
FE
  8
0
 10
-6355.867945451273
 20
-258.0
 30
0.0
 11
-6353.279063365917
 21
-245.7644107793396
 31
0.0
  0
LINE
  5
FF
  8
0
 10
-6527.993778976402
 20
-240.2660522315083
 30
0.0
 11
-6534.056498792243
 21
-258.0
 31
0.0
  0
LINE
  5
100
  8
0
 10
-6534.056498792243
 20
-258.0
 30
0.0
 11
-6526.093947833018
 21
-245.6566575293359
 31
0.0
  0
LINE
  5
101
  8
0
 10
-6895.61916456944
 20
-1709.434038638316
 30
0.0
 11
-6889.852610544092
 21
-1699.085700691512
 31
0.0
  0
LINE
  5
102
  8
0
 10
-6889.852610544092
 20
-1699.085700691512
 30
0.0
 11
-6890.733506537591
 21
-1707.725133161409
 31
0.0
  0
LINE
  5
103
  8
0
 10
-7183.533459961569
 20
-1704.475335230422
 30
0.0
 11
-7178.618997257319
 21
-1698.11439412828
 31
0.0
  0
LINE
  5
104
  8
0
 10
-7178.618997257319
 20
-1698.11439412828
 30
0.0
 11
-7180.099451403597
 21
-1706.629294406899
 31
0.0
  0
LINE
  5
105
  8
0
  6
CONTINUOUS
 62
     7
 10
-6527.993778976402
 20
-240.2660522315076
 30
0.0
 11
-6529.5245193731
 21
-235.9227097609
 31
0.0
  0
LINE
  5
106
  8
0
  6
CONTINUOUS
 62
     7
 10
-6353.279063365917
 20
-245.7644107793394
 30
0.0
 11
-6358.3732437604
 21
-250.0
 31
0.0
  0
LINE
  5
107
  8
0
  6
CONTINUOUS
 62
     7
 10
-6890.733506537591
 20
-1707.72513316141
 30
0.0
 11
-6887.555295877
 21
-1706.6134586297
 31
0.0
  0
LINE
  5
108
  8
0
  6
CONTINUOUS
 62
     7
 10
-7180.099451403597
 20
-1706.629294406899
 30
0.0
 11
-7176.7580853337
 21
-1708.7251441949
 31
0.0
  0
ENDSEC
  0
EOF
