  0
SECTION
  2
HEADER
  9
$ACADVER
  1
AC1009
  9
$DWGCODEPAGE
  3
ansi_1252
  9
$INSBASE
 10
0.0
 20
0.0
 30
0.0
  9
$EXTMIN
 10
6331.231593708
 20
-286.7469847727
 30
0.0
  9
$EXTMAX
 10
6741.6227120872
 20
84.8392079124
 30
0.0
  9
$LIMMIN
 10
0.0
 20
0.0
  9
$LIMMAX
 10
420.0
 20
297.0
  9
$ORTHOMODE
 70
     0
  9
$REGENMODE
 70
     1
  9
$FILLMODE
 70
     1
  9
$QTEXTMODE
 70
     0
  9
$MIRRTEXT
 70
     1
  9
$DRAGMODE
 70
     2
  9
$LTSCALE
 40
1.0
  9
$OSMODE
 70
  1023
  9
$ATTMODE
 70
     1
  9
$TEXTSIZE
 40
3.5
  9
$TRACEWID
 40
1.0
  9
$TEXTSTYLE
  7
STANDARD
  9
$CLAYER
  8
0
  9
$CELTYPE
  6
BYLAYER
  9
$CECOLOR
 62
   256
  9
$DIMSCALE
 40
1.0
  9
$DIMASZ
 40
6.0
  9
$DIMEXO
 40
1.0
  9
$DIMDLI
 40
3.75
  9
$DIMRND
 40
0.0
  9
$DIMDLE
 40
0.0
  9
$DIMEXE
 40
1.0
  9
$DIMTP
 40
0.0
  9
$DIMTM
 40
0.0
  9
$DIMTXT
 40
3.5
  9
$DIMCEN
 40
2.5
  9
$DIMTSZ
 40
0.0
  9
$DIMTOL
 70
     0
  9
$DIMLIM
 70
     0
  9
$DIMTIH
 70
     1
  9
$DIMTOH
 70
     1
  9
$DIMSE1
 70
     0
  9
$DIMSE2
 70
     0
  9
$DIMTAD
 70
     1
  9
$DIMZIN
 70
     0
  9
$DIMBLK
  1

  9
$DIMASO
 70
     1
  9
$DIMSHO
 70
     1
  9
$DIMPOST
  1

  9
$DIMAPOST
  1

  9
$DIMALT
 70
     0
  9
$DIMALTD
 70
     3
  9
$DIMALTF
 40
0.0393700787
  9
$DIMLFAC
 40
1.0
  9
$DIMTOFL
 70
     1
  9
$DIMTVP
 40
0.0
  9
$DIMTIX
 70
     0
  9
$DIMSOXD
 70
     0
  9
$DIMSAH
 70
     0
  9
$DIMBLK1
  1

  9
$DIMBLK2
  1

  9
$DIMSTYLE
  2
ISO-25
  9
$DIMCLRD
 70
     0
  9
$DIMCLRE
 70
     0
  9
$DIMCLRT
 70
     0
  9
$DIMTFAC
 40
1.0
  9
$DIMGAP
 40
1.524
  9
$LUNITS
 70
     2
  9
$LUPREC
 70
     2
  9
$SKETCHINC
 40
1.0
  9
$FILLETRAD
 40
10.0
  9
$AUNITS
 70
     0
  9
$AUPREC
 70
     2
  9
$MENU
  1
.
  9
$ELEVATION
 40
0.0
  9
$PELEVATION
 40
0.0
  9
$THICKNESS
 40
0.0
  9
$LIMCHECK
 70
     0
  9
$CHAMFERA
 40
0.0
  9
$CHAMFERB
 40
0.0
  9
$SKPOLY
 70
     0
  9
$TDCREATE
 40
2456811.986728298
  9
$TDUPDATE
 40
2456812.728639838
  9
$TDINDWG
 40
0.0061001505
  9
$TDUSRTIMER
 40
2456812.639538738
  9
$USRTIMER
 70
     1
  9
$ANGBASE
 50
0.0
  9
$ANGDIR
 70
     0
  9
$PDMODE
 70
     0
  9
$PDSIZE
 40
-1.0
  9
$PLINEWID
 40
0.0
  9
$COORDS
 70
     1
  9
$SPLFRAME
 70
     0
  9
$SPLINETYPE
 70
     6
  9
$SPLINESEGS
 70
     8
  9
$ATTDIA
 70
     0
  9
$ATTREQ
 70
     1
  9
$HANDLING
 70
     1
  9
$HANDSEED
  5
138
  9
$SURFTAB1
 70
     6
  9
$SURFTAB2
 70
     6
  9
$SURFTYPE
 70
     6
  9
$SURFU
 70
     6
  9
$SURFV
 70
     6
  9
$UCSNAME
  2

  9
$UCSORG
 10
0.0
 20
0.0
 30
0.0
  9
$UCSXDIR
 10
1.0
 20
0.0
 30
0.0
  9
$UCSYDIR
 10
0.0
 20
1.0
 30
0.0
  9
$PUCSNAME
  2

  9
$PUCSORG
 10
0.0
 20
0.0
 30
0.0
  9
$PUCSXDIR
 10
1.0
 20
0.0
 30
0.0
  9
$PUCSYDIR
 10
0.0
 20
1.0
 30
0.0
  9
$USERI1
 70
     0
  9
$USERI2
 70
     0
  9
$USERI3
 70
     0
  9
$USERI4
 70
     0
  9
$USERI5
 70
     0
  9
$USERR1
 40
0.0
  9
$USERR2
 40
0.0
  9
$USERR3
 40
0.0
  9
$USERR4
 40
0.0
  9
$USERR5
 40
0.0
  9
$WORLDVIEW
 70
     1
  9
$SHADEDGE
 70
     3
  9
$SHADEDIF
 70
    70
  9
$TILEMODE
 70
     1
  9
$MAXACTVP
 70
    64
  9
$PLIMCHECK
 70
     0
  9
$PEXTMIN
 10
1.000000000000000E+20
 20
1.000000000000000E+20
 30
1.000000000000000E+20
  9
$PEXTMAX
 10
-1.000000000000000E+20
 20
-1.000000000000000E+20
 30
-1.000000000000000E+20
  9
$PLIMMIN
 10
0.0
 20
0.0
  9
$PLIMMAX
 10
0.0
 20
0.0
  9
$UNITMODE
 70
     0
  9
$VISRETAIN
 70
     1
  9
$PLINEGEN
 70
     0
  9
$PSLTSCALE
 70
     1
  0
ENDSEC
  0
SECTION
  2
TABLES
  0
TABLE
  2
VPORT
 70
     1
  0
VPORT
  2
*ACTIVE
 70
     0
 10
0.0
 20
0.0
 11
1.0
 21
1.0
 12
6680.622242985154
 22
-31.66623890367474
 13
0.0
 23
0.0
 14
10.0
 24
10.0
 15
10.0
 25
10.0
 16
0.0
 26
0.0
 36
1.0
 17
0.0
 27
0.0
 37
0.0
 40
592.2154945917187
 41
1.996879875195008
 42
50.0
 43
0.0
 44
0.0
 50
0.0
 51
0.0
 71
    16
 72
   100
 73
     1
 74
     3
 75
     0
 76
     0
 77
     0
 78
     0
  0
ENDTAB
  0
TABLE
  2
LTYPE
 70
     6
  0
LTYPE
  2
CONTINUOUS
 70
     0
  3
Solid line
 72
    65
 73
     0
 40
0.0
  0
LTYPE
  2
HIDDEN
 70
     0
  3
Hidden __ __ __ __ __ __ __ __ __ __ __ __ __ __
 72
    65
 73
     2
 40
1.905
 49
1.27
 49
-0.635
  0
LTYPE
  2
PHANTOM
 70
     0
  3
Phantom ______  __  __  ______  __  __  ______
 72
    65
 73
     6
 40
12.7
 49
6.35
 49
-1.27
 49
1.27
 49
-1.27
 49
1.27
 49
-1.27
  0
LTYPE
  2
CENTER
 70
     0
  3
Center ____ _ ____ _ ____ _ ____ _ ____ _ ____
 72
    65
 73
     4
 40
10.16
 49
6.35
 49
-1.27
 49
1.27
 49
-1.27
  0
LTYPE
  2
CENTERX2
 70
     0
  3
Center (2x) ________  __  ________  __  _____
 72
    65
 73
     4
 40
20.32
 49
12.7
 49
-2.54
 49
2.54
 49
-2.54
  0
LTYPE
  2
DOT2
 70
     0
  3
Dot (.5x) ........................................
 72
    65
 73
     2
 40
0.635
 49
0.0
 49
-0.635
  0
ENDTAB
  0
TABLE
  2
LAYER
 70
     1
  0
LAYER
  2
0
 70
     0
 62
     7
  6
CONTINUOUS
  0
ENDTAB
  0
TABLE
  2
STYLE
 70
     1
  0
STYLE
  2
STANDARD
 70
     0
 40
0.0
 41
1.0
 50
0.0
 71
     0
 42
3.5
  3
txt
  4

  0
ENDTAB
  0
TABLE
  2
VIEW
 70
     0
  0
ENDTAB
  0
TABLE
  2
UCS
 70
     0
  0
ENDTAB
  0
TABLE
  2
APPID
 70
     1
  0
APPID
  2
ACAD
 70
     0
  0
ENDTAB
  0
TABLE
  2
DIMSTYLE
 70
     1
  0
DIMSTYLE
  2
ISO-25
 70
     0
  3

  4

  5

  6

  7

 40
1.0
 41
2.5
 42
0.625
 43
3.75
 44
1.25
 45
0.0
 46
0.0
 47
0.0
 48
0.0
140
2.5
141
2.5
142
0.0
143
0.0393700787
144
1.0
145
0.0
146
1.0
147
0.625
 71
     0
 72
     0
 73
     0
 74
     0
 75
     0
 76
     0
 77
     1
 78
     8
170
     0
171
     3
172
     1
173
     0
174
     0
175
     0
176
     0
177
     0
178
     0
  0
ENDTAB
  0
ENDSEC
  0
SECTION
  2
BLOCKS
  0
BLOCK
  8
0
  2
$MODEL_SPACE
 70
     0
 10
0.0
 20
0.0
 30
0.0
  3
$MODEL_SPACE
  1

  0
ENDBLK
  5
21
  8
0
  0
BLOCK
 67
     1
  8
0
  2
$PAPER_SPACE
 70
     0
 10
0.0
 20
0.0
 30
0.0
  3
$PAPER_SPACE
  1

  0
ENDBLK
  5
1D
 67
     1
  8
0
  0
ENDSEC
  0
SECTION
  2
ENTITIES
  0
LINE
  5
77
  8
0
 10
6415.5945837922
 20
-133.2106181745
 30
0.0
 11
6415.0811949353
 21
-133.1462180897
 31
0.0
  0
LINE
  5
78
  8
0
 10
6415.5945837922
 20
-133.2106181745
 30
0.0
 11
6415.4921196124
 21
-134.0274489035
 31
0.0
  0
LINE
  5
79
  8
0
 10
6415.4921196124
 20
-134.0274489035
 30
0.0
 11
6420.6682023738
 21
-145.1275942065
 31
0.0
  0
ARC
  5
7A
  8
0
 10
6426.106049096
 20
-142.591884636
 30
0.0
 40
6.000000000000397
 50
205.0
 51
262.8500982569
  0
LINE
  5
7B
  8
0
 10
6425.3592548901
 20
-148.5452281012
 30
0.0
 11
6507.9556984166
 21
-158.906220342
 31
0.0
  0
ARC
  5
7C
  8
0
 10
6503.5993988825
 20
-193.634057222
 30
0.0
 40
35.00000000000009
 50
47.850098257
 51
82.850098257
  0
LINE
  5
7D
  8
0
 10
6527.0869394712
 20
-167.6853494104
 30
0.0
 11
6648.624834871
 21
-277.6956925843
 31
0.0
  0
ARC
  5
7E
  8
0
 10
6672.1123754597
 20
-251.7469847727
 30
0.0
 40
35.00000000000077
 50
227.850098257
 51
270.0
  0
LINE
  5
7F
  8
0
 10
6672.1123754597
 20
-286.7469847727
 30
0.0
 11
6711.327117326
 21
-286.7469847727
 31
0.0
  0
ARC
  5
80
  8
0
 10
6711.327117326
 20
-251.7469847727
 30
0.0
 40
35.00000000000029
 50
270.0
 51
325.8498400226
  0
ARC
  5
81
  8
0
 10
6706.6227120872
 20
-261.8356143641
 30
0.0
 40
34.99999999999977
 50
344.1501599774
 51
25.0
  0
LINE
  5
82
  8
0
 10
6738.3434846335
 20
-247.0439752032
 30
0.0
 11
6593.0071281519
 21
64.6308470733
 31
0.0
  0
ARC
  5
83
  8
0
 10
6561.2863556056
 20
49.8392079124
 30
0.0
 40
35.0000000000005
 50
25.0
 51
90.0
  0
LINE
  5
84
  8
0
 10
6561.2863556056
 20
84.8392079124
 30
0.0
 11
6492.0391152197
 21
84.8392079124
 31
0.0
  0
ARC
  5
85
  8
0
 10
6492.0391152197
 20
49.8392079124
 30
0.0
 40
35.00000000000011
 50
90.0
 51
115.0
  0
LINE
  5
86
  8
0
 10
6477.2474760588
 20
81.5599804587
 30
0.0
 11
6425.1772332046
 21
57.2792274538
 31
0.0
  0
ARC
  5
87
  8
0
 10
6410.3855940437
 20
89.0
 30
0.0
 40
35.00000000000013
 50
270.0
 51
295.0000000000001
  0
LINE
  5
88
  8
0
 10
6410.3855940437
 20
54.0
 30
0.0
 11
6337.231593708
 21
54.0
 31
0.0
  0
ARC
  5
89
  8
0
 10
6337.231593708
 20
48.0
 30
0.0
 40
6.0
 50
90.0
 51
205.0
  0
LINE
  5
8A
  8
0
 10
6331.7937469858
 20
45.4642904296
 30
0.0
 11
6415.0811949353
 21
-133.1462180897
 31
0.0
  0
LINE
  5
124
  8
0
 10
6563.400753108344
 20
43.41190656858894
 30
0.0
 11
6554.948387873544
 21
61.53806230928894
 31
0.0
  0
LINE
  5
125
  8
0
 10
6538.272324592056
 20
53.76188629321111
 30
0.0
 11
6546.724689826856
 21
35.6357305525111
 31
0.0
  0
ARC
  5
126
  8
0
 10
6546.6103562328
 20
57.6499743013
 30
0.0
 40
9.200000000002118
 50
25.0
 51
205.0
  0
ARC
  5
127
  8
0
 10
6555.0627214676
 20
39.5238185605
 30
0.0
 40
9.200000000002968
 50
205.0
 51
25.0
  0
LINE
  5
128
  8
0
 10
6609.888761899844
 20
-56.28195000551106
 30
0.0
 11
6601.436396665044
 21
-38.15579426481106
 31
0.0
  0
LINE
  5
129
  8
0
 10
6584.760333383556
 20
-45.93197028088889
 30
0.0
 11
6593.212698618356
 21
-64.05812602158889
 31
0.0
  0
ARC
  5
12A
  8
0
 10
6593.0983650243
 20
-42.0438822728
 30
0.0
 40
9.200000000002118
 50
24.99999999999962
 51
204.9999999999996
  0
ARC
  5
12B
  8
0
 10
6601.5507302591
 20
-60.1700380136
 30
0.0
 40
9.200000000002968
 50
204.9999999999993
 51
24.99999999999927
  0
LINE
  5
130
  8
0
 10
6702.864779482745
 20
-255.669663153511
 30
0.0
 11
6694.412414247944
 21
-237.543507412811
 31
0.0
  0
LINE
  5
131
  8
0
 10
6677.736350966456
 20
-245.3196834288889
 30
0.0
 11
6686.188716201256
 21
-263.4458391695889
 31
0.0
  0
ARC
  5
132
  8
0
 10
6686.0743826072
 20
-241.4315954208
 30
0.0
 40
9.200000000002118
 50
24.99999999999962
 51
204.9999999999996
  0
ARC
  5
133
  8
0
 10
6694.526747842
 20
-259.5577511616
 30
0.0
 40
9.200000000002968
 50
204.9999999999993
 51
24.99999999999931
  0
LINE
  5
134
  8
0
 10
6656.376770691245
 20
-155.9758065795111
 30
0.0
 11
6647.924405456444
 21
-137.8496508388111
 31
0.0
  0
LINE
  5
135
  8
0
 10
6631.248342174957
 20
-145.6258268548889
 30
0.0
 11
6639.700707409756
 21
-163.7519825955889
 31
0.0
  0
ARC
  5
136
  8
0
 10
6639.5863738157
 20
-141.7377388468
 30
0.0
 40
9.200000000002118
 50
24.99999999999962
 51
204.9999999999996
  0
ARC
  5
137
  8
0
 10
6648.0387390505
 20
-159.8638945876
 30
0.0
 40
9.200000000002968
 50
204.9999999999991
 51
24.99999999999931
  0
ENDSEC
  0
EOF
