  0
SECTION
  2
HEADER
  9
$ACADVER
  1
AC1009
  9
$DWGCODEPAGE
  3
ansi_1252
  9
$INSBASE
 10
0.0
 20
0.0
 30
0.0
  9
$EXTMIN
 10
-999.4008459192
 20
6743.7674996366
 30
0.0
  9
$EXTMAX
 10
999.4668900662
 20
7332.8045805488
 30
0.0
  9
$LIMMIN
 10
0.0
 20
0.0
  9
$LIMMAX
 10
420.0
 20
297.0
  9
$ORTHOMODE
 70
     0
  9
$REGENMODE
 70
     1
  9
$FILLMODE
 70
     1
  9
$QTEXTMODE
 70
     0
  9
$MIRRTEXT
 70
     1
  9
$DRAGMODE
 70
     2
  9
$LTSCALE
 40
1.0
  9
$OSMODE
 70
  1023
  9
$ATTMODE
 70
     1
  9
$TEXTSIZE
 40
3.5
  9
$TRACEWID
 40
1.0
  9
$TEXTSTYLE
  7
STANDARD
  9
$CLAYER
  8
0
  9
$CELTYPE
  6
BYLAYER
  9
$CECOLOR
 62
   256
  9
$DIMSCALE
 40
1.0
  9
$DIMASZ
 40
6.0
  9
$DIMEXO
 40
1.0
  9
$DIMDLI
 40
3.75
  9
$DIMRND
 40
0.0
  9
$DIMDLE
 40
0.0
  9
$DIMEXE
 40
1.0
  9
$DIMTP
 40
0.0
  9
$DIMTM
 40
0.0
  9
$DIMTXT
 40
3.5
  9
$DIMCEN
 40
2.5
  9
$DIMTSZ
 40
0.0
  9
$DIMTOL
 70
     0
  9
$DIMLIM
 70
     0
  9
$DIMTIH
 70
     1
  9
$DIMTOH
 70
     1
  9
$DIMSE1
 70
     0
  9
$DIMSE2
 70
     0
  9
$DIMTAD
 70
     1
  9
$DIMZIN
 70
     0
  9
$DIMBLK
  1

  9
$DIMASO
 70
     1
  9
$DIMSHO
 70
     1
  9
$DIMPOST
  1

  9
$DIMAPOST
  1

  9
$DIMALT
 70
     0
  9
$DIMALTD
 70
     3
  9
$DIMALTF
 40
0.0393700787
  9
$DIMLFAC
 40
1.0
  9
$DIMTOFL
 70
     1
  9
$DIMTVP
 40
0.0
  9
$DIMTIX
 70
     0
  9
$DIMSOXD
 70
     0
  9
$DIMSAH
 70
     0
  9
$DIMBLK1
  1

  9
$DIMBLK2
  1

  9
$DIMSTYLE
  2
ISO-25
  9
$DIMCLRD
 70
     0
  9
$DIMCLRE
 70
     0
  9
$DIMCLRT
 70
     0
  9
$DIMTFAC
 40
1.0
  9
$DIMGAP
 40
1.524
  9
$LUNITS
 70
     2
  9
$LUPREC
 70
     2
  9
$SKETCHINC
 40
1.0
  9
$FILLETRAD
 40
10.0
  9
$AUNITS
 70
     0
  9
$AUPREC
 70
     2
  9
$MENU
  1
.
  9
$ELEVATION
 40
0.0
  9
$PELEVATION
 40
0.0
  9
$THICKNESS
 40
0.0
  9
$LIMCHECK
 70
     0
  9
$CHAMFERA
 40
0.0
  9
$CHAMFERB
 40
0.0
  9
$SKPOLY
 70
     0
  9
$TDCREATE
 40
2456811.64363456
  9
$TDUPDATE
 40
2456812.467707824
  9
$TDINDWG
 40
0.0013397454
  9
$TDUSRTIMER
 40
2456812.383034861
  9
$USRTIMER
 70
     1
  9
$ANGBASE
 50
0.0
  9
$ANGDIR
 70
     0
  9
$PDMODE
 70
     0
  9
$PDSIZE
 40
-1.0
  9
$PLINEWID
 40
0.0
  9
$COORDS
 70
     1
  9
$SPLFRAME
 70
     0
  9
$SPLINETYPE
 70
     6
  9
$SPLINESEGS
 70
     8
  9
$ATTDIA
 70
     0
  9
$ATTREQ
 70
     1
  9
$HANDLING
 70
     1
  9
$HANDSEED
  5
E7
  9
$SURFTAB1
 70
     6
  9
$SURFTAB2
 70
     6
  9
$SURFTYPE
 70
     6
  9
$SURFU
 70
     6
  9
$SURFV
 70
     6
  9
$UCSNAME
  2

  9
$UCSORG
 10
0.0
 20
0.0
 30
0.0
  9
$UCSXDIR
 10
1.0
 20
0.0
 30
0.0
  9
$UCSYDIR
 10
0.0
 20
1.0
 30
0.0
  9
$PUCSNAME
  2

  9
$PUCSORG
 10
0.0
 20
0.0
 30
0.0
  9
$PUCSXDIR
 10
1.0
 20
0.0
 30
0.0
  9
$PUCSYDIR
 10
0.0
 20
1.0
 30
0.0
  9
$USERI1
 70
     0
  9
$USERI2
 70
     0
  9
$USERI3
 70
     0
  9
$USERI4
 70
     0
  9
$USERI5
 70
     0
  9
$USERR1
 40
0.0
  9
$USERR2
 40
0.0
  9
$USERR3
 40
0.0
  9
$USERR4
 40
0.0
  9
$USERR5
 40
0.0
  9
$WORLDVIEW
 70
     1
  9
$SHADEDGE
 70
     3
  9
$SHADEDIF
 70
    70
  9
$TILEMODE
 70
     1
  9
$MAXACTVP
 70
    64
  9
$PLIMCHECK
 70
     0
  9
$PEXTMIN
 10
1.000000000000000E+20
 20
1.000000000000000E+20
 30
1.000000000000000E+20
  9
$PEXTMAX
 10
-1.000000000000000E+20
 20
-1.000000000000000E+20
 30
-1.000000000000000E+20
  9
$PLIMMIN
 10
0.0
 20
0.0
  9
$PLIMMAX
 10
0.0
 20
0.0
  9
$UNITMODE
 70
     0
  9
$VISRETAIN
 70
     1
  9
$PLINEGEN
 70
     0
  9
$PSLTSCALE
 70
     1
  0
ENDSEC
  0
SECTION
  2
TABLES
  0
TABLE
  2
VPORT
 70
     1
  0
VPORT
  2
*ACTIVE
 70
     0
 10
0.0
 20
0.0
 11
1.0
 21
1.0
 12
-575.7845072174053
 22
7147.007763580819
 13
0.0
 23
0.0
 14
10.0
 24
10.0
 15
10.0
 25
10.0
 16
0.0
 26
0.0
 36
1.0
 17
0.0
 27
0.0
 37
0.0
 40
2492.713361983944
 41
1.996879875195008
 42
50.0
 43
0.0
 44
0.0
 50
0.0
 51
0.0
 71
    16
 72
   100
 73
     1
 74
     3
 75
     0
 76
     0
 77
     0
 78
     0
  0
ENDTAB
  0
TABLE
  2
LTYPE
 70
     6
  0
LTYPE
  2
CONTINUOUS
 70
     0
  3
Solid line
 72
    65
 73
     0
 40
0.0
  0
LTYPE
  2
HIDDEN
 70
     0
  3
Hidden __ __ __ __ __ __ __ __ __ __ __ __ __ __
 72
    65
 73
     2
 40
1.905
 49
1.27
 49
-0.635
  0
LTYPE
  2
PHANTOM
 70
     0
  3
Phantom ______  __  __  ______  __  __  ______
 72
    65
 73
     6
 40
12.7
 49
6.35
 49
-1.27
 49
1.27
 49
-1.27
 49
1.27
 49
-1.27
  0
LTYPE
  2
CENTER
 70
     0
  3
Center ____ _ ____ _ ____ _ ____ _ ____ _ ____
 72
    65
 73
     4
 40
10.16
 49
6.35
 49
-1.27
 49
1.27
 49
-1.27
  0
LTYPE
  2
CENTERX2
 70
     0
  3
Center (2x) ________  __  ________  __  _____
 72
    65
 73
     4
 40
20.32
 49
12.7
 49
-2.54
 49
2.54
 49
-2.54
  0
LTYPE
  2
DOT2
 70
     0
  3
Dot (.5x) ........................................
 72
    65
 73
     2
 40
0.635
 49
0.0
 49
-0.635
  0
ENDTAB
  0
TABLE
  2
LAYER
 70
     1
  0
LAYER
  2
0
 70
     0
 62
     7
  6
CONTINUOUS
  0
ENDTAB
  0
TABLE
  2
STYLE
 70
     1
  0
STYLE
  2
STANDARD
 70
     0
 40
0.0
 41
1.0
 50
0.0
 71
     0
 42
3.5
  3
txt
  4

  0
ENDTAB
  0
TABLE
  2
VIEW
 70
     0
  0
ENDTAB
  0
TABLE
  2
UCS
 70
     0
  0
ENDTAB
  0
TABLE
  2
APPID
 70
     1
  0
APPID
  2
ACAD
 70
     0
  0
ENDTAB
  0
TABLE
  2
DIMSTYLE
 70
     1
  0
DIMSTYLE
  2
ISO-25
 70
     0
  3

  4

  5

  6

  7

 40
1.0
 41
2.5
 42
0.625
 43
3.75
 44
1.25
 45
0.0
 46
0.0
 47
0.0
 48
0.0
140
2.5
141
2.5
142
0.0
143
0.0393700787
144
1.0
145
0.0
146
1.0
147
0.625
 71
     0
 72
     0
 73
     0
 74
     0
 75
     0
 76
     0
 77
     1
 78
     8
170
     0
171
     3
172
     1
173
     0
174
     0
175
     0
176
     0
177
     0
178
     0
  0
ENDTAB
  0
ENDSEC
  0
SECTION
  2
BLOCKS
  0
BLOCK
  8
0
  2
$MODEL_SPACE
 70
     0
 10
0.0
 20
0.0
 30
0.0
  3
$MODEL_SPACE
  1

  0
ENDBLK
  5
21
  8
0
  0
BLOCK
 67
     1
  8
0
  2
$PAPER_SPACE
 70
     0
 10
0.0
 20
0.0
 30
0.0
  3
$PAPER_SPACE
  1

  0
ENDBLK
  5
1D
 67
     1
  8
0
  0
ENDSEC
  0
SECTION
  2
ENTITIES
  0
LINE
  5
91
  8
0
 10
-987.4009325991
 20
7190.8384378195
 30
0.0
 11
-991.6027999809124
 21
7186.1647350922
 31
0.0
  0
LINE
  5
92
  8
0
 10
-874.6751597771
 20
7332.7685864551
 30
0.0
 11
-987.4009325991
 21
7190.8384378195
 31
0.0
  0
LINE
  5
93
  8
0
 10
-802.6341675751
 20
7267.9727368093
 30
0.0
 11
-798.1270531183
 21
7263.6415820484
 31
0.0
  0
LINE
  5
94
  8
0
 10
798.1270531183
 20
7263.6415820484
 30
0.0
 11
-798.1270531183
 21
7263.6415820484
 31
0.0
  0
LINE
  5
95
  8
0
 10
802.6341675751
 20
7267.9727368093
 30
0.0
 11
798.1270531183
 21
7263.6415820484
 31
0.0
  0
LINE
  5
96
  8
0
 10
807.2468809913
 20
7267.9727368093
 30
0.0
 11
802.6341675751
 21
7267.9727368093
 31
0.0
  0
LINE
  5
97
  8
0
 10
874.7126161852
 20
7332.8045805488
 30
0.0
 11
807.2468809913
 21
7267.9727368093
 31
0.0
  0
LINE
  5
98
  8
0
 10
874.7126161852
 20
7332.8045805488
 30
0.0
 11
987.4669767461
 21
7190.8384378195
 31
0.0
  0
LINE
  5
99
  8
0
 10
999.4668900662
 20
7177.4910323649
 30
0.0
 11
995.2650226843867
 21
7182.1647350922
 31
0.0
  0
LINE
  5
9A
  8
0
 10
991.2112784816
 20
6900.0415851673
 30
0.0
 11
999.4668900662
 21
7177.4910323649
 31
0.0
  0
LINE
  5
9B
  8
0
 10
985.4208247173
 20
6892.0504219528
 30
0.0
 11
986.8668373589877
 21
6894.0460035601
 31
0.0
  0
LINE
  5
9C
  8
0
 10
985.4208247173
 20
6892.0504219528
 30
0.0
 11
864.5538784543
 21
6743.7674996366
 31
0.0
  0
LINE
  5
9D
  8
0
 10
794.8217398127
 20
6808.6945501885
 30
0.0
 11
864.5538784543
 21
6743.7674996366
 31
0.0
  0
LINE
  5
9E
  8
0
 10
790.2090263965
 20
6808.6945501885
 30
0.0
 11
794.8217398127
 21
6808.6945501885
 31
0.0
  0
LINE
  5
9F
  8
0
 10
785.6886992521
 20
6812.9033915455
 30
0.0
 11
790.2090263965
 21
6808.6945501885
 31
0.0
  0
LINE
  5
A0
  8
0
 10
517.5
 20
6812.9033915455
 30
0.0
 11
785.6886992521
 21
6812.9033915455
 31
0.0
  0
LINE
  5
A1
  8
0
 10
517.5
 20
6812.9033915455
 30
0.0
 11
517.5
 21
6877.2364787796
 31
0.0
  0
LINE
  5
A2
  8
0
 10
517.5
 20
6877.2364787796
 30
0.0
 11
397.5
 21
6877.2364787796
 31
0.0
  0
LINE
  5
A3
  8
0
 10
397.5
 20
6877.2364787796
 30
0.0
 11
397.5
 21
6812.9033915455
 31
0.0
  0
LINE
  5
A4
  8
0
 10
-397.5
 20
6812.9033915455
 30
0.0
 11
397.5
 21
6812.9033915455
 31
0.0
  0
LINE
  5
A5
  8
0
 10
-397.5
 20
6812.9033915455
 30
0.0
 11
-397.5
 21
6877.2364787796
 31
0.0
  0
LINE
  5
A6
  8
0
 10
-397.5
 20
6877.2364787796
 30
0.0
 11
-517.5
 21
6877.2364787796
 31
0.0
  0
LINE
  5
A7
  8
0
 10
-517.5
 20
6877.2364787796
 30
0.0
 11
-517.5
 21
6812.9033915455
 31
0.0
  0
LINE
  5
A8
  8
0
 10
-785.6886992521
 20
6812.9033915455
 30
0.0
 11
-517.5
 21
6812.9033915455
 31
0.0
  0
LINE
  5
A9
  8
0
 10
-785.6886992521
 20
6812.9033915455
 30
0.0
 11
-790.2090263965
 21
6808.6945501885
 31
0.0
  0
LINE
  5
AA
  8
0
 10
-794.8217398127
 20
6808.6945501885
 30
0.0
 11
-790.2090263965
 21
6808.6945501885
 31
0.0
  0
LINE
  5
AB
  8
0
 10
-864.5163308188
 20
6743.8024599473
 30
0.0
 11
-794.8217398127
 21
6808.6945501885
 31
0.0
  0
LINE
  5
AC
  8
0
 10
-985.3547805703
 20
6892.0504219528
 30
0.0
 11
-864.5163308188
 21
6743.8024599473
 31
0.0
  0
LINE
  5
AD
  8
0
 10
-991.1452343346
 20
6900.0415851673
 30
0.0
 11
-989.6992216929123
 21
6898.04600356
 31
0.0
  0
LINE
  5
AE
  8
0
 10
-991.1452343346
 20
6900.0415851673
 30
0.0
 11
-999.4008459192
 21
7177.4910323649
 31
0.0
  0
LINE
  5
AF
  8
0
 10
-802.6341675751
 20
7267.9727368093
 30
0.0
 11
-807.2468809913
 21
7267.9727368093
 31
0.0
  0
LINE
  5
B0
  8
0
 10
-807.2468809913
 20
7267.9727368093
 30
0.0
 11
-874.6751597771
 21
7332.7685864551
 31
0.0
  0
LINE
  5
DB
  8
0
 10
986.8668373589877
 20
6894.0460035601
 30
0.0
 11
978.4366006715336
 21
6896.046003560099
 31
0.0
  0
LINE
  5
DC
  8
0
 10
978.4366006715336
 20
6896.046003560099
 30
0.0
 11
989.7652658399847
 21
6898.0460035601
 31
0.0
  0
LINE
  5
DD
  8
0
 10
991.6688441279124
 20
7186.1647350922
 30
0.0
 11
982.7091454904029
 21
7184.1647350922
 31
0.0
  0
LINE
  5
DE
  8
0
 10
982.7091454904029
 20
7184.1647350922
 30
0.0
 11
995.265022684387
 21
7182.1647350922
 31
0.0
  0
LINE
  5
DF
  8
0
 10
-995.1989785373868
 20
7182.1647350922
 30
0.0
 11
-982.6431013434028
 21
7184.1647350922
 31
0.0
  0
LINE
  5
E0
  8
0
 10
-982.6431013434028
 20
7184.1647350922
 30
0.0
 11
-991.6027999809124
 21
7186.1647350922
 31
0.0
  0
LINE
  5
E1
  8
0
 10
-989.6992216929112
 20
6898.04600356
 30
0.0
 11
-978.3705565244622
 21
6896.046003560001
 31
0.0
  0
LINE
  5
E2
  8
0
 10
-978.3705565244622
 20
6896.046003560001
 30
0.0
 11
-986.8007932119153
 21
6894.04600356
 31
0.0
  0
LINE
  5
E3
  8
0
 10
989.7652658399846
 20
6898.0460035601
 30
0.0
 11
991.2112784816
 21
6900.0415851673
 31
0.0
  0
LINE
  5
E4
  8
0
 10
991.6688441279124
 20
7186.1647350922
 30
0.0
 11
987.4669767461
 21
7190.8384378195
 31
0.0
  0
LINE
  5
E5
  8
0
 10
-995.1989785373868
 20
7182.1647350922
 30
0.0
 11
-999.4008459192
 21
7177.4910323649
 31
0.0
  0
LINE
  5
E6
  8
0
 10
-986.8007932119153
 20
6894.04600356
 30
0.0
 11
-985.3547805703
 21
6892.0504219528
 31
0.0
  0
ENDSEC
  0
EOF
