  0
SECTION
  2
HEADER
  9
$ACADVER
  1
AC1009
  9
$DWGCODEPAGE
  3
ansi_1252
  9
$INSBASE
 10
0.0
 20
0.0
 30
0.0
  9
$EXTMIN
 10
1.000000000000000E+20
 20
1.000000000000000E+20
 30
1.000000000000000E+20
  9
$EXTMAX
 10
-1.000000000000000E+20
 20
-1.000000000000000E+20
 30
-1.000000000000000E+20
  9
$LIMMIN
 10
0.0
 20
0.0
  9
$LIMMAX
 10
12.0
 20
9.0
  9
$ORTHOMODE
 70
     1
  9
$REGENMODE
 70
     1
  9
$FILLMODE
 70
     1
  9
$QTEXTMODE
 70
     0
  9
$MIRRTEXT
 70
     0
  9
$DRAGMODE
 70
     2
  9
$LTSCALE
 40
1.0
  9
$OSMODE
 70
  1023
  9
$ATTMODE
 70
     1
  9
$TEXTSIZE
 40
0.2
  9
$TRACEWID
 40
0.05
  9
$TEXTSTYLE
  7
STANDARD
  9
$CLAYER
  8
0
  9
$CELTYPE
  6
BYLAYER
  9
$CECOLOR
 62
   256
  9
$DIMSCALE
 40
1.0
  9
$DIMASZ
 40
0.18
  9
$DIMEXO
 40
0.0625
  9
$DIMDLI
 40
0.38
  9
$DIMRND
 40
0.0
  9
$DIMDLE
 40
0.0
  9
$DIMEXE
 40
0.18
  9
$DIMTP
 40
0.0
  9
$DIMTM
 40
0.0
  9
$DIMTXT
 40
0.18
  9
$DIMCEN
 40
0.09
  9
$DIMTSZ
 40
0.0
  9
$DIMTOL
 70
     0
  9
$DIMLIM
 70
     0
  9
$DIMTIH
 70
     1
  9
$DIMTOH
 70
     1
  9
$DIMSE1
 70
     0
  9
$DIMSE2
 70
     0
  9
$DIMTAD
 70
     0
  9
$DIMZIN
 70
     0
  9
$DIMBLK
  1

  9
$DIMASO
 70
     1
  9
$DIMSHO
 70
     1
  9
$DIMPOST
  1

  9
$DIMAPOST
  1

  9
$DIMALT
 70
     0
  9
$DIMALTD
 70
     2
  9
$DIMALTF
 40
25.4
  9
$DIMLFAC
 40
1.0
  9
$DIMTOFL
 70
     0
  9
$DIMTVP
 40
0.0
  9
$DIMTIX
 70
     0
  9
$DIMSOXD
 70
     0
  9
$DIMSAH
 70
     0
  9
$DIMBLK1
  1

  9
$DIMBLK2
  1

  9
$DIMSTYLE
  2
STANDARD
  9
$DIMCLRD
 70
     0
  9
$DIMCLRE
 70
     0
  9
$DIMCLRT
 70
     0
  9
$DIMTFAC
 40
1.0
  9
$DIMGAP
 40
0.09
  9
$LUNITS
 70
     2
  9
$LUPREC
 70
     4
  9
$SKETCHINC
 40
0.1
  9
$FILLETRAD
 40
0.0
  9
$AUNITS
 70
     0
  9
$AUPREC
 70
     0
  9
$MENU
  1
.
  9
$ELEVATION
 40
0.0
  9
$PELEVATION
 40
0.0
  9
$THICKNESS
 40
0.0
  9
$LIMCHECK
 70
     0
  9
$CHAMFERA
 40
0.0
  9
$CHAMFERB
 40
0.0
  9
$SKPOLY
 70
     0
  9
$TDCREATE
 40
2455531.353550521
  9
$TDUPDATE
 40
2457709.301029086
  9
$TDINDWG
 40
0.0487874769
  9
$TDUSRTIMER
 40
2457709.258600393
  9
$USRTIMER
 70
     1
  9
$ANGBASE
 50
0.0
  9
$ANGDIR
 70
     0
  9
$PDMODE
 70
     0
  9
$PDSIZE
 40
0.0
  9
$PLINEWID
 40
0.0
  9
$COORDS
 70
     1
  9
$SPLFRAME
 70
     0
  9
$SPLINETYPE
 70
     6
  9
$SPLINESEGS
 70
     8
  9
$ATTDIA
 70
     0
  9
$ATTREQ
 70
     1
  9
$HANDLING
 70
     1
  9
$HANDSEED
  5
11D2
  9
$SURFTAB1
 70
     6
  9
$SURFTAB2
 70
     6
  9
$SURFTYPE
 70
     6
  9
$SURFU
 70
     6
  9
$SURFV
 70
     6
  9
$UCSNAME
  2

  9
$UCSORG
 10
0.0
 20
0.0
 30
0.0
  9
$UCSXDIR
 10
1.0
 20
0.0
 30
0.0
  9
$UCSYDIR
 10
0.0
 20
1.0
 30
0.0
  9
$PUCSNAME
  2

  9
$PUCSORG
 10
0.0
 20
0.0
 30
0.0
  9
$PUCSXDIR
 10
1.0
 20
0.0
 30
0.0
  9
$PUCSYDIR
 10
0.0
 20
1.0
 30
0.0
  9
$USERI1
 70
     0
  9
$USERI2
 70
     0
  9
$USERI3
 70
     0
  9
$USERI4
 70
     0
  9
$USERI5
 70
     0
  9
$USERR1
 40
0.0
  9
$USERR2
 40
0.0
  9
$USERR3
 40
0.0
  9
$USERR4
 40
0.0
  9
$USERR5
 40
0.0
  9
$WORLDVIEW
 70
     1
  9
$SHADEDGE
 70
     3
  9
$SHADEDIF
 70
    70
  9
$TILEMODE
 70
     1
  9
$MAXACTVP
 70
    64
  9
$PLIMCHECK
 70
     0
  9
$PEXTMIN
 10
0.0
 20
0.0
 30
0.0
  9
$PEXTMAX
 10
0.0
 20
0.0
 30
0.0
  9
$PLIMMIN
 10
0.0
 20
0.0
  9
$PLIMMAX
 10
0.0
 20
0.0
  9
$UNITMODE
 70
     0
  9
$VISRETAIN
 70
     1
  9
$PLINEGEN
 70
     0
  9
$PSLTSCALE
 70
     1
  0
ENDSEC
  0
SECTION
  2
TABLES
  0
TABLE
  2
VPORT
 70
     1
  0
VPORT
  2
*ACTIVE
 70
     0
 10
0.0
 20
0.0
 11
1.0
 21
1.0
 12
105.7994986948943
 22
1363.568632356341
 13
0.0
 23
0.0
 14
0.5
 24
0.5
 15
0.5
 25
0.5
 16
0.0
 26
0.0
 36
1.0
 17
0.0
 27
0.0
 37
0.0
 40
4787.145171367258
 41
2.646176911544228
 42
50.0
 43
0.0
 44
0.0
 50
0.0
 51
0.0
 71
    16
 72
  1000
 73
     1
 74
     3
 75
     0
 76
     0
 77
     0
 78
     0
  0
ENDTAB
  0
TABLE
  2
LTYPE
 70
     2
  0
LTYPE
  2
CONTINUOUS
 70
     0
  3
Solid line
 72
    65
 73
     0
 40
0.0
  0
LTYPE
  2
CENTERX2
 70
     0
  3
Center (2x) ________  __  ________  __  _____
 72
    65
 73
     4
 40
20.32
 49
12.7
 49
-2.54
 49
2.54
 49
-2.54
  0
ENDTAB
  0
TABLE
  2
LAYER
 70
     2
  0
LAYER
  2
0
 70
     0
 62
     7
  6
CONTINUOUS
  0
LAYER
  2
CONTORNO
 70
     0
 62
     7
  6
CONTINUOUS
  0
ENDTAB
  0
TABLE
  2
STYLE
 70
     3
  0
STYLE
  2
STANDARD
 70
     0
 40
0.0
 41
1.0
 50
0.0
 71
     0
 42
0.2
  3
txt.shx
  4

  0
STYLE
  2
ANNOTATIVE
 70
     0
 40
0.0
 41
1.0
 50
0.0
 71
     0
 42
0.2
  3
txt
  4

  0
STYLE
  2
ANNOTATIVA
 70
     0
 40
0.0
 41
1.0
 50
0.0
 71
     0
 42
0.2
  3
txt.shx
  4

  0
ENDTAB
  0
TABLE
  2
VIEW
 70
     0
  0
ENDTAB
  0
TABLE
  2
UCS
 70
     0
  0
ENDTAB
  0
TABLE
  2
APPID
 70
     7
  0
APPID
  2
ACAD
 70
     0
  0
APPID
  2
ACADANNOTATIVE
 70
     0
  0
APPID
  2
ACAD_MLEADERVER
 70
     0
  0
APPID
  2
ACADANNOPO
 70
     0
  0
APPID
  2
ACAD_DSTYLE_DIMJAG
 70
     0
  0
APPID
  2
ACAD_DSTYLE_DIMTALN
 70
     0
  0
APPID
  2
ACAD_EXEMPT_FROM_CAD_STAND
 70
     0
  0
ENDTAB
  0
TABLE
  2
DIMSTYLE
 70
     4
  0
DIMSTYLE
  2
STANDARD
 70
     0
  3

  4

  5

  6

  7

 40
1.0
 41
0.18
 42
0.0625
 43
0.38
 44
0.18
 45
0.0
 46
0.0
 47
0.0
 48
0.0
140
0.18
141
0.09
142
0.0
143
25.4
144
1.0
145
0.0
146
1.0
147
0.09
 71
     0
 72
     0
 73
     1
 74
     1
 75
     0
 76
     0
 77
     0
 78
     0
170
     0
171
     2
172
     0
173
     0
174
     0
175
     0
176
     0
177
     0
178
     0
  0
DIMSTYLE
  2
ANNOTATIVE
 70
     0
  3

  4

  5

  6

  7

 40
1.0
 41
0.18
 42
0.0625
 43
0.38
 44
0.18
 45
0.0
 46
0.0
 47
0.0
 48
0.0
140
0.18
141
0.09
142
0.0
143
25.4
144
1.0
145
0.0
146
1.0
147
0.09
 71
     0
 72
     0
 73
     1
 74
     1
 75
     0
 76
     0
 77
     0
 78
     0
170
     0
171
     2
172
     0
173
     0
174
     0
175
     0
176
     0
177
     0
178
     0
  0
DIMSTYLE
  2
ANNOTATIVA
 70
     0
  3

  4

  5

  6

  7

 40
0.0
 41
0.18
 42
0.0625
 43
0.38
 44
0.18
 45
0.0
 46
0.0
 47
0.0
 48
0.0
140
0.18
141
0.09
142
0.0
143
25.4
144
1.0
145
0.0
146
1.0
147
0.09
 71
     0
 72
     0
 73
     1
 74
     1
 75
     0
 76
     0
 77
     0
 78
     0
170
     0
171
     2
172
     0
173
     0
174
     0
175
     0
176
     0
177
     0
178
     0
  0
DIMSTYLE
  2
ISO-25
 70
     0
  3

  4

  5

  6

  7

 40
1.0
 41
2.5
 42
0.625
 43
3.75
 44
1.25
 45
0.0
 46
0.0
 47
0.0
 48
0.0
140
2.5
141
2.5
142
0.0
143
0.0393700787
144
1.0
145
0.0
146
1.0
147
0.625
 71
     0
 72
     0
 73
     0
 74
     0
 75
     0
 76
     0
 77
     1
 78
     8
170
     0
171
     3
172
     1
173
     0
174
     0
175
     0
176
     0
177
     0
178
     0
  0
ENDTAB
  0
ENDSEC
  0
SECTION
  2
BLOCKS
  0
BLOCK
  8
0
  2
$MODEL_SPACE
 70
     0
 10
0.0
 20
0.0
 30
0.0
  3
$MODEL_SPACE
  1

  0
ENDBLK
  5
106E
  8
0
  0
BLOCK
 67
     1
  8
0
  2
$PAPER_SPACE
 70
     0
 10
0.0
 20
0.0
 30
0.0
  3
$PAPER_SPACE
  1

  0
ENDBLK
  5
106A
 67
     1
  8
0
  0
ENDSEC
  0
SECTION
  2
ENTITIES
  0
LINE
  5
8D5
  8
0
 39
31.83440005694778
 10
2927.924883241015
 20
457.766299426835
 30
0.0
 11
2930.424883241044
 21
457.7662994268628
 31
0.0
  0
LINE
  5
8D6
  8
0
 39
31.83440005694778
 10
2878.424883241015
 20
457.766299426835
 30
0.0
 11
2880.924883241015
 21
457.766299426835
 31
0.0
  0
LINE
  5
8D7
  8
0
 39
31.83440005694778
 10
2880.924883241015
 20
454.7662994268343
 30
0.0
 11
2927.924883241015
 21
454.7662994268343
 31
0.0
  0
LINE
  5
8D8
  8
0
 39
31.83440005694778
 10
2930.424883241015
 20
432.7662994268042
 30
0.0
 11
2988.601914824432
 21
432.766299426835
 31
0.0
  0
LINE
  5
8D9
  8
0
 39
31.83440005694778
 10
2452.624883240986
 20
432.766299426835
 30
0.0
 11
2878.424883241015
 21
432.7662994268042
 31
0.0
  0
LINE
  5
8DA
  8
0
 39
31.83440005694778
 10
2400.624883240986
 20
457.766299426835
 30
0.0
 11
2400.624883241016
 21
432.7662994268638
 31
0.0
  0
LINE
  5
8DB
  8
0
 39
31.83440005694778
 10
1974.824883241015
 20
432.7662994268202
 30
0.0
 11
2400.624883241016
 21
432.7662994270093
 31
0.0
  0
LINE
  5
8DC
  8
0
 39
31.83440005694778
 10
2400.624883240986
 20
457.766299426835
 30
0.0
 11
2403.124883240986
 21
457.766299426835
 31
0.0
  0
LINE
  5
8DD
  8
0
 39
31.83440005694778
 10
2450.124883240987
 20
457.766299426835
 30
0.0
 11
2452.624883240986
 21
457.766299426835
 31
0.0
  0
LINE
  5
8DE
  8
0
 39
31.83440005694778
 10
2403.124883241015
 20
454.7662994268343
 30
0.0
 11
2450.124883241015
 21
454.7662994268343
 31
0.0
  0
LINE
  5
8DF
  8
0
 39
31.83440005694778
 10
493.4832110744607
 20
455.7662994268059
 30
0.0
 11
535.8386136096958
 21
455.7662994268342
 31
0.0
  0
LINE
  5
8E0
  8
0
 39
31.83440005694778
 10
535.8386136096958
 20
455.7662994268342
 30
0.0
 11
540.524144119117
 21
460.8285767032231
 31
0.0
  0
LINE
  5
8E1
  8
0
 39
31.83440005694778
 10
540.524144119117
 20
454.8340741548037
 30
0.0
 11
540.524144119117
 21
432.7662994268042
 31
0.0
  0
LINE
  5
8E2
  8
0
 39
31.83440005694778
 10
540.524144119117
 20
460.8285767032231
 30
0.0
 11
548.5168141836768
 21
457.8313254290136
 31
0.0
  0
LINE
  5
8E3
  8
0
 39
31.83440005694778
 10
548.5168141836768
 20
457.8313254290136
 30
0.0
 11
540.524144119117
 21
454.8340741548037
 31
0.0
  0
LINE
  5
8E4
  8
0
 39
31.83440005694778
 10
540.524144119117
 20
432.7662994268042
 30
0.0
 11
967.224883241015
 21
432.7662994267917
 31
0.0
  0
LINE
  5
8E5
  8
0
 39
31.83440005694778
 10
1019.224883241015
 20
432.7662994267917
 30
0.0
 11
1445.024883241013
 21
432.7662994267917
 31
0.0
  0
LINE
  5
8E6
  8
0
 39
31.83440005694778
 10
1922.824883241015
 20
457.7662994268491
 30
0.0
 11
1925.324883241015
 21
457.7662994268202
 31
0.0
  0
LINE
  5
8E7
  8
0
 39
31.83440005694778
 10
1972.324883241044
 20
457.7662994268202
 30
0.0
 11
1974.824883241044
 21
457.7662994268491
 31
0.0
  0
LINE
  5
8E8
  8
0
 39
31.83440005694778
 10
1925.324883241015
 20
454.7662994268491
 30
0.0
 11
1972.324883241016
 21
454.7662994268202
 31
0.0
  0
LINE
  5
8E9
  8
0
 39
31.83440005694778
 10
490.5241441191169
 20
1022.287811261152
 30
0.0
 11
493.5294546347288
 21
1032.893290870228
 31
0.0
  0
LINE
  5
8EA
  8
0
 39
31.83440005694778
 10
498.5241441191169
 20
1034.766299426863
 30
0.0
 11
493.5294546346697
 21
1032.893290870228
 31
0.0
  0
LINE
  5
8EB
  8
0
 39
31.83440005694778
 10
490.5241441191169
 20
1037.766299426863
 30
0.0
 11
498.5241441191169
 21
1034.766299426863
 31
0.0
  0
LINE
  5
8EC
  8
0
 39
31.83440005694778
 10
488.1403211928557
 20
1037.766299426863
 30
0.0
 11
490.5241441191169
 21
1037.766299426863
 31
0.0
  0
LINE
  5
8ED
  8
0
 39
31.83440005694778
 10
2980.601914824429
 20
457.7662994268628
 30
0.0
 11
2988.601914824432
 21
454.766299426864
 31
0.0
  0
LINE
  5
8EE
  8
0
 39
31.83440005694778
 10
2988.601914824432
 20
460.7662994268642
 30
0.0
 11
2980.601914824429
 21
457.7662994268628
 31
0.0
  0
LINE
  5
8F2
  8
0
 10
1974.824883241015
 20
432.7662994268202
 30
0.0
 11
1974.824883241044
 21
457.7662994268491
 31
0.0
  0
LINE
  5
8F3
  8
0
 10
1922.824883241015
 20
457.7662994268782
 30
0.0
 11
1922.824883241015
 21
432.7662994267917
 31
0.0
  0
LINE
  5
8F4
  8
0
 10
1925.324883241015
 20
457.7662994268202
 30
0.0
 11
1925.324883241015
 21
454.7662994268491
 31
0.0
  0
LINE
  5
8F5
  8
0
 10
1972.324883241016
 20
454.7662994268202
 30
0.0
 11
1972.324883241016
 21
457.7662994268202
 31
0.0
  0
LINE
  5
8F6
  8
0
 10
488.1403211928557
 20
1037.766299426863
 30
0.0
 11
488.1403211928557
 21
1032.766299426892
 31
0.0
  0
LINE
  5
8F7
  8
0
 10
2940.424883241014
 20
1057.766299426892
 30
0.0
 11
3091.424144119118
 21
1057.832889103026
 31
0.0
  0
LINE
  5
8F8
  8
0
 10
2940.424883241014
 20
1057.766299426892
 30
0.0
 11
2940.424883241014
 21
1037.702627578592
 31
0.0
  0
LINE
  5
8F9
  8
0
 10
2930.424883241015
 20
432.7662994268042
 30
0.0
 11
2930.424883241015
 21
457.766299426835
 31
0.0
  0
LINE
  5
8FA
  8
0
 10
2878.424883241015
 20
457.766299426806
 30
0.0
 11
2878.424883241015
 21
432.7662994268042
 31
0.0
  0
LINE
  5
8FB
  8
0
 10
2927.924883241015
 20
454.7662994268343
 30
0.0
 11
2927.924883241015
 21
457.7662994268628
 31
0.0
  0
LINE
  5
8FC
  8
0
 10
2880.924883241015
 20
457.766299426835
 30
0.0
 11
2880.924883241015
 21
454.7662994268059
 31
0.0
  0
LINE
  5
8FD
  8
0
 10
2452.624883240986
 20
432.766299426835
 30
0.0
 11
2452.624883240986
 21
457.766299426835
 31
0.0
  0
LINE
  5
8FE
  8
0
 10
2450.124883240987
 20
454.7662994268343
 30
0.0
 11
2450.124883240987
 21
457.766299426835
 31
0.0
  0
LINE
  5
8FF
  8
0
 10
2403.124883240986
 20
457.766299426835
 30
0.0
 11
2403.124883240986
 21
454.7662994268343
 31
0.0
  0
LINE
  5
900
  8
0
 10
2940.424883241014
 20
1031.829971275221
 30
0.0
 11
2940.424883241014
 21
960.7662994268918
 31
0.0
  0
LINE
  5
901
  8
0
 10
2930.637122735417
 20
1034.766299426892
 30
0.0
 11
2940.424883241045
 21
1031.829971275193
 31
0.0
  0
LINE
  5
902
  8
0
 10
2940.424883241045
 20
1037.702627578592
 30
0.0
 11
2930.637122735417
 21
1034.766299426892
 31
0.0
  0
CIRCLE
  5
904
  8
0
 10
2768.424144119118
 20
1816.40604872801
 30
0.0
 40
5.75
  0
LINE
  5
905
  8
0
 39
31.83440005694778
 10
490.4832110744314
 20
464.4309972550145
 30
0.0
 11
493.4832110744316
 21
455.7662994269225
 31
0.0
  0
LINE
  5
906
  8
0
 10
3017.424144119148
 20
960.7662994268918
 30
0.0
 11
3017.424144119148
 21
456.5813262907203
 31
0.0
  0
LINE
  5
907
  8
0
 10
490.5241441191169
 20
1022.287811261152
 30
0.0
 11
490.4832110744314
 21
464.4309972550145
 31
0.0
  0
LINE
  5
908
  8
0
 10
2988.601914824432
 20
432.766299426835
 30
0.0
 11
2988.601914824432
 21
454.766299426864
 31
0.0
  0
LINE
  5
909
  8
0
 10
3017.424144119148
 20
456.5813262907203
 30
0.0
 11
2991.60191482443
 21
456.5813262907203
 31
0.0
  0
LINE
  5
90A
  8
0
 10
2988.601914824432
 20
460.7662994268642
 30
0.0
 11
2991.60191482443
 21
460.7662994268642
 31
0.0
  0
LINE
  5
90B
  8
0
 10
2991.60191482443
 20
460.7662994268642
 30
0.0
 11
2991.60191482443
 21
456.5813262907203
 31
0.0
  0
LINE
  5
90C
  8
0
 39
31.83440005694778
 10
1445.024883241013
 20
457.7662994268491
 30
0.0
 11
1447.524883241013
 21
457.7662994268202
 31
0.0
  0
LINE
  5
90D
  8
0
 39
31.83440005694778
 10
1494.524883241044
 20
457.7662994268202
 30
0.0
 11
1497.024883241044
 21
457.7662994268491
 31
0.0
  0
LINE
  5
90E
  8
0
 39
31.83440005694778
 10
1447.524883241013
 20
454.7662994268491
 30
0.0
 11
1494.524883241014
 21
454.7662994268202
 31
0.0
  0
LINE
  5
90F
  8
0
 10
1497.024883241014
 20
432.7662994268202
 30
0.0
 11
1497.024883241044
 21
457.7662994268491
 31
0.0
  0
LINE
  5
910
  8
0
 10
1445.024883241013
 20
457.7662994268782
 30
0.0
 11
1445.024883241013
 21
432.7662994267917
 31
0.0
  0
LINE
  5
911
  8
0
 10
1447.524883241013
 20
457.7662994268202
 30
0.0
 11
1447.524883241013
 21
454.7662994268491
 31
0.0
  0
LINE
  5
912
  8
0
 10
1494.524883241014
 20
454.7662994268202
 30
0.0
 11
1494.524883241014
 21
457.7662994268202
 31
0.0
  0
LINE
  5
913
  8
0
 39
31.83440005694778
 10
1497.024883241014
 20
432.7662994268202
 30
0.0
 11
1922.824883241015
 21
432.7662994267917
 31
0.0
  0
LINE
  5
914
  8
0
 39
31.83440005694778
 10
967.224883241015
 20
457.7662994268491
 30
0.0
 11
969.724883241015
 21
457.7662994268202
 31
0.0
  0
LINE
  5
915
  8
0
 39
31.83440005694778
 10
1016.724883241044
 20
457.7662994268202
 30
0.0
 11
1019.224883241045
 21
457.7662994268491
 31
0.0
  0
LINE
  5
916
  8
0
 39
31.83440005694778
 10
969.724883241015
 20
454.7662994268491
 30
0.0
 11
1016.724883241015
 21
454.7662994268202
 31
0.0
  0
LINE
  5
917
  8
0
 10
1019.224883241015
 20
432.7662994268202
 30
0.0
 11
1019.224883241045
 21
457.7662994268491
 31
0.0
  0
LINE
  5
918
  8
0
 10
967.224883241015
 20
457.7662994268782
 30
0.0
 11
967.224883241015
 21
432.7662994267917
 31
0.0
  0
LINE
  5
919
  8
0
 10
969.724883241015
 20
457.7662994268202
 30
0.0
 11
969.724883241015
 21
454.7662994268491
 31
0.0
  0
LINE
  5
91A
  8
0
 10
1016.724883241015
 20
454.7662994268202
 30
0.0
 11
1016.724883241015
 21
457.7662994268202
 31
0.0
  0
ARC
  5
91B
  8
0
 10
2762.69250961538
 20
1780.865250116898
 30
0.0
 40
5.75
 50
80.83883510887631
 51
260.8388351088764
  0
ARC
  5
91C
  8
0
 10
2774.155778622857
 20
1780.865250116898
 30
0.0
 40
5.75
 50
279.1611648911237
 51
99.16116489112368
  0
ARC
  5
91D
  8
0
 10
2768.424144119118
 20
1816.40604872801
 30
0.0
 40
30.25000000000009
 50
260.8388351088764
 51
279.1611648911237
  0
ARC
  5
91E
  8
0
 10
2768.424144119118
 20
1816.40604872801
 30
0.0
 40
41.74999999999999
 50
260.8388351088764
 51
279.1611648911237
  0
LINE
  5
91F
  8
0
 10
100.5036775967746
 20
1929.475930246933
 30
0.0
 11
100.5036775967746
 21
1902.086716311764
 31
0.0
  0
LINE
  5
920
  8
0
 10
3091.424144119118
 20
1929.475930246933
 30
0.0
 11
100.5036775967746
 21
1929.475930246933
 31
0.0
  0
CIRCLE
  5
921
  8
0
 10
180.1265780032552
 20
1571.381124164396
 30
0.0
 40
7.5
  0
CIRCLE
  5
922
  8
0
 39
31.83440005694778
 10
183.469630434607
 20
1639.991115188885
 30
0.0
 40
3.25
  0
CIRCLE
  5
923
  8
0
 39
31.83440005694778
 10
160.9542918303269
 20
1639.991115188885
 30
0.0
 40
3.25
  0
CIRCLE
  5
924
  8
0
 39
31.83440005694778
 10
140.6734102001428
 20
1708.582772631638
 30
0.0
 40
3.25
  0
CIRCLE
  5
925
  8
0
 39
31.83440005694778
 10
118.1580715958625
 20
1708.582772631638
 30
0.0
 40
3.25
  0
CIRCLE
  5
926
  8
0
 39
31.83440005694778
 10
200.0816611003828
 20
1471.047911471619
 30
0.0
 40
3.25
  0
CIRCLE
  5
927
  8
0
 39
31.83440005694778
 10
177.5663224961026
 20
1471.047911471619
 30
0.0
 40
3.25
  0
CIRCLE
  5
928
  8
0
 39
31.83440005694778
 10
200.0816611003828
 20
1104.111294314708
 30
0.0
 40
3.25
  0
CIRCLE
  5
929
  8
0
 39
31.83440005694778
 10
177.5663224961026
 20
1104.111294314708
 30
0.0
 40
3.25
  0
CIRCLE
  5
92A
  8
0
 39
31.83440005694778
 10
200.0816611003828
 20
1266.728586478236
 30
0.0
 40
3.25
  0
CIRCLE
  5
92B
  8
0
 39
31.83440005694778
 10
177.5663224961026
 20
1266.728586478236
 30
0.0
 40
3.25
  0
CIRCLE
  5
92C
  8
0
 39
31.83440005694778
 10
140.6734102001428
 20
1815.490393600095
 30
0.0
 40
3.25
  0
CIRCLE
  5
92D
  8
0
 39
31.83440005694778
 10
118.1580715958625
 20
1815.490393600095
 30
0.0
 40
3.25
  0
CIRCLE
  5
92E
  8
0
 39
31.83440005694778
 10
2965.670266765318
 20
1918.475930246932
 30
0.0
 40
3.0
  0
CIRCLE
  5
92F
  8
0
 39
31.83440005694778
 10
2663.053195918823
 20
1918.621008047064
 30
0.0
 40
3.0
  0
CIRCLE
  5
930
  8
0
 39
31.83440005694778
 10
2288.053195918823
 20
1918.621008047064
 30
0.0
 40
3.0
  0
CIRCLE
  5
931
  8
0
 39
31.83440005694778
 10
1913.053195918821
 20
1918.621008047064
 30
0.0
 40
3.0
  0
CIRCLE
  5
932
  8
0
 39
31.83440005694778
 10
447.7703276074023
 20
1918.621008047064
 30
0.0
 40
3.0
  0
CIRCLE
  5
933
  8
0
 39
31.83440005694778
 10
163.0531959188229
 20
1918.621008047064
 30
0.0
 40
3.0
  0
CIRCLE
  5
934
  8
0
 39
31.83440005694778
 10
1538.053195918823
 20
1918.621008047064
 30
0.0
 40
3.0
  0
CIRCLE
  5
935
  8
0
 39
31.83440005694778
 10
1163.053195918823
 20
1918.621008047064
 30
0.0
 40
3.0
  0
CIRCLE
  5
936
  8
0
 39
31.83440005694778
 10
788.0531959188222
 20
1918.621008047064
 30
0.0
 40
3.0
  0
LINE
  5
937
  8
0
 10
100.5036775967746
 20
1459.001564677363
 30
0.0
 11
110.5036775967743
 21
1456.001564677362
 31
0.0
  0
LINE
  5
938
  8
0
 10
110.5036775967743
 20
1456.001564677362
 30
0.0
 11
100.5036775967746
 21
1453.001564677363
 31
0.0
  0
LINE
  5
939
  8
0
 10
100.5036775967746
 20
1409.195195003462
 30
0.0
 11
110.5036775967743
 21
1406.195195003463
 31
0.0
  0
LINE
  5
93A
  8
0
 10
110.5036775967743
 20
1406.195195003463
 30
0.0
 11
100.5036775967746
 21
1403.195195003462
 31
0.0
  0
LINE
  5
93B
  8
0
 10
100.5036775967746
 20
1340.631466016662
 30
0.0
 11
110.5036775967743
 21
1337.631466016663
 31
0.0
  0
LINE
  5
93C
  8
0
 10
110.5036775967743
 20
1337.631466016663
 30
0.0
 11
100.5036775967746
 21
1334.631466016662
 31
0.0
  0
LINE
  5
93D
  8
0
 10
100.5036775967746
 20
1290.825096342664
 30
0.0
 11
110.5036775967743
 21
1287.825096342662
 31
0.0
  0
LINE
  5
93E
  8
0
 10
110.5036775967743
 20
1287.825096342662
 30
0.0
 11
100.5036775967746
 21
1284.825096342662
 31
0.0
  0
LINE
  5
93F
  8
0
 10
100.5036775967746
 20
1902.086716311764
 30
0.0
 11
110.5036775967743
 21
1899.086716311764
 31
0.0
  0
LINE
  5
940
  8
0
 10
110.5036775967743
 20
1899.086716311764
 30
0.0
 11
100.5036775967746
 21
1896.086716311764
 31
0.0
  0
LINE
  5
941
  8
0
 10
100.5036775967746
 20
1861.018132841161
 30
0.0
 11
110.5036775967743
 21
1858.018132841162
 31
0.0
  0
LINE
  5
942
  8
0
 10
110.5036775967743
 20
1858.018132841162
 30
0.0
 11
100.5036775967746
 21
1855.018132841163
 31
0.0
  0
LINE
  5
943
  8
0
 10
100.5036775967746
 20
1685.004955481864
 30
0.0
 11
110.5036775967743
 21
1682.004955481864
 31
0.0
  0
LINE
  5
944
  8
0
 10
110.5036775967743
 20
1682.004955481864
 30
0.0
 11
100.5036775967746
 21
1679.004955481864
 31
0.0
  0
LINE
  5
945
  8
0
 10
3091.424144119118
 20
1902.270189576542
 30
0.0
 11
3080.812566569856
 21
1899.086716311764
 31
0.0
  0
LINE
  5
946
  8
0
 10
3080.812566569856
 20
1899.086716311764
 30
0.0
 11
3091.424144119118
 21
1895.903243046986
 31
0.0
  0
LINE
  5
947
  8
0
 10
3091.424144119118
 20
1458.856486877235
 30
0.0
 11
3081.424144119115
 21
1455.856486877235
 31
0.0
  0
LINE
  5
948
  8
0
 10
3081.424144119115
 20
1455.856486877235
 30
0.0
 11
3091.424144119118
 21
1452.856486877234
 31
0.0
  0
LINE
  5
949
  8
0
 10
3091.424144119118
 20
1409.050117203333
 30
0.0
 11
3081.424144119115
 21
1406.050117203334
 31
0.0
  0
LINE
  5
94A
  8
0
 10
3081.424144119115
 20
1406.050117203334
 30
0.0
 11
3091.424144119118
 21
1403.050117203332
 31
0.0
  0
LINE
  5
94B
  8
0
 10
3091.424144119118
 20
1340.486388216534
 30
0.0
 11
3081.424144119115
 21
1337.486388216534
 31
0.0
  0
LINE
  5
94C
  8
0
 10
3081.424144119115
 20
1337.486388216534
 30
0.0
 11
3091.424144119118
 21
1334.486388216534
 31
0.0
  0
LINE
  5
94D
  8
0
 10
3091.424144119118
 20
1290.680018542535
 30
0.0
 11
3081.424144119115
 21
1287.680018542532
 31
0.0
  0
LINE
  5
94E
  8
0
 10
3081.424144119115
 20
1287.680018542532
 30
0.0
 11
3091.424144119118
 21
1284.680018542534
 31
0.0
  0
LINE
  5
94F
  8
0
 10
3091.424144119118
 20
1684.859877681734
 30
0.0
 11
3081.424144119115
 21
1681.859877681734
 31
0.0
  0
LINE
  5
950
  8
0
 10
3081.424144119115
 20
1681.859877681734
 30
0.0
 11
3091.424144119118
 21
1678.859877681734
 31
0.0
  0
LINE
  5
951
  8
0
 10
100.5036775967746
 20
1284.825096342662
 30
0.0
 11
100.5036775967742
 21
1032.766299426892
 31
0.0
  0
LINE
  5
952
  8
0
 10
100.5036775967746
 20
1334.631466016662
 30
0.0
 11
100.5036775967746
 21
1290.825096342664
 31
0.0
  0
LINE
  5
953
  8
0
 10
100.5036775967746
 20
1403.195195003462
 30
0.0
 11
100.5036775967746
 21
1340.631466016662
 31
0.0
  0
LINE
  5
954
  8
0
 10
100.5036775967746
 20
1453.001564677363
 30
0.0
 11
100.5036775967746
 21
1409.195195003462
 31
0.0
  0
LINE
  5
955
  8
0
 10
100.5036775967746
 20
1679.00495548186
 30
0.0
 11
100.5036775967746
 21
1459.001564677363
 31
0.0
  0
LINE
  5
956
  8
0
 10
100.5036775967746
 20
1855.018132841163
 30
0.0
 11
100.5036775967746
 21
1685.004955481864
 31
0.0
  0
LINE
  5
957
  8
0
 10
100.5036775967746
 20
1896.086716311764
 30
0.0
 11
100.5036775967746
 21
1861.018132841161
 31
0.0
  0
LINE
  5
958
  8
0
 10
3091.424144119118
 20
1861.92105275762
 30
0.0
 11
3078.41441106425
 21
1858.018132841162
 31
0.0
  0
LINE
  5
959
  8
0
 10
3078.41441106425
 20
1858.018132841162
 30
0.0
 11
3091.424144119118
 21
1854.115212924704
 31
0.0
  0
LINE
  5
95A
  8
0
 10
3091.424144119118
 20
1458.856486877235
 30
0.0
 11
3091.424144119118
 21
1678.859877681732
 31
0.0
  0
LINE
  5
95B
  8
0
 10
3091.424144119118
 20
1409.050117203333
 30
0.0
 11
3091.424144119118
 21
1452.856486877234
 31
0.0
  0
LINE
  5
95C
  8
0
 10
3091.424144119118
 20
1340.486388216534
 30
0.0
 11
3091.424144119118
 21
1403.050117203332
 31
0.0
  0
LINE
  5
95D
  8
0
 10
3091.424144119118
 20
1290.680018542535
 30
0.0
 11
3091.424144119118
 21
1334.486388216534
 31
0.0
  0
LINE
  5
95E
  8
0
 10
3091.424144119118
 20
1057.832889103026
 30
0.0
 11
3091.424144119118
 21
1284.680018542534
 31
0.0
  0
LINE
  5
95F
  8
0
 10
3091.424144119118
 20
1684.859877681734
 30
0.0
 11
3091.424144119118
 21
1709.859877681735
 31
0.0
  0
LINE
  5
960
  8
0
 10
488.1403211928557
 20
1032.766299426892
 30
0.0
 11
100.5036775967742
 21
1032.766299426892
 31
0.0
  0
LINE
  5
961
  8
0
 10
3091.424144119118
 20
1861.92105275762
 30
0.0
 11
3091.424144119118
 21
1895.903243046986
 31
0.0
  0
LINE
  5
962
  8
0
 10
3091.424144119118
 20
1902.270189576542
 30
0.0
 11
3091.424144119118
 21
1929.475930246933
 31
0.0
  0
LINE
  5
963
  8
0
 10
3091.424144119118
 20
1709.859877681735
 30
0.0
 11
3076.424144119117
 21
1709.859877681735
 31
0.0
  0
LINE
  5
964
  8
0
 10
3091.424144119118
 20
1739.859877681734
 30
0.0
 11
3076.424144119117
 21
1739.859877681734
 31
0.0
  0
LINE
  5
965
  8
0
 10
3076.424144119118
 20
1709.859877681735
 30
0.0
 11
3076.424144119118
 21
1739.859877681734
 31
0.0
  0
LINE
  5
966
  8
0
 10
3091.424144119118
 20
1739.859877681734
 30
0.0
 11
3091.424144119118
 21
1854.115212924704
 31
0.0
  0
ARC
  5
FC6
  8
0
 10
310.5036775967747
 20
1880.805906578973
 30
0.0
 40
5.75
 50
0.0
 51
180.0
  0
ARC
  5
FC7
  8
0
 10
120.5036775967746
 20
1880.805906578973
 30
0.0
 40
5.75
 50
0.0
 51
180.0
  0
ARC
  5
FC8
  8
0
 10
120.5036775967746
 20
1876.298942573952
 30
0.0
 40
5.75
 50
180.0
 51
0.0
  0
ARC
  5
FC9
  8
0
 10
310.5036775967747
 20
1876.298942573952
 30
0.0
 40
5.75
 50
180.0
 51
0.0
  0
LINE
  5
FCA
  8
0
 10
114.7536775967746
 20
1880.805906578973
 30
0.0
 11
114.7536775967746
 21
1876.298942573952
 31
0.0
  0
LINE
  5
FCB
  8
0
 10
126.2536775967746
 20
1880.805906578973
 30
0.0
 11
126.2536775967746
 21
1876.298942573952
 31
0.0
  0
LINE
  5
FCC
  8
0
 10
304.7536775967746
 20
1880.805906578973
 30
0.0
 11
304.7536775967746
 21
1876.298942573952
 31
0.0
  0
LINE
  5
FCD
  8
0
 10
316.2536775967748
 20
1880.805906578973
 30
0.0
 11
316.2536775967748
 21
1876.298942573952
 31
0.0
  0
ARC
  5
1087
  8
0
 10
3066.424144119118
 20
1880.805906578973
 30
0.0
 40
5.75
 50
0.0
 51
180.0
  0
ARC
  5
1088
  8
0
 10
2876.424144119118
 20
1880.805906578973
 30
0.0
 40
5.75
 50
0.0
 51
180.0
  0
ARC
  5
1089
  8
0
 10
2876.424144119118
 20
1876.298942573952
 30
0.0
 40
5.75
 50
180.0
 51
0.0
  0
ARC
  5
108A
  8
0
 10
3066.424144119118
 20
1876.298942573952
 30
0.0
 40
5.75
 50
180.0
 51
0.0
  0
LINE
  5
108B
  8
0
 10
2870.674144119118
 20
1880.805906578973
 30
0.0
 11
2870.674144119118
 21
1876.298942573952
 31
0.0
  0
LINE
  5
108C
  8
0
 10
2882.174144119118
 20
1880.805906578973
 30
0.0
 11
2882.174144119118
 21
1876.298942573952
 31
0.0
  0
LINE
  5
108D
  8
0
 10
3060.674144119118
 20
1880.805906578973
 30
0.0
 11
3060.674144119118
 21
1876.298942573952
 31
0.0
  0
LINE
  5
108E
  8
0
 10
3072.174144119118
 20
1880.805906578973
 30
0.0
 11
3072.174144119118
 21
1876.298942573952
 31
0.0
  0
LINE
  5
117D
  8
0
 10
2940.424883241014
 20
960.7662994268918
 30
0.0
 11
3017.424144119148
 21
960.7662994268918
 31
0.0
  0
ENDSEC
  0
EOF
