  0
SECTION
  2
HEADER
  9
$ACADVER
  1
AC1009
  9
$DWGCODEPAGE
  3
ansi_1252
  9
$INSBASE
 10
0.0
 20
0.0
 30
0.0
  9
$EXTMIN
 10
305.0997188867454
 20
-1703.306246716243
 30
0.0
  9
$EXTMAX
 10
3606.020185409089
 20
-206.5966158960975
 30
31.83440005694778
  9
$LIMMIN
 10
0.0
 20
0.0
  9
$LIMMAX
 10
12.0
 20
9.0
  9
$ORTHOMODE
 70
     1
  9
$REGENMODE
 70
     1
  9
$FILLMODE
 70
     1
  9
$QTEXTMODE
 70
     0
  9
$MIRRTEXT
 70
     0
  9
$DRAGMODE
 70
     2
  9
$LTSCALE
 40
1.0
  9
$OSMODE
 70
   695
  9
$ATTMODE
 70
     1
  9
$TEXTSIZE
 40
0.2
  9
$TRACEWID
 40
0.05
  9
$TEXTSTYLE
  7
STANDARD
  9
$CLAYER
  8
0
  9
$CELTYPE
  6
BYLAYER
  9
$CECOLOR
 62
   256
  9
$DIMSCALE
 40
1.0
  9
$DIMASZ
 40
0.18
  9
$DIMEXO
 40
0.0625
  9
$DIMDLI
 40
0.38
  9
$DIMRND
 40
0.0
  9
$DIMDLE
 40
0.0
  9
$DIMEXE
 40
0.18
  9
$DIMTP
 40
0.0
  9
$DIMTM
 40
0.0
  9
$DIMTXT
 40
0.18
  9
$DIMCEN
 40
0.09
  9
$DIMTSZ
 40
0.0
  9
$DIMTOL
 70
     0
  9
$DIMLIM
 70
     0
  9
$DIMTIH
 70
     1
  9
$DIMTOH
 70
     1
  9
$DIMSE1
 70
     0
  9
$DIMSE2
 70
     0
  9
$DIMTAD
 70
     0
  9
$DIMZIN
 70
     0
  9
$DIMBLK
  1

  9
$DIMASO
 70
     1
  9
$DIMSHO
 70
     1
  9
$DIMPOST
  1

  9
$DIMAPOST
  1

  9
$DIMALT
 70
     0
  9
$DIMALTD
 70
     2
  9
$DIMALTF
 40
25.4
  9
$DIMLFAC
 40
1.0
  9
$DIMTOFL
 70
     0
  9
$DIMTVP
 40
0.0
  9
$DIMTIX
 70
     0
  9
$DIMSOXD
 70
     0
  9
$DIMSAH
 70
     0
  9
$DIMBLK1
  1

  9
$DIMBLK2
  1

  9
$DIMSTYLE
  2
STANDARD
  9
$DIMCLRD
 70
     0
  9
$DIMCLRE
 70
     0
  9
$DIMCLRT
 70
     0
  9
$DIMTFAC
 40
1.0
  9
$DIMGAP
 40
0.09
  9
$LUNITS
 70
     2
  9
$LUPREC
 70
     4
  9
$SKETCHINC
 40
0.1
  9
$FILLETRAD
 40
0.0
  9
$AUNITS
 70
     0
  9
$AUPREC
 70
     0
  9
$MENU
  1
.
  9
$ELEVATION
 40
0.0
  9
$PELEVATION
 40
0.0
  9
$THICKNESS
 40
0.0
  9
$LIMCHECK
 70
     0
  9
$CHAMFERA
 40
0.0
  9
$CHAMFERB
 40
0.0
  9
$SKPOLY
 70
     0
  9
$TDCREATE
 40
2455651.651648218
  9
$TDUPDATE
 40
2459129.273554676
  9
$TDINDWG
 40
0.0245689468
  9
$TDUSRTIMER
 40
0.0004039005
  9
$USRTIMER
 70
     1
  9
$ANGBASE
 50
0.0
  9
$ANGDIR
 70
     0
  9
$PDMODE
 70
     0
  9
$PDSIZE
 40
0.0
  9
$PLINEWID
 40
0.0
  9
$COORDS
 70
     1
  9
$SPLFRAME
 70
     0
  9
$SPLINETYPE
 70
     6
  9
$SPLINESEGS
 70
     8
  9
$ATTDIA
 70
     0
  9
$ATTREQ
 70
     1
  9
$HANDLING
 70
     1
  9
$HANDSEED
  5
A75
  9
$SURFTAB1
 70
     6
  9
$SURFTAB2
 70
     6
  9
$SURFTYPE
 70
     6
  9
$SURFU
 70
     6
  9
$SURFV
 70
     6
  9
$UCSNAME
  2

  9
$UCSORG
 10
0.0
 20
0.0
 30
0.0
  9
$UCSXDIR
 10
1.0
 20
0.0
 30
0.0
  9
$UCSYDIR
 10
0.0
 20
1.0
 30
0.0
  9
$PUCSNAME
  2

  9
$PUCSORG
 10
0.0
 20
0.0
 30
0.0
  9
$PUCSXDIR
 10
1.0
 20
0.0
 30
0.0
  9
$PUCSYDIR
 10
0.0
 20
1.0
 30
0.0
  9
$USERI1
 70
     0
  9
$USERI2
 70
     0
  9
$USERI3
 70
     0
  9
$USERI4
 70
     0
  9
$USERI5
 70
     0
  9
$USERR1
 40
0.0
  9
$USERR2
 40
0.0
  9
$USERR3
 40
0.0
  9
$USERR4
 40
0.0
  9
$USERR5
 40
0.0
  9
$WORLDVIEW
 70
     1
  9
$SHADEDGE
 70
     3
  9
$SHADEDIF
 70
    70
  9
$TILEMODE
 70
     1
  9
$MAXACTVP
 70
    64
  9
$PLIMCHECK
 70
     0
  9
$PEXTMIN
 10
0.0
 20
0.0
 30
0.0
  9
$PEXTMAX
 10
0.0
 20
0.0
 30
0.0
  9
$PLIMMIN
 10
0.0
 20
0.0
  9
$PLIMMAX
 10
0.0
 20
0.0
  9
$UNITMODE
 70
     0
  9
$VISRETAIN
 70
     1
  9
$PLINEGEN
 70
     0
  9
$PSLTSCALE
 70
     1
  0
ENDSEC
  0
SECTION
  2
TABLES
  0
TABLE
  2
VPORT
 70
     1
  0
VPORT
  2
*ACTIVE
 70
     0
 10
0.0
 20
0.0
 11
1.0
 21
1.0
 12
3464.086001197311
 22
-1210.086093734307
 13
0.0
 23
0.0
 14
0.5
 24
0.5
 15
0.5
 25
0.5
 16
0.0
 26
0.0
 36
1.0
 17
0.0
 27
0.0
 37
0.0
 40
1455.246881572274
 41
2.287157287157287
 42
50.0
 43
0.0
 44
0.0
 50
0.0
 51
0.0
 71
    16
 72
  1000
 73
     1
 74
     3
 75
     0
 76
     0
 77
     0
 78
     0
  0
ENDTAB
  0
TABLE
  2
LTYPE
 70
     1
  0
LTYPE
  2
CONTINUOUS
 70
     0
  3
Solid line
 72
    65
 73
     0
 40
0.0
  0
ENDTAB
  0
TABLE
  2
LAYER
 70
     2
  0
LAYER
  2
0
 70
     0
 62
     7
  6
CONTINUOUS
  0
LAYER
  2
MANOVELLA
 70
     0
 62
     8
  6
CONTINUOUS
  0
ENDTAB
  0
TABLE
  2
STYLE
 70
     3
  0
STYLE
  2
STANDARD
 70
     0
 40
0.0
 41
1.0
 50
0.0
 71
     0
 42
0.2
  3
txt.shx
  4

  0
STYLE
  2
ANNOTATIVE
 70
     0
 40
0.0
 41
1.0
 50
0.0
 71
     0
 42
0.2
  3
txt
  4

  0
STYLE
  2
ANNOTATIVA
 70
     0
 40
0.0
 41
1.0
 50
0.0
 71
     0
 42
0.2
  3
txt.shx
  4

  0
ENDTAB
  0
TABLE
  2
VIEW
 70
     0
  0
ENDTAB
  0
TABLE
  2
UCS
 70
     0
  0
ENDTAB
  0
TABLE
  2
APPID
 70
     8
  0
APPID
  2
ACAD
 70
     0
  0
APPID
  2
ACADANNOTATIVE
 70
     0
  0
APPID
  2
ACAD_MLEADERVER
 70
     0
  0
APPID
  2
ACADANNOPO
 70
     0
  0
APPID
  2
ACAD_DSTYLE_DIMJAG
 70
     0
  0
APPID
  2
ACAD_DSTYLE_DIMTALN
 70
     0
  0
APPID
  2
ACAECLAYERSTANDARD
 70
     0
  0
APPID
  2
ACAD_EXEMPT_FROM_CAD_STAND
 70
     0
  0
ENDTAB
  0
TABLE
  2
DIMSTYLE
 70
     4
  0
DIMSTYLE
  2
STANDARD
 70
     0
  3

  4

  5

  6

  7

 40
1.0
 41
0.18
 42
0.0625
 43
0.38
 44
0.18
 45
0.0
 46
0.0
 47
0.0
 48
0.0
140
0.18
141
0.09
142
0.0
143
25.4
144
1.0
145
0.0
146
1.0
147
0.09
 71
     0
 72
     0
 73
     1
 74
     1
 75
     0
 76
     0
 77
     0
 78
     0
170
     0
171
     2
172
     0
173
     0
174
     0
175
     0
176
     0
177
     0
178
     0
  0
DIMSTYLE
  2
ANNOTATIVE
 70
     0
  3

  4

  5

  6

  7

 40
1.0
 41
0.18
 42
0.0625
 43
0.38
 44
0.18
 45
0.0
 46
0.0
 47
0.0
 48
0.0
140
0.18
141
0.09
142
0.0
143
25.4
144
1.0
145
0.0
146
1.0
147
0.09
 71
     0
 72
     0
 73
     1
 74
     1
 75
     0
 76
     0
 77
     0
 78
     0
170
     0
171
     2
172
     0
173
     0
174
     0
175
     0
176
     0
177
     0
178
     0
  0
DIMSTYLE
  2
ANNOTATIVA
 70
     0
  3

  4

  5

  6

  7

 40
0.0
 41
0.18
 42
0.0625
 43
0.38
 44
0.18
 45
0.0
 46
0.0
 47
0.0
 48
0.0
140
0.18
141
0.09
142
0.0
143
25.4
144
1.0
145
0.0
146
1.0
147
0.09
 71
     0
 72
     0
 73
     1
 74
     1
 75
     0
 76
     0
 77
     0
 78
     0
170
     0
171
     2
172
     0
173
     0
174
     0
175
     0
176
     0
177
     0
178
     0
  0
DIMSTYLE
  2
ISO-25
 70
     0
  3

  4

  5

  6

  7

 40
1.0
 41
2.5
 42
0.625
 43
3.75
 44
1.25
 45
0.0
 46
0.0
 47
0.0
 48
0.0
140
2.5
141
2.5
142
0.0
143
0.0393700787
144
1.0
145
0.0
146
1.0
147
0.625
 71
     0
 72
     0
 73
     0
 74
     0
 75
     0
 76
     0
 77
     1
 78
     8
170
     0
171
     3
172
     1
173
     0
174
     0
175
     0
176
     0
177
     0
178
     0
  0
ENDTAB
  0
ENDSEC
  0
SECTION
  2
BLOCKS
  0
BLOCK
  8
0
  2
$MODEL_SPACE
 70
     0
 10
0.0
 20
0.0
 30
0.0
  3
$MODEL_SPACE
  1

  0
ENDBLK
  5
745
  8
0
  0
BLOCK
 67
     1
  8
0
  2
$PAPER_SPACE
 70
     0
 10
0.0
 20
0.0
 30
0.0
  3
$PAPER_SPACE
  1

  0
ENDBLK
  5
741
 67
     1
  8
0
  0
ENDSEC
  0
SECTION
  2
ENTITIES
  0
LINE
  5
8F2
  8
0
 39
31.83440005694778
 10
3442.520924530986
 20
-1678.306246716196
 30
0.0
 11
3445.020924531015
 21
-1678.306246716168
 31
0.0
  0
LINE
  5
8F3
  8
0
 39
31.83440005694778
 10
3393.020924530986
 20
-1678.306246716196
 30
0.0
 11
3395.520924530986
 21
-1678.306246716196
 31
0.0
  0
LINE
  5
8F4
  8
0
 39
31.83440005694778
 10
3395.520924530986
 20
-1681.306246716196
 30
0.0
 11
3442.520924530986
 21
-1681.306246716196
 31
0.0
  0
LINE
  5
8F5
  8
0
 39
31.83440005694778
 10
3445.020924530986
 20
-1703.306246716226
 30
0.0
 11
3503.197956114403
 21
-1703.306246716196
 31
0.0
  0
LINE
  5
8F6
  8
0
 39
31.83440005694778
 10
2994.40695363202
 20
-1703.306246716199
 30
0.0
 11
3393.020924530986
 21
-1703.306246716226
 31
0.0
  0
LINE
  5
8F7
  8
0
 39
31.83440005694778
 10
2942.40695363202
 20
-1678.306246716199
 30
0.0
 11
2942.40695363205
 21
-1703.30624671617
 31
0.0
  0
LINE
  5
8F8
  8
0
 39
31.83440005694778
 10
2544.576953632049
 20
-1703.306246716214
 30
0.0
 11
2942.40695363205
 21
-1703.306246716025
 31
0.0
  0
LINE
  5
8F9
  8
0
 39
31.83440005694778
 10
2942.40695363202
 20
-1678.306246716199
 30
0.0
 11
2944.90695363202
 21
-1678.306246716199
 31
0.0
  0
LINE
  5
8FA
  8
0
 39
31.83440005694778
 10
2991.906953632021
 20
-1678.306246716199
 30
0.0
 11
2994.40695363202
 21
-1678.306246716199
 31
0.0
  0
LINE
  5
8FB
  8
0
 39
31.83440005694778
 10
2944.906953632049
 20
-1681.3062467162
 30
0.0
 11
2991.906953632049
 21
-1681.3062467162
 31
0.0
  0
LINE
  5
8FC
  8
0
 39
31.83440005694778
 10
698.079252364432
 20
-1680.306246716225
 30
0.0
 11
740.4346548996671
 21
-1680.306246716196
 31
0.0
  0
LINE
  5
8FD
  8
0
 39
31.83440005694778
 10
740.4346548996671
 20
-1680.306246716196
 30
0.0
 11
745.1201854090882
 21
-1675.243969439808
 31
0.0
  0
LINE
  5
8FE
  8
0
 39
31.83440005694778
 10
745.1201854090882
 20
-1681.238471988227
 30
0.0
 11
745.1201854090882
 21
-1703.306246716226
 31
0.0
  0
LINE
  5
8FF
  8
0
 39
31.83440005694778
 10
745.1201854090882
 20
-1675.243969439808
 30
0.0
 11
753.1128554736481
 21
-1678.241220714017
 31
0.0
  0
LINE
  5
900
  8
0
 39
31.83440005694778
 10
753.1128554736481
 20
-1678.241220714017
 30
0.0
 11
745.1201854090882
 21
-1681.238471988227
 31
0.0
  0
LINE
  5
901
  8
0
 39
31.83440005694778
 10
745.1201854090882
 20
-1703.306246716226
 30
0.0
 11
1143.086953632049
 21
-1703.306246716234
 31
0.0
  0
LINE
  5
902
  8
0
 39
31.83440005694778
 10
1644.916953632049
 20
-1703.306246716243
 30
0.0
 11
2042.746953632049
 21
-1703.306246716243
 31
0.0
  0
LINE
  5
903
  8
0
 39
31.83440005694778
 10
2492.576953632049
 20
-1678.306246716185
 30
0.0
 11
2495.076953632049
 21
-1678.306246716214
 31
0.0
  0
LINE
  5
904
  8
0
 39
31.83440005694778
 10
2542.076953632078
 20
-1678.306246716214
 30
0.0
 11
2544.576953632078
 21
-1678.306246716185
 31
0.0
  0
LINE
  5
905
  8
0
 39
31.83440005694778
 10
2495.076953632049
 20
-1681.306246716185
 30
0.0
 11
2542.07695363205
 21
-1681.306246716214
 31
0.0
  0
LINE
  5
906
  8
0
 39
31.83440005694778
 10
695.1201854090882
 20
-1113.784734881879
 30
0.0
 11
698.1254959247001
 21
-1103.179255272803
 31
0.0
  0
LINE
  5
907
  8
0
 39
31.83440005694778
 10
703.1201854090882
 20
-1101.306246716168
 30
0.0
 11
698.125495924641
 21
-1103.179255272803
 31
0.0
  0
LINE
  5
908
  8
0
 39
31.83440005694778
 10
695.1201854090882
 20
-1098.306246716168
 30
0.0
 11
703.1201854090882
 21
-1101.306246716168
 31
0.0
  0
LINE
  5
909
  8
0
 39
31.83440005694778
 10
692.736362482827
 20
-1098.306246716168
 30
0.0
 11
695.1201854090882
 21
-1098.306246716168
 31
0.0
  0
LINE
  5
90A
  8
0
 39
31.83440005694778
 10
3495.1979561144
 20
-1678.306246716168
 30
0.0
 11
3503.197956114403
 21
-1681.306246716167
 31
0.0
  0
LINE
  5
90B
  8
0
 39
31.83440005694778
 10
3503.197956114403
 20
-1675.306246716166
 30
0.0
 11
3495.1979561144
 21
-1678.306246716168
 31
0.0
  0
LINE
  5
90C
  8
0
 39
31.83440005694778
 10
3529.700820483068
 20
-1679.49121985231
 30
0.0
 11
3532.020185409119
 21
-1673.306246716168
 31
0.0
  0
LINE
  5
90F
  8
0
 10
2544.576953632049
 20
-1703.306246716214
 30
0.0
 11
2544.576953632078
 21
-1678.306246716185
 31
0.0
  0
LINE
  5
910
  8
0
 10
2492.576953632049
 20
-1678.306246716156
 30
0.0
 11
2492.576953632049
 21
-1703.306246716243
 31
0.0
  0
LINE
  5
911
  8
0
 10
2495.076953632049
 20
-1678.306246716214
 30
0.0
 11
2495.076953632049
 21
-1681.306246716185
 31
0.0
  0
LINE
  5
912
  8
0
 10
2542.07695363205
 20
-1681.306246716214
 30
0.0
 11
2542.07695363205
 21
-1678.306246716214
 31
0.0
  0
LINE
  5
913
  8
0
 10
692.736362482827
 20
-1098.306246716168
 30
0.0
 11
692.736362482827
 21
-1103.306246716139
 31
0.0
  0
LINE
  5
914
  8
0
 10
3455.020924530985
 20
-1078.306246716139
 30
0.0
 11
3606.020185409089
 21
-1078.239657040005
 31
0.0
  0
LINE
  5
915
  8
0
 10
3455.020924530985
 20
-1078.306246716139
 30
0.0
 11
3455.020924530985
 21
-1098.369918564439
 31
0.0
  0
LINE
  5
916
  8
0
 10
3445.020924530986
 20
-1703.306246716226
 30
0.0
 11
3445.020924530986
 21
-1678.306246716196
 31
0.0
  0
LINE
  5
917
  8
0
 10
3393.020924530986
 20
-1678.306246716225
 30
0.0
 11
3393.020924530986
 21
-1703.306246716226
 31
0.0
  0
LINE
  5
918
  8
0
 10
3442.520924530986
 20
-1681.306246716196
 30
0.0
 11
3442.520924530986
 21
-1678.306246716168
 31
0.0
  0
LINE
  5
919
  8
0
 10
3395.520924530986
 20
-1678.306246716196
 30
0.0
 11
3395.520924530986
 21
-1681.306246716225
 31
0.0
  0
LINE
  5
91A
  8
0
 10
2994.40695363202
 20
-1703.306246716199
 30
0.0
 11
2994.40695363202
 21
-1678.306246716199
 31
0.0
  0
LINE
  5
91B
  8
0
 10
2991.906953632021
 20
-1681.3062467162
 30
0.0
 11
2991.906953632021
 21
-1678.306246716199
 31
0.0
  0
LINE
  5
91C
  8
0
 10
2944.90695363202
 20
-1678.306246716199
 30
0.0
 11
2944.90695363202
 21
-1681.3062467162
 31
0.0
  0
LINE
  5
91D
  8
0
 10
3455.020924530985
 20
-1104.24257486781
 30
0.0
 11
3455.020924530985
 21
-1175.306246716139
 31
0.0
  0
LINE
  5
91E
  8
0
 10
3445.233164025388
 20
-1101.306246716139
 30
0.0
 11
3455.020924531016
 21
-1104.242574867838
 31
0.0
  0
LINE
  5
91F
  8
0
 10
3455.020924531016
 20
-1098.369918564439
 30
0.0
 11
3445.233164025388
 21
-1101.306246716139
 31
0.0
  0
LINE
  5
920
  8
0
 10
3529.700820483068
 20
-1679.49121985231
 30
0.0
 11
3527.863943934126
 21
-1679.49121985231
 31
0.0
  0
CIRCLE
  5
921
  8
0
 10
3283.020185409089
 20
-319.6664974150206
 30
0.0
 40
5.75
  0
LINE
  5
922
  8
0
 39
31.83440005694778
 10
695.0792523644027
 20
-1671.641548888016
 30
0.0
 11
698.0792523644029
 21
-1680.306246716108
 31
0.0
  0
LINE
  5
923
  8
0
 10
3532.020185409119
 20
-1175.306246716139
 30
0.0
 11
3532.020185409119
 21
-1673.306246716168
 31
0.0
  0
LINE
  5
924
  8
0
 10
695.1201854090882
 20
-1113.784734881879
 30
0.0
 11
695.0792523644027
 21
-1671.641548888016
 31
0.0
  0
LINE
  5
925
  8
0
 10
3503.197956114403
 20
-1703.306246716196
 30
0.0
 11
3503.197956114403
 21
-1681.306246716167
 31
0.0
  0
LINE
  5
926
  8
0
 10
3527.863943934126
 20
-1679.49121985231
 30
0.0
 11
3506.197956114401
 21
-1679.49121985231
 31
0.0
  0
LINE
  5
927
  8
0
 10
3503.197956114403
 20
-1675.306246716166
 30
0.0
 11
3506.197956114401
 21
-1675.306246716166
 31
0.0
  0
LINE
  5
928
  8
0
 10
3506.197956114401
 20
-1675.306246716166
 30
0.0
 11
3506.197956114401
 21
-1679.49121985231
 31
0.0
  0
LINE
  5
929
  8
0
 39
31.83440005694778
 10
2042.746953632049
 20
-1678.306246716185
 30
0.0
 11
2045.246953632049
 21
-1678.306246716214
 31
0.0
  0
LINE
  5
92A
  8
0
 39
31.83440005694778
 10
2092.24695363208
 20
-1678.306246716214
 30
0.0
 11
2094.74695363208
 21
-1678.306246716185
 31
0.0
  0
LINE
  5
92B
  8
0
 39
31.83440005694778
 10
2045.246953632049
 20
-1681.306246716185
 30
0.0
 11
2092.24695363205
 21
-1681.306246716214
 31
0.0
  0
LINE
  5
92C
  8
0
 10
2094.74695363205
 20
-1703.306246716214
 30
0.0
 11
2094.74695363208
 21
-1678.306246716185
 31
0.0
  0
LINE
  5
92D
  8
0
 10
2042.746953632049
 20
-1678.306246716156
 30
0.0
 11
2042.746953632049
 21
-1703.306246716243
 31
0.0
  0
LINE
  5
92E
  8
0
 10
2045.246953632049
 20
-1678.306246716214
 30
0.0
 11
2045.246953632049
 21
-1681.306246716185
 31
0.0
  0
LINE
  5
92F
  8
0
 10
2092.24695363205
 20
-1681.306246716214
 30
0.0
 11
2092.24695363205
 21
-1678.306246716214
 31
0.0
  0
LINE
  5
930
  8
0
 39
31.83440005694778
 10
2094.74695363205
 20
-1703.306246716214
 30
0.0
 11
2492.576953632049
 21
-1703.306246716243
 31
0.0
  0
LINE
  5
931
  8
0
 39
31.83440005694778
 10
1592.916953632049
 20
-1678.306246716185
 30
0.0
 11
1595.416953632049
 21
-1678.306246716214
 31
0.0
  0
LINE
  5
932
  8
0
 39
31.83440005694778
 10
1642.416953632079
 20
-1678.306246716214
 30
0.0
 11
1644.916953632079
 21
-1678.306246716185
 31
0.0
  0
LINE
  5
933
  8
0
 39
31.83440005694778
 10
1595.416953632049
 20
-1681.306246716185
 30
0.0
 11
1642.416953632049
 21
-1681.306246716214
 31
0.0
  0
LINE
  5
934
  8
0
 10
1644.916953632049
 20
-1703.306246716214
 30
0.0
 11
1644.916953632079
 21
-1678.306246716185
 31
0.0
  0
LINE
  5
935
  8
0
 10
1592.916953632049
 20
-1678.306246716156
 30
0.0
 11
1592.916953632049
 21
-1703.306246716243
 31
0.0
  0
LINE
  5
936
  8
0
 10
1595.416953632049
 20
-1678.306246716214
 30
0.0
 11
1595.416953632049
 21
-1681.306246716185
 31
0.0
  0
LINE
  5
937
  8
0
 10
1642.416953632049
 20
-1681.306246716214
 30
0.0
 11
1642.416953632049
 21
-1678.306246716214
 31
0.0
  0
ARC
  5
938
  8
0
 10
3277.288550905351
 20
-355.2072960261326
 30
0.0
 40
5.75
 50
80.83883510887519
 51
260.8388351088752
  0
ARC
  5
939
  8
0
 10
3288.751819912828
 20
-355.2072960261326
 30
0.0
 40
5.75
 50
279.1611648911248
 51
99.16116489112481
  0
ARC
  5
93A
  8
0
 10
3283.020185409089
 20
-319.6664974150206
 30
0.0
 40
30.25000000000009
 50
260.8388351088765
 51
279.1611648911234
  0
ARC
  5
93B
  8
0
 10
3283.020185409089
 20
-319.6664974150206
 30
0.0
 40
41.74999999999999
 50
260.8388351088761
 51
279.1611648911238
  0
LINE
  5
93C
  8
0
 10
305.0997188867459
 20
-206.5966158960975
 30
0.0
 11
305.0997188867459
 21
-233.9858298312668
 31
0.0
  0
LINE
  5
93D
  8
0
 10
3606.020185409089
 20
-206.5966158960975
 30
0.0
 11
305.0997188867459
 21
-206.5966158960975
 31
0.0
  0
CIRCLE
  5
93E
  8
0
 10
384.7226192932264
 20
-564.6914219786347
 30
0.0
 40
7.5
  0
CIRCLE
  5
93F
  8
0
 39
31.83440005694778
 10
388.0656717245782
 20
-496.0814309541456
 30
0.0
 40
3.25
  0
CIRCLE
  5
940
  8
0
 39
31.83440005694778
 10
365.5503331202981
 20
-496.0814309541456
 30
0.0
 40
3.25
  0
CIRCLE
  5
941
  8
0
 39
31.83440005694778
 10
345.2694514901141
 20
-427.4897735113927
 30
0.0
 40
3.25
  0
CIRCLE
  5
942
  8
0
 39
31.83440005694778
 10
322.7541128858337
 20
-427.4897735113927
 30
0.0
 40
3.25
  0
CIRCLE
  5
943
  8
0
 39
31.83440005694778
 10
404.6777023903541
 20
-665.0246346714116
 30
0.0
 40
3.25
  0
CIRCLE
  5
944
  8
0
 39
31.83440005694778
 10
382.1623637860739
 20
-665.0246346714116
 30
0.0
 40
3.25
  0
CIRCLE
  5
945
  8
0
 39
31.83440005694778
 10
404.6777023903541
 20
-1031.961251828323
 30
0.0
 40
3.25
  0
CIRCLE
  5
946
  8
0
 39
31.83440005694778
 10
382.1623637860739
 20
-1031.961251828323
 30
0.0
 40
3.25
  0
CIRCLE
  5
947
  8
0
 39
31.83440005694778
 10
404.6777023903541
 20
-869.3439596647947
 30
0.0
 40
3.25
  0
CIRCLE
  5
948
  8
0
 39
31.83440005694778
 10
382.1623637860739
 20
-869.3439596647947
 30
0.0
 40
3.25
  0
CIRCLE
  5
949
  8
0
 39
31.83440005694778
 10
345.2694514901141
 20
-320.5821525429355
 30
0.0
 40
3.25
  0
CIRCLE
  5
94A
  8
0
 39
31.83440005694778
 10
322.7541128858337
 20
-320.5821525429355
 30
0.0
 40
3.25
  0
CIRCLE
  5
94B
  8
0
 39
31.83440005694778
 10
3480.266308055289
 20
-217.5966158960987
 30
0.0
 40
3.0
  0
CIRCLE
  5
950
  8
0
 39
31.83440005694778
 10
367.6492372087941
 20
-217.4515380959667
 30
0.0
 40
3.0
  0
LINE
  5
954
  8
0
 10
305.0997188867459
 20
-677.0709814656677
 30
0.0
 11
315.0997188867456
 21
-680.0709814656686
 31
0.0
  0
LINE
  5
955
  8
0
 10
315.0997188867456
 20
-680.0709814656686
 30
0.0
 11
305.0997188867459
 21
-683.0709814656677
 31
0.0
  0
LINE
  5
956
  8
0
 10
305.0997188867459
 20
-726.8773511395686
 30
0.0
 11
315.0997188867456
 21
-729.8773511395677
 31
0.0
  0
LINE
  5
957
  8
0
 10
315.0997188867456
 20
-729.8773511395677
 30
0.0
 11
305.0997188867459
 21
-732.8773511395686
 31
0.0
  0
LINE
  5
958
  8
0
 10
305.0997188867459
 20
-795.4410801263687
 30
0.0
 11
315.0997188867456
 21
-798.4410801263678
 31
0.0
  0
LINE
  5
959
  8
0
 10
315.0997188867456
 20
-798.4410801263678
 30
0.0
 11
305.0997188867459
 21
-801.4410801263687
 31
0.0
  0
LINE
  5
95A
  8
0
 10
305.0997188867459
 20
-845.2474498003667
 30
0.0
 11
315.0997188867456
 21
-848.2474498003687
 31
0.0
  0
LINE
  5
95B
  8
0
 10
315.0997188867456
 20
-848.2474498003687
 30
0.0
 11
305.0997188867459
 21
-851.2474498003687
 31
0.0
  0
LINE
  5
95C
  8
0
 10
305.0997188867459
 20
-233.9858298312668
 30
0.0
 11
315.0997188867456
 21
-236.9858298312668
 31
0.0
  0
LINE
  5
95D
  8
0
 10
315.0997188867456
 20
-236.9858298312668
 30
0.0
 11
305.0997188867459
 21
-239.9858298312668
 31
0.0
  0
LINE
  5
95E
  8
0
 10
305.0997188867459
 20
-275.0544133018695
 30
0.0
 11
315.0997188867456
 21
-278.0544133018686
 31
0.0
  0
LINE
  5
95F
  8
0
 10
315.0997188867456
 20
-278.0544133018686
 30
0.0
 11
305.0997188867459
 21
-281.0544133018677
 31
0.0
  0
LINE
  5
960
  8
0
 10
305.0997188867459
 20
-451.0675906611666
 30
0.0
 11
315.0997188867456
 21
-454.0675906611666
 31
0.0
  0
LINE
  5
961
  8
0
 10
315.0997188867456
 20
-454.0675906611666
 30
0.0
 11
305.0997188867459
 21
-457.0675906611666
 31
0.0
  0
LINE
  5
962
  8
0
 10
3606.020185409089
 20
-233.8023565664887
 30
0.0
 11
3595.408607859827
 21
-236.9858298312668
 31
0.0
  0
LINE
  5
963
  8
0
 10
3595.408607859827
 20
-236.9858298312668
 30
0.0
 11
3606.020185409089
 21
-240.1693030960446
 31
0.0
  0
LINE
  5
964
  8
0
 10
3606.020185409089
 20
-677.2160592657956
 30
0.0
 11
3596.020185409086
 21
-680.2160592657956
 31
0.0
  0
LINE
  5
965
  8
0
 10
3596.020185409086
 20
-680.2160592657956
 30
0.0
 11
3606.020185409089
 21
-683.2160592657967
 31
0.0
  0
LINE
  5
966
  8
0
 10
3606.020185409089
 20
-727.0224289396976
 30
0.0
 11
3596.020185409086
 21
-730.0224289396967
 31
0.0
  0
LINE
  5
967
  8
0
 10
3596.020185409086
 20
-730.0224289396967
 30
0.0
 11
3606.020185409089
 21
-733.0224289396986
 31
0.0
  0
LINE
  5
968
  8
0
 10
3606.020185409089
 20
-795.5861579264968
 30
0.0
 11
3596.020185409086
 21
-798.5861579264968
 31
0.0
  0
LINE
  5
969
  8
0
 10
3596.020185409086
 20
-798.5861579264968
 30
0.0
 11
3606.020185409089
 21
-801.5861579264968
 31
0.0
  0
LINE
  5
96A
  8
0
 10
3606.020185409089
 20
-845.3925276004957
 30
0.0
 11
3596.020185409086
 21
-848.3925276004986
 31
0.0
  0
LINE
  5
96B
  8
0
 10
3596.020185409086
 20
-848.3925276004986
 30
0.0
 11
3606.020185409089
 21
-851.3925276004966
 31
0.0
  0
LINE
  5
96C
  8
0
 10
3606.020185409089
 20
-451.2126684612967
 30
0.0
 11
3596.020185409086
 21
-454.2126684612967
 31
0.0
  0
LINE
  5
96D
  8
0
 10
3596.020185409086
 20
-454.2126684612967
 30
0.0
 11
3606.020185409089
 21
-457.2126684612967
 31
0.0
  0
LINE
  5
96E
  8
0
 10
305.0997188867459
 20
-851.2474498003687
 30
0.0
 11
305.0997188867454
 21
-1103.306246716139
 31
0.0
  0
LINE
  5
96F
  8
0
 10
305.0997188867459
 20
-801.4410801263687
 30
0.0
 11
305.0997188867459
 21
-845.2474498003667
 31
0.0
  0
LINE
  5
970
  8
0
 10
305.0997188867459
 20
-732.8773511395686
 30
0.0
 11
305.0997188867459
 21
-795.4410801263687
 31
0.0
  0
LINE
  5
971
  8
0
 10
305.0997188867459
 20
-683.0709814656677
 30
0.0
 11
305.0997188867459
 21
-726.8773511395686
 31
0.0
  0
LINE
  5
972
  8
0
 10
305.0997188867459
 20
-457.0675906611707
 30
0.0
 11
305.0997188867459
 21
-677.0709814656677
 31
0.0
  0
LINE
  5
973
  8
0
 10
305.0997188867459
 20
-281.0544133018677
 30
0.0
 11
305.0997188867459
 21
-451.0675906611666
 31
0.0
  0
LINE
  5
974
  8
0
 10
305.0997188867459
 20
-239.9858298312668
 30
0.0
 11
305.0997188867459
 21
-275.0544133018695
 31
0.0
  0
LINE
  5
975
  8
0
 10
3606.020185409089
 20
-274.1514933854107
 30
0.0
 11
3593.010452354221
 21
-278.0544133018686
 31
0.0
  0
LINE
  5
976
  8
0
 10
3593.010452354221
 20
-278.0544133018686
 30
0.0
 11
3606.020185409089
 21
-281.9573332183265
 31
0.0
  0
LINE
  5
977
  8
0
 10
3606.020185409089
 20
-677.2160592657956
 30
0.0
 11
3606.020185409089
 21
-457.2126684612986
 31
0.0
  0
LINE
  5
978
  8
0
 10
3606.020185409089
 20
-727.0224289396976
 30
0.0
 11
3606.020185409089
 21
-683.2160592657967
 31
0.0
  0
LINE
  5
979
  8
0
 10
3606.020185409089
 20
-795.5861579264968
 30
0.0
 11
3606.020185409089
 21
-733.0224289396986
 31
0.0
  0
LINE
  5
97A
  8
0
 10
3606.020185409089
 20
-845.3925276004957
 30
0.0
 11
3606.020185409089
 21
-801.5861579264968
 31
0.0
  0
LINE
  5
97B
  8
0
 10
3606.020185409089
 20
-1078.239657040005
 30
0.0
 11
3606.020185409089
 21
-851.3925276004966
 31
0.0
  0
LINE
  5
97C
  8
0
 10
3606.020185409089
 20
-451.2126684612967
 30
0.0
 11
3606.020185409089
 21
-426.2126684612956
 31
0.0
  0
LINE
  5
97D
  8
0
 10
692.736362482827
 20
-1103.306246716139
 30
0.0
 11
305.0997188867454
 21
-1103.306246716139
 31
0.0
  0
LINE
  5
97E
  8
0
 10
3606.020185409089
 20
-274.1514933854107
 30
0.0
 11
3606.020185409089
 21
-240.1693030960446
 31
0.0
  0
LINE
  5
97F
  8
0
 10
3606.020185409089
 20
-233.8023565664887
 30
0.0
 11
3606.020185409089
 21
-206.5966158960975
 31
0.0
  0
LINE
  5
980
  8
0
 10
3606.020185409089
 20
-426.2126684612956
 30
0.0
 11
3591.020185409088
 21
-426.2126684612956
 31
0.0
  0
LINE
  5
981
  8
0
 10
3606.020185409089
 20
-396.2126684612967
 30
0.0
 11
3591.020185409088
 21
-396.2126684612967
 31
0.0
  0
LINE
  5
982
  8
0
 10
3591.020185409089
 20
-426.2126684612956
 30
0.0
 11
3591.020185409089
 21
-396.2126684612967
 31
0.0
  0
LINE
  5
983
  8
0
 10
3606.020185409089
 20
-396.2126684612967
 30
0.0
 11
3606.020185409089
 21
-281.9573332183265
 31
0.0
  0
ARC
  5
984
  8
0
 10
515.0997188867459
 20
-255.2666395640576
 30
0.0
 40
5.75
 50
0.0
 51
180.0
  0
ARC
  5
985
  8
0
 10
325.0997188867459
 20
-255.2666395640576
 30
0.0
 40
5.75
 50
0.0
 51
180.0
  0
ARC
  5
986
  8
0
 10
325.0997188867459
 20
-259.7736035690787
 30
0.0
 40
5.75
 50
180.0
 51
0.0
  0
ARC
  5
987
  8
0
 10
515.0997188867459
 20
-259.7736035690787
 30
0.0
 40
5.75
 50
180.0
 51
0.0
  0
LINE
  5
988
  8
0
 10
319.3497188867459
 20
-255.2666395640576
 30
0.0
 11
319.3497188867459
 21
-259.7736035690787
 31
0.0
  0
LINE
  5
989
  8
0
 10
330.8497188867459
 20
-255.2666395640576
 30
0.0
 11
330.8497188867459
 21
-259.7736035690787
 31
0.0
  0
LINE
  5
98A
  8
0
 10
509.3497188867459
 20
-255.2666395640576
 30
0.0
 11
509.3497188867459
 21
-259.7736035690787
 31
0.0
  0
LINE
  5
98B
  8
0
 10
520.8497188867461
 20
-255.2666395640576
 30
0.0
 11
520.8497188867461
 21
-259.7736035690787
 31
0.0
  0
ARC
  5
98C
  8
0
 10
3581.020185409089
 20
-255.2666395640576
 30
0.0
 40
5.75
 50
0.0
 51
180.0
  0
ARC
  5
98D
  8
0
 10
3391.020185409089
 20
-255.2666395640576
 30
0.0
 40
5.75
 50
0.0
 51
180.0
  0
ARC
  5
98E
  8
0
 10
3391.020185409089
 20
-259.7736035690787
 30
0.0
 40
5.75
 50
180.0
 51
0.0
  0
ARC
  5
98F
  8
0
 10
3581.020185409089
 20
-259.7736035690787
 30
0.0
 40
5.75
 50
180.0
 51
0.0
  0
LINE
  5
990
  8
0
 10
3385.270185409089
 20
-255.2666395640576
 30
0.0
 11
3385.270185409089
 21
-259.7736035690787
 31
0.0
  0
LINE
  5
991
  8
0
 10
3396.770185409089
 20
-255.2666395640576
 30
0.0
 11
3396.770185409089
 21
-259.7736035690787
 31
0.0
  0
LINE
  5
992
  8
0
 10
3575.270185409089
 20
-255.2666395640576
 30
0.0
 11
3575.270185409089
 21
-259.7736035690787
 31
0.0
  0
LINE
  5
993
  8
0
 10
3586.770185409089
 20
-255.2666395640576
 30
0.0
 11
3586.770185409089
 21
-259.7736035690787
 31
0.0
  0
CIRCLE
  5
9AC
  8
0
 39
31.83440005694778
 10
712.6492372087941
 20
-217.4515380959667
 30
0.0
 40
3.0
  0
CIRCLE
  5
9AD
  8
0
 39
31.83440005694778
 10
1057.649237208794
 20
-217.4515380959667
 30
0.0
 40
3.0
  0
CIRCLE
  5
9AE
  8
0
 39
31.83440005694778
 10
1402.649237208794
 20
-217.4515380959667
 30
0.0
 40
3.0
  0
CIRCLE
  5
9AF
  8
0
 39
31.83440005694778
 10
1747.649237208794
 20
-217.4515380959667
 30
0.0
 40
3.0
  0
CIRCLE
  5
9B0
  8
0
 39
31.83440005694778
 10
2092.649237208794
 20
-217.4515380959667
 30
0.0
 40
3.0
  0
CIRCLE
  5
9B1
  8
0
 39
31.83440005694778
 10
2437.649237208794
 20
-217.4515380959667
 30
0.0
 40
3.0
  0
CIRCLE
  5
9B2
  8
0
 39
31.83440005694778
 10
2782.649237208794
 20
-217.4515380959667
 30
0.0
 40
3.0
  0
CIRCLE
  5
9B3
  8
0
 39
31.83440005694778
 10
3127.649237208794
 20
-217.4515380959667
 30
0.0
 40
3.0
  0
LINE
  5
9B4
  8
0
 39
31.83440005694778
 10
1143.086953632049
 20
-1678.306246716185
 30
0.0
 11
1145.586953632049
 21
-1678.306246716214
 31
0.0
  0
LINE
  5
9B5
  8
0
 39
31.83440005694778
 10
1192.586953632079
 20
-1678.306246716214
 30
0.0
 11
1195.086953632079
 21
-1678.306246716185
 31
0.0
  0
LINE
  5
9B6
  8
0
 39
31.83440005694778
 10
1145.586953632049
 20
-1681.306246716185
 30
0.0
 11
1192.586953632049
 21
-1681.306246716214
 31
0.0
  0
LINE
  5
9B7
  8
0
 10
1195.086953632049
 20
-1703.306246716214
 30
0.0
 11
1195.086953632079
 21
-1678.306246716185
 31
0.0
  0
LINE
  5
9B8
  8
0
 10
1143.086953632049
 20
-1678.306246716156
 30
0.0
 11
1143.086953632049
 21
-1703.306246716243
 31
0.0
  0
LINE
  5
9B9
  8
0
 10
1145.586953632049
 20
-1678.306246716214
 30
0.0
 11
1145.586953632049
 21
-1681.306246716185
 31
0.0
  0
LINE
  5
9BA
  8
0
 10
1192.586953632049
 20
-1681.306246716214
 30
0.0
 11
1192.586953632049
 21
-1678.306246716214
 31
0.0
  0
LINE
  5
9C4
  8
0
 39
31.83440005694778
 10
1195.086953632049
 20
-1703.306246716235
 30
0.0
 11
1592.916953632049
 21
-1703.306246716243
 31
0.0
  0
LINE
  5
A74
  8
0
 10
3455.020924530985
 20
-1175.306246716139
 30
0.0
 11
3532.020185409119
 21
-1175.306246716139
 31
0.0
  0
ENDSEC
  0
EOF
