  0
SECTION
  2
HEADER
  9
$ACADVER
  1
AC1009
  9
$DWGCODEPAGE
  3
ansi_1252
  9
$INSBASE
 10
0.0
 20
0.0
 30
0.0
  9
$EXTMIN
 10
-6654.842840058
 20
-1714.5315518525
 30
0.0
  9
$EXTMAX
 10
-5317.4892186583
 20
-111.2702964404
 30
0.0
  9
$LIMMIN
 10
0.0
 20
0.0
  9
$LIMMAX
 10
420.0
 20
297.0
  9
$ORTHOMODE
 70
     0
  9
$REGENMODE
 70
     1
  9
$FILLMODE
 70
     1
  9
$QTEXTMODE
 70
     0
  9
$MIRRTEXT
 70
     1
  9
$DRAGMODE
 70
     2
  9
$LTSCALE
 40
1.0
  9
$OSMODE
 70
  1023
  9
$ATTMODE
 70
     1
  9
$TEXTSIZE
 40
3.5
  9
$TRACEWID
 40
1.0
  9
$TEXTSTYLE
  7
STANDARD
  9
$CLAYER
  8
0
  9
$CELTYPE
  6
BYLAYER
  9
$CECOLOR
 62
   256
  9
$DIMSCALE
 40
1.0
  9
$DIMASZ
 40
6.0
  9
$DIMEXO
 40
1.0
  9
$DIMDLI
 40
3.75
  9
$DIMRND
 40
0.0
  9
$DIMDLE
 40
0.0
  9
$DIMEXE
 40
1.0
  9
$DIMTP
 40
0.0
  9
$DIMTM
 40
0.0
  9
$DIMTXT
 40
3.5
  9
$DIMCEN
 40
2.5
  9
$DIMTSZ
 40
0.0
  9
$DIMTOL
 70
     0
  9
$DIMLIM
 70
     0
  9
$DIMTIH
 70
     1
  9
$DIMTOH
 70
     1
  9
$DIMSE1
 70
     0
  9
$DIMSE2
 70
     0
  9
$DIMTAD
 70
     1
  9
$DIMZIN
 70
     0
  9
$DIMBLK
  1

  9
$DIMASO
 70
     1
  9
$DIMSHO
 70
     1
  9
$DIMPOST
  1

  9
$DIMAPOST
  1

  9
$DIMALT
 70
     0
  9
$DIMALTD
 70
     3
  9
$DIMALTF
 40
0.0393700787
  9
$DIMLFAC
 40
1.0
  9
$DIMTOFL
 70
     1
  9
$DIMTVP
 40
0.0
  9
$DIMTIX
 70
     0
  9
$DIMSOXD
 70
     0
  9
$DIMSAH
 70
     0
  9
$DIMBLK1
  1

  9
$DIMBLK2
  1

  9
$DIMSTYLE
  2
ISO-25
  9
$DIMCLRD
 70
     0
  9
$DIMCLRE
 70
     0
  9
$DIMCLRT
 70
     0
  9
$DIMTFAC
 40
1.0
  9
$DIMGAP
 40
1.524
  9
$LUNITS
 70
     2
  9
$LUPREC
 70
     2
  9
$SKETCHINC
 40
1.0
  9
$FILLETRAD
 40
10.0
  9
$AUNITS
 70
     0
  9
$AUPREC
 70
     2
  9
$MENU
  1
.
  9
$ELEVATION
 40
0.0
  9
$PELEVATION
 40
0.0
  9
$THICKNESS
 40
0.0
  9
$LIMCHECK
 70
     0
  9
$CHAMFERA
 40
0.0
  9
$CHAMFERB
 40
0.0
  9
$SKPOLY
 70
     0
  9
$TDCREATE
 40
2456812.033055324
  9
$TDUPDATE
 40
2456812.463565868
  9
$TDINDWG
 40
0.0038140625
  9
$TDUSRTIMER
 40
2456812.376418588
  9
$USRTIMER
 70
     1
  9
$ANGBASE
 50
0.0
  9
$ANGDIR
 70
     0
  9
$PDMODE
 70
     0
  9
$PDSIZE
 40
-1.0
  9
$PLINEWID
 40
0.0
  9
$COORDS
 70
     1
  9
$SPLFRAME
 70
     0
  9
$SPLINETYPE
 70
     6
  9
$SPLINESEGS
 70
     8
  9
$ATTDIA
 70
     0
  9
$ATTREQ
 70
     1
  9
$HANDLING
 70
     1
  9
$HANDSEED
  5
106
  9
$SURFTAB1
 70
     6
  9
$SURFTAB2
 70
     6
  9
$SURFTYPE
 70
     6
  9
$SURFU
 70
     6
  9
$SURFV
 70
     6
  9
$UCSNAME
  2

  9
$UCSORG
 10
0.0
 20
0.0
 30
0.0
  9
$UCSXDIR
 10
1.0
 20
0.0
 30
0.0
  9
$UCSYDIR
 10
0.0
 20
1.0
 30
0.0
  9
$PUCSNAME
  2

  9
$PUCSORG
 10
0.0
 20
0.0
 30
0.0
  9
$PUCSXDIR
 10
1.0
 20
0.0
 30
0.0
  9
$PUCSYDIR
 10
0.0
 20
1.0
 30
0.0
  9
$USERI1
 70
     0
  9
$USERI2
 70
     0
  9
$USERI3
 70
     0
  9
$USERI4
 70
     0
  9
$USERI5
 70
     0
  9
$USERR1
 40
0.0
  9
$USERR2
 40
0.0
  9
$USERR3
 40
0.0
  9
$USERR4
 40
0.0
  9
$USERR5
 40
0.0
  9
$WORLDVIEW
 70
     1
  9
$SHADEDGE
 70
     3
  9
$SHADEDIF
 70
    70
  9
$TILEMODE
 70
     1
  9
$MAXACTVP
 70
    64
  9
$PLIMCHECK
 70
     0
  9
$PEXTMIN
 10
1.000000000000000E+20
 20
1.000000000000000E+20
 30
1.000000000000000E+20
  9
$PEXTMAX
 10
-1.000000000000000E+20
 20
-1.000000000000000E+20
 30
-1.000000000000000E+20
  9
$PLIMMIN
 10
0.0
 20
0.0
  9
$PLIMMAX
 10
0.0
 20
0.0
  9
$UNITMODE
 70
     0
  9
$VISRETAIN
 70
     1
  9
$PLINEGEN
 70
     0
  9
$PSLTSCALE
 70
     1
  0
ENDSEC
  0
SECTION
  2
TABLES
  0
TABLE
  2
VPORT
 70
     1
  0
VPORT
  2
*ACTIVE
 70
     0
 10
0.0
 20
0.0
 11
1.0
 21
1.0
 12
-5512.356391422744
 22
-825.8303994018031
 13
0.0
 23
0.0
 14
10.0
 24
10.0
 15
10.0
 25
10.0
 16
0.0
 26
0.0
 36
1.0
 17
0.0
 27
0.0
 37
0.0
 40
3193.99703226621
 41
1.996879875195008
 42
50.0
 43
0.0
 44
0.0
 50
0.0
 51
0.0
 71
    16
 72
   100
 73
     1
 74
     3
 75
     0
 76
     0
 77
     0
 78
     0
  0
ENDTAB
  0
TABLE
  2
LTYPE
 70
     6
  0
LTYPE
  2
CONTINUOUS
 70
     0
  3
Solid line
 72
    65
 73
     0
 40
0.0
  0
LTYPE
  2
HIDDEN
 70
     0
  3
Hidden __ __ __ __ __ __ __ __ __ __ __ __ __ __
 72
    65
 73
     2
 40
1.905
 49
1.27
 49
-0.635
  0
LTYPE
  2
PHANTOM
 70
     0
  3
Phantom ______  __  __  ______  __  __  ______
 72
    65
 73
     6
 40
12.7
 49
6.35
 49
-1.27
 49
1.27
 49
-1.27
 49
1.27
 49
-1.27
  0
LTYPE
  2
CENTER
 70
     0
  3
Center ____ _ ____ _ ____ _ ____ _ ____ _ ____
 72
    65
 73
     4
 40
10.16
 49
6.35
 49
-1.27
 49
1.27
 49
-1.27
  0
LTYPE
  2
CENTERX2
 70
     0
  3
Center (2x) ________  __  ________  __  _____
 72
    65
 73
     4
 40
20.32
 49
12.7
 49
-2.54
 49
2.54
 49
-2.54
  0
LTYPE
  2
DOT2
 70
     0
  3
Dot (.5x) ........................................
 72
    65
 73
     2
 40
0.635
 49
0.0
 49
-0.635
  0
ENDTAB
  0
TABLE
  2
LAYER
 70
     1
  0
LAYER
  2
0
 70
     0
 62
     7
  6
CONTINUOUS
  0
ENDTAB
  0
TABLE
  2
STYLE
 70
     1
  0
STYLE
  2
STANDARD
 70
     0
 40
0.0
 41
1.0
 50
0.0
 71
     0
 42
3.5
  3
txt
  4

  0
ENDTAB
  0
TABLE
  2
VIEW
 70
     0
  0
ENDTAB
  0
TABLE
  2
UCS
 70
     0
  0
ENDTAB
  0
TABLE
  2
APPID
 70
     1
  0
APPID
  2
ACAD
 70
     0
  0
ENDTAB
  0
TABLE
  2
DIMSTYLE
 70
     1
  0
DIMSTYLE
  2
ISO-25
 70
     0
  3

  4

  5

  6

  7

 40
1.0
 41
2.5
 42
0.625
 43
3.75
 44
1.25
 45
0.0
 46
0.0
 47
0.0
 48
0.0
140
2.5
141
2.5
142
0.0
143
0.0393700787
144
1.0
145
0.0
146
1.0
147
0.625
 71
     0
 72
     0
 73
     0
 74
     0
 75
     0
 76
     0
 77
     1
 78
     8
170
     0
171
     3
172
     1
173
     0
174
     0
175
     0
176
     0
177
     0
178
     0
  0
ENDTAB
  0
ENDSEC
  0
SECTION
  2
BLOCKS
  0
BLOCK
  8
0
  2
$MODEL_SPACE
 70
     0
 10
0.0
 20
0.0
 30
0.0
  3
$MODEL_SPACE
  1

  0
ENDBLK
  5
21
  8
0
  0
BLOCK
 67
     1
  8
0
  2
$PAPER_SPACE
 70
     0
 10
0.0
 20
0.0
 30
0.0
  3
$PAPER_SPACE
  1

  0
ENDBLK
  5
1D
 67
     1
  8
0
  0
ENDSEC
  0
SECTION
  2
ENTITIES
  0
LINE
  5
9E
  8
0
 10
-5840.5107267347
 20
-1144.1015513674
 30
0.0
 11
-5930.356228658011
 21
-1076.067236550916
 31
0.0
  0
LINE
  5
9F
  8
0
 10
-5878.1381659323
 20
-1185.2705454929
 30
0.0
 11
-5840.5107267347
 21
-1144.1015513674
 31
0.0
  0
LINE
  5
A0
  8
0
 10
-5878.1381659323
 20
-1185.2705454929
 30
0.0
 11
-6044.3051291528
 21
-1495.9200069957
 31
0.0
  0
LINE
  5
A1
  8
0
 10
-6059.3622996751
 20
-1696.0657752872
 30
0.0
 11
-6044.3051291528
 21
-1495.9200069957
 31
0.0
  0
LINE
  5
A2
  8
0
 10
-6266.3924786171
 20
-1710.6907585958
 30
0.0
 11
-6059.3622996751
 21
-1696.0657752872
 31
0.0
  0
LINE
  5
A3
  8
0
 10
-6278.5063944609
 20
-1714.5315518525
 30
0.0
 11
-6275.180804751383
 21
-1713.477152705638
 31
0.0
  0
LINE
  5
A4
  8
0
 10
-6278.5063944609
 20
-1714.5315518525
 30
0.0
 11
-6554.8786820508
 21
-1712.7450479324
 31
0.0
  0
LINE
  5
A5
  8
0
 10
-6564.806765364
 20
-1705.7303111023
 30
0.0
 11
-6561.48233398614
 21
-1708.079204689284
 31
0.0
  0
LINE
  5
A6
  8
0
 10
-6654.842840058
 20
-1524.6806495042
 30
0.0
 11
-6564.806765364
 21
-1705.7303111023
 31
0.0
  0
LINE
  5
A7
  8
0
 10
-6495.2699723972
 20
-1408.2280548883
 30
0.0
 11
-6654.842840058
 21
-1524.6806495042
 31
0.0
  0
LINE
  5
A8
  8
0
 10
-6495.2699723972
 20
-1408.2280548883
 30
0.0
 11
-6320.374011282
 21
-1108.4748660362
 31
0.0
  0
LINE
  5
A9
  8
0
 10
-6305.4895220682
 20
-1057.6026095865
 30
0.0
 11
-6320.374011282
 21
-1108.4748660362
 31
0.0
  0
LINE
  5
AA
  8
0
 10
-6201.716394286191
 20
-1093.177098220861
 30
0.0
 11
-6305.4895220682
 21
-1057.6026095865
 31
0.0
  0
LINE
  5
B1
  8
0
 10
-6200.090138888703
 20
-1087.65612749867
 30
0.0
 11
-6285.1719193319
 21
-1017.6277965605
 31
0.0
  0
LINE
  5
B2
  8
0
 10
-6082.3705903115
 20
-767.5603643337
 30
0.0
 11
-6285.1719193319
 21
-1017.6277965605
 31
0.0
  0
LINE
  5
B3
  8
0
 10
-5659.0038070983
 20
-111.2702964404
 30
0.0
 11
-6082.3705903115
 21
-767.5603643337
 31
0.0
  0
LINE
  5
B4
  8
0
 10
-5659.0038070983
 20
-111.2702964404
 30
0.0
 11
-5599.3408333397
 21
-149.7583408476
 31
0.0
  0
LINE
  5
B5
  8
0
 10
-5587.06604294
 20
-150.0
 30
0.0
 11
-5590.853250389493
 21
-149.9254395951046
 31
0.0
  0
LINE
  5
B6
  8
0
 10
-5390.5877692061
 20
-150.0
 30
0.0
 11
-5587.06604294
 21
-150.0
 31
0.0
  0
LINE
  5
B7
  8
0
 10
-5378.5826268537
 20
-150.2271329335
 30
0.0
 11
-5382.286638333211
 21
-150.1570543814626
 31
0.0
  0
LINE
  5
B8
  8
0
 10
-5317.4892186583
 20
-186.4016470984
 30
0.0
 11
-5378.5826268537
 21
-150.2271329335
 31
0.0
  0
LINE
  5
B9
  8
0
 10
-5691.3499191248
 20
-817.7971173384
 30
0.0
 11
-5317.4892186583
 21
-186.4016470984
 31
0.0
  0
LINE
  5
BA
  8
0
 10
-5823.5771687425
 20
-1111.5498273842
 30
0.0
 11
-5691.3499191248
 21
-817.7971173384
 31
0.0
  0
LINE
  5
BB
  8
0
 10
-5823.5771687425
 20
-1111.5498273842
 30
0.0
 11
-5928.941234673985
 21
-1070.421902540782
 31
0.0
  0
ARC
  5
E8
  8
0
 10
-5930.356228658011
 20
-1073.067236550916
 30
0.0
 40
3.0
 50
61.85759233400727
 51
270.0
  0
ARC
  5
E9
  8
0
 10
-6200.090138888703
 20
-1090.65612749867
 30
0.0
 40
3.0
 50
237.1743040301815
 51
90.0
  0
LINE
  5
FA
  8
0
 10
-6275.180804751383
 20
-1713.477152705638
 30
0.0
 11
-6267.161388747923
 21
-1702.725139575467
 31
0.0
  0
LINE
  5
FB
  8
0
 10
-6267.161388747923
 20
-1702.725139575467
 30
0.0
 11
-6269.718068326552
 21
-1711.745157742642
 31
0.0
  0
LINE
  5
FC
  8
0
 10
-6561.48233398614
 20
-1708.079204689284
 30
0.0
 11
-6555.843737929552
 21
-1702.267771852211
 31
0.0
  0
LINE
  5
FD
  8
0
 10
-6555.843737929552
 20
-1702.267771852211
 30
0.0
 11
-6558.20311342862
 21
-1710.396154345445
 31
0.0
  0
LINE
  5
FE
  8
0
 10
-5595.553625890306
 20
-149.8329012524934
 30
0.0
 11
-5598.300432990346
 21
-157.780373893431
 31
0.0
  0
LINE
  5
FF
  8
0
 10
-5598.300432990346
 20
-157.780373893431
 30
0.0
 11
-5590.853250389493
 21
-149.9254395951049
 31
0.0
  0
LINE
  5
100
  8
0
 10
-5386.883757726648
 20
-150.0700785520363
 30
0.0
 11
-5389.118555503605
 21
-158.0292286722143
 31
0.0
  0
LINE
  5
101
  8
0
 10
-5389.118555503605
 20
-158.0292286722143
 30
0.0
 11
-5382.286638333211
 21
-150.1570543814625
 31
0.0
  0
LINE
  5
102
  8
0
 10
-6558.20311342862
 20
-1710.396154345445
 30
0.0
 11
-6554.8786820508
 21
-1712.7450479324
 31
0.0
  0
LINE
  5
103
  8
0
 10
-6269.718068326552
 20
-1711.745157742642
 30
0.0
 11
-6266.3924786171
 21
-1710.6907585958
 31
0.0
  0
LINE
  5
104
  8
0
 10
-5386.883757726648
 20
-150.0700785520363
 30
0.0
 11
-5390.5877692061
 21
-150.0
 31
0.0
  0
LINE
  5
105
  8
0
 10
-5595.553625890306
 20
-149.8329012524934
 30
0.0
 11
-5599.3408333397
 21
-149.7583408476
 31
0.0
  0
ENDSEC
  0
EOF
