  0
SECTION
  2
HEADER
  9
$ACADVER
  1
AC1009
  9
$DWGCODEPAGE
  3
ansi_1252
  9
$INSBASE
 10
0.0
 20
0.0
 30
0.0
  9
$EXTMIN
 10
3.516409608091024
 20
2.970887484197219
 30
0.0
  9
$EXTMAX
 10
1258.516409608091
 20
341.9708874841972
 30
0.0
  9
$LIMMIN
 10
0.0
 20
0.0
  9
$LIMMAX
 10
12.0
 20
9.0
  9
$ORTHOMODE
 70
     0
  9
$REGENMODE
 70
     1
  9
$FILLMODE
 70
     1
  9
$QTEXTMODE
 70
     0
  9
$MIRRTEXT
 70
     0
  9
$DRAGMODE
 70
     2
  9
$LTSCALE
 40
1.0
  9
$OSMODE
 70
  5119
  9
$ATTMODE
 70
     1
  9
$TEXTSIZE
 40
0.2
  9
$TRACEWID
 40
0.05
  9
$TEXTSTYLE
  7
STANDARD
  9
$CLAYER
  8
0
  9
$CELTYPE
  6
BYLAYER
  9
$CECOLOR
 62
   256
  9
$DIMSCALE
 40
1.0
  9
$DIMASZ
 40
0.18
  9
$DIMEXO
 40
0.0625
  9
$DIMDLI
 40
0.38
  9
$DIMRND
 40
0.0
  9
$DIMDLE
 40
0.0
  9
$DIMEXE
 40
0.18
  9
$DIMTP
 40
0.0
  9
$DIMTM
 40
0.0
  9
$DIMTXT
 40
0.18
  9
$DIMCEN
 40
0.09
  9
$DIMTSZ
 40
0.0
  9
$DIMTOL
 70
     0
  9
$DIMLIM
 70
     0
  9
$DIMTIH
 70
     1
  9
$DIMTOH
 70
     1
  9
$DIMSE1
 70
     0
  9
$DIMSE2
 70
     0
  9
$DIMTAD
 70
     0
  9
$DIMZIN
 70
     0
  9
$DIMBLK
  1

  9
$DIMASO
 70
     1
  9
$DIMSHO
 70
     1
  9
$DIMPOST
  1

  9
$DIMAPOST
  1

  9
$DIMALT
 70
     0
  9
$DIMALTD
 70
     2
  9
$DIMALTF
 40
25.4
  9
$DIMLFAC
 40
1.0
  9
$DIMTOFL
 70
     0
  9
$DIMTVP
 40
0.0
  9
$DIMTIX
 70
     0
  9
$DIMSOXD
 70
     0
  9
$DIMSAH
 70
     0
  9
$DIMBLK1
  1

  9
$DIMBLK2
  1

  9
$DIMSTYLE
  2
STANDARD
  9
$DIMCLRD
 70
     0
  9
$DIMCLRE
 70
     0
  9
$DIMCLRT
 70
     0
  9
$DIMTFAC
 40
1.0
  9
$DIMGAP
 40
0.09
  9
$LUNITS
 70
     2
  9
$LUPREC
 70
     4
  9
$SKETCHINC
 40
0.1
  9
$FILLETRAD
 40
0.0
  9
$AUNITS
 70
     0
  9
$AUPREC
 70
     0
  9
$MENU
  1
.
  9
$ELEVATION
 40
0.0
  9
$PELEVATION
 40
0.0
  9
$THICKNESS
 40
0.0
  9
$LIMCHECK
 70
     0
  9
$CHAMFERA
 40
0.0
  9
$CHAMFERB
 40
0.0
  9
$SKPOLY
 70
     0
  9
$TDCREATE
 40
2452643.105050937
  9
$TDUPDATE
 40
2457077.799343021
  9
$TDINDWG
 40
0.0004499306
  9
$TDUSRTIMER
 40
2457077.757226505
  9
$USRTIMER
 70
     1
  9
$ANGBASE
 50
0.0
  9
$ANGDIR
 70
     0
  9
$PDMODE
 70
     0
  9
$PDSIZE
 40
0.0
  9
$PLINEWID
 40
0.0
  9
$COORDS
 70
     2
  9
$SPLFRAME
 70
     0
  9
$SPLINETYPE
 70
     6
  9
$SPLINESEGS
 70
     8
  9
$ATTDIA
 70
     0
  9
$ATTREQ
 70
     1
  9
$HANDLING
 70
     1
  9
$HANDSEED
  5
194
  9
$SURFTAB1
 70
     6
  9
$SURFTAB2
 70
     6
  9
$SURFTYPE
 70
     6
  9
$SURFU
 70
     6
  9
$SURFV
 70
     6
  9
$UCSNAME
  2

  9
$UCSORG
 10
0.0
 20
0.0
 30
0.0
  9
$UCSXDIR
 10
1.0
 20
0.0
 30
0.0
  9
$UCSYDIR
 10
0.0
 20
1.0
 30
0.0
  9
$PUCSNAME
  2

  9
$PUCSORG
 10
0.0
 20
0.0
 30
0.0
  9
$PUCSXDIR
 10
1.0
 20
0.0
 30
0.0
  9
$PUCSYDIR
 10
0.0
 20
1.0
 30
0.0
  9
$USERI1
 70
     0
  9
$USERI2
 70
     0
  9
$USERI3
 70
     0
  9
$USERI4
 70
     0
  9
$USERI5
 70
     0
  9
$USERR1
 40
0.0
  9
$USERR2
 40
0.0
  9
$USERR3
 40
0.0
  9
$USERR4
 40
0.0
  9
$USERR5
 40
0.0
  9
$WORLDVIEW
 70
     1
  9
$SHADEDGE
 70
     3
  9
$SHADEDIF
 70
    70
  9
$TILEMODE
 70
     1
  9
$MAXACTVP
 70
    64
  9
$PLIMCHECK
 70
     0
  9
$PEXTMIN
 10
0.0
 20
0.0
 30
0.0
  9
$PEXTMAX
 10
0.0
 20
0.0
 30
0.0
  9
$PLIMMIN
 10
0.0
 20
0.0
  9
$PLIMMAX
 10
0.0
 20
0.0
  9
$UNITMODE
 70
     0
  9
$VISRETAIN
 70
     1
  9
$PLINEGEN
 70
     0
  9
$PSLTSCALE
 70
     1
  0
ENDSEC
  0
SECTION
  2
TABLES
  0
TABLE
  2
VPORT
 70
     1
  0
VPORT
  2
*ACTIVE
 70
     0
 10
0.0
 20
0.0
 11
1.0
 21
1.0
 12
389.4646511225294
 22
181.8590339381627
 13
0.0
 23
0.0
 14
0.5
 24
0.5
 15
0.5
 25
0.5
 16
0.0
 26
0.0
 36
1.0
 17
-27.66959356597988
 27
-19.53870295786203
 37
0.0
 40
1337.647188638203
 41
1.874336283185841
 42
50.0
 43
0.0
 44
0.0
 50
0.0
 51
0.0
 71
    16
 72
  1000
 73
     1
 74
     3
 75
     0
 76
     0
 77
     0
 78
     0
  0
ENDTAB
  0
TABLE
  2
LTYPE
 70
     1
  0
LTYPE
  2
CONTINUOUS
 70
     0
  3
Solid line
 72
    65
 73
     0
 40
0.0
  0
ENDTAB
  0
TABLE
  2
LAYER
 70
     1
  0
LAYER
  2
0
 70
     0
 62
     7
  6
CONTINUOUS
  0
ENDTAB
  0
TABLE
  2
STYLE
 70
     1
  0
STYLE
  2
STANDARD
 70
     0
 40
0.0
 41
1.0
 50
0.0
 71
     0
 42
0.2
  3
arial.ttf
  4

  0
ENDTAB
  0
TABLE
  2
VIEW
 70
     0
  0
ENDTAB
  0
TABLE
  2
UCS
 70
     0
  0
ENDTAB
  0
TABLE
  2
APPID
 70
     1
  0
APPID
  2
ACAD
 70
     0
  0
ENDTAB
  0
TABLE
  2
DIMSTYLE
 70
     1
  0
DIMSTYLE
  2
STANDARD
 70
     0
  3

  4

  5

  6

  7

 40
1.0
 41
0.18
 42
0.0625
 43
0.38
 44
0.18
 45
0.0
 46
0.0
 47
0.0
 48
0.0
140
0.18
141
0.09
142
0.0
143
25.4
144
1.0
145
0.0
146
1.0
147
0.09
 71
     0
 72
     0
 73
     1
 74
     1
 75
     0
 76
     0
 77
     0
 78
     0
170
     0
171
     2
172
     0
173
     0
174
     0
175
     0
176
     0
177
     0
178
     0
  0
ENDTAB
  0
ENDSEC
  0
SECTION
  2
BLOCKS
  0
BLOCK
  8
0
  2
$MODEL_SPACE
 70
     0
 10
0.0
 20
0.0
 30
0.0
  3
$MODEL_SPACE
  1

  0
ENDBLK
  5
21
  8
0
  0
BLOCK
 67
     1
  8
0
  2
$PAPER_SPACE
 70
     0
 10
0.0
 20
0.0
 30
0.0
  3
$PAPER_SPACE
  1

  0
ENDBLK
  5
5B
 67
     1
  8
0
  0
ENDSEC
  0
SECTION
  2
ENTITIES
  0
LINE
  5
16E
  8
0
 10
23.51640960809102
 20
341.9708874841972
 30
0.0
 11
1238.516409608091
 21
341.9708874841972
 31
0.0
  0
LINE
  5
16F
  8
0
 10
23.51640960809102
 20
2.970887484197219
 30
0.0
 11
1238.516409608091
 21
2.970887484197219
 31
0.0
  0
LINE
  5
170
  8
0
 10
3.516409608091026
 20
321.9708874841972
 30
0.0
 11
3.516409608091026
 21
294.9708874841972
 31
0.0
  0
LINE
  5
171
  8
0
 10
1258.516409608091
 20
294.9708874841972
 30
0.0
 11
1248.516409608091
 21
291.9708874841972
 31
0.0
  0
LINE
  5
172
  8
0
 10
1248.516409608091
 20
291.9708874841972
 30
0.0
 11
1258.516409608091
 21
288.9708874841972
 31
0.0
  0
LINE
  5
173
  8
0
 10
3.516409608091026
 20
294.9708874841972
 30
0.0
 11
13.51640960809103
 21
291.9708874841972
 31
0.0
  0
LINE
  5
174
  8
0
 10
13.51640960809103
 20
291.9708874841972
 30
0.0
 11
3.516409608091026
 21
288.9708874841972
 31
0.0
  0
LINE
  5
175
  8
0
 10
1258.516409608091
 20
321.9708874841972
 30
0.0
 11
1258.516409608091
 21
294.9708874841972
 31
0.0
  0
LINE
  5
176
  8
0
 10
1258.516409608091
 20
288.9708874841972
 30
0.0
 11
1258.516409608091
 21
22.97088748419722
 31
0.0
  0
LINE
  5
177
  8
0
 10
3.516409608091026
 20
288.9708874841972
 30
0.0
 11
3.516409608091026
 21
22.97088748419722
 31
0.0
  0
ARC
  5
178
  8
0
 10
23.51640960809102
 20
22.97088748419722
 30
0.0
 40
20.0
 50
180.0
 51
270.0
  0
ARC
  5
179
  8
0
 10
23.51640960809102
 20
321.9708874841972
 30
0.0
 40
20.0
 50
90.0
 51
180.0
  0
ARC
  5
17A
  8
0
 10
1238.516409608091
 20
321.9708874841972
 30
0.0
 40
20.0
 50
0.0
 51
90.0
  0
ARC
  5
17B
  8
0
 10
1238.516409608091
 20
22.97088748419722
 30
0.0
 40
20.0
 50
270.0
 51
0.0
  0
ARC
  5
17C
  8
0
 10
1236.516409608091
 20
321.9708874841972
 30
0.0
 40
6.0
 50
90.0
 51
270.0
  0
ARC
  5
17D
  8
0
 10
1236.516409608091
 20
27.97088748419722
 30
0.0
 40
6.0
 50
90.0
 51
270.0
  0
ARC
  5
17E
  8
0
 10
1240.516409608091
 20
321.9708874841972
 30
0.0
 40
6.0
 50
270.0
 51
90.0
  0
LINE
  5
17F
  8
0
 10
1236.516409608091
 20
33.97088748419722
 30
0.0
 11
1240.516409608091
 21
33.97088748419722
 31
0.0
  0
LINE
  5
180
  8
0
 10
1236.516409608091
 20
21.97088748419722
 30
0.0
 11
1240.516409608091
 21
21.97088748419722
 31
0.0
  0
ARC
  5
181
  8
0
 10
1240.516409608091
 20
27.97088748419722
 30
0.0
 40
6.0
 50
270.0
 51
90.0
  0
LINE
  5
182
  8
0
 10
1236.516409608091
 20
327.9708874841972
 30
0.0
 11
1240.516409608091
 21
327.9708874841972
 31
0.0
  0
LINE
  5
183
  8
0
 10
1236.516409608091
 20
315.9708874841972
 30
0.0
 11
1240.516409608091
 21
315.9708874841972
 31
0.0
  0
ARC
  5
184
  8
0
 10
25.51640960809102
 20
321.9708874841972
 30
0.0
 40
6.0
 50
270.0
 51
90.0
  0
ARC
  5
185
  8
0
 10
25.51640960809102
 20
27.97088748419722
 30
0.0
 40
6.0
 50
270.0
 51
90.0
  0
ARC
  5
186
  8
0
 10
21.51640960809102
 20
321.9708874841972
 30
0.0
 40
6.0
 50
90.0
 51
270.0
  0
ARC
  5
187
  8
0
 10
21.51640960809102
 20
27.97088748419722
 30
0.0
 40
6.0
 50
90.0
 51
270.0
  0
LINE
  5
188
  8
0
 10
25.51640960809102
 20
33.97088748419722
 30
0.0
 11
21.51640960809102
 21
33.97088748419722
 31
0.0
  0
LINE
  5
189
  8
0
 10
25.51640960809102
 20
21.97088748419722
 30
0.0
 11
21.51640960809102
 21
21.97088748419722
 31
0.0
  0
LINE
  5
18A
  8
0
 10
25.51640960809102
 20
327.9708874841972
 30
0.0
 11
21.51640960809102
 21
327.9708874841972
 31
0.0
  0
LINE
  5
18B
  8
0
 10
25.51640960809102
 20
315.9708874841972
 30
0.0
 11
21.51640960809102
 21
315.9708874841972
 31
0.0
  0
ARC
  5
18C
  8
0
 10
1236.516409608091
 20
175.9708874841972
 30
0.0
 40
6.0
 50
90.0
 51
270.0
  0
LINE
  5
18D
  8
0
 10
1236.516409608091
 20
181.9708874841972
 30
0.0
 11
1240.516409608091
 21
181.9708874841972
 31
0.0
  0
LINE
  5
18E
  8
0
 10
1236.516409608091
 20
169.9708874841972
 30
0.0
 11
1240.516409608091
 21
169.9708874841972
 31
0.0
  0
ARC
  5
18F
  8
0
 10
1240.516409608091
 20
175.9708874841972
 30
0.0
 40
6.0
 50
270.0
 51
90.0
  0
ARC
  5
190
  8
0
 10
25.51640960809102
 20
175.9708874841972
 30
0.0
 40
6.0
 50
270.0
 51
90.0
  0
LINE
  5
191
  8
0
 10
25.51640960809102
 20
181.9708874841972
 30
0.0
 11
21.51640960809102
 21
181.9708874841972
 31
0.0
  0
LINE
  5
192
  8
0
 10
25.51640960809102
 20
169.9708874841972
 30
0.0
 11
21.51640960809102
 21
169.9708874841972
 31
0.0
  0
ARC
  5
193
  8
0
 10
21.51640960809102
 20
175.9708874841972
 30
0.0
 40
6.0
 50
90.0
 51
270.0
  0
ENDSEC
  0
EOF
