  0
SECTION
  2
HEADER
  9
$ACADVER
  1
AC1009
  9
$INSBASE
 10
0.0
 20
0.0
 30
0.0
  9
$EXTMIN
 10
-28.28503292838878
 20
-87.830970172502177
 30
0.0
  9
$EXTMAX
 10
585.5404828511596
 20
389.73062036878258
 30
0.0
  9
$LIMMIN
 10
0.0
 20
0.0
  9
$LIMMAX
 10
12.0
 20
9.0
  9
$ORTHOMODE
 70
     1
  9
$REGENMODE
 70
     1
  9
$FILLMODE
 70
     1
  9
$QTEXTMODE
 70
     0
  9
$MIRRTEXT
 70
     0
  9
$DRAGMODE
 70
     2
  9
$LTSCALE
 40
1.0
  9
$OSMODE
 70
   695
  9
$ATTMODE
 70
     1
  9
$TEXTSIZE
 40
0.2
  9
$TRACEWID
 40
0.05
  9
$TEXTSTYLE
  7
STANDARD
  9
$CLAYER
  8
0
  9
$CELTYPE
  6
BYLAYER
  9
$CECOLOR
 62
   256
  9
$DIMSCALE
 40
1.0
  9
$DIMASZ
 40
0.18
  9
$DIMEXO
 40
0.0625
  9
$DIMDLI
 40
0.38
  9
$DIMRND
 40
0.0
  9
$DIMDLE
 40
0.0
  9
$DIMEXE
 40
0.18
  9
$DIMTP
 40
0.0
  9
$DIMTM
 40
0.0
  9
$DIMTXT
 40
0.18
  9
$DIMCEN
 40
0.09
  9
$DIMTSZ
 40
0.0
  9
$DIMTOL
 70
     0
  9
$DIMLIM
 70
     0
  9
$DIMTIH
 70
     1
  9
$DIMTOH
 70
     1
  9
$DIMSE1
 70
     0
  9
$DIMSE2
 70
     0
  9
$DIMTAD
 70
     0
  9
$DIMZIN
 70
     0
  9
$DIMBLK
  1

  9
$DIMASO
 70
     1
  9
$DIMSHO
 70
     1
  9
$DIMPOST
  1

  9
$DIMAPOST
  1

  9
$DIMALT
 70
     0
  9
$DIMALTD
 70
     2
  9
$DIMALTF
 40
25.399999999999999
  9
$DIMLFAC
 40
1.0
  9
$DIMTOFL
 70
     0
  9
$DIMTVP
 40
0.0
  9
$DIMTIX
 70
     0
  9
$DIMSOXD
 70
     0
  9
$DIMSAH
 70
     0
  9
$DIMBLK1
  1

  9
$DIMBLK2
  1

  9
$DIMSTYLE
  2
STANDARD
  9
$DIMCLRD
 70
     0
  9
$DIMCLRE
 70
     0
  9
$DIMCLRT
 70
     0
  9
$DIMTFAC
 40
1.0
  9
$DIMGAP
 40
0.09
  9
$LUNITS
 70
     2
  9
$LUPREC
 70
     4
  9
$SKETCHINC
 40
0.1
  9
$FILLETRAD
 40
0.0
  9
$AUNITS
 70
     0
  9
$AUPREC
 70
     0
  9
$MENU
  1
.
  9
$ELEVATION
 40
0.0
  9
$PELEVATION
 40
0.0
  9
$THICKNESS
 40
0.0
  9
$LIMCHECK
 70
     0
  9
$BLIPMODE
 70
     0
  9
$CHAMFERA
 40
0.0
  9
$CHAMFERB
 40
0.0
  9
$SKPOLY
 70
     0
  9
$TDCREATE
 40
2455531.5264626741
  9
$TDUPDATE
 40
2456382.4297301741
  9
$TDINDWG
 40
0.0061880208
  9
$TDUSRTIMER
 40
0.0061878356
  9
$USRTIMER
 70
     1
  9
$ANGBASE
 50
0.0
  9
$ANGDIR
 70
     0
  9
$PDMODE
 70
     0
  9
$PDSIZE
 40
0.0
  9
$PLINEWID
 40
0.0
  9
$COORDS
 70
     1
  9
$SPLFRAME
 70
     0
  9
$SPLINETYPE
 70
     6
  9
$SPLINESEGS
 70
     8
  9
$ATTDIA
 70
     0
  9
$ATTREQ
 70
     1
  9
$HANDLING
 70
     1
  9
$HANDSEED
  5
426
  9
$SURFTAB1
 70
     6
  9
$SURFTAB2
 70
     6
  9
$SURFTYPE
 70
     6
  9
$SURFU
 70
     6
  9
$SURFV
 70
     6
  9
$UCSNAME
  2

  9
$UCSORG
 10
0.0
 20
0.0
 30
0.0
  9
$UCSXDIR
 10
1.0
 20
0.0
 30
0.0
  9
$UCSYDIR
 10
0.0
 20
1.0
 30
0.0
  9
$PUCSNAME
  2

  9
$PUCSORG
 10
0.0
 20
0.0
 30
0.0
  9
$PUCSXDIR
 10
1.0
 20
0.0
 30
0.0
  9
$PUCSYDIR
 10
0.0
 20
1.0
 30
0.0
  9
$USERI1
 70
     0
  9
$USERI2
 70
     0
  9
$USERI3
 70
     0
  9
$USERI4
 70
     0
  9
$USERI5
 70
     0
  9
$USERR1
 40
0.0
  9
$USERR2
 40
0.0
  9
$USERR3
 40
0.0
  9
$USERR4
 40
0.0
  9
$USERR5
 40
0.0
  9
$WORLDVIEW
 70
     1
  9
$SHADEDGE
 70
     3
  9
$SHADEDIF
 70
    70
  9
$TILEMODE
 70
     1
  9
$MAXACTVP
 70
    64
  9
$PLIMCHECK
 70
     0
  9
$PEXTMIN
 10
0.0
 20
0.0
 30
0.0
  9
$PEXTMAX
 10
0.0
 20
0.0
 30
0.0
  9
$PLIMMIN
 10
0.0
 20
0.0
  9
$PLIMMAX
 10
12.0
 20
9.0
  9
$UNITMODE
 70
     0
  9
$VISRETAIN
 70
     1
  9
$PLINEGEN
 70
     0
  9
$PSLTSCALE
 70
     1
  0
ENDSEC
  0
SECTION
  2
TABLES
  0
TABLE
  2
VPORT
 70
     1
  0
VPORT
  2
*ACTIVE
 70
     0
 10
0.0
 20
0.0
 11
1.0
 21
1.0
 12
552.06565366486245
 22
220.9303235604107
 13
0.0
 23
0.0
 14
0.5
 24
0.5
 15
0.5
 25
0.5
 16
0.0
 26
0.0
 36
1.0
 17
0.0
 27
0.0
 37
0.0
 40
858.87316419844365
 41
1.9737335834896801
 42
50.0
 43
0.0
 44
0.0
 50
0.0
 51
0.0
 71
     0
 72
  1000
 73
     1
 74
     3
 75
     0
 76
     0
 77
     0
 78
     0
  0
ENDTAB
  0
TABLE
  2
LTYPE
 70
     3
  0
LTYPE
  2
CONTINUOUS
 70
     0
  3
Solid line
 72
    65
 73
     0
 40
0.0
  0
LTYPE
  2
CENTERX2
 70
     0
  3
Center (2x) ________  __  ________  __  _____
 72
    65
 73
     4
 40
20.32
 49
12.699999999999999
 49
-2.54
 49
2.54
 49
-2.54
  0
ENDTAB
  0
TABLE
  2
LAYER
 70
     2
  0
LAYER
  2
0
 70
     0
 62
     7
  6
CONTINUOUS
  0
LAYER
  2
CONTORNO
 70
     0
 62
     7
  6
CONTINUOUS
  0
ENDTAB
  0
TABLE
  2
STYLE
 70
     3
  0
STYLE
  2
STANDARD
 70
     0
 40
0.0
 41
1.0
 50
0.0
 71
     0
 42
0.2
  3
txt.shx
  4

  0
STYLE
  2
ANNOTATIVE
 70
     0
 40
0.0
 41
1.0
 50
0.0
 71
     0
 42
0.2
  3
txt
  4

  0
STYLE
  2
ANNOTATIVA
 70
     0
 40
0.0
 41
1.0
 50
0.0
 71
     0
 42
0.2
  3
txt.shx
  4

  0
ENDTAB
  0
TABLE
  2
VIEW
 70
     0
  0
ENDTAB
  0
TABLE
  2
UCS
 70
     0
  0
ENDTAB
  0
TABLE
  2
APPID
 70
     7
  0
APPID
  2
ACAD
 70
     0
  0
APPID
  2
ACADANNOTATIVE
 70
     0
  0
APPID
  2
ACAD_MLEADERVER
 70
     0
  0
APPID
  2
ACADANNOPO
 70
     0
  0
APPID
  2
ACAD_DSTYLE_DIMJAG
 70
     0
  0
APPID
  2
ACAD_DSTYLE_DIMTALN
 70
     0
  0
APPID
  2
ACAD_EXEMPT_FROM_CAD_STANDARDS
 70
     0
  0
ENDTAB
  0
TABLE
  2
DIMSTYLE
 70
     5
  0
DIMSTYLE
  2
STANDARD
 70
     0
  3

  4

  5

  6

  7

 40
1.0
 41
0.18
 42
0.0625
 43
0.38
 44
0.18
 45
0.0
 46
0.0
 47
0.0
 48
0.0
140
0.18
141
0.09
142
0.0
143
25.399999999999999
144
1.0
145
0.0
146
1.0
147
0.09
 71
     0
 72
     0
 73
     1
 74
     1
 75
     0
 76
     0
 77
     0
 78
     0
170
     0
171
     2
172
     0
173
     0
174
     0
175
     0
176
     0
177
     0
178
     0
  0
DIMSTYLE
  2
ANNOTATIVE
 70
     0
  3

  4

  5

  6

  7

 40
1.0
 41
0.18
 42
0.0625
 43
0.38
 44
0.18
 45
0.0
 46
0.0
 47
0.0
 48
0.0
140
0.18
141
0.09
142
0.0
143
25.399999999999999
144
1.0
145
0.0
146
1.0
147
0.09
 71
     0
 72
     0
 73
     1
 74
     1
 75
     0
 76
     0
 77
     0
 78
     0
170
     0
171
     2
172
     0
173
     0
174
     0
175
     0
176
     0
177
     0
178
     0
  0
DIMSTYLE
  2
ANNOTATIVA
 70
     0
  3

  4

  5

  6

  7

 40
0.0
 41
0.18
 42
0.0625
 43
0.38
 44
0.18
 45
0.0
 46
0.0
 47
0.0
 48
0.0
140
0.18
141
0.09
142
0.0
143
25.399999999999999
144
1.0
145
0.0
146
1.0
147
0.09
 71
     0
 72
     0
 73
     1
 74
     1
 75
     0
 76
     0
 77
     0
 78
     0
170
     0
171
     2
172
     0
173
     0
174
     0
175
     0
176
     0
177
     0
178
     0
  0
DIMSTYLE
  2
ISO-25
 70
     0
  3

  4

  5

  6

  7

 40
1.0
 41
2.5
 42
0.625
 43
3.75
 44
1.25
 45
0.0
 46
0.0
 47
0.0
 48
0.0
140
2.5
141
2.5
142
0.0
143
0.0393700787
144
1.0
145
0.0
146
1.0
147
0.625
 71
     0
 72
     0
 73
     0
 74
     0
 75
     0
 76
     0
 77
     1
 78
     8
170
     0
171
     3
172
     1
173
     0
174
     0
175
     0
176
     0
177
     0
178
     0
  0
ENDTAB
  0
ENDSEC
  0
SECTION
  2
BLOCKS
  0
BLOCK
  8
0
  2
$MODEL_SPACE
 70
     0
 10
0.0
 20
0.0
 30
0.0
  3
$MODEL_SPACE
  1

  0
ENDBLK
  5
3C1
  8
0
  0
BLOCK
 67
     1
  8
0
  2
$PAPER_SPACE
 70
     0
 10
0.0
 20
0.0
 30
0.0
  3
$PAPER_SPACE
  1

  0
ENDBLK
  5
3BD
 67
     1
  8
0
  0
ENDSEC
  0
SECTION
  2
ENTITIES
  0
LINE
  5
18B
  8
0
  6
CONTINUOUS
 10
104.0798159419105
 20
69.714678984262818
 30
0.0
 11
84.071587791038411
 21
161.41905800914401
 31
0.0
  0
LINE
  5
18C
  8
0
  6
CENTERX2
 10
80.248217100461432
 20
178.94284034096259
 30
0.0
 11
55.057175147060534
 21
294.40178262744598
 31
0.0
  0
LINE
  5
18D
  8
0
  6
CONTINUOUS
 10
51.886494564018939
 20
308.9340686330662
 30
0.0
 11
39.829056931184567
 21
364.19732445025801
 31
0.0
  0
LINE
  5
18E
  8
0
  6
CENTERX2
 10
572.94138934138084
 20
286.4805061234531
 30
0.0
 11
329.56735071487901
 21
38.842639250596697
 31
0.0
  0
LINE
  5
18F
  8
0
  6
CENTERX2
 10
166.5919686169843
 20
354.71467898425789
 30
0.0
 11
166.5919686169843
 21
79.714678984258285
 31
0.0
  0
LINE
  5
190
  8
0
  6
CENTERX2
 10
275.32674014300193
 20
77.441754904858712
 30
0.0
 11
474.1412578453332
 21
356.8217522945227
 31
0.0
  0
LINE
  5
191
  8
0
  6
CONTINUOUS
 10
467.1179012625841
 20
389.714678984258
 30
0.0
 11
192.51895943398509
 21
389.714678984258
 31
0.0
  0
LINE
  5
192
  8
0
  6
CONTINUOUS
 10
163.59196861698339
 20
364.714678984258
 30
0.0
 11
43.735552624385221
 21
364.7146789842584
 31
0.0
  0
LINE
  5
193
  8
0
  6
CONTINUOUS
 10
43.735552624385221
 20
364.7146789842584
 30
0.0
 11
39.829056931194572
 21
364.19732445020941
 31
0.0
  0
LINE
  5
194
  8
0
  6
CONTINUOUS
 10
56.071793416950221
 20
163.432734849947
 30
0.0
 11
79.44884056839831
 21
168.53318150121191
 31
0.0
  0
LINE
  5
196
  8
0
  6
CONTINUOUS
 10
169.59196861698419
 20
69.71467898425837
 30
0.0
 11
265.48837765091139
 21
69.714678984257887
 31
0.0
  0
LINE
  5
197
  8
0
  6
CONTINUOUS
 10
265.48837765091139
 20
69.714678984257915
 30
0.0
 11
263.54004681407469
 21
71.101164986380724
 31
0.0
  0
LINE
  5
198
  8
0
  6
CONTINUOUS
 10
263.54004681407469
 20
71.101164986380724
 30
0.0
 11
264.69965328856341
 21
72.730678049949177
 31
0.0
  0
LINE
  5
199
  8
0
  6
CONTINUOUS
 10
264.69965328856341
 20
72.730678049949177
 30
0.0
 11
267.08443817515479
 21
71.033599298851641
 31
0.0
  0
LINE
  5
19A
  8
0
  6
CONTINUOUS
 10
271.97297736581299
 20
67.554779875339463
 30
0.0
 11
280.5581026749889
 21
61.445367735222462
 31
0.0
  0
LINE
  5
19B
  8
0
  6
CONTINUOUS
 10
309.66161524140159
 20
40.734504866013957
 30
0.0
 11
317.730348229919
 21
34.992571754946553
 31
0.0
  0
LINE
  5
19C
  8
0
  6
CONTINUOUS
 10
318.28411700501027
 20
35.548098878711528
 30
0.0
 11
317.730348229919
 21
34.992571754946553
 31
0.0
  0
LINE
  5
19D
  8
0
  6
CONTINUOUS
 10
318.28411700501027
 20
35.548098878711528
 30
0.0
 11
319.70057046266493
 21
34.136128764931001
 31
0.0
  0
LINE
  5
19E
  8
0
  6
CONTINUOUS
 10
319.70057046266493
 20
34.136128764931001
 30
0.0
 11
320.04181468905608
 21
33.536239088995913
 31
0.0
  0
LINE
  5
1A1
  8
0
  6
CONTINUOUS
 10
366.37716456400437
 20
37.685249604321299
 30
0.0
 11
585.5404828511596
 21
260.27663486815283
 31
0.0
  0
LINE
  5
1A2
  8
0
  6
CONTINUOUS
 10
585.5404828511596
 20
260.27663486815283
 30
0.0
 11
581.1310477344266
 21
289.57420516449201
 31
0.0
  0
LINE
  5
1A3
  8
0
  6
CONTINUOUS
 10
581.12752943522707
 20
289.57190887176341
 30
0.0
 11
580.75741185092897
 21
290.14283350999148
 31
0.0
  0
LINE
  5
1A4
  8
0
  6
CONTINUOUS
 10
577.41896609193066
 20
295.29255083784761
 30
0.0
 11
577.04884850763017
 21
295.86347547608102
 31
0.0
  0
LINE
  5
1A5
  8
0
  6
CONTINUOUS
 10
577.04884850763017
 20
295.86347547608102
 30
0.0
 11
482.38355981318358
 21
363.22990790053348
 31
0.0
  0
LINE
  5
1A6
  8
0
  6
CONTINUOUS
 10
49.994457110677097
 20
303.53243901585512
 30
0.0
 11
26.617409959438209
 21
298.4319923646533
 31
0.0
  0
LINE
  5
1A7
  8
0
  6
CONTINUOUS
 10
26.617409959370448
 20
298.43199236463852
 30
0.0
 11
56.071793417114201
 21
163.43273484998269
 31
0.0
  0
ARC
  5
1A8
  8
0
  6
CONTINUOUS
 10
191.67782207926729
 20
367.53160195269152
 30
0.0
 40
22.1990184160911
 50
87.828500388220775
 51
174.21222837933109
  0
ARC
  5
1A9
  8
0
  6
CONTINUOUS
 10
467.1179012625841
 20
374.714678984258
 30
0.0
 40
15.000000000000179
 50
342.07763158799679
 51
90.0
  0
ARC
  5
1AA
  8
0
 10
295.10985895819471
 20
51.089936300617978
 30
0.0
 40
17.860251149483531
 50
324.56329541377607
 51
144.5632954137761
  0
LINE
  5
1AB
  8
0
 10
163.59196861698419
 20
69.714678984257901
 30
0.0
 11
166.59196861698419
 21
79.714678984257915
 31
0.0
  0
LINE
  5
1AC
  8
0
 10
166.59196861698419
 20
79.714678984257915
 30
0.0
 11
169.59196861698419
 21
69.714678984257901
 31
0.0
  0
LINE
  5
1AD
  8
0
 10
163.5919686169843
 20
364.7146789842584
 30
0.0
 11
166.5919686169843
 21
354.71467898425828
 31
0.0
  0
LINE
  5
1AE
  8
0
 10
166.5919686169843
 20
354.71467898425828
 30
0.0
 11
169.59196861698521
 21
369.77023892202828
 31
0.0
  0
LINE
  5
1AF
  8
0
 10
477.49502062252088
 20
366.7087273240391
 30
0.0
 11
474.1412578453332
 21
356.8217522945227
 31
0.0
  0
LINE
  5
1B0
  8
0
 10
474.1412578453332
 20
356.8217522945227
 30
0.0
 11
482.38355981318358
 21
363.22990790053348
 31
0.0
  0
LINE
  5
1B1
  8
0
 10
477.49502062252088
 20
366.7087273240391
 30
0.0
 11
481.39001634145433
 21
370.0987574971129
 31
0.0
  0
LINE
  5
1B2
  8
0
 10
577.41896609193066
 20
295.29255083784722
 30
0.0
 11
572.91892414687629
 21
286.52883845335668
 31
0.0
  0
LINE
  5
1B3
  8
0
 10
572.91892414687629
 20
286.52883845335668
 30
0.0
 11
580.75741185092988
 21
290.14283350999182
 31
0.0
  0
LINE
  5
1B4
  8
0
 10
267.08443817517298
 20
71.03359929887641
 30
0.0
 11
275.32674014300261
 21
77.44175490485928
 31
0.0
  0
LINE
  5
1B5
  8
0
 10
275.32674014300261
 20
77.44175490485928
 30
0.0
 11
271.9729773658313
 21
67.554779875365597
 31
0.0
  0
LINE
  5
1B6
  8
0
 10
320.04181468905608
 20
33.536239088996354
 30
0.0
 11
329.56735071487901
 21
38.842639250596697
 31
0.0
  0
LINE
  5
1B7
  8
0
 10
329.56735071487901
 20
38.842639250596697
 30
0.0
 11
325.30845125677058
 21
31.763297134453911
 31
0.0
  0
LINE
  5
1B8
  8
0
 10
49.994457110675292
 20
303.53243901585512
 30
0.0
 11
55.057175147080692
 21
294.4017826274096
 31
0.0
  0
LINE
  5
1B9
  8
0
 10
55.057175147080692
 20
294.4017826274096
 30
0.0
 11
55.856551679134121
 21
304.81144146716082
 31
0.0
  0
LINE
  5
1BA
  8
0
 10
55.856551679134121
 20
304.81144146716082
 30
0.0
 11
51.886494564018932
 21
308.93406863306632
 31
0.0
  0
LINE
  5
1BB
  8
0
 10
79.448840568399234
 20
168.53318150121191
 30
0.0
 11
80.248217100461744
 21
178.942840340967
 31
0.0
  0
LINE
  5
1BC
  8
0
 10
80.248217100461744
 20
178.942840340967
 30
0.0
 11
85.370783477078945
 21
169.53787905983469
 31
0.0
  0
LINE
  5
1BD
  8
0
 10
85.370783477078945
 20
169.53787905983469
 30
0.0
 11
84.071587791038411
 21
161.4190580091435
 31
0.0
  0
LINE
  5
307
  8
0
 10
366.37716456400437
 20
37.685249604321299
 30
0.0
 11
325.30845125677058
 21
31.7632971344539
 31
0.0
  0
LINE
  5
400
  8
0
 10
104.0798159419105
 20
69.714678984262818
 30
0.0
 11
163.59196861698419
 21
69.714678984257901
 31
0.0
  0
ENDSEC
  0
EOF
