  0
SECTION
  2
HEADER
  9
$ACADVER
  1
AC1014
  9
$ACADMAINTVER
 70
     9
  9
$DWGCODEPAGE
  3
ANSI_1252
  9
$INSBASE
 10
0.0
 20
0.0
 30
0.0
  9
$EXTMIN
 10
-73.58600269179021
 20
66.32745625841184
 30
0.0
  9
$EXTMAX
 10
1090.413573876813
 20
453.1773178975999
 30
31.83440005694779
  9
$LIMMIN
 10
0.0
 20
0.0
  9
$LIMMAX
 10
420.0
 20
297.0
  9
$ORTHOMODE
 70
     0
  9
$REGENMODE
 70
     1
  9
$FILLMODE
 70
     1
  9
$QTEXTMODE
 70
     0
  9
$MIRRTEXT
 70
     0
  9
$DRAGMODE
 70
     2
  9
$LTSCALE
 40
1.0
  9
$OSMODE
 70
  1023
  9
$ATTMODE
 70
     1
  9
$TEXTSIZE
 40
2.5
  9
$TRACEWID
 40
1.0
  9
$TEXTSTYLE
  7
STANDARD
  9
$CLAYER
  8
0
  9
$CELTYPE
  6
BYLAYER
  9
$CECOLOR
 62
   256
  9
$CELTSCALE
 40
1.0
  9
$DELOBJ
 70
     1
  9
$DISPSILH
 70
     0
  9
$DIMSCALE
 40
1.0
  9
$DIMASZ
 40
2.5
  9
$DIMEXO
 40
0.625
  9
$DIMDLI
 40
3.75
  9
$DIMRND
 40
0.0
  9
$DIMDLE
 40
0.0
  9
$DIMEXE
 40
1.25
  9
$DIMTP
 40
0.0
  9
$DIMTM
 40
0.0
  9
$DIMTXT
 40
2.5
  9
$DIMCEN
 40
-2.5
  9
$DIMTSZ
 40
0.0
  9
$DIMTOL
 70
     0
  9
$DIMLIM
 70
     0
  9
$DIMTIH
 70
     0
  9
$DIMTOH
 70
     0
  9
$DIMSE1
 70
     0
  9
$DIMSE2
 70
     0
  9
$DIMTAD
 70
     1
  9
$DIMZIN
 70
     8
  9
$DIMBLK
  1

  9
$DIMASO
 70
     1
  9
$DIMSHO
 70
     1
  9
$DIMPOST
  1

  9
$DIMAPOST
  1

  9
$DIMALT
 70
     0
  9
$DIMALTD
 70
     3
  9
$DIMALTF
 40
0.03937007874016
  9
$DIMLFAC
 40
1.0
  9
$DIMTOFL
 70
     1
  9
$DIMTVP
 40
0.0
  9
$DIMTIX
 70
     0
  9
$DIMSOXD
 70
     0
  9
$DIMSAH
 70
     0
  9
$DIMBLK1
  1

  9
$DIMBLK2
  1

  9
$DIMSTYLE
  2
ISO-25
  9
$DIMCLRD
 70
     0
  9
$DIMCLRE
 70
     0
  9
$DIMCLRT
 70
     0
  9
$DIMTFAC
 40
1.0
  9
$DIMGAP
 40
0.625
  9
$DIMJUST
 70
     0
  9
$DIMSD1
 70
     0
  9
$DIMSD2
 70
     0
  9
$DIMTOLJ
 70
     0
  9
$DIMTZIN
 70
     8
  9
$DIMALTZ
 70
     0
  9
$DIMALTTZ
 70
     0
  9
$DIMFIT
 70
     3
  9
$DIMUPT
 70
     0
  9
$DIMUNIT
 70
     2
  9
$DIMDEC
 70
     2
  9
$DIMTDEC
 70
     2
  9
$DIMALTU
 70
     2
  9
$DIMALTTD
 70
     3
  9
$DIMTXSTY
  7
STANDARD
  9
$DIMAUNIT
 70
     0
  9
$LUNITS
 70
     2
  9
$LUPREC
 70
     3
  9
$SKETCHINC
 40
1.0
  9
$FILLETRAD
 40
10.0
  9
$AUNITS
 70
     0
  9
$AUPREC
 70
     0
  9
$MENU
  1
.
  9
$ELEVATION
 40
0.0
  9
$PELEVATION
 40
0.0
  9
$THICKNESS
 40
0.0
  9
$LIMCHECK
 70
     0
  9
$CHAMFERA
 40
10.0
  9
$CHAMFERB
 40
10.0
  9
$CHAMFERC
 40
20.0
  9
$CHAMFERD
 40
0.0
  9
$SKPOLY
 70
     0
  9
$TDCREATE
 40
2455022.720692847
  9
$TDUPDATE
 40
2459128.614005382
  9
$TDINDWG
 40
0.0004201273
  9
$TDUSRTIMER
 40
0.0004201273
  9
$USRTIMER
 70
     1
  9
$ANGBASE
 50
0.0
  9
$ANGDIR
 70
     0
  9
$PDMODE
 70
     0
  9
$PDSIZE
 40
0.0
  9
$PLINEWID
 40
0.0
  9
$COORDS
 70
     1
  9
$SPLFRAME
 70
     0
  9
$SPLINETYPE
 70
     6
  9
$SPLINESEGS
 70
     8
  9
$ATTDIA
 70
     0
  9
$ATTREQ
 70
     1
  9
$HANDLING
 70
     1
  9
$HANDSEED
  5
1E2
  9
$SURFTAB1
 70
     6
  9
$SURFTAB2
 70
     6
  9
$SURFTYPE
 70
     6
  9
$SURFU
 70
     6
  9
$SURFV
 70
     6
  9
$UCSNAME
  2

  9
$UCSORG
 10
0.0
 20
0.0
 30
0.0
  9
$UCSXDIR
 10
1.0
 20
0.0
 30
0.0
  9
$UCSYDIR
 10
0.0
 20
1.0
 30
0.0
  9
$PUCSNAME
  2

  9
$PUCSORG
 10
0.0
 20
0.0
 30
0.0
  9
$PUCSXDIR
 10
1.0
 20
0.0
 30
0.0
  9
$PUCSYDIR
 10
0.0
 20
1.0
 30
0.0
  9
$USERI1
 70
     0
  9
$USERI2
 70
     0
  9
$USERI3
 70
     0
  9
$USERI4
 70
     0
  9
$USERI5
 70
     0
  9
$USERR1
 40
0.0
  9
$USERR2
 40
0.0
  9
$USERR3
 40
0.0
  9
$USERR4
 40
0.0
  9
$USERR5
 40
0.0
  9
$WORLDVIEW
 70
     1
  9
$SHADEDGE
 70
     3
  9
$SHADEDIF
 70
    70
  9
$TILEMODE
 70
     1
  9
$MAXACTVP
 70
    64
  9
$PINSBASE
 10
0.0
 20
0.0
 30
0.0
  9
$PLIMCHECK
 70
     0
  9
$PEXTMIN
 10
1.000000000000000E+20
 20
1.000000000000000E+20
 30
1.000000000000000E+20
  9
$PEXTMAX
 10
-1.000000000000000E+20
 20
-1.000000000000000E+20
 30
-1.000000000000000E+20
  9
$PLIMMIN
 10
0.0
 20
0.0
  9
$PLIMMAX
 10
0.0
 20
0.0
  9
$UNITMODE
 70
     0
  9
$VISRETAIN
 70
     1
  9
$PLINEGEN
 70
     0
  9
$PSLTSCALE
 70
     1
  9
$TREEDEPTH
 70
  3020
  9
$PICKSTYLE
 70
     0
  9
$CMLSTYLE
  2
STANDARD
  9
$CMLJUST
 70
     0
  9
$CMLSCALE
 40
20.0
  9
$PROXYGRAPHICS
 70
     1
  9
$MEASUREMENT
 70
     1
  0
ENDSEC
  0
SECTION
  2
CLASSES
  0
CLASS
  1
ACDBDICTIONARYWDFLT
  2
AcDbDictionaryWithDefault
  3
ObjectDBX Classes
 90
        0
280
     0
281
     0
  0
CLASS
  1
VISUALSTYLE
  2
AcDbVisualStyle
  3
ObjectDBX Classes
 90
     4095
280
     0
281
     0
  0
CLASS
  1
TABLESTYLE
  2
AcDbTableStyle
  3
ObjectDBX Classes
 90
     4095
280
     0
281
     0
  0
CLASS
  1
DICTIONARYVAR
  2
AcDbDictionaryVar
  3
ObjectDBX Classes
 90
        0
280
     0
281
     0
  0
CLASS
  1
SCALE
  2
AcDbScale
  3
ObjectDBX Classes
 90
     1153
280
     0
281
     0
  0
CLASS
  1
CELLSTYLEMAP
  2
AcDbCellStyleMap
  3
ObjectDBX Classes
 90
     1152
280
     0
281
     0
  0
CLASS
  1
RASTERVARIABLES
  2
AcDbRasterVariables
  3
ISM
 90
        0
280
     0
281
     0
  0
CLASS
  1
MATERIAL
  2
AcDbMaterial
  3
ObjectDBX Classes
 90
     1153
280
     0
281
     0
  0
CLASS
  1
SUN
  2
AcDbSun
  3
SCENEOE
 90
     1153
280
     0
281
     0
  0
CLASS
  1
MLEADERSTYLE
  2
AcDbMLeaderStyle
  3
ACDB_MLEADERSTYLE_CLASS
 90
     4095
280
     0
281
     0
  0
CLASS
  1
XRECORD
  2
AcDbXrecord
  3
ObjectDBX Classes
 90
        0
280
     0
281
     0
  0
CLASS
  1
LWPOLYLINE
  2
AcDbPolyline
  3
ObjectDBX Classes
 90
        0
280
     0
281
     1
  0
CLASS
  1
HATCH
  2
AcDbHatch
  3
ObjectDBX Classes
 90
        0
280
     0
281
     1
  0
ENDSEC
  0
SECTION
  2
TABLES
  0
TABLE
  2
VPORT
  5
8
330
0
100
AcDbSymbolTable
 70
     1
  0
VPORT
  5
29
330
8
100
AcDbSymbolTableRecord
100
AcDbViewportTableRecord
  2
*ACTIVE
 70
     0
 10
0.0
 20
0.0
 11
1.0
 21
1.0
 12
488.6045134652393
 22
189.3108512786003
 13
0.0
 23
0.0
 14
10.0
 24
10.0
 15
10.0
 25
10.0
 16
0.0
 26
0.0
 36
1.0
 17
-134.1869158878504
 27
0.0
 37
0.0
 40
601.8750000000001
 41
2.091520861372813
 42
50.0
 43
0.0
 44
0.0
 50
0.0
 51
0.0
 71
    16
 72
  1000
 73
     1
 74
     3
 75
     0
 76
     0
 77
     0
 78
     0
  0
ENDTAB
  0
TABLE
  2
LTYPE
  5
5
330
0
100
AcDbSymbolTable
 70
     1
  0
LTYPE
  5
14
330
5
100
AcDbSymbolTableRecord
100
AcDbLinetypeTableRecord
  2
BYBLOCK
 70
     0
  3

 72
    65
 73
     0
 40
0.0
  0
LTYPE
  5
15
330
5
100
AcDbSymbolTableRecord
100
AcDbLinetypeTableRecord
  2
BYLAYER
 70
     0
  3

 72
    65
 73
     0
 40
0.0
  0
LTYPE
  5
16
330
5
100
AcDbSymbolTableRecord
100
AcDbLinetypeTableRecord
  2
CONTINUOUS
 70
     0
  3
Solid line
 72
    65
 73
     0
 40
0.0
  0
ENDTAB
  0
TABLE
  2
LAYER
  5
2
330
0
100
AcDbSymbolTable
 70
     1
  0
LAYER
  5
10
330
2
100
AcDbSymbolTableRecord
100
AcDbLayerTableRecord
  2
0
 70
     0
 62
     7
  6
CONTINUOUS
  0
ENDTAB
  0
TABLE
  2
STYLE
  5
3
330
0
100
AcDbSymbolTable
 70
     2
  0
STYLE
  5
11
330
3
100
AcDbSymbolTableRecord
100
AcDbTextStyleTableRecord
  2
STANDARD
 70
     0
 40
0.0
 41
1.0
 50
0.0
 71
     0
 42
2.5
  3
arial.ttf
  4

1001
ACAD
1000
Arial
1071
        0
  0
STYLE
  5
B8
330
3
100
AcDbSymbolTableRecord
100
AcDbTextStyleTableRecord
  2
ANNOTATIVE
 70
     0
 40
0.0
 41
1.0
 50
0.0
 71
     0
 42
2.5
  3
arial.ttf
  4

1001
ACAD
1000
Arial
1071
        0
1001
ACADANNOTATIVE
1000
AnnotativeData
1002
{
1070
     1
1070
     1
1002
}
  0
ENDTAB
  0
TABLE
  2
VIEW
  5
6
330
0
100
AcDbSymbolTable
 70
     0
  0
ENDTAB
  0
TABLE
  2
UCS
  5
7
330
0
100
AcDbSymbolTable
 70
     0
  0
ENDTAB
  0
TABLE
  2
APPID
  5
9
330
0
100
AcDbSymbolTable
 70
     2
  0
APPID
  5
12
330
9
100
AcDbSymbolTableRecord
100
AcDbRegAppTableRecord
  2
ACAD
 70
     0
  0
APPID
  5
B9
330
9
100
AcDbSymbolTableRecord
100
AcDbRegAppTableRecord
  2
ACADANNOTATIVE
 70
     0
  0
ENDTAB
  0
TABLE
  2
DIMSTYLE
  5
A
330
0
100
AcDbSymbolTable
 70
     7
  0
DIMSTYLE
105
27
330
A
100
AcDbSymbolTableRecord
100
AcDbDimStyleTableRecord
  2
ISO-25
 70
     0
  3

  4

  5

  6

  7

 40
1.0
 41
2.5
 42
0.625
 43
3.75
 44
1.25
 45
0.0
 46
0.0
 47
0.0
 48
0.0
140
2.5
141
-2.5
142
0.0
143
0.03937007874016
144
1.0
145
0.0
146
1.0
147
0.625
 71
     0
 72
     0
 73
     0
 74
     0
 75
     0
 76
     0
 77
     1
 78
     8
170
     0
171
     3
172
     1
173
     0
174
     0
175
     0
176
     0
177
     0
178
     0
270
     2
271
     2
272
     2
273
     2
274
     3
340
11
275
     0
280
     0
281
     0
282
     0
283
     0
284
     8
285
     0
286
     0
287
     3
288
     0
  0
DIMSTYLE
105
BA
330
A
100
AcDbSymbolTableRecord
100
AcDbDimStyleTableRecord
  2
ANNOTATIVE
 70
     0
  3

  4

  5

  6

  7

 40
0.0
 41
2.5
 42
0.625
 43
3.75
 44
1.25
 45
0.0
 46
0.0
 47
0.0
 48
0.0
140
2.5
141
-2.5
142
0.0
143
0.03937007874016
144
1.0
145
0.0
146
1.0
147
0.625
 71
     0
 72
     0
 73
     0
 74
     0
 75
     0
 76
     0
 77
     1
 78
     8
170
     0
171
     3
172
     1
173
     0
174
     0
175
     0
176
     0
177
     0
178
     0
270
     2
271
     2
272
     2
273
     2
274
     3
340
11
275
     0
280
     0
281
     0
282
     0
283
     0
284
     8
285
     0
286
     0
287
     3
288
     0
1001
ACADANNOTATIVE
1000
AnnotativeData
1002
{
1070
     1
1070
     1
1002
}
  0
DIMSTYLE
105
BE
330
A
100
AcDbSymbolTableRecord
100
AcDbDimStyleTableRecord
  2
STANDARD
 70
     0
  3

  4

  5

  6

  7

 40
1.0
 41
0.18
 42
0.0625
 43
0.38
 44
0.18
 45
0.0
 46
0.0
 47
0.0
 48
0.0
140
0.18
141
0.09
142
0.0
143
25.4
144
1.0
145
0.0
146
1.0
147
0.09
 71
     0
 72
     0
 73
     1
 74
     1
 75
     0
 76
     0
 77
     0
 78
     0
170
     0
171
     2
172
     0
173
     0
174
     0
175
     0
176
     0
177
     0
178
     0
270
     2
271
     4
272
     4
273
     2
274
     2
340
11
275
     0
280
     0
281
     0
282
     0
283
     1
284
     0
285
     0
286
     0
287
     3
288
     0
  0
DIMSTYLE
105
C0
330
A
100
AcDbSymbolTableRecord
100
AcDbDimStyleTableRecord
  2
BSI-1
 70
     0
  3

  4

  5
CLOSED
  6

  7

 40
1.0
 41
2.5
 42
0.625
 43
3.75
 44
1.25
 45
0.0
 46
0.0
 47
0.0
 48
0.0
140
2.5
141
2.5
142
0.0
143
0.03937007874016
144
1.0
145
0.0
146
1.0
147
0.625
 71
     0
 72
     0
 73
     0
 74
     0
 75
     0
 76
     0
 77
     1
 78
     8
170
     0
171
     3
172
     1
173
     0
174
     0
175
     0
176
     0
177
     0
178
     0
270
     2
271
     4
272
     4
273
     2
274
     2
340
11
275
     0
280
     0
281
     0
282
     0
283
     1
284
     0
285
     0
286
     0
287
     3
288
     0
  0
DIMSTYLE
105
C9
330
A
100
AcDbSymbolTableRecord
100
AcDbDimStyleTableRecord
  2
COPIA_DI_ISO-252
 70
     0
  3

  4

  5

  6

  7

 40
1.0
 41
20.0
 42
16.0
 43
3.75
 44
1.25
 45
0.0
 46
0.0
 47
0.0
 48
0.0
140
30.0
141
2.5
142
0.0
143
0.0393700787
144
1.0
145
0.0
146
1.0
147
10.0
 71
     0
 72
     0
 73
     0
 74
     0
 75
     0
 76
     0
 77
     1
 78
     8
170
     0
171
     3
172
     1
173
     0
174
     0
175
     0
176
     0
177
     0
178
     0
270
     2
271
     4
272
     4
273
     2
274
     2
340
11
275
     0
280
     0
281
     0
282
     0
283
     1
284
     0
285
     0
286
     0
287
     3
288
     0
  0
DIMSTYLE
105
CA
330
A
100
AcDbSymbolTableRecord
100
AcDbDimStyleTableRecord
  2
COPIA_DI_ISO-251
 70
     0
  3

  4

  5

  6

  7

 40
1.0
 41
20.0
 42
16.0
 43
3.75
 44
1.25
 45
0.0
 46
0.0
 47
0.0
 48
0.0
140
30.0
141
2.5
142
0.0
143
0.0393700787
144
1.0
145
0.0
146
1.0
147
10.0
 71
     0
 72
     0
 73
     0
 74
     0
 75
     0
 76
     0
 77
     1
 78
     8
170
     0
171
     3
172
     1
173
     0
174
     0
175
     0
176
     0
177
     0
178
     0
270
     2
271
     4
272
     4
273
     2
274
     2
340
11
275
     0
280
     0
281
     0
282
     0
283
     1
284
     0
285
     0
286
     0
287
     3
288
     0
  0
DIMSTYLE
105
CB
330
A
100
AcDbSymbolTableRecord
100
AcDbDimStyleTableRecord
  2
NOSTRE_QUOTE
 70
     0
  3

  4

  5

  6

  7

 40
1.0
 41
20.0
 42
5.0
 43
3.75
 44
5.0
 45
0.0
 46
0.0
 47
0.0
 48
0.0
140
40.0
141
2.5
142
0.0
143
0.03937007874016
144
1.0
145
0.0
146
1.0
147
10.0
 71
     0
 72
     0
 73
     0
 74
     0
 75
     0
 76
     0
 77
     1
 78
     8
170
     0
171
     3
172
     1
173
     0
174
     0
175
     0
176
     0
177
     0
178
     0
270
     2
271
     4
272
     4
273
     2
274
     2
340
11
275
     0
280
     0
281
     0
282
     0
283
     1
284
     0
285
     0
286
     0
287
     3
288
     0
  0
ENDTAB
  0
TABLE
  2
BLOCK_RECORD
  5
1
330
0
100
AcDbSymbolTable
 70
     2
  0
BLOCK_RECORD
  5
1F
330
1
100
AcDbSymbolTableRecord
100
AcDbBlockTableRecord
  2
*MODEL_SPACE
  0
BLOCK_RECORD
  5
1B
330
1
100
AcDbSymbolTableRecord
100
AcDbBlockTableRecord
  2
*PAPER_SPACE
  0
BLOCK_RECORD
  5
23
330
1
100
AcDbSymbolTableRecord
100
AcDbBlockTableRecord
  2
*PAPER_SPACE0
  0
BLOCK_RECORD
  5
C1
330
1
100
AcDbSymbolTableRecord
100
AcDbBlockTableRecord
  2
_CLOSED
  0
ENDTAB
  0
ENDSEC
  0
SECTION
  2
BLOCKS
  0
BLOCK
  5
20
330
1F
100
AcDbEntity
  8
0
100
AcDbBlockBegin
  2
*MODEL_SPACE
 70
     0
 10
0.0
 20
0.0
 30
0.0
  3
*MODEL_SPACE
  1

  0
ENDBLK
  5
21
330
1F
100
AcDbEntity
  8
0
100
AcDbBlockEnd
  0
BLOCK
  5
1C
330
1B
100
AcDbEntity
 67
     1
  8
0
100
AcDbBlockBegin
  2
*PAPER_SPACE
 70
     0
 10
0.0
 20
0.0
 30
0.0
  3
*PAPER_SPACE
  1

  0
ENDBLK
  5
1D
330
1B
100
AcDbEntity
 67
     1
  8
0
100
AcDbBlockEnd
  0
BLOCK
  5
24
330
23
100
AcDbEntity
  8
0
100
AcDbBlockBegin
  2
*PAPER_SPACE0
 70
     0
 10
0.0
 20
0.0
 30
0.0
  3
*PAPER_SPACE0
  1

  0
ENDBLK
  5
25
330
23
100
AcDbEntity
  8
0
100
AcDbBlockEnd
  0
BLOCK
  5
C2
330
C1
100
AcDbEntity
  8
0
100
AcDbBlockBegin
  2
_CLOSED
 70
     0
 10
0.0
 20
0.0
 30
0.0
  3
_CLOSED
  1

  0
LINE
  5
C3
330
C1
100
AcDbEntity
  8
0
  6
BYBLOCK
 62
     0
100
AcDbLine
 10
-1.0
 20
0.166667
 30
0.0
 11
0.0
 21
0.0
 31
0.0
  0
LINE
  5
C4
330
C1
100
AcDbEntity
  8
0
  6
BYBLOCK
 62
     0
100
AcDbLine
 10
0.0
 20
0.0
 30
0.0
 11
-1.0
 21
-0.166667
 31
0.0
  0
LINE
  5
C5
330
C1
100
AcDbEntity
  8
0
  6
BYBLOCK
 62
     0
100
AcDbLine
 10
-1.0
 20
0.166667
 30
0.0
 11
-1.0
 21
-0.166667
 31
0.0
  0
LINE
  5
C6
330
C1
100
AcDbEntity
  8
0
  6
BYBLOCK
 62
     0
100
AcDbLine
 10
0.0
 20
0.0
 30
0.0
 11
-1.0
 21
0.0
 31
0.0
  0
ENDBLK
  5
C7
330
C1
100
AcDbEntity
  8
0
100
AcDbBlockEnd
  0
ENDSEC
  0
SECTION
  2
ENTITIES
  0
LINE
  5
15B
330
1F
100
AcDbEntity
  8
0
100
AcDbLine
 10
-73.58600269179021
 20
172.5286219876869
 30
0.0
 11
-73.58600269179021
 21
346.9834563061594
 31
0.0
  0
LINE
  5
15C
330
1F
100
AcDbEntity
  8
0
100
AcDbLine
 10
-73.58599449533665
 20
352.9834563061594
 30
0.0
 11
-73.5853876833238
 21
410.1701987105623
 31
0.0
  0
LINE
  5
15D
330
1F
100
AcDbEntity
  8
0
100
AcDbLine
 10
-73.58600269179021
 20
346.9834563061594
 30
0.0
 11
-63.58594166315322
 21
349.9834563061594
 31
0.0
  0
LINE
  5
15E
330
1F
100
AcDbEntity
  8
0
100
AcDbLine
 10
-63.58594166315322
 20
349.9834563061594
 30
0.0
 11
-73.58599449533665
 21
352.9834563061594
 31
0.0
  0
LINE
  5
15F
330
1F
100
AcDbEntity
  8
0
100
AcDbLine
 10
-73.58600269179021
 20
416.1773178975999
 30
0.0
 11
-63.58594166315322
 21
413.1773178975999
 31
0.0
  0
LINE
  5
160
330
1F
100
AcDbEntity
  8
0
100
AcDbLine
 10
-63.58594166315322
 20
413.1773178975999
 30
0.0
 11
-73.58600269179021
 21
410.1700137599545
 31
0.0
  0
LINE
  5
161
330
1F
100
AcDbEntity
  8
0
100
AcDbLine
 10
268.3107872573061
 20
340.2523650781367
 30
0.0
 11
288.3107872573061
 21
340.2523650781367
 31
0.0
  0
LINE
  5
162
330
1F
100
AcDbEntity
  8
0
100
AcDbLine
 10
268.3107872573061
 20
329.2523650781367
 30
0.0
 11
288.3107872573061
 21
329.2523650781367
 31
0.0
  0
ARC
  5
163
330
1F
100
AcDbEntity
  8
0
100
AcDbCircle
 10
288.3107872573061
 20
334.7523650781367
 30
0.0
 40
5.5
100
AcDbArc
 50
270.0
 51
90.0
  0
ARC
  5
164
330
1F
100
AcDbEntity
  8
0
100
AcDbCircle
 10
268.3107872573061
 20
334.7523650781367
 30
0.0
 40
5.5
100
AcDbArc
 50
90.0
 51
270.0
  0
LINE
  5
165
330
1F
100
AcDbEntity
  8
0
100
AcDbLine
 10
-73.58600269179021
 20
436.1773178975999
 30
0.0
 11
-63.58594166315322
 21
433.1773178975999
 31
0.0
  0
LINE
  5
166
330
1F
100
AcDbEntity
  8
0
100
AcDbLine
 10
-63.58594166315322
 20
433.1773178975999
 30
0.0
 11
-73.58600269179021
 21
430.1700137599545
 31
0.0
  0
LINE
  5
167
330
1F
100
AcDbEntity
  8
0
100
AcDbLine
 10
-73.58600269179021
 20
430.1700137599545
 30
0.0
 11
-73.58600269179021
 21
416.1773178975999
 31
0.0
  0
LINE
  5
168
330
1F
100
AcDbEntity
  8
0
100
AcDbLine
 10
-73.58600269179021
 20
453.1773178975999
 30
0.0
 11
-73.58600269179021
 21
436.1773178975999
 31
0.0
  0
LINE
  5
169
330
1F
100
AcDbEntity
  8
0
100
AcDbLine
 10
-73.58599449533665
 20
166.5213178500269
 30
0.0
 11
-73.5853876833238
 21
109.3345754456239
 31
0.0
  0
LINE
  5
16A
330
1F
100
AcDbEntity
  8
0
100
AcDbLine
 10
-73.58600269179021
 20
172.5213178500269
 30
0.0
 11
-63.58594166315322
 21
169.5213178500269
 31
0.0
  0
LINE
  5
16B
330
1F
100
AcDbEntity
  8
0
100
AcDbLine
 10
-63.58594166315322
 20
169.5213178500269
 30
0.0
 11
-73.58599449533665
 21
166.5213178500269
 31
0.0
  0
LINE
  5
16C
330
1F
100
AcDbEntity
  8
0
100
AcDbLine
 10
-73.58600269179021
 20
103.3274562585865
 30
0.0
 11
-63.58594166315322
 21
106.3274562585865
 31
0.0
  0
LINE
  5
16D
330
1F
100
AcDbEntity
  8
0
100
AcDbLine
 10
-63.58594166315322
 20
106.3274562585865
 30
0.0
 11
-73.58600269179021
 21
109.3347603962319
 31
0.0
  0
LINE
  5
16E
330
1F
100
AcDbEntity
  8
0
100
AcDbLine
 10
-73.58600269179021
 20
83.32745625858647
 30
0.0
 11
-63.58594166315322
 21
86.32745625858647
 31
0.0
  0
LINE
  5
16F
330
1F
100
AcDbEntity
  8
0
100
AcDbLine
 10
-63.58594166315322
 20
86.32745625858647
 30
0.0
 11
-73.58600269179021
 21
89.33476039623187
 31
0.0
  0
LINE
  5
170
330
1F
100
AcDbEntity
  8
0
100
AcDbLine
 10
-73.58600269179021
 20
89.33476039623187
 30
0.0
 11
-73.58600269179021
 21
103.3274562585865
 31
0.0
  0
LINE
  5
171
330
1F
100
AcDbEntity
  8
0
100
AcDbLine
 10
-73.58600269179021
 20
66.32745625858647
 30
0.0
 11
-73.58600269179021
 21
83.32745625858647
 31
0.0
  0
CIRCLE
  5
172
330
1F
100
AcDbEntity
  8
0
100
AcDbCircle
 10
-61.58600269179021
 20
96.33110832740189
 30
0.0
 40
2.5
  0
CIRCLE
  5
173
330
1F
100
AcDbEntity
  8
0
100
AcDbCircle
 10
-61.58600269179021
 20
423.1736658287699
 30
0.0
 40
2.5
  0
CIRCLE
  5
174
330
1F
100
AcDbEntity
  8
0
100
AcDbCircle
 10
-61.58600269179021
 20
336.035608256483
 30
0.0
 40
2.5
  0
CIRCLE
  5
175
330
1F
100
AcDbEntity
  8
0
100
AcDbCircle
 10
-61.58600269179021
 20
183.4691658997034
 30
0.0
 40
2.5
  0
CIRCLE
  5
176
330
1F
100
AcDbEntity
  8
0
100
AcDbCircle
 10
158.8747499428324
 20
326.119749199948
 30
0.0
 40
3.0
  0
CIRCLE
  5
177
330
1F
100
AcDbEntity
  8
0
100
AcDbCircle
 10
158.8747499428907
 20
259.619749199948
 30
0.0
 40
10.0
  0
CIRCLE
  5
178
330
1F
100
AcDbEntity
  8
0
100
AcDbCircle
 10
158.8747499428907
 20
193.1197491999481
 30
0.0
 40
3.0
  0
CIRCLE
  5
179
330
1F
100
AcDbEntity
  8
0
100
AcDbCircle
 39
31.83440005694779
 10
206.0166039840303
 20
281.8829012947533
 30
0.0
 40
3.0
  0
CIRCLE
  5
17A
330
1F
100
AcDbEntity
  8
0
100
AcDbCircle
 39
31.83440005694779
 10
206.0166039840303
 20
236.8829012947534
 30
0.0
 40
3.0
  0
LINE
  5
17B
330
1F
100
AcDbEntity
  8
0
100
AcDbLine
 39
31.83440005694779
 10
221.0166039840303
 20
265.382901294768
 30
0.0
 11
224.0166039840303
 21
265.382901294768
 31
0.0
  0
LINE
  5
17C
330
1F
100
AcDbEntity
  8
0
100
AcDbLine
 39
31.83440005694779
 10
221.0166039840303
 20
253.382901294768
 30
0.0
 11
224.0166039840303
 21
253.382901294768
 31
0.0
  0
ARC
  5
17D
330
1F
100
AcDbEntity
  8
0
100
AcDbCircle
 39
31.83440005694779
 10
221.0166039840303
 20
259.382901294768
 30
0.0
 40
6.0
100
AcDbArc
 50
90.0
 51
270.0
  0
ARC
  5
17E
330
1F
100
AcDbEntity
  8
0
100
AcDbCircle
 39
31.83440005694779
 10
224.0166039840303
 20
259.382901294768
 30
0.0
 40
6.0
100
AcDbArc
 50
270.0
 51
90.0
  0
CIRCLE
  5
17F
330
1F
100
AcDbEntity
  8
0
100
AcDbCircle
 10
421.2583859496268
 20
328.3693923937243
 30
0.0
 40
2.5
  0
CIRCLE
  5
180
330
1F
100
AcDbEntity
  8
0
100
AcDbCircle
 10
421.2583859496268
 20
345.2903610865321
 30
0.0
 40
2.5
  0
CIRCLE
  5
181
330
1F
100
AcDbEntity
  8
0
100
AcDbCircle
 10
234.8016052214413
 20
328.3693923937243
 30
0.0
 40
2.5
  0
CIRCLE
  5
182
330
1F
100
AcDbEntity
  8
0
100
AcDbCircle
 10
234.8016052214413
 20
345.2903610865321
 30
0.0
 40
2.5
  0
LINE
  5
183
330
1F
100
AcDbEntity
  8
0
100
AcDbLine
 10
268.3107872573061
 20
179.2524090780498
 30
0.0
 11
288.3107872573061
 21
179.2524090780642
 31
0.0
  0
LINE
  5
184
330
1F
100
AcDbEntity
  8
0
100
AcDbLine
 10
268.3107872573061
 20
190.2524090780498
 30
0.0
 11
288.3107872573061
 21
190.2524090780642
 31
0.0
  0
ARC
  5
185
330
1F
100
AcDbEntity
  8
0
100
AcDbCircle
 10
288.3107872573061
 20
184.7524090780642
 30
0.0
 40
5.5
100
AcDbArc
 50
270.0
 51
90.0
  0
ARC
  5
186
330
1F
100
AcDbEntity
  8
0
100
AcDbCircle
 10
268.3107872573061
 20
184.7524090780498
 30
0.0
 40
5.5
100
AcDbArc
 50
90.0
 51
270.0
  0
LINE
  5
187
330
1F
100
AcDbEntity
  8
0
100
AcDbLine
 10
295.8107872573061
 20
348.4834563061594
 30
0.0
 11
260.8107872573061
 21
348.4834563061738
 31
0.0
  0
LINE
  5
188
330
1F
100
AcDbEntity
  8
0
100
AcDbLine
 10
260.8107872573061
 20
348.4834563061738
 30
0.0
 11
260.8107872573061
 21
351.4834563061738
 31
0.0
  0
LINE
  5
189
330
1F
100
AcDbEntity
  8
0
100
AcDbLine
 10
260.8107872573061
 20
351.4834563061738
 30
0.0
 11
295.8107872573061
 21
351.4834563061594
 31
0.0
  0
LINE
  5
18A
330
1F
100
AcDbEntity
  8
0
100
AcDbLine
 10
295.8107872573061
 20
351.4834563061594
 30
0.0
 11
295.8107872573061
 21
348.4834563061594
 31
0.0
  0
LINE
  5
18B
330
1F
100
AcDbEntity
  8
0
100
AcDbLine
 10
295.8107872573061
 20
171.0286219876725
 30
0.0
 11
260.8107872573061
 21
171.0286219876578
 31
0.0
  0
LINE
  5
18C
330
1F
100
AcDbEntity
  8
0
100
AcDbLine
 10
260.8107872573061
 20
171.0286219876578
 30
0.0
 11
260.8107872573061
 21
168.0286219876578
 31
0.0
  0
LINE
  5
18D
330
1F
100
AcDbEntity
  8
0
100
AcDbLine
 10
260.8107872573061
 20
168.0286219876578
 30
0.0
 11
295.8107872573061
 21
168.0286219876725
 31
0.0
  0
LINE
  5
18E
330
1F
100
AcDbEntity
  8
0
100
AcDbLine
 10
295.8107872573061
 20
168.0286219876725
 30
0.0
 11
295.8107872573061
 21
171.0286219876725
 31
0.0
  0
LINE
  5
18F
330
1F
100
AcDbEntity
  8
0
100
AcDbLine
 10
1090.413573876755
 20
453.1773178975999
 30
0.0
 11
-73.58600269179021
 21
453.1773178975999
 31
0.0
  0
LINE
  5
190
330
1F
100
AcDbEntity
  8
0
100
AcDbLine
 10
-73.58600269179021
 20
66.32745625858647
 30
0.0
 11
1090.413573876755
 21
66.32745625858647
 31
0.0
  0
CIRCLE
  5
191
330
1F
100
AcDbEntity
  8
0
100
AcDbCircle
 10
102.7955229936967
 20
250.5138527113885
 30
0.0
 40
2.5
  0
CIRCLE
  5
192
330
1F
100
AcDbEntity
  8
0
100
AcDbCircle
 10
102.7955229936967
 20
267.4348214041963
 30
0.0
 40
2.5
  0
ARC
  5
193
330
1F
100
AcDbEntity
  8
0
100
AcDbCircle
 10
31.40959384837026
 20
239.7560391469159
 30
0.0
 40
9.5
100
AcDbArc
 50
180.0
 51
0.0
  0
ARC
  5
194
330
1F
100
AcDbEntity
  8
0
100
AcDbCircle
 10
31.40959384837026
 20
279.7560391469159
 30
0.0
 40
9.5
100
AcDbArc
 50
0.0
 51
180.0
  0
LINE
  5
195
330
1F
100
AcDbEntity
  8
0
100
AcDbLine
 10
21.90959384837026
 20
279.7560391469159
 30
0.0
 11
21.90959384837026
 21
239.7560391469159
 31
0.0
  0
LINE
  5
196
330
1F
100
AcDbEntity
  8
0
100
AcDbLine
 10
40.90959384837026
 20
279.7560391469159
 30
0.0
 11
40.90959384837026
 21
239.7560391469159
 31
0.0
  0
LINE
  5
197
330
1F
100
AcDbEntity
  8
0
100
AcDbLine
 10
3.409593848370264
 20
263.2560391469159
 30
0.0
 11
10.40959384837026
 21
263.2560391469159
 31
0.0
  0
ARC
  5
198
330
1F
100
AcDbEntity
  8
0
100
AcDbCircle
 10
10.40959384837026
 20
259.7560391469159
 30
0.0
 40
3.5
100
AcDbArc
 50
270.0
 51
90.0
  0
LINE
  5
199
330
1F
100
AcDbEntity
  8
0
100
AcDbLine
 10
3.409593848370264
 20
256.2560391469159
 30
0.0
 11
10.40959384837026
 21
256.2560391469159
 31
0.0
  0
ARC
  5
19A
330
1F
100
AcDbEntity
  8
0
100
AcDbCircle
 10
3.409593848370264
 20
259.7560391469159
 30
0.0
 40
3.5
100
AcDbArc
 50
90.0
 51
270.0
  0
LINE
  5
19B
330
1F
100
AcDbEntity
  8
0
100
AcDbLine
 10
52.40959384837026
 20
263.2560391469159
 30
0.0
 11
59.40959384837026
 21
263.2560391469159
 31
0.0
  0
ARC
  5
19C
330
1F
100
AcDbEntity
  8
0
100
AcDbCircle
 10
52.40959384837026
 20
259.7560391469159
 30
0.0
 40
3.5
100
AcDbArc
 50
90.0
 51
270.0
  0
LINE
  5
19D
330
1F
100
AcDbEntity
  8
0
100
AcDbLine
 10
52.40959384837026
 20
256.2560391469159
 30
0.0
 11
59.40959384837026
 21
256.2560391469159
 31
0.0
  0
ARC
  5
19E
330
1F
100
AcDbEntity
  8
0
100
AcDbCircle
 10
59.40959384837026
 20
259.7560391469159
 30
0.0
 40
3.5
100
AcDbArc
 50
270.0
 51
90.0
  0
LINE
  5
19F
330
1F
100
AcDbEntity
  8
0
100
AcDbLine
 10
1090.413573876696
 20
172.5286219875123
 30
0.0
 11
1090.413573876755
 21
346.9834563059846
 31
0.0
  0
LINE
  5
1A0
330
1F
100
AcDbEntity
  8
0
100
AcDbLine
 10
1090.413565680301
 20
352.9834563059846
 30
0.0
 11
1090.412958868346
 21
410.1701987103878
 31
0.0
  0
LINE
  5
1A1
330
1F
100
AcDbEntity
  8
0
100
AcDbLine
 10
1090.413573876755
 20
346.9834563059846
 30
0.0
 11
1080.413512848118
 21
349.9834563059846
 31
0.0
  0
LINE
  5
1A2
330
1F
100
AcDbEntity
  8
0
100
AcDbLine
 10
1080.413512848118
 20
349.9834563059846
 30
0.0
 11
1090.413565680301
 21
352.9834563059846
 31
0.0
  0
LINE
  5
1A3
330
1F
100
AcDbEntity
  8
0
100
AcDbLine
 10
1090.413573876813
 20
416.1773178974253
 30
0.0
 11
1080.413512848176
 21
413.1773178974253
 31
0.0
  0
LINE
  5
1A4
330
1F
100
AcDbEntity
  8
0
100
AcDbLine
 10
1080.413512848176
 20
413.1773178974253
 30
0.0
 11
1090.413573876813
 21
410.1700137597799
 31
0.0
  0
LINE
  5
1A5
330
1F
100
AcDbEntity
  8
0
100
AcDbLine
 10
748.5167839276588
 20
340.2523650780494
 30
0.0
 11
728.5167839276588
 21
340.2523650780638
 31
0.0
  0
LINE
  5
1A6
330
1F
100
AcDbEntity
  8
0
100
AcDbLine
 10
748.5167839276588
 20
329.2523650780494
 30
0.0
 11
728.5167839276588
 21
329.2523650780638
 31
0.0
  0
ARC
  5
1A7
330
1F
100
AcDbEntity
  8
0
100
AcDbCircle
 10
728.5167839276588
 20
334.7523650780638
 30
0.0
 40
5.5
100
AcDbArc
 50
90.0
 51
270.0
  0
ARC
  5
1A8
330
1F
100
AcDbEntity
  8
0
100
AcDbCircle
 10
748.5167839276588
 20
334.7523650780494
 30
0.0
 40
5.5
100
AcDbArc
 50
270.0
 51
90.0
  0
LINE
  5
1A9
330
1F
100
AcDbEntity
  8
0
100
AcDbLine
 10
1090.413573876813
 20
436.1773178974253
 30
0.0
 11
1080.413512848176
 21
433.1773178974253
 31
0.0
  0
LINE
  5
1AA
330
1F
100
AcDbEntity
  8
0
100
AcDbLine
 10
1080.413512848176
 20
433.1773178974253
 30
0.0
 11
1090.413573876813
 21
430.1700137597799
 31
0.0
  0
LINE
  5
1AB
330
1F
100
AcDbEntity
  8
0
100
AcDbLine
 10
1090.413573876813
 20
430.1700137597799
 30
0.0
 11
1090.413573876813
 21
416.1773178974253
 31
0.0
  0
LINE
  5
1AC
330
1F
100
AcDbEntity
  8
0
100
AcDbLine
 10
1090.413573876813
 20
453.1773178974253
 30
0.0
 11
1090.413573876813
 21
436.1773178974253
 31
0.0
  0
LINE
  5
1AD
330
1F
100
AcDbEntity
  8
0
100
AcDbLine
 10
1090.413565680243
 20
166.5213178498524
 30
0.0
 11
1090.41295886823
 21
109.3345754454493
 31
0.0
  0
LINE
  5
1AE
330
1F
100
AcDbEntity
  8
0
100
AcDbLine
 10
1090.413573876696
 20
172.5213178498524
 30
0.0
 11
1080.413512848059
 21
169.5213178498524
 31
0.0
  0
LINE
  5
1AF
330
1F
100
AcDbEntity
  8
0
100
AcDbLine
 10
1080.413512848059
 20
169.5213178498524
 30
0.0
 11
1090.413565680243
 21
166.5213178498524
 31
0.0
  0
LINE
  5
1B0
330
1F
100
AcDbEntity
  8
0
100
AcDbLine
 10
1090.413573876696
 20
103.3274562584118
 30
0.0
 11
1080.413512848059
 21
106.3274562584118
 31
0.0
  0
LINE
  5
1B1
330
1F
100
AcDbEntity
  8
0
100
AcDbLine
 10
1080.413512848059
 20
106.3274562584118
 30
0.0
 11
1090.413573876696
 21
109.3347603960572
 31
0.0
  0
LINE
  5
1B2
330
1F
100
AcDbEntity
  8
0
100
AcDbLine
 10
1090.413573876696
 20
83.32745625841184
 30
0.0
 11
1080.413512848059
 21
86.32745625841184
 31
0.0
  0
LINE
  5
1B3
330
1F
100
AcDbEntity
  8
0
100
AcDbLine
 10
1080.413512848059
 20
86.32745625841184
 30
0.0
 11
1090.413573876696
 21
89.33476039605725
 31
0.0
  0
LINE
  5
1B4
330
1F
100
AcDbEntity
  8
0
100
AcDbLine
 10
1090.413573876696
 20
89.33476039605725
 30
0.0
 11
1090.413573876696
 21
103.3274562584118
 31
0.0
  0
LINE
  5
1B5
330
1F
100
AcDbEntity
  8
0
100
AcDbLine
 10
1090.413573876696
 20
66.32745625841184
 30
0.0
 11
1090.413573876696
 21
83.32745625841184
 31
0.0
  0
CIRCLE
  5
1B6
330
1F
100
AcDbEntity
  8
0
100
AcDbCircle
 10
1078.413573876696
 20
96.33110832722727
 30
0.0
 40
2.5
  0
CIRCLE
  5
1B7
330
1F
100
AcDbEntity
  8
0
100
AcDbCircle
 10
1078.413573876813
 20
423.1736658285953
 30
0.0
 40
2.5
  0
CIRCLE
  5
1B8
330
1F
100
AcDbEntity
  8
0
100
AcDbCircle
 10
1078.413573876755
 20
336.0356082563084
 30
0.0
 40
2.5
  0
CIRCLE
  5
1B9
330
1F
100
AcDbEntity
  8
0
100
AcDbCircle
 10
1078.413573876696
 20
183.4691658995288
 30
0.0
 40
2.5
  0
CIRCLE
  5
1BA
330
1F
100
AcDbEntity
  8
0
100
AcDbCircle
 10
857.9528212421325
 20
326.1197491998316
 30
0.0
 40
3.0
  0
CIRCLE
  5
1BB
330
1F
100
AcDbEntity
  8
0
100
AcDbCircle
 10
857.9528212420743
 20
259.6197491998316
 30
0.0
 40
10.0
  0
CIRCLE
  5
1BC
330
1F
100
AcDbEntity
  8
0
100
AcDbCircle
 10
857.9528212420743
 20
193.1197491998317
 30
0.0
 40
3.0
  0
CIRCLE
  5
1BD
330
1F
100
AcDbEntity
  8
0
100
AcDbCircle
 39
31.83440005694779
 10
810.8109672009347
 20
281.8829012946514
 30
0.0
 40
3.0
  0
CIRCLE
  5
1BE
330
1F
100
AcDbEntity
  8
0
100
AcDbCircle
 39
31.83440005694779
 10
810.8109672009347
 20
236.8829012946515
 30
0.0
 40
3.0
  0
LINE
  5
1BF
330
1F
100
AcDbEntity
  8
0
100
AcDbLine
 39
31.83440005694779
 10
795.8109672009347
 20
265.3829012946662
 30
0.0
 11
792.8109672009347
 21
265.3829012946662
 31
0.0
  0
LINE
  5
1C0
330
1F
100
AcDbEntity
  8
0
100
AcDbLine
 39
31.83440005694779
 10
795.8109672009347
 20
253.3829012946662
 30
0.0
 11
792.8109672009347
 21
253.3829012946662
 31
0.0
  0
ARC
  5
1C1
330
1F
100
AcDbEntity
  8
0
100
AcDbCircle
 39
31.83440005694779
 10
795.8109672009347
 20
259.3829012946662
 30
0.0
 40
6.0
100
AcDbArc
 50
270.0
 51
90.0
  0
ARC
  5
1C2
330
1F
100
AcDbEntity
  8
0
100
AcDbCircle
 39
31.83440005694779
 10
792.8109672009347
 20
259.3829012946662
 30
0.0
 40
6.0
100
AcDbArc
 50
90.0
 51
270.0
  0
CIRCLE
  5
1C3
330
1F
100
AcDbEntity
  8
0
100
AcDbCircle
 10
595.5691852353381
 20
328.3693923936805
 30
0.0
 40
2.5
  0
CIRCLE
  5
1C4
330
1F
100
AcDbEntity
  8
0
100
AcDbCircle
 10
595.5691852353381
 20
345.2903610864886
 30
0.0
 40
2.5
  0
CIRCLE
  5
1C5
330
1F
100
AcDbEntity
  8
0
100
AcDbCircle
 10
782.0259659635236
 20
328.369392393637
 30
0.0
 40
2.5
  0
CIRCLE
  5
1C6
330
1F
100
AcDbEntity
  8
0
100
AcDbCircle
 10
782.0259659635236
 20
345.2903610864448
 30
0.0
 40
2.5
  0
LINE
  5
1C7
330
1F
100
AcDbEntity
  8
0
100
AcDbLine
 10
748.5167839276006
 20
179.2524090779624
 30
0.0
 11
728.5167839276006
 21
179.2524090779915
 31
0.0
  0
LINE
  5
1C8
330
1F
100
AcDbEntity
  8
0
100
AcDbLine
 10
748.5167839276588
 20
190.2524090779624
 30
0.0
 11
728.5167839276588
 21
190.2524090779915
 31
0.0
  0
ARC
  5
1C9
330
1F
100
AcDbEntity
  8
0
100
AcDbCircle
 10
728.5167839276006
 20
184.7524090779915
 30
0.0
 40
5.5
100
AcDbArc
 50
89.99999999939364
 51
270.0
  0
ARC
  5
1CA
330
1F
100
AcDbEntity
  8
0
100
AcDbCircle
 10
748.5167839276006
 20
184.7524090779624
 30
0.0
 40
5.5
100
AcDbArc
 50
270.0
 51
89.99999999939364
  0
LINE
  5
1CB
330
1F
100
AcDbEntity
  8
0
100
AcDbLine
 10
721.0167839276588
 20
348.4834563060865
 30
0.0
 11
756.0167839276588
 21
348.4834563060865
 31
0.0
  0
LINE
  5
1CC
330
1F
100
AcDbEntity
  8
0
100
AcDbLine
 10
756.0167839276588
 20
348.4834563060865
 30
0.0
 11
756.0167839276588
 21
351.4834563060865
 31
0.0
  0
LINE
  5
1CD
330
1F
100
AcDbEntity
  8
0
100
AcDbLine
 10
756.0167839276588
 20
351.4834563060865
 30
0.0
 11
721.0167839276588
 21
351.4834563060865
 31
0.0
  0
LINE
  5
1CE
330
1F
100
AcDbEntity
  8
0
100
AcDbLine
 10
721.0167839276588
 20
351.4834563060865
 30
0.0
 11
721.0167839276588
 21
348.4834563060865
 31
0.0
  0
LINE
  5
1CF
330
1F
100
AcDbEntity
  8
0
100
AcDbLine
 10
721.0167839276006
 20
171.0286219875996
 30
0.0
 11
756.0167839276006
 21
171.0286219875705
 31
0.0
  0
LINE
  5
1D0
330
1F
100
AcDbEntity
  8
0
100
AcDbLine
 10
756.0167839276006
 20
171.0286219875705
 30
0.0
 11
756.0167839276006
 21
168.0286219875705
 31
0.0
  0
LINE
  5
1D1
330
1F
100
AcDbEntity
  8
0
100
AcDbLine
 10
756.0167839276006
 20
168.0286219875705
 30
0.0
 11
721.0167839276006
 21
168.0286219875996
 31
0.0
  0
LINE
  5
1D2
330
1F
100
AcDbEntity
  8
0
100
AcDbLine
 10
721.0167839276006
 20
168.0286219875996
 30
0.0
 11
721.0167839276006
 21
171.0286219875996
 31
0.0
  0
CIRCLE
  5
1D3
330
1F
100
AcDbEntity
  8
0
100
AcDbCircle
 10
914.0320481912685
 20
250.5138527112575
 30
0.0
 40
2.5
  0
CIRCLE
  5
1D4
330
1F
100
AcDbEntity
  8
0
100
AcDbCircle
 10
914.0320481912685
 20
267.4348214040655
 30
0.0
 40
2.5
  0
ARC
  5
1D5
330
1F
100
AcDbEntity
  8
0
100
AcDbCircle
 10
985.4179773365943
 20
239.7560391467704
 30
0.0
 40
9.5
100
AcDbArc
 50
180.0
 51
0.0
  0
ARC
  5
1D6
330
1F
100
AcDbEntity
  8
0
100
AcDbCircle
 10
985.4179773365943
 20
279.7560391467704
 30
0.0
 40
9.5
100
AcDbArc
 50
0.0
 51
180.0
  0
LINE
  5
1D7
330
1F
100
AcDbEntity
  8
0
100
AcDbLine
 10
994.9179773365943
 20
279.7560391467704
 30
0.0
 11
994.9179773365943
 21
239.7560391467704
 31
0.0
  0
LINE
  5
1D8
330
1F
100
AcDbEntity
  8
0
100
AcDbLine
 10
975.9179773365943
 20
279.7560391467704
 30
0.0
 11
975.9179773365943
 21
239.7560391467704
 31
0.0
  0
LINE
  5
1D9
330
1F
100
AcDbEntity
  8
0
100
AcDbLine
 10
1013.417977336594
 20
263.2560391467558
 30
0.0
 11
1006.417977336594
 21
263.2560391467704
 31
0.0
  0
ARC
  5
1DA
330
1F
100
AcDbEntity
  8
0
100
AcDbCircle
 10
1006.417977336594
 20
259.7560391467704
 30
0.0
 40
3.5
100
AcDbArc
 50
90.0
 51
270.0
  0
LINE
  5
1DB
330
1F
100
AcDbEntity
  8
0
100
AcDbLine
 10
1013.417977336594
 20
256.2560391467558
 30
0.0
 11
1006.417977336594
 21
256.2560391467704
 31
0.0
  0
ARC
  5
1DC
330
1F
100
AcDbEntity
  8
0
100
AcDbCircle
 10
1013.417977336594
 20
259.7560391467558
 30
0.0
 40
3.5
100
AcDbArc
 50
270.0
 51
90.0
  0
LINE
  5
1DD
330
1F
100
AcDbEntity
  8
0
100
AcDbLine
 10
964.4179773365943
 20
263.2560391467704
 30
0.0
 11
957.4179773365943
 21
263.2560391467849
 31
0.0
  0
ARC
  5
1DE
330
1F
100
AcDbEntity
  8
0
100
AcDbCircle
 10
964.4179773365943
 20
259.7560391467704
 30
0.0
 40
3.5
100
AcDbArc
 50
270.0
 51
90.0
  0
LINE
  5
1DF
330
1F
100
AcDbEntity
  8
0
100
AcDbLine
 10
964.4179773365943
 20
256.2560391467704
 30
0.0
 11
957.4179773365943
 21
256.2560391467849
 31
0.0
  0
ARC
  5
1E0
330
1F
100
AcDbEntity
  8
0
100
AcDbCircle
 10
957.4179773365943
 20
259.7560391467849
 30
0.0
 40
3.5
100
AcDbArc
 50
90.0
 51
270.0
  0
ENDSEC
  0
SECTION
  2
OBJECTS
  0
DICTIONARY
  5
C
330
0
100
AcDbDictionary
  3
ACAD_DETAILVIEWSTYLE
350
B5
  3
ACAD_GROUP
350
D
  3
ACAD_IMAGE_VARS
350
6A
  3
ACAD_MLINESTYLE
350
17
  3
ACAD_SCALELIST
350
40
  3
ACAD_SECTIONVIEWSTYLE
350
B6
  3
ACDBVARIABLEDICTIONARY
350
3D
  3
APPDATA
350
71
  3
DWGPROPS
350
1E1
  0
DICTIONARY
  5
B5
102
{ACAD_REACTORS
330
C
102
}
330
C
100
AcDbDictionary
  0
DICTIONARY
  5
D
102
{ACAD_REACTORS
330
C
102
}
330
C
100
AcDbDictionary
  0
RASTERVARIABLES
  5
6A
102
{ACAD_REACTORS
330
C
102
}
330
C
100
AcDbRasterVariables
 90
        0
 70
     1
 71
     1
 72
     1
  0
DICTIONARY
  5
17
102
{ACAD_REACTORS
330
C
102
}
330
C
100
AcDbDictionary
  3
STANDARD
350
18
  0
DICTIONARY
  5
40
102
{ACAD_REACTORS
330
C
102
}
330
C
100
AcDbDictionary
  0
DICTIONARY
  5
B6
102
{ACAD_REACTORS
330
C
102
}
330
C
100
AcDbDictionary
  0
DICTIONARY
  5
3D
102
{ACAD_REACTORS
330
C
102
}
330
C
100
AcDbDictionary
  0
DICTIONARY
  5
71
102
{ACAD_REACTORS
330
C
102
}
330
C
100
AcDbDictionary
  0
XRECORD
  5
1E1
102
{ACAD_REACTORS
330
C
102
}
330
C
100
AcDbXrecord
  1
DWGPROPS COOKIE
  2

  3

  4

  6

  7

  8
Principale
  9

300
=
301
=
302
=
303
=
304
=
305
=
306
=
307
=
308
=
309
=
 40
0.0
 41
2455022.637359514
 42
2459128.530672049
  1

 90
        0
  0
MLINESTYLE
  5
18
102
{ACAD_REACTORS
330
17
102
}
330
17
100
AcDbMlineStyle
  2
Standard
 70
     0
  3

 62
   256
 51
90.0
 52
90.0
 71
     2
 49
0.5
 62
   256
  6
BYLAYER
 49
-0.5
 62
   256
  6
BYLAYER
  0
ENDSEC
  0
EOF
