  0
SECTION
  2
HEADER
  9
$ACADVER
  1
AC1009
  9
$DWGCODEPAGE
  3
ansi_1252
  9
$INSBASE
 10
0.0
 20
0.0
 30
0.0
  9
$EXTMIN
 10
5.71615548407997
 20
3.905904951144749
 30
0.0
  9
$EXTMAX
 10
458.4627907908644
 20
96.25750013391225
 30
0.0
  9
$LIMMIN
 10
0.0
 20
0.0
  9
$LIMMAX
 10
12.0
 20
9.0
  9
$ORTHOMODE
 70
     0
  9
$REGENMODE
 70
     1
  9
$FILLMODE
 70
     1
  9
$QTEXTMODE
 70
     0
  9
$MIRRTEXT
 70
     0
  9
$DRAGMODE
 70
     2
  9
$LTSCALE
 40
1.0
  9
$OSMODE
 70
  7167
  9
$ATTMODE
 70
     1
  9
$TEXTSIZE
 40
0.2
  9
$TRACEWID
 40
0.05
  9
$TEXTSTYLE
  7
STANDARD
  9
$CLAYER
  8
0
  9
$CELTYPE
  6
BYLAYER
  9
$CECOLOR
 62
   256
  9
$DIMSCALE
 40
1.0
  9
$DIMASZ
 40
0.18
  9
$DIMEXO
 40
0.0625
  9
$DIMDLI
 40
0.38
  9
$DIMRND
 40
0.0
  9
$DIMDLE
 40
0.0
  9
$DIMEXE
 40
0.18
  9
$DIMTP
 40
0.0
  9
$DIMTM
 40
0.0
  9
$DIMTXT
 40
0.18
  9
$DIMCEN
 40
0.09
  9
$DIMTSZ
 40
0.0
  9
$DIMTOL
 70
     0
  9
$DIMLIM
 70
     0
  9
$DIMTIH
 70
     1
  9
$DIMTOH
 70
     1
  9
$DIMSE1
 70
     0
  9
$DIMSE2
 70
     0
  9
$DIMTAD
 70
     0
  9
$DIMZIN
 70
     0
  9
$DIMBLK
  1

  9
$DIMASO
 70
     1
  9
$DIMSHO
 70
     1
  9
$DIMPOST
  1

  9
$DIMAPOST
  1

  9
$DIMALT
 70
     0
  9
$DIMALTD
 70
     2
  9
$DIMALTF
 40
25.4
  9
$DIMLFAC
 40
1.0
  9
$DIMTOFL
 70
     0
  9
$DIMTVP
 40
0.0
  9
$DIMTIX
 70
     0
  9
$DIMSOXD
 70
     0
  9
$DIMSAH
 70
     0
  9
$DIMBLK1
  1

  9
$DIMBLK2
  1

  9
$DIMSTYLE
  2
STANDARD
  9
$DIMCLRD
 70
     0
  9
$DIMCLRE
 70
     0
  9
$DIMCLRT
 70
     0
  9
$DIMTFAC
 40
1.0
  9
$DIMGAP
 40
0.09
  9
$LUNITS
 70
     2
  9
$LUPREC
 70
     4
  9
$SKETCHINC
 40
0.1
  9
$FILLETRAD
 40
0.0
  9
$AUNITS
 70
     0
  9
$AUPREC
 70
     0
  9
$MENU
  1
.
  9
$ELEVATION
 40
0.0
  9
$PELEVATION
 40
0.0
  9
$THICKNESS
 40
0.0
  9
$LIMCHECK
 70
     0
  9
$CHAMFERA
 40
0.0
  9
$CHAMFERB
 40
0.0
  9
$SKPOLY
 70
     0
  9
$TDCREATE
 40
2452643.105050937
  9
$TDUPDATE
 40
2457788.336840834
  9
$TDINDWG
 40
0.0004986458
  9
$TDUSRTIMER
 40
2457788.294676424
  9
$USRTIMER
 70
     1
  9
$ANGBASE
 50
0.0
  9
$ANGDIR
 70
     0
  9
$PDMODE
 70
     0
  9
$PDSIZE
 40
0.0
  9
$PLINEWID
 40
0.0
  9
$COORDS
 70
     2
  9
$SPLFRAME
 70
     0
  9
$SPLINETYPE
 70
     6
  9
$SPLINESEGS
 70
     8
  9
$ATTDIA
 70
     0
  9
$ATTREQ
 70
     1
  9
$HANDLING
 70
     1
  9
$HANDSEED
  5
1E6
  9
$SURFTAB1
 70
     6
  9
$SURFTAB2
 70
     6
  9
$SURFTYPE
 70
     6
  9
$SURFU
 70
     6
  9
$SURFV
 70
     6
  9
$UCSNAME
  2

  9
$UCSORG
 10
0.0
 20
0.0
 30
0.0
  9
$UCSXDIR
 10
1.0
 20
0.0
 30
0.0
  9
$UCSYDIR
 10
0.0
 20
1.0
 30
0.0
  9
$PUCSNAME
  2

  9
$PUCSORG
 10
0.0
 20
0.0
 30
0.0
  9
$PUCSXDIR
 10
1.0
 20
0.0
 30
0.0
  9
$PUCSYDIR
 10
0.0
 20
1.0
 30
0.0
  9
$USERI1
 70
     0
  9
$USERI2
 70
     0
  9
$USERI3
 70
     0
  9
$USERI4
 70
     0
  9
$USERI5
 70
     0
  9
$USERR1
 40
0.0
  9
$USERR2
 40
0.0
  9
$USERR3
 40
0.0
  9
$USERR4
 40
0.0
  9
$USERR5
 40
0.0
  9
$WORLDVIEW
 70
     1
  9
$SHADEDGE
 70
     3
  9
$SHADEDIF
 70
    70
  9
$TILEMODE
 70
     1
  9
$MAXACTVP
 70
    64
  9
$PLIMCHECK
 70
     0
  9
$PEXTMIN
 10
0.0
 20
0.0
 30
0.0
  9
$PEXTMAX
 10
0.0
 20
0.0
 30
0.0
  9
$PLIMMIN
 10
0.0
 20
0.0
  9
$PLIMMAX
 10
0.0
 20
0.0
  9
$UNITMODE
 70
     0
  9
$VISRETAIN
 70
     1
  9
$PLINEGEN
 70
     0
  9
$PSLTSCALE
 70
     1
  0
ENDSEC
  0
SECTION
  2
TABLES
  0
TABLE
  2
VPORT
 70
     1
  0
VPORT
  2
*ACTIVE
 70
     0
 10
0.0
 20
0.0
 11
1.0
 21
1.0
 12
131.4362036970434
 22
65.88969447710164
 13
0.0
 23
0.0
 14
0.5
 24
0.5
 15
0.5
 25
0.5
 16
0.0
 26
0.0
 36
1.0
 17
-27.66959356597985
 27
-19.53870295786202
 37
0.0
 40
569.3836764065879
 41
2.005115089514066
 42
50.0
 43
0.0
 44
0.0
 50
0.0
 51
0.0
 71
    16
 72
  1000
 73
     1
 74
     3
 75
     0
 76
     0
 77
     0
 78
     0
  0
ENDTAB
  0
TABLE
  2
LTYPE
 70
     1
  0
LTYPE
  2
CONTINUOUS
 70
     0
  3
Solid line
 72
    65
 73
     0
 40
0.0
  0
ENDTAB
  0
TABLE
  2
LAYER
 70
     1
  0
LAYER
  2
0
 70
     0
 62
     7
  6
CONTINUOUS
  0
ENDTAB
  0
TABLE
  2
STYLE
 70
     1
  0
STYLE
  2
STANDARD
 70
     0
 40
0.0
 41
1.0
 50
0.0
 71
     0
 42
0.2
  3
arial.ttf
  4

  0
ENDTAB
  0
TABLE
  2
VIEW
 70
     0
  0
ENDTAB
  0
TABLE
  2
UCS
 70
     0
  0
ENDTAB
  0
TABLE
  2
APPID
 70
     4
  0
APPID
  2
ACAD
 70
     0
  0
APPID
  2
AECBASE
 70
     0
  0
APPID
  2
AEC_2DSECTION_XDATA
 70
     0
  0
APPID
  2
AEC_MASSGROUP_XDADA
 70
     0
  0
ENDTAB
  0
TABLE
  2
DIMSTYLE
 70
     1
  0
DIMSTYLE
  2
STANDARD
 70
     0
  3

  4

  5

  6

  7

 40
1.0
 41
0.18
 42
0.0625
 43
0.38
 44
0.18
 45
0.0
 46
0.0
 47
0.0
 48
0.0
140
0.18
141
0.09
142
0.0
143
25.4
144
1.0
145
0.0
146
1.0
147
0.09
 71
     0
 72
     0
 73
     1
 74
     1
 75
     0
 76
     0
 77
     0
 78
     0
170
     0
171
     2
172
     0
173
     0
174
     0
175
     0
176
     0
177
     0
178
     0
  0
ENDTAB
  0
ENDSEC
  0
SECTION
  2
BLOCKS
  0
BLOCK
  8
0
  2
$MODEL_SPACE
 70
     0
 10
0.0
 20
0.0
 30
0.0
  3
$MODEL_SPACE
  1

  0
ENDBLK
  5
21
  8
0
  0
BLOCK
 67
     1
  8
0
  2
$PAPER_SPACE
 70
     0
 10
0.0
 20
0.0
 30
0.0
  3
$PAPER_SPACE
  1

  0
ENDBLK
  5
5B
 67
     1
  8
0
  0
ENDSEC
  0
SECTION
  2
ENTITIES
  0
CIRCLE
  5
1D4
  8
0
 10
232.0894731374649
 20
31.26742088703355
 30
0.0
 40
5.0
  0
LINE
  5
1D5
  8
0
 10
272.2557333939551
 20
59.90590495114435
 30
0.0
 11
191.923212880982
 21
59.90590495114435
 31
0.0
  0
ARC
  5
1D6
  8
0
 10
418.4627907908655
 20
56.25750013391337
 30
0.0
 40
39.99999999999888
 50
279.6222857227379
 51
106.082037673289
  0
LINE
  5
1D7
  8
0
 10
272.2557333939551
 20
59.90590495114475
 30
0.0
 11
407.382253441225
 21
94.69214195666382
 31
0.0
  0
ARC
  5
1D8
  8
0
 10
45.71615548407884
 20
56.25750013391337
 30
0.0
 40
39.99999999999888
 50
73.24214065279148
 51
260.3777142772621
  0
LINE
  5
1D9
  8
0
 10
191.9232128809893
 20
59.90590495114475
 30
0.0
 11
57.24926016046832
 21
94.55877291333184
 31
0.0
  0
LINE
  5
1DA
  8
0
 10
177.2557333939551
 20
3.905904951144749
 30
0.0
 11
287.2557333939551
 21
3.905904951144749
 31
0.0
  0
LINE
  5
1DB
  8
0
 10
176.9232128809892
 20
3.905904951144749
 30
0.0
 11
39.03006562976246
 21
16.82025628422394
 31
0.0
  0
LINE
  5
1DC
  8
0
 10
287.2557333939405
 20
3.905904951144749
 30
0.0
 11
425.1488806451746
 21
16.82025628422394
 31
0.0
  0
LINE
  5
1DD
  8
0
 10
176.9232128809892
 20
3.905904951144749
 30
0.0
 11
177.2557333939551
 21
3.905904951144749
 31
0.0
  0
LINE
  5
1DE
  8
0
 10
410.9627907908655
 20
69.50750013391337
 30
0.0
 11
425.9627907908655
 21
69.50750013391337
 31
0.0
  0
LINE
  5
1DF
  8
0
 10
410.9627907908655
 20
43.00750013391337
 30
0.0
 11
425.9627907908655
 21
43.00750013391337
 31
0.0
  0
ARC
  5
1E0
  8
0
 10
425.9627907908655
 20
56.25750013391337
 30
0.0
 40
13.25
 50
270.0
 51
90.0
  0
ARC
  5
1E1
  8
0
 10
410.9627907908655
 20
56.25750013391337
 30
0.0
 40
13.25
 50
90.0
 51
270.0
  0
LINE
  5
1E2
  8
0
 10
53.21615548406423
 20
69.50750013391337
 30
0.0
 11
38.21615548406423
 21
69.50750013391337
 31
0.0
  0
LINE
  5
1E3
  8
0
 10
53.21615548406423
 20
43.00750013391337
 30
0.0
 11
38.21615548406423
 21
43.00750013391337
 31
0.0
  0
ARC
  5
1E4
  8
0
 10
38.21615548406423
 20
56.25750013391337
 30
0.0
 40
13.25
 50
90.0
 51
270.0
  0
ARC
  5
1E5
  8
0
 10
53.21615548406423
 20
56.25750013391337
 30
0.0
 40
13.25
 50
270.0
 51
90.0
  0
ENDSEC
  0
EOF
