  0
SECTION
  2
HEADER
  9
$ACADVER
  1
AC1009
  9
$INSBASE
 10
0.0
 20
0.0
 30
0.0
  9
$EXTMIN
 10
42.298279931088111
 20
10.09462213609247
 30
0.0
  9
$EXTMAX
 10
147.4053375658674
 20
114.69868501932309
 30
0.0
  9
$LIMMIN
 10
0.0
 20
0.0
  9
$LIMMAX
 10
12.0
 20
9.0
  9
$ORTHOMODE
 70
     0
  9
$REGENMODE
 70
     1
  9
$FILLMODE
 70
     1
  9
$QTEXTMODE
 70
     0
  9
$MIRRTEXT
 70
     0
  9
$DRAGMODE
 70
     2
  9
$LTSCALE
 40
1.0
  9
$OSMODE
 70
  3071
  9
$ATTMODE
 70
     1
  9
$TEXTSIZE
 40
0.2
  9
$TRACEWID
 40
0.05
  9
$TEXTSTYLE
  7
STANDARD
  9
$CLAYER
  8
0
  9
$CELTYPE
  6
BYLAYER
  9
$CECOLOR
 62
   256
  9
$DIMSCALE
 40
1.0
  9
$DIMASZ
 40
0.18
  9
$DIMEXO
 40
0.0625
  9
$DIMDLI
 40
0.38
  9
$DIMRND
 40
0.0
  9
$DIMDLE
 40
0.0
  9
$DIMEXE
 40
0.18
  9
$DIMTP
 40
0.0
  9
$DIMTM
 40
0.0
  9
$DIMTXT
 40
0.18
  9
$DIMCEN
 40
0.09
  9
$DIMTSZ
 40
0.0
  9
$DIMTOL
 70
     0
  9
$DIMLIM
 70
     0
  9
$DIMTIH
 70
     1
  9
$DIMTOH
 70
     1
  9
$DIMSE1
 70
     0
  9
$DIMSE2
 70
     0
  9
$DIMTAD
 70
     0
  9
$DIMZIN
 70
     0
  9
$DIMBLK
  1

  9
$DIMASO
 70
     1
  9
$DIMSHO
 70
     1
  9
$DIMPOST
  1

  9
$DIMAPOST
  1

  9
$DIMALT
 70
     0
  9
$DIMALTD
 70
     2
  9
$DIMALTF
 40
25.399999999999999
  9
$DIMLFAC
 40
1.0
  9
$DIMTOFL
 70
     0
  9
$DIMTVP
 40
0.0
  9
$DIMTIX
 70
     0
  9
$DIMSOXD
 70
     0
  9
$DIMSAH
 70
     0
  9
$DIMBLK1
  1

  9
$DIMBLK2
  1

  9
$DIMSTYLE
  2
STANDARD
  9
$DIMCLRD
 70
     0
  9
$DIMCLRE
 70
     0
  9
$DIMCLRT
 70
     0
  9
$DIMTFAC
 40
1.0
  9
$DIMGAP
 40
0.09
  9
$LUNITS
 70
     2
  9
$LUPREC
 70
     4
  9
$SKETCHINC
 40
0.1
  9
$FILLETRAD
 40
0.0
  9
$AUNITS
 70
     0
  9
$AUPREC
 70
     0
  9
$MENU
  1
.
  9
$ELEVATION
 40
0.0
  9
$PELEVATION
 40
0.0
  9
$THICKNESS
 40
0.0
  9
$LIMCHECK
 70
     0
  9
$BLIPMODE
 70
     0
  9
$CHAMFERA
 40
0.0
  9
$CHAMFERB
 40
0.0
  9
$SKPOLY
 70
     0
  9
$TDCREATE
 40
2455544.5904774312
  9
$TDUPDATE
 40
2456238.4452945949
  9
$TDINDWG
 40
0.0093071759
  9
$TDUSRTIMER
 40
0.0093066319
  9
$USRTIMER
 70
     1
  9
$ANGBASE
 50
0.0
  9
$ANGDIR
 70
     0
  9
$PDMODE
 70
     0
  9
$PDSIZE
 40
0.0
  9
$PLINEWID
 40
0.0
  9
$COORDS
 70
     0
  9
$SPLFRAME
 70
     0
  9
$SPLINETYPE
 70
     6
  9
$SPLINESEGS
 70
     8
  9
$ATTDIA
 70
     0
  9
$ATTREQ
 70
     1
  9
$HANDLING
 70
     1
  9
$HANDSEED
  5
560
  9
$SURFTAB1
 70
     6
  9
$SURFTAB2
 70
     6
  9
$SURFTYPE
 70
     6
  9
$SURFU
 70
     6
  9
$SURFV
 70
     6
  9
$UCSNAME
  2

  9
$UCSORG
 10
0.0
 20
0.0
 30
0.0
  9
$UCSXDIR
 10
1.0
 20
0.0
 30
0.0
  9
$UCSYDIR
 10
0.0
 20
1.0
 30
0.0
  9
$PUCSNAME
  2

  9
$PUCSORG
 10
0.0
 20
0.0
 30
0.0
  9
$PUCSXDIR
 10
1.0
 20
0.0
 30
0.0
  9
$PUCSYDIR
 10
0.0
 20
1.0
 30
0.0
  9
$USERI1
 70
     0
  9
$USERI2
 70
     0
  9
$USERI3
 70
     0
  9
$USERI4
 70
     0
  9
$USERI5
 70
     0
  9
$USERR1
 40
0.0
  9
$USERR2
 40
0.0
  9
$USERR3
 40
0.0
  9
$USERR4
 40
0.0
  9
$USERR5
 40
0.0
  9
$WORLDVIEW
 70
     1
  9
$SHADEDGE
 70
     3
  9
$SHADEDIF
 70
    70
  9
$TILEMODE
 70
     1
  9
$MAXACTVP
 70
    64
  9
$PLIMCHECK
 70
     0
  9
$PEXTMIN
 10
0.0
 20
0.0
 30
0.0
  9
$PEXTMAX
 10
0.0
 20
0.0
 30
0.0
  9
$PLIMMIN
 10
0.0
 20
0.0
  9
$PLIMMAX
 10
12.0
 20
9.0
  9
$UNITMODE
 70
     0
  9
$VISRETAIN
 70
     1
  9
$PLINEGEN
 70
     0
  9
$PSLTSCALE
 70
     1
  0
ENDSEC
  0
SECTION
  2
TABLES
  0
TABLE
  2
VPORT
 70
     1
  0
VPORT
  2
*ACTIVE
 70
     0
 10
0.0
 20
0.0
 11
1.0
 21
1.0
 12
70.601977321597815
 22
19.194641539967431
 13
0.0
 23
0.0
 14
0.5
 24
0.5
 15
0.5
 25
0.5
 16
0.0
 26
0.0
 36
1.0
 17
0.0
 27
0.0
 37
0.0
 40
2.495690502390703
 41
2.094876660341555
 42
50.0
 43
0.0
 44
0.0
 50
0.0
 51
0.0
 71
     0
 72
  1000
 73
     1
 74
     3
 75
     0
 76
     0
 77
     0
 78
     0
  0
ENDTAB
  0
TABLE
  2
LTYPE
 70
     2
  0
LTYPE
  2
CONTINUOUS
 70
     0
  3
Solid line
 72
    65
 73
     0
 40
0.0
  0
ENDTAB
  0
TABLE
  2
LAYER
 70
     2
  0
LAYER
  2
0
 70
     0
 62
     7
  6
CONTINUOUS
  0
LAYER
  2
MANOVELLA
 70
     0
 62
     8
  6
CONTINUOUS
  0
ENDTAB
  0
TABLE
  2
STYLE
 70
     3
  0
STYLE
  2
STANDARD
 70
     0
 40
0.0
 41
1.0
 50
0.0
 71
     0
 42
0.2
  3
txt.shx
  4

  0
STYLE
  2
ANNOTATIVE
 70
     0
 40
0.0
 41
1.0
 50
0.0
 71
     0
 42
0.2
  3
txt
  4

  0
STYLE
  2
ANNOTATIVA
 70
     0
 40
0.0
 41
1.0
 50
0.0
 71
     0
 42
0.2
  3
txt.shx
  4

  0
ENDTAB
  0
TABLE
  2
VIEW
 70
     0
  0
ENDTAB
  0
TABLE
  2
UCS
 70
     0
  0
ENDTAB
  0
TABLE
  2
APPID
 70
     8
  0
APPID
  2
ACAD
 70
     0
  0
APPID
  2
ACADANNOTATIVE
 70
     0
  0
APPID
  2
ACAD_MLEADERVER
 70
     0
  0
APPID
  2
ACADANNOPO
 70
     0
  0
APPID
  2
ACAD_DSTYLE_DIMJAG
 70
     0
  0
APPID
  2
ACAD_DSTYLE_DIMTALN
 70
     0
  0
APPID
  2
ACAECLAYERSTANDARD
 70
     0
  0
APPID
  2
ACAD_EXEMPT_FROM_CAD_STANDARDS
 70
     0
  0
ENDTAB
  0
TABLE
  2
DIMSTYLE
 70
     5
  0
DIMSTYLE
  2
STANDARD
 70
     0
  3

  4

  5

  6

  7

 40
1.0
 41
0.18
 42
0.0625
 43
0.38
 44
0.18
 45
0.0
 46
0.0
 47
0.0
 48
0.0
140
0.18
141
0.09
142
0.0
143
25.399999999999999
144
1.0
145
0.0
146
1.0
147
0.09
 71
     0
 72
     0
 73
     1
 74
     1
 75
     0
 76
     0
 77
     0
 78
     0
170
     0
171
     2
172
     0
173
     0
174
     0
175
     0
176
     0
177
     0
178
     0
  0
DIMSTYLE
  2
ANNOTATIVE
 70
     0
  3

  4

  5

  6

  7

 40
1.0
 41
0.18
 42
0.0625
 43
0.38
 44
0.18
 45
0.0
 46
0.0
 47
0.0
 48
0.0
140
0.18
141
0.09
142
0.0
143
25.399999999999999
144
1.0
145
0.0
146
1.0
147
0.09
 71
     0
 72
     0
 73
     1
 74
     1
 75
     0
 76
     0
 77
     0
 78
     0
170
     0
171
     2
172
     0
173
     0
174
     0
175
     0
176
     0
177
     0
178
     0
  0
DIMSTYLE
  2
ANNOTATIVA
 70
     0
  3

  4

  5

  6

  7

 40
0.0
 41
0.18
 42
0.0625
 43
0.38
 44
0.18
 45
0.0
 46
0.0
 47
0.0
 48
0.0
140
0.18
141
0.09
142
0.0
143
25.399999999999999
144
1.0
145
0.0
146
1.0
147
0.09
 71
     0
 72
     0
 73
     1
 74
     1
 75
     0
 76
     0
 77
     0
 78
     0
170
     0
171
     2
172
     0
173
     0
174
     0
175
     0
176
     0
177
     0
178
     0
  0
DIMSTYLE
  2
ISO-25
 70
     0
  3

  4

  5

  6

  7

 40
1.0
 41
2.5
 42
0.625
 43
3.75
 44
1.25
 45
0.0
 46
0.0
 47
0.0
 48
0.0
140
2.5
141
2.5
142
0.0
143
0.0393700787
144
1.0
145
0.0
146
1.0
147
0.625
 71
     0
 72
     0
 73
     0
 74
     0
 75
     0
 76
     0
 77
     1
 78
     8
170
     0
171
     3
172
     1
173
     0
174
     0
175
     0
176
     0
177
     0
178
     0
  0
ENDTAB
  0
ENDSEC
  0
SECTION
  2
BLOCKS
  0
BLOCK
  8
0
  2
$MODEL_SPACE
 70
     0
 10
0.0
 20
0.0
 30
0.0
  3
$MODEL_SPACE
  1

  0
ENDBLK
  5
52A
  8
0
  0
BLOCK
 67
     1
  8
0
  2
$PAPER_SPACE
 70
     0
 10
0.0
 20
0.0
 30
0.0
  3
$PAPER_SPACE
  1

  0
ENDBLK
  5
526
 67
     1
  8
0
  0
ENDSEC
  0
SECTION
  2
ENTITIES
  0
ARC
  5
178
  8
0
 10
56.805004308109893
 20
27.487061537009769
 30
0.0
 40
6.1529816535426143
 50
335.03007072258049
 51
109.2975652751133
  0
ARC
  5
179
  8
0
 10
66.643424866798
 20
22.89682572056762
 30
0.0
 40
4.703577055203823
 50
154.93300810155901
 51
313.20050266310631
  0
CIRCLE
  5
17A
  8
0
 10
94.841120530695306
 20
61.881585290529692
 30
0.0
 40
11.0
  0
ARC
  5
17B
  8
0
 10
74.082912460883222
 20
14.98994211970756
 30
0.0
 40
6.152981653540702
 50
359.03007072841802
 51
133.2975652752032
  0
ARC
  5
17C
  8
0
 10
84.937773979553313
 20
14.7981991912963
 30
0.0
 40
4.703577055203823
 50
178.9330080939109
 51
337.2005026630635
  0
ARC
  5
17D
  8
0
 10
94.950133399197611
 20
10.600768795412691
 30
0.0
 40
6.1530267257513129
 50
23.153400259458511
 51
157.29728655301511
  0
ARC
  5
17E
  8
0
 10
104.94450168008611
 20
14.84071785771601
 30
0.0
 40
4.703577055203823
 50
202.77232042117839
 51
1.200502663032724
  0
ARC
  5
17F
  8
0
 10
115.7984501585493
 20
15.078596749209909
 30
0.0
 40
6.1529816535431161
 50
46.945966434382342
 51
181.2975652752379
  0
ARC
  5
180
  8
0
 10
123.20426299354639
 20
23.017029856133089
 30
0.0
 40
4.703577055203823
 50
227.0430290928918
 51
25.200502663125071
  0
ARC
  5
181
  8
0
 10
133.02308426174989
 20
27.649041605171711
 30
0.0
 40
6.1529816535480544
 50
70.945966434430062
 51
205.2975652750913
  0
ARC
  5
182
  8
0
 10
136.55977930412749
 20
37.913376562560813
 30
0.0
 40
4.703577055203823
 50
251.04302907665991
 51
49.200502662911212
  0
ARC
  5
183
  8
0
 10
143.6457099636105
 20
46.138604257233631
 30
0.0
 40
6.1529816535388866
 50
95.030070709050264
 51
229.29756527521161
  0
ARC
  5
184
  8
0
 10
142.7017605106636
 20
56.954044302392212
 30
0.0
 40
4.703577055203823
 50
274.93300811929629
 51
73.200502663187024
  0
ARC
  5
185
  8
0
 10
145.829578776728
 20
67.35027135044372
 30
0.0
 40
6.152981653539161
 50
119.0300707178215
 51
253.29756527509201
  0
ARC
  5
186
  8
0
 10
140.56820226438921
 20
76.846728644378061
 30
0.0
 40
4.703577055203823
 50
298.93300810782472
 51
97.200502663059666
  0
ARC
  5
187
  8
0
 10
139.1970799435154
 20
87.616352942437217
 30
0.0
 40
6.1529816535398947
 50
142.9459664341594
 51
277.29756527525569
  0
ARC
  5
189
  8
0
 10
124.895032766574
 20
103.4326594143937
 30
0.0
 40
6.152981653536016
 50
167.03007071850561
 51
301.29756527522773
  0
ARC
  5
18A
  8
0
 10
114.3172416122403
 20
105.87706491171561
 30
0.0
 40
4.703577055203823
 50
346.93300810687708
 51
145.20050266302351
  0
ARC
  5
18B
  8
0
 10
105.3963911328361
 20
112.0644076906753
 30
0.0
 40
6.1529816535365471
 50
190.9459664343054
 51
325.29756527521261
  0
ARC
  5
18D
  8
0
 10
84.072647320369086
 20
112.0190900773456
 30
0.0
 40
6.1529816535429163
 50
215.03007071240009
 51
349.29756527514218
  0
ARC
  5
18E
  8
0
 10
75.178176214624372
 20
105.7938858486247
 30
0.0
 40
4.703577055203823
 50
34.933008114902293
 51
193.20050266297039
  0
ARC
  5
18F
  8
0
 10
64.610870354471103
 20
103.30454240143411
 30
0.0
 40
6.152981653535325
 50
239.03007071220779
 51
13.297565275318959
  0
ARC
  5
190
  8
0
 10
59.017385348136131
 20
93.999828035912003
 30
0.0
 40
4.703577055203823
 50
58.933008115102247
 51
217.2005026631723
  0
ARC
  5
191
  8
0
 10
50.376178277249537
 20
87.427589125307065
 30
0.0
 40
6.152981653539201
 50
263.0300707177301
 51
37.297565275175593
  0
ARC
  5
192
  8
0
 10
49.050843743127743
 20
76.652234267448591
 30
0.0
 40
4.703577055203823
 50
82.933008107831995
 51
241.200502663138
  0
ARC
  5
193
  8
0
 10
43.829878666955317
 20
67.133499707988179
 30
0.0
 40
6.152981653541115
 50
287.0300707245151
 51
61.297565275248971
  0
ARC
  5
194
  8
0
 10
47.001856986291934
 20
56.750661103743987
 30
0.0
 40
4.703577055203823
 50
106.9330080990118
 51
265.20050266308999
  0
ARC
  5
195
  8
0
 10
46.103886197478111
 20
45.931306575737537
 30
0.0
 40
6.152981653547962
 50
310.94596643436807
 51
85.297565275074135
  0
ARC
  5
196
  8
0
 10
53.224713502350482
 20
37.736271344908957
 30
0.0
 40
4.703577055203823
 50
131.04302904983211
 51
289.20050266314672
  0
ARC
  5
2DF
  8
0
 10
94.738868785607906
 20
109.9951079641193
 30
0.0
 40
4.703577055203823
 50
11.043029081750291
 51
169.20050266308931
  0
ARC
  5
2E2
  8
0
 10
130.52801616887211
 20
94.151803746425401
 30
0.0
 40
4.703577055203823
 50
323.0430290431442
 51
121.2005026632401
  0
ENDSEC
  0
EOF
