  0
SECTION
  2
HEADER
  9
$ACADVER
  1
AC1009
  9
$INSBASE
 10
0.0
 20
0.0
 30
0.0
  9
$EXTMIN
 10
20.101016798089269
 20
25.2947917354434
 30
0.0
  9
$EXTMAX
 10
958.19379395922556
 20
570.21305220619774
 30
0.0
  9
$LIMMIN
 10
0.0
 20
0.0
  9
$LIMMAX
 10
12.0
 20
9.0
  9
$ORTHOMODE
 70
     0
  9
$REGENMODE
 70
     1
  9
$FILLMODE
 70
     1
  9
$QTEXTMODE
 70
     0
  9
$MIRRTEXT
 70
     0
  9
$DRAGMODE
 70
     2
  9
$LTSCALE
 40
1.0
  9
$OSMODE
 70
  3071
  9
$ATTMODE
 70
     1
  9
$TEXTSIZE
 40
0.2
  9
$TRACEWID
 40
0.05
  9
$TEXTSTYLE
  7
STANDARD
  9
$CLAYER
  8
0
  9
$CELTYPE
  6
BYLAYER
  9
$CECOLOR
 62
   256
  9
$DIMSCALE
 40
1.0
  9
$DIMASZ
 40
0.18
  9
$DIMEXO
 40
0.0625
  9
$DIMDLI
 40
0.38
  9
$DIMRND
 40
0.0
  9
$DIMDLE
 40
0.0
  9
$DIMEXE
 40
0.18
  9
$DIMTP
 40
0.0
  9
$DIMTM
 40
0.0
  9
$DIMTXT
 40
0.18
  9
$DIMCEN
 40
0.09
  9
$DIMTSZ
 40
0.0
  9
$DIMTOL
 70
     0
  9
$DIMLIM
 70
     0
  9
$DIMTIH
 70
     1
  9
$DIMTOH
 70
     1
  9
$DIMSE1
 70
     0
  9
$DIMSE2
 70
     0
  9
$DIMTAD
 70
     0
  9
$DIMZIN
 70
     0
  9
$DIMBLK
  1

  9
$DIMASO
 70
     1
  9
$DIMSHO
 70
     1
  9
$DIMPOST
  1

  9
$DIMAPOST
  1

  9
$DIMALT
 70
     0
  9
$DIMALTD
 70
     2
  9
$DIMALTF
 40
25.399999999999999
  9
$DIMLFAC
 40
1.0
  9
$DIMTOFL
 70
     0
  9
$DIMTVP
 40
0.0
  9
$DIMTIX
 70
     0
  9
$DIMSOXD
 70
     0
  9
$DIMSAH
 70
     0
  9
$DIMBLK1
  1

  9
$DIMBLK2
  1

  9
$DIMSTYLE
  2
STANDARD
  9
$DIMCLRD
 70
     0
  9
$DIMCLRE
 70
     0
  9
$DIMCLRT
 70
     0
  9
$DIMTFAC
 40
1.0
  9
$DIMGAP
 40
0.09
  9
$LUNITS
 70
     2
  9
$LUPREC
 70
     4
  9
$SKETCHINC
 40
0.1
  9
$FILLETRAD
 40
0.0
  9
$AUNITS
 70
     0
  9
$AUPREC
 70
     0
  9
$MENU
  1
.
  9
$ELEVATION
 40
0.0
  9
$PELEVATION
 40
0.0
  9
$THICKNESS
 40
0.0
  9
$LIMCHECK
 70
     0
  9
$BLIPMODE
 70
     0
  9
$CHAMFERA
 40
0.0
  9
$CHAMFERB
 40
0.0
  9
$SKPOLY
 70
     0
  9
$TDCREATE
 40
2456377.3737395369
  9
$TDUPDATE
 40
2456391.3960244791
  9
$TDINDWG
 40
0.004127419
  9
$TDUSRTIMER
 40
0.0041265046
  9
$USRTIMER
 70
     1
  9
$ANGBASE
 50
0.0
  9
$ANGDIR
 70
     0
  9
$PDMODE
 70
     0
  9
$PDSIZE
 40
0.0
  9
$PLINEWID
 40
0.0
  9
$COORDS
 70
     0
  9
$SPLFRAME
 70
     0
  9
$SPLINETYPE
 70
     6
  9
$SPLINESEGS
 70
     8
  9
$ATTDIA
 70
     0
  9
$ATTREQ
 70
     1
  9
$HANDLING
 70
     1
  9
$HANDSEED
  5
336
  9
$SURFTAB1
 70
     6
  9
$SURFTAB2
 70
     6
  9
$SURFTYPE
 70
     6
  9
$SURFU
 70
     6
  9
$SURFV
 70
     6
  9
$UCSNAME
  2

  9
$UCSORG
 10
0.0
 20
0.0
 30
0.0
  9
$UCSXDIR
 10
1.0
 20
0.0
 30
0.0
  9
$UCSYDIR
 10
0.0
 20
1.0
 30
0.0
  9
$PUCSNAME
  2

  9
$PUCSORG
 10
0.0
 20
0.0
 30
0.0
  9
$PUCSXDIR
 10
1.0
 20
0.0
 30
0.0
  9
$PUCSYDIR
 10
0.0
 20
1.0
 30
0.0
  9
$USERI1
 70
     0
  9
$USERI2
 70
     0
  9
$USERI3
 70
     0
  9
$USERI4
 70
     0
  9
$USERI5
 70
     0
  9
$USERR1
 40
0.0
  9
$USERR2
 40
0.0
  9
$USERR3
 40
0.0
  9
$USERR4
 40
0.0
  9
$USERR5
 40
0.0
  9
$WORLDVIEW
 70
     1
  9
$SHADEDGE
 70
     3
  9
$SHADEDIF
 70
    70
  9
$TILEMODE
 70
     1
  9
$MAXACTVP
 70
    64
  9
$PLIMCHECK
 70
     0
  9
$PEXTMIN
 10
0.0
 20
0.0
 30
0.0
  9
$PEXTMAX
 10
0.0
 20
0.0
 30
0.0
  9
$PLIMMIN
 10
0.0
 20
0.0
  9
$PLIMMAX
 10
12.0
 20
9.0
  9
$UNITMODE
 70
     0
  9
$VISRETAIN
 70
     1
  9
$PLINEGEN
 70
     0
  9
$PSLTSCALE
 70
     1
  0
ENDSEC
  0
SECTION
  2
TABLES
  0
TABLE
  2
VPORT
 70
     1
  0
VPORT
  2
*ACTIVE
 70
     0
 10
0.0
 20
0.0
 11
1.0
 21
1.0
 12
1019.050152004206
 22
309.51109077534221
 13
0.0
 23
0.0
 14
0.5
 24
0.5
 15
0.5
 25
0.5
 16
0.0
 26
0.0
 36
1.0
 17
0.0
 27
0.0
 37
0.0
 40
615.79260575056878
 41
2.2124248496993979
 42
50.0
 43
0.0
 44
0.0
 50
0.0
 51
0.0
 71
     0
 72
  1000
 73
     1
 74
     3
 75
     0
 76
     0
 77
     0
 78
     0
  0
ENDTAB
  0
TABLE
  2
LTYPE
 70
     2
  0
LTYPE
  2
CONTINUOUS
 70
     0
  3
Solid line
 72
    65
 73
     0
 40
0.0
  0
ENDTAB
  0
TABLE
  2
LAYER
 70
     1
  0
LAYER
  2
0
 70
     0
 62
     7
  6
CONTINUOUS
  0
ENDTAB
  0
TABLE
  2
STYLE
 70
     3
  0
STYLE
  2
STANDARD
 70
     0
 40
0.0
 41
1.0
 50
0.0
 71
     0
 42
0.2
  3
txt.shx
  4

  0
STYLE
  2
ANNOTATIVE
 70
     0
 40
0.0
 41
1.0
 50
0.0
 71
     0
 42
0.2
  3
txt
  4

  0
STYLE
  2
ANNOTATIVA
 70
     0
 40
0.0
 41
1.0
 50
0.0
 71
     0
 42
0.2
  3
txt.shx
  4

  0
ENDTAB
  0
TABLE
  2
VIEW
 70
     0
  0
ENDTAB
  0
TABLE
  2
UCS
 70
     0
  0
ENDTAB
  0
TABLE
  2
APPID
 70
     7
  0
APPID
  2
ACAD
 70
     0
  0
APPID
  2
ACADANNOTATIVE
 70
     0
  0
APPID
  2
ACAD_MLEADERVER
 70
     0
  0
APPID
  2
ACADANNOPO
 70
     0
  0
APPID
  2
ACAD_DSTYLE_DIMJAG
 70
     0
  0
APPID
  2
ACAD_DSTYLE_DIMTALN
 70
     0
  0
APPID
  2
ACAD_EXEMPT_FROM_CAD_STANDARDS
 70
     0
  0
ENDTAB
  0
TABLE
  2
DIMSTYLE
 70
     4
  0
DIMSTYLE
  2
STANDARD
 70
     0
  3

  4

  5

  6

  7

 40
1.0
 41
0.18
 42
0.0625
 43
0.38
 44
0.18
 45
0.0
 46
0.0
 47
0.0
 48
0.0
140
0.18
141
0.09
142
0.0
143
25.399999999999999
144
1.0
145
0.0
146
1.0
147
0.09
 71
     0
 72
     0
 73
     1
 74
     1
 75
     0
 76
     0
 77
     0
 78
     0
170
     0
171
     2
172
     0
173
     0
174
     0
175
     0
176
     0
177
     0
178
     0
  0
DIMSTYLE
  2
ANNOTATIVE
 70
     0
  3

  4

  5

  6

  7

 40
1.0
 41
0.18
 42
0.0625
 43
0.38
 44
0.18
 45
0.0
 46
0.0
 47
0.0
 48
0.0
140
0.18
141
0.09
142
0.0
143
25.399999999999999
144
1.0
145
0.0
146
1.0
147
0.09
 71
     0
 72
     0
 73
     1
 74
     1
 75
     0
 76
     0
 77
     0
 78
     0
170
     0
171
     2
172
     0
173
     0
174
     0
175
     0
176
     0
177
     0
178
     0
  0
DIMSTYLE
  2
ANNOTATIVA
 70
     0
  3

  4

  5

  6

  7

 40
0.0
 41
0.18
 42
0.0625
 43
0.38
 44
0.18
 45
0.0
 46
0.0
 47
0.0
 48
0.0
140
0.18
141
0.09
142
0.0
143
25.399999999999999
144
1.0
145
0.0
146
1.0
147
0.09
 71
     0
 72
     0
 73
     1
 74
     1
 75
     0
 76
     0
 77
     0
 78
     0
170
     0
171
     2
172
     0
173
     0
174
     0
175
     0
176
     0
177
     0
178
     0
  0
ENDTAB
  0
ENDSEC
  0
SECTION
  2
BLOCKS
  0
BLOCK
  8
0
  2
$MODEL_SPACE
 70
     0
 10
0.0
 20
0.0
 30
0.0
  3
$MODEL_SPACE
  1

  0
ENDBLK
  5
305
  8
0
  0
BLOCK
 67
     1
  8
0
  2
$PAPER_SPACE
 70
     0
 10
0.0
 20
0.0
 30
0.0
  3
$PAPER_SPACE
  1

  0
ENDBLK
  5
301
 67
     1
  8
0
  0
ENDSEC
  0
SECTION
  2
ENTITIES
  0
LINE
  5
17F
  8
0
 10
378.93599713715798
 20
75.530231964280944
 30
0.0
 11
456.36824876797749
 21
75.530231964280532
 31
0.0
  0
LINE
  5
180
  8
0
 10
253.868248767978
 20
570.21305220619774
 30
0.0
 11
456.368248767978
 21
570.21305220619774
 31
0.0
  0
LINE
  5
181
  8
0
 10
253.868248767978
 20
570.21305220619774
 30
0.0
 11
253.86824876797709
 21
547.21305220619809
 31
0.0
  0
LINE
  5
182
  8
0
 10
187.2167847134294
 20
436.08492700191721
 30
0.0
 11
25.308556811020349
 21
352.78564333668908
 31
0.0
  0
LINE
  5
183
  8
0
 10
23.316002925368469
 20
349.29233341467972
 30
0.0
 11
20.101016798089269
 21
324.37787906416082
 31
0.0
  0
LINE
  5
184
  8
0
 10
29.686862969045361
 20
346.47990214498452
 30
0.0
 11
23.316002925366639
 21
349.29233341468017
 31
0.0
  0
LINE
  5
185
  8
0
 10
25.308556811020349
 20
352.78564333668908
 30
0.0
 11
29.686862969045361
 21
346.47990214498452
 31
0.0
  0
LINE
  5
186
  8
0
 10
332.12883389978469
 20
44.837964313738212
 30
0.0
 11
317.1529023828648
 21
31.055482294005841
 31
0.0
  0
LINE
  5
187
  8
0
 10
375.2548196464374
 20
74.446884261699324
 30
0.0
 11
334.0659711237181
 21
47.904865548486207
 31
0.0
  0
LINE
  5
188
  8
0
 10
326.32498302231232
 20
52.04441889442743
 30
0.0
 11
334.0659711237181
 21
47.904865548486207
 31
0.0
  0
LINE
  5
189
  8
0
 10
332.12883389978469
 20
44.837964313738212
 30
0.0
 11
326.32498302231232
 21
52.04441889442743
 31
0.0
  0
LINE
  5
18A
  8
0
 10
372.60260632683918
 20
82.254941927173235
 30
0.0
 11
378.93599713716031
 21
75.530231964280532
 31
0.0
  0
LINE
  5
18B
  8
0
 10
375.25481964643558
 20
74.446884261700148
 30
0.0
 11
372.60260632683918
 21
82.254941927173235
 31
0.0
  0
LINE
  5
18C
  8
0
 10
190.86824876797809
 20
437.21305220619791
 30
0.0
 11
253.868248767978
 21
437.21305220619791
 31
0.0
  0
LINE
  5
18D
  8
0
 10
193.3807495850983
 20
430.60719598800199
 30
0.0
 11
190.86824876797809
 21
437.21305220619791
 31
0.0
  0
LINE
  5
18E
  8
0
 10
187.2167847134294
 20
436.08492700191721
 30
0.0
 11
193.3807495850983
 21
430.60719598800199
 31
0.0
  0
LINE
  5
18F
  8
0
 10
253.868248767978
 20
505.21305220619791
 30
0.0
 11
261.86824876797709
 21
503.21305220619791
 31
0.0
  0
LINE
  5
190
  8
0
 10
261.86824876797709
 20
503.21305220619791
 30
0.0
 11
253.868248767978
 21
501.21305220619791
 31
0.0
  0
LINE
  5
191
  8
0
 10
261.86824876797709
 20
545.21305220619774
 30
0.0
 11
253.868248767978
 21
543.21305220619809
 31
0.0
  0
LINE
  5
192
  8
0
 10
253.868248767978
 20
547.21305220619809
 30
0.0
 11
261.86824876797709
 21
545.21305220619774
 31
0.0
  0
LINE
  5
193
  8
0
 10
253.868248767978
 20
437.21305220619791
 30
0.0
 11
253.868248767978
 21
501.21305220619791
 31
0.0
  0
LINE
  5
194
  8
0
 10
253.868248767978
 20
543.21305220619809
 30
0.0
 11
253.86824876797709
 21
505.21305220619791
 31
0.0
  0
LINE
  5
195
  8
0
 10
748.86824876797789
 20
570.21305220619774
 30
0.0
 11
748.86824876797948
 21
547.21305220619809
 31
0.0
  0
LINE
  5
197
  8
0
 10
533.80050039879677
 20
75.530231964280944
 30
0.0
 11
456.368248767978
 21
75.530231964280532
 31
0.0
  0
LINE
  5
198
  8
0
 10
537.48167788951935
 20
74.446884261700148
 30
0.0
 11
540.13389120911665
 21
82.254941927173235
 31
0.0
  0
LINE
  5
199
  8
0
 10
540.13389120911665
 20
82.254941927173235
 30
0.0
 11
533.80050039879598
 21
75.530231964280532
 31
0.0
  0
LINE
  5
19A
  8
0
 10
580.60766363616972
 20
44.837964313738212
 30
0.0
 11
586.41151451364385
 21
52.04441889442743
 31
0.0
  0
LINE
  5
19B
  8
0
 10
586.41151451364385
 20
52.04441889442743
 30
0.0
 11
578.67052641223665
 21
47.904865548486207
 31
0.0
  0
LINE
  5
19C
  8
0
 10
537.48167788951775
 20
74.446884261699324
 30
0.0
 11
578.67052641223665
 21
47.904865548486207
 31
0.0
  0
LINE
  5
19D
  8
0
 10
580.60766363617131
 20
44.837964313738212
 30
0.0
 11
595.25680307735661
 21
25.2947917354434
 31
0.0
  0
LINE
  5
19E
  8
0
 10
748.86824876797789
 20
547.21305220619809
 30
0.0
 11
740.86824876797778
 21
545.21305220619774
 31
0.0
  0
LINE
  5
19F
  8
0
 10
740.86824876797778
 20
545.21305220619774
 30
0.0
 11
748.86824876797789
 21
543.21305220619809
 31
0.0
  0
LINE
  5
1A0
  8
0
 10
740.86824876797778
 20
503.21305220619791
 30
0.0
 11
748.86824876797789
 21
501.21305220619791
 31
0.0
  0
LINE
  5
1A1
  8
0
 10
748.86824876797789
 20
505.21305220619791
 30
0.0
 11
740.86824876797778
 21
503.21305220619791
 31
0.0
  0
LINE
  5
1A2
  8
0
 10
748.86824876797789
 20
543.21305220619809
 30
0.0
 11
748.86824876797948
 21
505.21305220619791
 31
0.0
  0
LINE
  5
1A3
  8
0
 10
748.86824876797789
 20
437.21305220619791
 30
0.0
 11
748.86824876797789
 21
501.21305220619791
 31
0.0
  0
LINE
  5
1A4
  8
0
 10
815.51971282252657
 20
436.08492700191721
 30
0.0
 11
809.35574795085665
 21
430.60719598800199
 31
0.0
  0
LINE
  5
1A5
  8
0
 10
809.35574795085665
 20
430.60719598800199
 30
0.0
 11
811.868248767978
 21
437.21305220619791
 31
0.0
  0
LINE
  5
1A6
  8
0
 10
811.868248767978
 20
437.21305220619791
 30
0.0
 11
748.86824876797789
 21
437.21305220619791
 31
0.0
  0
LINE
  5
1A7
  8
0
 10
952.98625394629516
 20
329.84477207315592
 30
0.0
 11
948.60794778827108
 21
323.53903088145148
 31
0.0
  0
LINE
  5
1A8
  8
0
 10
948.60794778827108
 20
323.53903088145148
 30
0.0
 11
954.97880783194876
 21
326.35146215114719
 31
0.0
  0
LINE
  5
1A9
  8
0
 10
954.97880783194796
 20
326.35146215114668
 30
0.0
 11
958.19379395922556
 21
301.43700780062721
 31
0.0
  0
LINE
  5
1AA
  8
0
 10
748.86824876797789
 20
570.21305220619774
 30
0.0
 11
456.368248767978
 21
570.21305220619774
 31
0.0
  0
LINE
  5
1AB
  8
0
 10
317.1529023828648
 20
31.055482294005841
 30
0.0
 11
20.101016798089269
 21
324.37787906416082
 31
0.0
  0
LINE
  5
1AC
  8
0
 10
595.25680307735661
 20
25.2947917354434
 30
0.0
 11
958.19379395922556
 21
301.43700780062721
 31
0.0
  0
LINE
  5
26D
  8
0
 10
952.98625394629516
 20
329.84477207315592
 30
0.0
 11
815.51971282252657
 21
436.08492700191721
 31
0.0
  0
ENDSEC
  0
EOF
