  0
SECTION
  2
HEADER
  9
$ACADVER
  1
AC1009
  9
$INSBASE
 10
0.0
 20
0.0
 30
0.0
  9
$EXTMIN
 10
27.289473409865639
 20
16.259172126712009
 30
0.0
  9
$EXTMAX
 10
155.28947340986741
 20
337.08759925145688
 30
0.0
  9
$LIMMIN
 10
0.0
 20
0.0
  9
$LIMMAX
 10
12.0
 20
9.0
  9
$ORTHOMODE
 70
     0
  9
$REGENMODE
 70
     1
  9
$FILLMODE
 70
     1
  9
$QTEXTMODE
 70
     0
  9
$MIRRTEXT
 70
     0
  9
$DRAGMODE
 70
     2
  9
$LTSCALE
 40
1.0
  9
$OSMODE
 70
   951
  9
$ATTMODE
 70
     1
  9
$TEXTSIZE
 40
0.2
  9
$TRACEWID
 40
0.05
  9
$TEXTSTYLE
  7
STANDARD
  9
$CLAYER
  8
0
  9
$CELTYPE
  6
BYLAYER
  9
$CECOLOR
 62
   256
  9
$DIMSCALE
 40
1.0
  9
$DIMASZ
 40
0.18
  9
$DIMEXO
 40
0.0625
  9
$DIMDLI
 40
0.38
  9
$DIMRND
 40
0.0
  9
$DIMDLE
 40
0.0
  9
$DIMEXE
 40
0.18
  9
$DIMTP
 40
0.0
  9
$DIMTM
 40
0.0
  9
$DIMTXT
 40
0.18
  9
$DIMCEN
 40
0.09
  9
$DIMTSZ
 40
0.0
  9
$DIMTOL
 70
     0
  9
$DIMLIM
 70
     0
  9
$DIMTIH
 70
     1
  9
$DIMTOH
 70
     1
  9
$DIMSE1
 70
     0
  9
$DIMSE2
 70
     0
  9
$DIMTAD
 70
     0
  9
$DIMZIN
 70
     0
  9
$DIMBLK
  1

  9
$DIMASO
 70
     1
  9
$DIMSHO
 70
     1
  9
$DIMPOST
  1

  9
$DIMAPOST
  1

  9
$DIMALT
 70
     0
  9
$DIMALTD
 70
     2
  9
$DIMALTF
 40
25.399999999999999
  9
$DIMLFAC
 40
1.0
  9
$DIMTOFL
 70
     0
  9
$DIMTVP
 40
0.0
  9
$DIMTIX
 70
     0
  9
$DIMSOXD
 70
     0
  9
$DIMSAH
 70
     0
  9
$DIMBLK1
  1

  9
$DIMBLK2
  1

  9
$DIMSTYLE
  2
STANDARD
  9
$DIMCLRD
 70
     0
  9
$DIMCLRE
 70
     0
  9
$DIMCLRT
 70
     0
  9
$DIMTFAC
 40
1.0
  9
$DIMGAP
 40
0.09
  9
$LUNITS
 70
     2
  9
$LUPREC
 70
     4
  9
$SKETCHINC
 40
0.1
  9
$FILLETRAD
 40
0.0
  9
$AUNITS
 70
     0
  9
$AUPREC
 70
     0
  9
$MENU
  1
.
  9
$ELEVATION
 40
0.0
  9
$PELEVATION
 40
0.0
  9
$THICKNESS
 40
0.0
  9
$LIMCHECK
 70
     0
  9
$BLIPMODE
 70
     0
  9
$CHAMFERA
 40
0.0
  9
$CHAMFERB
 40
0.0
  9
$SKPOLY
 70
     0
  9
$TDCREATE
 40
2455531.524724931
  9
$TDUPDATE
 40
2455531.6050992822
  9
$TDINDWG
 40
0.0010530671
  9
$TDUSRTIMER
 40
0.0010530671
  9
$USRTIMER
 70
     1
  9
$ANGBASE
 50
0.0
  9
$ANGDIR
 70
     0
  9
$PDMODE
 70
     0
  9
$PDSIZE
 40
0.0
  9
$PLINEWID
 40
0.0
  9
$COORDS
 70
     2
  9
$SPLFRAME
 70
     0
  9
$SPLINETYPE
 70
     6
  9
$SPLINESEGS
 70
     8
  9
$ATTDIA
 70
     0
  9
$ATTREQ
 70
     1
  9
$HANDLING
 70
     1
  9
$HANDSEED
  5
270
  9
$SURFTAB1
 70
     6
  9
$SURFTAB2
 70
     6
  9
$SURFTYPE
 70
     6
  9
$SURFU
 70
     6
  9
$SURFV
 70
     6
  9
$UCSNAME
  2

  9
$UCSORG
 10
0.0
 20
0.0
 30
0.0
  9
$UCSXDIR
 10
1.0
 20
0.0
 30
0.0
  9
$UCSYDIR
 10
0.0
 20
1.0
 30
0.0
  9
$PUCSNAME
  2

  9
$PUCSORG
 10
0.0
 20
0.0
 30
0.0
  9
$PUCSXDIR
 10
1.0
 20
0.0
 30
0.0
  9
$PUCSYDIR
 10
0.0
 20
1.0
 30
0.0
  9
$USERI1
 70
     0
  9
$USERI2
 70
     0
  9
$USERI3
 70
     0
  9
$USERI4
 70
     0
  9
$USERI5
 70
     0
  9
$USERR1
 40
0.0
  9
$USERR2
 40
0.0
  9
$USERR3
 40
0.0
  9
$USERR4
 40
0.0
  9
$USERR5
 40
0.0
  9
$WORLDVIEW
 70
     1
  9
$SHADEDGE
 70
     3
  9
$SHADEDIF
 70
    70
  9
$TILEMODE
 70
     1
  9
$MAXACTVP
 70
    64
  9
$PLIMCHECK
 70
     0
  9
$PEXTMIN
 10
0.0
 20
0.0
 30
0.0
  9
$PEXTMAX
 10
0.0
 20
0.0
 30
0.0
  9
$PLIMMIN
 10
0.0
 20
0.0
  9
$PLIMMAX
 10
12.0
 20
9.0
  9
$UNITMODE
 70
     0
  9
$VISRETAIN
 70
     1
  9
$PLINEGEN
 70
     0
  9
$PSLTSCALE
 70
     1
  0
ENDSEC
  0
SECTION
  2
TABLES
  0
TABLE
  2
VPORT
 70
     1
  0
VPORT
  2
*ACTIVE
 70
     0
 10
0.0
 20
0.0
 11
1.0
 21
1.0
 12
260.2201376289504
 22
44.71565270101587
 13
0.0
 23
0.0
 14
0.5
 24
0.5
 15
0.5
 25
0.5
 16
0.0
 26
0.0
 36
1.0
 17
0.0
 27
0.0
 37
0.0
 40
974.71855600281413
 41
1.8752228163992859
 42
50.0
 43
0.0
 44
0.0
 50
0.0
 51
0.0
 71
     0
 72
  1000
 73
     1
 74
     3
 75
     0
 76
     0
 77
     0
 78
     0
  0
ENDTAB
  0
TABLE
  2
LTYPE
 70
     1
  0
LTYPE
  2
CONTINUOUS
 70
     0
  3
Solid line
 72
    65
 73
     0
 40
0.0
  0
ENDTAB
  0
TABLE
  2
LAYER
 70
     2
  0
LAYER
  2
0
 70
     0
 62
     7
  6
CONTINUOUS
  0
LAYER
  2
CONTORNO
 70
     0
 62
     7
  6
CONTINUOUS
  0
ENDTAB
  0
TABLE
  2
STYLE
 70
     3
  0
STYLE
  2
STANDARD
 70
     0
 40
0.0
 41
1.0
 50
0.0
 71
     0
 42
0.2
  3
txt.shx
  4

  0
STYLE
  2
ANNOTATIVE
 70
     0
 40
0.0
 41
1.0
 50
0.0
 71
     0
 42
0.2
  3
txt
  4

  0
STYLE
  2
ANNOTATIVA
 70
     0
 40
0.0
 41
1.0
 50
0.0
 71
     0
 42
0.2
  3
txt.shx
  4

  0
ENDTAB
  0
TABLE
  2
VIEW
 70
     0
  0
ENDTAB
  0
TABLE
  2
UCS
 70
     0
  0
ENDTAB
  0
TABLE
  2
APPID
 70
     6
  0
APPID
  2
ACAD
 70
     0
  0
APPID
  2
ACADANNOTATIVE
 70
     0
  0
APPID
  2
ACAD_MLEADERVER
 70
     0
  0
APPID
  2
ACADANNOPO
 70
     0
  0
APPID
  2
ACAD_DSTYLE_DIMJAG
 70
     0
  0
APPID
  2
ACAD_DSTYLE_DIMTALN
 70
     0
  0
ENDTAB
  0
TABLE
  2
DIMSTYLE
 70
     4
  0
DIMSTYLE
  2
STANDARD
 70
     0
  3

  4

  5

  6

  7

 40
1.0
 41
0.18
 42
0.0625
 43
0.38
 44
0.18
 45
0.0
 46
0.0
 47
0.0
 48
0.0
140
0.18
141
0.09
142
0.0
143
25.399999999999999
144
1.0
145
0.0
146
1.0
147
0.09
 71
     0
 72
     0
 73
     1
 74
     1
 75
     0
 76
     0
 77
     0
 78
     0
170
     0
171
     2
172
     0
173
     0
174
     0
175
     0
176
     0
177
     0
178
     0
  0
DIMSTYLE
  2
ANNOTATIVE
 70
     0
  3

  4

  5

  6

  7

 40
1.0
 41
0.18
 42
0.0625
 43
0.38
 44
0.18
 45
0.0
 46
0.0
 47
0.0
 48
0.0
140
0.18
141
0.09
142
0.0
143
25.399999999999999
144
1.0
145
0.0
146
1.0
147
0.09
 71
     0
 72
     0
 73
     1
 74
     1
 75
     0
 76
     0
 77
     0
 78
     0
170
     0
171
     2
172
     0
173
     0
174
     0
175
     0
176
     0
177
     0
178
     0
  0
DIMSTYLE
  2
ANNOTATIVA
 70
     0
  3

  4

  5

  6

  7

 40
0.0
 41
0.18
 42
0.0625
 43
0.38
 44
0.18
 45
0.0
 46
0.0
 47
0.0
 48
0.0
140
0.18
141
0.09
142
0.0
143
25.399999999999999
144
1.0
145
0.0
146
1.0
147
0.09
 71
     0
 72
     0
 73
     1
 74
     1
 75
     0
 76
     0
 77
     0
 78
     0
170
     0
171
     2
172
     0
173
     0
174
     0
175
     0
176
     0
177
     0
178
     0
  0
DIMSTYLE
  2
ISO-25
 70
     0
  3

  4

  5

  6

  7

 40
1.0
 41
2.5
 42
0.625
 43
3.75
 44
1.25
 45
0.0
 46
0.0
 47
0.0
 48
0.0
140
2.5
141
2.5
142
0.0
143
0.0393700787
144
1.0
145
0.0
146
1.0
147
0.625
 71
     0
 72
     0
 73
     0
 74
     0
 75
     0
 76
     0
 77
     1
 78
     8
170
     0
171
     3
172
     1
173
     0
174
     0
175
     0
176
     0
177
     0
178
     0
  0
ENDTAB
  0
ENDSEC
  0
SECTION
  2
BLOCKS
  0
BLOCK
  8
0
  2
$MODEL_SPACE
 70
     0
 10
0.0
 20
0.0
 30
0.0
  3
$MODEL_SPACE
  1

  0
ENDBLK
  5
245
  8
0
  0
BLOCK
 67
     1
  8
0
  2
$PAPER_SPACE
 70
     0
 10
0.0
 20
0.0
 30
0.0
  3
$PAPER_SPACE
  1

  0
ENDBLK
  5
241
 67
     1
  8
0
  0
ENDSEC
  0
SECTION
  2
ENTITIES
  0
LINE
  5
186
  8
0
 10
27.289473409867469
 20
300.66119238026403
 30
0.0
 11
27.289473409866559
 21
282.57288062569512
 31
0.0
  0
ARC
  5
187
  8
0
 10
57.289473409867462
 20
300.66119238026403
 30
0.0
 40
30.0
 50
135.00000000000921
 51
180.0
  0
LINE
  5
188
  8
0
 10
36.07626997427019
 20
261.35967719009869
 30
0.0
 11
83.502676845462929
 21
213.93327031890411
 31
0.0
  0
ARC
  5
189
  8
0
 10
57.289473409866559
 20
282.57288062569512
 30
0.0
 40
30.0
 50
180.0
 51
224.99999999999079
  0
LINE
  5
18A
  8
0
 10
92.289473409866545
 20
192.72006688330771
 30
0.0
 11
92.289473409867469
 21
151.4551316196023
 31
0.0
  0
ARC
  5
18B
  8
0
 10
62.289473409866559
 20
192.72006688330771
 30
0.0
 40
30.0
 50
0.0
 51
44.999999999990777
  0
LINE
  5
18C
  8
0
 10
33.14733778613595
 20
79.886589124687177
 30
0.0
 11
83.502676845463867
 21
130.24192818400601
 31
0.0
  0
ARC
  5
18D
  8
0
 10
47.289473409865643
 20
65.744453500955643
 30
0.0
 40
20.0
 50
135.00000000000921
 51
180.0
  0
ARC
  5
18E
  8
0
 10
62.289473409867462
 20
151.4551316196023
 30
0.0
 40
30.0
 50
315.00000000000909
 51
0.0
  0
LINE
  5
18F
  8
0
 10
33.14733778613595
 20
50.004338130768957
 30
0.0
 11
58.10570722578926
 21
25.045968691117469
 31
0.0
  0
ARC
  5
190
  8
0
 10
47.289473409866559
 20
64.146473754500491
 30
0.0
 40
20.0
 50
180.0
 51
224.99999999999079
  0
LINE
  5
191
  8
0
 10
118.8630665386774
 20
337.08759925145512
 30
0.0
 11
63.71588028106202
 21
337.08759925145688
 31
0.0
  0
LINE
  5
192
  8
0
 10
36.07626997426928
 20
321.87439581586051
 30
0.0
 11
42.502676845462013
 21
328.30080268705331
 31
0.0
  0
ARC
  5
193
  8
0
 10
63.715880281059292
 20
307.08759925145688
 30
0.0
 40
30.0
 50
90.0
 51
135.00000000000921
  0
LINE
  5
194
  8
0
 10
132.59215810215321
 20
220.8806159518675
 30
0.0
 11
132.59215810215321
 21
130.7444535009484
 31
0.0
  0
ARC
  5
195
  8
0
 10
162.59215810215309
 20
220.8806159518675
 30
0.0
 40
30.0
 50
135.00000000000921
 51
180.0
  0
LINE
  5
196
  8
0
 10
155.28947340986741
 20
300.66119238026602
 30
0.0
 11
155.28947340986741
 21
268.43074500196718
 31
0.0
  0
ARC
  5
197
  8
0
 10
125.2894734098674
 20
300.66119238026602
 30
0.0
 40
30.0
 50
0.0
 51
44.999999999990777
  0
ARC
  5
198
  8
0
 10
125.2894734098674
 20
268.43074500196718
 30
0.0
 40
30.0
 50
315.00000000000909
 51
0.0
  0
LINE
  5
199
  8
0
 10
146.50267684546381
 20
321.87439581586221
 30
0.0
 11
140.0762699742692
 21
328.30080268705331
 31
0.0
  0
ARC
  5
19A
  8
0
 10
118.8630665386747
 20
307.08759925145512
 30
0.0
 40
30.0
 50
44.999999999990777
 51
90.0
  0
LINE
  5
19B
  8
0
 10
146.50267684546199
 20
247.21754156636899
 30
0.0
 11
141.37895466655689
 21
242.0938193874639
 31
0.0
  0
LINE
  5
19C
  8
0
 10
27.28947340986565
 20
65.744453500953853
 30
0.0
 11
27.289473409866559
 21
64.146473754496853
 31
0.0
  0
LINE
  5
19D
  8
0
 10
132.59215810215321
 20
130.7444535009484
 30
0.0
 11
132.59215810215321
 21
46.259172126712002
 31
0.0
  0
ARC
  5
19E
  8
0
 10
102.59215810215321
 20
46.259172126712002
 30
0.0
 40
30.0
 50
270.0
 51
0.0
  0
LINE
  5
19F
  8
0
 10
79.318910661385615
 20
16.259172126713828
 30
0.0
 11
102.5921581021514
 21
16.259172126712009
 31
0.0
  0
ARC
  5
1A0
  8
0
 10
79.318910661385615
 20
46.259172126713828
 30
0.0
 40
30.0
 50
224.99999999999079
 51
270.0
  0
ARC
  5
1A1
  8
0
 10
44.563602423048231
 20
65.695565279232412
 30
0.0
 40
6.0
 50
180.0
 51
0.0
  0
ARC
  5
1A2
  8
0
 10
118.9786907102982
 20
65.695565279232412
 30
0.0
 40
6.0
 50
180.0
 51
0.0
  0
ARC
  5
1A3
  8
0
 10
44.563602423048231
 20
70.695565279232412
 30
0.0
 40
6.0
 50
0.0
 51
180.0
  0
ARC
  5
1A4
  8
0
 10
118.9786907102982
 20
70.695565279232412
 30
0.0
 40
6.0
 50
0.0
 51
180.0
  0
LINE
  5
1A5
  8
0
 10
38.563602423048223
 20
70.695565279232412
 30
0.0
 11
38.563602423048223
 21
65.695565279232412
 31
0.0
  0
LINE
  5
1A6
  8
0
 10
50.563602423048231
 20
70.695565279232412
 30
0.0
 11
50.563602423048231
 21
65.695565279232412
 31
0.0
  0
LINE
  5
1A7
  8
0
 10
112.9786907102982
 20
70.695565279232412
 30
0.0
 11
112.9786907102982
 21
65.695565279232412
 31
0.0
  0
LINE
  5
1A8
  8
0
 10
124.9786907102982
 20
70.695565279232412
 30
0.0
 11
124.9786907102982
 21
65.695565279232412
 31
0.0
  0
ARC
  5
1A9
  8
0
 10
44.563602423048231
 20
300.50662935725393
 30
0.0
 40
6.0
 50
180.0
 51
0.0
  0
ARC
  5
1AA
  8
0
 10
138.0153443966858
 20
300.50662935725393
 30
0.0
 40
6.0
 50
180.0
 51
0.0
  0
ARC
  5
1AB
  8
0
 10
44.563602423048231
 20
305.50662935725393
 30
0.0
 40
6.0
 50
0.0
 51
180.0
  0
ARC
  5
1AC
  8
0
 10
138.0153443966858
 20
305.50662935725393
 30
0.0
 40
6.0
 50
0.0
 51
180.0
  0
LINE
  5
1AD
  8
0
 10
38.563602423048223
 20
305.50662935725393
 30
0.0
 11
38.563602423048223
 21
300.50662935725393
 31
0.0
  0
LINE
  5
1AE
  8
0
 10
50.563602423048231
 20
305.50662935725393
 30
0.0
 11
50.563602423048231
 21
300.50662935725393
 31
0.0
  0
LINE
  5
1AF
  8
0
 10
132.0153443966858
 20
305.50662935725393
 30
0.0
 11
132.0153443966858
 21
300.50662935725393
 31
0.0
  0
LINE
  5
1B0
  8
0
 10
144.0153443966858
 20
305.50662935725393
 30
0.0
 11
144.0153443966858
 21
300.50662935725393
 31
0.0
  0
CIRCLE
  5
1B1
  8
0
 10
114.2894734098675
 20
214.25917212671021
 30
0.0
 40
3.5
  0
CIRCLE
  5
1B2
  8
0
 10
64.302831909271148
 20
326.43771624193442
 30
0.0
 40
3.5
  0
CIRCLE
  5
1B3
  8
0
 10
117.6593763150024
 20
326.69518492027538
 30
0.0
 40
3.5
  0
CIRCLE
  5
1B4
  8
0
 10
64.200414543841589
 20
78.952186613344836
 30
0.0
 40
3.5
  0
ENDSEC
  0
EOF
