  0
SECTION
  2
HEADER
  9
$ACADVER
  1
AC1014
  9
$ACADMAINTVER
 70
     9
  9
$DWGCODEPAGE
  3
ANSI_1252
  9
$INSBASE
 10
0.0
 20
0.0
 30
0.0
  9
$EXTMIN
 10
30.44233424539925
 20
22.97408000982597
 30
0.0
  9
$EXTMAX
 10
1175.442334245401
 20
449.710206645196
 30
0.0
  9
$LIMMIN
 10
0.0
 20
0.0
  9
$LIMMAX
 10
12.0
 20
9.0
  9
$ORTHOMODE
 70
     1
  9
$REGENMODE
 70
     1
  9
$FILLMODE
 70
     1
  9
$QTEXTMODE
 70
     0
  9
$MIRRTEXT
 70
     0
  9
$DRAGMODE
 70
     2
  9
$LTSCALE
 40
1.0
  9
$OSMODE
 70
  1023
  9
$ATTMODE
 70
     1
  9
$TEXTSIZE
 40
0.2
  9
$TRACEWID
 40
0.05
  9
$TEXTSTYLE
  7
STANDARD
  9
$CLAYER
  8
0
  9
$CELTYPE
  6
BYLAYER
  9
$CECOLOR
 62
   256
  9
$CELTSCALE
 40
1.0
  9
$DELOBJ
 70
     1
  9
$DISPSILH
 70
     0
  9
$DIMSCALE
 40
1.0
  9
$DIMASZ
 40
0.18
  9
$DIMEXO
 40
0.0625
  9
$DIMDLI
 40
0.38
  9
$DIMRND
 40
0.0
  9
$DIMDLE
 40
0.0
  9
$DIMEXE
 40
0.18
  9
$DIMTP
 40
0.0
  9
$DIMTM
 40
0.0
  9
$DIMTXT
 40
0.18
  9
$DIMCEN
 40
0.09
  9
$DIMTSZ
 40
0.0
  9
$DIMTOL
 70
     0
  9
$DIMLIM
 70
     0
  9
$DIMTIH
 70
     1
  9
$DIMTOH
 70
     1
  9
$DIMSE1
 70
     0
  9
$DIMSE2
 70
     0
  9
$DIMTAD
 70
     0
  9
$DIMZIN
 70
     0
  9
$DIMBLK
  1

  9
$DIMASO
 70
     1
  9
$DIMSHO
 70
     1
  9
$DIMPOST
  1

  9
$DIMAPOST
  1

  9
$DIMALT
 70
     0
  9
$DIMALTD
 70
     2
  9
$DIMALTF
 40
25.4
  9
$DIMLFAC
 40
1.0
  9
$DIMTOFL
 70
     0
  9
$DIMTVP
 40
0.0
  9
$DIMTIX
 70
     0
  9
$DIMSOXD
 70
     0
  9
$DIMSAH
 70
     0
  9
$DIMBLK1
  1

  9
$DIMBLK2
  1

  9
$DIMSTYLE
  2
STANDARD
  9
$DIMCLRD
 70
     0
  9
$DIMCLRE
 70
     0
  9
$DIMCLRT
 70
     0
  9
$DIMTFAC
 40
1.0
  9
$DIMGAP
 40
0.09
  9
$DIMJUST
 70
     0
  9
$DIMSD1
 70
     0
  9
$DIMSD2
 70
     0
  9
$DIMTOLJ
 70
     1
  9
$DIMTZIN
 70
     0
  9
$DIMALTZ
 70
     0
  9
$DIMALTTZ
 70
     0
  9
$DIMFIT
 70
     5
  9
$DIMUPT
 70
     0
  9
$DIMUNIT
 70
     2
  9
$DIMDEC
 70
     4
  9
$DIMTDEC
 70
     4
  9
$DIMALTU
 70
     2
  9
$DIMALTTD
 70
     2
  9
$DIMTXSTY
  7
STANDARD
  9
$DIMAUNIT
 70
     0
  9
$LUNITS
 70
     2
  9
$LUPREC
 70
     4
  9
$SKETCHINC
 40
0.1
  9
$FILLETRAD
 40
0.0
  9
$AUNITS
 70
     0
  9
$AUPREC
 70
     0
  9
$MENU
  1
.
  9
$ELEVATION
 40
0.0
  9
$PELEVATION
 40
0.0
  9
$THICKNESS
 40
0.0
  9
$LIMCHECK
 70
     0
  9
$CHAMFERA
 40
0.0
  9
$CHAMFERB
 40
0.0
  9
$CHAMFERC
 40
0.0
  9
$CHAMFERD
 40
0.0
  9
$SKPOLY
 70
     0
  9
$TDCREATE
 40
2455531.52585213
  9
$TDUPDATE
 40
2459101.559318623
  9
$TDINDWG
 40
0.0008127199
  9
$TDUSRTIMER
 40
0.0000980324
  9
$USRTIMER
 70
     1
  9
$ANGBASE
 50
0.0
  9
$ANGDIR
 70
     0
  9
$PDMODE
 70
     0
  9
$PDSIZE
 40
0.0
  9
$PLINEWID
 40
0.0
  9
$COORDS
 70
     1
  9
$SPLFRAME
 70
     0
  9
$SPLINETYPE
 70
     6
  9
$SPLINESEGS
 70
     8
  9
$ATTDIA
 70
     0
  9
$ATTREQ
 70
     1
  9
$HANDLING
 70
     1
  9
$HANDSEED
  5
385
  9
$SURFTAB1
 70
     6
  9
$SURFTAB2
 70
     6
  9
$SURFTYPE
 70
     6
  9
$SURFU
 70
     6
  9
$SURFV
 70
     6
  9
$UCSNAME
  2

  9
$UCSORG
 10
0.0
 20
0.0
 30
0.0
  9
$UCSXDIR
 10
1.0
 20
0.0
 30
0.0
  9
$UCSYDIR
 10
0.0
 20
1.0
 30
0.0
  9
$PUCSNAME
  2

  9
$PUCSORG
 10
0.0
 20
0.0
 30
0.0
  9
$PUCSXDIR
 10
1.0
 20
0.0
 30
0.0
  9
$PUCSYDIR
 10
0.0
 20
1.0
 30
0.0
  9
$USERI1
 70
     0
  9
$USERI2
 70
     0
  9
$USERI3
 70
     0
  9
$USERI4
 70
     0
  9
$USERI5
 70
     0
  9
$USERR1
 40
0.0
  9
$USERR2
 40
0.0
  9
$USERR3
 40
0.0
  9
$USERR4
 40
0.0
  9
$USERR5
 40
0.0
  9
$WORLDVIEW
 70
     1
  9
$SHADEDGE
 70
     3
  9
$SHADEDIF
 70
    70
  9
$TILEMODE
 70
     1
  9
$MAXACTVP
 70
    64
  9
$PINSBASE
 10
0.0
 20
0.0
 30
0.0
  9
$PLIMCHECK
 70
     0
  9
$PEXTMIN
 10
0.0
 20
0.0
 30
0.0
  9
$PEXTMAX
 10
0.0
 20
0.0
 30
0.0
  9
$PLIMMIN
 10
0.0
 20
0.0
  9
$PLIMMAX
 10
0.0
 20
0.0
  9
$UNITMODE
 70
     0
  9
$VISRETAIN
 70
     1
  9
$PLINEGEN
 70
     0
  9
$PSLTSCALE
 70
     1
  9
$TREEDEPTH
 70
  3020
  9
$PICKSTYLE
 70
     0
  9
$CMLSTYLE
  2
STANDARD
  9
$CMLJUST
 70
     0
  9
$CMLSCALE
 40
1.0
  9
$PROXYGRAPHICS
 70
     1
  9
$MEASUREMENT
 70
     0
  0
ENDSEC
  0
SECTION
  2
CLASSES
  0
CLASS
  1
ACDBDICTIONARYWDFLT
  2
AcDbDictionaryWithDefault
  3
ObjectDBX Classes
 90
        0
280
     0
281
     0
  0
CLASS
  1
MATERIAL
  2
AcDbMaterial
  3
ObjectDBX Classes
 90
     1153
280
     0
281
     0
  0
CLASS
  1
SCALE
  2
AcDbScale
  3
ObjectDBX Classes
 90
     1153
280
     0
281
     0
  0
CLASS
  1
VISUALSTYLE
  2
AcDbVisualStyle
  3
ObjectDBX Classes
 90
     4095
280
     0
281
     0
  0
CLASS
  1
TABLESTYLE
  2
AcDbTableStyle
  3
ObjectDBX Classes
 90
     4095
280
     0
281
     0
  0
CLASS
  1
MLEADERSTYLE
  2
AcDbMLeaderStyle
  3
ACDB_MLEADERSTYLE_CLASS
 90
     4095
280
     0
281
     0
  0
CLASS
  1
DICTIONARYVAR
  2
AcDbDictionaryVar
  3
ObjectDBX Classes
 90
        0
280
     0
281
     0
  0
CLASS
  1
XRECORD
  2
AcDbXrecord
  3
ObjectDBX Classes
 90
        0
280
     0
281
     0
  0
CLASS
  1
LWPOLYLINE
  2
AcDbPolyline
  3
ObjectDBX Classes
 90
        0
280
     0
281
     1
  0
CLASS
  1
HATCH
  2
AcDbHatch
  3
ObjectDBX Classes
 90
        0
280
     0
281
     1
  0
ENDSEC
  0
SECTION
  2
TABLES
  0
TABLE
  2
VPORT
  5
30F
330
0
100
AcDbSymbolTable
 70
     1
  0
VPORT
  5
326
330
30F
100
AcDbSymbolTableRecord
100
AcDbViewportTableRecord
  2
*ACTIVE
 70
     0
 10
0.0
 20
0.0
 11
1.0
 21
1.0
 12
1383.693826896059
 22
138.1047718151312
 13
0.0
 23
0.0
 14
0.5
 24
0.5
 15
0.5
 25
0.5
 16
0.0
 26
0.0
 36
1.0
 17
0.0
 27
0.0
 37
0.0
 40
2375.86002991899
 41
2.091520861372813
 42
50.0
 43
0.0
 44
0.0
 50
0.0
 51
0.0
 71
    16
 72
  1000
 73
     1
 74
     3
 75
     0
 76
     0
 77
     0
 78
     0
  0
ENDTAB
  0
TABLE
  2
LTYPE
  5
30C
330
0
100
AcDbSymbolTable
 70
     1
  0
LTYPE
  5
31A
330
30C
100
AcDbSymbolTableRecord
100
AcDbLinetypeTableRecord
  2
BYBLOCK
 70
     0
  3

 72
    65
 73
     0
 40
0.0
  0
LTYPE
  5
31B
330
30C
100
AcDbSymbolTableRecord
100
AcDbLinetypeTableRecord
  2
BYLAYER
 70
     0
  3

 72
    65
 73
     0
 40
0.0
  0
LTYPE
  5
31C
330
30C
100
AcDbSymbolTableRecord
100
AcDbLinetypeTableRecord
  2
CONTINUOUS
 70
     0
  3
Solid line
 72
    65
 73
     0
 40
0.0
  0
ENDTAB
  0
TABLE
  2
LAYER
  5
30A
330
0
100
AcDbSymbolTable
 70
     2
  0
LAYER
  5
317
330
30A
100
AcDbSymbolTableRecord
100
AcDbLayerTableRecord
  2
0
 70
     0
 62
     7
  6
CONTINUOUS
  0
LAYER
  5
32D
330
30A
100
AcDbSymbolTableRecord
100
AcDbLayerTableRecord
  2
CONTORNO
 70
     0
 62
     7
  6
CONTINUOUS
  0
ENDTAB
  0
TABLE
  2
STYLE
  5
30B
330
0
100
AcDbSymbolTable
 70
     3
  0
STYLE
  5
318
330
30B
100
AcDbSymbolTableRecord
100
AcDbTextStyleTableRecord
  2
STANDARD
 70
     0
 40
0.0
 41
1.0
 50
0.0
 71
     0
 42
0.2
  3
txt.shx
  4

  0
STYLE
  5
32F
330
30B
100
AcDbSymbolTableRecord
100
AcDbTextStyleTableRecord
  2
ANNOTATIVE
 70
     0
 40
0.0
 41
1.0
 50
0.0
 71
     0
 42
0.2
  3
txt
  4

  0
STYLE
  5
330
330
30B
100
AcDbSymbolTableRecord
100
AcDbTextStyleTableRecord
  2
ANNOTATIVA
 70
     0
 40
0.0
 41
1.0
 50
0.0
 71
     0
 42
0.2
  3
txt.shx
  4

  0
ENDTAB
  0
TABLE
  2
VIEW
  5
30D
330
0
100
AcDbSymbolTable
 70
     0
  0
ENDTAB
  0
TABLE
  2
UCS
  5
30E
330
0
100
AcDbSymbolTable
 70
     0
  0
ENDTAB
  0
TABLE
  2
APPID
  5
310
330
0
100
AcDbSymbolTable
 70
     6
  0
APPID
  5
319
330
310
100
AcDbSymbolTableRecord
100
AcDbRegAppTableRecord
  2
ACAD
 70
     0
  0
APPID
  5
332
330
310
100
AcDbSymbolTableRecord
100
AcDbRegAppTableRecord
  2
ACADANNOTATIVE
 70
     0
  0
APPID
  5
333
330
310
100
AcDbSymbolTableRecord
100
AcDbRegAppTableRecord
  2
ACAD_MLEADERVER
 70
     0
  0
APPID
  5
334
330
310
100
AcDbSymbolTableRecord
100
AcDbRegAppTableRecord
  2
ACADANNOPO
 70
     0
  0
APPID
  5
335
330
310
100
AcDbSymbolTableRecord
100
AcDbRegAppTableRecord
  2
ACAD_DSTYLE_DIMJAG
 70
     0
  0
APPID
  5
336
330
310
100
AcDbSymbolTableRecord
100
AcDbRegAppTableRecord
  2
ACAD_DSTYLE_DIMTALN
 70
     0
  0
ENDTAB
  0
TABLE
  2
DIMSTYLE
  5
311
330
0
100
AcDbSymbolTable
 70
     4
  0
DIMSTYLE
105
337
330
311
100
AcDbSymbolTableRecord
100
AcDbDimStyleTableRecord
  2
STANDARD
 70
     0
  3

  4

  5

  6

  7

 40
1.0
 41
0.18
 42
0.0625
 43
0.38
 44
0.18
 45
0.0
 46
0.0
 47
0.0
 48
0.0
140
0.18
141
0.09
142
0.0
143
25.4
144
1.0
145
0.0
146
1.0
147
0.09
 71
     0
 72
     0
 73
     1
 74
     1
 75
     0
 76
     0
 77
     0
 78
     0
170
     0
171
     2
172
     0
173
     0
174
     0
175
     0
176
     0
177
     0
178
     0
270
     2
271
     4
272
     4
273
     2
274
     2
340
318
275
     0
280
     0
281
     0
282
     0
283
     1
284
     0
285
     0
286
     0
287
     3
288
     0
  0
DIMSTYLE
105
338
330
311
100
AcDbSymbolTableRecord
100
AcDbDimStyleTableRecord
  2
ANNOTATIVE
 70
     0
  3

  4

  5

  6

  7

 40
1.0
 41
0.18
 42
0.0625
 43
0.38
 44
0.18
 45
0.0
 46
0.0
 47
0.0
 48
0.0
140
0.18
141
0.09
142
0.0
143
25.4
144
1.0
145
0.0
146
1.0
147
0.09
 71
     0
 72
     0
 73
     1
 74
     1
 75
     0
 76
     0
 77
     0
 78
     0
170
     0
171
     2
172
     0
173
     0
174
     0
175
     0
176
     0
177
     0
178
     0
270
     2
271
     4
272
     4
273
     2
274
     2
340
318
275
     0
280
     0
281
     0
282
     0
283
     1
284
     0
285
     0
286
     0
287
     3
288
     0
  0
DIMSTYLE
105
339
330
311
100
AcDbSymbolTableRecord
100
AcDbDimStyleTableRecord
  2
ANNOTATIVA
 70
     0
  3

  4

  5

  6

  7

 40
0.0
 41
0.18
 42
0.0625
 43
0.38
 44
0.18
 45
0.0
 46
0.0
 47
0.0
 48
0.0
140
0.18
141
0.09
142
0.0
143
25.4
144
1.0
145
0.0
146
1.0
147
0.09
 71
     0
 72
     0
 73
     1
 74
     1
 75
     0
 76
     0
 77
     0
 78
     0
170
     0
171
     2
172
     0
173
     0
174
     0
175
     0
176
     0
177
     0
178
     0
270
     2
271
     4
272
     4
273
     2
274
     2
340
318
275
     0
280
     0
281
     0
282
     0
283
     1
284
     0
285
     0
286
     0
287
     3
288
     0
  0
DIMSTYLE
105
33A
330
311
100
AcDbSymbolTableRecord
100
AcDbDimStyleTableRecord
  2
ISO-25
 70
     0
  3

  4

  5

  6

  7

 40
1.0
 41
2.5
 42
0.625
 43
3.75
 44
1.25
 45
0.0
 46
0.0
 47
0.0
 48
0.0
140
2.5
141
2.5
142
0.0
143
0.0393700787
144
1.0
145
0.0
146
1.0
147
0.625
 71
     0
 72
     0
 73
     0
 74
     0
 75
     0
 76
     0
 77
     1
 78
     8
170
     0
171
     3
172
     1
173
     0
174
     0
175
     0
176
     0
177
     0
178
     0
270
     2
271
     4
272
     4
273
     2
274
     2
340
318
275
     0
280
     0
281
     0
282
     0
283
     1
284
     0
285
     0
286
     0
287
     3
288
     0
  0
ENDTAB
  0
TABLE
  2
BLOCK_RECORD
  5
309
330
0
100
AcDbSymbolTable
 70
     0
  0
BLOCK_RECORD
  5
323
330
309
100
AcDbSymbolTableRecord
100
AcDbBlockTableRecord
  2
*MODEL_SPACE
  0
BLOCK_RECORD
  5
321
330
309
100
AcDbSymbolTableRecord
100
AcDbBlockTableRecord
  2
*PAPER_SPACE
  0
ENDTAB
  0
ENDSEC
  0
SECTION
  2
BLOCKS
  0
BLOCK
  5
33B
330
323
100
AcDbEntity
  8
0
100
AcDbBlockBegin
  2
*MODEL_SPACE
 70
     0
 10
0.0
 20
0.0
 30
0.0
  3
*MODEL_SPACE
  1

  0
ENDBLK
  5
2DE
330
323
100
AcDbEntity
  8
0
100
AcDbBlockEnd
  0
BLOCK
  5
33C
330
321
100
AcDbEntity
 67
     1
  8
0
100
AcDbBlockBegin
  2
*PAPER_SPACE
 70
     0
 10
0.0
 20
0.0
 30
0.0
  3
*PAPER_SPACE
  1

  0
ENDBLK
  5
2DA
330
321
100
AcDbEntity
 67
     1
  8
0
100
AcDbBlockEnd
  0
ENDSEC
  0
SECTION
  2
ENTITIES
  0
LINE
  5
185
330
323
100
AcDbEntity
  8
0
100
AcDbLine
 10
30.44233424540113
 20
22.97408000982824
 30
0.0
 11
1175.442334245398
 21
22.97408000982733
 31
0.0
  0
LINE
  5
186
330
323
100
AcDbEntity
  8
0
100
AcDbLine
 10
30.44233424540113
 20
449.7102066451954
 30
0.0
 11
1175.442334245399
 21
449.7102066451951
 31
0.0
  0
LINE
  5
187
330
323
100
AcDbEntity
  8
0
100
AcDbLine
 10
30.44233424540022
 20
449.710206645196
 30
0.0
 11
30.44233424540017
 21
427.7102066451956
 31
0.0
  0
LINE
  5
188
330
323
100
AcDbEntity
  8
0
100
AcDbLine
 10
1175.4423342454
 20
449.7102066451937
 30
0.0
 11
1175.4423342454
 21
427.7102066451956
 31
0.0
  0
LINE
  5
189
330
323
100
AcDbEntity
  8
0
100
AcDbLine
 10
1175.4423342454
 20
421.7102066451953
 30
0.0
 11
1175.4423342454
 21
377.7102066451968
 31
0.0
  0
LINE
  5
18A
330
323
100
AcDbEntity
  8
0
100
AcDbLine
 10
1175.4423342454
 20
371.710206645196
 30
0.0
 11
1175.442334245401
 21
317.7102066451965
 31
0.0
  0
LINE
  5
18B
330
323
100
AcDbEntity
  8
0
100
AcDbLine
 10
1175.442334245399
 20
311.7102066451956
 30
0.0
 11
1175.442334245399
 21
248.5406281373474
 31
0.0
  0
LINE
  5
18C
330
323
100
AcDbEntity
  8
0
100
AcDbLine
 10
1175.442334245398
 20
242.5406281373474
 30
0.0
 11
1175.442334245399
 21
165.8543366363322
 31
0.0
  0
LINE
  5
18D
330
323
100
AcDbEntity
  8
0
100
AcDbLine
 10
1175.442334245399
 20
159.8543366363322
 30
0.0
 11
1175.442334245399
 21
96.68475812848402
 31
0.0
  0
LINE
  5
18E
330
323
100
AcDbEntity
  8
0
100
AcDbLine
 10
1175.442334245399
 20
90.68475812848357
 30
0.0
 11
1175.442334245399
 21
22.97408000982597
 31
0.0
  0
LINE
  5
18F
330
323
100
AcDbEntity
  8
0
100
AcDbLine
 10
1175.442334245398
 20
96.68475812848357
 30
0.0
 11
1165.442334245399
 21
93.68475812848357
 31
0.0
  0
LINE
  5
190
330
323
100
AcDbEntity
  8
0
100
AcDbLine
 10
1165.442334245399
 20
93.68475812848357
 30
0.0
 11
1175.442334245399
 21
90.68475812848357
 31
0.0
  0
LINE
  5
191
330
323
100
AcDbEntity
  8
0
100
AcDbLine
 10
1175.442334245398
 20
165.8543366363318
 30
0.0
 11
1165.442334245399
 21
162.8543366363317
 31
0.0
  0
LINE
  5
192
330
323
100
AcDbEntity
  8
0
100
AcDbLine
 10
1165.442334245399
 20
162.8543366363317
 30
0.0
 11
1175.442334245399
 21
159.8543366363317
 31
0.0
  0
LINE
  5
193
330
323
100
AcDbEntity
  8
0
100
AcDbLine
 10
1175.442334245399
 20
248.5406281373474
 30
0.0
 11
1165.4423342454
 21
245.5406281373474
 31
0.0
  0
LINE
  5
194
330
323
100
AcDbEntity
  8
0
100
AcDbLine
 10
1165.4423342454
 20
245.5406281373474
 30
0.0
 11
1175.4423342454
 21
242.5406281373474
 31
0.0
  0
LINE
  5
195
330
323
100
AcDbEntity
  8
0
100
AcDbLine
 10
1175.442334245398
 20
317.7102066451956
 30
0.0
 11
1165.442334245399
 21
314.7102066451956
 31
0.0
  0
LINE
  5
196
330
323
100
AcDbEntity
  8
0
100
AcDbLine
 10
1165.442334245399
 20
314.7102066451956
 30
0.0
 11
1175.442334245399
 21
311.7102066451956
 31
0.0
  0
LINE
  5
197
330
323
100
AcDbEntity
  8
0
100
AcDbLine
 10
1175.442334245398
 20
377.710206645196
 30
0.0
 11
1165.442334245399
 21
374.710206645196
 31
0.0
  0
LINE
  5
198
330
323
100
AcDbEntity
  8
0
100
AcDbLine
 10
1165.442334245399
 20
374.710206645196
 30
0.0
 11
1175.442334245399
 21
371.710206645196
 31
0.0
  0
LINE
  5
199
330
323
100
AcDbEntity
  8
0
100
AcDbLine
 10
1175.442334245398
 20
427.7102066451951
 30
0.0
 11
1165.442334245399
 21
424.7102066451951
 31
0.0
  0
LINE
  5
19A
330
323
100
AcDbEntity
  8
0
100
AcDbLine
 10
1165.442334245399
 20
424.7102066451951
 30
0.0
 11
1175.442334245399
 21
421.7102066451952
 31
0.0
  0
LINE
  5
19B
330
323
100
AcDbEntity
  8
0
100
AcDbLine
 10
30.44233424540204
 20
96.68475812848357
 30
0.0
 11
40.4423342454011
 21
93.68475812848357
 31
0.0
  0
LINE
  5
19C
330
323
100
AcDbEntity
  8
0
100
AcDbLine
 10
40.4423342454011
 20
93.68475812848357
 30
0.0
 11
30.44233424540113
 21
90.68475812848357
 31
0.0
  0
LINE
  5
19D
330
323
100
AcDbEntity
  8
0
100
AcDbLine
 10
30.44233424540204
 20
165.8543366363318
 30
0.0
 11
40.4423342454011
 21
162.8543366363317
 31
0.0
  0
LINE
  5
19E
330
323
100
AcDbEntity
  8
0
100
AcDbLine
 10
40.4423342454011
 20
162.8543366363317
 30
0.0
 11
30.44233424540113
 21
159.8543366363317
 31
0.0
  0
LINE
  5
19F
330
323
100
AcDbEntity
  8
0
100
AcDbLine
 10
30.44233424540113
 20
248.5406281373474
 30
0.0
 11
40.44233424540021
 21
245.5406281373474
 31
0.0
  0
LINE
  5
1A0
330
323
100
AcDbEntity
  8
0
100
AcDbLine
 10
40.44233424540021
 20
245.5406281373474
 30
0.0
 11
30.44233424540022
 21
242.5406281373474
 31
0.0
  0
LINE
  5
1A1
330
323
100
AcDbEntity
  8
0
100
AcDbLine
 10
30.44233424540204
 20
317.7102066451956
 30
0.0
 11
40.4423342454011
 21
314.7102066451956
 31
0.0
  0
LINE
  5
1A2
330
323
100
AcDbEntity
  8
0
100
AcDbLine
 10
40.4423342454011
 20
314.7102066451956
 30
0.0
 11
30.44233424540113
 21
311.7102066451956
 31
0.0
  0
LINE
  5
1A3
330
323
100
AcDbEntity
  8
0
100
AcDbLine
 10
30.44233424540204
 20
377.710206645196
 30
0.0
 11
40.4423342454011
 21
374.710206645196
 31
0.0
  0
LINE
  5
1A4
330
323
100
AcDbEntity
  8
0
100
AcDbLine
 10
40.4423342454011
 20
374.710206645196
 30
0.0
 11
30.44233424540113
 21
371.710206645196
 31
0.0
  0
LINE
  5
1A5
330
323
100
AcDbEntity
  8
0
100
AcDbLine
 10
30.44233424540204
 20
427.7102066451951
 30
0.0
 11
40.4423342454011
 21
424.7102066451951
 31
0.0
  0
LINE
  5
1A6
330
323
100
AcDbEntity
  8
0
100
AcDbLine
 10
40.4423342454011
 20
424.7102066451951
 30
0.0
 11
30.44233424540113
 21
421.7102066451952
 31
0.0
  0
LINE
  5
1A7
330
323
100
AcDbEntity
  8
0
100
AcDbLine
 10
30.44233424540016
 20
421.7102066451947
 30
0.0
 11
30.44233424540006
 21
377.7102066451965
 31
0.0
  0
LINE
  5
1AA
330
323
100
AcDbEntity
  8
0
100
AcDbLine
 10
30.44233424540005
 20
371.7102066451957
 30
0.0
 11
30.44233424539994
 21
317.7102066451961
 31
0.0
  0
LINE
  5
1AB
330
323
100
AcDbEntity
  8
0
100
AcDbLine
 10
30.44233424539993
 20
311.7102066451952
 30
0.0
 11
30.44233424539978
 21
248.5406281373478
 31
0.0
  0
LINE
  5
1AC
330
323
100
AcDbEntity
  8
0
100
AcDbLine
 10
30.44233424539978
 20
242.5406281373473
 30
0.0
 11
30.44233424539962
 21
165.8543366363325
 31
0.0
  0
LINE
  5
1AD
330
323
100
AcDbEntity
  8
0
100
AcDbLine
 10
30.44233424539959
 20
159.8543366363312
 30
0.0
 11
30.44233424539945
 21
96.6847581284843
 31
0.0
  0
LINE
  5
1AE
330
323
100
AcDbEntity
  8
0
100
AcDbLine
 10
30.44233424539945
 20
90.68475812848308
 30
0.0
 11
30.44233424539933
 21
22.97408000982824
 31
0.0
  0
ENDSEC
  0
SECTION
  2
OBJECTS
  0
DICTIONARY
  5
313
330
0
100
AcDbDictionary
  3
ACAD_DETAILVIEWSTYLE
350
382
  3
ACAD_GROUP
350
314
  3
ACAD_MLINESTYLE
350
31D
  3
ACAD_SCALELIST
350
33D
  3
ACAD_SECTIONVIEWSTYLE
350
383
  3
ACDBVARIABLEDICTIONARY
350
37D
  3
APPDATA
350
37C
  3
DWGPROPS
350
384
  0
DICTIONARY
  5
382
102
{ACAD_REACTORS
330
313
102
}
330
313
100
AcDbDictionary
  0
DICTIONARY
  5
314
102
{ACAD_REACTORS
330
313
102
}
330
313
100
AcDbDictionary
  0
DICTIONARY
  5
31D
102
{ACAD_REACTORS
330
313
102
}
330
313
100
AcDbDictionary
  3
STANDARD
350
31E
  0
DICTIONARY
  5
33D
102
{ACAD_REACTORS
330
313
102
}
330
313
100
AcDbDictionary
  0
DICTIONARY
  5
383
102
{ACAD_REACTORS
330
313
102
}
330
313
100
AcDbDictionary
  0
DICTIONARY
  5
37D
102
{ACAD_REACTORS
330
313
102
}
330
313
100
AcDbDictionary
  0
DICTIONARY
  5
37C
102
{ACAD_REACTORS
330
313
102
}
330
313
100
AcDbDictionary
  0
XRECORD
  5
384
102
{ACAD_REACTORS
330
313
102
}
330
313
100
AcDbXrecord
  1
DWGPROPS COOKIE
  2

  3

  4

  6

  7

  8
Principale
  9

300
=
301
=
302
=
303
=
304
=
305
=
306
=
307
=
308
=
309
=
 40
0.0
 41
2455531.442518796
 42
2459101.47598529
  1

 90
        0
  0
MLINESTYLE
  5
31E
102
{ACAD_REACTORS
330
31D
102
}
330
31D
100
AcDbMlineStyle
  2
Standard
 70
     0
  3

 62
   256
 51
90.0
 52
90.0
 71
     2
 49
0.5
 62
   256
  6
BYLAYER
 49
-0.5
 62
   256
  6
BYLAYER
  0
ENDSEC
  0
EOF
