  0
SECTION
  2
HEADER
  9
$ACADVER
  1
AC1009
  9
$DWGCODEPAGE
  3
ansi_1252
  9
$INSBASE
 10
0.0
 20
0.0
 30
0.0
  9
$EXTMIN
 10
71.60771457115288
 20
-90.1220606489104
 30
0.0
  9
$EXTMAX
 10
1211.607714571151
 20
-60.12206064890937
 30
0.0
  9
$LIMMIN
 10
0.0
 20
0.0
  9
$LIMMAX
 10
12.0
 20
9.0
  9
$ORTHOMODE
 70
     1
  9
$REGENMODE
 70
     1
  9
$FILLMODE
 70
     1
  9
$QTEXTMODE
 70
     0
  9
$MIRRTEXT
 70
     0
  9
$DRAGMODE
 70
     2
  9
$LTSCALE
 40
1.0
  9
$OSMODE
 70
  5119
  9
$ATTMODE
 70
     1
  9
$TEXTSIZE
 40
0.2
  9
$TRACEWID
 40
0.05
  9
$TEXTSTYLE
  7
STANDARD
  9
$CLAYER
  8
0
  9
$CELTYPE
  6
BYLAYER
  9
$CECOLOR
 62
   256
  9
$DIMSCALE
 40
1.0
  9
$DIMASZ
 40
0.18
  9
$DIMEXO
 40
0.0625
  9
$DIMDLI
 40
0.38
  9
$DIMRND
 40
0.0
  9
$DIMDLE
 40
0.0
  9
$DIMEXE
 40
0.18
  9
$DIMTP
 40
0.0
  9
$DIMTM
 40
0.0
  9
$DIMTXT
 40
0.18
  9
$DIMCEN
 40
0.09
  9
$DIMTSZ
 40
0.0
  9
$DIMTOL
 70
     0
  9
$DIMLIM
 70
     0
  9
$DIMTIH
 70
     1
  9
$DIMTOH
 70
     1
  9
$DIMSE1
 70
     0
  9
$DIMSE2
 70
     0
  9
$DIMTAD
 70
     0
  9
$DIMZIN
 70
     0
  9
$DIMBLK
  1

  9
$DIMASO
 70
     1
  9
$DIMSHO
 70
     1
  9
$DIMPOST
  1

  9
$DIMAPOST
  1

  9
$DIMALT
 70
     0
  9
$DIMALTD
 70
     2
  9
$DIMALTF
 40
25.4
  9
$DIMLFAC
 40
1.0
  9
$DIMTOFL
 70
     0
  9
$DIMTVP
 40
0.0
  9
$DIMTIX
 70
     0
  9
$DIMSOXD
 70
     0
  9
$DIMSAH
 70
     0
  9
$DIMBLK1
  1

  9
$DIMBLK2
  1

  9
$DIMSTYLE
  2
STANDARD
  9
$DIMCLRD
 70
     0
  9
$DIMCLRE
 70
     0
  9
$DIMCLRT
 70
     0
  9
$DIMTFAC
 40
1.0
  9
$DIMGAP
 40
0.09
  9
$LUNITS
 70
     2
  9
$LUPREC
 70
     4
  9
$SKETCHINC
 40
0.1
  9
$FILLETRAD
 40
3.0
  9
$AUNITS
 70
     0
  9
$AUPREC
 70
     0
  9
$MENU
  1
.
  9
$ELEVATION
 40
0.0
  9
$PELEVATION
 40
0.0
  9
$THICKNESS
 40
0.0
  9
$LIMCHECK
 70
     0
  9
$CHAMFERA
 40
0.0
  9
$CHAMFERB
 40
0.0
  9
$SKPOLY
 70
     0
  9
$TDCREATE
 40
2455531.355564954
  9
$TDUPDATE
 40
2457077.792805254
  9
$TDINDWG
 40
0.0245945486
  9
$TDUSRTIMER
 40
2457077.749495868
  9
$USRTIMER
 70
     1
  9
$ANGBASE
 50
0.0
  9
$ANGDIR
 70
     0
  9
$PDMODE
 70
     0
  9
$PDSIZE
 40
0.0
  9
$PLINEWID
 40
0.0
  9
$COORDS
 70
     2
  9
$SPLFRAME
 70
     0
  9
$SPLINETYPE
 70
     6
  9
$SPLINESEGS
 70
     8
  9
$ATTDIA
 70
     0
  9
$ATTREQ
 70
     1
  9
$HANDLING
 70
     1
  9
$HANDSEED
  5
B25
  9
$SURFTAB1
 70
     6
  9
$SURFTAB2
 70
     6
  9
$SURFTYPE
 70
     6
  9
$SURFU
 70
     6
  9
$SURFV
 70
     6
  9
$UCSNAME
  2

  9
$UCSORG
 10
0.0
 20
0.0
 30
0.0
  9
$UCSXDIR
 10
1.0
 20
0.0
 30
0.0
  9
$UCSYDIR
 10
0.0
 20
1.0
 30
0.0
  9
$PUCSNAME
  2

  9
$PUCSORG
 10
0.0
 20
0.0
 30
0.0
  9
$PUCSXDIR
 10
1.0
 20
0.0
 30
0.0
  9
$PUCSYDIR
 10
0.0
 20
1.0
 30
0.0
  9
$USERI1
 70
     0
  9
$USERI2
 70
     0
  9
$USERI3
 70
     0
  9
$USERI4
 70
     0
  9
$USERI5
 70
     0
  9
$USERR1
 40
0.0
  9
$USERR2
 40
0.0
  9
$USERR3
 40
0.0
  9
$USERR4
 40
0.0
  9
$USERR5
 40
0.0
  9
$WORLDVIEW
 70
     1
  9
$SHADEDGE
 70
     3
  9
$SHADEDIF
 70
    70
  9
$TILEMODE
 70
     1
  9
$MAXACTVP
 70
    64
  9
$PLIMCHECK
 70
     0
  9
$PEXTMIN
 10
0.0
 20
0.0
 30
0.0
  9
$PEXTMAX
 10
0.0
 20
0.0
 30
0.0
  9
$PLIMMIN
 10
0.0
 20
0.0
  9
$PLIMMAX
 10
0.0
 20
0.0
  9
$UNITMODE
 70
     0
  9
$VISRETAIN
 70
     1
  9
$PLINEGEN
 70
     0
  9
$PSLTSCALE
 70
     1
  0
ENDSEC
  0
SECTION
  2
TABLES
  0
TABLE
  2
VPORT
 70
     1
  0
VPORT
  2
*ACTIVE
 70
     0
 10
0.0
 20
0.0
 11
1.0
 21
1.0
 12
1910.868394489184
 22
-36.57475261884019
 13
0.0
 23
0.0
 14
0.5
 24
0.5
 15
0.5
 25
0.5
 16
0.0
 26
0.0
 36
1.0
 17
0.0
 27
0.0
 37
0.0
 40
1093.088177275209
 41
1.874336283185841
 42
50.0
 43
0.0
 44
0.0
 50
0.0
 51
0.0
 71
    16
 72
  1000
 73
     1
 74
     3
 75
     0
 76
     0
 77
     0
 78
     0
  0
ENDTAB
  0
TABLE
  2
LTYPE
 70
     2
  0
LTYPE
  2
CONTINUOUS
 70
     0
  3
Solid line
 72
    65
 73
     0
 40
0.0
  0
LTYPE
  2
CENTERX2
 70
     0
  3
Center (2x) ________  __  ________  __  _____
 72
    65
 73
     4
 40
20.32
 49
12.7
 49
-2.54
 49
2.54
 49
-2.54
  0
ENDTAB
  0
TABLE
  2
LAYER
 70
     2
  0
LAYER
  2
0
 70
     0
 62
     7
  6
CONTINUOUS
  0
LAYER
  2
CONTORNO
 70
     0
 62
     7
  6
CONTINUOUS
  0
ENDTAB
  0
TABLE
  2
STYLE
 70
     3
  0
STYLE
  2
STANDARD
 70
     0
 40
0.0
 41
1.0
 50
0.0
 71
     0
 42
0.2
  3
txt.shx
  4

  0
STYLE
  2
ANNOTATIVE
 70
     0
 40
0.0
 41
1.0
 50
0.0
 71
     0
 42
0.2
  3
txt
  4

  0
STYLE
  2
ANNOTATIVA
 70
     0
 40
0.0
 41
1.0
 50
0.0
 71
     0
 42
0.2
  3
txt.shx
  4

  0
ENDTAB
  0
TABLE
  2
VIEW
 70
     0
  0
ENDTAB
  0
TABLE
  2
UCS
 70
     0
  0
ENDTAB
  0
TABLE
  2
APPID
 70
     7
  0
APPID
  2
ACAD
 70
     0
  0
APPID
  2
ACADANNOTATIVE
 70
     0
  0
APPID
  2
ACAD_MLEADERVER
 70
     0
  0
APPID
  2
ACADANNOPO
 70
     0
  0
APPID
  2
ACAD_DSTYLE_DIMJAG
 70
     0
  0
APPID
  2
ACAD_DSTYLE_DIMTALN
 70
     0
  0
APPID
  2
ACAD_EXEMPT_FROM_CAD_STAND
 70
     0
  0
ENDTAB
  0
TABLE
  2
DIMSTYLE
 70
     4
  0
DIMSTYLE
  2
STANDARD
 70
     0
  3

  4

  5

  6

  7

 40
1.0
 41
0.18
 42
0.0625
 43
0.38
 44
0.18
 45
0.0
 46
0.0
 47
0.0
 48
0.0
140
0.18
141
0.09
142
0.0
143
25.4
144
1.0
145
0.0
146
1.0
147
0.09
 71
     0
 72
     0
 73
     1
 74
     1
 75
     0
 76
     0
 77
     0
 78
     0
170
     0
171
     2
172
     0
173
     0
174
     0
175
     0
176
     0
177
     0
178
     0
  0
DIMSTYLE
  2
ANNOTATIVE
 70
     0
  3

  4

  5

  6

  7

 40
1.0
 41
0.18
 42
0.0625
 43
0.38
 44
0.18
 45
0.0
 46
0.0
 47
0.0
 48
0.0
140
0.18
141
0.09
142
0.0
143
25.4
144
1.0
145
0.0
146
1.0
147
0.09
 71
     0
 72
     0
 73
     1
 74
     1
 75
     0
 76
     0
 77
     0
 78
     0
170
     0
171
     2
172
     0
173
     0
174
     0
175
     0
176
     0
177
     0
178
     0
  0
DIMSTYLE
  2
ANNOTATIVA
 70
     0
  3

  4

  5

  6

  7

 40
0.0
 41
0.18
 42
0.0625
 43
0.38
 44
0.18
 45
0.0
 46
0.0
 47
0.0
 48
0.0
140
0.18
141
0.09
142
0.0
143
25.4
144
1.0
145
0.0
146
1.0
147
0.09
 71
     0
 72
     0
 73
     1
 74
     1
 75
     0
 76
     0
 77
     0
 78
     0
170
     0
171
     2
172
     0
173
     0
174
     0
175
     0
176
     0
177
     0
178
     0
  0
DIMSTYLE
  2
ISO-25
 70
     0
  3

  4

  5

  6

  7

 40
1.0
 41
2.5
 42
0.625
 43
3.75
 44
1.25
 45
0.0
 46
0.0
 47
0.0
 48
0.0
140
2.5
141
2.5
142
0.0
143
0.0393700787
144
1.0
145
0.0
146
1.0
147
0.625
 71
     0
 72
     0
 73
     0
 74
     0
 75
     0
 76
     0
 77
     1
 78
     8
170
     0
171
     3
172
     1
173
     0
174
     0
175
     0
176
     0
177
     0
178
     0
  0
ENDTAB
  0
ENDSEC
  0
SECTION
  2
BLOCKS
  0
BLOCK
  8
0
  2
$MODEL_SPACE
 70
     0
 10
0.0
 20
0.0
 30
0.0
  3
$MODEL_SPACE
  1

  0
ENDBLK
  5
82B
  8
0
  0
BLOCK
 67
     1
  8
0
  2
$PAPER_SPACE
 70
     0
 10
0.0
 20
0.0
 30
0.0
  3
$PAPER_SPACE
  1

  0
ENDBLK
  5
827
 67
     1
  8
0
  0
ENDSEC
  0
SECTION
  2
ENTITIES
  0
LINE
  5
ABD
  8
0
  6
CENTERX2
 62
     7
 10
1286.331629997544
 20
654.8583022333636
 30
0.0
 11
1966.592965534145
 21
654.8583022333636
 31
0.0
  0
LINE
  5
ABE
  8
0
  6
CENTERX2
 62
     7
 10
1966.592965534145
 20
-209.8824771206355
 30
0.0
 11
1397.592965534244
 21
-209.8824771206355
 31
0.0
  0
LINE
  5
ABF
  8
0
  6
CENTERX2
 62
     7
 10
1966.592965534145
 20
-171.8138936500357
 30
0.0
 11
1397.592965534244
 21
-171.8138936500357
 31
0.0
  0
LINE
  5
AC0
  8
0
  6
CENTERX2
 62
     7
 10
1397.592965534244
 20
-125.7718315853361
 30
0.0
 11
1966.592965534145
 21
-125.7718315853361
 31
0.0
  0
LINE
  5
AC1
  8
0
  6
CENTERX2
 62
     7
 10
1397.592965534244
 20
476.9323931245646
 30
0.0
 11
1966.592965534145
 21
476.9323931245646
 31
0.0
  0
LINE
  5
AC2
  8
0
  6
CONTINUOUS
 62
     7
 10
1387.592965534066
 20
155.3682255415879
 30
0.0
 11
1387.592965534047
 21
473.9323931245061
 31
0.0
  0
LINE
  5
AC3
  8
0
  6
CONTINUOUS
 62
     7
 10
1276.331629997348
 20
620.3240104980649
 30
0.0
 11
1276.394108744637
 21
620.1485699727117
 31
0.0
  0
LINE
  5
AC4
  8
0
  6
CONTINUOUS
 62
     7
 10
1276.331629997348
 20
620.3240104980649
 30
0.0
 11
1276.331629997348
 21
651.8583022333056
 31
0.0
  0
LINE
  5
AC5
  8
0
  6
CONTINUOUS
 62
     7
 10
1298.9873200391
 20
682.3925939686648
 30
0.0
 11
1966.592965534145
 21
682.3925939686648
 31
0.0
  0
LINE
  5
AC6
  8
0
  6
CONTINUOUS
 62
     7
 10
1387.592965534047
 20
-242.4167688559357
 30
0.0
 11
1966.592965534145
 21
-242.4167688559357
 31
0.0
  0
LINE
  5
AC7
  8
0
  6
CONTINUOUS
 62
     7
 10
1387.592965534047
 20
-37.93759868205694
 30
0.0
 11
1387.592965534047
 21
-122.771831585277
 31
0.0
  0
LINE
  5
AC8
  8
0
  6
CONTINUOUS
 62
     7
 10
1277.984522456907
 20
657.3624344955546
 30
0.0
 11
1298.9873200391
 21
682.3925939686648
 31
0.0
  0
LINE
  5
AC9
  8
0
 10
1387.592965534047
 20
479.9323931246232
 30
0.0
 11
1397.592965534242
 21
476.9323931245648
 31
0.0
  0
LINE
  5
ACA
  8
0
 10
1397.592965534242
 20
476.9323931245648
 30
0.0
 11
1387.592965534047
 21
473.9323931245061
 31
0.0
  0
LINE
  5
ACB
  8
0
 10
1276.394108744637
 20
620.1485699727117
 30
0.0
 11
1287.590279444293
 21
616.7897187628149
 31
0.0
  0
LINE
  5
ACC
  8
0
 10
1287.590279444293
 20
616.7897187628149
 30
0.0
 11
1278.555529400469
 21
614.079293749667
 31
0.0
  0
LINE
  5
ACD
  8
0
 10
1277.984522456907
 20
657.3624344955546
 30
0.0
 11
1286.331629997543
 21
654.8583022333647
 31
0.0
  0
LINE
  5
ACE
  8
0
 10
1286.331629997543
 20
654.8583022333647
 30
0.0
 11
1276.331629997543
 21
651.8583022333647
 31
0.0
  0
LINE
  5
ACF
  8
0
 10
1387.592965534047
 20
-122.771831585277
 30
0.0
 11
1397.592965534242
 21
-125.7718315853355
 31
0.0
  0
LINE
  5
AD0
  8
0
 10
1397.592965534242
 20
-125.7718315853355
 30
0.0
 11
1387.592965534047
 21
-128.7718315853942
 31
0.0
  0
LINE
  5
AD1
  8
0
 10
1387.592965534047
 20
-168.8138936499766
 30
0.0
 11
1397.592965534242
 21
-171.8138936500351
 31
0.0
  0
LINE
  5
AD2
  8
0
 10
1397.592965534242
 20
-171.8138936500351
 30
0.0
 11
1387.592965534047
 21
-174.8138936500939
 31
0.0
  0
LINE
  5
AD3
  8
0
 10
1387.592965534047
 20
-206.8824771205765
 30
0.0
 11
1397.592965534244
 21
-209.8824771206355
 31
0.0
  0
LINE
  5
AD4
  8
0
 10
1397.592965534241
 20
-209.8824771206355
 30
0.0
 11
1387.592965534047
 21
-212.8824771206939
 31
0.0
  0
LINE
  5
AD5
  8
0
  6
CONTINUOUS
 62
     7
 10
1387.592965534047
 20
-212.8824771206939
 30
0.0
 11
1387.592965534047
 21
-242.4167688559357
 31
0.0
  0
LINE
  5
AD6
  8
0
  6
CONTINUOUS
 62
     7
 10
1387.592965534047
 20
-174.8138936500937
 30
0.0
 11
1387.592965534047
 21
-206.8824771205765
 31
0.0
  0
LINE
  5
AD7
  8
0
  6
CONTINUOUS
 62
     7
 10
1387.592965534047
 20
-128.7718315853942
 30
0.0
 11
1387.592965534047
 21
-168.8138936499766
 31
0.0
  0
LINE
  5
AD8
  8
0
  6
CENTERX2
 62
     7
 10
2646.854301070745
 20
654.8583022333636
 30
0.0
 11
1966.592965534145
 21
654.8583022333636
 31
0.0
  0
LINE
  5
AD9
  8
0
  6
CENTERX2
 62
     7
 10
1966.592965534145
 20
-209.8824771206355
 30
0.0
 11
2535.592965534045
 21
-209.8824771206358
 31
0.0
  0
LINE
  5
ADA
  8
0
  6
CENTERX2
 62
     7
 10
1966.592965534145
 20
-171.8138936500357
 30
0.0
 11
2535.592965534045
 21
-171.8138936500358
 31
0.0
  0
LINE
  5
ADB
  8
0
  6
CENTERX2
 62
     7
 10
2535.592965534045
 20
-125.7718315853361
 30
0.0
 11
1966.592965534145
 21
-125.7718315853361
 31
0.0
  0
LINE
  5
ADC
  8
0
  6
CENTERX2
 62
     7
 10
2535.592965534046
 20
476.9323931245641
 30
0.0
 11
1966.592965534145
 21
476.9323931245646
 31
0.0
  0
LINE
  5
ADD
  8
0
  6
CONTINUOUS
 62
     7
 10
2580.069624937142
 20
12.68339048466413
 30
0.0
 11
2547.350324847142
 21
-32.12711731303597
 31
0.0
  0
LINE
  5
ADE
  8
0
  6
CONTINUOUS
 62
     7
 10
2580.948304593542
 20
101.8419956895637
 30
0.0
 11
2580.948304593542
 21
15.58863116936396
 31
0.0
  0
LINE
  5
ADF
  8
0
  6
CONTINUOUS
 62
     7
 10
2580.069624937042
 20
104.7472363742639
 30
0.0
 11
2547.350324847142
 21
149.5577441721637
 31
0.0
  0
LINE
  5
AE0
  8
0
  6
CONTINUOUS
 62
     7
 10
2545.592965534242
 20
155.3682255415636
 30
0.0
 11
2545.592965534242
 21
473.9323931245061
 31
0.0
  0
LINE
  5
AE1
  8
0
  6
CONTINUOUS
 62
     7
 10
2656.854301070942
 20
620.324010498064
 30
0.0
 11
2656.791822323652
 21
620.1485699727117
 31
0.0
  0
LINE
  5
AE2
  8
0
  6
CONTINUOUS
 62
     7
 10
2656.854301070942
 20
620.324010498064
 30
0.0
 11
2656.854301070942
 21
651.8583022333056
 31
0.0
  0
LINE
  5
AE3
  8
0
  6
CONTINUOUS
 62
     7
 10
2634.198611029189
 20
682.3925939686648
 30
0.0
 11
1966.592965534145
 21
682.3925939686648
 31
0.0
  0
LINE
  5
AE4
  8
0
  6
CONTINUOUS
 62
     7
 10
2545.592965534242
 20
-242.4167688559359
 30
0.0
 11
1966.592965534145
 21
-242.4167688559357
 31
0.0
  0
LINE
  5
AE5
  8
0
  6
CONTINUOUS
 62
     7
 10
2545.592965534242
 20
-37.93759868253602
 30
0.0
 11
2545.592965534242
 21
-122.7718315852771
 31
0.0
  0
LINE
  5
AE6
  8
0
  6
CONTINUOUS
 62
     7
 10
2545.592965534242
 20
-128.7718315853944
 30
0.0
 11
2545.592965534242
 21
-168.8138936499768
 31
0.0
  0
LINE
  5
AE7
  8
0
  6
CONTINUOUS
 62
     7
 10
2545.592965534242
 20
-174.813893650094
 30
0.0
 11
2545.592965534242
 21
-206.8824771205768
 31
0.0
  0
LINE
  5
AE8
  8
0
  6
CONTINUOUS
 62
     7
 10
2545.592965534242
 20
-212.8824771206941
 30
0.0
 11
2545.592965534242
 21
-242.4167688559359
 31
0.0
  0
ARC
  5
AE9
  8
0
  6
CONTINUOUS
 62
     7
 10
2555.529360437342
 20
-37.77183158533609
 30
0.0
 40
9.937777538297617
 50
145.3887261945158
 51
180.9557665698068
  0
ARC
  5
AEA
  8
0
  6
CONTINUOUS
 62
     7
 10
2575.980107142042
 20
15.505747620764
 30
0.0
 40
4.968888769163052
 50
325.3887261949956
 51
0.9557665698086416
  0
ARC
  5
AEB
  8
0
  6
CONTINUOUS
 62
     7
 10
2575.980107142042
 20
101.9248792381637
 30
0.0
 40
4.968888769133376
 50
359.0442334301935
 51
34.61127380601452
  0
ARC
  5
AEC
  8
0
  6
CONTINUOUS
 62
     7
 10
2555.529360437342
 20
155.2024584443639
 30
0.0
 40
9.93777753832487
 50
179.0442334301925
 51
214.6112738050024
  0
LINE
  5
AED
  8
0
  6
CONTINUOUS
 62
     7
 10
2655.201408611382
 20
657.3624344955546
 30
0.0
 11
2634.198611029189
 21
682.3925939686648
 31
0.0
  0
LINE
  5
AEE
  8
0
 10
2545.592965534242
 20
479.9323931246232
 30
0.0
 11
2535.592965534047
 21
476.9323931245646
 31
0.0
  0
LINE
  5
AEF
  8
0
 10
2535.592965534047
 20
476.9323931245646
 30
0.0
 11
2545.592965534242
 21
473.9323931245061
 31
0.0
  0
LINE
  5
AF0
  8
0
 10
2656.791822323652
 20
620.1485699727117
 30
0.0
 11
2645.595651623998
 21
616.7897187628145
 31
0.0
  0
LINE
  5
AF1
  8
0
 10
2645.595651623998
 20
616.7897187628145
 30
0.0
 11
2654.630401667821
 21
614.079293749667
 31
0.0
  0
LINE
  5
AF2
  8
0
 10
2655.201408611382
 20
657.3624344955546
 30
0.0
 11
2646.854301070746
 21
654.8583022333636
 31
0.0
  0
LINE
  5
AF3
  8
0
 10
2646.854301070746
 20
654.8583022333636
 30
0.0
 11
2656.854301070746
 21
651.8583022333636
 31
0.0
  0
LINE
  5
AF4
  8
0
 10
2545.592965534242
 20
-122.7718315852771
 30
0.0
 11
2535.592965534046
 21
-125.7718315853356
 31
0.0
  0
LINE
  5
AF5
  8
0
 10
2535.592965534046
 20
-125.7718315853356
 30
0.0
 11
2545.592965534242
 21
-128.7718315853944
 31
0.0
  0
LINE
  5
AF6
  8
0
 10
2545.592965534242
 20
-168.8138936499768
 30
0.0
 11
2535.592965534046
 21
-171.8138936500354
 31
0.0
  0
LINE
  5
AF7
  8
0
 10
2535.592965534046
 20
-171.8138936500354
 30
0.0
 11
2545.592965534242
 21
-174.813893650094
 31
0.0
  0
LINE
  5
AF8
  8
0
 10
2545.592965534242
 20
-206.8824771205768
 30
0.0
 11
2535.592965534045
 21
-209.8824771206358
 31
0.0
  0
LINE
  5
AF9
  8
0
 10
2535.592965534047
 20
-209.8824771206358
 30
0.0
 11
2545.592965534242
 21
-212.8824771206941
 31
0.0
  0
CIRCLE
  5
AFA
  8
0
 10
1360.318754313028
 20
538.2897187628151
 30
0.0
 40
3.0
  0
LINE
  5
AFB
  8
0
  6
CONTINUOUS
 62
     7
 10
1241.46335611425
 20
594.4479848756579
 30
0.0
 11
1268.089197738996
 21
616.7897187628645
 31
0.0
  0
LINE
  5
AFC
  8
0
  6
CONTINUOUS
 62
     7
 10
1260.746984404794
 20
571.4666515821153
 30
0.0
 11
1241.46335611425
 21
594.4479848756579
 31
0.0
  0
LINE
  5
AFD
  8
0
 10
1260.746984404794
 20
571.4666515821153
 30
0.0
 11
1387.592965534047
 21
479.9323931246232
 31
0.0
  0
LINE
  5
AFE
  8
0
 10
1278.555529400469
 20
614.079293749667
 30
0.0
 11
1268.089197738996
 21
616.7897187628645
 31
0.0
  0
LINE
  5
AFF
  8
0
  6
CONTINUOUS
 62
     7
 10
2691.722574954039
 20
594.4479848756579
 30
0.0
 11
2665.096733329293
 21
616.7897187628645
 31
0.0
  0
LINE
  5
B00
  8
0
  6
CONTINUOUS
 62
     7
 10
2672.438946663495
 20
571.4666515821153
 30
0.0
 11
2691.722574954039
 21
594.4479848756579
 31
0.0
  0
LINE
  5
B01
  8
0
 10
2672.438946663495
 20
571.4666515821153
 30
0.0
 11
2545.592965534242
 21
479.9323931246232
 31
0.0
  0
LINE
  5
B02
  8
0
 10
2654.630401667821
 20
614.079293749667
 30
0.0
 11
2665.096733329293
 21
616.7897187628645
 31
0.0
  0
LINE
  5
B03
  8
0
  6
CONTINUOUS
 62
     7
 10
1353.116306131148
 20
12.68339048466413
 30
0.0
 11
1385.835606221148
 21
-32.12711731303597
 31
0.0
  0
LINE
  5
B04
  8
0
  6
CONTINUOUS
 62
     7
 10
1352.237626474748
 20
101.8419956895637
 30
0.0
 11
1352.237626474748
 21
15.58863116936396
 31
0.0
  0
LINE
  5
B05
  8
0
  6
CONTINUOUS
 62
     7
 10
1353.116306131248
 20
104.7472363742639
 30
0.0
 11
1385.835606221148
 21
149.5577441721637
 31
0.0
  0
ARC
  5
B06
  8
0
  6
CONTINUOUS
 62
     7
 10
1377.656570630948
 20
-37.77183158533609
 30
0.0
 40
9.937777538297617
 50
359.0442334301932
 51
34.611273805484
  0
ARC
  5
B07
  8
0
  6
CONTINUOUS
 62
     7
 10
1357.205823926248
 20
15.505747620764
 30
0.0
 40
4.968888769163052
 50
179.0442334301914
 51
214.6112738050026
  0
ARC
  5
B08
  8
0
  6
CONTINUOUS
 62
     7
 10
1357.205823926248
 20
101.9248792381637
 30
0.0
 40
4.968888769133376
 50
145.388726193985
 51
180.9557665698065
  0
ARC
  5
B09
  8
0
  6
CONTINUOUS
 62
     7
 10
1377.656570630948
 20
155.2024584443639
 30
0.0
 40
9.93777753832487
 50
325.3887261949976
 51
0.9557665698074405
  0
ARC
  5
B0A
  8
0
 10
1314.592965534145
 20
599.7897187628145
 30
0.0
 40
5.75
 50
0.0
 51
180.0
  0
LINE
  5
B0B
  8
0
 10
1308.842965534145
 20
596.7897187628158
 30
0.0
 11
1308.842965534145
 21
599.7897187628145
 31
0.0
  0
LINE
  5
B0C
  8
0
 10
1320.342965534145
 20
596.7897187628158
 30
0.0
 11
1320.342965534145
 21
599.7897187628145
 31
0.0
  0
ARC
  5
B0D
  8
0
 10
1314.592965534145
 20
596.7897187628158
 30
0.0
 40
5.75
 50
180.0
 51
0.0
  0
ARC
  5
B0E
  8
0
 10
1748.592965534145
 20
599.7897187628145
 30
0.0
 40
5.75
 50
0.0
 51
180.0
  0
LINE
  5
B0F
  8
0
 10
1742.842965534145
 20
596.7897187628158
 30
0.0
 11
1742.842965534145
 21
599.7897187628145
 31
0.0
  0
LINE
  5
B10
  8
0
 10
1754.342965534145
 20
596.7897187628158
 30
0.0
 11
1754.342965534145
 21
599.7897187628145
 31
0.0
  0
ARC
  5
B11
  8
0
 10
1748.592965534145
 20
596.7897187628158
 30
0.0
 40
5.75
 50
180.0
 51
0.0
  0
ARC
  5
B12
  8
0
 10
2184.592965534145
 20
599.7897187628145
 30
0.0
 40
5.75
 50
0.0
 51
180.0
  0
LINE
  5
B13
  8
0
 10
2178.842965534144
 20
596.7897187628158
 30
0.0
 11
2178.842965534144
 21
599.7897187628145
 31
0.0
  0
LINE
  5
B14
  8
0
 10
2190.342965534144
 20
596.7897187628158
 30
0.0
 11
2190.342965534144
 21
599.7897187628145
 31
0.0
  0
ARC
  5
B15
  8
0
 10
2184.592965534145
 20
596.7897187628158
 30
0.0
 40
5.75
 50
180.0
 51
0.0
  0
ARC
  5
B16
  8
0
 10
2618.592965534144
 20
599.7897187628145
 30
0.0
 40
5.75
 50
0.0
 51
180.0
  0
LINE
  5
B17
  8
0
 10
2612.842965534144
 20
596.7897187628158
 30
0.0
 11
2612.842965534144
 21
599.7897187628145
 31
0.0
  0
LINE
  5
B18
  8
0
 10
2624.342965534144
 20
596.7897187628158
 30
0.0
 11
2624.342965534144
 21
599.7897187628145
 31
0.0
  0
ARC
  5
B19
  8
0
 10
2618.592965534144
 20
596.7897187628158
 30
0.0
 40
5.75
 50
180.0
 51
0.0
  0
CIRCLE
  5
B1A
  8
0
 10
2572.867176755262
 20
538.2897187628151
 30
0.0
 40
3.0
  0
CIRCLE
  5
B1B
  8
0
 10
1426.592965534144
 20
-228.6153312529737
 30
0.0
 40
5.0
  0
CIRCLE
  5
B1C
  8
0
 10
2506.592965534144
 20
-228.6153312529737
 30
0.0
 40
5.0
  0
CIRCLE
  5
B1D
  8
0
 10
1546.592965534144
 20
-228.6153312529737
 30
0.0
 40
5.0
  0
CIRCLE
  5
B1E
  8
0
 10
1666.592965534144
 20
-228.6153312529737
 30
0.0
 40
5.0
  0
CIRCLE
  5
B1F
  8
0
 10
1786.592965534144
 20
-228.6153312529737
 30
0.0
 40
5.0
  0
CIRCLE
  5
B20
  8
0
 10
1906.592965534144
 20
-228.6153312529737
 30
0.0
 40
5.0
  0
CIRCLE
  5
B21
  8
0
 10
2026.592965534144
 20
-228.6153312529737
 30
0.0
 40
5.0
  0
CIRCLE
  5
B22
  8
0
 10
2146.592965534144
 20
-228.6153312529737
 30
0.0
 40
5.0
  0
CIRCLE
  5
B23
  8
0
 10
2266.592965534144
 20
-228.6153312529737
 30
0.0
 40
5.0
  0
CIRCLE
  5
B24
  8
0
 10
2386.592965534144
 20
-228.6153312529737
 30
0.0
 40
5.0
  0
ENDSEC
  0
EOF
