  0
SECTION
  2
HEADER
  9
$ACADVER
  1
AC1009
  9
$DWGCODEPAGE
  3
ansi_1252
  9
$INSBASE
 10
0.0
 20
0.0
 30
0.0
  9
$EXTMIN
 10
5.595121025393951
 20
3.862803032730767
 30
0.0
  9
$EXTMAX
 10
1563.822594225657
 20
821.1854690159056
 30
31.83440005694779
  9
$LIMMIN
 10
0.0
 20
0.0
  9
$LIMMAX
 10
12.0
 20
9.0
  9
$ORTHOMODE
 70
     1
  9
$REGENMODE
 70
     1
  9
$FILLMODE
 70
     1
  9
$QTEXTMODE
 70
     0
  9
$MIRRTEXT
 70
     0
  9
$DRAGMODE
 70
     2
  9
$LTSCALE
 40
1.0
  9
$OSMODE
 70
  9143
  9
$ATTMODE
 70
     1
  9
$TEXTSIZE
 40
0.2
  9
$TRACEWID
 40
0.05
  9
$TEXTSTYLE
  7
STANDARD
  9
$CLAYER
  8
0
  9
$CELTYPE
  6
BYLAYER
  9
$CECOLOR
 62
   256
  9
$DIMSCALE
 40
1.0
  9
$DIMASZ
 40
0.18
  9
$DIMEXO
 40
0.0625
  9
$DIMDLI
 40
0.38
  9
$DIMRND
 40
0.0
  9
$DIMDLE
 40
0.0
  9
$DIMEXE
 40
0.18
  9
$DIMTP
 40
0.0
  9
$DIMTM
 40
0.0
  9
$DIMTXT
 40
0.18
  9
$DIMCEN
 40
0.09
  9
$DIMTSZ
 40
0.0
  9
$DIMTOL
 70
     0
  9
$DIMLIM
 70
     0
  9
$DIMTIH
 70
     1
  9
$DIMTOH
 70
     1
  9
$DIMSE1
 70
     0
  9
$DIMSE2
 70
     0
  9
$DIMTAD
 70
     0
  9
$DIMZIN
 70
     0
  9
$DIMBLK
  1

  9
$DIMASO
 70
     1
  9
$DIMSHO
 70
     1
  9
$DIMPOST
  1

  9
$DIMAPOST
  1

  9
$DIMALT
 70
     0
  9
$DIMALTD
 70
     2
  9
$DIMALTF
 40
25.4
  9
$DIMLFAC
 40
1.0
  9
$DIMTOFL
 70
     0
  9
$DIMTVP
 40
0.0
  9
$DIMTIX
 70
     0
  9
$DIMSOXD
 70
     0
  9
$DIMSAH
 70
     0
  9
$DIMBLK1
  1

  9
$DIMBLK2
  1

  9
$DIMSTYLE
  2
STANDARD
  9
$DIMCLRD
 70
     0
  9
$DIMCLRE
 70
     0
  9
$DIMCLRT
 70
     0
  9
$DIMTFAC
 40
1.0
  9
$DIMGAP
 40
0.09
  9
$LUNITS
 70
     2
  9
$LUPREC
 70
     4
  9
$SKETCHINC
 40
0.1
  9
$FILLETRAD
 40
0.0
  9
$AUNITS
 70
     0
  9
$AUPREC
 70
     0
  9
$MENU
  1
.
  9
$ELEVATION
 40
0.0
  9
$PELEVATION
 40
0.0
  9
$THICKNESS
 40
0.0
  9
$LIMCHECK
 70
     0
  9
$CHAMFERA
 40
0.0
  9
$CHAMFERB
 40
0.0
  9
$SKPOLY
 70
     0
  9
$TDCREATE
 40
2452643.105050926
  9
$TDUPDATE
 40
2459643.354800752
  9
$TDINDWG
 40
0.0057893981
  9
$TDUSRTIMER
 40
0.0002415741
  9
$USRTIMER
 70
     1
  9
$ANGBASE
 50
0.0
  9
$ANGDIR
 70
     0
  9
$PDMODE
 70
     0
  9
$PDSIZE
 40
0.0
  9
$PLINEWID
 40
0.0
  9
$COORDS
 70
     1
  9
$SPLFRAME
 70
     0
  9
$SPLINETYPE
 70
     6
  9
$SPLINESEGS
 70
     8
  9
$ATTDIA
 70
     0
  9
$ATTREQ
 70
     1
  9
$HANDLING
 70
     1
  9
$HANDSEED
  5
4FE
  9
$SURFTAB1
 70
     6
  9
$SURFTAB2
 70
     6
  9
$SURFTYPE
 70
     6
  9
$SURFU
 70
     6
  9
$SURFV
 70
     6
  9
$UCSNAME
  2

  9
$UCSORG
 10
0.0
 20
0.0
 30
0.0
  9
$UCSXDIR
 10
1.0
 20
0.0
 30
0.0
  9
$UCSYDIR
 10
0.0
 20
1.0
 30
0.0
  9
$PUCSNAME
  2

  9
$PUCSORG
 10
0.0
 20
0.0
 30
0.0
  9
$PUCSXDIR
 10
1.0
 20
0.0
 30
0.0
  9
$PUCSYDIR
 10
0.0
 20
1.0
 30
0.0
  9
$USERI1
 70
     0
  9
$USERI2
 70
     0
  9
$USERI3
 70
     0
  9
$USERI4
 70
     0
  9
$USERI5
 70
     0
  9
$USERR1
 40
0.0
  9
$USERR2
 40
0.0
  9
$USERR3
 40
0.0
  9
$USERR4
 40
0.0
  9
$USERR5
 40
0.0
  9
$WORLDVIEW
 70
     1
  9
$SHADEDGE
 70
     3
  9
$SHADEDIF
 70
    70
  9
$TILEMODE
 70
     1
  9
$MAXACTVP
 70
    64
  9
$PLIMCHECK
 70
     0
  9
$PEXTMIN
 10
0.0
 20
0.0
 30
0.0
  9
$PEXTMAX
 10
0.0
 20
0.0
 30
0.0
  9
$PLIMMIN
 10
0.0
 20
0.0
  9
$PLIMMAX
 10
0.0
 20
0.0
  9
$UNITMODE
 70
     0
  9
$VISRETAIN
 70
     1
  9
$PLINEGEN
 70
     0
  9
$PSLTSCALE
 70
     1
  0
ENDSEC
  0
SECTION
  2
TABLES
  0
TABLE
  2
VPORT
 70
     1
  0
VPORT
  2
*ACTIVE
 70
     0
 10
0.0
 20
0.0
 11
1.0
 21
1.0
 12
782.7979157954502
 22
467.5263736422467
 13
0.0
 23
0.0
 14
0.5
 24
0.5
 15
0.5
 25
0.5
 16
0.0
 26
0.0
 36
1.0
 17
-27.66959356597954
 27
-19.53870295786203
 37
0.0
 40
817.5131345419029
 41
2.287157287157287
 42
50.0
 43
0.0
 44
0.0
 50
0.0
 51
0.0
 71
    16
 72
  1000
 73
     1
 74
     3
 75
     0
 76
     0
 77
     0
 78
     0
  0
ENDTAB
  0
TABLE
  2
LTYPE
 70
     1
  0
LTYPE
  2
CONTINUOUS
 70
     0
  3
Solid line
 72
    65
 73
     0
 40
0.0
  0
ENDTAB
  0
TABLE
  2
LAYER
 70
     1
  0
LAYER
  2
0
 70
     0
 62
     7
  6
CONTINUOUS
  0
ENDTAB
  0
TABLE
  2
STYLE
 70
     1
  0
STYLE
  2
STANDARD
 70
     0
 40
0.0
 41
1.0
 50
0.0
 71
     0
 42
0.2
  3
arial.ttf
  4

  0
ENDTAB
  0
TABLE
  2
VIEW
 70
     0
  0
ENDTAB
  0
TABLE
  2
UCS
 70
     0
  0
ENDTAB
  0
TABLE
  2
APPID
 70
     6
  0
APPID
  2
ACAD
 70
     0
  0
APPID
  2
ACAD_DSTYLE_DIMBREAK
 70
     0
  0
APPID
  2
ACAD_DSTYLE_DIMJAG
 70
     0
  0
APPID
  2
ACAD_DSTYLE_DIMTALN
 70
     0
  0
APPID
  2
ACAD_PSEXT
 70
     0
  0
APPID
  2
ACADANNOTATIVE
 70
     0
  0
ENDTAB
  0
TABLE
  2
DIMSTYLE
 70
     4
  0
DIMSTYLE
  2
STANDARD
 70
     0
  3

  4

  5

  6

  7

 40
1.0
 41
0.18
 42
0.0625
 43
0.38
 44
0.18
 45
0.0
 46
0.0
 47
0.0
 48
0.0
140
0.18
141
0.09
142
0.0
143
25.4
144
1.0
145
0.0
146
1.0
147
0.09
 71
     0
 72
     0
 73
     1
 74
     1
 75
     0
 76
     0
 77
     0
 78
     0
170
     0
171
     2
172
     0
173
     0
174
     0
175
     0
176
     0
177
     0
178
     0
  0
DIMSTYLE
  2
COPIA_DI_ISO-25
 70
     0
  3

  4

  5

  6

  7

 40
1.0
 41
20.0
 42
16.0
 43
3.75
 44
1.25
 45
0.0
 46
0.0
 47
0.0
 48
0.0
140
30.0
141
2.5
142
0.0
143
0.0393700787
144
1.0
145
0.0
146
1.0
147
10.0
 71
     0
 72
     0
 73
     0
 74
     0
 75
     0
 76
     0
 77
     1
 78
     8
170
     0
171
     3
172
     1
173
     0
174
     0
175
     0
176
     0
177
     0
178
     0
  0
DIMSTYLE
  2
ISO-25
 70
     0
  3

  4

  5

  6

  7

 40
1.0
 41
2.5
 42
0.625
 43
3.75
 44
1.25
 45
0.0
 46
0.0
 47
0.0
 48
0.0
140
2.5
141
-2.5
142
0.0
143
0.03937007874016
144
1.0
145
0.0
146
1.0
147
0.625
 71
     0
 72
     0
 73
     0
 74
     0
 75
     0
 76
     0
 77
     1
 78
     8
170
     0
171
     3
172
     1
173
     0
174
     0
175
     0
176
     0
177
     0
178
     0
  0
DIMSTYLE
  2
ANNOTATIVE
 70
     0
  3

  4

  5

  6

  7

 40
0.0
 41
2.5
 42
0.625
 43
3.75
 44
1.25
 45
0.0
 46
0.0
 47
0.0
 48
0.0
140
2.5
141
-2.5
142
0.0
143
0.03937007874016
144
1.0
145
0.0
146
1.0
147
0.625
 71
     0
 72
     0
 73
     0
 74
     0
 75
     0
 76
     0
 77
     1
 78
     8
170
     0
171
     3
172
     1
173
     0
174
     0
175
     0
176
     0
177
     0
178
     0
  0
ENDTAB
  0
ENDSEC
  0
SECTION
  2
BLOCKS
  0
BLOCK
  8
0
  2
$MODEL_SPACE
 70
     0
 10
0.0
 20
0.0
 30
0.0
  3
$MODEL_SPACE
  1

  0
ENDBLK
  5
21
  8
0
  0
BLOCK
 67
     1
  8
0
  2
$PAPER_SPACE
 70
     0
 10
0.0
 20
0.0
 30
0.0
  3
$PAPER_SPACE
  1

  0
ENDBLK
  5
5B
 67
     1
  8
0
  0
ENDSEC
  0
SECTION
  2
ENTITIES
  0
CIRCLE
  5
1D1
  8
0
 10
830.7088576255252
 20
360.3359130944058
 30
0.0
 40
8.0
  0
CIRCLE
  5
1D2
  8
0
 10
738.7088576255252
 20
360.3359130944058
 30
0.0
 40
8.0
  0
CIRCLE
  5
1D3
  8
0
 10
830.7088576255252
 20
452.3359130944058
 30
0.0
 40
8.0
  0
CIRCLE
  5
1D4
  8
0
 10
738.7088576255252
 20
452.3359130944058
 30
0.0
 40
8.0
  0
CIRCLE
  5
1D5
  8
0
 10
784.7088576255252
 20
406.3359130944058
 30
0.0
 40
29.9999999999834
  0
LINE
  5
1D6
  8
0
 10
1360.708857625525
 20
545.3426596830708
 30
0.0
 11
1360.708857625527
 21
714.0483020748055
 31
0.0
  0
LINE
  5
1D7
  8
0
 10
1360.708857625527
 20
720.0483020748055
 30
0.0
 11
1360.708857625525
 21
777.4730800356059
 31
0.0
  0
LINE
  5
1D8
  8
0
 10
1360.708857625525
 20
783.4730800356054
 30
0.0
 11
1360.708857625525
 21
821.1854690159056
 31
0.0
  0
LINE
  5
1D9
  8
0
 10
1360.708857625525
 20
821.1854690159056
 30
0.0
 11
784.7088576255252
 21
821.1854690159056
 31
0.0
  0
CIRCLE
  5
1DA
  8
0
 10
978.5436548944651
 20
619.127691060758
 30
0.0
 40
9.133630845084554
  0
CIRCLE
  5
1DB
  8
0
 10
1023.543654894466
 20
629.1276910607584
 30
0.0
 40
5.0
  0
CIRCLE
  5
1DC
  8
0
 10
933.5436548944663
 20
629.1276910607584
 30
0.0
 40
5.0
  0
CIRCLE
  5
1DD
  8
0
 10
978.5436548944651
 20
591.127691060758
 30
0.0
 40
3.5
  0
CIRCLE
  5
1DE
  8
0
 10
1002.792366894496
 20
633.1276910607584
 30
0.0
 40
3.5
  0
CIRCLE
  5
1DF
  8
0
 10
954.2949438945031
 20
633.1276910607584
 30
0.0
 40
3.5
  0
CIRCLE
  5
1E0
  8
0
 39
31.83440005694778
 10
1252.431662991591
 20
501.2046612905441
 30
0.0
 40
3.25
  0
CIRCLE
  5
1E1
  8
0
 39
31.83440005694778
 10
1252.431662991591
 20
478.6893226862643
 30
0.0
 40
3.25
  0
CIRCLE
  5
1E2
  8
0
 10
496.2686093400231
 20
441.3930045592882
 30
0.0
 40
21.0
  0
CIRCLE
  5
1E3
  8
0
 10
373.1125381405114
 20
447.8054488544752
 30
0.0
 40
6.0
  0
CIRCLE
  5
1E4
  8
0
 10
619.4246805395929
 20
447.8054488544752
 30
0.0
 40
6.0
  0
CIRCLE
  5
1E5
  8
0
 39
31.83440005694779
 10
496.2686093400977
 20
629.2536993547136
 30
0.0
 40
6.0
  0
LINE
  5
1E6
  8
0
 10
1360.708857625525
 20
720.0483020748055
 30
0.0
 11
1350.708857625525
 21
717.0483020748055
 31
0.0
  0
LINE
  5
1E7
  8
0
 10
1350.708857625525
 20
717.0483020748055
 30
0.0
 11
1360.708857625525
 21
714.0483020748055
 31
0.0
  0
LINE
  5
1E8
  8
0
 10
1360.708857625525
 20
783.4730800356059
 30
0.0
 11
1350.708857625525
 21
780.4730800356059
 31
0.0
  0
LINE
  5
1E9
  8
0
 10
1350.708857625525
 20
780.4730800356059
 30
0.0
 11
1360.708857625525
 21
777.4730800356059
 31
0.0
  0
LINE
  5
1EA
  8
0
 10
1360.708857625525
 20
545.3426596830694
 30
0.0
 11
1351.373926315155
 21
531.4709933985499
 31
0.0
  0
LINE
  5
1EB
  8
0
 10
1351.373926315154
 20
531.4709933985472
 30
0.0
 11
1360.708857625525
 21
536.3359130944053
 31
0.0
  0
LINE
  5
1EC
  8
0
 10
208.7088576255252
 20
821.1854690159056
 30
0.0
 11
784.7088576255252
 21
821.1854690159056
 31
0.0
  0
CIRCLE
  5
1ED
  8
0
 10
694.7088576255252
 20
618.8359130944058
 30
0.0
 40
6.0
  0
CIRCLE
  5
1EE
  8
0
 10
874.7088576255252
 20
618.8359130944058
 30
0.0
 40
6.0
  0
CIRCLE
  5
1EF
  8
0
 10
694.7088576255252
 20
508.0810875568617
 30
0.0
 40
6.0
  0
CIRCLE
  5
1F0
  8
0
 10
874.7088576255252
 20
508.0810875568617
 30
0.0
 40
6.0
  0
LINE
  5
1F1
  8
0
 39
31.83440005694779
 10
846.2088576255852
 20
304.0244363665746
 30
0.0
 11
846.208857625527
 21
66.47026314383164
 31
0.0
  0
LINE
  5
1F2
  8
0
 39
31.83440005694779
 10
847.5188596671584
 20
62.95900715922961
 30
0.0
 11
856.9678708720618
 21
52.64573083613995
 31
0.0
  0
LINE
  5
1F3
  8
0
 39
31.83440005694779
 10
876.8586695885484
 20
31.96172602951891
 30
0.0
 11
886.063310930275
 21
21.34298737745747
 31
0.0
  0
LINE
  5
1F4
  8
0
 10
846.208857625527
 20
66.47026314383164
 30
0.0
 11
853.7651375484498
 21
71.02027335193033
 31
0.0
  0
LINE
  5
1F5
  8
0
 10
853.7651375484498
 20
71.02027335193033
 30
0.0
 11
847.5188596671584
 21
62.95900715922961
 31
0.0
  0
LINE
  5
1F6
  8
0
 10
886.063310930275
 20
21.34298737745747
 30
0.0
 11
896.7135693508613
 21
23.40379113130519
 31
0.0
  0
LINE
  5
1F7
  8
0
 10
896.7135693508613
 20
23.40379113130519
 30
0.0
 11
887.3733129719063
 21
17.83173139285544
 31
0.0
  0
ARC
  5
1F8
  8
0
 10
865.7461678170326
 20
41.18138295860571
 30
0.0
 40
14.4391748210091
 50
320.3186839552122
 51
127.4414248286892
  0
LINE
  5
1F9
  8
0
 39
31.83440005694779
 10
723.2088576255252
 20
304.0244363665746
 30
0.0
 11
723.2088576255252
 21
66.47026314383164
 31
0.0
  0
LINE
  5
1FA
  8
0
 39
31.83440005694779
 10
723.2088576255852
 20
304.0244363665746
 30
0.0
 11
846.2088576255852
 21
304.0244363665746
 31
0.0
  0
LINE
  5
1FB
  8
0
 10
832.7088576255252
 20
642.9007127381959
 30
0.0
 11
736.7088576255252
 21
642.9007127381959
 31
0.0
  0
LINE
  5
1FC
  8
0
 10
835.7088576255252
 20
639.9007127381959
 30
0.0
 11
835.7088576255252
 21
493.9007127381959
 31
0.0
  0
LINE
  5
1FD
  8
0
 10
733.7088576255252
 20
639.9007127381959
 30
0.0
 11
733.7088576255252
 21
493.9007127381959
 31
0.0
  0
LINE
  5
1FE
  8
0
 10
832.7088576255252
 20
490.9007127381959
 30
0.0
 11
736.7088576255252
 21
490.9007127381959
 31
0.0
  0
ARC
  5
1FF
  8
0
 10
832.7088576255252
 20
493.9007127381959
 30
0.0
 40
3.0
 50
270.0
 51
0.0
  0
ARC
  5
200
  8
0
 10
736.7088576255252
 20
493.9007127381959
 30
0.0
 40
3.0
 50
180.0
 51
270.0
  0
ARC
  5
201
  8
0
 10
832.7088576255252
 20
639.9007127381959
 30
0.0
 40
3.0
 50
0.0
 51
90.0
  0
ARC
  5
202
  8
0
 10
736.7088576255252
 20
639.9007127381959
 30
0.0
 40
3.0
 50
90.0
 51
180.0
  0
LINE
  5
203
  8
0
 39
31.83440005694779
 10
915.7410274861328
 20
3.862803032730778
 30
0.0
 11
887.3733129718463
 21
17.83173139285544
 31
0.0
  0
LINE
  5
204
  8
0
 10
1562.386176689567
 20
318.3833677036358
 30
0.0
 11
1360.708857625525
 21
536.3359130944053
 31
0.0
  0
LINE
  5
205
  8
0
 10
915.7410274861328
 20
3.862803032730778
 30
0.0
 11
1539.804903948105
 21
276.7850743952139
 31
0.0
  0
LINE
  5
206
  8
0
 10
1562.386176689565
 20
318.3833677036363
 30
0.0
 11
1554.879218912466
 21
311.2469496772677
 31
0.0
  0
LINE
  5
207
  8
0
 10
1554.879218912466
 20
311.2469496772677
 30
0.0
 11
1563.822594225657
 21
311.4508894145341
 31
0.0
  0
LINE
  5
208
  8
0
 10
1539.804903948105
 20
276.7850743952139
 30
0.0
 11
1563.822594225657
 21
311.4508894145341
 31
0.0
  0
LINE
  5
209
  8
0
 10
208.7088576255252
 20
545.3426596830708
 30
0.0
 11
208.7088576255234
 21
714.0483020748055
 31
0.0
  0
LINE
  5
20A
  8
0
 10
208.7088576255234
 20
720.0483020748055
 30
0.0
 11
208.7088576255252
 21
777.4730800356059
 31
0.0
  0
LINE
  5
20B
  8
0
 10
208.7088576255252
 20
783.4730800356054
 30
0.0
 11
208.7088576255252
 21
821.1854690159056
 31
0.0
  0
LINE
  5
20C
  8
0
 10
208.7088576255252
 20
720.0483020748055
 30
0.0
 11
218.7088576255252
 21
717.0483020748055
 31
0.0
  0
LINE
  5
20D
  8
0
 10
218.7088576255252
 20
717.0483020748055
 30
0.0
 11
208.7088576255252
 21
714.0483020748055
 31
0.0
  0
LINE
  5
20E
  8
0
 10
208.7088576255252
 20
783.4730800356059
 30
0.0
 11
218.7088576255252
 21
780.4730800356059
 31
0.0
  0
LINE
  5
20F
  8
0
 10
218.7088576255252
 20
780.4730800356059
 30
0.0
 11
208.7088576255252
 21
777.4730800356059
 31
0.0
  0
LINE
  5
210
  8
0
 10
208.7088576255252
 20
545.3426596830694
 30
0.0
 11
218.0437889358951
 21
531.4709933985499
 31
0.0
  0
LINE
  5
211
  8
0
 10
218.0437889358969
 20
531.4709933985472
 30
0.0
 11
208.7088576255252
 21
536.3359130944053
 31
0.0
  0
LINE
  5
212
  8
0
 10
7.031538561483674
 20
318.3833677036358
 30
0.0
 11
208.7088576255252
 21
536.3359130944053
 31
0.0
  0
LINE
  5
213
  8
0
 10
7.031538561485493
 20
318.3833677036363
 30
0.0
 11
14.53849633858465
 21
311.2469496772677
 31
0.0
  0
LINE
  5
214
  8
0
 10
14.53849633858465
 20
311.2469496772677
 30
0.0
 11
5.595121025393953
 21
311.4508894145341
 31
0.0
  0
LINE
  5
215
  8
0
 10
29.61281130294504
 20
276.7850743952139
 30
0.0
 11
5.595121025393953
 21
311.4508894145341
 31
0.0
  0
LINE
  5
216
  8
0
 39
31.83440005694779
 10
721.898855583892
 20
62.95900715922961
 30
0.0
 11
712.4498443789886
 21
52.64573083613995
 31
0.0
  0
LINE
  5
217
  8
0
 39
31.83440005694779
 10
692.559045662502
 20
31.96172602951891
 30
0.0
 11
683.3544043207754
 21
21.34298737745747
 31
0.0
  0
LINE
  5
218
  8
0
 10
723.2088576255234
 20
66.47026314383164
 30
0.0
 11
715.6525777026005
 21
71.02027335193033
 31
0.0
  0
LINE
  5
219
  8
0
 10
715.6525777026005
 20
71.02027335193033
 30
0.0
 11
721.898855583892
 21
62.95900715922961
 31
0.0
  0
LINE
  5
21A
  8
0
 10
683.3544043207754
 20
21.34298737745747
 30
0.0
 11
672.704145900189
 21
23.40379113130519
 31
0.0
  0
LINE
  5
21B
  8
0
 10
672.704145900189
 20
23.40379113130519
 30
0.0
 11
682.044402279144
 21
17.83173139285544
 31
0.0
  0
ARC
  5
21C
  8
0
 10
703.6715474340177
 20
41.18138295860571
 30
0.0
 40
14.4391748210091
 50
52.55857517131086
 51
219.6813160447878
  0
LINE
  5
21D
  8
0
 39
31.83440005694779
 10
653.6766877649176
 20
3.862803032730778
 30
0.0
 11
682.0444022792041
 21
17.83173139285544
 31
0.0
  0
LINE
  5
21E
  8
0
 10
653.6766877649176
 20
3.862803032730778
 30
0.0
 11
29.61281130294504
 21
276.7850743952139
 31
0.0
  0
ARC
  5
2C7
  8
0
 10
684.2088576255253
 20
406.3359130944058
 30
0.0
 40
5.0
 50
90.0
 51
270.0
  0
LINE
  5
2C8
  8
0
 10
684.2088576255253
 20
411.3359130944058
 30
0.0
 11
690.2088576255253
 21
411.3359130944058
 31
0.0
  0
LINE
  5
2C9
  8
0
 10
684.2088576255253
 20
401.3359130944058
 30
0.0
 11
690.2088576255253
 21
401.3359130944058
 31
0.0
  0
ARC
  5
2CA
  8
0
 10
690.2088576255253
 20
406.3359130944058
 30
0.0
 40
5.0
 50
270.0
 51
90.0
  0
LINE
  5
2CB
  8
0
 10
885.2088576255242
 20
411.3359130944058
 30
0.0
 11
879.2088576255242
 21
411.3359130944058
 31
0.0
  0
LINE
  5
2CC
  8
0
 10
885.2088576255242
 20
401.3359130944058
 30
0.0
 11
879.2088576255242
 21
401.3359130944058
 31
0.0
  0
ARC
  5
2CD
  8
0
 10
879.2088576255242
 20
406.3359130944058
 30
0.0
 40
5.0
 50
90.0
 51
270.0
  0
ARC
  5
2CE
  8
0
 10
885.2088576255242
 20
406.3359130944058
 30
0.0
 40
5.0
 50
270.0
 51
90.0
  0
CIRCLE
  5
3B4
  8
0
 10
183.7562278402947
 20
317.9598607245642
 30
0.0
 40
5.0
  0
CIRCLE
  5
3B5
  8
0
 10
289.0277657419693
 20
431.7267421436147
 30
0.0
 40
5.0
  0
CIRCLE
  5
3B6
  8
0
 10
318.3869609468857
 20
404.55989365286
 30
0.0
 40
5.0
  0
CIRCLE
  5
3B7
  8
0
 10
213.1154230452111
 20
290.7930122338097
 30
0.0
 40
5.0
  0
CIRCLE
  5
431
  8
0
 39
31.83440005694779
 10
248.7088576255242
 20
637.0483020748055
 30
0.0
 40
5.0
  0
CIRCLE
  5
432
  8
0
 39
31.83440005694779
 10
303.7088576255242
 20
637.0483020748055
 30
0.0
 40
5.0
  0
CIRCLE
  5
435
  8
0
 39
31.83440005694779
 10
1320.708857625526
 20
637.0483020748053
 30
0.0
 40
5.0
  0
CIRCLE
  5
436
  8
0
 39
31.83440005694779
 10
1265.708857625526
 20
637.0483020748053
 30
0.0
 40
5.0
  0
CIRCLE
  5
483
  8
0
 10
1385.661487410753
 20
317.9598607245609
 30
0.0
 40
5.0
  0
CIRCLE
  5
484
  8
0
 10
1280.389949509079
 20
431.7267421436119
 30
0.0
 40
5.0
  0
CIRCLE
  5
485
  8
0
 10
1251.030754304163
 20
404.5598936528574
 30
0.0
 40
5.0
  0
CIRCLE
  5
486
  8
0
 10
1356.302292205836
 20
290.7930122338066
 30
0.0
 40
5.0
  0
CIRCLE
  5
487
  8
0
 10
590.8740603565852
 20
619.127691060758
 30
0.0
 40
9.133630845084554
  0
CIRCLE
  5
488
  8
0
 10
545.8740603565841
 20
629.1276910607584
 30
0.0
 40
5.0
  0
CIRCLE
  5
489
  8
0
 10
635.8740603565841
 20
629.1276910607584
 30
0.0
 40
5.0
  0
CIRCLE
  5
48A
  8
0
 10
590.8740603565852
 20
591.127691060758
 30
0.0
 40
3.5
  0
CIRCLE
  5
48B
  8
0
 10
566.6253483565542
 20
633.1276910607584
 30
0.0
 40
3.5
  0
CIRCLE
  5
48C
  8
0
 10
615.1227713565472
 20
633.1276910607584
 30
0.0
 40
3.5
  0
ENDSEC
  0
EOF
