  0
SECTION
  2
HEADER
  9
$ACADVER
  1
AC1009
  9
$INSBASE
 10
0.0
 20
0.0
 30
0.0
  9
$EXTMIN
 10
-192.3671632259709
 20
-433.68755579607023
 30
0.0
  9
$EXTMAX
 10
1004.632836774058
 20
416.8280736351868
 30
31.834400056947779
  9
$LIMMIN
 10
0.0
 20
0.0
  9
$LIMMAX
 10
420.0
 20
297.0
  9
$ORTHOMODE
 70
     1
  9
$REGENMODE
 70
     1
  9
$FILLMODE
 70
     1
  9
$QTEXTMODE
 70
     0
  9
$MIRRTEXT
 70
     1
  9
$DRAGMODE
 70
     2
  9
$LTSCALE
 40
1.0
  9
$OSMODE
 70
   439
  9
$ATTMODE
 70
     1
  9
$TEXTSIZE
 40
2.5
  9
$TRACEWID
 40
1.0
  9
$TEXTSTYLE
  7
STANDARD
  9
$CLAYER
  8
0
  9
$CELTYPE
  6
BYLAYER
  9
$CECOLOR
 62
   256
  9
$DIMSCALE
 40
1.0
  9
$DIMASZ
 40
2.5
  9
$DIMEXO
 40
0.625
  9
$DIMDLI
 40
3.75
  9
$DIMRND
 40
0.0
  9
$DIMDLE
 40
0.0
  9
$DIMEXE
 40
1.25
  9
$DIMTP
 40
0.0
  9
$DIMTM
 40
0.0
  9
$DIMTXT
 40
2.5
  9
$DIMCEN
 40
2.5
  9
$DIMTSZ
 40
0.0
  9
$DIMTOL
 70
     0
  9
$DIMLIM
 70
     0
  9
$DIMTIH
 70
     0
  9
$DIMTOH
 70
     0
  9
$DIMSE1
 70
     0
  9
$DIMSE2
 70
     0
  9
$DIMTAD
 70
     1
  9
$DIMZIN
 70
     8
  9
$DIMBLK
  1

  9
$DIMASO
 70
     1
  9
$DIMSHO
 70
     1
  9
$DIMPOST
  1

  9
$DIMAPOST
  1

  9
$DIMALT
 70
     0
  9
$DIMALTD
 70
     3
  9
$DIMALTF
 40
0.03937007874016
  9
$DIMLFAC
 40
1.0
  9
$DIMTOFL
 70
     1
  9
$DIMTVP
 40
0.0
  9
$DIMTIX
 70
     0
  9
$DIMSOXD
 70
     0
  9
$DIMSAH
 70
     0
  9
$DIMBLK1
  1

  9
$DIMBLK2
  1

  9
$DIMSTYLE
  2
ISO-25
  9
$DIMCLRD
 70
     0
  9
$DIMCLRE
 70
     0
  9
$DIMCLRT
 70
     0
  9
$DIMTFAC
 40
1.0
  9
$DIMGAP
 40
0.625
  9
$LUNITS
 70
     2
  9
$LUPREC
 70
     4
  9
$SKETCHINC
 40
1.0
  9
$FILLETRAD
 40
0.0
  9
$AUNITS
 70
     0
  9
$AUPREC
 70
     0
  9
$MENU
  1
.
  9
$ELEVATION
 40
0.0
  9
$PELEVATION
 40
0.0
  9
$THICKNESS
 40
0.0
  9
$LIMCHECK
 70
     0
  9
$BLIPMODE
 70
     0
  9
$CHAMFERA
 40
10.0
  9
$CHAMFERB
 40
10.0
  9
$SKPOLY
 70
     0
  9
$TDCREATE
 40
2453066.6378362272
  9
$TDUPDATE
 40
2454895.5694324998
  9
$TDINDWG
 40
0.0197914352
  9
$TDUSRTIMER
 40
0.0197903704
  9
$USRTIMER
 70
     1
  9
$ANGBASE
 50
0.0
  9
$ANGDIR
 70
     0
  9
$PDMODE
 70
     0
  9
$PDSIZE
 40
0.0
  9
$PLINEWID
 40
0.0
  9
$COORDS
 70
     1
  9
$SPLFRAME
 70
     0
  9
$SPLINETYPE
 70
     6
  9
$SPLINESEGS
 70
     8
  9
$ATTDIA
 70
     0
  9
$ATTREQ
 70
     1
  9
$HANDLING
 70
     1
  9
$HANDSEED
  5
337
  9
$SURFTAB1
 70
     6
  9
$SURFTAB2
 70
     6
  9
$SURFTYPE
 70
     6
  9
$SURFU
 70
     6
  9
$SURFV
 70
     6
  9
$UCSNAME
  2

  9
$UCSORG
 10
0.0
 20
0.0
 30
0.0
  9
$UCSXDIR
 10
1.0
 20
0.0
 30
0.0
  9
$UCSYDIR
 10
0.0
 20
1.0
 30
0.0
  9
$PUCSNAME
  2

  9
$PUCSORG
 10
0.0
 20
0.0
 30
0.0
  9
$PUCSXDIR
 10
1.0
 20
0.0
 30
0.0
  9
$PUCSYDIR
 10
0.0
 20
1.0
 30
0.0
  9
$USERI1
 70
     0
  9
$USERI2
 70
     0
  9
$USERI3
 70
     0
  9
$USERI4
 70
     0
  9
$USERI5
 70
     0
  9
$USERR1
 40
0.0
  9
$USERR2
 40
0.0
  9
$USERR3
 40
0.0
  9
$USERR4
 40
0.0
  9
$USERR5
 40
0.0
  9
$WORLDVIEW
 70
     1
  9
$SHADEDGE
 70
     3
  9
$SHADEDIF
 70
    70
  9
$TILEMODE
 70
     1
  9
$MAXACTVP
 70
    64
  9
$PLIMCHECK
 70
     0
  9
$PEXTMIN
 10
1.0000000000000000E+020
 20
1.0000000000000000E+020
 30
1.0000000000000000E+020
  9
$PEXTMAX
 10
-1.0000000000000000E+020
 20
-1.0000000000000000E+020
 30
-1.0000000000000000E+020
  9
$PLIMMIN
 10
0.0
 20
0.0
  9
$PLIMMAX
 10
420.0
 20
297.0
  9
$UNITMODE
 70
     0
  9
$VISRETAIN
 70
     1
  9
$PLINEGEN
 70
     0
  9
$PSLTSCALE
 70
     1
  0
ENDSEC
  0
SECTION
  2
TABLES
  0
TABLE
  2
VPORT
 70
     1
  0
VPORT
  2
*ACTIVE
 70
     0
 10
0.0
 20
0.0
 11
1.0
 21
1.0
 12
493.24371284308188
 22
-106.338612040529
 13
0.0
 23
0.0
 14
10.0
 24
10.0
 15
10.0
 25
10.0
 16
0.0
 26
0.0
 36
1.0
 17
0.0
 27
0.0
 37
0.0
 40
580.3368221322296
 41
1.447643979057591
 42
50.0
 43
0.0
 44
0.0
 50
0.0
 51
0.0
 71
     0
 72
   100
 73
     1
 74
     3
 75
     0
 76
     0
 77
     0
 78
     0
  0
ENDTAB
  0
TABLE
  2
LTYPE
 70
     2
  0
LTYPE
  2
CONTINUOUS
 70
     0
  3
Solid line
 72
    65
 73
     0
 40
0.0
  0
ENDTAB
  0
TABLE
  2
LAYER
 70
     2
  0
LAYER
  2
0
 70
     0
 62
     7
  6
CONTINUOUS
  0
LAYER
  2
CONTORNO
 70
     0
 62
     7
  6
CONTINUOUS
  0
ENDTAB
  0
TABLE
  2
STYLE
 70
     3
  0
STYLE
  2
STANDARD
 70
     0
 40
0.0
 41
1.0
 50
0.0
 71
     0
 42
2.5
  3
txt
  4

  0
STYLE
  2
ANNOTATIVE
 70
     0
 40
0.0
 41
1.0
 50
0.0
 71
     0
 42
0.2
  3
txt
  4

  0
STYLE
  2
STILE1
 70
     0
 40
100.0
 41
1.0
 50
0.0
 71
     0
 42
100.0
  3
txt
  4

  0
ENDTAB
  0
TABLE
  2
VIEW
 70
     0
  0
ENDTAB
  0
TABLE
  2
UCS
 70
     0
  0
ENDTAB
  0
TABLE
  2
APPID
 70
     4
  0
APPID
  2
ACAD
 70
     0
  0
APPID
  2
ACADANNOTATIVE
 70
     0
  0
APPID
  2
ACAD_MLEADERVER
 70
     0
  0
APPID
  2
ACAD_EXEMPT_FROM_CAD_STANDARDS
 70
     0
  0
ENDTAB
  0
TABLE
  2
DIMSTYLE
 70
     4
  0
DIMSTYLE
  2
STANDARD
 70
     0
  3

  4

  5

  6

  7

 40
0.0
 41
100.0
 42
1.0
 43
1.0
 44
20.0
 45
0.0
 46
0.0
 47
0.0
 48
0.0
140
2.5
141
-100.0
142
0.0
143
1.0
144
-1.0
145
1.0
146
1.0
147
30.0
 71
     0
 72
     0
 73
     0
 74
     0
 75
     0
 76
     0
 77
     1
 78
     8
170
     0
171
     0
172
     1
173
     0
174
     0
175
     0
176
     5
177
     5
178
     5
  0
DIMSTYLE
  2
ANNOTATIVE
 70
     0
  3

  4

  5

  6

  7

 40
1.0
 41
0.18
 42
0.0625
 43
0.38
 44
0.18
 45
0.0
 46
0.0
 47
0.0
 48
0.0
140
0.18
141
0.09
142
0.0
143
25.399999999999999
144
1.0
145
0.0
146
1.0
147
0.09
 71
     0
 72
     0
 73
     1
 74
     1
 75
     0
 76
     0
 77
     0
 78
     0
170
     0
171
     2
172
     0
173
     0
174
     0
175
     0
176
     0
177
     0
178
     0
  0
DIMSTYLE
  2
ISO-25
 70
     0
  3

  4

  5

  6

  7

 40
1.0
 41
2.5
 42
0.625
 43
3.75
 44
1.25
 45
0.0
 46
0.0
 47
0.0
 48
0.0
140
2.5
141
2.5
142
0.0
143
0.03937007874016
144
1.0
145
0.0
146
1.0
147
0.625
 71
     0
 72
     0
 73
     0
 74
     0
 75
     0
 76
     0
 77
     1
 78
     8
170
     0
171
     3
172
     1
173
     0
174
     0
175
     0
176
     0
177
     0
178
     0
  0
ENDTAB
  0
ENDSEC
  0
SECTION
  2
BLOCKS
  0
BLOCK
  8
0
  2
$MODEL_SPACE
 70
     0
 10
0.0
 20
0.0
 30
0.0
  3
$MODEL_SPACE
  1

  0
ENDBLK
  5
2AE
  8
0
  0
BLOCK
 67
     1
  8
0
  2
$PAPER_SPACE
 70
     0
 10
0.0
 20
0.0
 30
0.0
  3
$PAPER_SPACE
  1

  0
ENDBLK
  5
2AA
 67
     1
  8
0
  0
ENDSEC
  0
SECTION
  2
ENTITIES
  0
LINE
  5
F7
  8
0
 39
31.834400056947779
 10
-169.36716322594191
 20
-155.671926364813
 30
0.0
 11
-192.36716322594191
 21
-155.671926364813
 31
0.0
  0
LINE
  5
F8
  8
0
 39
31.834400056947779
 10
-167.3671632259128
 20
-185.6719263647839
 30
0.0
 11
-167.3671632259128
 21
-157.6719263648128
 31
0.0
  0
LINE
  5
FA
  8
0
 39
31.834400056947779
 10
-167.36716322597081
 20
-147.67192636484191
 30
0.0
 11
-165.76716322596511
 21
-154.0719263648071
 31
0.0
  0
LINE
  5
FB
  8
0
 39
31.834400056947779
 10
-165.76716322596511
 20
-154.0719263648071
 30
0.0
 11
-159.3671632259128
 21
-155.671926364813
 31
0.0
  0
LINE
  5
FC
  8
0
 39
31.834400056947779
 10
978.03283677393574
 20
-154.0719263648071
 30
0.0
 11
971.63283677391235
 21
-155.671926364813
 31
0.0
  0
LINE
  5
FD
  8
0
 39
31.834400056947779
 10
978.03283677390675
 20
-154.07192636483629
 30
0.0
 11
979.63283677391235
 21
-147.671926364813
 31
0.0
  0
LINE
  5
FE
  8
0
 39
31.834400056947779
 10
1004.632836774028
 20
-155.6719263647839
 30
0.0
 11
981.63283677391235
 21
-155.6719263647839
 31
0.0
  0
LINE
  5
100
  8
0
 39
31.834400056947779
 10
979.63283677397044
 20
-185.6719263647839
 30
0.0
 11
979.63283677397044
 21
-157.67192636484199
 31
0.0
  0
LINE
  5
103
  8
0
 39
31.834400056947779
 10
979.63283677397044
 20
371.3280736351868
 30
0.0
 11
979.63283677397044
 21
392.32807363515769
 31
0.0
  0
LINE
  5
104
  8
0
 39
31.834400056947779
 10
1004.632836774028
 20
369.32807363521601
 30
0.0
 11
981.63283677405809
 21
369.32807363521601
 31
0.0
  0
LINE
  5
106
  8
0
 39
31.834400056947779
 10
971.63283677397044
 20
369.3280736351868
 30
0.0
 11
978.03283677402328
 21
367.7280736351812
 31
0.0
  0
LINE
  5
107
  8
0
 39
31.834400056947779
 10
978.03283677402328
 20
367.7280736351812
 30
0.0
 11
979.63283677402865
 21
361.32807363521601
 31
0.0
  0
LINE
  5
109
  8
0
 39
31.834400056947779
 10
979.63283677402865
 20
396.32807363521601
 30
0.0
 11
979.63283677402865
 21
416.8280736351868
 31
0.0
  0
LINE
  5
10A
  8
0
 39
31.834400056947779
 10
-167.36716322597081
 20
371.3280736351868
 30
0.0
 11
-167.36716322597081
 21
392.32807363515769
 31
0.0
  0
LINE
  5
10B
  8
0
 39
31.834400056947779
 10
-167.36716322597081
 20
361.3280736351868
 30
0.0
 11
-165.76716322596511
 21
367.72807363515187
 31
0.0
  0
LINE
  5
10C
  8
0
 39
31.834400056947779
 10
-159.3671632259709
 20
369.3280736351868
 30
0.0
 11
-165.76716322596511
 21
367.7280736351812
 31
0.0
  0
LINE
  5
10D
  8
0
 39
31.834400056947779
 10
-169.36716322597081
 20
369.3280736351868
 30
0.0
 11
-192.36716322594191
 21
369.3280736351868
 31
0.0
  0
LINE
  5
10E
  8
0
 39
31.834400056947779
 10
979.63283677391235
 20
-147.671926364813
 30
0.0
 11
981.63283677391235
 21
-155.671926364813
 31
0.0
  0
LINE
  5
10F
  8
0
 39
31.834400056947779
 10
-169.36716322597081
 20
-155.67192636484191
 30
0.0
 11
-167.36716322597081
 21
-147.67192636484191
 31
0.0
  0
LINE
  5
110
  8
0
 39
31.834400056947779
 10
979.63283677402865
 20
361.32807363521601
 30
0.0
 11
981.63283677402876
 21
369.32807363521601
 31
0.0
  0
LINE
  5
111
  8
0
 39
31.834400056947779
 10
-169.36716322597081
 20
369.3280736351868
 30
0.0
 11
-167.36716322597081
 21
361.3280736351868
 31
0.0
  0
LINE
  5
112
  8
0
 39
31.834400056947779
 10
979.63283677397044
 20
396.32807363518691
 30
0.0
 11
971.63283677397044
 21
394.3280736351868
 31
0.0
  0
LINE
  5
113
  8
0
 39
31.834400056947779
 10
971.63283677397044
 20
394.3280736351868
 30
0.0
 11
979.63283677397044
 21
392.3280736351868
 31
0.0
  0
LINE
  5
115
  8
0
 39
31.834400056947779
 10
979.63283677397044
 20
371.3280736351868
 30
0.0
 11
971.63283677397044
 21
369.3280736351868
 31
0.0
  0
LINE
  5
116
  8
0
 39
31.834400056947779
 10
971.63283677391235
 20
-155.671926364813
 30
0.0
 11
979.63283677391235
 21
-157.6719263648128
 31
0.0
  0
LINE
  5
117
  8
0
 39
31.834400056947779
 10
-159.3671632259128
 20
-155.671926364813
 30
0.0
 11
-167.3671632259128
 21
-157.6719263648128
 31
0.0
  0
LINE
  5
118
  8
0
 39
31.834400056947779
 10
-167.36716322597081
 20
371.3280736351868
 30
0.0
 11
-159.3671632259709
 21
369.3280736351868
 31
0.0
  0
LINE
  5
119
  8
0
 39
31.834400056947779
 10
-167.367163226
 20
396.32807363518691
 30
0.0
 11
-167.367163226
 21
416.8280736351868
 31
0.0
  0
LINE
  5
11A
  8
0
 39
31.834400056947779
 10
-159.3671632259709
 20
394.3280736351868
 30
0.0
 11
-167.36716322597081
 21
392.3280736351868
 31
0.0
  0
LINE
  5
11B
  8
0
 39
31.834400056947779
 10
-167.36716322597081
 20
396.32807363518691
 30
0.0
 11
-159.3671632259709
 21
394.3280736351868
 31
0.0
  0
ARC
  5
11C
  8
0
 39
31.834400056947779
 10
406.13283677402887
 20
177.32807363518691
 30
0.0
 40
8.75
 50
0.0
 51
180.0
  0
LINE
  5
11D
  8
0
 39
31.834400056947779
 10
397.38283677402887
 20
177.32807363518691
 30
0.0
 11
397.38283677399988
 21
47.293521997328568
 31
0.0
  0
LINE
  5
11E
  8
0
 39
31.834400056947779
 10
414.8828367740287
 20
177.32807363518691
 30
0.0
 11
414.8828367740287
 21
47.293521997328568
 31
0.0
  0
ARC
  5
11F
  8
0
 39
31.834400056947779
 10
406.13283677402887
 20
47.293521997357679
 30
0.0
 40
8.75
 50
180.0
 51
0.0
  0
CIRCLE
  5
120
  8
0
 39
31.834400056947779
 10
278.57460056793298
 20
65.139232496045963
 30
0.0
 40
6.75
  0
CIRCLE
  5
121
  8
0
 39
31.834400056947779
 10
146.14927817596711
 20
19.713094762539921
 30
0.0
 40
6.75
  0
CIRCLE
  5
122
  8
0
 39
31.834400056947779
 10
13.72395578403041
 20
-25.713042971024318
 30
0.0
 40
6.75
  0
CIRCLE
  5
123
  8
0
 39
31.834400056947779
 10
274.59081372409952
 20
31.966247190909431
 30
0.0
 40
6.75
  0
CIRCLE
  5
124
  8
0
 39
31.834400056947779
 10
139.222425974419
 20
-3.7464900054484911
 30
0.0
 40
6.75
  0
CIRCLE
  5
125
  8
0
 39
31.834400056947779
 10
271.7983984479589
 20
5.1122621822131
 30
0.0
 40
6.75
  0
CIRCLE
  5
126
  8
0
 39
31.834400056947779
 10
134.520434422514
 20
-22.360644344547069
 30
0.0
 40
6.75
  0
CIRCLE
  5
127
  8
0
 39
31.834400056947779
 10
27.263403201833281
 20
-10.10180569127367
 30
0.0
 40
6.75
  0
CIRCLE
  5
128
  8
0
 39
31.834400056947779
 10
155.55490104761799
 20
45.945420649410877
 30
0.0
 40
6.75
  0
CIRCLE
  5
129
  8
0
 39
31.834400056947779
 10
283.84639889343191
 20
101.99264699009539
 30
0.0
 40
6.75
  0
LINE
  5
12A
  8
0
 39
31.834400056947779
 10
-146.68627408492961
 20
-70.024455103520182
 30
0.0
 11
-105.1290548691093
 21
-58.359890531152971
 31
0.0
  0
CIRCLE
  5
12B
  8
0
 39
31.834400056947779
 10
528.4192746548589
 20
101.99264699009539
 30
0.0
 40
6.75
  0
CIRCLE
  5
12C
  8
0
 39
31.834400056947779
 10
656.71077250067265
 20
45.945420649410877
 30
0.0
 40
6.75
  0
CIRCLE
  5
12D
  8
0
 39
31.834400056947779
 10
785.00227034645752
 20
-10.10180569127367
 30
0.0
 40
6.75
  0
CIRCLE
  5
12E
  8
0
 39
31.834400056947779
 10
677.74523912577672
 20
-22.360644344547069
 30
0.0
 40
6.75
  0
CIRCLE
  5
12F
  8
0
 39
31.834400056947779
 10
540.46727510033168
 20
5.1122621822131
 30
0.0
 40
6.75
  0
CIRCLE
  5
130
  8
0
 39
31.834400056947779
 10
673.04324757387178
 20
-3.7464900054484911
 30
0.0
 40
6.75
  0
CIRCLE
  5
131
  8
0
 39
31.834400056947779
 10
537.67485982419123
 20
31.966247190909431
 30
0.0
 40
6.75
  0
CIRCLE
  5
132
  8
0
 39
31.834400056947779
 10
798.54171776426006
 20
-25.713042971024318
 30
0.0
 40
6.75
  0
CIRCLE
  5
133
  8
0
 39
31.834400056947779
 10
666.11639537232361
 20
19.713094762539921
 30
0.0
 40
6.75
  0
CIRCLE
  5
134
  8
0
 39
31.834400056947779
 10
533.69107298035772
 20
65.139232496045963
 30
0.0
 40
6.75
  0
LINE
  5
135
  8
0
 39
31.834400056947779
 10
958.95194763322866
 20
-70.024455103522399
 30
0.0
 11
917.54051998703835
 21
-58.400812306243971
 31
0.0
  0
ARC
  5
13A
  8
0
 39
31.834400056947779
 10
808.41163532352323
 20
-39.45922720183551
 30
0.0
 40
6.75
 50
33.625892681264631
 51
213.6258926812645
  0
ARC
  5
13B
  8
0
 39
31.834400056947779
 10
815.35527623052724
 20
-49.90000737029294
 30
0.0
 40
6.75
 50
213.6258926812645
 51
33.625892681264631
  0
ARC
  5
13C
  8
0
 39
31.834400056947779
 10
915.10308577659544
 20
-66.80446713433885
 30
0.0
 40
8.75
 50
73.825486955914613
 51
254.8170490565544
  0
ARC
  5
13D
  8
0
 39
31.834400056947779
 10
956.66030498504631
 20
-78.469031704692668
 30
0.0
 40
8.75
 50
253.82548682773739
 51
74.81704891995318
  0
ARC
  5
13E
  8
0
 39
31.834400056947779
 10
3.8540382247675762
 20
-39.45922720183551
 30
0.0
 40
6.75
 50
326.3741073187353
 51
146.3741073187353
  0
ARC
  5
13F
  8
0
 39
31.834400056947779
 10
-3.0896026822364311
 20
-49.90000737029294
 30
0.0
 40
6.75
 50
146.3741073187353
 51
326.3741073187353
  0
ARC
  5
140
  8
0
 39
31.834400056947779
 10
-144.3946314367557
 20
-78.469031704692668
 30
0.0
 40
8.75
 50
105.1829510799912
 51
286.17451315645638
  0
LINE
  5
141
  8
0
 39
31.834400056947779
 10
-141.9571972172333
 20
-86.872686530071576
 30
0.0
 11
-100.545769595067
 21
-75.249043739561955
 31
0.0
  0
ARC
  5
142
  8
0
 39
31.834400056947779
 10
-102.8374122283047
 20
-66.80446713433885
 30
0.0
 40
8.75
 50
285.18295095923889
 51
105.1829510421649
  0
LINE
  5
143
  8
0
 39
31.834400056947779
 10
954.22287076552402
 20
-86.872686530071576
 30
0.0
 11
912.81144314661742
 21
-75.24904374043507
 31
0.0
  0
LINE
  5
144
  8
0
 39
31.834400056947779
 10
-192.3671632258833
 20
-155.6719263647839
 30
0.0
 11
-192.3671632259709
 21
369.3280736351868
 31
0.0
  0
LINE
  5
145
  8
0
 39
31.834400056947779
 10
1004.632836774058
 20
-155.67192636475451
 30
0.0
 11
1004.632836774028
 21
369.3280736351868
 31
0.0
  0
LINE
  5
146
  8
0
 39
31.834400056947779
 10
979.63283677402865
 20
-185.6719263647839
 30
0.0
 11
-167.367163226
 21
-185.6719263647839
 31
0.0
  0
LINE
  5
147
  8
0
 39
31.834400056947779
 10
979.63283677402865
 20
416.8280736351868
 30
0.0
 11
-167.367163226
 21
416.8280736351868
 31
0.0
  0
LINE
  5
1CF
  8
0
 10
814.03216505335479
 20
-35.721293874972098
 30
0.0
 11
820.97580596035925
 21
-46.162074043429527
 31
0.0
  0
LINE
  5
1D0
  8
0
 10
802.7911055936911
 20
-43.197160528698923
 30
0.0
 11
809.73474650069534
 21
-53.637940697156338
 31
0.0
  0
LINE
  5
1D1
  8
0
 10
-1.7664915050642831
 20
-35.721293874972098
 30
0.0
 11
-8.7101324120682904
 21
-46.162074043429527
 31
0.0
  0
LINE
  5
1D2
  8
0
 10
9.4745679545994328
 20
-43.197160528698923
 30
0.0
 11
2.5309270475954282
 21
-53.637940697156353
 31
0.0
  0
CIRCLE
  5
2E1
  8
0
 10
530.85054153443571
 20
-79.887737817786885
 30
0.0
 40
13.0
  0
CIRCLE
  5
2E3
  8
0
 10
281.41513201362221
 20
-79.887737817786885
 30
0.0
 40
13.0
  0
ENDSEC
  0
EOF
