  0
SECTION
  2
HEADER
  9
$ACADVER
  1
AC1009
  9
$INSBASE
 10
0.0
 20
0.0
 30
0.0
  9
$EXTMIN
 10
36.632841568610097
 20
13.95797058495425
 30
0.0
  9
$EXTMAX
 10
531.33195341170972
 20
1513.957970584954
 30
0.0
  9
$LIMMIN
 10
0.0
 20
0.0
  9
$LIMMAX
 10
12.0
 20
9.0
  9
$ORTHOMODE
 70
     1
  9
$REGENMODE
 70
     1
  9
$FILLMODE
 70
     1
  9
$QTEXTMODE
 70
     0
  9
$MIRRTEXT
 70
     0
  9
$DRAGMODE
 70
     2
  9
$LTSCALE
 40
1.0
  9
$OSMODE
 70
  3071
  9
$ATTMODE
 70
     1
  9
$TEXTSIZE
 40
0.2
  9
$TRACEWID
 40
0.05
  9
$TEXTSTYLE
  7
STANDARD
  9
$CLAYER
  8
0
  9
$CELTYPE
  6
BYLAYER
  9
$CECOLOR
 62
   256
  9
$DIMSCALE
 40
1.0
  9
$DIMASZ
 40
0.18
  9
$DIMEXO
 40
0.0625
  9
$DIMDLI
 40
0.38
  9
$DIMRND
 40
0.0
  9
$DIMDLE
 40
0.0
  9
$DIMEXE
 40
0.18
  9
$DIMTP
 40
0.0
  9
$DIMTM
 40
0.0
  9
$DIMTXT
 40
0.18
  9
$DIMCEN
 40
0.09
  9
$DIMTSZ
 40
0.0
  9
$DIMTOL
 70
     0
  9
$DIMLIM
 70
     0
  9
$DIMTIH
 70
     1
  9
$DIMTOH
 70
     1
  9
$DIMSE1
 70
     0
  9
$DIMSE2
 70
     0
  9
$DIMTAD
 70
     0
  9
$DIMZIN
 70
     0
  9
$DIMBLK
  1

  9
$DIMASO
 70
     1
  9
$DIMSHO
 70
     1
  9
$DIMPOST
  1

  9
$DIMAPOST
  1

  9
$DIMALT
 70
     0
  9
$DIMALTD
 70
     2
  9
$DIMALTF
 40
25.399999999999999
  9
$DIMLFAC
 40
1.0
  9
$DIMTOFL
 70
     0
  9
$DIMTVP
 40
0.0
  9
$DIMTIX
 70
     0
  9
$DIMSOXD
 70
     0
  9
$DIMSAH
 70
     0
  9
$DIMBLK1
  1

  9
$DIMBLK2
  1

  9
$DIMSTYLE
  2
STANDARD
  9
$DIMCLRD
 70
     0
  9
$DIMCLRE
 70
     0
  9
$DIMCLRT
 70
     0
  9
$DIMTFAC
 40
1.0
  9
$DIMGAP
 40
0.09
  9
$LUNITS
 70
     2
  9
$LUPREC
 70
     4
  9
$SKETCHINC
 40
0.1
  9
$FILLETRAD
 40
0.0
  9
$AUNITS
 70
     0
  9
$AUPREC
 70
     0
  9
$MENU
  1
.
  9
$ELEVATION
 40
0.0
  9
$PELEVATION
 40
0.0
  9
$THICKNESS
 40
0.0
  9
$LIMCHECK
 70
     0
  9
$BLIPMODE
 70
     0
  9
$CHAMFERA
 40
0.0
  9
$CHAMFERB
 40
0.0
  9
$SKPOLY
 70
     0
  9
$TDCREATE
 40
2456004.463530995
  9
$TDUPDATE
 40
2456014.6813217942
  9
$TDINDWG
 40
0.0021815278
  9
$TDUSRTIMER
 40
0.0021813426
  9
$USRTIMER
 70
     1
  9
$ANGBASE
 50
0.0
  9
$ANGDIR
 70
     0
  9
$PDMODE
 70
     0
  9
$PDSIZE
 40
0.0
  9
$PLINEWID
 40
0.0
  9
$COORDS
 70
     0
  9
$SPLFRAME
 70
     0
  9
$SPLINETYPE
 70
     6
  9
$SPLINESEGS
 70
     8
  9
$ATTDIA
 70
     0
  9
$ATTREQ
 70
     1
  9
$HANDLING
 70
     1
  9
$HANDSEED
  5
3F2
  9
$SURFTAB1
 70
     6
  9
$SURFTAB2
 70
     6
  9
$SURFTYPE
 70
     6
  9
$SURFU
 70
     6
  9
$SURFV
 70
     6
  9
$UCSNAME
  2

  9
$UCSORG
 10
0.0
 20
0.0
 30
0.0
  9
$UCSXDIR
 10
1.0
 20
0.0
 30
0.0
  9
$UCSYDIR
 10
0.0
 20
1.0
 30
0.0
  9
$PUCSNAME
  2

  9
$PUCSORG
 10
0.0
 20
0.0
 30
0.0
  9
$PUCSXDIR
 10
1.0
 20
0.0
 30
0.0
  9
$PUCSYDIR
 10
0.0
 20
1.0
 30
0.0
  9
$USERI1
 70
     0
  9
$USERI2
 70
     0
  9
$USERI3
 70
     0
  9
$USERI4
 70
     0
  9
$USERI5
 70
     0
  9
$USERR1
 40
0.0
  9
$USERR2
 40
0.0
  9
$USERR3
 40
0.0
  9
$USERR4
 40
0.0
  9
$USERR5
 40
0.0
  9
$WORLDVIEW
 70
     1
  9
$SHADEDGE
 70
     3
  9
$SHADEDIF
 70
    70
  9
$TILEMODE
 70
     1
  9
$MAXACTVP
 70
    64
  9
$PLIMCHECK
 70
     0
  9
$PEXTMIN
 10
0.0
 20
0.0
 30
0.0
  9
$PEXTMAX
 10
0.0
 20
0.0
 30
0.0
  9
$PLIMMIN
 10
0.0
 20
0.0
  9
$PLIMMAX
 10
12.0
 20
9.0
  9
$UNITMODE
 70
     0
  9
$VISRETAIN
 70
     1
  9
$PLINEGEN
 70
     0
  9
$PSLTSCALE
 70
     1
  0
ENDSEC
  0
SECTION
  2
TABLES
  0
TABLE
  2
VPORT
 70
     1
  0
VPORT
  2
*ACTIVE
 70
     0
 10
0.0
 20
0.0
 11
1.0
 21
1.0
 12
-34.348195084166953
 22
372.93376574627598
 13
0.0
 23
0.0
 14
0.5
 24
0.5
 15
0.5
 25
0.5
 16
0.0
 26
0.0
 36
1.0
 17
0.0
 27
0.0
 37
0.0
 40
1018.823837645209
 41
2.6469135802469128
 42
50.0
 43
0.0
 44
0.0
 50
0.0
 51
0.0
 71
     0
 72
  1000
 73
     1
 74
     3
 75
     0
 76
     0
 77
     0
 78
     0
  0
ENDTAB
  0
TABLE
  2
LTYPE
 70
     2
  0
LTYPE
  2
CONTINUOUS
 70
     0
  3
Solid line
 72
    65
 73
     0
 40
0.0
  0
ENDTAB
  0
TABLE
  2
LAYER
 70
     1
  0
LAYER
  2
0
 70
     0
 62
     7
  6
CONTINUOUS
  0
ENDTAB
  0
TABLE
  2
STYLE
 70
     4
  0
STYLE
  2
STANDARD
 70
     0
 40
0.0
 41
1.0
 50
0.0
 71
     0
 42
0.2
  3
txt.shx
  4

  0
STYLE
  2
ANNOTATIVE
 70
     0
 40
0.0
 41
1.0
 50
0.0
 71
     0
 42
0.2
  3
txt
  4

  0
STYLE
  2
ANNOTATIVA
 70
     0
 40
0.0
 41
1.0
 50
0.0
 71
     0
 42
0.2
  3
txt.shx
  4

  0
STYLE
  2
STILE1
 70
     0
 40
100.0
 41
1.0
 50
0.0
 71
     0
 42
100.0
  3
txt
  4

  0
ENDTAB
  0
TABLE
  2
VIEW
 70
     0
  0
ENDTAB
  0
TABLE
  2
UCS
 70
     0
  0
ENDTAB
  0
TABLE
  2
APPID
 70
     9
  0
APPID
  2
ACAD
 70
     0
  0
APPID
  2
ACADANNOTATIVE
 70
     0
  0
APPID
  2
ACAD_MLEADERVER
 70
     0
  0
APPID
  2
ACADANNOPO
 70
     0
  0
APPID
  2
ACAD_DSTYLE_DIMJAG
 70
     0
  0
APPID
  2
ACAD_DSTYLE_DIMTALN
 70
     0
  0
APPID
  2
ACAD_PSEXT
 70
     0
  0
APPID
  2
ACAD_DSTYLE_DIMBREAK
 70
     0
  0
APPID
  2
ACAD_EXEMPT_FROM_CAD_STANDARDS
 70
     0
  0
ENDTAB
  0
TABLE
  2
DIMSTYLE
 70
     6
  0
DIMSTYLE
  2
STANDARD
 70
     0
  3

  4

  5

  6

  7

 40
1.0
 41
0.18
 42
0.0625
 43
0.38
 44
0.18
 45
0.0
 46
0.0
 47
0.0
 48
0.0
140
0.18
141
0.09
142
0.0
143
25.399999999999999
144
1.0
145
0.0
146
1.0
147
0.09
 71
     0
 72
     0
 73
     1
 74
     1
 75
     0
 76
     0
 77
     0
 78
     0
170
     0
171
     2
172
     0
173
     0
174
     0
175
     0
176
     0
177
     0
178
     0
  0
DIMSTYLE
  2
ANNOTATIVE
 70
     0
  3

  4

  5

  6

  7

 40
1.0
 41
0.18
 42
0.0625
 43
0.38
 44
0.18
 45
0.0
 46
0.0
 47
0.0
 48
0.0
140
0.18
141
0.09
142
0.0
143
25.399999999999999
144
1.0
145
0.0
146
1.0
147
0.09
 71
     0
 72
     0
 73
     1
 74
     1
 75
     0
 76
     0
 77
     0
 78
     0
170
     0
171
     2
172
     0
173
     0
174
     0
175
     0
176
     0
177
     0
178
     0
  0
DIMSTYLE
  2
ANNOTATIVA
 70
     0
  3

  4

  5

  6

  7

 40
0.0
 41
0.18
 42
0.0625
 43
0.38
 44
0.18
 45
0.0
 46
0.0
 47
0.0
 48
0.0
140
0.18
141
0.09
142
0.0
143
25.399999999999999
144
1.0
145
0.0
146
1.0
147
0.09
 71
     0
 72
     0
 73
     1
 74
     1
 75
     0
 76
     0
 77
     0
 78
     0
170
     0
171
     2
172
     0
173
     0
174
     0
175
     0
176
     0
177
     0
178
     0
  0
DIMSTYLE
  2
ISO-25
 70
     0
  3

  4

  5

  6

  7

 40
1.0
 41
2.5
 42
0.625
 43
3.75
 44
1.25
 45
0.0
 46
0.0
 47
0.0
 48
0.0
140
2.5
141
2.5
142
0.0
143
0.03937007874016
144
1.0
145
0.0
146
1.0
147
0.625
 71
     0
 72
     0
 73
     0
 74
     0
 75
     0
 76
     0
 77
     1
 78
     8
170
     0
171
     3
172
     1
173
     0
174
     0
175
     0
176
     0
177
     0
178
     0
  0
DIMSTYLE
  2
NOSTRE_QUOTE
 70
     0
  3

  4

  5

  6

  7

 40
1.0
 41
20.0
 42
5.0
 43
3.75
 44
5.0
 45
0.0
 46
0.0
 47
0.0
 48
0.0
140
40.0
141
2.5
142
0.0
143
0.03937007874016
144
1.0
145
0.0
146
1.0
147
10.0
 71
     0
 72
     0
 73
     0
 74
     0
 75
     0
 76
     0
 77
     1
 78
     8
170
     0
171
     3
172
     1
173
     0
174
     0
175
     0
176
     0
177
     0
178
     0
  0
ENDTAB
  0
ENDSEC
  0
SECTION
  2
BLOCKS
  0
BLOCK
  8
0
  2
$MODEL_SPACE
 70
     0
 10
0.0
 20
0.0
 30
0.0
  3
$MODEL_SPACE
  1

  0
ENDBLK
  5
3AC
  8
0
  0
BLOCK
 67
     1
  8
0
  2
$PAPER_SPACE
 70
     0
 10
0.0
 20
0.0
 30
0.0
  3
$PAPER_SPACE
  1

  0
ENDBLK
  5
3A8
 67
     1
  8
0
  0
BLOCK
  8
0
  2
*U2
 70
     1
 10
0.0
 20
0.0
 30
0.0
  3
*U2
  1

  0
TEXT
  5
1EB
  8
0
 10
85.210885615910229
 20
1285.7802318899189
 30
0.0
 40
100.0
  1
DX
  0
ENDBLK
  5
1ED
  8
0
  0
ENDSEC
  0
SECTION
  2
ENTITIES
  0
CIRCLE
  5
188
  8
0
 10
516.33195341170972
 20
634.95797058495407
 30
0.0
 40
9.0000000000001048
  0
CIRCLE
  5
189
  8
0
 10
516.33195341170972
 20
854.95797058495396
 30
0.0
 40
9.0000000000001048
  0
CIRCLE
  5
18A
  8
0
 10
516.33195341170972
 20
1074.957970584954
 30
0.0
 40
9.0000000000004121
  0
LINE
  5
18B
  8
0
 10
531.33195341170972
 20
1373.957970584954
 30
0.0
 11
493.2210792141766
 21
1373.957970584954
 31
0.0
  0
LINE
  5
18C
  8
0
 10
486.46881775489851
 20
1381.9834347181029
 30
0.0
 11
238.3319534117098
 21
1513.957970584954
 31
0.0
  0
LINE
  5
18D
  8
0
 10
36.632841568610097
 20
1513.957970584954
 30
0.0
 11
79.916026875808541
 21
1513.957970584954
 31
0.0
  0
LINE
  5
18E
  8
0
 10
36.632841568610097
 20
1513.957970584954
 30
0.0
 11
36.632841568610097
 21
239.4579705849543
 31
0.0
  0
LINE
  5
18F
  8
0
 10
488.04876810450747
 20
440.95797058495418
 30
0.0
 11
491.0487681045077
 21
450.95797058495418
 31
0.0
  0
LINE
  5
190
  8
0
 10
491.0487681045077
 20
450.95797058495418
 30
0.0
 11
494.0487681045077
 21
440.95797058495418
 31
0.0
  0
LINE
  5
191
  8
0
 10
142.482397490209
 20
13.95797058495425
 30
0.0
 11
145.482397490209
 21
23.95797058495425
 31
0.0
  0
LINE
  5
192
  8
0
 10
145.482397490209
 20
23.95797058495425
 30
0.0
 11
148.482397490209
 21
13.95797058495425
 31
0.0
  0
LINE
  5
193
  8
0
 10
79.916026875808541
 20
13.95797058495425
 30
0.0
 11
82.916026875808512
 21
23.95797058495425
 31
0.0
  0
LINE
  5
194
  8
0
 10
82.916026875808512
 20
23.95797058495425
 30
0.0
 11
85.916026875808541
 21
13.95797058495425
 31
0.0
  0
LINE
  5
195
  8
0
 10
486.46881775489851
 20
1381.9834347181029
 30
0.0
 11
491.048768104511
 21
1366.716933552729
 31
0.0
  0
LINE
  5
196
  8
0
 10
491.048768104511
 20
1366.716933552729
 30
0.0
 11
493.2210792141766
 21
1373.957970584954
 31
0.0
  0
LINE
  5
197
  8
0
 10
184.04876810451131
 20
1513.957970584954
 30
0.0
 11
187.04876810451131
 21
1503.957970584954
 31
0.0
  0
LINE
  5
198
  8
0
 10
187.04876810451131
 20
1503.957970584954
 30
0.0
 11
190.04876810451131
 21
1513.957970584954
 31
0.0
  0
LINE
  5
199
  8
0
 10
142.482397490209
 20
1513.957970584954
 30
0.0
 11
145.482397490209
 21
1503.957970584954
 31
0.0
  0
LINE
  5
19A
  8
0
 10
145.482397490209
 20
1503.957970584954
 30
0.0
 11
148.482397490209
 21
1513.957970584954
 31
0.0
  0
LINE
  5
19B
  8
0
 10
79.916026875808541
 20
1513.957970584954
 30
0.0
 11
82.916026875808512
 21
1503.957970584954
 31
0.0
  0
LINE
  5
19C
  8
0
 10
82.916026875808512
 20
1503.957970584954
 30
0.0
 11
85.916026875808541
 21
1513.957970584954
 31
0.0
  0
LINE
  5
19D
  8
0
 10
531.33195341170972
 20
440.95797058495401
 30
0.0
 11
531.33195341170972
 21
1373.957970584954
 31
0.0
  0
LINE
  5
19E
  8
0
 10
190.04876810451131
 20
1513.9579705849469
 30
0.0
 11
238.3319534117098
 21
1513.957970584954
 31
0.0
  0
LINE
  5
19F
  8
0
 10
148.482397490209
 20
1513.957970584954
 30
0.0
 11
184.04876810451131
 21
1513.957970584954
 31
0.0
  0
LINE
  5
1A0
  8
0
 10
85.916026875808541
 20
1513.957970584954
 30
0.0
 11
142.482397490209
 21
1513.957970584954
 31
0.0
  0
LINE
  5
1A1
  8
0
 10
36.632841568610097
 20
13.95797058495425
 30
0.0
 11
79.916026875808541
 21
13.95797058495425
 31
0.0
  0
LINE
  5
1A2
  8
0
 10
85.916026875808541
 20
13.95797058495425
 30
0.0
 11
142.482397490209
 21
13.95797058495425
 31
0.0
  0
LINE
  5
1A3
  8
0
 10
148.482397490209
 20
13.95797058495425
 30
0.0
 11
187.04876810451131
 21
13.95797058495425
 31
0.0
  0
LINE
  5
1A6
  8
0
 10
187.04876810451131
 20
280.85044572158267
 30
0.0
 11
187.04876810451131
 21
239.4579705849543
 31
0.0
  0
LINE
  5
1A7
  8
0
 10
336.0487681045114
 20
440.95797058495418
 30
0.0
 11
488.04876810450401
 21
440.95797058494691
 31
0.0
  0
LINE
  5
1A8
  8
0
 10
494.0487681045077
 20
440.95797058494691
 30
0.0
 11
531.33195341170972
 21
440.95797058495401
 31
0.0
  0
LINE
  5
1AA
  8
0
 10
336.0487681045114
 20
440.95797058495418
 30
0.0
 11
336.0487681045114
 21
287.95797058494708
 31
0.0
  0
LINE
  5
1AB
  8
0
 10
256.04876810451128
 20
294.95797058495418
 30
0.0
 11
256.04876810451128
 21
287.95797058494708
 31
0.0
  0
ARC
  5
1AC
  8
0
 10
266.04876810451128
 20
294.95797058495418
 30
0.0
 40
10.0
 50
90.0
 51
180.0
  0
LINE
  5
1AD
  8
0
 10
292.0487681045077
 20
294.95797058494691
 30
0.0
 11
292.04876810451128
 21
287.95797058494708
 31
0.0
  0
ARC
  5
1AE
  8
0
 10
282.0487681045077
 20
294.95797058495418
 30
0.0
 40
10.0
 50
0.0
 51
90.0
  0
LINE
  5
1AF
  8
0
 10
190.04876810451501
 20
287.95797058495418
 30
0.0
 11
256.04876810451128
 21
287.95797058495418
 31
0.0
  0
LINE
  5
1B0
  8
0
 10
292.04876810451492
 20
287.95797058495418
 30
0.0
 11
336.0487681045114
 21
287.95797058494708
 31
0.0
  0
LINE
  5
1B1
  8
0
 10
266.04876810451128
 20
304.95797058495418
 30
0.0
 11
282.0487681045077
 21
304.95797058495418
 31
0.0
  0
LINE
  5
1B2
  8
0
 10
184.04876810451131
 20
287.95797058494708
 30
0.0
 11
187.04876810451131
 21
297.95797058494702
 31
0.0
  0
LINE
  5
1B3
  8
0
 10
187.04876810451131
 20
297.95797058494702
 30
0.0
 11
190.04876810451131
 21
287.95797058494708
 31
0.0
  0
LINE
  5
1B4
  8
0
 10
184.04876810451131
 20
287.95797058494708
 30
0.0
 11
187.04876810451131
 21
280.85044572158267
 31
0.0
  0
LINE
  5
3D0
  8
0
 10
36.632841568610097
 20
239.4579705849543
 30
0.0
 11
44.632841568610097
 21
236.95797058495421
 31
0.0
  0
LINE
  5
3D1
  8
0
 10
44.632841568610097
 20
236.95797058495421
 30
0.0
 11
36.632841568610097
 21
234.45797058495421
 31
0.0
  0
LINE
  5
3D2
  8
0
 10
36.632841568610097
 20
234.45797058495421
 30
0.0
 11
36.632841568610097
 21
13.95797058495425
 31
0.0
  0
LINE
  5
3D3
  8
0
 10
187.04876810451131
 20
239.4579705849543
 30
0.0
 11
179.04876810451131
 21
236.95797058495421
 31
0.0
  0
LINE
  5
3D4
  8
0
 10
179.04876810451131
 20
236.95797058495421
 30
0.0
 11
187.04876810451131
 21
234.45797058495421
 31
0.0
  0
LINE
  5
3D6
  8
0
 10
187.04876810451131
 20
234.45797058495421
 30
0.0
 11
187.04876810451131
 21
13.95797058495425
 31
0.0
  0
ENDSEC
  0
EOF
