  0
SECTION
  2
HEADER
  9
$ACADVER
  1
AC1009
  9
$DWGCODEPAGE
  3
ansi_1252
  9
$INSBASE
 10
0.0
 20
0.0
 30
0.0
  9
$EXTMIN
 10
2.461854333261291
 20
2.310512210935812
 30
0.0
  9
$EXTMAX
 10
3912.981473877576
 20
344.3361993520785
 30
63.66880011389556
  9
$LIMMIN
 10
0.0
 20
0.0
  9
$LIMMAX
 10
12.0
 20
9.0
  9
$ORTHOMODE
 70
     0
  9
$REGENMODE
 70
     1
  9
$FILLMODE
 70
     1
  9
$QTEXTMODE
 70
     0
  9
$MIRRTEXT
 70
     0
  9
$DRAGMODE
 70
     2
  9
$LTSCALE
 40
1.0
  9
$OSMODE
 70
  5119
  9
$ATTMODE
 70
     1
  9
$TEXTSIZE
 40
0.2
  9
$TRACEWID
 40
0.05
  9
$TEXTSTYLE
  7
STANDARD
  9
$CLAYER
  8
0
  9
$CELTYPE
  6
BYLAYER
  9
$CECOLOR
 62
   256
  9
$DIMSCALE
 40
1.0
  9
$DIMASZ
 40
0.18
  9
$DIMEXO
 40
0.0625
  9
$DIMDLI
 40
0.38
  9
$DIMRND
 40
0.0
  9
$DIMDLE
 40
0.0
  9
$DIMEXE
 40
0.18
  9
$DIMTP
 40
0.0
  9
$DIMTM
 40
0.0
  9
$DIMTXT
 40
0.18
  9
$DIMCEN
 40
0.09
  9
$DIMTSZ
 40
0.0
  9
$DIMTOL
 70
     0
  9
$DIMLIM
 70
     0
  9
$DIMTIH
 70
     1
  9
$DIMTOH
 70
     1
  9
$DIMSE1
 70
     0
  9
$DIMSE2
 70
     0
  9
$DIMTAD
 70
     0
  9
$DIMZIN
 70
     0
  9
$DIMBLK
  1

  9
$DIMASO
 70
     1
  9
$DIMSHO
 70
     1
  9
$DIMPOST
  1

  9
$DIMAPOST
  1

  9
$DIMALT
 70
     0
  9
$DIMALTD
 70
     2
  9
$DIMALTF
 40
25.4
  9
$DIMLFAC
 40
1.0
  9
$DIMTOFL
 70
     0
  9
$DIMTVP
 40
0.0
  9
$DIMTIX
 70
     0
  9
$DIMSOXD
 70
     0
  9
$DIMSAH
 70
     0
  9
$DIMBLK1
  1

  9
$DIMBLK2
  1

  9
$DIMSTYLE
  2
STANDARD
  9
$DIMCLRD
 70
     0
  9
$DIMCLRE
 70
     0
  9
$DIMCLRT
 70
     0
  9
$DIMTFAC
 40
1.0
  9
$DIMGAP
 40
0.09
  9
$LUNITS
 70
     2
  9
$LUPREC
 70
     4
  9
$SKETCHINC
 40
0.1
  9
$FILLETRAD
 40
0.0
  9
$AUNITS
 70
     0
  9
$AUPREC
 70
     0
  9
$MENU
  1
.
  9
$ELEVATION
 40
0.0
  9
$PELEVATION
 40
0.0
  9
$THICKNESS
 40
0.0
  9
$LIMCHECK
 70
     0
  9
$CHAMFERA
 40
0.0
  9
$CHAMFERB
 40
0.0
  9
$SKPOLY
 70
     0
  9
$TDCREATE
 40
2452643.105050937
  9
$TDUPDATE
 40
2457080.38704287
  9
$TDINDWG
 40
0.0010317245
  9
$TDUSRTIMER
 40
2457080.345275718
  9
$USRTIMER
 70
     1
  9
$ANGBASE
 50
0.0
  9
$ANGDIR
 70
     0
  9
$PDMODE
 70
     0
  9
$PDSIZE
 40
0.0
  9
$PLINEWID
 40
0.0
  9
$COORDS
 70
     2
  9
$SPLFRAME
 70
     0
  9
$SPLINETYPE
 70
     6
  9
$SPLINESEGS
 70
     8
  9
$ATTDIA
 70
     0
  9
$ATTREQ
 70
     1
  9
$HANDLING
 70
     1
  9
$HANDSEED
  5
210
  9
$SURFTAB1
 70
     6
  9
$SURFTAB2
 70
     6
  9
$SURFTYPE
 70
     6
  9
$SURFU
 70
     6
  9
$SURFV
 70
     6
  9
$UCSNAME
  2

  9
$UCSORG
 10
0.0
 20
0.0
 30
0.0
  9
$UCSXDIR
 10
1.0
 20
0.0
 30
0.0
  9
$UCSYDIR
 10
0.0
 20
1.0
 30
0.0
  9
$PUCSNAME
  2

  9
$PUCSORG
 10
0.0
 20
0.0
 30
0.0
  9
$PUCSXDIR
 10
1.0
 20
0.0
 30
0.0
  9
$PUCSYDIR
 10
0.0
 20
1.0
 30
0.0
  9
$USERI1
 70
     0
  9
$USERI2
 70
     0
  9
$USERI3
 70
     0
  9
$USERI4
 70
     0
  9
$USERI5
 70
     0
  9
$USERR1
 40
0.0
  9
$USERR2
 40
0.0
  9
$USERR3
 40
0.0
  9
$USERR4
 40
0.0
  9
$USERR5
 40
0.0
  9
$WORLDVIEW
 70
     1
  9
$SHADEDGE
 70
     3
  9
$SHADEDIF
 70
    70
  9
$TILEMODE
 70
     1
  9
$MAXACTVP
 70
    64
  9
$PLIMCHECK
 70
     0
  9
$PEXTMIN
 10
0.0
 20
0.0
 30
0.0
  9
$PEXTMAX
 10
0.0
 20
0.0
 30
0.0
  9
$PLIMMIN
 10
0.0
 20
0.0
  9
$PLIMMAX
 10
0.0
 20
0.0
  9
$UNITMODE
 70
     0
  9
$VISRETAIN
 70
     1
  9
$PLINEGEN
 70
     0
  9
$PSLTSCALE
 70
     1
  0
ENDSEC
  0
SECTION
  2
TABLES
  0
TABLE
  2
VPORT
 70
     1
  0
VPORT
  2
*ACTIVE
 70
     0
 10
0.0
 20
0.0
 11
1.0
 21
1.0
 12
1269.322155848994
 22
65.92974911883985
 13
0.0
 23
0.0
 14
0.5
 24
0.5
 15
0.5
 25
0.5
 16
0.0
 26
0.0
 36
1.0
 17
-27.66959356597977
 27
-19.53870295786203
 37
0.0
 40
3472.791661380765
 41
1.795763993948563
 42
50.0
 43
0.0
 44
0.0
 50
0.0
 51
0.0
 71
    16
 72
  1000
 73
     1
 74
     3
 75
     0
 76
     0
 77
     0
 78
     0
  0
ENDTAB
  0
TABLE
  2
LTYPE
 70
     1
  0
LTYPE
  2
CONTINUOUS
 70
     0
  3
Solid line
 72
    65
 73
     0
 40
0.0
  0
ENDTAB
  0
TABLE
  2
LAYER
 70
     1
  0
LAYER
  2
0
 70
     0
 62
     7
  6
CONTINUOUS
  0
ENDTAB
  0
TABLE
  2
STYLE
 70
     1
  0
STYLE
  2
STANDARD
 70
     0
 40
0.0
 41
1.0
 50
0.0
 71
     0
 42
0.2
  3
arial.ttf
  4

  0
ENDTAB
  0
TABLE
  2
VIEW
 70
     0
  0
ENDTAB
  0
TABLE
  2
UCS
 70
     0
  0
ENDTAB
  0
TABLE
  2
APPID
 70
     1
  0
APPID
  2
ACAD
 70
     0
  0
ENDTAB
  0
TABLE
  2
DIMSTYLE
 70
     1
  0
DIMSTYLE
  2
STANDARD
 70
     0
  3

  4

  5

  6

  7

 40
1.0
 41
0.18
 42
0.0625
 43
0.38
 44
0.18
 45
0.0
 46
0.0
 47
0.0
 48
0.0
140
0.18
141
0.09
142
0.0
143
25.4
144
1.0
145
0.0
146
1.0
147
0.09
 71
     0
 72
     0
 73
     1
 74
     1
 75
     0
 76
     0
 77
     0
 78
     0
170
     0
171
     2
172
     0
173
     0
174
     0
175
     0
176
     0
177
     0
178
     0
  0
ENDTAB
  0
ENDSEC
  0
SECTION
  2
BLOCKS
  0
BLOCK
  8
0
  2
$MODEL_SPACE
 70
     0
 10
0.0
 20
0.0
 30
0.0
  3
$MODEL_SPACE
  1

  0
ENDBLK
  5
21
  8
0
  0
BLOCK
 67
     1
  8
0
  2
$PAPER_SPACE
 70
     0
 10
0.0
 20
0.0
 30
0.0
  3
$PAPER_SPACE
  1

  0
ENDBLK
  5
5B
 67
     1
  8
0
  0
ENDSEC
  0
SECTION
  2
ENTITIES
  0
LINE
  5
1AC
  8
0
 39
31.83440005694778
 10
391.4618518994625
 20
303.33619935205
 30
0.0
 11
2.461854333290395
 21
303.3361993520901
 31
0.0
  0
LINE
  5
1AD
  8
0
 39
31.83440005694778
 10
2.461854333290395
 20
301.3361993520609
 30
0.0
 11
2.461854333290395
 21
303.3361993521199
 31
0.0
  0
LINE
  5
1AE
  8
0
 39
31.83440005694778
 10
2812.383059977501
 20
298.3361993520609
 30
0.0
 11
2814.883059977501
 21
298.3361993520609
 31
0.0
  0
LINE
  5
1AF
  8
0
 39
31.83440005694778
 10
2814.883059977501
 20
302.3361993520599
 30
0.0
 11
2861.883059977502
 21
302.3361993520599
 31
0.0
  0
LINE
  5
1B0
  8
0
 39
31.83440005694778
 10
2861.883059977502
 20
298.3361993520609
 30
0.0
 11
2864.383059977502
 21
298.3361993520609
 31
0.0
  0
LINE
  5
1B1
  8
0
 39
31.83440005694778
 10
443.4618518994607
 20
344.3361993520499
 30
0.0
 11
876.3830599775024
 21
344.3361993520601
 31
0.0
  0
LINE
  5
1B2
  8
0
 39
31.83440005694778
 10
1412.383059977502
 20
344.3361993520599
 30
0.0
 11
1844.383059977501
 21
344.3361993520599
 31
0.0
  0
LINE
  5
1B3
  8
0
 39
31.83440005694778
 10
1896.383059977501
 20
344.3361993520599
 30
0.0
 11
2328.383059977501
 21
344.3361993520599
 31
0.0
  0
LINE
  5
1B4
  8
0
 39
31.83440005694778
 10
2380.383059977502
 20
344.3361993520599
 30
0.0
 11
2812.383059977501
 21
344.3361993520599
 31
0.0
  0
LINE
  5
1B5
  8
0
 39
31.83440005694778
 10
3348.383059977501
 20
344.3361993520595
 30
0.0
 11
3616.182320855648
 21
344.3361993520785
 31
0.0
  0
ARC
  5
1B6
  8
0
 39
31.83440005694778
 10
143.3983396800991
 20
267.3361993520509
 30
0.0
 40
22.0
 50
90.0
 51
270.0
  0
ARC
  5
1B7
  8
0
 39
31.83440005694778
 10
312.4618518994607
 20
267.3361993520509
 30
0.0
 40
22.0
 50
270.0
 51
90.0
  0
LINE
  5
1B8
  8
0
 39
31.83440005694778
 10
143.3983396800991
 20
245.33619935205
 30
0.0
 11
312.4618518994607
 21
245.33619935205
 31
0.0
  0
LINE
  5
1B9
  8
0
 39
31.83440005694778
 10
143.3983396800991
 20
289.33619935205
 30
0.0
 11
312.4618518994607
 21
289.33619935205
 31
0.0
  0
LINE
  5
1BA
  8
0
 39
31.83440005694778
 10
10.40410380437927
 20
128.3361993520608
 30
0.0
 11
2.461854333261291
 21
125.3578558004029
 31
0.0
  0
LINE
  5
1BB
  8
0
 39
31.83440005694778
 10
2.461854333261291
 20
131.3145429037201
 30
0.0
 11
10.40410380437927
 21
128.3361993520608
 31
0.0
  0
LINE
  5
1BC
  8
0
 39
31.83440005694778
 10
2.461854333261291
 20
131.3145429037201
 30
0.0
 11
2.461854333261291
 21
295.3361993520608
 31
0.0
  0
LINE
  5
1BD
  8
0
 39
31.83440005694778
 10
10.4618543332904
 20
298.3361993520609
 30
0.0
 11
2.461854333290395
 21
295.3361993520608
 31
0.0
  0
LINE
  5
1BE
  8
0
 39
31.83440005694778
 10
2.461854333290395
 20
301.3361993520609
 30
0.0
 11
10.4618543332904
 21
298.3361993520609
 31
0.0
  0
LINE
  5
1BF
  8
0
 10
391.4618518994625
 20
303.33619935205
 30
0.0
 11
391.4618518994625
 21
230.3361993520499
 31
0.0
  0
LINE
  5
1C0
  8
0
 10
391.4618518994625
 20
230.3361993520208
 30
0.0
 11
443.4618518994607
 21
230.3361993520499
 31
0.0
  0
LINE
  5
1C1
  8
0
 10
2812.383059977501
 20
344.3361993520599
 30
0.0
 11
2812.383059977501
 21
298.3361993520609
 31
0.0
  0
LINE
  5
1C2
  8
0
 10
2864.383059977502
 20
298.3361993520609
 30
0.0
 11
2864.383059977502
 21
344.3361993520599
 31
0.0
  0
LINE
  5
1C3
  8
0
 10
2814.883059977501
 20
302.3361993520599
 30
0.0
 11
2814.883059977501
 21
298.3361993520609
 31
0.0
  0
LINE
  5
1C4
  8
0
 10
2861.883059977502
 20
298.3361993520609
 30
0.0
 11
2861.883059977502
 21
302.3361993520599
 31
0.0
  0
LINE
  5
1C5
  8
0
 10
443.4618518994607
 20
344.3361993520499
 30
0.0
 11
443.4618518994607
 21
230.3361993520499
 31
0.0
  0
LINE
  5
1C6
  8
0
 10
2.461854333261291
 20
2.336199352060831
 30
0.0
 11
2.461854333261291
 21
125.3578558004029
 31
0.0
  0
LINE
  5
1C7
  8
0
 39
31.83440005694778
 10
1360.383059977502
 20
298.3361993520609
 30
0.0
 11
1362.883059977502
 21
298.3361993520609
 31
0.0
  0
LINE
  5
1C8
  8
0
 39
31.83440005694778
 10
1362.883059977502
 20
302.3361993520599
 30
0.0
 11
1409.883059977502
 21
302.3361993520599
 31
0.0
  0
LINE
  5
1C9
  8
0
 39
31.83440005694778
 10
1409.883059977502
 20
298.3361993520609
 30
0.0
 11
1412.383059977502
 21
298.3361993520609
 31
0.0
  0
LINE
  5
1CA
  8
0
 10
1360.383059977502
 20
344.3361993520599
 30
0.0
 11
1360.383059977502
 21
298.3361993520609
 31
0.0
  0
LINE
  5
1CB
  8
0
 10
1412.383059977502
 20
298.3361993520609
 30
0.0
 11
1412.383059977502
 21
344.3361993520599
 31
0.0
  0
LINE
  5
1CC
  8
0
 10
1362.883059977502
 20
302.3361993520599
 30
0.0
 11
1362.883059977502
 21
298.3361993520609
 31
0.0
  0
LINE
  5
1CD
  8
0
 10
1409.883059977502
 20
298.3361993520609
 30
0.0
 11
1409.883059977502
 21
302.3361993520599
 31
0.0
  0
LINE
  5
1CE
  8
0
 39
31.83440005694778
 10
928.3830599775024
 20
344.3361993520599
 30
0.0
 11
1360.383059977502
 21
344.3361993520599
 31
0.0
  0
LINE
  5
1CF
  8
0
 39
31.83440005694778
 10
3296.383059977502
 20
298.3361993520609
 30
0.0
 11
3298.883059977501
 21
298.3361993520609
 31
0.0
  0
LINE
  5
1D0
  8
0
 39
31.83440005694778
 10
3298.883059977501
 20
302.3361993520599
 30
0.0
 11
3345.883059977501
 21
302.3361993520599
 31
0.0
  0
LINE
  5
1D1
  8
0
 39
31.83440005694778
 10
3345.883059977501
 20
298.3361993520609
 30
0.0
 11
3348.383059977501
 21
298.3361993520609
 31
0.0
  0
LINE
  5
1D2
  8
0
 10
3296.383059977502
 20
344.3361993520599
 30
0.0
 11
3296.383059977502
 21
298.3361993520609
 31
0.0
  0
LINE
  5
1D3
  8
0
 10
3348.383059977501
 20
298.3361993520609
 30
0.0
 11
3348.383059977501
 21
344.3361993520599
 31
0.0
  0
LINE
  5
1D4
  8
0
 10
3298.883059977501
 20
302.3361993520599
 30
0.0
 11
3298.883059977501
 21
298.3361993520609
 31
0.0
  0
LINE
  5
1D5
  8
0
 10
3345.883059977501
 20
298.3361993520609
 30
0.0
 11
3345.883059977501
 21
302.3361993520599
 31
0.0
  0
LINE
  5
1D6
  8
0
 39
31.83440005694778
 10
876.3830599775024
 20
298.3361993520609
 30
0.0
 11
878.8830599775024
 21
298.3361993520609
 31
0.0
  0
LINE
  5
1D7
  8
0
 39
31.83440005694778
 10
878.8830599775024
 20
302.3361993520599
 30
0.0
 11
925.8830599775006
 21
302.3361993520599
 31
0.0
  0
LINE
  5
1D8
  8
0
 39
31.83440005694778
 10
925.8830599775006
 20
298.3361993520609
 30
0.0
 11
928.3830599775024
 21
298.3361993520609
 31
0.0
  0
LINE
  5
1D9
  8
0
 10
876.3830599775024
 20
344.3361993520599
 30
0.0
 11
876.3830599775024
 21
298.3361993520609
 31
0.0
  0
LINE
  5
1DA
  8
0
 10
928.3830599775024
 20
298.3361993520609
 30
0.0
 11
928.3830599775024
 21
344.3361993520599
 31
0.0
  0
LINE
  5
1DB
  8
0
 10
878.8830599775024
 20
302.3361993520599
 30
0.0
 11
878.8830599775024
 21
298.3361993520609
 31
0.0
  0
LINE
  5
1DC
  8
0
 10
925.8830599775006
 20
298.3361993520609
 30
0.0
 11
925.8830599775006
 21
302.3361993520599
 31
0.0
  0
LINE
  5
1DD
  8
0
 10
2864.383059977502
 20
344.3361993520599
 30
0.0
 11
3296.383059977502
 21
344.3361993520599
 31
0.0
  0
CIRCLE
  5
1DE
  8
0
 39
31.83440005694778
 10
102.0398354030708
 20
268.0465256756958
 30
0.0
 40
3.25
  0
CIRCLE
  5
1DF
  8
0
 39
31.83440005694778
 10
79.52449679879238
 20
268.0465256756958
 30
0.0
 40
3.25
  0
CIRCLE
  5
1E0
  8
0
 39
31.83440005694778
 10
102.0398354030708
 20
92.66996207063006
 30
0.0
 40
3.25
  0
CIRCLE
  5
1E1
  8
0
 39
31.83440005694778
 10
79.52449679879238
 20
92.66996207063006
 30
0.0
 40
3.25
  0
CIRCLE
  5
1E2
  8
0
 39
31.83440005694778
 10
102.0398354030708
 20
153.4092764942408
 30
0.0
 40
3.25
  0
CIRCLE
  5
1E3
  8
0
 39
31.83440005694778
 10
79.52449679879238
 20
153.4092764942408
 30
0.0
 40
3.25
  0
CIRCLE
  5
1E4
  8
0
 39
31.83440005694778
 10
79.52449679879238
 20
15.67844113461082
 30
0.0
 40
3.25
  0
LINE
  5
1E5
  8
0
 39
31.83440005694778
 10
1844.383059977501
 20
298.3361993520609
 30
0.0
 11
1846.883059977501
 21
298.3361993520609
 31
0.0
  0
LINE
  5
1E6
  8
0
 39
31.83440005694778
 10
1846.883059977501
 20
302.3361993520599
 30
0.0
 11
1893.883059977501
 21
302.3361993520599
 31
0.0
  0
LINE
  5
1E7
  8
0
 39
31.83440005694778
 10
1893.883059977501
 20
298.3361993520609
 30
0.0
 11
1896.383059977501
 21
298.3361993520609
 31
0.0
  0
LINE
  5
1E8
  8
0
 10
1844.383059977501
 20
344.3361993520599
 30
0.0
 11
1844.383059977501
 21
298.3361993520609
 31
0.0
  0
LINE
  5
1E9
  8
0
 10
1896.383059977501
 20
298.3361993520609
 30
0.0
 11
1896.383059977501
 21
344.3361993520599
 31
0.0
  0
LINE
  5
1EA
  8
0
 10
1846.883059977501
 20
302.3361993520599
 30
0.0
 11
1846.883059977501
 21
298.3361993520609
 31
0.0
  0
LINE
  5
1EB
  8
0
 10
1893.883059977501
 20
298.3361993520609
 30
0.0
 11
1893.883059977501
 21
302.3361993520599
 31
0.0
  0
LINE
  5
1EC
  8
0
 39
31.83440005694778
 10
2328.383059977501
 20
298.3361993520609
 30
0.0
 11
2330.883059977502
 21
298.3361993520609
 31
0.0
  0
LINE
  5
1ED
  8
0
 39
31.83440005694778
 10
2330.883059977502
 20
302.3361993520599
 30
0.0
 11
2377.883059977502
 21
302.3361993520599
 31
0.0
  0
LINE
  5
1EE
  8
0
 39
31.83440005694778
 10
2377.883059977502
 20
298.3361993520609
 30
0.0
 11
2380.383059977502
 21
298.3361993520609
 31
0.0
  0
LINE
  5
1EF
  8
0
 10
2328.383059977501
 20
344.3361993520599
 30
0.0
 11
2328.383059977501
 21
298.3361993520609
 31
0.0
  0
LINE
  5
1F0
  8
0
 10
2380.383059977502
 20
298.3361993520609
 30
0.0
 11
2380.383059977502
 21
344.3361993520599
 31
0.0
  0
LINE
  5
1F1
  8
0
 10
2330.883059977502
 20
302.3361993520599
 30
0.0
 11
2330.883059977502
 21
298.3361993520609
 31
0.0
  0
LINE
  5
1F2
  8
0
 10
2377.883059977502
 20
298.3361993520609
 30
0.0
 11
2377.883059977502
 21
302.3361993520599
 31
0.0
  0
LINE
  5
1F3
  8
0
 10
3430.383059977497
 20
2.336199352030818
 30
0.0
 11
3912.981473877576
 21
2.310512210935812
 31
0.0
  0
LINE
  5
1F4
  8
0
 10
2385.936794296894
 20
2.336199352060603
 30
0.0
 11
2.461854333261291
 21
2.336199352059893
 31
0.0
  0
LINE
  5
1F5
  8
0
 10
3395.936794296894
 20
2.336199352060603
 30
0.0
 11
3398.936794296894
 21
12.3361993520606
 31
0.0
  0
LINE
  5
1F6
  8
0
 10
3398.936794296894
 20
12.3361993520606
 30
0.0
 11
3401.936794296894
 21
2.3361993520315
 31
0.0
  0
LINE
  5
1F7
  8
0
 10
3315.936794296896
 20
2.336199352060603
 30
0.0
 11
3318.936794296896
 21
12.3361993520606
 31
0.0
  0
LINE
  5
1F8
  8
0
 10
3318.936794296896
 20
12.3361993520606
 30
0.0
 11
3321.936794296896
 21
2.3361993520315
 31
0.0
  0
LINE
  5
1F9
  8
0
 10
2465.936794296896
 20
2.336199352060603
 30
0.0
 11
2468.936794296896
 21
12.3361993520606
 31
0.0
  0
LINE
  5
1FA
  8
0
 10
2468.936794296896
 20
12.3361993520606
 30
0.0
 11
2471.936794296894
 21
2.3361993520315
 31
0.0
  0
LINE
  5
1FB
  8
0
 10
2385.936794296894
 20
2.336199352060603
 30
0.0
 11
2388.936794296896
 21
12.3361993520606
 31
0.0
  0
LINE
  5
1FC
  8
0
 10
2388.936794296896
 20
12.3361993520606
 30
0.0
 11
2391.936794296895
 21
2.3361993520315
 31
0.0
  0
LINE
  5
1FD
  8
0
 10
2391.936794296895
 20
2.3361993520315
 30
0.0
 11
2465.936794296896
 21
2.336199352060603
 31
0.0
  0
LINE
  5
1FE
  8
0
 10
2471.936794296894
 20
2.3361993520315
 30
0.0
 11
3315.936794296896
 21
2.336199352060603
 31
0.0
  0
LINE
  5
1FF
  8
0
 10
3321.936794296896
 20
2.3361993520315
 30
0.0
 11
3395.936794296894
 21
2.336199352060603
 31
0.0
  0
LINE
  5
200
  8
0
 10
3401.936794296894
 20
2.3361993520315
 30
0.0
 11
3430.383059977497
 21
2.336199352030818
 31
0.0
  0
LINE
  5
201
  8
0
 10
3912.955674719698
 20
2.336199352031699
 30
0.0
 11
3912.955674719698
 21
127.8384122082585
 31
0.0
  0
LINE
  5
202
  8
0
 10
3912.955674719698
 20
127.8384122082585
 30
0.0
 11
3684.748691470044
 21
127.8384122082585
 31
0.0
  0
LINE
  5
203
  8
0
 10
3622.182320855648
 20
127.8384122082585
 30
0.0
 11
3618.182320855648
 21
127.8384122082585
 31
0.0
  0
LINE
  5
204
  8
0
 10
3684.748691470044
 20
114.8384122082585
 30
0.0
 11
3622.182320855648
 21
114.8384122082585
 31
0.0
  0
LINE
  5
205
  8
0
 10
3618.182320855648
 20
127.8384122082585
 30
0.0
 11
3618.182320855648
 21
120.8384122082585
 31
0.0
  0
LINE
  5
206
  8
0
 10
3618.182320855648
 20
120.8384122082585
 30
0.0
 11
3616.182320855648
 21
120.8384122082585
 31
0.0
  0
LINE
  5
207
  8
0
 10
3616.182320855648
 20
120.8384122082585
 30
0.0
 11
3616.182320855648
 21
125.3361993520608
 31
0.0
  0
LINE
  5
208
  8
0
 10
3616.182320855648
 20
301.3361993520638
 30
0.0
 11
3608.182320855648
 21
298.3361993520638
 31
0.0
  0
LINE
  5
209
  8
0
 10
3608.182320855648
 20
298.3361993520638
 30
0.0
 11
3616.182320855648
 21
295.3361993520638
 31
0.0
  0
LINE
  5
20A
  8
0
 10
3616.182320855648
 20
131.3361993520608
 30
0.0
 11
3608.182320855648
 21
128.3361993520608
 31
0.0
  0
LINE
  5
20B
  8
0
 10
3608.182320855648
 20
128.3361993520608
 30
0.0
 11
3616.182320855648
 21
125.3361993520608
 31
0.0
  0
LINE
  5
20C
  8
0
 10
3616.182320855648
 20
131.3361993520608
 30
0.0
 11
3616.182320855648
 21
295.3361993520638
 31
0.0
  0
LINE
  5
20D
  8
0
 10
3616.182320855648
 20
301.3361993520638
 30
0.0
 11
3616.182320855648
 21
344.3361993520784
 31
0.0
  0
LINE
  5
20E
  8
0
 10
3684.748691470044
 20
127.8384122082585
 30
0.0
 11
3684.748691470044
 21
114.8384122082585
 31
0.0
  0
LINE
  5
20F
  8
0
 10
3622.182320855648
 20
127.8384122082585
 30
0.0
 11
3622.182320855648
 21
114.8384122082585
 31
0.0
  0
ENDSEC
  0
EOF
