  0
SECTION
  2
HEADER
  9
$ACADVER
  1
AC1009
  9
$DWGCODEPAGE
  3
ansi_1252
  9
$INSBASE
 10
0.0
 20
0.0
 30
0.0
  9
$EXTMIN
 10
1.000000000000000E+20
 20
1.000000000000000E+20
 30
1.000000000000000E+20
  9
$EXTMAX
 10
-1.000000000000000E+20
 20
-1.000000000000000E+20
 30
-1.000000000000000E+20
  9
$LIMMIN
 10
0.0
 20
0.0
  9
$LIMMAX
 10
420.0
 20
297.0
  9
$ORTHOMODE
 70
     0
  9
$REGENMODE
 70
     1
  9
$FILLMODE
 70
     1
  9
$QTEXTMODE
 70
     0
  9
$MIRRTEXT
 70
     0
  9
$DRAGMODE
 70
     2
  9
$LTSCALE
 40
1.0
  9
$OSMODE
 70
   511
  9
$ATTMODE
 70
     1
  9
$TEXTSIZE
 40
2.5
  9
$TRACEWID
 40
1.0
  9
$TEXTSTYLE
  7
STANDARD
  9
$CLAYER
  8
0
  9
$CELTYPE
  6
BYLAYER
  9
$CECOLOR
 62
   256
  9
$DIMSCALE
 40
1.0
  9
$DIMASZ
 40
2.5
  9
$DIMEXO
 40
0.625
  9
$DIMDLI
 40
3.75
  9
$DIMRND
 40
0.0
  9
$DIMDLE
 40
0.0
  9
$DIMEXE
 40
1.25
  9
$DIMTP
 40
0.0
  9
$DIMTM
 40
0.0
  9
$DIMTXT
 40
2.5
  9
$DIMCEN
 40
2.5
  9
$DIMTSZ
 40
0.0
  9
$DIMTOL
 70
     0
  9
$DIMLIM
 70
     0
  9
$DIMTIH
 70
     0
  9
$DIMTOH
 70
     0
  9
$DIMSE1
 70
     0
  9
$DIMSE2
 70
     0
  9
$DIMTAD
 70
     1
  9
$DIMZIN
 70
     8
  9
$DIMBLK
  1

  9
$DIMASO
 70
     1
  9
$DIMSHO
 70
     1
  9
$DIMPOST
  1

  9
$DIMAPOST
  1

  9
$DIMALT
 70
     0
  9
$DIMALTD
 70
     3
  9
$DIMALTF
 40
0.03937007874016
  9
$DIMLFAC
 40
1.0
  9
$DIMTOFL
 70
     1
  9
$DIMTVP
 40
0.0
  9
$DIMTIX
 70
     0
  9
$DIMSOXD
 70
     0
  9
$DIMSAH
 70
     0
  9
$DIMBLK1
  1

  9
$DIMBLK2
  1

  9
$DIMSTYLE
  2
ISO-25
  9
$DIMCLRD
 70
     0
  9
$DIMCLRE
 70
     0
  9
$DIMCLRT
 70
     0
  9
$DIMTFAC
 40
1.0
  9
$DIMGAP
 40
0.625
  9
$LUNITS
 70
     2
  9
$LUPREC
 70
     3
  9
$SKETCHINC
 40
1.0
  9
$FILLETRAD
 40
10.0
  9
$AUNITS
 70
     0
  9
$AUPREC
 70
     0
  9
$MENU
  1
.
  9
$ELEVATION
 40
0.0
  9
$PELEVATION
 40
0.0
  9
$THICKNESS
 40
0.0
  9
$LIMCHECK
 70
     0
  9
$CHAMFERA
 40
10.0
  9
$CHAMFERB
 40
10.0
  9
$SKPOLY
 70
     0
  9
$TDCREATE
 40
2455022.67902618
  9
$TDUPDATE
 40
2457459.446125683
  9
$TDINDWG
 40
0.0002553472
  9
$TDUSRTIMER
 40
2457459.40420375
  9
$USRTIMER
 70
     1
  9
$ANGBASE
 50
0.0
  9
$ANGDIR
 70
     0
  9
$PDMODE
 70
     0
  9
$PDSIZE
 40
0.0
  9
$PLINEWID
 40
0.0
  9
$COORDS
 70
     1
  9
$SPLFRAME
 70
     0
  9
$SPLINETYPE
 70
     6
  9
$SPLINESEGS
 70
     8
  9
$ATTDIA
 70
     0
  9
$ATTREQ
 70
     1
  9
$HANDLING
 70
     1
  9
$HANDSEED
  5
1B5
  9
$SURFTAB1
 70
     6
  9
$SURFTAB2
 70
     6
  9
$SURFTYPE
 70
     6
  9
$SURFU
 70
     6
  9
$SURFV
 70
     6
  9
$UCSNAME
  2

  9
$UCSORG
 10
0.0
 20
0.0
 30
0.0
  9
$UCSXDIR
 10
1.0
 20
0.0
 30
0.0
  9
$UCSYDIR
 10
0.0
 20
1.0
 30
0.0
  9
$PUCSNAME
  2

  9
$PUCSORG
 10
0.0
 20
0.0
 30
0.0
  9
$PUCSXDIR
 10
1.0
 20
0.0
 30
0.0
  9
$PUCSYDIR
 10
0.0
 20
1.0
 30
0.0
  9
$USERI1
 70
     0
  9
$USERI2
 70
     0
  9
$USERI3
 70
     0
  9
$USERI4
 70
     0
  9
$USERI5
 70
     0
  9
$USERR1
 40
0.0
  9
$USERR2
 40
0.0
  9
$USERR3
 40
0.0
  9
$USERR4
 40
0.0
  9
$USERR5
 40
0.0
  9
$WORLDVIEW
 70
     1
  9
$SHADEDGE
 70
     3
  9
$SHADEDIF
 70
    70
  9
$TILEMODE
 70
     1
  9
$MAXACTVP
 70
    64
  9
$PLIMCHECK
 70
     0
  9
$PEXTMIN
 10
1.000000000000000E+20
 20
1.000000000000000E+20
 30
1.000000000000000E+20
  9
$PEXTMAX
 10
-1.000000000000000E+20
 20
-1.000000000000000E+20
 30
-1.000000000000000E+20
  9
$PLIMMIN
 10
0.0
 20
0.0
  9
$PLIMMAX
 10
0.0
 20
0.0
  9
$UNITMODE
 70
     0
  9
$VISRETAIN
 70
     1
  9
$PLINEGEN
 70
     0
  9
$PSLTSCALE
 70
     1
  0
ENDSEC
  0
SECTION
  2
TABLES
  0
TABLE
  2
VPORT
 70
     1
  0
VPORT
  2
*ACTIVE
 70
     0
 10
0.0
 20
0.0
 11
1.0
 21
1.0
 12
2012.064025097419
 22
381.7914032632032
 13
0.0
 23
0.0
 14
10.0
 24
10.0
 15
10.0
 25
10.0
 16
0.0
 26
0.0
 36
1.0
 17
-134.1869158878503
 27
0.0
 37
0.0
 40
3420.435671034531
 41
2.144167758846658
 42
50.0
 43
0.0
 44
0.0
 50
0.0
 51
0.0
 71
    16
 72
  1000
 73
     1
 74
     3
 75
     0
 76
     0
 77
     0
 78
     0
  0
ENDTAB
  0
TABLE
  2
LTYPE
 70
     1
  0
LTYPE
  2
CONTINUOUS
 70
     0
  3
Solid line
 72
    65
 73
     0
 40
0.0
  0
ENDTAB
  0
TABLE
  2
LAYER
 70
     1
  0
LAYER
  2
0
 70
     0
 62
     7
  6
CONTINUOUS
  0
ENDTAB
  0
TABLE
  2
STYLE
 70
     1
  0
STYLE
  2
STANDARD
 70
     0
 40
0.0
 41
1.0
 50
0.0
 71
     0
 42
2.5
  3
arial.ttf
  4

  0
ENDTAB
  0
TABLE
  2
VIEW
 70
     0
  0
ENDTAB
  0
TABLE
  2
UCS
 70
     0
  0
ENDTAB
  0
TABLE
  2
APPID
 70
     5
  0
APPID
  2
ACAD
 70
     0
  0
APPID
  2
ACAD_DSTYLE_DIMBREAK
 70
     0
  0
APPID
  2
ACAD_DSTYLE_DIMJAG
 70
     0
  0
APPID
  2
ACAD_DSTYLE_DIMTALN
 70
     0
  0
APPID
  2
ACAD_PSEXT
 70
     0
  0
ENDTAB
  0
TABLE
  2
DIMSTYLE
 70
     2
  0
DIMSTYLE
  2
ISO-25
 70
     0
  3

  4

  5

  6

  7

 40
1.0
 41
2.5
 42
0.625
 43
3.75
 44
1.25
 45
0.0
 46
0.0
 47
0.0
 48
0.0
140
2.5
141
2.5
142
0.0
143
0.03937007874016
144
1.0
145
0.0
146
1.0
147
0.625
 71
     0
 72
     0
 73
     0
 74
     0
 75
     0
 76
     0
 77
     1
 78
     8
170
     0
171
     3
172
     1
173
     0
174
     0
175
     0
176
     0
177
     0
178
     0
  0
DIMSTYLE
  2
COPIA_DI_ISO-25
 70
     0
  3

  4

  5

  6

  7

 40
1.0
 41
20.0
 42
16.0
 43
3.75
 44
1.25
 45
0.0
 46
0.0
 47
0.0
 48
0.0
140
30.0
141
2.5
142
0.0
143
0.0393700787
144
1.0
145
0.0
146
1.0
147
10.0
 71
     0
 72
     0
 73
     0
 74
     0
 75
     0
 76
     0
 77
     1
 78
     8
170
     0
171
     3
172
     1
173
     0
174
     0
175
     0
176
     0
177
     0
178
     0
  0
ENDTAB
  0
ENDSEC
  0
SECTION
  2
BLOCKS
  0
BLOCK
  8
0
  2
$MODEL_SPACE
 70
     0
 10
0.0
 20
0.0
 30
0.0
  3
$MODEL_SPACE
  1

  0
ENDBLK
  5
21
  8
0
  0
BLOCK
 67
     1
  8
0
  2
$PAPER_SPACE
 70
     0
 10
0.0
 20
0.0
 30
0.0
  3
$PAPER_SPACE
  1

  0
ENDBLK
  5
1D
 67
     1
  8
0
  0
ENDSEC
  0
SECTION
  2
ENTITIES
  0
LINE
  5
14E
  8
0
 10
3149.074311926602
 20
353.0012099363549
 30
0.0
 11
3147.074311926602
 21
353.0012099363549
 31
0.0
  0
LINE
  5
14F
  8
0
 10
3147.074311926602
 20
353.0012099363549
 30
0.0
 11
3147.074311926602
 21
364.0012099363558
 31
0.0
  0
LINE
  5
150
  8
0
 10
3100.074311926602
 20
364.0012099363558
 30
0.0
 11
3147.074311926602
 21
364.0012099363558
 31
0.0
  0
LINE
  5
151
  8
0
 10
3100.074311926602
 20
364.0012099363558
 30
0.0
 11
3100.074311926602
 21
353.0012099363549
 31
0.0
  0
LINE
  5
152
  8
0
 10
3100.074311926602
 20
353.0012099363549
 30
0.0
 11
3098.074311926602
 21
353.0012099363549
 31
0.0
  0
LINE
  5
153
  8
0
 10
3098.074311926602
 20
353.0012099363549
 30
0.0
 11
3098.074311926602
 21
406.9967842239549
 31
0.0
  0
LINE
  5
154
  8
0
 10
2608.774311926602
 20
406.9967842239549
 30
0.0
 11
3098.074311926602
 21
406.9967842239549
 31
0.0
  0
LINE
  5
155
  8
0
 10
2608.774311926602
 20
406.9967842239549
 30
0.0
 11
2608.774311926602
 21
353.0012099363549
 31
0.0
  0
LINE
  5
156
  8
0
 10
2608.774311926602
 20
353.0012099363549
 30
0.0
 11
2606.774311926602
 21
353.0012099363549
 31
0.0
  0
LINE
  5
157
  8
0
 10
2606.774311926602
 20
353.0012099363549
 30
0.0
 11
2606.774311926602
 21
364.0012099363558
 31
0.0
  0
LINE
  5
158
  8
0
 10
2559.774311926602
 20
364.0012099363558
 30
0.0
 11
2606.774311926602
 21
364.0012099363558
 31
0.0
  0
LINE
  5
159
  8
0
 10
2559.774311926602
 20
364.0012099363558
 30
0.0
 11
2559.774311926602
 21
353.0012099363549
 31
0.0
  0
LINE
  5
15A
  8
0
 10
2559.774311926602
 20
353.0012099363549
 30
0.0
 11
2557.774311926602
 21
353.0012099363549
 31
0.0
  0
LINE
  5
15B
  8
0
 10
2557.774311926602
 20
353.0012099363549
 30
0.0
 11
2557.774311926602
 21
406.9967842239549
 31
0.0
  0
LINE
  5
15C
  8
0
 10
2075.474311926603
 20
406.9967842239549
 30
0.0
 11
2557.774311926602
 21
406.9967842239549
 31
0.0
  0
LINE
  5
15D
  8
0
 10
2075.474311926603
 20
406.9967842239549
 30
0.0
 11
2075.474311926603
 21
353.0012099363549
 31
0.0
  0
LINE
  5
15E
  8
0
 10
2075.474311926603
 20
353.0012099363549
 30
0.0
 11
2073.474311926603
 21
353.0012099363549
 31
0.0
  0
LINE
  5
15F
  8
0
 10
2073.474311926603
 20
353.0012099363549
 30
0.0
 11
2073.474311926603
 21
364.0012099363558
 31
0.0
  0
LINE
  5
160
  8
0
 10
2026.474311926603
 20
364.0012099363558
 30
0.0
 11
2073.474311926603
 21
364.0012099363558
 31
0.0
  0
LINE
  5
161
  8
0
 10
2026.474311926603
 20
364.0012099363558
 30
0.0
 11
2026.474311926603
 21
353.0012099363549
 31
0.0
  0
LINE
  5
162
  8
0
 10
2026.474311926603
 20
353.0012099363549
 30
0.0
 11
2024.474311926603
 21
353.0012099363549
 31
0.0
  0
LINE
  5
163
  8
0
 10
2024.474311926603
 20
353.0012099363549
 30
0.0
 11
2024.474311926603
 21
406.9967842239549
 31
0.0
  0
LINE
  5
164
  8
0
 10
1542.174311926604
 20
406.9967842239549
 30
0.0
 11
2024.474311926603
 21
406.9967842239549
 31
0.0
  0
LINE
  5
165
  8
0
 10
1542.174311926604
 20
406.9967842239549
 30
0.0
 11
1542.174311926604
 21
353.0012099363549
 31
0.0
  0
LINE
  5
166
  8
0
 10
1542.174311926604
 20
353.0012099363549
 30
0.0
 11
1540.174311926604
 21
353.0012099363549
 31
0.0
  0
LINE
  5
167
  8
0
 10
1540.174311926604
 20
353.0012099363549
 30
0.0
 11
1540.174311926604
 21
364.0012099363558
 31
0.0
  0
LINE
  5
168
  8
0
 10
1493.174311926604
 20
364.0012099363558
 30
0.0
 11
1540.174311926604
 21
364.0012099363558
 31
0.0
  0
LINE
  5
169
  8
0
 10
1493.174311926604
 20
364.0012099363558
 30
0.0
 11
1493.174311926604
 21
353.0012099363549
 31
0.0
  0
LINE
  5
16A
  8
0
 10
1493.174311926604
 20
353.0012099363549
 30
0.0
 11
1491.174311926604
 21
353.0012099363549
 31
0.0
  0
LINE
  5
16B
  8
0
 10
1491.174311926604
 20
353.0012099363549
 30
0.0
 11
1491.174311926604
 21
406.9967842239549
 31
0.0
  0
LINE
  5
16C
  8
0
 10
1008.874311926605
 20
406.9967842239549
 30
0.0
 11
1491.174311926604
 21
406.9967842239549
 31
0.0
  0
LINE
  5
16D
  8
0
 10
1008.874311926605
 20
406.9967842239549
 30
0.0
 11
1008.874311926605
 21
353.0012099363549
 31
0.0
  0
LINE
  5
16E
  8
0
 10
1008.874311926605
 20
353.0012099363549
 30
0.0
 11
1006.874311926605
 21
353.0012099363549
 31
0.0
  0
LINE
  5
16F
  8
0
 10
1006.874311926605
 20
353.0012099363549
 30
0.0
 11
1006.874311926605
 21
364.0012099363558
 31
0.0
  0
LINE
  5
170
  8
0
 10
959.8743119266048
 20
364.0012099363558
 30
0.0
 11
1006.874311926605
 21
364.0012099363558
 31
0.0
  0
LINE
  5
171
  8
0
 10
959.8743119266048
 20
364.0012099363558
 30
0.0
 11
959.8743119266048
 21
353.0012099363549
 31
0.0
  0
LINE
  5
172
  8
0
 10
959.8743119266048
 20
353.0012099363549
 30
0.0
 11
957.8743119266048
 21
353.0012099363549
 31
0.0
  0
LINE
  5
173
  8
0
 10
957.8743119266048
 20
353.0012099363549
 30
0.0
 11
957.8743119266048
 21
406.9967842239549
 31
0.0
  0
LINE
  5
174
  8
0
 10
502.5743119266055
 20
406.9967842239549
 30
0.0
 11
957.8743119266048
 21
406.9967842239549
 31
0.0
  0
LINE
  5
175
  8
0
 10
502.5743119266055
 20
291.0012099363549
 30
0.0
 11
502.5743119266055
 21
406.9967842239549
 31
0.0
  0
LINE
  5
176
  8
0
 10
451.5743119266055
 20
291.0012099363549
 30
0.0
 11
502.5743119266055
 21
291.0012099363549
 31
0.0
  0
LINE
  5
177
  8
0
 10
451.5743119266055
 20
364.0012099363558
 30
0.0
 11
451.5743119266055
 21
291.0012099363549
 31
0.0
  0
LINE
  5
178
  8
0
 10
61.5743119266055
 20
364.0012099363558
 30
0.0
 11
451.5743119266055
 21
364.0012099363558
 31
0.0
  0
LINE
  5
179
  8
0
 10
61.5743119266055
 20
364.0012099363558
 30
0.0
 11
61.5743119266055
 21
363.4989970801553
 31
0.0
  0
LINE
  5
17A
  8
0
 10
61.5743119266055
 20
71.00563564875489
 30
0.0
 11
1358.574311926602
 21
71.00563564875489
 31
0.0
  0
LINE
  5
17B
  8
0
 10
3373.374311926601
 20
71.00563564875489
 30
0.0
 11
3309.374311926601
 21
71.00563564875489
 31
0.0
  0
LINE
  5
17C
  8
0
 10
3379.374311926601
 20
71.00563564875489
 30
0.0
 11
3681.374311926601
 21
71.00563564875489
 31
0.0
  0
LINE
  5
17D
  8
0
 10
3681.374311926601
 20
197.0056356487549
 30
0.0
 11
3681.374311926601
 21
71.00563564875489
 31
0.0
  0
LINE
  5
17E
  8
0
 10
3681.374311926601
 20
197.0056356487549
 30
0.0
 11
3629.940682541001
 21
197.0056356487549
 31
0.0
  0
LINE
  5
17F
  8
0
 10
3567.374311926601
 20
197.0056356487549
 30
0.0
 11
3563.374311926601
 21
197.0056356487549
 31
0.0
  0
LINE
  5
180
  8
0
 10
3629.940682541001
 20
184.0056356487558
 30
0.0
 11
3567.374311926601
 21
184.0056356487558
 31
0.0
  0
LINE
  5
181
  8
0
 10
3563.374311926601
 20
197.0056356487549
 30
0.0
 11
3563.374311926601
 21
190.0056356487549
 31
0.0
  0
LINE
  5
182
  8
0
 10
3563.374311926601
 20
190.0056356487549
 30
0.0
 11
3561.374311926601
 21
190.0056356487549
 31
0.0
  0
LINE
  5
183
  8
0
 10
3561.374311926601
 20
190.0056356487549
 30
0.0
 11
3561.374311926601
 21
194.5034227925553
 31
0.0
  0
LINE
  5
184
  8
0
 10
3149.074311926602
 20
406.9967842239549
 30
0.0
 11
3561.374311926601
 21
406.9967842239549
 31
0.0
  0
LINE
  5
185
  8
0
 10
3149.074311926602
 20
406.9967842239549
 30
0.0
 11
3149.074311926602
 21
353.0012099363549
 31
0.0
  0
LINE
  5
186
  8
0
 10
202.510799707242
 20
349.5012099363558
 30
0.0
 11
371.5743119266055
 21
349.5012099363558
 31
0.0
  0
LINE
  5
187
  8
0
 10
371.5743119266055
 20
305.5012099363558
 30
0.0
 11
202.510799707242
 21
305.5012099363558
 31
0.0
  0
ARC
  5
188
  8
0
 10
202.510799707242
 20
327.5012099363549
 30
0.0
 40
22.0
 50
90.0
 51
270.0
  0
ARC
  5
189
  8
0
 10
371.5743119266055
 20
327.5012099363549
 30
0.0
 40
22.00000000000003
 50
270.0
 51
90.0
  0
CIRCLE
  5
18A
  8
0
 39
31.83440005694778
 10
160.0887832108503
 20
337.2137491161903
 30
0.0
 40
3.25
  0
CIRCLE
  5
18B
  8
0
 39
31.83440005694778
 10
137.57344460657
 20
337.2137491161903
 30
0.0
 40
3.25
  0
CIRCLE
  5
18C
  8
0
 39
31.83440005694778
 10
161.1522954302138
 20
161.8371855111237
 30
0.0
 40
3.25
  0
CIRCLE
  5
18D
  8
0
 39
31.83440005694778
 10
138.6369568259335
 20
161.8371855111237
 30
0.0
 40
3.25
  0
CIRCLE
  5
18E
  8
0
 39
31.83440005694778
 10
161.1522954302138
 20
222.5764999347358
 30
0.0
 40
3.25
  0
CIRCLE
  5
18F
  8
0
 39
31.83440005694778
 10
138.6369568259335
 20
222.5764999347358
 30
0.0
 40
3.25
  0
CIRCLE
  5
190
  8
0
 39
31.83440005694778
 10
138.6369568259335
 20
84.84566457510488
 30
0.0
 40
3.25
  0
LINE
  5
191
  8
0
 10
3376.374311926601
 20
81.00563564875489
 30
0.0
 11
3373.374311926601
 21
71.00563564875489
 31
0.0
  0
LINE
  5
192
  8
0
 10
3376.374311926601
 20
81.00563564875489
 30
0.0
 11
3379.374311926601
 21
71.00563564875489
 31
0.0
  0
LINE
  5
193
  8
0
 10
3306.374311926601
 20
81.00563564875489
 30
0.0
 11
3303.374311926601
 21
71.00563564875489
 31
0.0
  0
LINE
  5
194
  8
0
 10
3306.374311926601
 20
81.00563564875489
 30
0.0
 11
3309.374311926601
 21
71.00563564875489
 31
0.0
  0
LINE
  5
195
  8
0
 10
3561.374311926601
 20
363.4989970801553
 30
0.0
 11
3553.374311926601
 21
360.4989970801553
 31
0.0
  0
LINE
  5
196
  8
0
 10
3553.374311926601
 20
360.4989970801553
 30
0.0
 11
3561.374311926601
 21
357.4989970801553
 31
0.0
  0
LINE
  5
197
  8
0
 10
3561.374311926601
 20
200.5034227925553
 30
0.0
 11
3553.374311926601
 21
197.5034227925553
 31
0.0
  0
LINE
  5
198
  8
0
 10
3553.374311926601
 20
197.5034227925553
 30
0.0
 11
3561.374311926601
 21
194.5034227925553
 31
0.0
  0
LINE
  5
199
  8
0
 10
61.5743119266055
 20
363.4989970801553
 30
0.0
 11
69.5743119266055
 21
360.4989970801553
 31
0.0
  0
LINE
  5
19A
  8
0
 10
69.5743119266055
 20
360.4989970801553
 30
0.0
 11
61.5743119266055
 21
357.4989970801553
 31
0.0
  0
LINE
  5
19B
  8
0
 10
61.5743119266055
 20
200.5034227925553
 30
0.0
 11
69.5743119266055
 21
197.5034227925553
 31
0.0
  0
LINE
  5
19C
  8
0
 10
69.5743119266055
 20
197.5034227925553
 30
0.0
 11
61.5743119266055
 21
194.5034227925553
 31
0.0
  0
LINE
  5
19D
  8
0
 10
61.5743119266055
 20
357.4989970801553
 30
0.0
 11
61.5743119266055
 21
200.5034227925553
 31
0.0
  0
LINE
  5
19E
  8
0
 10
61.5743119266055
 20
194.5034227925553
 30
0.0
 11
61.5743119266055
 21
71.00563564875489
 31
0.0
  0
LINE
  5
19F
  8
0
 10
3561.374311926601
 20
200.5034227925553
 30
0.0
 11
3561.374311926601
 21
357.4989970801553
 31
0.0
  0
LINE
  5
1A0
  8
0
 10
3561.374311926605
 20
363.4989970801553
 30
0.0
 11
3561.374311926601
 21
406.9967842239549
 31
0.0
  0
LINE
  5
1A1
  8
0
 10
3629.940682541001
 20
197.0056356487549
 30
0.0
 11
3629.940682541001
 21
184.0056356487558
 31
0.0
  0
LINE
  5
1A2
  8
0
 10
3567.374311926601
 20
197.0056356487549
 30
0.0
 11
3567.374311926601
 21
184.0056356487558
 31
0.0
  0
LINE
  5
1A3
  8
0
 10
1421.574311926602
 20
81.00563564875489
 30
0.0
 11
1418.574311926602
 21
71.00563564875489
 31
0.0
  0
LINE
  5
1A4
  8
0
 10
1421.574311926602
 20
81.00563564875489
 30
0.0
 11
1424.574311926602
 21
71.00563564875489
 31
0.0
  0
LINE
  5
1A5
  8
0
 10
1424.574311926602
 20
71.00563564875489
 30
0.0
 11
1883.374311926601
 21
71.00563564875489
 31
0.0
  0
LINE
  5
1A6
  8
0
 10
1361.574311926602
 20
81.00563564875489
 30
0.0
 11
1358.574311926602
 21
71.00563564875489
 31
0.0
  0
LINE
  5
1A7
  8
0
 10
1361.574311926602
 20
81.00563564875489
 30
0.0
 11
1364.574311926602
 21
71.00563564875489
 31
0.0
  0
LINE
  5
1A8
  8
0
 10
1364.574311926602
 20
71.00563564875489
 30
0.0
 11
1418.574311926602
 21
71.00563564875489
 31
0.0
  0
LINE
  5
1A9
  8
0
 10
2663.374311926601
 20
71.00563564875489
 30
0.0
 11
2599.374311926601
 21
71.00563564875489
 31
0.0
  0
LINE
  5
1AA
  8
0
 10
2666.374311926601
 20
81.00563564875489
 30
0.0
 11
2663.374311926601
 21
71.00563564875489
 31
0.0
  0
LINE
  5
1AB
  8
0
 10
2666.374311926601
 20
81.00563564875489
 30
0.0
 11
2669.374311926601
 21
71.00563564875489
 31
0.0
  0
LINE
  5
1AC
  8
0
 10
2596.374311926601
 20
81.00563564875489
 30
0.0
 11
2593.374311926601
 21
71.00563564875489
 31
0.0
  0
LINE
  5
1AD
  8
0
 10
2596.374311926601
 20
81.00563564875489
 30
0.0
 11
2599.374311926601
 21
71.00563564875489
 31
0.0
  0
LINE
  5
1AE
  8
0
 10
2669.374311926601
 20
71.00563564875489
 30
0.0
 11
3303.374311926601
 21
71.00563564875489
 31
0.0
  0
LINE
  5
1AF
  8
0
 10
1959.374311926601
 20
71.00563564875489
 30
0.0
 11
2593.374311926601
 21
71.00563564875489
 31
0.0
  0
LINE
  5
1B0
  8
0
 10
1953.374311926601
 20
71.00563564875489
 30
0.0
 11
1889.374311926601
 21
71.00563564875489
 31
0.0
  0
LINE
  5
1B1
  8
0
 10
1956.374311926601
 20
81.00563564875489
 30
0.0
 11
1953.374311926601
 21
71.00563564875489
 31
0.0
  0
LINE
  5
1B2
  8
0
 10
1956.374311926601
 20
81.00563564875489
 30
0.0
 11
1959.374311926601
 21
71.00563564875489
 31
0.0
  0
LINE
  5
1B3
  8
0
 10
1886.374311926601
 20
81.00563564875489
 30
0.0
 11
1883.374311926601
 21
71.00563564875489
 31
0.0
  0
LINE
  5
1B4
  8
0
 10
1886.374311926601
 20
81.00563564875489
 30
0.0
 11
1889.374311926601
 21
71.00563564875489
 31
0.0
  0
ENDSEC
  0
EOF
