  0
SECTION
  2
HEADER
  9
$ACADVER
  1
AC1009
  9
$DWGCODEPAGE
  3
ansi_1252
  9
$INSBASE
 10
0.0
 20
0.0
 30
0.0
  9
$EXTMIN
 10
1.000000000000000E+20
 20
1.000000000000000E+20
 30
1.000000000000000E+20
  9
$EXTMAX
 10
-1.000000000000000E+20
 20
-1.000000000000000E+20
 30
-1.000000000000000E+20
  9
$LIMMIN
 10
0.0
 20
0.0
  9
$LIMMAX
 10
12.0
 20
9.0
  9
$ORTHOMODE
 70
     1
  9
$REGENMODE
 70
     1
  9
$FILLMODE
 70
     1
  9
$QTEXTMODE
 70
     0
  9
$MIRRTEXT
 70
     0
  9
$DRAGMODE
 70
     2
  9
$LTSCALE
 40
1.0
  9
$OSMODE
 70
  1023
  9
$ATTMODE
 70
     1
  9
$TEXTSIZE
 40
0.2
  9
$TRACEWID
 40
0.05
  9
$TEXTSTYLE
  7
STANDARD
  9
$CLAYER
  8
0
  9
$CELTYPE
  6
BYLAYER
  9
$CECOLOR
 62
   256
  9
$DIMSCALE
 40
1.0
  9
$DIMASZ
 40
0.18
  9
$DIMEXO
 40
0.0625
  9
$DIMDLI
 40
0.38
  9
$DIMRND
 40
0.0
  9
$DIMDLE
 40
0.0
  9
$DIMEXE
 40
0.18
  9
$DIMTP
 40
0.0
  9
$DIMTM
 40
0.0
  9
$DIMTXT
 40
0.18
  9
$DIMCEN
 40
0.09
  9
$DIMTSZ
 40
0.0
  9
$DIMTOL
 70
     0
  9
$DIMLIM
 70
     0
  9
$DIMTIH
 70
     1
  9
$DIMTOH
 70
     1
  9
$DIMSE1
 70
     0
  9
$DIMSE2
 70
     0
  9
$DIMTAD
 70
     0
  9
$DIMZIN
 70
     0
  9
$DIMBLK
  1

  9
$DIMASO
 70
     1
  9
$DIMSHO
 70
     1
  9
$DIMPOST
  1

  9
$DIMAPOST
  1

  9
$DIMALT
 70
     0
  9
$DIMALTD
 70
     2
  9
$DIMALTF
 40
25.4
  9
$DIMLFAC
 40
1.0
  9
$DIMTOFL
 70
     0
  9
$DIMTVP
 40
0.0
  9
$DIMTIX
 70
     0
  9
$DIMSOXD
 70
     0
  9
$DIMSAH
 70
     0
  9
$DIMBLK1
  1

  9
$DIMBLK2
  1

  9
$DIMSTYLE
  2
STANDARD
  9
$DIMCLRD
 70
     0
  9
$DIMCLRE
 70
     0
  9
$DIMCLRT
 70
     0
  9
$DIMTFAC
 40
1.0
  9
$DIMGAP
 40
0.09
  9
$LUNITS
 70
     2
  9
$LUPREC
 70
     4
  9
$SKETCHINC
 40
0.1
  9
$FILLETRAD
 40
0.0
  9
$AUNITS
 70
     0
  9
$AUPREC
 70
     0
  9
$MENU
  1
.
  9
$ELEVATION
 40
0.0
  9
$PELEVATION
 40
0.0
  9
$THICKNESS
 40
0.0
  9
$LIMCHECK
 70
     0
  9
$CHAMFERA
 40
0.0
  9
$CHAMFERB
 40
0.0
  9
$SKPOLY
 70
     0
  9
$TDCREATE
 40
2452643.146717604
  9
$TDUPDATE
 40
2458414.405377511
  9
$TDINDWG
 40
0.0006609259
  9
$TDUSRTIMER
 40
2458414.321383669
  9
$USRTIMER
 70
     1
  9
$ANGBASE
 50
0.0
  9
$ANGDIR
 70
     0
  9
$PDMODE
 70
     0
  9
$PDSIZE
 40
0.0
  9
$PLINEWID
 40
0.0
  9
$COORDS
 70
     1
  9
$SPLFRAME
 70
     0
  9
$SPLINETYPE
 70
     6
  9
$SPLINESEGS
 70
     8
  9
$ATTDIA
 70
     0
  9
$ATTREQ
 70
     1
  9
$HANDLING
 70
     1
  9
$HANDSEED
  5
232
  9
$SURFTAB1
 70
     6
  9
$SURFTAB2
 70
     6
  9
$SURFTYPE
 70
     6
  9
$SURFU
 70
     6
  9
$SURFV
 70
     6
  9
$UCSNAME
  2

  9
$UCSORG
 10
0.0
 20
0.0
 30
0.0
  9
$UCSXDIR
 10
1.0
 20
0.0
 30
0.0
  9
$UCSYDIR
 10
0.0
 20
1.0
 30
0.0
  9
$PUCSNAME
  2

  9
$PUCSORG
 10
0.0
 20
0.0
 30
0.0
  9
$PUCSXDIR
 10
1.0
 20
0.0
 30
0.0
  9
$PUCSYDIR
 10
0.0
 20
1.0
 30
0.0
  9
$USERI1
 70
     0
  9
$USERI2
 70
     0
  9
$USERI3
 70
     0
  9
$USERI4
 70
     0
  9
$USERI5
 70
     0
  9
$USERR1
 40
0.0
  9
$USERR2
 40
0.0
  9
$USERR3
 40
0.0
  9
$USERR4
 40
0.0
  9
$USERR5
 40
0.0
  9
$WORLDVIEW
 70
     1
  9
$SHADEDGE
 70
     3
  9
$SHADEDIF
 70
    70
  9
$TILEMODE
 70
     1
  9
$MAXACTVP
 70
    64
  9
$PLIMCHECK
 70
     0
  9
$PEXTMIN
 10
0.0
 20
0.0
 30
0.0
  9
$PEXTMAX
 10
0.0
 20
0.0
 30
0.0
  9
$PLIMMIN
 10
0.0
 20
0.0
  9
$PLIMMAX
 10
0.0
 20
0.0
  9
$UNITMODE
 70
     0
  9
$VISRETAIN
 70
     1
  9
$PLINEGEN
 70
     0
  9
$PSLTSCALE
 70
     1
  0
ENDSEC
  0
SECTION
  2
TABLES
  0
TABLE
  2
VPORT
 70
     1
  0
VPORT
  2
*ACTIVE
 70
     0
 10
0.0
 20
0.0
 11
1.0
 21
1.0
 12
4874.460482545759
 22
-1513.356185306659
 13
0.0
 23
0.0
 14
0.5
 24
0.5
 15
0.5
 25
0.5
 16
0.0
 26
0.0
 36
1.0
 17
-27.66959356597999
 27
-19.53870295786191
 37
0.0
 40
6465.456073766249
 41
2.135664335664336
 42
50.0
 43
0.0
 44
0.0
 50
0.0
 51
0.0
 71
    16
 72
  1000
 73
     1
 74
     3
 75
     0
 76
     0
 77
     0
 78
     0
  0
ENDTAB
  0
TABLE
  2
LTYPE
 70
     1
  0
LTYPE
  2
CONTINUOUS
 70
     0
  3
Solid line
 72
    65
 73
     0
 40
0.0
  0
ENDTAB
  0
TABLE
  2
LAYER
 70
     1
  0
LAYER
  2
0
 70
     0
 62
     7
  6
CONTINUOUS
  0
ENDTAB
  0
TABLE
  2
STYLE
 70
     1
  0
STYLE
  2
STANDARD
 70
     0
 40
0.0
 41
1.0
 50
0.0
 71
     0
 42
0.2
  3
arial.ttf
  4

  0
ENDTAB
  0
TABLE
  2
VIEW
 70
     0
  0
ENDTAB
  0
TABLE
  2
UCS
 70
     0
  0
ENDTAB
  0
TABLE
  2
APPID
 70
     1
  0
APPID
  2
ACAD
 70
     0
  0
ENDTAB
  0
TABLE
  2
DIMSTYLE
 70
     1
  0
DIMSTYLE
  2
STANDARD
 70
     0
  3

  4

  5

  6

  7

 40
1.0
 41
0.18
 42
0.0625
 43
0.38
 44
0.18
 45
0.0
 46
0.0
 47
0.0
 48
0.0
140
0.18
141
0.09
142
0.0
143
25.4
144
1.0
145
0.0
146
1.0
147
0.09
 71
     0
 72
     0
 73
     1
 74
     1
 75
     0
 76
     0
 77
     0
 78
     0
170
     0
171
     2
172
     0
173
     0
174
     0
175
     0
176
     0
177
     0
178
     0
  0
ENDTAB
  0
ENDSEC
  0
SECTION
  2
BLOCKS
  0
BLOCK
  8
0
  2
$MODEL_SPACE
 70
     0
 10
0.0
 20
0.0
 30
0.0
  3
$MODEL_SPACE
  1

  0
ENDBLK
  5
21
  8
0
  0
BLOCK
 67
     1
  8
0
  2
$PAPER_SPACE
 70
     0
 10
0.0
 20
0.0
 30
0.0
  3
$PAPER_SPACE
  1

  0
ENDBLK
  5
5B
 67
     1
  8
0
  0
ENDSEC
  0
SECTION
  2
ENTITIES
  0
LINE
  5
1BE
  8
0
 39
31.83440005694778
 10
400.4360894742914
 20
304.5464476765568
 30
0.0
 11
1.436091908121011
 21
304.5464476765968
 31
0.0
  0
LINE
  5
1BF
  8
0
 39
31.83440005694778
 10
1.436091908121011
 20
302.5464476765677
 30
0.0
 11
1.436091908121011
 21
304.5464476766259
 31
0.0
  0
LINE
  5
1C0
  8
0
 39
31.83440005694778
 10
2811.357297552333
 20
299.5464476765677
 30
0.0
 11
2813.857297552333
 21
299.5464476765677
 31
0.0
  0
LINE
  5
1C1
  8
0
 39
31.83440005694778
 10
2813.857297552333
 20
303.5464476765659
 30
0.0
 11
2860.857297552333
 21
303.5464476765659
 31
0.0
  0
LINE
  5
1C2
  8
0
 39
31.83440005694778
 10
2860.857297552333
 20
299.5464476765677
 30
0.0
 11
2863.357297552333
 21
299.5464476765677
 31
0.0
  0
LINE
  5
1C3
  8
0
 39
31.83440005694778
 10
452.4360894742914
 20
345.5464476765568
 30
0.0
 11
875.3572975523331
 21
345.5464476765659
 31
0.0
  0
LINE
  5
1C4
  8
0
 39
31.83440005694778
 10
1411.357297552333
 20
345.5464476765659
 30
0.0
 11
1843.357297552333
 21
345.5464476765659
 31
0.0
  0
LINE
  5
1C5
  8
0
 39
31.83440005694778
 10
1895.357297552333
 20
345.5464476765659
 30
0.0
 11
2327.357297552333
 21
345.5464476765659
 31
0.0
  0
LINE
  5
1C6
  8
0
 39
31.83440005694778
 10
2379.357297552333
 20
345.5464476765659
 30
0.0
 11
2811.357297552333
 21
345.5464476765659
 31
0.0
  0
LINE
  5
1C7
  8
0
 39
31.83440005694778
 10
3347.357297552333
 20
345.5464476765659
 30
0.0
 11
3779.357297552333
 21
345.5464476765804
 31
0.0
  0
ARC
  5
1C8
  8
0
 39
31.83440005694778
 10
152.3725772549278
 20
268.5464476765568
 30
0.0
 40
22.0
 50
90.0
 51
270.0
  0
ARC
  5
1C9
  8
0
 39
31.83440005694778
 10
321.4360894742914
 20
268.5464476765568
 30
0.0
 40
22.0
 50
270.0
 51
90.0
  0
LINE
  5
1CA
  8
0
 39
31.83440005694778
 10
152.3725772549278
 20
246.5464476765568
 30
0.0
 11
321.4360894742914
 21
246.5464476765568
 31
0.0
  0
LINE
  5
1CB
  8
0
 39
31.83440005694778
 10
152.3725772549278
 20
290.5464476765568
 30
0.0
 11
321.4360894742914
 21
290.5464476765568
 31
0.0
  0
LINE
  5
1CC
  8
0
 39
31.83440005694778
 10
9.378341379209882
 20
129.5464476765677
 30
0.0
 11
1.436091908091907
 21
126.5681041249094
 31
0.0
  0
LINE
  5
1CD
  8
0
 39
31.83440005694778
 10
1.436091908091907
 20
132.524791228226
 30
0.0
 11
9.378341379209882
 21
129.5464476765677
 31
0.0
  0
LINE
  5
1CE
  8
0
 39
31.83440005694778
 10
1.436091908091907
 20
132.524791228226
 30
0.0
 11
1.436091908091907
 21
296.5464476765677
 31
0.0
  0
LINE
  5
1CF
  8
0
 39
31.83440005694778
 10
9.43609190812101
 20
299.5464476765677
 30
0.0
 11
1.436091908121011
 21
296.5464476765677
 31
0.0
  0
LINE
  5
1D0
  8
0
 39
31.83440005694778
 10
1.436091908121011
 20
302.5464476765677
 30
0.0
 11
9.43609190812101
 21
299.5464476765677
 31
0.0
  0
LINE
  5
1D1
  8
0
 10
400.4360894742914
 20
304.5464476765568
 30
0.0
 11
400.4360894742914
 21
231.5464476765568
 31
0.0
  0
LINE
  5
1D2
  8
0
 10
400.4360894742914
 20
231.5464476765277
 30
0.0
 11
452.4360894742914
 21
231.5464476765568
 31
0.0
  0
LINE
  5
1D3
  8
0
 10
2811.357297552333
 20
345.5464476765659
 30
0.0
 11
2811.357297552333
 21
299.5464476765677
 31
0.0
  0
LINE
  5
1D4
  8
0
 10
2863.357297552333
 20
299.5464476765677
 30
0.0
 11
2863.357297552333
 21
345.5464476765659
 31
0.0
  0
LINE
  5
1D5
  8
0
 10
2813.857297552333
 20
303.5464476765659
 30
0.0
 11
2813.857297552333
 21
299.5464476765677
 31
0.0
  0
LINE
  5
1D6
  8
0
 10
2860.857297552333
 20
299.5464476765677
 30
0.0
 11
2860.857297552333
 21
303.5464476765659
 31
0.0
  0
LINE
  5
1D7
  8
0
 10
452.4360894742914
 20
345.5464476765568
 30
0.0
 11
452.4360894742914
 21
231.5464476765568
 31
0.0
  0
LINE
  5
1D8
  8
0
 10
1.436091908091907
 20
3.546447676567706
 30
0.0
 11
1.436091908091907
 21
126.5681041249094
 31
0.0
  0
LINE
  5
1D9
  8
0
 39
31.83440005694778
 10
1359.357297552333
 20
299.5464476765677
 30
0.0
 11
1361.857297552333
 21
299.5464476765677
 31
0.0
  0
LINE
  5
1DA
  8
0
 39
31.83440005694778
 10
1361.857297552333
 20
303.5464476765659
 30
0.0
 11
1408.857297552333
 21
303.5464476765659
 31
0.0
  0
LINE
  5
1DB
  8
0
 39
31.83440005694778
 10
1408.857297552333
 20
299.5464476765677
 30
0.0
 11
1411.357297552333
 21
299.5464476765677
 31
0.0
  0
LINE
  5
1DC
  8
0
 10
1359.357297552333
 20
345.5464476765659
 30
0.0
 11
1359.357297552333
 21
299.5464476765677
 31
0.0
  0
LINE
  5
1DD
  8
0
 10
1411.357297552333
 20
299.5464476765677
 30
0.0
 11
1411.357297552333
 21
345.5464476765659
 31
0.0
  0
LINE
  5
1DE
  8
0
 10
1361.857297552333
 20
303.5464476765659
 30
0.0
 11
1361.857297552333
 21
299.5464476765677
 31
0.0
  0
LINE
  5
1DF
  8
0
 10
1408.857297552333
 20
299.5464476765677
 30
0.0
 11
1408.857297552333
 21
303.5464476765659
 31
0.0
  0
LINE
  5
1E0
  8
0
 39
31.83440005694778
 10
927.3572975523331
 20
345.5464476765659
 30
0.0
 11
1359.357297552333
 21
345.5464476765659
 31
0.0
  0
LINE
  5
1E1
  8
0
 39
31.83440005694778
 10
3295.357297552333
 20
299.5464476765677
 30
0.0
 11
3297.857297552333
 21
299.5464476765677
 31
0.0
  0
LINE
  5
1E2
  8
0
 39
31.83440005694778
 10
3297.857297552333
 20
303.5464476765659
 30
0.0
 11
3344.857297552333
 21
303.5464476765659
 31
0.0
  0
LINE
  5
1E3
  8
0
 39
31.83440005694778
 10
3344.857297552333
 20
299.5464476765677
 30
0.0
 11
3347.357297552333
 21
299.5464476765677
 31
0.0
  0
LINE
  5
1E4
  8
0
 10
3295.357297552333
 20
345.5464476765659
 30
0.0
 11
3295.357297552333
 21
299.5464476765677
 31
0.0
  0
LINE
  5
1E5
  8
0
 10
3347.357297552333
 20
299.5464476765677
 30
0.0
 11
3347.357297552333
 21
345.5464476765659
 31
0.0
  0
LINE
  5
1E6
  8
0
 10
3297.857297552333
 20
303.5464476765659
 30
0.0
 11
3297.857297552333
 21
299.5464476765677
 31
0.0
  0
LINE
  5
1E7
  8
0
 10
3344.857297552333
 20
299.5464476765677
 30
0.0
 11
3344.857297552333
 21
303.5464476765659
 31
0.0
  0
LINE
  5
1E8
  8
0
 39
31.83440005694778
 10
875.3572975523331
 20
299.5464476765677
 30
0.0
 11
877.8572975523331
 21
299.5464476765677
 31
0.0
  0
LINE
  5
1E9
  8
0
 39
31.83440005694778
 10
877.8572975523331
 20
303.5464476765659
 30
0.0
 11
924.8572975523331
 21
303.5464476765659
 31
0.0
  0
LINE
  5
1EA
  8
0
 39
31.83440005694778
 10
924.8572975523331
 20
299.5464476765677
 30
0.0
 11
927.3572975523331
 21
299.5464476765677
 31
0.0
  0
LINE
  5
1EB
  8
0
 10
875.3572975523331
 20
345.5464476765659
 30
0.0
 11
875.3572975523331
 21
299.5464476765677
 31
0.0
  0
LINE
  5
1EC
  8
0
 10
927.3572975523331
 20
299.5464476765677
 30
0.0
 11
927.3572975523331
 21
345.5464476765659
 31
0.0
  0
LINE
  5
1ED
  8
0
 10
877.8572975523331
 20
303.5464476765659
 30
0.0
 11
877.8572975523331
 21
299.5464476765677
 31
0.0
  0
LINE
  5
1EE
  8
0
 10
924.8572975523331
 20
299.5464476765677
 30
0.0
 11
924.8572975523331
 21
303.5464476765659
 31
0.0
  0
LINE
  5
1EF
  8
0
 10
2863.357297552333
 20
345.5464476765659
 30
0.0
 11
3295.357297552333
 21
345.5464476765659
 31
0.0
  0
CIRCLE
  5
1F0
  8
0
 39
31.83440005694778
 10
101.0140729779033
 20
269.2567740002027
 30
0.0
 40
3.25
  0
CIRCLE
  5
1F1
  8
0
 39
31.83440005694778
 10
78.49873437362302
 20
269.2567740002027
 30
0.0
 40
3.25
  0
CIRCLE
  5
1F2
  8
0
 39
31.83440005694778
 10
101.0140729779033
 20
93.88021039513603
 30
0.0
 40
3.25
  0
CIRCLE
  5
1F3
  8
0
 39
31.83440005694778
 10
78.49873437362302
 20
93.88021039513603
 30
0.0
 40
3.25
  0
CIRCLE
  5
1F4
  8
0
 39
31.83440005694778
 10
101.0140729779033
 20
154.6195248187463
 30
0.0
 40
3.25
  0
CIRCLE
  5
1F5
  8
0
 39
31.83440005694778
 10
78.49873437362302
 20
154.6195248187463
 30
0.0
 40
3.25
  0
CIRCLE
  5
1F6
  8
0
 39
31.83440005694778
 10
78.49873437362302
 20
16.88868945911724
 30
0.0
 40
3.25
  0
LINE
  5
1F7
  8
0
 39
31.83440005694778
 10
1843.357297552333
 20
299.5464476765677
 30
0.0
 11
1845.857297552333
 21
299.5464476765677
 31
0.0
  0
LINE
  5
1F8
  8
0
 39
31.83440005694778
 10
1845.857297552333
 20
303.5464476765659
 30
0.0
 11
1892.857297552333
 21
303.5464476765659
 31
0.0
  0
LINE
  5
1F9
  8
0
 39
31.83440005694778
 10
1892.857297552333
 20
299.5464476765677
 30
0.0
 11
1895.357297552333
 21
299.5464476765677
 31
0.0
  0
LINE
  5
1FA
  8
0
 10
1843.357297552333
 20
345.5464476765659
 30
0.0
 11
1843.357297552333
 21
299.5464476765677
 31
0.0
  0
LINE
  5
1FB
  8
0
 10
1895.357297552333
 20
299.5464476765677
 30
0.0
 11
1895.357297552333
 21
345.5464476765659
 31
0.0
  0
LINE
  5
1FC
  8
0
 10
1845.857297552333
 20
303.5464476765659
 30
0.0
 11
1845.857297552333
 21
299.5464476765677
 31
0.0
  0
LINE
  5
1FD
  8
0
 10
1892.857297552333
 20
299.5464476765677
 30
0.0
 11
1892.857297552333
 21
303.5464476765659
 31
0.0
  0
LINE
  5
1FE
  8
0
 39
31.83440005694778
 10
2327.357297552333
 20
299.5464476765677
 30
0.0
 11
2329.857297552333
 21
299.5464476765677
 31
0.0
  0
LINE
  5
1FF
  8
0
 39
31.83440005694778
 10
2329.857297552333
 20
303.5464476765659
 30
0.0
 11
2376.857297552333
 21
303.5464476765659
 31
0.0
  0
LINE
  5
200
  8
0
 39
31.83440005694778
 10
2376.857297552333
 20
299.5464476765677
 30
0.0
 11
2379.357297552333
 21
299.5464476765677
 31
0.0
  0
LINE
  5
201
  8
0
 10
2327.357297552333
 20
345.5464476765659
 30
0.0
 11
2327.357297552333
 21
299.5464476765677
 31
0.0
  0
LINE
  5
202
  8
0
 10
2379.357297552333
 20
299.5464476765677
 30
0.0
 11
2379.357297552333
 21
345.5464476765659
 31
0.0
  0
LINE
  5
203
  8
0
 10
2329.857297552333
 20
303.5464476765659
 30
0.0
 11
2329.857297552333
 21
299.5464476765677
 31
0.0
  0
LINE
  5
204
  8
0
 10
2376.857297552333
 20
299.5464476765677
 30
0.0
 11
2376.857297552333
 21
303.5464476765659
 31
0.0
  0
LINE
  5
205
  8
0
 10
3779.357297552333
 20
3.546447676536784
 30
0.0
 11
4435.901805603159
 21
3.522569430569431
 31
0.0
  0
LINE
  5
206
  8
0
 10
3744.91103187173
 20
3.546447676567706
 30
0.0
 11
3747.91103187173
 21
13.54644767656771
 31
0.0
  0
LINE
  5
207
  8
0
 10
3747.91103187173
 20
13.54644767656771
 30
0.0
 11
3750.91103187173
 21
3.546447676538603
 31
0.0
  0
LINE
  5
208
  8
0
 10
3664.91103187173
 20
3.546447676567706
 30
0.0
 11
3667.91103187173
 21
13.54644767656771
 31
0.0
  0
LINE
  5
209
  8
0
 10
3667.91103187173
 20
13.54644767656771
 30
0.0
 11
3670.91103187173
 21
3.546447676538603
 31
0.0
  0
LINE
  5
20A
  8
0
 10
2814.91103187173
 20
3.546447676567706
 30
0.0
 11
2817.91103187173
 21
13.54644767656771
 31
0.0
  0
LINE
  5
20B
  8
0
 10
2817.91103187173
 20
13.54644767656771
 30
0.0
 11
2820.91103187173
 21
3.546447676538603
 31
0.0
  0
LINE
  5
20C
  8
0
 10
2734.91103187173
 20
3.546447676567706
 30
0.0
 11
2737.91103187173
 21
13.54644767656771
 31
0.0
  0
LINE
  5
20D
  8
0
 10
2737.91103187173
 20
13.54644767656771
 30
0.0
 11
2740.91103187173
 21
3.546447676538603
 31
0.0
  0
LINE
  5
20E
  8
0
 10
2740.91103187173
 20
3.546447676538603
 30
0.0
 11
2814.91103187173
 21
3.546447676567706
 31
0.0
  0
LINE
  5
20F
  8
0
 10
2820.91103187173
 20
3.546447676538603
 30
0.0
 11
3664.91103187173
 21
3.546447676567706
 31
0.0
  0
LINE
  5
210
  8
0
 10
3670.91103187173
 20
3.546447676538603
 30
0.0
 11
3744.91103187173
 21
3.546447676567706
 31
0.0
  0
LINE
  5
211
  8
0
 10
3750.91103187173
 20
3.546447676538603
 30
0.0
 11
3779.357297552333
 21
3.546447676536784
 31
0.0
  0
LINE
  5
212
  8
0
 39
31.83440005694778
 10
3779.357297552333
 20
299.5464476765659
 30
0.0
 11
3781.85729755233
 21
299.5464476765659
 31
0.0
  0
LINE
  5
213
  8
0
 39
31.83440005694778
 10
3781.85729755233
 20
303.5464476765659
 30
0.0
 11
3828.85729755233
 21
303.5464476765659
 31
0.0
  0
LINE
  5
214
  8
0
 39
31.83440005694778
 10
3828.85729755233
 20
299.5464476765659
 30
0.0
 11
3831.35729755233
 21
299.5464476765659
 31
0.0
  0
LINE
  5
215
  8
0
 10
3779.357297552333
 20
345.5464476765659
 30
0.0
 11
3779.357297552333
 21
299.5464476765659
 31
0.0
  0
LINE
  5
216
  8
0
 10
3831.35729755233
 20
299.5464476765659
 30
0.0
 11
3831.35729755233
 21
345.5464476765659
 31
0.0
  0
LINE
  5
217
  8
0
 10
3781.85729755233
 20
303.5464476765659
 30
0.0
 11
3781.85729755233
 21
299.5464476765659
 31
0.0
  0
LINE
  5
218
  8
0
 10
3828.85729755233
 20
299.5464476765659
 30
0.0
 11
3828.85729755233
 21
303.5464476765659
 31
0.0
  0
LINE
  5
219
  8
0
 10
1722.717555702993
 20
3.546447676567706
 30
0.0
 11
1725.717555702993
 21
13.54644767656771
 31
0.0
  0
LINE
  5
21A
  8
0
 10
1725.717555702993
 20
13.54644767656771
 30
0.0
 11
1728.717555702993
 21
3.546447676538603
 31
0.0
  0
LINE
  5
21B
  8
0
 10
1782.717555702993
 20
3.546447676567706
 30
0.0
 11
1785.717555702993
 21
13.54644767656771
 31
0.0
  0
LINE
  5
21C
  8
0
 10
1785.717555702993
 20
13.54644767656771
 30
0.0
 11
1788.717555702993
 21
3.546447676538603
 31
0.0
  0
LINE
  5
21D
  8
0
 10
1722.717555702993
 20
3.546447676567706
 30
0.0
 11
1.436091908091907
 21
3.546447676565887
 31
0.0
  0
LINE
  5
21E
  8
0
 10
1782.717555702993
 20
3.546447676567706
 30
0.0
 11
1728.717555702986
 21
3.546447676567706
 31
0.0
  0
LINE
  5
21F
  8
0
 10
2734.91103187173
 20
3.546447676567706
 30
0.0
 11
1788.717555702986
 21
3.546447676567706
 31
0.0
  0
LINE
  5
220
  8
0
 10
4435.901805603159
 20
3.522569430569431
 30
0.0
 11
4435.901805603159
 21
129.0486605327727
 31
0.0
  0
LINE
  5
221
  8
0
 39
31.83440005694778
 10
3831.35729755233
 20
345.5464476765823
 30
0.0
 11
4139.12845173911
 21
345.5464476765925
 31
0.0
  0
LINE
  5
222
  8
0
 10
4435.901805603159
 20
129.0486605327727
 30
0.0
 11
4207.694822353506
 21
129.0486605327727
 31
0.0
  0
LINE
  5
223
  8
0
 10
4145.12845173911
 20
129.0486605327727
 30
0.0
 11
4141.12845173911
 21
129.0486605327727
 31
0.0
  0
LINE
  5
224
  8
0
 10
4207.694822353506
 20
116.0486605327727
 30
0.0
 11
4145.12845173911
 21
116.0486605327727
 31
0.0
  0
LINE
  5
225
  8
0
 10
4141.12845173911
 20
129.0486605327727
 30
0.0
 11
4141.12845173911
 21
122.0486605327727
 31
0.0
  0
LINE
  5
226
  8
0
 10
4141.12845173911
 20
122.0486605327727
 30
0.0
 11
4139.12845173911
 21
122.0486605327727
 31
0.0
  0
LINE
  5
227
  8
0
 10
4139.12845173911
 20
122.0486605327727
 30
0.0
 11
4139.12845173911
 21
126.546447676575
 31
0.0
  0
LINE
  5
228
  8
0
 10
4139.12845173911
 20
302.5464476765779
 30
0.0
 11
4131.12845173911
 21
299.5464476765779
 31
0.0
  0
LINE
  5
229
  8
0
 10
4131.12845173911
 20
299.5464476765779
 30
0.0
 11
4139.12845173911
 21
296.5464476765779
 31
0.0
  0
LINE
  5
22A
  8
0
 10
4139.12845173911
 20
132.546447676575
 30
0.0
 11
4131.12845173911
 21
129.546447676575
 31
0.0
  0
LINE
  5
22B
  8
0
 10
4131.12845173911
 20
129.546447676575
 30
0.0
 11
4139.12845173911
 21
126.546447676575
 31
0.0
  0
LINE
  5
22C
  8
0
 10
4139.12845173911
 20
132.546447676575
 30
0.0
 11
4139.12845173911
 21
296.5464476765779
 31
0.0
  0
LINE
  5
22D
  8
0
 10
4139.12845173911
 20
302.5464476765779
 30
0.0
 11
4139.12845173911
 21
345.5464476765925
 31
0.0
  0
LINE
  5
22E
  8
0
 10
4207.694822353506
 20
129.0486605327727
 30
0.0
 11
4207.694822353506
 21
116.0486605327727
 31
0.0
  0
LINE
  5
22F
  8
0
 10
4145.12845173911
 20
129.0486605327727
 30
0.0
 11
4145.12845173911
 21
116.0486605327727
 31
0.0
  0
ENDSEC
  0
EOF
