  0
SECTION
  2
HEADER
  9
$ACADVER
  1
AC1014
  9
$ACADMAINTVER
 70
     9
  9
$DWGCODEPAGE
  3
ANSI_1252
  9
$INSBASE
 10
0.0
 20
0.0
 30
0.0
  9
$EXTMIN
 10
408.2216480427591
 20
-61.42102575267506
 30
0.0
  9
$EXTMAX
 10
1568.221648042774
 20
1185.981855789197
 30
31.83440005694778
  9
$LIMMIN
 10
0.0
 20
0.0
  9
$LIMMAX
 10
12.0
 20
9.0
  9
$ORTHOMODE
 70
     1
  9
$REGENMODE
 70
     1
  9
$FILLMODE
 70
     1
  9
$QTEXTMODE
 70
     0
  9
$MIRRTEXT
 70
     0
  9
$DRAGMODE
 70
     2
  9
$LTSCALE
 40
1.0
  9
$OSMODE
 70
  1023
  9
$ATTMODE
 70
     1
  9
$TEXTSIZE
 40
0.2
  9
$TRACEWID
 40
0.05
  9
$TEXTSTYLE
  7
STANDARD
  9
$CLAYER
  8
0
  9
$CELTYPE
  6
BYLAYER
  9
$CECOLOR
 62
   256
  9
$CELTSCALE
 40
1.0
  9
$DELOBJ
 70
     1
  9
$DISPSILH
 70
     0
  9
$DIMSCALE
 40
1.0
  9
$DIMASZ
 40
0.18
  9
$DIMEXO
 40
0.0625
  9
$DIMDLI
 40
0.38
  9
$DIMRND
 40
0.0
  9
$DIMDLE
 40
0.0
  9
$DIMEXE
 40
0.18
  9
$DIMTP
 40
0.0
  9
$DIMTM
 40
0.0
  9
$DIMTXT
 40
0.18
  9
$DIMCEN
 40
0.09
  9
$DIMTSZ
 40
0.0
  9
$DIMTOL
 70
     0
  9
$DIMLIM
 70
     0
  9
$DIMTIH
 70
     1
  9
$DIMTOH
 70
     1
  9
$DIMSE1
 70
     0
  9
$DIMSE2
 70
     0
  9
$DIMTAD
 70
     0
  9
$DIMZIN
 70
     0
  9
$DIMBLK
  1

  9
$DIMASO
 70
     1
  9
$DIMSHO
 70
     1
  9
$DIMPOST
  1

  9
$DIMAPOST
  1

  9
$DIMALT
 70
     0
  9
$DIMALTD
 70
     2
  9
$DIMALTF
 40
25.4
  9
$DIMLFAC
 40
1.0
  9
$DIMTOFL
 70
     0
  9
$DIMTVP
 40
0.0
  9
$DIMTIX
 70
     0
  9
$DIMSOXD
 70
     0
  9
$DIMSAH
 70
     0
  9
$DIMBLK1
  1

  9
$DIMBLK2
  1

  9
$DIMSTYLE
  2
STANDARD
  9
$DIMCLRD
 70
     0
  9
$DIMCLRE
 70
     0
  9
$DIMCLRT
 70
     0
  9
$DIMTFAC
 40
1.0
  9
$DIMGAP
 40
0.09
  9
$DIMJUST
 70
     0
  9
$DIMSD1
 70
     0
  9
$DIMSD2
 70
     0
  9
$DIMTOLJ
 70
     1
  9
$DIMTZIN
 70
     0
  9
$DIMALTZ
 70
     0
  9
$DIMALTTZ
 70
     0
  9
$DIMFIT
 70
     5
  9
$DIMUPT
 70
     0
  9
$DIMUNIT
 70
     2
  9
$DIMDEC
 70
     4
  9
$DIMTDEC
 70
     4
  9
$DIMALTU
 70
     2
  9
$DIMALTTD
 70
     2
  9
$DIMTXSTY
  7
STANDARD
  9
$DIMAUNIT
 70
     0
  9
$LUNITS
 70
     2
  9
$LUPREC
 70
     4
  9
$SKETCHINC
 40
0.1
  9
$FILLETRAD
 40
0.0
  9
$AUNITS
 70
     0
  9
$AUPREC
 70
     0
  9
$MENU
  1
.
  9
$ELEVATION
 40
0.0
  9
$PELEVATION
 40
0.0
  9
$THICKNESS
 40
0.0
  9
$LIMCHECK
 70
     0
  9
$CHAMFERA
 40
0.0
  9
$CHAMFERB
 40
0.0
  9
$CHAMFERC
 40
0.0
  9
$CHAMFERD
 40
0.0
  9
$SKPOLY
 70
     0
  9
$TDCREATE
 40
2455538.35069441
  9
$TDUPDATE
 40
2459290.704540926
  9
$TDINDWG
 40
0.0172128356
  9
$TDUSRTIMER
 40
0.0004261111
  9
$USRTIMER
 70
     1
  9
$ANGBASE
 50
0.0
  9
$ANGDIR
 70
     0
  9
$PDMODE
 70
     0
  9
$PDSIZE
 40
0.0
  9
$PLINEWID
 40
0.0
  9
$COORDS
 70
     1
  9
$SPLFRAME
 70
     0
  9
$SPLINETYPE
 70
     6
  9
$SPLINESEGS
 70
     8
  9
$ATTDIA
 70
     0
  9
$ATTREQ
 70
     1
  9
$HANDLING
 70
     1
  9
$HANDSEED
  5
809
  9
$SURFTAB1
 70
     6
  9
$SURFTAB2
 70
     6
  9
$SURFTYPE
 70
     6
  9
$SURFU
 70
     6
  9
$SURFV
 70
     6
  9
$UCSNAME
  2

  9
$UCSORG
 10
0.0
 20
0.0
 30
0.0
  9
$UCSXDIR
 10
1.0
 20
0.0
 30
0.0
  9
$UCSYDIR
 10
0.0
 20
1.0
 30
0.0
  9
$PUCSNAME
  2

  9
$PUCSORG
 10
0.0
 20
0.0
 30
0.0
  9
$PUCSXDIR
 10
1.0
 20
0.0
 30
0.0
  9
$PUCSYDIR
 10
0.0
 20
1.0
 30
0.0
  9
$USERI1
 70
     0
  9
$USERI2
 70
     0
  9
$USERI3
 70
     0
  9
$USERI4
 70
     0
  9
$USERI5
 70
     0
  9
$USERR1
 40
0.0
  9
$USERR2
 40
0.0
  9
$USERR3
 40
0.0
  9
$USERR4
 40
0.0
  9
$USERR5
 40
0.0
  9
$WORLDVIEW
 70
     1
  9
$SHADEDGE
 70
     3
  9
$SHADEDIF
 70
    70
  9
$TILEMODE
 70
     1
  9
$MAXACTVP
 70
    64
  9
$PINSBASE
 10
0.0
 20
0.0
 30
0.0
  9
$PLIMCHECK
 70
     0
  9
$PEXTMIN
 10
0.0
 20
0.0
 30
0.0
  9
$PEXTMAX
 10
0.0
 20
0.0
 30
0.0
  9
$PLIMMIN
 10
0.0
 20
0.0
  9
$PLIMMAX
 10
0.0
 20
0.0
  9
$UNITMODE
 70
     0
  9
$VISRETAIN
 70
     1
  9
$PLINEGEN
 70
     0
  9
$PSLTSCALE
 70
     1
  9
$TREEDEPTH
 70
  3020
  9
$PICKSTYLE
 70
     0
  9
$CMLSTYLE
  2
STANDARD
  9
$CMLJUST
 70
     0
  9
$CMLSCALE
 40
1.0
  9
$PROXYGRAPHICS
 70
     1
  9
$MEASUREMENT
 70
     0
  0
ENDSEC
  0
SECTION
  2
CLASSES
  0
CLASS
  1
ACDBDICTIONARYWDFLT
  2
AcDbDictionaryWithDefault
  3
ObjectDBX Classes
 90
        0
280
     0
281
     0
  0
CLASS
  1
MATERIAL
  2
AcDbMaterial
  3
ObjectDBX Classes
 90
     1153
280
     0
281
     0
  0
CLASS
  1
SCALE
  2
AcDbScale
  3
ObjectDBX Classes
 90
     1153
280
     0
281
     0
  0
CLASS
  1
VISUALSTYLE
  2
AcDbVisualStyle
  3
ObjectDBX Classes
 90
     4095
280
     0
281
     0
  0
CLASS
  1
TABLESTYLE
  2
AcDbTableStyle
  3
ObjectDBX Classes
 90
     4095
280
     0
281
     0
  0
CLASS
  1
MLEADERSTYLE
  2
AcDbMLeaderStyle
  3
ACDB_MLEADERSTYLE_CLASS
 90
     4095
280
     0
281
     0
  0
CLASS
  1
XRECORD
  2
AcDbXrecord
  3
ObjectDBX Classes
 90
        0
280
     0
281
     0
  0
CLASS
  1
LWPOLYLINE
  2
AcDbPolyline
  3
ObjectDBX Classes
 90
        0
280
     0
281
     1
  0
CLASS
  1
HATCH
  2
AcDbHatch
  3
ObjectDBX Classes
 90
        0
280
     0
281
     1
  0
CLASS
  1
DICTIONARYVAR
  2
AcDbDictionaryVar
  3
ObjectDBX Classes
 90
        0
280
     0
281
     0
  0
ENDSEC
  0
SECTION
  2
TABLES
  0
TABLE
  2
VPORT
  5
63A
330
0
100
AcDbSymbolTable
 70
     1
  0
VPORT
  5
651
330
63A
100
AcDbSymbolTableRecord
100
AcDbViewportTableRecord
  2
*ACTIVE
 70
     0
 10
0.0
 20
0.0
 11
1.0
 21
1.0
 12
1116.93661469236
 22
1063.748760680175
 13
0.0
 23
0.0
 14
0.5
 24
0.5
 15
0.5
 25
0.5
 16
0.0
 26
0.0
 36
1.0
 17
0.0
 27
0.0
 37
0.0
 40
825.450462398237
 41
2.091520861372813
 42
50.0
 43
0.0
 44
0.0
 50
0.0
 51
0.0
 71
    16
 72
  1000
 73
     1
 74
     3
 75
     0
 76
     0
 77
     0
 78
     0
  0
ENDTAB
  0
TABLE
  2
LTYPE
  5
637
330
0
100
AcDbSymbolTable
 70
     1
  0
LTYPE
  5
645
330
637
100
AcDbSymbolTableRecord
100
AcDbLinetypeTableRecord
  2
BYBLOCK
 70
     0
  3

 72
    65
 73
     0
 40
0.0
  0
LTYPE
  5
646
330
637
100
AcDbSymbolTableRecord
100
AcDbLinetypeTableRecord
  2
BYLAYER
 70
     0
  3

 72
    65
 73
     0
 40
0.0
  0
LTYPE
  5
647
330
637
100
AcDbSymbolTableRecord
100
AcDbLinetypeTableRecord
  2
CONTINUOUS
 70
     0
  3
Solid line
 72
    65
 73
     0
 40
0.0
  0
ENDTAB
  0
TABLE
  2
LAYER
  5
635
330
0
100
AcDbSymbolTable
 70
     4
  0
LAYER
  5
642
330
635
100
AcDbSymbolTableRecord
100
AcDbLayerTableRecord
  2
0
 70
     0
 62
     7
  6
CONTINUOUS
  0
LAYER
  5
658
330
635
100
AcDbSymbolTableRecord
100
AcDbLayerTableRecord
  2
CARTER_VENTOLE
 70
     0
 62
     3
  6
CONTINUOUS
  0
LAYER
  5
659
330
635
100
AcDbSymbolTableRecord
100
AcDbLayerTableRecord
  2
MANOVELLA
 70
     0
 62
     8
  6
CONTINUOUS
  0
LAYER
  5
65A
330
635
100
AcDbSymbolTableRecord
100
AcDbLayerTableRecord
  2
DEFPOINTS
 70
     0
 62
     7
  6
CONTINUOUS
  0
ENDTAB
  0
TABLE
  2
STYLE
  5
636
330
0
100
AcDbSymbolTable
 70
     3
  0
STYLE
  5
643
330
636
100
AcDbSymbolTableRecord
100
AcDbTextStyleTableRecord
  2
STANDARD
 70
     0
 40
0.0
 41
1.0
 50
0.0
 71
     0
 42
0.2
  3
txt.shx
  4

  0
STYLE
  5
65C
330
636
100
AcDbSymbolTableRecord
100
AcDbTextStyleTableRecord
  2
ANNOTATIVE
 70
     0
 40
0.0
 41
1.0
 50
0.0
 71
     0
 42
0.2
  3
txt
  4

  0
STYLE
  5
65D
330
636
100
AcDbSymbolTableRecord
100
AcDbTextStyleTableRecord
  2
ANNOTATIVA
 70
     0
 40
0.0
 41
1.0
 50
0.0
 71
     0
 42
0.2
  3
txt.shx
  4

  0
ENDTAB
  0
TABLE
  2
VIEW
  5
638
330
0
100
AcDbSymbolTable
 70
     0
  0
ENDTAB
  0
TABLE
  2
UCS
  5
639
330
0
100
AcDbSymbolTable
 70
     0
  0
ENDTAB
  0
TABLE
  2
APPID
  5
63B
330
0
100
AcDbSymbolTable
 70
     8
  0
APPID
  5
644
330
63B
100
AcDbSymbolTableRecord
100
AcDbRegAppTableRecord
  2
ACAD
 70
     0
  0
APPID
  5
65F
330
63B
100
AcDbSymbolTableRecord
100
AcDbRegAppTableRecord
  2
ACADANNOTATIVE
 70
     0
  0
APPID
  5
660
330
63B
100
AcDbSymbolTableRecord
100
AcDbRegAppTableRecord
  2
ACAD_MLEADERVER
 70
     0
  0
APPID
  5
661
330
63B
100
AcDbSymbolTableRecord
100
AcDbRegAppTableRecord
  2
ACADANNOPO
 70
     0
  0
APPID
  5
662
330
63B
100
AcDbSymbolTableRecord
100
AcDbRegAppTableRecord
  2
ACAD_DSTYLE_DIMJAG
 70
     0
  0
APPID
  5
663
330
63B
100
AcDbSymbolTableRecord
100
AcDbRegAppTableRecord
  2
ACAD_DSTYLE_DIMTALN
 70
     0
  0
APPID
  5
664
330
63B
100
AcDbSymbolTableRecord
100
AcDbRegAppTableRecord
  2
ACAECLAYERSTANDARD
 70
     0
  0
APPID
  5
665
330
63B
100
AcDbSymbolTableRecord
100
AcDbRegAppTableRecord
  2
ACAD_EXEMPT_FROM_CAD_STAND
 70
     0
  0
ENDTAB
  0
TABLE
  2
DIMSTYLE
  5
63C
330
0
100
AcDbSymbolTable
 70
     4
  0
DIMSTYLE
105
666
330
63C
100
AcDbSymbolTableRecord
100
AcDbDimStyleTableRecord
  2
STANDARD
 70
     0
  3

  4

  5

  6

  7

 40
1.0
 41
0.18
 42
0.0625
 43
0.38
 44
0.18
 45
0.0
 46
0.0
 47
0.0
 48
0.0
140
0.18
141
0.09
142
0.0
143
25.4
144
1.0
145
0.0
146
1.0
147
0.09
 71
     0
 72
     0
 73
     1
 74
     1
 75
     0
 76
     0
 77
     0
 78
     0
170
     0
171
     2
172
     0
173
     0
174
     0
175
     0
176
     0
177
     0
178
     0
270
     2
271
     4
272
     4
273
     2
274
     2
340
643
275
     0
280
     0
281
     0
282
     0
283
     1
284
     0
285
     0
286
     0
287
     3
288
     0
  0
DIMSTYLE
105
667
330
63C
100
AcDbSymbolTableRecord
100
AcDbDimStyleTableRecord
  2
ANNOTATIVE
 70
     0
  3

  4

  5

  6

  7

 40
1.0
 41
0.18
 42
0.0625
 43
0.38
 44
0.18
 45
0.0
 46
0.0
 47
0.0
 48
0.0
140
0.18
141
0.09
142
0.0
143
25.4
144
1.0
145
0.0
146
1.0
147
0.09
 71
     0
 72
     0
 73
     1
 74
     1
 75
     0
 76
     0
 77
     0
 78
     0
170
     0
171
     2
172
     0
173
     0
174
     0
175
     0
176
     0
177
     0
178
     0
270
     2
271
     4
272
     4
273
     2
274
     2
340
643
275
     0
280
     0
281
     0
282
     0
283
     1
284
     0
285
     0
286
     0
287
     3
288
     0
  0
DIMSTYLE
105
668
330
63C
100
AcDbSymbolTableRecord
100
AcDbDimStyleTableRecord
  2
ANNOTATIVA
 70
     0
  3

  4

  5

  6

  7

 40
0.0
 41
0.18
 42
0.0625
 43
0.38
 44
0.18
 45
0.0
 46
0.0
 47
0.0
 48
0.0
140
0.18
141
0.09
142
0.0
143
25.4
144
1.0
145
0.0
146
1.0
147
0.09
 71
     0
 72
     0
 73
     1
 74
     1
 75
     0
 76
     0
 77
     0
 78
     0
170
     0
171
     2
172
     0
173
     0
174
     0
175
     0
176
     0
177
     0
178
     0
270
     2
271
     4
272
     4
273
     2
274
     2
340
643
275
     0
280
     0
281
     0
282
     0
283
     1
284
     0
285
     0
286
     0
287
     3
288
     0
  0
DIMSTYLE
105
669
330
63C
100
AcDbSymbolTableRecord
100
AcDbDimStyleTableRecord
  2
ISO-25
 70
     0
  3

  4

  5

  6

  7

 40
1.0
 41
2.5
 42
0.625
 43
3.75
 44
1.25
 45
0.0
 46
0.0
 47
0.0
 48
0.0
140
2.5
141
2.5
142
0.0
143
0.0393700787
144
1.0
145
0.0
146
1.0
147
0.625
 71
     0
 72
     0
 73
     0
 74
     0
 75
     0
 76
     0
 77
     1
 78
     8
170
     0
171
     3
172
     1
173
     0
174
     0
175
     0
176
     0
177
     0
178
     0
270
     2
271
     4
272
     4
273
     2
274
     2
340
643
275
     0
280
     0
281
     0
282
     0
283
     1
284
     0
285
     0
286
     0
287
     3
288
     0
  0
ENDTAB
  0
TABLE
  2
BLOCK_RECORD
  5
634
330
0
100
AcDbSymbolTable
 70
    12
  0
BLOCK_RECORD
  5
64E
330
634
100
AcDbSymbolTableRecord
100
AcDbBlockTableRecord
  2
*MODEL_SPACE
  0
BLOCK_RECORD
  5
64C
330
634
100
AcDbSymbolTableRecord
100
AcDbBlockTableRecord
  2
*PAPER_SPACE
  0
BLOCK_RECORD
  5
66D
330
634
100
AcDbSymbolTableRecord
100
AcDbBlockTableRecord
  2
*D0
  0
BLOCK_RECORD
  5
66F
330
634
100
AcDbSymbolTableRecord
100
AcDbBlockTableRecord
  2
*U1
  0
BLOCK_RECORD
  5
671
330
634
100
AcDbSymbolTableRecord
100
AcDbBlockTableRecord
  2
*D2
  0
BLOCK_RECORD
  5
673
330
634
100
AcDbSymbolTableRecord
100
AcDbBlockTableRecord
  2
*U3
  0
BLOCK_RECORD
  5
675
330
634
100
AcDbSymbolTableRecord
100
AcDbBlockTableRecord
  2
*D4
  0
BLOCK_RECORD
  5
677
330
634
100
AcDbSymbolTableRecord
100
AcDbBlockTableRecord
  2
*U5
  0
BLOCK_RECORD
  5
679
330
634
100
AcDbSymbolTableRecord
100
AcDbBlockTableRecord
  2
*D6
  0
BLOCK_RECORD
  5
67B
330
634
100
AcDbSymbolTableRecord
100
AcDbBlockTableRecord
  2
*U7
  0
BLOCK_RECORD
  5
67D
330
634
100
AcDbSymbolTableRecord
100
AcDbBlockTableRecord
  2
*D8
  0
BLOCK_RECORD
  5
67F
330
634
100
AcDbSymbolTableRecord
100
AcDbBlockTableRecord
  2
*U9
  0
BLOCK_RECORD
  5
681
330
634
100
AcDbSymbolTableRecord
100
AcDbBlockTableRecord
  2
*D10
  0
BLOCK_RECORD
  5
683
330
634
100
AcDbSymbolTableRecord
100
AcDbBlockTableRecord
  2
*U11
  0
ENDTAB
  0
ENDSEC
  0
SECTION
  2
BLOCKS
  0
BLOCK
  5
66A
330
64E
100
AcDbEntity
  8
0
100
AcDbBlockBegin
  2
*MODEL_SPACE
 70
     0
 10
0.0
 20
0.0
 30
0.0
  3
*MODEL_SPACE
  1

  0
ENDBLK
  5
571
330
64E
100
AcDbEntity
  8
0
100
AcDbBlockEnd
  0
BLOCK
  5
66B
330
64C
100
AcDbEntity
 67
     1
  8
0
100
AcDbBlockBegin
  2
*PAPER_SPACE
 70
     0
 10
0.0
 20
0.0
 30
0.0
  3
*PAPER_SPACE
  1

  0
ENDBLK
  5
56D
330
64C
100
AcDbEntity
 67
     1
  8
0
100
AcDbBlockEnd
  0
BLOCK
  5
66C
330
66D
100
AcDbEntity
  8
0
100
AcDbBlockBegin
  2
*D0
 70
     1
 10
0.0
 20
0.0
 30
0.0
  3
*D0
  1

  0
ARC
  5
42C
330
66D
100
AcDbEntity
  8
0
 62
     0
100
AcDbCircle
 10
2045.113368170619
 20
434.1006147441089
 30
0.0
 40
72.2895404073145
100
AcDbArc
 50
262.7249576752652
 51
342.2469417625846
  0
ARC
  5
42D
330
66D
100
AcDbEntity
  8
0
 62
     0
100
AcDbCircle
 10
2045.113368170619
 20
434.1006147441089
 30
0.0
 40
72.2895404073145
100
AcDbArc
 50
342.5462912494966
 51
62.0683993939742
  0
SOLID
  5
42E
330
66D
100
AcDbEntity
  8
0
 62
     0
100
AcDbTrace
 10
2035.955324487924
 20
362.3632733013876
 30
0.0
 11
2035.962996532306
 21
362.4227807776827
 31
0.0
 12
2035.780638081229
 22
362.4160431726795
 32
0.0
 13
2035.780638081229
 23
362.4160431726795
 33
0.0
  0
SOLID
  5
42F
330
66D
100
AcDbEntity
  8
0
 62
     0
100
AcDbTrace
 10
2078.961010632886
 20
497.942437109893
 30
0.0
 11
2078.989049643675
 21
497.9954825043578
 31
0.0
 12
2078.815893954885
 22
498.0530768394932
 32
0.0
 13
2078.815893954885
 23
498.0530768394932
 33
0.0
  0
INSERT
  5
430
330
66D
100
AcDbEntity
  8
0
100
AcDbBlockReference
  2
*U1
 10
0.0
 20
0.0
 30
0.0
  0
POINT
  5
431
330
66D
100
AcDbEntity
  8
DEFPOINTS
 62
     0
100
AcDbPoint
 10
2096.931366216519
 20
383.6955283855285
 30
0.0
  0
POINT
  5
432
330
66D
100
AcDbEntity
  8
DEFPOINTS
 62
     0
100
AcDbPoint
 10
2161.065890277702
 20
654.1271291479432
 30
0.0
  0
POINT
  5
433
330
66D
100
AcDbEntity
  8
DEFPOINTS
 62
     0
100
AcDbPoint
 10
2045.113368170619
 20
434.1006147441169
 30
0.0
  0
POINT
  5
434
330
66D
100
AcDbEntity
  8
DEFPOINTS
 62
     0
100
AcDbPoint
 10
1989.652432350085
 20
8.105928819802102
 30
0.0
  0
POINT
  5
435
330
66D
100
AcDbEntity
  8
DEFPOINTS
 62
     0
100
AcDbPoint
 10
2045.113368170619
 20
434.100614744111
 30
0.0
  0
ENDBLK
  5
3DD
330
66D
100
AcDbEntity
  8
0
100
AcDbBlockEnd
  0
BLOCK
  5
66E
330
66F
100
AcDbEntity
  8
0
100
AcDbBlockBegin
  2
*U1
 70
     1
 10
0.0
 20
0.0
 30
0.0
  3
*U1
  1

  0
TEXT
  5
4E5
330
66F
100
AcDbEntity
  8
0
 62
     0
100
AcDbText
 10
2113.762816220331
 20
412.1484398462373
 30
0.0
 40
0.18
  1
160°
100
AcDbText
  0
ENDBLK
  5
4E7
330
66F
100
AcDbEntity
  8
0
100
AcDbBlockEnd
  0
BLOCK
  5
670
330
671
100
AcDbEntity
  8
0
100
AcDbBlockBegin
  2
*D2
 70
     1
 10
0.0
 20
0.0
 30
0.0
  3
*D2
  1

  0
ARC
  5
437
330
671
100
AcDbEntity
  8
0
 62
     0
100
AcDbCircle
 10
2161.065890277702
 20
654.1271291479432
 30
0.0
 40
104.3082187845376
100
AcDbArc
 50
242.3099379254651
 51
322.5240518964653
  0
ARC
  5
438
330
671
100
AcDbEntity
  8
0
 62
     0
100
AcDbCircle
 10
2161.065890277702
 20
654.1271291479432
 30
0.0
 40
104.3082187845376
100
AcDbArc
 50
322.7728111756214
 51
42.98713122136625
  0
SOLID
  5
439
330
671
100
AcDbEntity
  8
0
 62
     0
100
AcDbTrace
 10
2112.581100359948
 20
561.7383363025345
 30
0.0
 11
2112.60902749832
 21
561.7914406803428
 31
0.0
 12
2112.435750795711
 22
561.8486699065526
 32
0.0
 13
2112.435750795711
 23
561.8486699065526
 33
0.0
  0
SOLID
  5
43A
330
671
100
AcDbEntity
  8
0
 62
     0
100
AcDbTrace
 10
2237.346140506667
 20
725.2275534800943
 30
0.0
 11
2237.389995603723
 21
725.2685013794572
 31
0.0
 12
2237.245224357105
 22
725.3795927209422
 32
0.0
 13
2237.245224357105
 23
725.3795927209422
 33
0.0
  0
INSERT
  5
43B
330
671
100
AcDbEntity
  8
0
100
AcDbBlockReference
  2
*U3
 10
0.0
 20
0.0
 30
0.0
  0
POINT
  5
43C
330
671
100
AcDbEntity
  8
DEFPOINTS
 62
     0
100
AcDbPoint
 10
2206.523141206353
 20
560.245060338119
 30
0.0
  0
POINT
  5
43D
330
671
100
AcDbEntity
  8
DEFPOINTS
 62
     0
100
AcDbPoint
 10
2161.065890277702
 20
654.1271291479432
 30
0.0
  0
POINT
  5
43E
330
671
100
AcDbEntity
  8
DEFPOINTS
 62
     0
100
AcDbPoint
 10
2324.858559996205
 20
807.3265679941449
 30
0.0
  0
POINT
  5
43F
330
671
100
AcDbEntity
  8
DEFPOINTS
 62
     0
100
AcDbPoint
 10
2161.065890277702
 20
654.1271291479432
 30
0.0
  0
POINT
  5
440
330
671
100
AcDbEntity
  8
DEFPOINTS
 62
     0
100
AcDbPoint
 10
2045.113368170619
 20
434.100614744111
 30
0.0
  0
ENDBLK
  5
3EB
330
671
100
AcDbEntity
  8
0
100
AcDbBlockEnd
  0
BLOCK
  5
672
330
673
100
AcDbEntity
  8
0
100
AcDbBlockBegin
  2
*U3
 70
     1
 10
0.0
 20
0.0
 30
0.0
  3
*U3
  1

  0
TEXT
  5
4E9
330
673
100
AcDbEntity
  8
0
 62
     0
100
AcDbText
 10
2243.743501253133
 20
590.7530529823707
 30
0.0
 40
0.18
  1
161°
100
AcDbText
  0
ENDBLK
  5
4EB
330
673
100
AcDbEntity
  8
0
100
AcDbBlockEnd
  0
BLOCK
  5
674
330
675
100
AcDbEntity
  8
0
100
AcDbBlockBegin
  2
*D4
 70
     1
 10
0.0
 20
0.0
 30
0.0
  3
*D4
  1

  0
ARC
  5
441
330
675
100
AcDbEntity
  8
0
 62
     0
100
AcDbCircle
 10
2324.858559996205
 20
807.3265679941446
 30
0.0
 40
40.34838973579349
100
AcDbArc
 50
223.3416089503543
 51
296.8290515764048
  0
ARC
  5
442
330
675
100
AcDbEntity
  8
0
 62
     0
100
AcDbCircle
 10
2324.858559996205
 20
807.3265679941446
 30
0.0
 40
40.34838973579349
100
AcDbArc
 50
297.9404816778209
 51
11.43832827512815
  0
SOLID
  5
443
330
675
100
AcDbEntity
  8
0
 62
     0
100
AcDbTrace
 10
2295.492340291781
 20
779.6130425615229
 30
0.0
 11
2295.536068510908
 21
779.6541259261857
 31
0.0
 12
2295.390954307356
 22
779.7647689012337
 32
0.0
 13
2295.390954307356
 23
779.7647689012337
 33
0.0
  0
SOLID
  5
444
330
675
100
AcDbEntity
  8
0
 62
     0
100
AcDbTrace
 10
2364.376188712038
 20
815.3221653819302
 30
0.0
 11
2364.434970348532
 21
815.3341953117276
 31
0.0
 12
2364.369489740893
 22
815.504525256315
 32
0.0
 13
2364.369489740893
 23
815.504525256315
 33
0.0
  0
INSERT
  5
445
330
675
100
AcDbEntity
  8
0
100
AcDbBlockReference
  2
*U5
 10
0.0
 20
0.0
 30
0.0
  0
POINT
  5
446
330
675
100
AcDbEntity
  8
DEFPOINTS
 62
     0
100
AcDbPoint
 10
2326.704346320112
 20
767.0204192433897
 30
0.0
  0
POINT
  5
447
330
675
100
AcDbEntity
  8
DEFPOINTS
 62
     0
100
AcDbPoint
 10
2324.858559996205
 20
807.3265679941446
 30
0.0
  0
POINT
  5
448
330
675
100
AcDbEntity
  8
DEFPOINTS
 62
     0
100
AcDbPoint
 10
2523.714418389682
 20
848.4856781892865
 30
0.0
  0
POINT
  5
449
330
675
100
AcDbEntity
  8
DEFPOINTS
 62
     0
100
AcDbPoint
 10
2324.858559996205
 20
807.3265679941446
 30
0.0
  0
POINT
  5
44A
330
675
100
AcDbEntity
  8
DEFPOINTS
 62
     0
100
AcDbPoint
 10
2161.065890277702
 20
654.1271291479432
 30
0.0
  0
ENDBLK
  5
3F9
330
675
100
AcDbEntity
  8
0
100
AcDbBlockEnd
  0
BLOCK
  5
676
330
677
100
AcDbEntity
  8
0
100
AcDbBlockBegin
  2
*U5
 70
     1
 10
0.0
 20
0.0
 30
0.0
  3
*U5
  1

  0
TEXT
  5
4ED
330
677
100
AcDbEntity
  8
0
 62
     0
100
AcDbText
 10
2343.150608256103
 20
771.4113964150898
 30
0.0
 40
0.18
  1
149°
100
AcDbText
  0
ENDBLK
  5
4EF
330
677
100
AcDbEntity
  8
0
100
AcDbBlockEnd
  0
BLOCK
  5
678
330
679
100
AcDbEntity
  8
0
100
AcDbBlockBegin
  2
*D6
 70
     1
 10
0.0
 20
0.0
 30
0.0
  3
*D6
  1

  0
ARC
  5
474
330
679
100
AcDbEntity
  8
0
 62
     0
100
AcDbCircle
 10
2311.41014443934
 20
826.6231670800198
 30
0.0
 40
37.4582308278489
100
AcDbArc
 50
223.425167369384
 51
300.6429730218152
  0
ARC
  5
475
330
679
100
AcDbEntity
  8
0
 62
     0
100
AcDbCircle
 10
2311.41014443934
 20
826.6231670800198
 30
0.0
 40
37.4582308278489
100
AcDbArc
 50
301.7067401174358
 51
18.93270615607061
  0
SOLID
  5
476
330
679
100
AcDbEntity
  8
0
 62
     0
100
AcDbTrace
 10
2284.183412758808
 20
800.8535623855125
 30
0.0
 11
2284.227088097675
 21
800.8947019622588
 31
0.0
 12
2284.081831698004
 22
801.0051581904878
 32
0.0
 13
2284.081831698004
 23
801.0051581904878
 33
0.0
  0
SOLID
  5
477
330
679
100
AcDbEntity
  8
0
 62
     0
100
AcDbTrace
 10
2346.813542784664
 20
838.7669661145987
 30
0.0
 11
2346.870249865053
 21
838.7865698651005
 31
0.0
 12
2346.783085073353
 22
838.9468892310173
 32
0.0
 13
2346.783085073353
 23
838.9468892310173
 33
0.0
  0
INSERT
  5
478
330
679
100
AcDbEntity
  8
0
100
AcDbBlockReference
  2
*U7
 10
0.0
 20
0.0
 30
0.0
  0
POINT
  5
479
330
679
100
AcDbEntity
  8
DEFPOINTS
 62
     0
100
AcDbPoint
 10
2314.785051621542
 20
789.3172820447611
 30
0.0
  0
POINT
  5
47A
330
679
100
AcDbEntity
  8
DEFPOINTS
 62
     0
100
AcDbPoint
 10
2526.274974091633
 20
901.4807959114264
 30
0.0
  0
POINT
  5
47B
330
679
100
AcDbEntity
  8
DEFPOINTS
 62
     0
100
AcDbPoint
 10
2311.41014443934
 20
826.6231670800198
 30
0.0
  0
POINT
  5
47C
330
679
100
AcDbEntity
  8
DEFPOINTS
 62
     0
100
AcDbPoint
 10
2141.705581950873
 20
667.5393249280013
 30
0.0
  0
POINT
  5
47D
330
679
100
AcDbEntity
  8
DEFPOINTS
 62
     0
100
AcDbPoint
 10
2311.41014443934
 20
826.6231670800198
 30
0.0
  0
ENDBLK
  5
473
330
679
100
AcDbEntity
  8
0
100
AcDbBlockEnd
  0
BLOCK
  5
67A
330
67B
100
AcDbEntity
  8
0
100
AcDbBlockBegin
  2
*U7
 70
     1
 10
0.0
 20
0.0
 30
0.0
  3
*U7
  1

  0
TEXT
  5
4F1
330
67B
100
AcDbEntity
  8
0
 62
     0
100
AcDbText
 10
2330.532739625928
 20
794.4856038546901
 30
0.0
 40
0.18
  1
156°
100
AcDbText
  0
ENDBLK
  5
4F3
330
67B
100
AcDbEntity
  8
0
100
AcDbBlockEnd
  0
BLOCK
  5
67C
330
67D
100
AcDbEntity
  8
0
100
AcDbBlockBegin
  2
*D8
 70
     1
 10
0.0
 20
0.0
 30
0.0
  3
*D8
  1

  0
ARC
  5
482
330
67D
100
AcDbEntity
  8
0
 62
     0
100
AcDbCircle
 10
2141.705581950873
 20
667.539324928001
 30
0.0
 40
56.79809470804237
100
AcDbArc
 50
247.2732258495399
 51
324.8991065045018
  0
ARC
  5
483
330
67D
100
AcDbEntity
  8
0
 62
     0
100
AcDbCircle
 10
2141.705581950873
 20
667.539324928001
 30
0.0
 40
56.79809470804237
100
AcDbArc
 50
325.3417866938808
 51
42.96826339293414
  0
SOLID
  5
484
330
67D
100
AcDbEntity
  8
0
 62
     0
100
AcDbTrace
 10
2119.750736838195
 20
615.1235150997993
 30
0.0
 11
2119.774004726939
 21
615.1788197592175
 31
0.0
 12
2119.596456804313
 22
615.2209710957421
 32
0.0
 13
2119.596456804313
 23
615.2209710957421
 33
0.0
  0
SOLID
  5
485
330
67D
100
AcDbEntity
  8
0
 62
     0
100
AcDbTrace
 10
2183.244609180963
 20
706.2320348077373
 30
0.0
 11
2183.288448205559
 21
706.2729999138936
 31
0.0
 12
2183.143633374792
 22
706.3840344346052
 32
0.0
 13
2183.143633374792
 23
706.3840344346052
 33
0.0
  0
INSERT
  5
486
330
67D
100
AcDbEntity
  8
0
100
AcDbBlockReference
  2
*U9
 10
0.0
 20
0.0
 30
0.0
  0
POINT
  5
487
330
67D
100
AcDbEntity
  8
DEFPOINTS
 62
     0
100
AcDbPoint
 10
2169.338072225982
 20
617.9160537373612
 30
0.0
  0
POINT
  5
488
330
67D
100
AcDbEntity
  8
DEFPOINTS
 62
     0
100
AcDbPoint
 10
2311.41014443934
 20
826.6231670800197
 30
0.0
  0
POINT
  5
489
330
67D
100
AcDbEntity
  8
DEFPOINTS
 62
     0
100
AcDbPoint
 10
2141.705581950873
 20
667.539324928001
 30
0.0
  0
POINT
  5
48A
330
67D
100
AcDbEntity
  8
DEFPOINTS
 62
     0
100
AcDbPoint
 10
2053.60569500984
 20
459.0624617772287
 30
0.0
  0
POINT
  5
48B
330
67D
100
AcDbEntity
  8
DEFPOINTS
 62
     0
100
AcDbPoint
 10
2141.705581950873
 20
667.539324928001
 30
0.0
  0
ENDBLK
  5
481
330
67D
100
AcDbEntity
  8
0
100
AcDbBlockEnd
  0
BLOCK
  5
67E
330
67F
100
AcDbEntity
  8
0
100
AcDbBlockBegin
  2
*U9
 70
     1
 10
0.0
 20
0.0
 30
0.0
  3
*U9
  1

  0
TEXT
  5
4F5
330
67F
100
AcDbEntity
  8
0
 62
     0
100
AcDbText
 10
2188.030408671124
 20
634.9693975054608
 30
0.0
 40
0.18
  1
156°
100
AcDbText
  0
ENDBLK
  5
4F7
330
67F
100
AcDbEntity
  8
0
100
AcDbBlockEnd
  0
BLOCK
  5
680
330
681
100
AcDbEntity
  8
0
100
AcDbBlockBegin
  2
*D10
 70
     1
 10
0.0
 20
0.0
 30
0.0
  3
*D10
  1

  0
ARC
  5
490
330
681
100
AcDbEntity
  8
0
 62
     0
100
AcDbCircle
 10
2053.60569500984
 20
459.0624617772291
 30
0.0
 40
41.57865721039768
100
AcDbArc
 50
262.1763568718398
 51
344.2524295796096
  0
ARC
  5
491
330
681
100
AcDbEntity
  8
0
 62
     0
100
AcDbCircle
 10
2053.60569500984
 20
459.0624617772291
 30
0.0
 40
41.57865721039768
100
AcDbArc
 50
344.7672135072849
 51
66.84360666896244
  0
SOLID
  5
492
330
681
100
AcDbEntity
  8
0
 62
     0
100
AcDbTrace
 10
2047.941677464072
 20
417.8411171333523
 30
0.0
 11
2047.949973573963
 21
417.9005408202177
 31
0.0
 12
2047.767554458421
 22
417.8957173064595
 32
0.0
 13
2047.767554458421
 23
417.8957173064595
 33
0.0
  0
SOLID
  5
493
330
681
100
AcDbEntity
  8
0
 62
     0
100
AcDbTrace
 10
2069.944442607974
 20
497.2637215569267
 30
0.0
 11
2069.96791767732
 21
497.3189385934212
 31
0.0
 12
2069.790529033165
 22
497.3617552832092
 32
0.0
 13
2069.790529033165
 23
497.3617552832092
 33
0.0
  0
INSERT
  5
494
330
681
100
AcDbEntity
  8
0
100
AcDbBlockReference
  2
*U11
 10
0.0
 20
0.0
 30
0.0
  0
POINT
  5
495
330
681
100
AcDbEntity
  8
DEFPOINTS
 62
     0
100
AcDbPoint
 10
2084.005865904952
 20
430.6967369501121
 30
0.0
  0
POINT
  5
496
330
681
100
AcDbEntity
  8
DEFPOINTS
 62
     0
100
AcDbPoint
 10
2141.705581950873
 20
667.5393249280013
 30
0.0
  0
POINT
  5
497
330
681
100
AcDbEntity
  8
DEFPOINTS
 62
     0
100
AcDbPoint
 10
2053.60569500984
 20
459.0624617772289
 30
0.0
  0
POINT
  5
498
330
681
100
AcDbEntity
  8
DEFPOINTS
 62
     0
100
AcDbPoint
 10
1989.652432350085
 20
8.105928819802159
 30
0.0
  0
POINT
  5
499
330
681
100
AcDbEntity
  8
DEFPOINTS
 62
     0
100
AcDbPoint
 10
2053.60569500984
 20
459.0624617772289
 30
0.0
  0
ENDBLK
  5
48F
330
681
100
AcDbEntity
  8
0
100
AcDbBlockEnd
  0
BLOCK
  5
682
330
683
100
AcDbEntity
  8
0
100
AcDbBlockBegin
  2
*U11
 70
     1
 10
0.0
 20
0.0
 30
0.0
  3
*U11
  1

  0
TEXT
  5
4F9
330
683
100
AcDbEntity
  8
0
 62
     0
100
AcDbText
 10
2093.404090465373
 20
447.8680292821029
 30
0.0
 40
0.18
  1
165°
100
AcDbText
  0
ENDBLK
  5
4FB
330
683
100
AcDbEntity
  8
0
100
AcDbBlockEnd
  0
ENDSEC
  0
SECTION
  2
ENTITIES
  0
LINE
  5
5E8
330
64E
100
AcDbEntity
  8
0
100
AcDbLine
 39
31.83440005694778
 10
1568.22164804273
 20
1160.981855789225
 30
0.0
 11
1568.22164804276
 21
936.4504082577193
 31
0.0
  0
LINE
  5
5E9
330
64E
100
AcDbEntity
  8
0
100
AcDbLine
 39
31.83440005694778
 10
1568.22164804276
 20
932.4504082577192
 30
0.0
 11
1568.22164804276
 21
703.8406333916334
 31
0.0
  0
LINE
  5
5EA
330
64E
100
AcDbEntity
  8
0
100
AcDbLine
 39
31.83440005694778
 10
1568.22164804276
 20
699.8406333916334
 30
0.0
 11
1568.22164804276
 21
477.5130112413356
 31
0.0
  0
LINE
  5
5EB
330
64E
100
AcDbEntity
  8
0
100
AcDbLine
 39
31.83440005694778
 10
1568.22164804276
 20
473.5130112413356
 30
0.0
 11
1568.221648042752
 21
20.08199768385964
 31
0.0
  0
LINE
  5
5EC
330
64E
100
AcDbEntity
  8
0
100
AcDbLine
 39
31.83440005694778
 10
1568.221648042752
 20
16.08199768385953
 30
0.0
 11
1568.22164804276
 21
-37.42102575267484
 31
0.0
  0
LINE
  5
5ED
330
64E
100
AcDbEntity
  8
0
100
AcDbLine
 39
31.83440005694778
 10
1568.22164804276
 20
-41.42102575267483
 30
0.0
 11
1568.221648042774
 21
-46.42102575265835
 31
0.0
  0
ARC
  5
5EE
330
64E
100
AcDbEntity
  8
0
100
AcDbCircle
 39
31.83440005694778
 10
1553.221648042774
 20
-46.42102575267506
 30
0.0
 40
15.0
100
AcDbArc
 50
270.0
 51
0.0000000000651378
  0
LINE
  5
5EF
330
64E
100
AcDbEntity
  8
0
100
AcDbLine
 39
31.83440005694778
 10
408.2216480427879
 20
1185.981855789197
 30
0.0
 11
408.2216480428177
 21
1164.981855789196
 31
0.0
  0
LINE
  5
5F0
330
64E
100
AcDbEntity
  8
0
100
AcDbLine
 39
31.83440005694778
 10
408.221648042788
 20
1160.981855789167
 30
0.0
 11
408.221648042788
 21
936.4504082577193
 31
0.0
  0
LINE
  5
5F1
330
64E
100
AcDbEntity
  8
0
100
AcDbLine
 39
31.83440005694778
 10
408.221648042788
 20
932.4504082577192
 30
0.0
 11
408.2216480427591
 21
703.8406333916334
 31
0.0
  0
LINE
  5
5F2
330
64E
100
AcDbEntity
  8
0
100
AcDbLine
 39
31.83440005694778
 10
408.221648042788
 20
699.8406333916334
 30
0.0
 11
408.2216480427591
 21
477.5130112413356
 31
0.0
  0
LINE
  5
5F3
330
64E
100
AcDbEntity
  8
0
100
AcDbLine
 39
31.83440005694778
 10
408.221648042788
 20
473.5130112413059
 30
0.0
 11
408.221648042781
 21
20.08199768385964
 31
0.0
  0
LINE
  5
5F4
330
64E
100
AcDbEntity
  8
0
100
AcDbLine
 39
31.83440005694778
 10
408.2216480427879
 20
1185.981855789197
 30
0.0
 11
1568.22164804276
 21
1185.981855789197
 31
0.0
  0
LINE
  5
5F5
330
64E
100
AcDbEntity
  8
0
100
AcDbLine
 39
31.83440005694778
 10
1568.22164804276
 20
1185.981855789197
 30
0.0
 11
1568.22164804276
 21
1164.981855789196
 31
0.0
  0
LINE
  5
5F6
330
64E
100
AcDbEntity
  8
0
100
AcDbLine
 39
31.83440005694778
 10
423.221648042788
 20
-61.42102575267484
 30
0.0
 11
1553.221648042774
 21
-61.42102575267506
 31
0.0
  0
ARC
  5
5F7
330
64E
100
AcDbEntity
  8
0
100
AcDbCircle
 39
31.83440005694778
 10
423.221648042788
 20
-46.42102575267484
 30
0.0
 40
15.0
100
AcDbArc
 50
180.0
 51
270.0
  0
LINE
  5
5F8
330
64E
100
AcDbEntity
  8
0
100
AcDbLine
 39
31.83440005694778
 10
408.221648042788
 20
-41.42102575267483
 30
0.0
 11
408.221648042788
 21
-46.42102575267484
 31
0.0
  0
LINE
  5
5F9
330
64E
100
AcDbEntity
  8
0
100
AcDbLine
 39
31.83440005694778
 10
408.221648042781
 20
16.08199768385953
 30
0.0
 11
408.2216480428177
 21
-37.42102575267484
 31
0.0
  0
LINE
  5
5FA
330
64E
100
AcDbEntity
  8
0
100
AcDbLine
 10
408.221648042781
 20
20.08199768385964
 30
0.0
 11
416.221648042781
 21
18.08199768385975
 31
0.0
  0
LINE
  5
5FB
330
64E
100
AcDbEntity
  8
0
100
AcDbLine
 10
416.221648042781
 20
18.08199768385975
 30
0.0
 11
408.221648042781
 21
16.08199768385953
 31
0.0
  0
LINE
  5
5FC
330
64E
100
AcDbEntity
  8
0
100
AcDbLine
 10
416.221648042788
 20
-39.42102575267483
 30
0.0
 11
408.221648042788
 21
-41.42102575267483
 31
0.0
  0
LINE
  5
5FD
330
64E
100
AcDbEntity
  8
0
100
AcDbLine
 10
408.221648042788
 20
-37.42102575267484
 30
0.0
 11
416.221648042788
 21
-39.42102575267483
 31
0.0
  0
LINE
  5
5FE
330
64E
100
AcDbEntity
  8
0
100
AcDbLine
 10
416.221648042788
 20
475.5130112413357
 30
0.0
 11
408.221648042788
 21
473.5130112413356
 31
0.0
  0
LINE
  5
5FF
330
64E
100
AcDbEntity
  8
0
100
AcDbLine
 10
408.221648042788
 20
477.5130112413356
 30
0.0
 11
416.221648042788
 21
475.5130112413357
 31
0.0
  0
LINE
  5
600
330
64E
100
AcDbEntity
  8
0
100
AcDbLine
 10
416.221648042788
 20
701.8406333916349
 30
0.0
 11
408.221648042788
 21
699.8406333916334
 31
0.0
  0
LINE
  5
601
330
64E
100
AcDbEntity
  8
0
100
AcDbLine
 10
408.221648042788
 20
703.8406333916334
 30
0.0
 11
416.221648042788
 21
701.8406333916349
 31
0.0
  0
LINE
  5
602
330
64E
100
AcDbEntity
  8
0
100
AcDbLine
 10
416.221648042788
 20
934.4504082577191
 30
0.0
 11
408.221648042788
 21
932.4504082577192
 31
0.0
  0
LINE
  5
603
330
64E
100
AcDbEntity
  8
0
100
AcDbLine
 10
408.221648042788
 20
936.4504082577193
 30
0.0
 11
416.221648042788
 21
934.4504082577191
 31
0.0
  0
LINE
  5
604
330
64E
100
AcDbEntity
  8
0
100
AcDbLine
 10
408.221648042788
 20
1164.981855789196
 30
0.0
 11
416.221648042788
 21
1162.981855789197
 31
0.0
  0
LINE
  5
605
330
64E
100
AcDbEntity
  8
0
100
AcDbLine
 10
416.221648042788
 20
1162.981855789197
 30
0.0
 11
408.221648042788
 21
1160.981855789197
 31
0.0
  0
LINE
  5
606
330
64E
100
AcDbEntity
  8
0
100
AcDbLine
 10
1560.221648042752
 20
18.08199768385975
 30
0.0
 11
1568.221648042752
 21
16.08199768385953
 31
0.0
  0
LINE
  5
607
330
64E
100
AcDbEntity
  8
0
100
AcDbLine
 10
1568.221648042752
 20
20.08199768385964
 30
0.0
 11
1560.221648042752
 21
18.08199768385975
 31
0.0
  0
LINE
  5
608
330
64E
100
AcDbEntity
  8
0
100
AcDbLine
 10
1568.22164804276
 20
-37.42102575267484
 30
0.0
 11
1560.22164804276
 21
-39.42102575267483
 31
0.0
  0
LINE
  5
609
330
64E
100
AcDbEntity
  8
0
100
AcDbLine
 10
1560.22164804276
 20
-39.42102575267483
 30
0.0
 11
1568.22164804276
 21
-41.42102575267483
 31
0.0
  0
LINE
  5
60A
330
64E
100
AcDbEntity
  8
0
100
AcDbLine
 10
1568.22164804276
 20
477.5130112413356
 30
0.0
 11
1560.22164804276
 21
475.5130112413357
 31
0.0
  0
LINE
  5
60B
330
64E
100
AcDbEntity
  8
0
100
AcDbLine
 10
1560.22164804276
 20
475.5130112413357
 30
0.0
 11
1568.22164804276
 21
473.5130112413356
 31
0.0
  0
LINE
  5
60C
330
64E
100
AcDbEntity
  8
0
100
AcDbLine
 10
1568.22164804276
 20
703.8406333916334
 30
0.0
 11
1560.22164804276
 21
701.8406333916349
 31
0.0
  0
LINE
  5
60D
330
64E
100
AcDbEntity
  8
0
100
AcDbLine
 10
1560.22164804276
 20
701.8406333916349
 30
0.0
 11
1568.22164804276
 21
699.8406333916334
 31
0.0
  0
LINE
  5
60E
330
64E
100
AcDbEntity
  8
0
100
AcDbLine
 10
1560.22164804276
 20
934.4504082577191
 30
0.0
 11
1568.22164804276
 21
932.4504082577192
 31
0.0
  0
LINE
  5
60F
330
64E
100
AcDbEntity
  8
0
100
AcDbLine
 10
1568.22164804276
 20
936.4504082577193
 30
0.0
 11
1560.22164804276
 21
934.4504082577191
 31
0.0
  0
LINE
  5
610
330
64E
100
AcDbEntity
  8
0
100
AcDbLine
 10
1560.22164804276
 20
1162.981855789197
 30
0.0
 11
1568.22164804276
 21
1160.981855789197
 31
0.0
  0
LINE
  5
611
330
64E
100
AcDbEntity
  8
0
100
AcDbLine
 10
1568.22164804276
 20
1164.981855789196
 30
0.0
 11
1560.22164804276
 21
1162.981855789197
 31
0.0
  0
ENDSEC
  0
SECTION
  2
OBJECTS
  0
DICTIONARY
  5
63E
330
0
100
AcDbDictionary
  3
ACAD_DETAILVIEWSTYLE
350
772
  3
ACAD_GROUP
350
63F
  3
ACAD_MLINESTYLE
350
648
  3
ACAD_SCALELIST
350
7C2
  3
ACAD_SECTIONVIEWSTYLE
350
773
  3
ACDBVARIABLEDICTIONARY
350
76D
  3
APPDATA
350
6C3
  3
DWGPROPS
350
808
  0
DICTIONARY
  5
772
102
{ACAD_REACTORS
330
63E
102
}
330
63E
100
AcDbDictionary
  0
DICTIONARY
  5
63F
102
{ACAD_REACTORS
330
63E
102
}
330
63E
100
AcDbDictionary
  0
DICTIONARY
  5
648
102
{ACAD_REACTORS
330
63E
102
}
330
63E
100
AcDbDictionary
  3
STANDARD
350
649
  0
DICTIONARY
  5
7C2
102
{ACAD_REACTORS
330
63E
102
}
330
63E
100
AcDbDictionary
  0
DICTIONARY
  5
773
102
{ACAD_REACTORS
330
63E
102
}
330
63E
100
AcDbDictionary
  0
DICTIONARY
  5
76D
102
{ACAD_REACTORS
330
63E
102
}
330
63E
100
AcDbDictionary
  0
DICTIONARY
  5
6C3
102
{ACAD_REACTORS
330
63E
102
}
330
63E
100
AcDbDictionary
  0
XRECORD
  5
808
102
{ACAD_REACTORS
330
63E
102
}
330
63E
100
AcDbXrecord
  1
DWGPROPS COOKIE
  2

  3

  4

  6

  7

  8
Principale
  9

300
=
301
=
302
=
303
=
304
=
305
=
306
=
307
=
308
=
309
=
 40
0.0
 41
2455538.309027743
 42
2459290.662874259
  1

 90
        0
  0
MLINESTYLE
  5
649
102
{ACAD_REACTORS
330
648
102
}
330
648
100
AcDbMlineStyle
  2
Standard
 70
     0
  3

 62
   256
 51
90.0
 52
90.0
 71
     2
 49
0.5
 62
   256
  6
BYLAYER
 49
-0.5
 62
   256
  6
BYLAYER
  0
ENDSEC
  0
EOF
