  0
SECTION
  2
HEADER
  9
$ACADVER
  1
AC1009
  9
$INSBASE
 10
0.0
 20
0.0
 30
0.0
  9
$EXTMIN
 10
24.48790854526797
 20
8.2114977573622792
 30
0.0
  9
$EXTMAX
 10
244.8549662741934
 20
619.21149775736217
 30
0.0
  9
$LIMMIN
 10
0.0
 20
0.0
  9
$LIMMAX
 10
12.0
 20
9.0
  9
$ORTHOMODE
 70
     1
  9
$REGENMODE
 70
     1
  9
$FILLMODE
 70
     1
  9
$QTEXTMODE
 70
     0
  9
$MIRRTEXT
 70
     0
  9
$DRAGMODE
 70
     2
  9
$LTSCALE
 40
1.0
  9
$OSMODE
 70
  3071
  9
$ATTMODE
 70
     1
  9
$TEXTSIZE
 40
0.2
  9
$TRACEWID
 40
0.05
  9
$TEXTSTYLE
  7
STANDARD
  9
$CLAYER
  8
0
  9
$CELTYPE
  6
BYLAYER
  9
$CECOLOR
 62
   256
  9
$DIMSCALE
 40
1.0
  9
$DIMASZ
 40
0.18
  9
$DIMEXO
 40
0.0625
  9
$DIMDLI
 40
0.38
  9
$DIMRND
 40
0.0
  9
$DIMDLE
 40
0.0
  9
$DIMEXE
 40
0.18
  9
$DIMTP
 40
0.0
  9
$DIMTM
 40
0.0
  9
$DIMTXT
 40
0.18
  9
$DIMCEN
 40
0.09
  9
$DIMTSZ
 40
0.0
  9
$DIMTOL
 70
     0
  9
$DIMLIM
 70
     0
  9
$DIMTIH
 70
     1
  9
$DIMTOH
 70
     1
  9
$DIMSE1
 70
     0
  9
$DIMSE2
 70
     0
  9
$DIMTAD
 70
     0
  9
$DIMZIN
 70
     0
  9
$DIMBLK
  1

  9
$DIMASO
 70
     1
  9
$DIMSHO
 70
     1
  9
$DIMPOST
  1

  9
$DIMAPOST
  1

  9
$DIMALT
 70
     0
  9
$DIMALTD
 70
     2
  9
$DIMALTF
 40
25.399999999999999
  9
$DIMLFAC
 40
1.0
  9
$DIMTOFL
 70
     0
  9
$DIMTVP
 40
0.0
  9
$DIMTIX
 70
     0
  9
$DIMSOXD
 70
     0
  9
$DIMSAH
 70
     0
  9
$DIMBLK1
  1

  9
$DIMBLK2
  1

  9
$DIMSTYLE
  2
STANDARD
  9
$DIMCLRD
 70
     0
  9
$DIMCLRE
 70
     0
  9
$DIMCLRT
 70
     0
  9
$DIMTFAC
 40
1.0
  9
$DIMGAP
 40
0.09
  9
$LUNITS
 70
     2
  9
$LUPREC
 70
     4
  9
$SKETCHINC
 40
0.1
  9
$FILLETRAD
 40
0.0
  9
$AUNITS
 70
     0
  9
$AUPREC
 70
     0
  9
$MENU
  1
.
  9
$ELEVATION
 40
0.0
  9
$PELEVATION
 40
0.0
  9
$THICKNESS
 40
0.0
  9
$LIMCHECK
 70
     0
  9
$BLIPMODE
 70
     0
  9
$CHAMFERA
 40
0.0
  9
$CHAMFERB
 40
0.0
  9
$SKPOLY
 70
     0
  9
$TDCREATE
 40
2455531.3752898849
  9
$TDUPDATE
 40
2456013.5459633558
  9
$TDINDWG
 40
0.0032600926
  9
$TDUSRTIMER
 40
0.0032597338
  9
$USRTIMER
 70
     1
  9
$ANGBASE
 50
0.0
  9
$ANGDIR
 70
     0
  9
$PDMODE
 70
     0
  9
$PDSIZE
 40
0.0
  9
$PLINEWID
 40
0.0
  9
$COORDS
 70
     0
  9
$SPLFRAME
 70
     0
  9
$SPLINETYPE
 70
     6
  9
$SPLINESEGS
 70
     8
  9
$ATTDIA
 70
     0
  9
$ATTREQ
 70
     1
  9
$HANDLING
 70
     1
  9
$HANDSEED
  5
3AC
  9
$SURFTAB1
 70
     6
  9
$SURFTAB2
 70
     6
  9
$SURFTYPE
 70
     6
  9
$SURFU
 70
     6
  9
$SURFV
 70
     6
  9
$UCSNAME
  2

  9
$UCSORG
 10
0.0
 20
0.0
 30
0.0
  9
$UCSXDIR
 10
1.0
 20
0.0
 30
0.0
  9
$UCSYDIR
 10
0.0
 20
1.0
 30
0.0
  9
$PUCSNAME
  2

  9
$PUCSORG
 10
0.0
 20
0.0
 30
0.0
  9
$PUCSXDIR
 10
1.0
 20
0.0
 30
0.0
  9
$PUCSYDIR
 10
0.0
 20
1.0
 30
0.0
  9
$USERI1
 70
     0
  9
$USERI2
 70
     0
  9
$USERI3
 70
     0
  9
$USERI4
 70
     0
  9
$USERI5
 70
     0
  9
$USERR1
 40
0.0
  9
$USERR2
 40
0.0
  9
$USERR3
 40
0.0
  9
$USERR4
 40
0.0
  9
$USERR5
 40
0.0
  9
$WORLDVIEW
 70
     1
  9
$SHADEDGE
 70
     3
  9
$SHADEDIF
 70
    70
  9
$TILEMODE
 70
     1
  9
$MAXACTVP
 70
    64
  9
$PLIMCHECK
 70
     0
  9
$PEXTMIN
 10
0.0
 20
0.0
 30
0.0
  9
$PEXTMAX
 10
0.0
 20
0.0
 30
0.0
  9
$PLIMMIN
 10
0.0
 20
0.0
  9
$PLIMMAX
 10
12.0
 20
9.0
  9
$UNITMODE
 70
     0
  9
$VISRETAIN
 70
     1
  9
$PLINEGEN
 70
     0
  9
$PSLTSCALE
 70
     1
  0
ENDSEC
  0
SECTION
  2
TABLES
  0
TABLE
  2
VPORT
 70
     1
  0
VPORT
  2
*ACTIVE
 70
     0
 10
0.0
 20
0.0
 11
1.0
 21
1.0
 12
873.89001818915847
 22
265.38493463305042
 13
0.0
 23
0.0
 14
0.5
 24
0.5
 15
0.5
 25
0.5
 16
0.0
 26
0.0
 36
1.0
 17
0.0
 27
0.0
 37
0.0
 40
1136.505344340196
 41
2.7925531914893611
 42
50.0
 43
0.0
 44
0.0
 50
0.0
 51
0.0
 71
     0
 72
  1000
 73
     1
 74
     3
 75
     0
 76
     0
 77
     0
 78
     0
  0
ENDTAB
  0
TABLE
  2
LTYPE
 70
     2
  0
LTYPE
  2
CONTINUOUS
 70
     0
  3
Solid line
 72
    65
 73
     0
 40
0.0
  0
LTYPE
  2
CENTERX2
 70
     0
  3
Center (2x) ________  __  ________  __  _____
 72
    65
 73
     4
 40
20.32
 49
12.699999999999999
 49
-2.54
 49
2.54
 49
-2.54
  0
ENDTAB
  0
TABLE
  2
LAYER
 70
     2
  0
LAYER
  2
0
 70
     0
 62
     7
  6
CONTINUOUS
  0
LAYER
  2
CONTORNO
 70
     0
 62
     7
  6
CONTINUOUS
  0
ENDTAB
  0
TABLE
  2
STYLE
 70
     3
  0
STYLE
  2
STANDARD
 70
     0
 40
0.0
 41
1.0
 50
0.0
 71
     0
 42
0.2
  3
txt.shx
  4

  0
STYLE
  2
ANNOTATIVE
 70
     0
 40
0.0
 41
1.0
 50
0.0
 71
     0
 42
0.2
  3
txt
  4

  0
STYLE
  2
ANNOTATIVA
 70
     0
 40
0.0
 41
1.0
 50
0.0
 71
     0
 42
0.2
  3
txt.shx
  4

  0
ENDTAB
  0
TABLE
  2
VIEW
 70
     0
  0
ENDTAB
  0
TABLE
  2
UCS
 70
     0
  0
ENDTAB
  0
TABLE
  2
APPID
 70
     6
  0
APPID
  2
ACAD
 70
     0
  0
APPID
  2
ACADANNOTATIVE
 70
     0
  0
APPID
  2
ACAD_MLEADERVER
 70
     0
  0
APPID
  2
ACADANNOPO
 70
     0
  0
APPID
  2
ACAD_DSTYLE_DIMJAG
 70
     0
  0
APPID
  2
ACAD_DSTYLE_DIMTALN
 70
     0
  0
ENDTAB
  0
TABLE
  2
DIMSTYLE
 70
     4
  0
DIMSTYLE
  2
STANDARD
 70
     0
  3

  4

  5

  6

  7

 40
1.0
 41
0.18
 42
0.0625
 43
0.38
 44
0.18
 45
0.0
 46
0.0
 47
0.0
 48
0.0
140
0.18
141
0.09
142
0.0
143
25.399999999999999
144
1.0
145
0.0
146
1.0
147
0.09
 71
     0
 72
     0
 73
     1
 74
     1
 75
     0
 76
     0
 77
     0
 78
     0
170
     0
171
     2
172
     0
173
     0
174
     0
175
     0
176
     0
177
     0
178
     0
  0
DIMSTYLE
  2
ANNOTATIVE
 70
     0
  3

  4

  5

  6

  7

 40
1.0
 41
0.18
 42
0.0625
 43
0.38
 44
0.18
 45
0.0
 46
0.0
 47
0.0
 48
0.0
140
0.18
141
0.09
142
0.0
143
25.399999999999999
144
1.0
145
0.0
146
1.0
147
0.09
 71
     0
 72
     0
 73
     1
 74
     1
 75
     0
 76
     0
 77
     0
 78
     0
170
     0
171
     2
172
     0
173
     0
174
     0
175
     0
176
     0
177
     0
178
     0
  0
DIMSTYLE
  2
ANNOTATIVA
 70
     0
  3

  4

  5

  6

  7

 40
0.0
 41
0.18
 42
0.0625
 43
0.38
 44
0.18
 45
0.0
 46
0.0
 47
0.0
 48
0.0
140
0.18
141
0.09
142
0.0
143
25.399999999999999
144
1.0
145
0.0
146
1.0
147
0.09
 71
     0
 72
     0
 73
     1
 74
     1
 75
     0
 76
     0
 77
     0
 78
     0
170
     0
171
     2
172
     0
173
     0
174
     0
175
     0
176
     0
177
     0
178
     0
  0
DIMSTYLE
  2
ISO-25
 70
     0
  3

  4

  5

  6

  7

 40
1.0
 41
2.5
 42
0.625
 43
3.75
 44
1.25
 45
0.0
 46
0.0
 47
0.0
 48
0.0
140
2.5
141
2.5
142
0.0
143
0.0393700787
144
1.0
145
0.0
146
1.0
147
0.625
 71
     0
 72
     0
 73
     0
 74
     0
 75
     0
 76
     0
 77
     1
 78
     8
170
     0
171
     3
172
     1
173
     0
174
     0
175
     0
176
     0
177
     0
178
     0
  0
ENDTAB
  0
ENDSEC
  0
SECTION
  2
BLOCKS
  0
BLOCK
  8
0
  2
$MODEL_SPACE
 70
     0
 10
0.0
 20
0.0
 30
0.0
  3
$MODEL_SPACE
  1

  0
ENDBLK
  5
380
  8
0
  0
BLOCK
 67
     1
  8
0
  2
$PAPER_SPACE
 70
     0
 10
0.0
 20
0.0
 30
0.0
  3
$PAPER_SPACE
  1

  0
ENDBLK
  5
37C
 67
     1
  8
0
  0
ENDSEC
  0
SECTION
  2
ENTITIES
  0
LINE
  5
177
  8
0
  6
CENTERX2
 62
     7
 10
170.97683671479271
 20
541.59956839597714
 30
0.0
 11
170.97683671479271
 21
21.211497756924832
 31
0.0
  0
LINE
  5
178
  8
0
  6
CENTERX2
 62
     7
 10
134.6714374096928
 20
21.211497756924871
 30
0.0
 11
134.6714374096928
 21
572.58928825478165
 31
0.0
  0
LINE
  5
179
  8
0
  6
CENTERX2
 62
     7
 10
98.366038104693075
 20
21.211497757362281
 30
0.0
 11
98.366038104693075
 21
601.52948797896556
 31
0.0
  0
LINE
  5
17A
  8
0
  6
CONTINUOUS
 62
     7
 10
174.11842936839281
 20
548.54341152406209
 30
0.0
 11
172.8684356625626
 21
549.39381056029765
 31
0.0
  0
LINE
  5
17B
  8
0
  6
CONTINUOUS
 62
     7
 10
209.49962721479289
 20
548.54341152406209
 30
0.0
 11
174.11842936839281
 21
548.54341152406209
 31
0.0
  0
LINE
  5
17C
  8
0
  6
CONTINUOUS
 62
     7
 10
209.49962721479289
 20
397.16481656316222
 30
0.0
 11
209.49962721479289
 21
548.54341152406209
 31
0.0
  0
LINE
  5
17D
  8
0
  6
CONTINUOUS
 62
     7
 10
243.97628661759339
 20
360.20287578596219
 30
0.0
 11
211.2569865276929
 21
392.92217587606223
 31
0.0
  0
LINE
  5
17E
  8
0
  6
CONTINUOUS
 62
     7
 10
244.8549662741934
 20
293.05211819096218
 30
0.0
 11
244.8549662740935
 21
358.08155544246222
 31
0.0
  0
LINE
  5
17F
  8
0
  6
CONTINUOUS
 62
     7
 10
211.2569865276929
 20
258.21149775746221
 30
0.0
 11
243.97628661769349
 21
290.93079784736221
 31
0.0
  0
LINE
  5
180
  8
0
  6
CONTINUOUS
 62
     7
 10
209.49962721479289
 20
8.2114977573625083
 30
0.0
 11
209.49962721479289
 21
253.96885707026209
 31
0.0
  0
LINE
  5
181
  8
0
  6
CONTINUOUS
 62
     7
 10
101.366038104693
 20
11.211497757362279
 30
0.0
 11
131.67143740959281
 21
11.211497757362279
 31
0.0
  0
LINE
  5
182
  8
0
  6
CONTINUOUS
 62
     7
 10
59.84324760459284
 20
8.2114977573622792
 30
0.0
 11
95.366038104693047
 21
8.2114977573622792
 31
0.0
  0
LINE
  5
183
  8
0
  6
CONTINUOUS
 62
     7
 10
173.97683671469269
 20
8.2114977573622792
 30
0.0
 11
209.49962721479289
 21
8.2114977573622792
 31
0.0
  0
LINE
  5
184
  8
0
  6
CONTINUOUS
 62
     7
 10
59.84324760459284
 20
253.96885707026209
 30
0.0
 11
59.843247604593763
 21
8.2114977573625083
 31
0.0
  0
LINE
  5
185
  8
0
  6
CONTINUOUS
 62
     7
 10
25.36658820169313
 20
290.93079784736221
 30
0.0
 11
58.085888291692839
 21
258.21149775736228
 31
0.0
  0
LINE
  5
186
  8
0
  6
CONTINUOUS
 62
     7
 10
24.487908545293148
 20
358.08155544246222
 30
0.0
 11
24.487908545293148
 21
293.05211819096218
 31
0.0
  0
LINE
  5
187
  8
0
  6
CONTINUOUS
 62
     7
 10
58.085888291692839
 20
392.92217587606223
 30
0.0
 11
25.366588201793181
 21
360.20287578596219
 31
0.0
  0
LINE
  5
188
  8
0
  6
CONTINUOUS
 62
     7
 10
59.84324760459284
 20
619.21149775736217
 30
0.0
 11
59.84324760459284
 21
397.16481656316222
 31
0.0
  0
LINE
  5
189
  8
0
  6
CONTINUOUS
 62
     7
 10
59.84324760459284
 20
619.21149775736217
 30
0.0
 11
94.285574309677159
 21
619.21149775736217
 31
0.0
  0
LINE
  5
18A
  8
0
  6
CONTINUOUS
 62
     7
 10
101.5076307582931
 20
611.93690444956223
 30
0.0
 11
101.4915459115615
 21
611.94784733518975
 31
0.0
  0
LINE
  5
18B
  8
0
  6
CONTINUOUS
 62
     7
 10
101.5076307582931
 20
611.93690444956223
 30
0.0
 11
129.00029883446399
 21
589.93751733335591
 31
0.0
  0
LINE
  5
18C
  8
0
  6
CONTINUOUS
 62
     7
 10
137.81303006329301
 20
580.60286133286195
 30
0.0
 11
136.82953584264581
 21
581.94104813090814
 31
0.0
  0
LINE
  5
18D
  8
0
  6
CONTINUOUS
 62
     7
 10
137.81303006329301
 20
580.60286133286195
 30
0.0
 11
167.52523353889109
 21
553.10491231565311
 31
0.0
  0
ARC
  5
18E
  8
0
  6
CONTINUOUS
 62
     7
 10
215.4996272149929
 20
397.16481656316222
 30
0.0
 40
6.000000000170429
 50
180.00000000040379
 51
224.9999999990236
  0
ARC
  5
18F
  8
0
  6
CONTINUOUS
 62
     7
 10
241.8549662739934
 20
293.05211819106222
 30
0.0
 40
3.0000000001534062
 50
315.00000000068161
 51
359.99999999839758
  0
ARC
  5
190
  8
0
  6
CONTINUOUS
 62
     7
 10
215.4996272144927
 20
253.96885707046209
 30
0.0
 40
5.9999999996979332
 50
134.9999999989038
 51
180.00000000179779
  0
ARC
  5
191
  8
0
  6
CONTINUOUS
 62
     7
 10
53.843247604592847
 20
253.96885707026209
 30
0.0
 40
5.9999999999996083
 50
0.0
 51
44.999999999990777
  0
ARC
  5
192
  8
0
  6
CONTINUOUS
 62
     7
 10
27.487908545293148
 20
293.05211819096218
 30
0.0
 40
2.9999999999982121
 50
180.0
 51
224.99999999999079
  0
ARC
  5
193
  8
0
  6
CONTINUOUS
 62
     7
 10
27.48790854479293
 20
358.08155544256198
 30
0.0
 40
2.9999999995249671
 50
134.9999999944913
 51
180.00000000209741
  0
ARC
  5
194
  8
0
  6
CONTINUOUS
 62
     7
 10
53.843247604592847
 20
397.16481656316222
 30
0.0
 40
5.9999999999998259
 50
315.00000000000909
 51
0.0
  0
ARC
  5
195
  8
0
  6
CONTINUOUS
 62
     7
 10
241.85496627459281
 20
358.08155544256198
 30
0.0
 40
2.9999999995216311
 50
359.99999999779823
 51
45.000000005508703
  0
LINE
  5
19B
  8
0
 10
95.366038104693047
 20
8.2114977573625083
 30
0.0
 11
98.366038104693942
 21
21.211497757362281
 31
0.0
  0
LINE
  5
19C
  8
0
 10
98.366038104693942
 20
21.211497757362281
 30
0.0
 11
101.366038104693
 21
11.211497757362279
 31
0.0
  0
LINE
  5
19E
  8
0
 10
173.97683671469261
 20
8.2114977573625083
 30
0.0
 11
170.9768367146917
 21
21.211497757362281
 31
0.0
  0
LINE
  5
19F
  8
0
 10
170.9768367146917
 20
21.211497757362281
 30
0.0
 11
167.97683671469269
 21
11.211497757362279
 31
0.0
  0
LINE
  5
1A0
  8
0
 10
94.285574309677159
 20
619.21149775736217
 30
0.0
 11
98.366038104693942
 21
601.5294879789617
 31
0.0
  0
LINE
  5
1A1
  8
0
 10
98.366038104693942
 20
601.5294879789617
 30
0.0
 11
101.4915459115615
 21
611.94784733519032
 31
0.0
  0
LINE
  5
1A2
  8
0
 10
172.8684356625626
 20
549.39381056029765
 30
0.0
 11
171.0293610551422
 21
541.42448726147904
 31
0.0
  0
LINE
  5
1A3
  8
0
 10
171.0293610551422
 20
541.42448726147904
 30
0.0
 11
167.52523353889109
 21
553.10491231565277
 31
0.0
  0
LINE
  5
1A5
  8
0
 10
136.97912971728491
 20
11.211497757362279
 30
0.0
 11
134.6714374095919
 21
21.211497757362281
 31
0.0
  0
LINE
  5
1A6
  8
0
 10
134.6714374095919
 20
21.211497757362281
 30
0.0
 11
131.67143740959281
 21
11.211497757362279
 31
0.0
  0
LINE
  5
1A7
  8
0
  6
CONTINUOUS
 62
     7
 10
136.97912971728491
 20
11.211497757362279
 30
0.0
 11
167.97683671469269
 21
11.211497757362279
 31
0.0
  0
LINE
  5
1A8
  8
0
 10
136.82953584264581
 20
581.94104813090814
 30
0.0
 11
134.6714374095919
 21
572.58928825434475
 31
0.0
  0
LINE
  5
1A9
  8
0
 10
134.6714374095919
 20
572.58928825434475
 30
0.0
 11
129.00029883446399
 21
589.93751733335614
 31
0.0
  0
ENDSEC
  0
EOF
