  0
SECTION
  2
HEADER
  9
$ACADVER
  1
AC1009
  9
$DWGCODEPAGE
  3
ansi_1252
  9
$INSBASE
 10
0.0
 20
0.0
 30
0.0
  9
$EXTMIN
 10
1.000000000000000E+20
 20
1.000000000000000E+20
 30
1.000000000000000E+20
  9
$EXTMAX
 10
-1.000000000000000E+20
 20
-1.000000000000000E+20
 30
-1.000000000000000E+20
  9
$LIMMIN
 10
0.0
 20
0.0
  9
$LIMMAX
 10
420.0
 20
297.0
  9
$ORTHOMODE
 70
     0
  9
$REGENMODE
 70
     1
  9
$FILLMODE
 70
     1
  9
$QTEXTMODE
 70
     0
  9
$MIRRTEXT
 70
     0
  9
$DRAGMODE
 70
     2
  9
$LTSCALE
 40
1.0
  9
$OSMODE
 70
   511
  9
$ATTMODE
 70
     1
  9
$TEXTSIZE
 40
2.5
  9
$TRACEWID
 40
1.0
  9
$TEXTSTYLE
  7
STANDARD
  9
$CLAYER
  8
0
  9
$CELTYPE
  6
BYLAYER
  9
$CECOLOR
 62
   256
  9
$DIMSCALE
 40
1.0
  9
$DIMASZ
 40
2.5
  9
$DIMEXO
 40
0.625
  9
$DIMDLI
 40
3.75
  9
$DIMRND
 40
0.0
  9
$DIMDLE
 40
0.0
  9
$DIMEXE
 40
1.25
  9
$DIMTP
 40
0.0
  9
$DIMTM
 40
0.0
  9
$DIMTXT
 40
2.5
  9
$DIMCEN
 40
2.5
  9
$DIMTSZ
 40
0.0
  9
$DIMTOL
 70
     0
  9
$DIMLIM
 70
     0
  9
$DIMTIH
 70
     0
  9
$DIMTOH
 70
     0
  9
$DIMSE1
 70
     0
  9
$DIMSE2
 70
     0
  9
$DIMTAD
 70
     1
  9
$DIMZIN
 70
     8
  9
$DIMBLK
  1

  9
$DIMASO
 70
     1
  9
$DIMSHO
 70
     1
  9
$DIMPOST
  1

  9
$DIMAPOST
  1

  9
$DIMALT
 70
     0
  9
$DIMALTD
 70
     3
  9
$DIMALTF
 40
0.03937007874016
  9
$DIMLFAC
 40
1.0
  9
$DIMTOFL
 70
     1
  9
$DIMTVP
 40
0.0
  9
$DIMTIX
 70
     0
  9
$DIMSOXD
 70
     0
  9
$DIMSAH
 70
     0
  9
$DIMBLK1
  1

  9
$DIMBLK2
  1

  9
$DIMSTYLE
  2
ISO-25
  9
$DIMCLRD
 70
     0
  9
$DIMCLRE
 70
     0
  9
$DIMCLRT
 70
     0
  9
$DIMTFAC
 40
1.0
  9
$DIMGAP
 40
0.625
  9
$LUNITS
 70
     2
  9
$LUPREC
 70
     3
  9
$SKETCHINC
 40
1.0
  9
$FILLETRAD
 40
10.0
  9
$AUNITS
 70
     0
  9
$AUPREC
 70
     0
  9
$MENU
  1
.
  9
$ELEVATION
 40
0.0
  9
$PELEVATION
 40
0.0
  9
$THICKNESS
 40
0.0
  9
$LIMCHECK
 70
     0
  9
$CHAMFERA
 40
10.0
  9
$CHAMFERB
 40
10.0
  9
$SKPOLY
 70
     0
  9
$TDCREATE
 40
2455022.67902618
  9
$TDUPDATE
 40
2457459.448908484
  9
$TDINDWG
 40
0.0004172106
  9
$TDUSRTIMER
 40
2457459.406824722
  9
$USRTIMER
 70
     1
  9
$ANGBASE
 50
0.0
  9
$ANGDIR
 70
     0
  9
$PDMODE
 70
     0
  9
$PDSIZE
 40
0.0
  9
$PLINEWID
 40
0.0
  9
$COORDS
 70
     1
  9
$SPLFRAME
 70
     0
  9
$SPLINETYPE
 70
     6
  9
$SPLINESEGS
 70
     8
  9
$ATTDIA
 70
     0
  9
$ATTREQ
 70
     1
  9
$HANDLING
 70
     1
  9
$HANDSEED
  5
14B
  9
$SURFTAB1
 70
     6
  9
$SURFTAB2
 70
     6
  9
$SURFTYPE
 70
     6
  9
$SURFU
 70
     6
  9
$SURFV
 70
     6
  9
$UCSNAME
  2

  9
$UCSORG
 10
0.0
 20
0.0
 30
0.0
  9
$UCSXDIR
 10
1.0
 20
0.0
 30
0.0
  9
$UCSYDIR
 10
0.0
 20
1.0
 30
0.0
  9
$PUCSNAME
  2

  9
$PUCSORG
 10
0.0
 20
0.0
 30
0.0
  9
$PUCSXDIR
 10
1.0
 20
0.0
 30
0.0
  9
$PUCSYDIR
 10
0.0
 20
1.0
 30
0.0
  9
$USERI1
 70
     0
  9
$USERI2
 70
     0
  9
$USERI3
 70
     0
  9
$USERI4
 70
     0
  9
$USERI5
 70
     0
  9
$USERR1
 40
0.0
  9
$USERR2
 40
0.0
  9
$USERR3
 40
0.0
  9
$USERR4
 40
0.0
  9
$USERR5
 40
0.0
  9
$WORLDVIEW
 70
     1
  9
$SHADEDGE
 70
     3
  9
$SHADEDIF
 70
    70
  9
$TILEMODE
 70
     1
  9
$MAXACTVP
 70
    64
  9
$PLIMCHECK
 70
     0
  9
$PEXTMIN
 10
1.000000000000000E+20
 20
1.000000000000000E+20
 30
1.000000000000000E+20
  9
$PEXTMAX
 10
-1.000000000000000E+20
 20
-1.000000000000000E+20
 30
-1.000000000000000E+20
  9
$PLIMMIN
 10
0.0
 20
0.0
  9
$PLIMMAX
 10
0.0
 20
0.0
  9
$UNITMODE
 70
     0
  9
$VISRETAIN
 70
     1
  9
$PLINEGEN
 70
     0
  9
$PSLTSCALE
 70
     1
  0
ENDSEC
  0
SECTION
  2
TABLES
  0
TABLE
  2
VPORT
 70
     1
  0
VPORT
  2
*ACTIVE
 70
     0
 10
0.0
 20
0.0
 11
1.0
 21
1.0
 12
1084.923963242552
 22
333.0856110656453
 13
0.0
 23
0.0
 14
10.0
 24
10.0
 15
10.0
 25
10.0
 16
0.0
 26
0.0
 36
1.0
 17
-134.1869158878503
 27
0.0
 37
0.0
 40
904.5484284526534
 41
2.144167758846658
 42
50.0
 43
0.0
 44
0.0
 50
0.0
 51
0.0
 71
    16
 72
  1000
 73
     1
 74
     3
 75
     0
 76
     0
 77
     0
 78
     0
  0
ENDTAB
  0
TABLE
  2
LTYPE
 70
     1
  0
LTYPE
  2
CONTINUOUS
 70
     0
  3
Solid line
 72
    65
 73
     0
 40
0.0
  0
ENDTAB
  0
TABLE
  2
LAYER
 70
     1
  0
LAYER
  2
0
 70
     0
 62
     7
  6
CONTINUOUS
  0
ENDTAB
  0
TABLE
  2
STYLE
 70
     1
  0
STYLE
  2
STANDARD
 70
     0
 40
0.0
 41
1.0
 50
0.0
 71
     0
 42
2.5
  3
arial.ttf
  4

  0
ENDTAB
  0
TABLE
  2
VIEW
 70
     0
  0
ENDTAB
  0
TABLE
  2
UCS
 70
     0
  0
ENDTAB
  0
TABLE
  2
APPID
 70
     5
  0
APPID
  2
ACAD
 70
     0
  0
APPID
  2
ACAD_DSTYLE_DIMBREAK
 70
     0
  0
APPID
  2
ACAD_DSTYLE_DIMJAG
 70
     0
  0
APPID
  2
ACAD_DSTYLE_DIMTALN
 70
     0
  0
APPID
  2
ACAD_PSEXT
 70
     0
  0
ENDTAB
  0
TABLE
  2
DIMSTYLE
 70
     2
  0
DIMSTYLE
  2
ISO-25
 70
     0
  3

  4

  5

  6

  7

 40
1.0
 41
2.5
 42
0.625
 43
3.75
 44
1.25
 45
0.0
 46
0.0
 47
0.0
 48
0.0
140
2.5
141
2.5
142
0.0
143
0.03937007874016
144
1.0
145
0.0
146
1.0
147
0.625
 71
     0
 72
     0
 73
     0
 74
     0
 75
     0
 76
     0
 77
     1
 78
     8
170
     0
171
     3
172
     1
173
     0
174
     0
175
     0
176
     0
177
     0
178
     0
  0
DIMSTYLE
  2
COPIA_DI_ISO-25
 70
     0
  3

  4

  5

  6

  7

 40
1.0
 41
20.0
 42
16.0
 43
3.75
 44
1.25
 45
0.0
 46
0.0
 47
0.0
 48
0.0
140
30.0
141
2.5
142
0.0
143
0.0393700787
144
1.0
145
0.0
146
1.0
147
10.0
 71
     0
 72
     0
 73
     0
 74
     0
 75
     0
 76
     0
 77
     1
 78
     8
170
     0
171
     3
172
     1
173
     0
174
     0
175
     0
176
     0
177
     0
178
     0
  0
ENDTAB
  0
ENDSEC
  0
SECTION
  2
BLOCKS
  0
BLOCK
  8
0
  2
$MODEL_SPACE
 70
     0
 10
0.0
 20
0.0
 30
0.0
  3
$MODEL_SPACE
  1

  0
ENDBLK
  5
21
  8
0
  0
BLOCK
 67
     1
  8
0
  2
$PAPER_SPACE
 70
     0
 10
0.0
 20
0.0
 30
0.0
  3
$PAPER_SPACE
  1

  0
ENDBLK
  5
1D
 67
     1
  8
0
  0
ENDSEC
  0
SECTION
  2
ENTITIES
  0
LINE
  5
119
  8
0
 10
1042.514242636485
 20
520.4340551901911
 30
0.0
 11
970.5142426364845
 21
520.4340551901911
 31
0.0
  0
LINE
  5
11A
  8
0
 10
1042.514242636485
 20
586.4340551901911
 30
0.0
 11
1042.514242636485
 21
520.4340551901911
 31
0.0
  0
LINE
  5
11B
  8
0
 10
970.5142426364845
 20
520.4340551901911
 30
0.0
 11
970.5142426364845
 21
586.4340551901911
 31
0.0
  0
LINE
  5
11C
  8
0
 10
332.5142426364845
 20
666.1712221312906
 30
0.0
 11
970.5142426364845
 21
666.1712221312906
 31
0.0
  0
LINE
  5
11D
  8
0
 10
970.5142426364845
 20
666.1712221312906
 30
0.0
 11
970.5142426364845
 21
586.4340551901911
 31
0.0
  0
LINE
  5
11E
  8
0
 10
1042.514242636485
 20
666.1712221312906
 30
0.0
 11
1680.514242636485
 21
666.1712221312906
 31
0.0
  0
LINE
  5
11F
  8
0
 10
1042.514242636485
 20
666.1712221312906
 30
0.0
 11
1042.514242636485
 21
586.4340551901911
 31
0.0
  0
LINE
  5
120
  8
0
 10
111.5543905635649
 20
411.778910176187
 30
0.0
 11
401.4476402573026
 21
100.2868938401049
 31
0.0
  0
LINE
  5
121
  8
0
 10
283.7261364148952
 20
520.4340551901911
 30
0.0
 11
284.5886935749012
 21
513.9211529833343
 31
0.0
  0
LINE
  5
122
  8
0
 10
119.8362689629147
 20
444.0647798894894
 30
0.0
 11
122.7709214801515
 21
437.866129048232
 31
0.0
  0
LINE
  5
123
  8
0
 10
279.7058375317546
 20
519.5798473833989
 30
0.0
 11
284.5886935749012
 21
513.9211529833352
 31
0.0
  0
LINE
  5
124
  8
0
 10
283.7261364148952
 20
520.4340551901911
 30
0.0
 11
332.5142426364845
 21
520.4340551901911
 31
0.0
  0
LINE
  5
125
  8
0
 10
279.7058375317546
 20
519.5798473833989
 30
0.0
 11
119.8362689629147
 21
444.0647798894894
 31
0.0
  0
LINE
  5
126
  8
0
 10
117.4494136294278
 20
441.116820410835
 30
0.0
 11
122.7709214801515
 21
437.866129048232
 31
0.0
  0
LINE
  5
127
  8
0
 10
117.4494136294278
 20
441.116820410835
 30
0.0
 11
111.5543905635649
 21
411.7789101761851
 31
0.0
  0
LINE
  5
128
  8
0
 10
342.5142426364845
 20
638.4588331509909
 30
0.0
 11
332.5142426364845
 21
635.4588331509909
 31
0.0
  0
LINE
  5
129
  8
0
 10
332.5142426364845
 20
641.4588331509909
 30
0.0
 11
342.5142426364845
 21
638.4588331509909
 31
0.0
  0
LINE
  5
12A
  8
0
 10
342.5142426364845
 20
586.4340551901911
 30
0.0
 11
332.5142426364845
 21
583.4340551901911
 31
0.0
  0
LINE
  5
12B
  8
0
 10
332.5142426364845
 20
589.4340551901911
 30
0.0
 11
342.5142426364845
 21
586.4340551901911
 31
0.0
  0
LINE
  5
12C
  8
0
 10
451.2859114548781
 20
161.018055841481
 30
0.0
 11
452.6017222089657
 21
152.3699605475209
 31
0.0
  0
LINE
  5
12D
  8
0
 10
451.2859114548781
 20
161.0180558414819
 30
0.0
 11
457.5943279111497
 21
153.434055190192
 31
0.0
  0
LINE
  5
12E
  8
0
 10
402.3248396461285
 20
137.4621935142419
 30
0.0
 11
409.9419778586824
 21
132.2132192713285
 31
0.0
  0
LINE
  5
12F
  8
0
 10
402.3248396461285
 20
137.4621935142419
 30
0.0
 11
407.5362714313022
 21
128.9267932002363
 31
0.0
  0
LINE
  5
130
  8
0
 10
409.9419778586824
 20
132.2132192713294
 30
0.0
 11
452.6017222089657
 21
152.3699605475209
 31
0.0
  0
LINE
  5
131
  8
0
 10
407.5362714313022
 20
128.9267932002354
 30
0.0
 11
401.4476402573026
 21
100.2868938401049
 31
0.0
  0
LINE
  5
132
  8
0
 10
332.5142426364845
 20
635.4588331509909
 30
0.0
 11
332.5142426364845
 21
589.4340551901911
 31
0.0
  0
LINE
  5
133
  8
0
 10
332.5142426364845
 20
666.1712221312906
 30
0.0
 11
332.5142426364845
 21
641.4588331509909
 31
0.0
  0
LINE
  5
134
  8
0
 10
332.5142426364845
 20
520.4340551901911
 30
0.0
 11
332.5142426364845
 21
583.4340551901911
 31
0.0
  0
LINE
  5
135
  8
0
 10
1901.474094709404
 20
411.778910176187
 30
0.0
 11
1611.580845015666
 21
100.2868938401049
 31
0.0
  0
LINE
  5
136
  8
0
 10
1729.302348858074
 20
520.4340551901911
 30
0.0
 11
1728.439791698068
 21
513.9211529833343
 31
0.0
  0
LINE
  5
137
  8
0
 10
1733.322647741214
 20
519.5798473833989
 30
0.0
 11
1728.439791698068
 21
513.9211529833352
 31
0.0
  0
LINE
  5
138
  8
0
 10
1893.192216310054
 20
444.0647798894894
 30
0.0
 11
1890.257563792818
 21
437.866129048232
 31
0.0
  0
LINE
  5
139
  8
0
 10
1729.302348858074
 20
520.4340551901911
 30
0.0
 11
1680.514242636485
 21
520.4340551901911
 31
0.0
  0
LINE
  5
13A
  8
0
 10
1733.322647741214
 20
519.5798473833989
 30
0.0
 11
1893.192216310054
 21
444.0647798894894
 31
0.0
  0
LINE
  5
13B
  8
0
 10
1895.579071643541
 20
441.116820410835
 30
0.0
 11
1890.257563792818
 21
437.866129048232
 31
0.0
  0
LINE
  5
13C
  8
0
 10
1895.579071643541
 20
441.116820410835
 30
0.0
 11
1901.474094709404
 21
411.7789101761851
 31
0.0
  0
LINE
  5
13D
  8
0
 10
1670.514242636485
 20
638.4588331509909
 30
0.0
 11
1680.514242636485
 21
635.4588331509909
 31
0.0
  0
LINE
  5
13E
  8
0
 10
1680.514242636485
 20
641.4588331509909
 30
0.0
 11
1670.514242636485
 21
638.4588331509909
 31
0.0
  0
LINE
  5
13F
  8
0
 10
1670.514242636485
 20
586.4340551901911
 30
0.0
 11
1680.514242636485
 21
583.4340551901911
 31
0.0
  0
LINE
  5
140
  8
0
 10
1680.514242636485
 20
589.4340551901911
 30
0.0
 11
1670.514242636485
 21
586.4340551901911
 31
0.0
  0
LINE
  5
141
  8
0
 10
1561.742573818091
 20
161.018055841481
 30
0.0
 11
1560.426763064003
 21
152.3699605475209
 31
0.0
  0
LINE
  5
142
  8
0
 10
1561.742573818091
 20
161.0180558414819
 30
0.0
 11
1555.434157361819
 21
153.434055190192
 31
0.0
  0
LINE
  5
143
  8
0
 10
1610.703645626841
 20
137.4621935142419
 30
0.0
 11
1603.086507414287
 21
132.2132192713285
 31
0.0
  0
LINE
  5
144
  8
0
 10
1610.703645626841
 20
137.4621935142419
 30
0.0
 11
1605.492213841667
 21
128.9267932002363
 31
0.0
  0
LINE
  5
145
  8
0
 10
1603.086507414287
 20
132.2132192713294
 30
0.0
 11
1560.426763064003
 21
152.3699605475209
 31
0.0
  0
LINE
  5
146
  8
0
 10
1605.492213841667
 20
128.9267932002354
 30
0.0
 11
1611.580845015666
 21
100.2868938401049
 31
0.0
  0
LINE
  5
147
  8
0
 10
1680.514242636485
 20
635.4588331509909
 30
0.0
 11
1680.514242636485
 21
589.4340551901911
 31
0.0
  0
LINE
  5
148
  8
0
 10
1680.514242636485
 20
666.1712221312906
 30
0.0
 11
1680.514242636485
 21
641.4588331509909
 31
0.0
  0
LINE
  5
149
  8
0
 10
1680.514242636485
 20
520.4340551901911
 30
0.0
 11
1680.514242636485
 21
583.4340551901911
 31
0.0
  0
LINE
  5
14A
  8
0
 10
457.5943279111497
 20
153.4340551901911
 30
0.0
 11
1555.434157361819
 21
153.4340551901911
 31
0.0
  0
ENDSEC
  0
EOF
