999
     *******************************************
999
     BOCAD Software GmbH   Rev.18.000   0202.22
999
     Filename:   c:\progetti21\danieli_aqs\b4\temp_65\10119.dxf
999
     Creator:    bocad
999
     Date:       20.01.2016
999
     Factor:     10.000000
999
     *******************************************
  0
SECTION
  2
HEADER
  9
$DWGCODEPAGE
  3
ANSI_1252
  9
$INSBASE
 10
0.0
 20
0.0
 30
0.0
  9
$EXTMIN
 10
-0.500000
 20
-33.000000
  9
$EXTMAX
 10
95.499926
 20
33.000000
  9
$LIMMIN
 10
-1.500000
 20
-34.000000
  9
$LIMMAX
 10
96.499926
 20
34.000000
  9
$LTSCALE
 40
10.000000
  0
ENDSEC
  0
SECTION
  2
TABLES
  0
TABLE
  2
LTYPE
 70
4
  0
LTYPE
  2
CONTINUOUS
 70
64
  3
____________________________________________
 72
65
 73
0
 40
0.0
  0
LTYPE
  2
HIDDEN
 70
64
  3
__ __ __ __ __ __ __ __ __ __ __ __ __ __ __
 72
65
 73
2
 40
0.50
 49
0.30
 49
-0.20
  0
LTYPE
  2
DASHDOT
 70
64
  3
____ _ ____ _ ____ _ ____ _ ____ _ ____ _ __
 72
65
 73
4
 40
2.0
 49
1.5
 49
-0.25
 49
0
 49
-0.25
  0
LTYPE
  2
DOT
 70
64
  3
............................................
 72
65
 73
2
 40
0.30
 49
0
 49
-0.30
  0
ENDTAB
  0
TABLE
  2
LAYER
 70
23
  0
LAYER
  2
UNTERSCHRIFT
 70
64
 62
7
  6
CONTINUOUS
  0
LAYER
  2
TEILE
 70
64
 62
7
  6
CONTINUOUS
  0
LAYER
  2
REST
 70
64
 62
7
  6
CONTINUOUS
  0
LAYER
  2
MARKERPUNKTE
 70
64
 62
7
  6
CONTINUOUS
  0
LAYER
  2
HILFSPUNKTE
 70
64
 62
7
  6
CONTINUOUS
  0
LAYER
  2
PICKPUNKTE
 70
64
 62
7
  6
CONTINUOUS
  0
LAYER
  2
SCHRAUBEN
 70
64
 62
7
  6
CONTINUOUS
  0
LAYER
  2
SCHWEISSEN
 70
64
 62
7
  6
CONTINUOUS
  0
LAYER
  2
GRAFIK
 70
64
 62
7
  6
CONTINUOUS
  0
LAYER
  2
BEM_FREI
 70
64
 62
7
  6
CONTINUOUS
  0
LAYER
  2
BEM_SYSTEM
 70
64
 62
7
  6
CONTINUOUS
  0
LAYER
  2
BEM_KONTUR
 70
64
 62
7
  6
CONTINUOUS
  0
LAYER
  2
BEM_ANBAU
 70
64
 62
7
  6
CONTINUOUS
  0
LAYER
  2
BEM_SCHRAUBEN
 70
64
 62
7
  6
CONTINUOUS
  0
LAYER
  2
BEM_SCHWEISSEN
 70
64
 62
7
  6
CONTINUOUS
  0
LAYER
  2
FREIER_TEXT
 70
64
 62
7
  6
CONTINUOUS
  0
LAYER
  2
BEZ_TEILE
 70
64
 62
7
  6
CONTINUOUS
  0
LAYER
  2
BEZ_SCHRAUBEN
 70
64
 62
7
  6
CONTINUOUS
  0
LAYER
  2
BEZ_SCHWEISSEN
 70
64
 62
7
  6
CONTINUOUS
  0
LAYER
  2
SCHRAFFUREN
 70
64
 62
7
  6
CONTINUOUS
  0
LAYER
  2
SCHNITTSYMBOL
 70
64
 62
7
  6
CONTINUOUS
  0
LAYER
  2
RASTER
 70
64
 62
7
  6
CONTINUOUS
  0
LAYER
  2
LISTEN
 70
64
 62
7
  6
CONTINUOUS
  0
LAYER
  2
RAHMEN
 70
64
 62
7
  6
CONTINUOUS
  0
ENDTAB
  0
TABLE
  2
STYLE
 70
1
  0
STYLE
  2
STANDARD
 70
64
 40
0
 41
1
 50
0.0
 71
0
 42
0.35
  3
ROMANS
  0
ENDTAB
  0
ENDSEC
  0
SECTION
  2
ENTITIES
  0
TEXT
 8
UNTERSCHRIFT
 62
2
 10
2.999962
 20
28.500000
 40
2.000000
 41
0.700000
 51
15.000000
  1
Project  DP0GN9  ,Qty. 134  , Pos. 
  0
TEXT
 8
UNTERSCHRIFT
 62
2
 10
58.999958
 20
28.500000
 40
2.000000
 41
0.700000
 51
15.000000
  1
  , Profi l PL65*8
  0
TEXT
 8
UNTERSCHRIFT
 62
2
 10
51.999962
 20
28.500000
 40
2.000000
 41
0.700000
 51
15.000000
  1
10119
  0
LINE
  8
TEILE
 62
2
 10
94.999924
 20
-32.500000
 11
15.000000
 21
-32.500000
  0
LINE
  8
TEILE
 62
2
 10
15.000000
 20
-32.500000
 11
0.000000
 21
-17.500000
  0
LINE
  8
TEILE
 62
2
 10
0.000000
 20
-17.500000
 11
0.000000
 21
32.500000
  0
LINE
  8
TEILE
 62
2
 10
0.000000
 20
32.500000
 11
89.999924
 21
32.500000
  0
LINE
  8
TEILE
 62
2
 10
89.999924
 20
32.500000
 11
94.999924
 21
27.500000
  0
LINE
  8
TEILE
 62
2
 10
94.999924
 20
27.500000
 11
94.999924
 21
22.754753
  0
LINE
  8
TEILE
 62
2
 10
94.999924
 20
22.754753
 11
93.546303
 21
22.712456
  0
LINE
  8
TEILE
 62
2
 10
93.546303
 20
22.712456
 11
92.097595
 21
22.585709
  0
LINE
  8
TEILE
 62
2
 10
92.097595
 20
22.585709
 11
90.658722
 21
22.374945
  0
LINE
  8
TEILE
 62
2
 10
90.658722
 20
22.374945
 11
89.234535
 21
22.080875
  0
LINE
  8
TEILE
 62
2
 10
89.234535
 20
22.080875
 11
87.829849
 21
21.704491
  0
LINE
  8
TEILE
 62
2
 10
87.829849
 20
21.704491
 11
86.449425
 21
21.247066
  0
LINE
  8
TEILE
 62
2
 10
86.449425
 20
21.247066
 11
85.097931
 21
20.710155
  0
LINE
  8
TEILE
 62
2
 10
85.097931
 20
20.710155
 11
83.779953
 21
20.095570
  0
LINE
  8
TEILE
 62
2
 10
83.779953
 20
20.095570
 11
82.499931
 21
19.405388
  0
LINE
  8
TEILE
 62
2
 10
82.499931
 20
19.405388
 11
81.262207
 21
18.641949
  0
LINE
  8
TEILE
 62
2
 10
81.262207
 20
18.641949
 11
80.070961
 21
17.807833
  0
LINE
  8
TEILE
 62
2
 10
80.070961
 20
17.807833
 11
78.930237
 21
16.905863
  0
LINE
  8
TEILE
 62
2
 10
78.930237
 20
16.905863
 11
77.843880
 21
15.939092
  0
LINE
  8
TEILE
 62
2
 10
77.843880
 20
15.939092
 11
76.815582
 21
14.910791
  0
LINE
  8
TEILE
 62
2
 10
76.815582
 20
14.910791
 11
75.848808
 21
13.824438
  0
LINE
  8
TEILE
 62
2
 10
75.848808
 20
13.824438
 11
74.946838
 21
12.683711
  0
LINE
  8
TEILE
 62
2
 10
74.946838
 20
12.683711
 11
74.112724
 21
11.492470
  0
LINE
  8
TEILE
 62
2
 10
74.112724
 20
11.492470
 11
73.349289
 21
10.254744
  0
LINE
  8
TEILE
 62
2
 10
73.349289
 20
10.254744
 11
72.659103
 21
8.974721
  0
LINE
  8
TEILE
 62
2
 10
72.659103
 20
8.974721
 11
72.044518
 21
7.656734
  0
LINE
  8
TEILE
 62
2
 10
72.044518
 20
7.656734
 11
71.507599
 21
6.305242
  0
LINE
  8
TEILE
 62
2
 10
71.507599
 20
6.305242
 11
71.050179
 21
4.924817
  0
LINE
  8
TEILE
 62
2
 10
71.050179
 20
4.924817
 11
70.673798
 21
3.520131
  0
LINE
  8
TEILE
 62
2
 10
70.673798
 20
3.520131
 11
70.379723
 21
2.095937
  0
LINE
  8
TEILE
 62
2
 10
70.379723
 20
2.095937
 11
70.168961
 21
0.657053
  0
LINE
  8
TEILE
 62
2
 10
70.168961
 20
0.657053
 11
70.042221
 21
-0.791651
  0
LINE
  8
TEILE
 62
2
 10
70.042221
 20
-0.791651
 11
69.999924
 21
-2.245273
  0
LINE
  8
TEILE
 62
2
 10
69.999924
 20
-2.245273
 11
70.042221
 21
-3.698895
  0
LINE
  8
TEILE
 62
2
 10
70.042221
 20
-3.698895
 11
70.168968
 21
-5.147599
  0
LINE
  8
TEILE
 62
2
 10
70.168968
 20
-5.147599
 11
70.379730
 21
-6.586483
  0
LINE
  8
TEILE
 62
2
 10
70.379730
 20
-6.586483
 11
70.673813
 21
-8.010675
  0
LINE
  8
TEILE
 62
2
 10
70.673813
 20
-8.010675
 11
71.050194
 21
-9.415361
  0
LINE
  8
TEILE
 62
2
 10
71.050194
 20
-9.415361
 11
71.507622
 21
-10.795785
  0
LINE
  8
TEILE
 62
2
 10
71.507622
 20
-10.795785
 11
72.044533
 21
-12.147276
  0
LINE
  8
TEILE
 62
2
 10
72.044533
 20
-12.147276
 11
72.659126
 21
-13.465262
  0
LINE
  8
TEILE
 62
2
 10
72.659126
 20
-13.465262
 11
73.349312
 21
-14.745283
  0
LINE
  8
TEILE
 62
2
 10
73.349312
 20
-14.745283
 11
74.112747
 21
-15.983008
  0
LINE
  8
TEILE
 62
2
 10
74.112747
 20
-15.983008
 11
74.946869
 21
-17.174248
  0
LINE
  8
TEILE
 62
2
 10
74.946869
 20
-17.174248
 11
75.848839
 21
-18.314974
  0
LINE
  8
TEILE
 62
2
 10
75.848839
 20
-18.314974
 11
76.815613
 21
-19.401323
  0
LINE
  8
TEILE
 62
2
 10
76.815613
 20
-19.401323
 11
77.843918
 21
-20.429623
  0
LINE
  8
TEILE
 62
2
 10
77.843918
 20
-20.429623
 11
78.930275
 21
-21.396391
  0
LINE
  8
TEILE
 62
2
 10
78.930275
 20
-21.396391
 11
80.070999
 21
-22.298359
  0
LINE
  8
TEILE
 62
2
 10
80.070999
 20
-22.298359
 11
81.262238
 21
-23.132469
  0
LINE
  8
TEILE
 62
2
 10
81.262238
 20
-23.132469
 11
82.499962
 21
-23.895905
  0
LINE
  8
TEILE
 62
2
 10
82.499962
 20
-23.895905
 11
83.779984
 21
-24.586082
  0
LINE
  8
TEILE
 62
2
 10
83.779984
 20
-24.586082
 11
85.097961
 21
-25.200665
  0
LINE
  8
TEILE
 62
2
 10
85.097961
 20
-25.200665
 11
86.449448
 21
-25.737574
  0
LINE
  8
TEILE
 62
2
 10
86.449448
 20
-25.737574
 11
87.829865
 21
-26.194994
  0
LINE
  8
TEILE
 62
2
 10
87.829865
 20
-26.194994
 11
89.234550
 21
-26.571377
  0
LINE
  8
TEILE
 62
2
 10
89.234550
 20
-26.571377
 11
90.658737
 21
-26.865446
  0
LINE
  8
TEILE
 62
2
 10
90.658737
 20
-26.865446
 11
92.097618
 21
-27.076208
  0
LINE
  8
TEILE
 62
2
 10
92.097618
 20
-27.076208
 11
93.546310
 21
-27.202953
  0
LINE
  8
TEILE
 62
2
 10
93.546310
 20
-27.202953
 11
94.999924
 21
-27.245251
  0
LINE
  8
TEILE
 62
2
 10
94.999924
 20
-27.245251
 11
94.999924
 21
-27.245251
  0
LINE
  8
TEILE
 62
2
 10
94.999924
 20
-27.245251
 11
94.999924
 21
-32.500000
  0
ENDSEC
  0
EOF

