999
     *******************************************
999
     BOCAD Software GmbH   Rev.18.000   0202.22
999
     Filename:   c:\progetti21\danieli_aqs\b4\temp_65\10122.dxf
999
     Creator:    bocad
999
     Date:       20.01.2016
999
     Factor:     10.000000
999
     *******************************************
  0
SECTION
  2
HEADER
  9
$DWGCODEPAGE
  3
ANSI_1252
  9
$INSBASE
 10
0.0
 20
0.0
 30
0.0
  9
$EXTMIN
 10
-0.500000
 20
-13.497431
  9
$EXTMAX
 10
26.489725
 20
13.497430
  9
$LIMMIN
 10
-1.500000
 20
-14.497431
  9
$LIMMAX
 10
27.489725
 20
14.497430
  9
$LTSCALE
 40
10.000000
  0
ENDSEC
  0
SECTION
  2
TABLES
  0
TABLE
  2
LTYPE
 70
4
  0
LTYPE
  2
CONTINUOUS
 70
64
  3
____________________________________________
 72
65
 73
0
 40
0.0
  0
LTYPE
  2
HIDDEN
 70
64
  3
__ __ __ __ __ __ __ __ __ __ __ __ __ __ __
 72
65
 73
2
 40
0.50
 49
0.30
 49
-0.20
  0
LTYPE
  2
DASHDOT
 70
64
  3
____ _ ____ _ ____ _ ____ _ ____ _ ____ _ __
 72
65
 73
4
 40
2.0
 49
1.5
 49
-0.25
 49
0
 49
-0.25
  0
LTYPE
  2
DOT
 70
64
  3
............................................
 72
65
 73
2
 40
0.30
 49
0
 49
-0.30
  0
ENDTAB
  0
TABLE
  2
LAYER
 70
23
  0
LAYER
  2
UNTERSCHRIFT
 70
64
 62
7
  6
CONTINUOUS
  0
LAYER
  2
TEILE
 70
64
 62
7
  6
CONTINUOUS
  0
LAYER
  2
REST
 70
64
 62
7
  6
CONTINUOUS
  0
LAYER
  2
MARKERPUNKTE
 70
64
 62
7
  6
CONTINUOUS
  0
LAYER
  2
HILFSPUNKTE
 70
64
 62
7
  6
CONTINUOUS
  0
LAYER
  2
PICKPUNKTE
 70
64
 62
7
  6
CONTINUOUS
  0
LAYER
  2
SCHRAUBEN
 70
64
 62
7
  6
CONTINUOUS
  0
LAYER
  2
SCHWEISSEN
 70
64
 62
7
  6
CONTINUOUS
  0
LAYER
  2
GRAFIK
 70
64
 62
7
  6
CONTINUOUS
  0
LAYER
  2
BEM_FREI
 70
64
 62
7
  6
CONTINUOUS
  0
LAYER
  2
BEM_SYSTEM
 70
64
 62
7
  6
CONTINUOUS
  0
LAYER
  2
BEM_KONTUR
 70
64
 62
7
  6
CONTINUOUS
  0
LAYER
  2
BEM_ANBAU
 70
64
 62
7
  6
CONTINUOUS
  0
LAYER
  2
BEM_SCHRAUBEN
 70
64
 62
7
  6
CONTINUOUS
  0
LAYER
  2
BEM_SCHWEISSEN
 70
64
 62
7
  6
CONTINUOUS
  0
LAYER
  2
FREIER_TEXT
 70
64
 62
7
  6
CONTINUOUS
  0
LAYER
  2
BEZ_TEILE
 70
64
 62
7
  6
CONTINUOUS
  0
LAYER
  2
BEZ_SCHRAUBEN
 70
64
 62
7
  6
CONTINUOUS
  0
LAYER
  2
BEZ_SCHWEISSEN
 70
64
 62
7
  6
CONTINUOUS
  0
LAYER
  2
SCHRAFFUREN
 70
64
 62
7
  6
CONTINUOUS
  0
LAYER
  2
SCHNITTSYMBOL
 70
64
 62
7
  6
CONTINUOUS
  0
LAYER
  2
RASTER
 70
64
 62
7
  6
CONTINUOUS
  0
LAYER
  2
LISTEN
 70
64
 62
7
  6
CONTINUOUS
  0
LAYER
  2
RAHMEN
 70
64
 62
7
  6
CONTINUOUS
  0
ENDTAB
  0
TABLE
  2
STYLE
 70
1
  0
STYLE
  2
STANDARD
 70
64
 40
0
 41
1
 50
0.0
 71
0
 42
0.35
  3
ROMANS
  0
ENDTAB
  0
ENDSEC
  0
SECTION
  2
ENTITIES
  0
TEXT
 8
UNTERSCHRIFT
 62
2
 10
2.000000
 20
0.000001
 40
1.500000
 50
-89.999985
 41
0.800000
 51
15.000000
  1
P
  0
TEXT
 8
UNTERSCHRIFT
 62
2
 10
2.076320
 20
-1.293528
 40
1.500000
 50
-83.246742
 41
0.800000
 51
15.000000
  1
r
  0
TEXT
 8
UNTERSCHRIFT
 62
2
 10
2.304222
 20
-2.569108
 40
1.500000
 50
-76.493515
 41
0.800000
 51
15.000000
  1
o
  0
TEXT
 8
UNTERSCHRIFT
 62
2
 10
2.680542
 20
-3.809038
 40
1.500000
 50
-69.740265
 41
0.800000
 51
15.000000
  1
j
  0
TEXT
 8
UNTERSCHRIFT
 62
2
 10
3.200058
 20
-4.996112
 40
1.500000
 50
-62.987034
 41
0.800000
 51
15.000000
  1
e
  0
TEXT
 8
UNTERSCHRIFT
 62
2
 10
3.855563
 20
-6.113858
 40
1.500000
 50
-56.233791
 41
0.800000
 51
15.000000
  1
c
  0
TEXT
 8
UNTERSCHRIFT
 62
2
 10
4.637959
 20
-7.146766
 40
1.500000
 50
-49.480553
 41
0.800000
 51
15.000000
  1
t
  0
TEXT
 8
UNTERSCHRIFT
 62
2
 10
5.536390
 20
-8.080503
 40
1.500000
 50
-42.727314
 41
0.800000
 51
15.000000
  1
 
  0
TEXT
 8
UNTERSCHRIFT
 62
2
 10
6.538389
 20
-8.902111
 40
1.500000
 50
-35.974068
 41
0.800000
 51
15.000000
  1
 
  0
TEXT
 8
UNTERSCHRIFT
 62
2
 10
7.630052
 20
-9.600190
 40
1.500000
 50
-29.220833
 41
0.800000
 51
15.000000
  1
D
  0
TEXT
 8
UNTERSCHRIFT
 62
2
 10
8.796231
 20
-10.165054
 40
1.500000
 50
-22.467588
 41
0.800000
 51
15.000000
  1
P
  0
TEXT
 8
UNTERSCHRIFT
 62
2
 10
10.020743
 20
-10.588864
 40
1.500000
 50
-15.714346
 41
0.800000
 51
15.000000
  1
0
  0
TEXT
 8
UNTERSCHRIFT
 62
2
 10
11.286598
 20
-10.865737
 40
1.500000
 50
-8.961094
 41
0.800000
 51
15.000000
  1
G
  0
TEXT
 8
UNTERSCHRIFT
 62
2
 10
12.576228
 20
-10.991835
 40
1.500000
 50
-2.207852
 41
0.800000
 51
15.000000
  1
N
  0
TEXT
 8
UNTERSCHRIFT
 62
2
 10
13.871738
 20
-10.965404
 40
1.500000
 50
4.545394
 41
0.800000
 51
15.000000
  1
9
  0
TEXT
 8
UNTERSCHRIFT
 62
2
 10
15.155152
 20
-10.786812
 40
1.500000
 50
11.298639
 41
0.800000
 51
15.000000
  1
 
  0
TEXT
 8
UNTERSCHRIFT
 62
2
 10
16.408661
 20
-10.458540
 40
1.500000
 50
18.051884
 41
0.800000
 51
15.000000
  1
 
  0
TEXT
 8
UNTERSCHRIFT
 62
2
 10
17.614868
 20
-9.985139
 40
1.500000
 50
24.805138
 41
0.800000
 51
15.000000
  1
,
  0
TEXT
 8
UNTERSCHRIFT
 62
2
 10
18.757040
 20
-9.373180
 40
1.500000
 50
31.558376
 41
0.800000
 51
15.000000
  1
Q
  0
TEXT
 8
UNTERSCHRIFT
 62
2
 10
19.819321
 20
-8.631157
 40
1.500000
 50
38.311626
 41
0.800000
 51
15.000000
  1
t
  0
TEXT
 8
UNTERSCHRIFT
 62
2
 10
20.786976
 20
-7.769363
 40
1.500000
 50
45.064869
 41
0.800000
 51
15.000000
  1
y
  0
TEXT
 8
UNTERSCHRIFT
 62
2
 10
21.646578
 20
-6.799758
 40
1.500000
 50
51.818111
 41
0.800000
 51
15.000000
  1
.
  0
TEXT
 8
UNTERSCHRIFT
 62
2
 10
22.386196
 20
-5.735797
 40
1.500000
 50
58.571362
 41
0.800000
 51
15.000000
  1
 
  0
TEXT
 8
UNTERSCHRIFT
 62
2
 10
22.995565
 20
-4.592244
 40
1.500000
 50
65.324608
 41
0.800000
 51
15.000000
  1
2
  0
TEXT
 8
UNTERSCHRIFT
 62
2
 10
23.466232
 20
-3.384967
 40
1.500000
 50
72.077850
 41
0.800000
 51
15.000000
  1
4
  0
TEXT
 8
UNTERSCHRIFT
 62
2
 10
23.791666
 20
-2.130718
 40
1.500000
 50
78.831093
 41
0.800000
 51
15.000000
  1
 
  0
TEXT
 8
UNTERSCHRIFT
 62
2
 10
23.967350
 20
-0.846904
 40
1.500000
 50
85.584351
 41
0.800000
 51
15.000000
  1
 
  0
TEXT
 8
UNTERSCHRIFT
 62
2
 10
23.990849
 20
0.448663
 40
1.500000
 50
92.337585
 41
0.800000
 51
15.000000
  1
,
  0
TEXT
 8
UNTERSCHRIFT
 62
2
 10
23.861830
 20
1.738004
 40
1.500000
 50
99.090843
 41
0.800000
 51
15.000000
  1
 
  0
TEXT
 8
UNTERSCHRIFT
 62
2
 10
23.582092
 20
3.003228
 40
1.500000
 50
105.844086
 41
0.800000
 51
15.000000
  1
P
  0
TEXT
 8
UNTERSCHRIFT
 62
2
 10
23.155510
 20
4.226778
 40
1.500000
 50
112.597328
 41
0.800000
 51
15.000000
  1
o
  0
TEXT
 8
UNTERSCHRIFT
 62
2
 10
22.588005
 20
5.391675
 40
1.500000
 50
119.350563
 41
0.800000
 51
15.000000
  1
s
  0
TEXT
 8
UNTERSCHRIFT
 62
2
 10
21.887455
 20
6.481755
 40
1.500000
 50
126.103813
 41
0.800000
 51
15.000000
  1
.
  0
TEXT
 8
UNTERSCHRIFT
 62
2
 10
21.063578
 20
7.481892
 40
1.500000
 50
132.857071
 41
0.800000
 51
15.000000
  1
 
  0
TEXT
 8
UNTERSCHRIFT
 62
2
 10
20.127810
 20
8.378207
 40
1.500000
 50
139.610321
 41
0.800000
 51
15.000000
  1
 
  0
TEXT
 8
UNTERSCHRIFT
 62
2
 10
19.093130
 20
9.158262
 40
1.500000
 50
146.363556
 41
0.800000
 51
15.000000
  1
1
  0
TEXT
 8
UNTERSCHRIFT
 62
2
 10
17.973902
 20
9.811234
 40
1.500000
 50
153.116806
 41
0.800000
 51
15.000000
  1
0
  0
TEXT
 8
UNTERSCHRIFT
 62
2
 10
16.785654
 20
10.328060
 40
1.500000
 50
159.870056
 41
0.800000
 51
15.000000
  1
1
  0
TEXT
 8
UNTERSCHRIFT
 62
2
 10
15.544873
 20
10.701571
 40
1.500000
 50
166.623291
 41
0.800000
 51
15.000000
  1
2
  0
TEXT
 8
UNTERSCHRIFT
 62
2
 10
14.268779
 20
10.926582
 40
1.500000
 50
173.376526
 41
0.800000
 51
15.000000
  1
2
  0
TEXT
 8
UNTERSCHRIFT
 62
2
 10
12.975079
 20
10.999971
 40
1.500000
 50
-179.870224
 41
0.800000
 51
15.000000
  1
 
  0
TEXT
 8
UNTERSCHRIFT
 62
2
 10
11.681725
 20
10.920721
 40
1.500000
 50
-173.116974
 41
0.800000
 51
15.000000
  1
 
  0
TEXT
 8
UNTERSCHRIFT
 62
2
 10
10.406664
 20
10.689930
 40
1.500000
 50
-166.363724
 41
0.800000
 51
15.000000
  1
 
  0
TEXT
 8
UNTERSCHRIFT
 62
2
 10
9.167588
 20
10.310802
 40
1.500000
 50
-159.610489
 41
0.800000
 51
15.000000
  1
,
  0
TEXT
 8
UNTERSCHRIFT
 62
2
 10
7.981693
 20
9.788595
 40
1.500000
 50
-152.857239
 41
0.800000
 51
15.000000
  1
 
  0
TEXT
 8
UNTERSCHRIFT
 62
2
 10
6.865436
 20
9.130560
 40
1.500000
 50
-146.103989
 41
0.800000
 51
15.000000
  1
P
  0
TEXT
 8
UNTERSCHRIFT
 62
2
 10
5.834303
 20
8.345824
 40
1.500000
 50
-139.350754
 41
0.800000
 51
15.000000
  1
r
  0
TEXT
 8
UNTERSCHRIFT
 62
2
 10
4.902605
 20
7.445280
 40
1.500000
 50
-132.597519
 41
0.800000
 51
15.000000
  1
o
  0
TEXT
 8
UNTERSCHRIFT
 62
2
 10
4.083270
 20
6.441422
 40
1.500000
 50
-125.844269
 41
0.800000
 51
15.000000
  1
f
  0
TEXT
 8
UNTERSCHRIFT
 62
2
 10
3.387666
 20
5.348179
 40
1.500000
 50
-119.091042
 41
0.800000
 51
15.000000
  1
i
  0
TEXT
 8
UNTERSCHRIFT
 62
2
 10
2.825447
 20
4.180724
 40
1.500000
 50
-112.337807
 41
0.800000
 51
15.000000
  1
 
  0
TEXT
 8
UNTERSCHRIFT
 62
2
 10
2.404413
 20
2.955256
 40
1.500000
 50
-105.584557
 41
0.800000
 51
15.000000
  1
l
  0
TEXT
 8
UNTERSCHRIFT
 62
2
 10
2.130409
 20
1.688779
 40
1.500000
 50
-98.831337
 41
0.800000
 51
15.000000
  1
 
  0
TEXT
 8
UNTERSCHRIFT
 62
2
 10
2.007234
 20
0.398867
 40
1.500000
 50
-92.078072
 41
0.800000
 51
15.000000
  1
P
  0
TEXT
 8
UNTERSCHRIFT
 62
2
 10
2.036600
 20
-0.896578
 40
1.500000
 50
-85.324837
 41
0.800000
 51
15.000000
  1
L
  0
TEXT
 8
UNTERSCHRIFT
 62
2
 10
2.218098
 20
-2.179583
 40
1.500000
 50
-78.571602
 41
0.800000
 51
15.000000
  1
2
  0
TEXT
 8
UNTERSCHRIFT
 62
2
 10
2.549210
 20
-3.432343
 40
1.500000
 50
-71.818375
 41
0.800000
 51
15.000000
  1
6
  0
TEXT
 8
UNTERSCHRIFT
 62
2
 10
3.025341
 20
-4.637475
 40
1.500000
 50
-65.065140
 41
0.800000
 51
15.000000
  1
*
  0
TEXT
 8
UNTERSCHRIFT
 62
2
 10
3.639884
 20
-5.778255
 40
1.500000
 50
-58.311871
 41
0.800000
 51
15.000000
  1
3
  0
LINE
  8
TEILE
 62
2
 10
0.000000
 20
0.000000
 11
0.041095
 21
1.032851
  0
LINE
  8
TEILE
 62
2
 10
0.041095
 20
1.032851
 11
0.164121
 21
2.059174
  0
LINE
  8
TEILE
 62
2
 10
0.164121
 20
2.059174
 11
0.368299
 21
3.072479
  0
LINE
  8
TEILE
 62
2
 10
0.368299
 20
3.072479
 11
0.652339
 21
4.066357
  0
LINE
  8
TEILE
 62
2
 10
0.652339
 20
4.066357
 11
1.014445
 21
5.034528
  0
LINE
  8
TEILE
 62
2
 10
1.014445
 20
5.034528
 11
1.452327
 21
5.970868
  0
LINE
  8
TEILE
 62
2
 10
1.452327
 20
5.970868
 11
1.963218
 21
6.869458
  0
LINE
  8
TEILE
 62
2
 10
1.963218
 20
6.869458
 11
2.543888
 21
7.724618
  0
LINE
  8
TEILE
 62
2
 10
2.543888
 20
7.724618
 11
3.190664
 21
8.530939
  0
LINE
  8
TEILE
 62
2
 10
3.190664
 20
8.530939
 11
3.899458
 21
9.283325
  0
LINE
  8
TEILE
 62
2
 10
3.899458
 20
9.283325
 11
4.665789
 21
9.977020
  0
LINE
  8
TEILE
 62
2
 10
4.665789
 20
9.977020
 11
5.484810
 21
10.607635
  0
LINE
  8
TEILE
 62
2
 10
5.484810
 20
10.607635
 11
6.351346
 21
11.171187
  0
LINE
  8
TEILE
 62
2
 10
6.351346
 20
11.171187
 11
7.259917
 21
11.664110
  0
LINE
  8
TEILE
 62
2
 10
7.259917
 20
11.664110
 11
8.204779
 21
12.083288
  0
LINE
  8
TEILE
 62
2
 10
8.204779
 20
12.083288
 11
9.179957
 21
12.426072
  0
LINE
  8
TEILE
 62
2
 10
9.179957
 20
12.426072
 11
10.179287
 21
12.690295
  0
LINE
  8
TEILE
 62
2
 10
10.179287
 20
12.690295
 11
11.196451
 21
12.874285
  0
LINE
  8
TEILE
 62
2
 10
11.196451
 20
12.874285
 11
12.225018
 21
12.976880
  0
LINE
  8
TEILE
 62
2
 10
12.225018
 20
12.976880
 11
13.258484
 21
12.997431
  0
LINE
  8
TEILE
 62
2
 10
13.258484
 20
12.997431
 11
14.290315
 21
12.935808
  0
LINE
  8
TEILE
 62
2
 10
14.290315
 20
12.935808
 11
15.313989
 21
12.792398
  0
LINE
  8
TEILE
 62
2
 10
15.313989
 20
12.792398
 11
16.323034
 21
12.568113
  0
LINE
  8
TEILE
 62
2
 10
16.323034
 20
12.568113
 11
17.311069
 21
12.264367
  0
LINE
  8
TEILE
 62
2
 10
17.311069
 20
12.264367
 11
18.271847
 21
11.883082
  0
LINE
  8
TEILE
 62
2
 10
18.271847
 20
11.883082
 11
19.199295
 21
11.426669
  0
LINE
  8
TEILE
 62
2
 10
19.199295
 20
11.426669
 11
20.087549
 21
10.898012
  0
LINE
  8
TEILE
 62
2
 10
20.087549
 20
10.898012
 11
20.930994
 21
10.300455
  0
LINE
  8
TEILE
 62
2
 10
20.930994
 20
10.300455
 11
21.724297
 21
9.637774
  0
LINE
  8
TEILE
 62
2
 10
21.724297
 20
9.637774
 11
22.462440
 21
8.914162
  0
LINE
  8
TEILE
 62
2
 10
22.462440
 20
8.914162
 11
23.140759
 21
8.134190
  0
LINE
  8
TEILE
 62
2
 10
23.140759
 20
8.134190
 11
23.754967
 21
7.302792
  0
LINE
  8
TEILE
 62
2
 10
23.754967
 20
7.302792
 11
24.301176
 21
6.425222
  0
LINE
  8
TEILE
 62
2
 10
24.301176
 20
6.425222
 11
24.775934
 21
5.507031
  0
LINE
  8
TEILE
 62
2
 10
24.775934
 20
5.507031
 11
25.176243
 21
4.554022
  0
LINE
  8
TEILE
 62
2
 10
25.176243
 20
4.554022
 11
25.499571
 21
3.572222
  0
LINE
  8
TEILE
 62
2
 10
25.499571
 20
3.572222
 11
25.743870
 21
2.567836
  0
LINE
  8
TEILE
 62
2
 10
25.743870
 20
2.567836
 11
25.907600
 21
1.547216
  0
LINE
  8
TEILE
 62
2
 10
25.907600
 20
1.547216
 11
25.989725
 21
0.516814
  0
LINE
  8
TEILE
 62
2
 10
25.989725
 20
0.516814
 11
25.989723
 21
-0.516855
  0
LINE
  8
TEILE
 62
2
 10
25.989723
 20
-0.516855
 11
25.907595
 21
-1.547257
  0
LINE
  8
TEILE
 62
2
 10
25.907595
 20
-1.547257
 11
25.743864
 21
-2.567877
  0
LINE
  8
TEILE
 62
2
 10
25.743864
 20
-2.567877
 11
25.499557
 21
-3.572261
  0
LINE
  8
TEILE
 62
2
 10
25.499557
 20
-3.572261
 11
25.176229
 21
-4.554061
  0
LINE
  8
TEILE
 62
2
 10
25.176229
 20
-4.554061
 11
24.775917
 21
-5.507068
  0
LINE
  8
TEILE
 62
2
 10
24.775917
 20
-5.507068
 11
24.301155
 21
-6.425258
  0
LINE
  8
TEILE
 62
2
 10
24.301155
 20
-6.425258
 11
23.754942
 21
-7.302825
  0
LINE
  8
TEILE
 62
2
 10
23.754942
 20
-7.302825
 11
23.140734
 21
-8.134221
  0
LINE
  8
TEILE
 62
2
 10
23.140734
 20
-8.134221
 11
22.462410
 21
-8.914191
  0
LINE
  8
TEILE
 62
2
 10
22.462410
 20
-8.914191
 11
21.724264
 21
-9.637802
  0
LINE
  8
TEILE
 62
2
 10
21.724264
 20
-9.637802
 11
20.930962
 21
-10.300480
  0
LINE
  8
TEILE
 62
2
 10
20.930962
 20
-10.300480
 11
20.087517
 21
-10.898035
  0
LINE
  8
TEILE
 62
2
 10
20.087517
 20
-10.898035
 11
19.199261
 21
-11.426688
  0
LINE
  8
TEILE
 62
2
 10
19.199261
 20
-11.426688
 11
18.271811
 21
-11.883098
  0
LINE
  8
TEILE
 62
2
 10
18.271811
 20
-11.883098
 11
17.311031
 21
-12.264380
  0
LINE
  8
TEILE
 62
2
 10
17.311031
 20
-12.264380
 11
16.322996
 21
-12.568123
  0
LINE
  8
TEILE
 62
2
 10
16.322996
 20
-12.568123
 11
15.313951
 21
-12.792406
  0
LINE
  8
TEILE
 62
2
 10
15.313951
 20
-12.792406
 11
14.290277
 21
-12.935811
  0
LINE
  8
TEILE
 62
2
 10
14.290277
 20
-12.935811
 11
13.258446
 21
-12.997432
  0
LINE
  8
TEILE
 62
2
 10
13.258446
 20
-12.997432
 11
12.224979
 21
-12.976877
  0
LINE
  8
TEILE
 62
2
 10
12.224979
 20
-12.976877
 11
11.196413
 21
-12.874280
  0
LINE
  8
TEILE
 62
2
 10
11.196413
 20
-12.874280
 11
10.179251
 21
-12.690287
  0
LINE
  8
TEILE
 62
2
 10
10.179251
 20
-12.690287
 11
9.179920
 21
-12.426062
  0
LINE
  8
TEILE
 62
2
 10
9.179920
 20
-12.426062
 11
8.204743
 21
-12.083274
  0
LINE
  8
TEILE
 62
2
 10
8.204743
 20
-12.083274
 11
7.259883
 21
-11.664093
  0
LINE
  8
TEILE
 62
2
 10
7.259883
 20
-11.664093
 11
6.351313
 21
-11.171167
  0
LINE
  8
TEILE
 62
2
 10
6.351313
 20
-11.171167
 11
5.484779
 21
-10.607614
  0
LINE
  8
TEILE
 62
2
 10
5.484779
 20
-10.607614
 11
4.665759
 21
-9.976995
  0
LINE
  8
TEILE
 62
2
 10
4.665759
 20
-9.976995
 11
3.899430
 21
-9.283298
  0
LINE
  8
TEILE
 62
2
 10
3.899430
 20
-9.283298
 11
3.190638
 21
-8.530910
  0
LINE
  8
TEILE
 62
2
 10
3.190638
 20
-8.530910
 11
2.543864
 21
-7.724586
  0
LINE
  8
TEILE
 62
2
 10
2.543864
 20
-7.724586
 11
1.963198
 21
-6.869425
  0
LINE
  8
TEILE
 62
2
 10
1.963198
 20
-6.869425
 11
1.452310
 21
-5.970833
  0
LINE
  8
TEILE
 62
2
 10
1.452310
 20
-5.970833
 11
1.014430
 21
-5.034492
  0
LINE
  8
TEILE
 62
2
 10
1.014430
 20
-5.034492
 11
0.652327
 21
-4.066320
  0
LINE
  8
TEILE
 62
2
 10
0.652327
 20
-4.066320
 11
0.368290
 21
-3.072441
  0
LINE
  8
TEILE
 62
2
 10
0.368290
 20
-3.072441
 11
0.164114
 21
-2.059136
  0
LINE
  8
TEILE
 62
2
 10
0.164114
 20
-2.059136
 11
0.041092
 21
-1.032812
  0
LINE
  8
TEILE
 62
2
 10
0.041092
 20
-1.032812
 11
0.000000
 21
0.000041
  0
LINE
  8
TEILE
 62
2
 10
0.000000
 20
0.000041
 11
0.000000
 21
0.000000
  0
ENDSEC
  0
EOF

