999
     *******************************************
999
     BOCAD Software GmbH   Rev.18.000   0202.22
999
     Filename:   c:\progetti21\danieli_aqs\b4\temp_60\10302.dxf
999
     Creator:    bocad
999
     Date:       20.01.2016
999
     Factor:     10.000000
999
     *******************************************
  0
SECTION
  2
HEADER
  9
$DWGCODEPAGE
  3
ANSI_1252
  9
$INSBASE
 10
0.0
 20
0.0
 30
0.0
  9
$EXTMIN
 10
-0.500000
 20
-622.999802
  9
$EXTMAX
 10
14948.500977
 20
622.999802
  9
$LIMMIN
 10
-1.500000
 20
-623.999802
  9
$LIMMAX
 10
14949.500977
 20
623.999802
  9
$LTSCALE
 40
10.000000
  0
ENDSEC
  0
SECTION
  2
TABLES
  0
TABLE
  2
LTYPE
 70
4
  0
LTYPE
  2
CONTINUOUS
 70
64
  3
____________________________________________
 72
65
 73
0
 40
0.0
  0
LTYPE
  2
HIDDEN
 70
64
  3
__ __ __ __ __ __ __ __ __ __ __ __ __ __ __
 72
65
 73
2
 40
0.50
 49
0.30
 49
-0.20
  0
LTYPE
  2
DASHDOT
 70
64
  3
____ _ ____ _ ____ _ ____ _ ____ _ ____ _ __
 72
65
 73
4
 40
2.0
 49
1.5
 49
-0.25
 49
0
 49
-0.25
  0
LTYPE
  2
DOT
 70
64
  3
............................................
 72
65
 73
2
 40
0.30
 49
0
 49
-0.30
  0
ENDTAB
  0
TABLE
  2
LAYER
 70
23
  0
LAYER
  2
UNTERSCHRIFT
 70
64
 62
7
  6
CONTINUOUS
  0
LAYER
  2
TEILE
 70
64
 62
7
  6
CONTINUOUS
  0
LAYER
  2
REST
 70
64
 62
7
  6
CONTINUOUS
  0
LAYER
  2
MARKERPUNKTE
 70
64
 62
7
  6
CONTINUOUS
  0
LAYER
  2
HILFSPUNKTE
 70
64
 62
7
  6
CONTINUOUS
  0
LAYER
  2
PICKPUNKTE
 70
64
 62
7
  6
CONTINUOUS
  0
LAYER
  2
SCHRAUBEN
 70
64
 62
7
  6
CONTINUOUS
  0
LAYER
  2
SCHWEISSEN
 70
64
 62
7
  6
CONTINUOUS
  0
LAYER
  2
GRAFIK
 70
64
 62
7
  6
CONTINUOUS
  0
LAYER
  2
BEM_FREI
 70
64
 62
7
  6
CONTINUOUS
  0
LAYER
  2
BEM_SYSTEM
 70
64
 62
7
  6
CONTINUOUS
  0
LAYER
  2
BEM_KONTUR
 70
64
 62
7
  6
CONTINUOUS
  0
LAYER
  2
BEM_ANBAU
 70
64
 62
7
  6
CONTINUOUS
  0
LAYER
  2
BEM_SCHRAUBEN
 70
64
 62
7
  6
CONTINUOUS
  0
LAYER
  2
BEM_SCHWEISSEN
 70
64
 62
7
  6
CONTINUOUS
  0
LAYER
  2
FREIER_TEXT
 70
64
 62
7
  6
CONTINUOUS
  0
LAYER
  2
BEZ_TEILE
 70
64
 62
7
  6
CONTINUOUS
  0
LAYER
  2
BEZ_SCHRAUBEN
 70
64
 62
7
  6
CONTINUOUS
  0
LAYER
  2
BEZ_SCHWEISSEN
 70
64
 62
7
  6
CONTINUOUS
  0
LAYER
  2
SCHRAFFUREN
 70
64
 62
7
  6
CONTINUOUS
  0
LAYER
  2
SCHNITTSYMBOL
 70
64
 62
7
  6
CONTINUOUS
  0
LAYER
  2
RASTER
 70
64
 62
7
  6
CONTINUOUS
  0
LAYER
  2
LISTEN
 70
64
 62
7
  6
CONTINUOUS
  0
LAYER
  2
RAHMEN
 70
64
 62
7
  6
CONTINUOUS
  0
ENDTAB
  0
TABLE
  2
STYLE
 70
1
  0
STYLE
  2
STANDARD
 70
64
 40
0
 41
1
 50
0.0
 71
0
 42
0.35
  3
ROMANS
  0
ENDTAB
  0
ENDSEC
  0
SECTION
  2
ENTITIES
  0
TEXT
 8
UNTERSCHRIFT
 62
2
 10
7394.683105
 20
-620.499451
 40
3.250000
 41
0.800000
 51
15.000000
  1
Project  DP0GN9  ,Qty. 1  , Pos. 
  0
TEXT
 8
UNTERSCHRIFT
 62
2
 10
7493.483398
 20
-620.499451
 40
3.250000
 41
0.800000
 51
15.000000
  1
  , Profi l PL1245*12
  0
TEXT
 8
UNTERSCHRIFT
 62
2
 10
7480.483398
 20
-620.499451
 40
3.250000
 41
0.800000
 51
15.000000
  1
10302
  0
LINE
  8
TEILE
 62
2
 10
45.000153
 20
-622.499817
 11
44.835808
 21
-619.363953
  0
LINE
  8
TEILE
 62
2
 10
44.835808
 20
-619.363953
 11
44.344566
 21
-616.262451
  0
LINE
  8
TEILE
 62
2
 10
44.344566
 20
-616.262451
 11
43.531830
 21
-613.229309
  0
LINE
  8
TEILE
 62
2
 10
43.531830
 20
-613.229309
 11
42.406494
 21
-610.297729
  0
LINE
  8
TEILE
 62
2
 10
42.406494
 20
-610.297729
 11
40.980881
 21
-607.499817
  0
LINE
  8
TEILE
 62
2
 10
40.980881
 20
-607.499817
 11
39.270622
 21
-604.866272
  0
LINE
  8
TEILE
 62
2
 10
39.270622
 20
-604.866272
 11
37.294453
 21
-602.425903
  0
LINE
  8
TEILE
 62
2
 10
37.294453
 20
-602.425903
 11
35.074020
 21
-600.205505
  0
LINE
  8
TEILE
 62
2
 10
35.074020
 20
-600.205505
 11
32.633656
 21
-598.229370
  0
LINE
  8
TEILE
 62
2
 10
32.633656
 20
-598.229370
 11
30.000093
 21
-596.519104
  0
LINE
  8
TEILE
 62
2
 10
30.000093
 20
-596.519104
 11
27.202190
 21
-595.093506
  0
LINE
  8
TEILE
 62
2
 10
27.202190
 20
-595.093506
 11
24.270599
 21
-593.968201
  0
LINE
  8
TEILE
 62
2
 10
24.270599
 20
-593.968201
 11
21.237438
 21
-593.155457
  0
LINE
  8
TEILE
 62
2
 10
21.237438
 20
-593.155457
 11
18.135939
 21
-592.664246
  0
LINE
  8
TEILE
 62
2
 10
18.135939
 20
-592.664246
 11
15.000085
 21
-592.499878
  0
LINE
  8
TEILE
 62
2
 10
15.000085
 20
-592.499878
 11
15.006437
 21
-317.499786
  0
LINE
  8
TEILE
 62
2
 10
15.006437
 20
-317.499786
 11
16.630602
 21
-317.455780
  0
LINE
  8
TEILE
 62
2
 10
16.630602
 20
-317.455780
 11
18.250004
 21
-317.323944
  0
LINE
  8
TEILE
 62
2
 10
18.250004
 20
-317.323944
 11
19.859892
 21
-317.104584
  0
LINE
  8
TEILE
 62
2
 10
19.859892
 20
-317.104584
 11
21.455544
 21
-316.798401
  0
LINE
  8
TEILE
 62
2
 10
21.455544
 20
-316.798401
 11
23.032280
 21
-316.406281
  0
LINE
  8
TEILE
 62
2
 10
23.032280
 20
-316.406281
 11
24.585474
 21
-315.929382
  0
LINE
  8
TEILE
 62
2
 10
24.585474
 20
-315.929382
 11
26.110571
 21
-315.369080
  0
LINE
  8
TEILE
 62
2
 10
26.110571
 20
-315.369080
 11
27.603096
 21
-314.727051
  0
LINE
  8
TEILE
 62
2
 10
27.603096
 20
-314.727051
 11
29.058676
 21
-314.005157
  0
LINE
  8
TEILE
 62
2
 10
29.058676
 20
-314.005157
 11
30.473038
 21
-313.205505
  0
LINE
  8
TEILE
 62
2
 10
30.473038
 20
-313.205505
 11
31.842031
 21
-312.330444
  0
LINE
  8
TEILE
 62
2
 10
31.842031
 20
-312.330444
 11
33.161644
 21
-311.382568
  0
LINE
  8
TEILE
 62
2
 10
33.161644
 20
-311.382568
 11
34.428009
 21
-310.364655
  0
LINE
  8
TEILE
 62
2
 10
34.428009
 20
-310.364655
 11
35.637402
 21
-309.279663
  0
LINE
  8
TEILE
 62
2
 10
35.637402
 20
-309.279663
 11
36.786282
 21
-308.130768
  0
LINE
  8
TEILE
 62
2
 10
36.786282
 20
-308.130768
 11
37.871277
 21
-306.921356
  0
LINE
  8
TEILE
 62
2
 10
37.871277
 20
-306.921356
 11
38.889206
 21
-305.654999
  0
LINE
  8
TEILE
 62
2
 10
38.889206
 20
-305.654999
 11
39.837086
 21
-304.335388
  0
LINE
  8
TEILE
 62
2
 10
39.837086
 20
-304.335388
 11
40.712132
 21
-302.966400
  0
LINE
  8
TEILE
 62
2
 10
40.712132
 20
-302.966400
 11
41.511780
 21
-301.552063
  0
LINE
  8
TEILE
 62
2
 10
41.511780
 20
-301.552063
 11
42.233681
 21
-300.096466
  0
LINE
  8
TEILE
 62
2
 10
42.233681
 20
-300.096466
 11
42.875725
 21
-298.603943
  0
LINE
  8
TEILE
 62
2
 10
42.875725
 20
-298.603943
 11
43.436016
 21
-297.078827
  0
LINE
  8
TEILE
 62
2
 10
43.436016
 20
-297.078827
 11
43.912926
 21
-295.525635
  0
LINE
  8
TEILE
 62
2
 10
43.912926
 20
-295.525635
 11
44.305042
 21
-293.948914
  0
LINE
  8
TEILE
 62
2
 10
44.305042
 20
-293.948914
 11
44.611225
 21
-292.353271
  0
LINE
  8
TEILE
 62
2
 10
44.611225
 20
-292.353271
 11
44.830570
 21
-290.743378
  0
LINE
  8
TEILE
 62
2
 10
44.830570
 20
-290.743378
 11
44.962440
 21
-289.123962
  0
LINE
  8
TEILE
 62
2
 10
44.962440
 20
-289.123962
 11
45.006439
 21
-287.499817
  0
LINE
  8
TEILE
 62
2
 10
45.006439
 20
-287.499817
 11
45.006443
 21
-287.499786
  0
LINE
  8
TEILE
 62
2
 10
45.006443
 20
-287.499786
 11
45.006443
 21
-287.499786
  0
LINE
  8
TEILE
 62
2
 10
45.006443
 20
-287.499786
 11
44.965332
 21
-285.929718
  0
LINE
  8
TEILE
 62
2
 10
44.965332
 20
-285.929718
 11
44.842110
 21
-284.363953
  0
LINE
  8
TEILE
 62
2
 10
44.842110
 20
-284.363953
 11
44.637104
 21
-282.806763
  0
LINE
  8
TEILE
 62
2
 10
44.637104
 20
-282.806763
 11
44.350883
 21
-281.262451
  0
LINE
  8
TEILE
 62
2
 10
44.350883
 20
-281.262451
 11
43.984230
 21
-279.735229
  0
LINE
  8
TEILE
 62
2
 10
43.984230
 20
-279.735229
 11
43.538151
 21
-278.229279
  0
LINE
  8
TEILE
 62
2
 10
43.538151
 20
-278.229279
 11
43.013870
 21
-276.748749
  0
LINE
  8
TEILE
 62
2
 10
43.013870
 20
-276.748749
 11
42.412819
 21
-275.297668
  0
LINE
  8
TEILE
 62
2
 10
42.412819
 20
-275.297668
 11
41.736656
 21
-273.880066
  0
LINE
  8
TEILE
 62
2
 10
41.736656
 20
-273.880066
 11
40.987221
 21
-272.499786
  0
LINE
  8
TEILE
 62
2
 10
40.987221
 20
-272.499786
 11
40.166573
 21
-271.160614
  0
LINE
  8
TEILE
 62
2
 10
40.166573
 20
-271.160614
 11
39.276966
 21
-269.866211
  0
LINE
  8
TEILE
 62
2
 10
39.276966
 20
-269.866211
 11
38.320835
 21
-268.620178
  0
LINE
  8
TEILE
 62
2
 10
38.320835
 20
-268.620178
 11
37.300800
 21
-267.425873
  0
LINE
  8
TEILE
 62
2
 10
37.300800
 20
-267.425873
 11
36.219658
 21
-266.286560
  0
LINE
  8
TEILE
 62
2
 10
36.219658
 20
-266.286560
 11
35.080372
 21
-265.205414
  0
LINE
  8
TEILE
 62
2
 10
35.080372
 20
-265.205414
 11
33.886063
 21
-264.185394
  0
LINE
  8
TEILE
 62
2
 10
33.886063
 20
-264.185394
 11
32.640007
 21
-263.229279
  0
LINE
  8
TEILE
 62
2
 10
32.640007
 20
-263.229279
 11
31.345617
 21
-262.339661
  0
LINE
  8
TEILE
 62
2
 10
31.345617
 20
-262.339661
 11
30.006447
 21
-261.519012
  0
LINE
  8
TEILE
 62
2
 10
30.006447
 20
-261.519012
 11
28.626160
 21
-260.769592
  0
LINE
  8
TEILE
 62
2
 10
28.626160
 20
-260.769592
 11
27.208546
 21
-260.093414
  0
LINE
  8
TEILE
 62
2
 10
27.208546
 20
-260.093414
 11
25.757484
 21
-259.492371
  0
LINE
  8
TEILE
 62
2
 10
25.757484
 20
-259.492371
 11
24.276955
 21
-258.968079
  0
LINE
  8
TEILE
 62
2
 10
24.276955
 20
-258.968079
 11
22.771015
 21
-258.522003
  0
LINE
  8
TEILE
 62
2
 10
22.771015
 20
-258.522003
 11
21.243797
 21
-258.155365
  0
LINE
  8
TEILE
 62
2
 10
21.243797
 20
-258.155365
 11
19.699478
 21
-257.869141
  0
LINE
  8
TEILE
 62
2
 10
19.699478
 20
-257.869141
 11
18.142298
 21
-257.664124
  0
LINE
  8
TEILE
 62
2
 10
18.142298
 20
-257.664124
 11
16.576523
 21
-257.540924
  0
LINE
  8
TEILE
 62
2
 10
16.576523
 20
-257.540924
 11
15.006446
 21
-257.499786
  0
LINE
  8
TEILE
 62
2
 10
15.006446
 20
-257.499786
 11
15.006437
 21
-257.499786
  0
LINE
  8
TEILE
 62
2
 10
15.006437
 20
-257.499786
 11
0.010032
 21
-257.499786
  0
LINE
  8
TEILE
 62
2
 10
0.010032
 20
-257.499786
 11
0.000000
 21
592.500305
  0
LINE
  8
TEILE
 62
2
 10
0.000000
 20
592.500305
 11
4.269409
 21
592.805481
  0
LINE
  8
TEILE
 62
2
 10
4.269409
 20
592.805481
 11
8.451843
 21
593.714905
  0
LINE
  8
TEILE
 62
2
 10
8.451843
 20
593.714905
 11
12.461853
 21
595.210999
  0
LINE
  8
TEILE
 62
2
 10
12.461853
 20
595.210999
 11
16.218567
 21
597.262573
  0
LINE
  8
TEILE
 62
2
 10
16.218567
 20
597.262573
 11
19.645691
 21
599.827576
  0
LINE
  8
TEILE
 62
2
 10
19.645691
 20
599.827576
 11
22.672272
 21
602.854126
  0
LINE
  8
TEILE
 62
2
 10
22.672272
 20
602.854126
 11
25.237274
 21
606.280518
  0
LINE
  8
TEILE
 62
2
 10
25.237274
 20
606.280518
 11
27.288818
 21
610.037231
  0
LINE
  8
TEILE
 62
2
 10
27.288818
 20
610.037231
 11
28.784180
 21
614.047974
  0
LINE
  8
TEILE
 62
2
 10
28.784180
 20
614.047974
 11
29.694366
 21
618.230408
  0
LINE
  8
TEILE
 62
2
 10
29.694366
 20
618.230408
 11
29.999542
 21
622.499817
  0
LINE
  8
TEILE
 62
2
 10
29.999542
 20
622.499817
 11
14918.000000
 21
622.499817
  0
LINE
  8
TEILE
 62
2
 10
14918.000000
 20
622.499817
 11
14918.165039
 21
619.363953
  0
LINE
  8
TEILE
 62
2
 10
14918.165039
 20
619.363953
 11
14918.656250
 21
616.262451
  0
LINE
  8
TEILE
 62
2
 10
14918.656250
 20
616.262451
 11
14919.468750
 21
613.229309
  0
LINE
  8
TEILE
 62
2
 10
14919.468750
 20
613.229309
 11
14920.594727
 21
610.297729
  0
LINE
  8
TEILE
 62
2
 10
14920.594727
 20
610.297729
 11
14922.020508
 21
607.499817
  0
LINE
  8
TEILE
 62
2
 10
14922.020508
 20
607.499817
 11
14923.729492
 21
604.866272
  0
LINE
  8
TEILE
 62
2
 10
14923.729492
 20
604.866272
 11
14925.707031
 21
602.425903
  0
LINE
  8
TEILE
 62
2
 10
14925.707031
 20
602.425903
 11
14927.927734
 21
600.205505
  0
LINE
  8
TEILE
 62
2
 10
14927.927734
 20
600.205505
 11
14930.367188
 21
598.229309
  0
LINE
  8
TEILE
 62
2
 10
14930.367188
 20
598.229309
 11
14933.000000
 21
596.519043
  0
LINE
  8
TEILE
 62
2
 10
14933.000000
 20
596.519043
 11
14935.798828
 21
595.093445
  0
LINE
  8
TEILE
 62
2
 10
14935.798828
 20
595.093445
 11
14938.729492
 21
593.968140
  0
LINE
  8
TEILE
 62
2
 10
14938.729492
 20
593.968140
 11
14941.762695
 21
593.155396
  0
LINE
  8
TEILE
 62
2
 10
14941.762695
 20
593.155396
 11
14944.864258
 21
592.664185
  0
LINE
  8
TEILE
 62
2
 10
14944.864258
 20
592.664185
 11
14948.000000
 21
592.499817
  0
LINE
  8
TEILE
 62
2
 10
14948.000000
 20
592.499817
 11
14947.999023
 21
-257.494202
  0
LINE
  8
TEILE
 62
2
 10
14947.999023
 20
-257.494202
 11
14932.976563
 21
-257.494202
  0
LINE
  8
TEILE
 62
2
 10
14932.976563
 20
-257.494202
 11
14926.738281
 21
-258.149780
  0
LINE
  8
TEILE
 62
2
 10
14926.738281
 20
-258.149780
 11
14920.773438
 21
-260.087860
  0
LINE
  8
TEILE
 62
2
 10
14920.773438
 20
-260.087860
 11
14915.341797
 21
-263.223694
  0
LINE
  8
TEILE
 62
2
 10
14915.341797
 20
-263.223694
 11
14910.682617
 21
-267.420288
  0
LINE
  8
TEILE
 62
2
 10
14910.682617
 20
-267.420288
 11
14906.996094
 21
-272.494202
  0
LINE
  8
TEILE
 62
2
 10
14906.996094
 20
-272.494202
 11
14904.444336
 21
-278.223694
  0
LINE
  8
TEILE
 62
2
 10
14904.444336
 20
-278.223694
 11
14903.139648
 21
-284.358368
  0
LINE
  8
TEILE
 62
2
 10
14903.139648
 20
-284.358368
 11
14903.139648
 21
-290.630066
  0
LINE
  8
TEILE
 62
2
 10
14903.139648
 20
-290.630066
 11
14904.444336
 21
-296.764740
  0
LINE
  8
TEILE
 62
2
 10
14904.444336
 20
-296.764740
 11
14906.996094
 21
-302.494202
  0
LINE
  8
TEILE
 62
2
 10
14906.996094
 20
-302.494202
 11
14910.682617
 21
-307.568146
  0
LINE
  8
TEILE
 62
2
 10
14910.682617
 20
-307.568146
 11
14915.341797
 21
-311.764740
  0
LINE
  8
TEILE
 62
2
 10
14915.341797
 20
-311.764740
 11
14920.773438
 21
-314.900574
  0
LINE
  8
TEILE
 62
2
 10
14920.773438
 20
-314.900574
 11
14926.738281
 21
-316.838654
  0
LINE
  8
TEILE
 62
2
 10
14926.738281
 20
-316.838654
 11
14932.976563
 21
-317.494202
  0
LINE
  8
TEILE
 62
2
 10
14932.976563
 20
-317.494202
 11
14932.967773
 21
-592.499878
  0
LINE
  8
TEILE
 62
2
 10
14932.967773
 20
-592.499878
 11
14929.832031
 21
-592.664185
  0
LINE
  8
TEILE
 62
2
 10
14929.832031
 20
-592.664185
 11
14926.729492
 21
-593.155273
  0
LINE
  8
TEILE
 62
2
 10
14926.729492
 20
-593.155273
 11
14923.696289
 21
-593.967957
  0
LINE
  8
TEILE
 62
2
 10
14923.696289
 20
-593.967957
 11
14920.765625
 21
-595.093201
  0
LINE
  8
TEILE
 62
2
 10
14920.765625
 20
-595.093201
 11
14917.967773
 21
-596.518738
  0
LINE
  8
TEILE
 62
2
 10
14917.967773
 20
-596.518738
 11
14915.333008
 21
-598.228943
  0
LINE
  8
TEILE
 62
2
 10
14915.333008
 20
-598.228943
 11
14912.892578
 21
-600.205017
  0
LINE
  8
TEILE
 62
2
 10
14912.892578
 20
-600.205017
 11
14910.672852
 21
-602.425354
  0
LINE
  8
TEILE
 62
2
 10
14910.672852
 20
-602.425354
 11
14908.696289
 21
-604.865662
  0
LINE
  8
TEILE
 62
2
 10
14908.696289
 20
-604.865662
 11
14906.986328
 21
-607.499207
  0
LINE
  8
TEILE
 62
2
 10
14906.986328
 20
-607.499207
 11
14905.560547
 21
-610.297058
  0
LINE
  8
TEILE
 62
2
 10
14905.560547
 20
-610.297058
 11
14904.434570
 21
-613.228638
  0
LINE
  8
TEILE
 62
2
 10
14904.434570
 20
-613.228638
 11
14903.622070
 21
-616.261780
  0
LINE
  8
TEILE
 62
2
 10
14903.622070
 20
-616.261780
 11
14903.130859
 21
-619.363220
  0
LINE
  8
TEILE
 62
2
 10
14903.130859
 20
-619.363220
 11
14902.966797
 21
-622.499084
  0
LINE
  8
TEILE
 62
2
 10
14902.966797
 20
-622.499084
 11
45.000153
 21
-622.499817
  0
ENDSEC
  0
EOF

