999
     *******************************************
999
     BOCAD Software GmbH   Rev.18.000   0202.22
999
     Filename:   c:\progetti21\danieli_aqs\b4\temp_60\10304.dxf
999
     Creator:    bocad
999
     Date:       20.01.2016
999
     Factor:     10.000000
999
     *******************************************
  0
SECTION
  2
HEADER
  9
$DWGCODEPAGE
  3
ANSI_1252
  9
$INSBASE
 10
0.0
 20
0.0
 30
0.0
  9
$EXTMIN
 10
-0.500034
 20
-620.500488
  9
$EXTMAX
 10
14948.505859
 20
620.499649
  9
$LIMMIN
 10
-1.500034
 20
-621.500488
  9
$LIMMAX
 10
14949.505859
 20
621.499649
  9
$LTSCALE
 40
10.000000
  0
ENDSEC
  0
SECTION
  2
TABLES
  0
TABLE
  2
LTYPE
 70
4
  0
LTYPE
  2
CONTINUOUS
 70
64
  3
____________________________________________
 72
65
 73
0
 40
0.0
  0
LTYPE
  2
HIDDEN
 70
64
  3
__ __ __ __ __ __ __ __ __ __ __ __ __ __ __
 72
65
 73
2
 40
0.50
 49
0.30
 49
-0.20
  0
LTYPE
  2
DASHDOT
 70
64
  3
____ _ ____ _ ____ _ ____ _ ____ _ ____ _ __
 72
65
 73
4
 40
2.0
 49
1.5
 49
-0.25
 49
0
 49
-0.25
  0
LTYPE
  2
DOT
 70
64
  3
............................................
 72
65
 73
2
 40
0.30
 49
0
 49
-0.30
  0
ENDTAB
  0
TABLE
  2
LAYER
 70
23
  0
LAYER
  2
UNTERSCHRIFT
 70
64
 62
7
  6
CONTINUOUS
  0
LAYER
  2
TEILE
 70
64
 62
7
  6
CONTINUOUS
  0
LAYER
  2
REST
 70
64
 62
7
  6
CONTINUOUS
  0
LAYER
  2
MARKERPUNKTE
 70
64
 62
7
  6
CONTINUOUS
  0
LAYER
  2
HILFSPUNKTE
 70
64
 62
7
  6
CONTINUOUS
  0
LAYER
  2
PICKPUNKTE
 70
64
 62
7
  6
CONTINUOUS
  0
LAYER
  2
SCHRAUBEN
 70
64
 62
7
  6
CONTINUOUS
  0
LAYER
  2
SCHWEISSEN
 70
64
 62
7
  6
CONTINUOUS
  0
LAYER
  2
GRAFIK
 70
64
 62
7
  6
CONTINUOUS
  0
LAYER
  2
BEM_FREI
 70
64
 62
7
  6
CONTINUOUS
  0
LAYER
  2
BEM_SYSTEM
 70
64
 62
7
  6
CONTINUOUS
  0
LAYER
  2
BEM_KONTUR
 70
64
 62
7
  6
CONTINUOUS
  0
LAYER
  2
BEM_ANBAU
 70
64
 62
7
  6
CONTINUOUS
  0
LAYER
  2
BEM_SCHRAUBEN
 70
64
 62
7
  6
CONTINUOUS
  0
LAYER
  2
BEM_SCHWEISSEN
 70
64
 62
7
  6
CONTINUOUS
  0
LAYER
  2
FREIER_TEXT
 70
64
 62
7
  6
CONTINUOUS
  0
LAYER
  2
BEZ_TEILE
 70
64
 62
7
  6
CONTINUOUS
  0
LAYER
  2
BEZ_SCHRAUBEN
 70
64
 62
7
  6
CONTINUOUS
  0
LAYER
  2
BEZ_SCHWEISSEN
 70
64
 62
7
  6
CONTINUOUS
  0
LAYER
  2
SCHRAFFUREN
 70
64
 62
7
  6
CONTINUOUS
  0
LAYER
  2
SCHNITTSYMBOL
 70
64
 62
7
  6
CONTINUOUS
  0
LAYER
  2
RASTER
 70
64
 62
7
  6
CONTINUOUS
  0
LAYER
  2
LISTEN
 70
64
 62
7
  6
CONTINUOUS
  0
LAYER
  2
RAHMEN
 70
64
 62
7
  6
CONTINUOUS
  0
ENDTAB
  0
TABLE
  2
STYLE
 70
1
  0
STYLE
  2
STANDARD
 70
64
 40
0
 41
1
 50
0.0
 71
0
 42
0.35
  3
ROMANS
  0
ENDTAB
  0
ENDSEC
  0
SECTION
  2
ENTITIES
  0
TEXT
 8
UNTERSCHRIFT
 62
2
 10
7394.702148
 20
-618.000061
 40
3.250000
 41
0.800000
 51
15.000000
  1
Project  DP0GN9  ,Qty. 1  , Pos. 
  0
TEXT
 8
UNTERSCHRIFT
 62
2
 10
7493.501953
 20
-618.000061
 40
3.250000
 41
0.800000
 51
15.000000
  1
  , Profi l PL1240*12
  0
TEXT
 8
UNTERSCHRIFT
 62
2
 10
7480.502441
 20
-618.000061
 40
3.250000
 41
0.800000
 51
15.000000
  1
10304
  0
LINE
  8
TEILE
 62
2
 10
45.034477
 20
-620.000488
 11
44.869682
 21
-616.864624
  0
LINE
  8
TEILE
 62
2
 10
44.869682
 20
-616.864624
 11
44.378349
 21
-613.763123
  0
LINE
  8
TEILE
 62
2
 10
44.378349
 20
-613.763123
 11
43.565819
 21
-610.729919
  0
LINE
  8
TEILE
 62
2
 10
43.565819
 20
-610.729919
 11
42.440483
 21
-607.798340
  0
LINE
  8
TEILE
 62
2
 10
42.440483
 20
-607.798340
 11
41.014549
 21
-605.000488
  0
LINE
  8
TEILE
 62
2
 10
41.014549
 20
-605.000488
 11
39.304798
 21
-602.366882
  0
LINE
  8
TEILE
 62
2
 10
39.304798
 20
-602.366882
 11
37.328785
 21
-599.926514
  0
LINE
  8
TEILE
 62
2
 10
37.328785
 20
-599.926514
 11
35.107868
 21
-597.706116
  0
LINE
  8
TEILE
 62
2
 10
35.107868
 20
-597.706116
 11
32.667988
 21
-595.729919
  0
LINE
  8
TEILE
 62
2
 10
32.667988
 20
-595.729919
 11
30.034321
 21
-594.019714
  0
LINE
  8
TEILE
 62
2
 10
30.034321
 20
-594.019714
 11
27.236622
 21
-592.594116
  0
LINE
  8
TEILE
 62
2
 10
27.236622
 20
-592.594116
 11
24.304646
 21
-591.468750
  0
LINE
  8
TEILE
 62
2
 10
24.304646
 20
-591.468750
 11
21.271198
 21
-590.656006
  0
LINE
  8
TEILE
 62
2
 10
21.271198
 20
-590.656006
 11
18.169847
 21
-590.164795
  0
LINE
  8
TEILE
 62
2
 10
18.169847
 20
-590.164795
 11
15.034166
 21
-590.000427
  0
LINE
  8
TEILE
 62
2
 10
15.034166
 20
-590.000427
 11
15.026537
 21
-319.995697
  0
LINE
  8
TEILE
 62
2
 10
15.026537
 20
-319.995697
 11
21.263569
 21
-319.339935
  0
LINE
  8
TEILE
 62
2
 10
21.263569
 20
-319.339935
 11
27.228230
 21
-317.401703
  0
LINE
  8
TEILE
 62
2
 10
27.228230
 20
-317.401703
 11
32.659595
 21
-314.265747
  0
LINE
  8
TEILE
 62
2
 10
32.659595
 20
-314.265747
 11
37.320393
 21
-310.069000
  0
LINE
  8
TEILE
 62
2
 10
37.320393
 20
-310.069000
 11
41.006157
 21
-304.994965
  0
LINE
  8
TEILE
 62
2
 10
41.006157
 20
-304.994965
 11
43.557426
 21
-299.265381
  0
LINE
  8
TEILE
 62
2
 10
43.557426
 20
-299.265381
 11
44.861290
 21
-293.130676
  0
LINE
  8
TEILE
 62
2
 10
44.861290
 20
-293.130676
 11
44.861290
 21
-286.858948
  0
LINE
  8
TEILE
 62
2
 10
44.861290
 20
-286.858948
 11
43.556664
 21
-280.724335
  0
LINE
  8
TEILE
 62
2
 10
43.556664
 20
-280.724335
 11
41.005394
 21
-274.994965
  0
LINE
  8
TEILE
 62
2
 10
41.005394
 20
-274.994965
 11
37.318867
 21
-269.921112
  0
LINE
  8
TEILE
 62
2
 10
37.318867
 20
-269.921112
 11
32.658070
 21
-265.724670
  0
LINE
  8
TEILE
 62
2
 10
32.658070
 20
-265.724670
 11
27.226704
 21
-262.588989
  0
LINE
  8
TEILE
 62
2
 10
27.226704
 20
-262.588989
 11
21.262043
 21
-260.651031
  0
LINE
  8
TEILE
 62
2
 10
21.262043
 20
-260.651031
 11
15.024248
 21
-259.995667
  0
LINE
  8
TEILE
 62
2
 10
15.024248
 20
-259.995667
 11
0.024095
 21
-259.996033
  0
LINE
  8
TEILE
 62
2
 10
0.024095
 20
-259.996033
 11
-0.000034
 21
589.999634
  0
LINE
  8
TEILE
 62
2
 10
-0.000034
 20
589.999634
 11
3.135820
 21
590.163940
  0
LINE
  8
TEILE
 62
2
 10
3.135820
 20
590.163940
 11
6.237317
 21
590.655212
  0
LINE
  8
TEILE
 62
2
 10
6.237317
 20
590.655212
 11
9.270475
 21
591.467896
  0
LINE
  8
TEILE
 62
2
 10
9.270475
 20
591.467896
 11
12.202066
 21
592.593262
  0
LINE
  8
TEILE
 62
2
 10
12.202066
 20
592.593262
 11
14.999966
 21
594.018860
  0
LINE
  8
TEILE
 62
2
 10
14.999966
 20
594.018860
 11
17.633524
 21
595.729126
  0
LINE
  8
TEILE
 62
2
 10
17.633524
 20
595.729126
 11
20.073887
 21
597.705261
  0
LINE
  8
TEILE
 62
2
 10
20.073887
 20
597.705261
 11
22.294312
 21
599.925720
  0
LINE
  8
TEILE
 62
2
 10
22.294312
 20
599.925720
 11
24.270475
 21
602.366028
  0
LINE
  8
TEILE
 62
2
 10
24.270475
 20
602.366028
 11
25.980728
 21
604.999634
  0
LINE
  8
TEILE
 62
2
 10
25.980728
 20
604.999634
 11
27.406330
 21
607.797485
  0
LINE
  8
TEILE
 62
2
 10
27.406330
 20
607.797485
 11
28.531664
 21
610.729126
  0
LINE
  8
TEILE
 62
2
 10
28.531664
 20
610.729126
 11
29.344395
 21
613.762268
  0
LINE
  8
TEILE
 62
2
 10
29.344395
 20
613.762268
 11
29.835623
 21
616.863770
  0
LINE
  8
TEILE
 62
2
 10
29.835623
 20
616.863770
 11
29.999966
 21
619.999634
  0
LINE
  8
TEILE
 62
2
 10
29.999966
 20
619.999634
 11
14918.005859
 21
619.999634
  0
LINE
  8
TEILE
 62
2
 10
14918.005859
 20
619.999634
 11
14918.311523
 21
615.730225
  0
LINE
  8
TEILE
 62
2
 10
14918.311523
 20
615.730225
 11
14919.220703
 21
611.547607
  0
LINE
  8
TEILE
 62
2
 10
14919.220703
 20
611.547607
 11
14920.716797
 21
607.537170
  0
LINE
  8
TEILE
 62
2
 10
14920.716797
 20
607.537170
 11
14922.768555
 21
603.780273
  0
LINE
  8
TEILE
 62
2
 10
14922.768555
 20
603.780273
 11
14925.333008
 21
600.353760
  0
LINE
  8
TEILE
 62
2
 10
14925.333008
 20
600.353760
 11
14928.359375
 21
597.327148
  0
LINE
  8
TEILE
 62
2
 10
14928.359375
 20
597.327148
 11
14931.786133
 21
594.761963
  0
LINE
  8
TEILE
 62
2
 10
14931.786133
 20
594.761963
 11
14935.542969
 21
592.710632
  0
LINE
  8
TEILE
 62
2
 10
14935.542969
 20
592.710632
 11
14939.552734
 21
591.214844
  0
LINE
  8
TEILE
 62
2
 10
14939.552734
 20
591.214844
 11
14943.735352
 21
590.304871
  0
LINE
  8
TEILE
 62
2
 10
14943.735352
 20
590.304871
 11
14948.005859
 21
589.999512
  0
LINE
  8
TEILE
 62
2
 10
14948.005859
 20
589.999512
 11
14947.987305
 21
-79.999779
  0
LINE
  8
TEILE
 62
2
 10
14947.987305
 20
-79.999779
 11
14932.990234
 21
-79.999359
  0
LINE
  8
TEILE
 62
2
 10
14932.990234
 20
-79.999359
 11
14926.752930
 21
-80.654861
  0
LINE
  8
TEILE
 62
2
 10
14926.752930
 20
-80.654861
 11
14920.789063
 21
-82.592850
  0
LINE
  8
TEILE
 62
2
 10
14920.789063
 20
-82.592850
 11
14915.356445
 21
-85.728645
  0
LINE
  8
TEILE
 62
2
 10
14915.356445
 20
-85.728645
 11
14910.697266
 21
-89.925186
  0
LINE
  8
TEILE
 62
2
 10
14910.697266
 20
-89.925186
 11
14907.010742
 21
-94.999054
  0
LINE
  8
TEILE
 62
2
 10
14907.010742
 20
-94.999054
 11
14904.458984
 21
-100.728523
  0
LINE
  8
TEILE
 62
2
 10
14904.458984
 20
-100.728523
 11
14903.154297
 21
-106.863167
  0
LINE
  8
TEILE
 62
2
 10
14903.154297
 20
-106.863167
 11
14903.154297
 21
-113.134872
  0
LINE
  8
TEILE
 62
2
 10
14903.154297
 20
-113.134872
 11
14904.458008
 21
-119.269547
  0
LINE
  8
TEILE
 62
2
 10
14904.458008
 20
-119.269547
 11
14907.009766
 21
-124.999054
  0
LINE
  8
TEILE
 62
2
 10
14907.009766
 20
-124.999054
 11
14910.695313
 21
-130.073013
  0
LINE
  8
TEILE
 62
2
 10
14910.695313
 20
-130.073013
 11
14915.356445
 21
-134.269669
  0
LINE
  8
TEILE
 62
2
 10
14915.356445
 20
-134.269669
 11
14920.789063
 21
-137.405579
  0
LINE
  8
TEILE
 62
2
 10
14920.789063
 20
-137.405579
 11
14926.752930
 21
-139.343719
  0
LINE
  8
TEILE
 62
2
 10
14926.752930
 20
-139.343719
 11
14932.990234
 21
-139.999359
  0
LINE
  8
TEILE
 62
2
 10
14932.990234
 20
-139.999359
 11
14932.972656
 21
-590.000427
  0
LINE
  8
TEILE
 62
2
 10
14932.972656
 20
-590.000427
 11
14929.835938
 21
-590.164734
  0
LINE
  8
TEILE
 62
2
 10
14929.835938
 20
-590.164734
 11
14926.734375
 21
-590.655884
  0
LINE
  8
TEILE
 62
2
 10
14926.734375
 20
-590.655884
 11
14923.701172
 21
-591.468506
  0
LINE
  8
TEILE
 62
2
 10
14923.701172
 20
-591.468506
 11
14920.770508
 21
-592.593750
  0
LINE
  8
TEILE
 62
2
 10
14920.770508
 20
-592.593750
 11
14917.970703
 21
-594.019287
  0
LINE
  8
TEILE
 62
2
 10
14917.970703
 20
-594.019287
 11
14915.336914
 21
-595.729431
  0
LINE
  8
TEILE
 62
2
 10
14915.336914
 20
-595.729431
 11
14912.898438
 21
-597.705505
  0
LINE
  8
TEILE
 62
2
 10
14912.898438
 20
-597.705505
 11
14910.677734
 21
-599.925903
  0
LINE
  8
TEILE
 62
2
 10
14910.677734
 20
-599.925903
 11
14908.701172
 21
-602.366211
  0
LINE
  8
TEILE
 62
2
 10
14908.701172
 20
-602.366211
 11
14906.991211
 21
-604.999695
  0
LINE
  8
TEILE
 62
2
 10
14906.991211
 20
-604.999695
 11
14905.565430
 21
-607.797607
  0
LINE
  8
TEILE
 62
2
 10
14905.565430
 20
-607.797607
 11
14904.439453
 21
-610.729126
  0
LINE
  8
TEILE
 62
2
 10
14904.439453
 20
-610.729126
 11
14903.626953
 21
-613.762268
  0
LINE
  8
TEILE
 62
2
 10
14903.626953
 20
-613.762268
 11
14903.134766
 21
-616.863770
  0
LINE
  8
TEILE
 62
2
 10
14903.134766
 20
-616.863770
 11
14902.969727
 21
-619.999634
  0
LINE
  8
TEILE
 62
2
 10
14902.969727
 20
-619.999634
 11
45.034477
 21
-620.000488
  0
ENDSEC
  0
EOF

