  0
SECTION
  2
HEADER
  9
$ACADVER
  1
AC1018
  9
$ACADMAINTVER
 70
   104
  9
$DWGCODEPAGE
  3
ANSI_1252
  9
$LASTSAVEDBY
  1
zamunere
  9
$INSBASE
 10
0.0
 20
0.0
 30
0.0
  9
$EXTMIN
 10
-0.0411097487594816
 20
-532.6907586083288
 30
-0.0015258207003583
  9
$EXTMAX
 10
11948.04214239994
 20
532.8112876457289
 30
0.0000000349246037
  9
$LIMMIN
 10
-1.5
 20
-533.999992
  9
$LIMMAX
 10
11949.500977
 20
6066.070189999999
  9
$ORTHOMODE
 70
     0
  9
$REGENMODE
 70
     1
  9
$FILLMODE
 70
     1
  9
$QTEXTMODE
 70
     0
  9
$MIRRTEXT
 70
     0
  9
$LTSCALE
 40
10.0
  9
$ATTMODE
 70
     1
  9
$TEXTSIZE
 40
0.35
  9
$TRACEWID
 40
0.05
  9
$TEXTSTYLE
  7
STANDARD
  9
$CLAYER
  8
0
  9
$CELTYPE
  6
CONTINUOUS
  9
$CECOLOR
 62
   256
  9
$CELTSCALE
 40
1.0
  9
$DISPSILH
 70
     0
  9
$DIMSCALE
 40
1.0
  9
$DIMASZ
 40
0.18
  9
$DIMEXO
 40
0.0625
  9
$DIMDLI
 40
0.38
  9
$DIMRND
 40
0.0
  9
$DIMDLE
 40
0.0
  9
$DIMEXE
 40
0.18
  9
$DIMTP
 40
0.0
  9
$DIMTM
 40
0.0
  9
$DIMTXT
 40
0.18
  9
$DIMCEN
 40
0.09
  9
$DIMTSZ
 40
0.0
  9
$DIMTOL
 70
     0
  9
$DIMLIM
 70
     0
  9
$DIMTIH
 70
     1
  9
$DIMTOH
 70
     1
  9
$DIMSE1
 70
     0
  9
$DIMSE2
 70
     0
  9
$DIMTAD
 70
     0
  9
$DIMZIN
 70
     0
  9
$DIMBLK
  1

  9
$DIMASO
 70
     1
  9
$DIMSHO
 70
     1
  9
$DIMPOST
  1

  9
$DIMAPOST
  1

  9
$DIMALT
 70
     0
  9
$DIMALTD
 70
     2
  9
$DIMALTF
 40
25.4
  9
$DIMLFAC
 40
1.0
  9
$DIMTOFL
 70
     0
  9
$DIMTVP
 40
0.0
  9
$DIMTIX
 70
     0
  9
$DIMSOXD
 70
     0
  9
$DIMSAH
 70
     0
  9
$DIMBLK1
  1

  9
$DIMBLK2
  1

  9
$DIMSTYLE
  2
Standard
  9
$DIMCLRD
 70
     0
  9
$DIMCLRE
 70
     0
  9
$DIMCLRT
 70
     0
  9
$DIMTFAC
 40
1.0
  9
$DIMGAP
 40
0.09
  9
$DIMJUST
 70
     0
  9
$DIMSD1
 70
     0
  9
$DIMSD2
 70
     0
  9
$DIMTOLJ
 70
     1
  9
$DIMTZIN
 70
     0
  9
$DIMALTZ
 70
     0
  9
$DIMALTTZ
 70
     0
  9
$DIMUPT
 70
     0
  9
$DIMDEC
 70
     4
  9
$DIMTDEC
 70
     4
  9
$DIMALTU
 70
     2
  9
$DIMALTTD
 70
     2
  9
$DIMTXSTY
  7
STANDARD
  9
$DIMAUNIT
 70
     0
  9
$DIMADEC
 70
     0
  9
$DIMALTRND
 40
0.0
  9
$DIMAZIN
 70
     0
  9
$DIMDSEP
 70
    46
  9
$DIMATFIT
 70
     3
  9
$DIMFRAC
 70
     0
  9
$DIMLDRBLK
  1

  9
$DIMLUNIT
 70
     2
  9
$DIMLWD
 70
    -2
  9
$DIMLWE
 70
    -2
  9
$DIMTMOVE
 70
     0
  9
$LUNITS
 70
     2
  9
$LUPREC
 70
     4
  9
$SKETCHINC
 40
0.1
  9
$FILLETRAD
 40
0.0
  9
$AUNITS
 70
     0
  9
$AUPREC
 70
     0
  9
$MENU
  1
.
  9
$ELEVATION
 40
0.0
  9
$PELEVATION
 40
0.0
  9
$THICKNESS
 40
0.0
  9
$LIMCHECK
 70
     0
  9
$CHAMFERA
 40
0.0
  9
$CHAMFERB
 40
0.0
  9
$CHAMFERC
 40
0.0
  9
$CHAMFERD
 40
0.0
  9
$SKPOLY
 70
     0
  9
$TDCREATE
 40
2457408.458351760
  9
$TDUCREATE
 40
2457408.416685093
  9
$TDUPDATE
 40
2457408.459418588
  9
$TDUUPDATE
 40
2457408.417751921
  9
$TDINDWG
 40
0.0010669444
  9
$TDUSRTIMER
 40
0.0010669444
  9
$USRTIMER
 70
     1
  9
$ANGBASE
 50
0.0
  9
$ANGDIR
 70
     0
  9
$PDMODE
 70
     0
  9
$PDSIZE
 40
0.0
  9
$PLINEWID
 40
0.0
  9
$SPLFRAME
 70
     0
  9
$SPLINETYPE
 70
     6
  9
$SPLINESEGS
 70
     8
  9
$HANDSEED
  5
1BBD
  9
$SURFTAB1
 70
     6
  9
$SURFTAB2
 70
     6
  9
$SURFTYPE
 70
     6
  9
$SURFU
 70
     6
  9
$SURFV
 70
     6
  9
$UCSBASE
  2

  9
$UCSNAME
  2

  9
$UCSORG
 10
0.0
 20
0.0
 30
0.0
  9
$UCSXDIR
 10
1.0
 20
0.0
 30
0.0
  9
$UCSYDIR
 10
0.0
 20
1.0
 30
0.0
  9
$UCSORTHOREF
  2

  9
$UCSORTHOVIEW
 70
     0
  9
$UCSORGTOP
 10
0.0
 20
0.0
 30
0.0
  9
$UCSORGBOTTOM
 10
0.0
 20
0.0
 30
0.0
  9
$UCSORGLEFT
 10
0.0
 20
0.0
 30
0.0
  9
$UCSORGRIGHT
 10
0.0
 20
0.0
 30
0.0
  9
$UCSORGFRONT
 10
0.0
 20
0.0
 30
0.0
  9
$UCSORGBACK
 10
0.0
 20
0.0
 30
0.0
  9
$PUCSBASE
  2

  9
$PUCSNAME
  2

  9
$PUCSORG
 10
0.0
 20
0.0
 30
0.0
  9
$PUCSXDIR
 10
1.0
 20
0.0
 30
0.0
  9
$PUCSYDIR
 10
0.0
 20
1.0
 30
0.0
  9
$PUCSORTHOREF
  2

  9
$PUCSORTHOVIEW
 70
     0
  9
$PUCSORGTOP
 10
0.0
 20
0.0
 30
0.0
  9
$PUCSORGBOTTOM
 10
0.0
 20
0.0
 30
0.0
  9
$PUCSORGLEFT
 10
0.0
 20
0.0
 30
0.0
  9
$PUCSORGRIGHT
 10
0.0
 20
0.0
 30
0.0
  9
$PUCSORGFRONT
 10
0.0
 20
0.0
 30
0.0
  9
$PUCSORGBACK
 10
0.0
 20
0.0
 30
0.0
  9
$USERI1
 70
     0
  9
$USERI2
 70
     0
  9
$USERI3
 70
     0
  9
$USERI4
 70
     0
  9
$USERI5
 70
     0
  9
$USERR1
 40
0.0
  9
$USERR2
 40
0.0
  9
$USERR3
 40
0.0
  9
$USERR4
 40
0.0
  9
$USERR5
 40
0.0
  9
$WORLDVIEW
 70
     1
  9
$SHADEDGE
 70
     3
  9
$SHADEDIF
 70
    70
  9
$TILEMODE
 70
     1
  9
$MAXACTVP
 70
    64
  9
$PINSBASE
 10
0.0
 20
0.0
 30
0.0
  9
$PLIMCHECK
 70
     0
  9
$PEXTMIN
 10
1.000000000000000E+20
 20
1.000000000000000E+20
 30
1.000000000000000E+20
  9
$PEXTMAX
 10
-1.000000000000000E+20
 20
-1.000000000000000E+20
 30
-1.000000000000000E+20
  9
$PLIMMIN
 10
0.0
 20
0.0
  9
$PLIMMAX
 10
12.0
 20
9.0
  9
$UNITMODE
 70
     0
  9
$VISRETAIN
 70
     1
  9
$PLINEGEN
 70
     0
  9
$PSLTSCALE
 70
     1
  9
$TREEDEPTH
 70
  3020
  9
$CMLSTYLE
  2
Standard
  9
$CMLJUST
 70
     0
  9
$CMLSCALE
 40
1.0
  9
$PROXYGRAPHICS
 70
     1
  9
$MEASUREMENT
 70
     0
  9
$CELWEIGHT
370
    -1
  9
$ENDCAPS
280
     0
  9
$JOINSTYLE
280
     0
  9
$LWDISPLAY
290
     0
  9
$INSUNITS
 70
     0
  9
$HYPERLINKBASE
  1

  9
$STYLESHEET
  1

  9
$XEDIT
290
     1
  9
$CEPSNTYPE
380
     0
  9
$PSTYLEMODE
290
     1
  9
$FINGERPRINTGUID
  2
{42E18603-A7C0-4D75-BBAB-CD605D71E14B}
  9
$VERSIONGUID
  2
{EE2E5675-8E96-47CC-99D5-0D608F3D8A08}
  9
$EXTNAMES
290
     1
  9
$PSVPSCALE
 40
0.0
  9
$OLESTARTUP
290
     0
  9
$SORTENTS
280
   127
  9
$INDEXCTL
280
     0
  9
$HIDETEXT
280
     0
  9
$XCLIPFRAME
290
     0
  9
$HALOGAP
280
     0
  9
$OBSCOLOR
 70
   257
  9
$OBSLTYPE
280
     0
  9
$INTERSECTIONDISPLAY
280
     0
  9
$INTERSECTIONCOLOR
 70
   257
  9
$DIMASSOC
280
     1
  9
$PROJECTNAME
  1

  0
ENDSEC
  0
SECTION
  2
CLASSES
  0
CLASS
  1
ACDBDICTIONARYWDFLT
  2
AcDbDictionaryWithDefault
  3
ObjectDBX Classes
 90
        0
 91
        1
280
     0
281
     0
  0
CLASS
  1
MATERIAL
  2
AcDbMaterial
  3
ObjectDBX Classes
 90
     1024
 91
        3
280
     0
281
     0
  0
CLASS
  1
VISUALSTYLE
  2
AcDbVisualStyle
  3
ObjectDBX Classes
 90
     4095
 91
       16
280
     0
281
     0
  0
CLASS
  1
TABLESTYLE
  2
AcDbTableStyle
  3
ObjectDBX Classes
 90
     4095
 91
        1
280
     0
281
     0
  0
CLASS
  1
SORTENTSTABLE
  2
AcDbSortentsTable
  3
ObjectDBX Classes
 90
        0
 91
        1
280
     0
281
     0
  0
CLASS
  1
DICTIONARYVAR
  2
AcDbDictionaryVar
  3
ObjectDBX Classes
 90
        0
 91
        1
280
     0
281
     0
  0
ENDSEC
  0
SECTION
  2
TABLES
  0
TABLE
  2
VPORT
  5
8
330
0
100
AcDbSymbolTable
 70
     1
  0
VPORT
  5
56
330
8
100
AcDbSymbolTableRecord
100
AcDbViewportTableRecord
  2
*Active
 70
     0
 10
0.0
 20
0.0
 11
1.0
 21
1.0
 12
5974.000516325593
 22
0.0602645187000235
 13
0.0
 23
0.0
 14
1.0
 24
1.0
 15
0.0
 25
0.0
 16
0.0
 26
0.0
 36
1.0
 17
0.0
 27
0.0
 37
0.0
 40
5980.82961206749
 41
2.004602991944763
 42
50.0
 43
0.0
 44
0.0
 50
0.0
 51
0.0
 71
     0
 72
   100
 73
     1
 74
     1
 75
     0
 76
     0
 77
     0
 78
     0
281
     0
 65
     1
110
0.0
120
0.0
130
0.0
111
1.0
121
0.0
131
0.0
112
0.0
122
1.0
132
0.0
 79
     0
146
0.0
  0
ENDTAB
  0
TABLE
  2
LTYPE
  5
5
330
0
100
AcDbSymbolTable
 70
     4
  0
LTYPE
  5
28
330
5
100
AcDbSymbolTableRecord
100
AcDbLinetypeTableRecord
  2
ByBlock
 70
     0
  3

 72
    65
 73
     0
 40
0.0
  0
LTYPE
  5
29
330
5
100
AcDbSymbolTableRecord
100
AcDbLinetypeTableRecord
  2
ByLayer
 70
     0
  3

 72
    65
 73
     0
 40
0.0
  0
LTYPE
  5
2A
330
5
100
AcDbSymbolTableRecord
100
AcDbLinetypeTableRecord
  2
CONTINUOUS
 70
     0
  3
____________________________________________
 72
    65
 73
     0
 40
0.0
  0
LTYPE
  5
3A
330
5
100
AcDbSymbolTableRecord
100
AcDbLinetypeTableRecord
  2
HIDDEN
 70
     0
  3
__ __ __ __ __ __ __ __ __ __ __ __ __ __ __
 72
    65
 73
     2
 40
0.5
 49
0.3
 74
     0
 49
-0.2
 74
     0
  0
LTYPE
  5
3B
330
5
100
AcDbSymbolTableRecord
100
AcDbLinetypeTableRecord
  2
DASHDOT
 70
     0
  3
____ _ ____ _ ____ _ ____ _ ____ _ ____ _ __
 72
    65
 73
     4
 40
2.0
 49
1.5
 74
     0
 49
-0.25
 74
     0
 49
0.0
 74
     0
 49
-0.25
 74
     0
  0
LTYPE
  5
3C
330
5
100
AcDbSymbolTableRecord
100
AcDbLinetypeTableRecord
  2
DOT
 70
     0
  3
............................................
 72
    65
 73
     2
 40
0.3
 49
0.0
 74
     0
 49
-0.3
 74
     0
  0
ENDTAB
  0
TABLE
  2
LAYER
  5
2
330
0
100
AcDbSymbolTable
 70
    25
  0
LAYER
  5
25
330
2
100
AcDbSymbolTableRecord
100
AcDbLayerTableRecord
  2
0
 70
     0
 62
     7
  6
CONTINUOUS
370
    -3
390
F
  0
LAYER
  5
3D
330
2
100
AcDbSymbolTableRecord
100
AcDbLayerTableRecord
  2
UNTERSCHRIFT
 70
     0
 62
     7
  6
CONTINUOUS
370
    -3
390
F
  0
LAYER
  5
3E
330
2
100
AcDbSymbolTableRecord
100
AcDbLayerTableRecord
  2
TEILE
 70
     0
 62
     7
  6
CONTINUOUS
370
    -3
390
F
  0
LAYER
  5
3F
330
2
100
AcDbSymbolTableRecord
100
AcDbLayerTableRecord
  2
REST
 70
     0
 62
     7
  6
CONTINUOUS
370
    -3
390
F
  0
LAYER
  5
40
330
2
100
AcDbSymbolTableRecord
100
AcDbLayerTableRecord
  2
MARKERPUNKTE
 70
     0
 62
     7
  6
CONTINUOUS
370
    -3
390
F
  0
LAYER
  5
41
330
2
100
AcDbSymbolTableRecord
100
AcDbLayerTableRecord
  2
HILFSPUNKTE
 70
     0
 62
     7
  6
CONTINUOUS
370
    -3
390
F
  0
LAYER
  5
42
330
2
100
AcDbSymbolTableRecord
100
AcDbLayerTableRecord
  2
PICKPUNKTE
 70
     0
 62
     7
  6
CONTINUOUS
370
    -3
390
F
  0
LAYER
  5
43
330
2
100
AcDbSymbolTableRecord
100
AcDbLayerTableRecord
  2
SCHRAUBEN
 70
     0
 62
     7
  6
CONTINUOUS
370
    -3
390
F
  0
LAYER
  5
44
330
2
100
AcDbSymbolTableRecord
100
AcDbLayerTableRecord
  2
SCHWEISSEN
 70
     0
 62
     7
  6
CONTINUOUS
370
    -3
390
F
  0
LAYER
  5
45
330
2
100
AcDbSymbolTableRecord
100
AcDbLayerTableRecord
  2
GRAFIK
 70
     0
 62
     7
  6
CONTINUOUS
370
    -3
390
F
  0
LAYER
  5
46
330
2
100
AcDbSymbolTableRecord
100
AcDbLayerTableRecord
  2
BEM_FREI
 70
     0
 62
     7
  6
CONTINUOUS
370
    -3
390
F
  0
LAYER
  5
47
330
2
100
AcDbSymbolTableRecord
100
AcDbLayerTableRecord
  2
BEM_SYSTEM
 70
     0
 62
     7
  6
CONTINUOUS
370
    -3
390
F
  0
LAYER
  5
48
330
2
100
AcDbSymbolTableRecord
100
AcDbLayerTableRecord
  2
BEM_KONTUR
 70
     0
 62
     7
  6
CONTINUOUS
370
    -3
390
F
  0
LAYER
  5
49
330
2
100
AcDbSymbolTableRecord
100
AcDbLayerTableRecord
  2
BEM_ANBAU
 70
     0
 62
     7
  6
CONTINUOUS
370
    -3
390
F
  0
LAYER
  5
4A
330
2
100
AcDbSymbolTableRecord
100
AcDbLayerTableRecord
  2
BEM_SCHRAUBEN
 70
     0
 62
     7
  6
CONTINUOUS
370
    -3
390
F
  0
LAYER
  5
4B
330
2
100
AcDbSymbolTableRecord
100
AcDbLayerTableRecord
  2
BEM_SCHWEISSEN
 70
     0
 62
     7
  6
CONTINUOUS
370
    -3
390
F
  0
LAYER
  5
4C
330
2
100
AcDbSymbolTableRecord
100
AcDbLayerTableRecord
  2
FREIER_TEXT
 70
     0
 62
     7
  6
CONTINUOUS
370
    -3
390
F
  0
LAYER
  5
4D
330
2
100
AcDbSymbolTableRecord
100
AcDbLayerTableRecord
  2
BEZ_TEILE
 70
     0
 62
     7
  6
CONTINUOUS
370
    -3
390
F
  0
LAYER
  5
4E
330
2
100
AcDbSymbolTableRecord
100
AcDbLayerTableRecord
  2
BEZ_SCHRAUBEN
 70
     0
 62
     7
  6
CONTINUOUS
370
    -3
390
F
  0
LAYER
  5
4F
330
2
100
AcDbSymbolTableRecord
100
AcDbLayerTableRecord
  2
BEZ_SCHWEISSEN
 70
     0
 62
     7
  6
CONTINUOUS
370
    -3
390
F
  0
LAYER
  5
50
330
2
100
AcDbSymbolTableRecord
100
AcDbLayerTableRecord
  2
SCHRAFFUREN
 70
     0
 62
     7
  6
CONTINUOUS
370
    -3
390
F
  0
LAYER
  5
51
330
2
100
AcDbSymbolTableRecord
100
AcDbLayerTableRecord
  2
SCHNITTSYMBOL
 70
     0
 62
     7
  6
CONTINUOUS
370
    -3
390
F
  0
LAYER
  5
52
330
2
100
AcDbSymbolTableRecord
100
AcDbLayerTableRecord
  2
RASTER
 70
     0
 62
     7
  6
CONTINUOUS
370
    -3
390
F
  0
LAYER
  5
53
330
2
100
AcDbSymbolTableRecord
100
AcDbLayerTableRecord
  2
LISTEN
 70
     0
 62
     7
  6
CONTINUOUS
370
    -3
390
F
  0
LAYER
  5
54
330
2
100
AcDbSymbolTableRecord
100
AcDbLayerTableRecord
  2
RAHMEN
 70
     0
 62
     7
  6
CONTINUOUS
370
    -3
390
F
  0
ENDTAB
  0
TABLE
  2
STYLE
  5
3
330
0
100
AcDbSymbolTable
 70
     1
  0
STYLE
  5
26
330
3
100
AcDbSymbolTableRecord
100
AcDbTextStyleTableRecord
  2
STANDARD
 70
     0
 40
0.0
 41
1.0
 50
0.0
 71
     0
 42
0.35
  3
ROMANS
  4

  0
ENDTAB
  0
TABLE
  2
VIEW
  5
6
330
0
100
AcDbSymbolTable
 70
     0
  0
ENDTAB
  0
TABLE
  2
UCS
  5
7
330
0
100
AcDbSymbolTable
 70
     0
  0
ENDTAB
  0
TABLE
  2
APPID
  5
9
330
0
100
AcDbSymbolTable
 70
     1
  0
APPID
  5
27
330
9
100
AcDbSymbolTableRecord
100
AcDbRegAppTableRecord
  2
ACAD
 70
     0
  0
ENDTAB
  0
TABLE
  2
DIMSTYLE
  5
A
330
0
100
AcDbSymbolTable
 70
     1
100
AcDbDimStyleTable
 71
     0
  0
DIMSTYLE
105
1BAD
330
A
100
AcDbSymbolTableRecord
100
AcDbDimStyleTableRecord
  2
Standard
 70
     0
340
26
  0
ENDTAB
  0
TABLE
  2
BLOCK_RECORD
  5
1
330
0
100
AcDbSymbolTable
 70
     0
  0
BLOCK_RECORD
  5
36
102
{ACAD_XDICTIONARY
360
1BB0
102
}
330
1
100
AcDbSymbolTableRecord
100
AcDbBlockTableRecord
  2
*Model_Space
340
39
  0
BLOCK_RECORD
  5
32
330
1
100
AcDbSymbolTableRecord
100
AcDbBlockTableRecord
  2
*Paper_Space
340
35
  0
ENDTAB
  0
ENDSEC
  0
SECTION
  2
BLOCKS
  0
BLOCK
  5
37
330
36
100
AcDbEntity
  8
0
100
AcDbBlockBegin
  2
*Model_Space
 70
     0
 10
0.0
 20
0.0
 30
0.0
  3
*Model_Space
  1

  0
ENDBLK
  5
38
330
36
100
AcDbEntity
  8
0
100
AcDbBlockEnd
  0
BLOCK
  5
33
330
32
100
AcDbEntity
 67
     1
  8
0
100
AcDbBlockBegin
  2
*Paper_Space
 70
     0
 10
0.0
 20
0.0
 30
0.0
  3
*Paper_Space
  1

  0
ENDBLK
  5
34
330
32
100
AcDbEntity
 67
     1
  8
0
100
AcDbBlockEnd
  0
ENDSEC
  0
SECTION
  2
ENTITIES
  0
TEXT
  5
57
330
36
100
AcDbEntity
  8
UNTERSCHRIFT
 62
     2
100
AcDbText
 10
11930.974609
 20
-444.3829349999999
 30
0.0
 40
3.25
  1
Project  DP0GN9  ,Qty. 3  , Pos. 
 50
90.0
 41
0.8
 51
15.0
100
AcDbText
  0
TEXT
  5
58
330
36
100
AcDbEntity
  8
UNTERSCHRIFT
 62
     2
100
AcDbText
 10
11930.976563
 20
-345.5829470000001
 30
0.0
 40
3.25
  1
  , Profi l PL1065*12
 50
90.0
 41
0.8
 51
15.0
100
AcDbText
  0
TEXT
  5
59
330
36
100
AcDbEntity
  8
UNTERSCHRIFT
 62
     2
100
AcDbText
 10
11930.976563
 20
-358.5829470000001
 30
0.0
 40
3.25
  1
10306
 50
90.0
 41
0.8
 51
15.0
100
AcDbText
  0
LINE
  5
5A
330
36
100
AcDbEntity
  8
TEILE
 62
     2
100
AcDbLine
 10
11902.970703
 20
-532.5
 30
0.0
 11
45.000004
 21
-532.5
 31
0.0
  0
LINE
  5
5B
330
36
100
AcDbEntity
  8
TEILE
 62
     2
100
AcDbLine
 10
45.000004
 20
-532.5
 30
0.0
 11
44.95599699999999
 21
-530.8757929999999
 31
0.0
  0
LINE
  5
5C
330
36
100
AcDbEntity
  8
TEILE
 62
     2
100
AcDbLine
 10
44.95599699999999
 20
-530.8757929999999
 30
0.0
 11
44.82413499999999
 21
-529.25647
 31
0.0
  0
LINE
  5
5D
330
36
100
AcDbEntity
  8
TEILE
 62
     2
100
AcDbLine
 10
44.82413499999999
 20
-529.25647
 30
0.0
 11
44.60479
 21
-527.646545
 31
0.0
  0
LINE
  5
5E
330
36
100
AcDbEntity
  8
TEILE
 62
     2
100
AcDbLine
 10
44.60479
 20
-527.646545
 30
0.0
 11
44.298611
 21
-526.050903
 31
0.0
  0
LINE
  5
5F
330
36
100
AcDbEntity
  8
TEILE
 62
     2
100
AcDbLine
 10
44.298611
 20
-526.050903
 30
0.0
 11
43.906494
 21
-524.4741209999999
 31
0.0
  0
LINE
  5
60
330
36
100
AcDbEntity
  8
TEILE
 62
     2
100
AcDbLine
 10
43.906494
 20
-524.4741209999999
 30
0.0
 11
43.429588
 21
-522.920959
 31
0.0
  0
LINE
  5
61
330
36
100
AcDbEntity
  8
TEILE
 62
     2
100
AcDbLine
 10
43.429588
 20
-522.920959
 30
0.0
 11
42.86929699999999
 21
-521.395874
 31
0.0
  0
LINE
  5
62
330
36
100
AcDbEntity
  8
TEILE
 62
     2
100
AcDbLine
 10
42.86929699999999
 20
-521.395874
 30
0.0
 11
42.227257
 21
-519.90332
 31
0.0
  0
LINE
  5
63
330
36
100
AcDbEntity
  8
TEILE
 62
     2
100
AcDbLine
 10
42.227257
 20
-519.90332
 30
0.0
 11
41.505356
 21
-518.447754
 31
0.0
  0
LINE
  5
64
330
36
100
AcDbEntity
  8
TEILE
 62
     2
100
AcDbLine
 10
41.505356
 20
-518.447754
 30
0.0
 11
40.705711
 21
-517.033386
 31
0.0
  0
LINE
  5
65
330
36
100
AcDbEntity
  8
TEILE
 62
     2
100
AcDbLine
 10
40.705711
 20
-517.033386
 30
0.0
 11
39.830666
 21
-515.664429
 31
0.0
  0
LINE
  5
66
330
36
100
AcDbEntity
  8
TEILE
 62
     2
100
AcDbLine
 10
39.830666
 20
-515.664429
 30
0.0
 11
38.88278599999999
 21
-514.344788
 31
0.0
  0
LINE
  5
67
330
36
100
AcDbEntity
  8
TEILE
 62
     2
100
AcDbLine
 10
38.88278599999999
 20
-514.344788
 30
0.0
 11
37.864857
 21
-513.07843
 31
0.0
  0
LINE
  5
68
330
36
100
AcDbEntity
  8
TEILE
 62
     2
100
AcDbLine
 10
37.864857
 20
-513.07843
 30
0.0
 11
36.779861
 21
-511.869019
 31
0.0
  0
LINE
  5
69
330
36
100
AcDbEntity
  8
TEILE
 62
     2
100
AcDbLine
 10
36.779861
 20
-511.869019
 30
0.0
 11
35.630981
 21
-510.720154
 31
0.0
  0
LINE
  5
6A
330
36
100
AcDbEntity
  8
TEILE
 62
     2
100
AcDbLine
 10
35.630981
 20
-510.720154
 30
0.0
 11
34.421585
 21
-509.6351320000001
 31
0.0
  0
LINE
  5
6B
330
36
100
AcDbEntity
  8
TEILE
 62
     2
100
AcDbLine
 10
34.421585
 20
-509.6351320000001
 30
0.0
 11
33.155224
 21
-508.617218
 31
0.0
  0
LINE
  5
6C
330
36
100
AcDbEntity
  8
TEILE
 62
     2
100
AcDbLine
 10
33.155224
 20
-508.617218
 30
0.0
 11
31.835611
 21
-507.6693419999999
 31
0.0
  0
LINE
  5
6D
330
36
100
AcDbEntity
  8
TEILE
 62
     2
100
AcDbLine
 10
31.835611
 20
-507.6693419999999
 30
0.0
 11
30.466614
 21
-506.7942809999999
 31
0.0
  0
LINE
  5
6E
330
36
100
AcDbEntity
  8
TEILE
 62
     2
100
AcDbLine
 10
30.466614
 20
-506.7942809999999
 30
0.0
 11
29.05225
 21
-505.994629
 31
0.0
  0
LINE
  5
6F
330
36
100
AcDbEntity
  8
TEILE
 62
     2
100
AcDbLine
 10
29.05225
 20
-505.994629
 30
0.0
 11
27.596672
 21
-505.272766
 31
0.0
  0
LINE
  5
70
330
36
100
AcDbEntity
  8
TEILE
 62
     2
100
AcDbLine
 10
27.596672
 20
-505.272766
 30
0.0
 11
26.104143
 21
-504.630707
 31
0.0
  0
LINE
  5
71
330
36
100
AcDbEntity
  8
TEILE
 62
     2
100
AcDbLine
 10
26.104143
 20
-504.630707
 30
0.0
 11
24.579046
 21
-504.070404
 31
0.0
  0
LINE
  5
72
330
36
100
AcDbEntity
  8
TEILE
 62
     2
100
AcDbLine
 10
24.579046
 20
-504.070404
 30
0.0
 11
23.025848
 21
-503.593475
 31
0.0
  0
LINE
  5
73
330
36
100
AcDbEntity
  8
TEILE
 62
     2
100
AcDbLine
 10
23.025848
 20
-503.593475
 30
0.0
 11
21.449112
 21
-503.201355
 31
0.0
  0
LINE
  5
74
330
36
100
AcDbEntity
  8
TEILE
 62
     2
100
AcDbLine
 10
21.449112
 20
-503.201355
 30
0.0
 11
19.85346
 21
-502.895203
 31
0.0
  0
LINE
  5
75
330
36
100
AcDbEntity
  8
TEILE
 62
     2
100
AcDbLine
 10
19.85346
 20
-502.895203
 30
0.0
 11
18.243572
 21
-502.675842
 31
0.0
  0
LINE
  5
76
330
36
100
AcDbEntity
  8
TEILE
 62
     2
100
AcDbLine
 10
18.243572
 20
-502.675842
 30
0.0
 11
16.624168
 21
-502.543976
 31
0.0
  0
LINE
  5
77
330
36
100
AcDbEntity
  8
TEILE
 62
     2
100
AcDbLine
 10
16.624168
 20
-502.543976
 30
0.0
 11
15.000001
 21
-502.5
 31
0.0
  0
LINE
  5
78
330
36
100
AcDbEntity
  8
TEILE
 62
     2
100
AcDbLine
 10
15.000001
 20
-502.5
 30
0.0
 11
15.000002
 21
-502.5
 31
0.0
  0
LINE
  5
79
330
36
100
AcDbEntity
  8
TEILE
 62
     2
100
AcDbLine
 10
15.000002
 20
-502.5
 30
0.0
 11
15.01181
 21
-227.684509
 31
0.0
  0
LINE
  5
7A
330
36
100
AcDbEntity
  8
TEILE
 62
     2
100
AcDbLine
 10
15.01181
 20
-227.684509
 30
0.0
 11
22.78816
 21
-226.662048
 31
0.0
  0
LINE
  5
7B
330
36
100
AcDbEntity
  8
TEILE
 62
     2
100
AcDbLine
 10
22.78816
 20
-226.662048
 30
0.0
 11
30.023491
 21
-223.664795
 31
0.0
  0
LINE
  5
7C
330
36
100
AcDbEntity
  8
TEILE
 62
     2
100
AcDbLine
 10
30.023491
 20
-223.664795
 30
0.0
 11
36.236542
 21
-218.897034
 31
0.0
  0
LINE
  5
7D
330
36
100
AcDbEntity
  8
TEILE
 62
     2
100
AcDbLine
 10
36.236542
 20
-218.897034
 30
0.0
 11
41.00389899999999
 21
-212.683685
 31
0.0
  0
LINE
  5
7E
330
36
100
AcDbEntity
  8
TEILE
 62
     2
100
AcDbLine
 10
41.00389899999999
 20
-212.683685
 30
0.0
 11
44.000683
 21
-205.448151
 31
0.0
  0
LINE
  5
7F
330
36
100
AcDbEntity
  8
TEILE
 62
     2
100
AcDbLine
 10
44.000683
 20
-205.448151
 30
0.0
 11
45.022655
 21
-197.683548
 31
0.0
  0
LINE
  5
80
330
36
100
AcDbEntity
  8
TEILE
 62
     2
100
AcDbLine
 10
45.022655
 20
-197.683548
 30
0.0
 11
44.000183
 21
-189.919006
 31
0.0
  0
LINE
  5
81
330
36
100
AcDbEntity
  8
TEILE
 62
     2
100
AcDbLine
 10
44.000183
 20
-189.919006
 30
0.0
 11
41.002937
 21
-182.683685
 31
0.0
  0
LINE
  5
82
330
36
100
AcDbEntity
  8
TEILE
 62
     2
100
AcDbLine
 10
41.002937
 20
-182.683685
 30
0.0
 11
36.23518
 21
-176.470627
 31
0.0
  0
LINE
  5
83
330
36
100
AcDbEntity
  8
TEILE
 62
     2
100
AcDbLine
 10
36.23518
 20
-176.470627
 30
0.0
 11
30.021824
 21
-171.703262
 31
0.0
  0
LINE
  5
84
330
36
100
AcDbEntity
  8
TEILE
 62
     2
100
AcDbLine
 10
30.021824
 20
-171.703262
 30
0.0
 11
22.786301
 21
-168.7064969999999
 31
0.0
  0
LINE
  5
85
330
36
100
AcDbEntity
  8
TEILE
 62
     2
100
AcDbLine
 10
22.786301
 20
-168.7064969999999
 30
0.0
 11
15.021695
 21
-167.684509
 31
0.0
  0
LINE
  5
86
330
36
100
AcDbEntity
  8
TEILE
 62
     2
100
AcDbLine
 10
15.021695
 20
-167.684509
 30
0.0
 11
0.0
 21
-167.684998
 31
0.0
  0
LINE
  5
87
330
36
100
AcDbEntity
  8
TEILE
 62
     2
100
AcDbLine
 10
0.0
 20
-167.684998
 30
0.0
 11
0.0
 21
502.5
 31
0.0
  0
LINE
  5
88
330
36
100
AcDbEntity
  8
TEILE
 62
     2
100
AcDbLine
 10
0.0
 20
502.5
 30
0.0
 11
1.605725999999999
 21
502.54303
 31
0.0
  0
LINE
  5
89
330
36
100
AcDbEntity
  8
TEILE
 62
     2
100
AcDbLine
 10
1.605725999999999
 20
502.54303
 30
0.0
 11
3.206850999999999
 21
502.6718749999999
 31
0.0
  0
LINE
  5
8A
330
36
100
AcDbEntity
  8
TEILE
 62
     2
100
AcDbLine
 10
3.206850999999999
 20
502.6718749999999
 30
0.0
 11
4.798782
 21
502.8863219999999
 31
0.0
  0
LINE
  5
8B
330
36
100
AcDbEntity
  8
TEILE
 62
     2
100
AcDbLine
 10
4.798782
 20
502.8863219999999
 30
0.0
 11
6.376955999999999
 21
503.1856079999999
 31
0.0
  0
LINE
  5
8C
330
36
100
AcDbEntity
  8
TEILE
 62
     2
100
AcDbLine
 10
6.376955999999999
 20
503.1856079999999
 30
0.0
 11
7.936847
 21
503.56897
 31
0.0
  0
LINE
  5
8D
330
36
100
AcDbEntity
  8
TEILE
 62
     2
100
AcDbLine
 10
7.936847
 20
503.56897
 30
0.0
 11
9.473985
 21
504.035217
 31
0.0
  0
LINE
  5
8E
330
36
100
AcDbEntity
  8
TEILE
 62
     2
100
AcDbLine
 10
9.473985
 20
504.035217
 30
0.0
 11
10.983962
 21
504.5831299999999
 31
0.0
  0
LINE
  5
8F
330
36
100
AcDbEntity
  8
TEILE
 62
     2
100
AcDbLine
 10
10.983962
 20
504.5831299999999
 30
0.0
 11
12.462448
 21
505.2110289999999
 31
0.0
  0
LINE
  5
90
330
36
100
AcDbEntity
  8
TEILE
 62
     2
100
AcDbLine
 10
12.462448
 20
505.2110289999999
 30
0.0
 11
13.905206
 21
505.9172059999999
 31
0.0
  0
LINE
  5
91
330
36
100
AcDbEntity
  8
TEILE
 62
     2
100
AcDbLine
 10
13.905206
 20
505.9172059999999
 30
0.0
 11
15.308099
 21
506.6995539999999
 31
0.0
  0
LINE
  5
92
330
36
100
AcDbEntity
  8
TEILE
 62
     2
100
AcDbLine
 10
15.308099
 20
506.6995539999999
 30
0.0
 11
16.667105
 21
507.5559079999999
 31
0.0
  0
LINE
  5
93
330
36
100
AcDbEntity
  8
TEILE
 62
     2
100
AcDbLine
 10
16.667105
 20
507.5559079999999
 30
0.0
 11
17.978331
 21
508.483765
 31
0.0
  0
LINE
  5
94
330
36
100
AcDbEntity
  8
TEILE
 62
     2
100
AcDbLine
 10
17.978331
 20
508.483765
 30
0.0
 11
19.238012
 21
509.480469
 31
0.0
  0
LINE
  5
95
330
36
100
AcDbEntity
  8
TEILE
 62
     2
100
AcDbLine
 10
19.238012
 20
509.480469
 30
0.0
 11
20.442543
 21
510.5431819999999
 31
0.0
  0
LINE
  5
96
330
36
100
AcDbEntity
  8
TEILE
 62
     2
100
AcDbLine
 10
20.442543
 20
510.5431819999999
 30
0.0
 11
21.588463
 21
511.668823
 31
0.0
  0
LINE
  5
97
330
36
100
AcDbEntity
  8
TEILE
 62
     2
100
AcDbLine
 10
21.588463
 20
511.668823
 30
0.0
 11
22.672493
 21
512.854187
 31
0.0
  0
LINE
  5
98
330
36
100
AcDbEntity
  8
TEILE
 62
     2
100
AcDbLine
 10
22.672493
 20
512.854187
 30
0.0
 11
23.691523
 21
514.095886
 31
0.0
  0
LINE
  5
99
330
36
100
AcDbEntity
  8
TEILE
 62
     2
100
AcDbLine
 10
23.691523
 20
514.095886
 30
0.0
 11
24.642632
 21
515.39032
 31
0.0
  0
LINE
  5
9A
330
36
100
AcDbEntity
  8
TEILE
 62
     2
100
AcDbLine
 10
24.642632
 20
515.39032
 30
0.0
 11
25.523092
 21
516.733826
 31
0.0
  0
LINE
  5
9B
330
36
100
AcDbEntity
  8
TEILE
 62
     2
100
AcDbLine
 10
25.523092
 20
516.733826
 30
0.0
 11
26.330379
 21
518.122498
 31
0.0
  0
LINE
  5
9C
330
36
100
AcDbEntity
  8
TEILE
 62
     2
100
AcDbLine
 10
26.330379
 20
518.122498
 30
0.0
 11
27.062183
 21
519.55249
 31
0.0
  0
LINE
  5
9D
330
36
100
AcDbEntity
  8
TEILE
 62
     2
100
AcDbLine
 10
27.062183
 20
519.55249
 30
0.0
 11
27.716398
 21
521.0195309999999
 31
0.0
  0
LINE
  5
9E
330
36
100
AcDbEntity
  8
TEILE
 62
     2
100
AcDbLine
 10
27.716398
 20
521.0195309999999
 30
0.0
 11
28.291153
 21
522.5194700000001
 31
0.0
  0
LINE
  5
9F
330
36
100
AcDbEntity
  8
TEILE
 62
     2
100
AcDbLine
 10
28.291153
 20
522.5194700000001
 30
0.0
 11
28.7848
 21
524.0480349999999
 31
0.0
  0
LINE
  5
A0
330
36
100
AcDbEntity
  8
TEILE
 62
     2
100
AcDbLine
 10
28.7848
 20
524.0480349999999
 30
0.0
 11
28.78479
 21
524.0480349999999
 31
0.0
  0
LINE
  5
A1
330
36
100
AcDbEntity
  8
TEILE
 62
     2
100
AcDbLine
 10
28.78479
 20
524.0480349999999
 30
0.0
 11
29.694643
 21
528.2305299999999
 31
0.0
  0
LINE
  5
A2
330
36
100
AcDbEntity
  8
TEILE
 62
     2
100
AcDbLine
 10
29.694643
 20
528.2305299999999
 30
0.0
 11
29.880123
 21
530.8332519999999
 31
0.0
  0
LINE
  5
A3
330
36
100
AcDbEntity
  8
TEILE
 62
     2
100
AcDbLine
 10
29.880123
 20
530.8332519999999
 30
0.0
 11
29.99983056728377
 21
532.5
 31
0.0
  0
LINE
  5
1B65
330
36
100
AcDbEntity
  8
TEILE
 62
     2
100
AcDbLine
 10
11918.305664
 20
528.2305299999999
 30
0.0
 11
11919.216797
 21
524.0480349999999
 31
0.0
  0
LINE
  5
1B66
330
36
100
AcDbEntity
  8
TEILE
 62
     2
100
AcDbLine
 10
11919.216797
 20
524.0480349999999
 30
0.0
 11
11919.708984
 21
522.519409
 31
0.0
  0
LINE
  5
1B67
330
36
100
AcDbEntity
  8
TEILE
 62
     2
100
AcDbLine
 10
11919.708984
 20
522.519409
 30
0.0
 11
11920.28418
 21
521.0195309999999
 31
0.0
  0
LINE
  5
1B68
330
36
100
AcDbEntity
  8
TEILE
 62
     2
100
AcDbLine
 10
11920.28418
 20
521.0195309999999
 30
0.0
 11
11920.938477
 21
519.552551
 31
0.0
  0
LINE
  5
1B69
330
36
100
AcDbEntity
  8
TEILE
 62
     2
100
AcDbLine
 10
11920.938477
 20
519.552551
 30
0.0
 11
11921.670898
 21
518.1226809999999
 31
0.0
  0
LINE
  5
1B6A
330
36
100
AcDbEntity
  8
TEILE
 62
     2
100
AcDbLine
 10
11921.670898
 20
518.1226809999999
 30
0.0
 11
11922.478516
 21
516.7340699999999
 31
0.0
  0
LINE
  5
1B6B
330
36
100
AcDbEntity
  8
TEILE
 62
     2
100
AcDbLine
 10
11922.478516
 20
516.7340699999999
 30
0.0
 11
11923.358398
 21
515.390625
 31
0.0
  0
LINE
  5
1B6C
330
36
100
AcDbEntity
  8
TEILE
 62
     2
100
AcDbLine
 10
11923.358398
 20
515.390625
 30
0.0
 11
11924.308594
 21
514.0961909999999
 31
0.0
  0
LINE
  5
1B6D
330
36
100
AcDbEntity
  8
TEILE
 62
     2
100
AcDbLine
 10
11924.308594
 20
514.0961909999999
 30
0.0
 11
11925.328125
 21
512.854553
 31
0.0
  0
LINE
  5
1B6E
330
36
100
AcDbEntity
  8
TEILE
 62
     2
100
AcDbLine
 10
11925.328125
 20
512.854553
 30
0.0
 11
11926.412109
 21
511.6692809999999
 31
0.0
  0
LINE
  5
1B6F
330
36
100
AcDbEntity
  8
TEILE
 62
     2
100
AcDbLine
 10
11926.412109
 20
511.6692809999999
 30
0.0
 11
11927.558594
 21
510.543671
 31
0.0
  0
LINE
  5
1B70
330
36
100
AcDbEntity
  8
TEILE
 62
     2
100
AcDbLine
 10
11927.558594
 20
510.543671
 30
0.0
 11
11928.763672
 21
509.4810179999999
 31
0.0
  0
LINE
  5
1B71
330
36
100
AcDbEntity
  8
TEILE
 62
     2
100
AcDbLine
 10
11928.763672
 20
509.4810179999999
 30
0.0
 11
11930.023438
 21
508.484344
 31
0.0
  0
LINE
  5
1B72
330
36
100
AcDbEntity
  8
TEILE
 62
     2
100
AcDbLine
 10
11930.023438
 20
508.484344
 30
0.0
 11
11931.333984
 21
507.5564879999999
 31
0.0
  0
LINE
  5
1B73
330
36
100
AcDbEntity
  8
TEILE
 62
     2
100
AcDbLine
 10
11931.333984
 20
507.5564879999999
 30
0.0
 11
11932.693359
 21
506.700165
 31
0.0
  0
LINE
  5
1B74
330
36
100
AcDbEntity
  8
TEILE
 62
     2
100
AcDbLine
 10
11932.693359
 20
506.700165
 30
0.0
 11
11934.095703
 21
505.917816
 31
0.0
  0
LINE
  5
1B75
330
36
100
AcDbEntity
  8
TEILE
 62
     2
100
AcDbLine
 10
11934.095703
 20
505.917816
 30
0.0
 11
11935.538086
 21
505.21167
 31
0.0
  0
LINE
  5
1B76
330
36
100
AcDbEntity
  8
TEILE
 62
     2
100
AcDbLine
 10
11935.538086
 20
505.21167
 30
0.0
 11
11937.016602
 21
504.58374
 31
0.0
  0
LINE
  5
1B77
330
36
100
AcDbEntity
  8
TEILE
 62
     2
100
AcDbLine
 10
11937.016602
 20
504.58374
 30
0.0
 11
11938.526367
 21
504.035828
 31
0.0
  0
LINE
  5
1B78
330
36
100
AcDbEntity
  8
TEILE
 62
     2
100
AcDbLine
 10
11938.526367
 20
504.035828
 30
0.0
 11
11940.063477
 21
503.569519
 31
0.0
  0
LINE
  5
1B79
330
36
100
AcDbEntity
  8
TEILE
 62
     2
100
AcDbLine
 10
11940.063477
 20
503.569519
 30
0.0
 11
11941.623047
 21
503.186157
 31
0.0
  0
LINE
  5
1B7A
330
36
100
AcDbEntity
  8
TEILE
 62
     2
100
AcDbLine
 10
11941.623047
 20
503.186157
 30
0.0
 11
11943.202148
 21
502.8868099999999
 31
0.0
  0
LINE
  5
1B7B
330
36
100
AcDbEntity
  8
TEILE
 62
     2
100
AcDbLine
 10
11943.202148
 20
502.8868099999999
 30
0.0
 11
11944.793945
 21
502.6723940000001
 31
0.0
  0
LINE
  5
1B7C
330
36
100
AcDbEntity
  8
TEILE
 62
     2
100
AcDbLine
 10
11944.793945
 20
502.6723940000001
 30
0.0
 11
11946.395508
 21
502.543457
 31
0.0
  0
LINE
  5
1B7D
330
36
100
AcDbEntity
  8
TEILE
 62
     2
100
AcDbLine
 10
11946.395508
 20
502.543457
 30
0.0
 11
11948.0
 21
502.500366
 31
0.0
  0
LINE
  5
1B7E
330
36
100
AcDbEntity
  8
TEILE
 62
     2
100
AcDbLine
 10
11948.0
 20
502.500366
 30
0.0
 11
11948.0
 21
502.5
 31
0.0
  0
LINE
  5
1B7F
330
36
100
AcDbEntity
  8
TEILE
 62
     2
100
AcDbLine
 10
11948.0
 20
502.5
 30
0.0
 11
11948.0
 21
-167.666397
 31
0.0
  0
LINE
  5
1B80
330
36
100
AcDbEntity
  8
TEILE
 62
     2
100
AcDbLine
 10
11948.0
 20
-167.666397
 30
0.0
 11
11932.980469
 21
-167.665955
 31
0.0
  0
LINE
  5
1B81
330
36
100
AcDbEntity
  8
TEILE
 62
     2
100
AcDbLine
 10
11932.980469
 20
-167.665955
 30
0.0
 11
11925.21582
 21
-168.687958
 31
0.0
  0
LINE
  5
1B82
330
36
100
AcDbEntity
  8
TEILE
 62
     2
100
AcDbLine
 10
11925.21582
 20
-168.687958
 30
0.0
 11
11917.980469
 21
-171.684784
 31
0.0
  0
LINE
  5
1B83
330
36
100
AcDbEntity
  8
TEILE
 62
     2
100
AcDbLine
 10
11917.980469
 20
-171.684784
 30
0.0
 11
11911.767578
 21
-176.452164
 31
0.0
  0
LINE
  5
1B84
330
36
100
AcDbEntity
  8
TEILE
 62
     2
100
AcDbLine
 10
11911.767578
 20
-176.452164
 30
0.0
 11
11907.000977
 21
-182.665222
 31
0.0
  0
LINE
  5
1B85
330
36
100
AcDbEntity
  8
TEILE
 62
     2
100
AcDbLine
 10
11907.000977
 20
-182.665222
 30
0.0
 11
11904.00293
 21
-189.900543
 31
0.0
  0
LINE
  5
1B86
330
36
100
AcDbEntity
  8
TEILE
 62
     2
100
AcDbLine
 10
11904.00293
 20
-189.900543
 30
0.0
 11
11902.980469
 21
-197.665085
 31
0.0
  0
LINE
  5
1B87
330
36
100
AcDbEntity
  8
TEILE
 62
     2
100
AcDbLine
 10
11902.980469
 20
-197.665085
 30
0.0
 11
11904.00293
 21
-205.429688
 31
0.0
  0
LINE
  5
1B88
330
36
100
AcDbEntity
  8
TEILE
 62
     2
100
AcDbLine
 10
11904.00293
 20
-205.429688
 30
0.0
 11
11907.0
 21
-212.665222
 31
0.0
  0
LINE
  5
1B89
330
36
100
AcDbEntity
  8
TEILE
 62
     2
100
AcDbLine
 10
11907.0
 20
-212.665222
 30
0.0
 11
11911.766602
 21
-218.878555
 31
0.0
  0
LINE
  5
1B8A
330
36
100
AcDbEntity
  8
TEILE
 62
     2
100
AcDbLine
 10
11911.766602
 20
-218.878555
 30
0.0
 11
11917.979492
 21
-223.646301
 31
0.0
  0
LINE
  5
1B8B
330
36
100
AcDbEntity
  8
TEILE
 62
     2
100
AcDbLine
 10
11917.979492
 20
-223.646301
 30
0.0
 11
11925.214844
 21
-226.643509
 31
0.0
  0
LINE
  5
1B8C
330
36
100
AcDbEntity
  8
TEILE
 62
     2
100
AcDbLine
 10
11925.214844
 20
-226.643509
 30
0.0
 11
11932.979492
 21
-227.665955
 31
0.0
  0
LINE
  5
1B8D
330
36
100
AcDbEntity
  8
TEILE
 62
     2
100
AcDbLine
 10
11932.979492
 20
-227.665955
 30
0.0
 11
11932.972656
 21
-502.5
 31
0.0
  0
LINE
  5
1B8E
330
36
100
AcDbEntity
  8
TEILE
 62
     2
100
AcDbLine
 10
11932.972656
 20
-502.5
 30
0.0
 11
11931.402344
 21
-502.5407099999999
 31
0.0
  0
LINE
  5
1B8F
330
36
100
AcDbEntity
  8
TEILE
 62
     2
100
AcDbLine
 10
11931.402344
 20
-502.5407099999999
 30
0.0
 11
11929.835938
 21
-502.6638789999999
 31
0.0
  0
LINE
  5
1B90
330
36
100
AcDbEntity
  8
TEILE
 62
     2
100
AcDbLine
 10
11929.835938
 20
-502.6638789999999
 30
0.0
 11
11928.279297
 21
-502.868805
 31
0.0
  0
LINE
  5
1B91
330
36
100
AcDbEntity
  8
TEILE
 62
     2
100
AcDbLine
 10
11928.279297
 20
-502.868805
 30
0.0
 11
11926.734375
 21
-503.154968
 31
0.0
  0
LINE
  5
1B92
330
36
100
AcDbEntity
  8
TEILE
 62
     2
100
AcDbLine
 10
11926.734375
 20
-503.154968
 30
0.0
 11
11925.207031
 21
-503.5216059999999
 31
0.0
  0
LINE
  5
1B93
330
36
100
AcDbEntity
  8
TEILE
 62
     2
100
AcDbLine
 10
11925.207031
 20
-503.5216059999999
 30
0.0
 11
11923.701172
 21
-503.9676509999999
 31
0.0
  0
LINE
  5
1B94
330
36
100
AcDbEntity
  8
TEILE
 62
     2
100
AcDbLine
 10
11923.701172
 20
-503.9676509999999
 30
0.0
 11
11922.220703
 21
-504.491913
 31
0.0
  0
LINE
  5
1B95
330
36
100
AcDbEntity
  8
TEILE
 62
     2
100
AcDbLine
 10
11922.220703
 20
-504.491913
 30
0.0
 11
11920.770508
 21
-505.092957
 31
0.0
  0
LINE
  5
1B96
330
36
100
AcDbEntity
  8
TEILE
 62
     2
100
AcDbLine
 10
11920.770508
 20
-505.092957
 30
0.0
 11
11919.351563
 21
-505.769104
 31
0.0
  0
LINE
  5
1B97
330
36
100
AcDbEntity
  8
TEILE
 62
     2
100
AcDbLine
 10
11919.351563
 20
-505.769104
 30
0.0
 11
11917.972656
 21
-506.5185549999999
 31
0.0
  0
LINE
  5
1B98
330
36
100
AcDbEntity
  8
TEILE
 62
     2
100
AcDbLine
 10
11917.972656
 20
-506.5185549999999
 30
0.0
 11
11916.631836
 21
-507.339172
 31
0.0
  0
LINE
  5
1B99
330
36
100
AcDbEntity
  8
TEILE
 62
     2
100
AcDbLine
 10
11916.631836
 20
-507.339172
 30
0.0
 11
11915.337891
 21
-508.22879
 31
0.0
  0
LINE
  5
1B9A
330
36
100
AcDbEntity
  8
TEILE
 62
     2
100
AcDbLine
 10
11915.337891
 20
-508.22879
 30
0.0
 11
11914.091797
 21
-509.184937
 31
0.0
  0
LINE
  5
1B9B
330
36
100
AcDbEntity
  8
TEILE
 62
     2
100
AcDbLine
 10
11914.091797
 20
-509.184937
 30
0.0
 11
11912.898438
 21
-510.205017
 31
0.0
  0
LINE
  5
1B9C
330
36
100
AcDbEntity
  8
TEILE
 62
     2
100
AcDbLine
 10
11912.898438
 20
-510.205017
 30
0.0
 11
11911.757813
 21
-511.286163
 31
0.0
  0
LINE
  5
1B9D
330
36
100
AcDbEntity
  8
TEILE
 62
     2
100
AcDbLine
 10
11911.757813
 20
-511.286163
 30
0.0
 11
11910.677734
 21
-512.425476
 31
0.0
  0
LINE
  5
1B9E
330
36
100
AcDbEntity
  8
TEILE
 62
     2
100
AcDbLine
 10
11910.677734
 20
-512.425476
 30
0.0
 11
11909.657227
 21
-513.619812
 31
0.0
  0
LINE
  5
1B9F
330
36
100
AcDbEntity
  8
TEILE
 62
     2
100
AcDbLine
 10
11909.657227
 20
-513.619812
 30
0.0
 11
11908.701172
 21
-514.865845
 31
0.0
  0
LINE
  5
1BA0
330
36
100
AcDbEntity
  8
TEILE
 62
     2
100
AcDbLine
 10
11908.701172
 20
-514.865845
 30
0.0
 11
11907.811523
 21
-516.160339
 31
0.0
  0
LINE
  5
1BA1
330
36
100
AcDbEntity
  8
TEILE
 62
     2
100
AcDbLine
 10
11907.811523
 20
-516.160339
 30
0.0
 11
11906.991211
 21
-517.499512
 31
0.0
  0
LINE
  5
1BA2
330
36
100
AcDbEntity
  8
TEILE
 62
     2
100
AcDbLine
 10
11906.991211
 20
-517.499512
 30
0.0
 11
11906.241211
 21
-518.879883
 31
0.0
  0
LINE
  5
1BA3
330
36
100
AcDbEntity
  8
TEILE
 62
     2
100
AcDbLine
 10
11906.241211
 20
-518.879883
 30
0.0
 11
11905.56543
 21
-520.2974849999999
 31
0.0
  0
LINE
  5
1BA4
330
36
100
AcDbEntity
  8
TEILE
 62
     2
100
AcDbLine
 10
11905.56543
 20
-520.2974849999999
 30
0.0
 11
11904.964844
 21
-521.748596
 31
0.0
  0
LINE
  5
1BA5
330
36
100
AcDbEntity
  8
TEILE
 62
     2
100
AcDbLine
 10
11904.964844
 20
-521.748596
 30
0.0
 11
11904.439453
 21
-523.229187
 31
0.0
  0
LINE
  5
1BA6
330
36
100
AcDbEntity
  8
TEILE
 62
     2
100
AcDbLine
 10
11904.439453
 20
-523.229187
 30
0.0
 11
11903.994141
 21
-524.7351679999999
 31
0.0
  0
LINE
  5
1BA7
330
36
100
AcDbEntity
  8
TEILE
 62
     2
100
AcDbLine
 10
11903.994141
 20
-524.7351679999999
 30
0.0
 11
11903.626953
 21
-526.2624509999999
 31
0.0
  0
LINE
  5
1BA8
330
36
100
AcDbEntity
  8
TEILE
 62
     2
100
AcDbLine
 10
11903.626953
 20
-526.2624509999999
 30
0.0
 11
11903.34082
 21
-527.8067629999999
 31
0.0
  0
LINE
  5
1BA9
330
36
100
AcDbEntity
  8
TEILE
 62
     2
100
AcDbLine
 10
11903.34082
 20
-527.8067629999999
 30
0.0
 11
11903.135742
 21
-529.3640139999999
 31
0.0
  0
LINE
  5
1BAA
330
36
100
AcDbEntity
  8
TEILE
 62
     2
100
AcDbLine
 10
11903.135742
 20
-529.3640139999999
 30
0.0
 11
11903.012695
 21
-530.9298099999999
 31
0.0
  0
LINE
  5
1BAB
330
36
100
AcDbEntity
  8
TEILE
 62
     2
100
AcDbLine
 10
11903.012695
 20
-530.9298099999999
 30
0.0
 11
11902.970703
 21
-532.4999389999999
 31
0.0
  0
LINE
  5
1BAC
330
36
100
AcDbEntity
  8
TEILE
 62
     2
100
AcDbLine
 10
11902.970703
 20
-532.4999389999999
 30
0.0
 11
11902.970703
 21
-532.5
 31
0.0
  0
LINE
  5
1BAF
330
36
100
AcDbEntity
  8
TEILE
 62
     2
100
AcDbLine
 10
11918.00212631717
 20
532.5
 30
0.0
 11
29.99983056728377
 21
532.5
 31
0.0
  0
LINE
  5
1BB2
330
36
100
AcDbEntity
  8
TEILE
 62
     2
100
AcDbLine
 10
11918.00212631717
 20
532.5
 30
0.0
 11
11918.305664
 21
528.2305299999999
 31
0.0
  0
ENDSEC
  0
SECTION
  2
OBJECTS
  0
DICTIONARY
  5
C
330
0
100
AcDbDictionary
281
     1
  3
ACAD_COLOR
350
2F
  3
ACAD_GROUP
350
D
  3
ACAD_LAYOUT
350
2E
  3
ACAD_MATERIAL
350
10
  3
ACAD_MLINESTYLE
350
2B
  3
ACAD_PLOTSETTINGS
350
2D
  3
ACAD_PLOTSTYLENAME
350
E
  3
ACAD_TABLESTYLE
350
30
  3
ACAD_VISUALSTYLE
350
14
  3
AcDbVariableDictionary
350
1BB3
  0
DICTIONARY
  5
1BB0
330
36
100
AcDbDictionary
280
     1
281
     1
  3
ACAD_SORTENTS
360
1BB1
  0
DICTIONARY
  5
2F
102
{ACAD_REACTORS
330
C
102
}
330
C
100
AcDbDictionary
281
     1
  0
DICTIONARY
  5
D
102
{ACAD_REACTORS
330
C
102
}
330
C
100
AcDbDictionary
281
     1
  0
DICTIONARY
  5
2E
102
{ACAD_REACTORS
330
C
102
}
330
C
100
AcDbDictionary
281
     1
  3
Layout1
350
35
  3
Model
350
39
  0
DICTIONARY
  5
10
102
{ACAD_REACTORS
330
C
102
}
330
C
100
AcDbDictionary
281
     1
  3
ByBlock
350
12
  3
ByLayer
350
11
  3
Global
350
13
  0
DICTIONARY
  5
2B
102
{ACAD_REACTORS
330
C
102
}
330
C
100
AcDbDictionary
281
     1
  3
Standard
350
2C
  0
DICTIONARY
  5
2D
102
{ACAD_REACTORS
330
C
102
}
330
C
100
AcDbDictionary
281
     1
  0
ACDBDICTIONARYWDFLT
  5
E
102
{ACAD_REACTORS
330
C
102
}
330
C
100
AcDbDictionary
281
     1
  3
Normal
350
F
100
AcDbDictionaryWithDefault
340
F
  0
DICTIONARY
  5
30
102
{ACAD_REACTORS
330
C
102
}
330
C
100
AcDbDictionary
281
     1
  3
Standard
350
31
  0
DICTIONARY
  5
14
102
{ACAD_REACTORS
330
C
102
}
330
C
100
AcDbDictionary
281
     1
  3
2dWireframe
350
1A
  3
3D Hidden
350
1C
  3
3dWireframe
350
1B
  3
Basic
350
19
  3
Brighten
350
20
  3
ColorChange
350
24
  3
Conceptual
350
1D
  3
Dim
350
1F
  3
Facepattern
350
23
  3
Flat
350
15
  3
FlatWithEdges
350
16
  3
Gouraud
350
17
  3
GouraudWithEdges
350
18
  3
Linepattern
350
22
  3
Realistic
350
1E
  3
Thicken
350
21
  0
DICTIONARY
  5
1BB3
102
{ACAD_REACTORS
330
C
102
}
330
C
100
AcDbDictionary
281
     1
  3
CTABLESTYLE
350
1BB4
  0
SORTENTSTABLE
  5
1BB1
102
{ACAD_REACTORS
330
1BB0
102
}
330
1BB0
100
AcDbSortentsTable
330
36
331
1B91
  5
1B92
331
1BAB
  5
1BAC
331
82
  5
83
331
6B
  5
6C
331
1B80
  5
1B81
331
1BA2
  5
1BA3
331
93
  5
94
331
1B6F
  5
1B70
331
5A
  5
5A
331
1BA9
  5
1BAA
331
80
  5
81
331
69
  5
6A
331
A2
  5
A3
331
1B7E
  5
1B7F
331
1BA0
  5
1BA1
331
91
  5
92
331
1B6D
  5
1B6E
331
1B8F
  5
1B90
331
58
  5
58
331
7E
  5
7F
331
67
  5
68
331
A0
  5
A1
331
1B7C
  5
1B7D
331
1B9E
  5
1B9F
331
8F
  5
90
331
1B6B
  5
1B6C
331
1B8D
  5
1B8E
331
7C
  5
7D
331
65
  5
66
331
9E
  5
9F
331
1B7A
  5
1B7B
331
1B9C
  5
1B9D
331
8D
  5
8E
331
76
  5
77
331
1B69
  5
1B6A
331
1B8B
  5
1B8C
331
7A
  5
7B
331
63
  5
64
331
9C
  5
9D
331
1B78
  5
1B79
331
1B9A
  5
1B9B
331
8B
  5
8C
331
74
  5
75
331
1B67
  5
1B68
331
1B89
  5
1B8A
331
78
  5
79
331
61
  5
62
331
9A
  5
9B
331
1B76
  5
1B77
331
1B98
  5
1B99
331
89
  5
8A
331
72
  5
73
331
1B65
  5
1B66
331
1B87
  5
1B88
331
98
  5
99
331
1B74
  5
1B75
331
1B96
  5
1B97
331
87
  5
88
331
70
  5
71
331
1B85
  5
1B86
331
1BA7
  5
1BA8
331
5F
  5
60
331
1B72
  5
1B73
331
1B94
  5
1B95
331
85
  5
86
331
6E
  5
6F
331
1B83
  5
1B84
331
1BA5
  5
1BA6
331
5D
  5
5E
331
96
  5
97
331
1B70
  5
1B71
331
1B92
  5
1B93
331
1BAC
  5
1BAF
331
83
  5
84
331
6C
  5
6D
331
1B81
  5
1B82
331
1BA3
  5
1BA4
331
5B
  5
5C
331
94
  5
95
331
1B90
  5
1B91
331
1BAA
  5
1BAB
331
81
  5
82
331
6A
  5
6B
331
A3
  5
A4
331
1B7F
  5
1B80
331
1BA1
  5
1BA2
331
92
  5
93
331
1B6E
  5
1B6F
331
59
  5
59
331
1BA8
  5
1BA9
331
7F
  5
80
331
68
  5
69
331
A1
  5
A2
331
1B7D
  5
1B7E
331
1B9F
  5
1BA0
331
90
  5
91
331
1B6C
  5
1B6D
331
1B8E
  5
1B8F
331
57
  5
57
331
7D
  5
7E
331
66
  5
67
331
9F
  5
A0
331
1B7B
  5
1B7C
331
1B9D
  5
1B9E
331
8E
  5
8F
331
77
  5
78
331
1B6A
  5
1B6B
331
1B8C
  5
1B8D
331
7B
  5
7C
331
64
  5
65
331
9D
  5
9E
331
1B79
  5
1B7A
331
1B9B
  5
1B9C
331
8C
  5
8D
331
75
  5
76
331
1B68
  5
1B69
331
1B8A
  5
1B8B
331
79
  5
7A
331
62
  5
63
331
9B
  5
9C
331
1B77
  5
1B78
331
1B99
  5
1B9A
331
8A
  5
8B
331
73
  5
74
331
1B66
  5
1B67
331
1B88
  5
1B89
331
60
  5
61
331
99
  5
9A
331
1B75
  5
1B76
331
1B97
  5
1B98
331
88
  5
89
331
71
  5
72
331
1B86
  5
1B87
331
1B73
  5
1B74
331
1B95
  5
1B96
331
1BAF
  5
5B
331
86
  5
87
331
6F
  5
70
331
1B84
  5
1B85
331
1BA6
  5
1BA7
331
5E
  5
5F
331
97
  5
98
331
1B71
  5
1B72
331
1B93
  5
1B94
331
84
  5
85
331
6D
  5
6E
331
1B82
  5
1B83
331
1BA4
  5
1BA5
331
5C
  5
5D
331
95
  5
96
  0
LAYOUT
  5
35
102
{ACAD_REACTORS
330
2E
102
}
330
2E
100
AcDbPlotSettings
  1

  2
PDFill PDF&Image Writer
  4

  6

 40
0.0
 41
0.0
 42
0.0
 43
0.0
 44
0.0
 45
0.0
 46
0.0
 47
0.0
 48
0.0
 49
0.0
140
0.0
141
0.0
142
1.0
143
1.0
 70
   688
 72
     0
 73
     0
 74
     5
  7

 75
    16
147
1.0
 76
     0
 77
     2
 78
   300
148
0.0
149
0.0
100
AcDbLayout
  1
Layout1
 70
     1
 71
     1
 10
0.0
 20
0.0
 11
12.0
 21
9.0
 12
0.0
 22
0.0
 32
0.0
 14
1.000000000000000E+20
 24
1.000000000000000E+20
 34
1.000000000000000E+20
 15
-1.000000000000000E+20
 25
-1.000000000000000E+20
 35
-1.000000000000000E+20
146
0.0
 13
0.0
 23
0.0
 33
0.0
 16
1.0
 26
0.0
 36
0.0
 17
0.0
 27
1.0
 37
0.0
 76
     0
330
32
  0
LAYOUT
  5
39
102
{ACAD_REACTORS
330
2E
102
}
330
2E
100
AcDbPlotSettings
  1

  2
PDFill PDF&Image Writer
  4

  6

 40
0.0
 41
0.0
 42
0.0
 43
0.0
 44
0.0
 45
0.0
 46
0.0
 47
0.0
 48
0.0
 49
0.0
140
0.0
141
0.0
142
1.0
143
1.0
 70
  1712
 72
     0
 73
     0
 74
     0
  7

 75
     0
147
1.0
 76
     0
 77
     2
 78
   300
148
0.0
149
0.0
100
AcDbLayout
  1
Model
 70
     1
 71
     0
 10
0.0
 20
0.0
 11
12.0
 21
9.0
 12
0.0
 22
0.0
 32
0.0
 14
0.0
 24
0.0
 34
0.0
 15
0.0
 25
0.0
 35
0.0
146
0.0
 13
0.0
 23
0.0
 33
0.0
 16
1.0
 26
0.0
 36
0.0
 17
0.0
 27
1.0
 37
0.0
 76
     0
330
36
331
56
  0
MATERIAL
  5
12
102
{ACAD_XDICTIONARY
360
1BB7
102
}
102
{ACAD_REACTORS
330
10
102
}
330
10
100
AcDbMaterial
  1
ByBlock
  0
MATERIAL
  5
11
102
{ACAD_XDICTIONARY
360
1BB5
102
}
102
{ACAD_REACTORS
330
10
102
}
330
10
100
AcDbMaterial
  1
ByLayer
  0
MATERIAL
  5
13
102
{ACAD_XDICTIONARY
360
1BB9
102
}
102
{ACAD_REACTORS
330
10
102
}
330
10
100
AcDbMaterial
  1
Global
  0
MLINESTYLE
  5
2C
102
{ACAD_REACTORS
330
2B
102
}
330
2B
100
AcDbMlineStyle
  2
STANDARD
 70
     0
  3

 62
   256
 51
90.0
 52
90.0
 71
     2
 49
0.5
 62
   256
  6
BYLAYER
 49
-0.5
 62
   256
  6
BYLAYER
  0
ACDBPLACEHOLDER
  5
F
102
{ACAD_REACTORS
330
E
102
}
330
E
  0
TABLESTYLE
  5
31
102
{ACAD_XDICTIONARY
360
1BBB
102
}
102
{ACAD_REACTORS
330
30
102
}
330
30
100
AcDbTableStyle
  3
Standard
 70
     0
 71
     0
 40
0.06
 41
0.06
280
     0
281
     0
  7
STANDARD
140
0.18
170
     2
 62
     0
 63
     7
283
     0
274
    -2
284
     1
 64
     0
275
    -2
285
     1
 65
     0
276
    -2
286
     1
 66
     0
277
    -2
287
     1
 67
     0
278
    -2
288
     1
 68
     0
279
    -2
289
     1
 69
     0
  7
STANDARD
140
0.25
170
     5
 62
     0
 63
     7
283
     0
274
    -2
284
     1
 64
     0
275
    -2
285
     1
 65
     0
276
    -2
286
     1
 66
     0
277
    -2
287
     1
 67
     0
278
    -2
288
     1
 68
     0
279
    -2
289
     1
 69
     0
  7
STANDARD
140
0.18
170
     5
 62
     0
 63
     7
283
     0
274
    -2
284
     1
 64
     0
275
    -2
285
     1
 65
     0
276
    -2
286
     1
 66
     0
277
    -2
287
     1
 67
     0
278
    -2
288
     1
 68
     0
279
    -2
289
     1
 69
     0
  0
VISUALSTYLE
  5
1A
102
{ACAD_REACTORS
330
14
102
}
330
14
100
AcDbVisualStyle
  2
2dWireframe
 70
     4
 71
     0
 72
     2
 73
     0
 90
        0
 40
-0.6
 41
-30.0
 62
     5
 63
     7
421
 16777215
 74
     1
 91
        4
 64
     7
 65
   257
 75
     1
175
     1
 42
1.0
 92
        0
 66
   257
 43
1.0
 76
     1
 77
     6
 78
     2
 67
     7
 79
     5
170
     0
171
     0
290
     0
174
     0
 93
        1
 44
0.0
173
     0
291
     0
 45
0.0
1001
ACAD
1000
AcDbSavedByObjectVersion
1070
     0
  0
VISUALSTYLE
  5
1C
102
{ACAD_REACTORS
330
14
102
}
330
14
100
AcDbVisualStyle
  2
3D Hidden
 70
     6
 71
     1
 72
     2
 73
     2
 90
        0
 40
-0.6
 41
-30.0
 62
     5
 63
     7
421
 16777215
 74
     2
 91
        2
 64
     7
 65
   257
 75
     2
175
     1
 42
40.0
 92
        0
 66
   257
 43
1.0
 76
     1
 77
     6
 78
     2
 67
     7
 79
     3
170
     0
171
     0
290
     0
174
     0
 93
        1
 44
0.0
173
     0
291
     0
 45
0.0
1001
ACAD
1000
AcDbSavedByObjectVersion
1070
     0
  0
VISUALSTYLE
  5
1B
102
{ACAD_REACTORS
330
14
102
}
330
14
100
AcDbVisualStyle
  2
3dWireframe
 70
     5
 71
     0
 72
     2
 73
     0
 90
        0
 40
-0.6
 41
-30.0
 62
     5
 63
     7
421
 16777215
 74
     1
 91
        4
 64
     7
 65
   257
 75
     1
175
     1
 42
1.0
 92
        0
 66
   257
 43
1.0
 76
     1
 77
     6
 78
     2
 67
     7
 79
     5
170
     0
171
     0
290
     0
174
     0
 93
        1
 44
0.0
173
     0
291
     0
 45
0.0
1001
ACAD
1000
AcDbSavedByObjectVersion
1070
     0
  0
VISUALSTYLE
  5
19
102
{ACAD_REACTORS
330
14
102
}
330
14
100
AcDbVisualStyle
  2
Basic
 70
     7
 71
     1
 72
     0
 73
     1
 90
        0
 40
-0.6
 41
-30.0
 62
     5
 63
     7
421
 16777215
 74
     0
 91
        4
 64
     7
 65
   257
 75
     1
175
     1
 42
1.0
 92
        8
 66
     7
 43
1.0
 76
     1
 77
     6
 78
     2
 67
     7
 79
     5
170
     0
171
     0
290
     0
174
     0
 93
        1
 44
0.0
173
     0
291
     1
 45
0.0
1001
ACAD
1000
AcDbSavedByObjectVersion
1070
     0
  0
VISUALSTYLE
  5
20
102
{ACAD_REACTORS
330
14
102
}
330
14
100
AcDbVisualStyle
  2
Brighten
 70
    12
 71
     2
 72
     2
 73
     0
 90
        0
 40
-0.6
 41
-30.0
 62
     5
 63
     7
421
 16777215
 74
     1
 91
        4
 64
     7
 65
   257
 75
     1
175
     1
 42
1.0
 92
        8
 66
     7
 43
1.0
 76
     1
 77
     6
 78
     2
 67
     7
 79
     5
170
     0
171
     0
290
     0
174
     0
 93
        1
 44
50.0
173
     0
291
     1
 45
0.0
1001
ACAD
1000
AcDbSavedByObjectVersion
1070
     0
  0
VISUALSTYLE
  5
24
102
{ACAD_REACTORS
330
14
102
}
330
14
100
AcDbVisualStyle
  2
ColorChange
 70
    16
 71
     2
 72
     2
 73
     3
 90
        0
 40
-0.6
 41
-30.0
 62
     5
 63
     8
421
  8421504
 74
     1
 91
        4
 64
     7
 65
   257
 75
     1
175
     1
 42
1.0
 92
        8
 66
     8
424
  8421504
 43
1.0
 76
     1
 77
     6
 78
     2
 67
     7
 79
     5
170
     0
171
     0
290
     0
174
     0
 93
        1
 44
0.0
173
     0
291
     1
 45
0.0
1001
ACAD
1000
AcDbSavedByObjectVersion
1070
     0
  0
VISUALSTYLE
  5
1D
102
{ACAD_REACTORS
330
14
102
}
330
14
100
AcDbVisualStyle
  2
Conceptual
 70
     9
 71
     3
 72
     2
 73
     0
 90
        0
 40
-0.6
 41
-30.0
 62
     5
 63
     7
421
 16777215
 74
     2
 91
        2
 64
     7
 65
   257
 75
     1
175
     1
 42
40.0
 92
        8
 66
     7
 43
1.0
 76
     1
 77
     6
 78
     2
 67
     7
 79
     3
170
     0
171
     0
290
     0
174
     0
 93
        1
 44
0.0
173
     0
291
     0
 45
0.0
1001
ACAD
1000
AcDbSavedByObjectVersion
1070
     0
  0
VISUALSTYLE
  5
1F
102
{ACAD_REACTORS
330
14
102
}
330
14
100
AcDbVisualStyle
  2
Dim
 70
    11
 71
     2
 72
     2
 73
     0
 90
        0
 40
-0.6
 41
-30.0
 62
     5
 63
     7
421
 16777215
 74
     1
 91
        4
 64
     7
 65
   257
 75
     1
175
     1
 42
1.0
 92
        8
 66
     7
 43
1.0
 76
     1
 77
     6
 78
     2
 67
     7
 79
     5
170
     0
171
     0
290
     0
174
     0
 93
        1
 44
-50.0
173
     0
291
     1
 45
0.0
1001
ACAD
1000
AcDbSavedByObjectVersion
1070
     0
  0
VISUALSTYLE
  5
23
102
{ACAD_REACTORS
330
14
102
}
330
14
100
AcDbVisualStyle
  2
Facepattern
 70
    15
 71
     2
 72
     2
 73
     0
 90
        0
 40
-0.6
 41
-30.0
 62
     5
 63
     7
421
 16777215
 74
     1
 91
        4
 64
     7
 65
   257
 75
     1
175
     1
 42
1.0
 92
        8
 66
     7
 43
1.0
 76
     1
 77
     6
 78
     2
 67
     7
 79
     5
170
     0
171
     0
290
     0
174
     0
 93
        1
 44
0.0
173
     0
291
     1
 45
0.0
1001
ACAD
1000
AcDbSavedByObjectVersion
1070
     0
  0
VISUALSTYLE
  5
15
102
{ACAD_REACTORS
330
14
102
}
330
14
100
AcDbVisualStyle
  2
Flat
 70
     0
 71
     2
 72
     1
 73
     1
 90
        2
 40
-0.6
 41
30.0
 62
     5
 63
     7
421
 16777215
 74
     0
 91
        4
 64
     7
 65
   257
 75
     1
175
     1
 42
1.0
 92
        8
 66
     7
 43
1.0
 76
     1
 77
     6
 78
     2
 67
     7
 79
     5
170
     0
171
     0
290
     0
174
     0
 93
       13
 44
0.0
173
     0
291
     1
 45
0.0
1001
ACAD
1000
AcDbSavedByObjectVersion
1070
     0
  0
VISUALSTYLE
  5
16
102
{ACAD_REACTORS
330
14
102
}
330
14
100
AcDbVisualStyle
  2
FlatWithEdges
 70
     1
 71
     2
 72
     1
 73
     1
 90
        2
 40
-0.6
 41
30.0
 62
     5
 63
     7
421
 16777215
 74
     1
 91
        4
 64
     7
 65
   257
 75
     1
175
     1
 42
1.0
 92
        0
 66
   257
 43
1.0
 76
     1
 77
     6
 78
     2
 67
     7
 79
     5
170
     0
171
     0
290
     0
174
     0
 93
       13
 44
0.0
173
     0
291
     1
 45
0.0
1001
ACAD
1000
AcDbSavedByObjectVersion
1070
     0
  0
VISUALSTYLE
  5
17
102
{ACAD_REACTORS
330
14
102
}
330
14
100
AcDbVisualStyle
  2
Gouraud
 70
     2
 71
     2
 72
     2
 73
     1
 90
        2
 40
-0.6
 41
30.0
 62
     5
 63
     7
421
 16777215
 74
     0
 91
        4
 64
     7
 65
   257
 75
     1
175
     1
 42
1.0
 92
        0
 66
     7
 43
1.0
 76
     1
 77
     6
 78
     2
 67
     7
 79
     5
170
     0
171
     0
290
     0
174
     0
 93
       13
 44
0.0
173
     0
291
     1
 45
0.0
1001
ACAD
1000
AcDbSavedByObjectVersion
1070
     0
  0
VISUALSTYLE
  5
18
102
{ACAD_REACTORS
330
14
102
}
330
14
100
AcDbVisualStyle
  2
GouraudWithEdges
 70
     3
 71
     2
 72
     2
 73
     1
 90
        2
 40
-0.6
 41
30.0
 62
     5
 63
     7
421
 16777215
 74
     1
 91
        4
 64
     7
 65
   257
 75
     1
175
     1
 42
1.0
 92
        0
 66
   257
 43
1.0
 76
     1
 77
     6
 78
     2
 67
     7
 79
     5
170
     0
171
     0
290
     0
174
     0
 93
       13
 44
0.0
173
     0
291
     1
 45
0.0
1001
ACAD
1000
AcDbSavedByObjectVersion
1070
     0
  0
VISUALSTYLE
  5
22
102
{ACAD_REACTORS
330
14
102
}
330
14
100
AcDbVisualStyle
  2
Linepattern
 70
    14
 71
     2
 72
     2
 73
     0
 90
        0
 40
-0.6
 41
-30.0
 62
     5
 63
     7
421
 16777215
 74
     1
 91
        4
 64
     7
 65
   257
 75
     7
175
     7
 42
1.0
 92
        8
 66
     7
 43
1.0
 76
     1
 77
     6
 78
     2
 67
     7
 79
     5
170
     0
171
     0
290
     0
174
     0
 93
        1
 44
0.0
173
     0
291
     1
 45
0.0
1001
ACAD
1000
AcDbSavedByObjectVersion
1070
     0
  0
VISUALSTYLE
  5
1E
102
{ACAD_REACTORS
330
14
102
}
330
14
100
AcDbVisualStyle
  2
Realistic
 70
     8
 71
     2
 72
     2
 73
     0
 90
        0
 40
-0.6
 41
-30.0
 62
     5
 63
     7
421
 16777215
 74
     1
 91
        0
 64
     7
 65
   257
 75
     1
175
     1
 42
1.0
 92
        8
 66
     8
424
  7895160
 43
1.0
 76
     1
 77
     6
 78
     2
 67
     7
 79
     5
170
     0
171
     0
290
     0
174
     0
 93
       13
 44
0.0
173
     0
291
     0
 45
0.0
1001
ACAD
1000
AcDbSavedByObjectVersion
1070
     0
  0
VISUALSTYLE
  5
21
102
{ACAD_REACTORS
330
14
102
}
330
14
100
AcDbVisualStyle
  2
Thicken
 70
    13
 71
     2
 72
     2
 73
     0
 90
        0
 40
-0.6
 41
-30.0
 62
     5
 63
     7
421
 16777215
 74
     1
 91
        4
 64
     7
 65
   257
 75
     1
175
     1
 42
1.0
 92
       12
 66
     7
 43
1.0
 76
     1
 77
     6
 78
     2
 67
     7
 79
     5
170
     0
171
     0
290
     0
174
     0
 93
        1
 44
0.0
173
     0
291
     1
 45
0.0
1001
ACAD
1000
AcDbSavedByObjectVersion
1070
     0
  0
DICTIONARYVAR
  5
1BB4
102
{ACAD_REACTORS
330
1BB3
102
}
330
1BB3
100
DictionaryVariables
280
     0
  1
STANDARD
  0
DICTIONARY
  5
1BB7
330
12
100
AcDbDictionary
280
     1
281
     1
  3
ACAD_XREC_ROUNDTRIP
360
1BB8
  0
DICTIONARY
  5
1BB5
330
11
100
AcDbDictionary
280
     1
281
     1
  3
ACAD_XREC_ROUNDTRIP
360
1BB6
  0
DICTIONARY
  5
1BB9
330
13
100
AcDbDictionary
280
     1
281
     1
  3
ACAD_XREC_ROUNDTRIP
360
1BBA
  0
DICTIONARY
  5
1BBB
330
31
100
AcDbDictionary
280
     1
281
     1
  3
ACAD_XREC_ROUNDTRIP
360
1BBC
  0
XRECORD
  5
1BB8
102
{ACAD_REACTORS
330
1BB7
102
}
330
1BB7
100
AcDbXrecord
280
     1
102
MATERIAL
148
0.0
149
0.0
149
0.0
 93
        0
 94
       63
282
     0
 72
     1
 77
     1
171
     1
175
     1
179
     1
273
     0
  0
XRECORD
  5
1BB6
102
{ACAD_REACTORS
330
1BB5
102
}
330
1BB5
100
AcDbXrecord
280
     1
102
MATERIAL
148
0.0
149
0.0
149
0.0
 93
        0
 94
       63
282
     0
 72
     1
 77
     1
171
     1
175
     1
179
     1
273
     0
  0
XRECORD
  5
1BBA
102
{ACAD_REACTORS
330
1BB9
102
}
330
1BB9
100
AcDbXrecord
280
     1
102
MATERIAL
148
0.0
149
0.0
149
0.0
 93
        0
 94
       63
282
     0
 72
     1
 77
     1
171
     1
175
     1
179
     1
273
     0
  0
XRECORD
  5
1BBC
102
{ACAD_REACTORS
330
1BBB
102
}
330
1BBB
100
AcDbXrecord
280
     1
102
ACAD_ROUNDTRIP_PRE2007_TABLESTYLE
 90
      512
 91
        0
  1

 92
      512
 93
        0
  2

 94
      512
 95
        0
  3

  0
ENDSEC
  0
EOF
