999
     *******************************************
999
     BOCAD Software GmbH   Rev.18.000   0202.22
999
     Filename:   c:\progetti21\danieli_aqs\b4\temp_60\10315.dxf
999
     Creator:    bocad
999
     Date:       20.01.2016
999
     Factor:     10.000000
999
     *******************************************
  0
SECTION
  2
HEADER
  9
$DWGCODEPAGE
  3
ANSI_1252
  9
$INSBASE
 10
0.0
 20
0.0
 30
0.0
  9
$EXTMIN
 10
-0.500000
 20
-230.499992
  9
$EXTMAX
 10
14948.499756
 20
230.499992
  9
$LIMMIN
 10
-1.500000
 20
-231.499992
  9
$LIMMAX
 10
14949.499756
 20
231.499992
  9
$LTSCALE
 40
10.000000
  0
ENDSEC
  0
SECTION
  2
TABLES
  0
TABLE
  2
LTYPE
 70
4
  0
LTYPE
  2
CONTINUOUS
 70
64
  3
____________________________________________
 72
65
 73
0
 40
0.0
  0
LTYPE
  2
HIDDEN
 70
64
  3
__ __ __ __ __ __ __ __ __ __ __ __ __ __ __
 72
65
 73
2
 40
0.50
 49
0.30
 49
-0.20
  0
LTYPE
  2
DASHDOT
 70
64
  3
____ _ ____ _ ____ _ ____ _ ____ _ ____ _ __
 72
65
 73
4
 40
2.0
 49
1.5
 49
-0.25
 49
0
 49
-0.25
  0
LTYPE
  2
DOT
 70
64
  3
............................................
 72
65
 73
2
 40
0.30
 49
0
 49
-0.30
  0
ENDTAB
  0
TABLE
  2
LAYER
 70
23
  0
LAYER
  2
SCHRAUBEN
 70
64
 62
7
  6
CONTINUOUS
  0
LAYER
  2
REST
 70
64
 62
7
  6
CONTINUOUS
  0
LAYER
  2
UNTERSCHRIFT
 70
64
 62
7
  6
CONTINUOUS
  0
LAYER
  2
TEILE
 70
64
 62
7
  6
CONTINUOUS
  0
LAYER
  2
BEZ_SCHRAUBEN
 70
64
 62
7
  6
CONTINUOUS
  0
LAYER
  2
MARKERPUNKTE
 70
64
 62
7
  6
CONTINUOUS
  0
LAYER
  2
HILFSPUNKTE
 70
64
 62
7
  6
CONTINUOUS
  0
LAYER
  2
PICKPUNKTE
 70
64
 62
7
  6
CONTINUOUS
  0
LAYER
  2
SCHWEISSEN
 70
64
 62
7
  6
CONTINUOUS
  0
LAYER
  2
GRAFIK
 70
64
 62
7
  6
CONTINUOUS
  0
LAYER
  2
BEM_FREI
 70
64
 62
7
  6
CONTINUOUS
  0
LAYER
  2
BEM_SYSTEM
 70
64
 62
7
  6
CONTINUOUS
  0
LAYER
  2
BEM_KONTUR
 70
64
 62
7
  6
CONTINUOUS
  0
LAYER
  2
BEM_ANBAU
 70
64
 62
7
  6
CONTINUOUS
  0
LAYER
  2
BEM_SCHRAUBEN
 70
64
 62
7
  6
CONTINUOUS
  0
LAYER
  2
BEM_SCHWEISSEN
 70
64
 62
7
  6
CONTINUOUS
  0
LAYER
  2
FREIER_TEXT
 70
64
 62
7
  6
CONTINUOUS
  0
LAYER
  2
BEZ_TEILE
 70
64
 62
7
  6
CONTINUOUS
  0
LAYER
  2
BEZ_SCHWEISSEN
 70
64
 62
7
  6
CONTINUOUS
  0
LAYER
  2
SCHRAFFUREN
 70
64
 62
7
  6
CONTINUOUS
  0
LAYER
  2
SCHNITTSYMBOL
 70
64
 62
7
  6
CONTINUOUS
  0
LAYER
  2
RASTER
 70
64
 62
7
  6
CONTINUOUS
  0
LAYER
  2
LISTEN
 70
64
 62
7
  6
CONTINUOUS
  0
LAYER
  2
RAHMEN
 70
64
 62
7
  6
CONTINUOUS
  0
ENDTAB
  0
TABLE
  2
STYLE
 70
1
  0
STYLE
  2
STANDARD
 70
64
 40
0
 41
1
 50
0.0
 71
0
 42
0.35
  3
ROMANS
  0
ENDTAB
  0
ENDSEC
  0
SECTION
  2
ENTITIES
  0
LINE
  8
SCHRAUBEN
 62
6
 10
115.400772
 20
-173.598022
 11
102.600769
 21
-186.398010
  0
LINE
  8
SCHRAUBEN
 62
6
 10
102.600769
 20
-173.598022
 11
115.400772
 21
-186.398010
  0
CIRCLE
  8
SCHRAUBEN
 62
2
 10
109.000771
 20
-179.998016
 40
16.000000
  0
LINE
  8
SCHRAUBEN
 62
6
 10
2746.399902
 20
-188.798004
 11
2736.000000
 21
-199.198013
  0
LINE
  8
SCHRAUBEN
 62
6
 10
2736.000000
 20
-188.798004
 11
2746.399902
 21
-199.198013
  0
CIRCLE
  8
SCHRAUBEN
 62
2
 10
2741.199951
 20
-193.998016
 40
12.999756
  0
LINE
  8
SCHRAUBEN
 62
6
 10
2800.175537
 20
-143.985092
 11
2789.775635
 21
-154.385101
  0
LINE
  8
SCHRAUBEN
 62
6
 10
2789.775635
 20
-143.985092
 11
2800.175537
 21
-154.385101
  0
CIRCLE
  8
SCHRAUBEN
 62
2
 10
2794.975586
 20
-149.185089
 40
13.000000
  0
LINE
  8
SCHRAUBEN
 62
6
 10
3158.224609
 20
-143.985092
 11
3147.824707
 21
-154.385101
  0
LINE
  8
SCHRAUBEN
 62
6
 10
3147.824707
 20
-143.985092
 11
3158.224609
 21
-154.385101
  0
CIRCLE
  8
SCHRAUBEN
 62
2
 10
3153.024658
 20
-149.185089
 40
12.999756
  0
LINE
  8
SCHRAUBEN
 62
6
 10
3211.999756
 20
-188.798004
 11
3201.600098
 21
-199.198013
  0
LINE
  8
SCHRAUBEN
 62
6
 10
3201.600098
 20
-188.798004
 11
3211.999756
 21
-199.198013
  0
CIRCLE
  8
SCHRAUBEN
 62
2
 10
3206.799805
 20
-193.998016
 40
13.000000
  0
LINE
  8
SCHRAUBEN
 62
6
 10
5746.400391
 20
-188.798004
 11
5736.000000
 21
-199.198013
  0
LINE
  8
SCHRAUBEN
 62
6
 10
5736.000000
 20
-188.798004
 11
5746.400391
 21
-199.198013
  0
CIRCLE
  8
SCHRAUBEN
 62
2
 10
5741.200195
 20
-193.998016
 40
12.999512
  0
LINE
  8
SCHRAUBEN
 62
6
 10
5800.175781
 20
-143.985092
 11
5789.775391
 21
-154.385101
  0
LINE
  8
SCHRAUBEN
 62
6
 10
5789.775391
 20
-143.985092
 11
5800.175781
 21
-154.385101
  0
CIRCLE
  8
SCHRAUBEN
 62
2
 10
5794.975586
 20
-149.185089
 40
13.000000
  0
LINE
  8
SCHRAUBEN
 62
6
 10
6158.224609
 20
-143.985092
 11
6147.824219
 21
-154.385101
  0
LINE
  8
SCHRAUBEN
 62
6
 10
6147.824219
 20
-143.985092
 11
6158.224609
 21
-154.385101
  0
CIRCLE
  8
SCHRAUBEN
 62
2
 10
6153.024414
 20
-149.185089
 40
13.000000
  0
LINE
  8
SCHRAUBEN
 62
6
 10
6212.000000
 20
-188.798004
 11
6201.599609
 21
-199.198013
  0
LINE
  8
SCHRAUBEN
 62
6
 10
6201.599609
 20
-188.798004
 11
6212.000000
 21
-199.198013
  0
CIRCLE
  8
SCHRAUBEN
 62
2
 10
6206.799805
 20
-193.998016
 40
13.000000
  0
LINE
  8
SCHRAUBEN
 62
6
 10
8746.400391
 20
-188.798004
 11
8736.000000
 21
-199.198013
  0
LINE
  8
SCHRAUBEN
 62
6
 10
8736.000000
 20
-188.798004
 11
8746.400391
 21
-199.198013
  0
CIRCLE
  8
SCHRAUBEN
 62
2
 10
8741.200195
 20
-193.998016
 40
13.000000
  0
LINE
  8
SCHRAUBEN
 62
6
 10
8800.175781
 20
-143.985092
 11
8789.775391
 21
-154.385101
  0
LINE
  8
SCHRAUBEN
 62
6
 10
8789.775391
 20
-143.985092
 11
8800.175781
 21
-154.385101
  0
CIRCLE
  8
SCHRAUBEN
 62
2
 10
8794.975586
 20
-149.185089
 40
13.000000
  0
LINE
  8
SCHRAUBEN
 62
6
 10
9158.224609
 20
-143.985092
 11
9147.824219
 21
-154.385101
  0
LINE
  8
SCHRAUBEN
 62
6
 10
9147.824219
 20
-143.985092
 11
9158.224609
 21
-154.385101
  0
CIRCLE
  8
SCHRAUBEN
 62
2
 10
9153.025391
 20
-149.185089
 40
12.999023
  0
LINE
  8
SCHRAUBEN
 62
6
 10
9212.000000
 20
-188.798004
 11
9201.599609
 21
-199.198013
  0
LINE
  8
SCHRAUBEN
 62
6
 10
9201.599609
 20
-188.798004
 11
9212.000000
 21
-199.198013
  0
CIRCLE
  8
SCHRAUBEN
 62
2
 10
9206.799805
 20
-193.998016
 40
13.000000
  0
LINE
  8
SCHRAUBEN
 62
6
 10
11746.401367
 20
-188.798004
 11
11736.000977
 21
-199.198013
  0
LINE
  8
SCHRAUBEN
 62
6
 10
11736.000977
 20
-188.798004
 11
11746.401367
 21
-199.198013
  0
CIRCLE
  8
SCHRAUBEN
 62
2
 10
11741.201172
 20
-193.998016
 40
13.000000
  0
LINE
  8
SCHRAUBEN
 62
6
 10
11800.176758
 20
-143.985092
 11
11789.776367
 21
-154.385101
  0
LINE
  8
SCHRAUBEN
 62
6
 10
11789.776367
 20
-143.985092
 11
11800.176758
 21
-154.385101
  0
CIRCLE
  8
SCHRAUBEN
 62
2
 10
11794.976563
 20
-149.185089
 40
13.000977
  0
LINE
  8
SCHRAUBEN
 62
6
 10
12158.226563
 20
-143.985092
 11
12147.826172
 21
-154.385101
  0
LINE
  8
SCHRAUBEN
 62
6
 10
12147.826172
 20
-143.985092
 11
12158.226563
 21
-154.385101
  0
CIRCLE
  8
SCHRAUBEN
 62
2
 10
12153.026367
 20
-149.185089
 40
13.000000
  0
LINE
  8
SCHRAUBEN
 62
6
 10
12212.001953
 20
-188.798004
 11
12201.601563
 21
-199.198013
  0
LINE
  8
SCHRAUBEN
 62
6
 10
12201.601563
 20
-188.798004
 11
12212.001953
 21
-199.198013
  0
CIRCLE
  8
SCHRAUBEN
 62
2
 10
12206.801758
 20
-193.998016
 40
13.000977
  0
LINE
  8
SCHRAUBEN
 62
6
 10
14845.400391
 20
-173.598022
 11
14832.599609
 21
-186.398010
  0
LINE
  8
SCHRAUBEN
 62
6
 10
14832.599609
 20
-173.598022
 11
14845.400391
 21
-186.398010
  0
CIRCLE
  8
SCHRAUBEN
 62
2
 10
14839.000000
 20
-179.998016
 40
16.000000
  0
TEXT
 8
UNTERSCHRIFT
 62
2
 10
7396.000000
 20
-228.000000
 40
3.250000
 41
0.800000
 51
15.000000
  1
Project  DP0GN9  ,Qty. 4  , Pos. 
  0
TEXT
 8
UNTERSCHRIFT
 62
2
 10
7494.799805
 20
-228.000000
 40
3.250000
 41
0.800000
 51
15.000000
  1
  , Profi l PL460*20
  0
TEXT
 8
UNTERSCHRIFT
 62
2
 10
7481.799805
 20
-228.000000
 40
3.250000
 41
0.800000
 51
15.000000
  1
10315
  0
LINE
  8
TEILE
 62
2
 10
0.000000
 20
-230.000000
 11
-0.000000
 21
230.000000
  0
LINE
  8
TEILE
 62
2
 10
-0.000000
 20
230.000000
 11
14947.999023
 21
230.000000
  0
LINE
  8
TEILE
 62
2
 10
14947.999023
 20
230.000000
 11
14947.999023
 21
-230.000000
  0
LINE
  8
TEILE
 62
2
 10
14947.999023
 20
-230.000000
 11
0.000000
 21
-230.000000
  0
TEXT
 8
BEZ_SCHRAUBEN
 62
2
 10
101.000763
 20
-203.498001
 40
5.000000
 41
0.800000
 51
15.000000
  1
 ø32
  0
TEXT
 8
BEZ_SCHRAUBEN
 62
2
 10
2733.200195
 20
-214.498001
 40
5.000000
 41
0.800000
 51
15.000000
  1
 ø26
  0
TEXT
 8
BEZ_SCHRAUBEN
 62
2
 10
2786.975342
 20
-169.685089
 40
5.000000
 41
0.800000
 51
15.000000
  1
 ø26
  0
TEXT
 8
BEZ_SCHRAUBEN
 62
2
 10
3145.024658
 20
-169.685089
 40
5.000000
 41
0.800000
 51
15.000000
  1
 ø26
  0
TEXT
 8
BEZ_SCHRAUBEN
 62
2
 10
3198.800293
 20
-214.498001
 40
5.000000
 41
0.800000
 51
15.000000
  1
 ø26
  0
TEXT
 8
BEZ_SCHRAUBEN
 62
2
 10
5733.200684
 20
-214.498001
 40
5.000000
 41
0.800000
 51
15.000000
  1
 ø26
  0
TEXT
 8
BEZ_SCHRAUBEN
 62
2
 10
5786.975586
 20
-169.685089
 40
5.000000
 41
0.800000
 51
15.000000
  1
 ø26
  0
TEXT
 8
BEZ_SCHRAUBEN
 62
2
 10
6145.024414
 20
-169.685089
 40
5.000000
 41
0.800000
 51
15.000000
  1
 ø26
  0
TEXT
 8
BEZ_SCHRAUBEN
 62
2
 10
6198.799805
 20
-214.498001
 40
5.000000
 41
0.800000
 51
15.000000
  1
 ø26
  0
TEXT
 8
BEZ_SCHRAUBEN
 62
2
 10
8733.201172
 20
-214.498001
 40
5.000000
 41
0.800000
 51
15.000000
  1
 ø26
  0
TEXT
 8
BEZ_SCHRAUBEN
 62
2
 10
8786.975586
 20
-169.685089
 40
5.000000
 41
0.800000
 51
15.000000
  1
 ø26
  0
TEXT
 8
BEZ_SCHRAUBEN
 62
2
 10
9145.024414
 20
-169.685089
 40
5.000000
 41
0.800000
 51
15.000000
  1
 ø26
  0
TEXT
 8
BEZ_SCHRAUBEN
 62
2
 10
9198.799805
 20
-214.498001
 40
5.000000
 41
0.800000
 51
15.000000
  1
 ø26
  0
TEXT
 8
BEZ_SCHRAUBEN
 62
2
 10
11733.201172
 20
-214.498001
 40
5.000000
 41
0.800000
 51
15.000000
  1
 ø26
  0
TEXT
 8
BEZ_SCHRAUBEN
 62
2
 10
11786.976563
 20
-169.685089
 40
5.000000
 41
0.800000
 51
15.000000
  1
 ø26
  0
TEXT
 8
BEZ_SCHRAUBEN
 62
2
 10
12145.025391
 20
-169.685089
 40
5.000000
 41
0.800000
 51
15.000000
  1
 ø26
  0
TEXT
 8
BEZ_SCHRAUBEN
 62
2
 10
12198.799805
 20
-214.498001
 40
5.000000
 41
0.800000
 51
15.000000
  1
 ø26
  0
TEXT
 8
BEZ_SCHRAUBEN
 62
2
 10
14831.000000
 20
-203.498001
 40
5.000000
 41
0.800000
 51
15.000000
  1
 ø32
  0
ENDSEC
  0
EOF

