999
     *******************************************
999
     BOCAD Software GmbH   Rev.18.000   0202.22
999
     Filename:   c:\progetti21\danieli_aqs\b4\temp_60\10316.dxf
999
     Creator:    bocad
999
     Date:       20.01.2016
999
     Factor:     10.000000
999
     *******************************************
  0
SECTION
  2
HEADER
  9
$DWGCODEPAGE
  3
ANSI_1252
  9
$INSBASE
 10
0.0
 20
0.0
 30
0.0
  9
$EXTMIN
 10
-0.500000
 20
-230.499992
  9
$EXTMAX
 10
14918.436279
 20
230.499992
  9
$LIMMIN
 10
-1.500000
 20
-231.499992
  9
$LIMMAX
 10
14919.436279
 20
231.499992
  9
$LTSCALE
 40
10.000000
  0
ENDSEC
  0
SECTION
  2
TABLES
  0
TABLE
  2
LTYPE
 70
4
  0
LTYPE
  2
CONTINUOUS
 70
64
  3
____________________________________________
 72
65
 73
0
 40
0.0
  0
LTYPE
  2
HIDDEN
 70
64
  3
__ __ __ __ __ __ __ __ __ __ __ __ __ __ __
 72
65
 73
2
 40
0.50
 49
0.30
 49
-0.20
  0
LTYPE
  2
DASHDOT
 70
64
  3
____ _ ____ _ ____ _ ____ _ ____ _ ____ _ __
 72
65
 73
4
 40
2.0
 49
1.5
 49
-0.25
 49
0
 49
-0.25
  0
LTYPE
  2
DOT
 70
64
  3
............................................
 72
65
 73
2
 40
0.30
 49
0
 49
-0.30
  0
ENDTAB
  0
TABLE
  2
LAYER
 70
23
  0
LAYER
  2
SCHRAUBEN
 70
64
 62
7
  6
CONTINUOUS
  0
LAYER
  2
REST
 70
64
 62
7
  6
CONTINUOUS
  0
LAYER
  2
UNTERSCHRIFT
 70
64
 62
7
  6
CONTINUOUS
  0
LAYER
  2
TEILE
 70
64
 62
7
  6
CONTINUOUS
  0
LAYER
  2
BEZ_SCHRAUBEN
 70
64
 62
7
  6
CONTINUOUS
  0
LAYER
  2
MARKERPUNKTE
 70
64
 62
7
  6
CONTINUOUS
  0
LAYER
  2
HILFSPUNKTE
 70
64
 62
7
  6
CONTINUOUS
  0
LAYER
  2
PICKPUNKTE
 70
64
 62
7
  6
CONTINUOUS
  0
LAYER
  2
SCHWEISSEN
 70
64
 62
7
  6
CONTINUOUS
  0
LAYER
  2
GRAFIK
 70
64
 62
7
  6
CONTINUOUS
  0
LAYER
  2
BEM_FREI
 70
64
 62
7
  6
CONTINUOUS
  0
LAYER
  2
BEM_SYSTEM
 70
64
 62
7
  6
CONTINUOUS
  0
LAYER
  2
BEM_KONTUR
 70
64
 62
7
  6
CONTINUOUS
  0
LAYER
  2
BEM_ANBAU
 70
64
 62
7
  6
CONTINUOUS
  0
LAYER
  2
BEM_SCHRAUBEN
 70
64
 62
7
  6
CONTINUOUS
  0
LAYER
  2
BEM_SCHWEISSEN
 70
64
 62
7
  6
CONTINUOUS
  0
LAYER
  2
FREIER_TEXT
 70
64
 62
7
  6
CONTINUOUS
  0
LAYER
  2
BEZ_TEILE
 70
64
 62
7
  6
CONTINUOUS
  0
LAYER
  2
BEZ_SCHWEISSEN
 70
64
 62
7
  6
CONTINUOUS
  0
LAYER
  2
SCHRAFFUREN
 70
64
 62
7
  6
CONTINUOUS
  0
LAYER
  2
SCHNITTSYMBOL
 70
64
 62
7
  6
CONTINUOUS
  0
LAYER
  2
RASTER
 70
64
 62
7
  6
CONTINUOUS
  0
LAYER
  2
LISTEN
 70
64
 62
7
  6
CONTINUOUS
  0
LAYER
  2
RAHMEN
 70
64
 62
7
  6
CONTINUOUS
  0
ENDTAB
  0
TABLE
  2
STYLE
 70
1
  0
STYLE
  2
STANDARD
 70
64
 40
0
 41
1
 50
0.0
 71
0
 42
0.35
  3
ROMANS
  0
ENDTAB
  0
ENDSEC
  0
SECTION
  2
ENTITIES
  0
ARC
  8
SCHRAUBEN
 62
4
 10
63.964520
 20
-135.000015
 40
13.000000
 50
270.000000
 51
450.000000
  0
LINE
  8
SCHRAUBEN
 62
4
 10
63.964520
 20
-122.000008
 11
53.964520
 21
-122.000008
  0
ARC
  8
SCHRAUBEN
 62
4
 10
53.964520
 20
-135.000015
 40
13.000008
 50
450.000000
 51
270.000000
  0
LINE
  8
SCHRAUBEN
 62
4
 10
53.964520
 20
-148.000015
 11
63.964520
 21
-148.000015
  0
LINE
  8
SCHRAUBEN
 62
6
 10
69.164520
 20
-129.800003
 11
58.764519
 21
-140.200012
  0
LINE
  8
SCHRAUBEN
 62
6
 10
58.764519
 20
-129.800003
 11
69.164520
 21
-140.200012
  0
LINE
  8
SCHRAUBEN
 62
6
 10
59.164520
 20
-129.800003
 11
48.764519
 21
-140.200012
  0
LINE
  8
SCHRAUBEN
 62
6
 10
48.764519
 20
-129.800003
 11
59.164520
 21
-140.200012
  0
ARC
  8
SCHRAUBEN
 62
4
 10
63.964520
 20
135.000000
 40
13.000000
 50
270.000000
 51
450.000000
  0
LINE
  8
SCHRAUBEN
 62
4
 10
63.964520
 20
148.000000
 11
53.964520
 21
148.000000
  0
ARC
  8
SCHRAUBEN
 62
4
 10
53.964520
 20
135.000000
 40
13.000000
 50
450.000000
 51
270.000000
  0
LINE
  8
SCHRAUBEN
 62
4
 10
53.964520
 20
122.000000
 11
63.964520
 21
122.000000
  0
LINE
  8
SCHRAUBEN
 62
6
 10
69.164520
 20
140.200012
 11
58.764519
 21
129.799988
  0
LINE
  8
SCHRAUBEN
 62
6
 10
58.764519
 20
140.200012
 11
69.164520
 21
129.799988
  0
LINE
  8
SCHRAUBEN
 62
6
 10
59.164520
 20
140.200012
 11
48.764519
 21
129.799988
  0
LINE
  8
SCHRAUBEN
 62
6
 10
48.764519
 20
140.200012
 11
59.164520
 21
129.799988
  0
LINE
  8
SCHRAUBEN
 62
6
 10
1463.365601
 20
104.399933
 11
1454.565552
 21
95.599937
  0
LINE
  8
SCHRAUBEN
 62
6
 10
1454.565552
 20
104.399933
 11
1463.365601
 21
95.599937
  0
CIRCLE
  8
SCHRAUBEN
 62
4
 10
1458.965576
 20
99.999931
 40
11.000122
  0
LINE
  8
SCHRAUBEN
 62
6
 10
1463.365601
 20
-95.600067
 11
1454.565552
 21
-104.400063
  0
LINE
  8
SCHRAUBEN
 62
6
 10
1454.565552
 20
-95.600067
 11
1463.365601
 21
-104.400063
  0
CIRCLE
  8
SCHRAUBEN
 62
4
 10
1458.965576
 20
-100.000069
 40
11.000122
  0
LINE
  8
SCHRAUBEN
 62
6
 10
4463.365723
 20
-95.600067
 11
4454.565918
 21
-104.400063
  0
LINE
  8
SCHRAUBEN
 62
6
 10
4454.565918
 20
-95.600067
 11
4463.365723
 21
-104.400063
  0
CIRCLE
  8
SCHRAUBEN
 62
4
 10
4458.965820
 20
-100.000069
 40
11.000000
  0
LINE
  8
SCHRAUBEN
 62
6
 10
4463.365723
 20
104.399933
 11
4454.565918
 21
95.599937
  0
LINE
  8
SCHRAUBEN
 62
6
 10
4454.565918
 20
104.399933
 11
4463.365723
 21
95.599937
  0
CIRCLE
  8
SCHRAUBEN
 62
4
 10
4458.965820
 20
99.999931
 40
11.000000
  0
LINE
  8
SCHRAUBEN
 62
6
 10
7463.365234
 20
-95.600067
 11
7454.565430
 21
-104.400063
  0
LINE
  8
SCHRAUBEN
 62
6
 10
7454.565430
 20
-95.600067
 11
7463.365234
 21
-104.400063
  0
CIRCLE
  8
SCHRAUBEN
 62
4
 10
7458.965332
 20
-100.000069
 40
11.000000
  0
LINE
  8
SCHRAUBEN
 62
6
 10
7463.365234
 20
104.399933
 11
7454.565430
 21
95.599937
  0
LINE
  8
SCHRAUBEN
 62
6
 10
7454.565430
 20
104.399933
 11
7463.365234
 21
95.599937
  0
CIRCLE
  8
SCHRAUBEN
 62
4
 10
7458.965332
 20
99.999931
 40
11.000000
  0
LINE
  8
SCHRAUBEN
 62
6
 10
10463.365234
 20
-95.600067
 11
10454.566406
 21
-104.400063
  0
LINE
  8
SCHRAUBEN
 62
6
 10
10454.566406
 20
-95.600067
 11
10463.365234
 21
-104.400063
  0
CIRCLE
  8
SCHRAUBEN
 62
4
 10
10458.965820
 20
-100.000069
 40
11.000000
  0
LINE
  8
SCHRAUBEN
 62
6
 10
10463.365234
 20
104.399933
 11
10454.566406
 21
95.599937
  0
LINE
  8
SCHRAUBEN
 62
6
 10
10454.566406
 20
104.399933
 11
10463.365234
 21
95.599937
  0
CIRCLE
  8
SCHRAUBEN
 62
4
 10
10458.965820
 20
99.999931
 40
11.000000
  0
LINE
  8
SCHRAUBEN
 62
6
 10
13463.365234
 20
-95.600067
 11
13454.566406
 21
-104.400063
  0
LINE
  8
SCHRAUBEN
 62
6
 10
13454.566406
 20
-95.600067
 11
13463.365234
 21
-104.400063
  0
CIRCLE
  8
SCHRAUBEN
 62
4
 10
13458.965820
 20
-100.000069
 40
11.000000
  0
LINE
  8
SCHRAUBEN
 62
6
 10
13463.365234
 20
104.399933
 11
13454.566406
 21
95.599937
  0
LINE
  8
SCHRAUBEN
 62
6
 10
13454.566406
 20
104.399933
 11
13463.365234
 21
95.599937
  0
CIRCLE
  8
SCHRAUBEN
 62
4
 10
13458.965820
 20
99.999931
 40
11.000000
  0
ARC
  8
SCHRAUBEN
 62
4
 10
14853.972656
 20
-135.000015
 40
13.000008
 50
450.000000
 51
270.000000
  0
LINE
  8
SCHRAUBEN
 62
4
 10
14853.972656
 20
-148.000015
 11
14863.972656
 21
-148.000015
  0
ARC
  8
SCHRAUBEN
 62
4
 10
14863.972656
 20
-135.000015
 40
13.000000
 50
270.000000
 51
450.000000
  0
LINE
  8
SCHRAUBEN
 62
4
 10
14863.972656
 20
-122.000008
 11
14853.972656
 21
-122.000008
  0
LINE
  8
SCHRAUBEN
 62
6
 10
14859.171875
 20
-129.800003
 11
14848.771484
 21
-140.200012
  0
LINE
  8
SCHRAUBEN
 62
6
 10
14848.771484
 20
-129.800003
 11
14859.171875
 21
-140.200012
  0
LINE
  8
SCHRAUBEN
 62
6
 10
14869.171875
 20
-129.800003
 11
14858.771484
 21
-140.200012
  0
LINE
  8
SCHRAUBEN
 62
6
 10
14858.771484
 20
-129.800003
 11
14869.171875
 21
-140.200012
  0
ARC
  8
SCHRAUBEN
 62
4
 10
14853.972656
 20
135.000000
 40
13.000000
 50
450.000000
 51
270.000000
  0
LINE
  8
SCHRAUBEN
 62
4
 10
14853.972656
 20
122.000000
 11
14863.972656
 21
122.000000
  0
ARC
  8
SCHRAUBEN
 62
4
 10
14863.972656
 20
135.000000
 40
13.000000
 50
270.000000
 51
450.000000
  0
LINE
  8
SCHRAUBEN
 62
4
 10
14863.972656
 20
148.000000
 11
14853.972656
 21
148.000000
  0
LINE
  8
SCHRAUBEN
 62
6
 10
14859.171875
 20
140.200012
 11
14848.771484
 21
129.799988
  0
LINE
  8
SCHRAUBEN
 62
6
 10
14848.771484
 20
140.200012
 11
14859.171875
 21
129.799988
  0
LINE
  8
SCHRAUBEN
 62
6
 10
14869.171875
 20
140.200012
 11
14858.771484
 21
129.799988
  0
LINE
  8
SCHRAUBEN
 62
6
 10
14858.771484
 20
140.200012
 11
14869.171875
 21
129.799988
  0
TEXT
 8
UNTERSCHRIFT
 62
2
 10
7380.968750
 20
-228.000000
 40
3.250000
 41
0.800000
 51
15.000000
  1
Project  DP0GN9  ,Qty. 2  , Pos. 
  0
TEXT
 8
UNTERSCHRIFT
 62
2
 10
7479.768555
 20
-228.000000
 40
3.250000
 41
0.800000
 51
15.000000
  1
  , Profi l PL460*20
  0
TEXT
 8
UNTERSCHRIFT
 62
2
 10
7466.768555
 20
-228.000000
 40
3.250000
 41
0.800000
 51
15.000000
  1
10316
  0
LINE
  8
TEILE
 62
2
 10
119.999016
 20
-230.000000
 11
0.000000
 21
-199.999557
  0
LINE
  8
TEILE
 62
2
 10
0.000000
 20
-199.999557
 11
-0.000000
 21
200.003754
  0
LINE
  8
TEILE
 62
2
 10
-0.000000
 20
200.003754
 11
119.993668
 21
230.000000
  0
LINE
  8
TEILE
 62
2
 10
119.993668
 20
230.000000
 11
14797.933594
 21
230.000000
  0
LINE
  8
TEILE
 62
2
 10
14797.933594
 20
230.000000
 11
14917.935547
 21
200.001663
  0
LINE
  8
TEILE
 62
2
 10
14917.935547
 20
200.001663
 11
14917.935547
 21
-199.999084
  0
LINE
  8
TEILE
 62
2
 10
14917.935547
 20
-199.999084
 11
14797.938477
 21
-230.000000
  0
LINE
  8
TEILE
 62
2
 10
14797.938477
 20
-230.000000
 11
119.999016
 21
-230.000000
  0
TEXT
 8
BEZ_SCHRAUBEN
 62
2
 10
55.964512
 20
-155.500000
 40
5.000000
 41
0.800000
 51
15.000000
  1
 ø26
  0
TEXT
 8
BEZ_SCHRAUBEN
 62
2
 10
55.964512
 20
114.500000
 40
5.000000
 41
0.800000
 51
15.000000
  1
 ø26
  0
TEXT
 8
BEZ_SCHRAUBEN
 62
2
 10
1450.965698
 20
81.499931
 40
5.000000
 41
0.800000
 51
15.000000
  1
 ø22
  0
TEXT
 8
BEZ_SCHRAUBEN
 62
2
 10
1450.965698
 20
-118.500069
 40
5.000000
 41
0.800000
 51
15.000000
  1
 ø22
  0
TEXT
 8
BEZ_SCHRAUBEN
 62
2
 10
4450.965820
 20
-118.500069
 40
5.000000
 41
0.800000
 51
15.000000
  1
 ø22
  0
TEXT
 8
BEZ_SCHRAUBEN
 62
2
 10
4450.965820
 20
81.499931
 40
5.000000
 41
0.800000
 51
15.000000
  1
 ø22
  0
TEXT
 8
BEZ_SCHRAUBEN
 62
2
 10
7450.966309
 20
-118.500069
 40
5.000000
 41
0.800000
 51
15.000000
  1
 ø22
  0
TEXT
 8
BEZ_SCHRAUBEN
 62
2
 10
7450.966309
 20
81.499931
 40
5.000000
 41
0.800000
 51
15.000000
  1
 ø22
  0
TEXT
 8
BEZ_SCHRAUBEN
 62
2
 10
10450.965820
 20
-118.500069
 40
5.000000
 41
0.800000
 51
15.000000
  1
 ø22
  0
TEXT
 8
BEZ_SCHRAUBEN
 62
2
 10
10450.965820
 20
81.499931
 40
5.000000
 41
0.800000
 51
15.000000
  1
 ø22
  0
TEXT
 8
BEZ_SCHRAUBEN
 62
2
 10
13450.965820
 20
-118.500069
 40
5.000000
 41
0.800000
 51
15.000000
  1
 ø22
  0
TEXT
 8
BEZ_SCHRAUBEN
 62
2
 10
13450.965820
 20
81.499931
 40
5.000000
 41
0.800000
 51
15.000000
  1
 ø22
  0
TEXT
 8
BEZ_SCHRAUBEN
 62
2
 10
14845.971680
 20
-155.500000
 40
5.000000
 41
0.800000
 51
15.000000
  1
 ø26
  0
TEXT
 8
BEZ_SCHRAUBEN
 62
2
 10
14845.971680
 20
114.500000
 40
5.000000
 41
0.800000
 51
15.000000
  1
 ø26
  0
ENDSEC
  0
EOF

