999
     *******************************************
999
     BOCAD Software GmbH   Rev.18.000   0202.22
999
     Filename:   c:\progetti21\danieli_aqs\b4\temp_60\10312.dxf
999
     Creator:    bocad
999
     Date:       20.01.2016
999
     Factor:     10.000000
999
     *******************************************
  0
SECTION
  2
HEADER
  9
$DWGCODEPAGE
  3
ANSI_1252
  9
$INSBASE
 10
0.0
 20
0.0
 30
0.0
  9
$EXTMIN
 10
-0.500000
 20
-290.498161
  9
$EXTMAX
 10
400.501556
 20
290.498161
  9
$LIMMIN
 10
-1.500000
 20
-291.498161
  9
$LIMMAX
 10
401.501556
 20
291.498161
  9
$LTSCALE
 40
10.000000
  0
ENDSEC
  0
SECTION
  2
TABLES
  0
TABLE
  2
LTYPE
 70
4
  0
LTYPE
  2
CONTINUOUS
 70
64
  3
____________________________________________
 72
65
 73
0
 40
0.0
  0
LTYPE
  2
HIDDEN
 70
64
  3
__ __ __ __ __ __ __ __ __ __ __ __ __ __ __
 72
65
 73
2
 40
0.50
 49
0.30
 49
-0.20
  0
LTYPE
  2
DASHDOT
 70
64
  3
____ _ ____ _ ____ _ ____ _ ____ _ ____ _ __
 72
65
 73
4
 40
2.0
 49
1.5
 49
-0.25
 49
0
 49
-0.25
  0
LTYPE
  2
DOT
 70
64
  3
............................................
 72
65
 73
2
 40
0.30
 49
0
 49
-0.30
  0
ENDTAB
  0
TABLE
  2
LAYER
 70
23
  0
LAYER
  2
SCHRAUBEN
 70
64
 62
7
  6
CONTINUOUS
  0
LAYER
  2
REST
 70
64
 62
7
  6
CONTINUOUS
  0
LAYER
  2
UNTERSCHRIFT
 70
64
 62
7
  6
CONTINUOUS
  0
LAYER
  2
TEILE
 70
64
 62
7
  6
CONTINUOUS
  0
LAYER
  2
BEZ_SCHRAUBEN
 70
64
 62
7
  6
CONTINUOUS
  0
LAYER
  2
MARKERPUNKTE
 70
64
 62
7
  6
CONTINUOUS
  0
LAYER
  2
HILFSPUNKTE
 70
64
 62
7
  6
CONTINUOUS
  0
LAYER
  2
PICKPUNKTE
 70
64
 62
7
  6
CONTINUOUS
  0
LAYER
  2
SCHWEISSEN
 70
64
 62
7
  6
CONTINUOUS
  0
LAYER
  2
GRAFIK
 70
64
 62
7
  6
CONTINUOUS
  0
LAYER
  2
BEM_FREI
 70
64
 62
7
  6
CONTINUOUS
  0
LAYER
  2
BEM_SYSTEM
 70
64
 62
7
  6
CONTINUOUS
  0
LAYER
  2
BEM_KONTUR
 70
64
 62
7
  6
CONTINUOUS
  0
LAYER
  2
BEM_ANBAU
 70
64
 62
7
  6
CONTINUOUS
  0
LAYER
  2
BEM_SCHRAUBEN
 70
64
 62
7
  6
CONTINUOUS
  0
LAYER
  2
BEM_SCHWEISSEN
 70
64
 62
7
  6
CONTINUOUS
  0
LAYER
  2
FREIER_TEXT
 70
64
 62
7
  6
CONTINUOUS
  0
LAYER
  2
BEZ_TEILE
 70
64
 62
7
  6
CONTINUOUS
  0
LAYER
  2
BEZ_SCHWEISSEN
 70
64
 62
7
  6
CONTINUOUS
  0
LAYER
  2
SCHRAFFUREN
 70
64
 62
7
  6
CONTINUOUS
  0
LAYER
  2
SCHNITTSYMBOL
 70
64
 62
7
  6
CONTINUOUS
  0
LAYER
  2
RASTER
 70
64
 62
7
  6
CONTINUOUS
  0
LAYER
  2
LISTEN
 70
64
 62
7
  6
CONTINUOUS
  0
LAYER
  2
RAHMEN
 70
64
 62
7
  6
CONTINUOUS
  0
ENDTAB
  0
TABLE
  2
STYLE
 70
1
  0
STYLE
  2
STANDARD
 70
64
 40
0
 41
1
 50
0.0
 71
0
 42
0.35
  3
ROMANS
  0
ENDTAB
  0
ENDSEC
  0
SECTION
  2
ENTITIES
  0
LINE
  8
SCHRAUBEN
 62
6
 10
355.802185
 20
209.684311
 11
344.202148
 21
198.084320
  0
LINE
  8
SCHRAUBEN
 62
6
 10
344.202148
 20
209.684311
 11
355.802185
 21
198.084320
  0
CIRCLE
  8
SCHRAUBEN
 62
2
 10
350.002167
 20
203.884308
 40
14.500031
  0
LINE
  8
SCHRAUBEN
 62
6
 10
265.802155
 20
209.684311
 11
254.202148
 21
198.084320
  0
LINE
  8
SCHRAUBEN
 62
6
 10
254.202148
 20
209.684311
 11
265.802155
 21
198.084320
  0
CIRCLE
  8
SCHRAUBEN
 62
2
 10
260.002167
 20
203.884308
 40
14.500000
  0
LINE
  8
SCHRAUBEN
 62
6
 10
145.802155
 20
209.684311
 11
134.202148
 21
198.084320
  0
LINE
  8
SCHRAUBEN
 62
6
 10
134.202148
 20
209.684311
 11
145.802155
 21
198.084320
  0
CIRCLE
  8
SCHRAUBEN
 62
2
 10
140.002151
 20
203.884308
 40
14.500000
  0
LINE
  8
SCHRAUBEN
 62
6
 10
55.802151
 20
209.684311
 11
44.202152
 21
198.084320
  0
LINE
  8
SCHRAUBEN
 62
6
 10
44.202152
 20
209.684311
 11
55.802151
 21
198.084320
  0
CIRCLE
  8
SCHRAUBEN
 62
2
 10
50.002151
 20
203.884308
 40
14.500000
  0
LINE
  8
SCHRAUBEN
 62
6
 10
55.802151
 20
15.784315
 11
44.202152
 21
4.184315
  0
LINE
  8
SCHRAUBEN
 62
6
 10
44.202152
 20
15.784316
 11
55.802151
 21
4.184315
  0
CIRCLE
  8
SCHRAUBEN
 62
2
 10
50.002151
 20
9.984315
 40
14.500000
  0
LINE
  8
SCHRAUBEN
 62
6
 10
145.802155
 20
15.784315
 11
134.202148
 21
4.184315
  0
LINE
  8
SCHRAUBEN
 62
6
 10
134.202148
 20
15.784316
 11
145.802155
 21
4.184315
  0
CIRCLE
  8
SCHRAUBEN
 62
2
 10
140.002151
 20
9.984315
 40
14.500000
  0
LINE
  8
SCHRAUBEN
 62
6
 10
265.802155
 20
15.784315
 11
254.202148
 21
4.184315
  0
LINE
  8
SCHRAUBEN
 62
6
 10
254.202148
 20
15.784316
 11
265.802155
 21
4.184315
  0
CIRCLE
  8
SCHRAUBEN
 62
2
 10
260.002167
 20
9.984315
 40
14.500000
  0
LINE
  8
SCHRAUBEN
 62
6
 10
355.802185
 20
15.784315
 11
344.202148
 21
4.184315
  0
LINE
  8
SCHRAUBEN
 62
6
 10
344.202148
 20
15.784316
 11
355.802185
 21
4.184315
  0
CIRCLE
  8
SCHRAUBEN
 62
2
 10
350.002167
 20
9.984315
 40
14.500031
  0
LINE
  8
SCHRAUBEN
 62
6
 10
355.802185
 20
-144.215683
 11
344.202148
 21
-155.815674
  0
LINE
  8
SCHRAUBEN
 62
6
 10
344.202148
 20
-144.215683
 11
355.802185
 21
-155.815674
  0
CIRCLE
  8
SCHRAUBEN
 62
2
 10
350.002167
 20
-150.015686
 40
14.500031
  0
LINE
  8
SCHRAUBEN
 62
6
 10
265.802124
 20
-144.215683
 11
254.202133
 21
-155.815674
  0
LINE
  8
SCHRAUBEN
 62
6
 10
254.202133
 20
-144.215683
 11
265.802124
 21
-155.815674
  0
CIRCLE
  8
SCHRAUBEN
 62
2
 10
260.002136
 20
-150.015686
 40
14.500000
  0
LINE
  8
SCHRAUBEN
 62
6
 10
145.802139
 20
-144.215683
 11
134.202148
 21
-155.815674
  0
LINE
  8
SCHRAUBEN
 62
6
 10
134.202148
 20
-144.215683
 11
145.802139
 21
-155.815674
  0
CIRCLE
  8
SCHRAUBEN
 62
2
 10
140.002151
 20
-150.015686
 40
14.499985
  0
LINE
  8
SCHRAUBEN
 62
6
 10
55.802174
 20
-144.215683
 11
44.202175
 21
-155.815674
  0
LINE
  8
SCHRAUBEN
 62
6
 10
44.202175
 20
-144.215683
 11
55.802174
 21
-155.815674
  0
CIRCLE
  8
SCHRAUBEN
 62
2
 10
50.002174
 20
-150.015686
 40
14.500000
  0
TEXT
 8
UNTERSCHRIFT
 62
2
 10
5.250000
 20
-78.000000
 40
3.250000
 50
89.999931
 41
0.800000
 51
15.000000
  1
Project  DP0GN9  ,Qty. 2  , Pos. 
  0
TEXT
 8
UNTERSCHRIFT
 62
2
 10
5.250000
 20
20.799997
 40
3.250000
 50
89.999931
 41
0.800000
 51
15.000000
  1
  , Profi l PL580*35
  0
TEXT
 8
UNTERSCHRIFT
 62
2
 10
5.250000
 20
7.799996
 40
3.250000
 50
89.999931
 41
0.800000
 51
15.000000
  1
10312
  0
LINE
  8
TEILE
 62
2
 10
-0.000000
 20
289.998169
 11
400.001556
 21
289.998169
  0
LINE
  8
TEILE
 62
2
 10
400.001556
 20
289.998169
 11
400.001495
 21
-289.998169
  0
LINE
  8
TEILE
 62
2
 10
400.001495
 20
-289.998169
 11
0.000000
 21
-289.998169
  0
LINE
  8
TEILE
 62
2
 10
0.000000
 20
-289.998169
 11
-0.000000
 21
289.998169
  0
TEXT
 8
BEZ_SCHRAUBEN
 62
2
 10
342.002197
 20
181.884308
 40
5.000000
 41
0.800000
 51
15.000000
  1
 ø29
  0
ENDSEC
  0
EOF

