999
     *******************************************
999
     BOCAD Software GmbH   Rev.18.000   0202.22
999
     Filename:   c:\progetti21\danieli_aqs\b4\temp_60\10319.dxf
999
     Creator:    bocad
999
     Date:       20.01.2016
999
     Factor:     10.000000
999
     *******************************************
  0
SECTION
  2
HEADER
  9
$DWGCODEPAGE
  3
ANSI_1252
  9
$INSBASE
 10
0.0
 20
0.0
 30
0.0
  9
$EXTMIN
 10
-0.500384
 20
-230.499992
  9
$EXTMAX
 10
11948.500977
 20
230.499992
  9
$LIMMIN
 10
-1.500384
 20
-231.499992
  9
$LIMMAX
 10
11949.500977
 20
231.499992
  9
$LTSCALE
 40
10.000000
  0
ENDSEC
  0
SECTION
  2
TABLES
  0
TABLE
  2
LTYPE
 70
4
  0
LTYPE
  2
CONTINUOUS
 70
64
  3
____________________________________________
 72
65
 73
0
 40
0.0
  0
LTYPE
  2
HIDDEN
 70
64
  3
__ __ __ __ __ __ __ __ __ __ __ __ __ __ __
 72
65
 73
2
 40
0.50
 49
0.30
 49
-0.20
  0
LTYPE
  2
DASHDOT
 70
64
  3
____ _ ____ _ ____ _ ____ _ ____ _ ____ _ __
 72
65
 73
4
 40
2.0
 49
1.5
 49
-0.25
 49
0
 49
-0.25
  0
LTYPE
  2
DOT
 70
64
  3
............................................
 72
65
 73
2
 40
0.30
 49
0
 49
-0.30
  0
ENDTAB
  0
TABLE
  2
LAYER
 70
23
  0
LAYER
  2
SCHRAUBEN
 70
64
 62
7
  6
CONTINUOUS
  0
LAYER
  2
REST
 70
64
 62
7
  6
CONTINUOUS
  0
LAYER
  2
UNTERSCHRIFT
 70
64
 62
7
  6
CONTINUOUS
  0
LAYER
  2
TEILE
 70
64
 62
7
  6
CONTINUOUS
  0
LAYER
  2
BEZ_SCHRAUBEN
 70
64
 62
7
  6
CONTINUOUS
  0
LAYER
  2
MARKERPUNKTE
 70
64
 62
7
  6
CONTINUOUS
  0
LAYER
  2
HILFSPUNKTE
 70
64
 62
7
  6
CONTINUOUS
  0
LAYER
  2
PICKPUNKTE
 70
64
 62
7
  6
CONTINUOUS
  0
LAYER
  2
SCHWEISSEN
 70
64
 62
7
  6
CONTINUOUS
  0
LAYER
  2
GRAFIK
 70
64
 62
7
  6
CONTINUOUS
  0
LAYER
  2
BEM_FREI
 70
64
 62
7
  6
CONTINUOUS
  0
LAYER
  2
BEM_SYSTEM
 70
64
 62
7
  6
CONTINUOUS
  0
LAYER
  2
BEM_KONTUR
 70
64
 62
7
  6
CONTINUOUS
  0
LAYER
  2
BEM_ANBAU
 70
64
 62
7
  6
CONTINUOUS
  0
LAYER
  2
BEM_SCHRAUBEN
 70
64
 62
7
  6
CONTINUOUS
  0
LAYER
  2
BEM_SCHWEISSEN
 70
64
 62
7
  6
CONTINUOUS
  0
LAYER
  2
FREIER_TEXT
 70
64
 62
7
  6
CONTINUOUS
  0
LAYER
  2
BEZ_TEILE
 70
64
 62
7
  6
CONTINUOUS
  0
LAYER
  2
BEZ_SCHWEISSEN
 70
64
 62
7
  6
CONTINUOUS
  0
LAYER
  2
SCHRAFFUREN
 70
64
 62
7
  6
CONTINUOUS
  0
LAYER
  2
SCHNITTSYMBOL
 70
64
 62
7
  6
CONTINUOUS
  0
LAYER
  2
RASTER
 70
64
 62
7
  6
CONTINUOUS
  0
LAYER
  2
LISTEN
 70
64
 62
7
  6
CONTINUOUS
  0
LAYER
  2
RAHMEN
 70
64
 62
7
  6
CONTINUOUS
  0
ENDTAB
  0
TABLE
  2
STYLE
 70
1
  0
STYLE
  2
STANDARD
 70
64
 40
0
 41
1
 50
0.0
 71
0
 42
0.35
  3
ROMANS
  0
ENDTAB
  0
ENDSEC
  0
SECTION
  2
ENTITIES
  0
LINE
  8
SCHRAUBEN
 62
6
 10
115.393181
 20
-173.627106
 11
102.593170
 21
-186.427094
  0
LINE
  8
SCHRAUBEN
 62
6
 10
102.593170
 20
-173.627106
 11
115.393181
 21
-186.427094
  0
CIRCLE
  8
SCHRAUBEN
 62
2
 10
108.993179
 20
-180.027100
 40
16.000000
  0
LINE
  8
SCHRAUBEN
 62
6
 10
329.009979
 20
-188.799988
 11
318.609955
 21
-199.199997
  0
LINE
  8
SCHRAUBEN
 62
6
 10
318.609955
 20
-188.799988
 11
329.009979
 21
-199.199997
  0
CIRCLE
  8
SCHRAUBEN
 62
2
 10
323.809967
 20
-194.000000
 40
13.000000
  0
LINE
  8
SCHRAUBEN
 62
6
 10
274.125183
 20
-145.352814
 11
263.725159
 21
-155.752823
  0
LINE
  8
SCHRAUBEN
 62
6
 10
263.725159
 20
-145.352814
 11
274.125183
 21
-155.752823
  0
CIRCLE
  8
SCHRAUBEN
 62
2
 10
268.925171
 20
-150.552811
 40
13.000000
  0
LINE
  8
SCHRAUBEN
 62
6
 10
2772.098389
 20
-147.292633
 11
2761.698730
 21
-157.692642
  0
LINE
  8
SCHRAUBEN
 62
6
 10
2761.698730
 20
-147.292633
 11
2772.098389
 21
-157.692642
  0
CIRCLE
  8
SCHRAUBEN
 62
2
 10
2766.898438
 20
-152.492645
 40
13.000000
  0
LINE
  8
SCHRAUBEN
 62
6
 10
2715.730957
 20
-188.798035
 11
2705.331055
 21
-199.198029
  0
LINE
  8
SCHRAUBEN
 62
6
 10
2705.331055
 20
-188.798035
 11
2715.730957
 21
-199.198029
  0
CIRCLE
  8
SCHRAUBEN
 62
2
 10
2710.531006
 20
-193.998032
 40
12.999756
  0
LINE
  8
SCHRAUBEN
 62
6
 10
3186.298828
 20
-147.294678
 11
3175.898926
 21
-157.694687
  0
LINE
  8
SCHRAUBEN
 62
6
 10
3175.898926
 20
-147.294678
 11
3186.298828
 21
-157.694687
  0
CIRCLE
  8
SCHRAUBEN
 62
2
 10
3181.098877
 20
-152.494690
 40
13.000000
  0
LINE
  8
SCHRAUBEN
 62
6
 10
3242.666260
 20
-188.799988
 11
3232.266602
 21
-199.199997
  0
LINE
  8
SCHRAUBEN
 62
6
 10
3232.266602
 20
-188.799988
 11
3242.666260
 21
-199.199997
  0
CIRCLE
  8
SCHRAUBEN
 62
2
 10
3237.466309
 20
-194.000000
 40
13.000000
  0
LINE
  8
SCHRAUBEN
 62
6
 10
5772.098633
 20
-147.292633
 11
5761.698242
 21
-157.692642
  0
LINE
  8
SCHRAUBEN
 62
6
 10
5761.698242
 20
-147.292633
 11
5772.098633
 21
-157.692642
  0
CIRCLE
  8
SCHRAUBEN
 62
2
 10
5766.898438
 20
-152.492645
 40
12.999512
  0
LINE
  8
SCHRAUBEN
 62
6
 10
5715.731445
 20
-188.798035
 11
5705.331055
 21
-199.198029
  0
LINE
  8
SCHRAUBEN
 62
6
 10
5705.331055
 20
-188.798035
 11
5715.731445
 21
-199.198029
  0
CIRCLE
  8
SCHRAUBEN
 62
2
 10
5710.531250
 20
-193.998032
 40
12.999512
  0
LINE
  8
SCHRAUBEN
 62
6
 10
6186.298828
 20
-147.294678
 11
6175.898438
 21
-157.694687
  0
LINE
  8
SCHRAUBEN
 62
6
 10
6175.898438
 20
-147.294678
 11
6186.298828
 21
-157.694687
  0
CIRCLE
  8
SCHRAUBEN
 62
2
 10
6181.098633
 20
-152.494690
 40
13.000000
  0
LINE
  8
SCHRAUBEN
 62
6
 10
6242.666504
 20
-188.799988
 11
6232.266113
 21
-199.199997
  0
LINE
  8
SCHRAUBEN
 62
6
 10
6232.266113
 20
-188.799988
 11
6242.666504
 21
-199.199997
  0
CIRCLE
  8
SCHRAUBEN
 62
2
 10
6237.466309
 20
-194.000000
 40
13.000000
  0
LINE
  8
SCHRAUBEN
 62
6
 10
8772.098633
 20
-147.292633
 11
8761.698242
 21
-157.692642
  0
LINE
  8
SCHRAUBEN
 62
6
 10
8761.698242
 20
-147.292633
 11
8772.098633
 21
-157.692642
  0
CIRCLE
  8
SCHRAUBEN
 62
2
 10
8766.898438
 20
-152.492645
 40
13.000000
  0
LINE
  8
SCHRAUBEN
 62
6
 10
8715.731445
 20
-188.798035
 11
8705.331055
 21
-199.198029
  0
LINE
  8
SCHRAUBEN
 62
6
 10
8705.331055
 20
-188.798035
 11
8715.731445
 21
-199.198029
  0
CIRCLE
  8
SCHRAUBEN
 62
2
 10
8710.531250
 20
-193.998032
 40
13.000000
  0
LINE
  8
SCHRAUBEN
 62
6
 10
9186.298828
 20
-147.292297
 11
9175.898438
 21
-157.692307
  0
LINE
  8
SCHRAUBEN
 62
6
 10
9175.898438
 20
-147.292297
 11
9186.298828
 21
-157.692307
  0
CIRCLE
  8
SCHRAUBEN
 62
2
 10
9181.098633
 20
-152.492310
 40
13.000000
  0
LINE
  8
SCHRAUBEN
 62
6
 10
9242.666992
 20
-188.797607
 11
9232.266602
 21
-199.197617
  0
LINE
  8
SCHRAUBEN
 62
6
 10
9232.266602
 20
-188.797607
 11
9242.666992
 21
-199.197617
  0
CIRCLE
  8
SCHRAUBEN
 62
2
 10
9237.466797
 20
-193.997620
 40
13.000000
  0
LINE
  8
SCHRAUBEN
 62
6
 10
11629.386719
 20
-188.791031
 11
11618.986328
 21
-199.191040
  0
LINE
  8
SCHRAUBEN
 62
6
 10
11618.986328
 20
-188.791031
 11
11629.386719
 21
-199.191040
  0
CIRCLE
  8
SCHRAUBEN
 62
2
 10
11624.187500
 20
-193.991028
 40
13.000000
  0
LINE
  8
SCHRAUBEN
 62
6
 10
11684.272461
 20
-145.343750
 11
11673.872070
 21
-155.743759
  0
LINE
  8
SCHRAUBEN
 62
6
 10
11673.872070
 20
-145.343750
 11
11684.272461
 21
-155.743759
  0
CIRCLE
  8
SCHRAUBEN
 62
2
 10
11679.072266
 20
-150.543762
 40
13.000000
  0
LINE
  8
SCHRAUBEN
 62
6
 10
11845.395508
 20
-173.599930
 11
11832.595703
 21
-186.399918
  0
LINE
  8
SCHRAUBEN
 62
6
 10
11832.595703
 20
-173.599930
 11
11845.395508
 21
-186.399918
  0
CIRCLE
  8
SCHRAUBEN
 62
2
 10
11838.995117
 20
-179.999924
 40
16.000000
  0
TEXT
 8
UNTERSCHRIFT
 62
2
 10
11946.000977
 20
-78.000000
 40
3.250000
 50
90.000000
 41
0.800000
 51
15.000000
  1
Project  DP0GN9  ,Qty. 1  , Pos. 
  0
TEXT
 8
UNTERSCHRIFT
 62
2
 10
11946.000977
 20
20.800001
 40
3.250000
 50
90.000000
 41
0.800000
 51
15.000000
  1
  , Profi l PL460*20
  0
TEXT
 8
UNTERSCHRIFT
 62
2
 10
11946.000977
 20
7.800001
 40
3.250000
 50
90.000000
 41
0.800000
 51
15.000000
  1
10319
  0
LINE
  8
TEILE
 62
2
 10
11948.000000
 20
-230.000000
 11
-0.000384
 21
-230.000000
  0
LINE
  8
TEILE
 62
2
 10
-0.000384
 20
-230.000000
 11
-0.000384
 21
230.000000
  0
LINE
  8
TEILE
 62
2
 10
-0.000384
 20
230.000000
 11
11948.000000
 21
230.000000
  0
LINE
  8
TEILE
 62
2
 10
11948.000000
 20
230.000000
 11
11948.000000
 21
-230.000000
  0
TEXT
 8
BEZ_SCHRAUBEN
 62
2
 10
100.993179
 20
-203.527100
 40
5.000000
 41
0.800000
 51
15.000000
  1
 ø32
  0
TEXT
 8
BEZ_SCHRAUBEN
 62
2
 10
315.809967
 20
-214.499985
 40
5.000000
 41
0.800000
 51
15.000000
  1
 ø26
  0
TEXT
 8
BEZ_SCHRAUBEN
 62
2
 10
260.925171
 20
-171.052826
 40
5.000000
 41
0.800000
 51
15.000000
  1
 ø26
  0
TEXT
 8
BEZ_SCHRAUBEN
 62
2
 10
2758.898682
 20
-172.992630
 40
5.000000
 41
0.800000
 51
15.000000
  1
 ø26
  0
TEXT
 8
BEZ_SCHRAUBEN
 62
2
 10
2702.530762
 20
-214.498016
 40
5.000000
 41
0.800000
 51
15.000000
  1
 ø26
  0
TEXT
 8
BEZ_SCHRAUBEN
 62
2
 10
3173.099121
 20
-172.994690
 40
5.000000
 41
0.800000
 51
15.000000
  1
 ø26
  0
TEXT
 8
BEZ_SCHRAUBEN
 62
2
 10
3229.466553
 20
-214.499985
 40
5.000000
 41
0.800000
 51
15.000000
  1
 ø26
  0
TEXT
 8
BEZ_SCHRAUBEN
 62
2
 10
5758.898926
 20
-172.992630
 40
5.000000
 41
0.800000
 51
15.000000
  1
 ø26
  0
TEXT
 8
BEZ_SCHRAUBEN
 62
2
 10
5702.531250
 20
-214.498016
 40
5.000000
 41
0.800000
 51
15.000000
  1
 ø26
  0
TEXT
 8
BEZ_SCHRAUBEN
 62
2
 10
6173.098633
 20
-172.994690
 40
5.000000
 41
0.800000
 51
15.000000
  1
 ø26
  0
TEXT
 8
BEZ_SCHRAUBEN
 62
2
 10
6229.466797
 20
-214.499985
 40
5.000000
 41
0.800000
 51
15.000000
  1
 ø26
  0
TEXT
 8
BEZ_SCHRAUBEN
 62
2
 10
8758.898438
 20
-172.992630
 40
5.000000
 41
0.800000
 51
15.000000
  1
 ø26
  0
TEXT
 8
BEZ_SCHRAUBEN
 62
2
 10
8702.531250
 20
-214.498016
 40
5.000000
 41
0.800000
 51
15.000000
  1
 ø26
  0
TEXT
 8
BEZ_SCHRAUBEN
 62
2
 10
9173.098633
 20
-172.992310
 40
5.000000
 41
0.800000
 51
15.000000
  1
 ø26
  0
TEXT
 8
BEZ_SCHRAUBEN
 62
2
 10
9229.466797
 20
-214.497620
 40
5.000000
 41
0.800000
 51
15.000000
  1
 ø26
  0
TEXT
 8
BEZ_SCHRAUBEN
 62
2
 10
11616.187500
 20
-214.491028
 40
5.000000
 41
0.800000
 51
15.000000
  1
 ø26
  0
TEXT
 8
BEZ_SCHRAUBEN
 62
2
 10
11671.072266
 20
-171.043732
 40
5.000000
 41
0.800000
 51
15.000000
  1
 ø26
  0
TEXT
 8
BEZ_SCHRAUBEN
 62
2
 10
11830.995117
 20
-203.499924
 40
5.000000
 41
0.800000
 51
15.000000
  1
 ø32
  0
ENDSEC
  0
EOF

