999
     *******************************************
999
     BOCAD Software GmbH   Rev.18.000   0202.22
999
     Filename:   c:\progetti21\danieli_aqs\b4\temp_60\10311.dxf
999
     Creator:    bocad
999
     Date:       20.01.2016
999
     Factor:     10.000000
999
     *******************************************
  0
SECTION
  2
HEADER
  9
$DWGCODEPAGE
  3
ANSI_1252
  9
$INSBASE
 10
0.0
 20
0.0
 30
0.0
  9
$EXTMIN
 10
-0.500000
 20
-390.500107
  9
$EXTMAX
 10
400.501480
 20
390.500107
  9
$LIMMIN
 10
-1.500000
 20
-391.500107
  9
$LIMMAX
 10
401.501480
 20
391.500107
  9
$LTSCALE
 40
10.000000
  0
ENDSEC
  0
SECTION
  2
TABLES
  0
TABLE
  2
LTYPE
 70
4
  0
LTYPE
  2
CONTINUOUS
 70
64
  3
____________________________________________
 72
65
 73
0
 40
0.0
  0
LTYPE
  2
HIDDEN
 70
64
  3
__ __ __ __ __ __ __ __ __ __ __ __ __ __ __
 72
65
 73
2
 40
0.50
 49
0.30
 49
-0.20
  0
LTYPE
  2
DASHDOT
 70
64
  3
____ _ ____ _ ____ _ ____ _ ____ _ ____ _ __
 72
65
 73
4
 40
2.0
 49
1.5
 49
-0.25
 49
0
 49
-0.25
  0
LTYPE
  2
DOT
 70
64
  3
............................................
 72
65
 73
2
 40
0.30
 49
0
 49
-0.30
  0
ENDTAB
  0
TABLE
  2
LAYER
 70
23
  0
LAYER
  2
SCHRAUBEN
 70
64
 62
7
  6
CONTINUOUS
  0
LAYER
  2
REST
 70
64
 62
7
  6
CONTINUOUS
  0
LAYER
  2
UNTERSCHRIFT
 70
64
 62
7
  6
CONTINUOUS
  0
LAYER
  2
TEILE
 70
64
 62
7
  6
CONTINUOUS
  0
LAYER
  2
BEZ_SCHRAUBEN
 70
64
 62
7
  6
CONTINUOUS
  0
LAYER
  2
MARKERPUNKTE
 70
64
 62
7
  6
CONTINUOUS
  0
LAYER
  2
HILFSPUNKTE
 70
64
 62
7
  6
CONTINUOUS
  0
LAYER
  2
PICKPUNKTE
 70
64
 62
7
  6
CONTINUOUS
  0
LAYER
  2
SCHWEISSEN
 70
64
 62
7
  6
CONTINUOUS
  0
LAYER
  2
GRAFIK
 70
64
 62
7
  6
CONTINUOUS
  0
LAYER
  2
BEM_FREI
 70
64
 62
7
  6
CONTINUOUS
  0
LAYER
  2
BEM_SYSTEM
 70
64
 62
7
  6
CONTINUOUS
  0
LAYER
  2
BEM_KONTUR
 70
64
 62
7
  6
CONTINUOUS
  0
LAYER
  2
BEM_ANBAU
 70
64
 62
7
  6
CONTINUOUS
  0
LAYER
  2
BEM_SCHRAUBEN
 70
64
 62
7
  6
CONTINUOUS
  0
LAYER
  2
BEM_SCHWEISSEN
 70
64
 62
7
  6
CONTINUOUS
  0
LAYER
  2
FREIER_TEXT
 70
64
 62
7
  6
CONTINUOUS
  0
LAYER
  2
BEZ_TEILE
 70
64
 62
7
  6
CONTINUOUS
  0
LAYER
  2
BEZ_SCHWEISSEN
 70
64
 62
7
  6
CONTINUOUS
  0
LAYER
  2
SCHRAFFUREN
 70
64
 62
7
  6
CONTINUOUS
  0
LAYER
  2
SCHNITTSYMBOL
 70
64
 62
7
  6
CONTINUOUS
  0
LAYER
  2
RASTER
 70
64
 62
7
  6
CONTINUOUS
  0
LAYER
  2
LISTEN
 70
64
 62
7
  6
CONTINUOUS
  0
LAYER
  2
RAHMEN
 70
64
 62
7
  6
CONTINUOUS
  0
ENDTAB
  0
TABLE
  2
STYLE
 70
1
  0
STYLE
  2
STANDARD
 70
64
 40
0
 41
1
 50
0.0
 71
0
 42
0.35
  3
ROMANS
  0
ENDTAB
  0
ENDSEC
  0
SECTION
  2
ENTITIES
  0
LINE
  8
SCHRAUBEN
 62
6
 10
355.801056
 20
-67.200188
 11
344.201019
 21
-78.800186
  0
LINE
  8
SCHRAUBEN
 62
6
 10
344.201019
 20
-67.200188
 11
355.801056
 21
-78.800186
  0
CIRCLE
  8
SCHRAUBEN
 62
2
 10
350.001038
 20
-73.000191
 40
14.500000
  0
LINE
  8
SCHRAUBEN
 62
6
 10
265.801025
 20
-67.200188
 11
254.201019
 21
-78.800186
  0
LINE
  8
SCHRAUBEN
 62
6
 10
254.201019
 20
-67.200188
 11
265.801025
 21
-78.800186
  0
CIRCLE
  8
SCHRAUBEN
 62
2
 10
260.001007
 20
-73.000191
 40
14.500000
  0
LINE
  8
SCHRAUBEN
 62
6
 10
145.801010
 20
-67.200188
 11
134.201019
 21
-78.800186
  0
LINE
  8
SCHRAUBEN
 62
6
 10
134.201019
 20
-67.200188
 11
145.801010
 21
-78.800186
  0
CIRCLE
  8
SCHRAUBEN
 62
2
 10
140.001007
 20
-73.000191
 40
14.500000
  0
LINE
  8
SCHRAUBEN
 62
6
 10
55.801010
 20
-67.200188
 11
44.201012
 21
-78.800186
  0
LINE
  8
SCHRAUBEN
 62
6
 10
44.201012
 20
-67.200188
 11
55.801010
 21
-78.800186
  0
CIRCLE
  8
SCHRAUBEN
 62
2
 10
50.001011
 20
-73.000191
 40
14.499996
  0
LINE
  8
SCHRAUBEN
 62
6
 10
55.801010
 20
-191.200195
 11
44.201012
 21
-202.800201
  0
LINE
  8
SCHRAUBEN
 62
6
 10
44.201012
 20
-191.200195
 11
55.801010
 21
-202.800201
  0
CIRCLE
  8
SCHRAUBEN
 62
2
 10
50.001011
 20
-197.000198
 40
14.499996
  0
LINE
  8
SCHRAUBEN
 62
6
 10
145.801010
 20
-191.200195
 11
134.201019
 21
-202.800201
  0
LINE
  8
SCHRAUBEN
 62
6
 10
134.201019
 20
-191.200195
 11
145.801010
 21
-202.800201
  0
CIRCLE
  8
SCHRAUBEN
 62
2
 10
140.001007
 20
-197.000198
 40
14.500000
  0
LINE
  8
SCHRAUBEN
 62
6
 10
265.801025
 20
-191.200195
 11
254.201019
 21
-202.800201
  0
LINE
  8
SCHRAUBEN
 62
6
 10
254.201019
 20
-191.200195
 11
265.801025
 21
-202.800201
  0
CIRCLE
  8
SCHRAUBEN
 62
2
 10
260.001007
 20
-197.000198
 40
14.500000
  0
LINE
  8
SCHRAUBEN
 62
6
 10
355.801056
 20
-191.200195
 11
344.201019
 21
-202.800201
  0
LINE
  8
SCHRAUBEN
 62
6
 10
344.201019
 20
-191.200195
 11
355.801056
 21
-202.800201
  0
CIRCLE
  8
SCHRAUBEN
 62
2
 10
350.001038
 20
-197.000198
 40
14.500000
  0
LINE
  8
SCHRAUBEN
 62
6
 10
355.801056
 20
312.800018
 11
344.201019
 21
301.200012
  0
LINE
  8
SCHRAUBEN
 62
6
 10
344.201019
 20
312.800018
 11
355.801056
 21
301.200012
  0
CIRCLE
  8
SCHRAUBEN
 62
2
 10
350.001038
 20
307.000031
 40
14.500000
  0
LINE
  8
SCHRAUBEN
 62
6
 10
265.801025
 20
312.800018
 11
254.201019
 21
301.200012
  0
LINE
  8
SCHRAUBEN
 62
6
 10
254.201019
 20
312.800018
 11
265.801025
 21
301.200012
  0
CIRCLE
  8
SCHRAUBEN
 62
2
 10
260.001007
 20
307.000031
 40
14.500000
  0
LINE
  8
SCHRAUBEN
 62
6
 10
145.801010
 20
312.800018
 11
134.201019
 21
301.200012
  0
LINE
  8
SCHRAUBEN
 62
6
 10
134.201019
 20
312.800018
 11
145.801010
 21
301.200012
  0
CIRCLE
  8
SCHRAUBEN
 62
2
 10
140.001007
 20
307.000031
 40
14.500000
  0
LINE
  8
SCHRAUBEN
 62
6
 10
55.801010
 20
312.800018
 11
44.201012
 21
301.200012
  0
LINE
  8
SCHRAUBEN
 62
6
 10
44.201012
 20
312.800018
 11
55.801010
 21
301.200012
  0
CIRCLE
  8
SCHRAUBEN
 62
2
 10
50.001011
 20
307.000031
 40
14.499996
  0
LINE
  8
SCHRAUBEN
 62
6
 10
55.801010
 20
188.800034
 11
44.201012
 21
177.200027
  0
LINE
  8
SCHRAUBEN
 62
6
 10
44.201012
 20
188.800034
 11
55.801010
 21
177.200027
  0
CIRCLE
  8
SCHRAUBEN
 62
2
 10
50.001011
 20
183.000031
 40
14.499996
  0
LINE
  8
SCHRAUBEN
 62
6
 10
145.801010
 20
188.800034
 11
134.201019
 21
177.200027
  0
LINE
  8
SCHRAUBEN
 62
6
 10
134.201019
 20
188.800034
 11
145.801010
 21
177.200027
  0
CIRCLE
  8
SCHRAUBEN
 62
2
 10
140.001007
 20
183.000031
 40
14.500000
  0
LINE
  8
SCHRAUBEN
 62
6
 10
265.801025
 20
188.800034
 11
254.201019
 21
177.200027
  0
LINE
  8
SCHRAUBEN
 62
6
 10
254.201019
 20
188.800034
 11
265.801025
 21
177.200027
  0
CIRCLE
  8
SCHRAUBEN
 62
2
 10
260.001007
 20
183.000031
 40
14.500000
  0
LINE
  8
SCHRAUBEN
 62
6
 10
355.801056
 20
188.800034
 11
344.201019
 21
177.200027
  0
LINE
  8
SCHRAUBEN
 62
6
 10
344.201019
 20
188.800034
 11
355.801056
 21
177.200027
  0
CIRCLE
  8
SCHRAUBEN
 62
2
 10
350.001038
 20
183.000031
 40
14.500000
  0
TEXT
 8
UNTERSCHRIFT
 62
2
 10
5.250000
 20
-81.899986
 40
3.250000
 50
89.999931
 41
0.800000
 51
15.000000
  1
Project  DP0GN9  ,Qty. 1  , Pos. 
  0
TEXT
 8
UNTERSCHRIFT
 62
2
 10
5.250000
 20
16.900011
 40
3.250000
 50
89.999931
 41
0.800000
 51
15.000000
  1
  , Profi l PL780*35.01
  0
TEXT
 8
UNTERSCHRIFT
 62
2
 10
5.250000
 20
3.900012
 40
3.250000
 50
89.999931
 41
0.800000
 51
15.000000
  1
10311
  0
LINE
  8
TEILE
 62
2
 10
-0.000000
 20
390.000122
 11
400.001495
 21
390.000122
  0
LINE
  8
TEILE
 62
2
 10
400.001495
 20
390.000122
 11
400.001495
 21
-390.000122
  0
LINE
  8
TEILE
 62
2
 10
400.001495
 20
-390.000122
 11
0.000000
 21
-390.000122
  0
LINE
  8
TEILE
 62
2
 10
0.000000
 20
-390.000122
 11
-0.000000
 21
390.000122
  0
TEXT
 8
BEZ_SCHRAUBEN
 62
2
 10
342.001038
 20
-95.000191
 40
5.000000
 41
0.800000
 51
15.000000
  1
 ø29
  0
ENDSEC
  0
EOF

