999
     *******************************************
999
     BOCAD Software GmbH   Rev.18.000   0202.22
999
     Filename:   c:\progetti21\danieli_aqs\b4\temp_60\10327.dxf
999
     Creator:    bocad
999
     Date:       20.01.2016
999
     Factor:     10.000000
999
     *******************************************
  0
SECTION
  2
HEADER
  9
$DWGCODEPAGE
  3
ANSI_1252
  9
$INSBASE
 10
0.0
 20
0.0
 30
0.0
  9
$EXTMIN
 10
-0.500000
 20
-200.499992
  9
$EXTMAX
 10
11918.471680
 20
200.499992
  9
$LIMMIN
 10
-1.500000
 20
-201.499992
  9
$LIMMAX
 10
11919.471680
 20
201.499992
  9
$LTSCALE
 40
10.000000
  0
ENDSEC
  0
SECTION
  2
TABLES
  0
TABLE
  2
LTYPE
 70
4
  0
LTYPE
  2
CONTINUOUS
 70
64
  3
____________________________________________
 72
65
 73
0
 40
0.0
  0
LTYPE
  2
HIDDEN
 70
64
  3
__ __ __ __ __ __ __ __ __ __ __ __ __ __ __
 72
65
 73
2
 40
0.50
 49
0.30
 49
-0.20
  0
LTYPE
  2
DASHDOT
 70
64
  3
____ _ ____ _ ____ _ ____ _ ____ _ ____ _ __
 72
65
 73
4
 40
2.0
 49
1.5
 49
-0.25
 49
0
 49
-0.25
  0
LTYPE
  2
DOT
 70
64
  3
............................................
 72
65
 73
2
 40
0.30
 49
0
 49
-0.30
  0
ENDTAB
  0
TABLE
  2
LAYER
 70
23
  0
LAYER
  2
SCHRAUBEN
 70
64
 62
7
  6
CONTINUOUS
  0
LAYER
  2
REST
 70
64
 62
7
  6
CONTINUOUS
  0
LAYER
  2
UNTERSCHRIFT
 70
64
 62
7
  6
CONTINUOUS
  0
LAYER
  2
TEILE
 70
64
 62
7
  6
CONTINUOUS
  0
LAYER
  2
BEZ_SCHRAUBEN
 70
64
 62
7
  6
CONTINUOUS
  0
LAYER
  2
MARKERPUNKTE
 70
64
 62
7
  6
CONTINUOUS
  0
LAYER
  2
HILFSPUNKTE
 70
64
 62
7
  6
CONTINUOUS
  0
LAYER
  2
PICKPUNKTE
 70
64
 62
7
  6
CONTINUOUS
  0
LAYER
  2
SCHWEISSEN
 70
64
 62
7
  6
CONTINUOUS
  0
LAYER
  2
GRAFIK
 70
64
 62
7
  6
CONTINUOUS
  0
LAYER
  2
BEM_FREI
 70
64
 62
7
  6
CONTINUOUS
  0
LAYER
  2
BEM_SYSTEM
 70
64
 62
7
  6
CONTINUOUS
  0
LAYER
  2
BEM_KONTUR
 70
64
 62
7
  6
CONTINUOUS
  0
LAYER
  2
BEM_ANBAU
 70
64
 62
7
  6
CONTINUOUS
  0
LAYER
  2
BEM_SCHRAUBEN
 70
64
 62
7
  6
CONTINUOUS
  0
LAYER
  2
BEM_SCHWEISSEN
 70
64
 62
7
  6
CONTINUOUS
  0
LAYER
  2
FREIER_TEXT
 70
64
 62
7
  6
CONTINUOUS
  0
LAYER
  2
BEZ_TEILE
 70
64
 62
7
  6
CONTINUOUS
  0
LAYER
  2
BEZ_SCHWEISSEN
 70
64
 62
7
  6
CONTINUOUS
  0
LAYER
  2
SCHRAFFUREN
 70
64
 62
7
  6
CONTINUOUS
  0
LAYER
  2
SCHNITTSYMBOL
 70
64
 62
7
  6
CONTINUOUS
  0
LAYER
  2
RASTER
 70
64
 62
7
  6
CONTINUOUS
  0
LAYER
  2
LISTEN
 70
64
 62
7
  6
CONTINUOUS
  0
LAYER
  2
RAHMEN
 70
64
 62
7
  6
CONTINUOUS
  0
ENDTAB
  0
TABLE
  2
STYLE
 70
1
  0
STYLE
  2
STANDARD
 70
64
 40
0
 41
1
 50
0.0
 71
0
 42
0.35
  3
ROMANS
  0
ENDTAB
  0
ENDSEC
  0
SECTION
  2
ENTITIES
  0
ARC
  8
SCHRAUBEN
 62
4
 10
64.000183
 20
-135.000015
 40
13.000000
 50
270.000000
 51
450.000000
  0
LINE
  8
SCHRAUBEN
 62
4
 10
64.000183
 20
-122.000008
 11
54.000183
 21
-122.000008
  0
ARC
  8
SCHRAUBEN
 62
4
 10
54.000183
 20
-135.000015
 40
13.000008
 50
450.000000
 51
270.000000
  0
LINE
  8
SCHRAUBEN
 62
4
 10
54.000183
 20
-148.000015
 11
64.000183
 21
-148.000015
  0
LINE
  8
SCHRAUBEN
 62
6
 10
69.200180
 20
-129.800003
 11
58.800182
 21
-140.200012
  0
LINE
  8
SCHRAUBEN
 62
6
 10
58.800182
 20
-129.800003
 11
69.200180
 21
-140.200012
  0
LINE
  8
SCHRAUBEN
 62
6
 10
59.200180
 20
-129.800003
 11
48.800182
 21
-140.200012
  0
LINE
  8
SCHRAUBEN
 62
6
 10
48.800182
 20
-129.800003
 11
59.200180
 21
-140.200012
  0
ARC
  8
SCHRAUBEN
 62
4
 10
64.000183
 20
135.000000
 40
13.000000
 50
270.000000
 51
450.000000
  0
LINE
  8
SCHRAUBEN
 62
4
 10
64.000183
 20
148.000000
 11
54.000183
 21
148.000000
  0
ARC
  8
SCHRAUBEN
 62
4
 10
54.000183
 20
135.000000
 40
13.000000
 50
450.000000
 51
270.000000
  0
LINE
  8
SCHRAUBEN
 62
4
 10
54.000183
 20
122.000000
 11
64.000183
 21
122.000000
  0
LINE
  8
SCHRAUBEN
 62
6
 10
69.200180
 20
140.200012
 11
58.800182
 21
129.799988
  0
LINE
  8
SCHRAUBEN
 62
6
 10
58.800182
 20
140.200012
 11
69.200180
 21
129.799988
  0
LINE
  8
SCHRAUBEN
 62
6
 10
59.200180
 20
140.200012
 11
48.800182
 21
129.799988
  0
LINE
  8
SCHRAUBEN
 62
6
 10
48.800182
 20
140.200012
 11
59.200180
 21
129.799988
  0
LINE
  8
SCHRAUBEN
 62
6
 10
1463.400146
 20
104.399933
 11
1454.600098
 21
95.599937
  0
LINE
  8
SCHRAUBEN
 62
6
 10
1454.600098
 20
104.399933
 11
1463.400146
 21
95.599937
  0
CIRCLE
  8
SCHRAUBEN
 62
4
 10
1459.000122
 20
99.999931
 40
11.000000
  0
LINE
  8
SCHRAUBEN
 62
6
 10
1463.400146
 20
-95.600067
 11
1454.600098
 21
-104.400063
  0
LINE
  8
SCHRAUBEN
 62
6
 10
1454.600098
 20
-95.600067
 11
1463.400146
 21
-104.400063
  0
CIRCLE
  8
SCHRAUBEN
 62
4
 10
1459.000122
 20
-100.000069
 40
11.000000
  0
LINE
  8
SCHRAUBEN
 62
6
 10
10463.399414
 20
-95.600067
 11
10454.600586
 21
-104.400063
  0
LINE
  8
SCHRAUBEN
 62
6
 10
10454.600586
 20
-95.600067
 11
10463.399414
 21
-104.400063
  0
CIRCLE
  8
SCHRAUBEN
 62
4
 10
10459.000000
 20
-100.000069
 40
11.000000
  0
LINE
  8
SCHRAUBEN
 62
6
 10
10463.399414
 20
104.399933
 11
10454.600586
 21
95.599937
  0
LINE
  8
SCHRAUBEN
 62
6
 10
10454.600586
 20
104.399933
 11
10463.399414
 21
95.599937
  0
CIRCLE
  8
SCHRAUBEN
 62
4
 10
10459.000000
 20
99.999931
 40
11.000000
  0
LINE
  8
SCHRAUBEN
 62
6
 10
7463.400391
 20
-95.600067
 11
7454.600098
 21
-104.400063
  0
LINE
  8
SCHRAUBEN
 62
6
 10
7454.600098
 20
-95.600067
 11
7463.400391
 21
-104.400063
  0
CIRCLE
  8
SCHRAUBEN
 62
4
 10
7459.000000
 20
-100.000069
 40
11.000000
  0
LINE
  8
SCHRAUBEN
 62
6
 10
7463.400391
 20
104.399933
 11
7454.600098
 21
95.599937
  0
LINE
  8
SCHRAUBEN
 62
6
 10
7454.600098
 20
104.399933
 11
7463.400391
 21
95.599937
  0
CIRCLE
  8
SCHRAUBEN
 62
4
 10
7459.000000
 20
99.999931
 40
11.000000
  0
LINE
  8
SCHRAUBEN
 62
6
 10
4463.400391
 20
-95.600067
 11
4454.600098
 21
-104.400063
  0
LINE
  8
SCHRAUBEN
 62
6
 10
4454.600098
 20
-95.600067
 11
4463.400391
 21
-104.400063
  0
CIRCLE
  8
SCHRAUBEN
 62
4
 10
4459.000000
 20
-100.000069
 40
11.000488
  0
LINE
  8
SCHRAUBEN
 62
6
 10
4463.400391
 20
104.399933
 11
4454.600098
 21
95.599937
  0
LINE
  8
SCHRAUBEN
 62
6
 10
4454.600098
 20
104.399933
 11
4463.400391
 21
95.599937
  0
CIRCLE
  8
SCHRAUBEN
 62
4
 10
4459.000000
 20
99.999931
 40
11.000488
  0
LINE
  8
SCHRAUBEN
 62
6
 10
11844.800781
 20
155.797821
 11
11833.202148
 21
144.197815
  0
LINE
  8
SCHRAUBEN
 62
6
 10
11833.202148
 20
155.797821
 11
11844.800781
 21
144.197815
  0
CIRCLE
  8
SCHRAUBEN
 62
2
 10
11839.001953
 20
149.997818
 40
14.499023
  0
LINE
  8
SCHRAUBEN
 62
6
 10
11844.800781
 20
65.797813
 11
11833.202148
 21
54.197811
  0
LINE
  8
SCHRAUBEN
 62
6
 10
11833.202148
 20
65.797813
 11
11844.800781
 21
54.197811
  0
CIRCLE
  8
SCHRAUBEN
 62
2
 10
11839.001953
 20
59.997810
 40
14.499023
  0
LINE
  8
SCHRAUBEN
 62
6
 10
11844.800781
 20
-54.202187
 11
11833.202148
 21
-65.802185
  0
LINE
  8
SCHRAUBEN
 62
6
 10
11833.202148
 20
-54.202187
 11
11844.800781
 21
-65.802185
  0
CIRCLE
  8
SCHRAUBEN
 62
2
 10
11839.001953
 20
-60.002182
 40
14.499023
  0
LINE
  8
SCHRAUBEN
 62
6
 10
11844.800781
 20
-144.202209
 11
11833.202148
 21
-155.802200
  0
LINE
  8
SCHRAUBEN
 62
6
 10
11833.202148
 20
-144.202209
 11
11844.800781
 21
-155.802200
  0
CIRCLE
  8
SCHRAUBEN
 62
2
 10
11839.001953
 20
-150.002197
 40
14.499023
  0
TEXT
 8
UNTERSCHRIFT
 62
2
 10
5880.985840
 20
-198.000000
 40
3.250000
 41
0.800000
 51
15.000000
  1
Project  DP0GN9  ,Qty. 2  , Pos. 
  0
TEXT
 8
UNTERSCHRIFT
 62
2
 10
5979.785645
 20
-198.000000
 40
3.250000
 41
0.800000
 51
15.000000
  1
  , Profi l PL400*15
  0
TEXT
 8
UNTERSCHRIFT
 62
2
 10
5966.786133
 20
-198.000000
 40
3.250000
 41
0.800000
 51
15.000000
  1
10327
  0
LINE
  8
TEILE
 62
2
 10
0.000000
 20
-200.000000
 11
-0.000000
 21
200.000000
  0
LINE
  8
TEILE
 62
2
 10
-0.000000
 20
200.000000
 11
11917.970703
 21
200.000000
  0
LINE
  8
TEILE
 62
2
 10
11917.970703
 20
200.000000
 11
11917.970703
 21
-200.000000
  0
LINE
  8
TEILE
 62
2
 10
11917.970703
 20
-200.000000
 11
0.000000
 21
-200.000000
  0
TEXT
 8
BEZ_SCHRAUBEN
 62
2
 10
56.000179
 20
-155.500000
 40
5.000000
 41
0.800000
 51
15.000000
  1
 ø26
  0
TEXT
 8
BEZ_SCHRAUBEN
 62
2
 10
56.000179
 20
114.500000
 40
5.000000
 41
0.800000
 51
15.000000
  1
 ø26
  0
TEXT
 8
BEZ_SCHRAUBEN
 62
2
 10
1451.000000
 20
81.499931
 40
5.000000
 41
0.800000
 51
15.000000
  1
 ø22
  0
TEXT
 8
BEZ_SCHRAUBEN
 62
2
 10
1451.000000
 20
-118.500069
 40
5.000000
 41
0.800000
 51
15.000000
  1
 ø22
  0
TEXT
 8
BEZ_SCHRAUBEN
 62
2
 10
10451.000000
 20
-118.500069
 40
5.000000
 41
0.800000
 51
15.000000
  1
 ø22
  0
TEXT
 8
BEZ_SCHRAUBEN
 62
2
 10
10451.000000
 20
81.499931
 40
5.000000
 41
0.800000
 51
15.000000
  1
 ø22
  0
TEXT
 8
BEZ_SCHRAUBEN
 62
2
 10
7451.000488
 20
-118.500069
 40
5.000000
 41
0.800000
 51
15.000000
  1
 ø22
  0
TEXT
 8
BEZ_SCHRAUBEN
 62
2
 10
7451.000488
 20
81.499931
 40
5.000000
 41
0.800000
 51
15.000000
  1
 ø22
  0
TEXT
 8
BEZ_SCHRAUBEN
 62
2
 10
4451.000000
 20
-118.500069
 40
5.000000
 41
0.800000
 51
15.000000
  1
 ø22
  0
TEXT
 8
BEZ_SCHRAUBEN
 62
2
 10
4451.000000
 20
81.499931
 40
5.000000
 41
0.800000
 51
15.000000
  1
 ø22
  0
TEXT
 8
BEZ_SCHRAUBEN
 62
2
 10
11831.000977
 20
127.997810
 40
5.000000
 41
0.800000
 51
15.000000
  1
 ø29
  0
TEXT
 8
BEZ_SCHRAUBEN
 62
2
 10
11831.000977
 20
37.997810
 40
4.999999
 41
0.800000
 51
15.000000
  1
 ø29
  0
TEXT
 8
BEZ_SCHRAUBEN
 62
2
 10
11831.000977
 20
-82.002190
 40
5.000000
 41
0.800000
 51
15.000000
  1
 ø29
  0
TEXT
 8
BEZ_SCHRAUBEN
 62
2
 10
11831.000977
 20
-172.002197
 40
5.000000
 41
0.800000
 51
15.000000
  1
 ø29
  0
ENDSEC
  0
EOF

