999
     *******************************************
999
     BOCAD Software GmbH   Rev.18.000   0202.22
999
     Filename:   c:\progetti21\danieli_aqs\b4\temp_60\10352.dxf
999
     Creator:    bocad
999
     Date:       20.01.2016
999
     Factor:     10.000000
999
     *******************************************
  0
SECTION
  2
HEADER
  9
$DWGCODEPAGE
  3
ANSI_1252
  9
$INSBASE
 10
0.0
 20
0.0
 30
0.0
  9
$EXTMIN
 10
-0.500000
 20
-100.500002
  9
$EXTMAX
 10
765.500031
 20
100.500002
  9
$LIMMIN
 10
-1.500000
 20
-101.500002
  9
$LIMMAX
 10
766.500031
 20
101.500002
  9
$LTSCALE
 40
10.000000
  0
ENDSEC
  0
SECTION
  2
TABLES
  0
TABLE
  2
LTYPE
 70
4
  0
LTYPE
  2
CONTINUOUS
 70
64
  3
____________________________________________
 72
65
 73
0
 40
0.0
  0
LTYPE
  2
HIDDEN
 70
64
  3
__ __ __ __ __ __ __ __ __ __ __ __ __ __ __
 72
65
 73
2
 40
0.50
 49
0.30
 49
-0.20
  0
LTYPE
  2
DASHDOT
 70
64
  3
____ _ ____ _ ____ _ ____ _ ____ _ ____ _ __
 72
65
 73
4
 40
2.0
 49
1.5
 49
-0.25
 49
0
 49
-0.25
  0
LTYPE
  2
DOT
 70
64
  3
............................................
 72
65
 73
2
 40
0.30
 49
0
 49
-0.30
  0
ENDTAB
  0
TABLE
  2
LAYER
 70
23
  0
LAYER
  2
SCHRAUBEN
 70
64
 62
7
  6
CONTINUOUS
  0
LAYER
  2
REST
 70
64
 62
7
  6
CONTINUOUS
  0
LAYER
  2
UNTERSCHRIFT
 70
64
 62
7
  6
CONTINUOUS
  0
LAYER
  2
TEILE
 70
64
 62
7
  6
CONTINUOUS
  0
LAYER
  2
BEZ_SCHRAUBEN
 70
64
 62
7
  6
CONTINUOUS
  0
LAYER
  2
MARKERPUNKTE
 70
64
 62
7
  6
CONTINUOUS
  0
LAYER
  2
HILFSPUNKTE
 70
64
 62
7
  6
CONTINUOUS
  0
LAYER
  2
PICKPUNKTE
 70
64
 62
7
  6
CONTINUOUS
  0
LAYER
  2
SCHWEISSEN
 70
64
 62
7
  6
CONTINUOUS
  0
LAYER
  2
GRAFIK
 70
64
 62
7
  6
CONTINUOUS
  0
LAYER
  2
BEM_FREI
 70
64
 62
7
  6
CONTINUOUS
  0
LAYER
  2
BEM_SYSTEM
 70
64
 62
7
  6
CONTINUOUS
  0
LAYER
  2
BEM_KONTUR
 70
64
 62
7
  6
CONTINUOUS
  0
LAYER
  2
BEM_ANBAU
 70
64
 62
7
  6
CONTINUOUS
  0
LAYER
  2
BEM_SCHRAUBEN
 70
64
 62
7
  6
CONTINUOUS
  0
LAYER
  2
BEM_SCHWEISSEN
 70
64
 62
7
  6
CONTINUOUS
  0
LAYER
  2
FREIER_TEXT
 70
64
 62
7
  6
CONTINUOUS
  0
LAYER
  2
BEZ_TEILE
 70
64
 62
7
  6
CONTINUOUS
  0
LAYER
  2
BEZ_SCHWEISSEN
 70
64
 62
7
  6
CONTINUOUS
  0
LAYER
  2
SCHRAFFUREN
 70
64
 62
7
  6
CONTINUOUS
  0
LAYER
  2
SCHNITTSYMBOL
 70
64
 62
7
  6
CONTINUOUS
  0
LAYER
  2
RASTER
 70
64
 62
7
  6
CONTINUOUS
  0
LAYER
  2
LISTEN
 70
64
 62
7
  6
CONTINUOUS
  0
LAYER
  2
RAHMEN
 70
64
 62
7
  6
CONTINUOUS
  0
ENDTAB
  0
TABLE
  2
STYLE
 70
1
  0
STYLE
  2
STANDARD
 70
64
 40
0
 41
1
 50
0.0
 71
0
 42
0.35
  3
ROMANS
  0
ENDTAB
  0
ENDSEC
  0
SECTION
  2
ENTITIES
  0
LINE
  8
SCHRAUBEN
 62
6
 10
69.400101
 20
-19.600019
 11
60.600098
 21
-28.400021
  0
LINE
  8
SCHRAUBEN
 62
6
 10
60.600098
 20
-19.600019
 11
69.400101
 21
-28.400021
  0
CIRCLE
  8
SCHRAUBEN
 62
2
 10
65.000099
 20
-24.000019
 40
11.000000
  0
LINE
  8
SCHRAUBEN
 62
6
 10
69.400101
 20
40.399979
 11
60.600098
 21
31.599981
  0
LINE
  8
SCHRAUBEN
 62
6
 10
60.600098
 20
40.399979
 11
69.400101
 21
31.599981
  0
CIRCLE
  8
SCHRAUBEN
 62
2
 10
65.000099
 20
35.999981
 40
11.000000
  0
LINE
  8
SCHRAUBEN
 62
6
 10
562.140991
 20
48.645393
 11
553.341003
 21
39.845390
  0
LINE
  8
SCHRAUBEN
 62
6
 10
553.341003
 20
48.645393
 11
562.140991
 21
39.845390
  0
CIRCLE
  8
SCHRAUBEN
 62
2
 10
557.740967
 20
44.245392
 40
11.000000
  0
LINE
  8
SCHRAUBEN
 62
6
 10
588.287415
 20
-5.357983
 11
579.487427
 21
-14.157983
  0
LINE
  8
SCHRAUBEN
 62
6
 10
579.487427
 20
-5.357983
 11
588.287415
 21
-14.157983
  0
CIRCLE
  8
SCHRAUBEN
 62
2
 10
583.887390
 20
-9.757983
 40
11.000000
  0
LINE
  8
SCHRAUBEN
 62
6
 10
698.272705
 20
-6.117282
 11
689.472656
 21
-14.917283
  0
LINE
  8
SCHRAUBEN
 62
6
 10
689.472656
 20
-6.117282
 11
698.272705
 21
-14.917283
  0
CIRCLE
  8
SCHRAUBEN
 62
2
 10
693.872681
 20
-10.517282
 40
11.000000
  0
LINE
  8
SCHRAUBEN
 62
6
 10
714.135742
 20
51.747761
 11
705.335693
 21
42.947762
  0
LINE
  8
SCHRAUBEN
 62
6
 10
705.335693
 20
51.747761
 11
714.135742
 21
42.947762
  0
CIRCLE
  8
SCHRAUBEN
 62
2
 10
709.735718
 20
47.347759
 40
11.000000
  0
TEXT
 8
UNTERSCHRIFT
 62
2
 10
317.000000
 20
-98.000000
 40
3.250000
 41
0.800000
 51
15.000000
  1
Project  DP0GN9  ,Qty. 4  , Pos. 
  0
TEXT
 8
UNTERSCHRIFT
 62
2
 10
415.799988
 20
-98.000000
 40
3.250000
 41
0.800000
 51
15.000000
  1
  , Profi l PL200*12
  0
TEXT
 8
UNTERSCHRIFT
 62
2
 10
402.799988
 20
-98.000000
 40
3.250000
 41
0.800000
 51
15.000000
  1
10352
  0
LINE
  8
TEILE
 62
2
 10
25.000000
 20
-100.000000
 11
0.000000
 21
-75.000000
  0
LINE
  8
TEILE
 62
2
 10
0.000000
 20
-75.000000
 11
-0.000000
 21
100.000000
  0
LINE
  8
TEILE
 62
2
 10
-0.000000
 20
100.000000
 11
765.000000
 21
100.000000
  0
LINE
  8
TEILE
 62
2
 10
765.000000
 20
100.000000
 11
765.000000
 21
-100.000000
  0
LINE
  8
TEILE
 62
2
 10
765.000000
 20
-100.000000
 11
25.000000
 21
-100.000000
  0
TEXT
 8
BEZ_SCHRAUBEN
 62
2
 10
57.000099
 20
-42.500019
 40
5.000000
 41
0.800000
 51
15.000000
  1
 ø22
  0
ENDSEC
  0
EOF

