999
     *******************************************
999
     BOCAD Software GmbH   Rev.18.000   0202.22
999
     Filename:   c:\progetti21\danieli_aqs\b4\temp_60\10363.dxf
999
     Creator:    bocad
999
     Date:       20.01.2016
999
     Factor:     10.000000
999
     *******************************************
  0
SECTION
  2
HEADER
  9
$DWGCODEPAGE
  3
ANSI_1252
  9
$INSBASE
 10
0.0
 20
0.0
 30
0.0
  9
$EXTMIN
 10
-0.500000
 20
-83.000154
  9
$EXTMAX
 10
332.769585
 20
83.000154
  9
$LIMMIN
 10
-1.500000
 20
-84.000154
  9
$LIMMAX
 10
333.769585
 20
84.000154
  9
$LTSCALE
 40
10.000000
  0
ENDSEC
  0
SECTION
  2
TABLES
  0
TABLE
  2
LTYPE
 70
4
  0
LTYPE
  2
CONTINUOUS
 70
64
  3
____________________________________________
 72
65
 73
0
 40
0.0
  0
LTYPE
  2
HIDDEN
 70
64
  3
__ __ __ __ __ __ __ __ __ __ __ __ __ __ __
 72
65
 73
2
 40
0.50
 49
0.30
 49
-0.20
  0
LTYPE
  2
DASHDOT
 70
64
  3
____ _ ____ _ ____ _ ____ _ ____ _ ____ _ __
 72
65
 73
4
 40
2.0
 49
1.5
 49
-0.25
 49
0
 49
-0.25
  0
LTYPE
  2
DOT
 70
64
  3
............................................
 72
65
 73
2
 40
0.30
 49
0
 49
-0.30
  0
ENDTAB
  0
TABLE
  2
LAYER
 70
23
  0
LAYER
  2
UNTERSCHRIFT
 70
64
 62
7
  6
CONTINUOUS
  0
LAYER
  2
TEILE
 70
64
 62
7
  6
CONTINUOUS
  0
LAYER
  2
REST
 70
64
 62
7
  6
CONTINUOUS
  0
LAYER
  2
MARKERPUNKTE
 70
64
 62
7
  6
CONTINUOUS
  0
LAYER
  2
HILFSPUNKTE
 70
64
 62
7
  6
CONTINUOUS
  0
LAYER
  2
PICKPUNKTE
 70
64
 62
7
  6
CONTINUOUS
  0
LAYER
  2
SCHRAUBEN
 70
64
 62
7
  6
CONTINUOUS
  0
LAYER
  2
SCHWEISSEN
 70
64
 62
7
  6
CONTINUOUS
  0
LAYER
  2
GRAFIK
 70
64
 62
7
  6
CONTINUOUS
  0
LAYER
  2
BEM_FREI
 70
64
 62
7
  6
CONTINUOUS
  0
LAYER
  2
BEM_SYSTEM
 70
64
 62
7
  6
CONTINUOUS
  0
LAYER
  2
BEM_KONTUR
 70
64
 62
7
  6
CONTINUOUS
  0
LAYER
  2
BEM_ANBAU
 70
64
 62
7
  6
CONTINUOUS
  0
LAYER
  2
BEM_SCHRAUBEN
 70
64
 62
7
  6
CONTINUOUS
  0
LAYER
  2
BEM_SCHWEISSEN
 70
64
 62
7
  6
CONTINUOUS
  0
LAYER
  2
FREIER_TEXT
 70
64
 62
7
  6
CONTINUOUS
  0
LAYER
  2
BEZ_TEILE
 70
64
 62
7
  6
CONTINUOUS
  0
LAYER
  2
BEZ_SCHRAUBEN
 70
64
 62
7
  6
CONTINUOUS
  0
LAYER
  2
BEZ_SCHWEISSEN
 70
64
 62
7
  6
CONTINUOUS
  0
LAYER
  2
SCHRAFFUREN
 70
64
 62
7
  6
CONTINUOUS
  0
LAYER
  2
SCHNITTSYMBOL
 70
64
 62
7
  6
CONTINUOUS
  0
LAYER
  2
RASTER
 70
64
 62
7
  6
CONTINUOUS
  0
LAYER
  2
LISTEN
 70
64
 62
7
  6
CONTINUOUS
  0
LAYER
  2
RAHMEN
 70
64
 62
7
  6
CONTINUOUS
  0
ENDTAB
  0
TABLE
  2
STYLE
 70
1
  0
STYLE
  2
STANDARD
 70
64
 40
0
 41
1
 50
0.0
 71
0
 42
0.35
  3
ROMANS
  0
ENDTAB
  0
ENDSEC
  0
SECTION
  2
ENTITIES
  0
TEXT
 8
UNTERSCHRIFT
 62
2
 10
207.341156
 20
-57.275101
 40
3.249999
 50
44.999477
 41
0.800000
 51
15.000000
  1
Project  DP0GN9  ,Qty. 1  , Pos. 
  0
TEXT
 8
UNTERSCHRIFT
 62
2
 10
277.203949
 20
12.586405
 40
3.249999
 50
44.999470
 41
0.800000
 51
15.000000
  1
  , Profi l PL165*12
  0
TEXT
 8
UNTERSCHRIFT
 62
2
 10
268.011475
 20
3.394102
 40
3.249999
 50
44.999466
 41
0.800000
 51
15.000000
  1
10363
  0
LINE
  8
TEILE
 62
2
 10
169.944092
 20
-82.500153
 11
14.999999
 21
-82.500153
  0
LINE
  8
TEILE
 62
2
 10
14.999999
 20
-82.500153
 11
0.000000
 21
-67.500153
  0
LINE
  8
TEILE
 62
2
 10
0.000000
 20
-67.500153
 11
0.000009
 21
67.500153
  0
LINE
  8
TEILE
 62
2
 10
0.000009
 20
67.500153
 11
15.000010
 21
82.500153
  0
LINE
  8
TEILE
 62
2
 10
15.000010
 20
82.500153
 11
324.947449
 21
82.500153
  0
LINE
  8
TEILE
 62
2
 10
324.947449
 20
82.500153
 11
332.269592
 21
64.822639
  0
LINE
  8
TEILE
 62
2
 10
332.269592
 20
64.822639
 11
195.550781
 21
-71.893654
  0
LINE
  8
TEILE
 62
2
 10
195.550781
 20
-71.893654
 11
194.714783
 21
-71.118874
  0
LINE
  8
TEILE
 62
2
 10
194.714783
 20
-71.118874
 11
193.822342
 21
-70.409813
  0
LINE
  8
TEILE
 62
2
 10
193.822342
 20
-70.409813
 11
192.878647
 21
-69.770569
  0
LINE
  8
TEILE
 62
2
 10
192.878647
 20
-69.770569
 11
191.889130
 21
-69.204819
  0
LINE
  8
TEILE
 62
2
 10
191.889130
 20
-69.204819
 11
190.859528
 21
-68.715843
  0
LINE
  8
TEILE
 62
2
 10
190.859528
 20
-68.715843
 11
189.795761
 21
-68.306458
  0
LINE
  8
TEILE
 62
2
 10
189.795761
 20
-68.306458
 11
188.703979
 21
-67.979034
  0
LINE
  8
TEILE
 62
2
 10
188.703979
 20
-67.979034
 11
187.590485
 21
-67.735458
  0
LINE
  8
TEILE
 62
2
 10
187.590485
 20
-67.735458
 11
186.461716
 21
-67.577141
  0
LINE
  8
TEILE
 62
2
 10
186.461716
 20
-67.577141
 11
185.324173
 21
-67.504990
  0
LINE
  8
TEILE
 62
2
 10
185.324173
 20
-67.504990
 11
184.184433
 21
-67.519417
  0
LINE
  8
TEILE
 62
2
 10
184.184433
 20
-67.519417
 11
183.049088
 21
-67.620354
  0
LINE
  8
TEILE
 62
2
 10
183.049088
 20
-67.620354
 11
181.924683
 21
-67.807205
  0
LINE
  8
TEILE
 62
2
 10
181.924683
 20
-67.807205
 11
180.817719
 21
-68.078903
  0
LINE
  8
TEILE
 62
2
 10
180.817719
 20
-68.078903
 11
179.734573
 21
-68.433868
  0
LINE
  8
TEILE
 62
2
 10
179.734573
 20
-68.433868
 11
178.681503
 21
-68.870056
  0
LINE
  8
TEILE
 62
2
 10
178.681503
 20
-68.870056
 11
177.664627
 21
-69.384941
  0
LINE
  8
TEILE
 62
2
 10
177.664627
 20
-69.384941
 11
176.689758
 21
-69.975563
  0
LINE
  8
TEILE
 62
2
 10
176.689758
 20
-69.975563
 11
175.762543
 21
-70.638496
  0
LINE
  8
TEILE
 62
2
 10
175.762543
 20
-70.638496
 11
174.888367
 21
-71.369934
  0
LINE
  8
TEILE
 62
2
 10
174.888367
 20
-71.369934
 11
174.072250
 21
-72.165634
  0
LINE
  8
TEILE
 62
2
 10
174.072250
 20
-72.165634
 11
173.318878
 21
-73.021004
  0
LINE
  8
TEILE
 62
2
 10
173.318878
 20
-73.021004
 11
172.632675
 21
-73.931107
  0
LINE
  8
TEILE
 62
2
 10
172.632675
 20
-73.931107
 11
172.017532
 21
-74.890694
  0
LINE
  8
TEILE
 62
2
 10
172.017532
 20
-74.890694
 11
171.477051
 21
-75.894226
  0
LINE
  8
TEILE
 62
2
 10
171.477051
 20
-75.894226
 11
171.014313
 21
-76.935890
  0
LINE
  8
TEILE
 62
2
 10
171.014313
 20
-76.935890
 11
170.632019
 21
-78.009689
  0
LINE
  8
TEILE
 62
2
 10
170.632019
 20
-78.009689
 11
170.332352
 21
-79.109413
  0
LINE
  8
TEILE
 62
2
 10
170.332352
 20
-79.109413
 11
170.117065
 21
-80.228722
  0
LINE
  8
TEILE
 62
2
 10
170.117065
 20
-80.228722
 11
169.987411
 21
-81.361145
  0
LINE
  8
TEILE
 62
2
 10
169.987411
 20
-81.361145
 11
169.944092
 21
-82.500145
  0
LINE
  8
TEILE
 62
2
 10
169.944092
 20
-82.500145
 11
169.944092
 21
-82.500153
  0
ENDSEC
  0
EOF

