999
     *******************************************
999
     BOCAD Software GmbH   Rev.18.000   0202.22
999
     Filename:   c:\progetti21\danieli_aqs\b4\temp_61\10386.dxf
999
     Creator:    bocad
999
     Date:       20.01.2016
999
     Factor:     10.000000
999
     *******************************************
  0
SECTION
  2
HEADER
  9
$DWGCODEPAGE
  3
ANSI_1252
  9
$INSBASE
 10
0.0
 20
0.0
 30
0.0
  9
$EXTMIN
 10
-0.500000
 20
-180.499973
  9
$EXTMAX
 10
178.000011
 20
180.499973
  9
$LIMMIN
 10
-1.500000
 20
-181.499973
  9
$LIMMAX
 10
179.000011
 20
181.499973
  9
$LTSCALE
 40
10.000000
  0
ENDSEC
  0
SECTION
  2
TABLES
  0
TABLE
  2
LTYPE
 70
4
  0
LTYPE
  2
CONTINUOUS
 70
64
  3
____________________________________________
 72
65
 73
0
 40
0.0
  0
LTYPE
  2
HIDDEN
 70
64
  3
__ __ __ __ __ __ __ __ __ __ __ __ __ __ __
 72
65
 73
2
 40
0.50
 49
0.30
 49
-0.20
  0
LTYPE
  2
DASHDOT
 70
64
  3
____ _ ____ _ ____ _ ____ _ ____ _ ____ _ __
 72
65
 73
4
 40
2.0
 49
1.5
 49
-0.25
 49
0
 49
-0.25
  0
LTYPE
  2
DOT
 70
64
  3
............................................
 72
65
 73
2
 40
0.30
 49
0
 49
-0.30
  0
ENDTAB
  0
TABLE
  2
LAYER
 70
23
  0
LAYER
  2
SCHRAUBEN
 70
64
 62
7
  6
CONTINUOUS
  0
LAYER
  2
REST
 70
64
 62
7
  6
CONTINUOUS
  0
LAYER
  2
UNTERSCHRIFT
 70
64
 62
7
  6
CONTINUOUS
  0
LAYER
  2
TEILE
 70
64
 62
7
  6
CONTINUOUS
  0
LAYER
  2
BEZ_SCHRAUBEN
 70
64
 62
7
  6
CONTINUOUS
  0
LAYER
  2
MARKERPUNKTE
 70
64
 62
7
  6
CONTINUOUS
  0
LAYER
  2
HILFSPUNKTE
 70
64
 62
7
  6
CONTINUOUS
  0
LAYER
  2
PICKPUNKTE
 70
64
 62
7
  6
CONTINUOUS
  0
LAYER
  2
SCHWEISSEN
 70
64
 62
7
  6
CONTINUOUS
  0
LAYER
  2
GRAFIK
 70
64
 62
7
  6
CONTINUOUS
  0
LAYER
  2
BEM_FREI
 70
64
 62
7
  6
CONTINUOUS
  0
LAYER
  2
BEM_SYSTEM
 70
64
 62
7
  6
CONTINUOUS
  0
LAYER
  2
BEM_KONTUR
 70
64
 62
7
  6
CONTINUOUS
  0
LAYER
  2
BEM_ANBAU
 70
64
 62
7
  6
CONTINUOUS
  0
LAYER
  2
BEM_SCHRAUBEN
 70
64
 62
7
  6
CONTINUOUS
  0
LAYER
  2
BEM_SCHWEISSEN
 70
64
 62
7
  6
CONTINUOUS
  0
LAYER
  2
FREIER_TEXT
 70
64
 62
7
  6
CONTINUOUS
  0
LAYER
  2
BEZ_TEILE
 70
64
 62
7
  6
CONTINUOUS
  0
LAYER
  2
BEZ_SCHWEISSEN
 70
64
 62
7
  6
CONTINUOUS
  0
LAYER
  2
SCHRAFFUREN
 70
64
 62
7
  6
CONTINUOUS
  0
LAYER
  2
SCHNITTSYMBOL
 70
64
 62
7
  6
CONTINUOUS
  0
LAYER
  2
RASTER
 70
64
 62
7
  6
CONTINUOUS
  0
LAYER
  2
LISTEN
 70
64
 62
7
  6
CONTINUOUS
  0
LAYER
  2
RAHMEN
 70
64
 62
7
  6
CONTINUOUS
  0
ENDTAB
  0
TABLE
  2
STYLE
 70
1
  0
STYLE
  2
STANDARD
 70
64
 40
0
 41
1
 50
0.0
 71
0
 42
0.35
  3
ROMANS
  0
ENDTAB
  0
ENDSEC
  0
SECTION
  2
ENTITIES
  0
ARC
  8
SCHRAUBEN
 62
4
 10
80.000389
 20
79.999954
 40
13.000000
 50
450.000000
 51
270.000000
  0
LINE
  8
SCHRAUBEN
 62
4
 10
80.000389
 20
66.999954
 11
120.000389
 21
66.999954
  0
ARC
  8
SCHRAUBEN
 62
4
 10
120.000389
 20
79.999954
 40
13.000000
 50
270.000000
 51
450.000000
  0
LINE
  8
SCHRAUBEN
 62
4
 10
120.000389
 20
92.999954
 11
80.000389
 21
92.999954
  0
LINE
  8
SCHRAUBEN
 62
6
 10
85.200394
 20
85.199959
 11
74.800392
 21
74.799950
  0
LINE
  8
SCHRAUBEN
 62
6
 10
74.800392
 20
85.199959
 11
85.200394
 21
74.799950
  0
LINE
  8
SCHRAUBEN
 62
6
 10
125.200394
 20
85.199959
 11
114.800385
 21
74.799950
  0
LINE
  8
SCHRAUBEN
 62
6
 10
114.800385
 20
85.199959
 11
125.200394
 21
74.799950
  0
ARC
  8
SCHRAUBEN
 62
4
 10
80.000389
 20
-20.000040
 40
13.000000
 50
450.000000
 51
270.000000
  0
LINE
  8
SCHRAUBEN
 62
4
 10
80.000389
 20
-33.000038
 11
120.000389
 21
-33.000038
  0
ARC
  8
SCHRAUBEN
 62
4
 10
120.000389
 20
-20.000040
 40
12.999998
 50
270.000000
 51
450.000000
  0
LINE
  8
SCHRAUBEN
 62
4
 10
120.000389
 20
-7.000040
 11
80.000389
 21
-7.000040
  0
LINE
  8
SCHRAUBEN
 62
6
 10
85.200394
 20
-14.800041
 11
74.800392
 21
-25.200041
  0
LINE
  8
SCHRAUBEN
 62
6
 10
74.800392
 20
-14.800041
 11
85.200394
 21
-25.200041
  0
LINE
  8
SCHRAUBEN
 62
6
 10
125.200394
 20
-14.800041
 11
114.800385
 21
-25.200041
  0
LINE
  8
SCHRAUBEN
 62
6
 10
114.800385
 20
-14.800041
 11
125.200394
 21
-25.200041
  0
ARC
  8
SCHRAUBEN
 62
4
 10
80.000389
 20
-120.000046
 40
13.000000
 50
450.000000
 51
270.000000
  0
LINE
  8
SCHRAUBEN
 62
4
 10
80.000389
 20
-133.000046
 11
120.000389
 21
-133.000046
  0
ARC
  8
SCHRAUBEN
 62
4
 10
120.000389
 20
-120.000046
 40
13.000000
 50
270.000000
 51
450.000000
  0
LINE
  8
SCHRAUBEN
 62
4
 10
120.000389
 20
-107.000046
 11
80.000389
 21
-107.000046
  0
LINE
  8
SCHRAUBEN
 62
6
 10
85.200394
 20
-114.800041
 11
74.800392
 21
-125.200050
  0
LINE
  8
SCHRAUBEN
 62
6
 10
74.800392
 20
-114.800041
 11
85.200394
 21
-125.200050
  0
LINE
  8
SCHRAUBEN
 62
6
 10
125.200394
 20
-114.800041
 11
114.800385
 21
-125.200050
  0
LINE
  8
SCHRAUBEN
 62
6
 10
114.800385
 20
-114.800041
 11
125.200394
 21
-125.200050
  0
TEXT
 8
UNTERSCHRIFT
 62
2
 10
175.500015
 20
-79.299995
 40
3.250000
 50
90.000000
 41
0.800000
 51
15.000000
  1
Project  DP0GN9  ,Qty. 10  , Pos. 
  0
TEXT
 8
UNTERSCHRIFT
 62
2
 10
175.500015
 20
22.100000
 40
3.250000
 50
90.000000
 41
0.800000
 51
15.000000
  1
  , Profi l PL360*10
  0
TEXT
 8
UNTERSCHRIFT
 62
2
 10
175.500015
 20
9.099999
 40
3.250000
 50
90.000000
 41
0.800000
 51
15.000000
  1
10386
  0
LINE
  8
TEILE
 62
2
 10
177.500015
 20
-179.999985
 11
-0.000000
 21
-179.999985
  0
LINE
  8
TEILE
 62
2
 10
-0.000000
 20
-179.999985
 11
0.000000
 21
179.999985
  0
LINE
  8
TEILE
 62
2
 10
0.000000
 20
179.999985
 11
177.500015
 21
179.999985
  0
LINE
  8
TEILE
 62
2
 10
177.500015
 20
179.999985
 11
177.500015
 21
-179.999985
  0
TEXT
 8
BEZ_SCHRAUBEN
 62
2
 10
72.000397
 20
59.499947
 40
5.000000
 41
0.800000
 51
15.000000
  1
 ø26
  0
ENDSEC
  0
EOF

