999
     *******************************************
999
     BOCAD Software GmbH   Rev.18.000   0202.22
999
     Filename:   c:\progetti21\danieli_aqs\b4\temp_61\10385.dxf
999
     Creator:    bocad
999
     Date:       20.01.2016
999
     Factor:     10.000000
999
     *******************************************
  0
SECTION
  2
HEADER
  9
$DWGCODEPAGE
  3
ANSI_1252
  9
$INSBASE
 10
0.0
 20
0.0
 30
0.0
  9
$EXTMIN
 10
-0.500000
 20
-240.499992
  9
$EXTMAX
 10
550.499992
 20
240.499992
  9
$LIMMIN
 10
-1.500000
 20
-241.499992
  9
$LIMMAX
 10
551.499992
 20
241.499992
  9
$LTSCALE
 40
10.000000
  0
ENDSEC
  0
SECTION
  2
TABLES
  0
TABLE
  2
LTYPE
 70
4
  0
LTYPE
  2
CONTINUOUS
 70
64
  3
____________________________________________
 72
65
 73
0
 40
0.0
  0
LTYPE
  2
HIDDEN
 70
64
  3
__ __ __ __ __ __ __ __ __ __ __ __ __ __ __
 72
65
 73
2
 40
0.50
 49
0.30
 49
-0.20
  0
LTYPE
  2
DASHDOT
 70
64
  3
____ _ ____ _ ____ _ ____ _ ____ _ ____ _ __
 72
65
 73
4
 40
2.0
 49
1.5
 49
-0.25
 49
0
 49
-0.25
  0
LTYPE
  2
DOT
 70
64
  3
............................................
 72
65
 73
2
 40
0.30
 49
0
 49
-0.30
  0
ENDTAB
  0
TABLE
  2
LAYER
 70
23
  0
LAYER
  2
SCHRAUBEN
 70
64
 62
7
  6
CONTINUOUS
  0
LAYER
  2
REST
 70
64
 62
7
  6
CONTINUOUS
  0
LAYER
  2
UNTERSCHRIFT
 70
64
 62
7
  6
CONTINUOUS
  0
LAYER
  2
TEILE
 70
64
 62
7
  6
CONTINUOUS
  0
LAYER
  2
BEZ_SCHRAUBEN
 70
64
 62
7
  6
CONTINUOUS
  0
LAYER
  2
MARKERPUNKTE
 70
64
 62
7
  6
CONTINUOUS
  0
LAYER
  2
HILFSPUNKTE
 70
64
 62
7
  6
CONTINUOUS
  0
LAYER
  2
PICKPUNKTE
 70
64
 62
7
  6
CONTINUOUS
  0
LAYER
  2
SCHWEISSEN
 70
64
 62
7
  6
CONTINUOUS
  0
LAYER
  2
GRAFIK
 70
64
 62
7
  6
CONTINUOUS
  0
LAYER
  2
BEM_FREI
 70
64
 62
7
  6
CONTINUOUS
  0
LAYER
  2
BEM_SYSTEM
 70
64
 62
7
  6
CONTINUOUS
  0
LAYER
  2
BEM_KONTUR
 70
64
 62
7
  6
CONTINUOUS
  0
LAYER
  2
BEM_ANBAU
 70
64
 62
7
  6
CONTINUOUS
  0
LAYER
  2
BEM_SCHRAUBEN
 70
64
 62
7
  6
CONTINUOUS
  0
LAYER
  2
BEM_SCHWEISSEN
 70
64
 62
7
  6
CONTINUOUS
  0
LAYER
  2
FREIER_TEXT
 70
64
 62
7
  6
CONTINUOUS
  0
LAYER
  2
BEZ_TEILE
 70
64
 62
7
  6
CONTINUOUS
  0
LAYER
  2
BEZ_SCHWEISSEN
 70
64
 62
7
  6
CONTINUOUS
  0
LAYER
  2
SCHRAFFUREN
 70
64
 62
7
  6
CONTINUOUS
  0
LAYER
  2
SCHNITTSYMBOL
 70
64
 62
7
  6
CONTINUOUS
  0
LAYER
  2
RASTER
 70
64
 62
7
  6
CONTINUOUS
  0
LAYER
  2
LISTEN
 70
64
 62
7
  6
CONTINUOUS
  0
LAYER
  2
RAHMEN
 70
64
 62
7
  6
CONTINUOUS
  0
ENDTAB
  0
TABLE
  2
STYLE
 70
1
  0
STYLE
  2
STANDARD
 70
64
 40
0
 41
1
 50
0.0
 71
0
 42
0.35
  3
ROMANS
  0
ENDTAB
  0
ENDSEC
  0
SECTION
  2
ENTITIES
  0
LINE
  8
SCHRAUBEN
 62
6
 10
130.093903
 20
-119.888420
 11
119.693901
 21
-130.288422
  0
LINE
  8
SCHRAUBEN
 62
6
 10
119.693901
 20
-119.888420
 11
130.093903
 21
-130.288422
  0
CIRCLE
  8
SCHRAUBEN
 62
2
 10
124.893906
 20
-125.088425
 40
13.000000
  0
LINE
  8
SCHRAUBEN
 62
6
 10
76.318367
 20
-164.701263
 11
65.918365
 21
-175.101288
  0
LINE
  8
SCHRAUBEN
 62
6
 10
65.918365
 20
-164.701263
 11
76.318367
 21
-175.101288
  0
CIRCLE
  8
SCHRAUBEN
 62
2
 10
71.118370
 20
-169.901276
 40
12.999992
  0
LINE
  8
SCHRAUBEN
 62
6
 10
76.318230
 20
175.101593
 11
65.918228
 21
164.701569
  0
LINE
  8
SCHRAUBEN
 62
6
 10
65.918228
 20
175.101593
 11
76.318230
 21
164.701569
  0
CIRCLE
  8
SCHRAUBEN
 62
2
 10
71.118233
 20
169.901581
 40
13.000000
  0
LINE
  8
SCHRAUBEN
 62
6
 10
130.093735
 20
130.288696
 11
119.693726
 21
119.888687
  0
LINE
  8
SCHRAUBEN
 62
6
 10
119.693726
 20
130.288696
 11
130.093735
 21
119.888687
  0
CIRCLE
  8
SCHRAUBEN
 62
2
 10
124.893730
 20
125.088692
 40
13.000008
  0
LINE
  8
SCHRAUBEN
 62
6
 10
241.800003
 20
202.799973
 11
236.199982
 21
197.199951
  0
LINE
  8
SCHRAUBEN
 62
6
 10
236.199982
 20
202.799973
 11
241.800003
 21
197.199951
  0
CIRCLE
  8
SCHRAUBEN
 62
2
 10
239.000000
 20
199.999969
 40
7.000000
  0
LINE
  8
SCHRAUBEN
 62
6
 10
241.800003
 20
122.799973
 11
236.199982
 21
117.199974
  0
LINE
  8
SCHRAUBEN
 62
6
 10
236.199982
 20
122.799973
 11
241.800003
 21
117.199974
  0
CIRCLE
  8
SCHRAUBEN
 62
2
 10
239.000000
 20
119.999969
 40
7.000000
  0
LINE
  8
SCHRAUBEN
 62
6
 10
241.800003
 20
42.799969
 11
236.199982
 21
37.199966
  0
LINE
  8
SCHRAUBEN
 62
6
 10
236.199982
 20
42.799969
 11
241.800003
 21
37.199966
  0
CIRCLE
  8
SCHRAUBEN
 62
2
 10
239.000000
 20
39.999966
 40
7.000000
  0
LINE
  8
SCHRAUBEN
 62
6
 10
241.800003
 20
-37.200035
 11
236.199982
 21
-42.800034
  0
LINE
  8
SCHRAUBEN
 62
6
 10
236.199982
 20
-37.200035
 11
241.800003
 21
-42.800034
  0
CIRCLE
  8
SCHRAUBEN
 62
2
 10
239.000000
 20
-40.000034
 40
7.000000
  0
LINE
  8
SCHRAUBEN
 62
6
 10
241.800003
 20
-197.199951
 11
236.199982
 21
-202.799973
  0
LINE
  8
SCHRAUBEN
 62
6
 10
236.199982
 20
-197.199951
 11
241.800003
 21
-202.799973
  0
CIRCLE
  8
SCHRAUBEN
 62
2
 10
239.000000
 20
-199.999969
 40
7.000000
  0
LINE
  8
SCHRAUBEN
 62
6
 10
241.800003
 20
-117.200043
 11
236.199982
 21
-122.800034
  0
LINE
  8
SCHRAUBEN
 62
6
 10
236.199982
 20
-117.200043
 11
241.800003
 21
-122.800034
  0
CIRCLE
  8
SCHRAUBEN
 62
2
 10
239.000000
 20
-120.000038
 40
7.000000
  0
LINE
  8
SCHRAUBEN
 62
6
 10
313.799988
 20
202.799973
 11
308.199982
 21
197.199951
  0
LINE
  8
SCHRAUBEN
 62
6
 10
308.199982
 20
202.799973
 11
313.799988
 21
197.199951
  0
CIRCLE
  8
SCHRAUBEN
 62
2
 10
311.000000
 20
199.999969
 40
7.000000
  0
LINE
  8
SCHRAUBEN
 62
6
 10
313.799988
 20
122.799973
 11
308.199982
 21
117.199974
  0
LINE
  8
SCHRAUBEN
 62
6
 10
308.199982
 20
122.799973
 11
313.799988
 21
117.199974
  0
CIRCLE
  8
SCHRAUBEN
 62
2
 10
311.000000
 20
119.999969
 40
7.000000
  0
LINE
  8
SCHRAUBEN
 62
6
 10
313.799988
 20
42.799969
 11
308.199982
 21
37.199966
  0
LINE
  8
SCHRAUBEN
 62
6
 10
308.199982
 20
42.799969
 11
313.799988
 21
37.199966
  0
CIRCLE
  8
SCHRAUBEN
 62
2
 10
311.000000
 20
39.999966
 40
7.000000
  0
LINE
  8
SCHRAUBEN
 62
6
 10
313.799988
 20
-197.199951
 11
308.199982
 21
-202.799973
  0
LINE
  8
SCHRAUBEN
 62
6
 10
308.199982
 20
-197.199951
 11
313.799988
 21
-202.799973
  0
CIRCLE
  8
SCHRAUBEN
 62
2
 10
311.000000
 20
-199.999969
 40
7.000000
  0
LINE
  8
SCHRAUBEN
 62
6
 10
313.799988
 20
-117.200043
 11
308.199982
 21
-122.800034
  0
LINE
  8
SCHRAUBEN
 62
6
 10
308.199982
 20
-117.200043
 11
313.799988
 21
-122.800034
  0
CIRCLE
  8
SCHRAUBEN
 62
2
 10
311.000000
 20
-120.000038
 40
7.000000
  0
LINE
  8
SCHRAUBEN
 62
6
 10
313.799988
 20
-37.200035
 11
308.199982
 21
-42.800034
  0
LINE
  8
SCHRAUBEN
 62
6
 10
308.199982
 20
-37.200035
 11
313.799988
 21
-42.800034
  0
CIRCLE
  8
SCHRAUBEN
 62
2
 10
311.000000
 20
-40.000034
 40
7.000000
  0
LINE
  8
SCHRAUBEN
 62
6
 10
430.306244
 20
-119.888420
 11
419.906250
 21
-130.288422
  0
LINE
  8
SCHRAUBEN
 62
6
 10
419.906250
 20
-119.888420
 11
430.306244
 21
-130.288422
  0
CIRCLE
  8
SCHRAUBEN
 62
2
 10
425.106232
 20
-125.088425
 40
13.000000
  0
LINE
  8
SCHRAUBEN
 62
6
 10
484.081757
 20
-164.701263
 11
473.681763
 21
-175.101288
  0
LINE
  8
SCHRAUBEN
 62
6
 10
473.681763
 20
-164.701263
 11
484.081757
 21
-175.101288
  0
CIRCLE
  8
SCHRAUBEN
 62
2
 10
478.881775
 20
-169.901276
 40
12.999969
  0
LINE
  8
SCHRAUBEN
 62
6
 10
484.081909
 20
175.101593
 11
473.681915
 21
164.701569
  0
LINE
  8
SCHRAUBEN
 62
6
 10
473.681915
 20
175.101593
 11
484.081909
 21
164.701569
  0
CIRCLE
  8
SCHRAUBEN
 62
2
 10
478.881897
 20
169.901581
 40
13.000000
  0
LINE
  8
SCHRAUBEN
 62
6
 10
430.306396
 20
130.288696
 11
419.906372
 21
119.888687
  0
LINE
  8
SCHRAUBEN
 62
6
 10
419.906372
 20
130.288696
 11
430.306396
 21
119.888687
  0
CIRCLE
  8
SCHRAUBEN
 62
2
 10
425.106384
 20
125.088692
 40
13.000000
  0
TEXT
 8
UNTERSCHRIFT
 62
2
 10
548.000000
 20
-79.299751
 40
3.250000
 50
90.000000
 41
0.800000
 51
15.000000
  1
Project  DP0GN9  ,Qty. 22  , Pos. 
  0
TEXT
 8
UNTERSCHRIFT
 62
2
 10
548.000000
 20
22.100248
 40
3.250000
 50
90.000000
 41
0.800000
 51
15.000000
  1
  , Profi l PL480*10
  0
TEXT
 8
UNTERSCHRIFT
 62
2
 10
548.000000
 20
9.100247
 40
3.250000
 50
90.000000
 41
0.800000
 51
15.000000
  1
10385
  0
LINE
  8
TEILE
 62
2
 10
492.060211
 20
-240.000000
 11
57.939831
 21
-240.000000
  0
LINE
  8
TEILE
 62
2
 10
57.939831
 20
-240.000000
 11
0.000000
 21
-170.472092
  0
LINE
  8
TEILE
 62
2
 10
0.000000
 20
-170.472092
 11
0.000000
 21
170.472580
  0
LINE
  8
TEILE
 62
2
 10
0.000000
 20
170.472580
 11
57.939484
 21
240.000000
  0
LINE
  8
TEILE
 62
2
 10
57.939484
 20
240.000000
 11
492.060516
 21
240.000000
  0
LINE
  8
TEILE
 62
2
 10
492.060516
 20
240.000000
 11
550.000000
 21
170.472580
  0
LINE
  8
TEILE
 62
2
 10
550.000000
 20
170.472580
 11
550.000000
 21
-170.472092
  0
LINE
  8
TEILE
 62
2
 10
550.000000
 20
-170.472092
 11
492.060211
 21
-240.000000
  0
TEXT
 8
BEZ_SCHRAUBEN
 62
2
 10
116.893906
 20
-145.588425
 40
5.000000
 41
0.800000
 51
15.000000
  1
 ø26
  0
TEXT
 8
BEZ_SCHRAUBEN
 62
2
 10
63.118362
 20
-190.401276
 40
5.000000
 41
0.800000
 51
15.000000
  1
 ø26
  0
TEXT
 8
BEZ_SCHRAUBEN
 62
2
 10
63.118233
 20
149.401581
 40
5.000000
 41
0.800000
 51
15.000000
  1
 ø26
  0
TEXT
 8
BEZ_SCHRAUBEN
 62
2
 10
116.893730
 20
104.588692
 40
5.000000
 41
0.800000
 51
15.000000
  1
 ø26
  0
TEXT
 8
BEZ_SCHRAUBEN
 62
2
 10
231.000000
 20
185.499969
 40
5.000000
 41
0.800000
 51
15.000000
  1
 ø14
  0
TEXT
 8
BEZ_SCHRAUBEN
 62
2
 10
231.000000
 20
105.499969
 40
5.000000
 41
0.800000
 51
15.000000
  1
 ø14
  0
TEXT
 8
BEZ_SCHRAUBEN
 62
2
 10
231.000000
 20
25.499966
 40
5.000000
 41
0.800000
 51
15.000000
  1
 ø14
  0
TEXT
 8
BEZ_SCHRAUBEN
 62
2
 10
231.000000
 20
-54.500031
 40
5.000000
 41
0.800000
 51
15.000000
  1
 ø14
  0
TEXT
 8
BEZ_SCHRAUBEN
 62
2
 10
231.000000
 20
-214.499985
 40
5.000000
 41
0.800000
 51
15.000000
  1
 ø14
  0
TEXT
 8
BEZ_SCHRAUBEN
 62
2
 10
231.000000
 20
-134.500031
 40
5.000000
 41
0.800000
 51
15.000000
  1
 ø14
  0
TEXT
 8
BEZ_SCHRAUBEN
 62
2
 10
303.000000
 20
185.499969
 40
5.000000
 41
0.800000
 51
15.000000
  1
 ø14
  0
TEXT
 8
BEZ_SCHRAUBEN
 62
2
 10
303.000000
 20
105.499969
 40
5.000000
 41
0.800000
 51
15.000000
  1
 ø14
  0
TEXT
 8
BEZ_SCHRAUBEN
 62
2
 10
303.000000
 20
25.499966
 40
5.000000
 41
0.800000
 51
15.000000
  1
 ø14
  0
TEXT
 8
BEZ_SCHRAUBEN
 62
2
 10
303.000000
 20
-214.499985
 40
5.000000
 41
0.800000
 51
15.000000
  1
 ø14
  0
TEXT
 8
BEZ_SCHRAUBEN
 62
2
 10
303.000000
 20
-134.500031
 40
5.000000
 41
0.800000
 51
15.000000
  1
 ø14
  0
TEXT
 8
BEZ_SCHRAUBEN
 62
2
 10
303.000000
 20
-54.500031
 40
5.000000
 41
0.800000
 51
15.000000
  1
 ø14
  0
TEXT
 8
BEZ_SCHRAUBEN
 62
2
 10
417.106262
 20
-145.588425
 40
5.000000
 41
0.800000
 51
15.000000
  1
 ø26
  0
TEXT
 8
BEZ_SCHRAUBEN
 62
2
 10
470.881775
 20
-190.401276
 40
5.000000
 41
0.800000
 51
15.000000
  1
 ø26
  0
TEXT
 8
BEZ_SCHRAUBEN
 62
2
 10
470.881927
 20
149.401581
 40
5.000000
 41
0.800000
 51
15.000000
  1
 ø26
  0
TEXT
 8
BEZ_SCHRAUBEN
 62
2
 10
417.106384
 20
104.588692
 40
5.000000
 41
0.800000
 51
15.000000
  1
 ø26
  0
ENDSEC
  0
EOF

