999
     *******************************************
999
     BOCAD Software GmbH   Rev.18.000   0202.22
999
     Filename:   c:\progetti21\danieli_aqs\b4\temp_61\10399.dxf
999
     Creator:    bocad
999
     Date:       20.01.2016
999
     Factor:     10.000000
999
     *******************************************
  0
SECTION
  2
HEADER
  9
$DWGCODEPAGE
  3
ANSI_1252
  9
$INSBASE
 10
0.0
 20
0.0
 30
0.0
  9
$EXTMIN
 10
-0.500011
 20
-129.000063
  9
$EXTMAX
 10
290.500031
 20
129.000063
  9
$LIMMIN
 10
-1.500011
 20
-130.000063
  9
$LIMMAX
 10
291.500031
 20
130.000063
  9
$LTSCALE
 40
10.000000
  0
ENDSEC
  0
SECTION
  2
TABLES
  0
TABLE
  2
LTYPE
 70
4
  0
LTYPE
  2
CONTINUOUS
 70
64
  3
____________________________________________
 72
65
 73
0
 40
0.0
  0
LTYPE
  2
HIDDEN
 70
64
  3
__ __ __ __ __ __ __ __ __ __ __ __ __ __ __
 72
65
 73
2
 40
0.50
 49
0.30
 49
-0.20
  0
LTYPE
  2
DASHDOT
 70
64
  3
____ _ ____ _ ____ _ ____ _ ____ _ ____ _ __
 72
65
 73
4
 40
2.0
 49
1.5
 49
-0.25
 49
0
 49
-0.25
  0
LTYPE
  2
DOT
 70
64
  3
............................................
 72
65
 73
2
 40
0.30
 49
0
 49
-0.30
  0
ENDTAB
  0
TABLE
  2
LAYER
 70
23
  0
LAYER
  2
SCHRAUBEN
 70
64
 62
7
  6
CONTINUOUS
  0
LAYER
  2
REST
 70
64
 62
7
  6
CONTINUOUS
  0
LAYER
  2
UNTERSCHRIFT
 70
64
 62
7
  6
CONTINUOUS
  0
LAYER
  2
TEILE
 70
64
 62
7
  6
CONTINUOUS
  0
LAYER
  2
BEZ_SCHRAUBEN
 70
64
 62
7
  6
CONTINUOUS
  0
LAYER
  2
MARKERPUNKTE
 70
64
 62
7
  6
CONTINUOUS
  0
LAYER
  2
HILFSPUNKTE
 70
64
 62
7
  6
CONTINUOUS
  0
LAYER
  2
PICKPUNKTE
 70
64
 62
7
  6
CONTINUOUS
  0
LAYER
  2
SCHWEISSEN
 70
64
 62
7
  6
CONTINUOUS
  0
LAYER
  2
GRAFIK
 70
64
 62
7
  6
CONTINUOUS
  0
LAYER
  2
BEM_FREI
 70
64
 62
7
  6
CONTINUOUS
  0
LAYER
  2
BEM_SYSTEM
 70
64
 62
7
  6
CONTINUOUS
  0
LAYER
  2
BEM_KONTUR
 70
64
 62
7
  6
CONTINUOUS
  0
LAYER
  2
BEM_ANBAU
 70
64
 62
7
  6
CONTINUOUS
  0
LAYER
  2
BEM_SCHRAUBEN
 70
64
 62
7
  6
CONTINUOUS
  0
LAYER
  2
BEM_SCHWEISSEN
 70
64
 62
7
  6
CONTINUOUS
  0
LAYER
  2
FREIER_TEXT
 70
64
 62
7
  6
CONTINUOUS
  0
LAYER
  2
BEZ_TEILE
 70
64
 62
7
  6
CONTINUOUS
  0
LAYER
  2
BEZ_SCHWEISSEN
 70
64
 62
7
  6
CONTINUOUS
  0
LAYER
  2
SCHRAFFUREN
 70
64
 62
7
  6
CONTINUOUS
  0
LAYER
  2
SCHNITTSYMBOL
 70
64
 62
7
  6
CONTINUOUS
  0
LAYER
  2
RASTER
 70
64
 62
7
  6
CONTINUOUS
  0
LAYER
  2
LISTEN
 70
64
 62
7
  6
CONTINUOUS
  0
LAYER
  2
RAHMEN
 70
64
 62
7
  6
CONTINUOUS
  0
ENDTAB
  0
TABLE
  2
STYLE
 70
1
  0
STYLE
  2
STANDARD
 70
64
 40
0
 41
1
 50
0.0
 71
0
 42
0.35
  3
ROMANS
  0
ENDTAB
  0
ENDSEC
  0
SECTION
  2
ENTITIES
  0
LINE
  8
SCHRAUBEN
 62
6
 10
43.599094
 20
-84.900085
 11
36.399094
 21
-92.100075
  0
LINE
  8
SCHRAUBEN
 62
6
 10
36.399094
 20
-84.900085
 11
43.599094
 21
-92.100075
  0
CIRCLE
  8
SCHRAUBEN
 62
2
 10
39.999092
 20
-88.500076
 40
9.000004
  0
LINE
  8
SCHRAUBEN
 62
6
 10
253.599258
 20
-84.900085
 11
246.399246
 21
-92.100075
  0
LINE
  8
SCHRAUBEN
 62
6
 10
246.399246
 20
-84.900085
 11
253.599258
 21
-92.100075
  0
CIRCLE
  8
SCHRAUBEN
 62
2
 10
249.999252
 20
-88.500076
 40
9.000015
  0
LINE
  8
SCHRAUBEN
 62
6
 10
103.599091
 20
-84.900085
 11
96.399094
 21
-92.100075
  0
LINE
  8
SCHRAUBEN
 62
6
 10
96.399094
 20
-84.900085
 11
103.599091
 21
-92.100075
  0
CIRCLE
  8
SCHRAUBEN
 62
2
 10
99.999092
 20
-88.500076
 40
9.000000
  0
LINE
  8
SCHRAUBEN
 62
6
 10
193.599258
 20
-84.900085
 11
186.399246
 21
-92.100075
  0
LINE
  8
SCHRAUBEN
 62
6
 10
186.399246
 20
-84.900085
 11
193.599258
 21
-92.100075
  0
CIRCLE
  8
SCHRAUBEN
 62
2
 10
189.999252
 20
-88.500076
 40
9.000000
  0
TEXT
 8
UNTERSCHRIFT
 62
2
 10
65.700012
 20
-126.500061
 40
3.250000
 41
0.800000
 51
15.000000
  1
Project  DP0GN9  ,Qty. 17  , Pos. 
  0
TEXT
 8
UNTERSCHRIFT
 62
2
 10
167.100006
 20
-126.500061
 40
3.250000
 41
0.800000
 51
15.000000
  1
  , Profi l PL257*10
  0
TEXT
 8
UNTERSCHRIFT
 62
2
 10
154.100021
 20
-126.500061
 40
3.250000
 41
0.800000
 51
15.000000
  1
10399
  0
LINE
  8
TEILE
 62
2
 10
290.000031
 20
23.499949
 11
290.000031
 21
-128.500061
  0
LINE
  8
TEILE
 62
2
 10
290.000031
 20
-128.500061
 11
-0.000011
 21
-128.500061
  0
LINE
  8
TEILE
 62
2
 10
-0.000011
 20
-128.500061
 11
0.000000
 21
23.499949
  0
LINE
  8
TEILE
 62
2
 10
0.000000
 20
23.499949
 11
88.999802
 21
128.500061
  0
LINE
  8
TEILE
 62
2
 10
88.999802
 20
128.500061
 11
200.999832
 21
128.500061
  0
LINE
  8
TEILE
 62
2
 10
200.999832
 20
128.500061
 11
290.000031
 21
23.499949
  0
TEXT
 8
BEZ_SCHRAUBEN
 62
2
 10
31.999092
 20
-105.000076
 40
5.000000
 41
0.800000
 51
15.000000
  1
 ø18
  0
ENDSEC
  0
EOF

