999
     *******************************************
999
     BOCAD Software GmbH   Rev.18.000   0202.22
999
     Filename:   c:\progetti21\danieli_aqs\b4\temp_61\10395.dxf
999
     Creator:    bocad
999
     Date:       20.01.2016
999
     Factor:     10.000000
999
     *******************************************
  0
SECTION
  2
HEADER
  9
$DWGCODEPAGE
  3
ANSI_1252
  9
$INSBASE
 10
0.0
 20
0.0
 30
0.0
  9
$EXTMIN
 10
-0.500023
 20
-140.500021
  9
$EXTMAX
 10
505.271988
 20
140.500021
  9
$LIMMIN
 10
-1.500023
 20
-141.500021
  9
$LIMMAX
 10
506.271988
 20
141.500021
  9
$LTSCALE
 40
10.000000
  0
ENDSEC
  0
SECTION
  2
TABLES
  0
TABLE
  2
LTYPE
 70
4
  0
LTYPE
  2
CONTINUOUS
 70
64
  3
____________________________________________
 72
65
 73
0
 40
0.0
  0
LTYPE
  2
HIDDEN
 70
64
  3
__ __ __ __ __ __ __ __ __ __ __ __ __ __ __
 72
65
 73
2
 40
0.50
 49
0.30
 49
-0.20
  0
LTYPE
  2
DASHDOT
 70
64
  3
____ _ ____ _ ____ _ ____ _ ____ _ ____ _ __
 72
65
 73
4
 40
2.0
 49
1.5
 49
-0.25
 49
0
 49
-0.25
  0
LTYPE
  2
DOT
 70
64
  3
............................................
 72
65
 73
2
 40
0.30
 49
0
 49
-0.30
  0
ENDTAB
  0
TABLE
  2
LAYER
 70
23
  0
LAYER
  2
SCHRAUBEN
 70
64
 62
7
  6
CONTINUOUS
  0
LAYER
  2
REST
 70
64
 62
7
  6
CONTINUOUS
  0
LAYER
  2
UNTERSCHRIFT
 70
64
 62
7
  6
CONTINUOUS
  0
LAYER
  2
TEILE
 70
64
 62
7
  6
CONTINUOUS
  0
LAYER
  2
BEZ_SCHRAUBEN
 70
64
 62
7
  6
CONTINUOUS
  0
LAYER
  2
MARKERPUNKTE
 70
64
 62
7
  6
CONTINUOUS
  0
LAYER
  2
HILFSPUNKTE
 70
64
 62
7
  6
CONTINUOUS
  0
LAYER
  2
PICKPUNKTE
 70
64
 62
7
  6
CONTINUOUS
  0
LAYER
  2
SCHWEISSEN
 70
64
 62
7
  6
CONTINUOUS
  0
LAYER
  2
GRAFIK
 70
64
 62
7
  6
CONTINUOUS
  0
LAYER
  2
BEM_FREI
 70
64
 62
7
  6
CONTINUOUS
  0
LAYER
  2
BEM_SYSTEM
 70
64
 62
7
  6
CONTINUOUS
  0
LAYER
  2
BEM_KONTUR
 70
64
 62
7
  6
CONTINUOUS
  0
LAYER
  2
BEM_ANBAU
 70
64
 62
7
  6
CONTINUOUS
  0
LAYER
  2
BEM_SCHRAUBEN
 70
64
 62
7
  6
CONTINUOUS
  0
LAYER
  2
BEM_SCHWEISSEN
 70
64
 62
7
  6
CONTINUOUS
  0
LAYER
  2
FREIER_TEXT
 70
64
 62
7
  6
CONTINUOUS
  0
LAYER
  2
BEZ_TEILE
 70
64
 62
7
  6
CONTINUOUS
  0
LAYER
  2
BEZ_SCHWEISSEN
 70
64
 62
7
  6
CONTINUOUS
  0
LAYER
  2
SCHRAFFUREN
 70
64
 62
7
  6
CONTINUOUS
  0
LAYER
  2
SCHNITTSYMBOL
 70
64
 62
7
  6
CONTINUOUS
  0
LAYER
  2
RASTER
 70
64
 62
7
  6
CONTINUOUS
  0
LAYER
  2
LISTEN
 70
64
 62
7
  6
CONTINUOUS
  0
LAYER
  2
RAHMEN
 70
64
 62
7
  6
CONTINUOUS
  0
ENDTAB
  0
TABLE
  2
STYLE
 70
1
  0
STYLE
  2
STANDARD
 70
64
 40
0
 41
1
 50
0.0
 71
0
 42
0.35
  3
ROMANS
  0
ENDTAB
  0
ENDSEC
  0
SECTION
  2
ENTITIES
  0
LINE
  8
SCHRAUBEN
 62
6
 10
95.770737
 20
-9.033163
 11
88.570747
 21
-16.233162
  0
LINE
  8
SCHRAUBEN
 62
6
 10
88.570747
 20
-9.033163
 11
95.770737
 21
-16.233162
  0
CIRCLE
  8
SCHRAUBEN
 62
2
 10
92.170746
 20
-12.633162
 40
8.999992
  0
LINE
  8
SCHRAUBEN
 62
6
 10
53.427929
 20
-35.624245
 11
46.227928
 21
-42.824245
  0
LINE
  8
SCHRAUBEN
 62
6
 10
46.227928
 20
-35.624249
 11
53.427929
 21
-42.824245
  0
CIRCLE
  8
SCHRAUBEN
 62
2
 10
49.827927
 20
-39.224247
 40
9.000004
  0
LINE
  8
SCHRAUBEN
 62
6
 10
148.371994
 20
98.599632
 11
141.171997
 21
91.399643
  0
LINE
  8
SCHRAUBEN
 62
6
 10
141.171997
 20
98.599632
 11
148.371994
 21
91.399643
  0
CIRCLE
  8
SCHRAUBEN
 62
2
 10
144.772003
 20
94.999634
 40
8.999985
  0
LINE
  8
SCHRAUBEN
 62
6
 10
228.371979
 20
98.599632
 11
221.171967
 21
91.399643
  0
LINE
  8
SCHRAUBEN
 62
6
 10
221.171967
 20
98.599632
 11
228.371979
 21
91.399643
  0
CIRCLE
  8
SCHRAUBEN
 62
2
 10
224.771973
 20
94.999634
 40
9.000000
  0
LINE
  8
SCHRAUBEN
 62
6
 10
388.371948
 20
98.599632
 11
381.171936
 21
91.399643
  0
LINE
  8
SCHRAUBEN
 62
6
 10
381.171936
 20
98.599632
 11
388.371948
 21
91.399643
  0
CIRCLE
  8
SCHRAUBEN
 62
2
 10
384.771973
 20
94.999634
 40
9.000000
  0
LINE
  8
SCHRAUBEN
 62
6
 10
308.371979
 20
98.599632
 11
301.171967
 21
91.399643
  0
LINE
  8
SCHRAUBEN
 62
6
 10
301.171967
 20
98.599632
 11
308.371979
 21
91.399643
  0
CIRCLE
  8
SCHRAUBEN
 62
2
 10
304.771973
 20
94.999634
 40
9.000000
  0
LINE
  8
SCHRAUBEN
 62
6
 10
468.371948
 20
98.599632
 11
461.171936
 21
91.399643
  0
LINE
  8
SCHRAUBEN
 62
6
 10
461.171936
 20
98.599632
 11
468.371948
 21
91.399643
  0
CIRCLE
  8
SCHRAUBEN
 62
2
 10
464.771973
 20
94.999634
 40
9.000000
  0
LINE
  8
SCHRAUBEN
 62
6
 10
312.371918
 20
-46.400024
 11
305.171906
 21
-53.600025
  0
LINE
  8
SCHRAUBEN
 62
6
 10
305.171906
 20
-46.400024
 11
312.371918
 21
-53.600025
  0
CIRCLE
  8
SCHRAUBEN
 62
2
 10
308.771912
 20
-50.000023
 40
9.000000
  0
LINE
  8
SCHRAUBEN
 62
6
 10
312.371918
 20
-96.400024
 11
305.171906
 21
-103.600014
  0
LINE
  8
SCHRAUBEN
 62
6
 10
305.171906
 20
-96.400024
 11
312.371918
 21
-103.600014
  0
CIRCLE
  8
SCHRAUBEN
 62
2
 10
308.771912
 20
-100.000015
 40
9.000000
  0
LINE
  8
SCHRAUBEN
 62
6
 10
384.371887
 20
-46.400024
 11
377.171875
 21
-53.600025
  0
LINE
  8
SCHRAUBEN
 62
6
 10
377.171875
 20
-46.400024
 11
384.371887
 21
-53.600025
  0
CIRCLE
  8
SCHRAUBEN
 62
2
 10
380.771851
 20
-50.000023
 40
9.000031
  0
LINE
  8
SCHRAUBEN
 62
6
 10
384.371887
 20
-96.400024
 11
377.171875
 21
-103.600014
  0
LINE
  8
SCHRAUBEN
 62
6
 10
377.171875
 20
-96.400024
 11
384.371887
 21
-103.600014
  0
CIRCLE
  8
SCHRAUBEN
 62
2
 10
380.771851
 20
-100.000015
 40
9.000031
  0
TEXT
 8
UNTERSCHRIFT
 62
2
 10
420.815125
 20
-115.190430
 40
3.249995
 50
63.676701
 41
0.800001
 51
15.000000
  1
Project  DP0GN9  ,Qty. 10  , Pos. 
  0
TEXT
 8
UNTERSCHRIFT
 62
2
 10
465.779419
 20
-24.304953
 40
3.249996
 50
63.676708
 41
0.800001
 51
15.000000
  1
  , Profi l PL280*10
  0
TEXT
 8
UNTERSCHRIFT
 62
2
 10
460.014771
 20
-35.956940
 40
3.249996
 50
63.676712
 41
0.800001
 51
15.000000
  1
10395
  0
LINE
  8
TEILE
 62
2
 10
410.772339
 20
-140.000015
 11
278.772400
 21
-140.000015
  0
LINE
  8
TEILE
 62
2
 10
278.772400
 20
-140.000015
 11
31.909222
 21
-85.903481
  0
LINE
  8
TEILE
 62
2
 10
31.909222
 20
-85.903481
 11
-0.000023
 21
-35.092190
  0
LINE
  8
TEILE
 62
2
 10
-0.000023
 20
-35.092190
 11
116.755844
 21
140.000000
  0
LINE
  8
TEILE
 62
2
 10
116.755844
 20
140.000000
 11
504.771973
 21
140.000000
  0
LINE
  8
TEILE
 62
2
 10
504.771973
 20
140.000000
 11
504.771973
 21
49.999634
  0
LINE
  8
TEILE
 62
2
 10
504.771973
 20
49.999634
 11
410.772339
 21
-140.000015
  0
TEXT
 8
BEZ_SCHRAUBEN
 62
2
 10
84.170746
 20
-29.133163
 40
5.000000
 41
0.800000
 51
15.000000
  1
 ø18
  0
TEXT
 8
BEZ_SCHRAUBEN
 62
2
 10
41.827927
 20
-55.724243
 40
5.000000
 41
0.800000
 51
15.000000
  1
 ø18
  0
TEXT
 8
BEZ_SCHRAUBEN
 62
2
 10
136.771988
 20
78.499634
 40
5.000000
 41
0.800000
 51
15.000000
  1
 ø18
  0
TEXT
 8
BEZ_SCHRAUBEN
 62
2
 10
216.772003
 20
78.499634
 40
5.000000
 41
0.800000
 51
15.000000
  1
 ø18
  0
TEXT
 8
BEZ_SCHRAUBEN
 62
2
 10
376.771973
 20
78.499634
 40
5.000000
 41
0.800000
 51
15.000000
  1
 ø18
  0
TEXT
 8
BEZ_SCHRAUBEN
 62
2
 10
296.772003
 20
78.499634
 40
5.000000
 41
0.800000
 51
15.000000
  1
 ø18
  0
TEXT
 8
BEZ_SCHRAUBEN
 62
2
 10
456.771973
 20
78.499634
 40
5.000000
 41
0.800000
 51
15.000000
  1
 ø18
  0
TEXT
 8
BEZ_SCHRAUBEN
 62
2
 10
300.771912
 20
-66.500023
 40
5.000000
 41
0.800000
 51
15.000000
  1
 ø18
  0
TEXT
 8
BEZ_SCHRAUBEN
 62
2
 10
300.771912
 20
-116.500015
 40
5.000000
 41
0.800000
 51
15.000000
  1
 ø18
  0
TEXT
 8
BEZ_SCHRAUBEN
 62
2
 10
372.771881
 20
-66.500023
 40
5.000000
 41
0.800000
 51
15.000000
  1
 ø18
  0
TEXT
 8
BEZ_SCHRAUBEN
 62
2
 10
372.771881
 20
-116.500015
 40
5.000000
 41
0.800000
 51
15.000000
  1
 ø18
  0
ENDSEC
  0
EOF

