999
     *******************************************
999
     BOCAD Software GmbH   Rev.18.000   0202.22
999
     Filename:   c:\progetti21\danieli_aqs\b4\temp_61\10397.dxf
999
     Creator:    bocad
999
     Date:       20.01.2016
999
     Factor:     10.000000
999
     *******************************************
  0
SECTION
  2
HEADER
  9
$DWGCODEPAGE
  3
ANSI_1252
  9
$INSBASE
 10
0.0
 20
0.0
 30
0.0
  9
$EXTMIN
 10
-0.499721
 20
-140.500021
  9
$EXTMAX
 10
490.271988
 20
140.500021
  9
$LIMMIN
 10
-1.499721
 20
-141.500021
  9
$LIMMAX
 10
491.271988
 20
141.500021
  9
$LTSCALE
 40
10.000000
  0
ENDSEC
  0
SECTION
  2
TABLES
  0
TABLE
  2
LTYPE
 70
4
  0
LTYPE
  2
CONTINUOUS
 70
64
  3
____________________________________________
 72
65
 73
0
 40
0.0
  0
LTYPE
  2
HIDDEN
 70
64
  3
__ __ __ __ __ __ __ __ __ __ __ __ __ __ __
 72
65
 73
2
 40
0.50
 49
0.30
 49
-0.20
  0
LTYPE
  2
DASHDOT
 70
64
  3
____ _ ____ _ ____ _ ____ _ ____ _ ____ _ __
 72
65
 73
4
 40
2.0
 49
1.5
 49
-0.25
 49
0
 49
-0.25
  0
LTYPE
  2
DOT
 70
64
  3
............................................
 72
65
 73
2
 40
0.30
 49
0
 49
-0.30
  0
ENDTAB
  0
TABLE
  2
LAYER
 70
23
  0
LAYER
  2
SCHRAUBEN
 70
64
 62
7
  6
CONTINUOUS
  0
LAYER
  2
REST
 70
64
 62
7
  6
CONTINUOUS
  0
LAYER
  2
UNTERSCHRIFT
 70
64
 62
7
  6
CONTINUOUS
  0
LAYER
  2
TEILE
 70
64
 62
7
  6
CONTINUOUS
  0
LAYER
  2
BEZ_SCHRAUBEN
 70
64
 62
7
  6
CONTINUOUS
  0
LAYER
  2
MARKERPUNKTE
 70
64
 62
7
  6
CONTINUOUS
  0
LAYER
  2
HILFSPUNKTE
 70
64
 62
7
  6
CONTINUOUS
  0
LAYER
  2
PICKPUNKTE
 70
64
 62
7
  6
CONTINUOUS
  0
LAYER
  2
SCHWEISSEN
 70
64
 62
7
  6
CONTINUOUS
  0
LAYER
  2
GRAFIK
 70
64
 62
7
  6
CONTINUOUS
  0
LAYER
  2
BEM_FREI
 70
64
 62
7
  6
CONTINUOUS
  0
LAYER
  2
BEM_SYSTEM
 70
64
 62
7
  6
CONTINUOUS
  0
LAYER
  2
BEM_KONTUR
 70
64
 62
7
  6
CONTINUOUS
  0
LAYER
  2
BEM_ANBAU
 70
64
 62
7
  6
CONTINUOUS
  0
LAYER
  2
BEM_SCHRAUBEN
 70
64
 62
7
  6
CONTINUOUS
  0
LAYER
  2
BEM_SCHWEISSEN
 70
64
 62
7
  6
CONTINUOUS
  0
LAYER
  2
FREIER_TEXT
 70
64
 62
7
  6
CONTINUOUS
  0
LAYER
  2
BEZ_TEILE
 70
64
 62
7
  6
CONTINUOUS
  0
LAYER
  2
BEZ_SCHWEISSEN
 70
64
 62
7
  6
CONTINUOUS
  0
LAYER
  2
SCHRAFFUREN
 70
64
 62
7
  6
CONTINUOUS
  0
LAYER
  2
SCHNITTSYMBOL
 70
64
 62
7
  6
CONTINUOUS
  0
LAYER
  2
RASTER
 70
64
 62
7
  6
CONTINUOUS
  0
LAYER
  2
LISTEN
 70
64
 62
7
  6
CONTINUOUS
  0
LAYER
  2
RAHMEN
 70
64
 62
7
  6
CONTINUOUS
  0
ENDTAB
  0
TABLE
  2
STYLE
 70
1
  0
STYLE
  2
STANDARD
 70
64
 40
0
 41
1
 50
0.0
 71
0
 42
0.35
  3
ROMANS
  0
ENDTAB
  0
ENDSEC
  0
SECTION
  2
ENTITIES
  0
LINE
  8
SCHRAUBEN
 62
6
 10
95.771423
 20
-9.033150
 11
88.571434
 21
-16.233150
  0
LINE
  8
SCHRAUBEN
 62
6
 10
88.571434
 20
-9.033150
 11
95.771423
 21
-16.233150
  0
CIRCLE
  8
SCHRAUBEN
 62
2
 10
92.171432
 20
-12.633150
 40
8.999992
  0
LINE
  8
SCHRAUBEN
 62
6
 10
53.428616
 20
-35.624233
 11
46.228615
 21
-42.824234
  0
LINE
  8
SCHRAUBEN
 62
6
 10
46.228615
 20
-35.624237
 11
53.428616
 21
-42.824234
  0
CIRCLE
  8
SCHRAUBEN
 62
2
 10
49.828613
 20
-39.224236
 40
9.000004
  0
LINE
  8
SCHRAUBEN
 62
6
 10
383.372314
 20
98.599640
 11
376.172302
 21
91.399651
  0
LINE
  8
SCHRAUBEN
 62
6
 10
376.172302
 20
98.599640
 11
383.372314
 21
91.399651
  0
CIRCLE
  8
SCHRAUBEN
 62
2
 10
379.772308
 20
94.999649
 40
9.000000
  0
LINE
  8
SCHRAUBEN
 62
6
 10
313.372314
 20
98.599640
 11
306.172302
 21
91.399651
  0
LINE
  8
SCHRAUBEN
 62
6
 10
306.172302
 20
98.599640
 11
313.372314
 21
91.399651
  0
CIRCLE
  8
SCHRAUBEN
 62
2
 10
309.772308
 20
94.999649
 40
9.000000
  0
LINE
  8
SCHRAUBEN
 62
6
 10
243.372314
 20
98.599640
 11
236.172302
 21
91.399651
  0
LINE
  8
SCHRAUBEN
 62
6
 10
236.172302
 20
98.599640
 11
243.372314
 21
91.399651
  0
CIRCLE
  8
SCHRAUBEN
 62
2
 10
239.772308
 20
94.999649
 40
8.999985
  0
LINE
  8
SCHRAUBEN
 62
6
 10
173.372314
 20
98.599640
 11
166.172302
 21
91.399651
  0
LINE
  8
SCHRAUBEN
 62
6
 10
166.172302
 20
98.599640
 11
173.372314
 21
91.399651
  0
CIRCLE
  8
SCHRAUBEN
 62
2
 10
169.772308
 20
94.999649
 40
8.999985
  0
LINE
  8
SCHRAUBEN
 62
6
 10
453.372314
 20
98.599640
 11
446.172302
 21
91.399651
  0
LINE
  8
SCHRAUBEN
 62
6
 10
446.172302
 20
98.599640
 11
453.372314
 21
91.399651
  0
CIRCLE
  8
SCHRAUBEN
 62
2
 10
449.772308
 20
94.999649
 40
9.000000
  0
LINE
  8
SCHRAUBEN
 62
6
 10
312.372253
 20
-46.400009
 11
305.172241
 21
-53.600010
  0
LINE
  8
SCHRAUBEN
 62
6
 10
305.172241
 20
-46.400009
 11
312.372253
 21
-53.600010
  0
CIRCLE
  8
SCHRAUBEN
 62
2
 10
308.772247
 20
-50.000008
 40
9.000000
  0
LINE
  8
SCHRAUBEN
 62
6
 10
312.372253
 20
-96.400009
 11
305.172241
 21
-103.600006
  0
LINE
  8
SCHRAUBEN
 62
6
 10
305.172241
 20
-96.400009
 11
312.372253
 21
-103.600006
  0
CIRCLE
  8
SCHRAUBEN
 62
2
 10
308.772247
 20
-100.000008
 40
9.000000
  0
LINE
  8
SCHRAUBEN
 62
6
 10
384.372223
 20
-46.400009
 11
377.172211
 21
-53.600010
  0
LINE
  8
SCHRAUBEN
 62
6
 10
377.172211
 20
-46.400009
 11
384.372223
 21
-53.600010
  0
CIRCLE
  8
SCHRAUBEN
 62
2
 10
380.772217
 20
-50.000008
 40
9.000000
  0
LINE
  8
SCHRAUBEN
 62
6
 10
384.372223
 20
-96.400009
 11
377.172211
 21
-103.600006
  0
LINE
  8
SCHRAUBEN
 62
6
 10
377.172211
 20
-96.400009
 11
384.372223
 21
-103.600006
  0
CIRCLE
  8
SCHRAUBEN
 62
2
 10
380.772217
 20
-100.000008
 40
9.000000
  0
TEXT
 8
UNTERSCHRIFT
 62
2
 10
418.479614
 20
-116.254814
 40
3.250005
 50
67.423119
 41
0.799998
 51
15.000000
  1
Project  DP0GN9  ,Qty. 5  , Pos. 
  0
TEXT
 8
UNTERSCHRIFT
 62
2
 10
456.411194
 20
-25.026344
 40
3.250004
 50
67.423126
 41
0.799999
 51
15.000000
  1
  , Profi l PL280*10
  0
TEXT
 8
UNTERSCHRIFT
 62
2
 10
451.420227
 20
-37.030090
 40
3.250004
 50
67.423126
 41
0.799999
 51
15.000000
  1
10397
  0
LINE
  8
TEILE
 62
2
 10
410.772675
 20
-140.000015
 11
278.772705
 21
-140.000015
  0
LINE
  8
TEILE
 62
2
 10
278.772705
 20
-140.000015
 11
31.909531
 21
-85.903473
  0
LINE
  8
TEILE
 62
2
 10
31.909531
 20
-85.903473
 11
0.000279
 21
-35.092178
  0
LINE
  8
TEILE
 62
2
 10
0.000279
 20
-35.092178
 11
116.756149
 21
140.000015
  0
LINE
  8
TEILE
 62
2
 10
116.756149
 20
140.000015
 11
489.772003
 21
140.000015
  0
LINE
  8
TEILE
 62
2
 10
489.772003
 20
140.000015
 11
489.772003
 21
49.999649
  0
LINE
  8
TEILE
 62
2
 10
489.772003
 20
49.999649
 11
410.772675
 21
-140.000015
  0
TEXT
 8
BEZ_SCHRAUBEN
 62
2
 10
84.171432
 20
-29.133150
 40
5.000000
 41
0.800000
 51
15.000000
  1
 ø18
  0
TEXT
 8
BEZ_SCHRAUBEN
 62
2
 10
41.828617
 20
-55.724236
 40
5.000000
 41
0.800000
 51
15.000000
  1
 ø18
  0
TEXT
 8
BEZ_SCHRAUBEN
 62
2
 10
371.772308
 20
78.499649
 40
4.999998
 41
0.800000
 51
15.000000
  1
 ø18
  0
TEXT
 8
BEZ_SCHRAUBEN
 62
2
 10
301.772339
 20
78.499649
 40
4.999998
 41
0.800000
 51
15.000000
  1
 ø18
  0
TEXT
 8
BEZ_SCHRAUBEN
 62
2
 10
231.772324
 20
78.499649
 40
4.999998
 41
0.800000
 51
15.000000
  1
 ø18
  0
TEXT
 8
BEZ_SCHRAUBEN
 62
2
 10
161.772324
 20
78.499649
 40
4.999998
 41
0.800000
 51
15.000000
  1
 ø18
  0
TEXT
 8
BEZ_SCHRAUBEN
 62
2
 10
441.772308
 20
78.499649
 40
4.999998
 41
0.800000
 51
15.000000
  1
 ø18
  0
TEXT
 8
BEZ_SCHRAUBEN
 62
2
 10
300.772217
 20
-66.500015
 40
5.000000
 41
0.800000
 51
15.000000
  1
 ø18
  0
TEXT
 8
BEZ_SCHRAUBEN
 62
2
 10
300.772217
 20
-116.500008
 40
5.000000
 41
0.800000
 51
15.000000
  1
 ø18
  0
TEXT
 8
BEZ_SCHRAUBEN
 62
2
 10
372.772217
 20
-66.500015
 40
5.000000
 41
0.800000
 51
15.000000
  1
 ø18
  0
TEXT
 8
BEZ_SCHRAUBEN
 62
2
 10
372.772217
 20
-116.500008
 40
5.000000
 41
0.800000
 51
15.000000
  1
 ø18
  0
ENDSEC
  0
EOF

