999
     *******************************************
999
     BOCAD Software GmbH   Rev.18.000   0202.22
999
     Filename:   c:\progetti21\danieli_aqs\b4\temp_61\10393.dxf
999
     Creator:    bocad
999
     Date:       20.01.2016
999
     Factor:     10.000000
999
     *******************************************
  0
SECTION
  2
HEADER
  9
$DWGCODEPAGE
  3
ANSI_1252
  9
$INSBASE
 10
0.0
 20
0.0
 30
0.0
  9
$EXTMIN
 10
-0.500000
 20
-149.202499
  9
$EXTMAX
 10
585.329590
 20
149.202499
  9
$LIMMIN
 10
-1.500000
 20
-150.202499
  9
$LIMMAX
 10
586.329590
 20
150.202499
  9
$LTSCALE
 40
10.000000
  0
ENDSEC
  0
SECTION
  2
TABLES
  0
TABLE
  2
LTYPE
 70
4
  0
LTYPE
  2
CONTINUOUS
 70
64
  3
____________________________________________
 72
65
 73
0
 40
0.0
  0
LTYPE
  2
HIDDEN
 70
64
  3
__ __ __ __ __ __ __ __ __ __ __ __ __ __ __
 72
65
 73
2
 40
0.50
 49
0.30
 49
-0.20
  0
LTYPE
  2
DASHDOT
 70
64
  3
____ _ ____ _ ____ _ ____ _ ____ _ ____ _ __
 72
65
 73
4
 40
2.0
 49
1.5
 49
-0.25
 49
0
 49
-0.25
  0
LTYPE
  2
DOT
 70
64
  3
............................................
 72
65
 73
2
 40
0.30
 49
0
 49
-0.30
  0
ENDTAB
  0
TABLE
  2
LAYER
 70
23
  0
LAYER
  2
SCHRAUBEN
 70
64
 62
7
  6
CONTINUOUS
  0
LAYER
  2
REST
 70
64
 62
7
  6
CONTINUOUS
  0
LAYER
  2
UNTERSCHRIFT
 70
64
 62
7
  6
CONTINUOUS
  0
LAYER
  2
TEILE
 70
64
 62
7
  6
CONTINUOUS
  0
LAYER
  2
BEZ_SCHRAUBEN
 70
64
 62
7
  6
CONTINUOUS
  0
LAYER
  2
MARKERPUNKTE
 70
64
 62
7
  6
CONTINUOUS
  0
LAYER
  2
HILFSPUNKTE
 70
64
 62
7
  6
CONTINUOUS
  0
LAYER
  2
PICKPUNKTE
 70
64
 62
7
  6
CONTINUOUS
  0
LAYER
  2
SCHWEISSEN
 70
64
 62
7
  6
CONTINUOUS
  0
LAYER
  2
GRAFIK
 70
64
 62
7
  6
CONTINUOUS
  0
LAYER
  2
BEM_FREI
 70
64
 62
7
  6
CONTINUOUS
  0
LAYER
  2
BEM_SYSTEM
 70
64
 62
7
  6
CONTINUOUS
  0
LAYER
  2
BEM_KONTUR
 70
64
 62
7
  6
CONTINUOUS
  0
LAYER
  2
BEM_ANBAU
 70
64
 62
7
  6
CONTINUOUS
  0
LAYER
  2
BEM_SCHRAUBEN
 70
64
 62
7
  6
CONTINUOUS
  0
LAYER
  2
BEM_SCHWEISSEN
 70
64
 62
7
  6
CONTINUOUS
  0
LAYER
  2
FREIER_TEXT
 70
64
 62
7
  6
CONTINUOUS
  0
LAYER
  2
BEZ_TEILE
 70
64
 62
7
  6
CONTINUOUS
  0
LAYER
  2
BEZ_SCHWEISSEN
 70
64
 62
7
  6
CONTINUOUS
  0
LAYER
  2
SCHRAFFUREN
 70
64
 62
7
  6
CONTINUOUS
  0
LAYER
  2
SCHNITTSYMBOL
 70
64
 62
7
  6
CONTINUOUS
  0
LAYER
  2
RASTER
 70
64
 62
7
  6
CONTINUOUS
  0
LAYER
  2
LISTEN
 70
64
 62
7
  6
CONTINUOUS
  0
LAYER
  2
RAHMEN
 70
64
 62
7
  6
CONTINUOUS
  0
ENDTAB
  0
TABLE
  2
STYLE
 70
1
  0
STYLE
  2
STANDARD
 70
64
 40
0
 41
1
 50
0.0
 71
0
 42
0.35
  3
ROMANS
  0
ENDTAB
  0
ENDSEC
  0
SECTION
  2
ENTITIES
  0
LINE
  8
SCHRAUBEN
 62
6
 10
132.538376
 20
43.549011
 11
122.138367
 21
33.149014
  0
LINE
  8
SCHRAUBEN
 62
6
 10
122.138367
 20
43.549011
 11
132.538376
 21
33.149014
  0
CIRCLE
  8
SCHRAUBEN
 62
2
 10
127.338371
 20
38.349014
 40
13.000008
  0
LINE
  8
SCHRAUBEN
 62
6
 10
76.170959
 20
85.054626
 11
65.770958
 21
74.654625
  0
LINE
  8
SCHRAUBEN
 62
6
 10
65.770958
 20
85.054626
 11
76.170959
 21
74.654625
  0
CIRCLE
  8
SCHRAUBEN
 62
2
 10
70.970963
 20
79.854622
 40
12.999992
  0
LINE
  8
SCHRAUBEN
 62
6
 10
191.815948
 20
-104.302521
 11
183.015930
 21
-113.102509
  0
LINE
  8
SCHRAUBEN
 62
6
 10
183.015930
 20
-104.302521
 11
191.815948
 21
-113.102509
  0
CIRCLE
  8
SCHRAUBEN
 62
2
 10
187.415939
 20
-108.702515
 40
11.000015
  0
LINE
  8
SCHRAUBEN
 62
6
 10
401.815918
 20
-104.302521
 11
393.015930
 21
-113.102509
  0
LINE
  8
SCHRAUBEN
 62
6
 10
393.015930
 20
-104.302521
 11
401.815918
 21
-113.102509
  0
CIRCLE
  8
SCHRAUBEN
 62
2
 10
397.415924
 20
-108.702515
 40
10.999969
  0
LINE
  8
SCHRAUBEN
 62
6
 10
261.815948
 20
-104.302521
 11
253.015930
 21
-113.102509
  0
LINE
  8
SCHRAUBEN
 62
6
 10
253.015930
 20
-104.302521
 11
261.815948
 21
-113.102509
  0
CIRCLE
  8
SCHRAUBEN
 62
2
 10
257.415955
 20
-108.702515
 40
11.000000
  0
LINE
  8
SCHRAUBEN
 62
6
 10
331.815918
 20
-104.302521
 11
323.015930
 21
-113.102509
  0
LINE
  8
SCHRAUBEN
 62
6
 10
323.015930
 20
-104.302521
 11
331.815918
 21
-113.102509
  0
CIRCLE
  8
SCHRAUBEN
 62
2
 10
327.415924
 20
-108.702515
 40
10.999969
  0
LINE
  8
SCHRAUBEN
 62
6
 10
519.058838
 20
85.054138
 11
508.658813
 21
74.654144
  0
LINE
  8
SCHRAUBEN
 62
6
 10
508.658813
 20
85.054138
 11
519.058838
 21
74.654144
  0
CIRCLE
  8
SCHRAUBEN
 62
2
 10
513.858826
 20
79.854141
 40
13.000000
  0
LINE
  8
SCHRAUBEN
 62
6
 10
462.691193
 20
43.548885
 11
452.291199
 21
33.148884
  0
LINE
  8
SCHRAUBEN
 62
6
 10
452.291199
 20
43.548885
 11
462.691193
 21
33.148884
  0
CIRCLE
  8
SCHRAUBEN
 62
2
 10
457.491180
 20
38.348881
 40
13.000000
  0
TEXT
 8
UNTERSCHRIFT
 62
2
 10
459.570953
 20
-39.202312
 40
3.250002
 50
43.334755
 41
0.799999
 51
15.000000
  1
Project  DP0GN9  ,Qty. 12  , Pos. 
  0
TEXT
 8
UNTERSCHRIFT
 62
2
 10
533.324951
 20
30.384359
 40
3.250002
 50
43.334755
 41
0.799999
 51
15.000000
  1
  , Profi l PL297*10
  0
TEXT
 8
UNTERSCHRIFT
 62
2
 10
523.869324
 20
21.462992
 40
3.250002
 50
43.334755
 41
0.799999
 51
15.000000
  1
10393
  0
LINE
  8
TEILE
 62
2
 10
452.416199
 20
-148.702499
 11
132.415848
 21
-148.702499
  0
LINE
  8
TEILE
 62
2
 10
132.415848
 20
-148.702499
 11
132.415833
 21
-48.702488
  0
LINE
  8
TEILE
 62
2
 10
132.415833
 20
-48.702488
 11
0.000000
 21
76.229836
  0
LINE
  8
TEILE
 62
2
 10
0.000000
 20
76.229836
 11
53.364563
 21
148.702499
  0
LINE
  8
TEILE
 62
2
 10
53.364563
 20
148.702499
 11
255.095795
 21
110.386040
  0
LINE
  8
TEILE
 62
2
 10
255.095795
 20
110.386040
 11
257.477844
 21
109.948509
  0
LINE
  8
TEILE
 62
2
 10
257.477844
 20
109.948509
 11
259.865082
 21
109.539864
  0
LINE
  8
TEILE
 62
2
 10
259.865082
 20
109.539864
 11
262.257050
 21
109.160156
  0
LINE
  8
TEILE
 62
2
 10
262.257050
 20
109.160156
 11
264.653473
 21
108.809441
  0
LINE
  8
TEILE
 62
2
 10
264.653473
 20
108.809441
 11
267.053955
 21
108.487778
  0
LINE
  8
TEILE
 62
2
 10
267.053955
 20
108.487778
 11
269.458130
 21
108.195198
  0
LINE
  8
TEILE
 62
2
 10
269.458130
 20
108.195198
 11
271.865723
 21
107.931755
  0
LINE
  8
TEILE
 62
2
 10
271.865723
 20
107.931755
 11
274.276306
 21
107.697487
  0
LINE
  8
TEILE
 62
2
 10
274.276306
 20
107.697487
 11
276.689514
 21
107.492432
  0
LINE
  8
TEILE
 62
2
 10
276.689514
 20
107.492432
 11
279.105072
 21
107.316605
  0
LINE
  8
TEILE
 62
2
 10
279.105072
 20
107.316605
 11
281.522552
 21
107.170044
  0
LINE
  8
TEILE
 62
2
 10
281.522552
 20
107.170044
 11
283.941681
 21
107.052773
  0
LINE
  8
TEILE
 62
2
 10
283.941681
 20
107.052773
 11
286.362000
 21
106.964806
  0
LINE
  8
TEILE
 62
2
 10
286.362000
 20
106.964806
 11
288.783234
 21
106.906143
  0
LINE
  8
TEILE
 62
2
 10
288.783234
 20
106.906143
 11
291.204987
 21
106.876823
  0
LINE
  8
TEILE
 62
2
 10
291.204987
 20
106.876823
 11
293.626923
 21
106.876816
  0
LINE
  8
TEILE
 62
2
 10
293.626923
 20
106.876816
 11
296.048676
 21
106.906136
  0
LINE
  8
TEILE
 62
2
 10
296.048676
 20
106.906136
 11
298.469910
 21
106.964790
  0
LINE
  8
TEILE
 62
2
 10
298.469910
 20
106.964790
 11
300.890228
 21
107.052757
  0
LINE
  8
TEILE
 62
2
 10
300.890228
 20
107.052757
 11
303.309326
 21
107.170021
  0
LINE
  8
TEILE
 62
2
 10
303.309326
 20
107.170021
 11
305.726837
 21
107.316582
  0
LINE
  8
TEILE
 62
2
 10
305.726837
 20
107.316582
 11
308.142365
 21
107.492386
  0
LINE
  8
TEILE
 62
2
 10
308.142365
 20
107.492386
 11
310.555603
 21
107.697449
  0
LINE
  8
TEILE
 62
2
 10
310.555603
 20
107.697449
 11
312.966187
 21
107.931709
  0
LINE
  8
TEILE
 62
2
 10
312.966187
 20
107.931709
 11
315.373779
 21
108.195145
  0
LINE
  8
TEILE
 62
2
 10
315.373779
 20
108.195145
 11
317.777954
 21
108.487717
  0
LINE
  8
TEILE
 62
2
 10
317.777954
 20
108.487717
 11
320.178467
 21
108.809387
  0
LINE
  8
TEILE
 62
2
 10
320.178467
 20
108.809387
 11
322.574829
 21
109.160088
  0
LINE
  8
TEILE
 62
2
 10
322.574829
 20
109.160088
 11
324.966858
 21
109.539795
  0
LINE
  8
TEILE
 62
2
 10
324.966858
 20
109.539795
 11
327.354065
 21
109.948433
  0
LINE
  8
TEILE
 62
2
 10
327.354065
 20
109.948433
 11
329.736145
 21
110.385956
  0
LINE
  8
TEILE
 62
2
 10
329.736145
 20
110.385956
 11
329.736206
 21
110.385963
  0
LINE
  8
TEILE
 62
2
 10
329.736206
 20
110.385963
 11
531.465820
 21
148.701706
  0
LINE
  8
TEILE
 62
2
 10
531.465820
 20
148.701706
 11
584.829590
 21
76.229126
  0
LINE
  8
TEILE
 62
2
 10
584.829590
 20
76.229126
 11
452.416199
 21
-48.702488
  0
LINE
  8
TEILE
 62
2
 10
452.416199
 20
-48.702488
 11
452.416199
 21
-148.702499
  0
TEXT
 8
BEZ_SCHRAUBEN
 62
2
 10
119.338364
 20
17.849014
 40
5.000000
 41
0.800000
 51
15.000000
  1
 ø26
  0
TEXT
 8
BEZ_SCHRAUBEN
 62
2
 10
62.970963
 20
59.354622
 40
5.000000
 41
0.800000
 51
15.000000
  1
 ø26
  0
TEXT
 8
BEZ_SCHRAUBEN
 62
2
 10
179.415955
 20
-127.202522
 40
5.000000
 41
0.800000
 51
15.000000
  1
 ø22
  0
TEXT
 8
BEZ_SCHRAUBEN
 62
2
 10
389.415924
 20
-127.202522
 40
5.000000
 41
0.800000
 51
15.000000
  1
 ø22
  0
TEXT
 8
BEZ_SCHRAUBEN
 62
2
 10
249.415924
 20
-127.202522
 40
5.000000
 41
0.800000
 51
15.000000
  1
 ø22
  0
TEXT
 8
BEZ_SCHRAUBEN
 62
2
 10
319.415924
 20
-127.202522
 40
5.000000
 41
0.800000
 51
15.000000
  1
 ø22
  0
TEXT
 8
BEZ_SCHRAUBEN
 62
2
 10
505.858826
 20
59.354137
 40
5.000000
 41
0.800000
 51
15.000000
  1
 ø26
  0
TEXT
 8
BEZ_SCHRAUBEN
 62
2
 10
449.491211
 20
17.848881
 40
5.000000
 41
0.800000
 51
15.000000
  1
 ø26
  0
ENDSEC
  0
EOF

