999
     *******************************************
999
     BOCAD Software GmbH   Rev.18.000   0202.22
999
     Filename:   c:\progetti21\danieli_aqs\b4\temp_61\10391.dxf
999
     Creator:    bocad
999
     Date:       20.01.2016
999
     Factor:     10.000000
999
     *******************************************
  0
SECTION
  2
HEADER
  9
$DWGCODEPAGE
  3
ANSI_1252
  9
$INSBASE
 10
0.0
 20
0.0
 30
0.0
  9
$EXTMIN
 10
-0.500000
 20
-151.499834
  9
$EXTMAX
 10
380.499992
 20
151.499834
  9
$LIMMIN
 10
-1.500000
 20
-152.499834
  9
$LIMMAX
 10
381.499992
 20
152.499834
  9
$LTSCALE
 40
10.000000
  0
ENDSEC
  0
SECTION
  2
TABLES
  0
TABLE
  2
LTYPE
 70
4
  0
LTYPE
  2
CONTINUOUS
 70
64
  3
____________________________________________
 72
65
 73
0
 40
0.0
  0
LTYPE
  2
HIDDEN
 70
64
  3
__ __ __ __ __ __ __ __ __ __ __ __ __ __ __
 72
65
 73
2
 40
0.50
 49
0.30
 49
-0.20
  0
LTYPE
  2
DASHDOT
 70
64
  3
____ _ ____ _ ____ _ ____ _ ____ _ ____ _ __
 72
65
 73
4
 40
2.0
 49
1.5
 49
-0.25
 49
0
 49
-0.25
  0
LTYPE
  2
DOT
 70
64
  3
............................................
 72
65
 73
2
 40
0.30
 49
0
 49
-0.30
  0
ENDTAB
  0
TABLE
  2
LAYER
 70
23
  0
LAYER
  2
SCHRAUBEN
 70
64
 62
7
  6
CONTINUOUS
  0
LAYER
  2
REST
 70
64
 62
7
  6
CONTINUOUS
  0
LAYER
  2
UNTERSCHRIFT
 70
64
 62
7
  6
CONTINUOUS
  0
LAYER
  2
TEILE
 70
64
 62
7
  6
CONTINUOUS
  0
LAYER
  2
BEZ_SCHRAUBEN
 70
64
 62
7
  6
CONTINUOUS
  0
LAYER
  2
MARKERPUNKTE
 70
64
 62
7
  6
CONTINUOUS
  0
LAYER
  2
HILFSPUNKTE
 70
64
 62
7
  6
CONTINUOUS
  0
LAYER
  2
PICKPUNKTE
 70
64
 62
7
  6
CONTINUOUS
  0
LAYER
  2
SCHWEISSEN
 70
64
 62
7
  6
CONTINUOUS
  0
LAYER
  2
GRAFIK
 70
64
 62
7
  6
CONTINUOUS
  0
LAYER
  2
BEM_FREI
 70
64
 62
7
  6
CONTINUOUS
  0
LAYER
  2
BEM_SYSTEM
 70
64
 62
7
  6
CONTINUOUS
  0
LAYER
  2
BEM_KONTUR
 70
64
 62
7
  6
CONTINUOUS
  0
LAYER
  2
BEM_ANBAU
 70
64
 62
7
  6
CONTINUOUS
  0
LAYER
  2
BEM_SCHRAUBEN
 70
64
 62
7
  6
CONTINUOUS
  0
LAYER
  2
BEM_SCHWEISSEN
 70
64
 62
7
  6
CONTINUOUS
  0
LAYER
  2
FREIER_TEXT
 70
64
 62
7
  6
CONTINUOUS
  0
LAYER
  2
BEZ_TEILE
 70
64
 62
7
  6
CONTINUOUS
  0
LAYER
  2
BEZ_SCHWEISSEN
 70
64
 62
7
  6
CONTINUOUS
  0
LAYER
  2
SCHRAFFUREN
 70
64
 62
7
  6
CONTINUOUS
  0
LAYER
  2
SCHNITTSYMBOL
 70
64
 62
7
  6
CONTINUOUS
  0
LAYER
  2
RASTER
 70
64
 62
7
  6
CONTINUOUS
  0
LAYER
  2
LISTEN
 70
64
 62
7
  6
CONTINUOUS
  0
LAYER
  2
RAHMEN
 70
64
 62
7
  6
CONTINUOUS
  0
ENDTAB
  0
TABLE
  2
STYLE
 70
1
  0
STYLE
  2
STANDARD
 70
64
 40
0
 41
1
 50
0.0
 71
0
 42
0.35
  3
ROMANS
  0
ENDTAB
  0
ENDSEC
  0
SECTION
  2
ENTITIES
  0
LINE
  8
SCHRAUBEN
 62
6
 10
343.599701
 20
-30.400291
 11
336.399689
 21
-37.600292
  0
LINE
  8
SCHRAUBEN
 62
6
 10
336.399689
 20
-30.400291
 11
343.599701
 21
-37.600292
  0
CIRCLE
  8
SCHRAUBEN
 62
2
 10
339.999695
 20
-34.000290
 40
9.000000
  0
LINE
  8
SCHRAUBEN
 62
6
 10
243.599716
 20
-30.400291
 11
236.399704
 21
-37.600292
  0
LINE
  8
SCHRAUBEN
 62
6
 10
236.399704
 20
-30.400291
 11
243.599716
 21
-37.600292
  0
CIRCLE
  8
SCHRAUBEN
 62
2
 10
239.999710
 20
-34.000290
 40
9.000000
  0
LINE
  8
SCHRAUBEN
 62
6
 10
143.600143
 20
-30.400896
 11
136.400162
 21
-37.600899
  0
LINE
  8
SCHRAUBEN
 62
6
 10
136.400162
 20
-30.400896
 11
143.600143
 21
-37.600899
  0
CIRCLE
  8
SCHRAUBEN
 62
2
 10
140.000153
 20
-34.000896
 40
9.000000
  0
LINE
  8
SCHRAUBEN
 62
6
 10
43.600155
 20
-30.400463
 11
36.400150
 21
-37.600464
  0
LINE
  8
SCHRAUBEN
 62
6
 10
36.400150
 20
-30.400463
 11
43.600155
 21
-37.600464
  0
CIRCLE
  8
SCHRAUBEN
 62
2
 10
40.000153
 20
-34.000465
 40
9.000000
  0
LINE
  8
SCHRAUBEN
 62
6
 10
93.599487
 20
114.599960
 11
86.399498
 21
107.399971
  0
LINE
  8
SCHRAUBEN
 62
6
 10
86.399498
 20
114.599960
 11
93.599487
 21
107.399971
  0
CIRCLE
  8
SCHRAUBEN
 62
2
 10
89.999496
 20
110.999969
 40
8.999992
  0
LINE
  8
SCHRAUBEN
 62
6
 10
93.599731
 20
64.599976
 11
86.399734
 21
57.399971
  0
LINE
  8
SCHRAUBEN
 62
6
 10
86.399734
 20
64.599976
 11
93.599731
 21
57.399971
  0
CIRCLE
  8
SCHRAUBEN
 62
2
 10
89.999733
 20
60.999969
 40
8.999992
  0
LINE
  8
SCHRAUBEN
 62
6
 10
165.600494
 20
114.599960
 11
158.400482
 21
107.399971
  0
LINE
  8
SCHRAUBEN
 62
6
 10
158.400482
 20
114.599960
 11
165.600494
 21
107.399971
  0
CIRCLE
  8
SCHRAUBEN
 62
2
 10
162.000488
 20
110.999969
 40
9.000000
  0
LINE
  8
SCHRAUBEN
 62
6
 10
165.600250
 20
64.599976
 11
158.400238
 21
57.399971
  0
LINE
  8
SCHRAUBEN
 62
6
 10
158.400238
 20
64.599976
 11
165.600250
 21
57.399971
  0
CIRCLE
  8
SCHRAUBEN
 62
2
 10
162.000244
 20
60.999969
 40
8.999985
  0
LINE
  8
SCHRAUBEN
 62
6
 10
327.410034
 20
93.824242
 11
320.210022
 21
86.624252
  0
LINE
  8
SCHRAUBEN
 62
6
 10
320.210022
 20
93.824242
 11
327.410034
 21
86.624252
  0
CIRCLE
  8
SCHRAUBEN
 62
2
 10
323.810059
 20
90.224243
 40
9.000000
  0
LINE
  8
SCHRAUBEN
 62
6
 10
285.067230
 20
67.233170
 11
277.867218
 21
60.033165
  0
LINE
  8
SCHRAUBEN
 62
6
 10
277.867218
 20
67.233170
 11
285.067230
 21
60.033165
  0
CIRCLE
  8
SCHRAUBEN
 62
2
 10
281.467224
 20
63.633163
 40
9.000000
  0
TEXT
 8
UNTERSCHRIFT
 62
2
 10
117.138092
 20
145.749832
 40
3.250000
 41
0.800000
 51
15.000000
  1
Project  DP0GN9  ,Qty. 12  , Pos. 
  0
TEXT
 8
UNTERSCHRIFT
 62
2
 10
218.538071
 20
145.749832
 40
3.250000
 41
0.800000
 51
15.000000
  1
  , Profi l PL302*10
  0
TEXT
 8
UNTERSCHRIFT
 62
2
 10
205.538086
 20
145.749832
 40
3.250000
 41
0.800000
 51
15.000000
  1
10391
  0
LINE
  8
TEILE
 62
2
 10
0.000000
 20
1.000129
 11
59.999382
 21
150.999832
  0
LINE
  8
TEILE
 62
2
 10
59.999382
 20
150.999832
 11
332.876831
 21
150.999832
  0
LINE
  8
TEILE
 62
2
 10
332.876831
 20
150.999832
 11
380.000000
 21
75.962288
  0
LINE
  8
TEILE
 62
2
 10
380.000000
 20
75.962288
 11
380.000000
 21
-68.999855
  0
LINE
  8
TEILE
 62
2
 10
380.000000
 20
-68.999855
 11
275.939575
 21
-68.999855
  0
LINE
  8
TEILE
 62
2
 10
275.939575
 20
-68.999855
 11
273.998566
 21
-69.037544
  0
LINE
  8
TEILE
 62
2
 10
273.998566
 20
-69.037544
 11
272.060486
 21
-69.150558
  0
LINE
  8
TEILE
 62
2
 10
272.060486
 20
-69.150558
 11
270.128265
 21
-69.338722
  0
LINE
  8
TEILE
 62
2
 10
270.128265
 20
-69.338722
 11
268.204773
 21
-69.601753
  0
LINE
  8
TEILE
 62
2
 10
268.204773
 20
-69.601753
 11
266.292999
 21
-69.939255
  0
LINE
  8
TEILE
 62
2
 10
266.292999
 20
-69.939255
 11
264.395721
 21
-70.350716
  0
LINE
  8
TEILE
 62
2
 10
264.395721
 20
-70.350716
 11
262.515839
 21
-70.835526
  0
LINE
  8
TEILE
 62
2
 10
262.515839
 20
-70.835526
 11
260.656219
 21
-71.392937
  0
LINE
  8
TEILE
 62
2
 10
260.656219
 20
-71.392937
 11
258.819641
 21
-72.022125
  0
LINE
  8
TEILE
 62
2
 10
258.819641
 20
-72.022125
 11
257.008881
 21
-72.722137
  0
LINE
  8
TEILE
 62
2
 10
257.008881
 20
-72.722137
 11
255.226624
 21
-73.491913
  0
LINE
  8
TEILE
 62
2
 10
255.226624
 20
-73.491913
 11
253.475632
 21
-74.330292
  0
LINE
  8
TEILE
 62
2
 10
253.475632
 20
-74.330292
 11
251.758484
 21
-75.236015
  0
LINE
  8
TEILE
 62
2
 10
251.758484
 20
-75.236015
 11
250.077805
 21
-76.207718
  0
LINE
  8
TEILE
 62
2
 10
250.077805
 20
-76.207718
 11
248.436111
 21
-77.243927
  0
LINE
  8
TEILE
 62
2
 10
248.436111
 20
-77.243927
 11
246.835861
 21
-78.343094
  0
LINE
  8
TEILE
 62
2
 10
246.835861
 20
-78.343094
 11
245.279510
 21
-79.503548
  0
LINE
  8
TEILE
 62
2
 10
245.279510
 20
-79.503548
 11
243.769363
 21
-80.723541
  0
LINE
  8
TEILE
 62
2
 10
243.769363
 20
-80.723541
 11
242.307724
 21
-82.001251
  0
LINE
  8
TEILE
 62
2
 10
242.307724
 20
-82.001251
 11
240.896774
 21
-83.334732
  0
LINE
  8
TEILE
 62
2
 10
240.896774
 20
-83.334732
 11
239.538666
 21
-84.721977
  0
LINE
  8
TEILE
 62
2
 10
239.538666
 20
-84.721977
 11
238.235443
 21
-86.160896
  0
LINE
  8
TEILE
 62
2
 10
238.235443
 20
-86.160896
 11
236.989059
 21
-87.649338
  0
LINE
  8
TEILE
 62
2
 10
236.989059
 20
-87.649338
 11
236.989014
 21
-87.649376
  0
LINE
  8
TEILE
 62
2
 10
236.989014
 20
-87.649376
 11
185.999603
 21
-150.999832
  0
LINE
  8
TEILE
 62
2
 10
185.999603
 20
-150.999832
 11
65.999603
 21
-150.999832
  0
LINE
  8
TEILE
 62
2
 10
65.999603
 20
-150.999832
 11
0.000000
 21
-68.999855
  0
LINE
  8
TEILE
 62
2
 10
0.000000
 20
-68.999855
 11
0.000000
 21
1.000129
  0
TEXT
 8
BEZ_SCHRAUBEN
 62
2
 10
331.999695
 20
-50.500290
 40
5.000000
 41
0.800000
 51
15.000000
  1
 ø18
  0
TEXT
 8
BEZ_SCHRAUBEN
 62
2
 10
231.999695
 20
-50.500290
 40
5.000000
 41
0.800000
 51
15.000000
  1
 ø18
  0
TEXT
 8
BEZ_SCHRAUBEN
 62
2
 10
132.000153
 20
-50.500900
 40
5.000000
 41
0.800000
 51
15.000000
  1
 ø18
  0
TEXT
 8
BEZ_SCHRAUBEN
 62
2
 10
32.000153
 20
-50.500465
 40
5.000000
 41
0.800000
 51
15.000000
  1
 ø18
  0
TEXT
 8
BEZ_SCHRAUBEN
 62
2
 10
81.999496
 20
94.499977
 40
5.000000
 41
0.800000
 51
15.000000
  1
 ø18
  0
TEXT
 8
BEZ_SCHRAUBEN
 62
2
 10
81.999733
 20
44.499969
 40
5.000000
 41
0.800000
 51
15.000000
  1
 ø18
  0
TEXT
 8
BEZ_SCHRAUBEN
 62
2
 10
154.000488
 20
94.499977
 40
5.000000
 41
0.799999
 51
15.000000
  1
 ø18
  0
TEXT
 8
BEZ_SCHRAUBEN
 62
2
 10
154.000259
 20
44.499969
 40
5.000000
 41
0.799999
 51
15.000000
  1
 ø18
  0
TEXT
 8
BEZ_SCHRAUBEN
 62
2
 10
315.810089
 20
73.724258
 40
4.999998
 41
0.800000
 51
15.000000
  1
 ø18
  0
TEXT
 8
BEZ_SCHRAUBEN
 62
2
 10
273.467224
 20
47.133163
 40
5.000000
 41
0.800000
 51
15.000000
  1
 ø18
  0
ENDSEC
  0
EOF

