999
     *******************************************
999
     BOCAD Software GmbH   Rev.18.000   0202.22
999
     Filename:   c:\progetti21\danieli_aqs\b4\temp_61\10398.dxf
999
     Creator:    bocad
999
     Date:       20.01.2016
999
     Factor:     10.000000
999
     *******************************************
  0
SECTION
  2
HEADER
  9
$DWGCODEPAGE
  3
ANSI_1252
  9
$INSBASE
 10
0.0
 20
0.0
 30
0.0
  9
$EXTMIN
 10
-0.499698
 20
-140.500021
  9
$EXTMAX
 10
290.499992
 20
140.500021
  9
$LIMMIN
 10
-1.499698
 20
-141.500021
  9
$LIMMAX
 10
291.499992
 20
141.500021
  9
$LTSCALE
 40
10.000000
  0
ENDSEC
  0
SECTION
  2
TABLES
  0
TABLE
  2
LTYPE
 70
4
  0
LTYPE
  2
CONTINUOUS
 70
64
  3
____________________________________________
 72
65
 73
0
 40
0.0
  0
LTYPE
  2
HIDDEN
 70
64
  3
__ __ __ __ __ __ __ __ __ __ __ __ __ __ __
 72
65
 73
2
 40
0.50
 49
0.30
 49
-0.20
  0
LTYPE
  2
DASHDOT
 70
64
  3
____ _ ____ _ ____ _ ____ _ ____ _ ____ _ __
 72
65
 73
4
 40
2.0
 49
1.5
 49
-0.25
 49
0
 49
-0.25
  0
LTYPE
  2
DOT
 70
64
  3
............................................
 72
65
 73
2
 40
0.30
 49
0
 49
-0.30
  0
ENDTAB
  0
TABLE
  2
LAYER
 70
23
  0
LAYER
  2
SCHRAUBEN
 70
64
 62
7
  6
CONTINUOUS
  0
LAYER
  2
REST
 70
64
 62
7
  6
CONTINUOUS
  0
LAYER
  2
UNTERSCHRIFT
 70
64
 62
7
  6
CONTINUOUS
  0
LAYER
  2
TEILE
 70
64
 62
7
  6
CONTINUOUS
  0
LAYER
  2
BEZ_SCHRAUBEN
 70
64
 62
7
  6
CONTINUOUS
  0
LAYER
  2
MARKERPUNKTE
 70
64
 62
7
  6
CONTINUOUS
  0
LAYER
  2
HILFSPUNKTE
 70
64
 62
7
  6
CONTINUOUS
  0
LAYER
  2
PICKPUNKTE
 70
64
 62
7
  6
CONTINUOUS
  0
LAYER
  2
SCHWEISSEN
 70
64
 62
7
  6
CONTINUOUS
  0
LAYER
  2
GRAFIK
 70
64
 62
7
  6
CONTINUOUS
  0
LAYER
  2
BEM_FREI
 70
64
 62
7
  6
CONTINUOUS
  0
LAYER
  2
BEM_SYSTEM
 70
64
 62
7
  6
CONTINUOUS
  0
LAYER
  2
BEM_KONTUR
 70
64
 62
7
  6
CONTINUOUS
  0
LAYER
  2
BEM_ANBAU
 70
64
 62
7
  6
CONTINUOUS
  0
LAYER
  2
BEM_SCHRAUBEN
 70
64
 62
7
  6
CONTINUOUS
  0
LAYER
  2
BEM_SCHWEISSEN
 70
64
 62
7
  6
CONTINUOUS
  0
LAYER
  2
FREIER_TEXT
 70
64
 62
7
  6
CONTINUOUS
  0
LAYER
  2
BEZ_TEILE
 70
64
 62
7
  6
CONTINUOUS
  0
LAYER
  2
BEZ_SCHWEISSEN
 70
64
 62
7
  6
CONTINUOUS
  0
LAYER
  2
SCHRAFFUREN
 70
64
 62
7
  6
CONTINUOUS
  0
LAYER
  2
SCHNITTSYMBOL
 70
64
 62
7
  6
CONTINUOUS
  0
LAYER
  2
RASTER
 70
64
 62
7
  6
CONTINUOUS
  0
LAYER
  2
LISTEN
 70
64
 62
7
  6
CONTINUOUS
  0
LAYER
  2
RAHMEN
 70
64
 62
7
  6
CONTINUOUS
  0
ENDTAB
  0
TABLE
  2
STYLE
 70
1
  0
STYLE
  2
STANDARD
 70
64
 40
0
 41
1
 50
0.0
 71
0
 42
0.35
  3
ROMANS
  0
ENDTAB
  0
ENDSEC
  0
SECTION
  2
ENTITIES
  0
LINE
  8
SCHRAUBEN
 62
6
 10
183.600311
 20
98.599655
 11
176.400299
 21
91.399658
  0
LINE
  8
SCHRAUBEN
 62
6
 10
176.400299
 20
98.599655
 11
183.600311
 21
91.399658
  0
CIRCLE
  8
SCHRAUBEN
 62
2
 10
180.000305
 20
94.999657
 40
9.000000
  0
LINE
  8
SCHRAUBEN
 62
6
 10
113.600304
 20
98.599655
 11
106.400307
 21
91.399658
  0
LINE
  8
SCHRAUBEN
 62
6
 10
106.400307
 20
98.599655
 11
113.600304
 21
91.399658
  0
CIRCLE
  8
SCHRAUBEN
 62
2
 10
110.000305
 20
94.999657
 40
9.000000
  0
LINE
  8
SCHRAUBEN
 62
6
 10
43.600304
 20
98.599655
 11
36.400299
 21
91.399658
  0
LINE
  8
SCHRAUBEN
 62
6
 10
36.400299
 20
98.599655
 11
43.600304
 21
91.399658
  0
CIRCLE
  8
SCHRAUBEN
 62
2
 10
40.000301
 20
94.999657
 40
9.000000
  0
LINE
  8
SCHRAUBEN
 62
6
 10
253.600311
 20
98.599655
 11
246.400299
 21
91.399658
  0
LINE
  8
SCHRAUBEN
 62
6
 10
246.400299
 20
98.599655
 11
253.600311
 21
91.399658
  0
CIRCLE
  8
SCHRAUBEN
 62
2
 10
250.000305
 20
94.999657
 40
9.000000
  0
LINE
  8
SCHRAUBEN
 62
6
 10
112.600700
 20
-46.400002
 11
105.400703
 21
-53.600006
  0
LINE
  8
SCHRAUBEN
 62
6
 10
105.400703
 20
-46.400002
 11
112.600700
 21
-53.600006
  0
CIRCLE
  8
SCHRAUBEN
 62
2
 10
109.000702
 20
-50.000004
 40
9.000000
  0
LINE
  8
SCHRAUBEN
 62
6
 10
112.600700
 20
-96.400002
 11
105.400703
 21
-103.599998
  0
LINE
  8
SCHRAUBEN
 62
6
 10
105.400703
 20
-96.400002
 11
112.600700
 21
-103.599998
  0
CIRCLE
  8
SCHRAUBEN
 62
2
 10
109.000702
 20
-100.000000
 40
9.000000
  0
LINE
  8
SCHRAUBEN
 62
6
 10
184.600677
 20
-46.400002
 11
177.400665
 21
-53.600006
  0
LINE
  8
SCHRAUBEN
 62
6
 10
177.400665
 20
-46.400002
 11
184.600677
 21
-53.600006
  0
CIRCLE
  8
SCHRAUBEN
 62
2
 10
181.000671
 20
-50.000004
 40
9.000000
  0
LINE
  8
SCHRAUBEN
 62
6
 10
184.600677
 20
-96.400002
 11
177.400665
 21
-103.599998
  0
LINE
  8
SCHRAUBEN
 62
6
 10
177.400665
 20
-96.400002
 11
184.600677
 21
-103.599998
  0
CIRCLE
  8
SCHRAUBEN
 62
2
 10
181.000671
 20
-100.000000
 40
9.000000
  0
TEXT
 8
UNTERSCHRIFT
 62
2
 10
218.707611
 20
-116.254814
 40
3.249999
 50
67.423141
 41
0.800000
 51
15.000000
  1
Project  DP0GN9  ,Qty. 5  , Pos. 
  0
TEXT
 8
UNTERSCHRIFT
 62
2
 10
256.639191
 20
-25.026340
 40
3.249999
 50
67.423126
 41
0.800000
 51
15.000000
  1
  , Profi l PL280*10
  0
TEXT
 8
UNTERSCHRIFT
 62
2
 10
251.648193
 20
-37.030087
 40
3.249999
 50
67.423126
 41
0.800000
 51
15.000000
  1
10398
  0
LINE
  8
TEILE
 62
2
 10
79.000694
 20
-140.000000
 11
0.000302
 21
49.999462
  0
LINE
  8
TEILE
 62
2
 10
0.000302
 20
49.999462
 11
0.000302
 21
140.000015
  0
LINE
  8
TEILE
 62
2
 10
0.000302
 20
140.000015
 11
290.000000
 21
140.000015
  0
LINE
  8
TEILE
 62
2
 10
290.000000
 20
140.000015
 11
290.000000
 21
49.999657
  0
LINE
  8
TEILE
 62
2
 10
290.000000
 20
49.999657
 11
211.000671
 21
-140.000015
  0
LINE
  8
TEILE
 62
2
 10
211.000671
 20
-140.000015
 11
79.000694
 21
-140.000000
  0
TEXT
 8
BEZ_SCHRAUBEN
 62
2
 10
172.000305
 20
78.499657
 40
5.000002
 41
0.800000
 51
15.000000
  1
 ø18
  0
ENDSEC
  0
EOF

