999
     *******************************************
999
     BOCAD Software GmbH   Rev.18.000   0202.22
999
     Filename:   c:\progetti21\danieli_aqs\b4\temp_61\10404.dxf
999
     Creator:    bocad
999
     Date:       20.01.2016
999
     Factor:     10.000000
999
     *******************************************
  0
SECTION
  2
HEADER
  9
$DWGCODEPAGE
  3
ANSI_1252
  9
$INSBASE
 10
0.0
 20
0.0
 30
0.0
  9
$EXTMIN
 10
-0.500000
 20
-92.001429
  9
$EXTMAX
 10
107.492476
 20
92.001429
  9
$LIMMIN
 10
-1.500000
 20
-93.001429
  9
$LIMMAX
 10
108.492476
 20
93.001429
  9
$LTSCALE
 40
10.000000
  0
ENDSEC
  0
SECTION
  2
TABLES
  0
TABLE
  2
LTYPE
 70
4
  0
LTYPE
  2
CONTINUOUS
 70
64
  3
____________________________________________
 72
65
 73
0
 40
0.0
  0
LTYPE
  2
HIDDEN
 70
64
  3
__ __ __ __ __ __ __ __ __ __ __ __ __ __ __
 72
65
 73
2
 40
0.50
 49
0.30
 49
-0.20
  0
LTYPE
  2
DASHDOT
 70
64
  3
____ _ ____ _ ____ _ ____ _ ____ _ ____ _ __
 72
65
 73
4
 40
2.0
 49
1.5
 49
-0.25
 49
0
 49
-0.25
  0
LTYPE
  2
DOT
 70
64
  3
............................................
 72
65
 73
2
 40
0.30
 49
0
 49
-0.30
  0
ENDTAB
  0
TABLE
  2
LAYER
 70
23
  0
LAYER
  2
SCHRAUBEN
 70
64
 62
7
  6
CONTINUOUS
  0
LAYER
  2
REST
 70
64
 62
7
  6
CONTINUOUS
  0
LAYER
  2
UNTERSCHRIFT
 70
64
 62
7
  6
CONTINUOUS
  0
LAYER
  2
TEILE
 70
64
 62
7
  6
CONTINUOUS
  0
LAYER
  2
BEZ_SCHRAUBEN
 70
64
 62
7
  6
CONTINUOUS
  0
LAYER
  2
MARKERPUNKTE
 70
64
 62
7
  6
CONTINUOUS
  0
LAYER
  2
HILFSPUNKTE
 70
64
 62
7
  6
CONTINUOUS
  0
LAYER
  2
PICKPUNKTE
 70
64
 62
7
  6
CONTINUOUS
  0
LAYER
  2
SCHWEISSEN
 70
64
 62
7
  6
CONTINUOUS
  0
LAYER
  2
GRAFIK
 70
64
 62
7
  6
CONTINUOUS
  0
LAYER
  2
BEM_FREI
 70
64
 62
7
  6
CONTINUOUS
  0
LAYER
  2
BEM_SYSTEM
 70
64
 62
7
  6
CONTINUOUS
  0
LAYER
  2
BEM_KONTUR
 70
64
 62
7
  6
CONTINUOUS
  0
LAYER
  2
BEM_ANBAU
 70
64
 62
7
  6
CONTINUOUS
  0
LAYER
  2
BEM_SCHRAUBEN
 70
64
 62
7
  6
CONTINUOUS
  0
LAYER
  2
BEM_SCHWEISSEN
 70
64
 62
7
  6
CONTINUOUS
  0
LAYER
  2
FREIER_TEXT
 70
64
 62
7
  6
CONTINUOUS
  0
LAYER
  2
BEZ_TEILE
 70
64
 62
7
  6
CONTINUOUS
  0
LAYER
  2
BEZ_SCHWEISSEN
 70
64
 62
7
  6
CONTINUOUS
  0
LAYER
  2
SCHRAFFUREN
 70
64
 62
7
  6
CONTINUOUS
  0
LAYER
  2
SCHNITTSYMBOL
 70
64
 62
7
  6
CONTINUOUS
  0
LAYER
  2
RASTER
 70
64
 62
7
  6
CONTINUOUS
  0
LAYER
  2
LISTEN
 70
64
 62
7
  6
CONTINUOUS
  0
LAYER
  2
RAHMEN
 70
64
 62
7
  6
CONTINUOUS
  0
ENDTAB
  0
TABLE
  2
STYLE
 70
1
  0
STYLE
  2
STANDARD
 70
64
 40
0
 41
1
 50
0.0
 71
0
 42
0.35
  3
ROMANS
  0
ENDTAB
  0
ENDSEC
  0
SECTION
  2
ENTITIES
  0
LINE
  8
SCHRAUBEN
 62
6
 10
55.589710
 20
52.601837
 11
48.389706
 21
45.401836
  0
LINE
  8
SCHRAUBEN
 62
6
 10
48.389706
 20
52.601837
 11
55.589710
 21
45.401836
  0
CIRCLE
  8
SCHRAUBEN
 62
2
 10
51.989708
 20
49.001839
 40
9.000000
  0
LINE
  8
SCHRAUBEN
 62
6
 10
55.589710
 20
-32.398163
 11
48.389706
 21
-39.598164
  0
LINE
  8
SCHRAUBEN
 62
6
 10
48.389706
 20
-32.398167
 11
55.589710
 21
-39.598164
  0
CIRCLE
  8
SCHRAUBEN
 62
2
 10
51.989708
 20
-35.998165
 40
9.000000
  0
TEXT
 8
UNTERSCHRIFT
 62
2
 10
104.992477
 20
-69.298370
 40
3.000000
 50
90.000000
 41
0.800000
 51
15.000000
  1
Project  DP0GN9  ,Qty. 47/48  , Pos. 
  0
TEXT
 8
UNTERSCHRIFT
 62
2
 10
104.992477
 20
31.501635
 40
3.000000
 50
90.000000
 41
0.800000
 51
15.000000
  1
  , Profi l PL183*12
  0
TEXT
 8
UNTERSCHRIFT
 62
2
 10
104.992477
 20
19.501633
 40
3.000000
 50
90.000000
 41
0.800000
 51
15.000000
  1
10404
  0
LINE
  8
TEILE
 62
2
 10
91.992477
 20
-91.498703
 11
15.000000
 21
-91.501427
  0
LINE
  8
TEILE
 62
2
 10
15.000000
 20
-91.501427
 11
0.000000
 21
-76.501961
  0
LINE
  8
TEILE
 62
2
 10
0.000000
 20
-76.501961
 11
0.000000
 21
-13.501966
  0
LINE
  8
TEILE
 62
2
 10
0.000000
 20
-13.501966
 11
6.989765
 21
-13.501966
  0
LINE
  8
TEILE
 62
2
 10
6.989765
 20
-13.501966
 11
8.110714
 21
-13.460022
  0
LINE
  8
TEILE
 62
2
 10
8.110714
 20
-13.460022
 11
9.225396
 21
-13.334428
  0
LINE
  8
TEILE
 62
2
 10
9.225396
 20
-13.334428
 11
10.327576
 21
-13.125885
  0
LINE
  8
TEILE
 62
2
 10
10.327576
 20
-13.125885
 11
11.411089
 21
-12.835559
  0
LINE
  8
TEILE
 62
2
 10
11.411089
 20
-12.835559
 11
12.469875
 21
-12.465075
  0
LINE
  8
TEILE
 62
2
 10
12.469875
 20
-12.465075
 11
13.498015
 21
-12.016501
  0
LINE
  8
TEILE
 62
2
 10
13.498015
 20
-12.016501
 11
14.489759
 21
-11.492350
  0
LINE
  8
TEILE
 62
2
 10
14.489759
 20
-11.492350
 11
15.439559
 21
-10.895552
  0
LINE
  8
TEILE
 62
2
 10
15.439559
 20
-10.895552
 11
16.342106
 21
-10.229443
  0
LINE
  8
TEILE
 62
2
 10
16.342106
 20
-10.229443
 11
17.192350
 21
-9.497748
  0
LINE
  8
TEILE
 62
2
 10
17.192350
 20
-9.497748
 11
17.985537
 21
-8.704561
  0
LINE
  8
TEILE
 62
2
 10
17.985537
 20
-8.704561
 11
18.717232
 21
-7.854318
  0
LINE
  8
TEILE
 62
2
 10
18.717232
 20
-7.854318
 11
19.383343
 21
-6.951772
  0
LINE
  8
TEILE
 62
2
 10
19.383343
 20
-6.951772
 11
19.980143
 21
-6.001971
  0
LINE
  8
TEILE
 62
2
 10
19.980143
 20
-6.001971
 11
20.504293
 21
-5.010228
  0
LINE
  8
TEILE
 62
2
 10
20.504293
 20
-5.010228
 11
20.952869
 21
-3.982087
  0
LINE
  8
TEILE
 62
2
 10
20.952869
 20
-3.982087
 11
21.323355
 21
-2.923299
  0
LINE
  8
TEILE
 62
2
 10
21.323355
 20
-2.923299
 11
21.613682
 21
-1.839786
  0
LINE
  8
TEILE
 62
2
 10
21.613682
 20
-1.839786
 11
21.822226
 21
-0.737606
  0
LINE
  8
TEILE
 62
2
 10
21.822226
 20
-0.737606
 11
21.947821
 21
0.377077
  0
LINE
  8
TEILE
 62
2
 10
21.947821
 20
0.377077
 11
21.989763
 21
1.498028
  0
LINE
  8
TEILE
 62
2
 10
21.989763
 20
1.498028
 11
21.989763
 21
1.498034
  0
LINE
  8
TEILE
 62
2
 10
21.989763
 20
1.498034
 11
21.989763
 21
91.501427
  0
LINE
  8
TEILE
 62
2
 10
21.989763
 20
91.501427
 11
106.992477
 21
91.501427
  0
LINE
  8
TEILE
 62
2
 10
106.992477
 20
91.501427
 11
106.992477
 21
-76.498161
  0
LINE
  8
TEILE
 62
2
 10
106.992477
 20
-76.498161
 11
91.992477
 21
-91.498703
  0
TEXT
 8
BEZ_SCHRAUBEN
 62
2
 10
43.989700
 20
32.501835
 40
5.000000
 41
0.800000
 51
15.000000
  1
 ø18
  0
ENDSEC
  0
EOF

