999
     *******************************************
999
     BOCAD Software GmbH   Rev.18.000   0202.22
999
     Filename:   c:\progetti21\danieli_aqs\b4\temp_61\10406.dxf
999
     Creator:    bocad
999
     Date:       20.01.2016
999
     Factor:     10.000000
999
     *******************************************
  0
SECTION
  2
HEADER
  9
$DWGCODEPAGE
  3
ANSI_1252
  9
$INSBASE
 10
0.0
 20
0.0
 30
0.0
  9
$EXTMIN
 10
-0.500000
 20
-65.500026
  9
$EXTMAX
 10
182.500076
 20
65.500026
  9
$LIMMIN
 10
-1.500000
 20
-66.500026
  9
$LIMMAX
 10
183.500076
 20
66.500026
  9
$LTSCALE
 40
10.000000
  0
ENDSEC
  0
SECTION
  2
TABLES
  0
TABLE
  2
LTYPE
 70
4
  0
LTYPE
  2
CONTINUOUS
 70
64
  3
____________________________________________
 72
65
 73
0
 40
0.0
  0
LTYPE
  2
HIDDEN
 70
64
  3
__ __ __ __ __ __ __ __ __ __ __ __ __ __ __
 72
65
 73
2
 40
0.50
 49
0.30
 49
-0.20
  0
LTYPE
  2
DASHDOT
 70
64
  3
____ _ ____ _ ____ _ ____ _ ____ _ ____ _ __
 72
65
 73
4
 40
2.0
 49
1.5
 49
-0.25
 49
0
 49
-0.25
  0
LTYPE
  2
DOT
 70
64
  3
............................................
 72
65
 73
2
 40
0.30
 49
0
 49
-0.30
  0
ENDTAB
  0
TABLE
  2
LAYER
 70
23
  0
LAYER
  2
SCHRAUBEN
 70
64
 62
7
  6
CONTINUOUS
  0
LAYER
  2
REST
 70
64
 62
7
  6
CONTINUOUS
  0
LAYER
  2
UNTERSCHRIFT
 70
64
 62
7
  6
CONTINUOUS
  0
LAYER
  2
TEILE
 70
64
 62
7
  6
CONTINUOUS
  0
LAYER
  2
BEZ_SCHRAUBEN
 70
64
 62
7
  6
CONTINUOUS
  0
LAYER
  2
MARKERPUNKTE
 70
64
 62
7
  6
CONTINUOUS
  0
LAYER
  2
HILFSPUNKTE
 70
64
 62
7
  6
CONTINUOUS
  0
LAYER
  2
PICKPUNKTE
 70
64
 62
7
  6
CONTINUOUS
  0
LAYER
  2
SCHWEISSEN
 70
64
 62
7
  6
CONTINUOUS
  0
LAYER
  2
GRAFIK
 70
64
 62
7
  6
CONTINUOUS
  0
LAYER
  2
BEM_FREI
 70
64
 62
7
  6
CONTINUOUS
  0
LAYER
  2
BEM_SYSTEM
 70
64
 62
7
  6
CONTINUOUS
  0
LAYER
  2
BEM_KONTUR
 70
64
 62
7
  6
CONTINUOUS
  0
LAYER
  2
BEM_ANBAU
 70
64
 62
7
  6
CONTINUOUS
  0
LAYER
  2
BEM_SCHRAUBEN
 70
64
 62
7
  6
CONTINUOUS
  0
LAYER
  2
BEM_SCHWEISSEN
 70
64
 62
7
  6
CONTINUOUS
  0
LAYER
  2
FREIER_TEXT
 70
64
 62
7
  6
CONTINUOUS
  0
LAYER
  2
BEZ_TEILE
 70
64
 62
7
  6
CONTINUOUS
  0
LAYER
  2
BEZ_SCHWEISSEN
 70
64
 62
7
  6
CONTINUOUS
  0
LAYER
  2
SCHRAFFUREN
 70
64
 62
7
  6
CONTINUOUS
  0
LAYER
  2
SCHNITTSYMBOL
 70
64
 62
7
  6
CONTINUOUS
  0
LAYER
  2
RASTER
 70
64
 62
7
  6
CONTINUOUS
  0
LAYER
  2
LISTEN
 70
64
 62
7
  6
CONTINUOUS
  0
LAYER
  2
RAHMEN
 70
64
 62
7
  6
CONTINUOUS
  0
ENDTAB
  0
TABLE
  2
STYLE
 70
1
  0
STYLE
  2
STANDARD
 70
64
 40
0
 41
1
 50
0.0
 71
0
 42
0.35
  3
ROMANS
  0
ENDTAB
  0
ENDSEC
  0
SECTION
  2
ENTITIES
  0
LINE
  8
SCHRAUBEN
 62
6
 10
81.394127
 20
4.399945
 11
72.594131
 21
-4.400056
  0
LINE
  8
SCHRAUBEN
 62
6
 10
72.594131
 20
4.399945
 11
81.394127
 21
-4.400056
  0
CIRCLE
  8
SCHRAUBEN
 62
2
 10
76.994125
 20
-0.000055
 40
11.000000
  0
LINE
  8
SCHRAUBEN
 62
6
 10
141.394135
 20
4.399945
 11
132.594131
 21
-4.400056
  0
LINE
  8
SCHRAUBEN
 62
6
 10
132.594131
 20
4.399945
 11
141.394135
 21
-4.400056
  0
CIRCLE
  8
SCHRAUBEN
 62
2
 10
136.994141
 20
-0.000055
 40
11.000000
  0
TEXT
 8
UNTERSCHRIFT
 62
2
 10
5.300081
 20
-63.000027
 40
3.000000
 41
0.800000
 51
15.000000
  1
Project  DP0GN9  ,Qty. 17  , Pos. 
  0
TEXT
 8
UNTERSCHRIFT
 62
2
 10
98.900078
 20
-63.000027
 40
3.000000
 41
0.800000
 51
15.000000
  1
  , Profi l PL130*12
  0
TEXT
 8
UNTERSCHRIFT
 62
2
 10
86.900085
 20
-63.000027
 40
3.000000
 41
0.800000
 51
15.000000
  1
10406
  0
LINE
  8
TEILE
 62
2
 10
157.000153
 20
65.000023
 11
182.000092
 21
50.000000
  0
LINE
  8
TEILE
 62
2
 10
182.000092
 20
50.000000
 11
182.000092
 21
-49.999996
  0
LINE
  8
TEILE
 62
2
 10
182.000092
 20
-49.999996
 11
157.000168
 21
-65.000023
  0
LINE
  8
TEILE
 62
2
 10
157.000168
 20
-65.000023
 11
-0.000000
 21
-65.000023
  0
LINE
  8
TEILE
 62
2
 10
-0.000000
 20
-65.000023
 11
0.000000
 21
44.999943
  0
LINE
  8
TEILE
 62
2
 10
0.000000
 20
44.999943
 11
20.000076
 21
65.000023
  0
LINE
  8
TEILE
 62
2
 10
20.000076
 20
65.000023
 11
157.000153
 21
65.000023
  0
TEXT
 8
BEZ_SCHRAUBEN
 62
2
 10
68.994125
 20
-18.500055
 40
5.000000
 41
0.800000
 51
15.000000
  1
 ø22
  0
ENDSEC
  0
EOF

