999
     *******************************************
999
     BOCAD Software GmbH   Rev.18.000   0202.22
999
     Filename:   c:\progetti21\danieli_aqs\b4\temp_63\10628.dxf
999
     Creator:    bocad
999
     Date:       20.01.2016
999
     Factor:     10.000000
999
     *******************************************
  0
SECTION
  2
HEADER
  9
$DWGCODEPAGE
  3
ANSI_1252
  9
$INSBASE
 10
0.0
 20
0.0
 30
0.0
  9
$EXTMIN
 10
-0.451493
 20
-20.500000
  9
$EXTMAX
 10
2993.548584
 20
20.500000
  9
$LIMMIN
 10
-1.451493
 20
-21.500000
  9
$LIMMAX
 10
2994.548584
 20
21.500000
  9
$LTSCALE
 40
10.000000
  0
ENDSEC
  0
SECTION
  2
TABLES
  0
TABLE
  2
LTYPE
 70
4
  0
LTYPE
  2
CONTINUOUS
 70
64
  3
____________________________________________
 72
65
 73
0
 40
0.0
  0
LTYPE
  2
HIDDEN
 70
64
  3
__ __ __ __ __ __ __ __ __ __ __ __ __ __ __
 72
65
 73
2
 40
0.50
 49
0.30
 49
-0.20
  0
LTYPE
  2
DASHDOT
 70
64
  3
____ _ ____ _ ____ _ ____ _ ____ _ ____ _ __
 72
65
 73
4
 40
2.0
 49
1.5
 49
-0.25
 49
0
 49
-0.25
  0
LTYPE
  2
DOT
 70
64
  3
............................................
 72
65
 73
2
 40
0.30
 49
0
 49
-0.30
  0
ENDTAB
  0
TABLE
  2
LAYER
 70
23
  0
LAYER
  2
SCHRAUBEN
 70
64
 62
7
  6
CONTINUOUS
  0
LAYER
  2
REST
 70
64
 62
7
  6
CONTINUOUS
  0
LAYER
  2
UNTERSCHRIFT
 70
64
 62
7
  6
CONTINUOUS
  0
LAYER
  2
TEILE
 70
64
 62
7
  6
CONTINUOUS
  0
LAYER
  2
BEZ_SCHRAUBEN
 70
64
 62
7
  6
CONTINUOUS
  0
LAYER
  2
MARKERPUNKTE
 70
64
 62
7
  6
CONTINUOUS
  0
LAYER
  2
HILFSPUNKTE
 70
64
 62
7
  6
CONTINUOUS
  0
LAYER
  2
PICKPUNKTE
 70
64
 62
7
  6
CONTINUOUS
  0
LAYER
  2
SCHWEISSEN
 70
64
 62
7
  6
CONTINUOUS
  0
LAYER
  2
GRAFIK
 70
64
 62
7
  6
CONTINUOUS
  0
LAYER
  2
BEM_FREI
 70
64
 62
7
  6
CONTINUOUS
  0
LAYER
  2
BEM_SYSTEM
 70
64
 62
7
  6
CONTINUOUS
  0
LAYER
  2
BEM_KONTUR
 70
64
 62
7
  6
CONTINUOUS
  0
LAYER
  2
BEM_ANBAU
 70
64
 62
7
  6
CONTINUOUS
  0
LAYER
  2
BEM_SCHRAUBEN
 70
64
 62
7
  6
CONTINUOUS
  0
LAYER
  2
BEM_SCHWEISSEN
 70
64
 62
7
  6
CONTINUOUS
  0
LAYER
  2
FREIER_TEXT
 70
64
 62
7
  6
CONTINUOUS
  0
LAYER
  2
BEZ_TEILE
 70
64
 62
7
  6
CONTINUOUS
  0
LAYER
  2
BEZ_SCHWEISSEN
 70
64
 62
7
  6
CONTINUOUS
  0
LAYER
  2
SCHRAFFUREN
 70
64
 62
7
  6
CONTINUOUS
  0
LAYER
  2
SCHNITTSYMBOL
 70
64
 62
7
  6
CONTINUOUS
  0
LAYER
  2
RASTER
 70
64
 62
7
  6
CONTINUOUS
  0
LAYER
  2
LISTEN
 70
64
 62
7
  6
CONTINUOUS
  0
LAYER
  2
RAHMEN
 70
64
 62
7
  6
CONTINUOUS
  0
ENDTAB
  0
TABLE
  2
STYLE
 70
1
  0
STYLE
  2
STANDARD
 70
64
 40
0
 41
1
 50
0.0
 71
0
 42
0.35
  3
ROMANS
  0
ENDTAB
  0
ENDSEC
  0
SECTION
  2
ENTITIES
  0
LINE
  8
SCHRAUBEN
 62
6
 10
32.843533
 20
-2.196415
 11
27.243534
 21
-7.796415
  0
LINE
  8
SCHRAUBEN
 62
6
 10
27.243534
 20
-2.196415
 11
32.843533
 21
-7.796415
  0
CIRCLE
  8
SCHRAUBEN
 62
2
 10
30.043533
 20
-4.996415
 40
7.000000
  0
LINE
  8
SCHRAUBEN
 62
6
 10
1532.848145
 20
-2.200101
 11
1527.248291
 21
-7.800101
  0
LINE
  8
SCHRAUBEN
 62
6
 10
1527.248291
 20
-2.200101
 11
1532.848145
 21
-7.800101
  0
CIRCLE
  8
SCHRAUBEN
 62
2
 10
1530.048218
 20
-5.000101
 40
7.000000
  0
LINE
  8
SCHRAUBEN
 62
6
 10
2912.843750
 20
-2.204432
 11
2907.243652
 21
-7.804432
  0
LINE
  8
SCHRAUBEN
 62
6
 10
2907.243652
 20
-2.204432
 11
2912.843750
 21
-7.804432
  0
CIRCLE
  8
SCHRAUBEN
 62
2
 10
2910.043701
 20
-5.004432
 40
7.000000
  0
TEXT
 8
UNTERSCHRIFT
 62
2
 10
60.281273
 20
-18.000000
 40
3.250000
 41
0.800000
 51
15.000000
  1
Project  DP0GN9  ,Qty. 24  , Pos. 
  0
TEXT
 8
UNTERSCHRIFT
 62
2
 10
161.681274
 20
-18.000000
 40
3.250000
 41
0.800000
 51
15.000000
  1
  , Profi l PL40*5
  0
TEXT
 8
UNTERSCHRIFT
 62
2
 10
148.681274
 20
-18.000000
 40
3.250000
 41
0.800000
 51
15.000000
  1
10628
  0
LINE
  8
TEILE
 62
2
 10
0.048507
 20
-20.000000
 11
0.048507
 21
20.000000
  0
LINE
  8
TEILE
 62
2
 10
0.048507
 20
20.000000
 11
2993.048828
 21
20.000000
  0
LINE
  8
TEILE
 62
2
 10
2993.048828
 20
20.000000
 11
2993.048828
 21
-20.000000
  0
LINE
  8
TEILE
 62
2
 10
2993.048828
 20
-20.000000
 11
2738.210449
 21
-19.999992
  0
LINE
  8
TEILE
 62
2
 10
2738.210449
 20
-19.999992
 11
2738.172363
 21
-19.128433
  0
LINE
  8
TEILE
 62
2
 10
2738.172363
 20
-19.128433
 11
2738.058594
 21
-18.263506
  0
LINE
  8
TEILE
 62
2
 10
2738.058594
 20
-18.263506
 11
2737.869629
 21
-17.411793
  0
LINE
  8
TEILE
 62
2
 10
2737.869629
 20
-17.411793
 11
2737.607422
 21
-16.579777
  0
LINE
  8
TEILE
 62
2
 10
2737.607422
 20
-16.579777
 11
2737.273438
 21
-15.773791
  0
LINE
  8
TEILE
 62
2
 10
2737.273438
 20
-15.773791
 11
2736.870605
 21
-14.999968
  0
LINE
  8
TEILE
 62
2
 10
2736.870605
 20
-14.999968
 11
2736.401855
 21
-14.264197
  0
LINE
  8
TEILE
 62
2
 10
2736.401855
 20
-14.264197
 11
2735.871094
 21
-13.572079
  0
LINE
  8
TEILE
 62
2
 10
2735.871094
 20
-13.572079
 11
2735.281250
 21
-12.928882
  0
LINE
  8
TEILE
 62
2
 10
2735.281250
 20
-12.928882
 11
2734.638428
 21
-12.339499
  0
LINE
  8
TEILE
 62
2
 10
2734.638428
 20
-12.339499
 11
2733.946289
 21
-11.808418
  0
LINE
  8
TEILE
 62
2
 10
2733.946289
 20
-11.808418
 11
2733.210449
 21
-11.339680
  0
LINE
  8
TEILE
 62
2
 10
2733.210449
 20
-11.339680
 11
2732.436523
 21
-10.936852
  0
LINE
  8
TEILE
 62
2
 10
2732.436523
 20
-10.936852
 11
2731.630615
 21
-10.602999
  0
LINE
  8
TEILE
 62
2
 10
2731.630615
 20
-10.602999
 11
2730.798584
 21
-10.340663
  0
LINE
  8
TEILE
 62
2
 10
2730.798584
 20
-10.340663
 11
2729.946777
 21
-10.151842
  0
LINE
  8
TEILE
 62
2
 10
2729.946777
 20
-10.151842
 11
2729.082031
 21
-10.037971
  0
LINE
  8
TEILE
 62
2
 10
2729.082031
 20
-10.037971
 11
2728.210449
 21
-9.999918
  0
LINE
  8
TEILE
 62
2
 10
2728.210449
 20
-9.999918
 11
2728.210449
 21
-10.000004
  0
LINE
  8
TEILE
 62
2
 10
2728.210449
 20
-10.000004
 11
2545.885742
 21
-9.999930
  0
LINE
  8
TEILE
 62
2
 10
2545.885742
 20
-9.999930
 11
2545.014160
 21
-10.037876
  0
LINE
  8
TEILE
 62
2
 10
2545.014160
 20
-10.037876
 11
2544.149414
 21
-10.151715
  0
LINE
  8
TEILE
 62
2
 10
2544.149414
 20
-10.151715
 11
2543.297607
 21
-10.340513
  0
LINE
  8
TEILE
 62
2
 10
2543.297607
 20
-10.340513
 11
2542.465576
 21
-10.602829
  0
LINE
  8
TEILE
 62
2
 10
2542.465576
 20
-10.602829
 11
2541.659668
 21
-10.936669
  0
LINE
  8
TEILE
 62
2
 10
2541.659668
 20
-10.936669
 11
2540.885742
 21
-11.339492
  0
LINE
  8
TEILE
 62
2
 10
2540.885742
 20
-11.339492
 11
2540.149902
 21
-11.808229
  0
LINE
  8
TEILE
 62
2
 10
2540.149902
 20
-11.808229
 11
2539.457764
 21
-12.339316
  0
LINE
  8
TEILE
 62
2
 10
2539.457764
 20
-12.339316
 11
2538.814453
 21
-12.928707
  0
LINE
  8
TEILE
 62
2
 10
2538.814453
 20
-12.928707
 11
2538.225098
 21
-13.571919
  0
LINE
  8
TEILE
 62
2
 10
2538.225098
 20
-13.571919
 11
2537.694092
 21
-14.264053
  0
LINE
  8
TEILE
 62
2
 10
2537.694092
 20
-14.264053
 11
2537.225342
 21
-14.999843
  0
LINE
  8
TEILE
 62
2
 10
2537.225342
 20
-14.999843
 11
2536.822510
 21
-15.773686
  0
LINE
  8
TEILE
 62
2
 10
2536.822510
 20
-15.773686
 11
2536.488770
 21
-16.579695
  0
LINE
  8
TEILE
 62
2
 10
2536.488770
 20
-16.579695
 11
2536.226563
 21
-17.411732
  0
LINE
  8
TEILE
 62
2
 10
2536.226563
 20
-17.411732
 11
2536.037598
 21
-18.263466
  0
LINE
  8
TEILE
 62
2
 10
2536.037598
 20
-18.263466
 11
2535.923828
 21
-19.128412
  0
LINE
  8
TEILE
 62
2
 10
2535.923828
 20
-19.128412
 11
2535.885742
 21
-19.999989
  0
LINE
  8
TEILE
 62
2
 10
2535.885742
 20
-19.999989
 11
2535.885742
 21
-19.999987
  0
LINE
  8
TEILE
 62
2
 10
2535.885742
 20
-19.999987
 11
476.238953
 21
-19.999926
  0
LINE
  8
TEILE
 62
2
 10
476.238953
 20
-19.999926
 11
476.200867
 21
-19.128366
  0
LINE
  8
TEILE
 62
2
 10
476.200867
 20
-19.128366
 11
476.087036
 21
-18.263439
  0
LINE
  8
TEILE
 62
2
 10
476.087036
 20
-18.263439
 11
475.898193
 21
-17.411728
  0
LINE
  8
TEILE
 62
2
 10
475.898193
 20
-17.411728
 11
475.635864
 21
-16.579714
  0
LINE
  8
TEILE
 62
2
 10
475.635864
 20
-16.579714
 11
475.302063
 21
-15.773729
  0
LINE
  8
TEILE
 62
2
 10
475.302063
 20
-15.773729
 11
474.899231
 21
-14.999908
  0
LINE
  8
TEILE
 62
2
 10
474.899231
 20
-14.999908
 11
474.430481
 21
-14.264141
  0
LINE
  8
TEILE
 62
2
 10
474.430481
 20
-14.264141
 11
473.899414
 21
-13.572026
  0
LINE
  8
TEILE
 62
2
 10
473.899414
 20
-13.572026
 11
473.309998
 21
-12.928833
  0
LINE
  8
TEILE
 62
2
 10
473.309998
 20
-12.928833
 11
472.666809
 21
-12.339455
  0
LINE
  8
TEILE
 62
2
 10
472.666809
 20
-12.339455
 11
471.974731
 21
-11.808378
  0
LINE
  8
TEILE
 62
2
 10
471.974731
 20
-11.808378
 11
471.238953
 21
-11.339645
  0
LINE
  8
TEILE
 62
2
 10
471.238953
 20
-11.339645
 11
470.465118
 21
-10.936823
  0
LINE
  8
TEILE
 62
2
 10
470.465118
 20
-10.936823
 11
469.659149
 21
-10.602976
  0
LINE
  8
TEILE
 62
2
 10
469.659149
 20
-10.602976
 11
468.827148
 21
-10.340648
  0
LINE
  8
TEILE
 62
2
 10
468.827148
 20
-10.340648
 11
467.975433
 21
-10.151833
  0
LINE
  8
TEILE
 62
2
 10
467.975433
 20
-10.151833
 11
467.110474
 21
-10.037968
  0
LINE
  8
TEILE
 62
2
 10
467.110474
 20
-10.037968
 11
466.238953
 21
-9.999922
  0
LINE
  8
TEILE
 62
2
 10
466.238953
 20
-9.999922
 11
466.238953
 21
-9.999930
  0
LINE
  8
TEILE
 62
2
 10
466.238953
 20
-9.999930
 11
283.914032
 21
-10.000004
  0
LINE
  8
TEILE
 62
2
 10
283.914032
 20
-10.000004
 11
283.042480
 21
-10.038051
  0
LINE
  8
TEILE
 62
2
 10
283.042480
 20
-10.038051
 11
282.177551
 21
-10.151918
  0
LINE
  8
TEILE
 62
2
 10
282.177551
 20
-10.151918
 11
281.325836
 21
-10.340737
  0
LINE
  8
TEILE
 62
2
 10
281.325836
 20
-10.340737
 11
280.493835
 21
-10.603067
  0
LINE
  8
TEILE
 62
2
 10
280.493835
 20
-10.603067
 11
279.687836
 21
-10.936916
  0
LINE
  8
TEILE
 62
2
 10
279.687836
 20
-10.936916
 11
278.914032
 21
-11.339740
  0
LINE
  8
TEILE
 62
2
 10
278.914032
 20
-11.339740
 11
278.178284
 21
-11.808473
  0
LINE
  8
TEILE
 62
2
 10
278.178284
 20
-11.808473
 11
277.486145
 21
-12.339549
  0
LINE
  8
TEILE
 62
2
 10
277.486145
 20
-12.339549
 11
276.842957
 21
-12.928926
  0
LINE
  8
TEILE
 62
2
 10
276.842957
 20
-12.928926
 11
276.253601
 21
-13.572119
  0
LINE
  8
TEILE
 62
2
 10
276.253601
 20
-13.572119
 11
275.722504
 21
-14.264231
  0
LINE
  8
TEILE
 62
2
 10
275.722504
 20
-14.264231
 11
275.253784
 21
-14.999995
  0
LINE
  8
TEILE
 62
2
 10
275.253784
 20
-14.999995
 11
274.850952
 21
-15.773812
  0
LINE
  8
TEILE
 62
2
 10
274.850952
 20
-15.773812
 11
274.517090
 21
-16.579796
  0
LINE
  8
TEILE
 62
2
 10
274.517090
 20
-16.579796
 11
274.254791
 21
-17.411806
  0
LINE
  8
TEILE
 62
2
 10
274.254791
 20
-17.411806
 11
274.065948
 21
-18.263515
  0
LINE
  8
TEILE
 62
2
 10
274.065948
 20
-18.263515
 11
273.952087
 21
-19.128439
  0
LINE
  8
TEILE
 62
2
 10
273.952087
 20
-19.128439
 11
273.914032
 21
-19.999998
  0
LINE
  8
TEILE
 62
2
 10
273.914032
 20
-19.999998
 11
273.914032
 21
-20.000000
  0
LINE
  8
TEILE
 62
2
 10
273.914032
 20
-20.000000
 11
37.896847
 21
-20.000000
  0
LINE
  8
TEILE
 62
2
 10
21.628275
 20
-20.000000
 11
0.048507
 21
-20.000000
  0
TEXT
 8
BEZ_SCHRAUBEN
 62
2
 10
22.043533
 20
-19.496414
 40
5.000000
 41
0.800000
 51
15.000000
  1
 ø14
  0
ENDSEC
  0
EOF

