999
     *******************************************
999
     BOCAD Software GmbH   Rev.18.000   0202.22
999
     Filename:   c:\progetti21\danieli_aqs\b4\temp_63\10629.dxf
999
     Creator:    bocad
999
     Date:       20.01.2016
999
     Factor:     10.000000
999
     *******************************************
  0
SECTION
  2
HEADER
  9
$DWGCODEPAGE
  3
ANSI_1252
  9
$INSBASE
 10
0.0
 20
0.0
 30
0.0
  9
$EXTMIN
 10
-0.500000
 20
-20.500007
  9
$EXTMAX
 10
2993.500061
 20
20.500000
  9
$LIMMIN
 10
-1.500000
 20
-21.500007
  9
$LIMMAX
 10
2994.500061
 20
21.500000
  9
$LTSCALE
 40
10.000000
  0
ENDSEC
  0
SECTION
  2
TABLES
  0
TABLE
  2
LTYPE
 70
4
  0
LTYPE
  2
CONTINUOUS
 70
64
  3
____________________________________________
 72
65
 73
0
 40
0.0
  0
LTYPE
  2
HIDDEN
 70
64
  3
__ __ __ __ __ __ __ __ __ __ __ __ __ __ __
 72
65
 73
2
 40
0.50
 49
0.30
 49
-0.20
  0
LTYPE
  2
DASHDOT
 70
64
  3
____ _ ____ _ ____ _ ____ _ ____ _ ____ _ __
 72
65
 73
4
 40
2.0
 49
1.5
 49
-0.25
 49
0
 49
-0.25
  0
LTYPE
  2
DOT
 70
64
  3
............................................
 72
65
 73
2
 40
0.30
 49
0
 49
-0.30
  0
ENDTAB
  0
TABLE
  2
LAYER
 70
23
  0
LAYER
  2
SCHRAUBEN
 70
64
 62
7
  6
CONTINUOUS
  0
LAYER
  2
REST
 70
64
 62
7
  6
CONTINUOUS
  0
LAYER
  2
UNTERSCHRIFT
 70
64
 62
7
  6
CONTINUOUS
  0
LAYER
  2
TEILE
 70
64
 62
7
  6
CONTINUOUS
  0
LAYER
  2
BEZ_SCHRAUBEN
 70
64
 62
7
  6
CONTINUOUS
  0
LAYER
  2
MARKERPUNKTE
 70
64
 62
7
  6
CONTINUOUS
  0
LAYER
  2
HILFSPUNKTE
 70
64
 62
7
  6
CONTINUOUS
  0
LAYER
  2
PICKPUNKTE
 70
64
 62
7
  6
CONTINUOUS
  0
LAYER
  2
SCHWEISSEN
 70
64
 62
7
  6
CONTINUOUS
  0
LAYER
  2
GRAFIK
 70
64
 62
7
  6
CONTINUOUS
  0
LAYER
  2
BEM_FREI
 70
64
 62
7
  6
CONTINUOUS
  0
LAYER
  2
BEM_SYSTEM
 70
64
 62
7
  6
CONTINUOUS
  0
LAYER
  2
BEM_KONTUR
 70
64
 62
7
  6
CONTINUOUS
  0
LAYER
  2
BEM_ANBAU
 70
64
 62
7
  6
CONTINUOUS
  0
LAYER
  2
BEM_SCHRAUBEN
 70
64
 62
7
  6
CONTINUOUS
  0
LAYER
  2
BEM_SCHWEISSEN
 70
64
 62
7
  6
CONTINUOUS
  0
LAYER
  2
FREIER_TEXT
 70
64
 62
7
  6
CONTINUOUS
  0
LAYER
  2
BEZ_TEILE
 70
64
 62
7
  6
CONTINUOUS
  0
LAYER
  2
BEZ_SCHWEISSEN
 70
64
 62
7
  6
CONTINUOUS
  0
LAYER
  2
SCHRAFFUREN
 70
64
 62
7
  6
CONTINUOUS
  0
LAYER
  2
SCHNITTSYMBOL
 70
64
 62
7
  6
CONTINUOUS
  0
LAYER
  2
RASTER
 70
64
 62
7
  6
CONTINUOUS
  0
LAYER
  2
LISTEN
 70
64
 62
7
  6
CONTINUOUS
  0
LAYER
  2
RAHMEN
 70
64
 62
7
  6
CONTINUOUS
  0
ENDTAB
  0
TABLE
  2
STYLE
 70
1
  0
STYLE
  2
STANDARD
 70
64
 40
0
 41
1
 50
0.0
 71
0
 42
0.35
  3
ROMANS
  0
ENDTAB
  0
ENDSEC
  0
SECTION
  2
ENTITIES
  0
LINE
  8
SCHRAUBEN
 62
6
 10
85.799599
 20
-2.200096
 11
80.199600
 21
-7.800097
  0
LINE
  8
SCHRAUBEN
 62
6
 10
80.199600
 20
-2.200096
 11
85.799599
 21
-7.800097
  0
CIRCLE
  8
SCHRAUBEN
 62
2
 10
82.999603
 20
-5.000096
 40
7.000000
  0
LINE
  8
SCHRAUBEN
 62
6
 10
1465.799683
 20
-2.200094
 11
1460.199707
 21
-7.800094
  0
LINE
  8
SCHRAUBEN
 62
6
 10
1460.199707
 20
-2.200094
 11
1465.799683
 21
-7.800094
  0
CIRCLE
  8
SCHRAUBEN
 62
2
 10
1462.999756
 20
-5.000093
 40
7.000000
  0
LINE
  8
SCHRAUBEN
 62
6
 10
2965.799805
 20
-2.200096
 11
2960.199951
 21
-7.800097
  0
LINE
  8
SCHRAUBEN
 62
6
 10
2960.199951
 20
-2.200096
 11
2965.799805
 21
-7.800097
  0
CIRCLE
  8
SCHRAUBEN
 62
2
 10
2963.000000
 20
-5.000096
 40
7.000000
  0
TEXT
 8
UNTERSCHRIFT
 62
2
 10
77.291344
 20
-17.999998
 40
3.250000
 41
0.800000
 51
15.000000
  1
Project  DP0GN9  ,Qty. 12  , Pos. 
  0
TEXT
 8
UNTERSCHRIFT
 62
2
 10
178.691330
 20
-17.999998
 40
3.250000
 41
0.800000
 51
15.000000
  1
  , Profi l PL40*5
  0
TEXT
 8
UNTERSCHRIFT
 62
2
 10
165.691345
 20
-17.999998
 40
3.250000
 41
0.800000
 51
15.000000
  1
10629
  0
LINE
  8
TEILE
 62
2
 10
0.000000
 20
-19.999998
 11
0.000000
 21
19.999998
  0
LINE
  8
TEILE
 62
2
 10
0.000000
 20
19.999998
 11
2993.000244
 21
19.999998
  0
LINE
  8
TEILE
 62
2
 10
2993.000244
 20
19.999998
 11
2993.000244
 21
-19.999998
  0
LINE
  8
TEILE
 62
2
 10
2993.000244
 20
-19.999998
 11
2666.004395
 21
-19.999998
  0
LINE
  8
TEILE
 62
2
 10
2666.004395
 20
-19.999998
 11
2665.961670
 21
-19.077339
  0
LINE
  8
TEILE
 62
2
 10
2665.961670
 20
-19.077339
 11
2665.833740
 21
-18.162556
  0
LINE
  8
TEILE
 62
2
 10
2665.833740
 20
-18.162556
 11
2665.622314
 21
-17.263453
  0
LINE
  8
TEILE
 62
2
 10
2665.622314
 20
-17.263453
 11
2665.328613
 21
-16.387695
  0
LINE
  8
TEILE
 62
2
 10
2665.328613
 20
-16.387695
 11
2664.955811
 21
-15.542760
  0
LINE
  8
TEILE
 62
2
 10
2664.955811
 20
-15.542760
 11
2664.506348
 21
-14.735849
  0
LINE
  8
TEILE
 62
2
 10
2664.506348
 20
-14.735849
 11
2663.984131
 21
-13.973846
  0
LINE
  8
TEILE
 62
2
 10
2663.984131
 20
-13.973846
 11
2663.394043
 21
-13.263252
  0
LINE
  8
TEILE
 62
2
 10
2663.394043
 20
-13.263252
 11
2662.741211
 21
-12.610128
  0
LINE
  8
TEILE
 62
2
 10
2662.741211
 20
-12.610128
 11
2662.030273
 21
-12.020044
  0
LINE
  8
TEILE
 62
2
 10
2662.030273
 20
-12.020044
 11
2661.268311
 21
-11.498034
  0
LINE
  8
TEILE
 62
2
 10
2661.268311
 20
-11.498034
 11
2660.461426
 21
-11.048552
  0
LINE
  8
TEILE
 62
2
 10
2660.461426
 20
-11.048552
 11
2659.616699
 21
-10.675429
  0
LINE
  8
TEILE
 62
2
 10
2659.616699
 20
-10.675429
 11
2658.740723
 21
-10.381851
  0
LINE
  8
TEILE
 62
2
 10
2658.740723
 20
-10.381851
 11
2657.841797
 21
-10.170321
  0
LINE
  8
TEILE
 62
2
 10
2657.841797
 20
-10.170321
 11
2656.926758
 21
-10.042643
  0
LINE
  8
TEILE
 62
2
 10
2656.926758
 20
-10.042643
 11
2656.004395
 21
-9.999905
  0
LINE
  8
TEILE
 62
2
 10
2656.004395
 20
-9.999905
 11
2656.004395
 21
-10.000023
  0
LINE
  8
TEILE
 62
2
 10
2656.004395
 20
-10.000023
 11
2477.383789
 21
-10.000023
  0
LINE
  8
TEILE
 62
2
 10
2477.383789
 20
-10.000023
 11
2476.461182
 21
-10.042687
  0
LINE
  8
TEILE
 62
2
 10
2476.461182
 20
-10.042687
 11
2475.546387
 21
-10.170309
  0
LINE
  8
TEILE
 62
2
 10
2475.546387
 20
-10.170309
 11
2474.647217
 21
-10.381793
  0
LINE
  8
TEILE
 62
2
 10
2474.647217
 20
-10.381793
 11
2473.771484
 21
-10.675333
  0
LINE
  8
TEILE
 62
2
 10
2473.771484
 20
-10.675333
 11
2472.926514
 21
-11.048426
  0
LINE
  8
TEILE
 62
2
 10
2472.926514
 20
-11.048426
 11
2472.119629
 21
-11.497890
  0
LINE
  8
TEILE
 62
2
 10
2472.119629
 20
-11.497890
 11
2471.357666
 21
-12.019888
  0
LINE
  8
TEILE
 62
2
 10
2471.357666
 20
-12.019888
 11
2470.646973
 21
-12.609969
  0
LINE
  8
TEILE
 62
2
 10
2470.646973
 20
-12.609969
 11
2469.993896
 21
-13.263098
  0
LINE
  8
TEILE
 62
2
 10
2469.993896
 20
-13.263098
 11
2469.403809
 21
-13.973703
  0
LINE
  8
TEILE
 62
2
 10
2469.403809
 20
-13.973703
 11
2468.881836
 21
-14.735722
  0
LINE
  8
TEILE
 62
2
 10
2468.881836
 20
-14.735722
 11
2468.432373
 21
-15.542652
  0
LINE
  8
TEILE
 62
2
 10
2468.432373
 20
-15.542652
 11
2468.059326
 21
-16.387611
  0
LINE
  8
TEILE
 62
2
 10
2468.059326
 20
-16.387611
 11
2467.765625
 21
-17.263391
  0
LINE
  8
TEILE
 62
2
 10
2467.765625
 20
-17.263391
 11
2467.554199
 21
-18.162519
  0
LINE
  8
TEILE
 62
2
 10
2467.554199
 20
-18.162519
 11
2467.426514
 21
-19.077324
  0
LINE
  8
TEILE
 62
2
 10
2467.426514
 20
-19.077324
 11
2467.383789
 21
-20.000000
  0
LINE
  8
TEILE
 62
2
 10
2467.383789
 20
-20.000000
 11
2467.383789
 21
-19.999998
  0
LINE
  8
TEILE
 62
2
 10
2467.383789
 20
-19.999998
 11
506.602966
 21
-19.999998
  0
LINE
  8
TEILE
 62
2
 10
506.602966
 20
-19.999998
 11
506.560303
 21
-19.077318
  0
LINE
  8
TEILE
 62
2
 10
506.560303
 20
-19.077318
 11
506.432678
 21
-18.162508
  0
LINE
  8
TEILE
 62
2
 10
506.432678
 20
-18.162508
 11
506.221191
 21
-17.263376
  0
LINE
  8
TEILE
 62
2
 10
506.221191
 20
-17.263376
 11
505.927704
 21
-16.387592
  0
LINE
  8
TEILE
 62
2
 10
505.927704
 20
-16.387592
 11
505.554565
 21
-15.542629
  0
LINE
  8
TEILE
 62
2
 10
505.554565
 20
-15.542629
 11
505.105133
 21
-14.735693
  0
LINE
  8
TEILE
 62
2
 10
505.105133
 20
-14.735693
 11
504.583130
 21
-13.973671
  0
LINE
  8
TEILE
 62
2
 10
504.583130
 20
-13.973671
 11
503.993042
 21
-13.263062
  0
LINE
  8
TEILE
 62
2
 10
503.993042
 20
-13.263062
 11
503.339905
 21
-12.609931
  0
LINE
  8
TEILE
 62
2
 10
503.339905
 20
-12.609931
 11
502.629333
 21
-12.019850
  0
LINE
  8
TEILE
 62
2
 10
502.629333
 20
-12.019850
 11
501.867310
 21
-11.497851
  0
LINE
  8
TEILE
 62
2
 10
501.867310
 20
-11.497851
 11
501.060333
 21
-11.048389
  0
LINE
  8
TEILE
 62
2
 10
501.060333
 20
-11.048389
 11
500.215393
 21
-10.675301
  0
LINE
  8
TEILE
 62
2
 10
500.215393
 20
-10.675301
 11
499.339600
 21
-10.381765
  0
LINE
  8
TEILE
 62
2
 10
499.339600
 20
-10.381765
 11
498.440491
 21
-10.170289
  0
LINE
  8
TEILE
 62
2
 10
498.440491
 20
-10.170289
 11
497.525665
 21
-10.042676
  0
LINE
  8
TEILE
 62
2
 10
497.525665
 20
-10.042676
 11
496.602966
 21
-10.000014
  0
LINE
  8
TEILE
 62
2
 10
496.602966
 20
-10.000014
 11
496.602966
 21
-10.000023
  0
LINE
  8
TEILE
 62
2
 10
496.602966
 20
-10.000023
 11
317.982635
 21
-10.000023
  0
LINE
  8
TEILE
 62
2
 10
317.982635
 20
-10.000023
 11
317.111084
 21
-10.038089
  0
LINE
  8
TEILE
 62
2
 10
317.111084
 20
-10.038089
 11
316.246155
 21
-10.151957
  0
LINE
  8
TEILE
 62
2
 10
316.246155
 20
-10.151957
 11
315.394470
 21
-10.340773
  0
LINE
  8
TEILE
 62
2
 10
315.394470
 20
-10.340773
 11
314.562439
 21
-10.603104
  0
LINE
  8
TEILE
 62
2
 10
314.562439
 20
-10.603104
 11
313.756470
 21
-10.936949
  0
LINE
  8
TEILE
 62
2
 10
313.756470
 20
-10.936949
 11
312.982666
 21
-11.339770
  0
LINE
  8
TEILE
 62
2
 10
312.982666
 20
-11.339770
 11
312.246887
 21
-11.808502
  0
LINE
  8
TEILE
 62
2
 10
312.246887
 20
-11.808502
 11
311.554779
 21
-12.339578
  0
LINE
  8
TEILE
 62
2
 10
311.554779
 20
-12.339578
 11
310.911591
 21
-12.928953
  0
LINE
  8
TEILE
 62
2
 10
310.911591
 20
-12.928953
 11
310.322205
 21
-13.572144
  0
LINE
  8
TEILE
 62
2
 10
310.322205
 20
-13.572144
 11
309.791138
 21
-14.264254
  0
LINE
  8
TEILE
 62
2
 10
309.791138
 20
-14.264254
 11
309.322388
 21
-15.000017
  0
LINE
  8
TEILE
 62
2
 10
309.322388
 20
-15.000017
 11
308.919586
 21
-15.773832
  0
LINE
  8
TEILE
 62
2
 10
308.919586
 20
-15.773832
 11
308.585724
 21
-16.579813
  0
LINE
  8
TEILE
 62
2
 10
308.585724
 20
-16.579813
 11
308.323395
 21
-17.411821
  0
LINE
  8
TEILE
 62
2
 10
308.323395
 20
-17.411821
 11
308.134583
 21
-18.263529
  0
LINE
  8
TEILE
 62
2
 10
308.134583
 20
-18.263529
 11
308.020691
 21
-19.128452
  0
LINE
  8
TEILE
 62
2
 10
308.020691
 20
-19.128452
 11
307.982666
 21
-20.000008
  0
LINE
  8
TEILE
 62
2
 10
307.982666
 20
-20.000008
 11
307.982666
 21
-19.999998
  0
LINE
  8
TEILE
 62
2
 10
307.982666
 20
-19.999998
 11
90.853722
 21
-19.999998
  0
LINE
  8
TEILE
 62
2
 10
74.585159
 20
-19.999998
 11
0.000000
 21
-19.999998
  0
TEXT
 8
BEZ_SCHRAUBEN
 62
2
 10
74.999603
 20
-19.500095
 40
5.000000
 41
0.800000
 51
15.000000
  1
 ø14
  0
ENDSEC
  0
EOF

