999
     *******************************************
999
     BOCAD Software GmbH   Rev.18.000   0202.22
999
     Filename:   c:\progetti21\danieli_aqs\b4\temp_63\10631.dxf
999
     Creator:    bocad
999
     Date:       20.01.2016
999
     Factor:     10.000000
999
     *******************************************
  0
SECTION
  2
HEADER
  9
$DWGCODEPAGE
  3
ANSI_1252
  9
$INSBASE
 10
0.0
 20
0.0
 30
0.0
  9
$EXTMIN
 10
-0.499909
 20
-20.500007
  9
$EXTMAX
 10
2787.499084
 20
20.500000
  9
$LIMMIN
 10
-1.499909
 20
-21.500007
  9
$LIMMAX
 10
2788.499084
 20
21.500000
  9
$LTSCALE
 40
10.000000
  0
ENDSEC
  0
SECTION
  2
TABLES
  0
TABLE
  2
LTYPE
 70
4
  0
LTYPE
  2
CONTINUOUS
 70
64
  3
____________________________________________
 72
65
 73
0
 40
0.0
  0
LTYPE
  2
HIDDEN
 70
64
  3
__ __ __ __ __ __ __ __ __ __ __ __ __ __ __
 72
65
 73
2
 40
0.50
 49
0.30
 49
-0.20
  0
LTYPE
  2
DASHDOT
 70
64
  3
____ _ ____ _ ____ _ ____ _ ____ _ ____ _ __
 72
65
 73
4
 40
2.0
 49
1.5
 49
-0.25
 49
0
 49
-0.25
  0
LTYPE
  2
DOT
 70
64
  3
............................................
 72
65
 73
2
 40
0.30
 49
0
 49
-0.30
  0
ENDTAB
  0
TABLE
  2
LAYER
 70
23
  0
LAYER
  2
SCHRAUBEN
 70
64
 62
7
  6
CONTINUOUS
  0
LAYER
  2
REST
 70
64
 62
7
  6
CONTINUOUS
  0
LAYER
  2
UNTERSCHRIFT
 70
64
 62
7
  6
CONTINUOUS
  0
LAYER
  2
TEILE
 70
64
 62
7
  6
CONTINUOUS
  0
LAYER
  2
BEZ_SCHRAUBEN
 70
64
 62
7
  6
CONTINUOUS
  0
LAYER
  2
MARKERPUNKTE
 70
64
 62
7
  6
CONTINUOUS
  0
LAYER
  2
HILFSPUNKTE
 70
64
 62
7
  6
CONTINUOUS
  0
LAYER
  2
PICKPUNKTE
 70
64
 62
7
  6
CONTINUOUS
  0
LAYER
  2
SCHWEISSEN
 70
64
 62
7
  6
CONTINUOUS
  0
LAYER
  2
GRAFIK
 70
64
 62
7
  6
CONTINUOUS
  0
LAYER
  2
BEM_FREI
 70
64
 62
7
  6
CONTINUOUS
  0
LAYER
  2
BEM_SYSTEM
 70
64
 62
7
  6
CONTINUOUS
  0
LAYER
  2
BEM_KONTUR
 70
64
 62
7
  6
CONTINUOUS
  0
LAYER
  2
BEM_ANBAU
 70
64
 62
7
  6
CONTINUOUS
  0
LAYER
  2
BEM_SCHRAUBEN
 70
64
 62
7
  6
CONTINUOUS
  0
LAYER
  2
BEM_SCHWEISSEN
 70
64
 62
7
  6
CONTINUOUS
  0
LAYER
  2
FREIER_TEXT
 70
64
 62
7
  6
CONTINUOUS
  0
LAYER
  2
BEZ_TEILE
 70
64
 62
7
  6
CONTINUOUS
  0
LAYER
  2
BEZ_SCHWEISSEN
 70
64
 62
7
  6
CONTINUOUS
  0
LAYER
  2
SCHRAFFUREN
 70
64
 62
7
  6
CONTINUOUS
  0
LAYER
  2
SCHNITTSYMBOL
 70
64
 62
7
  6
CONTINUOUS
  0
LAYER
  2
RASTER
 70
64
 62
7
  6
CONTINUOUS
  0
LAYER
  2
LISTEN
 70
64
 62
7
  6
CONTINUOUS
  0
LAYER
  2
RAHMEN
 70
64
 62
7
  6
CONTINUOUS
  0
ENDTAB
  0
TABLE
  2
STYLE
 70
1
  0
STYLE
  2
STANDARD
 70
64
 40
0
 41
1
 50
0.0
 71
0
 42
0.35
  3
ROMANS
  0
ENDTAB
  0
ENDSEC
  0
SECTION
  2
ENTITIES
  0
LINE
  8
SCHRAUBEN
 62
6
 10
85.799683
 20
-2.200097
 11
80.199692
 21
-7.800097
  0
LINE
  8
SCHRAUBEN
 62
6
 10
80.199692
 20
-2.200097
 11
85.799683
 21
-7.800097
  0
CIRCLE
  8
SCHRAUBEN
 62
2
 10
82.999687
 20
-5.000096
 40
7.000000
  0
LINE
  8
SCHRAUBEN
 62
6
 10
1465.799683
 20
-2.200095
 11
1460.199707
 21
-7.800095
  0
LINE
  8
SCHRAUBEN
 62
6
 10
1460.199707
 20
-2.200095
 11
1465.799683
 21
-7.800095
  0
CIRCLE
  8
SCHRAUBEN
 62
2
 10
1462.999756
 20
-5.000094
 40
7.000000
  0
TEXT
 8
UNTERSCHRIFT
 62
2
 10
78.591408
 20
-17.999998
 40
3.250000
 41
0.800000
 51
15.000000
  1
Project  DP0GN9  ,Qty. 5  , Pos. 
  0
TEXT
 8
UNTERSCHRIFT
 62
2
 10
177.391373
 20
-17.999998
 40
3.250000
 41
0.800000
 51
15.000000
  1
  , Profi l PL40*5
  0
TEXT
 8
UNTERSCHRIFT
 62
2
 10
164.391388
 20
-17.999998
 40
3.250000
 41
0.800000
 51
15.000000
  1
10631
  0
LINE
  8
TEILE
 62
2
 10
0.000091
 20
-19.999998
 11
0.000091
 21
19.999996
  0
LINE
  8
TEILE
 62
2
 10
0.000091
 20
19.999996
 11
2786.999023
 21
19.999996
  0
LINE
  8
TEILE
 62
2
 10
2786.999023
 20
19.999996
 11
2786.999023
 21
-19.999998
  0
LINE
  8
TEILE
 62
2
 10
2786.999023
 20
-19.999998
 11
2586.969971
 21
-19.999998
  0
LINE
  8
TEILE
 62
2
 10
2586.969971
 20
-19.999998
 11
2586.927490
 21
-19.077332
  0
LINE
  8
TEILE
 62
2
 10
2586.927490
 20
-19.077332
 11
2586.799561
 21
-18.162540
  0
LINE
  8
TEILE
 62
2
 10
2586.799561
 20
-18.162540
 11
2586.588135
 21
-17.263432
  0
LINE
  8
TEILE
 62
2
 10
2586.588135
 20
-17.263432
 11
2586.294434
 21
-16.387672
  0
LINE
  8
TEILE
 62
2
 10
2586.294434
 20
-16.387672
 11
2585.921631
 21
-15.542735
  0
LINE
  8
TEILE
 62
2
 10
2585.921631
 20
-15.542735
 11
2585.472168
 21
-14.735826
  0
LINE
  8
TEILE
 62
2
 10
2585.472168
 20
-14.735826
 11
2584.949951
 21
-13.973828
  0
LINE
  8
TEILE
 62
2
 10
2584.949951
 20
-13.973828
 11
2584.360107
 21
-13.263245
  0
LINE
  8
TEILE
 62
2
 10
2584.360107
 20
-13.263245
 11
2583.706543
 21
-12.610135
  0
LINE
  8
TEILE
 62
2
 10
2583.706543
 20
-12.610135
 11
2582.996094
 21
-12.020071
  0
LINE
  8
TEILE
 62
2
 10
2582.996094
 20
-12.020071
 11
2582.234131
 21
-11.498085
  0
LINE
  8
TEILE
 62
2
 10
2582.234131
 20
-11.498085
 11
2581.427246
 21
-11.048632
  0
LINE
  8
TEILE
 62
2
 10
2581.427246
 20
-11.048632
 11
2580.582275
 21
-10.675545
  0
LINE
  8
TEILE
 62
2
 10
2580.582275
 20
-10.675545
 11
2579.706543
 21
-10.382006
  0
LINE
  8
TEILE
 62
2
 10
2579.706543
 20
-10.382006
 11
2578.807373
 21
-10.170521
  0
LINE
  8
TEILE
 62
2
 10
2578.807373
 20
-10.170521
 11
2577.892578
 21
-10.042892
  0
LINE
  8
TEILE
 62
2
 10
2577.892578
 20
-10.042892
 11
2576.969971
 21
-10.000210
  0
LINE
  8
TEILE
 62
2
 10
2576.969971
 20
-10.000210
 11
2576.969971
 21
-10.000023
  0
LINE
  8
TEILE
 62
2
 10
2576.969971
 20
-10.000023
 11
2405.649658
 21
-10.000023
  0
LINE
  8
TEILE
 62
2
 10
2405.649658
 20
-10.000023
 11
2404.727051
 21
-10.042841
  0
LINE
  8
TEILE
 62
2
 10
2404.727051
 20
-10.042841
 11
2403.812256
 21
-10.170450
  0
LINE
  8
TEILE
 62
2
 10
2403.812256
 20
-10.170450
 11
2402.913086
 21
-10.381920
  0
LINE
  8
TEILE
 62
2
 10
2402.913086
 20
-10.381920
 11
2402.037354
 21
-10.675449
  0
LINE
  8
TEILE
 62
2
 10
2402.037354
 20
-10.675449
 11
2401.192383
 21
-11.048532
  0
LINE
  8
TEILE
 62
2
 10
2401.192383
 20
-11.048532
 11
2400.385498
 21
-11.497985
  0
LINE
  8
TEILE
 62
2
 10
2400.385498
 20
-11.497985
 11
2399.623535
 21
-12.019974
  0
LINE
  8
TEILE
 62
2
 10
2399.623535
 20
-12.019974
 11
2398.912842
 21
-12.610046
  0
LINE
  8
TEILE
 62
2
 10
2398.912842
 20
-12.610046
 11
2398.259766
 21
-13.263167
  0
LINE
  8
TEILE
 62
2
 10
2398.259766
 20
-13.263167
 11
2397.669678
 21
-13.973764
  0
LINE
  8
TEILE
 62
2
 10
2397.669678
 20
-13.973764
 11
2397.147705
 21
-14.735776
  0
LINE
  8
TEILE
 62
2
 10
2397.147705
 20
-14.735776
 11
2396.698242
 21
-15.542700
  0
LINE
  8
TEILE
 62
2
 10
2396.698242
 20
-15.542700
 11
2396.325195
 21
-16.387651
  0
LINE
  8
TEILE
 62
2
 10
2396.325195
 20
-16.387651
 11
2396.031738
 21
-17.263424
  0
LINE
  8
TEILE
 62
2
 10
2396.031738
 20
-17.263424
 11
2395.820068
 21
-18.162542
  0
LINE
  8
TEILE
 62
2
 10
2395.820068
 20
-18.162542
 11
2395.692627
 21
-19.077339
  0
LINE
  8
TEILE
 62
2
 10
2395.692627
 20
-19.077339
 11
2395.649902
 21
-20.000008
  0
LINE
  8
TEILE
 62
2
 10
2395.649902
 20
-20.000008
 11
2395.649902
 21
-19.999998
  0
LINE
  8
TEILE
 62
2
 10
2395.649902
 20
-19.999998
 11
506.603027
 21
-19.999998
  0
LINE
  8
TEILE
 62
2
 10
506.603027
 20
-19.999998
 11
506.560364
 21
-19.077316
  0
LINE
  8
TEILE
 62
2
 10
506.560364
 20
-19.077316
 11
506.432770
 21
-18.162508
  0
LINE
  8
TEILE
 62
2
 10
506.432770
 20
-18.162508
 11
506.221283
 21
-17.263376
  0
LINE
  8
TEILE
 62
2
 10
506.221283
 20
-17.263376
 11
505.927734
 21
-16.387592
  0
LINE
  8
TEILE
 62
2
 10
505.927734
 20
-16.387592
 11
505.554657
 21
-15.542626
  0
LINE
  8
TEILE
 62
2
 10
505.554657
 20
-15.542626
 11
505.105164
 21
-14.735691
  0
LINE
  8
TEILE
 62
2
 10
505.105164
 20
-14.735691
 11
504.583160
 21
-13.973670
  0
LINE
  8
TEILE
 62
2
 10
504.583160
 20
-13.973670
 11
503.993103
 21
-13.263062
  0
LINE
  8
TEILE
 62
2
 10
503.993103
 20
-13.263062
 11
503.339966
 21
-12.609932
  0
LINE
  8
TEILE
 62
2
 10
503.339966
 20
-12.609932
 11
502.629364
 21
-12.019852
  0
LINE
  8
TEILE
 62
2
 10
502.629364
 20
-12.019852
 11
501.867340
 21
-11.497854
  0
LINE
  8
TEILE
 62
2
 10
501.867340
 20
-11.497854
 11
501.060364
 21
-11.048395
  0
LINE
  8
TEILE
 62
2
 10
501.060364
 20
-11.048395
 11
500.215424
 21
-10.675307
  0
LINE
  8
TEILE
 62
2
 10
500.215424
 20
-10.675307
 11
499.339630
 21
-10.381775
  0
LINE
  8
TEILE
 62
2
 10
499.339630
 20
-10.381775
 11
498.440521
 21
-10.170301
  0
LINE
  8
TEILE
 62
2
 10
498.440521
 20
-10.170301
 11
497.525696
 21
-10.042691
  0
LINE
  8
TEILE
 62
2
 10
497.525696
 20
-10.042691
 11
496.603027
 21
-10.000033
  0
LINE
  8
TEILE
 62
2
 10
496.603027
 20
-10.000033
 11
496.603027
 21
-10.000023
  0
LINE
  8
TEILE
 62
2
 10
496.603027
 20
-10.000023
 11
317.982727
 21
-10.000023
  0
LINE
  8
TEILE
 62
2
 10
317.982727
 20
-10.000023
 11
317.111145
 21
-10.038078
  0
LINE
  8
TEILE
 62
2
 10
317.111145
 20
-10.038078
 11
316.246216
 21
-10.151944
  0
LINE
  8
TEILE
 62
2
 10
316.246216
 20
-10.151944
 11
315.394531
 21
-10.340759
  0
LINE
  8
TEILE
 62
2
 10
315.394531
 20
-10.340759
 11
314.562500
 21
-10.603089
  0
LINE
  8
TEILE
 62
2
 10
314.562500
 20
-10.603089
 11
313.756531
 21
-10.936935
  0
LINE
  8
TEILE
 62
2
 10
313.756531
 20
-10.936935
 11
312.982727
 21
-11.339758
  0
LINE
  8
TEILE
 62
2
 10
312.982727
 20
-11.339758
 11
312.246948
 21
-11.808490
  0
LINE
  8
TEILE
 62
2
 10
312.246948
 20
-11.808490
 11
311.554840
 21
-12.339563
  0
LINE
  8
TEILE
 62
2
 10
311.554840
 20
-12.339563
 11
310.911621
 21
-12.928938
  0
LINE
  8
TEILE
 62
2
 10
310.911621
 20
-12.928938
 11
310.322266
 21
-13.572129
  0
LINE
  8
TEILE
 62
2
 10
310.322266
 20
-13.572129
 11
309.791199
 21
-14.264239
  0
LINE
  8
TEILE
 62
2
 10
309.791199
 20
-14.264239
 11
309.322449
 21
-15.000002
  0
LINE
  8
TEILE
 62
2
 10
309.322449
 20
-15.000002
 11
308.919617
 21
-15.773819
  0
LINE
  8
TEILE
 62
2
 10
308.919617
 20
-15.773819
 11
308.585785
 21
-16.579798
  0
LINE
  8
TEILE
 62
2
 10
308.585785
 20
-16.579798
 11
308.323425
 21
-17.411808
  0
LINE
  8
TEILE
 62
2
 10
308.323425
 20
-17.411808
 11
308.134644
 21
-18.263517
  0
LINE
  8
TEILE
 62
2
 10
308.134644
 20
-18.263517
 11
308.020752
 21
-19.128441
  0
LINE
  8
TEILE
 62
2
 10
308.020752
 20
-19.128441
 11
307.982727
 21
-19.999998
  0
LINE
  8
TEILE
 62
2
 10
307.982727
 20
-19.999998
 11
307.982727
 21
-19.999998
  0
LINE
  8
TEILE
 62
2
 10
307.982727
 20
-19.999998
 11
90.853806
 21
-19.999998
  0
LINE
  8
TEILE
 62
2
 10
74.585243
 20
-19.999998
 11
0.000091
 21
-19.999998
  0
TEXT
 8
BEZ_SCHRAUBEN
 62
2
 10
74.999687
 20
-19.500095
 40
5.000000
 41
0.800000
 51
15.000000
  1
 ø14
  0
ENDSEC
  0
EOF

