999
     *******************************************
999
     BOCAD Software GmbH   Rev.18.000   0202.22
999
     Filename:   c:\progetti21\danieli_aqs\b4\temp_11\20602.dxf
999
     Creator:    bocad
999
     Date:       20.01.2016
999
     Factor:     10.000000
999
     *******************************************
  0
SECTION
  2
HEADER
  9
$DWGCODEPAGE
  3
ANSI_1252
  9
$INSBASE
 10
0.0
 20
0.0
 30
0.0
  9
$EXTMIN
 10
-0.500000
 20
-210.499992
  9
$EXTMAX
 10
380.499992
 20
210.499992
  9
$LIMMIN
 10
-1.500000
 20
-211.499992
  9
$LIMMAX
 10
381.499992
 20
211.499992
  9
$LTSCALE
 40
10.000000
  0
ENDSEC
  0
SECTION
  2
TABLES
  0
TABLE
  2
LTYPE
 70
4
  0
LTYPE
  2
CONTINUOUS
 70
64
  3
____________________________________________
 72
65
 73
0
 40
0.0
  0
LTYPE
  2
HIDDEN
 70
64
  3
__ __ __ __ __ __ __ __ __ __ __ __ __ __ __
 72
65
 73
2
 40
0.50
 49
0.30
 49
-0.20
  0
LTYPE
  2
DASHDOT
 70
64
  3
____ _ ____ _ ____ _ ____ _ ____ _ ____ _ __
 72
65
 73
4
 40
2.0
 49
1.5
 49
-0.25
 49
0
 49
-0.25
  0
LTYPE
  2
DOT
 70
64
  3
............................................
 72
65
 73
2
 40
0.30
 49
0
 49
-0.30
  0
ENDTAB
  0
TABLE
  2
LAYER
 70
23
  0
LAYER
  2
SCHRAUBEN
 70
64
 62
7
  6
CONTINUOUS
  0
LAYER
  2
REST
 70
64
 62
7
  6
CONTINUOUS
  0
LAYER
  2
UNTERSCHRIFT
 70
64
 62
7
  6
CONTINUOUS
  0
LAYER
  2
TEILE
 70
64
 62
7
  6
CONTINUOUS
  0
LAYER
  2
BEZ_SCHRAUBEN
 70
64
 62
7
  6
CONTINUOUS
  0
LAYER
  2
MARKERPUNKTE
 70
64
 62
7
  6
CONTINUOUS
  0
LAYER
  2
HILFSPUNKTE
 70
64
 62
7
  6
CONTINUOUS
  0
LAYER
  2
PICKPUNKTE
 70
64
 62
7
  6
CONTINUOUS
  0
LAYER
  2
SCHWEISSEN
 70
64
 62
7
  6
CONTINUOUS
  0
LAYER
  2
GRAFIK
 70
64
 62
7
  6
CONTINUOUS
  0
LAYER
  2
BEM_FREI
 70
64
 62
7
  6
CONTINUOUS
  0
LAYER
  2
BEM_SYSTEM
 70
64
 62
7
  6
CONTINUOUS
  0
LAYER
  2
BEM_KONTUR
 70
64
 62
7
  6
CONTINUOUS
  0
LAYER
  2
BEM_ANBAU
 70
64
 62
7
  6
CONTINUOUS
  0
LAYER
  2
BEM_SCHRAUBEN
 70
64
 62
7
  6
CONTINUOUS
  0
LAYER
  2
BEM_SCHWEISSEN
 70
64
 62
7
  6
CONTINUOUS
  0
LAYER
  2
FREIER_TEXT
 70
64
 62
7
  6
CONTINUOUS
  0
LAYER
  2
BEZ_TEILE
 70
64
 62
7
  6
CONTINUOUS
  0
LAYER
  2
BEZ_SCHWEISSEN
 70
64
 62
7
  6
CONTINUOUS
  0
LAYER
  2
SCHRAFFUREN
 70
64
 62
7
  6
CONTINUOUS
  0
LAYER
  2
SCHNITTSYMBOL
 70
64
 62
7
  6
CONTINUOUS
  0
LAYER
  2
RASTER
 70
64
 62
7
  6
CONTINUOUS
  0
LAYER
  2
LISTEN
 70
64
 62
7
  6
CONTINUOUS
  0
LAYER
  2
RAHMEN
 70
64
 62
7
  6
CONTINUOUS
  0
ENDTAB
  0
TABLE
  2
STYLE
 70
1
  0
STYLE
  2
STANDARD
 70
64
 40
0
 41
1
 50
0.0
 71
0
 42
0.35
  3
ROMANS
  0
ENDTAB
  0
ENDSEC
  0
SECTION
  2
ENTITIES
  0
LINE
  8
SCHRAUBEN
 62
6
 10
275.199951
 20
-144.798553
 11
264.799957
 21
-155.198563
  0
LINE
  8
SCHRAUBEN
 62
6
 10
264.799957
 20
-144.798553
 11
275.199951
 21
-155.198563
  0
CIRCLE
  8
SCHRAUBEN
 62
2
 10
269.999969
 20
-149.998566
 40
12.999969
  0
LINE
  8
SCHRAUBEN
 62
6
 10
275.199951
 20
-64.798561
 11
264.799957
 21
-75.198563
  0
LINE
  8
SCHRAUBEN
 62
6
 10
264.799957
 20
-64.798561
 11
275.199951
 21
-75.198563
  0
CIRCLE
  8
SCHRAUBEN
 62
2
 10
269.999969
 20
-69.998558
 40
12.999969
  0
LINE
  8
SCHRAUBEN
 62
6
 10
115.199974
 20
-64.798561
 11
104.799965
 21
-75.198563
  0
LINE
  8
SCHRAUBEN
 62
6
 10
104.799965
 20
-64.798561
 11
115.199974
 21
-75.198563
  0
CIRCLE
  8
SCHRAUBEN
 62
2
 10
109.999969
 20
-69.998558
 40
13.000000
  0
LINE
  8
SCHRAUBEN
 62
6
 10
115.199974
 20
-144.798553
 11
104.799965
 21
-155.198563
  0
LINE
  8
SCHRAUBEN
 62
6
 10
104.799965
 20
-144.798553
 11
115.199974
 21
-155.198563
  0
CIRCLE
  8
SCHRAUBEN
 62
2
 10
109.999969
 20
-149.998566
 40
13.000000
  0
LINE
  8
SCHRAUBEN
 62
6
 10
115.199974
 20
75.201447
 11
104.799965
 21
64.801445
  0
LINE
  8
SCHRAUBEN
 62
6
 10
104.799965
 20
75.201447
 11
115.199974
 21
64.801445
  0
CIRCLE
  8
SCHRAUBEN
 62
2
 10
109.999969
 20
70.001442
 40
13.000000
  0
LINE
  8
SCHRAUBEN
 62
6
 10
115.199974
 20
155.201447
 11
104.799965
 21
144.801437
  0
LINE
  8
SCHRAUBEN
 62
6
 10
104.799965
 20
155.201447
 11
115.199974
 21
144.801437
  0
CIRCLE
  8
SCHRAUBEN
 62
2
 10
109.999969
 20
150.001434
 40
13.000000
  0
LINE
  8
SCHRAUBEN
 62
6
 10
275.199951
 20
155.201447
 11
264.799957
 21
144.801437
  0
LINE
  8
SCHRAUBEN
 62
6
 10
264.799957
 20
155.201447
 11
275.199951
 21
144.801437
  0
CIRCLE
  8
SCHRAUBEN
 62
2
 10
269.999969
 20
150.001434
 40
12.999969
  0
LINE
  8
SCHRAUBEN
 62
6
 10
275.199951
 20
75.201447
 11
264.799957
 21
64.801445
  0
LINE
  8
SCHRAUBEN
 62
6
 10
264.799957
 20
75.201447
 11
275.199951
 21
64.801445
  0
CIRCLE
  8
SCHRAUBEN
 62
2
 10
269.999969
 20
70.001442
 40
12.999969
  0
TEXT
 8
UNTERSCHRIFT
 62
2
 10
378.000000
 20
-79.299995
 40
3.250000
 50
90.000000
 41
0.800000
 51
15.000000
  1
Project  DP0GN9  ,Qty. 10  , Pos. 
  0
TEXT
 8
UNTERSCHRIFT
 62
2
 10
378.000000
 20
22.100000
 40
3.250000
 50
90.000000
 41
0.800000
 51
15.000000
  1
  , Profi l PL420*25
  0
TEXT
 8
UNTERSCHRIFT
 62
2
 10
378.000000
 20
9.099999
 40
3.250000
 50
90.000000
 41
0.800000
 51
15.000000
  1
20602
  0
LINE
  8
TEILE
 62
2
 10
380.000000
 20
-210.000000
 11
-0.000000
 21
-210.000000
  0
LINE
  8
TEILE
 62
2
 10
-0.000000
 20
-210.000000
 11
0.000000
 21
210.000000
  0
LINE
  8
TEILE
 62
2
 10
0.000000
 20
210.000000
 11
380.000000
 21
210.000000
  0
LINE
  8
TEILE
 62
2
 10
380.000000
 20
210.000000
 11
380.000000
 21
-210.000000
  0
TEXT
 8
BEZ_SCHRAUBEN
 62
2
 10
262.000000
 20
-170.498566
 40
5.000000
 41
0.800000
 51
15.000000
  1
 ø26
  0
ENDSEC
  0
EOF

