999
     *******************************************
999
     BOCAD Software GmbH   Rev.18.000   0202.22
999
     Filename:   c:\progetti21\danieli_aqs\b4\temp_11\20607.dxf
999
     Creator:    bocad
999
     Date:       20.01.2016
999
     Factor:     10.000000
999
     *******************************************
  0
SECTION
  2
HEADER
  9
$DWGCODEPAGE
  3
ANSI_1252
  9
$INSBASE
 10
0.0
 20
0.0
 30
0.0
  9
$EXTMIN
 10
-0.500000
 20
-200.499992
  9
$EXTMAX
 10
11004.504395
 20
200.499992
  9
$LIMMIN
 10
-1.500000
 20
-201.499992
  9
$LIMMAX
 10
11005.504395
 20
201.499992
  9
$LTSCALE
 40
10.000000
  0
ENDSEC
  0
SECTION
  2
TABLES
  0
TABLE
  2
LTYPE
 70
4
  0
LTYPE
  2
CONTINUOUS
 70
64
  3
____________________________________________
 72
65
 73
0
 40
0.0
  0
LTYPE
  2
HIDDEN
 70
64
  3
__ __ __ __ __ __ __ __ __ __ __ __ __ __ __
 72
65
 73
2
 40
0.50
 49
0.30
 49
-0.20
  0
LTYPE
  2
DASHDOT
 70
64
  3
____ _ ____ _ ____ _ ____ _ ____ _ ____ _ __
 72
65
 73
4
 40
2.0
 49
1.5
 49
-0.25
 49
0
 49
-0.25
  0
LTYPE
  2
DOT
 70
64
  3
............................................
 72
65
 73
2
 40
0.30
 49
0
 49
-0.30
  0
ENDTAB
  0
TABLE
  2
LAYER
 70
23
  0
LAYER
  2
SCHRAUBEN
 70
64
 62
7
  6
CONTINUOUS
  0
LAYER
  2
REST
 70
64
 62
7
  6
CONTINUOUS
  0
LAYER
  2
UNTERSCHRIFT
 70
64
 62
7
  6
CONTINUOUS
  0
LAYER
  2
TEILE
 70
64
 62
7
  6
CONTINUOUS
  0
LAYER
  2
BEZ_SCHRAUBEN
 70
64
 62
7
  6
CONTINUOUS
  0
LAYER
  2
MARKERPUNKTE
 70
64
 62
7
  6
CONTINUOUS
  0
LAYER
  2
HILFSPUNKTE
 70
64
 62
7
  6
CONTINUOUS
  0
LAYER
  2
PICKPUNKTE
 70
64
 62
7
  6
CONTINUOUS
  0
LAYER
  2
SCHWEISSEN
 70
64
 62
7
  6
CONTINUOUS
  0
LAYER
  2
GRAFIK
 70
64
 62
7
  6
CONTINUOUS
  0
LAYER
  2
BEM_FREI
 70
64
 62
7
  6
CONTINUOUS
  0
LAYER
  2
BEM_SYSTEM
 70
64
 62
7
  6
CONTINUOUS
  0
LAYER
  2
BEM_KONTUR
 70
64
 62
7
  6
CONTINUOUS
  0
LAYER
  2
BEM_ANBAU
 70
64
 62
7
  6
CONTINUOUS
  0
LAYER
  2
BEM_SCHRAUBEN
 70
64
 62
7
  6
CONTINUOUS
  0
LAYER
  2
BEM_SCHWEISSEN
 70
64
 62
7
  6
CONTINUOUS
  0
LAYER
  2
FREIER_TEXT
 70
64
 62
7
  6
CONTINUOUS
  0
LAYER
  2
BEZ_TEILE
 70
64
 62
7
  6
CONTINUOUS
  0
LAYER
  2
BEZ_SCHWEISSEN
 70
64
 62
7
  6
CONTINUOUS
  0
LAYER
  2
SCHRAFFUREN
 70
64
 62
7
  6
CONTINUOUS
  0
LAYER
  2
SCHNITTSYMBOL
 70
64
 62
7
  6
CONTINUOUS
  0
LAYER
  2
RASTER
 70
64
 62
7
  6
CONTINUOUS
  0
LAYER
  2
LISTEN
 70
64
 62
7
  6
CONTINUOUS
  0
LAYER
  2
RAHMEN
 70
64
 62
7
  6
CONTINUOUS
  0
ENDTAB
  0
TABLE
  2
STYLE
 70
1
  0
STYLE
  2
STANDARD
 70
64
 40
0
 41
1
 50
0.0
 71
0
 42
0.35
  3
ROMANS
  0
ENDTAB
  0
ENDSEC
  0
SECTION
  2
ENTITIES
  0
LINE
  8
SCHRAUBEN
 62
6
 10
4920.199707
 20
-64.816391
 11
4909.800293
 21
-75.216393
  0
LINE
  8
SCHRAUBEN
 62
6
 10
4909.800293
 20
-64.816391
 11
4920.199707
 21
-75.216393
  0
CIRCLE
  8
SCHRAUBEN
 62
2
 10
4915.000000
 20
-70.016396
 40
13.000000
  0
LINE
  8
SCHRAUBEN
 62
6
 10
5070.199707
 20
-64.816391
 11
5059.800293
 21
-75.216393
  0
LINE
  8
SCHRAUBEN
 62
6
 10
5059.800293
 20
-64.816391
 11
5070.199707
 21
-75.216393
  0
CIRCLE
  8
SCHRAUBEN
 62
2
 10
5065.000000
 20
-70.016396
 40
13.000000
  0
LINE
  8
SCHRAUBEN
 62
6
 10
5070.199707
 20
75.183586
 11
5059.800293
 21
64.783585
  0
LINE
  8
SCHRAUBEN
 62
6
 10
5059.800293
 20
75.183586
 11
5070.199707
 21
64.783585
  0
CIRCLE
  8
SCHRAUBEN
 62
2
 10
5065.000000
 20
69.983589
 40
13.000000
  0
LINE
  8
SCHRAUBEN
 62
6
 10
4920.199707
 20
75.183586
 11
4909.800293
 21
64.783585
  0
LINE
  8
SCHRAUBEN
 62
6
 10
4909.800293
 20
75.183586
 11
4920.199707
 21
64.783585
  0
CIRCLE
  8
SCHRAUBEN
 62
2
 10
4915.000000
 20
69.983589
 40
13.000000
  0
LINE
  8
SCHRAUBEN
 62
6
 10
6625.200195
 20
-64.816391
 11
6614.799805
 21
-75.216393
  0
LINE
  8
SCHRAUBEN
 62
6
 10
6614.799805
 20
-64.816391
 11
6625.200195
 21
-75.216393
  0
CIRCLE
  8
SCHRAUBEN
 62
2
 10
6620.000000
 20
-70.016396
 40
13.000000
  0
LINE
  8
SCHRAUBEN
 62
6
 10
6625.200195
 20
75.183578
 11
6614.799805
 21
64.783585
  0
LINE
  8
SCHRAUBEN
 62
6
 10
6614.799805
 20
75.183578
 11
6625.200195
 21
64.783585
  0
CIRCLE
  8
SCHRAUBEN
 62
2
 10
6620.000000
 20
69.983582
 40
13.000000
  0
LINE
  8
SCHRAUBEN
 62
6
 10
6475.200195
 20
75.183578
 11
6464.799805
 21
64.783585
  0
LINE
  8
SCHRAUBEN
 62
6
 10
6464.799805
 20
75.183578
 11
6475.200195
 21
64.783585
  0
CIRCLE
  8
SCHRAUBEN
 62
2
 10
6470.000000
 20
69.983582
 40
13.000000
  0
LINE
  8
SCHRAUBEN
 62
6
 10
6475.200195
 20
-64.816391
 11
6464.799805
 21
-75.216393
  0
LINE
  8
SCHRAUBEN
 62
6
 10
6464.799805
 20
-64.816391
 11
6475.200195
 21
-75.216393
  0
CIRCLE
  8
SCHRAUBEN
 62
2
 10
6470.000000
 20
-70.016396
 40
13.000000
  0
LINE
  8
SCHRAUBEN
 62
6
 10
6775.200195
 20
-64.816391
 11
6764.799805
 21
-75.216393
  0
LINE
  8
SCHRAUBEN
 62
6
 10
6764.799805
 20
-64.816391
 11
6775.200195
 21
-75.216393
  0
CIRCLE
  8
SCHRAUBEN
 62
2
 10
6770.000000
 20
-70.016396
 40
13.000000
  0
LINE
  8
SCHRAUBEN
 62
6
 10
6925.200195
 20
-64.816391
 11
6914.799805
 21
-75.216393
  0
LINE
  8
SCHRAUBEN
 62
6
 10
6914.799805
 20
-64.816391
 11
6925.200195
 21
-75.216393
  0
CIRCLE
  8
SCHRAUBEN
 62
2
 10
6920.000000
 20
-70.016396
 40
13.000000
  0
LINE
  8
SCHRAUBEN
 62
6
 10
6925.200195
 20
75.183586
 11
6914.799805
 21
64.783585
  0
LINE
  8
SCHRAUBEN
 62
6
 10
6914.799805
 20
75.183586
 11
6925.200195
 21
64.783585
  0
CIRCLE
  8
SCHRAUBEN
 62
2
 10
6920.000000
 20
69.983589
 40
13.000000
  0
LINE
  8
SCHRAUBEN
 62
6
 10
6775.200195
 20
75.183586
 11
6764.799805
 21
64.783585
  0
LINE
  8
SCHRAUBEN
 62
6
 10
6764.799805
 20
75.183586
 11
6775.200195
 21
64.783585
  0
CIRCLE
  8
SCHRAUBEN
 62
2
 10
6770.000000
 20
69.983589
 40
13.000000
  0
LINE
  8
SCHRAUBEN
 62
6
 10
7220.578125
 20
-106.399170
 11
7213.378418
 21
-113.599167
  0
LINE
  8
SCHRAUBEN
 62
6
 10
7213.378418
 20
-106.399170
 11
7220.578125
 21
-113.599167
  0
CIRCLE
  8
SCHRAUBEN
 62
2
 10
7216.978027
 20
-109.999168
 40
9.000488
  0
LINE
  8
SCHRAUBEN
 62
6
 10
7220.578125
 20
113.601593
 11
7213.378418
 21
106.401596
  0
LINE
  8
SCHRAUBEN
 62
6
 10
7213.378418
 20
113.601593
 11
7220.578125
 21
106.401596
  0
CIRCLE
  8
SCHRAUBEN
 62
2
 10
7216.978027
 20
110.001595
 40
9.000488
  0
LINE
  8
SCHRAUBEN
 62
6
 10
7870.600098
 20
-106.399170
 11
7863.400391
 21
-113.599167
  0
LINE
  8
SCHRAUBEN
 62
6
 10
7863.400391
 20
-106.399170
 11
7870.600098
 21
-113.599167
  0
CIRCLE
  8
SCHRAUBEN
 62
2
 10
7867.000000
 20
-109.999168
 40
9.000488
  0
LINE
  8
SCHRAUBEN
 62
6
 10
7870.600098
 20
113.601593
 11
7863.400391
 21
106.401596
  0
LINE
  8
SCHRAUBEN
 62
6
 10
7863.400391
 20
113.601593
 11
7870.600098
 21
106.401596
  0
CIRCLE
  8
SCHRAUBEN
 62
2
 10
7867.000000
 20
110.001595
 40
9.000488
  0
LINE
  8
SCHRAUBEN
 62
6
 10
9370.599609
 20
-106.399170
 11
9363.400391
 21
-113.599167
  0
LINE
  8
SCHRAUBEN
 62
6
 10
9363.400391
 20
-106.399170
 11
9370.599609
 21
-113.599167
  0
CIRCLE
  8
SCHRAUBEN
 62
2
 10
9367.000000
 20
-109.999168
 40
9.000000
  0
LINE
  8
SCHRAUBEN
 62
6
 10
9370.599609
 20
113.601593
 11
9363.400391
 21
106.401596
  0
LINE
  8
SCHRAUBEN
 62
6
 10
9363.400391
 20
113.601593
 11
9370.599609
 21
106.401596
  0
CIRCLE
  8
SCHRAUBEN
 62
2
 10
9367.000000
 20
110.001595
 40
9.000000
  0
LINE
  8
SCHRAUBEN
 62
6
 10
10870.599609
 20
-106.399170
 11
10863.399414
 21
-113.599167
  0
LINE
  8
SCHRAUBEN
 62
6
 10
10863.399414
 20
-106.399170
 11
10870.599609
 21
-113.599167
  0
CIRCLE
  8
SCHRAUBEN
 62
2
 10
10867.000000
 20
-109.999168
 40
9.000000
  0
LINE
  8
SCHRAUBEN
 62
6
 10
10870.599609
 20
113.601593
 11
10863.399414
 21
106.401596
  0
LINE
  8
SCHRAUBEN
 62
6
 10
10863.399414
 20
113.601593
 11
10870.599609
 21
106.401596
  0
CIRCLE
  8
SCHRAUBEN
 62
2
 10
10867.000000
 20
110.001595
 40
9.000000
  0
TEXT
 8
UNTERSCHRIFT
 62
2
 10
5424.001953
 20
-198.000000
 40
3.250000
 41
0.800000
 51
15.000000
  1
Project  DP0GN9  ,Qty. 4  , Pos. 
  0
TEXT
 8
UNTERSCHRIFT
 62
2
 10
5522.802246
 20
-198.000000
 40
3.250000
 41
0.800000
 51
15.000000
  1
  , Profi l PL400*25
  0
TEXT
 8
UNTERSCHRIFT
 62
2
 10
5509.802246
 20
-198.000000
 40
3.250000
 41
0.800000
 51
15.000000
  1
20607
  0
LINE
  8
TEILE
 62
2
 10
-0.000000
 20
-200.000000
 11
-0.000000
 21
200.000000
  0
LINE
  8
TEILE
 62
2
 10
-0.000000
 20
200.000000
 11
11004.003906
 21
200.000000
  0
LINE
  8
TEILE
 62
2
 10
11004.003906
 20
200.000000
 11
11004.003906
 21
-200.000000
  0
LINE
  8
TEILE
 62
2
 10
11004.003906
 20
-200.000000
 11
-0.000000
 21
-200.000000
  0
TEXT
 8
BEZ_SCHRAUBEN
 62
2
 10
4907.000000
 20
-90.516396
 40
5.000000
 41
0.800000
 51
15.000000
  1
 ø26
  0
TEXT
 8
BEZ_SCHRAUBEN
 62
2
 10
5057.000000
 20
-90.516396
 40
5.000000
 41
0.800000
 51
15.000000
  1
 ø26
  0
TEXT
 8
BEZ_SCHRAUBEN
 62
2
 10
5057.000000
 20
49.483582
 40
5.000000
 41
0.800000
 51
15.000000
  1
 ø26
  0
TEXT
 8
BEZ_SCHRAUBEN
 62
2
 10
4907.000000
 20
49.483582
 40
5.000000
 41
0.800000
 51
15.000000
  1
 ø26
  0
TEXT
 8
BEZ_SCHRAUBEN
 62
2
 10
6612.000000
 20
-90.516396
 40
5.000000
 41
0.800000
 51
15.000000
  1
 ø26
  0
TEXT
 8
BEZ_SCHRAUBEN
 62
2
 10
6612.000000
 20
49.483582
 40
5.000000
 41
0.800000
 51
15.000000
  1
 ø26
  0
TEXT
 8
BEZ_SCHRAUBEN
 62
2
 10
6462.000000
 20
49.483582
 40
5.000000
 41
0.800000
 51
15.000000
  1
 ø26
  0
TEXT
 8
BEZ_SCHRAUBEN
 62
2
 10
6462.000000
 20
-90.516396
 40
5.000000
 41
0.800000
 51
15.000000
  1
 ø26
  0
TEXT
 8
BEZ_SCHRAUBEN
 62
2
 10
6762.000000
 20
-90.516396
 40
5.000000
 41
0.800000
 51
15.000000
  1
 ø26
  0
TEXT
 8
BEZ_SCHRAUBEN
 62
2
 10
6912.000000
 20
-90.516396
 40
5.000000
 41
0.800000
 51
15.000000
  1
 ø26
  0
TEXT
 8
BEZ_SCHRAUBEN
 62
2
 10
6912.000000
 20
49.483582
 40
5.000000
 41
0.800000
 51
15.000000
  1
 ø26
  0
TEXT
 8
BEZ_SCHRAUBEN
 62
2
 10
6762.000000
 20
49.483582
 40
5.000000
 41
0.800000
 51
15.000000
  1
 ø26
  0
TEXT
 8
BEZ_SCHRAUBEN
 62
2
 10
7208.979004
 20
-126.499161
 40
5.000000
 41
0.800000
 51
15.000000
  1
 ø18
  0
TEXT
 8
BEZ_SCHRAUBEN
 62
2
 10
7208.979004
 20
93.501595
 40
5.000000
 41
0.800000
 51
15.000000
  1
 ø18
  0
TEXT
 8
BEZ_SCHRAUBEN
 62
2
 10
7859.000000
 20
-126.499161
 40
5.000000
 41
0.800000
 51
15.000000
  1
 ø18
  0
TEXT
 8
BEZ_SCHRAUBEN
 62
2
 10
7859.000000
 20
93.501595
 40
5.000000
 41
0.800000
 51
15.000000
  1
 ø18
  0
TEXT
 8
BEZ_SCHRAUBEN
 62
2
 10
9359.000000
 20
-126.499161
 40
5.000000
 41
0.800000
 51
15.000000
  1
 ø18
  0
TEXT
 8
BEZ_SCHRAUBEN
 62
2
 10
9359.000000
 20
93.501595
 40
5.000000
 41
0.800000
 51
15.000000
  1
 ø18
  0
TEXT
 8
BEZ_SCHRAUBEN
 62
2
 10
10859.000000
 20
-126.499161
 40
5.000000
 41
0.800000
 51
15.000000
  1
 ø18
  0
TEXT
 8
BEZ_SCHRAUBEN
 62
2
 10
10859.000000
 20
93.501595
 40
5.000000
 41
0.800000
 51
15.000000
  1
 ø18
  0
ENDSEC
  0
EOF

