999
     *******************************************
999
     BOCAD Software GmbH   Rev.18.000   0202.22
999
     Filename:   c:\progetti21\danieli_aqs\b4\temp_11\20616.dxf
999
     Creator:    bocad
999
     Date:       20.01.2016
999
     Factor:     10.000000
999
     *******************************************
  0
SECTION
  2
HEADER
  9
$DWGCODEPAGE
  3
ANSI_1252
  9
$INSBASE
 10
0.0
 20
0.0
 30
0.0
  9
$EXTMIN
 10
-0.500000
 20
-141.156406
  9
$EXTMAX
 10
1072.193527
 20
141.156406
  9
$LIMMIN
 10
-1.500000
 20
-142.156406
  9
$LIMMAX
 10
1073.193527
 20
142.156406
  9
$LTSCALE
 40
10.000000
  0
ENDSEC
  0
SECTION
  2
TABLES
  0
TABLE
  2
LTYPE
 70
4
  0
LTYPE
  2
CONTINUOUS
 70
64
  3
____________________________________________
 72
65
 73
0
 40
0.0
  0
LTYPE
  2
HIDDEN
 70
64
  3
__ __ __ __ __ __ __ __ __ __ __ __ __ __ __
 72
65
 73
2
 40
0.50
 49
0.30
 49
-0.20
  0
LTYPE
  2
DASHDOT
 70
64
  3
____ _ ____ _ ____ _ ____ _ ____ _ ____ _ __
 72
65
 73
4
 40
2.0
 49
1.5
 49
-0.25
 49
0
 49
-0.25
  0
LTYPE
  2
DOT
 70
64
  3
............................................
 72
65
 73
2
 40
0.30
 49
0
 49
-0.30
  0
ENDTAB
  0
TABLE
  2
LAYER
 70
23
  0
LAYER
  2
SCHRAUBEN
 70
64
 62
7
  6
CONTINUOUS
  0
LAYER
  2
REST
 70
64
 62
7
  6
CONTINUOUS
  0
LAYER
  2
UNTERSCHRIFT
 70
64
 62
7
  6
CONTINUOUS
  0
LAYER
  2
TEILE
 70
64
 62
7
  6
CONTINUOUS
  0
LAYER
  2
BEZ_SCHRAUBEN
 70
64
 62
7
  6
CONTINUOUS
  0
LAYER
  2
MARKERPUNKTE
 70
64
 62
7
  6
CONTINUOUS
  0
LAYER
  2
HILFSPUNKTE
 70
64
 62
7
  6
CONTINUOUS
  0
LAYER
  2
PICKPUNKTE
 70
64
 62
7
  6
CONTINUOUS
  0
LAYER
  2
SCHWEISSEN
 70
64
 62
7
  6
CONTINUOUS
  0
LAYER
  2
GRAFIK
 70
64
 62
7
  6
CONTINUOUS
  0
LAYER
  2
BEM_FREI
 70
64
 62
7
  6
CONTINUOUS
  0
LAYER
  2
BEM_SYSTEM
 70
64
 62
7
  6
CONTINUOUS
  0
LAYER
  2
BEM_KONTUR
 70
64
 62
7
  6
CONTINUOUS
  0
LAYER
  2
BEM_ANBAU
 70
64
 62
7
  6
CONTINUOUS
  0
LAYER
  2
BEM_SCHRAUBEN
 70
64
 62
7
  6
CONTINUOUS
  0
LAYER
  2
BEM_SCHWEISSEN
 70
64
 62
7
  6
CONTINUOUS
  0
LAYER
  2
FREIER_TEXT
 70
64
 62
7
  6
CONTINUOUS
  0
LAYER
  2
BEZ_TEILE
 70
64
 62
7
  6
CONTINUOUS
  0
LAYER
  2
BEZ_SCHWEISSEN
 70
64
 62
7
  6
CONTINUOUS
  0
LAYER
  2
SCHRAFFUREN
 70
64
 62
7
  6
CONTINUOUS
  0
LAYER
  2
SCHNITTSYMBOL
 70
64
 62
7
  6
CONTINUOUS
  0
LAYER
  2
RASTER
 70
64
 62
7
  6
CONTINUOUS
  0
LAYER
  2
LISTEN
 70
64
 62
7
  6
CONTINUOUS
  0
LAYER
  2
RAHMEN
 70
64
 62
7
  6
CONTINUOUS
  0
ENDTAB
  0
TABLE
  2
STYLE
 70
1
  0
STYLE
  2
STANDARD
 70
64
 40
0
 41
1
 50
0.0
 71
0
 42
0.35
  3
ROMANS
  0
ENDTAB
  0
ENDSEC
  0
SECTION
  2
ENTITIES
  0
LINE
  8
SCHRAUBEN
 62
6
 10
196.685501
 20
-37.709770
 11
185.085510
 21
-49.309769
  0
LINE
  8
SCHRAUBEN
 62
6
 10
185.085510
 20
-37.709770
 11
196.685501
 21
-49.309769
  0
CIRCLE
  8
SCHRAUBEN
 62
2
 10
190.885498
 20
-43.509769
 40
14.500015
  0
LINE
  8
SCHRAUBEN
 62
6
 10
140.281906
 20
11.723358
 11
128.681915
 21
0.123358
  0
LINE
  8
SCHRAUBEN
 62
6
 10
128.681915
 20
11.723358
 11
140.281906
 21
0.123358
  0
CIRCLE
  8
SCHRAUBEN
 62
2
 10
134.481903
 20
5.923359
 40
14.500000
  0
LINE
  8
SCHRAUBEN
 62
6
 10
83.878319
 20
61.156487
 11
72.278313
 21
49.556488
  0
LINE
  8
SCHRAUBEN
 62
6
 10
72.278313
 20
61.156487
 11
83.878319
 21
49.556488
  0
CIRCLE
  8
SCHRAUBEN
 62
2
 10
78.078316
 20
55.356487
 40
14.500000
  0
LINE
  8
SCHRAUBEN
 62
6
 10
533.532837
 20
-77.063148
 11
526.332886
 21
-84.263145
  0
LINE
  8
SCHRAUBEN
 62
6
 10
526.332886
 20
-77.063148
 11
533.532837
 21
-84.263145
  0
CIRCLE
  8
SCHRAUBEN
 62
2
 10
529.932861
 20
-80.663147
 40
9.000000
  0
LINE
  8
SCHRAUBEN
 62
6
 10
533.532837
 20
-27.063145
 11
526.332886
 21
-34.263149
  0
LINE
  8
SCHRAUBEN
 62
6
 10
526.332886
 20
-27.063145
 11
533.532837
 21
-34.263149
  0
CIRCLE
  8
SCHRAUBEN
 62
2
 10
529.932861
 20
-30.663147
 40
9.000000
  0
LINE
  8
SCHRAUBEN
 62
6
 10
886.362183
 20
-29.253525
 11
874.762085
 21
-40.853523
  0
LINE
  8
SCHRAUBEN
 62
6
 10
874.762085
 20
-29.253525
 11
886.362183
 21
-40.853523
  0
CIRCLE
  8
SCHRAUBEN
 62
2
 10
880.562134
 20
-35.053524
 40
14.500000
  0
LINE
  8
SCHRAUBEN
 62
6
 10
942.886108
 20
20.041941
 11
931.286072
 21
8.441939
  0
LINE
  8
SCHRAUBEN
 62
6
 10
931.286072
 20
20.041941
 11
942.886108
 21
8.441939
  0
CIRCLE
  8
SCHRAUBEN
 62
2
 10
937.086121
 20
14.241940
 40
14.499939
  0
LINE
  8
SCHRAUBEN
 62
6
 10
999.410095
 20
69.337402
 11
987.810059
 21
57.737404
  0
LINE
  8
SCHRAUBEN
 62
6
 10
987.810059
 20
69.337402
 11
999.410095
 21
57.737404
  0
CIRCLE
  8
SCHRAUBEN
 62
2
 10
993.610107
 20
63.537403
 40
14.499939
  0
TEXT
 8
UNTERSCHRIFT
 62
2
 10
451.932648
 20
-138.656403
 40
3.250000
 41
0.800000
 51
15.000000
  1
Project  DP0GN9  ,Qty. 4  , Pos. 
  0
TEXT
 8
UNTERSCHRIFT
 62
2
 10
550.732605
 20
-138.656403
 40
3.250000
 41
0.800000
 51
15.000000
  1
  , Profi l PL281*20
  0
TEXT
 8
UNTERSCHRIFT
 62
2
 10
537.732605
 20
-138.656403
 40
3.250000
 41
0.800000
 51
15.000000
  1
20616
  0
LINE
  8
TEILE
 62
2
 10
64.422890
 20
-140.656403
 11
0.000000
 21
57.300583
  0
LINE
  8
TEILE
 62
2
 10
0.000000
 20
57.300583
 11
65.910835
 21
132.505386
  0
LINE
  8
TEILE
 62
2
 10
65.910835
 20
132.505386
 11
529.932617
 21
8.592272
  0
LINE
  8
TEILE
 62
2
 10
529.932617
 20
8.592272
 11
1005.965576
 21
140.656403
  0
LINE
  8
TEILE
 62
2
 10
1005.965576
 20
140.656403
 11
1071.693481
 21
65.290413
  0
LINE
  8
TEILE
 62
2
 10
1071.693481
 20
65.290413
 11
995.442383
 21
-140.656403
  0
LINE
  8
TEILE
 62
2
 10
995.442383
 20
-140.656403
 11
64.422890
 21
-140.656403
  0
TEXT
 8
BEZ_SCHRAUBEN
 62
2
 10
182.885529
 20
-65.509766
 40
5.000000
 41
0.800000
 51
15.000000
  1
 ø29
  0
TEXT
 8
BEZ_SCHRAUBEN
 62
2
 10
126.481903
 20
-16.076641
 40
5.000000
 41
0.800000
 51
15.000000
  1
 ø29
  0
TEXT
 8
BEZ_SCHRAUBEN
 62
2
 10
70.078308
 20
33.356487
 40
4.999999
 41
0.800000
 51
15.000000
  1
 ø29
  0
TEXT
 8
BEZ_SCHRAUBEN
 62
2
 10
521.932861
 20
-97.163147
 40
5.000000
 41
0.800000
 51
15.000000
  1
 ø18
  0
TEXT
 8
BEZ_SCHRAUBEN
 62
2
 10
521.932861
 20
-47.163147
 40
5.000000
 41
0.800000
 51
15.000000
  1
 ø18
  0
TEXT
 8
BEZ_SCHRAUBEN
 62
2
 10
872.562134
 20
-57.053524
 40
5.000000
 41
0.800000
 51
15.000000
  1
 ø29
  0
TEXT
 8
BEZ_SCHRAUBEN
 62
2
 10
929.086060
 20
-7.758060
 40
5.000000
 41
0.800000
 51
15.000000
  1
 ø29
  0
TEXT
 8
BEZ_SCHRAUBEN
 62
2
 10
985.610046
 20
41.537403
 40
5.000000
 41
0.800000
 51
15.000000
  1
 ø29
  0
ENDSEC
  0
EOF

