999
     *******************************************
999
     BOCAD Software GmbH   Rev.18.000   0202.22
999
     Filename:   c:\progetti21\danieli_aqs\b4\temp_11\20612.dxf
999
     Creator:    bocad
999
     Date:       20.01.2016
999
     Factor:     10.000000
999
     *******************************************
  0
SECTION
  2
HEADER
  9
$DWGCODEPAGE
  3
ANSI_1252
  9
$INSBASE
 10
0.0
 20
0.0
 30
0.0
  9
$EXTMIN
 10
-0.500004
 20
-165.499992
  9
$EXTMAX
 10
11384.494629
 20
165.500031
  9
$LIMMIN
 10
-1.500004
 20
-166.499992
  9
$LIMMAX
 10
11385.494629
 20
166.500031
  9
$LTSCALE
 40
10.000000
  0
ENDSEC
  0
SECTION
  2
TABLES
  0
TABLE
  2
LTYPE
 70
4
  0
LTYPE
  2
CONTINUOUS
 70
64
  3
____________________________________________
 72
65
 73
0
 40
0.0
  0
LTYPE
  2
HIDDEN
 70
64
  3
__ __ __ __ __ __ __ __ __ __ __ __ __ __ __
 72
65
 73
2
 40
0.50
 49
0.30
 49
-0.20
  0
LTYPE
  2
DASHDOT
 70
64
  3
____ _ ____ _ ____ _ ____ _ ____ _ ____ _ __
 72
65
 73
4
 40
2.0
 49
1.5
 49
-0.25
 49
0
 49
-0.25
  0
LTYPE
  2
DOT
 70
64
  3
............................................
 72
65
 73
2
 40
0.30
 49
0
 49
-0.30
  0
ENDTAB
  0
TABLE
  2
LAYER
 70
23
  0
LAYER
  2
UNTERSCHRIFT
 70
64
 62
7
  6
CONTINUOUS
  0
LAYER
  2
TEILE
 70
64
 62
7
  6
CONTINUOUS
  0
LAYER
  2
REST
 70
64
 62
7
  6
CONTINUOUS
  0
LAYER
  2
MARKERPUNKTE
 70
64
 62
7
  6
CONTINUOUS
  0
LAYER
  2
HILFSPUNKTE
 70
64
 62
7
  6
CONTINUOUS
  0
LAYER
  2
PICKPUNKTE
 70
64
 62
7
  6
CONTINUOUS
  0
LAYER
  2
SCHRAUBEN
 70
64
 62
7
  6
CONTINUOUS
  0
LAYER
  2
SCHWEISSEN
 70
64
 62
7
  6
CONTINUOUS
  0
LAYER
  2
GRAFIK
 70
64
 62
7
  6
CONTINUOUS
  0
LAYER
  2
BEM_FREI
 70
64
 62
7
  6
CONTINUOUS
  0
LAYER
  2
BEM_SYSTEM
 70
64
 62
7
  6
CONTINUOUS
  0
LAYER
  2
BEM_KONTUR
 70
64
 62
7
  6
CONTINUOUS
  0
LAYER
  2
BEM_ANBAU
 70
64
 62
7
  6
CONTINUOUS
  0
LAYER
  2
BEM_SCHRAUBEN
 70
64
 62
7
  6
CONTINUOUS
  0
LAYER
  2
BEM_SCHWEISSEN
 70
64
 62
7
  6
CONTINUOUS
  0
LAYER
  2
FREIER_TEXT
 70
64
 62
7
  6
CONTINUOUS
  0
LAYER
  2
BEZ_TEILE
 70
64
 62
7
  6
CONTINUOUS
  0
LAYER
  2
BEZ_SCHRAUBEN
 70
64
 62
7
  6
CONTINUOUS
  0
LAYER
  2
BEZ_SCHWEISSEN
 70
64
 62
7
  6
CONTINUOUS
  0
LAYER
  2
SCHRAFFUREN
 70
64
 62
7
  6
CONTINUOUS
  0
LAYER
  2
SCHNITTSYMBOL
 70
64
 62
7
  6
CONTINUOUS
  0
LAYER
  2
RASTER
 70
64
 62
7
  6
CONTINUOUS
  0
LAYER
  2
LISTEN
 70
64
 62
7
  6
CONTINUOUS
  0
LAYER
  2
RAHMEN
 70
64
 62
7
  6
CONTINUOUS
  0
ENDTAB
  0
TABLE
  2
STYLE
 70
1
  0
STYLE
  2
STANDARD
 70
64
 40
0
 41
1
 50
0.0
 71
0
 42
0.35
  3
ROMANS
  0
ENDTAB
  0
ENDSEC
  0
SECTION
  2
ENTITIES
  0
TEXT
 8
UNTERSCHRIFT
 62
2
 10
5613.997070
 20
159.750015
 40
3.250003
 41
0.799999
 51
15.000000
  1
Project  DP0GN9  ,Qty. 2  , Pos. 
  0
TEXT
 8
UNTERSCHRIFT
 62
2
 10
5712.797363
 20
159.750015
 40
3.250003
 41
0.799999
 51
15.000000
  1
  , Profi l PL330*12
  0
TEXT
 8
UNTERSCHRIFT
 62
2
 10
5699.797363
 20
159.750015
 40
3.250003
 41
0.799999
 51
15.000000
  1
20612
  0
LINE
  8
TEILE
 62
2
 10
11383.994141
 20
135.000000
 11
11383.994141
 21
-135.000000
  0
LINE
  8
TEILE
 62
2
 10
11383.994141
 20
-135.000000
 11
11382.423828
 21
-135.041626
  0
LINE
  8
TEILE
 62
2
 10
11382.423828
 20
-135.041626
 11
11380.858398
 21
-135.164780
  0
LINE
  8
TEILE
 62
2
 10
11380.858398
 20
-135.164780
 11
11379.300781
 21
-135.369736
  0
LINE
  8
TEILE
 62
2
 10
11379.300781
 20
-135.369736
 11
11377.755859
 21
-135.655899
  0
LINE
  8
TEILE
 62
2
 10
11377.755859
 20
-135.655899
 11
11376.229492
 21
-136.022507
  0
LINE
  8
TEILE
 62
2
 10
11376.229492
 20
-136.022507
 11
11374.724609
 21
-136.468536
  0
LINE
  8
TEILE
 62
2
 10
11374.724609
 20
-136.468536
 11
11373.243164
 21
-136.992783
  0
LINE
  8
TEILE
 62
2
 10
11373.243164
 20
-136.992783
 11
11371.791992
 21
-137.593796
  0
LINE
  8
TEILE
 62
2
 10
11371.791992
 20
-137.593796
 11
11370.375000
 21
-138.269928
  0
LINE
  8
TEILE
 62
2
 10
11370.375000
 20
-138.269928
 11
11368.994141
 21
-139.019333
  0
LINE
  8
TEILE
 62
2
 10
11368.994141
 20
-139.019333
 11
11367.655273
 21
-139.839935
  0
LINE
  8
TEILE
 62
2
 10
11367.655273
 20
-139.839935
 11
11366.359375
 21
-140.729523
  0
LINE
  8
TEILE
 62
2
 10
11366.359375
 20
-140.729523
 11
11365.115234
 21
-141.685623
  0
LINE
  8
TEILE
 62
2
 10
11365.115234
 20
-141.685623
 11
11363.919922
 21
-142.705643
  0
LINE
  8
TEILE
 62
2
 10
11363.919922
 20
-142.705643
 11
11362.781250
 21
-143.786758
  0
LINE
  8
TEILE
 62
2
 10
11362.781250
 20
-143.786758
 11
11361.699219
 21
-144.926025
  0
LINE
  8
TEILE
 62
2
 10
11361.699219
 20
-144.926025
 11
11360.679688
 21
-146.120331
  0
LINE
  8
TEILE
 62
2
 10
11360.679688
 20
-146.120331
 11
11359.722656
 21
-147.366364
  0
LINE
  8
TEILE
 62
2
 10
11359.722656
 20
-147.366364
 11
11358.833008
 21
-148.660751
  0
LINE
  8
TEILE
 62
2
 10
11358.833008
 20
-148.660751
 11
11358.012695
 21
-149.999924
  0
LINE
  8
TEILE
 62
2
 10
11358.012695
 20
-149.999924
 11
11357.263672
 21
-151.380203
  0
LINE
  8
TEILE
 62
2
 10
11357.263672
 20
-151.380203
 11
11356.586914
 21
-152.797821
  0
LINE
  8
TEILE
 62
2
 10
11356.586914
 20
-152.797821
 11
11355.986328
 21
-154.248871
  0
LINE
  8
TEILE
 62
2
 10
11355.986328
 20
-154.248871
 11
11355.460938
 21
-155.729401
  0
LINE
  8
TEILE
 62
2
 10
11355.460938
 20
-155.729401
 11
11355.015625
 21
-157.235352
  0
LINE
  8
TEILE
 62
2
 10
11355.015625
 20
-157.235352
 11
11354.649414
 21
-158.762573
  0
LINE
  8
TEILE
 62
2
 10
11354.649414
 20
-158.762573
 11
11354.363281
 21
-160.306885
  0
LINE
  8
TEILE
 62
2
 10
11354.363281
 20
-160.306885
 11
11354.158203
 21
-161.864090
  0
LINE
  8
TEILE
 62
2
 10
11354.158203
 20
-161.864090
 11
11354.034180
 21
-163.429871
  0
LINE
  8
TEILE
 62
2
 10
11354.034180
 20
-163.429871
 11
11353.994141
 21
-164.999969
  0
LINE
  8
TEILE
 62
2
 10
11353.994141
 20
-164.999969
 11
11353.994141
 21
-165.000000
  0
LINE
  8
TEILE
 62
2
 10
11353.994141
 20
-165.000000
 11
30.000000
 21
-165.000000
  0
LINE
  8
TEILE
 62
2
 10
30.000000
 20
-165.000000
 11
29.956005
 21
-163.375839
  0
LINE
  8
TEILE
 62
2
 10
29.956005
 20
-163.375839
 11
29.824141
 21
-161.756439
  0
LINE
  8
TEILE
 62
2
 10
29.824141
 20
-161.756439
 11
29.604795
 21
-160.146545
  0
LINE
  8
TEILE
 62
2
 10
29.604795
 20
-160.146545
 11
29.298615
 21
-158.550888
  0
LINE
  8
TEILE
 62
2
 10
29.298615
 20
-158.550888
 11
28.906498
 21
-156.974152
  0
LINE
  8
TEILE
 62
2
 10
28.906498
 20
-156.974152
 11
28.429594
 21
-155.420959
  0
LINE
  8
TEILE
 62
2
 10
28.429594
 20
-155.420959
 11
27.869299
 21
-153.895859
  0
LINE
  8
TEILE
 62
2
 10
27.869299
 20
-153.895859
 11
27.227259
 21
-152.403320
  0
LINE
  8
TEILE
 62
2
 10
27.227259
 20
-152.403320
 11
26.505358
 21
-150.947754
  0
LINE
  8
TEILE
 62
2
 10
26.505358
 20
-150.947754
 11
25.705711
 21
-149.533386
  0
LINE
  8
TEILE
 62
2
 10
25.705711
 20
-149.533386
 11
24.830666
 21
-148.164398
  0
LINE
  8
TEILE
 62
2
 10
24.830666
 20
-148.164398
 11
23.882788
 21
-146.844772
  0
LINE
  8
TEILE
 62
2
 10
23.882788
 20
-146.844772
 11
22.864857
 21
-145.578415
  0
LINE
  8
TEILE
 62
2
 10
22.864857
 20
-145.578415
 11
21.779860
 21
-144.369019
  0
LINE
  8
TEILE
 62
2
 10
21.779860
 20
-144.369019
 11
20.630980
 21
-143.220139
  0
LINE
  8
TEILE
 62
2
 10
20.630980
 20
-143.220139
 11
19.421583
 21
-142.135147
  0
LINE
  8
TEILE
 62
2
 10
19.421583
 20
-142.135147
 11
18.155220
 21
-141.117218
  0
LINE
  8
TEILE
 62
2
 10
18.155220
 20
-141.117218
 11
16.835606
 21
-140.169342
  0
LINE
  8
TEILE
 62
2
 10
16.835606
 20
-140.169342
 11
15.466610
 21
-139.294296
  0
LINE
  8
TEILE
 62
2
 10
15.466610
 20
-139.294296
 11
14.052249
 21
-138.494644
  0
LINE
  8
TEILE
 62
2
 10
14.052249
 20
-138.494644
 11
12.596669
 21
-137.772736
  0
LINE
  8
TEILE
 62
2
 10
12.596669
 20
-137.772736
 11
11.104140
 21
-137.130707
  0
LINE
  8
TEILE
 62
2
 10
11.104140
 20
-137.130707
 11
9.579042
 21
-136.570404
  0
LINE
  8
TEILE
 62
2
 10
9.579042
 20
-136.570404
 11
8.025846
 21
-136.093506
  0
LINE
  8
TEILE
 62
2
 10
8.025846
 20
-136.093506
 11
6.449109
 21
-135.701385
  0
LINE
  8
TEILE
 62
2
 10
6.449109
 20
-135.701385
 11
4.853456
 21
-135.395218
  0
LINE
  8
TEILE
 62
2
 10
4.853456
 20
-135.395218
 11
3.243567
 21
-135.175873
  0
LINE
  8
TEILE
 62
2
 10
3.243567
 20
-135.175873
 11
1.624163
 21
-135.044006
  0
LINE
  8
TEILE
 62
2
 10
1.624163
 20
-135.044006
 11
-0.000004
 21
-135.000000
  0
LINE
  8
TEILE
 62
2
 10
-0.000004
 20
-135.000000
 11
-0.000000
 21
-135.000000
  0
LINE
  8
TEILE
 62
2
 10
-0.000000
 20
-135.000000
 11
-0.000000
 21
135.000031
  0
LINE
  8
TEILE
 62
2
 10
-0.000000
 20
135.000031
 11
1.624166
 21
135.044037
  0
LINE
  8
TEILE
 62
2
 10
1.624166
 20
135.044037
 11
3.243570
 21
135.175903
  0
LINE
  8
TEILE
 62
2
 10
3.243570
 20
135.175903
 11
4.853459
 21
135.395233
  0
LINE
  8
TEILE
 62
2
 10
4.853459
 20
135.395233
 11
6.449113
 21
135.701416
  0
LINE
  8
TEILE
 62
2
 10
6.449113
 20
135.701416
 11
8.025850
 21
136.093536
  0
LINE
  8
TEILE
 62
2
 10
8.025850
 20
136.093536
 11
9.579046
 21
136.570450
  0
LINE
  8
TEILE
 62
2
 10
9.579046
 20
136.570450
 11
11.104145
 21
137.130737
  0
LINE
  8
TEILE
 62
2
 10
11.104145
 20
137.130737
 11
12.596674
 21
137.772781
  0
LINE
  8
TEILE
 62
2
 10
12.596674
 20
137.772781
 11
14.052254
 21
138.494690
  0
LINE
  8
TEILE
 62
2
 10
14.052254
 20
138.494690
 11
15.466616
 21
139.294327
  0
LINE
  8
TEILE
 62
2
 10
15.466616
 20
139.294327
 11
16.835613
 21
140.169373
  0
LINE
  8
TEILE
 62
2
 10
16.835613
 20
140.169373
 11
18.155228
 21
141.117249
  0
LINE
  8
TEILE
 62
2
 10
18.155228
 20
141.117249
 11
19.421589
 21
142.135178
  0
LINE
  8
TEILE
 62
2
 10
19.421589
 20
142.135178
 11
20.630985
 21
143.220184
  0
LINE
  8
TEILE
 62
2
 10
20.630985
 20
143.220184
 11
21.779865
 21
144.369064
  0
LINE
  8
TEILE
 62
2
 10
21.779865
 20
144.369064
 11
22.864864
 21
145.578461
  0
LINE
  8
TEILE
 62
2
 10
22.864864
 20
145.578461
 11
23.882792
 21
146.844818
  0
LINE
  8
TEILE
 62
2
 10
23.882792
 20
146.844818
 11
24.830669
 21
148.164429
  0
LINE
  8
TEILE
 62
2
 10
24.830669
 20
148.164429
 11
25.705717
 21
149.533432
  0
LINE
  8
TEILE
 62
2
 10
25.705717
 20
149.533432
 11
26.505363
 21
150.947800
  0
LINE
  8
TEILE
 62
2
 10
26.505363
 20
150.947800
 11
27.227264
 21
152.403381
  0
LINE
  8
TEILE
 62
2
 10
27.227264
 20
152.403381
 11
27.869303
 21
153.895905
  0
LINE
  8
TEILE
 62
2
 10
27.869303
 20
153.895905
 11
28.429596
 21
155.421005
  0
LINE
  8
TEILE
 62
2
 10
28.429596
 20
155.421005
 11
28.906500
 21
156.974197
  0
LINE
  8
TEILE
 62
2
 10
28.906500
 20
156.974197
 11
29.298618
 21
158.550934
  0
LINE
  8
TEILE
 62
2
 10
29.298618
 20
158.550934
 11
29.604797
 21
160.146576
  0
LINE
  8
TEILE
 62
2
 10
29.604797
 20
160.146576
 11
29.824141
 21
161.756470
  0
LINE
  8
TEILE
 62
2
 10
29.824141
 20
161.756470
 11
29.956005
 21
163.375870
  0
LINE
  8
TEILE
 62
2
 10
29.956005
 20
163.375870
 11
30.000002
 21
165.000031
  0
LINE
  8
TEILE
 62
2
 10
30.000002
 20
165.000031
 11
30.000000
 21
165.000031
  0
LINE
  8
TEILE
 62
2
 10
30.000000
 20
165.000031
 11
11353.994141
 21
165.000000
  0
LINE
  8
TEILE
 62
2
 10
11353.994141
 20
165.000000
 11
11354.038086
 21
163.375839
  0
LINE
  8
TEILE
 62
2
 10
11354.038086
 20
163.375839
 11
11354.169922
 21
161.756439
  0
LINE
  8
TEILE
 62
2
 10
11354.169922
 20
161.756439
 11
11354.389648
 21
160.146561
  0
LINE
  8
TEILE
 62
2
 10
11354.389648
 20
160.146561
 11
11354.695313
 21
158.550919
  0
LINE
  8
TEILE
 62
2
 10
11354.695313
 20
158.550919
 11
11355.087891
 21
156.974197
  0
LINE
  8
TEILE
 62
2
 10
11355.087891
 20
156.974197
 11
11355.564453
 21
155.421005
  0
LINE
  8
TEILE
 62
2
 10
11355.564453
 20
155.421005
 11
11356.124023
 21
153.895920
  0
LINE
  8
TEILE
 62
2
 10
11356.124023
 20
153.895920
 11
11356.766602
 21
152.403397
  0
LINE
  8
TEILE
 62
2
 10
11356.766602
 20
152.403397
 11
11357.489258
 21
150.947845
  0
LINE
  8
TEILE
 62
2
 10
11357.489258
 20
150.947845
 11
11358.289063
 21
149.533493
  0
LINE
  8
TEILE
 62
2
 10
11358.289063
 20
149.533493
 11
11359.164063
 21
148.164505
  0
LINE
  8
TEILE
 62
2
 10
11359.164063
 20
148.164505
 11
11360.111328
 21
146.844925
  0
LINE
  8
TEILE
 62
2
 10
11360.111328
 20
146.844925
 11
11361.128906
 21
145.578583
  0
LINE
  8
TEILE
 62
2
 10
11361.128906
 20
145.578583
 11
11362.214844
 21
144.369186
  0
LINE
  8
TEILE
 62
2
 10
11362.214844
 20
144.369186
 11
11363.363281
 21
143.220337
  0
LINE
  8
TEILE
 62
2
 10
11363.363281
 20
143.220337
 11
11364.572266
 21
142.135345
  0
LINE
  8
TEILE
 62
2
 10
11364.572266
 20
142.135345
 11
11365.838867
 21
141.117432
  0
LINE
  8
TEILE
 62
2
 10
11365.838867
 20
141.117432
 11
11367.158203
 21
140.169571
  0
LINE
  8
TEILE
 62
2
 10
11367.158203
 20
140.169571
 11
11368.527344
 21
139.294556
  0
LINE
  8
TEILE
 62
2
 10
11368.527344
 20
139.294556
 11
11369.941406
 21
138.494919
  0
LINE
  8
TEILE
 62
2
 10
11369.941406
 20
138.494919
 11
11371.397461
 21
137.773026
  0
LINE
  8
TEILE
 62
2
 10
11371.397461
 20
137.773026
 11
11372.890625
 21
137.131012
  0
LINE
  8
TEILE
 62
2
 10
11372.890625
 20
137.131012
 11
11374.415039
 21
136.570724
  0
LINE
  8
TEILE
 62
2
 10
11374.415039
 20
136.570724
 11
11375.967773
 21
136.093842
  0
LINE
  8
TEILE
 62
2
 10
11375.967773
 20
136.093842
 11
11377.544922
 21
135.701721
  0
LINE
  8
TEILE
 62
2
 10
11377.544922
 20
135.701721
 11
11379.140625
 21
135.395554
  0
LINE
  8
TEILE
 62
2
 10
11379.140625
 20
135.395554
 11
11380.750977
 21
135.176224
  0
LINE
  8
TEILE
 62
2
 10
11380.750977
 20
135.176224
 11
11382.371094
 21
135.044373
  0
LINE
  8
TEILE
 62
2
 10
11382.371094
 20
135.044373
 11
11383.994141
 21
135.000366
  0
LINE
  8
TEILE
 62
2
 10
11383.994141
 20
135.000366
 11
11383.994141
 21
135.000000
  0
ENDSEC
  0
EOF

