999
     *******************************************
999
     BOCAD Software GmbH   Rev.18.000   0202.22
999
     Filename:   c:\progetti21\danieli_aqs\b4\temp_11\20618.dxf
999
     Creator:    bocad
999
     Date:       20.01.2016
999
     Factor:     10.000000
999
     *******************************************
  0
SECTION
  2
HEADER
  9
$DWGCODEPAGE
  3
ANSI_1252
  9
$INSBASE
 10
0.0
 20
0.0
 30
0.0
  9
$EXTMIN
 10
-0.500000
 20
-139.902182
  9
$EXTMAX
 10
995.660629
 20
139.902182
  9
$LIMMIN
 10
-1.500000
 20
-140.902182
  9
$LIMMAX
 10
996.660629
 20
140.902182
  9
$LTSCALE
 40
10.000000
  0
ENDSEC
  0
SECTION
  2
TABLES
  0
TABLE
  2
LTYPE
 70
4
  0
LTYPE
  2
CONTINUOUS
 70
64
  3
____________________________________________
 72
65
 73
0
 40
0.0
  0
LTYPE
  2
HIDDEN
 70
64
  3
__ __ __ __ __ __ __ __ __ __ __ __ __ __ __
 72
65
 73
2
 40
0.50
 49
0.30
 49
-0.20
  0
LTYPE
  2
DASHDOT
 70
64
  3
____ _ ____ _ ____ _ ____ _ ____ _ ____ _ __
 72
65
 73
4
 40
2.0
 49
1.5
 49
-0.25
 49
0
 49
-0.25
  0
LTYPE
  2
DOT
 70
64
  3
............................................
 72
65
 73
2
 40
0.30
 49
0
 49
-0.30
  0
ENDTAB
  0
TABLE
  2
LAYER
 70
23
  0
LAYER
  2
SCHRAUBEN
 70
64
 62
7
  6
CONTINUOUS
  0
LAYER
  2
REST
 70
64
 62
7
  6
CONTINUOUS
  0
LAYER
  2
UNTERSCHRIFT
 70
64
 62
7
  6
CONTINUOUS
  0
LAYER
  2
TEILE
 70
64
 62
7
  6
CONTINUOUS
  0
LAYER
  2
BEZ_SCHRAUBEN
 70
64
 62
7
  6
CONTINUOUS
  0
LAYER
  2
MARKERPUNKTE
 70
64
 62
7
  6
CONTINUOUS
  0
LAYER
  2
HILFSPUNKTE
 70
64
 62
7
  6
CONTINUOUS
  0
LAYER
  2
PICKPUNKTE
 70
64
 62
7
  6
CONTINUOUS
  0
LAYER
  2
SCHWEISSEN
 70
64
 62
7
  6
CONTINUOUS
  0
LAYER
  2
GRAFIK
 70
64
 62
7
  6
CONTINUOUS
  0
LAYER
  2
BEM_FREI
 70
64
 62
7
  6
CONTINUOUS
  0
LAYER
  2
BEM_SYSTEM
 70
64
 62
7
  6
CONTINUOUS
  0
LAYER
  2
BEM_KONTUR
 70
64
 62
7
  6
CONTINUOUS
  0
LAYER
  2
BEM_ANBAU
 70
64
 62
7
  6
CONTINUOUS
  0
LAYER
  2
BEM_SCHRAUBEN
 70
64
 62
7
  6
CONTINUOUS
  0
LAYER
  2
BEM_SCHWEISSEN
 70
64
 62
7
  6
CONTINUOUS
  0
LAYER
  2
FREIER_TEXT
 70
64
 62
7
  6
CONTINUOUS
  0
LAYER
  2
BEZ_TEILE
 70
64
 62
7
  6
CONTINUOUS
  0
LAYER
  2
BEZ_SCHWEISSEN
 70
64
 62
7
  6
CONTINUOUS
  0
LAYER
  2
SCHRAFFUREN
 70
64
 62
7
  6
CONTINUOUS
  0
LAYER
  2
SCHNITTSYMBOL
 70
64
 62
7
  6
CONTINUOUS
  0
LAYER
  2
RASTER
 70
64
 62
7
  6
CONTINUOUS
  0
LAYER
  2
LISTEN
 70
64
 62
7
  6
CONTINUOUS
  0
LAYER
  2
RAHMEN
 70
64
 62
7
  6
CONTINUOUS
  0
ENDTAB
  0
TABLE
  2
STYLE
 70
1
  0
STYLE
  2
STANDARD
 70
64
 40
0
 41
1
 50
0.0
 71
0
 42
0.35
  3
ROMANS
  0
ENDTAB
  0
ENDSEC
  0
SECTION
  2
ENTITIES
  0
LINE
  8
SCHRAUBEN
 62
6
 10
83.721092
 20
67.597977
 11
72.121094
 21
55.997982
  0
LINE
  8
SCHRAUBEN
 62
6
 10
72.121094
 20
67.597977
 11
83.721092
 21
55.997982
  0
CIRCLE
  8
SCHRAUBEN
 62
2
 10
77.921097
 20
61.797981
 40
14.500000
  0
LINE
  8
SCHRAUBEN
 62
6
 10
137.932129
 20
15.769768
 11
126.332130
 21
4.169767
  0
LINE
  8
SCHRAUBEN
 62
6
 10
126.332130
 20
15.769768
 11
137.932129
 21
4.169767
  0
CIRCLE
  8
SCHRAUBEN
 62
2
 10
132.132126
 20
9.969768
 40
14.500000
  0
LINE
  8
SCHRAUBEN
 62
6
 10
192.143173
 20
-36.058445
 11
180.543182
 21
-47.658443
  0
LINE
  8
SCHRAUBEN
 62
6
 10
180.543182
 20
-36.058445
 11
192.143173
 21
-47.658443
  0
CIRCLE
  8
SCHRAUBEN
 62
2
 10
186.343170
 20
-41.858444
 40
14.500015
  0
LINE
  8
SCHRAUBEN
 62
6
 10
501.187622
 20
-75.818192
 11
493.987610
 21
-83.018196
  0
LINE
  8
SCHRAUBEN
 62
6
 10
493.987610
 20
-75.818192
 11
501.187622
 21
-83.018196
  0
CIRCLE
  8
SCHRAUBEN
 62
2
 10
497.587616
 20
-79.418198
 40
9.000031
  0
LINE
  8
SCHRAUBEN
 62
6
 10
501.187744
 20
-25.818193
 11
493.987732
 21
-33.018192
  0
LINE
  8
SCHRAUBEN
 62
6
 10
493.987732
 20
-25.818195
 11
501.187744
 21
-33.018192
  0
CIRCLE
  8
SCHRAUBEN
 62
2
 10
497.587738
 20
-29.418194
 40
9.000031
  0
LINE
  8
SCHRAUBEN
 62
6
 10
923.039429
 20
67.596321
 11
911.439331
 21
55.996323
  0
LINE
  8
SCHRAUBEN
 62
6
 10
911.439331
 20
67.596321
 11
923.039429
 21
55.996323
  0
CIRCLE
  8
SCHRAUBEN
 62
2
 10
917.239380
 20
61.796322
 40
14.500000
  0
LINE
  8
SCHRAUBEN
 62
6
 10
868.828186
 20
15.768323
 11
857.228149
 21
4.168322
  0
LINE
  8
SCHRAUBEN
 62
6
 10
857.228149
 20
15.768323
 11
868.828186
 21
4.168322
  0
CIRCLE
  8
SCHRAUBEN
 62
2
 10
863.028198
 20
9.968323
 40
14.499939
  0
LINE
  8
SCHRAUBEN
 62
6
 10
814.616943
 20
-36.059677
 11
803.016907
 21
-47.659676
  0
LINE
  8
SCHRAUBEN
 62
6
 10
803.016907
 20
-36.059677
 11
814.616943
 21
-47.659676
  0
CIRCLE
  8
SCHRAUBEN
 62
2
 10
808.816895
 20
-41.859673
 40
14.500000
  0
TEXT
 8
UNTERSCHRIFT
 62
2
 10
419.583313
 20
-137.402176
 40
3.250000
 41
0.800000
 51
15.000000
  1
Project  DP0GN9  ,Qty. 6  , Pos. 
  0
TEXT
 8
UNTERSCHRIFT
 62
2
 10
518.383301
 20
-137.402176
 40
3.250000
 41
0.800000
 51
15.000000
  1
  , Profi l PL279*20
  0
TEXT
 8
UNTERSCHRIFT
 62
2
 10
505.383301
 20
-137.402176
 40
3.250000
 41
0.800000
 51
15.000000
  1
20618
  0
LINE
  8
TEILE
 62
2
 10
32.073612
 20
-139.402176
 11
-0.000000
 21
67.122581
  0
LINE
  8
TEILE
 62
2
 10
-0.000000
 20
67.122581
 11
69.106148
 21
139.402176
  0
LINE
  8
TEILE
 62
2
 10
69.106148
 20
139.402176
 11
497.583282
 21
9.846499
  0
LINE
  8
TEILE
 62
2
 10
497.583282
 20
9.846499
 11
926.054688
 21
139.400482
  0
LINE
  8
TEILE
 62
2
 10
926.054688
 20
139.400482
 11
995.160583
 21
67.120613
  0
LINE
  8
TEILE
 62
2
 10
995.160583
 20
67.120613
 11
963.093018
 21
-139.402176
  0
LINE
  8
TEILE
 62
2
 10
963.093018
 20
-139.402176
 11
32.073612
 21
-139.402176
  0
TEXT
 8
BEZ_SCHRAUBEN
 62
2
 10
69.921089
 20
39.797977
 40
4.999999
 41
0.800000
 51
15.000000
  1
 ø29
  0
TEXT
 8
BEZ_SCHRAUBEN
 62
2
 10
124.132126
 20
-12.030231
 40
5.000000
 41
0.800000
 51
15.000000
  1
 ø29
  0
TEXT
 8
BEZ_SCHRAUBEN
 62
2
 10
178.343185
 20
-63.858444
 40
5.000000
 41
0.800000
 51
15.000000
  1
 ø29
  0
TEXT
 8
BEZ_SCHRAUBEN
 62
2
 10
489.587646
 20
-95.918198
 40
5.000000
 41
0.800000
 51
15.000000
  1
 ø18
  0
TEXT
 8
BEZ_SCHRAUBEN
 62
2
 10
489.587708
 20
-45.918198
 40
5.000000
 41
0.800000
 51
15.000000
  1
 ø18
  0
TEXT
 8
BEZ_SCHRAUBEN
 62
2
 10
909.239380
 20
39.796318
 40
4.999999
 41
0.800000
 51
15.000000
  1
 ø29
  0
TEXT
 8
BEZ_SCHRAUBEN
 62
2
 10
855.028137
 20
-12.031677
 40
5.000000
 41
0.800000
 51
15.000000
  1
 ø29
  0
TEXT
 8
BEZ_SCHRAUBEN
 62
2
 10
800.816895
 20
-63.859673
 40
5.000000
 41
0.800000
 51
15.000000
  1
 ø29
  0
ENDSEC
  0
EOF

