999
     *******************************************
999
     BOCAD Software GmbH   Rev.18.000   0202.22
999
     Filename:   c:\progetti21\danieli_aqs\b4\temp_11\20619.dxf
999
     Creator:    bocad
999
     Date:       20.01.2016
999
     Factor:     10.000000
999
     *******************************************
  0
SECTION
  2
HEADER
  9
$DWGCODEPAGE
  3
ANSI_1252
  9
$INSBASE
 10
0.0
 20
0.0
 30
0.0
  9
$EXTMIN
 10
-0.500000
 20
-139.905396
  9
$EXTMAX
 10
458.058167
 20
139.905396
  9
$LIMMIN
 10
-1.500000
 20
-140.905396
  9
$LIMMAX
 10
459.058167
 20
140.905396
  9
$LTSCALE
 40
10.000000
  0
ENDSEC
  0
SECTION
  2
TABLES
  0
TABLE
  2
LTYPE
 70
4
  0
LTYPE
  2
CONTINUOUS
 70
64
  3
____________________________________________
 72
65
 73
0
 40
0.0
  0
LTYPE
  2
HIDDEN
 70
64
  3
__ __ __ __ __ __ __ __ __ __ __ __ __ __ __
 72
65
 73
2
 40
0.50
 49
0.30
 49
-0.20
  0
LTYPE
  2
DASHDOT
 70
64
  3
____ _ ____ _ ____ _ ____ _ ____ _ ____ _ __
 72
65
 73
4
 40
2.0
 49
1.5
 49
-0.25
 49
0
 49
-0.25
  0
LTYPE
  2
DOT
 70
64
  3
............................................
 72
65
 73
2
 40
0.30
 49
0
 49
-0.30
  0
ENDTAB
  0
TABLE
  2
LAYER
 70
23
  0
LAYER
  2
SCHRAUBEN
 70
64
 62
7
  6
CONTINUOUS
  0
LAYER
  2
REST
 70
64
 62
7
  6
CONTINUOUS
  0
LAYER
  2
UNTERSCHRIFT
 70
64
 62
7
  6
CONTINUOUS
  0
LAYER
  2
TEILE
 70
64
 62
7
  6
CONTINUOUS
  0
LAYER
  2
BEZ_SCHRAUBEN
 70
64
 62
7
  6
CONTINUOUS
  0
LAYER
  2
MARKERPUNKTE
 70
64
 62
7
  6
CONTINUOUS
  0
LAYER
  2
HILFSPUNKTE
 70
64
 62
7
  6
CONTINUOUS
  0
LAYER
  2
PICKPUNKTE
 70
64
 62
7
  6
CONTINUOUS
  0
LAYER
  2
SCHWEISSEN
 70
64
 62
7
  6
CONTINUOUS
  0
LAYER
  2
GRAFIK
 70
64
 62
7
  6
CONTINUOUS
  0
LAYER
  2
BEM_FREI
 70
64
 62
7
  6
CONTINUOUS
  0
LAYER
  2
BEM_SYSTEM
 70
64
 62
7
  6
CONTINUOUS
  0
LAYER
  2
BEM_KONTUR
 70
64
 62
7
  6
CONTINUOUS
  0
LAYER
  2
BEM_ANBAU
 70
64
 62
7
  6
CONTINUOUS
  0
LAYER
  2
BEM_SCHRAUBEN
 70
64
 62
7
  6
CONTINUOUS
  0
LAYER
  2
BEM_SCHWEISSEN
 70
64
 62
7
  6
CONTINUOUS
  0
LAYER
  2
FREIER_TEXT
 70
64
 62
7
  6
CONTINUOUS
  0
LAYER
  2
BEZ_TEILE
 70
64
 62
7
  6
CONTINUOUS
  0
LAYER
  2
BEZ_SCHWEISSEN
 70
64
 62
7
  6
CONTINUOUS
  0
LAYER
  2
SCHRAFFUREN
 70
64
 62
7
  6
CONTINUOUS
  0
LAYER
  2
SCHNITTSYMBOL
 70
64
 62
7
  6
CONTINUOUS
  0
LAYER
  2
RASTER
 70
64
 62
7
  6
CONTINUOUS
  0
LAYER
  2
LISTEN
 70
64
 62
7
  6
CONTINUOUS
  0
LAYER
  2
RAHMEN
 70
64
 62
7
  6
CONTINUOUS
  0
ENDTAB
  0
TABLE
  2
STYLE
 70
1
  0
STYLE
  2
STANDARD
 70
64
 40
0
 41
1
 50
0.0
 71
0
 42
0.35
  3
ROMANS
  0
ENDTAB
  0
ENDSEC
  0
SECTION
  2
ENTITIES
  0
LINE
  8
SCHRAUBEN
 62
6
 10
277.054260
 20
-36.098743
 11
265.454254
 21
-47.698742
  0
LINE
  8
SCHRAUBEN
 62
6
 10
265.454254
 20
-36.098743
 11
277.054260
 21
-47.698742
  0
CIRCLE
  8
SCHRAUBEN
 62
2
 10
271.254242
 20
-41.898743
 40
14.500031
  0
LINE
  8
SCHRAUBEN
 62
6
 10
331.246643
 20
15.749010
 11
319.646637
 21
4.149009
  0
LINE
  8
SCHRAUBEN
 62
6
 10
319.646637
 20
15.749010
 11
331.246643
 21
4.149009
  0
CIRCLE
  8
SCHRAUBEN
 62
2
 10
325.446625
 20
9.949009
 40
14.500000
  0
LINE
  8
SCHRAUBEN
 62
6
 10
385.438995
 20
67.596756
 11
373.838959
 21
55.996761
  0
LINE
  8
SCHRAUBEN
 62
6
 10
373.838959
 20
67.596756
 11
385.438995
 21
55.996761
  0
CIRCLE
  8
SCHRAUBEN
 62
2
 10
379.638977
 20
61.796761
 40
14.500000
  0
TEXT
 8
UNTERSCHRIFT
 62
2
 10
150.779083
 20
-137.405396
 40
3.250000
 41
0.799999
 51
15.000000
  1
Project  DP0GN9  ,Qty. 6  , Pos. 
  0
TEXT
 8
UNTERSCHRIFT
 62
2
 10
249.579071
 20
-137.405396
 40
3.250000
 41
0.800000
 51
15.000000
  1
  , Profi l PL279*20
  0
TEXT
 8
UNTERSCHRIFT
 62
2
 10
236.579071
 20
-137.405396
 40
3.250000
 41
0.800000
 51
15.000000
  1
20619
  0
LINE
  8
TEILE
 62
2
 10
0.000000
 20
-139.405396
 11
0.000000
 21
-116.780098
  0
LINE
  8
TEILE
 62
2
 10
0.000000
 20
-116.780098
 11
388.426697
 21
139.405396
  0
LINE
  8
TEILE
 62
2
 10
388.426697
 20
139.405396
 11
457.558167
 21
67.149994
  0
LINE
  8
TEILE
 62
2
 10
457.558167
 20
67.149994
 11
457.558167
 21
-139.405396
  0
LINE
  8
TEILE
 62
2
 10
457.558167
 20
-139.405396
 11
0.000000
 21
-139.405396
  0
TEXT
 8
BEZ_SCHRAUBEN
 62
2
 10
263.254272
 20
-63.898739
 40
5.000000
 41
0.800000
 51
15.000000
  1
 ø29
  0
ENDSEC
  0
EOF

