999
     *******************************************
999
     BOCAD Software GmbH   Rev.18.000   0202.22
999
     Filename:   c:\progetti21\danieli_aqs\b4\temp_11\20622.dxf
999
     Creator:    bocad
999
     Date:       20.01.2016
999
     Factor:     10.000000
999
     *******************************************
  0
SECTION
  2
HEADER
  9
$DWGCODEPAGE
  3
ANSI_1252
  9
$INSBASE
 10
0.0
 20
0.0
 30
0.0
  9
$EXTMIN
 10
-0.500000
 20
-137.093048
  9
$EXTMAX
 10
1060.356827
 20
137.067232
  9
$LIMMIN
 10
-1.500000
 20
-138.093048
  9
$LIMMAX
 10
1061.356827
 20
138.067232
  9
$LTSCALE
 40
10.000000
  0
ENDSEC
  0
SECTION
  2
TABLES
  0
TABLE
  2
LTYPE
 70
4
  0
LTYPE
  2
CONTINUOUS
 70
64
  3
____________________________________________
 72
65
 73
0
 40
0.0
  0
LTYPE
  2
HIDDEN
 70
64
  3
__ __ __ __ __ __ __ __ __ __ __ __ __ __ __
 72
65
 73
2
 40
0.50
 49
0.30
 49
-0.20
  0
LTYPE
  2
DASHDOT
 70
64
  3
____ _ ____ _ ____ _ ____ _ ____ _ ____ _ __
 72
65
 73
4
 40
2.0
 49
1.5
 49
-0.25
 49
0
 49
-0.25
  0
LTYPE
  2
DOT
 70
64
  3
............................................
 72
65
 73
2
 40
0.30
 49
0
 49
-0.30
  0
ENDTAB
  0
TABLE
  2
LAYER
 70
23
  0
LAYER
  2
SCHRAUBEN
 70
64
 62
7
  6
CONTINUOUS
  0
LAYER
  2
REST
 70
64
 62
7
  6
CONTINUOUS
  0
LAYER
  2
UNTERSCHRIFT
 70
64
 62
7
  6
CONTINUOUS
  0
LAYER
  2
TEILE
 70
64
 62
7
  6
CONTINUOUS
  0
LAYER
  2
BEZ_SCHRAUBEN
 70
64
 62
7
  6
CONTINUOUS
  0
LAYER
  2
MARKERPUNKTE
 70
64
 62
7
  6
CONTINUOUS
  0
LAYER
  2
HILFSPUNKTE
 70
64
 62
7
  6
CONTINUOUS
  0
LAYER
  2
PICKPUNKTE
 70
64
 62
7
  6
CONTINUOUS
  0
LAYER
  2
SCHWEISSEN
 70
64
 62
7
  6
CONTINUOUS
  0
LAYER
  2
GRAFIK
 70
64
 62
7
  6
CONTINUOUS
  0
LAYER
  2
BEM_FREI
 70
64
 62
7
  6
CONTINUOUS
  0
LAYER
  2
BEM_SYSTEM
 70
64
 62
7
  6
CONTINUOUS
  0
LAYER
  2
BEM_KONTUR
 70
64
 62
7
  6
CONTINUOUS
  0
LAYER
  2
BEM_ANBAU
 70
64
 62
7
  6
CONTINUOUS
  0
LAYER
  2
BEM_SCHRAUBEN
 70
64
 62
7
  6
CONTINUOUS
  0
LAYER
  2
BEM_SCHWEISSEN
 70
64
 62
7
  6
CONTINUOUS
  0
LAYER
  2
FREIER_TEXT
 70
64
 62
7
  6
CONTINUOUS
  0
LAYER
  2
BEZ_TEILE
 70
64
 62
7
  6
CONTINUOUS
  0
LAYER
  2
BEZ_SCHWEISSEN
 70
64
 62
7
  6
CONTINUOUS
  0
LAYER
  2
SCHRAFFUREN
 70
64
 62
7
  6
CONTINUOUS
  0
LAYER
  2
SCHNITTSYMBOL
 70
64
 62
7
  6
CONTINUOUS
  0
LAYER
  2
RASTER
 70
64
 62
7
  6
CONTINUOUS
  0
LAYER
  2
LISTEN
 70
64
 62
7
  6
CONTINUOUS
  0
LAYER
  2
RAHMEN
 70
64
 62
7
  6
CONTINUOUS
  0
ENDTAB
  0
TABLE
  2
STYLE
 70
1
  0
STYLE
  2
STANDARD
 70
64
 40
0
 41
1
 50
0.0
 71
0
 42
0.35
  3
ROMANS
  0
ENDTAB
  0
ENDSEC
  0
SECTION
  2
ENTITIES
  0
LINE
  8
SCHRAUBEN
 62
6
 10
83.878250
 20
65.218094
 11
72.278244
 21
53.618092
  0
LINE
  8
SCHRAUBEN
 62
6
 10
72.278244
 20
65.218094
 11
83.878250
 21
53.618092
  0
CIRCLE
  8
SCHRAUBEN
 62
2
 10
78.078247
 20
59.418091
 40
14.500000
  0
LINE
  8
SCHRAUBEN
 62
6
 10
140.280869
 20
15.783846
 11
128.680862
 21
4.183846
  0
LINE
  8
SCHRAUBEN
 62
6
 10
128.680862
 20
15.783846
 11
140.280869
 21
4.183846
  0
CIRCLE
  8
SCHRAUBEN
 62
2
 10
134.480865
 20
9.983847
 40
14.500000
  0
LINE
  8
SCHRAUBEN
 62
6
 10
196.683487
 20
-33.650402
 11
185.083481
 21
-45.250401
  0
LINE
  8
SCHRAUBEN
 62
6
 10
185.083481
 20
-33.650398
 11
196.683487
 21
-45.250401
  0
CIRCLE
  8
SCHRAUBEN
 62
2
 10
190.883484
 20
-39.450401
 40
14.500000
  0
LINE
  8
SCHRAUBEN
 62
6
 10
533.531982
 20
-73.009064
 11
526.331909
 21
-80.209061
  0
LINE
  8
SCHRAUBEN
 62
6
 10
526.331909
 20
-73.009064
 11
533.531982
 21
-80.209061
  0
CIRCLE
  8
SCHRAUBEN
 62
2
 10
529.931946
 20
-76.609062
 40
9.000000
  0
LINE
  8
SCHRAUBEN
 62
6
 10
533.532043
 20
-23.009060
 11
526.332031
 21
-30.209061
  0
LINE
  8
SCHRAUBEN
 62
6
 10
526.332031
 20
-23.009062
 11
533.532043
 21
-30.209061
  0
CIRCLE
  8
SCHRAUBEN
 62
2
 10
529.932007
 20
-26.609060
 40
9.000000
  0
LINE
  8
SCHRAUBEN
 62
6
 10
987.578613
 20
65.216301
 11
975.978516
 21
53.616302
  0
LINE
  8
SCHRAUBEN
 62
6
 10
975.978516
 20
65.216301
 11
987.578613
 21
53.616302
  0
CIRCLE
  8
SCHRAUBEN
 62
2
 10
981.778564
 20
59.416306
 40
14.500000
  0
LINE
  8
SCHRAUBEN
 62
6
 10
931.175781
 20
15.782282
 11
919.575745
 21
4.182282
  0
LINE
  8
SCHRAUBEN
 62
6
 10
919.575745
 20
15.782282
 11
931.175781
 21
4.182282
  0
CIRCLE
  8
SCHRAUBEN
 62
2
 10
925.375732
 20
9.982283
 40
14.500000
  0
LINE
  8
SCHRAUBEN
 62
6
 10
874.772949
 20
-33.651741
 11
863.172913
 21
-45.251740
  0
LINE
  8
SCHRAUBEN
 62
6
 10
863.172913
 20
-33.651737
 11
874.772949
 21
-45.251740
  0
CIRCLE
  8
SCHRAUBEN
 62
2
 10
868.972900
 20
-39.451740
 40
14.500000
  0
TEXT
 8
UNTERSCHRIFT
 62
2
 10
451.927673
 20
-134.593048
 40
3.250000
 41
0.800000
 51
15.000000
  1
Project  DP0GN9  ,Qty. 4  , Pos. 
  0
TEXT
 8
UNTERSCHRIFT
 62
2
 10
550.727661
 20
-134.593048
 40
3.250000
 41
0.800000
 51
15.000000
  1
  , Profi l PL273*20
  0
TEXT
 8
UNTERSCHRIFT
 62
2
 10
537.727661
 20
-134.593048
 40
3.250000
 41
0.800000
 51
15.000000
  1
20622
  0
LINE
  8
TEILE
 62
2
 10
64.417931
 20
-136.593048
 11
-0.000000
 21
61.363747
  0
LINE
  8
TEILE
 62
2
 10
-0.000000
 20
61.363747
 11
65.912338
 21
136.567230
  0
LINE
  8
TEILE
 62
2
 10
65.912338
 20
136.567230
 11
529.927612
 21
12.655634
  0
LINE
  8
TEILE
 62
2
 10
529.927612
 20
12.655634
 11
993.944763
 21
136.565414
  0
LINE
  8
TEILE
 62
2
 10
993.944763
 20
136.565414
 11
1059.856812
 21
61.361652
  0
LINE
  8
TEILE
 62
2
 10
1059.856812
 20
61.361652
 11
995.437378
 21
-136.593048
  0
LINE
  8
TEILE
 62
2
 10
995.437378
 20
-136.593048
 11
64.417931
 21
-136.593048
  0
TEXT
 8
BEZ_SCHRAUBEN
 62
2
 10
70.078247
 20
37.418091
 40
4.999999
 41
0.800000
 51
15.000000
  1
 ø29
  0
TEXT
 8
BEZ_SCHRAUBEN
 62
2
 10
126.480865
 20
-12.016154
 40
5.000000
 41
0.800000
 51
15.000000
  1
 ø29
  0
TEXT
 8
BEZ_SCHRAUBEN
 62
2
 10
182.883484
 20
-61.450394
 40
5.000000
 41
0.800000
 51
15.000000
  1
 ø29
  0
TEXT
 8
BEZ_SCHRAUBEN
 62
2
 10
521.931946
 20
-93.109062
 40
5.000000
 41
0.800000
 51
15.000000
  1
 ø18
  0
TEXT
 8
BEZ_SCHRAUBEN
 62
2
 10
521.932007
 20
-43.109058
 40
5.000000
 41
0.800000
 51
15.000000
  1
 ø18
  0
TEXT
 8
BEZ_SCHRAUBEN
 62
2
 10
973.778442
 20
37.416309
 40
4.999999
 41
0.800000
 51
15.000000
  1
 ø29
  0
TEXT
 8
BEZ_SCHRAUBEN
 62
2
 10
917.375732
 20
-12.017717
 40
5.000000
 41
0.800000
 51
15.000000
  1
 ø29
  0
TEXT
 8
BEZ_SCHRAUBEN
 62
2
 10
860.972900
 20
-61.451740
 40
5.000000
 41
0.800000
 51
15.000000
  1
 ø29
  0
ENDSEC
  0
EOF

