999
     *******************************************
999
     BOCAD Software GmbH   Rev.18.000   0202.22
999
     Filename:   c:\progetti21\danieli_aqs\b4\temp_11\20623.dxf
999
     Creator:    bocad
999
     Date:       20.01.2016
999
     Factor:     10.000000
999
     *******************************************
  0
SECTION
  2
HEADER
  9
$DWGCODEPAGE
  3
ANSI_1252
  9
$INSBASE
 10
0.0
 20
0.0
 30
0.0
  9
$EXTMIN
 10
-0.500000
 20
-137.187080
  9
$EXTMAX
 10
1058.027420
 20
137.187080
  9
$LIMMIN
 10
-1.500000
 20
-138.187080
  9
$LIMMAX
 10
1059.027420
 20
138.187080
  9
$LTSCALE
 40
10.000000
  0
ENDSEC
  0
SECTION
  2
TABLES
  0
TABLE
  2
LTYPE
 70
4
  0
LTYPE
  2
CONTINUOUS
 70
64
  3
____________________________________________
 72
65
 73
0
 40
0.0
  0
LTYPE
  2
HIDDEN
 70
64
  3
__ __ __ __ __ __ __ __ __ __ __ __ __ __ __
 72
65
 73
2
 40
0.50
 49
0.30
 49
-0.20
  0
LTYPE
  2
DASHDOT
 70
64
  3
____ _ ____ _ ____ _ ____ _ ____ _ ____ _ __
 72
65
 73
4
 40
2.0
 49
1.5
 49
-0.25
 49
0
 49
-0.25
  0
LTYPE
  2
DOT
 70
64
  3
............................................
 72
65
 73
2
 40
0.30
 49
0
 49
-0.30
  0
ENDTAB
  0
TABLE
  2
LAYER
 70
23
  0
LAYER
  2
SCHRAUBEN
 70
64
 62
7
  6
CONTINUOUS
  0
LAYER
  2
REST
 70
64
 62
7
  6
CONTINUOUS
  0
LAYER
  2
UNTERSCHRIFT
 70
64
 62
7
  6
CONTINUOUS
  0
LAYER
  2
TEILE
 70
64
 62
7
  6
CONTINUOUS
  0
LAYER
  2
BEZ_SCHRAUBEN
 70
64
 62
7
  6
CONTINUOUS
  0
LAYER
  2
MARKERPUNKTE
 70
64
 62
7
  6
CONTINUOUS
  0
LAYER
  2
HILFSPUNKTE
 70
64
 62
7
  6
CONTINUOUS
  0
LAYER
  2
PICKPUNKTE
 70
64
 62
7
  6
CONTINUOUS
  0
LAYER
  2
SCHWEISSEN
 70
64
 62
7
  6
CONTINUOUS
  0
LAYER
  2
GRAFIK
 70
64
 62
7
  6
CONTINUOUS
  0
LAYER
  2
BEM_FREI
 70
64
 62
7
  6
CONTINUOUS
  0
LAYER
  2
BEM_SYSTEM
 70
64
 62
7
  6
CONTINUOUS
  0
LAYER
  2
BEM_KONTUR
 70
64
 62
7
  6
CONTINUOUS
  0
LAYER
  2
BEM_ANBAU
 70
64
 62
7
  6
CONTINUOUS
  0
LAYER
  2
BEM_SCHRAUBEN
 70
64
 62
7
  6
CONTINUOUS
  0
LAYER
  2
BEM_SCHWEISSEN
 70
64
 62
7
  6
CONTINUOUS
  0
LAYER
  2
FREIER_TEXT
 70
64
 62
7
  6
CONTINUOUS
  0
LAYER
  2
BEZ_TEILE
 70
64
 62
7
  6
CONTINUOUS
  0
LAYER
  2
BEZ_SCHWEISSEN
 70
64
 62
7
  6
CONTINUOUS
  0
LAYER
  2
SCHRAFFUREN
 70
64
 62
7
  6
CONTINUOUS
  0
LAYER
  2
SCHNITTSYMBOL
 70
64
 62
7
  6
CONTINUOUS
  0
LAYER
  2
RASTER
 70
64
 62
7
  6
CONTINUOUS
  0
LAYER
  2
LISTEN
 70
64
 62
7
  6
CONTINUOUS
  0
LAYER
  2
RAHMEN
 70
64
 62
7
  6
CONTINUOUS
  0
ENDTAB
  0
TABLE
  2
STYLE
 70
1
  0
STYLE
  2
STANDARD
 70
64
 40
0
 41
1
 50
0.0
 71
0
 42
0.35
  3
ROMANS
  0
ENDTAB
  0
ENDSEC
  0
SECTION
  2
ENTITIES
  0
LINE
  8
SCHRAUBEN
 62
6
 10
196.532837
 20
-33.719555
 11
184.932846
 21
-45.319557
  0
LINE
  8
SCHRAUBEN
 62
6
 10
184.932846
 20
-33.719555
 11
196.532837
 21
-45.319557
  0
CIRCLE
  8
SCHRAUBEN
 62
2
 10
190.732849
 20
-39.519554
 40
14.500000
  0
LINE
  8
SCHRAUBEN
 62
6
 10
140.203796
 20
15.798523
 11
128.603806
 21
4.198523
  0
LINE
  8
SCHRAUBEN
 62
6
 10
128.603806
 20
15.798523
 11
140.203796
 21
4.198523
  0
CIRCLE
  8
SCHRAUBEN
 62
2
 10
134.403809
 20
9.998524
 40
14.499985
  0
LINE
  8
SCHRAUBEN
 62
6
 10
83.875427
 20
65.317345
 11
72.275421
 21
53.717346
  0
LINE
  8
SCHRAUBEN
 62
6
 10
72.275421
 20
65.317345
 11
83.875427
 21
53.717346
  0
CIRCLE
  8
SCHRAUBEN
 62
2
 10
78.075424
 20
59.517345
 40
14.500000
  0
LINE
  8
SCHRAUBEN
 62
6
 10
532.362244
 20
-73.093811
 11
525.162231
 21
-80.293808
  0
LINE
  8
SCHRAUBEN
 62
6
 10
525.162231
 20
-73.093811
 11
532.362244
 21
-80.293808
  0
CIRCLE
  8
SCHRAUBEN
 62
2
 10
528.762268
 20
-76.693810
 40
9.000000
  0
LINE
  8
SCHRAUBEN
 62
6
 10
532.362244
 20
-23.093807
 11
525.162231
 21
-30.293808
  0
LINE
  8
SCHRAUBEN
 62
6
 10
525.162231
 20
-23.093811
 11
532.362244
 21
-30.293808
  0
CIRCLE
  8
SCHRAUBEN
 62
2
 10
528.762268
 20
-26.693810
 40
9.000000
  0
LINE
  8
SCHRAUBEN
 62
6
 10
872.593445
 20
-33.720047
 11
860.993408
 21
-45.320045
  0
LINE
  8
SCHRAUBEN
 62
6
 10
860.993408
 20
-33.720047
 11
872.593445
 21
-45.320045
  0
CIRCLE
  8
SCHRAUBEN
 62
2
 10
866.793457
 20
-39.520042
 40
14.499939
  0
LINE
  8
SCHRAUBEN
 62
6
 10
928.923096
 20
15.797375
 11
917.323059
 21
4.197373
  0
LINE
  8
SCHRAUBEN
 62
6
 10
917.323059
 20
15.797375
 11
928.923096
 21
4.197373
  0
CIRCLE
  8
SCHRAUBEN
 62
2
 10
923.123108
 20
9.997374
 40
14.499939
  0
LINE
  8
SCHRAUBEN
 62
6
 10
985.252441
 20
65.315086
 11
973.652405
 21
53.715088
  0
LINE
  8
SCHRAUBEN
 62
6
 10
973.652405
 20
65.315086
 11
985.252441
 21
53.715088
  0
CIRCLE
  8
SCHRAUBEN
 62
2
 10
979.452454
 20
59.515083
 40
14.499939
  0
TEXT
 8
UNTERSCHRIFT
 62
2
 10
449.462280
 20
-134.687073
 40
3.250000
 41
0.800000
 51
15.000000
  1
Project  DP0GN9  ,Qty. 10  , Pos. 
  0
TEXT
 8
UNTERSCHRIFT
 62
2
 10
550.862305
 20
-134.687073
 40
3.250000
 41
0.800000
 51
15.000000
  1
  , Profi l PL273*20
  0
TEXT
 8
UNTERSCHRIFT
 62
2
 10
537.862305
 20
-134.687073
 40
3.250000
 41
0.800000
 51
15.000000
  1
20623
  0
LINE
  8
TEILE
 62
2
 10
63.252567
 20
-136.687073
 11
0.000000
 21
61.579956
  0
LINE
  8
TEILE
 62
2
 10
0.000000
 20
61.579956
 11
66.028496
 21
136.687073
  0
LINE
  8
TEILE
 62
2
 10
66.028496
 20
136.687073
 11
528.762268
 21
12.561609
  0
LINE
  8
TEILE
 62
2
 10
528.762268
 20
12.561609
 11
991.504578
 21
136.681564
  0
LINE
  8
TEILE
 62
2
 10
991.504578
 20
136.681564
 11
1057.527344
 21
61.577278
  0
LINE
  8
TEILE
 62
2
 10
1057.527344
 20
61.577278
 11
994.271973
 21
-136.687073
  0
LINE
  8
TEILE
 62
2
 10
994.271973
 20
-136.687073
 11
63.252567
 21
-136.687073
  0
TEXT
 8
BEZ_SCHRAUBEN
 62
2
 10
182.732849
 20
-61.519554
 40
5.000000
 41
0.800000
 51
15.000000
  1
 ø29
  0
TEXT
 8
BEZ_SCHRAUBEN
 62
2
 10
126.403793
 20
-12.001476
 40
5.000000
 41
0.800000
 51
15.000000
  1
 ø29
  0
TEXT
 8
BEZ_SCHRAUBEN
 62
2
 10
70.075424
 20
37.517345
 40
5.000001
 41
0.799999
 51
15.000000
  1
 ø29
  0
TEXT
 8
BEZ_SCHRAUBEN
 62
2
 10
520.762268
 20
-93.193810
 40
5.000000
 41
0.800000
 51
15.000000
  1
 ø18
  0
TEXT
 8
BEZ_SCHRAUBEN
 62
2
 10
520.762268
 20
-43.193810
 40
5.000000
 41
0.800000
 51
15.000000
  1
 ø18
  0
TEXT
 8
BEZ_SCHRAUBEN
 62
2
 10
858.793396
 20
-61.520042
 40
5.000000
 41
0.800000
 51
15.000000
  1
 ø29
  0
TEXT
 8
BEZ_SCHRAUBEN
 62
2
 10
915.123047
 20
-12.002626
 40
5.000000
 41
0.800000
 51
15.000000
  1
 ø29
  0
TEXT
 8
BEZ_SCHRAUBEN
 62
2
 10
971.452393
 20
37.515091
 40
4.999999
 41
0.800000
 51
15.000000
  1
 ø29
  0
ENDSEC
  0
EOF

