999
     *******************************************
999
     BOCAD Software GmbH   Rev.18.000   0202.22
999
     Filename:   c:\progetti21\danieli_aqs\b4\temp_11\20621.dxf
999
     Creator:    bocad
999
     Date:       20.01.2016
999
     Factor:     10.000000
999
     *******************************************
  0
SECTION
  2
HEADER
  9
$DWGCODEPAGE
  3
ANSI_1252
  9
$INSBASE
 10
0.0
 20
0.0
 30
0.0
  9
$EXTMIN
 10
-0.500000
 20
-138.436470
  9
$EXTMAX
 10
1059.917984
 20
138.436470
  9
$LIMMIN
 10
-1.500000
 20
-139.436470
  9
$LIMMAX
 10
1060.917984
 20
139.436470
  9
$LTSCALE
 40
10.000000
  0
ENDSEC
  0
SECTION
  2
TABLES
  0
TABLE
  2
LTYPE
 70
4
  0
LTYPE
  2
CONTINUOUS
 70
64
  3
____________________________________________
 72
65
 73
0
 40
0.0
  0
LTYPE
  2
HIDDEN
 70
64
  3
__ __ __ __ __ __ __ __ __ __ __ __ __ __ __
 72
65
 73
2
 40
0.50
 49
0.30
 49
-0.20
  0
LTYPE
  2
DASHDOT
 70
64
  3
____ _ ____ _ ____ _ ____ _ ____ _ ____ _ __
 72
65
 73
4
 40
2.0
 49
1.5
 49
-0.25
 49
0
 49
-0.25
  0
LTYPE
  2
DOT
 70
64
  3
............................................
 72
65
 73
2
 40
0.30
 49
0
 49
-0.30
  0
ENDTAB
  0
TABLE
  2
LAYER
 70
23
  0
LAYER
  2
SCHRAUBEN
 70
64
 62
7
  6
CONTINUOUS
  0
LAYER
  2
REST
 70
64
 62
7
  6
CONTINUOUS
  0
LAYER
  2
UNTERSCHRIFT
 70
64
 62
7
  6
CONTINUOUS
  0
LAYER
  2
TEILE
 70
64
 62
7
  6
CONTINUOUS
  0
LAYER
  2
BEZ_SCHRAUBEN
 70
64
 62
7
  6
CONTINUOUS
  0
LAYER
  2
MARKERPUNKTE
 70
64
 62
7
  6
CONTINUOUS
  0
LAYER
  2
HILFSPUNKTE
 70
64
 62
7
  6
CONTINUOUS
  0
LAYER
  2
PICKPUNKTE
 70
64
 62
7
  6
CONTINUOUS
  0
LAYER
  2
SCHWEISSEN
 70
64
 62
7
  6
CONTINUOUS
  0
LAYER
  2
GRAFIK
 70
64
 62
7
  6
CONTINUOUS
  0
LAYER
  2
BEM_FREI
 70
64
 62
7
  6
CONTINUOUS
  0
LAYER
  2
BEM_SYSTEM
 70
64
 62
7
  6
CONTINUOUS
  0
LAYER
  2
BEM_KONTUR
 70
64
 62
7
  6
CONTINUOUS
  0
LAYER
  2
BEM_ANBAU
 70
64
 62
7
  6
CONTINUOUS
  0
LAYER
  2
BEM_SCHRAUBEN
 70
64
 62
7
  6
CONTINUOUS
  0
LAYER
  2
BEM_SCHWEISSEN
 70
64
 62
7
  6
CONTINUOUS
  0
LAYER
  2
FREIER_TEXT
 70
64
 62
7
  6
CONTINUOUS
  0
LAYER
  2
BEZ_TEILE
 70
64
 62
7
  6
CONTINUOUS
  0
LAYER
  2
BEZ_SCHWEISSEN
 70
64
 62
7
  6
CONTINUOUS
  0
LAYER
  2
SCHRAFFUREN
 70
64
 62
7
  6
CONTINUOUS
  0
LAYER
  2
SCHNITTSYMBOL
 70
64
 62
7
  6
CONTINUOUS
  0
LAYER
  2
RASTER
 70
64
 62
7
  6
CONTINUOUS
  0
LAYER
  2
LISTEN
 70
64
 62
7
  6
CONTINUOUS
  0
LAYER
  2
RAHMEN
 70
64
 62
7
  6
CONTINUOUS
  0
ENDTAB
  0
TABLE
  2
STYLE
 70
1
  0
STYLE
  2
STANDARD
 70
64
 40
0
 41
1
 50
0.0
 71
0
 42
0.35
  3
ROMANS
  0
ENDTAB
  0
ENDSEC
  0
SECTION
  2
ENTITIES
  0
LINE
  8
SCHRAUBEN
 62
6
 10
196.533890
 20
-34.969440
 11
184.933899
 21
-46.569439
  0
LINE
  8
SCHRAUBEN
 62
6
 10
184.933899
 20
-34.969440
 11
196.533890
 21
-46.569439
  0
CIRCLE
  8
SCHRAUBEN
 62
2
 10
190.733887
 20
-40.769440
 40
14.500015
  0
LINE
  8
SCHRAUBEN
 62
6
 10
140.204269
 20
14.547979
 11
128.604263
 21
2.947979
  0
LINE
  8
SCHRAUBEN
 62
6
 10
128.604263
 20
14.547979
 11
140.204269
 21
2.947979
  0
CIRCLE
  8
SCHRAUBEN
 62
2
 10
134.404266
 20
8.747980
 40
14.500000
  0
LINE
  8
SCHRAUBEN
 62
6
 10
83.874908
 20
64.065689
 11
72.274918
 21
52.465691
  0
LINE
  8
SCHRAUBEN
 62
6
 10
72.274918
 20
64.065689
 11
83.874908
 21
52.465691
  0
CIRCLE
  8
SCHRAUBEN
 62
2
 10
78.074913
 20
58.265690
 40
14.500000
  0
LINE
  8
SCHRAUBEN
 62
6
 10
532.368652
 20
-74.352478
 11
525.168640
 21
-81.552475
  0
LINE
  8
SCHRAUBEN
 62
6
 10
525.168640
 20
-74.352478
 11
532.368652
 21
-81.552475
  0
CIRCLE
  8
SCHRAUBEN
 62
2
 10
528.768677
 20
-77.952484
 40
9.000000
  0
LINE
  8
SCHRAUBEN
 62
6
 10
532.368530
 20
-24.352478
 11
525.168518
 21
-31.552483
  0
LINE
  8
SCHRAUBEN
 62
6
 10
525.168518
 20
-24.352478
 11
532.368530
 21
-31.552483
  0
CIRCLE
  8
SCHRAUBEN
 62
2
 10
528.768555
 20
-27.952480
 40
9.000000
  0
LINE
  8
SCHRAUBEN
 62
6
 10
986.953674
 20
62.101746
 11
975.353638
 21
50.501747
  0
LINE
  8
SCHRAUBEN
 62
6
 10
975.353638
 20
62.101746
 11
986.953674
 21
50.501747
  0
CIRCLE
  8
SCHRAUBEN
 62
2
 10
981.153625
 20
56.301746
 40
14.500000
  0
LINE
  8
SCHRAUBEN
 62
6
 10
930.411926
 20
12.826664
 11
918.811890
 21
1.226664
  0
LINE
  8
SCHRAUBEN
 62
6
 10
918.811890
 20
12.826664
 11
930.411926
 21
1.226664
  0
CIRCLE
  8
SCHRAUBEN
 62
2
 10
924.611877
 20
7.026664
 40
14.500000
  0
LINE
  8
SCHRAUBEN
 62
6
 10
873.870239
 20
-36.448421
 11
862.270203
 21
-48.048420
  0
LINE
  8
SCHRAUBEN
 62
6
 10
862.270203
 20
-36.448421
 11
873.870239
 21
-48.048420
  0
CIRCLE
  8
SCHRAUBEN
 62
2
 10
868.070190
 20
-42.248421
 40
14.500000
  0
TEXT
 8
UNTERSCHRIFT
 62
2
 10
450.765045
 20
-135.936462
 40
3.250000
 41
0.800000
 51
15.000000
  1
Project  DP0GN9  ,Qty. 4  , Pos. 
  0
TEXT
 8
UNTERSCHRIFT
 62
2
 10
549.565002
 20
-135.936462
 40
3.250000
 41
0.800000
 51
15.000000
  1
  , Profi l PL276*20
  0
TEXT
 8
UNTERSCHRIFT
 62
2
 10
536.565002
 20
-135.936462
 40
3.250000
 41
0.800000
 51
15.000000
  1
20621
  0
LINE
  8
TEILE
 62
2
 10
63.255325
 20
-137.936462
 11
-0.000000
 21
60.327888
  0
LINE
  8
TEILE
 62
2
 10
-0.000000
 20
60.327888
 11
66.022713
 21
135.432175
  0
LINE
  8
TEILE
 62
2
 10
66.022713
 20
135.432175
 11
528.768555
 21
12.046537
  0
LINE
  8
TEILE
 62
2
 10
528.768555
 20
12.046537
 11
989.578857
 21
137.936462
  0
LINE
  8
TEILE
 62
2
 10
989.578857
 20
137.936462
 11
1059.417969
 21
58.178307
  0
LINE
  8
TEILE
 62
2
 10
1059.417969
 20
58.178307
 11
994.274780
 21
-137.936462
  0
LINE
  8
TEILE
 62
2
 10
994.274780
 20
-137.936462
 11
63.255325
 21
-137.936462
  0
TEXT
 8
BEZ_SCHRAUBEN
 62
2
 10
182.733902
 20
-62.769436
 40
5.000000
 41
0.800000
 51
15.000000
  1
 ø29
  0
TEXT
 8
BEZ_SCHRAUBEN
 62
2
 10
126.404266
 20
-13.252020
 40
5.000000
 41
0.800000
 51
15.000000
  1
 ø29
  0
TEXT
 8
BEZ_SCHRAUBEN
 62
2
 10
70.074913
 20
36.265690
 40
4.999999
 41
0.800000
 51
15.000000
  1
 ø29
  0
TEXT
 8
BEZ_SCHRAUBEN
 62
2
 10
520.768677
 20
-94.452477
 40
5.000000
 41
0.800000
 51
15.000000
  1
 ø18
  0
TEXT
 8
BEZ_SCHRAUBEN
 62
2
 10
520.768555
 20
-44.452477
 40
5.000000
 41
0.800000
 51
15.000000
  1
 ø18
  0
TEXT
 8
BEZ_SCHRAUBEN
 62
2
 10
973.153625
 20
34.301746
 40
5.000001
 41
0.800000
 51
15.000000
  1
 ø29
  0
TEXT
 8
BEZ_SCHRAUBEN
 62
2
 10
916.611877
 20
-14.973336
 40
5.000000
 41
0.800000
 51
15.000000
  1
 ø29
  0
TEXT
 8
BEZ_SCHRAUBEN
 62
2
 10
860.070190
 20
-64.248421
 40
5.000000
 41
0.800000
 51
15.000000
  1
 ø29
  0
ENDSEC
  0
EOF

