999
     *******************************************
999
     BOCAD Software GmbH   Rev.18.000   0202.22
999
     Filename:   c:\progetti21\danieli_aqs\b4\temp_11\20627.dxf
999
     Creator:    bocad
999
     Date:       20.01.2016
999
     Factor:     10.000000
999
     *******************************************
  0
SECTION
  2
HEADER
  9
$DWGCODEPAGE
  3
ANSI_1252
  9
$INSBASE
 10
0.0
 20
0.0
 30
0.0
  9
$EXTMIN
 10
-0.500000
 20
-107.998619
  9
$EXTMAX
 10
200.499916
 20
107.998619
  9
$LIMMIN
 10
-1.500000
 20
-108.998619
  9
$LIMMAX
 10
201.499916
 20
108.998619
  9
$LTSCALE
 40
10.000000
  0
ENDSEC
  0
SECTION
  2
TABLES
  0
TABLE
  2
LTYPE
 70
4
  0
LTYPE
  2
CONTINUOUS
 70
64
  3
____________________________________________
 72
65
 73
0
 40
0.0
  0
LTYPE
  2
HIDDEN
 70
64
  3
__ __ __ __ __ __ __ __ __ __ __ __ __ __ __
 72
65
 73
2
 40
0.50
 49
0.30
 49
-0.20
  0
LTYPE
  2
DASHDOT
 70
64
  3
____ _ ____ _ ____ _ ____ _ ____ _ ____ _ __
 72
65
 73
4
 40
2.0
 49
1.5
 49
-0.25
 49
0
 49
-0.25
  0
LTYPE
  2
DOT
 70
64
  3
............................................
 72
65
 73
2
 40
0.30
 49
0
 49
-0.30
  0
ENDTAB
  0
TABLE
  2
LAYER
 70
23
  0
LAYER
  2
SCHRAUBEN
 70
64
 62
7
  6
CONTINUOUS
  0
LAYER
  2
REST
 70
64
 62
7
  6
CONTINUOUS
  0
LAYER
  2
UNTERSCHRIFT
 70
64
 62
7
  6
CONTINUOUS
  0
LAYER
  2
TEILE
 70
64
 62
7
  6
CONTINUOUS
  0
LAYER
  2
BEZ_SCHRAUBEN
 70
64
 62
7
  6
CONTINUOUS
  0
LAYER
  2
MARKERPUNKTE
 70
64
 62
7
  6
CONTINUOUS
  0
LAYER
  2
HILFSPUNKTE
 70
64
 62
7
  6
CONTINUOUS
  0
LAYER
  2
PICKPUNKTE
 70
64
 62
7
  6
CONTINUOUS
  0
LAYER
  2
SCHWEISSEN
 70
64
 62
7
  6
CONTINUOUS
  0
LAYER
  2
GRAFIK
 70
64
 62
7
  6
CONTINUOUS
  0
LAYER
  2
BEM_FREI
 70
64
 62
7
  6
CONTINUOUS
  0
LAYER
  2
BEM_SYSTEM
 70
64
 62
7
  6
CONTINUOUS
  0
LAYER
  2
BEM_KONTUR
 70
64
 62
7
  6
CONTINUOUS
  0
LAYER
  2
BEM_ANBAU
 70
64
 62
7
  6
CONTINUOUS
  0
LAYER
  2
BEM_SCHRAUBEN
 70
64
 62
7
  6
CONTINUOUS
  0
LAYER
  2
BEM_SCHWEISSEN
 70
64
 62
7
  6
CONTINUOUS
  0
LAYER
  2
FREIER_TEXT
 70
64
 62
7
  6
CONTINUOUS
  0
LAYER
  2
BEZ_TEILE
 70
64
 62
7
  6
CONTINUOUS
  0
LAYER
  2
BEZ_SCHWEISSEN
 70
64
 62
7
  6
CONTINUOUS
  0
LAYER
  2
SCHRAFFUREN
 70
64
 62
7
  6
CONTINUOUS
  0
LAYER
  2
SCHNITTSYMBOL
 70
64
 62
7
  6
CONTINUOUS
  0
LAYER
  2
RASTER
 70
64
 62
7
  6
CONTINUOUS
  0
LAYER
  2
LISTEN
 70
64
 62
7
  6
CONTINUOUS
  0
LAYER
  2
RAHMEN
 70
64
 62
7
  6
CONTINUOUS
  0
ENDTAB
  0
TABLE
  2
STYLE
 70
1
  0
STYLE
  2
STANDARD
 70
64
 40
0
 41
1
 50
0.0
 71
0
 42
0.35
  3
ROMANS
  0
ENDTAB
  0
ENDSEC
  0
SECTION
  2
ENTITIES
  0
LINE
  8
SCHRAUBEN
 62
6
 10
105.797546
 20
-21.701981
 11
94.197548
 21
-33.301979
  0
LINE
  8
SCHRAUBEN
 62
6
 10
94.197548
 20
-21.701981
 11
105.797546
 21
-33.301979
  0
CIRCLE
  8
SCHRAUBEN
 62
2
 10
99.997551
 20
-27.501980
 40
14.499992
  0
LINE
  8
SCHRAUBEN
 62
6
 10
105.798454
 20
53.298019
 11
94.198456
 21
41.698021
  0
LINE
  8
SCHRAUBEN
 62
6
 10
94.198456
 20
53.298019
 11
105.798454
 21
41.698021
  0
CIRCLE
  8
SCHRAUBEN
 62
2
 10
99.998459
 20
47.498020
 40
14.499992
  0
TEXT
 8
UNTERSCHRIFT
 62
2
 10
5.696054
 20
-105.498619
 40
3.250000
 41
0.800000
 51
15.000000
  1
Project  DP0GN9  ,Qty. 10  , Pos. 
  0
TEXT
 8
UNTERSCHRIFT
 62
2
 10
107.096054
 20
-105.498619
 40
3.250000
 41
0.800000
 51
15.000000
  1
  , Profi l PL215*20
  0
TEXT
 8
UNTERSCHRIFT
 62
2
 10
94.096054
 20
-105.498619
 40
3.250000
 41
0.800000
 51
15.000000
  1
20627
  0
LINE
  8
TEILE
 62
2
 10
0.000000
 20
-107.498619
 11
0.000000
 21
-67.498619
  0
LINE
  8
TEILE
 62
2
 10
0.000000
 20
-67.498619
 11
49.999176
 21
107.498619
  0
LINE
  8
TEILE
 62
2
 10
49.999176
 20
107.498619
 11
149.996994
 21
107.497421
  0
LINE
  8
TEILE
 62
2
 10
149.996994
 20
107.497421
 11
199.999924
 21
-67.498619
  0
LINE
  8
TEILE
 62
2
 10
199.999924
 20
-67.498619
 11
199.999924
 21
-77.498024
  0
LINE
  8
TEILE
 62
2
 10
199.999924
 20
-77.498024
 11
169.992096
 21
-77.498024
  0
LINE
  8
TEILE
 62
2
 10
169.992096
 20
-77.498024
 11
169.992096
 21
-107.498619
  0
LINE
  8
TEILE
 62
2
 10
169.992096
 20
-107.498619
 11
0.000000
 21
-107.498619
  0
TEXT
 8
BEZ_SCHRAUBEN
 62
2
 10
91.997543
 20
-49.501984
 40
5.000000
 41
0.800000
 51
15.000000
  1
 ø29
  0
ENDSEC
  0
EOF

