999
     *******************************************
999
     BOCAD Software GmbH   Rev.18.000   0202.22
999
     Filename:   c:\progetti21\danieli_aqs\b4\temp_11\20624.dxf
999
     Creator:    bocad
999
     Date:       20.01.2016
999
     Factor:     10.000000
999
     *******************************************
  0
SECTION
  2
HEADER
  9
$DWGCODEPAGE
  3
ANSI_1252
  9
$INSBASE
 10
0.0
 20
0.0
 30
0.0
  9
$EXTMIN
 10
-0.500000
 20
-137.187042
  9
$EXTMAX
 10
564.254837
 20
137.187042
  9
$LIMMIN
 10
-1.500000
 20
-138.187042
  9
$LIMMAX
 10
565.254837
 20
138.187042
  9
$LTSCALE
 40
10.000000
  0
ENDSEC
  0
SECTION
  2
TABLES
  0
TABLE
  2
LTYPE
 70
4
  0
LTYPE
  2
CONTINUOUS
 70
64
  3
____________________________________________
 72
65
 73
0
 40
0.0
  0
LTYPE
  2
HIDDEN
 70
64
  3
__ __ __ __ __ __ __ __ __ __ __ __ __ __ __
 72
65
 73
2
 40
0.50
 49
0.30
 49
-0.20
  0
LTYPE
  2
DASHDOT
 70
64
  3
____ _ ____ _ ____ _ ____ _ ____ _ ____ _ __
 72
65
 73
4
 40
2.0
 49
1.5
 49
-0.25
 49
0
 49
-0.25
  0
LTYPE
  2
DOT
 70
64
  3
............................................
 72
65
 73
2
 40
0.30
 49
0
 49
-0.30
  0
ENDTAB
  0
TABLE
  2
LAYER
 70
23
  0
LAYER
  2
SCHRAUBEN
 70
64
 62
7
  6
CONTINUOUS
  0
LAYER
  2
REST
 70
64
 62
7
  6
CONTINUOUS
  0
LAYER
  2
UNTERSCHRIFT
 70
64
 62
7
  6
CONTINUOUS
  0
LAYER
  2
TEILE
 70
64
 62
7
  6
CONTINUOUS
  0
LAYER
  2
BEZ_SCHRAUBEN
 70
64
 62
7
  6
CONTINUOUS
  0
LAYER
  2
MARKERPUNKTE
 70
64
 62
7
  6
CONTINUOUS
  0
LAYER
  2
HILFSPUNKTE
 70
64
 62
7
  6
CONTINUOUS
  0
LAYER
  2
PICKPUNKTE
 70
64
 62
7
  6
CONTINUOUS
  0
LAYER
  2
SCHWEISSEN
 70
64
 62
7
  6
CONTINUOUS
  0
LAYER
  2
GRAFIK
 70
64
 62
7
  6
CONTINUOUS
  0
LAYER
  2
BEM_FREI
 70
64
 62
7
  6
CONTINUOUS
  0
LAYER
  2
BEM_SYSTEM
 70
64
 62
7
  6
CONTINUOUS
  0
LAYER
  2
BEM_KONTUR
 70
64
 62
7
  6
CONTINUOUS
  0
LAYER
  2
BEM_ANBAU
 70
64
 62
7
  6
CONTINUOUS
  0
LAYER
  2
BEM_SCHRAUBEN
 70
64
 62
7
  6
CONTINUOUS
  0
LAYER
  2
BEM_SCHWEISSEN
 70
64
 62
7
  6
CONTINUOUS
  0
LAYER
  2
FREIER_TEXT
 70
64
 62
7
  6
CONTINUOUS
  0
LAYER
  2
BEZ_TEILE
 70
64
 62
7
  6
CONTINUOUS
  0
LAYER
  2
BEZ_SCHWEISSEN
 70
64
 62
7
  6
CONTINUOUS
  0
LAYER
  2
SCHRAFFUREN
 70
64
 62
7
  6
CONTINUOUS
  0
LAYER
  2
SCHNITTSYMBOL
 70
64
 62
7
  6
CONTINUOUS
  0
LAYER
  2
RASTER
 70
64
 62
7
  6
CONTINUOUS
  0
LAYER
  2
LISTEN
 70
64
 62
7
  6
CONTINUOUS
  0
LAYER
  2
RAHMEN
 70
64
 62
7
  6
CONTINUOUS
  0
ENDTAB
  0
TABLE
  2
STYLE
 70
1
  0
STYLE
  2
STANDARD
 70
64
 40
0
 41
1
 50
0.0
 71
0
 42
0.35
  3
ROMANS
  0
ENDTAB
  0
ENDSEC
  0
SECTION
  2
ENTITIES
  0
LINE
  8
SCHRAUBEN
 62
6
 10
110.795280
 20
24.110022
 11
99.195282
 21
12.510021
  0
LINE
  8
SCHRAUBEN
 62
6
 10
99.195282
 20
24.110022
 11
110.795280
 21
12.510021
  0
CIRCLE
  8
SCHRAUBEN
 62
2
 10
104.995277
 20
18.310020
 40
14.500000
  0
LINE
  8
SCHRAUBEN
 62
6
 10
110.795280
 20
-50.889977
 11
99.195282
 21
-62.489975
  0
LINE
  8
SCHRAUBEN
 62
6
 10
99.195282
 20
-50.889977
 11
110.795280
 21
-62.489975
  0
CIRCLE
  8
SCHRAUBEN
 62
2
 10
104.995277
 20
-56.689980
 40
14.500000
  0
LINE
  8
SCHRAUBEN
 62
6
 10
491.478882
 20
65.315369
 11
479.878845
 21
53.715370
  0
LINE
  8
SCHRAUBEN
 62
6
 10
479.878845
 20
65.315369
 11
491.478882
 21
53.715370
  0
CIRCLE
  8
SCHRAUBEN
 62
2
 10
485.678864
 20
59.515373
 40
14.500000
  0
LINE
  8
SCHRAUBEN
 62
6
 10
435.147644
 20
15.799843
 11
423.547607
 21
4.199843
  0
LINE
  8
SCHRAUBEN
 62
6
 10
423.547607
 20
15.799845
 11
435.147644
 21
4.199843
  0
CIRCLE
  8
SCHRAUBEN
 62
2
 10
429.347595
 20
9.999844
 40
14.500031
  0
LINE
  8
SCHRAUBEN
 62
6
 10
378.820557
 20
-33.720509
 11
367.220520
 21
-45.320507
  0
LINE
  8
SCHRAUBEN
 62
6
 10
367.220520
 20
-33.720509
 11
378.820557
 21
-45.320507
  0
CIRCLE
  8
SCHRAUBEN
 62
2
 10
373.020569
 20
-39.520508
 40
14.500000
  0
TEXT
 8
UNTERSCHRIFT
 62
2
 10
154.446869
 20
-134.686447
 40
3.250000
 41
0.800000
 51
15.000000
  1
Project  DP0GN9  ,Qty. 10  , Pos. 
  0
TEXT
 8
UNTERSCHRIFT
 62
2
 10
255.846863
 20
-134.685959
 40
3.250000
 41
0.800000
 51
15.000000
  1
  , Profi l PL273*20
  0
TEXT
 8
UNTERSCHRIFT
 62
2
 10
242.846863
 20
-134.686020
 40
3.250000
 41
0.800000
 51
15.000000
  1
20624
  0
LINE
  8
TEILE
 62
2
 10
35.000004
 20
-136.687042
 11
35.000004
 21
-106.686966
  0
LINE
  8
TEILE
 62
2
 10
35.000004
 20
-106.686966
 11
0.000000
 21
-106.686966
  0
LINE
  8
TEILE
 62
2
 10
0.000000
 20
-106.686966
 11
0.000000
 21
-5.974416
  0
LINE
  8
TEILE
 62
2
 10
0.000000
 20
-5.974416
 11
54.995274
 21
78.310020
  0
LINE
  8
TEILE
 62
2
 10
54.995274
 20
78.310020
 11
497.723389
 21
136.687042
  0
LINE
  8
TEILE
 62
2
 10
497.723389
 20
136.687042
 11
563.754822
 21
61.577076
  0
LINE
  8
TEILE
 62
2
 10
563.754822
 20
61.577076
 11
432.493744
 21
-136.685089
  0
LINE
  8
TEILE
 62
2
 10
432.493744
 20
-136.685089
 11
35.000004
 21
-136.687042
  0
TEXT
 8
BEZ_SCHRAUBEN
 62
2
 10
96.995277
 20
-3.689979
 40
5.000000
 41
0.800000
 51
15.000000
  1
 ø29
  0
ENDSEC
  0
EOF

