999
     *******************************************
999
     BOCAD Software GmbH   Rev.18.000   0202.22
999
     Filename:   c:\progetti21\danieli_aqs\b4\temp_11\20629.dxf
999
     Creator:    bocad
999
     Date:       20.01.2016
999
     Factor:     10.000000
999
     *******************************************
  0
SECTION
  2
HEADER
  9
$DWGCODEPAGE
  3
ANSI_1252
  9
$INSBASE
 10
0.0
 20
0.0
 30
0.0
  9
$EXTMIN
 10
-0.500018
 20
-97.999840
  9
$EXTMAX
 10
350.499992
 20
97.999840
  9
$LIMMIN
 10
-1.500018
 20
-98.999840
  9
$LIMMAX
 10
351.499992
 20
98.999840
  9
$LTSCALE
 40
10.000000
  0
ENDSEC
  0
SECTION
  2
TABLES
  0
TABLE
  2
LTYPE
 70
4
  0
LTYPE
  2
CONTINUOUS
 70
64
  3
____________________________________________
 72
65
 73
0
 40
0.0
  0
LTYPE
  2
HIDDEN
 70
64
  3
__ __ __ __ __ __ __ __ __ __ __ __ __ __ __
 72
65
 73
2
 40
0.50
 49
0.30
 49
-0.20
  0
LTYPE
  2
DASHDOT
 70
64
  3
____ _ ____ _ ____ _ ____ _ ____ _ ____ _ __
 72
65
 73
4
 40
2.0
 49
1.5
 49
-0.25
 49
0
 49
-0.25
  0
LTYPE
  2
DOT
 70
64
  3
............................................
 72
65
 73
2
 40
0.30
 49
0
 49
-0.30
  0
ENDTAB
  0
TABLE
  2
LAYER
 70
23
  0
LAYER
  2
UNTERSCHRIFT
 70
64
 62
7
  6
CONTINUOUS
  0
LAYER
  2
TEILE
 70
64
 62
7
  6
CONTINUOUS
  0
LAYER
  2
REST
 70
64
 62
7
  6
CONTINUOUS
  0
LAYER
  2
MARKERPUNKTE
 70
64
 62
7
  6
CONTINUOUS
  0
LAYER
  2
HILFSPUNKTE
 70
64
 62
7
  6
CONTINUOUS
  0
LAYER
  2
PICKPUNKTE
 70
64
 62
7
  6
CONTINUOUS
  0
LAYER
  2
SCHRAUBEN
 70
64
 62
7
  6
CONTINUOUS
  0
LAYER
  2
SCHWEISSEN
 70
64
 62
7
  6
CONTINUOUS
  0
LAYER
  2
GRAFIK
 70
64
 62
7
  6
CONTINUOUS
  0
LAYER
  2
BEM_FREI
 70
64
 62
7
  6
CONTINUOUS
  0
LAYER
  2
BEM_SYSTEM
 70
64
 62
7
  6
CONTINUOUS
  0
LAYER
  2
BEM_KONTUR
 70
64
 62
7
  6
CONTINUOUS
  0
LAYER
  2
BEM_ANBAU
 70
64
 62
7
  6
CONTINUOUS
  0
LAYER
  2
BEM_SCHRAUBEN
 70
64
 62
7
  6
CONTINUOUS
  0
LAYER
  2
BEM_SCHWEISSEN
 70
64
 62
7
  6
CONTINUOUS
  0
LAYER
  2
FREIER_TEXT
 70
64
 62
7
  6
CONTINUOUS
  0
LAYER
  2
BEZ_TEILE
 70
64
 62
7
  6
CONTINUOUS
  0
LAYER
  2
BEZ_SCHRAUBEN
 70
64
 62
7
  6
CONTINUOUS
  0
LAYER
  2
BEZ_SCHWEISSEN
 70
64
 62
7
  6
CONTINUOUS
  0
LAYER
  2
SCHRAFFUREN
 70
64
 62
7
  6
CONTINUOUS
  0
LAYER
  2
SCHNITTSYMBOL
 70
64
 62
7
  6
CONTINUOUS
  0
LAYER
  2
RASTER
 70
64
 62
7
  6
CONTINUOUS
  0
LAYER
  2
LISTEN
 70
64
 62
7
  6
CONTINUOUS
  0
LAYER
  2
RAHMEN
 70
64
 62
7
  6
CONTINUOUS
  0
ENDTAB
  0
TABLE
  2
STYLE
 70
1
  0
STYLE
  2
STANDARD
 70
64
 40
0
 41
1
 50
0.0
 71
0
 42
0.35
  3
ROMANS
  0
ENDTAB
  0
ENDSEC
  0
SECTION
  2
ENTITIES
  0
TEXT
 8
UNTERSCHRIFT
 62
2
 10
110.700005
 20
-95.499840
 40
3.250000
 41
0.800000
 51
15.000000
  1
Project  DP0GN9  ,Qty. 20  , Pos. 
  0
TEXT
 8
UNTERSCHRIFT
 62
2
 10
212.099991
 20
-95.499840
 40
3.250000
 41
0.800000
 51
15.000000
  1
  , Profi l PL195*15
  0
TEXT
 8
UNTERSCHRIFT
 62
2
 10
199.100006
 20
-95.499840
 40
3.250000
 41
0.800000
 51
15.000000
  1
20629
  0
LINE
  8
TEILE
 62
2
 10
50.000000
 20
97.499840
 11
350.000000
 21
-67.499840
  0
LINE
  8
TEILE
 62
2
 10
350.000000
 20
-67.499840
 11
350.000000
 21
-97.499840
  0
LINE
  8
TEILE
 62
2
 10
350.000000
 20
-97.499840
 11
30.000000
 21
-97.499840
  0
LINE
  8
TEILE
 62
2
 10
30.000000
 20
-97.499840
 11
29.958885
 21
-95.929756
  0
LINE
  8
TEILE
 62
2
 10
29.958885
 20
-95.929756
 11
29.835655
 21
-94.363983
  0
LINE
  8
TEILE
 62
2
 10
29.835655
 20
-94.363983
 11
29.630650
 21
-92.806808
  0
LINE
  8
TEILE
 62
2
 10
29.630650
 20
-92.806808
 11
29.344425
 21
-91.262482
  0
LINE
  8
TEILE
 62
2
 10
29.344425
 20
-91.262482
 11
28.977774
 21
-89.735268
  0
LINE
  8
TEILE
 62
2
 10
28.977774
 20
-89.735268
 11
28.531694
 21
-88.229332
  0
LINE
  8
TEILE
 62
2
 10
28.531694
 20
-88.229332
 11
28.007410
 21
-86.748802
  0
LINE
  8
TEILE
 62
2
 10
28.007410
 20
-86.748802
 11
27.406361
 21
-85.297737
  0
LINE
  8
TEILE
 62
2
 10
27.406361
 20
-85.297737
 11
26.730194
 21
-83.880119
  0
LINE
  8
TEILE
 62
2
 10
26.730194
 20
-83.880119
 11
25.980761
 21
-82.499840
  0
LINE
  8
TEILE
 62
2
 10
25.980761
 20
-82.499840
 11
25.160114
 21
-81.160667
  0
LINE
  8
TEILE
 62
2
 10
25.160114
 20
-81.160667
 11
24.270508
 21
-79.866280
  0
LINE
  8
TEILE
 62
2
 10
24.270508
 20
-79.866280
 11
23.314377
 21
-78.620232
  0
LINE
  8
TEILE
 62
2
 10
23.314377
 20
-78.620232
 11
22.294342
 21
-77.425926
  0
LINE
  8
TEILE
 62
2
 10
22.294342
 20
-77.425926
 11
21.213200
 21
-76.286636
  0
LINE
  8
TEILE
 62
2
 10
21.213200
 20
-76.286636
 11
20.073917
 21
-75.205490
  0
LINE
  8
TEILE
 62
2
 10
20.073917
 20
-75.205490
 11
18.879608
 21
-74.185463
  0
LINE
  8
TEILE
 62
2
 10
18.879608
 20
-74.185463
 11
17.633554
 21
-73.229332
  0
LINE
  8
TEILE
 62
2
 10
17.633554
 20
-73.229332
 11
16.339169
 21
-72.339722
  0
LINE
  8
TEILE
 62
2
 10
16.339169
 20
-72.339722
 11
14.999998
 21
-71.519081
  0
LINE
  8
TEILE
 62
2
 10
14.999998
 20
-71.519081
 11
13.619711
 21
-70.769646
  0
LINE
  8
TEILE
 62
2
 10
13.619711
 20
-70.769646
 11
12.202095
 21
-70.093475
  0
LINE
  8
TEILE
 62
2
 10
12.202095
 20
-70.093475
 11
10.751032
 21
-69.492424
  0
LINE
  8
TEILE
 62
2
 10
10.751032
 20
-69.492424
 11
9.270502
 21
-68.968140
  0
LINE
  8
TEILE
 62
2
 10
9.270502
 20
-68.968140
 11
7.764562
 21
-68.522064
  0
LINE
  8
TEILE
 62
2
 10
7.764562
 20
-68.522064
 11
6.237339
 21
-68.155411
  0
LINE
  8
TEILE
 62
2
 10
6.237339
 20
-68.155411
 11
4.693021
 21
-67.869194
  0
LINE
  8
TEILE
 62
2
 10
4.693021
 20
-67.869194
 11
3.135839
 21
-67.664185
  0
LINE
  8
TEILE
 62
2
 10
3.135839
 20
-67.664185
 11
1.570062
 21
-67.540955
  0
LINE
  8
TEILE
 62
2
 10
1.570062
 20
-67.540955
 11
-0.000018
 21
-67.499840
  0
LINE
  8
TEILE
 62
2
 10
-0.000018
 20
-67.499840
 11
0.000000
 21
-67.499840
  0
LINE
  8
TEILE
 62
2
 10
0.000000
 20
-67.499840
 11
0.000000
 21
97.499840
  0
LINE
  8
TEILE
 62
2
 10
0.000000
 20
97.499840
 11
50.000000
 21
97.499840
  0
ENDSEC
  0
EOF

