999
     *******************************************
999
     BOCAD Software GmbH   Rev.18.000   0202.22
999
     Filename:   c:\progetti21\danieli_aqs\b4\temp_11\20632.dxf
999
     Creator:    bocad
999
     Date:       20.01.2016
999
     Factor:     10.000000
999
     *******************************************
  0
SECTION
  2
HEADER
  9
$DWGCODEPAGE
  3
ANSI_1252
  9
$INSBASE
 10
0.0
 20
0.0
 30
0.0
  9
$EXTMIN
 10
-0.500000
 20
-88.000002
  9
$EXTMAX
 10
330.499992
 20
88.000002
  9
$LIMMIN
 10
-1.500000
 20
-89.000002
  9
$LIMMAX
 10
331.499992
 20
89.000002
  9
$LTSCALE
 40
10.000000
  0
ENDSEC
  0
SECTION
  2
TABLES
  0
TABLE
  2
LTYPE
 70
4
  0
LTYPE
  2
CONTINUOUS
 70
64
  3
____________________________________________
 72
65
 73
0
 40
0.0
  0
LTYPE
  2
HIDDEN
 70
64
  3
__ __ __ __ __ __ __ __ __ __ __ __ __ __ __
 72
65
 73
2
 40
0.50
 49
0.30
 49
-0.20
  0
LTYPE
  2
DASHDOT
 70
64
  3
____ _ ____ _ ____ _ ____ _ ____ _ ____ _ __
 72
65
 73
4
 40
2.0
 49
1.5
 49
-0.25
 49
0
 49
-0.25
  0
LTYPE
  2
DOT
 70
64
  3
............................................
 72
65
 73
2
 40
0.30
 49
0
 49
-0.30
  0
ENDTAB
  0
TABLE
  2
LAYER
 70
23
  0
LAYER
  2
UNTERSCHRIFT
 70
64
 62
7
  6
CONTINUOUS
  0
LAYER
  2
TEILE
 70
64
 62
7
  6
CONTINUOUS
  0
LAYER
  2
REST
 70
64
 62
7
  6
CONTINUOUS
  0
LAYER
  2
MARKERPUNKTE
 70
64
 62
7
  6
CONTINUOUS
  0
LAYER
  2
HILFSPUNKTE
 70
64
 62
7
  6
CONTINUOUS
  0
LAYER
  2
PICKPUNKTE
 70
64
 62
7
  6
CONTINUOUS
  0
LAYER
  2
SCHRAUBEN
 70
64
 62
7
  6
CONTINUOUS
  0
LAYER
  2
SCHWEISSEN
 70
64
 62
7
  6
CONTINUOUS
  0
LAYER
  2
GRAFIK
 70
64
 62
7
  6
CONTINUOUS
  0
LAYER
  2
BEM_FREI
 70
64
 62
7
  6
CONTINUOUS
  0
LAYER
  2
BEM_SYSTEM
 70
64
 62
7
  6
CONTINUOUS
  0
LAYER
  2
BEM_KONTUR
 70
64
 62
7
  6
CONTINUOUS
  0
LAYER
  2
BEM_ANBAU
 70
64
 62
7
  6
CONTINUOUS
  0
LAYER
  2
BEM_SCHRAUBEN
 70
64
 62
7
  6
CONTINUOUS
  0
LAYER
  2
BEM_SCHWEISSEN
 70
64
 62
7
  6
CONTINUOUS
  0
LAYER
  2
FREIER_TEXT
 70
64
 62
7
  6
CONTINUOUS
  0
LAYER
  2
BEZ_TEILE
 70
64
 62
7
  6
CONTINUOUS
  0
LAYER
  2
BEZ_SCHRAUBEN
 70
64
 62
7
  6
CONTINUOUS
  0
LAYER
  2
BEZ_SCHWEISSEN
 70
64
 62
7
  6
CONTINUOUS
  0
LAYER
  2
SCHRAFFUREN
 70
64
 62
7
  6
CONTINUOUS
  0
LAYER
  2
SCHNITTSYMBOL
 70
64
 62
7
  6
CONTINUOUS
  0
LAYER
  2
RASTER
 70
64
 62
7
  6
CONTINUOUS
  0
LAYER
  2
LISTEN
 70
64
 62
7
  6
CONTINUOUS
  0
LAYER
  2
RAHMEN
 70
64
 62
7
  6
CONTINUOUS
  0
ENDTAB
  0
TABLE
  2
STYLE
 70
1
  0
STYLE
  2
STANDARD
 70
64
 40
0
 41
1
 50
0.0
 71
0
 42
0.35
  3
ROMANS
  0
ENDTAB
  0
ENDSEC
  0
SECTION
  2
ENTITIES
  0
TEXT
 8
UNTERSCHRIFT
 62
2
 10
85.700005
 20
82.250000
 40
3.250000
 41
0.800000
 51
15.000000
  1
Project  DP0GN9  ,Qty. 40  , Pos. 
  0
TEXT
 8
UNTERSCHRIFT
 62
2
 10
187.099991
 20
82.250000
 40
3.250000
 41
0.800000
 51
15.000000
  1
  , Profi l PL175*16
  0
TEXT
 8
UNTERSCHRIFT
 62
2
 10
174.100006
 20
82.250000
 40
3.250000
 41
0.800000
 51
15.000000
  1
20632
  0
LINE
  8
TEILE
 62
2
 10
330.000000
 20
57.499996
 11
330.000000
 21
-87.500000
  0
LINE
  8
TEILE
 62
2
 10
330.000000
 20
-87.500000
 11
0.000000
 21
-87.500000
  0
LINE
  8
TEILE
 62
2
 10
0.000000
 20
-87.500000
 11
0.000000
 21
57.499996
  0
LINE
  8
TEILE
 62
2
 10
0.000000
 20
57.499996
 11
1.570076
 21
57.541115
  0
LINE
  8
TEILE
 62
2
 10
1.570076
 20
57.541115
 11
3.135853
 21
57.664341
  0
LINE
  8
TEILE
 62
2
 10
3.135853
 20
57.664341
 11
4.693034
 21
57.869347
  0
LINE
  8
TEILE
 62
2
 10
4.693034
 20
57.869347
 11
6.237352
 21
58.155571
  0
LINE
  8
TEILE
 62
2
 10
6.237352
 20
58.155571
 11
7.764574
 21
58.522224
  0
LINE
  8
TEILE
 62
2
 10
7.764574
 20
58.522224
 11
9.270514
 21
58.968300
  0
LINE
  8
TEILE
 62
2
 10
9.270514
 20
58.968300
 11
10.751043
 21
59.492584
  0
LINE
  8
TEILE
 62
2
 10
10.751043
 20
59.492584
 11
12.202106
 21
60.093636
  0
LINE
  8
TEILE
 62
2
 10
12.202106
 20
60.093636
 11
13.619723
 21
60.769802
  0
LINE
  8
TEILE
 62
2
 10
13.619723
 20
60.769802
 11
15.000010
 21
61.519238
  0
LINE
  8
TEILE
 62
2
 10
15.000010
 20
61.519238
 11
16.339182
 21
62.339882
  0
LINE
  8
TEILE
 62
2
 10
16.339182
 20
62.339882
 11
17.633568
 21
63.229488
  0
LINE
  8
TEILE
 62
2
 10
17.633568
 20
63.229488
 11
18.879622
 21
64.185623
  0
LINE
  8
TEILE
 62
2
 10
18.879622
 20
64.185623
 11
20.073927
 21
65.205658
  0
LINE
  8
TEILE
 62
2
 10
20.073927
 20
65.205658
 11
21.213211
 21
66.286797
  0
LINE
  8
TEILE
 62
2
 10
21.213211
 20
66.286797
 11
22.294352
 21
67.426079
  0
LINE
  8
TEILE
 62
2
 10
22.294352
 20
67.426079
 11
23.314384
 21
68.620384
  0
LINE
  8
TEILE
 62
2
 10
23.314384
 20
68.620384
 11
24.270517
 21
69.866440
  0
LINE
  8
TEILE
 62
2
 10
24.270517
 20
69.866440
 11
25.160124
 21
71.160828
  0
LINE
  8
TEILE
 62
2
 10
25.160124
 20
71.160828
 11
25.980768
 21
72.500000
  0
LINE
  8
TEILE
 62
2
 10
25.980768
 20
72.500000
 11
26.730202
 21
73.880280
  0
LINE
  8
TEILE
 62
2
 10
26.730202
 20
73.880280
 11
27.406370
 21
75.297897
  0
LINE
  8
TEILE
 62
2
 10
27.406370
 20
75.297897
 11
28.007420
 21
76.748962
  0
LINE
  8
TEILE
 62
2
 10
28.007420
 20
76.748962
 11
28.531702
 21
78.229492
  0
LINE
  8
TEILE
 62
2
 10
28.531702
 20
78.229492
 11
28.977779
 21
79.735428
  0
LINE
  8
TEILE
 62
2
 10
28.977779
 20
79.735428
 11
29.344433
 21
81.262650
  0
LINE
  8
TEILE
 62
2
 10
29.344433
 20
81.262650
 11
29.630653
 21
82.806969
  0
LINE
  8
TEILE
 62
2
 10
29.630653
 20
82.806969
 11
29.835661
 21
84.364151
  0
LINE
  8
TEILE
 62
2
 10
29.835661
 20
84.364151
 11
29.958889
 21
85.929932
  0
LINE
  8
TEILE
 62
2
 10
29.958889
 20
85.929932
 11
30.000002
 21
87.500000
  0
LINE
  8
TEILE
 62
2
 10
30.000002
 20
87.500000
 11
30.000000
 21
87.500000
  0
LINE
  8
TEILE
 62
2
 10
30.000000
 20
87.500000
 11
300.000000
 21
87.500000
  0
LINE
  8
TEILE
 62
2
 10
300.000000
 20
87.500000
 11
300.041107
 21
85.929932
  0
LINE
  8
TEILE
 62
2
 10
300.041107
 20
85.929932
 11
300.164337
 21
84.364159
  0
LINE
  8
TEILE
 62
2
 10
300.164337
 20
84.364159
 11
300.369324
 21
82.806976
  0
LINE
  8
TEILE
 62
2
 10
300.369324
 20
82.806976
 11
300.655548
 21
81.262657
  0
LINE
  8
TEILE
 62
2
 10
300.655548
 20
81.262657
 11
301.022217
 21
79.735443
  0
LINE
  8
TEILE
 62
2
 10
301.022217
 20
79.735443
 11
301.468292
 21
78.229507
  0
LINE
  8
TEILE
 62
2
 10
301.468292
 20
78.229507
 11
301.992554
 21
76.748970
  0
LINE
  8
TEILE
 62
2
 10
301.992554
 20
76.748970
 11
302.593628
 21
75.297913
  0
LINE
  8
TEILE
 62
2
 10
302.593628
 20
75.297913
 11
303.269775
 21
73.880302
  0
LINE
  8
TEILE
 62
2
 10
303.269775
 20
73.880302
 11
304.019226
 21
72.500015
  0
LINE
  8
TEILE
 62
2
 10
304.019226
 20
72.500015
 11
304.839874
 21
71.160843
  0
LINE
  8
TEILE
 62
2
 10
304.839874
 20
71.160843
 11
305.729492
 21
69.866463
  0
LINE
  8
TEILE
 62
2
 10
305.729492
 20
69.866463
 11
306.685608
 21
68.620407
  0
LINE
  8
TEILE
 62
2
 10
306.685608
 20
68.620407
 11
307.705627
 21
67.426102
  0
LINE
  8
TEILE
 62
2
 10
307.705627
 20
67.426102
 11
308.786774
 21
66.286819
  0
LINE
  8
TEILE
 62
2
 10
308.786774
 20
66.286819
 11
309.926056
 21
65.205673
  0
LINE
  8
TEILE
 62
2
 10
309.926056
 20
65.205673
 11
311.120361
 21
64.185638
  0
LINE
  8
TEILE
 62
2
 10
311.120361
 20
64.185638
 11
312.366394
 21
63.229507
  0
LINE
  8
TEILE
 62
2
 10
312.366394
 20
63.229507
 11
313.660797
 21
62.339901
  0
LINE
  8
TEILE
 62
2
 10
313.660797
 20
62.339901
 11
314.999969
 21
61.519257
  0
LINE
  8
TEILE
 62
2
 10
314.999969
 20
61.519257
 11
316.380249
 21
60.769821
  0
LINE
  8
TEILE
 62
2
 10
316.380249
 20
60.769821
 11
317.797882
 21
60.093651
  0
LINE
  8
TEILE
 62
2
 10
317.797882
 20
60.093651
 11
319.248932
 21
59.492603
  0
LINE
  8
TEILE
 62
2
 10
319.248932
 20
59.492603
 11
320.729431
 21
58.968319
  0
LINE
  8
TEILE
 62
2
 10
320.729431
 20
58.968319
 11
322.235382
 21
58.522240
  0
LINE
  8
TEILE
 62
2
 10
322.235382
 20
58.522240
 11
323.762634
 21
58.155586
  0
LINE
  8
TEILE
 62
2
 10
323.762634
 20
58.155586
 11
325.306946
 21
57.869358
  0
LINE
  8
TEILE
 62
2
 10
325.306946
 20
57.869358
 11
326.864075
 21
57.664352
  0
LINE
  8
TEILE
 62
2
 10
326.864075
 20
57.664352
 11
328.429871
 21
57.541119
  0
LINE
  8
TEILE
 62
2
 10
328.429871
 20
57.541119
 11
329.999969
 21
57.500004
  0
LINE
  8
TEILE
 62
2
 10
329.999969
 20
57.500004
 11
330.000000
 21
57.499996
  0
ENDSEC
  0
EOF

