999
     *******************************************
999
     BOCAD Software GmbH   Rev.18.000   0202.22
999
     Filename:   c:\progetti21\danieli_aqs\b4\temp_11\20642.dxf
999
     Creator:    bocad
999
     Date:       20.01.2016
999
     Factor:     10.000000
999
     *******************************************
  0
SECTION
  2
HEADER
  9
$DWGCODEPAGE
  3
ANSI_1252
  9
$INSBASE
 10
0.0
 20
0.0
 30
0.0
  9
$EXTMIN
 10
-0.500000
 20
-96.750002
  9
$EXTMAX
 10
410.499992
 20
96.750011
  9
$LIMMIN
 10
-1.500000
 20
-97.750002
  9
$LIMMAX
 10
411.499992
 20
97.750011
  9
$LTSCALE
 40
10.000000
  0
ENDSEC
  0
SECTION
  2
TABLES
  0
TABLE
  2
LTYPE
 70
4
  0
LTYPE
  2
CONTINUOUS
 70
64
  3
____________________________________________
 72
65
 73
0
 40
0.0
  0
LTYPE
  2
HIDDEN
 70
64
  3
__ __ __ __ __ __ __ __ __ __ __ __ __ __ __
 72
65
 73
2
 40
0.50
 49
0.30
 49
-0.20
  0
LTYPE
  2
DASHDOT
 70
64
  3
____ _ ____ _ ____ _ ____ _ ____ _ ____ _ __
 72
65
 73
4
 40
2.0
 49
1.5
 49
-0.25
 49
0
 49
-0.25
  0
LTYPE
  2
DOT
 70
64
  3
............................................
 72
65
 73
2
 40
0.30
 49
0
 49
-0.30
  0
ENDTAB
  0
TABLE
  2
LAYER
 70
23
  0
LAYER
  2
UNTERSCHRIFT
 70
64
 62
7
  6
CONTINUOUS
  0
LAYER
  2
TEILE
 70
64
 62
7
  6
CONTINUOUS
  0
LAYER
  2
REST
 70
64
 62
7
  6
CONTINUOUS
  0
LAYER
  2
MARKERPUNKTE
 70
64
 62
7
  6
CONTINUOUS
  0
LAYER
  2
HILFSPUNKTE
 70
64
 62
7
  6
CONTINUOUS
  0
LAYER
  2
PICKPUNKTE
 70
64
 62
7
  6
CONTINUOUS
  0
LAYER
  2
SCHRAUBEN
 70
64
 62
7
  6
CONTINUOUS
  0
LAYER
  2
SCHWEISSEN
 70
64
 62
7
  6
CONTINUOUS
  0
LAYER
  2
GRAFIK
 70
64
 62
7
  6
CONTINUOUS
  0
LAYER
  2
BEM_FREI
 70
64
 62
7
  6
CONTINUOUS
  0
LAYER
  2
BEM_SYSTEM
 70
64
 62
7
  6
CONTINUOUS
  0
LAYER
  2
BEM_KONTUR
 70
64
 62
7
  6
CONTINUOUS
  0
LAYER
  2
BEM_ANBAU
 70
64
 62
7
  6
CONTINUOUS
  0
LAYER
  2
BEM_SCHRAUBEN
 70
64
 62
7
  6
CONTINUOUS
  0
LAYER
  2
BEM_SCHWEISSEN
 70
64
 62
7
  6
CONTINUOUS
  0
LAYER
  2
FREIER_TEXT
 70
64
 62
7
  6
CONTINUOUS
  0
LAYER
  2
BEZ_TEILE
 70
64
 62
7
  6
CONTINUOUS
  0
LAYER
  2
BEZ_SCHRAUBEN
 70
64
 62
7
  6
CONTINUOUS
  0
LAYER
  2
BEZ_SCHWEISSEN
 70
64
 62
7
  6
CONTINUOUS
  0
LAYER
  2
SCHRAFFUREN
 70
64
 62
7
  6
CONTINUOUS
  0
LAYER
  2
SCHNITTSYMBOL
 70
64
 62
7
  6
CONTINUOUS
  0
LAYER
  2
RASTER
 70
64
 62
7
  6
CONTINUOUS
  0
LAYER
  2
LISTEN
 70
64
 62
7
  6
CONTINUOUS
  0
LAYER
  2
RAHMEN
 70
64
 62
7
  6
CONTINUOUS
  0
ENDTAB
  0
TABLE
  2
STYLE
 70
1
  0
STYLE
  2
STANDARD
 70
64
 40
0
 41
1
 50
0.0
 71
0
 42
0.35
  3
ROMANS
  0
ENDTAB
  0
ENDSEC
  0
SECTION
  2
ENTITIES
  0
TEXT
 8
UNTERSCHRIFT
 62
2
 10
125.700005
 20
91.000000
 40
3.250000
 41
0.800000
 51
15.000000
  1
Project  DP0GN9  ,Qty. 20  , Pos. 
  0
TEXT
 8
UNTERSCHRIFT
 62
2
 10
227.099991
 20
91.000000
 40
3.250000
 41
0.800000
 51
15.000000
  1
  , Profi l PL193*30
  0
TEXT
 8
UNTERSCHRIFT
 62
2
 10
214.100006
 20
91.000000
 40
3.250000
 41
0.800000
 51
15.000000
  1
20642
  0
LINE
  8
TEILE
 62
2
 10
410.000000
 20
66.250000
 11
410.000000
 21
-96.250000
  0
LINE
  8
TEILE
 62
2
 10
410.000000
 20
-96.250000
 11
-0.000000
 21
-96.250000
  0
LINE
  8
TEILE
 62
2
 10
-0.000000
 20
-96.250000
 11
-0.000000
 21
66.250000
  0
LINE
  8
TEILE
 62
2
 10
-0.000000
 20
66.250000
 11
1.570077
 21
66.291107
  0
LINE
  8
TEILE
 62
2
 10
1.570077
 20
66.291107
 11
3.135853
 21
66.414337
  0
LINE
  8
TEILE
 62
2
 10
3.135853
 20
66.414337
 11
4.693035
 21
66.619347
  0
LINE
  8
TEILE
 62
2
 10
4.693035
 20
66.619347
 11
6.237354
 21
66.905563
  0
LINE
  8
TEILE
 62
2
 10
6.237354
 20
66.905563
 11
7.764575
 21
67.272217
  0
LINE
  8
TEILE
 62
2
 10
7.764575
 20
67.272217
 11
9.270515
 21
67.718300
  0
LINE
  8
TEILE
 62
2
 10
9.270515
 20
67.718300
 11
10.751046
 21
68.242584
  0
LINE
  8
TEILE
 62
2
 10
10.751046
 20
68.242584
 11
12.202108
 21
68.843636
  0
LINE
  8
TEILE
 62
2
 10
12.202108
 20
68.843636
 11
13.619724
 21
69.519806
  0
LINE
  8
TEILE
 62
2
 10
13.619724
 20
69.519806
 11
15.000010
 21
70.269234
  0
LINE
  8
TEILE
 62
2
 10
15.000010
 20
70.269234
 11
16.339184
 21
71.089882
  0
LINE
  8
TEILE
 62
2
 10
16.339184
 20
71.089882
 11
17.633570
 21
71.979492
  0
LINE
  8
TEILE
 62
2
 10
17.633570
 20
71.979492
 11
18.879622
 21
72.935623
  0
LINE
  8
TEILE
 62
2
 10
18.879622
 20
72.935623
 11
20.073929
 21
73.955658
  0
LINE
  8
TEILE
 62
2
 10
20.073929
 20
73.955658
 11
21.213211
 21
75.036804
  0
LINE
  8
TEILE
 62
2
 10
21.213211
 20
75.036804
 11
22.294353
 21
76.176086
  0
LINE
  8
TEILE
 62
2
 10
22.294353
 20
76.176086
 11
23.314388
 21
77.370392
  0
LINE
  8
TEILE
 62
2
 10
23.314388
 20
77.370392
 11
24.270517
 21
78.616447
  0
LINE
  8
TEILE
 62
2
 10
24.270517
 20
78.616447
 11
25.160124
 21
79.910835
  0
LINE
  8
TEILE
 62
2
 10
25.160124
 20
79.910835
 11
25.980768
 21
81.250008
  0
LINE
  8
TEILE
 62
2
 10
25.980768
 20
81.250008
 11
26.730202
 21
82.630295
  0
LINE
  8
TEILE
 62
2
 10
26.730202
 20
82.630295
 11
27.406368
 21
84.047913
  0
LINE
  8
TEILE
 62
2
 10
27.406368
 20
84.047913
 11
28.007416
 21
85.498970
  0
LINE
  8
TEILE
 62
2
 10
28.007416
 20
85.498970
 11
28.531700
 21
86.979492
  0
LINE
  8
TEILE
 62
2
 10
28.531700
 20
86.979492
 11
28.977776
 21
88.485428
  0
LINE
  8
TEILE
 62
2
 10
28.977776
 20
88.485428
 11
29.344429
 21
90.012657
  0
LINE
  8
TEILE
 62
2
 10
29.344429
 20
90.012657
 11
29.630651
 21
91.556969
  0
LINE
  8
TEILE
 62
2
 10
29.630651
 20
91.556969
 11
29.835655
 21
93.114159
  0
LINE
  8
TEILE
 62
2
 10
29.835655
 20
93.114159
 11
29.958885
 21
94.679932
  0
LINE
  8
TEILE
 62
2
 10
29.958885
 20
94.679932
 11
29.999998
 21
96.250008
  0
LINE
  8
TEILE
 62
2
 10
29.999998
 20
96.250008
 11
30.000000
 21
96.250000
  0
LINE
  8
TEILE
 62
2
 10
30.000000
 20
96.250000
 11
380.000000
 21
96.250000
  0
LINE
  8
TEILE
 62
2
 10
380.000000
 20
96.250000
 11
380.045227
 21
94.603134
  0
LINE
  8
TEILE
 62
2
 10
380.045227
 20
94.603134
 11
380.180817
 21
92.961243
  0
LINE
  8
TEILE
 62
2
 10
380.180817
 20
92.961243
 11
380.406311
 21
91.329269
  0
LINE
  8
TEILE
 62
2
 10
380.406311
 20
91.329269
 11
380.721069
 21
89.712143
  0
LINE
  8
TEILE
 62
2
 10
380.721069
 20
89.712143
 11
381.124115
 21
88.114716
  0
LINE
  8
TEILE
 62
2
 10
381.124115
 20
88.114716
 11
381.614227
 21
86.541832
  0
LINE
  8
TEILE
 62
2
 10
381.614227
 20
86.541832
 11
382.189972
 21
84.998238
  0
LINE
  8
TEILE
 62
2
 10
382.189972
 20
84.998238
 11
382.849579
 21
83.488556
  0
LINE
  8
TEILE
 62
2
 10
382.849579
 20
83.488556
 11
383.591064
 21
82.017372
  0
LINE
  8
TEILE
 62
2
 10
383.591064
 20
82.017372
 11
384.412201
 21
80.589104
  0
LINE
  8
TEILE
 62
2
 10
384.412201
 20
80.589104
 11
385.310486
 21
79.208069
  0
LINE
  8
TEILE
 62
2
 10
385.310486
 20
79.208069
 11
386.283234
 21
77.878426
  0
LINE
  8
TEILE
 62
2
 10
386.283234
 20
77.878426
 11
387.327515
 21
76.604195
  0
LINE
  8
TEILE
 62
2
 10
387.327515
 20
76.604195
 11
387.327545
 21
76.604179
  0
LINE
  8
TEILE
 62
2
 10
387.327545
 20
76.604179
 11
390.354156
 21
73.577507
  0
LINE
  8
TEILE
 62
2
 10
390.354156
 20
73.577507
 11
393.780792
 21
71.012390
  0
LINE
  8
TEILE
 62
2
 10
393.780792
 20
71.012390
 11
397.537537
 21
68.961037
  0
LINE
  8
TEILE
 62
2
 10
397.537537
 20
68.961037
 11
398.717651
 21
68.452354
  0
LINE
  8
TEILE
 62
2
 10
398.717651
 20
68.452354
 11
399.918518
 21
67.994675
  0
LINE
  8
TEILE
 62
2
 10
399.918518
 20
67.994675
 11
401.137848
 21
67.588837
  0
LINE
  8
TEILE
 62
2
 10
401.137848
 20
67.588837
 11
402.373413
 21
67.235596
  0
LINE
  8
TEILE
 62
2
 10
402.373413
 20
67.235596
 11
403.623047
 21
66.935593
  0
LINE
  8
TEILE
 62
2
 10
403.623047
 20
66.935593
 11
404.884338
 21
66.689384
  0
LINE
  8
TEILE
 62
2
 10
404.884338
 20
66.689384
 11
406.155029
 21
66.497414
  0
LINE
  8
TEILE
 62
2
 10
406.155029
 20
66.497414
 11
407.432739
 21
66.360046
  0
LINE
  8
TEILE
 62
2
 10
407.432739
 20
66.360046
 11
408.715210
 21
66.277527
  0
LINE
  8
TEILE
 62
2
 10
408.715210
 20
66.277527
 11
410.000000
 21
66.250000
  0
LINE
  8
TEILE
 62
2
 10
410.000000
 20
66.250000
 11
410.000000
 21
66.250000
  0
ENDSEC
  0
EOF

