999
     *******************************************
999
     BOCAD Software GmbH   Rev.18.000   0202.22
999
     Filename:   c:\progetti21\danieli_aqs\b4\temp_11\30204.dxf
999
     Creator:    bocad
999
     Date:       20.01.2016
999
     Factor:     10.000000
999
     *******************************************
  0
SECTION
  2
HEADER
  9
$DWGCODEPAGE
  3
ANSI_1252
  9
$INSBASE
 10
0.0
 20
0.0
 30
0.0
  9
$EXTMIN
 10
-0.499504
 20
-210.499992
  9
$EXTMAX
 10
380.498199
 20
210.499992
  9
$LIMMIN
 10
-1.499504
 20
-211.499992
  9
$LIMMAX
 10
381.498199
 20
211.499992
  9
$LTSCALE
 40
10.000000
  0
ENDSEC
  0
SECTION
  2
TABLES
  0
TABLE
  2
LTYPE
 70
4
  0
LTYPE
  2
CONTINUOUS
 70
64
  3
____________________________________________
 72
65
 73
0
 40
0.0
  0
LTYPE
  2
HIDDEN
 70
64
  3
__ __ __ __ __ __ __ __ __ __ __ __ __ __ __
 72
65
 73
2
 40
0.50
 49
0.30
 49
-0.20
  0
LTYPE
  2
DASHDOT
 70
64
  3
____ _ ____ _ ____ _ ____ _ ____ _ ____ _ __
 72
65
 73
4
 40
2.0
 49
1.5
 49
-0.25
 49
0
 49
-0.25
  0
LTYPE
  2
DOT
 70
64
  3
............................................
 72
65
 73
2
 40
0.30
 49
0
 49
-0.30
  0
ENDTAB
  0
TABLE
  2
LAYER
 70
23
  0
LAYER
  2
SCHRAUBEN
 70
64
 62
7
  6
CONTINUOUS
  0
LAYER
  2
REST
 70
64
 62
7
  6
CONTINUOUS
  0
LAYER
  2
UNTERSCHRIFT
 70
64
 62
7
  6
CONTINUOUS
  0
LAYER
  2
TEILE
 70
64
 62
7
  6
CONTINUOUS
  0
LAYER
  2
BEZ_SCHRAUBEN
 70
64
 62
7
  6
CONTINUOUS
  0
LAYER
  2
MARKERPUNKTE
 70
64
 62
7
  6
CONTINUOUS
  0
LAYER
  2
HILFSPUNKTE
 70
64
 62
7
  6
CONTINUOUS
  0
LAYER
  2
PICKPUNKTE
 70
64
 62
7
  6
CONTINUOUS
  0
LAYER
  2
SCHWEISSEN
 70
64
 62
7
  6
CONTINUOUS
  0
LAYER
  2
GRAFIK
 70
64
 62
7
  6
CONTINUOUS
  0
LAYER
  2
BEM_FREI
 70
64
 62
7
  6
CONTINUOUS
  0
LAYER
  2
BEM_SYSTEM
 70
64
 62
7
  6
CONTINUOUS
  0
LAYER
  2
BEM_KONTUR
 70
64
 62
7
  6
CONTINUOUS
  0
LAYER
  2
BEM_ANBAU
 70
64
 62
7
  6
CONTINUOUS
  0
LAYER
  2
BEM_SCHRAUBEN
 70
64
 62
7
  6
CONTINUOUS
  0
LAYER
  2
BEM_SCHWEISSEN
 70
64
 62
7
  6
CONTINUOUS
  0
LAYER
  2
FREIER_TEXT
 70
64
 62
7
  6
CONTINUOUS
  0
LAYER
  2
BEZ_TEILE
 70
64
 62
7
  6
CONTINUOUS
  0
LAYER
  2
BEZ_SCHWEISSEN
 70
64
 62
7
  6
CONTINUOUS
  0
LAYER
  2
SCHRAFFUREN
 70
64
 62
7
  6
CONTINUOUS
  0
LAYER
  2
SCHNITTSYMBOL
 70
64
 62
7
  6
CONTINUOUS
  0
LAYER
  2
RASTER
 70
64
 62
7
  6
CONTINUOUS
  0
LAYER
  2
LISTEN
 70
64
 62
7
  6
CONTINUOUS
  0
LAYER
  2
RAHMEN
 70
64
 62
7
  6
CONTINUOUS
  0
ENDTAB
  0
TABLE
  2
STYLE
 70
1
  0
STYLE
  2
STANDARD
 70
64
 40
0
 41
1
 50
0.0
 71
0
 42
0.35
  3
ROMANS
  0
ENDTAB
  0
ENDSEC
  0
SECTION
  2
ENTITIES
  0
LINE
  8
SCHRAUBEN
 62
6
 10
275.799957
 20
-144.198563
 11
264.199951
 21
-155.798553
  0
LINE
  8
SCHRAUBEN
 62
6
 10
264.199951
 20
-144.198563
 11
275.799957
 21
-155.798553
  0
CIRCLE
  8
SCHRAUBEN
 62
2
 10
269.999969
 20
-149.998566
 40
14.500000
  0
LINE
  8
SCHRAUBEN
 62
6
 10
275.799957
 20
-64.198563
 11
264.199951
 21
-75.798561
  0
LINE
  8
SCHRAUBEN
 62
6
 10
264.199951
 20
-64.198563
 11
275.799957
 21
-75.798561
  0
CIRCLE
  8
SCHRAUBEN
 62
2
 10
269.999969
 20
-69.998558
 40
14.500000
  0
LINE
  8
SCHRAUBEN
 62
6
 10
115.799973
 20
-64.198563
 11
104.199974
 21
-75.798561
  0
LINE
  8
SCHRAUBEN
 62
6
 10
104.199974
 20
-64.198563
 11
115.799973
 21
-75.798561
  0
CIRCLE
  8
SCHRAUBEN
 62
2
 10
109.999969
 20
-69.998558
 40
14.500000
  0
LINE
  8
SCHRAUBEN
 62
6
 10
115.799973
 20
-144.198563
 11
104.199974
 21
-155.798553
  0
LINE
  8
SCHRAUBEN
 62
6
 10
104.199974
 20
-144.198563
 11
115.799973
 21
-155.798553
  0
CIRCLE
  8
SCHRAUBEN
 62
2
 10
109.999969
 20
-149.998566
 40
14.500000
  0
LINE
  8
SCHRAUBEN
 62
6
 10
115.799973
 20
75.801445
 11
104.199974
 21
64.201447
  0
LINE
  8
SCHRAUBEN
 62
6
 10
104.199974
 20
75.801445
 11
115.799973
 21
64.201447
  0
CIRCLE
  8
SCHRAUBEN
 62
2
 10
109.999969
 20
70.001442
 40
14.500000
  0
LINE
  8
SCHRAUBEN
 62
6
 10
115.799973
 20
155.801437
 11
104.199974
 21
144.201447
  0
LINE
  8
SCHRAUBEN
 62
6
 10
104.199974
 20
155.801437
 11
115.799973
 21
144.201447
  0
CIRCLE
  8
SCHRAUBEN
 62
2
 10
109.999969
 20
150.001434
 40
14.500000
  0
LINE
  8
SCHRAUBEN
 62
6
 10
275.799957
 20
155.801437
 11
264.199951
 21
144.201447
  0
LINE
  8
SCHRAUBEN
 62
6
 10
264.199951
 20
155.801437
 11
275.799957
 21
144.201447
  0
CIRCLE
  8
SCHRAUBEN
 62
2
 10
269.999969
 20
150.001434
 40
14.500000
  0
LINE
  8
SCHRAUBEN
 62
6
 10
275.799957
 20
75.801445
 11
264.199951
 21
64.201447
  0
LINE
  8
SCHRAUBEN
 62
6
 10
264.199951
 20
75.801445
 11
275.799957
 21
64.201447
  0
CIRCLE
  8
SCHRAUBEN
 62
2
 10
269.999969
 20
70.001442
 40
14.500000
  0
TEXT
 8
UNTERSCHRIFT
 62
2
 10
5.250496
 20
-78.000000
 40
3.250000
 50
89.999931
 41
0.800000
 51
15.000000
  1
Project  DP0GN9  ,Qty. 5  , Pos. 
  0
TEXT
 8
UNTERSCHRIFT
 62
2
 10
5.250496
 20
20.799997
 40
3.250000
 50
89.999931
 41
0.800000
 51
15.000000
  1
  , Profi l PL420*25
  0
TEXT
 8
UNTERSCHRIFT
 62
2
 10
5.250496
 20
7.799996
 40
3.250000
 50
89.999931
 41
0.800000
 51
15.000000
  1
30204
  0
LINE
  8
TEILE
 62
2
 10
0.000496
 20
210.000000
 11
379.998199
 21
210.000000
  0
LINE
  8
TEILE
 62
2
 10
379.998199
 20
210.000000
 11
379.998199
 21
-210.000000
  0
LINE
  8
TEILE
 62
2
 10
379.998199
 20
-210.000000
 11
0.000496
 21
-210.000000
  0
LINE
  8
TEILE
 62
2
 10
0.000496
 20
-210.000000
 11
0.000496
 21
210.000000
  0
TEXT
 8
BEZ_SCHRAUBEN
 62
2
 10
262.000000
 20
-171.998581
 40
5.000000
 41
0.800000
 51
15.000000
  1
 ø29
  0
ENDSEC
  0
EOF

