999
     *******************************************
999
     BOCAD Software GmbH   Rev.18.000   0202.22
999
     Filename:   c:\progetti21\danieli_aqs\b4\temp_11\30200.dxf
999
     Creator:    bocad
999
     Date:       20.01.2016
999
     Factor:     10.000000
999
     *******************************************
  0
SECTION
  2
HEADER
  9
$DWGCODEPAGE
  3
ANSI_1252
  9
$INSBASE
 10
0.0
 20
0.0
 30
0.0
  9
$EXTMIN
 10
-0.500000
 20
-340.496750
  9
$EXTMAX
 10
380.499611
 20
340.496750
  9
$LIMMIN
 10
-1.500000
 20
-341.496750
  9
$LIMMAX
 10
381.499611
 20
341.496750
  9
$LTSCALE
 40
10.000000
  0
ENDSEC
  0
SECTION
  2
TABLES
  0
TABLE
  2
LTYPE
 70
4
  0
LTYPE
  2
CONTINUOUS
 70
64
  3
____________________________________________
 72
65
 73
0
 40
0.0
  0
LTYPE
  2
HIDDEN
 70
64
  3
__ __ __ __ __ __ __ __ __ __ __ __ __ __ __
 72
65
 73
2
 40
0.50
 49
0.30
 49
-0.20
  0
LTYPE
  2
DASHDOT
 70
64
  3
____ _ ____ _ ____ _ ____ _ ____ _ ____ _ __
 72
65
 73
4
 40
2.0
 49
1.5
 49
-0.25
 49
0
 49
-0.25
  0
LTYPE
  2
DOT
 70
64
  3
............................................
 72
65
 73
2
 40
0.30
 49
0
 49
-0.30
  0
ENDTAB
  0
TABLE
  2
LAYER
 70
23
  0
LAYER
  2
SCHRAUBEN
 70
64
 62
7
  6
CONTINUOUS
  0
LAYER
  2
REST
 70
64
 62
7
  6
CONTINUOUS
  0
LAYER
  2
UNTERSCHRIFT
 70
64
 62
7
  6
CONTINUOUS
  0
LAYER
  2
TEILE
 70
64
 62
7
  6
CONTINUOUS
  0
LAYER
  2
BEZ_SCHRAUBEN
 70
64
 62
7
  6
CONTINUOUS
  0
LAYER
  2
MARKERPUNKTE
 70
64
 62
7
  6
CONTINUOUS
  0
LAYER
  2
HILFSPUNKTE
 70
64
 62
7
  6
CONTINUOUS
  0
LAYER
  2
PICKPUNKTE
 70
64
 62
7
  6
CONTINUOUS
  0
LAYER
  2
SCHWEISSEN
 70
64
 62
7
  6
CONTINUOUS
  0
LAYER
  2
GRAFIK
 70
64
 62
7
  6
CONTINUOUS
  0
LAYER
  2
BEM_FREI
 70
64
 62
7
  6
CONTINUOUS
  0
LAYER
  2
BEM_SYSTEM
 70
64
 62
7
  6
CONTINUOUS
  0
LAYER
  2
BEM_KONTUR
 70
64
 62
7
  6
CONTINUOUS
  0
LAYER
  2
BEM_ANBAU
 70
64
 62
7
  6
CONTINUOUS
  0
LAYER
  2
BEM_SCHRAUBEN
 70
64
 62
7
  6
CONTINUOUS
  0
LAYER
  2
BEM_SCHWEISSEN
 70
64
 62
7
  6
CONTINUOUS
  0
LAYER
  2
FREIER_TEXT
 70
64
 62
7
  6
CONTINUOUS
  0
LAYER
  2
BEZ_TEILE
 70
64
 62
7
  6
CONTINUOUS
  0
LAYER
  2
BEZ_SCHWEISSEN
 70
64
 62
7
  6
CONTINUOUS
  0
LAYER
  2
SCHRAFFUREN
 70
64
 62
7
  6
CONTINUOUS
  0
LAYER
  2
SCHNITTSYMBOL
 70
64
 62
7
  6
CONTINUOUS
  0
LAYER
  2
RASTER
 70
64
 62
7
  6
CONTINUOUS
  0
LAYER
  2
LISTEN
 70
64
 62
7
  6
CONTINUOUS
  0
LAYER
  2
RAHMEN
 70
64
 62
7
  6
CONTINUOUS
  0
ENDTAB
  0
TABLE
  2
STYLE
 70
1
  0
STYLE
  2
STANDARD
 70
64
 40
0
 41
1
 50
0.0
 71
0
 42
0.35
  3
ROMANS
  0
ENDTAB
  0
ENDSEC
  0
SECTION
  2
ENTITIES
  0
LINE
  8
SCHRAUBEN
 62
6
 10
275.800232
 20
-19.201817
 11
264.200256
 21
-30.801815
  0
LINE
  8
SCHRAUBEN
 62
6
 10
264.200256
 20
-19.201817
 11
275.800232
 21
-30.801815
  0
CIRCLE
  8
SCHRAUBEN
 62
2
 10
270.000244
 20
-25.001816
 40
14.500000
  0
LINE
  8
SCHRAUBEN
 62
6
 10
275.800232
 20
65.798180
 11
264.200256
 21
54.198185
  0
LINE
  8
SCHRAUBEN
 62
6
 10
264.200256
 20
65.798180
 11
275.800232
 21
54.198185
  0
CIRCLE
  8
SCHRAUBEN
 62
2
 10
270.000244
 20
59.998184
 40
14.500000
  0
LINE
  8
SCHRAUBEN
 62
6
 10
115.800240
 20
65.798180
 11
104.200241
 21
54.198185
  0
LINE
  8
SCHRAUBEN
 62
6
 10
104.200241
 20
65.798180
 11
115.800240
 21
54.198185
  0
CIRCLE
  8
SCHRAUBEN
 62
2
 10
110.000237
 20
59.998184
 40
14.500000
  0
LINE
  8
SCHRAUBEN
 62
6
 10
115.800240
 20
-19.201817
 11
104.200241
 21
-30.801815
  0
LINE
  8
SCHRAUBEN
 62
6
 10
104.200241
 20
-19.201817
 11
115.800240
 21
-30.801815
  0
CIRCLE
  8
SCHRAUBEN
 62
2
 10
110.000237
 20
-25.001816
 40
14.500000
  0
LINE
  8
SCHRAUBEN
 62
6
 10
115.800240
 20
205.798187
 11
104.200241
 21
194.198181
  0
LINE
  8
SCHRAUBEN
 62
6
 10
104.200241
 20
205.798187
 11
115.800240
 21
194.198181
  0
CIRCLE
  8
SCHRAUBEN
 62
2
 10
110.000237
 20
199.998184
 40
14.500000
  0
LINE
  8
SCHRAUBEN
 62
6
 10
115.800240
 20
290.798187
 11
104.200241
 21
279.198181
  0
LINE
  8
SCHRAUBEN
 62
6
 10
104.200241
 20
290.798187
 11
115.800240
 21
279.198181
  0
CIRCLE
  8
SCHRAUBEN
 62
2
 10
110.000237
 20
284.998199
 40
14.500000
  0
LINE
  8
SCHRAUBEN
 62
6
 10
275.800232
 20
290.798187
 11
264.200256
 21
279.198181
  0
LINE
  8
SCHRAUBEN
 62
6
 10
264.200256
 20
290.798187
 11
275.800232
 21
279.198181
  0
CIRCLE
  8
SCHRAUBEN
 62
2
 10
270.000244
 20
284.998199
 40
14.500000
  0
LINE
  8
SCHRAUBEN
 62
6
 10
275.800232
 20
205.798187
 11
264.200256
 21
194.198181
  0
LINE
  8
SCHRAUBEN
 62
6
 10
264.200256
 20
205.798187
 11
275.800232
 21
194.198181
  0
CIRCLE
  8
SCHRAUBEN
 62
2
 10
270.000244
 20
199.998184
 40
14.500000
  0
LINE
  8
SCHRAUBEN
 62
6
 10
115.800255
 20
-149.196762
 11
104.200256
 21
-160.796783
  0
LINE
  8
SCHRAUBEN
 62
6
 10
104.200256
 20
-149.196762
 11
115.800255
 21
-160.796783
  0
CIRCLE
  8
SCHRAUBEN
 62
2
 10
110.000259
 20
-154.996765
 40
14.500000
  0
LINE
  8
SCHRAUBEN
 62
6
 10
115.800255
 20
-279.196777
 11
104.200256
 21
-290.796783
  0
LINE
  8
SCHRAUBEN
 62
6
 10
104.200256
 20
-279.196777
 11
115.800255
 21
-290.796783
  0
CIRCLE
  8
SCHRAUBEN
 62
2
 10
110.000259
 20
-284.996765
 40
14.500000
  0
LINE
  8
SCHRAUBEN
 62
6
 10
275.800232
 20
-279.196777
 11
264.200226
 21
-290.796783
  0
LINE
  8
SCHRAUBEN
 62
6
 10
264.200226
 20
-279.196777
 11
275.800232
 21
-290.796783
  0
CIRCLE
  8
SCHRAUBEN
 62
2
 10
270.000244
 20
-284.996765
 40
14.500000
  0
LINE
  8
SCHRAUBEN
 62
6
 10
275.800232
 20
-149.196762
 11
264.200226
 21
-160.796783
  0
LINE
  8
SCHRAUBEN
 62
6
 10
264.200226
 20
-149.196762
 11
275.800232
 21
-160.796783
  0
CIRCLE
  8
SCHRAUBEN
 62
2
 10
270.000244
 20
-154.996765
 40
14.500000
  0
TEXT
 8
UNTERSCHRIFT
 62
2
 10
5.250000
 20
-78.000000
 40
3.250000
 50
89.999931
 41
0.800000
 51
15.000000
  1
Project  DP0GN9  ,Qty. 3  , Pos. 
  0
TEXT
 8
UNTERSCHRIFT
 62
2
 10
5.250000
 20
20.799997
 40
3.250000
 50
89.999931
 41
0.800000
 51
15.000000
  1
  , Profi l PL680*25
  0
TEXT
 8
UNTERSCHRIFT
 62
2
 10
5.250000
 20
7.799996
 40
3.250000
 50
89.999931
 41
0.800000
 51
15.000000
  1
30200
  0
LINE
  8
TEILE
 62
2
 10
0.000000
 20
339.996765
 11
379.999634
 21
339.996765
  0
LINE
  8
TEILE
 62
2
 10
379.999634
 20
339.996765
 11
379.999634
 21
-339.996765
  0
LINE
  8
TEILE
 62
2
 10
379.999634
 20
-339.996765
 11
0.000000
 21
-339.996765
  0
LINE
  8
TEILE
 62
2
 10
0.000000
 20
-339.996765
 11
0.000000
 21
339.996765
  0
TEXT
 8
BEZ_SCHRAUBEN
 62
2
 10
262.000244
 20
-47.001816
 40
5.000000
 41
0.800000
 51
15.000000
  1
 ø29
  0
ENDSEC
  0
EOF

