999
     *******************************************
999
     BOCAD Software GmbH   Rev.18.000   0202.22
999
     Filename:   c:\progetti21\danieli_aqs\b4\temp_11\30209.dxf
999
     Creator:    bocad
999
     Date:       20.01.2016
999
     Factor:     10.000000
999
     *******************************************
  0
SECTION
  2
HEADER
  9
$DWGCODEPAGE
  3
ANSI_1252
  9
$INSBASE
 10
0.0
 20
0.0
 30
0.0
  9
$EXTMIN
 10
-0.500000
 20
-191.158752
  9
$EXTMAX
 10
288.270588
 20
191.158752
  9
$LIMMIN
 10
-1.500000
 20
-192.158752
  9
$LIMMAX
 10
289.270588
 20
192.158752
  9
$LTSCALE
 40
10.000000
  0
ENDSEC
  0
SECTION
  2
TABLES
  0
TABLE
  2
LTYPE
 70
4
  0
LTYPE
  2
CONTINUOUS
 70
64
  3
____________________________________________
 72
65
 73
0
 40
0.0
  0
LTYPE
  2
HIDDEN
 70
64
  3
__ __ __ __ __ __ __ __ __ __ __ __ __ __ __
 72
65
 73
2
 40
0.50
 49
0.30
 49
-0.20
  0
LTYPE
  2
DASHDOT
 70
64
  3
____ _ ____ _ ____ _ ____ _ ____ _ ____ _ __
 72
65
 73
4
 40
2.0
 49
1.5
 49
-0.25
 49
0
 49
-0.25
  0
LTYPE
  2
DOT
 70
64
  3
............................................
 72
65
 73
2
 40
0.30
 49
0
 49
-0.30
  0
ENDTAB
  0
TABLE
  2
LAYER
 70
23
  0
LAYER
  2
SCHRAUBEN
 70
64
 62
7
  6
CONTINUOUS
  0
LAYER
  2
REST
 70
64
 62
7
  6
CONTINUOUS
  0
LAYER
  2
UNTERSCHRIFT
 70
64
 62
7
  6
CONTINUOUS
  0
LAYER
  2
TEILE
 70
64
 62
7
  6
CONTINUOUS
  0
LAYER
  2
BEZ_SCHRAUBEN
 70
64
 62
7
  6
CONTINUOUS
  0
LAYER
  2
MARKERPUNKTE
 70
64
 62
7
  6
CONTINUOUS
  0
LAYER
  2
HILFSPUNKTE
 70
64
 62
7
  6
CONTINUOUS
  0
LAYER
  2
PICKPUNKTE
 70
64
 62
7
  6
CONTINUOUS
  0
LAYER
  2
SCHWEISSEN
 70
64
 62
7
  6
CONTINUOUS
  0
LAYER
  2
GRAFIK
 70
64
 62
7
  6
CONTINUOUS
  0
LAYER
  2
BEM_FREI
 70
64
 62
7
  6
CONTINUOUS
  0
LAYER
  2
BEM_SYSTEM
 70
64
 62
7
  6
CONTINUOUS
  0
LAYER
  2
BEM_KONTUR
 70
64
 62
7
  6
CONTINUOUS
  0
LAYER
  2
BEM_ANBAU
 70
64
 62
7
  6
CONTINUOUS
  0
LAYER
  2
BEM_SCHRAUBEN
 70
64
 62
7
  6
CONTINUOUS
  0
LAYER
  2
BEM_SCHWEISSEN
 70
64
 62
7
  6
CONTINUOUS
  0
LAYER
  2
FREIER_TEXT
 70
64
 62
7
  6
CONTINUOUS
  0
LAYER
  2
BEZ_TEILE
 70
64
 62
7
  6
CONTINUOUS
  0
LAYER
  2
BEZ_SCHWEISSEN
 70
64
 62
7
  6
CONTINUOUS
  0
LAYER
  2
SCHRAFFUREN
 70
64
 62
7
  6
CONTINUOUS
  0
LAYER
  2
SCHNITTSYMBOL
 70
64
 62
7
  6
CONTINUOUS
  0
LAYER
  2
RASTER
 70
64
 62
7
  6
CONTINUOUS
  0
LAYER
  2
LISTEN
 70
64
 62
7
  6
CONTINUOUS
  0
LAYER
  2
RAHMEN
 70
64
 62
7
  6
CONTINUOUS
  0
ENDTAB
  0
TABLE
  2
STYLE
 70
1
  0
STYLE
  2
STANDARD
 70
64
 40
0
 41
1
 50
0.0
 71
0
 42
0.35
  3
ROMANS
  0
ENDTAB
  0
ENDSEC
  0
SECTION
  2
ENTITIES
  0
LINE
  8
SCHRAUBEN
 62
6
 10
104.814774
 20
-3.309217
 11
93.214783
 21
-14.909218
  0
LINE
  8
SCHRAUBEN
 62
6
 10
93.214783
 20
-3.309217
 11
104.814774
 21
-14.909218
  0
CIRCLE
  8
SCHRAUBEN
 62
2
 10
99.014778
 20
-9.109218
 40
14.500000
  0
LINE
  8
SCHRAUBEN
 62
6
 10
162.184998
 20
59.409660
 11
150.585007
 21
47.809662
  0
LINE
  8
SCHRAUBEN
 62
6
 10
150.585007
 20
59.409660
 11
162.184998
 21
47.809662
  0
CIRCLE
  8
SCHRAUBEN
 62
2
 10
156.385010
 20
53.609661
 40
14.500000
  0
LINE
  8
SCHRAUBEN
 62
6
 10
219.554977
 20
122.128761
 11
207.954987
 21
110.528763
  0
LINE
  8
SCHRAUBEN
 62
6
 10
207.954987
 20
122.128761
 11
219.554977
 21
110.528763
  0
CIRCLE
  8
SCHRAUBEN
 62
2
 10
213.754974
 20
116.328766
 40
14.500015
  0
TEXT
 8
UNTERSCHRIFT
 62
2
 10
80.885300
 20
-188.658752
 40
3.250000
 41
0.800000
 51
15.000000
  1
Project  DP0GN9  ,Qty. 6  , Pos. 
  0
TEXT
 8
UNTERSCHRIFT
 62
2
 10
179.685287
 20
-188.658737
 40
3.250000
 41
0.800000
 51
15.000000
  1
  , Profi l PL381*16
  0
TEXT
 8
UNTERSCHRIFT
 62
2
 10
166.685303
 20
-188.658737
 40
3.250000
 41
0.800000
 51
15.000000
  1
30209
  0
LINE
  8
TEILE
 62
2
 10
30.000000
 20
-190.658752
 11
-0.000000
 21
-160.658630
  0
LINE
  8
TEILE
 62
2
 10
-0.000000
 20
-160.658630
 11
0.000003
 21
61.787003
  0
LINE
  8
TEILE
 62
2
 10
0.000003
 20
61.787003
 11
213.983322
 21
190.658752
  0
LINE
  8
TEILE
 62
2
 10
213.983322
 20
190.658752
 11
287.770599
 21
123.164131
  0
LINE
  8
TEILE
 62
2
 10
287.770599
 20
123.164131
 11
287.770599
 21
-190.658691
  0
LINE
  8
TEILE
 62
2
 10
287.770599
 20
-190.658691
 11
30.000000
 21
-190.658752
  0
TEXT
 8
BEZ_SCHRAUBEN
 62
2
 10
91.014778
 20
-31.109219
 40
5.000000
 41
0.800000
 51
15.000000
  1
 ø29
  0
ENDSEC
  0
EOF

