999
     *******************************************
999
     BOCAD Software GmbH   Rev.18.000   0202.22
999
     Filename:   c:\progetti21\danieli_aqs\b4\temp_11\30203.dxf
999
     Creator:    bocad
999
     Date:       20.01.2016
999
     Factor:     10.000000
999
     *******************************************
  0
SECTION
  2
HEADER
  9
$DWGCODEPAGE
  3
ANSI_1252
  9
$INSBASE
 10
0.0
 20
0.0
 30
0.0
  9
$EXTMIN
 10
-0.500004
 20
-224.996510
  9
$EXTMAX
 10
350.499992
 20
224.996510
  9
$LIMMIN
 10
-1.500004
 20
-225.996510
  9
$LIMMAX
 10
351.499992
 20
225.996510
  9
$LTSCALE
 40
10.000000
  0
ENDSEC
  0
SECTION
  2
TABLES
  0
TABLE
  2
LTYPE
 70
4
  0
LTYPE
  2
CONTINUOUS
 70
64
  3
____________________________________________
 72
65
 73
0
 40
0.0
  0
LTYPE
  2
HIDDEN
 70
64
  3
__ __ __ __ __ __ __ __ __ __ __ __ __ __ __
 72
65
 73
2
 40
0.50
 49
0.30
 49
-0.20
  0
LTYPE
  2
DASHDOT
 70
64
  3
____ _ ____ _ ____ _ ____ _ ____ _ ____ _ __
 72
65
 73
4
 40
2.0
 49
1.5
 49
-0.25
 49
0
 49
-0.25
  0
LTYPE
  2
DOT
 70
64
  3
............................................
 72
65
 73
2
 40
0.30
 49
0
 49
-0.30
  0
ENDTAB
  0
TABLE
  2
LAYER
 70
23
  0
LAYER
  2
UNTERSCHRIFT
 70
64
 62
7
  6
CONTINUOUS
  0
LAYER
  2
TEILE
 70
64
 62
7
  6
CONTINUOUS
  0
LAYER
  2
REST
 70
64
 62
7
  6
CONTINUOUS
  0
LAYER
  2
MARKERPUNKTE
 70
64
 62
7
  6
CONTINUOUS
  0
LAYER
  2
HILFSPUNKTE
 70
64
 62
7
  6
CONTINUOUS
  0
LAYER
  2
PICKPUNKTE
 70
64
 62
7
  6
CONTINUOUS
  0
LAYER
  2
SCHRAUBEN
 70
64
 62
7
  6
CONTINUOUS
  0
LAYER
  2
SCHWEISSEN
 70
64
 62
7
  6
CONTINUOUS
  0
LAYER
  2
GRAFIK
 70
64
 62
7
  6
CONTINUOUS
  0
LAYER
  2
BEM_FREI
 70
64
 62
7
  6
CONTINUOUS
  0
LAYER
  2
BEM_SYSTEM
 70
64
 62
7
  6
CONTINUOUS
  0
LAYER
  2
BEM_KONTUR
 70
64
 62
7
  6
CONTINUOUS
  0
LAYER
  2
BEM_ANBAU
 70
64
 62
7
  6
CONTINUOUS
  0
LAYER
  2
BEM_SCHRAUBEN
 70
64
 62
7
  6
CONTINUOUS
  0
LAYER
  2
BEM_SCHWEISSEN
 70
64
 62
7
  6
CONTINUOUS
  0
LAYER
  2
FREIER_TEXT
 70
64
 62
7
  6
CONTINUOUS
  0
LAYER
  2
BEZ_TEILE
 70
64
 62
7
  6
CONTINUOUS
  0
LAYER
  2
BEZ_SCHRAUBEN
 70
64
 62
7
  6
CONTINUOUS
  0
LAYER
  2
BEZ_SCHWEISSEN
 70
64
 62
7
  6
CONTINUOUS
  0
LAYER
  2
SCHRAFFUREN
 70
64
 62
7
  6
CONTINUOUS
  0
LAYER
  2
SCHNITTSYMBOL
 70
64
 62
7
  6
CONTINUOUS
  0
LAYER
  2
RASTER
 70
64
 62
7
  6
CONTINUOUS
  0
LAYER
  2
LISTEN
 70
64
 62
7
  6
CONTINUOUS
  0
LAYER
  2
RAHMEN
 70
64
 62
7
  6
CONTINUOUS
  0
ENDTAB
  0
TABLE
  2
STYLE
 70
1
  0
STYLE
  2
STANDARD
 70
64
 40
0
 41
1
 50
0.0
 71
0
 42
0.35
  3
ROMANS
  0
ENDTAB
  0
ENDSEC
  0
SECTION
  2
ENTITIES
  0
TEXT
 8
UNTERSCHRIFT
 62
2
 10
5.250000
 20
-62.999992
 40
3.250000
 50
89.999931
 41
0.800000
 51
15.000000
  1
Project  DP0GN9  ,Qty. 3  , Pos. 
  0
TEXT
 8
UNTERSCHRIFT
 62
2
 10
5.250000
 20
35.800007
 40
3.250000
 50
89.999931
 41
0.800000
 51
15.000000
  1
  , Profi l PL449*15
  0
TEXT
 8
UNTERSCHRIFT
 62
2
 10
5.250000
 20
22.800007
 40
3.250000
 50
89.999931
 41
0.800000
 51
15.000000
  1
30203
  0
LINE
  8
TEILE
 62
2
 10
119.999985
 20
224.496521
 11
349.999725
 21
-174.496552
  0
LINE
  8
TEILE
 62
2
 10
349.999725
 20
-174.496552
 11
350.000000
 21
-224.496521
  0
LINE
  8
TEILE
 62
2
 10
350.000000
 20
-224.496521
 11
30.000000
 21
-224.496521
  0
LINE
  8
TEILE
 62
2
 10
30.000000
 20
-224.496521
 11
29.958897
 21
-222.926453
  0
LINE
  8
TEILE
 62
2
 10
29.958897
 20
-222.926453
 11
29.835667
 21
-221.360657
  0
LINE
  8
TEILE
 62
2
 10
29.835667
 20
-221.360657
 11
29.630661
 21
-219.803482
  0
LINE
  8
TEILE
 62
2
 10
29.630661
 20
-219.803482
 11
29.344440
 21
-218.259155
  0
LINE
  8
TEILE
 62
2
 10
29.344440
 20
-218.259155
 11
28.977785
 21
-216.731949
  0
LINE
  8
TEILE
 62
2
 10
28.977785
 20
-216.731949
 11
28.531706
 21
-215.225998
  0
LINE
  8
TEILE
 62
2
 10
28.531706
 20
-215.225998
 11
28.007423
 21
-213.745483
  0
LINE
  8
TEILE
 62
2
 10
28.007423
 20
-213.745483
 11
27.406372
 21
-212.294403
  0
LINE
  8
TEILE
 62
2
 10
27.406372
 20
-212.294403
 11
26.730204
 21
-210.876801
  0
LINE
  8
TEILE
 62
2
 10
26.730204
 20
-210.876801
 11
25.980770
 21
-209.496521
  0
LINE
  8
TEILE
 62
2
 10
25.980770
 20
-209.496521
 11
25.160124
 21
-208.157349
  0
LINE
  8
TEILE
 62
2
 10
25.160124
 20
-208.157349
 11
24.270517
 21
-206.862961
  0
LINE
  8
TEILE
 62
2
 10
24.270517
 20
-206.862961
 11
23.314388
 21
-205.616913
  0
LINE
  8
TEILE
 62
2
 10
23.314388
 20
-205.616913
 11
22.294352
 21
-204.422607
  0
LINE
  8
TEILE
 62
2
 10
22.294352
 20
-204.422607
 11
21.213211
 21
-203.283310
  0
LINE
  8
TEILE
 62
2
 10
21.213211
 20
-203.283310
 11
20.073927
 21
-202.202164
  0
LINE
  8
TEILE
 62
2
 10
20.073927
 20
-202.202164
 11
18.879620
 21
-201.182129
  0
LINE
  8
TEILE
 62
2
 10
18.879620
 20
-201.182129
 11
17.633566
 21
-200.225998
  0
LINE
  8
TEILE
 62
2
 10
17.633566
 20
-200.225998
 11
16.339180
 21
-199.336395
  0
LINE
  8
TEILE
 62
2
 10
16.339180
 20
-199.336395
 11
15.000009
 21
-198.515762
  0
LINE
  8
TEILE
 62
2
 10
15.000009
 20
-198.515762
 11
13.619723
 21
-197.766327
  0
LINE
  8
TEILE
 62
2
 10
13.619723
 20
-197.766327
 11
12.202106
 21
-197.090149
  0
LINE
  8
TEILE
 62
2
 10
12.202106
 20
-197.090149
 11
10.751045
 21
-196.489105
  0
LINE
  8
TEILE
 62
2
 10
10.751045
 20
-196.489105
 11
9.270514
 21
-195.964828
  0
LINE
  8
TEILE
 62
2
 10
9.270514
 20
-195.964828
 11
7.764574
 21
-195.518738
  0
LINE
  8
TEILE
 62
2
 10
7.764574
 20
-195.518738
 11
6.237352
 21
-195.152100
  0
LINE
  8
TEILE
 62
2
 10
6.237352
 20
-195.152100
 11
4.693034
 21
-194.865875
  0
LINE
  8
TEILE
 62
2
 10
4.693034
 20
-194.865875
 11
3.135852
 21
-194.660873
  0
LINE
  8
TEILE
 62
2
 10
3.135852
 20
-194.660873
 11
1.570076
 21
-194.537643
  0
LINE
  8
TEILE
 62
2
 10
1.570076
 20
-194.537643
 11
-0.000004
 21
-194.496536
  0
LINE
  8
TEILE
 62
2
 10
-0.000004
 20
-194.496536
 11
0.000000
 21
-194.496521
  0
LINE
  8
TEILE
 62
2
 10
0.000000
 20
-194.496521
 11
0.000000
 21
224.496521
  0
LINE
  8
TEILE
 62
2
 10
0.000000
 20
224.496521
 11
119.999985
 21
224.496521
  0
ENDSEC
  0
EOF

