999
     *******************************************
999
     BOCAD Software GmbH   Rev.18.000   0202.22
999
     Filename:   c:\progetti21\danieli_aqs\b4\temp_11\30214.dxf
999
     Creator:    bocad
999
     Date:       20.01.2016
999
     Factor:     10.000000
999
     *******************************************
  0
SECTION
  2
HEADER
  9
$DWGCODEPAGE
  3
ANSI_1252
  9
$INSBASE
 10
0.0
 20
0.0
 30
0.0
  9
$EXTMIN
 10
-0.500012
 20
-162.499294
  9
$EXTMAX
 10
350.499992
 20
162.499294
  9
$LIMMIN
 10
-1.500012
 20
-163.499294
  9
$LIMMAX
 10
351.499992
 20
163.499294
  9
$LTSCALE
 40
10.000000
  0
ENDSEC
  0
SECTION
  2
TABLES
  0
TABLE
  2
LTYPE
 70
4
  0
LTYPE
  2
CONTINUOUS
 70
64
  3
____________________________________________
 72
65
 73
0
 40
0.0
  0
LTYPE
  2
HIDDEN
 70
64
  3
__ __ __ __ __ __ __ __ __ __ __ __ __ __ __
 72
65
 73
2
 40
0.50
 49
0.30
 49
-0.20
  0
LTYPE
  2
DASHDOT
 70
64
  3
____ _ ____ _ ____ _ ____ _ ____ _ ____ _ __
 72
65
 73
4
 40
2.0
 49
1.5
 49
-0.25
 49
0
 49
-0.25
  0
LTYPE
  2
DOT
 70
64
  3
............................................
 72
65
 73
2
 40
0.30
 49
0
 49
-0.30
  0
ENDTAB
  0
TABLE
  2
LAYER
 70
23
  0
LAYER
  2
UNTERSCHRIFT
 70
64
 62
7
  6
CONTINUOUS
  0
LAYER
  2
TEILE
 70
64
 62
7
  6
CONTINUOUS
  0
LAYER
  2
REST
 70
64
 62
7
  6
CONTINUOUS
  0
LAYER
  2
MARKERPUNKTE
 70
64
 62
7
  6
CONTINUOUS
  0
LAYER
  2
HILFSPUNKTE
 70
64
 62
7
  6
CONTINUOUS
  0
LAYER
  2
PICKPUNKTE
 70
64
 62
7
  6
CONTINUOUS
  0
LAYER
  2
SCHRAUBEN
 70
64
 62
7
  6
CONTINUOUS
  0
LAYER
  2
SCHWEISSEN
 70
64
 62
7
  6
CONTINUOUS
  0
LAYER
  2
GRAFIK
 70
64
 62
7
  6
CONTINUOUS
  0
LAYER
  2
BEM_FREI
 70
64
 62
7
  6
CONTINUOUS
  0
LAYER
  2
BEM_SYSTEM
 70
64
 62
7
  6
CONTINUOUS
  0
LAYER
  2
BEM_KONTUR
 70
64
 62
7
  6
CONTINUOUS
  0
LAYER
  2
BEM_ANBAU
 70
64
 62
7
  6
CONTINUOUS
  0
LAYER
  2
BEM_SCHRAUBEN
 70
64
 62
7
  6
CONTINUOUS
  0
LAYER
  2
BEM_SCHWEISSEN
 70
64
 62
7
  6
CONTINUOUS
  0
LAYER
  2
FREIER_TEXT
 70
64
 62
7
  6
CONTINUOUS
  0
LAYER
  2
BEZ_TEILE
 70
64
 62
7
  6
CONTINUOUS
  0
LAYER
  2
BEZ_SCHRAUBEN
 70
64
 62
7
  6
CONTINUOUS
  0
LAYER
  2
BEZ_SCHWEISSEN
 70
64
 62
7
  6
CONTINUOUS
  0
LAYER
  2
SCHRAFFUREN
 70
64
 62
7
  6
CONTINUOUS
  0
LAYER
  2
SCHNITTSYMBOL
 70
64
 62
7
  6
CONTINUOUS
  0
LAYER
  2
RASTER
 70
64
 62
7
  6
CONTINUOUS
  0
LAYER
  2
LISTEN
 70
64
 62
7
  6
CONTINUOUS
  0
LAYER
  2
RAHMEN
 70
64
 62
7
  6
CONTINUOUS
  0
ENDTAB
  0
TABLE
  2
STYLE
 70
1
  0
STYLE
  2
STANDARD
 70
64
 40
0
 41
1
 50
0.0
 71
0
 42
0.35
  3
ROMANS
  0
ENDTAB
  0
ENDSEC
  0
SECTION
  2
ENTITIES
  0
TEXT
 8
UNTERSCHRIFT
 62
2
 10
5.250000
 20
-63.000000
 40
3.250000
 50
89.999931
 41
0.800000
 51
15.000000
  1
Project  DP0GN9  ,Qty. 2  , Pos. 
  0
TEXT
 8
UNTERSCHRIFT
 62
2
 10
5.250000
 20
35.799995
 40
3.250000
 50
89.999931
 41
0.800000
 51
15.000000
  1
  , Profi l PL324*15
  0
TEXT
 8
UNTERSCHRIFT
 62
2
 10
5.250000
 20
22.799997
 40
3.250000
 50
89.999931
 41
0.800000
 51
15.000000
  1
30214
  0
LINE
  8
TEILE
 62
2
 10
49.999985
 20
161.999298
 11
349.999725
 21
-111.999321
  0
LINE
  8
TEILE
 62
2
 10
349.999725
 20
-111.999321
 11
350.000000
 21
-161.999298
  0
LINE
  8
TEILE
 62
2
 10
350.000000
 20
-161.999298
 11
30.000000
 21
-161.999298
  0
LINE
  8
TEILE
 62
2
 10
30.000000
 20
-161.999298
 11
29.958885
 21
-160.429230
  0
LINE
  8
TEILE
 62
2
 10
29.958885
 20
-160.429230
 11
29.835659
 21
-158.863449
  0
LINE
  8
TEILE
 62
2
 10
29.835659
 20
-158.863449
 11
29.630651
 21
-157.306274
  0
LINE
  8
TEILE
 62
2
 10
29.630651
 20
-157.306274
 11
29.344429
 21
-155.761948
  0
LINE
  8
TEILE
 62
2
 10
29.344429
 20
-155.761948
 11
28.977777
 21
-154.234726
  0
LINE
  8
TEILE
 62
2
 10
28.977777
 20
-154.234726
 11
28.531700
 21
-152.728790
  0
LINE
  8
TEILE
 62
2
 10
28.531700
 20
-152.728790
 11
28.007416
 21
-151.248260
  0
LINE
  8
TEILE
 62
2
 10
28.007416
 20
-151.248260
 11
27.406368
 21
-149.797195
  0
LINE
  8
TEILE
 62
2
 10
27.406368
 20
-149.797195
 11
26.730202
 21
-148.379578
  0
LINE
  8
TEILE
 62
2
 10
26.730202
 20
-148.379578
 11
25.980766
 21
-146.999298
  0
LINE
  8
TEILE
 62
2
 10
25.980766
 20
-146.999298
 11
25.160122
 21
-145.660126
  0
LINE
  8
TEILE
 62
2
 10
25.160122
 20
-145.660126
 11
24.270515
 21
-144.365738
  0
LINE
  8
TEILE
 62
2
 10
24.270515
 20
-144.365738
 11
23.314383
 21
-143.119690
  0
LINE
  8
TEILE
 62
2
 10
23.314383
 20
-143.119690
 11
22.294348
 21
-141.925369
  0
LINE
  8
TEILE
 62
2
 10
22.294348
 20
-141.925369
 11
21.213207
 21
-140.786102
  0
LINE
  8
TEILE
 62
2
 10
21.213207
 20
-140.786102
 11
20.073919
 21
-139.704956
  0
LINE
  8
TEILE
 62
2
 10
20.073919
 20
-139.704956
 11
18.879612
 21
-138.684906
  0
LINE
  8
TEILE
 62
2
 10
18.879612
 20
-138.684906
 11
17.633558
 21
-137.728790
  0
LINE
  8
TEILE
 62
2
 10
17.633558
 20
-137.728790
 11
16.339170
 21
-136.839172
  0
LINE
  8
TEILE
 62
2
 10
16.339170
 20
-136.839172
 11
14.999999
 21
-136.018539
  0
LINE
  8
TEILE
 62
2
 10
14.999999
 20
-136.018539
 11
13.619713
 21
-135.269104
  0
LINE
  8
TEILE
 62
2
 10
13.619713
 20
-135.269104
 11
12.202096
 21
-134.592926
  0
LINE
  8
TEILE
 62
2
 10
12.202096
 20
-134.592926
 11
10.751034
 21
-133.991882
  0
LINE
  8
TEILE
 62
2
 10
10.751034
 20
-133.991882
 11
9.270504
 21
-133.467590
  0
LINE
  8
TEILE
 62
2
 10
9.270504
 20
-133.467590
 11
7.764565
 21
-133.021515
  0
LINE
  8
TEILE
 62
2
 10
7.764565
 20
-133.021515
 11
6.237343
 21
-132.654861
  0
LINE
  8
TEILE
 62
2
 10
6.237343
 20
-132.654861
 11
4.693025
 21
-132.368652
  0
LINE
  8
TEILE
 62
2
 10
4.693025
 20
-132.368652
 11
3.135844
 21
-132.163635
  0
LINE
  8
TEILE
 62
2
 10
3.135844
 20
-132.163635
 11
1.570068
 21
-132.040421
  0
LINE
  8
TEILE
 62
2
 10
1.570068
 20
-132.040421
 11
-0.000012
 21
-131.999298
  0
LINE
  8
TEILE
 62
2
 10
-0.000012
 20
-131.999298
 11
0.000000
 21
-131.999298
  0
LINE
  8
TEILE
 62
2
 10
0.000000
 20
-131.999298
 11
0.000000
 21
161.999283
  0
LINE
  8
TEILE
 62
2
 10
0.000000
 20
161.999283
 11
49.999985
 21
161.999298
  0
ENDSEC
  0
EOF

