999
     *******************************************
999
     BOCAD Software GmbH   Rev.18.000   0202.22
999
     Filename:   c:\progetti21\danieli_aqs\b4\temp_11\30215.dxf
999
     Creator:    bocad
999
     Date:       20.01.2016
999
     Factor:     10.000000
999
     *******************************************
  0
SECTION
  2
HEADER
  9
$DWGCODEPAGE
  3
ANSI_1252
  9
$INSBASE
 10
0.0
 20
0.0
 30
0.0
  9
$EXTMIN
 10
-0.500019
 20
-150.500002
  9
$EXTMAX
 10
180.516911
 20
150.500002
  9
$LIMMIN
 10
-1.500019
 20
-151.500002
  9
$LIMMAX
 10
181.516911
 20
151.500002
  9
$LTSCALE
 40
10.000000
  0
ENDSEC
  0
SECTION
  2
TABLES
  0
TABLE
  2
LTYPE
 70
4
  0
LTYPE
  2
CONTINUOUS
 70
64
  3
____________________________________________
 72
65
 73
0
 40
0.0
  0
LTYPE
  2
HIDDEN
 70
64
  3
__ __ __ __ __ __ __ __ __ __ __ __ __ __ __
 72
65
 73
2
 40
0.50
 49
0.30
 49
-0.20
  0
LTYPE
  2
DASHDOT
 70
64
  3
____ _ ____ _ ____ _ ____ _ ____ _ ____ _ __
 72
65
 73
4
 40
2.0
 49
1.5
 49
-0.25
 49
0
 49
-0.25
  0
LTYPE
  2
DOT
 70
64
  3
............................................
 72
65
 73
2
 40
0.30
 49
0
 49
-0.30
  0
ENDTAB
  0
TABLE
  2
LAYER
 70
23
  0
LAYER
  2
UNTERSCHRIFT
 70
64
 62
7
  6
CONTINUOUS
  0
LAYER
  2
TEILE
 70
64
 62
7
  6
CONTINUOUS
  0
LAYER
  2
REST
 70
64
 62
7
  6
CONTINUOUS
  0
LAYER
  2
MARKERPUNKTE
 70
64
 62
7
  6
CONTINUOUS
  0
LAYER
  2
HILFSPUNKTE
 70
64
 62
7
  6
CONTINUOUS
  0
LAYER
  2
PICKPUNKTE
 70
64
 62
7
  6
CONTINUOUS
  0
LAYER
  2
SCHRAUBEN
 70
64
 62
7
  6
CONTINUOUS
  0
LAYER
  2
SCHWEISSEN
 70
64
 62
7
  6
CONTINUOUS
  0
LAYER
  2
GRAFIK
 70
64
 62
7
  6
CONTINUOUS
  0
LAYER
  2
BEM_FREI
 70
64
 62
7
  6
CONTINUOUS
  0
LAYER
  2
BEM_SYSTEM
 70
64
 62
7
  6
CONTINUOUS
  0
LAYER
  2
BEM_KONTUR
 70
64
 62
7
  6
CONTINUOUS
  0
LAYER
  2
BEM_ANBAU
 70
64
 62
7
  6
CONTINUOUS
  0
LAYER
  2
BEM_SCHRAUBEN
 70
64
 62
7
  6
CONTINUOUS
  0
LAYER
  2
BEM_SCHWEISSEN
 70
64
 62
7
  6
CONTINUOUS
  0
LAYER
  2
FREIER_TEXT
 70
64
 62
7
  6
CONTINUOUS
  0
LAYER
  2
BEZ_TEILE
 70
64
 62
7
  6
CONTINUOUS
  0
LAYER
  2
BEZ_SCHRAUBEN
 70
64
 62
7
  6
CONTINUOUS
  0
LAYER
  2
BEZ_SCHWEISSEN
 70
64
 62
7
  6
CONTINUOUS
  0
LAYER
  2
SCHRAFFUREN
 70
64
 62
7
  6
CONTINUOUS
  0
LAYER
  2
SCHNITTSYMBOL
 70
64
 62
7
  6
CONTINUOUS
  0
LAYER
  2
RASTER
 70
64
 62
7
  6
CONTINUOUS
  0
LAYER
  2
LISTEN
 70
64
 62
7
  6
CONTINUOUS
  0
LAYER
  2
RAHMEN
 70
64
 62
7
  6
CONTINUOUS
  0
ENDTAB
  0
TABLE
  2
STYLE
 70
1
  0
STYLE
  2
STANDARD
 70
64
 40
0
 41
1
 50
0.0
 71
0
 42
0.35
  3
ROMANS
  0
ENDTAB
  0
ENDSEC
  0
SECTION
  2
ENTITIES
  0
TEXT
 8
UNTERSCHRIFT
 62
2
 10
67.385254
 20
113.624542
 40
3.249999
 50
-56.972752
 41
0.800000
 51
15.000000
  1
Project  DP0GN9  ,Qty. 20  , Pos. 
  0
TEXT
 8
UNTERSCHRIFT
 62
2
 10
122.652130
 20
28.609648
 40
3.250000
 50
-56.972782
 41
0.800000
 51
15.000000
  1
  , Profi l PL300*20
  0
TEXT
 8
UNTERSCHRIFT
 62
2
 10
115.566635
 20
39.508995
 40
3.249999
 50
-56.972782
 41
0.800000
 51
15.000000
  1
30215
  0
LINE
  8
TEILE
 62
2
 10
-0.000004
 20
-120.000000
 11
0.000004
 21
150.000000
  0
LINE
  8
TEILE
 62
2
 10
0.000004
 20
150.000000
 11
49.999969
 21
150.000000
  0
LINE
  8
TEILE
 62
2
 10
49.999969
 20
150.000000
 11
180.016922
 21
-50.000038
  0
LINE
  8
TEILE
 62
2
 10
180.016922
 20
-50.000038
 11
180.016922
 21
-150.000000
  0
LINE
  8
TEILE
 62
2
 10
180.016922
 20
-150.000000
 11
29.999998
 21
-150.000000
  0
LINE
  8
TEILE
 62
2
 10
29.999998
 20
-150.000000
 11
29.958889
 21
-148.429916
  0
LINE
  8
TEILE
 62
2
 10
29.958889
 20
-148.429916
 11
29.835661
 21
-146.864151
  0
LINE
  8
TEILE
 62
2
 10
29.835661
 20
-146.864151
 11
29.630653
 21
-145.306976
  0
LINE
  8
TEILE
 62
2
 10
29.630653
 20
-145.306976
 11
29.344433
 21
-143.762650
  0
LINE
  8
TEILE
 62
2
 10
29.344433
 20
-143.762650
 11
28.977777
 21
-142.235428
  0
LINE
  8
TEILE
 62
2
 10
28.977777
 20
-142.235428
 11
28.531700
 21
-140.729492
  0
LINE
  8
TEILE
 62
2
 10
28.531700
 20
-140.729492
 11
28.007416
 21
-139.248962
  0
LINE
  8
TEILE
 62
2
 10
28.007416
 20
-139.248962
 11
27.406368
 21
-137.797897
  0
LINE
  8
TEILE
 62
2
 10
27.406368
 20
-137.797897
 11
26.730198
 21
-136.380280
  0
LINE
  8
TEILE
 62
2
 10
26.730198
 20
-136.380280
 11
25.980766
 21
-135.000000
  0
LINE
  8
TEILE
 62
2
 10
25.980766
 20
-135.000000
 11
25.160122
 21
-133.660828
  0
LINE
  8
TEILE
 62
2
 10
25.160122
 20
-133.660828
 11
24.270514
 21
-132.366440
  0
LINE
  8
TEILE
 62
2
 10
24.270514
 20
-132.366440
 11
23.314381
 21
-131.120392
  0
LINE
  8
TEILE
 62
2
 10
23.314381
 20
-131.120392
 11
22.294348
 21
-129.926086
  0
LINE
  8
TEILE
 62
2
 10
22.294348
 20
-129.926086
 11
21.213205
 21
-128.786789
  0
LINE
  8
TEILE
 62
2
 10
21.213205
 20
-128.786789
 11
20.073917
 21
-127.705650
  0
LINE
  8
TEILE
 62
2
 10
20.073917
 20
-127.705650
 11
18.879610
 21
-126.685623
  0
LINE
  8
TEILE
 62
2
 10
18.879610
 20
-126.685623
 11
17.633554
 21
-125.729485
  0
LINE
  8
TEILE
 62
2
 10
17.633554
 20
-125.729485
 11
16.339167
 21
-124.839874
  0
LINE
  8
TEILE
 62
2
 10
16.339167
 20
-124.839874
 11
14.999994
 21
-124.019234
  0
LINE
  8
TEILE
 62
2
 10
14.999994
 20
-124.019234
 11
13.619708
 21
-123.269798
  0
LINE
  8
TEILE
 62
2
 10
13.619708
 20
-123.269798
 11
12.202090
 21
-122.593628
  0
LINE
  8
TEILE
 62
2
 10
12.202090
 20
-122.593628
 11
10.751028
 21
-121.992577
  0
LINE
  8
TEILE
 62
2
 10
10.751028
 20
-121.992577
 11
9.270498
 21
-121.468292
  0
LINE
  8
TEILE
 62
2
 10
9.270498
 20
-121.468292
 11
7.764558
 21
-121.022224
  0
LINE
  8
TEILE
 62
2
 10
7.764558
 20
-121.022224
 11
6.237336
 21
-120.655579
  0
LINE
  8
TEILE
 62
2
 10
6.237336
 20
-120.655579
 11
4.693018
 21
-120.369347
  0
LINE
  8
TEILE
 62
2
 10
4.693018
 20
-120.369347
 11
3.135837
 21
-120.164345
  0
LINE
  8
TEILE
 62
2
 10
3.135837
 20
-120.164345
 11
1.570060
 21
-120.041115
  0
LINE
  8
TEILE
 62
2
 10
1.570060
 20
-120.041115
 11
-0.000019
 21
-120.000008
  0
LINE
  8
TEILE
 62
2
 10
-0.000019
 20
-120.000008
 11
-0.000004
 21
-120.000000
  0
ENDSEC
  0
EOF

