999
     *******************************************
999
     BOCAD Software GmbH   Rev.18.000   0202.22
999
     Filename:   c:\progetti21\danieli_aqs\b4\temp_11\30218.dxf
999
     Creator:    bocad
999
     Date:       20.01.2016
999
     Factor:     10.000000
999
     *******************************************
  0
SECTION
  2
HEADER
  9
$DWGCODEPAGE
  3
ANSI_1252
  9
$INSBASE
 10
0.0
 20
0.0
 30
0.0
  9
$EXTMIN
 10
-0.500000
 20
-149.281330
  9
$EXTMAX
 10
907.379684
 20
149.281330
  9
$LIMMIN
 10
-1.500000
 20
-150.281330
  9
$LIMMAX
 10
908.379684
 20
150.281330
  9
$LTSCALE
 40
10.000000
  0
ENDSEC
  0
SECTION
  2
TABLES
  0
TABLE
  2
LTYPE
 70
4
  0
LTYPE
  2
CONTINUOUS
 70
64
  3
____________________________________________
 72
65
 73
0
 40
0.0
  0
LTYPE
  2
HIDDEN
 70
64
  3
__ __ __ __ __ __ __ __ __ __ __ __ __ __ __
 72
65
 73
2
 40
0.50
 49
0.30
 49
-0.20
  0
LTYPE
  2
DASHDOT
 70
64
  3
____ _ ____ _ ____ _ ____ _ ____ _ ____ _ __
 72
65
 73
4
 40
2.0
 49
1.5
 49
-0.25
 49
0
 49
-0.25
  0
LTYPE
  2
DOT
 70
64
  3
............................................
 72
65
 73
2
 40
0.30
 49
0
 49
-0.30
  0
ENDTAB
  0
TABLE
  2
LAYER
 70
23
  0
LAYER
  2
SCHRAUBEN
 70
64
 62
7
  6
CONTINUOUS
  0
LAYER
  2
REST
 70
64
 62
7
  6
CONTINUOUS
  0
LAYER
  2
UNTERSCHRIFT
 70
64
 62
7
  6
CONTINUOUS
  0
LAYER
  2
TEILE
 70
64
 62
7
  6
CONTINUOUS
  0
LAYER
  2
BEZ_SCHRAUBEN
 70
64
 62
7
  6
CONTINUOUS
  0
LAYER
  2
MARKERPUNKTE
 70
64
 62
7
  6
CONTINUOUS
  0
LAYER
  2
HILFSPUNKTE
 70
64
 62
7
  6
CONTINUOUS
  0
LAYER
  2
PICKPUNKTE
 70
64
 62
7
  6
CONTINUOUS
  0
LAYER
  2
SCHWEISSEN
 70
64
 62
7
  6
CONTINUOUS
  0
LAYER
  2
GRAFIK
 70
64
 62
7
  6
CONTINUOUS
  0
LAYER
  2
BEM_FREI
 70
64
 62
7
  6
CONTINUOUS
  0
LAYER
  2
BEM_SYSTEM
 70
64
 62
7
  6
CONTINUOUS
  0
LAYER
  2
BEM_KONTUR
 70
64
 62
7
  6
CONTINUOUS
  0
LAYER
  2
BEM_ANBAU
 70
64
 62
7
  6
CONTINUOUS
  0
LAYER
  2
BEM_SCHRAUBEN
 70
64
 62
7
  6
CONTINUOUS
  0
LAYER
  2
BEM_SCHWEISSEN
 70
64
 62
7
  6
CONTINUOUS
  0
LAYER
  2
FREIER_TEXT
 70
64
 62
7
  6
CONTINUOUS
  0
LAYER
  2
BEZ_TEILE
 70
64
 62
7
  6
CONTINUOUS
  0
LAYER
  2
BEZ_SCHWEISSEN
 70
64
 62
7
  6
CONTINUOUS
  0
LAYER
  2
SCHRAFFUREN
 70
64
 62
7
  6
CONTINUOUS
  0
LAYER
  2
SCHNITTSYMBOL
 70
64
 62
7
  6
CONTINUOUS
  0
LAYER
  2
RASTER
 70
64
 62
7
  6
CONTINUOUS
  0
LAYER
  2
LISTEN
 70
64
 62
7
  6
CONTINUOUS
  0
LAYER
  2
RAHMEN
 70
64
 62
7
  6
CONTINUOUS
  0
ENDTAB
  0
TABLE
  2
STYLE
 70
1
  0
STYLE
  2
STANDARD
 70
64
 40
0
 41
1
 50
0.0
 71
0
 42
0.35
  3
ROMANS
  0
ENDTAB
  0
ENDSEC
  0
SECTION
  2
ENTITIES
  0
LINE
  8
SCHRAUBEN
 62
6
 10
193.214844
 20
-46.317612
 11
181.614838
 21
-57.917610
  0
LINE
  8
SCHRAUBEN
 62
6
 10
181.614838
 20
-46.317612
 11
193.214844
 21
-57.917610
  0
CIRCLE
  8
SCHRAUBEN
 62
2
 10
187.414841
 20
-52.117611
 40
14.500000
  0
LINE
  8
SCHRAUBEN
 62
6
 10
136.467575
 20
16.965487
 11
124.867584
 21
5.365486
  0
LINE
  8
SCHRAUBEN
 62
6
 10
124.867584
 20
16.965487
 11
136.467575
 21
5.365486
  0
CIRCLE
  8
SCHRAUBEN
 62
2
 10
130.667587
 20
11.165486
 40
14.499985
  0
LINE
  8
SCHRAUBEN
 62
6
 10
79.720337
 20
80.248581
 11
68.120338
 21
68.648582
  0
LINE
  8
SCHRAUBEN
 62
6
 10
68.120338
 20
80.248581
 11
79.720337
 21
68.648582
  0
CIRCLE
  8
SCHRAUBEN
 62
2
 10
73.920334
 20
74.448578
 40
14.500000
  0
LINE
  8
SCHRAUBEN
 62
6
 10
457.840393
 20
-24.381325
 11
449.040405
 21
-33.181328
  0
LINE
  8
SCHRAUBEN
 62
6
 10
449.040405
 20
-24.381325
 11
457.840393
 21
-33.181328
  0
CIRCLE
  8
SCHRAUBEN
 62
2
 10
453.440399
 20
-28.781326
 40
10.999969
  0
LINE
  8
SCHRAUBEN
 62
6
 10
457.840332
 20
-84.381332
 11
449.040375
 21
-93.181320
  0
LINE
  8
SCHRAUBEN
 62
6
 10
449.040375
 20
-84.381332
 11
457.840332
 21
-93.181320
  0
CIRCLE
  8
SCHRAUBEN
 62
2
 10
453.440369
 20
-88.781326
 40
10.999969
  0
LINE
  8
SCHRAUBEN
 62
6
 10
838.760437
 20
80.248581
 11
827.160400
 21
68.648590
  0
LINE
  8
SCHRAUBEN
 62
6
 10
827.160400
 20
80.248581
 11
838.760437
 21
68.648590
  0
CIRCLE
  8
SCHRAUBEN
 62
2
 10
832.960449
 20
74.448586
 40
14.499939
  0
LINE
  8
SCHRAUBEN
 62
6
 10
782.013184
 20
16.965502
 11
770.413147
 21
5.365501
  0
LINE
  8
SCHRAUBEN
 62
6
 10
770.413147
 20
16.965502
 11
782.013184
 21
5.365501
  0
CIRCLE
  8
SCHRAUBEN
 62
2
 10
776.213135
 20
11.165503
 40
14.500000
  0
LINE
  8
SCHRAUBEN
 62
6
 10
725.265991
 20
-46.317581
 11
713.665894
 21
-57.917580
  0
LINE
  8
SCHRAUBEN
 62
6
 10
713.665894
 20
-46.317581
 11
725.265991
 21
-57.917580
  0
CIRCLE
  8
SCHRAUBEN
 62
2
 10
719.465942
 20
-52.117580
 40
14.500000
  0
TEXT
 8
UNTERSCHRIFT
 62
2
 10
374.140991
 20
-146.779953
 40
3.250000
 41
0.800000
 51
15.000000
  1
Project  DP0GN9  ,Qty. 24  , Pos. 
  0
TEXT
 8
UNTERSCHRIFT
 62
2
 10
475.541016
 20
-146.779480
 40
3.250000
 41
0.800000
 51
15.000000
  1
  , Profi l PL298*16
  0
TEXT
 8
UNTERSCHRIFT
 62
2
 10
462.541016
 20
-146.779541
 40
3.250000
 41
0.800000
 51
15.000000
  1
30218
  0
LINE
  8
TEILE
 62
2
 10
84.352875
 20
-148.781326
 11
0.000000
 21
81.950485
  0
LINE
  8
TEILE
 62
2
 10
0.000000
 20
81.950485
 11
74.433456
 21
148.780991
  0
LINE
  8
TEILE
 62
2
 10
74.433456
 20
148.780991
 11
419.319458
 21
23.601967
  0
LINE
  8
TEILE
 62
2
 10
419.319458
 20
23.601967
 11
421.439362
 21
22.859367
  0
LINE
  8
TEILE
 62
2
 10
421.439362
 20
22.859367
 11
423.575409
 21
22.164574
  0
LINE
  8
TEILE
 62
2
 10
423.575409
 20
22.164574
 11
425.726501
 21
21.517929
  0
LINE
  8
TEILE
 62
2
 10
425.726501
 20
21.517929
 11
427.891602
 21
20.919765
  0
LINE
  8
TEILE
 62
2
 10
427.891602
 20
20.919765
 11
430.069580
 21
20.370384
  0
LINE
  8
TEILE
 62
2
 10
430.069580
 20
20.370384
 11
432.259369
 21
19.870054
  0
LINE
  8
TEILE
 62
2
 10
432.259369
 20
19.870054
 11
434.459808
 21
19.419039
  0
LINE
  8
TEILE
 62
2
 10
434.459808
 20
19.419039
 11
436.669861
 21
19.017559
  0
LINE
  8
TEILE
 62
2
 10
436.669861
 20
19.017559
 11
438.888306
 21
18.665817
  0
LINE
  8
TEILE
 62
2
 10
438.888306
 20
18.665817
 11
441.114166
 21
18.363995
  0
LINE
  8
TEILE
 62
2
 10
441.114166
 20
18.363995
 11
443.346222
 21
18.112242
  0
LINE
  8
TEILE
 62
2
 10
443.346222
 20
18.112242
 11
445.583344
 21
17.910686
  0
LINE
  8
TEILE
 62
2
 10
445.583344
 20
17.910686
 11
447.824432
 21
17.759428
  0
LINE
  8
TEILE
 62
2
 10
447.824432
 20
17.759428
 11
450.068390
 21
17.658545
  0
LINE
  8
TEILE
 62
2
 10
450.068390
 20
17.658545
 11
452.314026
 21
17.608088
  0
LINE
  8
TEILE
 62
2
 10
452.314026
 20
17.608088
 11
454.560211
 21
17.608080
  0
LINE
  8
TEILE
 62
2
 10
454.560211
 20
17.608080
 11
456.805847
 21
17.658524
  0
LINE
  8
TEILE
 62
2
 10
456.805847
 20
17.658524
 11
459.049805
 21
17.759394
  0
LINE
  8
TEILE
 62
2
 10
459.049805
 20
17.759394
 11
461.290894
 21
17.910637
  0
LINE
  8
TEILE
 62
2
 10
461.290894
 20
17.910637
 11
463.528015
 21
18.112181
  0
LINE
  8
TEILE
 62
2
 10
463.528015
 20
18.112181
 11
465.760071
 21
18.363920
  0
LINE
  8
TEILE
 62
2
 10
465.760071
 20
18.363920
 11
467.985901
 21
18.665730
  0
LINE
  8
TEILE
 62
2
 10
467.985901
 20
18.665730
 11
470.204437
 21
19.017456
  0
LINE
  8
TEILE
 62
2
 10
470.204437
 20
19.017456
 11
472.414429
 21
19.418922
  0
LINE
  8
TEILE
 62
2
 10
472.414429
 20
19.418922
 11
474.614899
 21
19.869926
  0
LINE
  8
TEILE
 62
2
 10
474.614899
 20
19.869926
 11
476.804657
 21
20.370239
  0
LINE
  8
TEILE
 62
2
 10
476.804657
 20
20.370239
 11
478.982666
 21
20.919611
  0
LINE
  8
TEILE
 62
2
 10
478.982666
 20
20.919611
 11
481.147766
 21
21.517763
  0
LINE
  8
TEILE
 62
2
 10
481.147766
 20
21.517763
 11
483.298889
 21
22.164392
  0
LINE
  8
TEILE
 62
2
 10
483.298889
 20
22.164392
 11
485.434906
 21
22.859175
  0
LINE
  8
TEILE
 62
2
 10
485.434906
 20
22.859175
 11
487.554810
 21
23.601759
  0
LINE
  8
TEILE
 62
2
 10
487.554810
 20
23.601759
 11
487.554962
 21
23.601818
  0
LINE
  8
TEILE
 62
2
 10
487.554962
 20
23.601818
 11
832.446899
 21
148.781326
  0
LINE
  8
TEILE
 62
2
 10
832.446899
 20
148.781326
 11
906.879639
 21
81.947739
  0
LINE
  8
TEILE
 62
2
 10
906.879639
 20
81.947739
 11
822.529175
 21
-148.777832
  0
LINE
  8
TEILE
 62
2
 10
822.529175
 20
-148.777832
 11
84.352875
 21
-148.781326
  0
TEXT
 8
BEZ_SCHRAUBEN
 62
2
 10
179.414841
 20
-74.117607
 40
5.000000
 41
0.800000
 51
15.000000
  1
 ø29
  0
TEXT
 8
BEZ_SCHRAUBEN
 62
2
 10
122.667572
 20
-10.834514
 40
5.000000
 41
0.800000
 51
15.000000
  1
 ø29
  0
TEXT
 8
BEZ_SCHRAUBEN
 62
2
 10
65.920334
 20
52.448582
 40
5.000000
 41
0.800000
 51
15.000000
  1
 ø29
  0
TEXT
 8
BEZ_SCHRAUBEN
 62
2
 10
445.440399
 20
-47.281326
 40
5.000000
 41
0.800000
 51
15.000000
  1
 ø22
  0
TEXT
 8
BEZ_SCHRAUBEN
 62
2
 10
445.440369
 20
-107.281334
 40
5.000000
 41
0.800000
 51
15.000000
  1
 ø22
  0
TEXT
 8
BEZ_SCHRAUBEN
 62
2
 10
824.960388
 20
52.448586
 40
5.000000
 41
0.800000
 51
15.000000
  1
 ø29
  0
TEXT
 8
BEZ_SCHRAUBEN
 62
2
 10
768.213013
 20
-10.834498
 40
5.000000
 41
0.800000
 51
15.000000
  1
 ø29
  0
TEXT
 8
BEZ_SCHRAUBEN
 62
2
 10
711.465820
 20
-74.117577
 40
5.000000
 41
0.800000
 51
15.000000
  1
 ø29
  0
ENDSEC
  0
EOF

