999
     *******************************************
999
     BOCAD Software GmbH   Rev.18.000   0202.22
999
     Filename:   c:\progetti21\danieli_aqs\b4\temp_11\30219.dxf
999
     Creator:    bocad
999
     Date:       20.01.2016
999
     Factor:     10.000000
999
     *******************************************
  0
SECTION
  2
HEADER
  9
$DWGCODEPAGE
  3
ANSI_1252
  9
$INSBASE
 10
0.0
 20
0.0
 30
0.0
  9
$EXTMIN
 10
-0.500000
 20
-149.279318
  9
$EXTMAX
 10
428.964844
 20
149.279318
  9
$LIMMIN
 10
-1.500000
 20
-150.279318
  9
$LIMMAX
 10
429.964844
 20
150.279318
  9
$LTSCALE
 40
10.000000
  0
ENDSEC
  0
SECTION
  2
TABLES
  0
TABLE
  2
LTYPE
 70
4
  0
LTYPE
  2
CONTINUOUS
 70
64
  3
____________________________________________
 72
65
 73
0
 40
0.0
  0
LTYPE
  2
HIDDEN
 70
64
  3
__ __ __ __ __ __ __ __ __ __ __ __ __ __ __
 72
65
 73
2
 40
0.50
 49
0.30
 49
-0.20
  0
LTYPE
  2
DASHDOT
 70
64
  3
____ _ ____ _ ____ _ ____ _ ____ _ ____ _ __
 72
65
 73
4
 40
2.0
 49
1.5
 49
-0.25
 49
0
 49
-0.25
  0
LTYPE
  2
DOT
 70
64
  3
............................................
 72
65
 73
2
 40
0.30
 49
0
 49
-0.30
  0
ENDTAB
  0
TABLE
  2
LAYER
 70
23
  0
LAYER
  2
SCHRAUBEN
 70
64
 62
7
  6
CONTINUOUS
  0
LAYER
  2
REST
 70
64
 62
7
  6
CONTINUOUS
  0
LAYER
  2
UNTERSCHRIFT
 70
64
 62
7
  6
CONTINUOUS
  0
LAYER
  2
TEILE
 70
64
 62
7
  6
CONTINUOUS
  0
LAYER
  2
BEZ_SCHRAUBEN
 70
64
 62
7
  6
CONTINUOUS
  0
LAYER
  2
MARKERPUNKTE
 70
64
 62
7
  6
CONTINUOUS
  0
LAYER
  2
HILFSPUNKTE
 70
64
 62
7
  6
CONTINUOUS
  0
LAYER
  2
PICKPUNKTE
 70
64
 62
7
  6
CONTINUOUS
  0
LAYER
  2
SCHWEISSEN
 70
64
 62
7
  6
CONTINUOUS
  0
LAYER
  2
GRAFIK
 70
64
 62
7
  6
CONTINUOUS
  0
LAYER
  2
BEM_FREI
 70
64
 62
7
  6
CONTINUOUS
  0
LAYER
  2
BEM_SYSTEM
 70
64
 62
7
  6
CONTINUOUS
  0
LAYER
  2
BEM_KONTUR
 70
64
 62
7
  6
CONTINUOUS
  0
LAYER
  2
BEM_ANBAU
 70
64
 62
7
  6
CONTINUOUS
  0
LAYER
  2
BEM_SCHRAUBEN
 70
64
 62
7
  6
CONTINUOUS
  0
LAYER
  2
BEM_SCHWEISSEN
 70
64
 62
7
  6
CONTINUOUS
  0
LAYER
  2
FREIER_TEXT
 70
64
 62
7
  6
CONTINUOUS
  0
LAYER
  2
BEZ_TEILE
 70
64
 62
7
  6
CONTINUOUS
  0
LAYER
  2
BEZ_SCHWEISSEN
 70
64
 62
7
  6
CONTINUOUS
  0
LAYER
  2
SCHRAFFUREN
 70
64
 62
7
  6
CONTINUOUS
  0
LAYER
  2
SCHNITTSYMBOL
 70
64
 62
7
  6
CONTINUOUS
  0
LAYER
  2
RASTER
 70
64
 62
7
  6
CONTINUOUS
  0
LAYER
  2
LISTEN
 70
64
 62
7
  6
CONTINUOUS
  0
LAYER
  2
RAHMEN
 70
64
 62
7
  6
CONTINUOUS
  0
ENDTAB
  0
TABLE
  2
STYLE
 70
1
  0
STYLE
  2
STANDARD
 70
64
 40
0
 41
1
 50
0.0
 71
0
 42
0.35
  3
ROMANS
  0
ENDTAB
  0
ENDSEC
  0
SECTION
  2
ENTITIES
  0
LINE
  8
SCHRAUBEN
 62
6
 10
246.823746
 20
-46.312332
 11
235.223755
 21
-57.912331
  0
LINE
  8
SCHRAUBEN
 62
6
 10
235.223755
 20
-46.312332
 11
246.823746
 21
-57.912331
  0
CIRCLE
  8
SCHRAUBEN
 62
2
 10
241.023743
 20
-52.112331
 40
14.500015
  0
LINE
  8
SCHRAUBEN
 62
6
 10
303.570251
 20
16.971434
 11
291.970245
 21
5.371433
  0
LINE
  8
SCHRAUBEN
 62
6
 10
291.970245
 20
16.971434
 11
303.570251
 21
5.371433
  0
CIRCLE
  8
SCHRAUBEN
 62
2
 10
297.770264
 20
11.171434
 40
14.500000
  0
LINE
  8
SCHRAUBEN
 62
6
 10
360.316772
 20
80.255196
 11
348.716736
 21
68.655197
  0
LINE
  8
SCHRAUBEN
 62
6
 10
348.716736
 20
80.255196
 11
360.316772
 21
68.655197
  0
CIRCLE
  8
SCHRAUBEN
 62
2
 10
354.516754
 20
74.455193
 40
14.500000
  0
TEXT
 8
UNTERSCHRIFT
 62
2
 10
151.232727
 20
-146.779297
 40
3.250000
 41
0.800000
 51
15.000000
  1
Project  DP0GN9  ,Qty. 4  , Pos. 
  0
TEXT
 8
UNTERSCHRIFT
 62
2
 10
250.032715
 20
-146.779266
 40
3.250000
 41
0.800000
 51
15.000000
  1
  , Profi l PL298*16
  0
TEXT
 8
UNTERSCHRIFT
 62
2
 10
237.032715
 20
-146.779266
 40
3.250000
 41
0.800000
 51
15.000000
  1
30219
  0
LINE
  8
TEILE
 62
2
 10
30.000589
 20
-148.779312
 11
0.000590
 21
-118.779175
  0
LINE
  8
TEILE
 62
2
 10
0.000590
 20
-118.779175
 11
-0.000000
 21
-26.306923
  0
LINE
  8
TEILE
 62
2
 10
-0.000000
 20
-26.306923
 11
354.014038
 21
148.779312
  0
LINE
  8
TEILE
 62
2
 10
354.014038
 20
148.779312
 11
428.464844
 21
82.017761
  0
LINE
  8
TEILE
 62
2
 10
428.464844
 20
82.017761
 11
428.464844
 21
-148.779221
  0
LINE
  8
TEILE
 62
2
 10
428.464844
 20
-148.779221
 11
30.000589
 21
-148.779312
  0
TEXT
 8
BEZ_SCHRAUBEN
 62
2
 10
233.023773
 20
-74.112328
 40
5.000000
 41
0.800000
 51
15.000000
  1
 ø29
  0
ENDSEC
  0
EOF

