999
     *******************************************
999
     BOCAD Software GmbH   Rev.18.000   0202.22
999
     Filename:   c:\progetti21\danieli_aqs\b4\temp_11\30217.dxf
999
     Creator:    bocad
999
     Date:       20.01.2016
999
     Factor:     10.000000
999
     *******************************************
  0
SECTION
  2
HEADER
  9
$DWGCODEPAGE
  3
ANSI_1252
  9
$INSBASE
 10
0.0
 20
0.0
 30
0.0
  9
$EXTMIN
 10
-0.500000
 20
-149.281330
  9
$EXTMAX
 10
907.379684
 20
149.281330
  9
$LIMMIN
 10
-1.500000
 20
-150.281330
  9
$LIMMAX
 10
908.379684
 20
150.281330
  9
$LTSCALE
 40
10.000000
  0
ENDSEC
  0
SECTION
  2
TABLES
  0
TABLE
  2
LTYPE
 70
4
  0
LTYPE
  2
CONTINUOUS
 70
64
  3
____________________________________________
 72
65
 73
0
 40
0.0
  0
LTYPE
  2
HIDDEN
 70
64
  3
__ __ __ __ __ __ __ __ __ __ __ __ __ __ __
 72
65
 73
2
 40
0.50
 49
0.30
 49
-0.20
  0
LTYPE
  2
DASHDOT
 70
64
  3
____ _ ____ _ ____ _ ____ _ ____ _ ____ _ __
 72
65
 73
4
 40
2.0
 49
1.5
 49
-0.25
 49
0
 49
-0.25
  0
LTYPE
  2
DOT
 70
64
  3
............................................
 72
65
 73
2
 40
0.30
 49
0
 49
-0.30
  0
ENDTAB
  0
TABLE
  2
LAYER
 70
23
  0
LAYER
  2
SCHRAUBEN
 70
64
 62
7
  6
CONTINUOUS
  0
LAYER
  2
REST
 70
64
 62
7
  6
CONTINUOUS
  0
LAYER
  2
UNTERSCHRIFT
 70
64
 62
7
  6
CONTINUOUS
  0
LAYER
  2
TEILE
 70
64
 62
7
  6
CONTINUOUS
  0
LAYER
  2
BEZ_SCHRAUBEN
 70
64
 62
7
  6
CONTINUOUS
  0
LAYER
  2
MARKERPUNKTE
 70
64
 62
7
  6
CONTINUOUS
  0
LAYER
  2
HILFSPUNKTE
 70
64
 62
7
  6
CONTINUOUS
  0
LAYER
  2
PICKPUNKTE
 70
64
 62
7
  6
CONTINUOUS
  0
LAYER
  2
SCHWEISSEN
 70
64
 62
7
  6
CONTINUOUS
  0
LAYER
  2
GRAFIK
 70
64
 62
7
  6
CONTINUOUS
  0
LAYER
  2
BEM_FREI
 70
64
 62
7
  6
CONTINUOUS
  0
LAYER
  2
BEM_SYSTEM
 70
64
 62
7
  6
CONTINUOUS
  0
LAYER
  2
BEM_KONTUR
 70
64
 62
7
  6
CONTINUOUS
  0
LAYER
  2
BEM_ANBAU
 70
64
 62
7
  6
CONTINUOUS
  0
LAYER
  2
BEM_SCHRAUBEN
 70
64
 62
7
  6
CONTINUOUS
  0
LAYER
  2
BEM_SCHWEISSEN
 70
64
 62
7
  6
CONTINUOUS
  0
LAYER
  2
FREIER_TEXT
 70
64
 62
7
  6
CONTINUOUS
  0
LAYER
  2
BEZ_TEILE
 70
64
 62
7
  6
CONTINUOUS
  0
LAYER
  2
BEZ_SCHWEISSEN
 70
64
 62
7
  6
CONTINUOUS
  0
LAYER
  2
SCHRAFFUREN
 70
64
 62
7
  6
CONTINUOUS
  0
LAYER
  2
SCHNITTSYMBOL
 70
64
 62
7
  6
CONTINUOUS
  0
LAYER
  2
RASTER
 70
64
 62
7
  6
CONTINUOUS
  0
LAYER
  2
LISTEN
 70
64
 62
7
  6
CONTINUOUS
  0
LAYER
  2
RAHMEN
 70
64
 62
7
  6
CONTINUOUS
  0
ENDTAB
  0
TABLE
  2
STYLE
 70
1
  0
STYLE
  2
STANDARD
 70
64
 40
0
 41
1
 50
0.0
 71
0
 42
0.35
  3
ROMANS
  0
ENDTAB
  0
ENDSEC
  0
SECTION
  2
ENTITIES
  0
LINE
  8
SCHRAUBEN
 62
6
 10
190.615005
 20
-48.669209
 11
179.015015
 21
-60.269207
  0
LINE
  8
SCHRAUBEN
 62
6
 10
179.015015
 20
-48.669209
 11
190.615005
 21
-60.269207
  0
CIRCLE
  8
SCHRAUBEN
 62
2
 10
184.815002
 20
-54.469208
 40
14.500015
  0
LINE
  8
SCHRAUBEN
 62
6
 10
133.313278
 20
14.112254
 11
121.713272
 21
2.512254
  0
LINE
  8
SCHRAUBEN
 62
6
 10
121.713272
 20
14.112255
 11
133.313278
 21
2.512254
  0
CIRCLE
  8
SCHRAUBEN
 62
2
 10
127.513275
 20
8.312255
 40
14.500000
  0
LINE
  8
SCHRAUBEN
 62
6
 10
76.011551
 20
76.893723
 11
64.411552
 21
65.293724
  0
LINE
  8
SCHRAUBEN
 62
6
 10
64.411552
 20
76.893723
 11
76.011551
 21
65.293724
  0
CIRCLE
  8
SCHRAUBEN
 62
2
 10
70.211548
 20
71.093719
 40
14.500000
  0
LINE
  8
SCHRAUBEN
 62
6
 10
457.840393
 20
-24.381325
 11
449.040405
 21
-33.181328
  0
LINE
  8
SCHRAUBEN
 62
6
 10
449.040405
 20
-24.381325
 11
457.840393
 21
-33.181328
  0
CIRCLE
  8
SCHRAUBEN
 62
2
 10
453.440399
 20
-28.781326
 40
10.999969
  0
LINE
  8
SCHRAUBEN
 62
6
 10
457.840332
 20
-84.381332
 11
449.040375
 21
-93.181320
  0
LINE
  8
SCHRAUBEN
 62
6
 10
449.040375
 20
-84.381332
 11
457.840332
 21
-93.181320
  0
CIRCLE
  8
SCHRAUBEN
 62
2
 10
453.440369
 20
-88.781326
 40
10.999969
  0
LINE
  8
SCHRAUBEN
 62
6
 10
838.760437
 20
80.248581
 11
827.160400
 21
68.648590
  0
LINE
  8
SCHRAUBEN
 62
6
 10
827.160400
 20
80.248581
 11
838.760437
 21
68.648590
  0
CIRCLE
  8
SCHRAUBEN
 62
2
 10
832.960449
 20
74.448586
 40
14.499939
  0
LINE
  8
SCHRAUBEN
 62
6
 10
782.013184
 20
16.965502
 11
770.413147
 21
5.365501
  0
LINE
  8
SCHRAUBEN
 62
6
 10
770.413147
 20
16.965502
 11
782.013184
 21
5.365501
  0
CIRCLE
  8
SCHRAUBEN
 62
2
 10
776.213135
 20
11.165503
 40
14.500000
  0
LINE
  8
SCHRAUBEN
 62
6
 10
725.265991
 20
-46.317581
 11
713.665894
 21
-57.917580
  0
LINE
  8
SCHRAUBEN
 62
6
 10
713.665894
 20
-46.317581
 11
725.265991
 21
-57.917580
  0
CIRCLE
  8
SCHRAUBEN
 62
2
 10
719.465942
 20
-52.117580
 40
14.500000
  0
TEXT
 8
UNTERSCHRIFT
 62
2
 10
374.140350
 20
-146.781326
 40
3.250000
 41
0.800000
 51
15.000000
  1
Project  DP0GN9  ,Qty. 10  , Pos. 
  0
TEXT
 8
UNTERSCHRIFT
 62
2
 10
475.540344
 20
-146.781326
 40
3.250000
 41
0.800000
 51
15.000000
  1
  , Profi l PL298*16
  0
TEXT
 8
UNTERSCHRIFT
 62
2
 10
462.540344
 20
-146.781326
 40
3.250000
 41
0.800000
 51
15.000000
  1
30217
  0
LINE
  8
TEILE
 62
2
 10
84.352875
 20
-148.781326
 11
0.000000
 21
81.950485
  0
LINE
  8
TEILE
 62
2
 10
0.000000
 20
81.950485
 11
74.433456
 21
148.780991
  0
LINE
  8
TEILE
 62
2
 10
74.433456
 20
148.780991
 11
419.322632
 21
23.601887
  0
LINE
  8
TEILE
 62
2
 10
419.322632
 20
23.601887
 11
421.442535
 21
22.859304
  0
LINE
  8
TEILE
 62
2
 10
421.442535
 20
22.859304
 11
423.578552
 21
22.164515
  0
LINE
  8
TEILE
 62
2
 10
423.578552
 20
22.164515
 11
425.729675
 21
21.517878
  0
LINE
  8
TEILE
 62
2
 10
425.729675
 20
21.517878
 11
427.894775
 21
20.919720
  0
LINE
  8
TEILE
 62
2
 10
427.894775
 20
20.919720
 11
430.072754
 21
20.370340
  0
LINE
  8
TEILE
 62
2
 10
430.072754
 20
20.370340
 11
432.262543
 21
19.870020
  0
LINE
  8
TEILE
 62
2
 10
432.262543
 20
19.870020
 11
434.463013
 21
19.419010
  0
LINE
  8
TEILE
 62
2
 10
434.463013
 20
19.419010
 11
436.673004
 21
19.017536
  0
LINE
  8
TEILE
 62
2
 10
436.673004
 20
19.017536
 11
438.891541
 21
18.665802
  0
LINE
  8
TEILE
 62
2
 10
438.891541
 20
18.665802
 11
441.117371
 21
18.363987
  0
LINE
  8
TEILE
 62
2
 10
441.117371
 20
18.363987
 11
443.349426
 21
18.112240
  0
LINE
  8
TEILE
 62
2
 10
443.349426
 20
18.112240
 11
445.586548
 21
17.910690
  0
LINE
  8
TEILE
 62
2
 10
445.586548
 20
17.910690
 11
447.827637
 21
17.759439
  0
LINE
  8
TEILE
 62
2
 10
447.827637
 20
17.759439
 11
450.071594
 21
17.658562
  0
LINE
  8
TEILE
 62
2
 10
450.071594
 20
17.658562
 11
452.317230
 21
17.608112
  0
LINE
  8
TEILE
 62
2
 10
452.317230
 20
17.608112
 11
454.563446
 21
17.608112
  0
LINE
  8
TEILE
 62
2
 10
454.563446
 20
17.608112
 11
456.809082
 21
17.658562
  0
LINE
  8
TEILE
 62
2
 10
456.809082
 20
17.658562
 11
459.053009
 21
17.759439
  0
LINE
  8
TEILE
 62
2
 10
459.053009
 20
17.759439
 11
461.294098
 21
17.910692
  0
LINE
  8
TEILE
 62
2
 10
461.294098
 20
17.910692
 11
463.531250
 21
18.112242
  0
LINE
  8
TEILE
 62
2
 10
463.531250
 20
18.112242
 11
465.763275
 21
18.363989
  0
LINE
  8
TEILE
 62
2
 10
465.763275
 20
18.363989
 11
467.989136
 21
18.665804
  0
LINE
  8
TEILE
 62
2
 10
467.989136
 20
18.665804
 11
470.207642
 21
19.017538
  0
LINE
  8
TEILE
 62
2
 10
470.207642
 20
19.017538
 11
472.417664
 21
19.419012
  0
LINE
  8
TEILE
 62
2
 10
472.417664
 20
19.419012
 11
474.618103
 21
19.870022
  0
LINE
  8
TEILE
 62
2
 10
474.618103
 20
19.870022
 11
476.807892
 21
20.370342
  0
LINE
  8
TEILE
 62
2
 10
476.807892
 20
20.370342
 11
478.985870
 21
20.919722
  0
LINE
  8
TEILE
 62
2
 10
478.985870
 20
20.919722
 11
481.150970
 21
21.517879
  0
LINE
  8
TEILE
 62
2
 10
481.150970
 20
21.517879
 11
483.302063
 21
22.164516
  0
LINE
  8
TEILE
 62
2
 10
483.302063
 20
22.164516
 11
485.438110
 21
22.859306
  0
LINE
  8
TEILE
 62
2
 10
485.438110
 20
22.859306
 11
487.558014
 21
23.601896
  0
LINE
  8
TEILE
 62
2
 10
487.558014
 20
23.601896
 11
487.558136
 21
23.601925
  0
LINE
  8
TEILE
 62
2
 10
487.558136
 20
23.601925
 11
832.446899
 21
148.781326
  0
LINE
  8
TEILE
 62
2
 10
832.446899
 20
148.781326
 11
906.879639
 21
81.947739
  0
LINE
  8
TEILE
 62
2
 10
906.879639
 20
81.947739
 11
822.527832
 21
-148.781326
  0
LINE
  8
TEILE
 62
2
 10
822.527832
 20
-148.781326
 11
84.352875
 21
-148.781326
  0
TEXT
 8
BEZ_SCHRAUBEN
 62
2
 10
176.815018
 20
-76.469208
 40
5.000000
 41
0.800000
 51
15.000000
  1
 ø29
  0
TEXT
 8
BEZ_SCHRAUBEN
 62
2
 10
119.513275
 20
-13.687745
 40
5.000000
 41
0.800000
 51
15.000000
  1
 ø29
  0
TEXT
 8
BEZ_SCHRAUBEN
 62
2
 10
62.211548
 20
49.093723
 40
5.000000
 41
0.800000
 51
15.000000
  1
 ø29
  0
TEXT
 8
BEZ_SCHRAUBEN
 62
2
 10
445.440399
 20
-47.281326
 40
5.000000
 41
0.800000
 51
15.000000
  1
 ø22
  0
TEXT
 8
BEZ_SCHRAUBEN
 62
2
 10
445.440369
 20
-107.281334
 40
5.000000
 41
0.800000
 51
15.000000
  1
 ø22
  0
TEXT
 8
BEZ_SCHRAUBEN
 62
2
 10
824.960388
 20
52.448586
 40
5.000000
 41
0.800000
 51
15.000000
  1
 ø29
  0
TEXT
 8
BEZ_SCHRAUBEN
 62
2
 10
768.213013
 20
-10.834498
 40
5.000000
 41
0.800000
 51
15.000000
  1
 ø29
  0
TEXT
 8
BEZ_SCHRAUBEN
 62
2
 10
711.465820
 20
-74.117577
 40
5.000000
 41
0.800000
 51
15.000000
  1
 ø29
  0
ENDSEC
  0
EOF

