999
     *******************************************
999
     BOCAD Software GmbH   Rev.18.000   0202.22
999
     Filename:   c:\progetti21\danieli_aqs\b4\temp_11\30221.dxf
999
     Creator:    bocad
999
     Date:       20.01.2016
999
     Factor:     10.000000
999
     *******************************************
  0
SECTION
  2
HEADER
  9
$DWGCODEPAGE
  3
ANSI_1252
  9
$INSBASE
 10
0.0
 20
0.0
 30
0.0
  9
$EXTMIN
 10
-0.500000
 20
-107.998619
  9
$EXTMAX
 10
200.499916
 20
107.998619
  9
$LIMMIN
 10
-1.500000
 20
-108.998619
  9
$LIMMAX
 10
201.499916
 20
108.998619
  9
$LTSCALE
 40
10.000000
  0
ENDSEC
  0
SECTION
  2
TABLES
  0
TABLE
  2
LTYPE
 70
4
  0
LTYPE
  2
CONTINUOUS
 70
64
  3
____________________________________________
 72
65
 73
0
 40
0.0
  0
LTYPE
  2
HIDDEN
 70
64
  3
__ __ __ __ __ __ __ __ __ __ __ __ __ __ __
 72
65
 73
2
 40
0.50
 49
0.30
 49
-0.20
  0
LTYPE
  2
DASHDOT
 70
64
  3
____ _ ____ _ ____ _ ____ _ ____ _ ____ _ __
 72
65
 73
4
 40
2.0
 49
1.5
 49
-0.25
 49
0
 49
-0.25
  0
LTYPE
  2
DOT
 70
64
  3
............................................
 72
65
 73
2
 40
0.30
 49
0
 49
-0.30
  0
ENDTAB
  0
TABLE
  2
LAYER
 70
23
  0
LAYER
  2
SCHRAUBEN
 70
64
 62
7
  6
CONTINUOUS
  0
LAYER
  2
REST
 70
64
 62
7
  6
CONTINUOUS
  0
LAYER
  2
UNTERSCHRIFT
 70
64
 62
7
  6
CONTINUOUS
  0
LAYER
  2
TEILE
 70
64
 62
7
  6
CONTINUOUS
  0
LAYER
  2
BEZ_SCHRAUBEN
 70
64
 62
7
  6
CONTINUOUS
  0
LAYER
  2
MARKERPUNKTE
 70
64
 62
7
  6
CONTINUOUS
  0
LAYER
  2
HILFSPUNKTE
 70
64
 62
7
  6
CONTINUOUS
  0
LAYER
  2
PICKPUNKTE
 70
64
 62
7
  6
CONTINUOUS
  0
LAYER
  2
SCHWEISSEN
 70
64
 62
7
  6
CONTINUOUS
  0
LAYER
  2
GRAFIK
 70
64
 62
7
  6
CONTINUOUS
  0
LAYER
  2
BEM_FREI
 70
64
 62
7
  6
CONTINUOUS
  0
LAYER
  2
BEM_SYSTEM
 70
64
 62
7
  6
CONTINUOUS
  0
LAYER
  2
BEM_KONTUR
 70
64
 62
7
  6
CONTINUOUS
  0
LAYER
  2
BEM_ANBAU
 70
64
 62
7
  6
CONTINUOUS
  0
LAYER
  2
BEM_SCHRAUBEN
 70
64
 62
7
  6
CONTINUOUS
  0
LAYER
  2
BEM_SCHWEISSEN
 70
64
 62
7
  6
CONTINUOUS
  0
LAYER
  2
FREIER_TEXT
 70
64
 62
7
  6
CONTINUOUS
  0
LAYER
  2
BEZ_TEILE
 70
64
 62
7
  6
CONTINUOUS
  0
LAYER
  2
BEZ_SCHWEISSEN
 70
64
 62
7
  6
CONTINUOUS
  0
LAYER
  2
SCHRAFFUREN
 70
64
 62
7
  6
CONTINUOUS
  0
LAYER
  2
SCHNITTSYMBOL
 70
64
 62
7
  6
CONTINUOUS
  0
LAYER
  2
RASTER
 70
64
 62
7
  6
CONTINUOUS
  0
LAYER
  2
LISTEN
 70
64
 62
7
  6
CONTINUOUS
  0
LAYER
  2
RAHMEN
 70
64
 62
7
  6
CONTINUOUS
  0
ENDTAB
  0
TABLE
  2
STYLE
 70
1
  0
STYLE
  2
STANDARD
 70
64
 40
0
 41
1
 50
0.0
 71
0
 42
0.35
  3
ROMANS
  0
ENDTAB
  0
ENDSEC
  0
SECTION
  2
ENTITIES
  0
LINE
  8
SCHRAUBEN
 62
6
 10
105.800056
 20
-26.698065
 11
94.200058
 21
-38.298065
  0
LINE
  8
SCHRAUBEN
 62
6
 10
94.200058
 20
-26.698065
 11
105.800056
 21
-38.298065
  0
CIRCLE
  8
SCHRAUBEN
 62
2
 10
100.000061
 20
-32.498062
 40
14.499992
  0
LINE
  8
SCHRAUBEN
 62
6
 10
105.799820
 20
58.301910
 11
94.199821
 21
46.701912
  0
LINE
  8
SCHRAUBEN
 62
6
 10
94.199821
 20
58.301910
 11
105.799820
 21
46.701912
  0
CIRCLE
  8
SCHRAUBEN
 62
2
 10
99.999817
 20
52.501911
 40
14.500000
  0
TEXT
 8
UNTERSCHRIFT
 62
2
 10
5.696054
 20
-105.498619
 40
3.250000
 41
0.800000
 51
15.000000
  1
Project  DP0GN9  ,Qty. 10  , Pos. 
  0
TEXT
 8
UNTERSCHRIFT
 62
2
 10
107.096054
 20
-105.498619
 40
3.250000
 41
0.800000
 51
15.000000
  1
  , Profi l PL215*16
  0
TEXT
 8
UNTERSCHRIFT
 62
2
 10
94.096054
 20
-105.498619
 40
3.250000
 41
0.800000
 51
15.000000
  1
30221
  0
LINE
  8
TEILE
 62
2
 10
0.000000
 20
-107.498619
 11
-0.000000
 21
-67.498619
  0
LINE
  8
TEILE
 62
2
 10
-0.000000
 20
-67.498619
 11
50.000004
 21
107.498619
  0
LINE
  8
TEILE
 62
2
 10
50.000004
 20
107.498619
 11
150.000015
 21
107.498619
  0
LINE
  8
TEILE
 62
2
 10
150.000015
 20
107.498619
 11
199.999924
 21
-67.498619
  0
LINE
  8
TEILE
 62
2
 10
199.999924
 20
-67.498619
 11
199.999924
 21
-77.498024
  0
LINE
  8
TEILE
 62
2
 10
199.999924
 20
-77.498024
 11
174.992050
 21
-77.497955
  0
LINE
  8
TEILE
 62
2
 10
174.992050
 20
-77.497955
 11
174.964676
 21
-76.975311
  0
LINE
  8
TEILE
 62
2
 10
174.964676
 20
-76.975311
 11
174.882797
 21
-76.458397
  0
LINE
  8
TEILE
 62
2
 10
174.882797
 20
-76.458397
 11
174.747330
 21
-75.952866
  0
LINE
  8
TEILE
 62
2
 10
174.747330
 20
-75.952866
 11
174.559784
 21
-75.464272
  0
LINE
  8
TEILE
 62
2
 10
174.559784
 20
-75.464272
 11
174.322189
 21
-74.997955
  0
LINE
  8
TEILE
 62
2
 10
174.322189
 20
-74.997955
 11
174.037140
 21
-74.559029
  0
LINE
  8
TEILE
 62
2
 10
174.037140
 20
-74.559029
 11
173.707764
 21
-74.152306
  0
LINE
  8
TEILE
 62
2
 10
173.707764
 20
-74.152306
 11
173.337708
 21
-73.782227
  0
LINE
  8
TEILE
 62
2
 10
173.337708
 20
-73.782227
 11
172.930984
 21
-73.452866
  0
LINE
  8
TEILE
 62
2
 10
172.930984
 20
-73.452866
 11
172.492050
 21
-73.167831
  0
LINE
  8
TEILE
 62
2
 10
172.492050
 20
-73.167831
 11
172.025742
 21
-72.930229
  0
LINE
  8
TEILE
 62
2
 10
172.025742
 20
-72.930229
 11
171.537140
 21
-72.742676
  0
LINE
  8
TEILE
 62
2
 10
171.537140
 20
-72.742676
 11
171.031616
 21
-72.607224
  0
LINE
  8
TEILE
 62
2
 10
171.031616
 20
-72.607224
 11
170.514694
 21
-72.525345
  0
LINE
  8
TEILE
 62
2
 10
170.514694
 20
-72.525345
 11
169.992050
 21
-72.497963
  0
LINE
  8
TEILE
 62
2
 10
169.992050
 20
-72.497963
 11
169.469421
 21
-72.525352
  0
LINE
  8
TEILE
 62
2
 10
169.469421
 20
-72.525352
 11
168.952499
 21
-72.607224
  0
LINE
  8
TEILE
 62
2
 10
168.952499
 20
-72.607224
 11
168.446960
 21
-72.742683
  0
LINE
  8
TEILE
 62
2
 10
168.446960
 20
-72.742683
 11
167.958374
 21
-72.930237
  0
LINE
  8
TEILE
 62
2
 10
167.958374
 20
-72.930237
 11
167.492065
 21
-73.167839
  0
LINE
  8
TEILE
 62
2
 10
167.492065
 20
-73.167839
 11
167.053131
 21
-73.452881
  0
LINE
  8
TEILE
 62
2
 10
167.053131
 20
-73.452881
 11
166.646408
 21
-73.782249
  0
LINE
  8
TEILE
 62
2
 10
166.646408
 20
-73.782249
 11
166.276337
 21
-74.152313
  0
LINE
  8
TEILE
 62
2
 10
166.276337
 20
-74.152313
 11
165.946976
 21
-74.559044
  0
LINE
  8
TEILE
 62
2
 10
165.946976
 20
-74.559044
 11
165.661926
 21
-74.997971
  0
LINE
  8
TEILE
 62
2
 10
165.661926
 20
-74.997971
 11
165.424332
 21
-75.464294
  0
LINE
  8
TEILE
 62
2
 10
165.424332
 20
-75.464294
 11
165.236786
 21
-75.952888
  0
LINE
  8
TEILE
 62
2
 10
165.236786
 20
-75.952888
 11
165.101334
 21
-76.458420
  0
LINE
  8
TEILE
 62
2
 10
165.101334
 20
-76.458420
 11
165.019455
 21
-76.975334
  0
LINE
  8
TEILE
 62
2
 10
165.019455
 20
-76.975334
 11
164.992065
 21
-77.497971
  0
LINE
  8
TEILE
 62
2
 10
164.992065
 20
-77.497971
 11
165.019470
 21
-78.020615
  0
LINE
  8
TEILE
 62
2
 10
165.019470
 20
-78.020615
 11
165.101334
 21
-78.537529
  0
LINE
  8
TEILE
 62
2
 10
165.101334
 20
-78.537529
 11
165.236801
 21
-79.043060
  0
LINE
  8
TEILE
 62
2
 10
165.236801
 20
-79.043060
 11
165.424347
 21
-79.531654
  0
LINE
  8
TEILE
 62
2
 10
165.424347
 20
-79.531654
 11
165.661957
 21
-79.997971
  0
LINE
  8
TEILE
 62
2
 10
165.661957
 20
-79.997971
 11
165.946991
 21
-80.436897
  0
LINE
  8
TEILE
 62
2
 10
165.946991
 20
-80.436897
 11
166.276367
 21
-80.843620
  0
LINE
  8
TEILE
 62
2
 10
166.276367
 20
-80.843620
 11
166.646439
 21
-81.213692
  0
LINE
  8
TEILE
 62
2
 10
166.646439
 20
-81.213692
 11
167.053162
 21
-81.543045
  0
LINE
  8
TEILE
 62
2
 10
167.053162
 20
-81.543045
 11
167.492081
 21
-81.828087
  0
LINE
  8
TEILE
 62
2
 10
167.492081
 20
-81.828087
 11
167.958405
 21
-82.065689
  0
LINE
  8
TEILE
 62
2
 10
167.958405
 20
-82.065689
 11
168.447021
 21
-82.253235
  0
LINE
  8
TEILE
 62
2
 10
168.447021
 20
-82.253235
 11
168.952545
 21
-82.388695
  0
LINE
  8
TEILE
 62
2
 10
168.952545
 20
-82.388695
 11
169.469452
 21
-82.470558
  0
LINE
  8
TEILE
 62
2
 10
169.469452
 20
-82.470558
 11
169.992096
 21
-82.497948
  0
LINE
  8
TEILE
 62
2
 10
169.992096
 20
-82.497948
 11
169.992096
 21
-82.497955
  0
LINE
  8
TEILE
 62
2
 10
169.992096
 20
-82.497955
 11
169.992096
 21
-107.498619
  0
LINE
  8
TEILE
 62
2
 10
169.992096
 20
-107.498619
 11
0.000000
 21
-107.498619
  0
TEXT
 8
BEZ_SCHRAUBEN
 62
2
 10
92.000053
 20
-54.498062
 40
5.000000
 41
0.800000
 51
15.000000
  1
 ø29
  0
ENDSEC
  0
EOF

