999
     *******************************************
999
     BOCAD Software GmbH   Rev.18.000   0202.22
999
     Filename:   c:\progetti21\danieli_aqs\b4\temp_11\30220.dxf
999
     Creator:    bocad
999
     Date:       20.01.2016
999
     Factor:     10.000000
999
     *******************************************
  0
SECTION
  2
HEADER
  9
$DWGCODEPAGE
  3
ANSI_1252
  9
$INSBASE
 10
0.0
 20
0.0
 30
0.0
  9
$EXTMIN
 10
-0.500000
 20
-147.618761
  9
$EXTMAX
 10
437.764816
 20
147.618761
  9
$LIMMIN
 10
-1.500000
 20
-148.618761
  9
$LIMMAX
 10
438.764816
 20
148.618761
  9
$LTSCALE
 40
10.000000
  0
ENDSEC
  0
SECTION
  2
TABLES
  0
TABLE
  2
LTYPE
 70
4
  0
LTYPE
  2
CONTINUOUS
 70
64
  3
____________________________________________
 72
65
 73
0
 40
0.0
  0
LTYPE
  2
HIDDEN
 70
64
  3
__ __ __ __ __ __ __ __ __ __ __ __ __ __ __
 72
65
 73
2
 40
0.50
 49
0.30
 49
-0.20
  0
LTYPE
  2
DASHDOT
 70
64
  3
____ _ ____ _ ____ _ ____ _ ____ _ ____ _ __
 72
65
 73
4
 40
2.0
 49
1.5
 49
-0.25
 49
0
 49
-0.25
  0
LTYPE
  2
DOT
 70
64
  3
............................................
 72
65
 73
2
 40
0.30
 49
0
 49
-0.30
  0
ENDTAB
  0
TABLE
  2
LAYER
 70
23
  0
LAYER
  2
SCHRAUBEN
 70
64
 62
7
  6
CONTINUOUS
  0
LAYER
  2
REST
 70
64
 62
7
  6
CONTINUOUS
  0
LAYER
  2
UNTERSCHRIFT
 70
64
 62
7
  6
CONTINUOUS
  0
LAYER
  2
TEILE
 70
64
 62
7
  6
CONTINUOUS
  0
LAYER
  2
BEZ_SCHRAUBEN
 70
64
 62
7
  6
CONTINUOUS
  0
LAYER
  2
MARKERPUNKTE
 70
64
 62
7
  6
CONTINUOUS
  0
LAYER
  2
HILFSPUNKTE
 70
64
 62
7
  6
CONTINUOUS
  0
LAYER
  2
PICKPUNKTE
 70
64
 62
7
  6
CONTINUOUS
  0
LAYER
  2
SCHWEISSEN
 70
64
 62
7
  6
CONTINUOUS
  0
LAYER
  2
GRAFIK
 70
64
 62
7
  6
CONTINUOUS
  0
LAYER
  2
BEM_FREI
 70
64
 62
7
  6
CONTINUOUS
  0
LAYER
  2
BEM_SYSTEM
 70
64
 62
7
  6
CONTINUOUS
  0
LAYER
  2
BEM_KONTUR
 70
64
 62
7
  6
CONTINUOUS
  0
LAYER
  2
BEM_ANBAU
 70
64
 62
7
  6
CONTINUOUS
  0
LAYER
  2
BEM_SCHRAUBEN
 70
64
 62
7
  6
CONTINUOUS
  0
LAYER
  2
BEM_SCHWEISSEN
 70
64
 62
7
  6
CONTINUOUS
  0
LAYER
  2
FREIER_TEXT
 70
64
 62
7
  6
CONTINUOUS
  0
LAYER
  2
BEZ_TEILE
 70
64
 62
7
  6
CONTINUOUS
  0
LAYER
  2
BEZ_SCHWEISSEN
 70
64
 62
7
  6
CONTINUOUS
  0
LAYER
  2
SCHRAFFUREN
 70
64
 62
7
  6
CONTINUOUS
  0
LAYER
  2
SCHNITTSYMBOL
 70
64
 62
7
  6
CONTINUOUS
  0
LAYER
  2
RASTER
 70
64
 62
7
  6
CONTINUOUS
  0
LAYER
  2
LISTEN
 70
64
 62
7
  6
CONTINUOUS
  0
LAYER
  2
RAHMEN
 70
64
 62
7
  6
CONTINUOUS
  0
ENDTAB
  0
TABLE
  2
STYLE
 70
1
  0
STYLE
  2
STANDARD
 70
64
 40
0
 41
1
 50
0.0
 71
0
 42
0.35
  3
ROMANS
  0
ENDTAB
  0
ENDSEC
  0
SECTION
  2
ENTITIES
  0
LINE
  8
SCHRAUBEN
 62
6
 10
95.792931
 20
-66.317963
 11
84.192932
 21
-77.917953
  0
LINE
  8
SCHRAUBEN
 62
6
 10
84.192932
 20
-66.317963
 11
95.792931
 21
-77.917953
  0
CIRCLE
  8
SCHRAUBEN
 62
2
 10
89.992935
 20
-72.117958
 40
14.500000
  0
LINE
  8
SCHRAUBEN
 62
6
 10
95.789734
 20
18.682041
 11
84.189743
 21
7.082040
  0
LINE
  8
SCHRAUBEN
 62
6
 10
84.189743
 20
18.682041
 11
95.789734
 21
7.082040
  0
CIRCLE
  8
SCHRAUBEN
 62
2
 10
89.989738
 20
12.882041
 40
14.500000
  0
LINE
  8
SCHRAUBEN
 62
6
 10
369.056946
 20
78.588707
 11
357.456909
 21
66.988708
  0
LINE
  8
SCHRAUBEN
 62
6
 10
357.456909
 20
78.588707
 11
369.056946
 21
66.988708
  0
CIRCLE
  8
SCHRAUBEN
 62
2
 10
363.256897
 20
72.788704
 40
14.500031
  0
LINE
  8
SCHRAUBEN
 62
6
 10
311.755188
 20
15.807205
 11
300.155212
 21
4.207205
  0
LINE
  8
SCHRAUBEN
 62
6
 10
300.155212
 20
15.807205
 11
311.755188
 21
4.207205
  0
CIRCLE
  8
SCHRAUBEN
 62
2
 10
305.955200
 20
10.007205
 40
14.500000
  0
LINE
  8
SCHRAUBEN
 62
6
 10
254.453506
 20
-46.974304
 11
242.853516
 21
-58.574303
  0
LINE
  8
SCHRAUBEN
 62
6
 10
242.853516
 20
-46.974304
 11
254.453506
 21
-58.574303
  0
CIRCLE
  8
SCHRAUBEN
 62
2
 10
248.653503
 20
-52.774307
 40
14.500000
  0
TEXT
 8
UNTERSCHRIFT
 62
2
 10
435.264832
 20
-113.006851
 40
3.250000
 50
90.000000
 41
0.800000
 51
15.000000
  1
Project  DP0GN9  ,Qty. 10  , Pos. 
  0
TEXT
 8
UNTERSCHRIFT
 62
2
 10
435.264832
 20
-11.606851
 40
3.250000
 50
90.000000
 41
0.800000
 51
15.000000
  1
  , Profi l PL294*16
  0
TEXT
 8
UNTERSCHRIFT
 62
2
 10
435.264832
 20
-24.606850
 40
3.250000
 50
90.000000
 41
0.800000
 51
15.000000
  1
30220
  0
LINE
  8
TEILE
 62
2
 10
437.264832
 20
-147.118759
 11
19.999998
 21
-147.117920
  0
LINE
  8
TEILE
 62
2
 10
19.999998
 20
-147.117920
 11
19.999998
 21
-122.119141
  0
LINE
  8
TEILE
 62
2
 10
19.999998
 20
-122.119141
 11
20.534475
 21
-122.090492
  0
LINE
  8
TEILE
 62
2
 10
20.534475
 20
-122.090492
 11
21.062824
 21
-122.004868
  0
LINE
  8
TEILE
 62
2
 10
21.062824
 20
-122.004868
 11
21.578997
 21
-121.863266
  0
LINE
  8
TEILE
 62
2
 10
21.578997
 20
-121.863266
 11
22.077072
 21
-121.667297
  0
LINE
  8
TEILE
 62
2
 10
22.077072
 20
-121.667297
 11
22.551348
 21
-121.419212
  0
LINE
  8
TEILE
 62
2
 10
22.551348
 20
-121.419212
 11
22.996386
 21
-121.121841
  0
LINE
  8
TEILE
 62
2
 10
22.996386
 20
-121.121841
 11
23.407085
 21
-120.778610
  0
LINE
  8
TEILE
 62
2
 10
23.407085
 20
-120.778610
 11
23.778744
 21
-120.393440
  0
LINE
  8
TEILE
 62
2
 10
23.778744
 20
-120.393440
 11
24.107098
 21
-119.970749
  0
LINE
  8
TEILE
 62
2
 10
24.107098
 20
-119.970749
 11
24.388390
 21
-119.515381
  0
LINE
  8
TEILE
 62
2
 10
24.388390
 20
-119.515381
 11
24.619390
 21
-119.032555
  0
LINE
  8
TEILE
 62
2
 10
24.619390
 20
-119.032555
 11
24.797459
 21
-118.527802
  0
LINE
  8
TEILE
 62
2
 10
24.797459
 20
-118.527802
 11
24.920549
 21
-118.006905
  0
LINE
  8
TEILE
 62
2
 10
24.920549
 20
-118.006905
 11
24.987255
 21
-117.475830
  0
LINE
  8
TEILE
 62
2
 10
24.987255
 20
-117.475830
 11
24.996805
 21
-116.940681
  0
LINE
  8
TEILE
 62
2
 10
24.996805
 20
-116.940681
 11
24.949100
 21
-116.407562
  0
LINE
  8
TEILE
 62
2
 10
24.949100
 20
-116.407562
 11
24.844677
 21
-115.882607
  0
LINE
  8
TEILE
 62
2
 10
24.844677
 20
-115.882607
 11
24.684738
 21
-115.371819
  0
LINE
  8
TEILE
 62
2
 10
24.684738
 20
-115.371819
 11
24.471115
 21
-114.881050
  0
LINE
  8
TEILE
 62
2
 10
24.471115
 20
-114.881050
 11
24.206259
 21
-114.415932
  0
LINE
  8
TEILE
 62
2
 10
24.206259
 20
-114.415932
 11
23.893200
 21
-113.981789
  0
LINE
  8
TEILE
 62
2
 10
23.893200
 20
-113.981789
 11
23.535522
 21
-113.583603
  0
LINE
  8
TEILE
 62
2
 10
23.535522
 20
-113.583603
 11
23.137337
 21
-113.225937
  0
LINE
  8
TEILE
 62
2
 10
23.137337
 20
-113.225937
 11
22.703194
 21
-112.912872
  0
LINE
  8
TEILE
 62
2
 10
22.703194
 20
-112.912872
 11
22.238075
 21
-112.648010
  0
LINE
  8
TEILE
 62
2
 10
22.238075
 20
-112.648010
 11
21.747313
 21
-112.434395
  0
LINE
  8
TEILE
 62
2
 10
21.747313
 20
-112.434395
 11
21.236523
 21
-112.274460
  0
LINE
  8
TEILE
 62
2
 10
21.236523
 20
-112.274460
 11
20.711565
 21
-112.170036
  0
LINE
  8
TEILE
 62
2
 10
20.711565
 20
-112.170036
 11
20.178452
 21
-112.122330
  0
LINE
  8
TEILE
 62
2
 10
20.178452
 20
-112.122330
 11
19.643295
 21
-112.131882
  0
LINE
  8
TEILE
 62
2
 10
19.643295
 20
-112.131882
 11
19.112225
 21
-112.198593
  0
LINE
  8
TEILE
 62
2
 10
19.112225
 20
-112.198593
 11
18.591328
 21
-112.321686
  0
LINE
  8
TEILE
 62
2
 10
18.591328
 20
-112.321686
 11
18.086575
 21
-112.499741
  0
LINE
  8
TEILE
 62
2
 10
18.086575
 20
-112.499741
 11
17.603746
 21
-112.730751
  0
LINE
  8
TEILE
 62
2
 10
17.603746
 20
-112.730751
 11
17.148378
 21
-113.012039
  0
LINE
  8
TEILE
 62
2
 10
17.148378
 20
-113.012039
 11
16.725689
 21
-113.340393
  0
LINE
  8
TEILE
 62
2
 10
16.725689
 20
-113.340393
 11
16.340521
 21
-113.712051
  0
LINE
  8
TEILE
 62
2
 10
16.340521
 20
-113.712051
 11
15.997287
 21
-114.122757
  0
LINE
  8
TEILE
 62
2
 10
15.997287
 20
-114.122757
 11
15.699922
 21
-114.567795
  0
LINE
  8
TEILE
 62
2
 10
15.699922
 20
-114.567795
 11
15.451834
 21
-115.042068
  0
LINE
  8
TEILE
 62
2
 10
15.451834
 20
-115.042068
 11
15.255865
 21
-115.540154
  0
LINE
  8
TEILE
 62
2
 10
15.255865
 20
-115.540154
 11
15.114261
 21
-116.056320
  0
LINE
  8
TEILE
 62
2
 10
15.114261
 20
-116.056320
 11
15.028644
 21
-116.584671
  0
LINE
  8
TEILE
 62
2
 10
15.028644
 20
-116.584671
 11
14.999996
 21
-117.119148
  0
LINE
  8
TEILE
 62
2
 10
14.999996
 20
-117.119148
 11
14.999998
 21
-117.119141
  0
LINE
  8
TEILE
 62
2
 10
14.999998
 20
-117.119141
 11
-0.000000
 21
-117.119141
  0
LINE
  8
TEILE
 62
2
 10
-0.000000
 20
-117.119141
 11
-0.000000
 21
18.491638
  0
LINE
  8
TEILE
 62
2
 10
-0.000000
 20
18.491638
 11
39.992973
 21
67.878723
  0
LINE
  8
TEILE
 62
2
 10
39.992973
 20
67.878723
 11
363.404419
 21
147.118759
  0
LINE
  8
TEILE
 62
2
 10
363.404419
 20
147.118759
 11
437.264832
 21
79.705055
  0
LINE
  8
TEILE
 62
2
 10
437.264832
 20
79.705055
 11
437.264832
 21
-147.118759
  0
TEXT
 8
BEZ_SCHRAUBEN
 62
2
 10
81.992935
 20
-94.117958
 40
5.000000
 41
0.800000
 51
15.000000
  1
 ø29
  0
ENDSEC
  0
EOF

