999
     *******************************************
999
     BOCAD Software GmbH   Rev.18.000   0202.22
999
     Filename:   c:\progetti21\danieli_aqs\b4\temp_11\30227.dxf
999
     Creator:    bocad
999
     Date:       20.01.2016
999
     Factor:     10.000000
999
     *******************************************
  0
SECTION
  2
HEADER
  9
$DWGCODEPAGE
  3
ANSI_1252
  9
$INSBASE
 10
0.0
 20
0.0
 30
0.0
  9
$EXTMIN
 10
-0.500000
 20
-88.000002
  9
$EXTMAX
 10
328.499985
 20
88.000011
  9
$LIMMIN
 10
-1.500000
 20
-89.000002
  9
$LIMMAX
 10
329.499985
 20
89.000011
  9
$LTSCALE
 40
10.000000
  0
ENDSEC
  0
SECTION
  2
TABLES
  0
TABLE
  2
LTYPE
 70
4
  0
LTYPE
  2
CONTINUOUS
 70
64
  3
____________________________________________
 72
65
 73
0
 40
0.0
  0
LTYPE
  2
HIDDEN
 70
64
  3
__ __ __ __ __ __ __ __ __ __ __ __ __ __ __
 72
65
 73
2
 40
0.50
 49
0.30
 49
-0.20
  0
LTYPE
  2
DASHDOT
 70
64
  3
____ _ ____ _ ____ _ ____ _ ____ _ ____ _ __
 72
65
 73
4
 40
2.0
 49
1.5
 49
-0.25
 49
0
 49
-0.25
  0
LTYPE
  2
DOT
 70
64
  3
............................................
 72
65
 73
2
 40
0.30
 49
0
 49
-0.30
  0
ENDTAB
  0
TABLE
  2
LAYER
 70
23
  0
LAYER
  2
UNTERSCHRIFT
 70
64
 62
7
  6
CONTINUOUS
  0
LAYER
  2
TEILE
 70
64
 62
7
  6
CONTINUOUS
  0
LAYER
  2
REST
 70
64
 62
7
  6
CONTINUOUS
  0
LAYER
  2
MARKERPUNKTE
 70
64
 62
7
  6
CONTINUOUS
  0
LAYER
  2
HILFSPUNKTE
 70
64
 62
7
  6
CONTINUOUS
  0
LAYER
  2
PICKPUNKTE
 70
64
 62
7
  6
CONTINUOUS
  0
LAYER
  2
SCHRAUBEN
 70
64
 62
7
  6
CONTINUOUS
  0
LAYER
  2
SCHWEISSEN
 70
64
 62
7
  6
CONTINUOUS
  0
LAYER
  2
GRAFIK
 70
64
 62
7
  6
CONTINUOUS
  0
LAYER
  2
BEM_FREI
 70
64
 62
7
  6
CONTINUOUS
  0
LAYER
  2
BEM_SYSTEM
 70
64
 62
7
  6
CONTINUOUS
  0
LAYER
  2
BEM_KONTUR
 70
64
 62
7
  6
CONTINUOUS
  0
LAYER
  2
BEM_ANBAU
 70
64
 62
7
  6
CONTINUOUS
  0
LAYER
  2
BEM_SCHRAUBEN
 70
64
 62
7
  6
CONTINUOUS
  0
LAYER
  2
BEM_SCHWEISSEN
 70
64
 62
7
  6
CONTINUOUS
  0
LAYER
  2
FREIER_TEXT
 70
64
 62
7
  6
CONTINUOUS
  0
LAYER
  2
BEZ_TEILE
 70
64
 62
7
  6
CONTINUOUS
  0
LAYER
  2
BEZ_SCHRAUBEN
 70
64
 62
7
  6
CONTINUOUS
  0
LAYER
  2
BEZ_SCHWEISSEN
 70
64
 62
7
  6
CONTINUOUS
  0
LAYER
  2
SCHRAFFUREN
 70
64
 62
7
  6
CONTINUOUS
  0
LAYER
  2
SCHNITTSYMBOL
 70
64
 62
7
  6
CONTINUOUS
  0
LAYER
  2
RASTER
 70
64
 62
7
  6
CONTINUOUS
  0
LAYER
  2
LISTEN
 70
64
 62
7
  6
CONTINUOUS
  0
LAYER
  2
RAHMEN
 70
64
 62
7
  6
CONTINUOUS
  0
ENDTAB
  0
TABLE
  2
STYLE
 70
1
  0
STYLE
  2
STANDARD
 70
64
 40
0
 41
1
 50
0.0
 71
0
 42
0.35
  3
ROMANS
  0
ENDTAB
  0
ENDSEC
  0
SECTION
  2
ENTITIES
  0
TEXT
 8
UNTERSCHRIFT
 62
2
 10
84.700005
 20
82.250000
 40
3.250000
 41
0.800000
 51
15.000000
  1
Project  DP0GN9  ,Qty. 19  , Pos. 
  0
TEXT
 8
UNTERSCHRIFT
 62
2
 10
186.099991
 20
82.250000
 40
3.250000
 41
0.800000
 51
15.000000
  1
  , Profi l PL175*16
  0
TEXT
 8
UNTERSCHRIFT
 62
2
 10
173.099991
 20
82.250000
 40
3.250000
 41
0.800000
 51
15.000000
  1
30227
  0
LINE
  8
TEILE
 62
2
 10
328.000000
 20
-87.500000
 11
0.000000
 21
-87.500000
  0
LINE
  8
TEILE
 62
2
 10
0.000000
 20
-87.500000
 11
0.000000
 21
57.499996
  0
LINE
  8
TEILE
 62
2
 10
0.000000
 20
57.499996
 11
1.570078
 21
57.541107
  0
LINE
  8
TEILE
 62
2
 10
1.570078
 20
57.541107
 11
3.135855
 21
57.664337
  0
LINE
  8
TEILE
 62
2
 10
3.135855
 20
57.664337
 11
4.693036
 21
57.869343
  0
LINE
  8
TEILE
 62
2
 10
4.693036
 20
57.869343
 11
6.237354
 21
58.155563
  0
LINE
  8
TEILE
 62
2
 10
6.237354
 20
58.155563
 11
7.764577
 21
58.522221
  0
LINE
  8
TEILE
 62
2
 10
7.764577
 20
58.522221
 11
9.270516
 21
58.968300
  0
LINE
  8
TEILE
 62
2
 10
9.270516
 20
58.968300
 11
10.751047
 21
59.492584
  0
LINE
  8
TEILE
 62
2
 10
10.751047
 20
59.492584
 11
12.202109
 21
60.093632
  0
LINE
  8
TEILE
 62
2
 10
12.202109
 20
60.093632
 11
13.619726
 21
60.769802
  0
LINE
  8
TEILE
 62
2
 10
13.619726
 20
60.769802
 11
15.000011
 21
61.519238
  0
LINE
  8
TEILE
 62
2
 10
15.000011
 20
61.519238
 11
16.339184
 21
62.339882
  0
LINE
  8
TEILE
 62
2
 10
16.339184
 20
62.339882
 11
17.633570
 21
63.229488
  0
LINE
  8
TEILE
 62
2
 10
17.633570
 20
63.229488
 11
18.879625
 21
64.185623
  0
LINE
  8
TEILE
 62
2
 10
18.879625
 20
64.185623
 11
20.073929
 21
65.205658
  0
LINE
  8
TEILE
 62
2
 10
20.073929
 20
65.205658
 11
21.213215
 21
66.286797
  0
LINE
  8
TEILE
 62
2
 10
21.213215
 20
66.286797
 11
22.294353
 21
67.426086
  0
LINE
  8
TEILE
 62
2
 10
22.294353
 20
67.426086
 11
23.314390
 21
68.620392
  0
LINE
  8
TEILE
 62
2
 10
23.314390
 20
68.620392
 11
24.270519
 21
69.866440
  0
LINE
  8
TEILE
 62
2
 10
24.270519
 20
69.866440
 11
25.160126
 21
71.160828
  0
LINE
  8
TEILE
 62
2
 10
25.160126
 20
71.160828
 11
25.980770
 21
72.500000
  0
LINE
  8
TEILE
 62
2
 10
25.980770
 20
72.500000
 11
26.730204
 21
73.880287
  0
LINE
  8
TEILE
 62
2
 10
26.730204
 20
73.880287
 11
27.406370
 21
75.297905
  0
LINE
  8
TEILE
 62
2
 10
27.406370
 20
75.297905
 11
28.007420
 21
76.748970
  0
LINE
  8
TEILE
 62
2
 10
28.007420
 20
76.748970
 11
28.531702
 21
78.229492
  0
LINE
  8
TEILE
 62
2
 10
28.531702
 20
78.229492
 11
28.977779
 21
79.735435
  0
LINE
  8
TEILE
 62
2
 10
28.977779
 20
79.735435
 11
29.344435
 21
81.262657
  0
LINE
  8
TEILE
 62
2
 10
29.344435
 20
81.262657
 11
29.630657
 21
82.806969
  0
LINE
  8
TEILE
 62
2
 10
29.630657
 20
82.806969
 11
29.835661
 21
84.364159
  0
LINE
  8
TEILE
 62
2
 10
29.835661
 20
84.364159
 11
29.958889
 21
85.929932
  0
LINE
  8
TEILE
 62
2
 10
29.958889
 20
85.929932
 11
30.000002
 21
87.500008
  0
LINE
  8
TEILE
 62
2
 10
30.000002
 20
87.500008
 11
30.000000
 21
87.500000
  0
LINE
  8
TEILE
 62
2
 10
30.000000
 20
87.500000
 11
298.000000
 21
87.500000
  0
LINE
  8
TEILE
 62
2
 10
298.000000
 20
87.500000
 11
298.044006
 21
85.875824
  0
LINE
  8
TEILE
 62
2
 10
298.044006
 20
85.875824
 11
298.175873
 21
84.256432
  0
LINE
  8
TEILE
 62
2
 10
298.175873
 20
84.256432
 11
298.395203
 21
82.646545
  0
LINE
  8
TEILE
 62
2
 10
298.395203
 20
82.646545
 11
298.701385
 21
81.050880
  0
LINE
  8
TEILE
 62
2
 10
298.701385
 20
81.050880
 11
299.093506
 21
79.474152
  0
LINE
  8
TEILE
 62
2
 10
299.093506
 20
79.474152
 11
299.570404
 21
77.920959
  0
LINE
  8
TEILE
 62
2
 10
299.570404
 20
77.920959
 11
300.130676
 21
76.395859
  0
LINE
  8
TEILE
 62
2
 10
300.130676
 20
76.395859
 11
300.772736
 21
74.903328
  0
LINE
  8
TEILE
 62
2
 10
300.772736
 20
74.903328
 11
301.494629
 21
73.447754
  0
LINE
  8
TEILE
 62
2
 10
301.494629
 20
73.447754
 11
302.294281
 21
72.033394
  0
LINE
  8
TEILE
 62
2
 10
302.294281
 20
72.033394
 11
303.169312
 21
70.664398
  0
LINE
  8
TEILE
 62
2
 10
303.169312
 20
70.664398
 11
304.117188
 21
69.344780
  0
LINE
  8
TEILE
 62
2
 10
304.117188
 20
69.344780
 11
305.135132
 21
68.078423
  0
LINE
  8
TEILE
 62
2
 10
305.135132
 20
68.078423
 11
306.220123
 21
66.869026
  0
LINE
  8
TEILE
 62
2
 10
306.220123
 20
66.869026
 11
307.369019
 21
65.720146
  0
LINE
  8
TEILE
 62
2
 10
307.369019
 20
65.720146
 11
308.578400
 21
64.635147
  0
LINE
  8
TEILE
 62
2
 10
308.578400
 20
64.635147
 11
309.844757
 21
63.617218
  0
LINE
  8
TEILE
 62
2
 10
309.844757
 20
63.617218
 11
311.164368
 21
62.669338
  0
LINE
  8
TEILE
 62
2
 10
311.164368
 20
62.669338
 11
312.533356
 21
61.794296
  0
LINE
  8
TEILE
 62
2
 10
312.533356
 20
61.794296
 11
313.947723
 21
60.994648
  0
LINE
  8
TEILE
 62
2
 10
313.947723
 20
60.994648
 11
315.403320
 21
60.272747
  0
LINE
  8
TEILE
 62
2
 10
315.403320
 20
60.272747
 11
316.895813
 21
59.630707
  0
LINE
  8
TEILE
 62
2
 10
316.895813
 20
59.630707
 11
318.420929
 21
59.070415
  0
LINE
  8
TEILE
 62
2
 10
318.420929
 20
59.070415
 11
319.974121
 21
58.593506
  0
LINE
  8
TEILE
 62
2
 10
319.974121
 20
58.593506
 11
321.550873
 21
58.201389
  0
LINE
  8
TEILE
 62
2
 10
321.550873
 20
58.201389
 11
323.146515
 21
57.895210
  0
LINE
  8
TEILE
 62
2
 10
323.146515
 20
57.895210
 11
324.756409
 21
57.675865
  0
LINE
  8
TEILE
 62
2
 10
324.756409
 20
57.675865
 11
326.375793
 21
57.544003
  0
LINE
  8
TEILE
 62
2
 10
326.375793
 20
57.544003
 11
327.999939
 21
57.500004
  0
LINE
  8
TEILE
 62
2
 10
327.999939
 20
57.500004
 11
328.000000
 21
57.499996
  0
LINE
  8
TEILE
 62
2
 10
328.000000
 20
57.499996
 11
328.000000
 21
-87.500000
  0
ENDSEC
  0
EOF

