999
     *******************************************
999
     BOCAD Software GmbH   Rev.18.000   0202.22
999
     Filename:   c:\progetti21\danieli_aqs\b4\temp_11\30239.dxf
999
     Creator:    bocad
999
     Date:       20.01.2016
999
     Factor:     10.000000
999
     *******************************************
  0
SECTION
  2
HEADER
  9
$DWGCODEPAGE
  3
ANSI_1252
  9
$INSBASE
 10
0.0
 20
0.0
 30
0.0
  9
$EXTMIN
 10
-0.500000
 20
-200.499992
  9
$EXTMAX
 10
560.510750
 20
200.499992
  9
$LIMMIN
 10
-1.500000
 20
-201.499992
  9
$LIMMAX
 10
561.510750
 20
201.499992
  9
$LTSCALE
 40
10.000000
  0
ENDSEC
  0
SECTION
  2
TABLES
  0
TABLE
  2
LTYPE
 70
4
  0
LTYPE
  2
CONTINUOUS
 70
64
  3
____________________________________________
 72
65
 73
0
 40
0.0
  0
LTYPE
  2
HIDDEN
 70
64
  3
__ __ __ __ __ __ __ __ __ __ __ __ __ __ __
 72
65
 73
2
 40
0.50
 49
0.30
 49
-0.20
  0
LTYPE
  2
DASHDOT
 70
64
  3
____ _ ____ _ ____ _ ____ _ ____ _ ____ _ __
 72
65
 73
4
 40
2.0
 49
1.5
 49
-0.25
 49
0
 49
-0.25
  0
LTYPE
  2
DOT
 70
64
  3
............................................
 72
65
 73
2
 40
0.30
 49
0
 49
-0.30
  0
ENDTAB
  0
TABLE
  2
LAYER
 70
23
  0
LAYER
  2
SCHRAUBEN
 70
64
 62
7
  6
CONTINUOUS
  0
LAYER
  2
REST
 70
64
 62
7
  6
CONTINUOUS
  0
LAYER
  2
UNTERSCHRIFT
 70
64
 62
7
  6
CONTINUOUS
  0
LAYER
  2
TEILE
 70
64
 62
7
  6
CONTINUOUS
  0
LAYER
  2
BEZ_SCHRAUBEN
 70
64
 62
7
  6
CONTINUOUS
  0
LAYER
  2
MARKERPUNKTE
 70
64
 62
7
  6
CONTINUOUS
  0
LAYER
  2
HILFSPUNKTE
 70
64
 62
7
  6
CONTINUOUS
  0
LAYER
  2
PICKPUNKTE
 70
64
 62
7
  6
CONTINUOUS
  0
LAYER
  2
SCHWEISSEN
 70
64
 62
7
  6
CONTINUOUS
  0
LAYER
  2
GRAFIK
 70
64
 62
7
  6
CONTINUOUS
  0
LAYER
  2
BEM_FREI
 70
64
 62
7
  6
CONTINUOUS
  0
LAYER
  2
BEM_SYSTEM
 70
64
 62
7
  6
CONTINUOUS
  0
LAYER
  2
BEM_KONTUR
 70
64
 62
7
  6
CONTINUOUS
  0
LAYER
  2
BEM_ANBAU
 70
64
 62
7
  6
CONTINUOUS
  0
LAYER
  2
BEM_SCHRAUBEN
 70
64
 62
7
  6
CONTINUOUS
  0
LAYER
  2
BEM_SCHWEISSEN
 70
64
 62
7
  6
CONTINUOUS
  0
LAYER
  2
FREIER_TEXT
 70
64
 62
7
  6
CONTINUOUS
  0
LAYER
  2
BEZ_TEILE
 70
64
 62
7
  6
CONTINUOUS
  0
LAYER
  2
BEZ_SCHWEISSEN
 70
64
 62
7
  6
CONTINUOUS
  0
LAYER
  2
SCHRAFFUREN
 70
64
 62
7
  6
CONTINUOUS
  0
LAYER
  2
SCHNITTSYMBOL
 70
64
 62
7
  6
CONTINUOUS
  0
LAYER
  2
RASTER
 70
64
 62
7
  6
CONTINUOUS
  0
LAYER
  2
LISTEN
 70
64
 62
7
  6
CONTINUOUS
  0
LAYER
  2
RAHMEN
 70
64
 62
7
  6
CONTINUOUS
  0
ENDTAB
  0
TABLE
  2
STYLE
 70
1
  0
STYLE
  2
STANDARD
 70
64
 40
0
 41
1
 50
0.0
 71
0
 42
0.35
  3
ROMANS
  0
ENDTAB
  0
ENDSEC
  0
SECTION
  2
ENTITIES
  0
ARC
  8
SCHRAUBEN
 62
4
 10
163.001007
 20
99.999832
 40
13.000008
 50
270.000000
 51
450.000000
  0
LINE
  8
SCHRAUBEN
 62
4
 10
163.001007
 20
112.999832
 11
127.001007
 21
112.999832
  0
ARC
  8
SCHRAUBEN
 62
4
 10
127.001007
 20
99.999832
 40
13.000000
 50
450.000000
 51
270.000000
  0
LINE
  8
SCHRAUBEN
 62
4
 10
127.001007
 20
86.999825
 11
163.001007
 21
86.999825
  0
LINE
  8
SCHRAUBEN
 62
6
 10
168.201004
 20
105.199829
 11
157.800995
 21
94.799820
  0
LINE
  8
SCHRAUBEN
 62
6
 10
157.800995
 20
105.199829
 11
168.201004
 21
94.799820
  0
LINE
  8
SCHRAUBEN
 62
6
 10
132.201019
 20
105.199829
 11
121.801003
 21
94.799820
  0
LINE
  8
SCHRAUBEN
 62
6
 10
121.801003
 20
105.199829
 11
132.201019
 21
94.799820
  0
ARC
  8
SCHRAUBEN
 62
4
 10
433.001038
 20
99.999832
 40
13.000008
 50
270.000000
 51
450.000000
  0
LINE
  8
SCHRAUBEN
 62
4
 10
433.001038
 20
112.999832
 11
397.001038
 21
112.999832
  0
ARC
  8
SCHRAUBEN
 62
4
 10
397.001038
 20
99.999832
 40
13.000000
 50
450.000000
 51
270.000000
  0
LINE
  8
SCHRAUBEN
 62
4
 10
397.001038
 20
86.999825
 11
433.001038
 21
86.999825
  0
LINE
  8
SCHRAUBEN
 62
6
 10
438.201019
 20
105.199829
 11
427.801025
 21
94.799820
  0
LINE
  8
SCHRAUBEN
 62
6
 10
427.801025
 20
105.199829
 11
438.201019
 21
94.799820
  0
LINE
  8
SCHRAUBEN
 62
6
 10
402.201050
 20
105.199829
 11
391.801025
 21
94.799820
  0
LINE
  8
SCHRAUBEN
 62
6
 10
391.801025
 20
105.199829
 11
402.201050
 21
94.799820
  0
ARC
  8
SCHRAUBEN
 62
4
 10
433.001038
 20
-100.000183
 40
13.000000
 50
270.000000
 51
450.000000
  0
LINE
  8
SCHRAUBEN
 62
4
 10
433.001038
 20
-87.000183
 11
397.001038
 21
-87.000183
  0
ARC
  8
SCHRAUBEN
 62
4
 10
397.001038
 20
-100.000183
 40
13.000000
 50
450.000000
 51
270.000000
  0
LINE
  8
SCHRAUBEN
 62
4
 10
397.001038
 20
-113.000183
 11
433.001038
 21
-113.000183
  0
LINE
  8
SCHRAUBEN
 62
6
 10
438.201019
 20
-94.800179
 11
427.801025
 21
-105.200188
  0
LINE
  8
SCHRAUBEN
 62
6
 10
427.801025
 20
-94.800179
 11
438.201019
 21
-105.200188
  0
LINE
  8
SCHRAUBEN
 62
6
 10
402.201050
 20
-94.800179
 11
391.801025
 21
-105.200188
  0
LINE
  8
SCHRAUBEN
 62
6
 10
391.801025
 20
-94.800179
 11
402.201050
 21
-105.200188
  0
ARC
  8
SCHRAUBEN
 62
4
 10
163.001007
 20
-100.000183
 40
13.000000
 50
270.000000
 51
450.000000
  0
LINE
  8
SCHRAUBEN
 62
4
 10
163.001007
 20
-87.000183
 11
127.001007
 21
-87.000183
  0
ARC
  8
SCHRAUBEN
 62
4
 10
127.001007
 20
-100.000183
 40
13.000000
 50
450.000000
 51
270.000000
  0
LINE
  8
SCHRAUBEN
 62
4
 10
127.001007
 20
-113.000183
 11
163.001007
 21
-113.000183
  0
LINE
  8
SCHRAUBEN
 62
6
 10
168.201004
 20
-94.800179
 11
157.800995
 21
-105.200188
  0
LINE
  8
SCHRAUBEN
 62
6
 10
157.800995
 20
-94.800179
 11
168.201004
 21
-105.200188
  0
LINE
  8
SCHRAUBEN
 62
6
 10
132.201019
 20
-94.800179
 11
121.801003
 21
-105.200188
  0
LINE
  8
SCHRAUBEN
 62
6
 10
121.801003
 20
-94.800179
 11
132.201019
 21
-105.200188
  0
TEXT
 8
UNTERSCHRIFT
 62
2
 10
558.010742
 20
-78.000000
 40
3.250000
 50
90.000000
 41
0.800000
 51
15.000000
  1
Project  DP0GN9  ,Qty. 2  , Pos. 
  0
TEXT
 8
UNTERSCHRIFT
 62
2
 10
558.010742
 20
20.800001
 40
3.250000
 50
90.000000
 41
0.800000
 51
15.000000
  1
  , Profi l PL400*25
  0
TEXT
 8
UNTERSCHRIFT
 62
2
 10
558.010742
 20
7.800001
 40
3.250000
 50
90.000000
 41
0.800000
 51
15.000000
  1
30239
  0
LINE
  8
TEILE
 62
2
 10
560.010742
 20
-200.000000
 11
0.000000
 21
-200.000000
  0
LINE
  8
TEILE
 62
2
 10
0.000000
 20
-200.000000
 11
0.000000
 21
200.000000
  0
LINE
  8
TEILE
 62
2
 10
0.000000
 20
200.000000
 11
560.010742
 21
200.000000
  0
LINE
  8
TEILE
 62
2
 10
560.010742
 20
200.000000
 11
560.010742
 21
-200.000000
  0
TEXT
 8
BEZ_SCHRAUBEN
 62
2
 10
155.001007
 20
79.499825
 40
5.000000
 41
0.799999
 51
15.000000
  1
 ø26
  0
ENDSEC
  0
EOF

