999
     *******************************************
999
     BOCAD Software GmbH   Rev.18.000   0202.22
999
     Filename:   c:\progetti21\danieli_aqs\b4\temp_11\30238.dxf
999
     Creator:    bocad
999
     Date:       20.01.2016
999
     Factor:     10.000000
999
     *******************************************
  0
SECTION
  2
HEADER
  9
$DWGCODEPAGE
  3
ANSI_1252
  9
$INSBASE
 10
0.0
 20
0.0
 30
0.0
  9
$EXTMIN
 10
-0.500000
 20
-200.499992
  9
$EXTMAX
 10
3060.503235
 20
200.499992
  9
$LIMMIN
 10
-1.500000
 20
-201.499992
  9
$LIMMAX
 10
3061.503235
 20
201.499992
  9
$LTSCALE
 40
10.000000
  0
ENDSEC
  0
SECTION
  2
TABLES
  0
TABLE
  2
LTYPE
 70
4
  0
LTYPE
  2
CONTINUOUS
 70
64
  3
____________________________________________
 72
65
 73
0
 40
0.0
  0
LTYPE
  2
HIDDEN
 70
64
  3
__ __ __ __ __ __ __ __ __ __ __ __ __ __ __
 72
65
 73
2
 40
0.50
 49
0.30
 49
-0.20
  0
LTYPE
  2
DASHDOT
 70
64
  3
____ _ ____ _ ____ _ ____ _ ____ _ ____ _ __
 72
65
 73
4
 40
2.0
 49
1.5
 49
-0.25
 49
0
 49
-0.25
  0
LTYPE
  2
DOT
 70
64
  3
............................................
 72
65
 73
2
 40
0.30
 49
0
 49
-0.30
  0
ENDTAB
  0
TABLE
  2
LAYER
 70
23
  0
LAYER
  2
SCHRAUBEN
 70
64
 62
7
  6
CONTINUOUS
  0
LAYER
  2
REST
 70
64
 62
7
  6
CONTINUOUS
  0
LAYER
  2
UNTERSCHRIFT
 70
64
 62
7
  6
CONTINUOUS
  0
LAYER
  2
TEILE
 70
64
 62
7
  6
CONTINUOUS
  0
LAYER
  2
BEZ_SCHRAUBEN
 70
64
 62
7
  6
CONTINUOUS
  0
LAYER
  2
MARKERPUNKTE
 70
64
 62
7
  6
CONTINUOUS
  0
LAYER
  2
HILFSPUNKTE
 70
64
 62
7
  6
CONTINUOUS
  0
LAYER
  2
PICKPUNKTE
 70
64
 62
7
  6
CONTINUOUS
  0
LAYER
  2
SCHWEISSEN
 70
64
 62
7
  6
CONTINUOUS
  0
LAYER
  2
GRAFIK
 70
64
 62
7
  6
CONTINUOUS
  0
LAYER
  2
BEM_FREI
 70
64
 62
7
  6
CONTINUOUS
  0
LAYER
  2
BEM_SYSTEM
 70
64
 62
7
  6
CONTINUOUS
  0
LAYER
  2
BEM_KONTUR
 70
64
 62
7
  6
CONTINUOUS
  0
LAYER
  2
BEM_ANBAU
 70
64
 62
7
  6
CONTINUOUS
  0
LAYER
  2
BEM_SCHRAUBEN
 70
64
 62
7
  6
CONTINUOUS
  0
LAYER
  2
BEM_SCHWEISSEN
 70
64
 62
7
  6
CONTINUOUS
  0
LAYER
  2
FREIER_TEXT
 70
64
 62
7
  6
CONTINUOUS
  0
LAYER
  2
BEZ_TEILE
 70
64
 62
7
  6
CONTINUOUS
  0
LAYER
  2
BEZ_SCHWEISSEN
 70
64
 62
7
  6
CONTINUOUS
  0
LAYER
  2
SCHRAFFUREN
 70
64
 62
7
  6
CONTINUOUS
  0
LAYER
  2
SCHNITTSYMBOL
 70
64
 62
7
  6
CONTINUOUS
  0
LAYER
  2
RASTER
 70
64
 62
7
  6
CONTINUOUS
  0
LAYER
  2
LISTEN
 70
64
 62
7
  6
CONTINUOUS
  0
LAYER
  2
RAHMEN
 70
64
 62
7
  6
CONTINUOUS
  0
ENDTAB
  0
TABLE
  2
STYLE
 70
1
  0
STYLE
  2
STANDARD
 70
64
 40
0
 41
1
 50
0.0
 71
0
 42
0.35
  3
ROMANS
  0
ENDTAB
  0
ENDSEC
  0
SECTION
  2
ENTITIES
  0
ARC
  8
SCHRAUBEN
 62
4
 10
397.002197
 20
-100.000183
 40
13.000000
 50
450.000000
 51
270.000000
  0
LINE
  8
SCHRAUBEN
 62
4
 10
397.002197
 20
-113.000183
 11
433.002167
 21
-113.000183
  0
ARC
  8
SCHRAUBEN
 62
4
 10
433.002167
 20
-100.000183
 40
13.000000
 50
270.000000
 51
450.000000
  0
LINE
  8
SCHRAUBEN
 62
4
 10
433.002167
 20
-87.000183
 11
397.002197
 21
-87.000183
  0
LINE
  8
SCHRAUBEN
 62
6
 10
402.202179
 20
-94.800179
 11
391.802185
 21
-105.200188
  0
LINE
  8
SCHRAUBEN
 62
6
 10
391.802185
 20
-94.800179
 11
402.202179
 21
-105.200188
  0
LINE
  8
SCHRAUBEN
 62
6
 10
438.202179
 20
-94.800179
 11
427.802155
 21
-105.200188
  0
LINE
  8
SCHRAUBEN
 62
6
 10
427.802155
 20
-94.800179
 11
438.202179
 21
-105.200188
  0
ARC
  8
SCHRAUBEN
 62
4
 10
127.002151
 20
-100.000183
 40
13.000000
 50
450.000000
 51
270.000000
  0
LINE
  8
SCHRAUBEN
 62
4
 10
127.002151
 20
-113.000183
 11
163.002151
 21
-113.000183
  0
ARC
  8
SCHRAUBEN
 62
4
 10
163.002151
 20
-100.000183
 40
13.000000
 50
270.000000
 51
450.000000
  0
LINE
  8
SCHRAUBEN
 62
4
 10
163.002151
 20
-87.000183
 11
127.002151
 21
-87.000183
  0
LINE
  8
SCHRAUBEN
 62
6
 10
132.202164
 20
-94.800179
 11
121.802147
 21
-105.200188
  0
LINE
  8
SCHRAUBEN
 62
6
 10
121.802147
 20
-94.800179
 11
132.202164
 21
-105.200188
  0
LINE
  8
SCHRAUBEN
 62
6
 10
168.202148
 20
-94.800179
 11
157.802139
 21
-105.200188
  0
LINE
  8
SCHRAUBEN
 62
6
 10
157.802139
 20
-94.800179
 11
168.202148
 21
-105.200188
  0
ARC
  8
SCHRAUBEN
 62
4
 10
127.002151
 20
99.999832
 40
13.000000
 50
450.000000
 51
270.000000
  0
LINE
  8
SCHRAUBEN
 62
4
 10
127.002151
 20
86.999825
 11
163.002151
 21
86.999825
  0
ARC
  8
SCHRAUBEN
 62
4
 10
163.002151
 20
99.999832
 40
13.000008
 50
270.000000
 51
450.000000
  0
LINE
  8
SCHRAUBEN
 62
4
 10
163.002151
 20
112.999832
 11
127.002151
 21
112.999832
  0
LINE
  8
SCHRAUBEN
 62
6
 10
132.202164
 20
105.199829
 11
121.802147
 21
94.799820
  0
LINE
  8
SCHRAUBEN
 62
6
 10
121.802147
 20
105.199829
 11
132.202164
 21
94.799820
  0
LINE
  8
SCHRAUBEN
 62
6
 10
168.202148
 20
105.199829
 11
157.802139
 21
94.799820
  0
LINE
  8
SCHRAUBEN
 62
6
 10
157.802139
 20
105.199829
 11
168.202148
 21
94.799820
  0
ARC
  8
SCHRAUBEN
 62
4
 10
397.002197
 20
99.999832
 40
13.000000
 50
450.000000
 51
270.000000
  0
LINE
  8
SCHRAUBEN
 62
4
 10
397.002197
 20
86.999825
 11
433.002167
 21
86.999825
  0
ARC
  8
SCHRAUBEN
 62
4
 10
433.002167
 20
99.999832
 40
13.000008
 50
270.000000
 51
450.000000
  0
LINE
  8
SCHRAUBEN
 62
4
 10
433.002167
 20
112.999832
 11
397.002197
 21
112.999832
  0
LINE
  8
SCHRAUBEN
 62
6
 10
402.202179
 20
105.199829
 11
391.802185
 21
94.799820
  0
LINE
  8
SCHRAUBEN
 62
6
 10
391.802185
 20
105.199829
 11
402.202179
 21
94.799820
  0
LINE
  8
SCHRAUBEN
 62
6
 10
438.202179
 20
105.199829
 11
427.802155
 21
94.799820
  0
LINE
  8
SCHRAUBEN
 62
6
 10
427.802155
 20
105.199829
 11
438.202179
 21
94.799820
  0
LINE
  8
SCHRAUBEN
 62
6
 10
2035.796997
 20
-54.199989
 11
2024.196899
 21
-65.799988
  0
LINE
  8
SCHRAUBEN
 62
6
 10
2024.196899
 20
-54.199989
 11
2035.796997
 21
-65.799988
  0
CIRCLE
  8
SCHRAUBEN
 62
2
 10
2029.996948
 20
-59.999992
 40
14.500000
  0
LINE
  8
SCHRAUBEN
 62
6
 10
2035.796997
 20
65.800003
 11
2024.196899
 21
54.200001
  0
LINE
  8
SCHRAUBEN
 62
6
 10
2024.196899
 20
65.800003
 11
2035.796997
 21
54.200001
  0
CIRCLE
  8
SCHRAUBEN
 62
2
 10
2029.996948
 20
60.000000
 40
14.500000
  0
LINE
  8
SCHRAUBEN
 62
6
 10
1895.796997
 20
150.800003
 11
1884.196899
 21
139.199997
  0
LINE
  8
SCHRAUBEN
 62
6
 10
1884.196899
 20
150.800003
 11
1895.796997
 21
139.199997
  0
CIRCLE
  8
SCHRAUBEN
 62
2
 10
1889.996948
 20
145.000000
 40
14.500000
  0
LINE
  8
SCHRAUBEN
 62
6
 10
1895.796997
 20
65.800003
 11
1884.196899
 21
54.200001
  0
LINE
  8
SCHRAUBEN
 62
6
 10
1884.196899
 20
65.800003
 11
1895.796997
 21
54.200001
  0
CIRCLE
  8
SCHRAUBEN
 62
2
 10
1889.996948
 20
60.000000
 40
14.500000
  0
LINE
  8
SCHRAUBEN
 62
6
 10
1895.796997
 20
-54.199989
 11
1884.196899
 21
-65.799988
  0
LINE
  8
SCHRAUBEN
 62
6
 10
1884.196899
 20
-54.199989
 11
1895.796997
 21
-65.799988
  0
CIRCLE
  8
SCHRAUBEN
 62
2
 10
1889.996948
 20
-59.999992
 40
14.500000
  0
LINE
  8
SCHRAUBEN
 62
6
 10
1895.796997
 20
-139.199997
 11
1884.196899
 21
-150.799988
  0
LINE
  8
SCHRAUBEN
 62
6
 10
1884.196899
 20
-139.199997
 11
1895.796997
 21
-150.799988
  0
CIRCLE
  8
SCHRAUBEN
 62
2
 10
1889.996948
 20
-144.999985
 40
14.500000
  0
LINE
  8
SCHRAUBEN
 62
6
 10
1740.796997
 20
-54.199997
 11
1729.196899
 21
-65.799995
  0
LINE
  8
SCHRAUBEN
 62
6
 10
1729.196899
 20
-54.199997
 11
1740.796997
 21
-65.799995
  0
CIRCLE
  8
SCHRAUBEN
 62
2
 10
1734.996948
 20
-59.999996
 40
14.500000
  0
LINE
  8
SCHRAUBEN
 62
6
 10
1740.796997
 20
-139.199997
 11
1729.196899
 21
-150.800003
  0
LINE
  8
SCHRAUBEN
 62
6
 10
1729.196899
 20
-139.199997
 11
1740.796997
 21
-150.800003
  0
CIRCLE
  8
SCHRAUBEN
 62
2
 10
1734.996948
 20
-145.000000
 40
14.500000
  0
LINE
  8
SCHRAUBEN
 62
6
 10
1740.796997
 20
65.800003
 11
1729.196899
 21
54.200005
  0
LINE
  8
SCHRAUBEN
 62
6
 10
1729.196899
 20
65.800003
 11
1740.796997
 21
54.200005
  0
CIRCLE
  8
SCHRAUBEN
 62
2
 10
1734.996948
 20
60.000004
 40
14.500000
  0
LINE
  8
SCHRAUBEN
 62
6
 10
1740.796997
 20
150.800003
 11
1729.196899
 21
139.200012
  0
LINE
  8
SCHRAUBEN
 62
6
 10
1729.196899
 20
150.800003
 11
1740.796997
 21
139.200012
  0
CIRCLE
  8
SCHRAUBEN
 62
2
 10
1734.996948
 20
145.000015
 40
14.500000
  0
LINE
  8
SCHRAUBEN
 62
6
 10
1330.796997
 20
150.800003
 11
1319.196899
 21
139.200012
  0
LINE
  8
SCHRAUBEN
 62
6
 10
1319.196899
 20
150.800003
 11
1330.796997
 21
139.200012
  0
CIRCLE
  8
SCHRAUBEN
 62
2
 10
1324.996948
 20
145.000015
 40
14.500000
  0
LINE
  8
SCHRAUBEN
 62
6
 10
1330.796997
 20
65.800003
 11
1319.196899
 21
54.200005
  0
LINE
  8
SCHRAUBEN
 62
6
 10
1319.196899
 20
65.800003
 11
1330.796997
 21
54.200005
  0
CIRCLE
  8
SCHRAUBEN
 62
2
 10
1324.996948
 20
60.000004
 40
14.500000
  0
LINE
  8
SCHRAUBEN
 62
6
 10
1330.796997
 20
-54.199997
 11
1319.196899
 21
-65.799995
  0
LINE
  8
SCHRAUBEN
 62
6
 10
1319.196899
 20
-54.199997
 11
1330.796997
 21
-65.799995
  0
CIRCLE
  8
SCHRAUBEN
 62
2
 10
1324.996948
 20
-59.999996
 40
14.500000
  0
LINE
  8
SCHRAUBEN
 62
6
 10
1330.796997
 20
-139.199997
 11
1319.196899
 21
-150.800003
  0
LINE
  8
SCHRAUBEN
 62
6
 10
1319.196899
 20
-139.199997
 11
1330.796997
 21
-150.800003
  0
CIRCLE
  8
SCHRAUBEN
 62
2
 10
1324.996948
 20
-145.000000
 40
14.500000
  0
LINE
  8
SCHRAUBEN
 62
6
 10
1175.796875
 20
-139.199997
 11
1164.196899
 21
-150.800003
  0
LINE
  8
SCHRAUBEN
 62
6
 10
1164.196899
 20
-139.199997
 11
1175.796875
 21
-150.800003
  0
CIRCLE
  8
SCHRAUBEN
 62
2
 10
1169.996826
 20
-145.000000
 40
14.500000
  0
LINE
  8
SCHRAUBEN
 62
6
 10
1175.796875
 20
-54.199997
 11
1164.196899
 21
-65.799995
  0
LINE
  8
SCHRAUBEN
 62
6
 10
1164.196899
 20
-54.199997
 11
1175.796875
 21
-65.799995
  0
CIRCLE
  8
SCHRAUBEN
 62
2
 10
1169.996826
 20
-59.999996
 40
14.500000
  0
LINE
  8
SCHRAUBEN
 62
6
 10
1175.796875
 20
65.800003
 11
1164.196899
 21
54.200005
  0
LINE
  8
SCHRAUBEN
 62
6
 10
1164.196899
 20
65.800003
 11
1175.796875
 21
54.200005
  0
CIRCLE
  8
SCHRAUBEN
 62
2
 10
1169.996826
 20
60.000004
 40
14.500000
  0
LINE
  8
SCHRAUBEN
 62
6
 10
1175.796875
 20
150.800003
 11
1164.196899
 21
139.200012
  0
LINE
  8
SCHRAUBEN
 62
6
 10
1164.196899
 20
150.800003
 11
1175.796875
 21
139.200012
  0
CIRCLE
  8
SCHRAUBEN
 62
2
 10
1169.996826
 20
145.000015
 40
14.500000
  0
LINE
  8
SCHRAUBEN
 62
6
 10
1035.796875
 20
65.800003
 11
1024.196899
 21
54.200005
  0
LINE
  8
SCHRAUBEN
 62
6
 10
1024.196899
 20
65.800003
 11
1035.796875
 21
54.200005
  0
CIRCLE
  8
SCHRAUBEN
 62
2
 10
1029.996826
 20
60.000004
 40
14.500000
  0
LINE
  8
SCHRAUBEN
 62
6
 10
1035.796875
 20
-54.199997
 11
1024.196899
 21
-65.799995
  0
LINE
  8
SCHRAUBEN
 62
6
 10
1024.196899
 20
-54.199997
 11
1035.796875
 21
-65.799995
  0
CIRCLE
  8
SCHRAUBEN
 62
2
 10
1029.996826
 20
-59.999996
 40
14.500000
  0
LINE
  8
SCHRAUBEN
 62
6
 10
1490.796997
 20
-54.199997
 11
1479.196899
 21
-65.799995
  0
LINE
  8
SCHRAUBEN
 62
6
 10
1479.196899
 20
-54.199997
 11
1490.796997
 21
-65.799995
  0
CIRCLE
  8
SCHRAUBEN
 62
2
 10
1484.996948
 20
-59.999996
 40
14.500000
  0
LINE
  8
SCHRAUBEN
 62
6
 10
1490.796997
 20
65.800003
 11
1479.196899
 21
54.200005
  0
LINE
  8
SCHRAUBEN
 62
6
 10
1479.196899
 20
65.800003
 11
1490.796997
 21
54.200005
  0
CIRCLE
  8
SCHRAUBEN
 62
2
 10
1484.996948
 20
60.000004
 40
14.500000
  0
LINE
  8
SCHRAUBEN
 62
6
 10
1580.796997
 20
65.800003
 11
1569.196899
 21
54.200005
  0
LINE
  8
SCHRAUBEN
 62
6
 10
1569.196899
 20
65.800003
 11
1580.796997
 21
54.200005
  0
CIRCLE
  8
SCHRAUBEN
 62
2
 10
1574.996948
 20
60.000004
 40
14.500000
  0
LINE
  8
SCHRAUBEN
 62
6
 10
1580.796997
 20
-54.199997
 11
1569.196899
 21
-65.799995
  0
LINE
  8
SCHRAUBEN
 62
6
 10
1569.196899
 20
-54.199997
 11
1580.796997
 21
-65.799995
  0
CIRCLE
  8
SCHRAUBEN
 62
2
 10
1574.996948
 20
-59.999996
 40
14.500000
  0
ARC
  8
SCHRAUBEN
 62
4
 10
2897.002197
 20
-100.000183
 40
13.000000
 50
450.000000
 51
270.000000
  0
LINE
  8
SCHRAUBEN
 62
4
 10
2897.002197
 20
-113.000183
 11
2933.002441
 21
-113.000183
  0
ARC
  8
SCHRAUBEN
 62
4
 10
2933.002441
 20
-100.000183
 40
13.000000
 50
270.000000
 51
450.000000
  0
LINE
  8
SCHRAUBEN
 62
4
 10
2933.002441
 20
-87.000183
 11
2897.002197
 21
-87.000183
  0
LINE
  8
SCHRAUBEN
 62
6
 10
2902.202148
 20
-94.800179
 11
2891.802246
 21
-105.200188
  0
LINE
  8
SCHRAUBEN
 62
6
 10
2891.802246
 20
-94.800179
 11
2902.202148
 21
-105.200188
  0
LINE
  8
SCHRAUBEN
 62
6
 10
2938.202148
 20
-94.800179
 11
2927.802490
 21
-105.200188
  0
LINE
  8
SCHRAUBEN
 62
6
 10
2927.802490
 20
-94.800179
 11
2938.202148
 21
-105.200188
  0
ARC
  8
SCHRAUBEN
 62
4
 10
2627.002197
 20
-100.000183
 40
13.000000
 50
450.000000
 51
270.000000
  0
LINE
  8
SCHRAUBEN
 62
4
 10
2627.002197
 20
-113.000183
 11
2663.002441
 21
-113.000183
  0
ARC
  8
SCHRAUBEN
 62
4
 10
2663.002441
 20
-100.000183
 40
13.000000
 50
270.000000
 51
450.000000
  0
LINE
  8
SCHRAUBEN
 62
4
 10
2663.002441
 20
-87.000183
 11
2627.002197
 21
-87.000183
  0
LINE
  8
SCHRAUBEN
 62
6
 10
2632.202148
 20
-94.800179
 11
2621.802246
 21
-105.200188
  0
LINE
  8
SCHRAUBEN
 62
6
 10
2621.802246
 20
-94.800179
 11
2632.202148
 21
-105.200188
  0
LINE
  8
SCHRAUBEN
 62
6
 10
2668.202148
 20
-94.800179
 11
2657.802490
 21
-105.200188
  0
LINE
  8
SCHRAUBEN
 62
6
 10
2657.802490
 20
-94.800179
 11
2668.202148
 21
-105.200188
  0
ARC
  8
SCHRAUBEN
 62
4
 10
2627.002197
 20
99.999832
 40
13.000000
 50
450.000000
 51
270.000000
  0
LINE
  8
SCHRAUBEN
 62
4
 10
2627.002197
 20
86.999825
 11
2663.002441
 21
86.999825
  0
ARC
  8
SCHRAUBEN
 62
4
 10
2663.002441
 20
99.999832
 40
13.000008
 50
270.000000
 51
450.000000
  0
LINE
  8
SCHRAUBEN
 62
4
 10
2663.002441
 20
112.999832
 11
2627.002197
 21
112.999832
  0
LINE
  8
SCHRAUBEN
 62
6
 10
2632.202148
 20
105.199829
 11
2621.802246
 21
94.799820
  0
LINE
  8
SCHRAUBEN
 62
6
 10
2621.802246
 20
105.199829
 11
2632.202148
 21
94.799820
  0
LINE
  8
SCHRAUBEN
 62
6
 10
2668.202148
 20
105.199829
 11
2657.802490
 21
94.799820
  0
LINE
  8
SCHRAUBEN
 62
6
 10
2657.802490
 20
105.199829
 11
2668.202148
 21
94.799820
  0
ARC
  8
SCHRAUBEN
 62
4
 10
2897.002197
 20
99.999832
 40
13.000000
 50
450.000000
 51
270.000000
  0
LINE
  8
SCHRAUBEN
 62
4
 10
2897.002197
 20
86.999825
 11
2933.002441
 21
86.999825
  0
ARC
  8
SCHRAUBEN
 62
4
 10
2933.002441
 20
99.999832
 40
13.000008
 50
270.000000
 51
450.000000
  0
LINE
  8
SCHRAUBEN
 62
4
 10
2933.002441
 20
112.999832
 11
2897.002197
 21
112.999832
  0
LINE
  8
SCHRAUBEN
 62
6
 10
2902.202148
 20
105.199829
 11
2891.802246
 21
94.799820
  0
LINE
  8
SCHRAUBEN
 62
6
 10
2891.802246
 20
105.199829
 11
2902.202148
 21
94.799820
  0
LINE
  8
SCHRAUBEN
 62
6
 10
2938.202148
 20
105.199829
 11
2927.802490
 21
94.799820
  0
LINE
  8
SCHRAUBEN
 62
6
 10
2927.802490
 20
105.199829
 11
2938.202148
 21
94.799820
  0
TEXT
 8
UNTERSCHRIFT
 62
2
 10
1452.001709
 20
-198.000000
 40
3.250000
 41
0.800000
 51
15.000000
  1
Project  DP0GN9  ,Qty. 1  , Pos. 
  0
TEXT
 8
UNTERSCHRIFT
 62
2
 10
1550.801758
 20
-198.000000
 40
3.250000
 41
0.800000
 51
15.000000
  1
  , Profi l PL400*25
  0
TEXT
 8
UNTERSCHRIFT
 62
2
 10
1537.801636
 20
-198.000000
 40
3.250000
 41
0.800000
 51
15.000000
  1
30238
  0
LINE
  8
TEILE
 62
2
 10
0.000000
 20
-200.000000
 11
0.000000
 21
200.000000
  0
LINE
  8
TEILE
 62
2
 10
0.000000
 20
200.000000
 11
3060.003418
 21
200.000000
  0
LINE
  8
TEILE
 62
2
 10
3060.003418
 20
200.000000
 11
3060.003418
 21
-200.000000
  0
LINE
  8
TEILE
 62
2
 10
3060.003418
 20
-200.000000
 11
0.000000
 21
-200.000000
  0
TEXT
 8
BEZ_SCHRAUBEN
 62
2
 10
389.002197
 20
-120.500183
 40
5.000000
 41
0.800000
 51
15.000000
  1
 ø26
  0
TEXT
 8
BEZ_SCHRAUBEN
 62
2
 10
119.002151
 20
-120.500183
 40
5.000000
 41
0.800000
 51
15.000000
  1
 ø26
  0
TEXT
 8
BEZ_SCHRAUBEN
 62
2
 10
119.002151
 20
79.499825
 40
5.000000
 41
0.800000
 51
15.000000
  1
 ø26
  0
TEXT
 8
BEZ_SCHRAUBEN
 62
2
 10
389.002197
 20
79.499825
 40
5.000000
 41
0.800000
 51
15.000000
  1
 ø26
  0
TEXT
 8
BEZ_SCHRAUBEN
 62
2
 10
2021.996826
 20
-82.000000
 40
5.000000
 41
0.800000
 51
15.000000
  1
 ø29
  0
TEXT
 8
BEZ_SCHRAUBEN
 62
2
 10
2021.996826
 20
38.000000
 40
5.000001
 41
0.800000
 51
15.000000
  1
 ø29
  0
TEXT
 8
BEZ_SCHRAUBEN
 62
2
 10
1881.996826
 20
123.000000
 40
5.000000
 41
0.800000
 51
15.000000
  1
 ø29
  0
TEXT
 8
BEZ_SCHRAUBEN
 62
2
 10
1881.996826
 20
38.000000
 40
5.000001
 41
0.800000
 51
15.000000
  1
 ø29
  0
TEXT
 8
BEZ_SCHRAUBEN
 62
2
 10
1881.996826
 20
-82.000000
 40
5.000000
 41
0.800000
 51
15.000000
  1
 ø29
  0
TEXT
 8
BEZ_SCHRAUBEN
 62
2
 10
1881.996826
 20
-166.999985
 40
5.000000
 41
0.800000
 51
15.000000
  1
 ø29
  0
TEXT
 8
BEZ_SCHRAUBEN
 62
2
 10
1726.996826
 20
-82.000000
 40
5.000000
 41
0.800000
 51
15.000000
  1
 ø29
  0
TEXT
 8
BEZ_SCHRAUBEN
 62
2
 10
1726.996826
 20
-167.000000
 40
5.000000
 41
0.800000
 51
15.000000
  1
 ø29
  0
TEXT
 8
BEZ_SCHRAUBEN
 62
2
 10
1726.996826
 20
38.000004
 40
4.999999
 41
0.800000
 51
15.000000
  1
 ø29
  0
TEXT
 8
BEZ_SCHRAUBEN
 62
2
 10
1726.996826
 20
123.000000
 40
5.000000
 41
0.800000
 51
15.000000
  1
 ø29
  0
TEXT
 8
BEZ_SCHRAUBEN
 62
2
 10
1316.996826
 20
123.000000
 40
5.000000
 41
0.800000
 51
15.000000
  1
 ø29
  0
TEXT
 8
BEZ_SCHRAUBEN
 62
2
 10
1316.996826
 20
38.000004
 40
4.999999
 41
0.800000
 51
15.000000
  1
 ø29
  0
TEXT
 8
BEZ_SCHRAUBEN
 62
2
 10
1316.996826
 20
-82.000000
 40
5.000000
 41
0.800000
 51
15.000000
  1
 ø29
  0
TEXT
 8
BEZ_SCHRAUBEN
 62
2
 10
1316.996826
 20
-167.000000
 40
5.000000
 41
0.800000
 51
15.000000
  1
 ø29
  0
TEXT
 8
BEZ_SCHRAUBEN
 62
2
 10
1161.996826
 20
-167.000000
 40
5.000000
 41
0.800000
 51
15.000000
  1
 ø29
  0
TEXT
 8
BEZ_SCHRAUBEN
 62
2
 10
1161.996826
 20
-82.000000
 40
5.000000
 41
0.800000
 51
15.000000
  1
 ø29
  0
TEXT
 8
BEZ_SCHRAUBEN
 62
2
 10
1161.996826
 20
38.000004
 40
4.999999
 41
0.800000
 51
15.000000
  1
 ø29
  0
TEXT
 8
BEZ_SCHRAUBEN
 62
2
 10
1161.996826
 20
123.000000
 40
5.000000
 41
0.800000
 51
15.000000
  1
 ø29
  0
TEXT
 8
BEZ_SCHRAUBEN
 62
2
 10
1021.996826
 20
38.000004
 40
4.999999
 41
0.800000
 51
15.000000
  1
 ø29
  0
TEXT
 8
BEZ_SCHRAUBEN
 62
2
 10
1021.996826
 20
-82.000000
 40
5.000000
 41
0.800000
 51
15.000000
  1
 ø29
  0
TEXT
 8
BEZ_SCHRAUBEN
 62
2
 10
1476.996826
 20
-82.000000
 40
5.000000
 41
0.800000
 51
15.000000
  1
 ø29
  0
TEXT
 8
BEZ_SCHRAUBEN
 62
2
 10
1476.996826
 20
38.000004
 40
4.999999
 41
0.800000
 51
15.000000
  1
 ø29
  0
TEXT
 8
BEZ_SCHRAUBEN
 62
2
 10
1566.996826
 20
38.000004
 40
4.999999
 41
0.800000
 51
15.000000
  1
 ø29
  0
TEXT
 8
BEZ_SCHRAUBEN
 62
2
 10
1566.996826
 20
-82.000000
 40
5.000000
 41
0.800000
 51
15.000000
  1
 ø29
  0
TEXT
 8
BEZ_SCHRAUBEN
 62
2
 10
2889.002441
 20
-120.500183
 40
5.000000
 41
0.800000
 51
15.000000
  1
 ø26
  0
TEXT
 8
BEZ_SCHRAUBEN
 62
2
 10
2619.002441
 20
-120.500183
 40
5.000000
 41
0.800000
 51
15.000000
  1
 ø26
  0
TEXT
 8
BEZ_SCHRAUBEN
 62
2
 10
2619.002441
 20
79.499825
 40
5.000000
 41
0.800000
 51
15.000000
  1
 ø26
  0
TEXT
 8
BEZ_SCHRAUBEN
 62
2
 10
2889.002441
 20
79.499825
 40
5.000000
 41
0.800000
 51
15.000000
  1
 ø26
  0
ENDSEC
  0
EOF

