999
     *******************************************
999
     BOCAD Software GmbH   Rev.18.000   0202.22
999
     Filename:   c:\progetti21\danieli_aqs\b4\temp_11\30240.dxf
999
     Creator:    bocad
999
     Date:       20.01.2016
999
     Factor:     10.000000
999
     *******************************************
  0
SECTION
  2
HEADER
  9
$DWGCODEPAGE
  3
ANSI_1252
  9
$INSBASE
 10
0.0
 20
0.0
 30
0.0
  9
$EXTMIN
 10
-0.500005
 20
-199.499302
  9
$EXTMAX
 10
192.999935
 20
199.499321
  9
$LIMMIN
 10
-1.500005
 20
-200.499302
  9
$LIMMAX
 10
193.999935
 20
200.499321
  9
$LTSCALE
 40
10.000000
  0
ENDSEC
  0
SECTION
  2
TABLES
  0
TABLE
  2
LTYPE
 70
4
  0
LTYPE
  2
CONTINUOUS
 70
64
  3
____________________________________________
 72
65
 73
0
 40
0.0
  0
LTYPE
  2
HIDDEN
 70
64
  3
__ __ __ __ __ __ __ __ __ __ __ __ __ __ __
 72
65
 73
2
 40
0.50
 49
0.30
 49
-0.20
  0
LTYPE
  2
DASHDOT
 70
64
  3
____ _ ____ _ ____ _ ____ _ ____ _ ____ _ __
 72
65
 73
4
 40
2.0
 49
1.5
 49
-0.25
 49
0
 49
-0.25
  0
LTYPE
  2
DOT
 70
64
  3
............................................
 72
65
 73
2
 40
0.30
 49
0
 49
-0.30
  0
ENDTAB
  0
TABLE
  2
LAYER
 70
23
  0
LAYER
  2
UNTERSCHRIFT
 70
64
 62
7
  6
CONTINUOUS
  0
LAYER
  2
TEILE
 70
64
 62
7
  6
CONTINUOUS
  0
LAYER
  2
REST
 70
64
 62
7
  6
CONTINUOUS
  0
LAYER
  2
MARKERPUNKTE
 70
64
 62
7
  6
CONTINUOUS
  0
LAYER
  2
HILFSPUNKTE
 70
64
 62
7
  6
CONTINUOUS
  0
LAYER
  2
PICKPUNKTE
 70
64
 62
7
  6
CONTINUOUS
  0
LAYER
  2
SCHRAUBEN
 70
64
 62
7
  6
CONTINUOUS
  0
LAYER
  2
SCHWEISSEN
 70
64
 62
7
  6
CONTINUOUS
  0
LAYER
  2
GRAFIK
 70
64
 62
7
  6
CONTINUOUS
  0
LAYER
  2
BEM_FREI
 70
64
 62
7
  6
CONTINUOUS
  0
LAYER
  2
BEM_SYSTEM
 70
64
 62
7
  6
CONTINUOUS
  0
LAYER
  2
BEM_KONTUR
 70
64
 62
7
  6
CONTINUOUS
  0
LAYER
  2
BEM_ANBAU
 70
64
 62
7
  6
CONTINUOUS
  0
LAYER
  2
BEM_SCHRAUBEN
 70
64
 62
7
  6
CONTINUOUS
  0
LAYER
  2
BEM_SCHWEISSEN
 70
64
 62
7
  6
CONTINUOUS
  0
LAYER
  2
FREIER_TEXT
 70
64
 62
7
  6
CONTINUOUS
  0
LAYER
  2
BEZ_TEILE
 70
64
 62
7
  6
CONTINUOUS
  0
LAYER
  2
BEZ_SCHRAUBEN
 70
64
 62
7
  6
CONTINUOUS
  0
LAYER
  2
BEZ_SCHWEISSEN
 70
64
 62
7
  6
CONTINUOUS
  0
LAYER
  2
SCHRAFFUREN
 70
64
 62
7
  6
CONTINUOUS
  0
LAYER
  2
SCHNITTSYMBOL
 70
64
 62
7
  6
CONTINUOUS
  0
LAYER
  2
RASTER
 70
64
 62
7
  6
CONTINUOUS
  0
LAYER
  2
LISTEN
 70
64
 62
7
  6
CONTINUOUS
  0
LAYER
  2
RAHMEN
 70
64
 62
7
  6
CONTINUOUS
  0
ENDTAB
  0
TABLE
  2
STYLE
 70
1
  0
STYLE
  2
STANDARD
 70
64
 40
0
 41
1
 50
0.0
 71
0
 42
0.35
  3
ROMANS
  0
ENDTAB
  0
ENDSEC
  0
SECTION
  2
ENTITIES
  0
TEXT
 8
UNTERSCHRIFT
 62
2
 10
190.499939
 20
-78.000000
 40
3.250000
 50
90.000000
 41
0.800000
 51
15.000000
  1
Project  DP0GN9  ,Qty. 4  , Pos. 
  0
TEXT
 8
UNTERSCHRIFT
 62
2
 10
190.499939
 20
20.800001
 40
3.250000
 50
90.000000
 41
0.800000
 51
15.000000
  1
  , Profi l PL398*20
  0
TEXT
 8
UNTERSCHRIFT
 62
2
 10
190.499939
 20
7.800001
 40
3.250000
 50
90.000000
 41
0.800000
 51
15.000000
  1
30240
  0
LINE
  8
TEILE
 62
2
 10
0.000000
 20
-168.999313
 11
0.000000
 21
168.999313
  0
LINE
  8
TEILE
 62
2
 10
0.000000
 20
168.999313
 11
1.570077
 21
169.040436
  0
LINE
  8
TEILE
 62
2
 10
1.570077
 20
169.040436
 11
3.135854
 21
169.163651
  0
LINE
  8
TEILE
 62
2
 10
3.135854
 20
169.163651
 11
4.693036
 21
169.368668
  0
LINE
  8
TEILE
 62
2
 10
4.693036
 20
169.368668
 11
6.237354
 21
169.654877
  0
LINE
  8
TEILE
 62
2
 10
6.237354
 20
169.654877
 11
7.764577
 21
170.021530
  0
LINE
  8
TEILE
 62
2
 10
7.764577
 20
170.021530
 11
9.270516
 21
170.467621
  0
LINE
  8
TEILE
 62
2
 10
9.270516
 20
170.467621
 11
10.751047
 21
170.991898
  0
LINE
  8
TEILE
 62
2
 10
10.751047
 20
170.991898
 11
12.202109
 21
171.592941
  0
LINE
  8
TEILE
 62
2
 10
12.202109
 20
171.592941
 11
13.619727
 21
172.269119
  0
LINE
  8
TEILE
 62
2
 10
13.619727
 20
172.269119
 11
15.000013
 21
173.018555
  0
LINE
  8
TEILE
 62
2
 10
15.000013
 20
173.018555
 11
16.339186
 21
173.839203
  0
LINE
  8
TEILE
 62
2
 10
16.339186
 20
173.839203
 11
17.633572
 21
174.728821
  0
LINE
  8
TEILE
 62
2
 10
17.633572
 20
174.728821
 11
18.879625
 21
175.684952
  0
LINE
  8
TEILE
 62
2
 10
18.879625
 20
175.684952
 11
20.073931
 21
176.704987
  0
LINE
  8
TEILE
 62
2
 10
20.073931
 20
176.704987
 11
21.213217
 21
177.786118
  0
LINE
  8
TEILE
 62
2
 10
21.213217
 20
177.786118
 11
22.294357
 21
178.925400
  0
LINE
  8
TEILE
 62
2
 10
22.294357
 20
178.925400
 11
23.314390
 21
180.119705
  0
LINE
  8
TEILE
 62
2
 10
23.314390
 20
180.119705
 11
24.270519
 21
181.365753
  0
LINE
  8
TEILE
 62
2
 10
24.270519
 20
181.365753
 11
25.160126
 21
182.660141
  0
LINE
  8
TEILE
 62
2
 10
25.160126
 20
182.660141
 11
25.980774
 21
183.999329
  0
LINE
  8
TEILE
 62
2
 10
25.980774
 20
183.999329
 11
26.730204
 21
185.379608
  0
LINE
  8
TEILE
 62
2
 10
26.730204
 20
185.379608
 11
27.406372
 21
186.797211
  0
LINE
  8
TEILE
 62
2
 10
27.406372
 20
186.797211
 11
28.007421
 21
188.248291
  0
LINE
  8
TEILE
 62
2
 10
28.007421
 20
188.248291
 11
28.531702
 21
189.728821
  0
LINE
  8
TEILE
 62
2
 10
28.531702
 20
189.728821
 11
28.977779
 21
191.234756
  0
LINE
  8
TEILE
 62
2
 10
28.977779
 20
191.234756
 11
29.344435
 21
192.761978
  0
LINE
  8
TEILE
 62
2
 10
29.344435
 20
192.761978
 11
29.630657
 21
194.306305
  0
LINE
  8
TEILE
 62
2
 10
29.630657
 20
194.306305
 11
29.835661
 21
195.863480
  0
LINE
  8
TEILE
 62
2
 10
29.835661
 20
195.863480
 11
29.958889
 21
197.429230
  0
LINE
  8
TEILE
 62
2
 10
29.958889
 20
197.429230
 11
30.000002
 21
198.999329
  0
LINE
  8
TEILE
 62
2
 10
30.000002
 20
198.999329
 11
30.000000
 21
198.999313
  0
LINE
  8
TEILE
 62
2
 10
30.000000
 20
198.999313
 11
192.499939
 21
198.999313
  0
LINE
  8
TEILE
 62
2
 10
192.499939
 20
198.999313
 11
192.499939
 21
-198.999313
  0
LINE
  8
TEILE
 62
2
 10
192.499939
 20
-198.999313
 11
30.000000
 21
-198.999313
  0
LINE
  8
TEILE
 62
2
 10
30.000000
 20
-198.999313
 11
29.956001
 21
-197.375153
  0
LINE
  8
TEILE
 62
2
 10
29.956001
 20
-197.375153
 11
29.824139
 21
-195.755753
  0
LINE
  8
TEILE
 62
2
 10
29.824139
 20
-195.755753
 11
29.604795
 21
-194.145844
  0
LINE
  8
TEILE
 62
2
 10
29.604795
 20
-194.145844
 11
29.298615
 21
-192.550201
  0
LINE
  8
TEILE
 62
2
 10
29.298615
 20
-192.550201
 11
28.906498
 21
-190.973450
  0
LINE
  8
TEILE
 62
2
 10
28.906498
 20
-190.973450
 11
28.429592
 21
-189.420258
  0
LINE
  8
TEILE
 62
2
 10
28.429592
 20
-189.420258
 11
27.869299
 21
-187.895172
  0
LINE
  8
TEILE
 62
2
 10
27.869299
 20
-187.895172
 11
27.227259
 21
-186.402649
  0
LINE
  8
TEILE
 62
2
 10
27.227259
 20
-186.402649
 11
26.505358
 21
-184.947052
  0
LINE
  8
TEILE
 62
2
 10
26.505358
 20
-184.947052
 11
25.705711
 21
-183.532700
  0
LINE
  8
TEILE
 62
2
 10
25.705711
 20
-183.532700
 11
24.830666
 21
-182.163696
  0
LINE
  8
TEILE
 62
2
 10
24.830666
 20
-182.163696
 11
23.882788
 21
-180.844086
  0
LINE
  8
TEILE
 62
2
 10
23.882788
 20
-180.844086
 11
22.864857
 21
-179.577728
  0
LINE
  8
TEILE
 62
2
 10
22.864857
 20
-179.577728
 11
21.779860
 21
-178.368347
  0
LINE
  8
TEILE
 62
2
 10
21.779860
 20
-178.368347
 11
20.630978
 21
-177.219452
  0
LINE
  8
TEILE
 62
2
 10
20.630978
 20
-177.219452
 11
19.421581
 21
-176.134460
  0
LINE
  8
TEILE
 62
2
 10
19.421581
 20
-176.134460
 11
18.155220
 21
-175.116516
  0
LINE
  8
TEILE
 62
2
 10
18.155220
 20
-175.116516
 11
16.835606
 21
-174.168640
  0
LINE
  8
TEILE
 62
2
 10
16.835606
 20
-174.168640
 11
15.466609
 21
-173.293594
  0
LINE
  8
TEILE
 62
2
 10
15.466609
 20
-173.293594
 11
14.052248
 21
-172.493958
  0
LINE
  8
TEILE
 62
2
 10
14.052248
 20
-172.493958
 11
12.596668
 21
-171.772064
  0
LINE
  8
TEILE
 62
2
 10
12.596668
 20
-171.772064
 11
11.104139
 21
-171.130005
  0
LINE
  8
TEILE
 62
2
 10
11.104139
 20
-171.130005
 11
9.579041
 21
-170.569733
  0
LINE
  8
TEILE
 62
2
 10
9.579041
 20
-170.569733
 11
8.025846
 21
-170.092804
  0
LINE
  8
TEILE
 62
2
 10
8.025846
 20
-170.092804
 11
6.449108
 21
-169.700699
  0
LINE
  8
TEILE
 62
2
 10
6.449108
 20
-169.700699
 11
4.853455
 21
-169.394516
  0
LINE
  8
TEILE
 62
2
 10
4.853455
 20
-169.394516
 11
3.243566
 21
-169.175171
  0
LINE
  8
TEILE
 62
2
 10
3.243566
 20
-169.175171
 11
1.624162
 21
-169.043304
  0
LINE
  8
TEILE
 62
2
 10
1.624162
 20
-169.043304
 11
-0.000005
 21
-168.999313
  0
LINE
  8
TEILE
 62
2
 10
-0.000005
 20
-168.999313
 11
0.000000
 21
-168.999313
  0
ENDSEC
  0
EOF

