999
     *******************************************
999
     BOCAD Software GmbH   Rev.18.000   0202.22
999
     Filename:   c:\progetti21\danieli_aqs\b4\temp_11\4_11_3111.dxf
999
     Creator:    bocad
999
     Date:       20.01.2016
999
     Factor:     10.000000
999
     *******************************************
  0
SECTION
  2
HEADER
  9
$DWGCODEPAGE
  3
ANSI_1252
  9
$INSBASE
 10
0.0
 20
0.0
 30
0.0
  9
$EXTMIN
 10
-0.491799
 20
-58.000002
  9
$EXTMAX
 10
115.491800
 20
58.000002
  9
$LIMMIN
 10
-1.491799
 20
-59.000002
  9
$LIMMAX
 10
116.491800
 20
59.000002
  9
$LTSCALE
 40
10.000000
  0
ENDSEC
  0
SECTION
  2
TABLES
  0
TABLE
  2
LTYPE
 70
4
  0
LTYPE
  2
CONTINUOUS
 70
64
  3
____________________________________________
 72
65
 73
0
 40
0.0
  0
LTYPE
  2
HIDDEN
 70
64
  3
__ __ __ __ __ __ __ __ __ __ __ __ __ __ __
 72
65
 73
2
 40
0.50
 49
0.30
 49
-0.20
  0
LTYPE
  2
DASHDOT
 70
64
  3
____ _ ____ _ ____ _ ____ _ ____ _ ____ _ __
 72
65
 73
4
 40
2.0
 49
1.5
 49
-0.25
 49
0
 49
-0.25
  0
LTYPE
  2
DOT
 70
64
  3
............................................
 72
65
 73
2
 40
0.30
 49
0
 49
-0.30
  0
ENDTAB
  0
TABLE
  2
LAYER
 70
23
  0
LAYER
  2
SCHRAUBEN
 70
64
 62
7
  6
CONTINUOUS
  0
LAYER
  2
REST
 70
64
 62
7
  6
CONTINUOUS
  0
LAYER
  2
UNTERSCHRIFT
 70
64
 62
7
  6
CONTINUOUS
  0
LAYER
  2
TEILE
 70
64
 62
7
  6
CONTINUOUS
  0
LAYER
  2
BEZ_SCHRAUBEN
 70
64
 62
7
  6
CONTINUOUS
  0
LAYER
  2
MARKERPUNKTE
 70
64
 62
7
  6
CONTINUOUS
  0
LAYER
  2
HILFSPUNKTE
 70
64
 62
7
  6
CONTINUOUS
  0
LAYER
  2
PICKPUNKTE
 70
64
 62
7
  6
CONTINUOUS
  0
LAYER
  2
SCHWEISSEN
 70
64
 62
7
  6
CONTINUOUS
  0
LAYER
  2
GRAFIK
 70
64
 62
7
  6
CONTINUOUS
  0
LAYER
  2
BEM_FREI
 70
64
 62
7
  6
CONTINUOUS
  0
LAYER
  2
BEM_SYSTEM
 70
64
 62
7
  6
CONTINUOUS
  0
LAYER
  2
BEM_KONTUR
 70
64
 62
7
  6
CONTINUOUS
  0
LAYER
  2
BEM_ANBAU
 70
64
 62
7
  6
CONTINUOUS
  0
LAYER
  2
BEM_SCHRAUBEN
 70
64
 62
7
  6
CONTINUOUS
  0
LAYER
  2
BEM_SCHWEISSEN
 70
64
 62
7
  6
CONTINUOUS
  0
LAYER
  2
FREIER_TEXT
 70
64
 62
7
  6
CONTINUOUS
  0
LAYER
  2
BEZ_TEILE
 70
64
 62
7
  6
CONTINUOUS
  0
LAYER
  2
BEZ_SCHWEISSEN
 70
64
 62
7
  6
CONTINUOUS
  0
LAYER
  2
SCHRAFFUREN
 70
64
 62
7
  6
CONTINUOUS
  0
LAYER
  2
SCHNITTSYMBOL
 70
64
 62
7
  6
CONTINUOUS
  0
LAYER
  2
RASTER
 70
64
 62
7
  6
CONTINUOUS
  0
LAYER
  2
LISTEN
 70
64
 62
7
  6
CONTINUOUS
  0
LAYER
  2
RAHMEN
 70
64
 62
7
  6
CONTINUOUS
  0
ENDTAB
  0
TABLE
  2
STYLE
 70
1
  0
STYLE
  2
STANDARD
 70
64
 40
0
 41
1
 50
0.0
 71
0
 42
0.35
  3
ROMANS
  0
ENDTAB
  0
ENDSEC
  0
SECTION
  2
ENTITIES
  0
LINE
  8
SCHRAUBEN
 62
6
 10
69.299995
 20
11.800001
 11
45.699997
 21
-11.800001
  0
LINE
  8
SCHRAUBEN
 62
6
 10
45.699997
 20
11.800001
 11
69.300003
 21
-11.800001
  0
CIRCLE
  8
SCHRAUBEN
 62
4
 10
57.500000
 20
0.000000
 40
29.500000
  0
TEXT
 8
UNTERSCHRIFT
 62
2
 10
57.499996
 20
55.500000
 40
3.250000
 50
179.999969
 41
0.800000
 51
15.000000
  1
P
  0
TEXT
 8
UNTERSCHRIFT
 62
2
 10
54.900948
 20
55.439110
 40
3.250000
 50
-177.315903
 41
0.800000
 51
15.000000
  1
r
  0
TEXT
 8
UNTERSCHRIFT
 62
2
 10
52.307602
 20
55.256577
 40
3.250000
 50
-174.631760
 41
0.800000
 51
15.000000
  1
o
  0
TEXT
 8
UNTERSCHRIFT
 62
2
 10
49.725647
 20
54.952793
 40
3.250000
 50
-171.947632
 41
0.800000
 51
15.000000
  1
j
  0
TEXT
 8
UNTERSCHRIFT
 62
2
 10
47.160751
 20
54.528431
 40
3.250000
 50
-169.263519
 41
0.800000
 51
15.000000
  1
e
  0
TEXT
 8
UNTERSCHRIFT
 62
2
 10
44.618538
 20
53.984428
 40
3.250000
 50
-166.579407
 41
0.800000
 51
15.000000
  1
c
  0
TEXT
 8
UNTERSCHRIFT
 62
2
 10
42.104599
 20
53.321960
 40
3.250000
 50
-163.895248
 41
0.800000
 51
15.000000
  1
t
  0
TEXT
 8
UNTERSCHRIFT
 62
2
 10
39.624435
 20
52.542500
 40
3.250000
 50
-161.211136
 41
0.800000
 51
15.000000
  1
 
  0
TEXT
 8
UNTERSCHRIFT
 62
2
 10
37.183495
 20
51.647751
 40
3.250000
 50
-158.527008
 41
0.800000
 51
15.000000
  1
 
  0
TEXT
 8
UNTERSCHRIFT
 62
2
 10
34.787136
 20
50.639668
 40
3.249999
 50
-155.842880
 41
0.800000
 51
15.000000
  1
D
  0
TEXT
 8
UNTERSCHRIFT
 62
2
 10
32.440617
 20
49.520473
 40
3.250000
 50
-153.158752
 41
0.800000
 51
15.000000
  1
P
  0
TEXT
 8
UNTERSCHRIFT
 62
2
 10
30.149078
 20
48.292622
 40
3.250000
 50
-150.474640
 41
0.800000
 51
15.000000
  1
0
  0
TEXT
 8
UNTERSCHRIFT
 62
2
 10
27.917557
 20
46.958805
 40
3.250000
 50
-147.790512
 41
0.800000
 51
15.000000
  1
G
  0
TEXT
 8
UNTERSCHRIFT
 62
2
 10
25.750942
 20
45.521946
 40
3.250000
 50
-145.106384
 41
0.800000
 51
15.000000
  1
N
  0
TEXT
 8
UNTERSCHRIFT
 62
2
 10
23.653994
 20
43.985207
 40
3.250000
 50
-142.422256
 41
0.800000
 51
15.000000
  1
9
  0
TEXT
 8
UNTERSCHRIFT
 62
2
 10
21.631313
 20
42.351948
 40
3.250000
 50
-139.738129
 41
0.800000
 51
15.000000
  1
 
  0
TEXT
 8
UNTERSCHRIFT
 62
2
 10
19.687334
 20
40.625763
 40
3.249999
 50
-137.054001
 41
0.800000
 51
15.000000
  1
 
  0
TEXT
 8
UNTERSCHRIFT
 62
2
 10
17.826324
 20
38.810432
 40
3.250000
 50
-134.369873
 41
0.800000
 51
15.000000
  1
,
  0
TEXT
 8
UNTERSCHRIFT
 62
2
 10
16.052368
 20
36.909946
 40
3.250000
 50
-131.685745
 41
0.800000
 51
15.000000
  1
Q
  0
TEXT
 8
UNTERSCHRIFT
 62
2
 10
14.369359
 20
34.928471
 40
3.250000
 50
-129.001617
 41
0.800000
 51
15.000000
  1
t
  0
TEXT
 8
UNTERSCHRIFT
 62
2
 10
12.780987
 20
32.870354
 40
3.250000
 50
-126.317497
 41
0.800000
 51
15.000000
  1
y
  0
TEXT
 8
UNTERSCHRIFT
 62
2
 10
11.290740
 20
30.740110
 40
3.250000
 50
-123.633362
 41
0.800000
 51
15.000000
  1
.
  0
TEXT
 8
UNTERSCHRIFT
 62
2
 10
9.901885
 20
28.542419
 40
3.250000
 50
-120.949234
 41
0.800000
 51
15.000000
  1
 
  0
TEXT
 8
UNTERSCHRIFT
 62
2
 10
8.617472
 20
26.282099
 40
3.250000
 50
-118.265106
 41
0.800000
 51
15.000000
  1
8
  0
TEXT
 8
UNTERSCHRIFT
 62
2
 10
7.440318
 20
23.964108
 40
3.250000
 50
-115.580986
 41
0.800000
 51
15.000000
  1
0
  0
TEXT
 8
UNTERSCHRIFT
 62
2
 10
6.373006
 20
21.593534
 40
3.250000
 50
-112.896858
 41
0.800000
 51
15.000000
  1
 
  0
TEXT
 8
UNTERSCHRIFT
 62
2
 10
5.417879
 20
19.175579
 40
3.250000
 50
-110.212730
 41
0.800000
 51
15.000000
  1
 
  0
TEXT
 8
UNTERSCHRIFT
 62
2
 10
4.577032
 20
16.715549
 40
3.250000
 50
-107.528603
 41
0.800000
 51
15.000000
  1
,
  0
TEXT
 8
UNTERSCHRIFT
 62
2
 10
3.852309
 20
14.218843
 40
3.250000
 50
-104.844475
 41
0.800000
 51
15.000000
  1
 
  0
TEXT
 8
UNTERSCHRIFT
 62
2
 10
3.245302
 20
11.690936
 40
3.250000
 50
-102.160347
 41
0.800000
 51
15.000000
  1
P
  0
TEXT
 8
UNTERSCHRIFT
 62
2
 10
2.757342
 20
9.137377
 40
3.250000
 50
-99.476204
 41
0.800000
 51
15.000000
  1
o
  0
TEXT
 8
UNTERSCHRIFT
 62
2
 10
2.389500
 20
6.563768
 40
3.250000
 50
-96.792091
 41
0.800000
 51
15.000000
  1
s
  0
TEXT
 8
UNTERSCHRIFT
 62
2
 10
2.142583
 20
3.975757
 40
3.250000
 50
-94.107948
 41
0.800000
 51
15.000000
  1
.
  0
TEXT
 8
UNTERSCHRIFT
 62
2
 10
2.017133
 20
1.379022
 40
3.250000
 50
-91.423836
 41
0.800000
 51
15.000000
  1
 
  0
TEXT
 8
UNTERSCHRIFT
 62
2
 10
2.013425
 20
-1.220739
 40
3.250000
 50
-88.739693
 41
0.800000
 51
15.000000
  1
 
  0
TEXT
 8
UNTERSCHRIFT
 62
2
 10
2.131467
 20
-3.817821
 40
3.250000
 50
-86.055580
 41
0.800000
 51
15.000000
  1
4
  0
TEXT
 8
UNTERSCHRIFT
 62
2
 10
2.371000
 20
-6.406526
 40
3.250000
 50
-83.371437
 41
0.800000
 51
15.000000
  1
_
  0
TEXT
 8
UNTERSCHRIFT
 62
2
 10
2.731499
 20
-8.981174
 40
3.250000
 50
-80.687325
 41
0.800000
 51
15.000000
  1
1
  0
TEXT
 8
UNTERSCHRIFT
 62
2
 10
3.212172
 20
-11.536114
 40
3.250000
 50
-78.003181
 41
0.800000
 51
15.000000
  1
1
  0
TEXT
 8
UNTERSCHRIFT
 62
2
 10
3.811965
 20
-14.065742
 40
3.250000
 50
-75.319069
 41
0.800000
 51
15.000000
  1
_
  0
TEXT
 8
UNTERSCHRIFT
 62
2
 10
4.529562
 20
-16.564507
 40
3.250000
 50
-72.634933
 41
0.800000
 51
15.000000
  1
3
  0
TEXT
 8
UNTERSCHRIFT
 62
2
 10
5.363388
 20
-19.026926
 40
3.250000
 50
-69.950821
 41
0.800000
 51
15.000000
  1
1
  0
TEXT
 8
UNTERSCHRIFT
 62
2
 10
6.311613
 20
-21.447594
 40
3.250000
 50
-67.266678
 41
0.800000
 51
15.000000
  1
1
  0
TEXT
 8
UNTERSCHRIFT
 62
2
 10
7.372158
 20
-23.821203
 40
3.250000
 50
-64.582565
 41
0.800000
 51
15.000000
  1
1
  0
TEXT
 8
UNTERSCHRIFT
 62
2
 10
8.542694
 20
-26.142542
 40
3.250000
 50
-61.898418
 41
0.800000
 51
15.000000
  1
 
  0
TEXT
 8
UNTERSCHRIFT
 62
2
 10
9.820654
 20
-28.406517
 40
3.250000
 50
-59.214302
 41
0.800000
 51
15.000000
  1
 
  0
TEXT
 8
UNTERSCHRIFT
 62
2
 10
11.203234
 20
-30.608162
 40
3.250000
 50
-56.530163
 41
0.800000
 51
15.000000
  1
 
  0
TEXT
 8
UNTERSCHRIFT
 62
2
 10
12.687399
 20
-32.742649
 40
3.250000
 50
-53.846046
 41
0.800000
 51
15.000000
  1
,
  0
TEXT
 8
UNTERSCHRIFT
 62
2
 10
14.269894
 20
-34.805290
 40
3.250000
 50
-51.161911
 41
0.800000
 51
15.000000
  1
 
  0
TEXT
 8
UNTERSCHRIFT
 62
2
 10
15.947245
 20
-36.791557
 40
3.250000
 50
-48.477798
 41
0.800000
 51
15.000000
  1
P
  0
TEXT
 8
UNTERSCHRIFT
 62
2
 10
17.715771
 20
-38.697098
 40
3.250000
 50
-45.793652
 41
0.800000
 51
15.000000
  1
r
  0
TEXT
 8
UNTERSCHRIFT
 62
2
 10
19.571592
 20
-40.517727
 40
3.250000
 50
-43.109547
 41
0.800000
 51
15.000000
  1
o
  0
TEXT
 8
UNTERSCHRIFT
 62
2
 10
21.510630
 20
-42.249443
 40
3.250000
 50
-40.425442
 41
0.800000
 51
15.000000
  1
f
  0
TEXT
 8
UNTERSCHRIFT
 62
2
 10
23.528643
 20
-43.888466
 40
3.250000
 50
-37.741276
 41
0.800000
 51
15.000000
  1
i
  0
TEXT
 8
UNTERSCHRIFT
 62
2
 10
25.621201
 20
-45.431179
 40
3.250000
 50
-35.057186
 41
0.800000
 51
15.000000
  1
 
  0
TEXT
 8
UNTERSCHRIFT
 62
2
 10
27.783703
 20
-46.874214
 40
3.250000
 50
-32.373043
 41
0.800000
 51
15.000000
  1
l
  0
TEXT
 8
UNTERSCHRIFT
 62
2
 10
30.011414
 20
-48.214394
 40
3.250000
 50
-29.688919
 41
0.800000
 51
15.000000
  1
 
  0
TEXT
 8
UNTERSCHRIFT
 62
2
 10
32.299438
 20
-49.448780
 40
3.250000
 50
-27.004776
 41
0.800000
 51
15.000000
  1
P
  0
TEXT
 8
UNTERSCHRIFT
 62
2
 10
34.642757
 20
-50.574665
 40
3.250000
 50
-24.320677
 41
0.800000
 51
15.000000
  1
L
  0
TEXT
 8
UNTERSCHRIFT
 62
2
 10
37.036236
 20
-51.589581
 40
3.250000
 50
-21.636520
 41
0.800000
 51
15.000000
  1
1
  0
TEXT
 8
UNTERSCHRIFT
 62
2
 10
39.474609
 20
-52.491295
 40
3.250001
 50
-18.952415
 41
0.800000
 51
15.000000
  1
1
  0
TEXT
 8
UNTERSCHRIFT
 62
2
 10
41.952538
 20
-53.277824
 40
3.250000
 50
-16.268272
 41
0.800000
 51
15.000000
  1
5
  0
TEXT
 8
UNTERSCHRIFT
 62
2
 10
44.464584
 20
-53.947456
 40
3.250000
 50
-13.584156
 41
0.800000
 51
15.000000
  1
*
  0
TEXT
 8
UNTERSCHRIFT
 62
2
 10
47.005230
 20
-54.498714
 40
3.250000
 50
-10.900002
 41
0.800000
 51
15.000000
  1
2
  0
TEXT
 8
UNTERSCHRIFT
 62
2
 10
49.568905
 20
-54.930389
 40
3.250000
 50
-8.215912
 41
0.800000
 51
15.000000
  1
0
  0
LINE
  8
TEILE
 62
2
 10
57.500000
 20
57.500000
 11
59.441994
 21
57.467197
  0
LINE
  8
TEILE
 62
2
 10
59.441994
 20
57.467197
 11
61.381794
 21
57.368820
  0
LINE
  8
TEILE
 62
2
 10
61.381794
 20
57.368820
 11
63.317162
 21
57.204987
  0
LINE
  8
TEILE
 62
2
 10
63.317162
 20
57.204987
 11
65.245888
 21
56.975883
  0
LINE
  8
TEILE
 62
2
 10
65.245888
 20
56.975883
 11
67.165787
 21
56.681767
  0
LINE
  8
TEILE
 62
2
 10
67.165787
 20
56.681767
 11
69.074646
 21
56.322975
  0
LINE
  8
TEILE
 62
2
 10
69.074646
 20
56.322975
 11
70.970306
 21
55.899921
  0
LINE
  8
TEILE
 62
2
 10
70.970306
 20
55.899921
 11
72.850594
 21
55.413078
  0
LINE
  8
TEILE
 62
2
 10
72.850594
 20
55.413078
 11
74.713364
 21
54.863010
  0
LINE
  8
TEILE
 62
2
 10
74.713364
 20
54.863010
 11
76.556496
 21
54.250343
  0
LINE
  8
TEILE
 62
2
 10
76.556496
 20
54.250343
 11
78.377884
 21
53.575779
  0
LINE
  8
TEILE
 62
2
 10
78.377884
 20
53.575779
 11
80.175446
 21
52.840080
  0
LINE
  8
TEILE
 62
2
 10
80.175446
 20
52.840080
 11
81.947144
 21
52.044090
  0
LINE
  8
TEILE
 62
2
 10
81.947144
 20
52.044090
 11
83.690941
 21
51.188717
  0
LINE
  8
TEILE
 62
2
 10
83.690941
 20
51.188717
 11
85.404854
 21
50.274933
  0
LINE
  8
TEILE
 62
2
 10
85.404854
 20
50.274933
 11
87.086929
 21
49.303787
  0
LINE
  8
TEILE
 62
2
 10
87.086929
 20
49.303787
 11
88.735237
 21
48.276390
  0
LINE
  8
TEILE
 62
2
 10
88.735237
 20
48.276390
 11
90.347908
 21
47.193905
  0
LINE
  8
TEILE
 62
2
 10
90.347908
 20
47.193905
 11
91.923103
 21
46.057568
  0
LINE
  8
TEILE
 62
2
 10
91.923103
 20
46.057568
 11
93.459023
 21
44.868683
  0
LINE
  8
TEILE
 62
2
 10
93.459023
 20
44.868683
 11
94.953911
 21
43.628597
  0
LINE
  8
TEILE
 62
2
 10
94.953911
 20
43.628597
 11
96.406059
 21
42.338734
  0
LINE
  8
TEILE
 62
2
 10
96.406059
 20
42.338734
 11
97.813812
 21
41.000561
  0
LINE
  8
TEILE
 62
2
 10
97.813812
 20
41.000561
 11
99.175575
 21
39.615601
  0
LINE
  8
TEILE
 62
2
 10
99.175575
 20
39.615601
 11
100.489792
 21
38.185448
  0
LINE
  8
TEILE
 62
2
 10
100.489792
 20
38.185448
 11
101.754944
 21
36.711716
  0
LINE
  8
TEILE
 62
2
 10
101.754944
 20
36.711716
 11
102.969597
 21
35.196098
  0
LINE
  8
TEILE
 62
2
 10
102.969597
 20
35.196098
 11
104.132378
 21
33.640324
  0
LINE
  8
TEILE
 62
2
 10
104.132378
 20
33.640324
 11
105.241943
 21
32.046162
  0
LINE
  8
TEILE
 62
2
 10
105.241943
 20
32.046162
 11
106.297043
 21
30.415436
  0
LINE
  8
TEILE
 62
2
 10
106.297043
 20
30.415436
 11
107.296455
 21
28.750004
  0
LINE
  8
TEILE
 62
2
 10
107.296455
 20
28.750004
 11
108.239059
 21
27.051769
  0
LINE
  8
TEILE
 62
2
 10
108.239059
 20
27.051769
 11
109.123764
 21
25.322666
  0
LINE
  8
TEILE
 62
2
 10
109.123764
 20
25.322666
 11
109.949562
 21
23.564671
  0
LINE
  8
TEILE
 62
2
 10
109.949562
 20
23.564671
 11
110.715515
 21
21.779787
  0
LINE
  8
TEILE
 62
2
 10
110.715515
 20
21.779787
 11
111.420746
 21
19.970053
  0
LINE
  8
TEILE
 62
2
 10
111.420746
 20
19.970053
 11
112.064453
 21
18.137533
  0
LINE
  8
TEILE
 62
2
 10
112.064453
 20
18.137533
 11
112.645905
 21
16.284317
  0
LINE
  8
TEILE
 62
2
 10
112.645905
 20
16.284317
 11
113.164436
 21
14.412521
  0
LINE
  8
TEILE
 62
2
 10
113.164436
 20
14.412521
 11
113.619453
 21
12.524280
  0
LINE
  8
TEILE
 62
2
 10
113.619453
 20
12.524280
 11
114.010429
 21
10.621748
  0
LINE
  8
TEILE
 62
2
 10
114.010429
 20
10.621748
 11
114.336929
 21
8.707096
  0
LINE
  8
TEILE
 62
2
 10
114.336929
 20
8.707096
 11
114.598579
 21
6.782510
  0
LINE
  8
TEILE
 62
2
 10
114.598579
 20
6.782510
 11
114.795074
 21
4.850184
  0
LINE
  8
TEILE
 62
2
 10
114.795074
 20
4.850184
 11
114.926193
 21
2.912325
  0
LINE
  8
TEILE
 62
2
 10
114.926193
 20
2.912325
 11
114.991798
 21
0.971142
  0
LINE
  8
TEILE
 62
2
 10
114.991798
 20
0.971142
 11
114.991798
 21
-0.971149
  0
LINE
  8
TEILE
 62
2
 10
114.991798
 20
-0.971149
 11
114.926193
 21
-2.912331
  0
LINE
  8
TEILE
 62
2
 10
114.926193
 20
-2.912331
 11
114.795074
 21
-4.850191
  0
LINE
  8
TEILE
 62
2
 10
114.795074
 20
-4.850191
 11
114.598579
 21
-6.782516
  0
LINE
  8
TEILE
 62
2
 10
114.598579
 20
-6.782516
 11
114.336929
 21
-8.707103
  0
LINE
  8
TEILE
 62
2
 10
114.336929
 20
-8.707103
 11
114.010429
 21
-10.621754
  0
LINE
  8
TEILE
 62
2
 10
114.010429
 20
-10.621754
 11
113.619446
 21
-12.524286
  0
LINE
  8
TEILE
 62
2
 10
113.619446
 20
-12.524286
 11
113.164436
 21
-14.412527
  0
LINE
  8
TEILE
 62
2
 10
113.164436
 20
-14.412527
 11
112.645905
 21
-16.284325
  0
LINE
  8
TEILE
 62
2
 10
112.645905
 20
-16.284325
 11
112.064453
 21
-18.137539
  0
LINE
  8
TEILE
 62
2
 10
112.064453
 20
-18.137539
 11
111.420746
 21
-19.970060
  0
LINE
  8
TEILE
 62
2
 10
111.420746
 20
-19.970060
 11
110.715515
 21
-21.779795
  0
LINE
  8
TEILE
 62
2
 10
110.715515
 20
-21.779795
 11
109.949562
 21
-23.564678
  0
LINE
  8
TEILE
 62
2
 10
109.949562
 20
-23.564678
 11
109.123756
 21
-25.322674
  0
LINE
  8
TEILE
 62
2
 10
109.123756
 20
-25.322674
 11
108.239052
 21
-27.051775
  0
LINE
  8
TEILE
 62
2
 10
108.239052
 20
-27.051775
 11
107.296455
 21
-28.750010
  0
LINE
  8
TEILE
 62
2
 10
107.296455
 20
-28.750010
 11
106.297035
 21
-30.415440
  0
LINE
  8
TEILE
 62
2
 10
106.297035
 20
-30.415440
 11
105.241943
 21
-32.046165
  0
LINE
  8
TEILE
 62
2
 10
105.241943
 20
-32.046165
 11
104.132378
 21
-33.640327
  0
LINE
  8
TEILE
 62
2
 10
104.132378
 20
-33.640327
 11
102.969597
 21
-35.196106
  0
LINE
  8
TEILE
 62
2
 10
102.969597
 20
-35.196106
 11
101.754944
 21
-36.711723
  0
LINE
  8
TEILE
 62
2
 10
101.754944
 20
-36.711723
 11
100.489777
 21
-38.185452
  0
LINE
  8
TEILE
 62
2
 10
100.489777
 20
-38.185452
 11
99.175575
 21
-39.615608
  0
LINE
  8
TEILE
 62
2
 10
99.175575
 20
-39.615608
 11
97.813812
 21
-41.000565
  0
LINE
  8
TEILE
 62
2
 10
97.813812
 20
-41.000565
 11
96.406059
 21
-42.338737
  0
LINE
  8
TEILE
 62
2
 10
96.406059
 20
-42.338737
 11
94.953911
 21
-43.628601
  0
LINE
  8
TEILE
 62
2
 10
94.953911
 20
-43.628601
 11
93.459015
 21
-44.868683
  0
LINE
  8
TEILE
 62
2
 10
93.459015
 20
-44.868683
 11
91.923103
 21
-46.057571
  0
LINE
  8
TEILE
 62
2
 10
91.923103
 20
-46.057571
 11
90.347908
 21
-47.193909
  0
LINE
  8
TEILE
 62
2
 10
90.347908
 20
-47.193909
 11
88.735237
 21
-48.276398
  0
LINE
  8
TEILE
 62
2
 10
88.735237
 20
-48.276398
 11
87.086914
 21
-49.303795
  0
LINE
  8
TEILE
 62
2
 10
87.086914
 20
-49.303795
 11
85.404846
 21
-50.274940
  0
LINE
  8
TEILE
 62
2
 10
85.404846
 20
-50.274940
 11
83.690933
 21
-51.188721
  0
LINE
  8
TEILE
 62
2
 10
83.690933
 20
-51.188721
 11
81.947136
 21
-52.044090
  0
LINE
  8
TEILE
 62
2
 10
81.947136
 20
-52.044090
 11
80.175446
 21
-52.840080
  0
LINE
  8
TEILE
 62
2
 10
80.175446
 20
-52.840080
 11
78.377876
 21
-53.575779
  0
LINE
  8
TEILE
 62
2
 10
78.377876
 20
-53.575779
 11
76.556488
 21
-54.250343
  0
LINE
  8
TEILE
 62
2
 10
76.556488
 20
-54.250343
 11
74.713356
 21
-54.863014
  0
LINE
  8
TEILE
 62
2
 10
74.713356
 20
-54.863014
 11
72.850586
 21
-55.413078
  0
LINE
  8
TEILE
 62
2
 10
72.850586
 20
-55.413078
 11
70.970299
 21
-55.899921
  0
LINE
  8
TEILE
 62
2
 10
70.970299
 20
-55.899921
 11
69.074638
 21
-56.322975
  0
LINE
  8
TEILE
 62
2
 10
69.074638
 20
-56.322975
 11
67.165779
 21
-56.681767
  0
LINE
  8
TEILE
 62
2
 10
67.165779
 20
-56.681767
 11
65.245888
 21
-56.975883
  0
LINE
  8
TEILE
 62
2
 10
65.245888
 20
-56.975883
 11
63.317154
 21
-57.204990
  0
LINE
  8
TEILE
 62
2
 10
63.317154
 20
-57.204990
 11
61.381783
 21
-57.368820
  0
LINE
  8
TEILE
 62
2
 10
61.381783
 20
-57.368820
 11
59.441986
 21
-57.467197
  0
LINE
  8
TEILE
 62
2
 10
59.441986
 20
-57.467197
 11
57.499969
 21
-57.500000
  0
LINE
  8
TEILE
 62
2
 10
57.499969
 20
-57.500000
 11
55.557961
 21
-57.467194
  0
LINE
  8
TEILE
 62
2
 10
55.557961
 20
-57.467194
 11
53.618164
 21
-57.368816
  0
LINE
  8
TEILE
 62
2
 10
53.618164
 20
-57.368816
 11
51.682793
 21
-57.204987
  0
LINE
  8
TEILE
 62
2
 10
51.682793
 20
-57.204987
 11
49.754063
 21
-56.975876
  0
LINE
  8
TEILE
 62
2
 10
49.754063
 20
-56.975876
 11
47.834171
 21
-56.681755
  0
LINE
  8
TEILE
 62
2
 10
47.834171
 20
-56.681755
 11
45.925308
 21
-56.322968
  0
LINE
  8
TEILE
 62
2
 10
45.925308
 20
-56.322968
 11
44.029652
 21
-55.899906
  0
LINE
  8
TEILE
 62
2
 10
44.029652
 20
-55.899906
 11
42.149361
 21
-55.413063
  0
LINE
  8
TEILE
 62
2
 10
42.149361
 20
-55.413063
 11
40.286594
 21
-54.862999
  0
LINE
  8
TEILE
 62
2
 10
40.286594
 20
-54.862999
 11
38.443459
 21
-54.250332
  0
LINE
  8
TEILE
 62
2
 10
38.443459
 20
-54.250332
 11
36.622074
 21
-53.575760
  0
LINE
  8
TEILE
 62
2
 10
36.622074
 20
-53.575760
 11
34.824509
 21
-52.840061
  0
LINE
  8
TEILE
 62
2
 10
34.824509
 20
-52.840061
 11
33.052818
 21
-52.044071
  0
LINE
  8
TEILE
 62
2
 10
33.052818
 20
-52.044071
 11
31.309021
 21
-51.188698
  0
LINE
  8
TEILE
 62
2
 10
31.309021
 20
-51.188698
 11
29.595108
 21
-50.274918
  0
LINE
  8
TEILE
 62
2
 10
29.595108
 20
-50.274918
 11
27.913034
 21
-49.303772
  0
LINE
  8
TEILE
 62
2
 10
27.913034
 20
-49.303772
 11
26.264723
 21
-48.276367
  0
LINE
  8
TEILE
 62
2
 10
26.264723
 20
-48.276367
 11
24.652050
 21
-47.193878
  0
LINE
  8
TEILE
 62
2
 10
24.652050
 20
-47.193878
 11
23.076857
 21
-46.057545
  0
LINE
  8
TEILE
 62
2
 10
23.076857
 20
-46.057545
 11
21.540939
 21
-44.868656
  0
LINE
  8
TEILE
 62
2
 10
21.540939
 20
-44.868656
 11
20.046055
 21
-43.628571
  0
LINE
  8
TEILE
 62
2
 10
20.046055
 20
-43.628571
 11
18.593904
 21
-42.338699
  0
LINE
  8
TEILE
 62
2
 10
18.593904
 20
-42.338699
 11
17.186148
 21
-41.000526
  0
LINE
  8
TEILE
 62
2
 10
17.186148
 20
-41.000526
 11
15.824389
 21
-39.615570
  0
LINE
  8
TEILE
 62
2
 10
15.824389
 20
-39.615570
 11
14.510182
 21
-38.185410
  0
LINE
  8
TEILE
 62
2
 10
14.510182
 20
-38.185410
 11
13.245028
 21
-36.711681
  0
LINE
  8
TEILE
 62
2
 10
13.245028
 20
-36.711681
 11
12.030371
 21
-35.196064
  0
LINE
  8
TEILE
 62
2
 10
12.030371
 20
-35.196064
 11
10.867595
 21
-33.640285
  0
LINE
  8
TEILE
 62
2
 10
10.867595
 20
-33.640285
 11
9.758026
 21
-32.046124
  0
LINE
  8
TEILE
 62
2
 10
9.758026
 20
-32.046124
 11
8.702933
 21
-30.415398
  0
LINE
  8
TEILE
 62
2
 10
8.702933
 20
-30.415398
 11
7.703518
 21
-28.749964
  0
LINE
  8
TEILE
 62
2
 10
7.703518
 20
-28.749964
 11
6.760922
 21
-27.051727
  0
LINE
  8
TEILE
 62
2
 10
6.760922
 20
-27.051727
 11
5.876221
 21
-25.322626
  0
LINE
  8
TEILE
 62
2
 10
5.876221
 20
-25.322626
 11
5.050422
 21
-23.564629
  0
LINE
  8
TEILE
 62
2
 10
5.050422
 20
-23.564629
 11
4.284470
 21
-21.779745
  0
LINE
  8
TEILE
 62
2
 10
4.284470
 20
-21.779745
 11
3.579237
 21
-19.970011
  0
LINE
  8
TEILE
 62
2
 10
3.579237
 20
-19.970011
 11
2.935529
 21
-18.137489
  0
LINE
  8
TEILE
 62
2
 10
2.935529
 20
-18.137489
 11
2.354080
 21
-16.284273
  0
LINE
  8
TEILE
 62
2
 10
2.354080
 20
-16.284273
 11
1.835554
 21
-14.412477
  0
LINE
  8
TEILE
 62
2
 10
1.835554
 20
-14.412477
 11
1.380542
 21
-12.524235
  0
LINE
  8
TEILE
 62
2
 10
1.380542
 20
-12.524235
 11
0.989563
 21
-10.621702
  0
LINE
  8
TEILE
 62
2
 10
0.989563
 20
-10.621702
 11
0.663064
 21
-8.707050
  0
LINE
  8
TEILE
 62
2
 10
0.663064
 20
-8.707050
 11
0.401417
 21
-6.782464
  0
LINE
  8
TEILE
 62
2
 10
0.401417
 20
-6.782464
 11
0.204920
 21
-4.850139
  0
LINE
  8
TEILE
 62
2
 10
0.204920
 20
-4.850139
 11
0.073798
 21
-2.912279
  0
LINE
  8
TEILE
 62
2
 10
0.073798
 20
-2.912279
 11
0.008201
 21
-0.971096
  0
LINE
  8
TEILE
 62
2
 10
0.008201
 20
-0.971096
 11
0.008202
 21
0.971195
  0
LINE
  8
TEILE
 62
2
 10
0.008202
 20
0.971195
 11
0.073803
 21
2.912377
  0
LINE
  8
TEILE
 62
2
 10
0.073803
 20
2.912377
 11
0.204929
 21
4.850236
  0
LINE
  8
TEILE
 62
2
 10
0.204929
 20
4.850236
 11
0.401429
 21
6.782562
  0
LINE
  8
TEILE
 62
2
 10
0.401429
 20
6.782562
 11
0.663079
 21
8.707148
  0
LINE
  8
TEILE
 62
2
 10
0.663079
 20
8.707148
 11
0.989582
 21
10.621799
  0
LINE
  8
TEILE
 62
2
 10
0.989582
 20
10.621799
 11
1.380564
 21
12.524330
  0
LINE
  8
TEILE
 62
2
 10
1.380564
 20
12.524330
 11
1.835579
 21
14.412573
  0
LINE
  8
TEILE
 62
2
 10
1.835579
 20
14.412573
 11
2.354108
 21
16.284369
  0
LINE
  8
TEILE
 62
2
 10
2.354108
 20
16.284369
 11
2.935560
 21
18.137585
  0
LINE
  8
TEILE
 62
2
 10
2.935560
 20
18.137585
 11
3.579271
 21
19.970104
  0
LINE
  8
TEILE
 62
2
 10
3.579271
 20
19.970104
 11
4.284507
 21
21.779839
  0
LINE
  8
TEILE
 62
2
 10
4.284507
 20
21.779839
 11
5.050463
 21
23.564720
  0
LINE
  8
TEILE
 62
2
 10
5.050463
 20
23.564720
 11
5.876264
 21
25.322714
  0
LINE
  8
TEILE
 62
2
 10
5.876264
 20
25.322714
 11
6.760969
 21
27.051815
  0
LINE
  8
TEILE
 62
2
 10
6.760969
 20
27.051815
 11
7.703568
 21
28.750050
  0
LINE
  8
TEILE
 62
2
 10
7.703568
 20
28.750050
 11
8.702986
 21
30.415480
  0
LINE
  8
TEILE
 62
2
 10
8.702986
 20
30.415480
 11
9.758082
 21
32.046204
  0
LINE
  8
TEILE
 62
2
 10
9.758082
 20
32.046204
 11
10.867653
 21
33.640366
  0
LINE
  8
TEILE
 62
2
 10
10.867653
 20
33.640366
 11
12.030431
 21
35.196140
  0
LINE
  8
TEILE
 62
2
 10
12.030431
 20
35.196140
 11
13.245091
 21
36.711758
  0
LINE
  8
TEILE
 62
2
 10
13.245091
 20
36.711758
 11
14.510248
 21
38.185486
  0
LINE
  8
TEILE
 62
2
 10
14.510248
 20
38.185486
 11
15.824456
 21
39.615639
  0
LINE
  8
TEILE
 62
2
 10
15.824456
 20
39.615639
 11
17.186218
 21
41.000595
  0
LINE
  8
TEILE
 62
2
 10
17.186218
 20
41.000595
 11
18.593977
 21
42.338768
  0
LINE
  8
TEILE
 62
2
 10
18.593977
 20
42.338768
 11
20.046129
 21
43.628632
  0
LINE
  8
TEILE
 62
2
 10
20.046129
 20
43.628632
 11
21.541016
 21
44.868713
  0
LINE
  8
TEILE
 62
2
 10
21.541016
 20
44.868713
 11
23.076935
 21
46.057602
  0
LINE
  8
TEILE
 62
2
 10
23.076935
 20
46.057602
 11
24.652130
 21
47.193932
  0
LINE
  8
TEILE
 62
2
 10
24.652130
 20
47.193932
 11
26.264805
 21
48.276421
  0
LINE
  8
TEILE
 62
2
 10
26.264805
 20
48.276421
 11
27.913120
 21
49.303818
  0
LINE
  8
TEILE
 62
2
 10
27.913120
 20
49.303818
 11
29.595194
 21
50.274963
  0
LINE
  8
TEILE
 62
2
 10
29.595194
 20
50.274963
 11
31.309109
 21
51.188740
  0
LINE
  8
TEILE
 62
2
 10
31.309109
 20
51.188740
 11
33.052906
 21
52.044109
  0
LINE
  8
TEILE
 62
2
 10
33.052906
 20
52.044109
 11
34.824600
 21
52.840099
  0
LINE
  8
TEILE
 62
2
 10
34.824600
 20
52.840099
 11
36.622166
 21
53.575798
  0
LINE
  8
TEILE
 62
2
 10
36.622166
 20
53.575798
 11
38.443554
 21
54.250366
  0
LINE
  8
TEILE
 62
2
 10
38.443554
 20
54.250366
 11
40.286682
 21
54.863029
  0
LINE
  8
TEILE
 62
2
 10
40.286682
 20
54.863029
 11
42.149460
 21
55.413094
  0
LINE
  8
TEILE
 62
2
 10
42.149460
 20
55.413094
 11
44.029747
 21
55.899929
  0
LINE
  8
TEILE
 62
2
 10
44.029747
 20
55.899929
 11
45.925404
 21
56.322983
  0
LINE
  8
TEILE
 62
2
 10
45.925404
 20
56.322983
 11
47.834267
 21
56.681778
  0
LINE
  8
TEILE
 62
2
 10
47.834267
 20
56.681778
 11
49.754162
 21
56.975891
  0
LINE
  8
TEILE
 62
2
 10
49.754162
 20
56.975891
 11
51.682892
 21
57.204994
  0
LINE
  8
TEILE
 62
2
 10
51.682892
 20
57.204994
 11
53.618259
 21
57.368828
  0
LINE
  8
TEILE
 62
2
 10
53.618259
 20
57.368828
 11
55.558056
 21
57.467197
  0
LINE
  8
TEILE
 62
2
 10
55.558056
 20
57.467197
 11
57.500072
 21
57.500000
  0
LINE
  8
TEILE
 62
2
 10
57.500072
 20
57.500000
 11
57.500000
 21
57.500000
  0
TEXT
 8
BEZ_SCHRAUBEN
 62
2
 10
49.500000
 20
-37.000000
 40
5.000000
 41
0.800000
 51
15.000000
  1
 ø59
  0
ENDSEC
  0
EOF

