999
     *******************************************
999
     BOCAD Software GmbH   Rev.18.000   0202.22
999
     Filename:   c:\progetti21\danieli_aqs\b4\temp_11\4_11_2164.dxf
999
     Creator:    bocad
999
     Date:       20.01.2016
999
     Factor:     10.000000
999
     *******************************************
  0
SECTION
  2
HEADER
  9
$DWGCODEPAGE
  3
ANSI_1252
  9
$INSBASE
 10
0.0
 20
0.0
 30
0.0
  9
$EXTMIN
 10
-0.500000
 20
-50.500002
  9
$EXTMAX
 10
100.500002
 20
50.500002
  9
$LIMMIN
 10
-1.500000
 20
-51.500002
  9
$LIMMAX
 10
101.500002
 20
51.500002
  9
$LTSCALE
 40
10.000000
  0
ENDSEC
  0
SECTION
  2
TABLES
  0
TABLE
  2
LTYPE
 70
4
  0
LTYPE
  2
CONTINUOUS
 70
64
  3
____________________________________________
 72
65
 73
0
 40
0.0
  0
LTYPE
  2
HIDDEN
 70
64
  3
__ __ __ __ __ __ __ __ __ __ __ __ __ __ __
 72
65
 73
2
 40
0.50
 49
0.30
 49
-0.20
  0
LTYPE
  2
DASHDOT
 70
64
  3
____ _ ____ _ ____ _ ____ _ ____ _ ____ _ __
 72
65
 73
4
 40
2.0
 49
1.5
 49
-0.25
 49
0
 49
-0.25
  0
LTYPE
  2
DOT
 70
64
  3
............................................
 72
65
 73
2
 40
0.30
 49
0
 49
-0.30
  0
ENDTAB
  0
TABLE
  2
LAYER
 70
23
  0
LAYER
  2
SCHRAUBEN
 70
64
 62
7
  6
CONTINUOUS
  0
LAYER
  2
REST
 70
64
 62
7
  6
CONTINUOUS
  0
LAYER
  2
UNTERSCHRIFT
 70
64
 62
7
  6
CONTINUOUS
  0
LAYER
  2
TEILE
 70
64
 62
7
  6
CONTINUOUS
  0
LAYER
  2
BEZ_SCHRAUBEN
 70
64
 62
7
  6
CONTINUOUS
  0
LAYER
  2
MARKERPUNKTE
 70
64
 62
7
  6
CONTINUOUS
  0
LAYER
  2
HILFSPUNKTE
 70
64
 62
7
  6
CONTINUOUS
  0
LAYER
  2
PICKPUNKTE
 70
64
 62
7
  6
CONTINUOUS
  0
LAYER
  2
SCHWEISSEN
 70
64
 62
7
  6
CONTINUOUS
  0
LAYER
  2
GRAFIK
 70
64
 62
7
  6
CONTINUOUS
  0
LAYER
  2
BEM_FREI
 70
64
 62
7
  6
CONTINUOUS
  0
LAYER
  2
BEM_SYSTEM
 70
64
 62
7
  6
CONTINUOUS
  0
LAYER
  2
BEM_KONTUR
 70
64
 62
7
  6
CONTINUOUS
  0
LAYER
  2
BEM_ANBAU
 70
64
 62
7
  6
CONTINUOUS
  0
LAYER
  2
BEM_SCHRAUBEN
 70
64
 62
7
  6
CONTINUOUS
  0
LAYER
  2
BEM_SCHWEISSEN
 70
64
 62
7
  6
CONTINUOUS
  0
LAYER
  2
FREIER_TEXT
 70
64
 62
7
  6
CONTINUOUS
  0
LAYER
  2
BEZ_TEILE
 70
64
 62
7
  6
CONTINUOUS
  0
LAYER
  2
BEZ_SCHWEISSEN
 70
64
 62
7
  6
CONTINUOUS
  0
LAYER
  2
SCHRAFFUREN
 70
64
 62
7
  6
CONTINUOUS
  0
LAYER
  2
SCHNITTSYMBOL
 70
64
 62
7
  6
CONTINUOUS
  0
LAYER
  2
RASTER
 70
64
 62
7
  6
CONTINUOUS
  0
LAYER
  2
LISTEN
 70
64
 62
7
  6
CONTINUOUS
  0
LAYER
  2
RAHMEN
 70
64
 62
7
  6
CONTINUOUS
  0
ENDTAB
  0
TABLE
  2
STYLE
 70
1
  0
STYLE
  2
STANDARD
 70
64
 40
0
 41
1
 50
0.0
 71
0
 42
0.35
  3
ROMANS
  0
ENDTAB
  0
ENDSEC
  0
SECTION
  2
ENTITIES
  0
LINE
  8
SCHRAUBEN
 62
6
 10
60.000000
 20
10.000000
 11
40.000000
 21
-10.000000
  0
LINE
  8
SCHRAUBEN
 62
6
 10
40.000000
 20
10.000000
 11
60.000000
 21
-10.000000
  0
CIRCLE
  8
SCHRAUBEN
 62
4
 10
50.000000
 20
0.000000
 40
25.000000
  0
TEXT
 8
UNTERSCHRIFT
 62
2
 10
50.000000
 20
48.000000
 40
3.250000
 50
179.999969
 41
0.800000
 51
15.000000
  1
P
  0
TEXT
 8
UNTERSCHRIFT
 62
2
 10
47.401272
 20
47.929604
 40
3.250000
 50
-176.896515
 41
0.800000
 51
15.000000
  1
r
  0
TEXT
 8
UNTERSCHRIFT
 62
2
 10
44.810162
 20
47.718613
 40
3.250000
 50
-173.792999
 41
0.800000
 51
15.000000
  1
o
  0
TEXT
 8
UNTERSCHRIFT
 62
2
 10
42.234276
 20
47.367645
 40
3.250000
 50
-170.689468
 41
0.800000
 51
15.000000
  1
j
  0
TEXT
 8
UNTERSCHRIFT
 62
2
 10
39.681175
 20
46.877739
 40
3.250000
 50
-167.585953
 41
0.800000
 51
15.000000
  1
e
  0
TEXT
 8
UNTERSCHRIFT
 62
2
 10
37.158340
 20
46.250320
 40
3.250000
 50
-164.482407
 41
0.800000
 51
15.000000
  1
c
  0
TEXT
 8
UNTERSCHRIFT
 62
2
 10
34.673172
 20
45.487236
 40
3.250000
 50
-161.378906
 41
0.800000
 51
15.000000
  1
t
  0
TEXT
 8
UNTERSCHRIFT
 62
2
 10
32.232964
 20
44.590725
 40
3.250000
 50
-158.275360
 41
0.800000
 51
15.000000
  1
 
  0
TEXT
 8
UNTERSCHRIFT
 62
2
 10
29.844877
 20
43.563419
 40
3.250000
 50
-155.171860
 41
0.800000
 51
15.000000
  1
 
  0
TEXT
 8
UNTERSCHRIFT
 62
2
 10
27.515911
 20
42.408325
 40
3.250000
 50
-152.068344
 41
0.800000
 51
15.000000
  1
D
  0
TEXT
 8
UNTERSCHRIFT
 62
2
 10
25.252897
 20
41.128838
 40
3.250000
 50
-148.964828
 41
0.800000
 51
15.000000
  1
P
  0
TEXT
 8
UNTERSCHRIFT
 62
2
 10
23.062475
 20
39.728706
 40
3.250000
 50
-145.861313
 41
0.800000
 51
15.000000
  1
0
  0
TEXT
 8
UNTERSCHRIFT
 62
2
 10
20.951069
 20
38.212036
 40
3.250000
 50
-142.757813
 41
0.800000
 51
15.000000
  1
G
  0
TEXT
 8
UNTERSCHRIFT
 62
2
 10
18.924870
 20
36.583282
 40
3.250000
 50
-139.654282
 41
0.800000
 51
15.000000
  1
N
  0
TEXT
 8
UNTERSCHRIFT
 62
2
 10
16.989826
 20
34.847218
 40
3.250000
 50
-136.550781
 41
0.800000
 51
15.000000
  1
9
  0
TEXT
 8
UNTERSCHRIFT
 62
2
 10
15.151609
 20
33.008934
 40
3.250000
 50
-133.447266
 41
0.800000
 51
15.000000
  1
 
  0
TEXT
 8
UNTERSCHRIFT
 62
2
 10
13.415613
 20
31.073830
 40
3.250000
 50
-130.343750
 41
0.800000
 51
15.000000
  1
 
  0
TEXT
 8
UNTERSCHRIFT
 62
2
 10
11.786930
 20
29.047573
 40
3.250000
 50
-127.240234
 41
0.800000
 51
15.000000
  1
,
  0
TEXT
 8
UNTERSCHRIFT
 62
2
 10
10.270338
 20
26.936113
 40
3.250000
 50
-124.136726
 41
0.800000
 51
15.000000
  1
Q
  0
TEXT
 8
UNTERSCHRIFT
 62
2
 10
8.870285
 20
24.745640
 40
3.250000
 50
-121.033211
 41
0.800000
 51
15.000000
  1
t
  0
TEXT
 8
UNTERSCHRIFT
 62
2
 10
7.590877
 20
22.482582
 40
3.250000
 50
-117.929695
 41
0.800000
 51
15.000000
  1
y
  0
TEXT
 8
UNTERSCHRIFT
 62
2
 10
6.435867
 20
20.153576
 40
3.250000
 50
-114.826180
 41
0.800000
 51
15.000000
  1
.
  0
TEXT
 8
UNTERSCHRIFT
 62
2
 10
5.408645
 20
17.765450
 40
3.250000
 50
-111.722664
 41
0.800000
 51
15.000000
  1
 
  0
TEXT
 8
UNTERSCHRIFT
 62
2
 10
4.512222
 20
15.325216
 40
3.250000
 50
-108.619148
 41
0.800000
 51
15.000000
  1
8
  0
TEXT
 8
UNTERSCHRIFT
 62
2
 10
3.749228
 20
12.840028
 40
3.250000
 50
-105.515633
 41
0.800000
 51
15.000000
  1
0
  0
TEXT
 8
UNTERSCHRIFT
 62
2
 10
3.121902
 20
10.317175
 40
3.250000
 50
-102.412117
 41
0.800000
 51
15.000000
  1
 
  0
TEXT
 8
UNTERSCHRIFT
 62
2
 10
2.632083
 20
7.764060
 40
3.250000
 50
-99.308601
 41
0.800000
 51
15.000000
  1
 
  0
TEXT
 8
UNTERSCHRIFT
 62
2
 10
2.281208
 20
5.188170
 40
3.250000
 50
-96.205086
 41
0.800000
 51
15.000000
  1
,
  0
TEXT
 8
UNTERSCHRIFT
 62
2
 10
2.070307
 20
2.597063
 40
3.250000
 50
-93.101570
 41
0.800000
 51
15.000000
  1
 
  0
TEXT
 8
UNTERSCHRIFT
 62
2
 10
1.999998
 20
-0.001663
 40
3.250000
 50
-89.998055
 41
0.800000
 51
15.000000
  1
P
  0
TEXT
 8
UNTERSCHRIFT
 62
2
 10
2.070487
 20
-2.600384
 40
3.250000
 50
-86.894539
 41
0.800000
 51
15.000000
  1
o
  0
TEXT
 8
UNTERSCHRIFT
 62
2
 10
2.281568
 20
-5.191478
 40
3.250000
 50
-83.791023
 41
0.800000
 51
15.000000
  1
s
  0
TEXT
 8
UNTERSCHRIFT
 62
2
 10
2.632621
 20
-7.767343
 40
3.250000
 50
-80.687508
 41
0.800000
 51
15.000000
  1
.
  0
TEXT
 8
UNTERSCHRIFT
 62
2
 10
3.122617
 20
-10.320424
 40
3.250000
 50
-77.583992
 41
0.800000
 51
15.000000
  1
 
  0
TEXT
 8
UNTERSCHRIFT
 62
2
 10
3.750118
 20
-12.843232
 40
3.250000
 50
-74.480484
 41
0.800000
 51
15.000000
  1
 
  0
TEXT
 8
UNTERSCHRIFT
 62
2
 10
4.513284
 20
-15.328368
 40
3.250000
 50
-71.376961
 41
0.800000
 51
15.000000
  1
4
  0
TEXT
 8
UNTERSCHRIFT
 62
2
 10
5.409876
 20
-17.768539
 40
3.250000
 50
-68.273453
 41
0.800000
 51
15.000000
  1
_
  0
TEXT
 8
UNTERSCHRIFT
 62
2
 10
6.437264
 20
-20.156593
 40
3.250000
 50
-65.169930
 41
0.800000
 51
15.000000
  1
1
  0
TEXT
 8
UNTERSCHRIFT
 62
2
 10
7.592435
 20
-22.485521
 40
3.250000
 50
-62.066422
 41
0.800000
 51
15.000000
  1
1
  0
TEXT
 8
UNTERSCHRIFT
 62
2
 10
8.872000
 20
-24.748489
 40
3.250000
 50
-58.962906
 41
0.800000
 51
15.000000
  1
_
  0
TEXT
 8
UNTERSCHRIFT
 62
2
 10
10.272205
 20
-26.938866
 40
3.250000
 50
-55.859386
 41
0.800000
 51
15.000000
  1
2
  0
TEXT
 8
UNTERSCHRIFT
 62
2
 10
11.788944
 20
-29.050220
 40
3.250000
 50
-52.755871
 41
0.800000
 51
15.000000
  1
1
  0
TEXT
 8
UNTERSCHRIFT
 62
2
 10
13.417768
 20
-31.076365
 40
3.250000
 50
-49.652359
 41
0.800000
 51
15.000000
  1
6
  0
TEXT
 8
UNTERSCHRIFT
 62
2
 10
15.153896
 20
-33.011353
 40
3.250000
 50
-46.548832
 41
0.800000
 51
15.000000
  1
4
  0
TEXT
 8
UNTERSCHRIFT
 62
2
 10
16.992241
 20
-34.849506
 40
3.250000
 50
-43.445328
 41
0.800000
 51
15.000000
  1
 
  0
TEXT
 8
UNTERSCHRIFT
 62
2
 10
18.927406
 20
-36.585434
 40
3.250000
 50
-40.341808
 41
0.800000
 51
15.000000
  1
 
  0
TEXT
 8
UNTERSCHRIFT
 62
2
 10
20.953728
 20
-38.214058
 40
3.250000
 50
-37.238297
 41
0.800000
 51
15.000000
  1
 
  0
TEXT
 8
UNTERSCHRIFT
 62
2
 10
23.065247
 20
-39.730583
 40
3.250000
 50
-34.134785
 41
0.800000
 51
15.000000
  1
,
  0
TEXT
 8
UNTERSCHRIFT
 62
2
 10
25.255779
 20
-41.130566
 40
3.250000
 50
-31.031237
 41
0.800000
 51
15.000000
  1
 
  0
TEXT
 8
UNTERSCHRIFT
 62
2
 10
27.518892
 20
-42.409901
 40
3.250000
 50
-27.927731
 41
0.800000
 51
15.000000
  1
P
  0
TEXT
 8
UNTERSCHRIFT
 62
2
 10
29.847950
 20
-43.564838
 40
3.250000
 50
-24.824177
 41
0.800000
 51
15.000000
  1
r
  0
TEXT
 8
UNTERSCHRIFT
 62
2
 10
32.236122
 20
-44.591980
 40
3.250000
 50
-21.720667
 41
0.800000
 51
15.000000
  1
o
  0
TEXT
 8
UNTERSCHRIFT
 62
2
 10
34.676395
 20
-45.488319
 40
3.250000
 50
-18.617119
 41
0.800000
 51
15.000000
  1
f
  0
TEXT
 8
UNTERSCHRIFT
 62
2
 10
37.161625
 20
-46.251228
 40
3.250000
 50
-15.513596
 41
0.800000
 51
15.000000
  1
i
  0
TEXT
 8
UNTERSCHRIFT
 62
2
 10
39.684509
 20
-46.878468
 40
3.250000
 50
-12.410084
 41
0.800000
 51
15.000000
  1
 
  0
TEXT
 8
UNTERSCHRIFT
 62
2
 10
42.237656
 20
-47.368198
 40
3.250000
 50
-9.306539
 41
0.800000
 51
15.000000
  1
l
  0
TEXT
 8
UNTERSCHRIFT
 62
2
 10
44.813568
 20
-47.718979
 40
3.250000
 50
-6.203021
 41
0.800000
 51
15.000000
  1
 
  0
TEXT
 8
UNTERSCHRIFT
 62
2
 10
47.404694
 20
-47.929787
 40
3.250000
 50
-3.099467
 41
0.800000
 51
15.000000
  1
P
  0
TEXT
 8
UNTERSCHRIFT
 62
2
 10
50.003433
 20
-48.000000
 40
3.250000
 50
0.004043
 41
0.800000
 51
15.000000
  1
L
  0
TEXT
 8
UNTERSCHRIFT
 62
2
 10
52.602161
 20
-47.929417
 40
3.250000
 50
3.107566
 41
0.800000
 51
15.000000
  1
1
  0
TEXT
 8
UNTERSCHRIFT
 62
2
 10
55.193260
 20
-47.718239
 40
3.250000
 50
6.211100
 41
0.800000
 51
15.000000
  1
0
  0
TEXT
 8
UNTERSCHRIFT
 62
2
 10
57.769123
 20
-47.367088
 40
3.250000
 50
9.314624
 41
0.800000
 51
15.000000
  1
0
  0
TEXT
 8
UNTERSCHRIFT
 62
2
 10
60.322197
 20
-46.876991
 40
3.250000
 50
12.418168
 41
0.800000
 51
15.000000
  1
*
  0
TEXT
 8
UNTERSCHRIFT
 62
2
 10
62.844994
 20
-46.249393
 40
3.250000
 50
15.521679
 41
0.800000
 51
15.000000
  1
2
  0
TEXT
 8
UNTERSCHRIFT
 62
2
 10
65.330109
 20
-45.486126
 40
3.250000
 50
18.625219
 41
0.800000
 51
15.000000
  1
0
  0
LINE
  8
TEILE
 62
2
 10
50.000000
 20
50.000000
 11
51.869545
 21
49.965038
  0
LINE
  8
TEILE
 62
2
 10
51.869545
 20
49.965038
 11
53.736481
 21
49.860191
  0
LINE
  8
TEILE
 62
2
 10
53.736481
 20
49.860191
 11
55.598190
 21
49.685616
  0
LINE
  8
TEILE
 62
2
 10
55.598190
 20
49.685616
 11
57.452072
 21
49.441547
  0
LINE
  8
TEILE
 62
2
 10
57.452072
 20
49.441547
 11
59.295536
 21
49.128334
  0
LINE
  8
TEILE
 62
2
 10
59.295536
 20
49.128334
 11
61.125992
 21
48.746410
  0
LINE
  8
TEILE
 62
2
 10
61.125992
 20
48.746410
 11
62.940895
 21
48.296310
  0
LINE
  8
TEILE
 62
2
 10
62.940895
 20
48.296310
 11
64.737694
 21
47.778660
  0
LINE
  8
TEILE
 62
2
 10
64.737694
 20
47.778660
 11
66.513885
 21
47.194191
  0
LINE
  8
TEILE
 62
2
 10
66.513885
 20
47.194191
 11
68.266975
 21
46.543716
  0
LINE
  8
TEILE
 62
2
 10
68.266975
 20
46.543716
 11
69.994522
 21
45.828148
  0
LINE
  8
TEILE
 62
2
 10
69.994522
 20
45.828148
 11
71.694099
 21
45.048485
  0
LINE
  8
TEILE
 62
2
 10
71.694099
 20
45.048485
 11
73.363342
 21
44.205818
  0
LINE
  8
TEILE
 62
2
 10
73.363342
 20
44.205818
 11
74.999908
 21
43.301323
  0
LINE
  8
TEILE
 62
2
 10
74.999908
 20
43.301323
 11
76.601501
 21
42.336273
  0
LINE
  8
TEILE
 62
2
 10
76.601501
 20
42.336273
 11
78.165901
 21
41.312008
  0
LINE
  8
TEILE
 62
2
 10
78.165901
 20
41.312008
 11
79.690903
 21
40.229969
  0
LINE
  8
TEILE
 62
2
 10
79.690903
 20
40.229969
 11
81.174385
 21
39.091660
  0
LINE
  8
TEILE
 62
2
 10
81.174385
 20
39.091660
 11
82.614258
 21
37.898682
  0
LINE
  8
TEILE
 62
2
 10
82.614258
 20
37.898682
 11
84.008522
 21
36.652699
  0
LINE
  8
TEILE
 62
2
 10
84.008522
 20
36.652699
 11
85.355225
 21
35.355453
  0
LINE
  8
TEILE
 62
2
 10
85.355225
 20
35.355453
 11
86.652481
 21
34.008759
  0
LINE
  8
TEILE
 62
2
 10
86.652481
 20
34.008759
 11
87.898476
 21
32.614502
  0
LINE
  8
TEILE
 62
2
 10
87.898476
 20
32.614502
 11
89.091461
 21
31.174633
  0
LINE
  8
TEILE
 62
2
 10
89.091461
 20
31.174633
 11
90.229782
 21
29.691162
  0
LINE
  8
TEILE
 62
2
 10
90.229782
 20
29.691162
 11
91.311829
 21
28.166164
  0
LINE
  8
TEILE
 62
2
 10
91.311829
 20
28.166164
 11
92.336105
 21
26.601776
  0
LINE
  8
TEILE
 62
2
 10
92.336105
 20
26.601776
 11
93.301163
 21
25.000183
  0
LINE
  8
TEILE
 62
2
 10
93.301163
 20
25.000183
 11
94.205666
 21
23.363625
  0
LINE
  8
TEILE
 62
2
 10
94.205666
 20
23.363625
 11
95.048340
 21
21.694391
  0
LINE
  8
TEILE
 62
2
 10
95.048340
 20
21.694391
 11
95.828018
 21
19.994814
  0
LINE
  8
TEILE
 62
2
 10
95.828018
 20
19.994814
 11
96.543594
 21
18.267275
  0
LINE
  8
TEILE
 62
2
 10
96.543594
 20
18.267275
 11
97.194077
 21
16.514187
  0
LINE
  8
TEILE
 62
2
 10
97.194077
 20
16.514187
 11
97.778564
 21
14.738002
  0
LINE
  8
TEILE
 62
2
 10
97.778564
 20
14.738002
 11
98.296219
 21
12.941204
  0
LINE
  8
TEILE
 62
2
 10
98.296219
 20
12.941204
 11
98.746338
 21
11.126308
  0
LINE
  8
TEILE
 62
2
 10
98.746338
 20
11.126308
 11
99.128273
 21
9.295852
  0
LINE
  8
TEILE
 62
2
 10
99.128273
 20
9.295852
 11
99.441498
 21
7.452393
  0
LINE
  8
TEILE
 62
2
 10
99.441498
 20
7.452393
 11
99.685577
 21
5.598512
  0
LINE
  8
TEILE
 62
2
 10
99.685577
 20
5.598512
 11
99.860168
 21
3.736801
  0
LINE
  8
TEILE
 62
2
 10
99.860168
 20
3.736801
 11
99.965019
 21
1.869864
  0
LINE
  8
TEILE
 62
2
 10
99.965019
 20
1.869864
 11
100.000000
 21
0.000312
  0
LINE
  8
TEILE
 62
2
 10
100.000000
 20
0.000312
 11
99.965050
 21
-1.869241
  0
LINE
  8
TEILE
 62
2
 10
99.965050
 20
-1.869241
 11
99.860214
 21
-3.736179
  0
LINE
  8
TEILE
 62
2
 10
99.860214
 20
-3.736179
 11
99.685654
 21
-5.597892
  0
LINE
  8
TEILE
 62
2
 10
99.685654
 20
-5.597892
 11
99.441597
 21
-7.451777
  0
LINE
  8
TEILE
 62
2
 10
99.441597
 20
-7.451777
 11
99.128387
 21
-9.295238
  0
LINE
  8
TEILE
 62
2
 10
99.128387
 20
-9.295238
 11
98.746475
 21
-11.125700
  0
LINE
  8
TEILE
 62
2
 10
98.746475
 20
-11.125700
 11
98.296387
 21
-12.940602
  0
LINE
  8
TEILE
 62
2
 10
98.296387
 20
-12.940602
 11
97.778748
 21
-14.737406
  0
LINE
  8
TEILE
 62
2
 10
97.778748
 20
-14.737406
 11
97.194290
 21
-16.513597
  0
LINE
  8
TEILE
 62
2
 10
97.194290
 20
-16.513597
 11
96.543823
 21
-18.266695
  0
LINE
  8
TEILE
 62
2
 10
96.543823
 20
-18.266695
 11
95.828262
 21
-19.994244
  0
LINE
  8
TEILE
 62
2
 10
95.828262
 20
-19.994244
 11
95.048615
 21
-21.693829
  0
LINE
  8
TEILE
 62
2
 10
95.048615
 20
-21.693829
 11
94.205963
 21
-23.363073
  0
LINE
  8
TEILE
 62
2
 10
94.205963
 20
-23.363073
 11
93.301476
 21
-24.999641
  0
LINE
  8
TEILE
 62
2
 10
93.301476
 20
-24.999641
 11
92.336433
 21
-26.601248
  0
LINE
  8
TEILE
 62
2
 10
92.336433
 20
-26.601248
 11
91.312180
 21
-28.165649
  0
LINE
  8
TEILE
 62
2
 10
91.312180
 20
-28.165649
 11
90.230148
 21
-29.690659
  0
LINE
  8
TEILE
 62
2
 10
90.230148
 20
-29.690659
 11
89.091843
 21
-31.174145
  0
LINE
  8
TEILE
 62
2
 10
89.091843
 20
-31.174145
 11
87.898872
 21
-32.614029
  0
LINE
  8
TEILE
 62
2
 10
87.898872
 20
-32.614029
 11
86.652901
 21
-34.008301
  0
LINE
  8
TEILE
 62
2
 10
86.652901
 20
-34.008301
 11
85.355667
 21
-35.355011
  0
LINE
  8
TEILE
 62
2
 10
85.355667
 20
-35.355011
 11
84.008980
 21
-36.652275
  0
LINE
  8
TEILE
 62
2
 10
84.008980
 20
-36.652275
 11
82.614738
 21
-37.898277
  0
LINE
  8
TEILE
 62
2
 10
82.614738
 20
-37.898277
 11
81.174866
 21
-39.091270
  0
LINE
  8
TEILE
 62
2
 10
81.174866
 20
-39.091270
 11
79.691406
 21
-40.229599
  0
LINE
  8
TEILE
 62
2
 10
79.691406
 20
-40.229599
 11
78.166412
 21
-41.311661
  0
LINE
  8
TEILE
 62
2
 10
78.166412
 20
-41.311661
 11
76.602028
 21
-42.335938
  0
LINE
  8
TEILE
 62
2
 10
76.602028
 20
-42.335938
 11
75.000443
 21
-43.301014
  0
LINE
  8
TEILE
 62
2
 10
75.000443
 20
-43.301014
 11
73.363892
 21
-44.205528
  0
LINE
  8
TEILE
 62
2
 10
73.363892
 20
-44.205528
 11
71.694656
 21
-45.048214
  0
LINE
  8
TEILE
 62
2
 10
71.694656
 20
-45.048214
 11
69.995087
 21
-45.827900
  0
LINE
  8
TEILE
 62
2
 10
69.995087
 20
-45.827900
 11
68.267555
 21
-46.543488
  0
LINE
  8
TEILE
 62
2
 10
68.267555
 20
-46.543488
 11
66.514473
 21
-47.193985
  0
LINE
  8
TEILE
 62
2
 10
66.514473
 20
-47.193985
 11
64.738289
 21
-47.778477
  0
LINE
  8
TEILE
 62
2
 10
64.738289
 20
-47.778477
 11
62.941494
 21
-48.296146
  0
LINE
  8
TEILE
 62
2
 10
62.941494
 20
-48.296146
 11
61.126602
 21
-48.746265
  0
LINE
  8
TEILE
 62
2
 10
61.126602
 20
-48.746265
 11
59.296146
 21
-49.128220
  0
LINE
  8
TEILE
 62
2
 10
59.296146
 20
-49.128220
 11
57.452694
 21
-49.441452
  0
LINE
  8
TEILE
 62
2
 10
57.452694
 20
-49.441452
 11
55.598812
 21
-49.685547
  0
LINE
  8
TEILE
 62
2
 10
55.598812
 20
-49.685547
 11
53.737103
 21
-49.860146
  0
LINE
  8
TEILE
 62
2
 10
53.737103
 20
-49.860146
 11
51.870163
 21
-49.965015
  0
LINE
  8
TEILE
 62
2
 10
51.870163
 20
-49.965015
 11
50.000614
 21
-50.000000
  0
LINE
  8
TEILE
 62
2
 10
50.000614
 20
-50.000000
 11
48.131062
 21
-49.965057
  0
LINE
  8
TEILE
 62
2
 10
48.131062
 20
-49.965057
 11
46.264118
 21
-49.860233
  0
LINE
  8
TEILE
 62
2
 10
46.264118
 20
-49.860233
 11
44.402409
 21
-49.685684
  0
LINE
  8
TEILE
 62
2
 10
44.402409
 20
-49.685684
 11
42.548523
 21
-49.441639
  0
LINE
  8
TEILE
 62
2
 10
42.548523
 20
-49.441639
 11
40.705055
 21
-49.128441
  0
LINE
  8
TEILE
 62
2
 10
40.705055
 20
-49.128441
 11
38.874592
 21
-48.746544
  0
LINE
  8
TEILE
 62
2
 10
38.874592
 20
-48.746544
 11
37.059689
 21
-48.296463
  0
LINE
  8
TEILE
 62
2
 10
37.059689
 20
-48.296463
 11
35.262882
 21
-47.778835
  0
LINE
  8
TEILE
 62
2
 10
35.262882
 20
-47.778835
 11
33.486687
 21
-47.194389
  0
LINE
  8
TEILE
 62
2
 10
33.486687
 20
-47.194389
 11
31.733587
 21
-46.543938
  0
LINE
  8
TEILE
 62
2
 10
31.733587
 20
-46.543938
 11
30.006035
 21
-45.828392
  0
LINE
  8
TEILE
 62
2
 10
30.006035
 20
-45.828392
 11
28.306444
 21
-45.048748
  0
LINE
  8
TEILE
 62
2
 10
28.306444
 20
-45.048748
 11
26.637194
 21
-44.206100
  0
LINE
  8
TEILE
 62
2
 10
26.637194
 20
-44.206100
 11
25.000618
 21
-43.301624
  0
LINE
  8
TEILE
 62
2
 10
25.000618
 20
-43.301624
 11
23.399008
 21
-42.336594
  0
LINE
  8
TEILE
 62
2
 10
23.399008
 20
-42.336594
 11
21.834599
 21
-41.312347
  0
LINE
  8
TEILE
 62
2
 10
21.834599
 20
-41.312347
 11
20.309582
 21
-40.230328
  0
LINE
  8
TEILE
 62
2
 10
20.309582
 20
-40.230328
 11
18.826090
 21
-39.092037
  0
LINE
  8
TEILE
 62
2
 10
18.826090
 20
-39.092037
 11
17.386198
 21
-37.899075
  0
LINE
  8
TEILE
 62
2
 10
17.386198
 20
-37.899075
 11
15.991918
 21
-36.653107
  0
LINE
  8
TEILE
 62
2
 10
15.991918
 20
-36.653107
 11
14.645193
 21
-35.355869
  0
LINE
  8
TEILE
 62
2
 10
14.645193
 20
-35.355869
 11
13.347916
 21
-34.009186
  0
LINE
  8
TEILE
 62
2
 10
13.347916
 20
-34.009186
 11
12.101898
 21
-32.614933
  0
LINE
  8
TEILE
 62
2
 10
12.101898
 20
-32.614933
 11
10.908886
 21
-31.175068
  0
LINE
  8
TEILE
 62
2
 10
10.908886
 20
-31.175068
 11
9.770547
 21
-29.691599
  0
LINE
  8
TEILE
 62
2
 10
9.770547
 20
-29.691599
 11
8.688472
 21
-28.166603
  0
LINE
  8
TEILE
 62
2
 10
8.688472
 20
-28.166603
 11
7.664175
 21
-26.602215
  0
LINE
  8
TEILE
 62
2
 10
7.664175
 20
-26.602215
 11
6.699090
 21
-25.000622
  0
LINE
  8
TEILE
 62
2
 10
6.699090
 20
-25.000622
 11
5.794564
 21
-23.364063
  0
LINE
  8
TEILE
 62
2
 10
5.794564
 20
-23.364063
 11
4.951864
 21
-21.694828
  0
LINE
  8
TEILE
 62
2
 10
4.951864
 20
-21.694828
 11
4.172169
 21
-19.995247
  0
LINE
  8
TEILE
 62
2
 10
4.172169
 20
-19.995247
 11
3.456568
 21
-18.267704
  0
LINE
  8
TEILE
 62
2
 10
3.456568
 20
-18.267704
 11
2.806063
 21
-16.514608
  0
LINE
  8
TEILE
 62
2
 10
2.806063
 20
-16.514608
 11
2.221563
 21
-14.738418
  0
LINE
  8
TEILE
 62
2
 10
2.221563
 20
-14.738418
 11
1.703886
 21
-12.941614
  0
LINE
  8
TEILE
 62
2
 10
1.703886
 20
-12.941614
 11
1.253756
 21
-11.126710
  0
LINE
  8
TEILE
 62
2
 10
1.253756
 20
-11.126710
 11
0.871802
 21
-9.296245
  0
LINE
  8
TEILE
 62
2
 10
0.871802
 20
-9.296245
 11
0.558559
 21
-7.452777
  0
LINE
  8
TEILE
 62
2
 10
0.558559
 20
-7.452777
 11
0.314464
 21
-5.598886
  0
LINE
  8
TEILE
 62
2
 10
0.314464
 20
-5.598886
 11
0.139860
 21
-3.737165
  0
LINE
  8
TEILE
 62
2
 10
0.139860
 20
-3.737165
 11
0.034989
 21
-1.870216
  0
LINE
  8
TEILE
 62
2
 10
0.034989
 20
-1.870216
 11
0.000000
 21
-0.000652
  0
LINE
  8
TEILE
 62
2
 10
0.000000
 20
-0.000652
 11
0.034941
 21
1.868913
  0
LINE
  8
TEILE
 62
2
 10
0.034941
 20
1.868913
 11
0.139762
 21
3.735864
  0
LINE
  8
TEILE
 62
2
 10
0.139762
 20
3.735864
 11
0.314318
 21
5.597589
  0
LINE
  8
TEILE
 62
2
 10
0.314318
 20
5.597589
 11
0.558364
 21
7.451487
  0
LINE
  8
TEILE
 62
2
 10
0.558364
 20
7.451487
 11
0.871559
 21
9.294963
  0
LINE
  8
TEILE
 62
2
 10
0.871559
 20
9.294963
 11
1.253465
 21
11.125439
  0
LINE
  8
TEILE
 62
2
 10
1.253465
 20
11.125439
 11
1.703548
 21
12.940354
  0
LINE
  8
TEILE
 62
2
 10
1.703548
 20
12.940354
 11
2.221179
 21
14.737172
  0
LINE
  8
TEILE
 62
2
 10
2.221179
 20
14.737172
 11
2.805632
 21
16.513378
  0
LINE
  8
TEILE
 62
2
 10
2.805632
 20
16.513378
 11
3.456091
 21
18.266489
  0
LINE
  8
TEILE
 62
2
 10
3.456091
 20
18.266489
 11
4.171647
 21
19.994051
  0
LINE
  8
TEILE
 62
2
 10
4.171647
 20
19.994051
 11
4.951298
 21
21.693649
  0
LINE
  8
TEILE
 62
2
 10
4.951298
 20
21.693649
 11
5.793954
 21
23.362907
  0
LINE
  8
TEILE
 62
2
 10
5.793954
 20
23.362907
 11
6.698437
 21
24.999493
  0
LINE
  8
TEILE
 62
2
 10
6.698437
 20
24.999493
 11
7.663481
 21
26.601112
  0
LINE
  8
TEILE
 62
2
 10
7.663481
 20
26.601112
 11
8.687737
 21
28.165527
  0
LINE
  8
TEILE
 62
2
 10
8.687737
 20
28.165527
 11
9.769772
 21
29.690550
  0
LINE
  8
TEILE
 62
2
 10
9.769772
 20
29.690550
 11
10.908072
 21
31.174047
  0
LINE
  8
TEILE
 62
2
 10
10.908072
 20
31.174047
 11
12.101048
 21
32.613945
  0
LINE
  8
TEILE
 62
2
 10
12.101048
 20
32.613945
 11
13.347027
 21
34.008228
  0
LINE
  8
TEILE
 62
2
 10
13.347027
 20
34.008228
 11
14.644270
 21
35.354950
  0
LINE
  8
TEILE
 62
2
 10
14.644270
 20
35.354950
 11
15.990961
 21
36.652222
  0
LINE
  8
TEILE
 62
2
 10
15.990961
 20
36.652222
 11
17.385218
 21
37.898232
  0
LINE
  8
TEILE
 62
2
 10
17.385218
 20
37.898232
 11
18.825089
 21
39.091240
  0
LINE
  8
TEILE
 62
2
 10
18.825089
 20
39.091240
 11
20.308561
 21
40.229572
  0
LINE
  8
TEILE
 62
2
 10
20.308561
 20
40.229572
 11
21.833561
 21
41.311642
  0
LINE
  8
TEILE
 62
2
 10
21.833561
 20
41.311642
 11
23.397951
 21
42.335930
  0
LINE
  8
TEILE
 62
2
 10
23.397951
 20
42.335930
 11
24.999550
 21
43.301010
  0
LINE
  8
TEILE
 62
2
 10
24.999550
 20
43.301010
 11
26.636112
 21
44.205528
  0
LINE
  8
TEILE
 62
2
 10
26.636112
 20
44.205528
 11
28.305351
 21
45.048222
  0
LINE
  8
TEILE
 62
2
 10
28.305351
 20
45.048222
 11
30.004936
 21
45.827908
  0
LINE
  8
TEILE
 62
2
 10
30.004936
 20
45.827908
 11
31.732475
 21
46.543503
  0
LINE
  8
TEILE
 62
2
 10
31.732475
 20
46.543503
 11
33.485569
 21
47.194000
  0
LINE
  8
TEILE
 62
2
 10
33.485569
 20
47.194000
 11
35.261757
 21
47.778492
  0
LINE
  8
TEILE
 62
2
 10
35.261757
 20
47.778492
 11
37.058556
 21
48.296162
  0
LINE
  8
TEILE
 62
2
 10
37.058556
 20
48.296162
 11
38.873451
 21
48.746281
  0
LINE
  8
TEILE
 62
2
 10
38.873451
 20
48.746281
 11
40.703918
 21
49.128227
  0
LINE
  8
TEILE
 62
2
 10
40.703918
 20
49.128227
 11
42.547379
 21
49.441467
  0
LINE
  8
TEILE
 62
2
 10
42.547379
 20
49.441467
 11
44.401264
 21
49.685555
  0
LINE
  8
TEILE
 62
2
 10
44.401264
 20
49.685555
 11
46.262978
 21
49.860153
  0
LINE
  8
TEILE
 62
2
 10
46.262978
 20
49.860153
 11
48.129921
 21
49.965015
  0
LINE
  8
TEILE
 62
2
 10
48.129921
 20
49.965015
 11
49.999481
 21
50.000000
  0
LINE
  8
TEILE
 62
2
 10
49.999481
 20
50.000000
 11
50.000000
 21
50.000000
  0
TEXT
 8
BEZ_SCHRAUBEN
 62
2
 10
42.000000
 20
-32.500000
 40
5.000000
 41
0.800000
 51
15.000000
  1
 ø50
  0
ENDSEC
  0
EOF

