999
     *******************************************
999
     BOCAD Software GmbH   Rev.18.000   0202.22
999
     Filename:   c:\progetti21\danieli_aqs\b4\temp_61\4_61_1571.dxf
999
     Creator:    bocad
999
     Date:       20.01.2016
999
     Factor:     10.000000
999
     *******************************************
  0
SECTION
  2
HEADER
  9
$DWGCODEPAGE
  3
ANSI_1252
  9
$INSBASE
 10
0.0
 20
0.0
 30
0.0
  9
$EXTMIN
 10
-0.500000
 20
-134.448395
  9
$EXTMAX
 10
269.856358
 20
134.448395
  9
$LIMMIN
 10
-1.500000
 20
-135.448395
  9
$LIMMAX
 10
270.856358
 20
135.448395
  9
$LTSCALE
 40
10.000000
  0
ENDSEC
  0
SECTION
  2
TABLES
  0
TABLE
  2
LTYPE
 70
4
  0
LTYPE
  2
CONTINUOUS
 70
64
  3
____________________________________________
 72
65
 73
0
 40
0.0
  0
LTYPE
  2
HIDDEN
 70
64
  3
__ __ __ __ __ __ __ __ __ __ __ __ __ __ __
 72
65
 73
2
 40
0.50
 49
0.30
 49
-0.20
  0
LTYPE
  2
DASHDOT
 70
64
  3
____ _ ____ _ ____ _ ____ _ ____ _ ____ _ __
 72
65
 73
4
 40
2.0
 49
1.5
 49
-0.25
 49
0
 49
-0.25
  0
LTYPE
  2
DOT
 70
64
  3
............................................
 72
65
 73
2
 40
0.30
 49
0
 49
-0.30
  0
ENDTAB
  0
TABLE
  2
LAYER
 70
23
  0
LAYER
  2
SCHRAUBEN
 70
64
 62
7
  6
CONTINUOUS
  0
LAYER
  2
REST
 70
64
 62
7
  6
CONTINUOUS
  0
LAYER
  2
UNTERSCHRIFT
 70
64
 62
7
  6
CONTINUOUS
  0
LAYER
  2
TEILE
 70
64
 62
7
  6
CONTINUOUS
  0
LAYER
  2
BEZ_SCHRAUBEN
 70
64
 62
7
  6
CONTINUOUS
  0
LAYER
  2
MARKERPUNKTE
 70
64
 62
7
  6
CONTINUOUS
  0
LAYER
  2
HILFSPUNKTE
 70
64
 62
7
  6
CONTINUOUS
  0
LAYER
  2
PICKPUNKTE
 70
64
 62
7
  6
CONTINUOUS
  0
LAYER
  2
SCHWEISSEN
 70
64
 62
7
  6
CONTINUOUS
  0
LAYER
  2
GRAFIK
 70
64
 62
7
  6
CONTINUOUS
  0
LAYER
  2
BEM_FREI
 70
64
 62
7
  6
CONTINUOUS
  0
LAYER
  2
BEM_SYSTEM
 70
64
 62
7
  6
CONTINUOUS
  0
LAYER
  2
BEM_KONTUR
 70
64
 62
7
  6
CONTINUOUS
  0
LAYER
  2
BEM_ANBAU
 70
64
 62
7
  6
CONTINUOUS
  0
LAYER
  2
BEM_SCHRAUBEN
 70
64
 62
7
  6
CONTINUOUS
  0
LAYER
  2
BEM_SCHWEISSEN
 70
64
 62
7
  6
CONTINUOUS
  0
LAYER
  2
FREIER_TEXT
 70
64
 62
7
  6
CONTINUOUS
  0
LAYER
  2
BEZ_TEILE
 70
64
 62
7
  6
CONTINUOUS
  0
LAYER
  2
BEZ_SCHWEISSEN
 70
64
 62
7
  6
CONTINUOUS
  0
LAYER
  2
SCHRAFFUREN
 70
64
 62
7
  6
CONTINUOUS
  0
LAYER
  2
SCHNITTSYMBOL
 70
64
 62
7
  6
CONTINUOUS
  0
LAYER
  2
RASTER
 70
64
 62
7
  6
CONTINUOUS
  0
LAYER
  2
LISTEN
 70
64
 62
7
  6
CONTINUOUS
  0
LAYER
  2
RAHMEN
 70
64
 62
7
  6
CONTINUOUS
  0
ENDTAB
  0
TABLE
  2
STYLE
 70
1
  0
STYLE
  2
STANDARD
 70
64
 40
0
 41
1
 50
0.0
 71
0
 42
0.35
  3
ROMANS
  0
ENDTAB
  0
ENDSEC
  0
SECTION
  2
ENTITIES
  0
LINE
  8
SCHRAUBEN
 62
6
 10
53.592003
 20
-19.748426
 11
46.392002
 21
-26.948429
  0
LINE
  8
SCHRAUBEN
 62
6
 10
46.392002
 20
-19.748426
 11
53.592003
 21
-26.948429
  0
CIRCLE
  8
SCHRAUBEN
 62
2
 10
49.992004
 20
-23.348427
 40
9.000000
  0
LINE
  8
SCHRAUBEN
 62
6
 10
104.403267
 20
-51.657902
 11
97.203278
 21
-58.857903
  0
LINE
  8
SCHRAUBEN
 62
6
 10
97.203278
 20
-51.657902
 11
104.403267
 21
-58.857903
  0
CIRCLE
  8
SCHRAUBEN
 62
2
 10
100.803268
 20
-55.257904
 40
9.000000
  0
LINE
  8
SCHRAUBEN
 62
6
 10
155.214539
 20
-83.567383
 11
148.014542
 21
-90.767372
  0
LINE
  8
SCHRAUBEN
 62
6
 10
148.014542
 20
-83.567383
 11
155.214539
 21
-90.767372
  0
CIRCLE
  8
SCHRAUBEN
 62
2
 10
151.614548
 20
-87.167374
 40
9.000000
  0
LINE
  8
SCHRAUBEN
 62
6
 10
134.913361
 20
102.548386
 11
127.713364
 21
95.348396
  0
LINE
  8
SCHRAUBEN
 62
6
 10
127.713364
 20
102.548386
 11
134.913361
 21
95.348396
  0
CIRCLE
  8
SCHRAUBEN
 62
2
 10
131.313354
 20
98.948395
 40
9.000000
  0
LINE
  8
SCHRAUBEN
 62
6
 10
134.913361
 20
52.548389
 11
127.713364
 21
45.348389
  0
LINE
  8
SCHRAUBEN
 62
6
 10
127.713364
 20
52.548389
 11
134.913361
 21
45.348389
  0
CIRCLE
  8
SCHRAUBEN
 62
2
 10
131.313354
 20
48.948387
 40
9.000000
  0
LINE
  8
SCHRAUBEN
 62
6
 10
227.052536
 20
24.121666
 11
219.852524
 21
16.921665
  0
LINE
  8
SCHRAUBEN
 62
6
 10
219.852524
 20
24.121666
 11
227.052536
 21
16.921665
  0
CIRCLE
  8
SCHRAUBEN
 62
2
 10
223.452530
 20
20.521664
 40
9.000000
  0
LINE
  8
SCHRAUBEN
 62
6
 10
192.230392
 20
-11.758952
 11
185.030380
 21
-18.958952
  0
LINE
  8
SCHRAUBEN
 62
6
 10
185.030380
 20
-11.758952
 11
192.230392
 21
-18.958952
  0
CIRCLE
  8
SCHRAUBEN
 62
2
 10
188.630386
 20
-15.358953
 40
9.000000
  0
TEXT
 8
UNTERSCHRIFT
 62
2
 10
15.453864
 20
-34.722008
 40
3.250000
 50
-32.128857
 41
0.800000
 51
15.000000
  1
Project  DP0GN9  ,Qty. 1  , Pos. 
  0
TEXT
 8
UNTERSCHRIFT
 62
2
 10
107.930374
 20
-92.797256
 40
3.250000
 50
-32.128853
 41
0.800000
 51
15.000000
  1
  , Profi l PL268*10
  0
TEXT
 8
UNTERSCHRIFT
 62
2
 10
88.113976
 20
-80.352562
 40
3.250000
 50
-32.128853
 41
0.800000
 51
15.000000
  1
4_61_1571
  0
LINE
  8
TEILE
 62
2
 10
0.000000
 20
-27.378664
 11
101.313393
 21
133.948395
  0
LINE
  8
TEILE
 62
2
 10
101.313393
 20
133.948395
 11
161.313324
 21
133.948395
  0
LINE
  8
TEILE
 62
2
 10
161.313324
 20
133.948395
 11
269.356354
 21
24.744850
  0
LINE
  8
TEILE
 62
2
 10
269.356354
 20
24.744850
 11
169.697021
 21
-133.948395
  0
LINE
  8
TEILE
 62
2
 10
169.697021
 20
-133.948395
 11
0.000000
 21
-27.378664
  0
TEXT
 8
BEZ_SCHRAUBEN
 62
2
 10
41.992001
 20
-39.848427
 40
5.000000
 41
0.800000
 51
15.000000
  1
 ø18
  0
ENDSEC
  0
EOF

