999
     *******************************************
999
     BOCAD Software GmbH   Rev.18.000   0202.22
999
     Filename:   c:\progetti21\danieli_aqs\b4\temp_61\4_61_1548.dxf
999
     Creator:    bocad
999
     Date:       20.01.2016
999
     Factor:     10.000000
999
     *******************************************
  0
SECTION
  2
HEADER
  9
$DWGCODEPAGE
  3
ANSI_1252
  9
$INSBASE
 10
0.0
 20
0.0
 30
0.0
  9
$EXTMIN
 10
-0.500000
 20
-200.499992
  9
$EXTMAX
 10
400.499992
 20
200.499992
  9
$LIMMIN
 10
-1.500000
 20
-201.499992
  9
$LIMMAX
 10
401.499992
 20
201.499992
  9
$LTSCALE
 40
10.000000
  0
ENDSEC
  0
SECTION
  2
TABLES
  0
TABLE
  2
LTYPE
 70
4
  0
LTYPE
  2
CONTINUOUS
 70
64
  3
____________________________________________
 72
65
 73
0
 40
0.0
  0
LTYPE
  2
HIDDEN
 70
64
  3
__ __ __ __ __ __ __ __ __ __ __ __ __ __ __
 72
65
 73
2
 40
0.50
 49
0.30
 49
-0.20
  0
LTYPE
  2
DASHDOT
 70
64
  3
____ _ ____ _ ____ _ ____ _ ____ _ ____ _ __
 72
65
 73
4
 40
2.0
 49
1.5
 49
-0.25
 49
0
 49
-0.25
  0
LTYPE
  2
DOT
 70
64
  3
............................................
 72
65
 73
2
 40
0.30
 49
0
 49
-0.30
  0
ENDTAB
  0
TABLE
  2
LAYER
 70
23
  0
LAYER
  2
SCHRAUBEN
 70
64
 62
7
  6
CONTINUOUS
  0
LAYER
  2
REST
 70
64
 62
7
  6
CONTINUOUS
  0
LAYER
  2
UNTERSCHRIFT
 70
64
 62
7
  6
CONTINUOUS
  0
LAYER
  2
TEILE
 70
64
 62
7
  6
CONTINUOUS
  0
LAYER
  2
BEZ_SCHRAUBEN
 70
64
 62
7
  6
CONTINUOUS
  0
LAYER
  2
MARKERPUNKTE
 70
64
 62
7
  6
CONTINUOUS
  0
LAYER
  2
HILFSPUNKTE
 70
64
 62
7
  6
CONTINUOUS
  0
LAYER
  2
PICKPUNKTE
 70
64
 62
7
  6
CONTINUOUS
  0
LAYER
  2
SCHWEISSEN
 70
64
 62
7
  6
CONTINUOUS
  0
LAYER
  2
GRAFIK
 70
64
 62
7
  6
CONTINUOUS
  0
LAYER
  2
BEM_FREI
 70
64
 62
7
  6
CONTINUOUS
  0
LAYER
  2
BEM_SYSTEM
 70
64
 62
7
  6
CONTINUOUS
  0
LAYER
  2
BEM_KONTUR
 70
64
 62
7
  6
CONTINUOUS
  0
LAYER
  2
BEM_ANBAU
 70
64
 62
7
  6
CONTINUOUS
  0
LAYER
  2
BEM_SCHRAUBEN
 70
64
 62
7
  6
CONTINUOUS
  0
LAYER
  2
BEM_SCHWEISSEN
 70
64
 62
7
  6
CONTINUOUS
  0
LAYER
  2
FREIER_TEXT
 70
64
 62
7
  6
CONTINUOUS
  0
LAYER
  2
BEZ_TEILE
 70
64
 62
7
  6
CONTINUOUS
  0
LAYER
  2
BEZ_SCHWEISSEN
 70
64
 62
7
  6
CONTINUOUS
  0
LAYER
  2
SCHRAFFUREN
 70
64
 62
7
  6
CONTINUOUS
  0
LAYER
  2
SCHNITTSYMBOL
 70
64
 62
7
  6
CONTINUOUS
  0
LAYER
  2
RASTER
 70
64
 62
7
  6
CONTINUOUS
  0
LAYER
  2
LISTEN
 70
64
 62
7
  6
CONTINUOUS
  0
LAYER
  2
RAHMEN
 70
64
 62
7
  6
CONTINUOUS
  0
ENDTAB
  0
TABLE
  2
STYLE
 70
1
  0
STYLE
  2
STANDARD
 70
64
 40
0
 41
1
 50
0.0
 71
0
 42
0.35
  3
ROMANS
  0
ENDTAB
  0
ENDSEC
  0
SECTION
  2
ENTITIES
  0
LINE
  8
SCHRAUBEN
 62
6
 10
85.801025
 20
155.802185
 11
74.201035
 21
144.202179
  0
LINE
  8
SCHRAUBEN
 62
6
 10
74.201035
 20
155.802185
 11
85.801025
 21
144.202179
  0
CIRCLE
  8
SCHRAUBEN
 62
4
 10
80.001030
 20
150.002182
 40
14.500000
  0
LINE
  8
SCHRAUBEN
 62
6
 10
85.801025
 20
65.802216
 11
74.201035
 21
54.202217
  0
LINE
  8
SCHRAUBEN
 62
6
 10
74.201035
 20
65.802216
 11
85.801025
 21
54.202217
  0
CIRCLE
  8
SCHRAUBEN
 62
4
 10
80.001030
 20
60.002216
 40
14.500000
  0
LINE
  8
SCHRAUBEN
 62
6
 10
85.801025
 20
-54.197788
 11
74.201035
 21
-65.797791
  0
LINE
  8
SCHRAUBEN
 62
6
 10
74.201035
 20
-54.197788
 11
85.801025
 21
-65.797791
  0
CIRCLE
  8
SCHRAUBEN
 62
4
 10
80.001030
 20
-59.997787
 40
14.500000
  0
LINE
  8
SCHRAUBEN
 62
6
 10
85.801025
 20
-144.197815
 11
74.201035
 21
-155.797821
  0
LINE
  8
SCHRAUBEN
 62
6
 10
74.201035
 20
-144.197815
 11
85.801025
 21
-155.797821
  0
CIRCLE
  8
SCHRAUBEN
 62
4
 10
80.001030
 20
-149.997818
 40
14.500000
  0
LINE
  8
SCHRAUBEN
 62
6
 10
325.799713
 20
-144.197815
 11
314.199707
 21
-155.797821
  0
LINE
  8
SCHRAUBEN
 62
6
 10
314.199707
 20
-144.197815
 11
325.799713
 21
-155.797821
  0
CIRCLE
  8
SCHRAUBEN
 62
4
 10
319.999725
 20
-149.997818
 40
14.499969
  0
LINE
  8
SCHRAUBEN
 62
6
 10
325.799713
 20
-54.197788
 11
314.199707
 21
-65.797791
  0
LINE
  8
SCHRAUBEN
 62
6
 10
314.199707
 20
-54.197788
 11
325.799713
 21
-65.797791
  0
CIRCLE
  8
SCHRAUBEN
 62
4
 10
319.999725
 20
-59.997787
 40
14.499969
  0
LINE
  8
SCHRAUBEN
 62
6
 10
325.799713
 20
65.802216
 11
314.199707
 21
54.202217
  0
LINE
  8
SCHRAUBEN
 62
6
 10
314.199707
 20
65.802216
 11
325.799713
 21
54.202217
  0
CIRCLE
  8
SCHRAUBEN
 62
4
 10
319.999725
 20
60.002216
 40
14.499969
  0
LINE
  8
SCHRAUBEN
 62
6
 10
325.799713
 20
155.802185
 11
314.199707
 21
144.202179
  0
LINE
  8
SCHRAUBEN
 62
6
 10
314.199707
 20
155.802185
 11
325.799713
 21
144.202179
  0
CIRCLE
  8
SCHRAUBEN
 62
4
 10
319.999725
 20
150.002182
 40
14.499969
  0
TEXT
 8
UNTERSCHRIFT
 62
2
 10
118.100021
 20
194.749985
 40
3.250000
 41
0.800000
 51
15.000000
  1
Project  DP0GN9  ,Qty. 3  , Pos. 
  0
TEXT
 8
UNTERSCHRIFT
 62
2
 10
227.300018
 20
194.749985
 40
3.250000
 41
0.800000
 51
15.000000
  1
  , Profi l PL400*2
  0
TEXT
 8
UNTERSCHRIFT
 62
2
 10
203.900009
 20
194.749985
 40
3.250000
 41
0.800000
 51
15.000000
  1
4_61_1548
  0
LINE
  8
TEILE
 62
2
 10
400.000000
 20
200.000000
 11
400.000000
 21
-200.000000
  0
LINE
  8
TEILE
 62
2
 10
400.000000
 20
-200.000000
 11
0.000000
 21
-200.000000
  0
LINE
  8
TEILE
 62
2
 10
0.000000
 20
-200.000000
 11
0.000000
 21
200.000000
  0
LINE
  8
TEILE
 62
2
 10
0.000000
 20
200.000000
 11
400.000000
 21
200.000000
  0
TEXT
 8
BEZ_SCHRAUBEN
 62
2
 10
72.001030
 20
128.002182
 40
5.000000
 41
0.800000
 51
15.000000
  1
 ø29
  0
ENDSEC
  0
EOF

