999
     *******************************************
999
     BOCAD Software GmbH   Rev.18.000   0202.22
999
     Filename:   c:\progetti21\danieli_aqs\b4\temp_61\4_61_1553.dxf
999
     Creator:    bocad
999
     Date:       20.01.2016
999
     Factor:     10.000000
999
     *******************************************
  0
SECTION
  2
HEADER
  9
$DWGCODEPAGE
  3
ANSI_1252
  9
$INSBASE
 10
0.0
 20
0.0
 30
0.0
  9
$EXTMIN
 10
-0.500000
 20
-110.500002
  9
$EXTMAX
 10
632.500000
 20
110.500002
  9
$LIMMIN
 10
-1.500000
 20
-111.500002
  9
$LIMMAX
 10
633.500000
 20
111.500002
  9
$LTSCALE
 40
10.000000
  0
ENDSEC
  0
SECTION
  2
TABLES
  0
TABLE
  2
LTYPE
 70
4
  0
LTYPE
  2
CONTINUOUS
 70
64
  3
____________________________________________
 72
65
 73
0
 40
0.0
  0
LTYPE
  2
HIDDEN
 70
64
  3
__ __ __ __ __ __ __ __ __ __ __ __ __ __ __
 72
65
 73
2
 40
0.50
 49
0.30
 49
-0.20
  0
LTYPE
  2
DASHDOT
 70
64
  3
____ _ ____ _ ____ _ ____ _ ____ _ ____ _ __
 72
65
 73
4
 40
2.0
 49
1.5
 49
-0.25
 49
0
 49
-0.25
  0
LTYPE
  2
DOT
 70
64
  3
............................................
 72
65
 73
2
 40
0.30
 49
0
 49
-0.30
  0
ENDTAB
  0
TABLE
  2
LAYER
 70
23
  0
LAYER
  2
SCHRAUBEN
 70
64
 62
7
  6
CONTINUOUS
  0
LAYER
  2
REST
 70
64
 62
7
  6
CONTINUOUS
  0
LAYER
  2
UNTERSCHRIFT
 70
64
 62
7
  6
CONTINUOUS
  0
LAYER
  2
TEILE
 70
64
 62
7
  6
CONTINUOUS
  0
LAYER
  2
BEZ_SCHRAUBEN
 70
64
 62
7
  6
CONTINUOUS
  0
LAYER
  2
MARKERPUNKTE
 70
64
 62
7
  6
CONTINUOUS
  0
LAYER
  2
HILFSPUNKTE
 70
64
 62
7
  6
CONTINUOUS
  0
LAYER
  2
PICKPUNKTE
 70
64
 62
7
  6
CONTINUOUS
  0
LAYER
  2
SCHWEISSEN
 70
64
 62
7
  6
CONTINUOUS
  0
LAYER
  2
GRAFIK
 70
64
 62
7
  6
CONTINUOUS
  0
LAYER
  2
BEM_FREI
 70
64
 62
7
  6
CONTINUOUS
  0
LAYER
  2
BEM_SYSTEM
 70
64
 62
7
  6
CONTINUOUS
  0
LAYER
  2
BEM_KONTUR
 70
64
 62
7
  6
CONTINUOUS
  0
LAYER
  2
BEM_ANBAU
 70
64
 62
7
  6
CONTINUOUS
  0
LAYER
  2
BEM_SCHRAUBEN
 70
64
 62
7
  6
CONTINUOUS
  0
LAYER
  2
BEM_SCHWEISSEN
 70
64
 62
7
  6
CONTINUOUS
  0
LAYER
  2
FREIER_TEXT
 70
64
 62
7
  6
CONTINUOUS
  0
LAYER
  2
BEZ_TEILE
 70
64
 62
7
  6
CONTINUOUS
  0
LAYER
  2
BEZ_SCHWEISSEN
 70
64
 62
7
  6
CONTINUOUS
  0
LAYER
  2
SCHRAFFUREN
 70
64
 62
7
  6
CONTINUOUS
  0
LAYER
  2
SCHNITTSYMBOL
 70
64
 62
7
  6
CONTINUOUS
  0
LAYER
  2
RASTER
 70
64
 62
7
  6
CONTINUOUS
  0
LAYER
  2
LISTEN
 70
64
 62
7
  6
CONTINUOUS
  0
LAYER
  2
RAHMEN
 70
64
 62
7
  6
CONTINUOUS
  0
ENDTAB
  0
TABLE
  2
STYLE
 70
1
  0
STYLE
  2
STANDARD
 70
64
 40
0
 41
1
 50
0.0
 71
0
 42
0.35
  3
ROMANS
  0
ENDTAB
  0
ENDSEC
  0
SECTION
  2
ENTITIES
  0
LINE
  8
SCHRAUBEN
 62
6
 10
100.452126
 20
-39.220715
 11
93.252136
 21
-46.420715
  0
LINE
  8
SCHRAUBEN
 62
6
 10
93.252136
 20
-39.220715
 11
100.452126
 21
-46.420715
  0
CIRCLE
  8
SCHRAUBEN
 62
2
 10
96.852127
 20
-42.820717
 40
9.000000
  0
LINE
  8
SCHRAUBEN
 62
6
 10
55.588116
 20
-61.293777
 11
48.388115
 21
-68.493782
  0
LINE
  8
SCHRAUBEN
 62
6
 10
48.388115
 20
-61.293777
 11
55.588116
 21
-68.493782
  0
CIRCLE
  8
SCHRAUBEN
 62
2
 10
51.988113
 20
-64.893784
 40
9.000004
  0
LINE
  8
SCHRAUBEN
 62
6
 10
239.600098
 20
68.599998
 11
232.400085
 21
61.399998
  0
LINE
  8
SCHRAUBEN
 62
6
 10
232.400085
 20
68.599998
 11
239.600098
 21
61.399998
  0
CIRCLE
  8
SCHRAUBEN
 62
2
 10
236.000092
 20
65.000000
 40
9.000000
  0
LINE
  8
SCHRAUBEN
 62
6
 10
159.600082
 20
68.599998
 11
152.400085
 21
61.399998
  0
LINE
  8
SCHRAUBEN
 62
6
 10
152.400085
 20
68.599998
 11
159.600082
 21
61.399998
  0
CIRCLE
  8
SCHRAUBEN
 62
2
 10
156.000092
 20
65.000000
 40
9.000000
  0
LINE
  8
SCHRAUBEN
 62
6
 10
399.600098
 20
68.599998
 11
392.400085
 21
61.399998
  0
LINE
  8
SCHRAUBEN
 62
6
 10
392.400085
 20
68.599998
 11
399.600098
 21
61.399998
  0
CIRCLE
  8
SCHRAUBEN
 62
2
 10
396.000092
 20
65.000000
 40
9.000031
  0
LINE
  8
SCHRAUBEN
 62
6
 10
479.600067
 20
68.599998
 11
472.400055
 21
61.399998
  0
LINE
  8
SCHRAUBEN
 62
6
 10
472.400055
 20
68.599998
 11
479.600067
 21
61.399998
  0
CIRCLE
  8
SCHRAUBEN
 62
2
 10
476.000061
 20
65.000000
 40
9.000000
  0
LINE
  8
SCHRAUBEN
 62
6
 10
319.600098
 20
68.599998
 11
312.400085
 21
61.399998
  0
LINE
  8
SCHRAUBEN
 62
6
 10
312.400085
 20
68.599998
 11
319.600098
 21
61.399998
  0
CIRCLE
  8
SCHRAUBEN
 62
2
 10
316.000092
 20
65.000000
 40
9.000031
  0
LINE
  8
SCHRAUBEN
 62
6
 10
538.747925
 20
-39.220715
 11
531.547913
 21
-46.420715
  0
LINE
  8
SCHRAUBEN
 62
6
 10
531.547913
 20
-39.220715
 11
538.747925
 21
-46.420715
  0
CIRCLE
  8
SCHRAUBEN
 62
2
 10
535.147888
 20
-42.820717
 40
9.000000
  0
LINE
  8
SCHRAUBEN
 62
6
 10
583.611938
 20
-61.293777
 11
576.411865
 21
-68.493782
  0
LINE
  8
SCHRAUBEN
 62
6
 10
576.411865
 20
-61.293777
 11
583.611938
 21
-68.493782
  0
CIRCLE
  8
SCHRAUBEN
 62
2
 10
580.011902
 20
-64.893784
 40
9.000000
  0
TEXT
 8
UNTERSCHRIFT
 62
2
 10
520.118835
 20
95.386566
 40
3.249997
 50
-54.029835
 41
0.800001
 51
15.000000
  1
Project  DP0GN9  ,Qty. 22  , Pos. 
  0
TEXT
 8
UNTERSCHRIFT
 62
2
 10
585.786133
 20
4.904278
 40
3.249998
 50
-54.029831
 41
0.800001
 51
15.000000
  1
  , Profi l PL220*12
  0
TEXT
 8
UNTERSCHRIFT
 62
2
 10
572.041809
 20
23.842430
 40
3.249998
 50
-54.029831
 41
0.800001
 51
15.000000
  1
4_61_1553
  0
LINE
  8
TEILE
 62
2
 10
602.398743
 20
-110.000000
 11
29.601183
 21
-110.000000
  0
LINE
  8
TEILE
 62
2
 10
29.601183
 20
-110.000000
 11
0.000000
 21
-49.834900
  0
LINE
  8
TEILE
 62
2
 10
0.000000
 20
-49.834900
 11
116.000092
 21
110.000000
  0
LINE
  8
TEILE
 62
2
 10
116.000092
 20
110.000000
 11
516.000061
 21
110.000000
  0
LINE
  8
TEILE
 62
2
 10
516.000061
 20
110.000000
 11
632.000000
 21
-49.835083
  0
LINE
  8
TEILE
 62
2
 10
632.000000
 20
-49.835083
 11
602.398743
 21
-110.000000
  0
TEXT
 8
BEZ_SCHRAUBEN
 62
2
 10
88.852127
 20
-59.320717
 40
5.000000
 41
0.800000
 51
15.000000
  1
 ø18
  0
TEXT
 8
BEZ_SCHRAUBEN
 62
2
 10
43.988113
 20
-81.393776
 40
5.000000
 41
0.800000
 51
15.000000
  1
 ø18
  0
TEXT
 8
BEZ_SCHRAUBEN
 62
2
 10
228.000107
 20
48.500000
 40
5.000000
 41
0.800000
 51
15.000000
  1
 ø18
  0
TEXT
 8
BEZ_SCHRAUBEN
 62
2
 10
148.000092
 20
48.500000
 40
5.000000
 41
0.800000
 51
15.000000
  1
 ø18
  0
TEXT
 8
BEZ_SCHRAUBEN
 62
2
 10
388.000122
 20
48.500000
 40
5.000000
 41
0.800000
 51
15.000000
  1
 ø18
  0
TEXT
 8
BEZ_SCHRAUBEN
 62
2
 10
468.000061
 20
48.500000
 40
5.000000
 41
0.800000
 51
15.000000
  1
 ø18
  0
TEXT
 8
BEZ_SCHRAUBEN
 62
2
 10
308.000122
 20
48.500000
 40
5.000000
 41
0.800000
 51
15.000000
  1
 ø18
  0
TEXT
 8
BEZ_SCHRAUBEN
 62
2
 10
527.147888
 20
-59.320717
 40
5.000000
 41
0.800000
 51
15.000000
  1
 ø18
  0
TEXT
 8
BEZ_SCHRAUBEN
 62
2
 10
572.011902
 20
-81.393776
 40
5.000000
 41
0.800000
 51
15.000000
  1
 ø18
  0
ENDSEC
  0
EOF

