  0
SECTION
  2
HEADER
  9
$ACADVER
  1
AC1009
  9
$DWGCODEPAGE
  3
ansi_1252
  9
$INSBASE
 10
0.0
 20
0.0
 30
0.0
  9
$EXTMIN
 10
5.552265638763448
 20
3.839032561198593
 30
0.0
  9
$EXTMAX
 10
518.6850068675626
 20
271.8195927932293
 30
0.0
  9
$LIMMIN
 10
0.0
 20
0.0
  9
$LIMMAX
 10
12.0
 20
9.0
  9
$ORTHOMODE
 70
     1
  9
$REGENMODE
 70
     1
  9
$FILLMODE
 70
     1
  9
$QTEXTMODE
 70
     0
  9
$MIRRTEXT
 70
     0
  9
$DRAGMODE
 70
     2
  9
$LTSCALE
 40
1.0
  9
$OSMODE
 70
  1023
  9
$ATTMODE
 70
     1
  9
$TEXTSIZE
 40
0.2
  9
$TRACEWID
 40
0.05
  9
$TEXTSTYLE
  7
STANDARD
  9
$CLAYER
  8
0
  9
$CELTYPE
  6
BYLAYER
  9
$CECOLOR
 62
   256
  9
$DIMSCALE
 40
1.0
  9
$DIMASZ
 40
0.18
  9
$DIMEXO
 40
0.0625
  9
$DIMDLI
 40
0.38
  9
$DIMRND
 40
0.0
  9
$DIMDLE
 40
0.0
  9
$DIMEXE
 40
0.18
  9
$DIMTP
 40
0.0
  9
$DIMTM
 40
0.0
  9
$DIMTXT
 40
0.18
  9
$DIMCEN
 40
0.09
  9
$DIMTSZ
 40
0.0
  9
$DIMTOL
 70
     0
  9
$DIMLIM
 70
     0
  9
$DIMTIH
 70
     1
  9
$DIMTOH
 70
     1
  9
$DIMSE1
 70
     0
  9
$DIMSE2
 70
     0
  9
$DIMTAD
 70
     0
  9
$DIMZIN
 70
     0
  9
$DIMBLK
  1

  9
$DIMASO
 70
     1
  9
$DIMSHO
 70
     1
  9
$DIMPOST
  1

  9
$DIMAPOST
  1

  9
$DIMALT
 70
     0
  9
$DIMALTD
 70
     2
  9
$DIMALTF
 40
25.4
  9
$DIMLFAC
 40
1.0
  9
$DIMTOFL
 70
     0
  9
$DIMTVP
 40
0.0
  9
$DIMTIX
 70
     0
  9
$DIMSOXD
 70
     0
  9
$DIMSAH
 70
     0
  9
$DIMBLK1
  1

  9
$DIMBLK2
  1

  9
$DIMSTYLE
  2
STANDARD
  9
$DIMCLRD
 70
     0
  9
$DIMCLRE
 70
     0
  9
$DIMCLRT
 70
     0
  9
$DIMTFAC
 40
1.0
  9
$DIMGAP
 40
0.09
  9
$LUNITS
 70
     2
  9
$LUPREC
 70
     4
  9
$SKETCHINC
 40
0.1
  9
$FILLETRAD
 40
0.0
  9
$AUNITS
 70
     0
  9
$AUPREC
 70
     0
  9
$MENU
  1
.
  9
$ELEVATION
 40
0.0
  9
$PELEVATION
 40
0.0
  9
$THICKNESS
 40
0.0
  9
$LIMCHECK
 70
     0
  9
$CHAMFERA
 40
0.0
  9
$CHAMFERB
 40
0.0
  9
$SKPOLY
 70
     0
  9
$TDCREATE
 40
2452643.146717593
  9
$TDUPDATE
 40
2457919.722190637
  9
$TDINDWG
 40
0.0016408333
  9
$TDUSRTIMER
 40
2457919.638720752
  9
$USRTIMER
 70
     1
  9
$ANGBASE
 50
0.0
  9
$ANGDIR
 70
     0
  9
$PDMODE
 70
     0
  9
$PDSIZE
 40
0.0
  9
$PLINEWID
 40
0.0
  9
$COORDS
 70
     1
  9
$SPLFRAME
 70
     0
  9
$SPLINETYPE
 70
     6
  9
$SPLINESEGS
 70
     8
  9
$ATTDIA
 70
     0
  9
$ATTREQ
 70
     1
  9
$HANDLING
 70
     1
  9
$HANDSEED
  5
2F0
  9
$SURFTAB1
 70
     6
  9
$SURFTAB2
 70
     6
  9
$SURFTYPE
 70
     6
  9
$SURFU
 70
     6
  9
$SURFV
 70
     6
  9
$UCSNAME
  2

  9
$UCSORG
 10
0.0
 20
0.0
 30
0.0
  9
$UCSXDIR
 10
1.0
 20
0.0
 30
0.0
  9
$UCSYDIR
 10
0.0
 20
1.0
 30
0.0
  9
$PUCSNAME
  2

  9
$PUCSORG
 10
0.0
 20
0.0
 30
0.0
  9
$PUCSXDIR
 10
1.0
 20
0.0
 30
0.0
  9
$PUCSYDIR
 10
0.0
 20
1.0
 30
0.0
  9
$USERI1
 70
     0
  9
$USERI2
 70
     0
  9
$USERI3
 70
     0
  9
$USERI4
 70
     0
  9
$USERI5
 70
     0
  9
$USERR1
 40
0.0
  9
$USERR2
 40
0.0
  9
$USERR3
 40
0.0
  9
$USERR4
 40
0.0
  9
$USERR5
 40
0.0
  9
$WORLDVIEW
 70
     1
  9
$SHADEDGE
 70
     3
  9
$SHADEDIF
 70
    70
  9
$TILEMODE
 70
     1
  9
$MAXACTVP
 70
    64
  9
$PLIMCHECK
 70
     0
  9
$PEXTMIN
 10
0.0
 20
0.0
 30
0.0
  9
$PEXTMAX
 10
0.0
 20
0.0
 30
0.0
  9
$PLIMMIN
 10
0.0
 20
0.0
  9
$PLIMMAX
 10
0.0
 20
0.0
  9
$UNITMODE
 70
     0
  9
$VISRETAIN
 70
     1
  9
$PLINEGEN
 70
     0
  9
$PSLTSCALE
 70
     1
  0
ENDSEC
  0
SECTION
  2
TABLES
  0
TABLE
  2
VPORT
 70
     1
  0
VPORT
  2
*ACTIVE
 70
     0
 10
0.0
 20
0.0
 11
1.0
 21
1.0
 12
619.7413588525528
 22
42.49547779355348
 13
0.0
 23
0.0
 14
0.5
 24
0.5
 15
0.5
 25
0.5
 16
0.0
 26
0.0
 36
1.0
 17
-27.66959356597977
 27
-19.53870295786206
 37
0.0
 40
1057.647646519063
 41
2.372523117569353
 42
50.0
 43
0.0
 44
0.0
 50
0.0
 51
0.0
 71
    16
 72
  1000
 73
     1
 74
     3
 75
     0
 76
     0
 77
     0
 78
     0
  0
ENDTAB
  0
TABLE
  2
LTYPE
 70
     2
  0
LTYPE
  2
CONTINUOUS
 70
     0
  3
Solid line
 72
    65
 73
     0
 40
0.0
  0
LTYPE
  2
CENTERX2
 70
     0
  3
Center (2x) ________  __  ________  __  _____
 72
    65
 73
     4
 40
20.32
 49
12.7
 49
-2.54
 49
2.54
 49
-2.54
  0
ENDTAB
  0
TABLE
  2
LAYER
 70
     1
  0
LAYER
  2
0
 70
     0
 62
     7
  6
CONTINUOUS
  0
ENDTAB
  0
TABLE
  2
STYLE
 70
     1
  0
STYLE
  2
STANDARD
 70
     0
 40
0.0
 41
1.0
 50
0.0
 71
     0
 42
0.2
  3
arial.ttf
  4

  0
ENDTAB
  0
TABLE
  2
VIEW
 70
     0
  0
ENDTAB
  0
TABLE
  2
UCS
 70
     0
  0
ENDTAB
  0
TABLE
  2
APPID
 70
     4
  0
APPID
  2
ACAD
 70
     0
  0
APPID
  2
AECBASE
 70
     0
  0
APPID
  2
AEC_2DSECTION_XDATA
 70
     0
  0
APPID
  2
AEC_MASSGROUP_XDADA
 70
     0
  0
ENDTAB
  0
TABLE
  2
DIMSTYLE
 70
     1
  0
DIMSTYLE
  2
STANDARD
 70
     0
  3

  4

  5

  6

  7

 40
1.0
 41
0.18
 42
0.0625
 43
0.38
 44
0.18
 45
0.0
 46
0.0
 47
0.0
 48
0.0
140
0.18
141
0.09
142
0.0
143
25.4
144
1.0
145
0.0
146
1.0
147
0.09
 71
     0
 72
     0
 73
     1
 74
     1
 75
     0
 76
     0
 77
     0
 78
     0
170
     0
171
     2
172
     0
173
     0
174
     0
175
     0
176
     0
177
     0
178
     0
  0
ENDTAB
  0
ENDSEC
  0
SECTION
  2
BLOCKS
  0
BLOCK
  8
0
  2
$MODEL_SPACE
 70
     0
 10
0.0
 20
0.0
 30
0.0
  3
$MODEL_SPACE
  1

  0
ENDBLK
  5
21
  8
0
  0
BLOCK
 67
     1
  8
0
  2
$PAPER_SPACE
 70
     0
 10
0.0
 20
0.0
 30
0.0
  3
$PAPER_SPACE
  1

  0
ENDBLK
  5
5B
 67
     1
  8
0
  0
ENDSEC
  0
SECTION
  2
ENTITIES
  0
CIRCLE
  5
1EA
  8
0
 10
223.7140182309627
 20
178.5510374713272
 30
0.0
 40
10.00000000000011
  0
CIRCLE
  5
1EB
  8
0
 10
316.6380888234631
 20
215.7370509055295
 30
0.0
 40
10.00000000000006
  0
CIRCLE
  5
1EC
  8
0
 10
270.0338475670611
 20
203.9245580909306
 30
0.0
 40
9.999999999999886
  0
LINE
  5
1ED
  8
0
 10
382.6850068675627
 20
271.8195927932293
 30
0.0
 11
378.4018215603606
 21
271.3509673119016
 31
0.0
  0
LINE
  5
1EE
  8
0
 10
382.6850068675627
 20
271.8195927932293
 30
0.0
 11
438.6850068675627
 21
271.8195927932293
 31
0.0
  0
LINE
  5
1EF
  8
0
 10
378.7362601134347
 20
135.3869765976373
 30
0.0
 11
438.6850068675627
 21
135.3869765976373
 31
0.0
  0
LINE
  5
1F0
  8
0
 10
141.5522656387616
 20
179.8136889494277
 30
0.0
 11
85.55226563876344
 21
179.8136889494277
 31
0.0
  0
LINE
  5
1F1
  8
0
 10
154.1186362531622
 20
188.2978657810277
 30
0.0
 11
150.2376178348127
 21
185.6775987557781
 31
0.0
  0
ARC
  5
1F2
  8
0
 10
432.1186362534605
 20
-217.6331628430702
 30
0.0
 40
491.9999999999849
 50
97.23944730019998
 51
124.4051141936002
  0
LINE
  5
1F3
  8
0
 10
378.7362601134347
 20
135.3869765976373
 30
0.0
 11
376.4018215603606
 21
142.235132774859
 31
0.0
  0
LINE
  5
1F4
  8
0
 10
376.4018215603606
 20
142.235132774859
 30
0.0
 11
374.4250174763982
 21
134.6741552080279
 31
0.0
  0
LINE
  5
1F5
  8
0
 10
378.4018215603606
 20
271.3509673119016
 30
0.0
 11
376.4018215603606
 21
264.3737625097465
 31
0.0
  0
LINE
  5
1F6
  8
0
 10
376.4018215603606
 20
264.3737625097465
 30
0.0
 11
374.4018215603606
 21
270.9133252789553
 31
0.0
  0
LINE
  5
1F7
  8
0
 10
374.4018215603606
 20
270.9133252789553
 30
0.0
 11
370.1186362531622
 21
270.4446997976275
 31
0.0
  0
LINE
  5
1F9
  8
0
 10
150.2376178348127
 20
185.6775987557781
 30
0.0
 11
147.8354509459601
 21
177.2973935795458
 31
0.0
  0
LINE
  5
1FA
  8
0
 10
147.8354509459601
 20
177.2973935795458
 30
0.0
 11
146.1222690786995
 21
182.8991237575543
 31
0.0
  0
LINE
  5
1FB
  8
0
 10
146.1222690786995
 20
182.8991237575506
 30
0.0
 11
141.5522656387616
 21
179.8136889494277
 31
0.0
  0
LINE
  5
1FE
  8
0
 10
85.55226563875797
 20
59.81368894942769
 30
0.0
 11
5.552265638763458
 21
59.81368894942769
 31
0.0
  0
LINE
  5
1FF
  8
0
 10
149.7446778983867
 20
3.839032561198637
 30
0.0
 11
147.8354509459601
 21
11.11212532372131
 31
0.0
  0
LINE
  5
200
  8
0
 10
147.8354509459601
 20
11.11212532372131
 30
0.0
 11
145.9339138300369
 21
3.839032561198634
 31
0.0
  0
ARC
  5
201
  8
0
 10
432.1186362535114
 20
-217.6331628431103
 30
0.0
 40
356.9999999999786
 50
99.30017151670515
 51
141.6568195607975
  0
LINE
  5
202
  8
0
 10
438.6850068675627
 20
271.8195927932293
 30
0.0
 11
512.4202253394465
 21
242.1289070030717
 31
0.0
  0
LINE
  5
203
  8
0
 10
518.6850068675626
 20
222.1907204926657
 30
0.0
 11
518.6850068675626
 21
232.8526931759066
 31
0.0
  0
LINE
  5
204
  8
0
 10
438.6850068675627
 20
135.3869765976373
 30
0.0
 11
438.6850068675627
 21
222.1907204926657
 31
0.0
  0
LINE
  5
205
  8
0
 10
438.6850068675627
 20
222.1907204926657
 30
0.0
 11
518.6850068675626
 21
222.1907204926657
 31
0.0
  0
LINE
  5
206
  8
0
 10
7.666651562403379
 20
79.94054764319579
 30
0.0
 11
85.55226563876344
 21
179.8136889494277
 31
0.0
  0
LINE
  5
207
  8
0
 10
5.552265638763449
 20
73.79098744439086
 30
0.0
 11
5.552265638763449
 21
59.81368894942769
 31
0.0
  0
LINE
  5
208
  8
0
 10
152.1203029320782
 20
3.839032561198635
 30
0.0
 11
149.7446778983867
 21
3.839032561198635
 31
0.0
  0
ARC
  5
20C
  8
0
 10
508.6850068675627
 20
232.8526931759066
 30
0.0
 40
9.999999999999996
 50
0.0
 51
68.06701660351735
  0
ARC
  5
20E
  8
0
 10
15.55226563876345
 20
73.79098744439086
 30
0.0
 40
10.00000000000001
 50
142.0512753148186
 51
180.0
  0
LINE
  5
27D
  8
0
 10
145.9339138300369
 20
3.839032561198635
 30
0.0
 11
85.55226563875797
 21
3.839032561198635
 31
0.0
  0
LINE
  5
27E
  8
0
 10
85.55226563875797
 20
3.839032561198639
 30
0.0
 11
85.55226563875797
 21
59.81368894942769
 31
0.0
  0
ENDSEC
  0
EOF
