  0
SECTION
  2
HEADER
  9
$ACADVER
  1
AC1009
  9
$DWGCODEPAGE
  3
ansi_1252
  9
$INSBASE
 10
0.0
 20
0.0
 30
0.0
  9
$EXTMIN
 10
5.775464238609322
 20
3.816101198200771
 30
0.0
  9
$EXTMAX
 10
358.9082054674085
 20
215.822005042002
 30
0.0
  9
$LIMMIN
 10
0.0
 20
0.0
  9
$LIMMAX
 10
12.0
 20
9.0
  9
$ORTHOMODE
 70
     0
  9
$REGENMODE
 70
     1
  9
$FILLMODE
 70
     1
  9
$QTEXTMODE
 70
     0
  9
$MIRRTEXT
 70
     0
  9
$DRAGMODE
 70
     2
  9
$LTSCALE
 40
1.0
  9
$OSMODE
 70
  7167
  9
$ATTMODE
 70
     1
  9
$TEXTSIZE
 40
0.2
  9
$TRACEWID
 40
0.05
  9
$TEXTSTYLE
  7
STANDARD
  9
$CLAYER
  8
0
  9
$CELTYPE
  6
BYLAYER
  9
$CECOLOR
 62
   256
  9
$DIMSCALE
 40
1.0
  9
$DIMASZ
 40
0.18
  9
$DIMEXO
 40
0.0625
  9
$DIMDLI
 40
0.38
  9
$DIMRND
 40
0.0
  9
$DIMDLE
 40
0.0
  9
$DIMEXE
 40
0.18
  9
$DIMTP
 40
0.0
  9
$DIMTM
 40
0.0
  9
$DIMTXT
 40
0.18
  9
$DIMCEN
 40
0.09
  9
$DIMTSZ
 40
0.0
  9
$DIMTOL
 70
     0
  9
$DIMLIM
 70
     0
  9
$DIMTIH
 70
     1
  9
$DIMTOH
 70
     1
  9
$DIMSE1
 70
     0
  9
$DIMSE2
 70
     0
  9
$DIMTAD
 70
     0
  9
$DIMZIN
 70
     0
  9
$DIMBLK
  1

  9
$DIMASO
 70
     1
  9
$DIMSHO
 70
     1
  9
$DIMPOST
  1

  9
$DIMAPOST
  1

  9
$DIMALT
 70
     0
  9
$DIMALTD
 70
     2
  9
$DIMALTF
 40
25.4
  9
$DIMLFAC
 40
1.0
  9
$DIMTOFL
 70
     0
  9
$DIMTVP
 40
0.0
  9
$DIMTIX
 70
     0
  9
$DIMSOXD
 70
     0
  9
$DIMSAH
 70
     0
  9
$DIMBLK1
  1

  9
$DIMBLK2
  1

  9
$DIMSTYLE
  2
STANDARD
  9
$DIMCLRD
 70
     0
  9
$DIMCLRE
 70
     0
  9
$DIMCLRT
 70
     0
  9
$DIMTFAC
 40
1.0
  9
$DIMGAP
 40
0.09
  9
$LUNITS
 70
     2
  9
$LUPREC
 70
     4
  9
$SKETCHINC
 40
0.1
  9
$FILLETRAD
 40
0.0
  9
$AUNITS
 70
     0
  9
$AUPREC
 70
     0
  9
$MENU
  1
.
  9
$ELEVATION
 40
0.0
  9
$PELEVATION
 40
0.0
  9
$THICKNESS
 40
0.0
  9
$LIMCHECK
 70
     0
  9
$CHAMFERA
 40
0.0
  9
$CHAMFERB
 40
0.0
  9
$SKPOLY
 70
     0
  9
$TDCREATE
 40
2452643.105050937
  9
$TDUPDATE
 40
2457838.357165278
  9
$TDINDWG
 40
0.0002898727
  9
$TDUSRTIMER
 40
2457838.315208935
  9
$USRTIMER
 70
     1
  9
$ANGBASE
 50
0.0
  9
$ANGDIR
 70
     0
  9
$PDMODE
 70
     0
  9
$PDSIZE
 40
0.0
  9
$PLINEWID
 40
0.0
  9
$COORDS
 70
     2
  9
$SPLFRAME
 70
     0
  9
$SPLINETYPE
 70
     6
  9
$SPLINESEGS
 70
     8
  9
$ATTDIA
 70
     0
  9
$ATTREQ
 70
     1
  9
$HANDLING
 70
     1
  9
$HANDSEED
  5
1FC
  9
$SURFTAB1
 70
     6
  9
$SURFTAB2
 70
     6
  9
$SURFTYPE
 70
     6
  9
$SURFU
 70
     6
  9
$SURFV
 70
     6
  9
$UCSNAME
  2

  9
$UCSORG
 10
0.0
 20
0.0
 30
0.0
  9
$UCSXDIR
 10
1.0
 20
0.0
 30
0.0
  9
$UCSYDIR
 10
0.0
 20
1.0
 30
0.0
  9
$PUCSNAME
  2

  9
$PUCSORG
 10
0.0
 20
0.0
 30
0.0
  9
$PUCSXDIR
 10
1.0
 20
0.0
 30
0.0
  9
$PUCSYDIR
 10
0.0
 20
1.0
 30
0.0
  9
$USERI1
 70
     0
  9
$USERI2
 70
     0
  9
$USERI3
 70
     0
  9
$USERI4
 70
     0
  9
$USERI5
 70
     0
  9
$USERR1
 40
0.0
  9
$USERR2
 40
0.0
  9
$USERR3
 40
0.0
  9
$USERR4
 40
0.0
  9
$USERR5
 40
0.0
  9
$WORLDVIEW
 70
     1
  9
$SHADEDGE
 70
     3
  9
$SHADEDIF
 70
    70
  9
$TILEMODE
 70
     1
  9
$MAXACTVP
 70
    64
  9
$PLIMCHECK
 70
     0
  9
$PEXTMIN
 10
0.0
 20
0.0
 30
0.0
  9
$PEXTMAX
 10
0.0
 20
0.0
 30
0.0
  9
$PLIMMIN
 10
0.0
 20
0.0
  9
$PLIMMAX
 10
0.0
 20
0.0
  9
$UNITMODE
 70
     0
  9
$VISRETAIN
 70
     1
  9
$PLINEGEN
 70
     0
  9
$PSLTSCALE
 70
     1
  0
ENDSEC
  0
SECTION
  2
TABLES
  0
TABLE
  2
VPORT
 70
     1
  0
VPORT
  2
*ACTIVE
 70
     0
 10
0.0
 20
0.0
 11
1.0
 21
1.0
 12
-136.7539126536149
 22
-16.24141217041245
 13
0.0
 23
0.0
 14
0.5
 24
0.5
 15
0.5
 25
0.5
 16
0.0
 26
0.0
 36
1.0
 17
-27.66959356597977
 27
-19.53870295786203
 37
0.0
 40
1312.127382414591
 41
1.978007761966365
 42
50.0
 43
0.0
 44
0.0
 50
0.0
 51
0.0
 71
    16
 72
  1000
 73
     1
 74
     3
 75
     0
 76
     0
 77
     0
 78
     0
  0
ENDTAB
  0
TABLE
  2
LTYPE
 70
     2
  0
LTYPE
  2
CONTINUOUS
 70
     0
  3
Solid line
 72
    65
 73
     0
 40
0.0
  0
LTYPE
  2
CENTERX2
 70
     0
  3
Center (2x) ________  __  ________  __  _____
 72
    65
 73
     4
 40
20.32
 49
12.7
 49
-2.54
 49
2.54
 49
-2.54
  0
ENDTAB
  0
TABLE
  2
LAYER
 70
     1
  0
LAYER
  2
0
 70
     0
 62
     7
  6
CONTINUOUS
  0
ENDTAB
  0
TABLE
  2
STYLE
 70
     1
  0
STYLE
  2
STANDARD
 70
     0
 40
0.0
 41
1.0
 50
0.0
 71
     0
 42
0.2
  3
arial.ttf
  4

  0
ENDTAB
  0
TABLE
  2
VIEW
 70
     0
  0
ENDTAB
  0
TABLE
  2
UCS
 70
     0
  0
ENDTAB
  0
TABLE
  2
APPID
 70
     4
  0
APPID
  2
ACAD
 70
     0
  0
APPID
  2
AECBASE
 70
     0
  0
APPID
  2
AEC_2DSECTION_XDATA
 70
     0
  0
APPID
  2
AEC_MASSGROUP_XDADA
 70
     0
  0
ENDTAB
  0
TABLE
  2
DIMSTYLE
 70
     1
  0
DIMSTYLE
  2
STANDARD
 70
     0
  3

  4

  5

  6

  7

 40
1.0
 41
0.18
 42
0.0625
 43
0.38
 44
0.18
 45
0.0
 46
0.0
 47
0.0
 48
0.0
140
0.18
141
0.09
142
0.0
143
25.4
144
1.0
145
0.0
146
1.0
147
0.09
 71
     0
 72
     0
 73
     1
 74
     1
 75
     0
 76
     0
 77
     0
 78
     0
170
     0
171
     2
172
     0
173
     0
174
     0
175
     0
176
     0
177
     0
178
     0
  0
ENDTAB
  0
ENDSEC
  0
SECTION
  2
BLOCKS
  0
BLOCK
  8
0
  2
$MODEL_SPACE
 70
     0
 10
0.0
 20
0.0
 30
0.0
  3
$MODEL_SPACE
  1

  0
ENDBLK
  5
21
  8
0
  0
BLOCK
 67
     1
  8
0
  2
$PAPER_SPACE
 70
     0
 10
0.0
 20
0.0
 30
0.0
  3
$PAPER_SPACE
  1

  0
ENDBLK
  5
5B
 67
     1
  8
0
  0
ENDSEC
  0
SECTION
  2
ENTITIES
  0
LINE
  5
1DF
  8
0
  6
CENTERX2
 62
     7
 10
296.6250201602101
 20
213.0218574458992
 30
0.0
 11
296.6250201602101
 21
91.57991662620013
 31
0.0
  0
LINE
  5
1E0
  8
0
  6
CENTERX2
 62
     7
 10
68.05864954580957
 20
4.503547695999872
 30
0.0
 11
68.05864954580957
 21
106.6162487942999
 31
0.0
  0
CIRCLE
  5
1E1
  8
0
  6
CONTINUOUS
 62
     7
 10
220.7464528752093
 20
97.08465652010243
 30
0.0
 40
10.00000000000011
  0
CIRCLE
  5
1E2
  8
0
  6
CONTINUOUS
 62
     7
 10
127.8223822827089
 20
59.8986430859001
 30
0.0
 40
10.00000000000006
  0
CIRCLE
  5
1E3
  8
0
  6
CONTINUOUS
 62
     7
 10
174.4266235391091
 20
71.71113590049906
 30
0.0
 40
9.999999999999886
  0
LINE
  5
1E4
  8
0
  6
CONTINUOUS
 62
     7
 10
61.77546423860932
 20
3.816101198200771
 30
0.0
 11
66.05864954580957
 21
4.284726679528534
 31
0.0
  0
LINE
  5
1E5
  8
0
  6
CONTINUOUS
 62
     7
 10
61.77546423860932
 20
3.816101198200771
 30
0.0
 11
5.775464238609322
 21
3.816101198200771
 31
0.0
  0
LINE
  5
1E6
  8
0
  6
CONTINUOUS
 62
     7
 10
5.775464238609322
 20
103.8161011982008
 30
0.0
 11
5.775464238609322
 21
3.816101198200771
 31
0.0
  0
LINE
  5
1E7
  8
0
  6
CONTINUOUS
 62
     7
 10
61.77546423860932
 20
103.8161011982008
 30
0.0
 11
5.775464238609322
 21
103.8161011982008
 31
0.0
  0
LINE
  5
1E8
  8
0
  6
CONTINUOUS
 62
     7
 10
74.34183485300983
 20
109.416396390399
 30
0.0
 11
70.05864954580957
 21
107.5075634569072
 31
0.0
  0
LINE
  5
1E9
  8
0
  6
CONTINUOUS
 62
     7
 10
290.3418348530099
 20
210.2217098498001
 30
0.0
 11
74.34183485300983
 21
109.416396390399
 31
0.0
  0
LINE
  5
1EA
  8
0
  6
CONTINUOUS
 62
     7
 10
302.9082054674085
 20
215.822005042002
 30
0.0
 11
298.6250201602105
 21
213.9131721085115
 31
0.0
  0
LINE
  5
1EB
  8
0
  6
CONTINUOUS
 62
     7
 10
302.9082054674085
 20
215.822005042002
 30
0.0
 11
358.9082054674085
 21
215.822005042002
 31
0.0
  0
LINE
  5
1EC
  8
0
  6
CONTINUOUS
 62
     7
 10
358.9082054674085
 20
95.82200504200198
 30
0.0
 11
358.9082054674085
 21
215.822005042002
 31
0.0
  0
LINE
  5
1ED
  8
0
  6
CONTINUOUS
 62
     7
 10
302.9082054674085
 20
95.82200504200198
 30
0.0
 11
358.9082054674085
 21
95.82200504200198
 31
0.0
  0
LINE
  5
1EE
  8
0
  6
CONTINUOUS
 62
     7
 10
290.3418348530099
 20
87.33782821040192
 30
0.0
 11
294.2228532713593
 21
89.95809523565156
 31
0.0
  0
ARC
  5
1EF
  8
0
  6
CONTINUOUS
 62
     7
 10
12.3418348527097
 20
493.2688568344999
 30
0.0
 40
491.9999999999849
 50
277.2394473002
 51
304.4051141936002
  0
LINE
  5
1F0
  8
0
 10
66.05864954580957
 20
105.7249341316889
 30
0.0
 11
68.05864954580957
 21
99.85786500861984
 31
0.0
  0
LINE
  5
1F1
  8
0
 10
68.05864954580957
 20
99.85786500861984
 30
0.0
 11
70.05864954580957
 21
107.5075634569109
 31
0.0
  0
LINE
  5
1F2
  8
0
 10
66.05864954580957
 20
4.284726679528534
 30
0.0
 11
68.05864954580957
 21
11.26193148168356
 31
0.0
  0
LINE
  5
1F3
  8
0
 10
68.05864954580957
 20
11.26193148168356
 30
0.0
 11
70.05864954580957
 21
4.722368712474848
 31
0.0
  0
LINE
  5
1F4
  8
0
  6
CONTINUOUS
 62
     7
 10
70.05864954580957
 20
4.722368712474848
 30
0.0
 11
74.34183485300983
 21
5.190994193802611
 31
0.0
  0
LINE
  5
1F5
  8
0
  6
CONTINUOUS
 62
     7
 10
66.05864954580957
 20
105.7249341316889
 30
0.0
 11
61.77546423860932
 21
103.8161011982008
 31
0.0
  0
LINE
  5
1F6
  8
0
 10
294.6250201602101
 20
212.1305427832883
 30
0.0
 11
296.6250201602101
 21
206.2634736602192
 31
0.0
  0
LINE
  5
1F7
  8
0
 10
296.6250201602101
 20
206.2634736602192
 30
0.0
 11
298.6250201602101
 21
213.9131721085102
 31
0.0
  0
LINE
  5
1F8
  8
0
 10
294.2228532713593
 20
89.95809523565156
 30
0.0
 11
296.6250201602101
 21
98.33830041188382
 31
0.0
  0
LINE
  5
1F9
  8
0
 10
296.6250201602101
 20
98.33830041188382
 30
0.0
 11
298.3382020274707
 21
92.73657023387538
 31
0.0
  0
LINE
  5
1FA
  8
0
  6
CONTINUOUS
 62
     7
 10
298.3382020274707
 20
92.73657023387902
 30
0.0
 11
302.9082054674085
 21
95.82200504200198
 31
0.0
  0
LINE
  5
1FB
  8
0
  6
CONTINUOUS
 62
     7
 10
294.6250201602091
 20
212.1305427832911
 30
0.0
 11
290.3418348530099
 21
210.2217098498001
 31
0.0
  0
ENDSEC
  0
EOF
