  0
SECTION
  2
HEADER
  9
$ACADVER
  1
AC1009
  9
$DWGCODEPAGE
  3
ansi_1252
  9
$INSBASE
 10
0.0
 20
0.0
 30
0.0
  9
$EXTMIN
 10
0.9808233841086862
 20
2.803153561136266
 30
0.0
  9
$EXTMAX
 10
11582.52698453371
 20
1824.329490290132
 30
63.66880011389558
  9
$LIMMIN
 10
0.0
 20
0.0
  9
$LIMMAX
 10
12.0
 20
9.0
  9
$ORTHOMODE
 70
     1
  9
$REGENMODE
 70
     1
  9
$FILLMODE
 70
     1
  9
$QTEXTMODE
 70
     0
  9
$MIRRTEXT
 70
     0
  9
$DRAGMODE
 70
     2
  9
$LTSCALE
 40
1.0
  9
$OSMODE
 70
  1023
  9
$ATTMODE
 70
     1
  9
$TEXTSIZE
 40
0.2
  9
$TRACEWID
 40
0.05
  9
$TEXTSTYLE
  7
STANDARD
  9
$CLAYER
  8
0
  9
$CELTYPE
  6
BYLAYER
  9
$CECOLOR
 62
   256
  9
$DIMSCALE
 40
1.0
  9
$DIMASZ
 40
0.18
  9
$DIMEXO
 40
0.0625
  9
$DIMDLI
 40
0.38
  9
$DIMRND
 40
0.0
  9
$DIMDLE
 40
0.0
  9
$DIMEXE
 40
0.18
  9
$DIMTP
 40
0.0
  9
$DIMTM
 40
0.0
  9
$DIMTXT
 40
0.18
  9
$DIMCEN
 40
0.09
  9
$DIMTSZ
 40
0.0
  9
$DIMTOL
 70
     0
  9
$DIMLIM
 70
     0
  9
$DIMTIH
 70
     1
  9
$DIMTOH
 70
     1
  9
$DIMSE1
 70
     0
  9
$DIMSE2
 70
     0
  9
$DIMTAD
 70
     0
  9
$DIMZIN
 70
     0
  9
$DIMBLK
  1

  9
$DIMASO
 70
     1
  9
$DIMSHO
 70
     1
  9
$DIMPOST
  1

  9
$DIMAPOST
  1

  9
$DIMALT
 70
     0
  9
$DIMALTD
 70
     2
  9
$DIMALTF
 40
25.4
  9
$DIMLFAC
 40
1.0
  9
$DIMTOFL
 70
     0
  9
$DIMTVP
 40
0.0
  9
$DIMTIX
 70
     0
  9
$DIMSOXD
 70
     0
  9
$DIMSAH
 70
     0
  9
$DIMBLK1
  1

  9
$DIMBLK2
  1

  9
$DIMSTYLE
  2
STANDARD
  9
$DIMCLRD
 70
     0
  9
$DIMCLRE
 70
     0
  9
$DIMCLRT
 70
     0
  9
$DIMTFAC
 40
1.0
  9
$DIMGAP
 40
0.09
  9
$LUNITS
 70
     2
  9
$LUPREC
 70
     4
  9
$SKETCHINC
 40
0.1
  9
$FILLETRAD
 40
0.0
  9
$AUNITS
 70
     0
  9
$AUPREC
 70
     0
  9
$MENU
  1
.
  9
$ELEVATION
 40
0.0
  9
$PELEVATION
 40
0.0
  9
$THICKNESS
 40
0.0
  9
$LIMCHECK
 70
     0
  9
$CHAMFERA
 40
0.0
  9
$CHAMFERB
 40
0.0
  9
$SKPOLY
 70
     0
  9
$TDCREATE
 40
2452643.146717604
  9
$TDUPDATE
 40
2456828.80266919
  9
$TDINDWG
 40
0.0013647569
  9
$TDUSRTIMER
 40
2456828.717971181
  9
$USRTIMER
 70
     1
  9
$ANGBASE
 50
0.0
  9
$ANGDIR
 70
     0
  9
$PDMODE
 70
     0
  9
$PDSIZE
 40
0.0
  9
$PLINEWID
 40
0.0
  9
$COORDS
 70
     1
  9
$SPLFRAME
 70
     0
  9
$SPLINETYPE
 70
     6
  9
$SPLINESEGS
 70
     8
  9
$ATTDIA
 70
     0
  9
$ATTREQ
 70
     1
  9
$HANDLING
 70
     1
  9
$HANDSEED
  5
1FF
  9
$SURFTAB1
 70
     6
  9
$SURFTAB2
 70
     6
  9
$SURFTYPE
 70
     6
  9
$SURFU
 70
     6
  9
$SURFV
 70
     6
  9
$UCSNAME
  2

  9
$UCSORG
 10
0.0
 20
0.0
 30
0.0
  9
$UCSXDIR
 10
1.0
 20
0.0
 30
0.0
  9
$UCSYDIR
 10
0.0
 20
1.0
 30
0.0
  9
$PUCSNAME
  2

  9
$PUCSORG
 10
0.0
 20
0.0
 30
0.0
  9
$PUCSXDIR
 10
1.0
 20
0.0
 30
0.0
  9
$PUCSYDIR
 10
0.0
 20
1.0
 30
0.0
  9
$USERI1
 70
     0
  9
$USERI2
 70
     0
  9
$USERI3
 70
     0
  9
$USERI4
 70
     0
  9
$USERI5
 70
     0
  9
$USERR1
 40
0.0
  9
$USERR2
 40
0.0
  9
$USERR3
 40
0.0
  9
$USERR4
 40
0.0
  9
$USERR5
 40
0.0
  9
$WORLDVIEW
 70
     1
  9
$SHADEDGE
 70
     3
  9
$SHADEDIF
 70
    70
  9
$TILEMODE
 70
     1
  9
$MAXACTVP
 70
    64
  9
$PLIMCHECK
 70
     0
  9
$PEXTMIN
 10
0.0
 20
0.0
 30
0.0
  9
$PEXTMAX
 10
0.0
 20
0.0
 30
0.0
  9
$PLIMMIN
 10
0.0
 20
0.0
  9
$PLIMMAX
 10
0.0
 20
0.0
  9
$UNITMODE
 70
     0
  9
$VISRETAIN
 70
     1
  9
$PLINEGEN
 70
     0
  9
$PSLTSCALE
 70
     1
  0
ENDSEC
  0
SECTION
  2
TABLES
  0
TABLE
  2
VPORT
 70
     1
  0
VPORT
  2
*ACTIVE
 70
     0
 10
0.0
 20
0.0
 11
1.0
 21
1.0
 12
8472.43298362937
 22
229.5405246242152
 13
0.0
 23
0.0
 14
0.5
 24
0.5
 15
0.5
 25
0.5
 16
0.0
 26
0.0
 36
1.0
 17
-27.6695935659809
 27
-19.53870295786191
 37
0.0
 40
2151.049772337602
 41
1.79971181556196
 42
50.0
 43
0.0
 44
0.0
 50
0.0
 51
0.0
 71
    16
 72
  1000
 73
     1
 74
     3
 75
     0
 76
     0
 77
     0
 78
     0
  0
ENDTAB
  0
TABLE
  2
LTYPE
 70
     1
  0
LTYPE
  2
CONTINUOUS
 70
     0
  3
Solid line
 72
    65
 73
     0
 40
0.0
  0
ENDTAB
  0
TABLE
  2
LAYER
 70
     1
  0
LAYER
  2
0
 70
     0
 62
     7
  6
CONTINUOUS
  0
ENDTAB
  0
TABLE
  2
STYLE
 70
     1
  0
STYLE
  2
STANDARD
 70
     0
 40
0.0
 41
1.0
 50
0.0
 71
     0
 42
0.2
  3
arial.ttf
  4

  0
ENDTAB
  0
TABLE
  2
VIEW
 70
     0
  0
ENDTAB
  0
TABLE
  2
UCS
 70
     0
  0
ENDTAB
  0
TABLE
  2
APPID
 70
     2
  0
APPID
  2
ACAD
 70
     0
  0
APPID
  2
ACAD_PSEXT
 70
     0
  0
ENDTAB
  0
TABLE
  2
DIMSTYLE
 70
     2
  0
DIMSTYLE
  2
STANDARD
 70
     0
  3

  4

  5

  6

  7

 40
1.0
 41
0.18
 42
0.0625
 43
0.38
 44
0.18
 45
0.0
 46
0.0
 47
0.0
 48
0.0
140
0.18
141
0.09
142
0.0
143
25.4
144
1.0
145
0.0
146
1.0
147
0.09
 71
     0
 72
     0
 73
     1
 74
     1
 75
     0
 76
     0
 77
     0
 78
     0
170
     0
171
     2
172
     0
173
     0
174
     0
175
     0
176
     0
177
     0
178
     0
  0
DIMSTYLE
  2
ISO-25
 70
     0
  3

  4

  5

  6

  7

 40
1.0
 41
2.5
 42
0.625
 43
3.75
 44
1.25
 45
0.0
 46
0.0
 47
0.0
 48
0.0
140
2.5
141
2.5
142
0.0
143
0.03937007874016
144
1.0
145
0.0
146
1.0
147
0.625
 71
     0
 72
     0
 73
     0
 74
     0
 75
     0
 76
     0
 77
     1
 78
     8
170
     0
171
     3
172
     1
173
     0
174
     0
175
     0
176
     0
177
     0
178
     0
  0
ENDTAB
  0
ENDSEC
  0
SECTION
  2
BLOCKS
  0
BLOCK
  8
0
  2
$MODEL_SPACE
 70
     0
 10
0.0
 20
0.0
 30
0.0
  3
$MODEL_SPACE
  1

  0
ENDBLK
  5
21
  8
0
  0
BLOCK
 67
     1
  8
0
  2
$PAPER_SPACE
 70
     0
 10
0.0
 20
0.0
 30
0.0
  3
$PAPER_SPACE
  1

  0
ENDBLK
  5
5B
 67
     1
  8
0
  0
ENDSEC
  0
SECTION
  2
ENTITIES
  0
LINE
  5
1C4
  8
0
 10
8606.603631289521
 20
333.1780106593351
 30
0.0
 11
8693.803715714277
 21
333.1780106593351
 31
0.0
  0
ARC
  5
1C5
  8
0
 10
9526.747938141654
 20
-442.15181763503
 30
0.0
 40
1082.600620472274
 50
95.04194172910151
 51
130.4977531221154
  0
ARC
  5
1C6
  8
0
 10
9515.404317631122
 20
-265.7362645610382
 30
0.0
 40
786.6513104383043
 50
96.1152299726595
 51
143.1041212466125
  0
LINE
  5
1C7
  8
0
 10
8606.603631289521
 20
144.0255802868333
 30
0.0
 11
8741.046984367129
 21
144.0255802868333
 31
0.0
  0
ARC
  5
1C8
  8
0
 10
8741.046984367129
 20
344.0255802868333
 30
0.0
 40
200.0
 50
270.0
 51
316.5730896032596
  0
ARC
  5
1C9
  8
0
 10
8693.803715714277
 20
533.1780106593351
 30
0.0
 40
200.0
 50
270.0
 51
310.4977531221157
  0
LINE
  5
1CC
  8
0
 39
31.83440005694779
 10
9495.895891166325
 20
636.2598219166675
 30
0.0
 11
9495.895891166312
 21
516.438734517159
 31
0.0
  0
LINE
  5
1DF
  8
0
 10
9431.603631289521
 20
516.438734517159
 30
0.0
 11
9495.895891166312
 21
516.438734517159
 31
0.0
  0
CIRCLE
  5
1E2
  8
0
 10
8606.603631289521
 20
318.1780106593351
 30
0.0
 40
6.0
  0
CIRCLE
  5
1E3
  8
0
 10
8606.603631289521
 20
159.0255802868333
 30
0.0
 40
6.0
  0
ARC
  5
1E4
  8
0
 10
8606.603631289521
 20
318.1780106593351
 30
0.0
 40
15.0
 50
90.0
 51
180.0
  0
LINE
  5
1E5
  8
0
 10
8591.603631289521
 20
318.1780106593351
 30
0.0
 11
8591.603631289521
 21
159.0255802868333
 31
0.0
  0
ARC
  5
1E6
  8
0
 10
8606.603631289521
 20
159.0255802868333
 30
0.0
 40
15.0
 50
180.0
 51
270.0
  0
CIRCLE
  5
1E7
  8
0
 10
8749.855728730194
 20
246.2750175914144
 30
0.0
 40
41.17152682444794
  0
CIRCLE
  5
1E8
  8
0
 10
9331.299595254588
 20
561.7323101114189
 30
0.0
 40
27.01881447854248
  0
CIRCLE
  5
1E9
  8
0
 10
9168.731028528238
 20
512.1997331990888
 30
0.0
 40
28.97362717228241
  0
CIRCLE
  5
1EA
  8
0
 10
9020.719183780022
 20
433.8372974545192
 30
0.0
 40
31.46774266330978
  0
CIRCLE
  5
1EB
  8
0
 10
8896.242875938193
 20
337.7882581930235
 30
0.0
 40
33.26757199308204
  0
CIRCLE
  5
1EC
  8
0
 10
8805.256418240193
 20
165.0670752027827
 30
0.0
 40
5.0
  0
CIRCLE
  5
1ED
  8
0
 10
8795.756460862014
 20
353.0263030436718
 30
0.0
 40
5.0
  0
CIRCLE
  5
1EE
  8
0
 10
8915.640389318893
 20
442.983346355296
 30
0.0
 40
5.0
  0
CIRCLE
  5
1EF
  8
0
 10
8989.722250443576
 20
328.8566775412574
 30
0.0
 40
5.0
  0
CIRCLE
  5
1F0
  8
0
 10
9066.569362551765
 20
530.0376563505733
 30
0.0
 40
5.0
  0
CIRCLE
  5
1F1
  8
0
 10
9108.123888460601
 20
415.4429002517964
 30
0.0
 40
5.0
  0
CIRCLE
  5
1F2
  8
0
 10
9234.234835775851
 20
592.9099098501856
 30
0.0
 40
5.0
  0
CIRCLE
  5
1F3
  8
0
 10
9262.379497364285
 20
486.5009605809856
 30
0.0
 40
5.0
  0
CIRCLE
  5
1F4
  8
0
 10
9409.256260254695
 20
520.784550469084
 30
0.0
 40
5.0
  0
CIRCLE
  5
1F5
  8
0
 10
8900.340896098596
 20
240.0542196584529
 30
0.0
 40
5.0
  0
LINE
  5
1F7
  8
0
 10
9431.603631289521
 20
636.2598219166675
 30
0.0
 11
9495.895891166325
 21
636.2598219166675
 31
0.0
  0
ENDSEC
  0
EOF
